<?xml version="1.0" encoding="utf-8"?>
<!-- Generator: Adobe Illustrator 23.1.1, SVG Export Plug-In . SVG Version: 6.00 Build 0)  -->
<svg version="1.1" id="Livello_1" xmlns="http://www.w3.org/2000/svg" xmlns:xlink="http://www.w3.org/1999/xlink" x="0px" y="0px"
	 viewBox="0 0 100 30" style="enable-background:new 0 0 100 30;" xml:space="preserve">
<style type="text/css">
	.st0{fill:#FFFFFF;}
	.st1{fill:#FAFAF8;}
	.st2{fill:#100B10;}
	.st3{fill:#F5F0F2;}
	.st4{fill:#100D11;}
	.st5{fill:#120C11;}
	.st6{fill:#F5EDF0;}
	.st7{fill:#F3EAED;}
	.st8{fill:#110C11;}
	.st9{fill:#EBE6E9;}
	.st10{fill:#E1DCDF;}
	.st11{fill:#554B4F;}
	.st12{fill:#81757D;}
	.st13{fill:#32745C;}
	.st14{fill:#261D23;}
	.st15{fill:#2A2125;}
	.st16{fill:#251A20;}
	.st17{fill:#281E23;}
	.st18{fill:#30272B;}
	.st19{fill:#2D2528;}
	.st20{fill:#2E2429;}
	.st21{fill:#332B2F;}
	.st22{fill:#31272B;}
	.st23{fill:#423B3F;}
	.st24{fill:#3A2F34;}
	.st25{fill:#22181D;}
	.st26{fill:#231B1F;}
	.st27{fill:#221C1E;}
	.st28{fill:#34292D;}
	.st29{fill:#312B2D;}
	.st30{fill:#1E191A;}
	.st31{fill:#22161B;}
	.st32{fill:#393335;}
	.st33{fill:#3E383A;}
	.st34{fill:#E4DEE2;}
	.st35{fill:#3E353D;}
	.st36{fill:#2C2126;}
	.st37{fill:#EDE0E5;}
	.st38{fill:#28654F;}
	.st39{fill:#ECE8E9;}
	.st40{fill:#EBE5E7;}
	.st41{fill:#2C6B53;}
	.st42{fill:#E9E2E4;}
	.st43{fill:#ECE7E7;}
	.st44{fill:#D1E1DB;}
	.st45{fill:#D1E4DD;}
	.st46{fill:#C9E4DA;}
	.st47{fill:#CCE5DC;}
	.st48{fill:#BAD7CD;}
	.st49{fill:#C1D9CF;}
	.st50{fill:#C5DBD2;}
	.st51{fill:#C1DBD0;}
	.st52{fill:#A7C6BA;}
	.st53{fill:#91ACA0;}
	.st54{fill:#B1DCCC;}
	.st55{fill:#F1E6ED;}
	.st56{fill:#E2D6DC;}
	.st57{fill:#EDE2EA;}
	.st58{fill:#F6EDF1;}
	.st59{fill:#F3EEF1;}
	.st60{fill:#574B51;}
	.st61{fill:#316F58;}
	.st62{fill:#518571;}
	.st63{fill:#578676;}
	.st64{fill:#D5E9E0;}
	.st65{fill:#DDD0D8;}
</style>
<g>
	<path class="st0" d="M1.4,29.8c-0.5,0-0.9,0-1.4,0c0-9.8,0-19.6,0-29.4c0-0.3,0-0.4,0.5-0.4c33,0,65.9,0,98.9,0
		c0.5,0,0.5,0.1,0.5,0.4c0,9.7,0,19.3,0,29c0,0.4-0.1,0.4-0.6,0.4c-1.7,0-3.4,0-5.2,0c-0.3-0.3-0.5-0.7-0.5-1.2
		c0.2-1.6-0.1-3.3,0-4.9c0.1-1.1,0-2.1,0-3.1c-0.1-1.7-0.1-3.4-0.1-5.1c0-0.8,0.2-1.5,0-2.3c0-0.1,0-0.1,0-0.2c0.4-1.3,0-2.7,0.2-4
		c0.1-0.4-0.2-0.8,0-1.2c0.2-0.4,0.4-0.6,1-0.5c0.4,0,0.7,0.1,1.1,0c0.4,0,0.8,0,1.1-0.2c0.7-0.2,1.1-0.8,1-1.4
		c-0.1-0.6-0.7-1.1-1.4-1.2c-0.7-0.1-1.5,0.2-1.8,0.7c-0.1,0.1-0.1,0.2-0.2,0.4c0,0.1-0.1,0.1-0.1,0.2c-0.1,0.2-0.3,0.4-0.6,0.4
		c-0.4,0-0.3-0.3-0.3-0.5c0-0.5,0.1-1,0-1.6c-0.1-0.4,0.2-0.8,0.2-1.2c0-0.5,0-0.5-0.7-0.4c-0.9,0.1-1.9,0.1-2.8,0
		c-0.4-0.2-1-0.2-1.4-0.2c-1.7-0.1-3.4,0-5.2,0.1c-2.3,0.2-4.7,0.1-7,0.1c-2.4,0-4.8,0-7.2,0c-2.1,0-4.2-0.1-6.3-0.1
		c-0.9,0-1,0.1-1,0.7c0,4.3,0,8.6,0,13c0,0.7,0.1,1.4,0,2.1c0,0.2,0,0.4-0.2,0.6c-0.3,0.3-0.8,0.3-1.1-0.1c-0.2-0.3-0.2-0.5-0.1-0.8
		c0.2-0.5,0.2-0.5-0.6-0.6c-0.1,0-0.1,0-0.2,0C60.1,17.3,60,17.1,60,17c-0.3-2.4-0.4-4.7-0.3-7.1c0-0.5,0.1-1,0.1-1.5
		c0-0.1,0.1-0.3-0.1-0.3c-0.2-0.1-0.2,0.1-0.4,0.2c-0.6,0.2-1.2,0-1.8,0.1c-0.3,0-0.6-0.1-0.7,0.2c-0.1,0.9,0,1.7,0,2.6
		c-0.1,1.1,0.1,2.2-0.1,3.2c0,0.1,0.1,0.3,0.1,0.4c0,0.1,0.1,0.2,0,0.3c-0.1,0.4-0.1,0.7,0,1.1c0.1,0.2,0.1,0.5,0,0.7
		c-0.2,0.3-0.4,0.6,0,0.8c0.1,0.2,0.1,0.4,0.1,0.7c-0.2,0.3-0.5,0.4-0.9,0.2c-0.1,0-0.1-0.1-0.1-0.1c-0.2-0.2-0.4-0.4-0.2-0.7
		c0.2-0.3-0.1-0.4-0.4-0.4c-0.5-0.1-0.9-0.2-1.3-0.3c-0.2-0.2-0.2-0.5-0.2-0.7c0-1.6,0-3.2,0-4.7c0-0.9-0.5-1.8-1.2-2.5
		c-0.6-0.5-1.3-0.9-2.4-0.9c-0.8,0-1.5-0.1-2.3-0.1c-0.6,0-1,0.2-1.5,0.4c-0.2,0.2-0.4,0.3-0.7,0.4C45,9.4,45,9.4,44.3,8.8
		c-0.2-0.1-0.3-0.3-0.5-0.4c-0.1,0-0.1-0.1-0.2-0.1c-0.8-0.3-1-0.3-1.5,0.3c-0.2,0.3-0.3,0.5-0.6,0.8c-0.2,0.2-0.2,0.4,0.3,0.6
		c0.7,0.3,1.2,0.7,1.2,1.4c0,1.7,0,3.3,0,5c0,0.6-0.1,0.7-0.9,0.7c-0.9,0-1.8,0.1-2.7-0.1c-0.3-0.2-0.3-0.5-0.3-0.8c0-1.5,0-3,0-4.5
		c0-1-0.3-1.9-1.4-2.7c-1.1-0.8-2.4-1-3.8-0.9c-1.1,0-2,0.3-2.9,0.8c-0.4,0.2-0.8,0.2-1.2,0C27.9,7.8,26,7.9,24.2,9
		c-0.6,0.4-0.7,0.4-1.3-0.1c-0.3-0.2-0.5-0.4-0.7-0.6c-0.7-0.4-0.8-0.4-1.4,0c-0.9,0.7-0.8,1.4,0.1,2.1c0.4,0.3,0.6,0.6,0.6,1
		c0,2.5,0.1,5,0,7.4c0,0.4,0.3,0.4,0.6,0.4c2.5-0.1,4.9,0.1,7.4,0c1.4,0,2.7-0.1,4.1,0c0.8,0,0.9,0.2,1,0.8c0,0.4-0.1,0.9,0,1.3
		c0.1,0.3-0.2,0.4-0.6,0.4c-1.1,0-2.2,0.1-3.2,0c-0.6,0-1.1,0-1.7,0c-1.6,0.1-3.3,0-4.9,0c-2.1,0-4.1,0-6.2,0c-1.7,0-3.3,0.1-5-0.1
		c-0.4,0-0.9-0.1-1.3,0c-0.1,0-0.3,0.1-0.4,0.2c-0.7,0.3-1.4,0.2-2.2,0.3c-0.3,0-0.6,0-0.9,0c-0.4,0-0.8,0.1-0.9-0.3
		c0-0.2-0.4-0.2-0.6-0.1c-1.1,0.2-2.3,0-3.4,0.3c-0.3,0.1-0.6-0.1-0.9-0.1c-0.3,0-0.6,0-0.5,0.4c0.3,1,0,2.1-0.2,3.1
		c-0.1,1-0.1,1.9-0.1,2.9C1.7,28.9,1.7,29.4,1.4,29.8z"/>
	<path class="st1" d="M96.3,7.5c-0.5,0-0.9,0.2-1.4,0c-0.4-0.1-1.1,0.6-0.9,1c0.4,0.6,0,1.1,0.1,1.7c0.1,0.7-0.2,1.4,0.2,2.1
		c0,0.1,0.1,0.2,0,0.2c-0.6,0.5-0.3,1-0.2,1.5c0.1,0.3,0,0.6-0.1,0.9c-0.1,1-0.1,2,0,3c0,0.3-0.1,0.7-0.1,1c0,1,0.2,2,0.2,3.1
		c0,1.3,0,2.7,0,4c0,0.9,0.2,1.9,0,2.8c-0.1,0.4,0.3,0.7,0.3,1.1c-31,0-61.9,0-92.9,0c0-1.1,0-2.2,0-3.3c0-0.8,0.2-1.6,0.3-2.4
		C1.8,23.6,2,23,1.7,22.4c-0.2-0.3,0.3-0.6,0.8-0.5c1,0.3,1.9-0.1,2.9-0.1c0.5,0,1.1-0.1,1.6-0.1c0.3,0,0.9-0.1,0.6,0.4
		c-0.1,0.1,0.1,0.2,0.2,0.2c1-0.2,2-0.1,3-0.2c0.2,0,0.4-0.1,0.5-0.2c0.3,0.3,0.1,0.5-0.4,0.6c-0.6,0.1-1.1,0.4-1.7,0.3
		c-0.2,0-0.2,0.1-0.3,0.2c-0.9,0.5-1.2,1.2-0.9,2c-0.2,0.5-0.2,0.5,0.5,0.6c0.2,0,0.4,0,0.6,0c0.8,0,1.1-0.1,1.4-0.7
		c0.1-0.2,0.2-0.4,0.6-0.4c0.4,0,0.4,0.3,0.5,0.5c0.1,0.2-0.1,0.6,0.4,0.6c0.1,0,0.1-0.1,0.2-0.2c0.1-0.4,0-0.7,0.1-1.1
		c0-0.2,0-0.3,0.2-0.4c0.2-0.1,0.4,0.1,0.5,0.2c0.3,0.3,0.4,0.6,0.4,0.9c0.1,0.5,0.3,0.6,0.9,0.6c0.4,0,0.9,0.1,1.3-0.2
		c0.1-0.1,0.1-0.1,0.2-0.2c0.3-0.2,0.6-0.1,0.9,0.1c0.8,0.4,1.6,0.5,2.4,0.2c0,0,0.1-0.1,0.1-0.1c0.4-0.1,0.5-0.4,0.6-0.7
		c0.1-0.2,0.1-0.3,0.2-0.5c0.1-0.1,0.2-0.2,0.4-0.2c0.2,0,0.2,0.2,0.2,0.3c-0.1,0.2,0,0.4,0.3,0.5c0.2,0.1,0.4,0.3,0.7,0.4
		c0.7,0.3,1.2,0.1,2-0.6c0.6-0.4,0.7-0.4,1,0.2c0.1,0.1,0.1,0.2,0.2,0.3c0.1,0.1,0.2,0.3,0.4,0.2c0.2-0.1,0.2-0.2,0.2-0.3
		c0-0.3,0-0.6,0-1c0.1-0.5,0.3-0.8,1-0.9c0.1,0,0.2,0,0.3,0.1c0.3,0.2,0.3,0.6,0.3,0.9c0,0.3-0.1,0.7,0.1,1c0,0,0.1,0,0.1-0.1
		c0-0.5-0.1-1,0.1-1.5c0-0.1,0.1-0.2,0.2-0.2c0.3-0.2,0.6-0.3,1-0.2c0.4,0.2,0.4,0.4,0.4,0.7c0,0.4,0,0.8,0.1,1.2
		c0.1-0.5,0.2-1.1,0-1.6C29,23.1,28.7,23,28.2,23c-0.5,0.1-1,0.3-1.4,0c-0.1,0-0.1,0-0.2,0c-0.1,0-0.3,0-0.5-0.1
		c-1.1-0.1-1.1,0-1.2,0.8c0,0.1,0,0.1,0,0.2c-0.1,0.2-0.2,0.4-0.5,0.4c-0.3,0-0.5-0.2-0.5-0.5c-0.1-0.5-0.5-0.9-1.1-1.2
		c-0.1-0.1-0.2-0.1-0.4-0.1c-1,0.4-1.9,0-2.9,0c-0.8,0-1.5,0-2,0.6c-0.2,0.2-0.5,0.2-0.8,0.1c-0.6-0.2-1.1-0.4-1.7-0.5
		c-0.4,0-0.7,0-1,0.2c-0.2,0.2-0.4,0.2-0.6,0.3c-0.9,0.1-1.1,0-1.1-0.7c0-0.4-0.1-0.7-0.7-0.7c-0.1,0-0.1-0.1-0.1-0.2
		c0.4-0.2,0.9-0.1,1.4-0.1c1.3,0.2,2.6,0.1,3.8,0.1c1.4,0,2.7,0,4.1,0c2.4,0,4.8,0,7.2,0.1c0.9,0,1.8-0.1,2.7-0.1
		c1.1,0.1,2.3-0.1,3.4,0c0.2,0,0.5,0,0.3-0.2c-0.3-0.5,0.1-1,0-1.6c0-0.3-0.1-0.5-0.6-0.5c-0.7,0-1.5,0-2.2,0.1
		c-0.5,0.1-1-0.1-1.5-0.1c-1.6,0-3.2,0-4.7,0c-1.1,0-2.2-0.2-3.4,0c-0.7,0.1-0.8-0.1-0.7-0.6c0-0.2,0-0.3,0-0.5c0-1.8,0-3.6,0-5.4
		c0-0.5,0-1,0-1.6c0-0.3,0-0.6-0.4-0.8c-0.6-0.2-0.8-0.6-1-1c-0.1-0.2-0.2-0.5-0.1-0.6c0.4-0.3,0.3-0.7,0.9-1
		c0.8-0.4,0.9-0.4,1.5,0.1c-0.1,0.1-0.3,0.1-0.5,0c-0.4-0.1-0.7,0.1-0.8,0.3c-0.1,0.2-0.3,0.4-0.4,0.6c-0.1,0.2-0.1,0.4,0.2,0.6
		c0.7,0.5,1,1.1,0.9,1.8c0,2.2,0,4.4,0,6.5c0,0.7,0.1,0.7,1,0.7c1.3,0,1.3,0,1.3-1c0-2,0-4,0-6c0-0.7,0.2-1.3,0.9-1.7
		c0.8-0.5,1.6-0.6,2.6-0.4c1,0.3,1.5,0.9,1.7,1.7c0.1,0.2,0,0.5,0,0.7c0,2,0,3.9,0,5.9c0,0.7,0.1,0.7,1,0.7c0.1,0,0.1,0,0.2,0
		c1.1,0,1.1,0,1.1-0.9c0-2.1,0-4.1,0-6.2c0-1,0.7-1.7,2-2c0.9-0.2,2.7,0.3,2.9,1.2c0,0.1,0,0.2-0.1,0.3c-0.5,0-0.7-0.3-1-0.5
		c-0.4-0.4-1-0.7-1.6-0.5c-0.7,0.2-1.3,0.5-1.4,1.2c-0.1,0.6-0.1,1.2-0.1,1.8c0,1.6,0,3.2,0,4.9c0,0.7,0.1,0.8,1.1,0.8
		c0.1,0,0.3,0,0.4,0c1,0.1,2,0,2.6-0.8c0.6,0.3,0.1,0.7,0.1,1.1c0,0.3-0.3,0.3-0.6,0.3c-0.2,0-0.4,0-0.4,0.2c0,0.2,0.1,0.3,0.3,0.3
		c0.2,0.1,0.4,0,0.5,0c0.3,0,0.6,0,0.9,0c1.4,0.2,1.4,0.2,1.3,1.2c0,0.6-0.3,1.2-0.2,1.8c0,0.1,0,0.3-0.2,0.4
		c-0.1,0.1-0.3,0.2-0.6,0.2c-0.2,0-0.3-0.2-0.3-0.3c-0.3-0.7-0.3-0.7-1.2-0.6c-0.3,0-0.5,0-0.8,0c-0.3,0-0.8,0-0.7,0.5
		c0.1,0.2-0.1,0.4-0.3,0.4c-0.3,0.1-0.6-0.1-0.8-0.2c-0.1-0.1-0.1-0.2-0.1-0.3c0-0.1,0-0.2-0.2-0.2c-0.2,0-0.3,0.1-0.3,0.2
		c0,0.2-0.2,0.5-0.1,0.7c0.1,0.3,0,0.5-0.2,0.7c-0.2,0.3-0.9,0.4-1.2,0.2c-0.1-0.1-0.1-0.2-0.1-0.3c0.4-0.5-0.3-0.9-0.2-1.4
		c0-0.1-0.2,0-0.2,0.1c-0.1,0.5-0.1,1,0,1.5c0,0.6,0.5,0.9,1.3,0.7c0.3-0.1,0.6-0.1,0.9,0c0.1,0,0.1-0.1,0.2-0.2
		c0.1-0.2,0.3-0.3,0.5-0.3c0.3,0,0.5,0.1,0.6,0.3c0.1,0.1,0.1,0.2,0.1,0.2c0.1,0.1,0,0.3,0.2,0.3c0.2,0,0.3-0.1,0.4-0.3
		c0.2-0.6,0.5-1.2,0.3-1.9c0,0,0.1-0.1,0.1-0.1c0.5,0,0.7,0.2,0.6,0.5c-0.1,0.5,0.3,1,0.2,1.5c0,0.2,0.2,0.2,0.3,0.2
		c0.5,0,1.1-0.2,1.6,0.1c0.1,0.1,0.3,0,0.3-0.1c0.1-0.4,0.5-0.6,0.5-1.1c-0.1-0.6-0.3-1.1-0.3-1.7c0-0.2,0-0.3,0.1-0.5
		c0.3-0.5,0.5-0.9-0.2-1.3c-0.2-0.1,0-0.3,0.2-0.3c0.4-0.1,0.7-0.2,1.1,0.1c0.4,0.2,0.6,0.2,0.6-0.2c0-0.5,0.3-0.6,0.9-0.5
		c0.5,0,1,0,1.5-0.1c0.9-0.2,1.2-0.1,1.7,0.4c0.2,0.3,0.3,0.4,0.8,0.2c0.6-0.3,1.3-0.3,2-0.3c0.5,0,0.5,0.4,0.8,0.6
		c0.2-0.1,0.1-0.3,0.1-0.4c0-0.4,0.1-0.6,0.7-0.5c0.6,0.1,1.3,0,1.5,0.6c0.7,0.1,1.1,0.5,1.5,1c0.1,0.2,0.6,0.2,0.9,0.2
		c0.5-0.1,0.9-0.3,1.4-0.1c0.2,0.1,0.3-0.1,0.4-0.2c0.2-0.2,0.4-0.4,0.7-0.4c0.8-0.1,1.1,0.1,1,0.7c0,0.1,0,0.1,0,0.2
		c0.4-0.1,0.9-0.1,1.2,0.2c0.1,0.1,0.2,0.1,0.2,0.2c0,0.1-0.2,0.1-0.3,0.1c-0.7-0.1-0.8,0.2-1,0.6c-0.2,0.3-0.4,0.6,0,1
		c0.3,0.3,0.1,0.7,0.1,1.1c0,0.1,0,0.3,0.2,0.3c0.3,0,0.3-0.2,0.3-0.3c-0.3-0.8,0.7-1,1.2-1.4c0.2-0.2,0.3,0.1,0.3,0.2
		c0.1,0.3,0,0.6,0,0.9c0,0.1,0,0.3,0,0.4c0,0.2,0.2,0.2,0.4,0.2c0.3,0,0.3-0.2,0.2-0.3c-0.4-0.5-0.1-1.1-0.3-1.6c0,0,0-0.1,0-0.1
		c0.2-0.4,0.4-0.4,0.7-0.1c0.5,0.4,0.8,0.9,0.7,1.5c-0.1,0.5,0.1,0.8,0.8,0.8c-0.3-0.4-0.3-1.2,0.1-1.6c0.2-0.2,0.3-0.1,0.5,0
		c0.2,0.1,0.3,0.3,0.3,0.5c-0.2,0.7,0.3,1.2,0.4,1.8c0,0.2,0.2,0.4,0.6,0.4c4.5,0,9.1,0.1,13.6,0c5.3-0.1,10.5-0.1,15.8-0.1
		c0.2,0,0.5,0,0.7,0c0.4,0,0.7-0.2,0.7-0.5c0-0.6,0.1-1.2,0-1.8c-0.2-1.2-0.1-2.4-0.1-3.7c-0.2-5.3-0.1-10.5-0.1-15.8
		c0-0.7,0.1-1.3-0.1-2c0-0.1,0-0.2,0-0.3c0.2-0.3,0.5-0.1,0.7,0c0.2,0.1,0.1,0.3,0.1,0.4c-0.2,0.4,0.1,0.9-0.3,1.3
		c0.5,0.7-0.1,1.4,0.2,2.1c0.6,0,0.4-0.4,0.6-0.6c0.1,0,0.1,0.1,0.1,0.2c0,0.8,0.5,1.2,1.4,1.5C96.3,7.3,96.3,7.4,96.3,7.5z"/>
	<path class="st2" d="M36.3,11c-0.5-0.8-1.5-1.2-2.6-1c-1.2,0.2-1.9,0.9-1.9,1.8c0,2.3,0,4.5,0,6.8c0,0.4-0.1,0.6-0.7,0.5
		c-0.4,0-0.9,0-1.4,0c-0.6,0-0.7-0.1-0.7-0.5c0-2.3,0-4.6,0-6.8c0-0.9-0.8-1.6-1.9-1.7c-1-0.2-2.2,0.3-2.7,1c-0.2,0.3-0.2,0.7-0.2,1
		c0,2.2,0,4.4,0,6.6c0,0.5-0.2,0.6-0.8,0.6c-0.4,0-0.8,0-1.2,0c-0.6,0-0.8-0.1-0.8-0.6c0-2.3,0-4.7,0-7c0-0.7-0.3-1.3-1.1-1.7
		c-0.3-0.1-0.3-0.2-0.1-0.5c0.1-0.2,0.2-0.4,0.4-0.5C21.2,8,21.2,8,22.3,8.3C22.6,8.6,23,8.7,23.2,9c0.1,0.2,0.3,0.2,0.5,0
		c0.2-0.1,0.4-0.3,0.6-0.4c1.7-1,3.9-1,5.7,0.1c0.3,0.2,0.6,0.3,1,0c1.3-0.8,2.9-1,4.5-0.8c2.3,0.3,3.8,1.6,3.8,3.5
		c0,1.6,0,3.2,0,4.7c0,0.2-0.1,0.4,0.1,0.6c0.3,0.3,0.7,0.4,1.1,0.5c0.5,0.1,0.5,0.3,0.3,0.6c-0.1,0.1-0.2,0.3-0.3,0.4
		c-0.7,1.1-1,1.1-2.5,0.6c-0.1,0-0.2-0.1-0.4-0.1c-0.1,0-0.1-0.1-0.2-0.1c-1-0.6-1.2-1.5-1.2-2.3c0-1.7,0-3.3,0-5
		C36.4,11.4,36.4,11.2,36.3,11z"/>
	<path class="st3" d="M93.4,2.5c0,0,0.1,0.1,0.1,0.1c-0.4,0.2-0.8,0.1-1.3,0.1c-6.8,0-13.6,0-20.4,0c-2.1,0-4.1,0-6.2,0
		c-0.8,0-1.7-0.1-2.5-0.1c-0.5,0-0.6,0.1-0.7,0.5c-0.1,1.3,0,2.7,0,4c0.1,4.7,0.2,9.5,0.2,14.2c0,1.6,0.1,3.2,0.1,4.7
		c0,0.3,0,0.5-0.2,0.7c-0.2-0.1-0.4-0.2-0.4-0.4c-0.2-0.5-0.2-1-0.5-1.5c-0.1-0.1,0-0.3,0.1-0.4c0.2-0.2,0-0.4-0.1-0.6
		c0-0.1-0.1-0.1-0.2-0.1c-0.1,0-0.2,0.1-0.2,0.1c0,0.3-0.2,0.5-0.3,0.8c-0.1,0.3,0.1,0.5,0.4,0.6c0.1,0,0.2,0.1,0.1,0.2
		c-0.1,0.1-0.2,0.1-0.3,0.1c-0.7-0.1-1.1-0.4-1.1-0.9c0.1-0.6-0.1-1.1-0.7-1.6c-0.1-0.1-0.1-0.2-0.3-0.2c-0.2,0-0.1,0.2-0.2,0.3
		c-0.6-0.3-1.2-0.5-1.9-0.3c-0.3,0.1-0.4,0.1-0.4,0.3c0,0.5,0,1,0.1,1.6c0.1-0.2,0.1-0.4,0.1-0.6c0-0.2,0-0.5,0-0.7
		c0.1-0.4,0.5-0.7,1-0.7c0.5,0,0.8,0.3,0.9,0.7c0.1,0.4,0,0.8,0.1,1.2c0.1-0.3,0.1-0.6,0.1-0.9c0-0.2-0.1-0.5,0.2-0.7
		c0.3,0.2,0.1,0.4,0.2,0.6c0,0.3-0.1,0.7,0.2,1c0.1,0.1,0.1,0.4-0.1,0.5c-0.2,0.1-0.4,0.1-0.6,0.1c-0.3-0.1-0.3-0.2-0.3-0.4
		c0-0.5,0-0.9,0-1.4c-0.3,0.3-0.5,0.6-1,0.6c-0.3,0-0.2,0.2-0.2,0.3c0,0.2,0,0.4,0,0.7c0,0.2-0.1,0.3-0.4,0.3
		c-0.3,0-0.4-0.1-0.4-0.3c0-0.2,0-0.3,0-0.5c0-0.3,0.2-0.7-0.3-1c-0.2-0.1-0.1-0.4,0-0.5c0.2-0.3,0.3-0.5,0.4-0.8
		c0.2-0.5,0.7-0.3,1.1-0.2c-0.4-0.2-0.7-0.5-1.2-0.2c-0.2,0.1-0.4-0.1-0.3-0.3c0.1-0.3,0.3-0.6-0.2-0.7c-0.5-0.1-1.1-0.1-1.3,0.4
		c-0.1,0.2-0.3,0.6-0.7,0.1c-0.1-0.2-0.5-0.1-0.7,0.1c-0.4,0.2-0.8,0-1.1,0c-0.5-0.1-0.6-0.3-0.6-0.7c0-0.3-0.3-0.3-0.5-0.3
		c-0.4,0-0.7,0-0.7-0.4c0-0.2-0.2-0.3-0.5-0.3c-0.1,0-0.2,0-0.3,0c-0.9-0.1-0.9-0.1-1,0.6c0,0.2-0.1,0.4-0.3,0.5
		c-0.3,0-0.3-0.2-0.4-0.4c-0.1-0.4-0.4-0.4-0.8-0.3c-0.4,0.1-0.9,0.1-1.3,0.2c-0.2,0-0.4,0.1-0.4,0.2c-0.1,0.1-0.1,0.3-0.3,0.3
		c-0.2,0-0.2-0.2-0.3-0.3c-0.4-0.6-0.8-0.7-1.6-0.6c-0.5,0.1-1.1,0.1-1.7,0.1c-0.5,0-0.7,0-0.5,0.4c0.1,0.3,0,0.5-0.3,0.5
		c-0.3,0.1-0.5,0-0.7-0.2c-0.2-0.3-0.7,0-0.9,0c-0.2,0,0.1,0.2,0.2,0.2c0.5,0.2,0.5,0.5,0.3,0.9c-0.3,0.4-0.3,0.8-0.2,1.2
		c0.1,0.4,0.7,0.8,0.1,1.2c0.1,0,0.2,0.1,0.2,0.1c0.2,0.2-0.5,1.3-0.8,1.4c-0.1,0-0.2,0-0.2,0c-0.6-0.4-1.3-0.1-1.9-0.1
		c-0.2,0-0.4,0-0.2-0.2c0.2-0.3,0.1-0.5,0-0.8c-0.1-0.3-0.2-0.5-0.1-0.8c0.1-0.3-0.1-0.5-0.5-0.5c0.5-0.3,1-0.3,1.1,0.2
		c0.2,0.5,0.2,1,0.2,1.5c0-0.5,0-1,0-1.5c0-0.5-0.5-0.7-1.1-0.6c-0.1,0-0.2,0-0.2,0.1c-0.2,0.2-0.6-0.1-0.8,0.2
		c-0.1,0.2-0.1,0.5-0.1,0.8c0,0.4,0,0.7,0.1,1.1c0.1-0.4,0-0.8,0.1-1.1c0.1-0.3,0-0.7,0.7-0.7c0.4,0.8-0.2,1.5-0.3,2.2
		c0,0.3-0.5,0.2-0.7,0.1c-0.2-0.1-0.2-0.2-0.2-0.4c0-0.2-0.3-0.3-0.6-0.3c-0.3,0-0.4,0.2-0.4,0.4c0,0.1,0,0.2-0.2,0.2
		C32.9,25,33,24.6,33,24.2c0-0.3,0-0.6-0.1-0.9c-0.1,0.2-0.1,0.4-0.1,0.6c0,0.2,0,0.5-0.1,0.7c-0.1,0.3-0.5,0.5-1,0.5
		c-0.5,0-0.8-0.3-0.8-0.6c-0.1-0.3,0-0.7,0-1c0-0.2,0-0.5-0.3-0.6c0-0.1,0.2-0.3,0.3-0.3c0.2,0,0.3,0.2,0.3,0.4c0,0.3-0.1,0.7,0.4,1
		c0.1,0.1,0.1,0.2-0.1,0.3c-0.2,0.1-0.4,0.2-0.2,0.3c0.2,0.2,0.5,0,0.8,0.1c0.2,0.1,0.1-0.1,0.1-0.2c0.4-0.4,0.1-0.9,0.2-1.3
		c0.1-0.2,0.1-0.4,0.5-0.4c0.4,0,0.4,0.2,0.3,0.4c-0.1,0.2,0.2,0.3,0.4,0.4c0.2,0.1,0.3,0,0.4,0c0.2-0.1,0.1-0.2,0-0.4
		c-0.1-0.2,0.6-0.6,1-0.5c0.5,0.1,0.9,0,1.4,0c0.4,0,0.6,0.1,0.7,0.3c0,0,0,0.1,0,0.1c0.2,0.1-0.1,0.5,0.4,0.5
		c0.5,0,0.5-0.4,0.4-0.6c-0.1-0.3-0.2-0.4,0.1-0.7c0.2-0.1,0-0.4,0-0.7c0-0.2,0-0.5,0.1-0.7c0.2-0.5-0.2-0.6-0.6-0.6
		c-0.6-0.1-1.2-0.1-1.8-0.1c-0.4,0-0.6-0.1-0.8-0.4c-0.1-0.3,0.1-0.5,0.4-0.5c0.9,0.2,0.7-0.3,0.8-0.7c0-0.2,0-0.3,0.1-0.5
		c-0.2-0.2-0.2-0.3-0.1-0.5c0.3-0.2,0.4,0,0.4,0.1c0,0.6,0.7,0.8,1.2,1.1l0,0c0.3,0.2,0.7,0.4,1.1,0.5c0.5,0.1,0.9,0.1,1.2-0.3
		c0.5-0.5,1.1-1,1.8-1.3c0.2-0.1,0.3-0.2,0.6-0.1c0.2,0.1,0.2,0.2,0.2,0.4c-0.1,0.4,0.3,0.8,0.9,0.9c0.9,0.1,1.8,0.2,2.6-0.3
		c0.8,0,1.6,0,2.3,0c0.8,0,1.6-0.1,2.3-0.1c0.2,0,0.3-0.1,0.3-0.3c0-0.2,0-0.4,0-0.6c-0.2-1-0.1-2-0.1-3c0-0.9,0-1.8,0-2.6
		c0.1-0.4-0.3-0.8-0.4-1.2c-0.1-0.1-0.2-0.2-0.3-0.3c-0.1-0.2-0.5-0.3-0.1-0.5c0.9,0.3,1.4,0.8,1.4,1.6c0,1.5,0,3,0,4.5
		c0,0.4,0.1,0.8,0.2,1.3c0.1,0.6,0.6,1,1.3,1.3c0.6,0.3,1.3,0.3,1.9-0.1c0.1-0.1,0.2,0.3,0.3,0c0.2-0.3,0.6-0.4,1-0.3l0,0
		c0.3,0.3,0.1,0.7,0.2,1c0.1-0.2-0.1-0.6,0.3-0.6c0.4-0.1,0.6,0.2,0.7,0.4c0.1,0.1,0.1,0.3,0.4,0.3c0.1-0.3-0.1-0.4-0.3-0.6
		c-0.2-0.2-0.5-0.4-0.5-0.6c-0.2-0.2-0.1-0.5-0.1-0.7c-0.2-0.2-0.2-0.5,0-0.7c0-0.3,0-0.5,0-0.8c-0.1-0.3-0.1-0.7,0-1
		c0-0.1,0-0.2,0-0.3c-0.1-0.8,0-1.5-0.1-2.3c0-1.4,0.1-2.8-0.1-4.2c0.1-0.2,0.4-0.2,0.6-0.2c0.7,0,1.4,0,2.1,0
		c0.2,0,0.2,0.1,0.1,0.2c-0.5,0.2-1.1,0.1-1.6,0.1c-0.5,0-0.7,0.1-0.7,0.5c0,2.6,0,5.2,0,7.9c0,0.9,0.6,1.7,1.7,2.1
		c1,0.4,2-0.1,1.9-1c0-0.1-0.1-0.2-0.3-0.3c-0.2-0.1-0.4-0.2-0.5-0.4c0-0.1,0.1-0.1,0.2-0.1c0.1,0,0.3,0,0.4,0
		c0.8-0.1,1,0.1,0.7,0.7c-0.1,0.2-0.2,0.5-0.1,0.7c0.1,0.2,0.2,0.4,0.5,0.4c0.3,0,0.5-0.2,0.5-0.5c0-0.7,0-1.4,0-2c0-4.5,0-9,0-13.5
		c0-0.7,0-0.7,0.9-0.7c1.5,0,3,0,4.5,0.1c2.3,0.1,4.6,0,6.9,0c2.3,0,4.7,0,7,0c0.8,0,1.6-0.2,2.4-0.1c2,0,3.9-0.1,5.9,0
		c0.2,0,0.4,0,0.6,0.1C91.4,2.5,92.4,2.5,93.4,2.5z"/>
	<path class="st4" d="M17.2,10.1c1,1.2,1.6,2.6,1.4,4.1c-0.3,1.9-1.5,3.3-3.6,4.3c-0.5,0.3-1.2,0.4-1.8,0.6c-1,0.3-2.1,0.2-3.1,0.2
		c-2.9-0.3-4.9-1.6-6-3.6c-0.6-1.2-0.6-2.5-0.2-3.7c0.2-0.7,0.6-1.4,1.2-2c0.1-0.1,0.3-0.3,0.5-0.4c0.2-0.1,0.4,0,0.6,0.1
		c0-0.2-0.1-0.4,0-0.5c1.1-0.9,2.6-1.3,4.2-1.4c1.3-0.1,2.6,0,3.7,0.4C15.4,8.7,16.5,9.3,17.2,10.1z"/>
	<path class="st5" d="M54.9,18.8c-0.3,0.6-0.9,0.5-1.5,0.4c-1.1-0.2-1.9-0.8-2-1.7c-0.1-0.6-0.1-1.2-0.1-1.7c0-1.3,0-2.6,0-3.9
		c0-0.7-0.5-1.3-1.4-1.6c-0.2,0-0.4-0.1-0.6-0.1c-1-0.3-1.8-0.1-2.5,0.4c-0.3,0.2-0.6,0.4-0.6,0.7c-0.2,0.3-0.2,0.7-0.2,1
		c0,2,0,4,0,6.1c0,0.7-0.1,0.8-1.1,0.8c-0.3,0-0.7,0-1,0c-0.8-0.1-0.9-0.1-0.9-0.7c0-1.1,0.1-2.1,0.1-3.2c-0.1-1.3-0.1-2.6-0.1-3.9
		c0-0.6-0.5-0.9-1-1.2c-0.3-0.2-0.5-0.4-0.3-0.6c0.2-0.3,0.3-0.5,0.5-0.8C42.6,8,42.7,8,43.5,8.2c0.2,0.1,0.4,0.1,0.5,0.2
		c0.4,0.3,0.7,0.7,1.1,0.7c0.4,0,0.8-0.4,1.2-0.6c1.1-0.6,2.3-0.5,3.6-0.4c1,0.1,1.9,0.4,2.6,0.9c0.7,0.5,1.2,1.2,1.4,2
		c0.3,1.2,0.1,2.5,0.1,3.7c0,0.6,0,1.2,0,1.7c0,0.6,0.2,0.8,1,1c0.3,0.1,0.5,0.1,0.6,0.4C55.4,18.2,55.2,18.5,54.9,18.8z"/>
	<path class="st6" d="M19.3,25.4c-0.3,0.5-0.9,0.2-1.4,0.2c-0.6,0-1.1-0.2-1.5-0.5c-0.2-0.1-0.3,0.1-0.5,0.1
		c-0.1-0.2-0.1-0.3-0.5-0.1c-0.6,0.3-1.2,0.2-1.5-0.2c-0.2-0.3-0.1-0.6,0.4-0.7c0.4,0,0.8,0,1.2,0c0.3,0,0.5-0.1,0.4-0.4
		c-0.1-0.4-0.4-0.7-0.9-0.8c-0.5-0.1-0.9,0-1.2,0.3c-0.5,0.4-0.5,1.2-0.1,1.6c0.3,0.3,0.8,0.4,1.3,0.4c0.2,0,0.4-0.1,0.6,0
		c-0.4,0.4-1.9,0.5-2.4,0.2c-0.2-0.1-0.2-0.3-0.2-0.5c0-0.4-0.2-0.9-0.7-1.2c-0.2,0.5,0.1,1.1-0.2,1.6c-0.2-0.2-0.2-0.4-0.2-0.6
		c0-0.7,0-1.3,0-2c0-0.2,0-0.4-0.2-0.5c-0.1,0.7-0.1,1.4-0.1,2.2c0,0.4,0,0.8,0.3,1.1c-0.4,0.3-0.5,0-0.6-0.2
		c-0.1-0.2-0.1-0.4-0.2-0.6c0-0.1-0.1-0.3-0.3-0.3c-0.2,0-0.3,0.1-0.4,0.3c-0.4,0.9-0.9,1.1-2.1,0.9c-0.1,0-0.2-0.1-0.3-0.1
		c-1,0-1,0-0.5-0.6c0.3,0,0.4,0.2,0.5,0.3c0.6,0.4,1.3,0.3,1.8-0.2c-0.8,0.4-1.2,0.4-1.5-0.1c0.2-0.1,0.4,0,0.6-0.1
		c-0.3-0.3-0.5,0.1-0.8,0.1c-0.3-0.4-0.2-0.6,0.4-0.7c0.4,0,0.8,0,1.2,0c0.3,0,0.4-0.1,0.4-0.4c-0.1-0.4-0.4-0.7-1-0.8
		c-0.2,0-0.5,0-0.6-0.2c0-0.3,0.3-0.4,0.6-0.3c0.7,0.2,1.1-0.3,1.7-0.3c0.3,0,0.1-0.3,0.1-0.4c0.1-0.1,0.2-0.1,0.3-0.1
		c0.1,0.1,0.2,0.1,0.4,0.1c0.4-0.1,0.6,0.1,0.6,0.4c0,0.1,0,0.2,0,0.3c0.1,0.2-0.3,0.6,0.3,0.7c0.4,0,1,0.2,1.2-0.3
		c0-0.1,0.2-0.1,0.3-0.1c0.7-0.1,1.4-0.1,2,0.2c0.2,0.1,0.5,0.2,0.7,0.3c0.2,0.1,0.2,0.1,0.4-0.1c0.5-0.6,1.2-0.7,2.3-0.6
		c0.5,0,1,0.3,1.6,0.1c0,0,0.1,0,0.2,0c0.4,0.2,0.6,0.2,1-0.1c0.5-0.3,0.8,0.2,1.1,0.5c0.3,0.2,0.7,0.5,0.6,1c0,0.1,0.1,0.3,0.4,0.3
		c0.1,0,0.2-0.2,0.3-0.3c0-0.1,0-0.1,0-0.2c-0.1-0.9,0.1-1.1,1.5-0.9c0,0.2-0.3,0.3-0.5,0.3c-0.5,0-0.5,0.3-0.5,0.5
		c0,0.5,0,0.9,0.1,1.4c0.1-0.4,0.1-0.8,0.1-1.2c0.1-0.5,0.4-0.7,1.1-0.7c0.1,0,0.1,0.1,0,0.1c-0.6,0.1-0.8,0.4-0.8,0.8
		c0,0.4,0,0.7,0,1.1c0,0.2-0.1,0.3-0.4,0.3c-0.2,0-0.5,0-0.5-0.2c0-0.3-0.5-0.3-0.4-0.7c0-0.1,0-0.1-0.1-0.1c-0.3,0-0.3,0.2-0.5,0.3
		c-0.2-0.2-0.1-0.5-0.2-0.7c0-0.8-0.5-1.1-1.3-1.1c-0.8,0-1.3,0.5-1.3,1.2c0,0.2,0.2,0.5,0,0.7c-0.3-0.1-0.7-0.3-0.3-0.6
		c0.1-0.1,0.1-0.2-0.1-0.2c-0.1,0-0.2,0.1-0.3,0.1c-0.1,0.2-0.2,0.5-0.3,0.7C19.9,25.2,19.7,25.4,19.3,25.4
		c-0.1-0.2,0.3-0.4,0.3-0.6c-0.8,0.5-1.3,0.5-1.7,0.2c-0.4-0.3-0.5-1.1-0.1-1.5c0.4-0.4,0.9-0.4,1.8-0.1c-0.3-0.4-0.8-0.5-1.4-0.4
		c-0.6,0.2-1,0.8-0.8,1.4c0.1,0.6,0.6,1,1.3,0.9C18.9,25.4,19.1,25.3,19.3,25.4z"/>
	<path class="st7" d="M44,8.4c-1.6-0.4-1.3-0.5-2,0.7c-0.3,0.4-0.5,0.7,0.2,1c0.6,0.3,0.8,0.8,0.8,1.3c0,2.3,0,4.7,0,7
		c0,0.4,0.1,0.6,0.7,0.6c0.6-0.1,1.4,0.2,1.8-0.1c0.4-0.3,0.1-0.9,0.1-1.3c0-1.8,0-3.5,0-5.3c0-0.4,0.1-0.8,0.3-1.2
		c0.3,0.1,0.3,0.3,0.2,0.4c-0.2,2.2,0,4.4-0.1,6.6c0,0.2,0,0.5-0.1,0.7c0,0.1-0.1,0.1-0.1,0.2c-0.2,0.3-0.6,0.4-1.1,0.4
		c-0.8,0-1.6,0-2.2-0.5c-0.3-0.2-0.5-0.4-0.2-0.7c0.1-0.1,0.2-0.2,0-0.3c-0.2-0.1-0.3,0-0.4,0.1c-0.8,0.3-1.4,0.9-2,1.4
		c-0.4,0.4-1,0.4-1.6,0.1c-0.2-0.1-0.5-0.3-0.6-0.5c0.1,0,0.2,0.1,0.4,0.1c1.2,0.5,1.6,0.4,2.2-0.5c0.1-0.1,0.1-0.2,0.2-0.3
		c0.3-0.3,0.3-0.6-0.3-0.6c-0.4,0-0.7-0.2-0.8-0.6c1,0.1,2,0.1,3.1,0.1c0.3,0,0.3-0.1,0.3-0.3c0-1.9,0-3.7,0-5.6c0-0.3-0.9-1-1.3-1
		c-0.3,0-0.4,0-0.3-0.3c0.2-0.6,0.7-1,1-1.5c0.2-0.3,0.6-0.4,1-0.2C43.5,8.2,43.9,8.1,44,8.4z"/>
	<path class="st8" d="M60,5.6C60,6.4,59.2,7,58.2,7c-1,0-1.8-0.6-1.8-1.4c0-0.8,0.8-1.4,1.8-1.4C59.2,4.3,60,4.8,60,5.6z"/>
	<path class="st9" d="M17.2,10.1c-1-0.9-2.2-1.6-3.7-2c-2.7-0.6-5.1-0.3-7.2,1.1C6.2,9.5,6,9.6,5.8,9.7c-1.9,1.6-2.5,3.5-1.7,5.5
		c0.8,2.1,2.6,3.4,5.5,4c0.2,0,0.4,0.1,0.6,0.1c-1.6,0.1-2.7-0.6-3.9-1.2c-0.6-0.3-0.9-0.7-1.5-1c-0.6-0.4-0.9-1-1-1.7
		c-0.2-1-0.4-2-0.2-3c0.1-0.7,0.1-1.5,0.9-2.1C4.9,10,5.2,9.5,5.6,9.2c0.8-0.6,1.8-1,2.9-1.2C10.3,7.6,12,7.7,13.7,8
		c0.9,0.2,1.5,0.7,2.2,1C16.5,9.3,17,9.6,17.2,10.1z"/>
	<path class="st1" d="M60.2,17.3c-0.1,0-0.1,0-0.2,0c-0.3,0-0.5-0.2-0.5-0.4c0-0.1-0.1-0.2-0.1-0.4c0-2.5,0.1-5-0.1-7.6
		c0-0.2,0-0.5,0.2-0.7c0,0-0.1-0.1-0.1-0.1c0.2-0.2,0.2-0.5,0.5-0.5c0.3,0.1,0.3,0.4,0.2,0.7c-0.3,2.1-0.2,4.2-0.2,6.4
		c0,0.5,0,1,0.4,1.5C60.5,16.4,60.1,16.9,60.2,17.3z"/>
	<path class="st10" d="M55.4,17.9c0.1-0.2-0.1-0.3-0.4-0.3c-0.8-0.2-1.1-0.5-1.1-1.1c0-1.5,0-3,0-4.5c-0.1-3.1-3.5-4.8-7.3-3.5
		c-0.1,0-0.1,0-0.2,0c0.3-0.3,0.8-0.4,1.3-0.5c1-0.1,2.1,0,3.1,0c0.5,0,0.9,0.4,1.3,0.6c0.6,0.2,0.8,0.6,1.2,0.9
		c0.2,0.1,0,0.4,0.2,0.7c0.6,0.5,0.5,1.1,0.5,1.7c0,1.5,0,3.1,0,4.6c0,0.2-0.1,0.4,0.1,0.5c0.3,0.2,0.6,0.2,1,0.3
		c0.3,0,0.5,0.2,0.5,0.4C55.7,17.8,55.7,17.9,55.4,17.9z"/>
	<path class="st11" d="M96.3,7.5c-1.3-0.3-1.7-0.8-1.7-1.8c0-0.1,0.1-0.1,0.1-0.2c0.4-0.7,1.3-1.1,2.2-0.9c0.9,0.2,1.5,0.8,1.5,1.6
		c-0.1,0.7-0.8,1.3-1.8,1.3C96.5,7.4,96.4,7.4,96.3,7.5z"/>
	<path class="st1" d="M56.9,18.4c0.3,0.3,0.8,0.6,1,1c0.1,0.2,0.2,0.4-0.1,0.5c-0.3,0.1-0.4-0.1-0.5-0.3c-0.1-0.1-0.1-0.2-0.2-0.2
		c-0.1-0.2-0.3-0.4-0.5-0.4c-0.3,0.1-0.2,0.3-0.1,0.5c0,0.1,0,0.3-0.2,0.3c-0.2,0-0.3-0.1-0.3-0.3c0-0.3,0-0.7,0-1
		C56.4,18.7,56.7,18.5,56.9,18.4z"/>
	<path class="st1" d="M90.4,2.5c-1.6,0-3.2,0.1-4.8-0.1c-0.6,0-1.2,0.1-1.7,0c0.1,0,0.2-0.1,0.2-0.1c1.3,0.1,2.7-0.2,4-0.1
		c0.5,0.1,1.1,0.1,1.6,0.1C90,2.3,90.3,2.2,90.4,2.5z"/>
	<path class="st1" d="M55.4,17.9c0.3-0.3,0.1-0.6-0.4-0.6c-0.3,0-0.6-0.1-0.8-0.3c0.5,0,0.9,0.2,1.4,0.3c0.3,0,0.6,0.2,0.4,0.4
		c-0.3,0.3,0,0.6,0.1,0.8c-0.4,0.1-0.9,0-1,0.5c0,0.1-0.1,0.1-0.2,0.1c-0.2-0.1,0-0.2-0.1-0.3C55,18.5,55.2,18.2,55.4,17.9z"/>
	<path class="st1" d="M56.6,8.4c0.1,0.1,0.1,0.2,0.1,0.3c0,2,0,4.1,0,6.1c-0.2-0.2-0.3-0.4-0.2-0.6c0.1-0.2,0.1-0.4,0.1-0.6
		C56.6,11.9,56.6,10.1,56.6,8.4z"/>
	<path class="st3" d="M61.5,18.3c0-0.1,0-0.2,0-0.3c0-0.1,0-0.2,0.2-0.2c0.2,0,0.1,0.1,0.1,0.2c0,0.1,0,0.2,0,0.3
		c0.1,0.2,0.2,0.3-0.1,0.4c0,0-0.1,0-0.2,0C61.3,18.5,61.6,18.4,61.5,18.3z"/>
	<path class="st12" d="M13.2,19.1c0.5-0.3,1.2-0.4,1.8-0.6C14.5,18.9,13.9,19.1,13.2,19.1z"/>
	<path class="st1" d="M56.8,17c0,0.2,0,0.5,0,0.7C56.3,17.5,56.3,17.2,56.8,17z"/>
	<path class="st1" d="M56.8,15.1c0,0.3,0,0.7,0,1C56.6,15.8,56.6,15.5,56.8,15.1z"/>
	<path class="st13" d="M62.6,26.8c-0.1-4.5-0.1-8.9-0.2-13.4c0-3.4,0-6.9-0.1-10.3c0-0.5,0.2-0.6,0.8-0.6c6.1,0,12.1,0.1,18.2,0.1
		c4.1,0,8.1,0,12.2,0c0.2,0.4,0.1,0.8,0.1,1.3c0,4.1,0,8.2,0.1,12.3c0,3.3,0.1,6.5,0.2,9.8c0,1,0,0.8-1,0.8c-5,0-10.1,0-15.1,0.1
		c-4.8,0-9.5,0-14.3,0.1C63.2,26.8,62.9,26.8,62.6,26.8z"/>
	<path class="st0" d="M36.3,17.6c0,0.2,0,0.4,0,0.6c-0.4,0.7-1.1,1-2.1,0.9c-2.2-0.1-2.2,0-2.2-1.7c0-1.6,0-3.2,0-4.7
		c0-0.5,0.1-1,0.2-1.5c0-0.3,1.1-1,1.6-1.1c0.7-0.1,1.3,0.1,1.7,0.5c0.3,0.3,0.6,0.5,0.9,0.7c0.2,0.1,0.1,0.2,0.1,0.4
		c0,1.8-0.1,3.7,0,5.5C36.5,17.4,36.4,17.5,36.3,17.6z"/>
	<path class="st0" d="M24.4,15.4c0-0.7,0-1.4,0-2c0-0.7,0.1-1.4,0.9-1.9c0.2-0.2,0-0.4-0.2-0.5c-0.3-0.1-0.2-0.2,0-0.3
		c0.8-0.3,1.7-0.3,2.5-0.3c0.2,0,0.5,0.5,0.7,0.7c0.6,0.5,0.5,1,0.4,1.6c-0.1,0.9-0.2,1.8,0.1,2.7c0.1,0.3,0.1,0.7,0,1
		c-0.3,0.7-0.1,1.3,0,2c0,0.3-0.1,0.5-0.5,0.5c-1,0.1-2,0-3,0c-0.6,0-0.9-0.2-0.9-0.7C24.4,17.1,24.4,16.2,24.4,15.4z"/>
	<path class="st14" d="M8.6,25c0.6,0.3,0.9,0.3,1.4-0.1c0.1-0.1,0.3-0.3,0.5-0.1c0.2,0.1,0,0.2-0.1,0.4c-0.4,0.6-1.7,0.6-2.3,0.1
		C8,25.1,7.9,25,7.8,24.9c-0.1-0.4-0.2-0.8,0-1.3c0.2-0.4,0.5-0.6,0.9-0.8c1.1-0.1,1.8,0.3,1.8,1.1c0,0.2-0.1,0.4-0.4,0.3
		c-0.5,0-0.9,0-1.4,0c-0.6,0-0.6,0.2-0.3,0.5C8.5,24.9,8.6,24.9,8.6,25z"/>
	<path class="st15" d="M45.1,22.8c0.8,0,1.1,0.2,1.1,0.8c0,0.4,0,0.7,0,1.1c0,0.1,0,0.2,0.1,0.3c0.1,0.1,0.4,0.2,0.2,0.4
		c-0.2,0.1-0.4,0.1-0.6,0c-0.3-0.2-0.4,0-0.6,0c-0.8,0.3-1.7-0.1-1.6-0.7c0-0.3,0.2-0.6,0.6-0.7c0.2-0.1,0.5-0.1,0.7-0.1
		c0.3-0.1,0.6,0,0.7-0.3c0-0.2-0.1-0.3-0.3-0.4c-0.3-0.1-0.7-0.1-0.9,0.1c-0.2,0.1-0.3,0.4-0.5,0.2c-0.3-0.2,0-0.4,0.2-0.6
		C44.4,22.8,44.8,22.8,45.1,22.8z"/>
	<path class="st16" d="M15.8,25.3c-0.9,0.3-1.6,0.3-2.1-0.2c-0.5-0.5-0.5-1.4,0.1-1.9c0.4-0.4,1.1-0.5,1.6-0.3
		c0.5,0.2,0.9,0.7,0.9,1.1c0,0.2-0.2,0.2-0.4,0.2c-0.5,0-1,0-1.5,0c-0.4,0-0.5,0.1-0.3,0.4c0.2,0.5,1,0.6,1.4,0.2
		c0.2-0.1,0.3-0.4,0.6-0.3c0.3,0.2-0.1,0.4-0.1,0.5C15.9,25.3,15.8,25.3,15.8,25.3z"/>
	<path class="st17" d="M21,24.9c-0.1-0.4-0.2-0.8-0.1-1.2c0.2-0.6,0.8-0.9,1.6-0.9c0.7,0,1.3,0.4,1.4,1c0.1,0.3,0,0.6-0.1,1
		C22.9,25.8,21.9,25.8,21,24.9z"/>
	<path class="st18" d="M55.4,24.1c0,0.8-0.6,1.3-1.5,1.3c-0.9,0-1.5-0.5-1.5-1.3c0-0.8,0.6-1.3,1.5-1.3
		C54.9,22.8,55.4,23.3,55.4,24.1z"/>
	<path class="st19" d="M30.6,22.9c0.4-0.1,0.5,0,0.5,0.3c0,0.4,0,0.8,0,1.2c0,0.3,0.1,0.6,0.6,0.6c0.5,0,0.8-0.2,0.9-0.5
		c0.1-0.4,0-0.8,0-1.3c0-0.2-0.1-0.4,0.3-0.4c0.3,0,0.2,0.2,0.2,0.4c0,0.7,0.1,1.5-0.1,2.2c-0.4-0.1-0.7-0.1-1.1,0
		c-0.7,0.2-1.3-0.1-1.3-0.7C30.6,24.1,30.6,23.5,30.6,22.9z"/>
	<path class="st20" d="M39.9,24.2c0-0.9,0.7-1.5,1.7-1.4c0.5,0,0.8,0.2,1,0.5c0.1,0.1,0.2,0.2,0,0.3c-0.1,0.1-0.3,0-0.4-0.1
		c-0.2-0.3-0.6-0.5-1.1-0.3c-0.5,0.2-0.6,0.5-0.6,0.8c0,0.4,0.1,0.7,0.5,0.9c0.4,0.2,0.8,0.1,1.1-0.3c0.1-0.2,0.2-0.3,0.5-0.2
		c0.2,0.1,0.1,0.3,0,0.5c-0.2,0.3-0.6,0.5-1.2,0.5c-0.5,0-1-0.1-1.2-0.5C40,24.7,39.9,24.4,39.9,24.2z"/>
	<path class="st21" d="M48.5,25.4c-0.3-0.1-0.9,0.2-1.1-0.1c-0.3-0.3,0.4-0.6,0.6-0.9c0.2-0.3,0.5-0.6,0.8-0.9
		c0.2-0.2,0.1-0.3-0.2-0.3c-0.3,0-0.6,0-0.9,0c-0.2,0-0.3,0-0.3-0.2c0-0.1,0.1-0.2,0.3-0.2c0.6,0,1.2,0,1.8,0c0.5,0,0.3,0.3,0.1,0.4
		c-0.4,0.4-0.8,0.8-1.2,1.2c-0.1,0.1-0.3,0.2-0.3,0.4c0.1,0.2,0.4,0.1,0.5,0.1c0.2,0,0.5,0,0.7,0c0.2,0,0.4,0,0.4,0.2
		c0,0.2-0.2,0.2-0.4,0.2C49.2,25.4,48.9,25.4,48.5,25.4z"/>
	<path class="st22" d="M5.6,24.3c0-0.3,0.1-0.7,0-0.8c-0.5-0.3-0.6-0.5,0-0.8c0,0,0-0.1,0-0.1c0-0.2-0.1-0.4,0.3-0.4
		c0.3,0,0.2,0.2,0.2,0.4c0,0.2,0.1,0.3,0.4,0.3c0.2,0,0.2,0.1,0.2,0.2c0,0.1-0.1,0.2-0.3,0.2c-0.4,0-0.4,0.2-0.4,0.4
		c0,0.3,0,0.7,0,1c0,0.2,0,0.4,0.4,0.4c0.2,0,0.3,0.1,0.2,0.3c0,0.1-0.2,0.1-0.3,0.1c-0.5,0-0.8-0.1-0.8-0.5
		C5.6,24.8,5.6,24.5,5.6,24.3C5.6,24.3,5.6,24.3,5.6,24.3z"/>
	<path class="st23" d="M12.1,25.5c-0.3,0-0.5-0.1-0.5-0.4c0-0.9,0-1.9,0-2.8c0-0.2,0-0.4,0.3-0.4c0.3,0,0.3,0.2,0.3,0.4
		c0,1,0,2.1,0,3.1C12.2,25.5,12.2,25.5,12.1,25.5z"/>
	<path class="st7" d="M36.3,17.6c0-2.1,0-4.2,0-6.2c0-0.1,0-0.2,0-0.3c0.3,0.3,0.3,0.6,0.3,0.9c0,1.6,0,3.1,0,4.7
		c0,0.9,0.3,1.7,1.2,2.3c-0.6-0.2-1.3-0.4-1.3-1C36.5,17.7,36.5,17.6,36.3,17.6z"/>
	<path class="st24" d="M26.5,23.2c-0.7,0-0.9,0.3-1,0.7c0,0.4,0,0.8,0,1.2c0,0.1,0,0.3-0.3,0.3c-0.3,0-0.3-0.2-0.3-0.3
		c0-0.7,0-1.3,0-2c0-0.1,0.1-0.3,0.3-0.3c0.4,0.3,0.7,0,1-0.1c0.1,0,0.3,0.1,0.4,0.1c-0.1,0.2-0.3,0.1-0.5,0.2c0,0,0.1,0.1,0.1,0
		c0,0,0,0,0,0C26.4,23.1,26.6,23,26.5,23.2z"/>
	<path class="st25" d="M28.2,22.9c0.9-0.1,1.2,0.1,1.2,0.7c0,0.5,0,1,0,1.5c0,0.1,0,0.3-0.3,0.3c-0.2,0-0.2-0.1-0.2-0.3
		c0-0.4,0-0.8,0-1.3c0-0.2,0-0.5-0.3-0.7c-0.1-0.1-0.3-0.1-0.4-0.1c-0.1,0-0.2,0-0.3-0.1C27.9,22.9,28.1,23,28.2,22.9z"/>
	<path class="st26" d="M51.4,24.1c0,0.4,0,0.7,0,1.1c0,0.1,0,0.2-0.3,0.2c-0.2,0-0.2-0.1-0.2-0.2c0-0.7,0-1.4,0-2.1
		c0-0.1,0.1-0.2,0.3-0.2c0.2,0,0.2,0.1,0.2,0.3C51.4,23.4,51.4,23.7,51.4,24.1C51.4,24.1,51.4,24.1,51.4,24.1z"/>
	<path class="st25" d="M26.5,23.2c0-0.2-0.3-0.1-0.4-0.2c0.2-0.1,0.4-0.1,0.6-0.2c0,0,0,0,0,0c0.3,0.1,0.6,0.3,1,0.3
		c0.1,0,0.1,0.1,0,0.2c0,0-0.1,0.1-0.1,0.1c-0.2,0.4,0,0.9-0.1,1.3c0,0.2,0,0.4-0.1,0.6l0,0C27,25.5,27,25.3,27,25.1
		c0-0.4,0-0.8,0-1.2c0-0.2,0-0.4-0.3-0.5C26.7,23.3,26.6,23.3,26.5,23.2C26.5,23.3,26.5,23.3,26.5,23.2z"/>
	<path class="st24" d="M27.6,23.4c-0.3-0.2-0.7-0.2-0.9-0.5c0.5,0.2,1,0.2,1.5,0c0,0.1-0.4,0.2,0.1,0.2c0.1,0,0.3,0,0.3,0.1
		C28.2,23.2,27.9,23.3,27.6,23.4z"/>
	<path class="st0" d="M4.3,24.6C4.1,24.4,4,24.2,3.9,24c0-0.1,0.1-0.2,0.3-0.1c0.3,0.1,0.4,0.3,0.4,0.5C4.5,24.5,4.5,24.6,4.3,24.6z
		"/>
	<path class="st24" d="M26.8,23.3c0.3,0,0.3,0.2,0.3,0.4c0,0.4,0,0.8,0,1.2c0,0.2,0,0.4,0.3,0.4c-0.5,0.2-0.4-0.1-0.4-0.3
		C26.9,24.5,27,23.9,26.8,23.3z"/>
	<path class="st0" d="M3.2,22.8c-0.1,0.1-0.1,0.4-0.4,0.4c-0.2,0-0.1-0.1-0.1-0.2c0-0.2,0.1-0.3,0.4-0.4C3.2,22.5,3.2,22.6,3.2,22.8
		z"/>
	<path class="st24" d="M27.4,25.4c0-0.6-0.2-1.2,0.1-1.9C27.4,24.1,27.6,24.8,27.4,25.4z"/>
	<path class="st27" d="M51.4,22.1c0,0.1,0,0.2-0.2,0.3c-0.2,0-0.3-0.1-0.3-0.3c0-0.1,0.1-0.2,0.3-0.2C51.3,21.9,51.4,22,51.4,22.1z"
		/>
	<path class="st0" d="M2.5,23.6c-0.2,0-0.3,0-0.3-0.1c0-0.1,0.1-0.1,0.2-0.2c0.1,0,0.2,0,0.2,0.1C2.6,23.6,2.5,23.6,2.5,23.6z"/>
	<path class="st0" d="M45.9,18.8c0-2.3,0-4.5,0-6.8c0-0.3,0.3-0.6,0.1-1c0.1-0.3,0.3-0.4,0.6-0.5c0.4-0.2,0.8-0.4,1.3-0.4
		c0.7-0.1,1.4-0.2,1.9,0.4c0.1,0.1,0.4,0.2,0.5,0.3c0.1,0,0.2,0.1,0.3,0.2c0,0.4,0.3,0.7,0.5,1c0,1.5,0,3,0,4.5c0,0.5,0,0.9,0.1,1.4
		c0,0.8-0.7,1-1.6,1c-0.4,0-0.9,0-1.3-0.1c-0.6-0.1-1.3,0-1.9,0C46.2,18.8,46.1,18.9,45.9,18.8z"/>
	<path class="st8" d="M59.5,8.3c0.1,0.5,0.1,1,0.1,1.5c0,2.2,0,4.5,0.1,6.7c0,0.3-0.1,0.6,0.4,0.8c0.1,0.2,0.4,0.3,0.6,0.3
		c0.6,0,0.5,0.3,0.3,0.5c-0.1,0.2-0.3,0.4-0.4,0.6c-0.2,0.6-0.7,0.6-1.3,0.5C58,18.9,57,18.1,57,17.1c-0.1-2.8-0.1-5.6-0.1-8.4
		c0-0.3,0.2-0.3,0.5-0.3C58.1,8.3,58.8,8.3,59.5,8.3z"/>
	<path class="st28" d="M35.5,23.3C35,23.4,35,23.8,35,24.1c0,0.4,0,0.7,0,1.1c0,0.1,0,0.2-0.3,0.2c-0.2,0-0.3-0.1-0.3-0.2
		c0-0.7,0-1.4,0-2c0-0.1,0.1-0.3,0.3-0.2c0.4,0.2,0.6,0,0.9-0.1c0.8-0.2,1.4,0.1,1.4,0.7c0,0.5,0,1,0,1.5c0,0.1,0,0.3-0.2,0.3
		c-0.3,0-0.3-0.2-0.3-0.3c0-0.4,0-0.9,0-1.3C36.5,23.2,36.2,23.1,35.5,23.3C35.5,23.3,35.5,23.3,35.5,23.3z"/>
	<path class="st29" d="M59.1,23.3c0,0.6,0,1.1,0,1.7c0,0.2,0,0.3-0.3,0.3c-0.2,0-0.2-0.2-0.2-0.3c0-0.4,0-0.8,0-1.3
		c0-0.3-0.1-0.6-0.6-0.6c-0.5,0-0.8,0.2-0.8,0.5c-0.1,0.4,0,0.8,0,1.3c0,0.1,0.1,0.3-0.2,0.4c-0.3,0-0.3-0.2-0.3-0.3
		c0-0.6,0-1.3,0-1.9c0-0.3,0.1-0.4,0.5-0.2c0.1,0.1,0.2,0.1,0.3,0C58.3,22.6,58.6,22.7,59.1,23.3C59.1,23.3,59.1,23.3,59.1,23.3z"/>
	<path class="st1" d="M45.9,18.8c1.1-0.2,2.1-0.3,3.2,0c0.4,0.1,1,0,1.5-0.1c0.2,0,0.3-0.2,0.3-0.3c0-0.2,0-0.4,0.3-0.5
		c0,1.1,0.1,1-1.3,1c-1.3,0.1-2.6-0.1-4,0C45.9,18.9,45.9,18.8,45.9,18.8z"/>
	<path class="st30" d="M60.3,24c0-0.3,0-0.6,0-1c0-0.1,0-0.2,0.2-0.2c0.2,0,0.3,0.1,0.3,0.2c0,0.7,0,1.4,0,2c0,0.1,0,0.2-0.2,0.2
		c-0.2,0-0.3-0.1-0.3-0.2C60.3,24.7,60.3,24.4,60.3,24C60.3,24,60.3,24,60.3,24z"/>
	<path class="st31" d="M38.8,24.1c0,0.3,0,0.6,0,1c0,0.1,0,0.3-0.3,0.3c-0.2,0-0.2-0.1-0.2-0.3c0-0.7,0-1.4,0-2c0-0.1,0-0.2,0.2-0.2
		c0.2,0,0.3,0.1,0.3,0.2C38.8,23.4,38.8,23.8,38.8,24.1C38.8,24.1,38.8,24.1,38.8,24.1z"/>
	<path class="st1" d="M50.3,10.7c-0.2,0-0.5,0-0.6-0.1c-0.9-0.9-1.9-0.4-2.9-0.1c-0.1,0-0.2,0-0.3,0c0.9-0.7,2.2-0.8,3.3-0.2
		C50,10.5,50.1,10.6,50.3,10.7z"/>
	<path class="st1" d="M37.7,24.2c0.3,0.1,0.4,0.3,0.4,0.5c0,0.2-0.3,0.3-0.5,0.3c-0.4,0-0.4-0.2-0.4-0.4
		C37.2,24.4,37.4,24.3,37.7,24.2z"/>
	<path class="st32" d="M60.8,22.1c0,0.1,0,0.2-0.2,0.2c-0.2,0-0.3-0.1-0.3-0.3c0-0.1,0.1-0.2,0.3-0.2C60.8,21.8,60.8,22,60.8,22.1z"
		/>
	<path class="st33" d="M38.8,22.1c0,0.1,0,0.2-0.2,0.3c-0.2,0-0.3-0.1-0.3-0.3c0-0.1,0-0.2,0.2-0.3C38.8,21.9,38.8,22,38.8,22.1z"/>
	<path class="st1" d="M51.1,12c-0.5-0.2-0.6-0.6-0.5-1C50.7,11.3,51.1,11.6,51.1,12z"/>
	<path class="st1" d="M57.4,23.9c-0.1,0-0.2,0-0.2-0.1c0-0.1,0-0.2,0.2-0.2c0.1,0,0.2,0.1,0.2,0.2C57.6,23.9,57.5,23.9,57.4,23.9z"
		/>
	<path class="st0" d="M9.8,17.1c-2.1-0.4-3.7-2.2-3.3-4c0.3-1.7,2-2.9,4.1-3.1c1.9-0.2,4,0.7,4.8,2.2c0.6,1.1,0.6,2.3-0.3,3.3
		c-0.7,0.8-1.6,1.3-2.8,1.6C11.5,17.3,10.7,17.2,9.8,17.1z"/>
	<path class="st34" d="M9.8,17.1c0.8,0,1.6,0.1,2.3-0.1c1.1-0.2,1.9-0.7,2.7-1.3c0.1-0.1,0.1-0.2,0.3-0.2
		C14.3,16.9,11.8,17.7,9.8,17.1z"/>
	<path class="st35" d="M5.8,9.7c0.1-0.2,0.3-0.3,0.5-0.4C6.3,9.5,6.6,9.7,6.6,10C6.2,10,6.1,9.7,5.8,9.7z"/>
	<path class="st36" d="M19.3,25.4c-0.9,0.2-1.6,0.1-1.9-0.3c-0.4-0.5-0.4-1.3,0.1-1.8c0.6-0.6,1.9-0.6,2.3,0c0.1,0.1,0.3,0.3,0,0.4
		c-0.2,0.1-0.4,0-0.5-0.1c-0.2-0.3-0.5-0.3-0.9-0.3c-0.4,0.1-0.6,0.3-0.6,0.5c-0.1,0.3-0.1,0.6,0.1,0.9c0.3,0.5,1,0.5,1.4,0.1
		c0.1-0.2,0.2-0.5,0.6-0.3c0.3,0.1,0,0.4-0.1,0.5C19.6,25.2,19.4,25.3,19.3,25.4C19.3,25.4,19.3,25.4,19.3,25.4z"/>
	<path class="st1" d="M8.6,25c-0.1,0-0.1,0-0.1-0.1c0.1-0.3,0.6-0.4,0.8-0.3c0.1,0.1,0.1,0.2,0.1,0.3C9.4,25,9.3,25,9.1,25
		C8.9,25,8.8,25,8.6,25z"/>
	<path class="st37" d="M98,6c0,0.7-0.7,1.2-1.5,1.2c-0.9,0-1.6-0.5-1.5-1.3c0-0.7,0.7-1.2,1.5-1.2C97.4,4.7,98.1,5.3,98,6z"/>
	<path class="st38" d="M82,2.7c0,0,0.1,0,0.1,0c0.5,0.3,1.1,0.4,1.8,0.4c0.1,0,0.3-0.1,0.4,0c0.1,0.1,0,0.3-0.1,0.4
		c0,0-0.1,0.1-0.1,0.2c0.2,0.1,0.4,0,0.5-0.1c0.6-0.3,0.9-0.2,1.1,0.3c0.4,0.9,0.1,1.4-1,1.8c-0.3,0.1-0.4,0-0.4-0.2
		c0-0.1,0.1-0.2,0.1-0.4c-0.3,0.1-0.3,0.3-0.3,0.5c0.1,0.2,0.2,0.5,0.2,0.8c0,0,0,0.1-0.1,0.1c-0.4,0.3-0.1,0.5,0.2,0.7
		c0.9,0.5,0.9,0.5,0,1c-0.2,0.1-0.3,0.3-0.4,0.4c-0.1,0.1-0.2,0.2-0.4,0.1c-0.2,0-0.2-0.2-0.1-0.3c0-0.2,0.1-0.4-0.1-0.6
		C83,8,83,8.4,82.6,8.3c-0.5,0-0.9-0.3-1.3-0.5c-0.4-0.1-0.4-0.4,0.1-1c-0.3,0.2-0.5,0.4-0.8,0.6c-0.5,0.4-0.6,0.4-1-0.1
		c-0.1-0.1-0.1-0.2-0.1-0.2c0,0.1-0.1,0,0,0c0.1,0.6-0.4,0.7-1,0.7c-0.2,0-0.5-0.2-0.7-0.2c-0.3,0.1,0,0.4-0.3,0.5
		c-0.5,0.1-1,0.3-1.6,0.3c-0.3,0-0.3,0.1-0.4,0.3c-0.1,0.1-0.2,0.3-0.5,0.2c0,0-0.1,0-0.1,0c-1-0.5-1-0.5-1,0.4
		c0,0.2-0.2,0.3-0.4,0.3c-0.3,0-0.6,0-0.8,0.3c-0.2,0.3-0.5,0.1-0.7,0c-0.3-0.1-0.2-0.2-0.1-0.4C72,9,71.8,8.7,71.9,8.4
		c0.1-0.2-0.6-0.2-0.9-0.4c-0.6-0.2-1.2-0.5-1.8-0.7c-0.2,0-0.4-0.2-0.2-0.5c0.1-0.1,0.4-0.3,0.2-0.5c-0.2-0.2-0.4,0.1-0.7,0.1
		c0-0.3,0-0.7,0-1c0-0.4-0.2-0.5-0.7-0.5c-0.5,0-1,0.1-1.3-0.4c-0.1-0.1-0.4-0.2-0.4,0.1C66.1,5,66,5,65.8,5c-0.2,0-0.3,0-0.5,0
		c-0.3,0.1-0.7,0-0.8,0.3c0,0.2,0.3,0.3,0.6,0.4c0.2,0,0.3,0.2,0.3,0.3c0,0.2,0,0.4,0,0.7c0,0.1,0,0.3-0.2,0.2
		c-0.6-0.3-0.6,0.3-0.8,0.3C64.8,7.3,65,7,65.2,7.1c0.3,0.2,0,0.5-0.1,0.7c-0.2,0.5-0.5,0.6-1.1,0.2c-0.4-0.2-0.5,0.1-0.6,0.1
		c-0.8-0.6-0.6-1.4-0.7-2c0-0.4-0.4-1,0.2-1.4c0.2-0.1,0-0.2-0.1-0.3c-0.3-0.2-0.3-0.5-0.2-0.8c0.1-0.1,0.1-0.2,0.2-0.3
		c0.2-0.2-0.2-0.6,0.3-0.6c0.7,0,1.5-0.2,2.2,0.2c0.3,0.2,0.4,0.2,0.7,0c0.4-0.3,0.9-0.2,1.4-0.1c0.1,0,0.2,0.2,0.3,0.1
		c0.4-0.4,0.9-0.2,1.3-0.2c0.4,0,0.7,0,0.9,0.3c0.1,0.2,0.3,0.2,0.5,0.2c0.3,0,0.2-0.2,0.3-0.3c0.1-0.3,0.5-0.1,0.7-0.2
		c0.2,0.2,0.3,0.4,0.2,0.6c0,0.4,0.2,0.7,0.5,1c0.3,0.3,0.4,0.6,0.3,0.9c-0.2,0.4,0,0.7,0.4,0.9c-0.3-0.2-0.3-0.5-0.2-0.8
		c0.1-0.3,0.1-0.8-0.2-1.1c-0.3-0.3-0.1-0.5,0.1-0.7c0.2-0.2,0.4-0.2,0.7-0.1c0.4,0.1,0.7,0,1.1,0c0.2,0,0.2-0.2,0.2-0.3
		C75,2.7,75.1,2.7,75.5,3c0.3,0.3,0.8,0.3,1.1,0.5c0.1,0,0.2,0.1,0.3,0c0.4-0.2,0.7-0.2,1,0c0.2,0.1,0.4,0,0.4-0.2
		c0.1-0.2,0.1-0.5,0.4-0.6c0.1,0,0.3,0,0.4,0c0.4,0.5,0.4,0.5,0.9,0.1c0.1-0.1,0.3-0.1,0.5-0.2c0,0,0.1,0,0.1,0
		C81.1,2.8,81.6,2.9,82,2.7z"/>
	<path class="st39" d="M75.7,16.5c1.7,1,3.5,1.1,5.3,0.2c0.5-0.2,0.9-0.5,1.2-0.8c0.3-0.4,0.7-0.5,1.2-0.2c0.3,0.2,0.7,0.3,1.1,0.5
		c0.4,0.1,0.5,0.3,0.2,0.6c-1.5,1.7-3.5,2.6-6.1,2.7c-2.6,0-4.6-0.9-6-2.6c-0.3-0.4-0.6-0.8-0.7-1.2c-0.1-1.1-0.5-2.1-0.1-3.2
		c0.2-0.4,0.5-0.7,0.9-1c0.3-0.2,0.7-0.1,1,0.1c0.3,0.2,0.6,0.5,0.7,0.9c0.1,0.2,0.3,0.4,0.5,0.4c0.7,0,1.4,0.2,2,0.1
		c0.3-0.1,0.6-0.1,0.9,0c0.5,0.2,1.1,0.1,1.6,0c0.2-0.1,0.5-0.1,0.7-0.1c0.9,0,1.7,0.1,2.4-0.4c0.4-0.3,2.3,0.2,2.5,0.6
		c0,0.1,0.1,0.2,0,0.2c-0.2,0.3-0.3,0.6-0.1,1c0.1,0.2-0.1,0.3-0.4,0.3c-1.3-0.1-2.7,0.1-4-0.1c-0.3,0-0.5,0-0.7,0
		c-0.7,0.1-1.4,0.1-2.1-0.1c-0.4-0.1-0.8-0.1-1.2,0.1c-0.4,0.2-1,0.1-1.5,0.1c-1.1,0-1.1,0-0.7,0.8C74.8,15.7,75.1,16.2,75.7,16.5z"
		/>
	<path class="st40" d="M68.4,13.7c0,1,0,1.9,0,2.9c0,0.5,0.3,0.9,1,1c0.5,0.1,0.5,0.2,0.3,0.5c-0.1,0.1-0.2,0.3-0.2,0.4
		c-0.5,0.8-1.3,1-2.3,0.5c-0.9-0.5-1.4-1.1-1.4-1.9c0-2-0.1-4.1,0-6.1c0-0.5-0.1-0.7-0.9-0.7c-0.2,0-0.4,0-0.5,0
		c-0.4,0-0.6-0.1-0.6-0.5c0-0.1,0-0.1,0-0.2c0-0.4-0.1-0.8,0.1-1.1c0.3-0.3,0.9-0.1,1.4-0.1c0.4,0,0.5-0.2,0.5-0.4
		c0-0.8,0-1.5,0-2.3c0-0.3,0.1-0.5,0.6-0.5c0.5,0,1,0,1.5,0c0.4,0,0.5,0.1,0.5,0.4c0,0.7,0.1,1.5,0,2.2c0,0.5,0.2,0.6,0.8,0.6
		c0.7,0,1.4,0,2,0c0.5,0,0.6,0.1,0.4,0.4c0,0.1-0.1,0.1-0.1,0.2c-0.4,1-1.1,1.5-2.6,1.3c-0.5-0.1-0.5,0.2-0.5,0.4
		C68.3,11.7,68.3,12.7,68.4,13.7C68.4,13.7,68.4,13.7,68.4,13.7z"/>
	<path class="st41" d="M84.3,6.4c-0.2-0.3-0.1-0.6-0.3-0.9c-0.1-0.2,0-0.5,0.4-0.5c0.1,0,0.3-0.1,0.4,0c0.1,0.1,0,0.2-0.1,0.3
		c-0.2,0.1-0.2,0.2-0.1,0.4c0.3-0.5,1-0.4,1.3-1C86,4.2,85.3,4,85.6,3.6c-0.6-0.2-0.9,0.2-1.4,0.2c-0.1,0-0.3,0.1-0.4,0
		c-0.1-0.1,0.1-0.2,0.2-0.3c0.1-0.1,0.2-0.2,0.5-0.4c-1,0.2-1.7,0.2-2.3-0.5c1.4,0,2.8,0,4.2,0c0.2,0,0.3,0,0.2,0.2
		c-0.1,0.2,0.1,0.3,0.3,0.3c0.2,0,0.4-0.1,0.5-0.1c0.2-0.1,0.1-0.4,0.5-0.4c0.6,0,1.2-0.1,1.8,0.1C90.1,3,90.5,3,91,2.9
		c0.4-0.1,0.8-0.1,1,0.3c0.2,0.2,0.5,0.3,0.9,0.3c0.2,0,0.5,0,0.5,0.3c0,0.2-0.2,0.3-0.4,0.3c-0.2,0-0.3,0.1-0.5,0.2
		c-0.2,0.1-0.6-0.2-0.7,0.1c-0.1,0.2,0.4,0.2,0.6,0.4c0.2,0.2,0.4,0.3,0.2,0.6c-0.2,0.2,0,0.4,0.1,0.6c0,0.1,0.1,0.2,0,0.3
		c-0.1,0.1-0.2,0-0.3-0.1c-0.1-0.1-0.2-0.1-0.3,0c-0.1,0.1,0,0.2,0,0.2c0.1,0.1,0.2,0.3,0.4,0.4c0.5,0.4,0.6,0.8,0.2,1.3
		c-0.2,0.3-0.4,0.6-0.9,0.8c-0.3,0.1-0.2,0.4-0.3,0.6c-0.1,0.1-0.1,0.3-0.3,0.3c-0.2,0-0.1-0.2-0.1-0.3c0-0.3-0.1-0.6,0.5-0.8
		c0.3-0.1,0.2-0.2,0-0.3c-0.1-0.1-0.2-0.1-0.3-0.2c-0.7-0.2-0.4-0.4,0.1-0.6c0.1,0,0.2-0.1,0.3-0.2c0.1-0.1,0.2-0.1,0.1-0.3
		c-0.1-0.1-0.2-0.1-0.4-0.1c-0.7,0.2-0.9-0.1-1-0.5c0-0.3-0.2-0.5-0.7-0.4c-0.7,0.1-1.5,0.1-2.2,0c-0.1,0-0.3-0.1-0.4,0
		c-0.1,0.1,0,0.2,0.1,0.3c0.6,0.6,0.2,1.4,0.2,2c0,0-0.1,0.1-0.2,0.1C87,8.8,86.6,8.5,86.7,9c0.1,0.3,0.1,0.6,0.7,0.4
		c-0.2,0.3-0.5,0.4-0.6,0.3c-0.5-0.4-0.8,0-1,0.1c-0.4,0.2-1,0.2-1.2,0.7c0,0-0.2,0-0.3,0c0,0,0,0-0.1-0.1c0-0.4-0.4-0.7-0.9-0.9
		c-0.5-0.1-0.7-0.6-1.2-0.7c-0.1,0-0.1-0.1-0.1-0.1c-0.4-0.4-1.1-0.4-1.6-0.5c-0.9-0.2-1.8-0.3-2.7-0.2c-0.1,0-0.2,0-0.3-0.1
		c0-0.2,0-0.4,0-0.7c0.3,0.2,0.8-0.1,1.1,0.3c0.1,0.2,0.8-0.3,0.7-0.6c-0.1-0.1-0.1-0.3,0-0.3c0.3-0.1,0.3,0.1,0.3,0.2
		c0.2,0.2,0.3,0.4,0.4,0.6c0.5-0.3,1-0.6,1.5-1c0.1-0.1,0.2-0.1,0.3-0.1c0.1,0.1,0.1,0.2,0,0.2c-0.2,0.2-0.3,0.3-0.4,0.5
		c0,0-0.1,0.1-0.1,0.1c-0.2,0.2,0.1,0.5,0.2,0.4C82,7.6,82.2,8.7,82.9,8c0.2-0.1,0-0.5,0.5-0.4c0.4,0.1,0.3,0.5,0.3,0.7
		c0,0.1-0.2,0.2-0.1,0.3c0.2,0.1,0.3,0,0.4-0.1c0.1-0.3,0.3-0.4,0.7-0.5c0.2,0,0.4-0.2,0.4-0.3c0.1-0.2-0.2-0.1-0.4-0.2
		c-0.2-0.1-0.5-0.2-0.6-0.4C83.7,6.8,83.9,6.6,84.3,6.4c0.2,0.1,0.5,0.1,0.7,0.2C84.8,6.5,84.5,6.6,84.3,6.4z"/>
	<path class="st42" d="M75.7,16.5c-0.7-0.2-1.6-1.3-1.4-1.9c0.1-0.2,0.2-0.3,0.5-0.3c0.4,0,0.8,0,1.2,0c0.3,0,0.6,0.1,0.9-0.2
		c0.2-0.2,0.6-0.1,0.9,0c0.9,0.3,1.8,0.3,2.8,0.1c0.4-0.1,0.6,0.2,0.9,0.2c1.1,0,2.2,0,3.3,0c0.1,0,0.3,0,0.3-0.1
		c0.1-0.1,0-0.2-0.2-0.3c-0.3-0.1-0.3-0.3-0.1-0.5c0.5-0.4,0.3-0.8-0.5-0.9c-0.4,0-0.7-0.1-1-0.2c-0.2-0.1-0.4-0.1-0.5,0
		c-0.6,0.7-1.6,0.4-2.5,0.5c-0.3,0-0.6-0.1-0.8,0.1c-0.1,0.1-0.3,0.2-0.5,0.1c-0.2-0.1-0.4-0.2-0.6,0c-0.1,0.1-0.2,0.1-0.3,0
		c-0.4-0.4-0.9-0.3-1.3-0.1c-0.2,0.1-0.3,0.1-0.4,0c-0.3-0.2-0.5-0.2-0.9-0.1c-0.6,0.1-1-0.2-1.2-0.6c-0.2-0.4-0.5-0.8-1-1
		c-0.2-0.1-0.4-0.1-0.5,0c-0.4,0.4-1,0.8-0.9,1.4c0,0.2,0,0.3-0.1,0.5c-0.1,0.2-0.2,0.4,0,0.5c0.6,0.6,0.2,1.2,0.2,1.7
		c-1.2-2.2,0-5.1,2.6-6.5c0.1-0.1,0.2-0.1,0.4-0.2c0.2,0,0.3-0.1,0.4-0.2c0.2-0.2,0.5-0.2,0.8-0.3c1.9-0.5,3.7-0.3,5.5,0.3
		c0.2,0.1,0.3,0.2,0.5,0.3l0,0c0.9,0.4,1.8,0.9,2.2,1.6c0,0,0,0,0,0c0.8,1.1,1.3,2.2,1.2,3.4c0,0.5-0.2,0.7-0.9,0.7
		c-3.2,0-6.4,0-9.6,0c-0.7,0-0.7,0.2-0.5,0.6C74.8,15.6,75.2,16,75.7,16.5z"/>
	<path class="st43" d="M89.2,19c-1.1-0.5-1.5-1.2-1.5-2.1c0-3.3,0-6.7-0.1-10c0-0.5,0.2-0.6,0.8-0.6c1.7,0,1.8,0,1.8,1.3
		c0.1,2.9,0.1,5.8,0.1,8.7c0,0.8,0.1,1,1.2,1.3c0.3,0.1,0.3,0.2,0.2,0.4c-0.2,0.3-0.3,0.6-0.5,0.8c-0.4,0.5-0.5,0.6-1.3,0.4
		C89.7,19.2,89.4,19.1,89.2,19z"/>
	<path class="st41" d="M78.8,2.8c0,0.3-0.3,0.5-0.3,0.8c0,0.2-0.2,0.2-0.4,0.2c-0.2,0-0.4,0-0.4-0.2c-0.1-0.2-0.3-0.3-0.5-0.1
		c-0.3,0.3-0.5,0.2-0.8,0c-0.3-0.3-0.9-0.2-1.1-0.6c-0.1-0.2-0.3,0.1-0.3,0.2c-0.1,0.3,0,0.6-0.7,0.4c-0.3-0.1-0.7,0.1-1.1-0.1
		c-0.3-0.1-0.2,0.3-0.5,0.4c-0.2,0.1-0.1,0.2,0,0.3c0.5,0.4,0.5,0.9,0.2,1.3C72.6,5.8,73,5.9,73.1,6c0.1,0.1,0.2,0.1,0.1,0.3
		c-0.1,0.1-0.3,0-0.4,0c-0.3-0.3-1-0.5-0.6-1c0.4-0.6-0.3-0.9-0.6-1.3c-0.3-0.4-0.2-0.8-0.3-1.3c0.2,0,0.5,0,0.7,0
		c0.1,0.1,0.2,0.4,0.5,0.2c0.1,0,0.2-0.1,0.3,0c0.6,0.2-0.1-0.2,0.1-0.2c1.6,0,3.2-0.1,4.8,0.1C78.2,2.8,78.5,2.5,78.8,2.8z"/>
	<path class="st44" d="M81.8,22.7c1,0,1.2,0.3,1.3,0.9c0,0.5-0.2,1,0.3,1.5c0.1,0.1,0,0.2-0.1,0.2c-0.2,0.1-0.3,0.1-0.4,0
		c-0.2-0.2-0.4-0.1-0.6,0c-0.4,0.2-0.9,0.2-1.3,0c-0.3-0.2-0.4-0.4-0.3-0.7c0.1-0.4,0.5-0.5,0.9-0.6c0.2,0,0.4,0,0.6-0.1
		c0.3-0.1,0.5-0.1,0.4-0.4c-0.1-0.2-0.3-0.3-0.6-0.3c-0.3,0-0.5,0.1-0.7,0.3c-0.1,0.1-0.2,0.2-0.4,0.2c-0.2-0.1-0.1-0.3,0-0.4
		C81,22.8,81.4,22.7,81.8,22.7z"/>
	<path class="st45" d="M67.8,24c0-0.3,0.1-0.6,0.4-0.9c0.4-0.4,1.1-0.5,1.6-0.3c0.6,0.2,0.8,0.6,0.8,1.1c0,0.2-0.2,0.3-0.5,0.3
		c-0.4,0-0.9,0-1.3,0c-0.4,0-0.6,0.2-0.3,0.5c0.3,0.3,1,0.4,1.4,0.1c0.1-0.1,0.3-0.4,0.5-0.2c0.2,0.2,0,0.3-0.1,0.5
		c-0.6,0.6-1.9,0.4-2.3-0.3C67.8,24.5,67.8,24.3,67.8,24z"/>
	<path class="st46" d="M77.7,24.1c0,0,0,0.1,0,0.1c0,1.2,0,1.2-1.5,1.2c-0.6,0-0.9-0.2-1-0.6c-0.1-0.5-0.1-1.1-0.1-1.6
		c0-0.1,0-0.3,0.3-0.3c0.3,0,0.3,0.2,0.3,0.3c0,0.4,0,0.8,0,1.3c0,0.3,0.1,0.6,0.6,0.6c0.5,0,0.8-0.2,0.8-0.6c0-0.4,0-0.8,0-1.3
		c0-0.1,0-0.3,0.3-0.3c0.2,0,0.3,0.2,0.3,0.3C77.7,23.4,77.7,23.8,77.7,24.1C77.7,24.1,77.7,24.1,77.7,24.1z"/>
	<path class="st47" d="M64.1,24.2c0-1,0.7-1.5,1.8-1.4c0.4,0.1,0.7,0.2,0.9,0.5c0.1,0.1,0.1,0.2,0,0.3c-0.1,0.1-0.3,0-0.4-0.1
		c-0.2-0.3-0.6-0.4-1-0.3c-0.4,0.1-0.5,0.4-0.5,0.7c0,0.4,0,0.8,0.5,1c0.4,0.2,0.8,0.1,1.1-0.3c0.1-0.1,0.2-0.3,0.4-0.2
		c0.3,0.1,0.1,0.3,0,0.4c-0.2,0.4-0.7,0.5-1.1,0.5c-0.6,0-1-0.2-1.3-0.6C64.2,24.6,64.1,24.3,64.1,24.2z"/>
	<path class="st48" d="M74,23.6c0,0.5,0,1,0,1.4c0,0.1,0,0.3-0.3,0.3c-0.3,0-0.3-0.1-0.3-0.3c0-1-0.1-1.9-0.1-2.9
		c0-0.2,0.1-0.3,0.3-0.3c0.2,0,0.2,0.1,0.2,0.3C73.9,22.6,73.9,23.1,74,23.6C73.9,23.6,74,23.6,74,23.6z"/>
	<path class="st49" d="M84.2,23.9c0-0.2,0-0.4,0-0.7c0-0.4,0-0.4,0.5-0.2c0.2,0.1,0.3-0.1,0.4-0.1c0.2-0.1,0.5-0.3,0.6,0
		c0.1,0.2,0,0.3-0.3,0.4c-0.5,0.1-0.6,0.4-0.6,0.8c0,0.3,0,0.6,0,1c0,0.1,0,0.3-0.3,0.3c-0.3,0-0.3-0.2-0.3-0.3
		C84.2,24.6,84.2,24.2,84.2,23.9C84.2,23.9,84.2,23.9,84.2,23.9z"/>
	<path class="st50" d="M72.2,23.6c0,0.4,0,0.9,0,1.3c0,0.2,0,0.4-0.3,0.4c-0.3,0-0.3-0.2-0.3-0.4c0-0.9,0-1.8,0-2.8
		c0-0.1,0-0.3,0.2-0.3c0.3,0,0.3,0.2,0.3,0.3C72.1,22.7,72.1,23.1,72.2,23.6C72.1,23.6,72.2,23.6,72.2,23.6z"/>
	<path class="st51" d="M87.2,24c0,0.3,0,0.6,0,1c0,0.1,0,0.3-0.2,0.3c-0.2,0-0.3-0.1-0.3-0.2c0-0.6-0.1-1.3-0.1-1.9
		c0-0.1,0-0.3,0.3-0.3c0.3,0,0.3,0.1,0.3,0.3C87.2,23.4,87.2,23.7,87.2,24C87.2,24,87.2,24,87.2,24z"/>
	<path class="st52" d="M79,25.2c-0.2-0.1-0.1-0.3-0.1-0.4c0-0.9,0-1.7,0-2.6c0-0.2-0.1-0.4,0.3-0.4c0.3,0,0.3,0.2,0.3,0.4
		c0,0.9,0,1.9,0,2.8C79.5,25.2,79.5,25.5,79,25.2c0.3-0.3,0.1-0.6,0.1-0.8c0-0.6,0-1.1,0-1.7c0,0.7,0,1.4,0,2
		C79.2,24.9,79.2,25.1,79,25.2z"/>
	<path class="st41" d="M80.5,2.7c-0.1,0.1-0.3,0.2-0.3,0.3c-0.2,0.2-0.4,0.4-0.8,0.4C79,3.3,79.2,3,79.2,2.8
		C79.6,2.6,80.1,2.7,80.5,2.7z"/>
	<path class="st38" d="M73.1,2.7c0.2,0.2,0.5,0.2,0.6,0.4c-0.3,0.1-0.4,0-0.6-0.1c-0.1-0.1-0.2-0.2-0.4,0c-0.6,0.4-0.5,0-0.5-0.3
		C72.4,2.7,72.7,2.7,73.1,2.7z"/>
	<path class="st53" d="M89.2,19c0.2,0,0.4,0,0.5,0.1c0.6,0.2,1.1,0.2,1.5-0.3c0,0.4-0.3,0.6-0.8,0.5C90,19.3,89.5,19.3,89.2,19z"/>
	<path class="st41" d="M82,2.7c-0.5,0.4-0.9,0.3-1.4,0C81.1,2.7,81.6,2.7,82,2.7z"/>
	<path class="st54" d="M86.9,21.8c0.3,0,0.3,0.2,0.3,0.3c0,0.1-0.1,0.2-0.3,0.2c-0.2,0-0.2-0.1-0.2-0.3
		C86.7,21.9,86.7,21.8,86.9,21.8z"/>
	<path class="st55" d="M9.2,24c-0.3-0.1-0.8,0.2-0.8-0.2c0-0.3,0.4-0.5,0.8-0.5c0.4,0,0.8,0.2,0.8,0.5C9.9,24.2,9.4,23.9,9.2,24z"/>
	<path class="st56" d="M44.9,25.1c-0.4,0-0.7-0.1-0.6-0.4c0.1-0.5,0.7-0.4,1.1-0.5c0.3-0.1,0.4,0,0.4,0.2
		C45.7,24.8,45.4,25.1,44.9,25.1z"/>
	<path class="st57" d="M14.8,24c-0.3-0.1-0.7,0.1-0.8-0.2c0-0.3,0.4-0.5,0.8-0.5c0.4,0,0.8,0.2,0.8,0.5C15.5,24.1,15,23.9,14.8,24z"
		/>
	<path class="st58" d="M23.3,24.2c0,0.6-0.4,0.9-1,0.9c-0.5,0-0.9-0.4-0.9-1c0-0.6,0.4-0.9,1-0.9C22.9,23.2,23.3,23.7,23.3,24.2z"/>
	<path class="st59" d="M54.9,24.1c0,0.5-0.4,1-0.9,1c-0.5,0-0.9-0.4-0.9-1c0-0.5,0.3-0.9,0.9-0.9C54.5,23.1,54.9,23.5,54.9,24.1z"/>
	<path class="st60" d="M97.3,6.8c-0.4,0-0.4-0.3-0.5-0.4c-0.1-0.1-0.2-0.3-0.4-0.3c-0.3,0-0.2,0.3-0.2,0.4c0,0.1,0,0.2-0.2,0.3
		c-0.1-0.5-0.1-1-0.1-1.5c0-0.2,0.2-0.2,0.4-0.2c0.4,0,0.9-0.1,1.2,0.2c0.1,0.1,0.2,0.4,0,0.5c-0.6,0.3-0.3,0.5-0.1,0.8
		C97.4,6.6,97.3,6.7,97.3,6.8z"/>
	<path class="st13" d="M82.1,8.8c-1.7-0.7-3.6-1-5.5-0.6c-0.4,0.1-0.8,0.2-1.2,0.3c-0.1-0.3-0.1-0.5,0.5-0.4c0.5,0.1,1-0.2,1.5-0.2
		c1.2-0.2,2.4,0,3.5,0.2c0.3,0.1,0.5,0.2,0.8,0.1C82,8.3,82.2,8.6,82.1,8.8z"/>
	<path class="st13" d="M84.3,10.4c-0.6-0.6-1.4-1.2-2.2-1.6c0.3,0,0.5,0.1,0.7,0.3c0.2,0.2,0.4,0.4,0.7,0.4
		C84.2,9.7,84.4,10,84.3,10.4z"/>
	<path class="st38" d="M87.8,4c-0.1,0.2-0.1,0.4-0.4,0.4c-0.3,0-0.4-0.2-0.4-0.4c0-0.2,0.1-0.4,0.4-0.3C87.6,3.7,87.8,3.9,87.8,4z"
		/>
	<path class="st38" d="M88.5,5c-0.6,0.2-0.5,0.5-0.4,0.9c-0.5,0-0.6-0.2-0.5-0.5C87.7,5.1,87.8,4.8,88.5,5z"/>
	<path class="st13" d="M85.7,8.7c0.3,0,0.3,0.2,0.4,0.4c0,0.1,0,0.3-0.2,0.3c-0.3,0-0.5-0.2-0.5-0.4C85.3,8.8,85.5,8.7,85.7,8.7z"/>
	<path class="st38" d="M84.3,6.4c0.3,0,0.6,0,0.9,0c0.1,0,0.3,0.1,0.3,0.2c0,0.1-0.2,0.1-0.3,0.1C84.8,6.8,84.5,6.7,84.3,6.4
		C84.3,6.4,84.3,6.4,84.3,6.4z"/>
	<path class="st13" d="M84.5,8.8c0.1,0.1,0.1,0.1,0.1,0.1c0.1,0.2,0.3,0.4,0.1,0.7c0,0-0.1,0-0.2,0C84.4,9.3,84.4,9.1,84.5,8.8z"/>
	<path class="st38" d="M86.1,6c0.3,0.2,0.3,0.4,0.2,0.6c0,0.1-0.2,0.1-0.2,0C85.9,6.4,85.9,6.2,86.1,6z"/>
	<path class="st61" d="M78.4,12.4c-1.1,0-2.2,0-3.3,0c-0.5,0-0.6-0.1-0.4-0.5c0.6-1.2,2-1.9,3.7-1.9c1.7,0,3.2,0.7,3.8,1.8
		c0.2,0.3,0.2,0.5-0.4,0.5C80.6,12.4,79.5,12.4,78.4,12.4C78.4,12.4,78.4,12.4,78.4,12.4z"/>
	<path class="st39" d="M82.8,11.4c-0.2,0-0.3-0.1-0.2-0.2c0.1-0.1,0.1-0.2,0-0.3c-0.1-0.1-0.3-0.3-0.1-0.4c0.3-0.1,0.5,0.1,0.8,0.2
		c0.3,0.1,0.1,0.2,0,0.4C83.2,11.2,83.1,11.4,82.8,11.4z"/>
	<path class="st62" d="M81.7,25c-0.3,0-0.6-0.1-0.6-0.4c0.1-0.5,0.7-0.4,1.1-0.5c0.3-0.1,0.4,0.1,0.4,0.2C82.5,24.7,82.2,25,81.7,25
		z"/>
	<path class="st63" d="M69.2,23.9c-0.3-0.1-0.7,0.1-0.8-0.2c0-0.3,0.3-0.5,0.8-0.5c0.4,0,0.8,0.2,0.8,0.5
		C69.9,24,69.4,23.7,69.2,23.9z"/>
	<path class="st64" d="M79,25.2c0-1,0-2.1,0-3.1c0,0,0-0.1,0.1-0.1c0.3,0,0.2,0.2,0.2,0.3c0,0.9,0,1.7,0,2.6
		C79.3,25,79.3,25.2,79,25.2C79,25.2,79,25.2,79,25.2z"/>
	<path class="st65" d="M96.6,5.9c-0.2,0-0.5,0-0.5-0.3c0-0.3,0.2-0.3,0.5-0.3c0.2,0,0.5,0,0.5,0.3C97.2,5.9,96.8,5.8,96.6,5.9z"/>
</g>
</svg>
