<?xml version="1.0" encoding="utf-8"?>
<!-- Generator: Adobe Illustrator 23.1.1, SVG Export Plug-In . SVG Version: 6.00 Build 0)  -->
<svg version="1.1" id="Livello_1" xmlns="http://www.w3.org/2000/svg" xmlns:xlink="http://www.w3.org/1999/xlink" x="0px" y="0px"
	 viewBox="0 0 150 150" style="enable-background:new 0 0 150 150;" xml:space="preserve">
<style type="text/css">
	.st0{fill:#457DBD;}
	.st1{fill:#3D72B5;}
	.st2{fill:#3A6AAF;}
	.st3{fill:#3F76B8;}
	.st4{fill:#3C77B9;}
	.st5{fill:#558FC8;}
	.st6{fill:#59A0D5;}
	.st7{fill:#67A0D3;}
	.st8{fill:#5295CD;}
	.st9{fill:#FAFDFB;}
	.st10{fill:#504E50;}
	.st11{fill:#F8FCF9;}
	.st12{fill:#5B9DD2;}
	.st13{fill:#5C9BD1;}
	.st14{fill:#5596CE;}
	.st15{fill:#6CACDB;}
	.st16{fill:#5895CD;}
	.st17{fill:#5794CC;}
	.st18{fill:#3C6EB3;}
	.st19{fill:#548CC7;}
	.st20{fill:#5990C9;}
	.st21{fill:#4C89C5;}
	.st22{fill:#3C6CB1;}
	.st23{fill:#3D70B4;}
	.st24{fill:#518FC9;}
	.st25{fill:#518BC6;}
	.st26{fill:#4E8BC6;}
	.st27{fill:#5693CC;}
	.st28{fill:#568FC9;}
	.st29{fill:#FDCC3D;}
	.st30{fill:#ECA534;}
	.st31{fill:#F2B233;}
	.st32{fill:#F4BF36;}
	.st33{fill:#EFB434;}
	.st34{fill:#F6C134;}
	.st35{fill:#EEBA35;}
	.st36{fill:#E7A535;}
	.st37{fill:#FACB3F;}
	.st38{fill:#FCCB3B;}
	.st39{fill:#558DC7;}
	.st40{fill:#FFFFFF;}
	.st41{font-family:'MyriadPro-Regular';}
	.st42{font-size:12px;}
</style>
<path class="st0" d="M57,29c5.8,0,11.7,0,17.5,0c0.7,0.7,0.7,1.6,0.4,2.5c-0.1,0.3-0.3,0.6-0.4,0.9c0.3,0.1,0.5-0.1,0.6-0.3
	c0.3-0.9,0.9-1.7,0.3-2.7c-0.1-0.2,0-0.4,0.2-0.5c0.7-0.1,1.4-0.1,2.1,0c0.2,0.3,0.4,0.5,0.7,0.2c0.2-0.2,0.4-0.1,0.6-0.2
	c0.5-0.1,1.1-0.1,1.6,0c0.6,0.1,1.2,0.1,1.7,0c0.5,0,1.1,0,1.6,0c0.2,0.1,0.5,0.1,0.7,0.1c2.1,0,4.2-0.1,6.3,0
	c0.3,0.1,0.3,0.4,0.4,0.6c0,0.1,0.1,0,0,0c-0.1-0.1-0.1-0.4-0.3-0.5c-0.1-0.1-0.1-0.2,0-0.2c0.1,0,0.2,0,0.3,0
	c0.2,0.5,0.7,0.1,1,0.2c0.4,0.1,0.8,0,1.1,0c0.8,0,1.2,0.7,1.7,1.1c0.3,0.2,0,0.6-0.3,0.7c-0.6,0.4-0.7,0.6-0.5,1.3
	c0.1,0.2,0.2,0.4-0.1,0.6c-0.3,0.1-0.5-0.1-0.6-0.3c-0.2-0.5-0.5-0.9-0.8-1.3c-0.2-0.2-0.3-0.4-0.3-0.7c0.1,0.3,0.2,0.5,0.3,0.6
	c0.7,1.2,1.5,2.3,2.2,3.6c0.2,0.3,0.3,0.4,0.7,0.4c0.2,0,0.5-0.1,0.6,0.3c-0.3,0.3-0.7,0.3-1.2,0.3c-0.7-0.4-0.9-1.1-1.2-1.8
	c-0.4-0.8-1-1.4-1.4-2.1c0.1,0.6,0.7,0.9,1,1.4c0.3,0.5,0.2,0.7-0.3,0.9c-0.5,0.1-1,0.3-1.2,0.9c-0.1,0.4-0.6,0.7-0.9,1
	c-0.3,0.3-0.6,0-1,0c1.4,0.4,2.9,0.4,4.2,1c0.1,0.2-0.1,0.3-0.2,0.4c-0.4,0.1-0.8,0-1.2-0.1c-0.5-0.1-0.9-0.3-1.4-0.1
	c-0.1,0-0.2,0-0.3,0c-0.7-0.7-1.6-0.6-2.4-0.8c-0.2,0-0.3-0.1-0.5-0.2c0.4,0.2,0.9,0.3,1.4,0.4c0.6,0.1,0.7,0.2,0.5,0.8
	c-0.2,0.6-0.5,1-1,1.4c-0.5,0.5-1.2,0.8-1.5,1.6c0,0,0,0.1-0.1,0.1c-1,0.3-0.8,1.3-0.9,2c-0.2,0.8-0.1,0.8-0.9,0.7
	c-0.2,0-0.1,0.1-0.1,0.1c-0.1,0.6-0.6,0.7-0.9,0.9c2.7-1.6,5.5-3.2,8.2-4.9c0.3-0.2,0.6-0.4,1-0.4c0.1,0,0.2,0.1,0.2,0.2
	c-0.1,0.3-0.3,0.4-0.5,0.5c-2.8,1.6-5.6,3.3-8.3,4.9c-0.4,0.3-0.5,0.5-0.6,1C84.8,47,85,48.3,85,49.7c0,1.1,0,2.3,0.2,3.4
	c0.1,0.8,0.1,1.5,0.1,2.3c0.2,2,0,4.1,0.3,6.1c0,0.1,0,0.2,0,0.3c0,0.2,0,0.4-0.3,0.5c-0.3,0-0.3-0.2-0.3-0.4c0-0.4-0.2-0.8-0.1-1.2
	c0.1-1.7-0.1-3.3-0.2-5c-0.1-1.8-0.2-3.7-0.3-5.5c-0.1-1-0.2-2.1-0.2-3.1c0-0.3,0-0.5-0.3-0.6c-0.4-0.1-0.4-0.3-0.2-0.5
	c-1.1,0.6-2.2,1.4-3.4,2.1c0.5-0.1,0.8,0.2,1.1,0.5c0.3,0.4,0.2,0.7-0.2,0.9c-0.4,0.2-0.6,0.5-0.6,0.9c0,0.6-0.2,1-0.7,1.5
	c-0.5,0.6-1.2,1-1.7,1.5c-0.6,0.6-0.9,1.1-0.9,1.9c0,0.2-0.1,0.4-0.3,0.5c-0.4,0.2-0.6,0.7-0.9,0.9c-0.6,0.4-0.9,1.2-1.6,1.5
	c-0.3,0.1-0.3,0.3-0.3,0.6c0,0.7,0,1.4-0.9,1.8c-0.3,0.1-0.3,0.5-0.6,0.7c-0.8,0.4-1.3,0.3-1.6-0.3c0.6,0.7,1.4,1.7,2.4,2.7
	c0.9,1,1.8,1.9,2.7,3c0.8,0.9,1.7,1.7,2.4,2.6c0.1,0.1,0.1,0.1,0.2,0.2c0.1,0.2,0.4,0.4,0.2,0.6c-0.2,0.2-0.5,0.1-0.7-0.1
	c-0.3-0.3-0.6-0.7-0.9-1.1c-1.2-1.2-2.3-2.5-3.5-3.7c-0.5-0.5-0.9-1.1-1.4-1.6c-0.2-0.2-0.4-0.5-0.7-0.3c-0.3,0.2-0.8,0.1-0.8,0.7
	c0,0.6-0.6,0.9-1,1.2c-0.3,0.2-0.5-0.1-0.7-0.4c-0.3-0.5-0.7-1-1.4-0.8c0.9,0.7,1.9,1.4,3,1.9c0.1,0,0.2,0.1,0.2,0.2
	c0.3,0.6,0.8,1,1.3,1.3c0.9,0.5,1.6,1.3,2.5,1.7c0.3,0.1,0.5,0.4,0.4,0.7c-0.2,0.3-0.5,0.1-0.8,0c-0.6-0.4-1.2-0.7-1.7-1.2
	c-1.1-1-2.5-1.5-3.5-2.5c-0.3-0.3-0.5,0-0.5,0.3c0.1,0.7-0.3,1.1-0.8,1.6c-0.5,0.5-1.2,0.8-1.5,1.6c0,0.1-0.1,0.1-0.1,0.2
	c-0.8,0.3-0.8,0.9-0.8,1.6c0,0.1,0,0.3-0.1,0.4c-0.6,0.4-0.9,1.1-1.4,1.5c-0.5,0.4-0.8,1.1-1.5,1.3c-0.2,0.1-0.2,0.5-0.2,0.7
	c0,0.6-0.1,1.1-0.7,1.3c-0.2,0.1-0.3,0.2-0.4,0.4c-0.1,0.2-0.2,0.4-0.5,0.5c-0.3,0.1-0.5,0.3-0.6,0.6c-0.1,0.2-0.3,0.4-0.5,0.5
	c-0.5,0.2-0.6,0.5-0.4,1c0.1,0.3,0.2,0.7-0.2,0.9c-0.4,0.2-0.6-0.2-0.8-0.5c-0.2-0.3-0.5-0.6-0.7-0.9c0.6,0.9,1.3,1.7,2,2.5
	c0.2,0.2,0.4,0.4,0.5,0.7c0.1,0.2,0.2,0.4,0,0.6c-0.2,0.1-0.4,0-0.5-0.2c-0.3-0.2-0.5-0.5-0.7-0.8c-0.3-0.4-0.6-0.5-1.1-0.3
	c-0.3,0.2-0.7,0.3-1-0.1c-0.2-0.3-0.3-1.2,0-1.4c0.4-0.3,0.3-0.4,0-0.7c-0.4-0.4-0.2-0.9-0.2-1.3c-0.1,0.5,0.1,1,0,1.5
	c-0.1,1.1,0.1,2.3,0,3.4c0,1,0.5,1.4,1.4,1.1c0.4-0.1,0.6-0.1,0.7,0.4c0.1,0.3,0.8,0.5,1.2,0.3c0.4-0.2,0.6-0.2,0.7,0.3
	c0.1,0.3,0.4,0.4,0.6,0.5c0.5,0.2,0.5,0.5,0.3,0.9c-0.1,0.2-0.2,0.4-0.3,0.6c-0.1,0.1-0.1,0.3-0.3,0.3c-0.2-0.1-0.3-0.3-0.2-0.4
	c0.3-0.6-0.1-0.8-0.6-1c-1-0.5-2.2-0.7-3.2-1.2c-0.2-0.1-0.4,0-0.4,0.2c0,0.2-0.1,0.5-0.4,0.2c-0.1-0.3-0.1-0.7-0.1-1
	c0-1.9,0-3.8,0-5.8c0-0.2,0-0.4,0-0.6c0-0.3-0.1-0.4-0.4-0.4c-0.3,0-0.4,0.1-0.5,0.4c0,0.2,0,0.4,0,0.7c0,1.9,0,3.8,0,5.8
	c0,0.9-0.3,1.7-0.9,2.3c-1.3,1.2-2.5,2.5-3.8,3.8c-0.7,0.7-1.5,1.1-2.6,1.1c-0.3,0-0.5,0-0.8,0c-5.4,0-10.8,0-16.2,0
	c-6.2,0-12.4,0-18.5,0c-0.3,0-0.6,0-0.9,0c-1.7-0.1-2.7-1.1-2.7-2.8c0-3.3,0-6.6,0-10c0-0.3,0-0.5,0-0.8c0-0.2-0.2-0.3-0.4-0.3
	c-0.2,0-0.4,0.1-0.4,0.4c0,0.2,0,0.4,0,0.7c0,3.4,0,6.7,0,10.1c0,2.2,1.4,3.6,3.5,3.7c0.3,0,0.6,0,0.9,0c6.3,0,12.6,0,18.9,0
	c0.4,0,0.8-0.1,1.2,0.2c0.3,0.9,0.2,1.8,0.1,2.7c0,0.2-0.1,0.4-0.1,0.6c0.1,2.2-0.2,4.4-0.1,6.6c0,0.7-0.2,1.1-0.9,1.3
	c-0.7,0.2-1.2,0.7-1.4,1.4c-0.1,0.3-0.3,0.5-0.6,0.5c-2.3,0-4.5,0-6.8,0c0,0-0.1,0-0.1,0c-0.2-0.4,0.3-0.7,0.2-1.1c0-0.1-0.1,0,0,0
	c0,0,0.1,0,0,0c-0.1,0.4-0.2,0.7-0.4,1c-0.2,0.2-0.5,0.1-0.7,0.1c-4.7,0-9.5,0.1-14.2,0.1c-0.1,0-0.3,0-0.4,0
	c-0.3,0-0.5-0.1-0.5-0.5c-0.2-1.1-0.3-2.3-0.6-3.4c0.2,1.1,0.3,2.2,0.5,3.2c0.1,0.5,0,0.7-0.6,0.7c-1.7-0.1-3.5,0-4.7,0
	c1.2,0,2.9-0.1,4.6-0.1c0.6,0,0.8,0.1,0.9,0.7c0.1,0.5,0.1,1.1,0.2,1.6c-0.2-0.6-0.1-1.2-0.3-1.8c-0.1-0.5,0.1-0.6,0.5-0.6
	c2.3,0,4.6,0.1,6.8,0c2.5-0.1,5,0,7.4-0.1c0.8,0,0.8,0.1,0.6,0.8c-0.4,1.2-0.9,2.4-1.3,3.6c0,0.1,0.1,0,0,0c0,0,0,0,0-0.1
	c0.4-1.4,1-2.7,1.4-4c0.1-0.3,0.3-0.4,0.6-0.4c2.2,0,4.4,0,6.6,0c0.2,0,0.4,0,0.5,0.1c0.3,0.5,0.6,1,0.8,1.6
	c0.1,0.4-0.2,0.8-0.4,1.1c-1.8,2.6-3.5,5.2-5.2,7.8c-1.2,1.8-2.3,3.6-3.5,5.3c-0.7,1-1.4,2.1-2.1,3.2c-0.2,0.2-0.3,0.5-0.6,0.5
	c-1.1,0-2.2,0-3.3,0c-2.4,0-4.8,0-7.2,0c-3.9-0.6-6.6-2.7-8-6.4C0.1,117.3,0,116,0,114.8c0-7.1,0-14.2,0-21.3c0-6.6,0-13.2,0-19.7
	c0-6.3,0-12.7,0-19c0-5.5,0-11.1,0-16.6c0-1.8,0.5-3.5,1.7-5c1.6-1.3,3.2-2.6,4.9-3.7C7.4,29.1,8.2,29,9,29c1.2-0.1,2.4,0,3.6,0
	c0.4,0,0.4,0.3,0.3,0.5c-0.1,0.9-0.2,1.8-0.3,2.6c-0.1,0.3,0,0.5,0,0.8c0,0.1,0.1,0,0,0c0,0,0,0,0-0.1c0.1-1.2,0.3-2.4,0.4-3.6
	c0-0.3,0.2-0.3,0.4-0.3c0.4,0,0.8,0,1.2,0c0.9,0,0.9,0,1.2,0.8c0.7,2.1,1.6,4.1,2.3,6.2c1.6,4.2,3.2,8.5,4.8,12.7
	c0.6,1.5,1.2,2.9,1.7,4.4c-0.4-1.2-0.9-2.3-1.3-3.5c-1.4-3.8-2.9-7.6-4.3-11.4c-1-2.6-2-5.2-2.9-7.8c-0.6-1.7-1-1.5,1-1.5
	c0.7,0,1.5,0,2.2,0c0.7,0,1.3,0.1,1.7,0.6c0-0.1-0.1-0.1-0.2-0.2c-0.1-0.1-0.2-0.1-0.2-0.3c0.1-0.2,0.3-0.1,0.5-0.1
	c5.1,0,10.2,0,15.3,0c0.5,0,0.7,0.2,0.6,0.7c-0.2,1.2-0.1,2.5-0.3,3.7c-0.1,0.5,0,1.1-0.1,1.4c0.2-1.6,0.3-3.4,0.4-5.2
	c0-0.4,0.1-0.6,0.6-0.6c6.4,0,12.8,0,19.3,0C56.8,28.9,56.9,28.9,57,29z"/>
<path class="st1" d="M143.8,29.6c2.1,0.7,3.6,2.1,4.7,4c0.7,1.1,1.1,2.4,1.3,3.7c0.1,1.3,0,2.5,0,3.8c0,2.1,0,4.3,0,6.4
	c0,0.6,0.3,1.1,0.1,1.6c-0.5,1.6-0.9,3.3-1.4,5c-0.2,0.8-0.4,0.9-1.2,0.7c-4.6-1.5-9.2-3.1-13.7-4.6c-2.9-0.9-5.7-1.9-8.5-2.9
	c-0.5-0.2-0.8-0.4-0.9-0.9c-0.1-0.4-0.4-0.8-0.5-1.2c-0.8-2.2-1.7-4.3-2.5-6.5c-0.1-0.3-0.2-0.5,0-0.8c1.7-0.8,2.4-2.3,2.8-4
	c0.2-0.9,0.2-1,1.1-1.1c0.9-0.1,1.7-0.5,2.6-0.3c0.4,0,0.7-0.3,1.1-0.3c1.5-0.3,3.1-0.4,4.6-0.8c1.3-0.3,2.6-0.4,3.9-0.6
	c1-0.1,1.9-0.4,2.9-0.6C141.3,29.8,142.5,29.4,143.8,29.6z"/>
<path class="st2" d="M141.5,124.9c-2.9,0-5.7,0-8.6,0c-0.3,0-0.6,0-0.9,0c-0.1-0.9,0.2-1.8,0.4-2.7c0.5-2.4,1-4.8,1.4-7.2
	c0.1-0.7,0.3-1.3,0.4-1.9c0.2-0.8,0.3-0.9,1.2-0.8c1.3,0.1,2.5,0.2,3.8,0.3c1.8,0.1,3.5,0.4,5.3,0.4c0.1,0,0.2,0,0.3,0
	c1.3,0.3,2.7,0.2,4.1,0.3c0.3,0,0.7-0.1,0.9,0.4c0,0.9,0.1,1.8,0,2.7c-0.2,4-3.5,7.7-7.5,8.4C142,124.8,141.7,124.8,141.5,124.9z"/>
<path class="st3" d="M93,31.3c0.6,0.1,0.7,0.6,0.9,1c0.1,0.2,0.1,0.3,0.2,0.5c0.1,0.1,0.2,0.2,0.4,0c0.1-0.1,0-0.2-0.1-0.3
	c-0.2-0.3-0.2-0.6-0.1-0.9c0.1-0.4,0.1-0.6,0.5-0.6c0.2,0,0.4-0.1,0.5-0.4c0-0.3-0.2-0.4-0.4-0.4c-0.1,0-0.2-0.1-0.2-0.1
	c-0.4-0.8-1.1-0.6-1.8-0.7c-0.3,0-0.5,0-0.7-0.2c-0.1,0.3,0.1,0.4-0.1,0.7c-0.4-0.1-0.3-0.6-0.6-0.8c2.4,0,4.9,0,7.3,0
	c4.4,0,8.8,0,13.2,0c0.2,0,0.4,0,0.6,0c0.2,0.3,0.1,0.5,0,0.8c-0.5,1.2-0.7,2.4-0.5,3.6c0.2,1.3-0.1,1.7-1.4,1.9
	c-2.5,0.4-4.9,0.9-7.4,1.3c-1.5,0.3-3,0.5-4.5,0.6c-0.4-0.6-0.8-1.1-1.4-1.5c-0.4-0.3-0.1-0.8-0.1-1.2c0,0-0.2,0.1-0.1,0.1
	c0,0,0,0,0,0c-0.1,0.8-0.1,1.1-0.8,0.8c-0.3,0.1-0.6-0.2-0.8,0.1c-0.1,0.1-0.3,0-0.3-0.1c-0.8-1.3-1.5-2.6-2.3-3.8
	C93,31.5,93,31.3,93,31.3L93,31.3z"/>
<path class="st4" d="M98.8,37.1c0.7-0.2,1.5-0.4,2.3-0.4c1.2-0.1,2.3-0.3,3.4-0.5c1.1-0.2,2.2-0.3,3.3-0.5c0.9-0.2,1.9-0.3,2.9-0.5
	c0.5-0.1,0.9-0.3,1.3-0.5c0.3-0.1,0.2-0.7,0.1-1c-0.2-0.7,0-1.4-0.2-2.1c-0.1-0.2,0.2-0.4,0.2-0.6c0.2-0.6,0.5-1.3,0.7-2
	c3.4-0.1,6.9-0.1,10.3,0c0.8,0.8,1.1,1.8,1.2,2.9c0,0.5,0.1,0.5,0.6,0.5c0.8-0.1,1.6-0.2,2.4-0.3c0.2,0,0.4,0,0.6-0.1
	c1.7-0.7,3.5-0.5,5.2-1c1.2-0.3,2.3-0.5,3.5-0.6c2.1-0.3,4.1-0.8,6.2-1c0,0,0.1,0,0.1-0.1c0.4,0,0.8,0.2,1.1,0.4
	c-1.7,0.3-3.4,0.4-5.1,0.8c-1.4,0.3-2.8,0.4-4.2,0.7c-1,0.2-2,0.5-3.1,0.6c-1,0.1-1.9,0.2-2.9,0.5c-1.3,0.4-2.6,0.4-4,0.7
	c-0.5,0.1-0.5,0.4-0.5,0.8c-0.2,1.4-0.8,2.6-1.8,3.6c-0.3,0.3-0.7,0.5-1.2,0.6c-0.4-0.1-0.3-0.5-0.5-0.8c0,0.4,0.5,0.8,0.2,1.3
	c-1.7,0.9-3.4,1.1-5.2,0.3c-0.4-0.2-0.8-0.2-1.2-0.5c-0.9-0.5-1.6-1.1-2.1-2c-0.3-0.6-0.6-0.8-1.3-0.6c-2,0.5-4.1,0.8-6.1,1.1
	c-1.6,0.2-3.1,0.6-4.7,0.7c-0.5,0-0.9,0.3-1.3,0.5C98.6,37.7,98.8,37.4,98.8,37.1z"/>
<path class="st1" d="M142.7,29.3c0,0.1,0.3,0.2,0,0.3c-1.8,0.1-3.6,0.7-5.4,0.8c-1,0.1-2,0.5-3.1,0.5c-0.7,0-1.5,0.4-2.2,0.5
	c-0.8,0.1-1.5,0.4-2.3,0.3c-0.4-0.1-0.8,0.2-1.2,0.4c-1.1,0.3-2.2,0.4-3.3,0.5c-0.4,0-0.6,0.4-1,0.2c-0.3-0.3,0-0.7-0.1-1
	c-0.2-0.7-0.4-1.5-0.8-2.2c-0.1-0.2-0.2-0.3-0.2-0.5c2.6,0,5.3,0,7.9,0c3.5,0,6.9,0,10.4,0C141.7,29,142.2,29.1,142.7,29.3z"/>
<path class="st5" d="M23.2,125c-0.3,0-0.5,0-0.8,0c-2.2,0-4.4,0-6.7,0c-0.1,0-0.1,0-0.1-0.1c0,0,0-0.1,0-0.1c1.2,0,2.3,0,3.5,0
	c0.1-0.1,0.3-0.2,0.4-0.2c0.2,0,0.4,0,0.6,0c0.9,0,1.9,0,2.8,0c0.2,0,0.3,0,0.5,0c0.7,0,1.3,0,2,0c6.6,0,13.1,0,19.7,0
	c0.3,0,0.7,0,1,0c0.2,0,0.3,0,0.5,0c2.1,0,4.2,0,6.3,0c0.3,0,0.6,0.1,0.9-0.2c0.1-0.1,0.2-0.2,0.3-0.1c0.4,0.3,0.8,0.3,1.3,0.3
	c3.2,0,6.3,0,9.5,0c0.1,0,0.3,0,0.4,0c2.1-0.1,4.2,0,6.3,0c3.9,0,7.8,0,11.8,0c0.1,0,0.3,0,0.4,0c4.2,0,8.4,0,12.5,0
	c0.1,0,0.2,0,0.4,0c0.5,0,1,0,1.5,0c0.4,0,0.7-0.1,0.7-0.6c0-0.3,0.1-0.6,0.3-0.8c0.3-0.1,0.3,0.1,0.3,0.3c0,1.1,0,1.1,1.2,1.1
	c0.8,0,1.6,0,2.5,0c0.5,0,0.9-0.1,1.2-0.5c1.7-1.9,3.5-3.7,5.2-5.7c0.2-0.3,0.5-0.6,0.9-0.7c0.1,0,0.1,0,0.2,0.1
	c0.1,0.4-0.2,0.6-0.4,0.8c-1.8,1.9-3.5,3.9-5.3,5.7c0,0,0,0.1-0.1,0.2c0.8,0.1,1.5,0.1,2.1-0.5c0.7-0.6,1.5-1.1,2.2-1.7
	c0.2-0.1,0.3-0.3,0.5-0.3c0.1,0,0.2,0,0.2,0c0.1,0.1,0,0.2,0,0.2c-0.1,0.2-0.3,0.4-0.6,0.6c-0.7,0.5-1.3,1.1-2,1.6
	c0.2,0.2,0.4,0.1,0.6,0.1c2.7,0,5.4,0,8,0c0.3,0,0.6,0,0.9,0.1c0.1,0,0.1,0.1,0.1,0.1c-0.2,0.1-0.5,0.1-0.7,0.1
	c-22.9,0-45.9,0-68.8,0c-7.3,0-14.5,0-21.8,0c-0.3,0-0.6,0-0.9,0C24.3,125.1,23.8,125.1,23.2,125z"/>
<path class="st6" d="M57,29c-0.3,0-0.6,0-0.9,0c-6.1,0-12.2,0-18.3,0c-0.6,0-0.8,0.1-0.9,0.8c-0.1,1.6-0.3,3.1-0.4,4.7
	c0,0.3-0.1,0.5-0.2,0.8c-0.1-0.7,0.1-1.4,0.1-2.1c0-1.2,0.2-2.4,0.2-3.7c0-0.3,0-0.5-0.4-0.5c-5.2,0-10.4,0-15.8,0
	c0.4,0.4,0.7,0.6,1,0.9c0,0.1-0.1,0.1-0.1,0.2c-1-1.2-2.3-1.3-3.7-1.1c-0.1,0.2,0.3,0.3,0.1,0.5c0,0-0.1,0-0.1,0
	c-0.4-0.9-1.3-0.5-1.9-0.6c-0.3,0-0.2,0.3-0.1,0.4c0.8,2.2,1.6,4.3,2.5,6.5c1.4,3.7,2.8,7.4,4.2,11c0.7,2,1.5,3.9,2.2,5.9
	c0.1,0.2,0.2,0.5,0.2,0.8c-0.7-1.1-1.1-2.4-1.5-3.6c-1.6-4-3.1-8.1-4.6-12.1c-1-2.8-2.1-5.5-3.1-8.3c-0.1-0.4-0.3-0.5-0.7-0.5
	c-0.2,0-0.3,0-0.5,0c-1.4,0-1.3,0-1.5,1.4c-0.1,0.9-0.2,1.8-0.3,2.8c-0.1-0.5-0.1-0.9,0-1.4c0.2-0.8,0.1-1.6,0.3-2.4
	C13,29,12.7,29,12.4,29c-1.1,0-2.3,0-3.4,0c0.3-0.1,0.6-0.1,0.9-0.1c15.5,0,30.9,0,46.4,0C56.6,28.9,56.8,28.8,57,29z"/>
<path class="st7" d="M149.8,49.4c0.2,1,0.1,2,0.1,3.1c0,13.3,0,26.6,0,39.9c0,3.3,0,6.6,0,9.9c0.1,1,0.1,2,0,3.1c0,0.6,0,1.2,0,1.8
	c0,2.8,0,5.6,0,8.5c0,0.3,0.1,0.5-0.1,0.8c0-0.9,0-1.8,0-2.7c0-0.1-0.1-0.2-0.1-0.3c-0.1-0.4,0-0.7,0-1.1c0-5.9,0-11.9,0-17.8
	c0-0.9-0.2-1.4-1-1.8c-0.4-0.2-0.8-0.5-1.2-0.8c-0.2-0.2-0.5-0.3-0.4-0.6c0.3-0.2,0.5,0,0.7,0.1c0.4,0.3,0.8,0.6,1.3,0.9
	c0.5,0.3,0.5,0.3,0.6-0.3c0-0.2,0-0.3,0-0.5c-0.1-2.9-0.1-5.7,0-8.6c0-3.1,0-6.3,0-9.4c0-5.6,0-11.2,0-16.8c0-0.3,0-0.5,0-0.8
	c0-0.1,0-0.3,0-0.4c0-1.8-0.1-3.6,0.1-5.4C149.7,49.8,149.7,49.6,149.8,49.4z"/>
<path class="st3" d="M75.6,29c-0.2,0.2-0.1,0.4,0,0.6c0.3,0.4,0.3,0.8,0.2,1.2c-0.1,0.6-0.4,1.2-0.7,1.7c-0.2,0.4-0.5,0.3-0.8,0.1
	c-0.4-0.2,0-0.3,0.1-0.4c0.6-1.1,0.6-2.1,0.1-3.2C74.9,28.9,75.2,28.9,75.6,29z"/>
<path class="st8" d="M6.6,29.4c-0.2,0.4-0.6,0.5-0.9,0.8c-1.1,0.9-2.3,1.8-3.4,2.6C2.2,33,2,33.1,1.7,33.1C2.8,31.2,4.5,30,6.6,29.4
	z"/>
<path class="st3" d="M91.3,29.3c-0.3-0.1-0.7-0.2-1.1-0.1c-1.9,0.1-3.8-0.1-5.7,0.1c-0.2,0-0.4-0.1-0.5-0.3c2.4-0.1,4.8-0.1,7.2,0
	C91.3,29.1,91.3,29.2,91.3,29.3L91.3,29.3z"/>
<path class="st3" d="M79.1,29c-0.2,0.1-0.4,0.3-0.6,0.4c-0.2,0.1-0.3,0.3-0.6,0.2c-0.2-0.1-0.2-0.4-0.2-0.6
	C78.2,28.9,78.6,28.9,79.1,29z"/>
<path class="st3" d="M82.4,29c-0.6,0.2-1.2,0.2-1.7,0C81.3,28.9,81.8,28.9,82.4,29z"/>
<path class="st3" d="M83.5,124.8c-6.1,0-12.1,0-18.2,0c-0.2-0.2-0.2-0.4-0.2-0.6c0.1-4.1,0.2-8.2,0.3-12.4c0.1-2.7,0.1-5.4,0.2-8.1
	c0.1-3,0.1-6,0.2-9c0-1.1,0.2-2.3,0.1-3.4c0-0.4,0.3-0.6,0.5-0.9c0.3-0.3,0.5-0.8,0.2-1.2C66.4,89,66,89,65.5,89.2
	c-0.2,0.1-0.4,0.2-0.4,0.4c-0.1,0.6-0.5,0.8-0.9,1c-1.7,0.7-3.3,1.5-5,2.2c1.1-0.4,2.1-0.9,3.1-1.4c0.7-0.4,1.5-0.6,2.2-1
	c0.6-0.3,1.4,0.2,1.4,0.9c0,2-0.1,4.1-0.2,6.1c0,0.2,0,0.5,0,0.7c0,3.9-0.2,7.8-0.2,11.7c-0.1,3.5-0.1,7-0.3,10.6
	c0,1.3,0,2.5-0.1,3.8c0,0.2,0,0.4-0.2,0.5c-3.4,0-6.7,0-10.1,0c-0.4,0-0.6-0.2-0.8-0.5c-0.5-0.8-0.8-1.8-1.2-2.5
	c0.3,0.5,0.4,1.2,0.8,1.9c0.1,0.2,0.2,0.5,0.2,0.8c0.1,0.3,0,0.4-0.4,0.4c-2.3,0-4.6,0-6.9,0c-0.6-0.4-0.9-1-1.3-1.6
	c-1.4-1.8-2.7-3.6-4-5.4c-1.6-2.2-3.2-4.4-4.9-6.5c-0.9-1.2-1.8-2.4-2.7-3.6c-0.3-0.4-0.4-0.8,0-1.3c0.3-0.4,0.5-1,0.4-1.5
	c-0.1-0.4,0.1-0.6,0.5-0.8c0.7-0.3,1.4-0.6,2.1-1c-0.6,0.4-1.3,0.6-1.9,0.9c-0.5,0.3-0.8,0.2-1.2-0.2c-0.2-0.2-0.4-0.4-0.6-0.5
	c-0.7-0.2-0.8-0.6-0.8-1.2c0.1-3.3,0.3-6.5,0.3-9.8c0-0.1,0-0.2,0.1-0.3c0.3-0.2,0.7-0.1,1-0.1c4.7,0,9.4,0,14.1,0
	c1.4,0,2.6-0.4,3.6-1.5c1.1-1.2,2.3-2.3,3.4-3.5c0.5-0.5,1-1,1.3-1.7c0.1-0.2,0.2-0.3,0.4-0.4c0-0.1,0.1-0.1,0.1-0.2
	c0.1-0.8,0.2-0.8,1-0.4c0.7,0.3,1.4,0.6,2.2,0.8c0.5,0.1,0.9,0.5,1.4,0.6c0.4,0,0.2,0.4,0.1,0.5c-0.1,0.2-0.3,0.4-0.1,0.7
	c0.1,0,0.1-0.1,0.1-0.1c0-0.5,0.6-0.8,0.5-1.1c-0.1-0.4-0.7-0.4-1-0.6c-0.4-0.2,0.3-0.6-0.2-0.7c-0.3-0.1-0.2,0.5-0.6,0.4
	c-0.4-0.1-0.7-0.2-1.1-0.4c-0.1,0-0.2-0.1-0.2-0.2c0.2-1-0.4-0.3-0.6-0.2c-0.6,0.1-1.5-0.5-1.5-1.1c0-1.9,0-3.9,0-5.9
	c0.4,0.3,0.3,0.6,0.2,0.8c-0.2,0.5-0.1,0.9,0.4,1.3c0.2,0.2,0.8,0.5-0.1,0.7c-0.6,0.1-0.3,0.7-0.2,1.1c0.1,0.4,0.4,0.3,0.7,0.2
	c0.8-0.4,0.9-0.4,1.5,0.4c0.3,0.4,0.5,0.6,1,0.9c0.1-0.5-0.2-0.8-0.5-1.1c-0.8-0.8-1.5-1.8-2.2-2.7c-0.1-0.1-0.2-0.2-0.1-0.4
	c0-0.1,0.1-0.1,0.1-0.1c0.2,0,0.3,0.1,0.3,0.3c0.2,0.5,0.8,0.7,0.9,1.3c0,0.2,0.2,0.2,0.4,0.2c0.2-0.1,0.3-0.2,0.2-0.4
	c0-0.1-0.2-0.3-0.2-0.4c-0.1-0.4-0.2-0.7,0.4-1.1c0.7-0.3,1.1-1,1.6-1.6c0.1-0.2,0.1-0.4,0.4-0.4c0.6-0.1,0.7-0.5,0.7-1
	c0-0.2,0-0.4,0-0.7c0-0.1,0-0.3,0.1-0.3c0.7-0.1,1-0.8,1.5-1.2c0,0,0.1,0,0.1-0.1c0.7,0,0.2-1,0.9-1.1c0.8-0.1,0.6-0.7,0.6-1.3
	c0-0.4,0.1-0.6,0.5-1c0.6-0.4,1.2-0.9,1.6-1.6c0.1-0.2,0.2-0.4,0.5-0.5c0.6-0.1,0.7-0.5,0.6-1c-0.1-0.2,0-0.4,0.1-0.6
	c0.2-0.4,0.4-0.5,0.7-0.1c0.4,0.5,0.9,0.9,1.3,1.1c0.7,0.3,1.3,0.8,1.9,1.2c0.7,0.5,1.3,1,2,1.5c0.2,0.1,0.4,0.4,0.6,0.1
	c0.1-0.2-0.1-0.4-0.3-0.6c-1.2-0.6-2.4-1.4-3.3-2.4c-1.1-1.1-2.5-1.6-3.6-2.6c-0.2-0.2-0.4-0.3-0.6-0.6c0.5,0.1,0.9,0.3,1.4,0.1
	c0.1-0.1,0.3,0.1,0.3,0.2c0,0.4,0.5,0.6,0.6,0.9c0,0.1,0.2,0.1,0.3,0.1c0.3,0,1-1,0.9-1.3c-0.1-0.4,0-0.6,0.5-0.6c0,0,0.1,0,0.1,0
	c1.2-0.9,1.6,0.5,2,0.9c0.6,0.7,1.4,1.3,1.9,2c0.9,1.2,2.2,2.1,3,3.5c0.2,0.3,0.2,0.3,0.8,0.3c-0.4-0.5-0.7-1-1.1-1.3
	c-1.5-1.5-2.7-3.1-4.2-4.6c-1.1-1.1-2-2.4-3.1-3.4c-0.1-0.1-0.2-0.2-0.1-0.4c0.2-0.1,0.3-0.1,0.5,0.1c0.1,0.1,0.1,0.2,0.1,0.4
	c0.2,0.4,0.5,0.7,0.9,0.6c0.4-0.1,0.9-0.1,1-0.7c0-0.1,0.1-0.3,0.3-0.4c0.8-0.1,0.8-0.7,0.7-1.3c0-0.5,0.2-0.8,0.6-1.2
	c0.5-0.5,1.3-0.8,1.5-1.7c0.1-0.2,0.2-0.3,0.4-0.3c0.5-0.1,0.7-0.4,0.6-0.9c0-0.2,0-0.4,0-0.7c0-0.1,0-0.3,0-0.3
	c0.8-0.2,0.9-1.1,1.6-1.4c0.3-0.1,0.6-0.2,0.7-0.6c0-0.1,0.1-0.3,0.3-0.4c0.8-0.1,0.8-0.7,0.7-1.3c0-0.5-0.1-1,0.7-1.1
	c0.3,0,0.5-0.2,0.1-0.6c-0.4-0.3-0.6-0.7-1.1-0.4c-0.1,0-0.2,0-0.2-0.1c-0.1-0.1,0-0.2,0.1-0.3c0,0,0.1-0.1,0.2-0.1
	c1.4-0.6,2.5-1.6,3.9-2.2c0.1,0,0.2-0.1,0.2,0c0,0.2-0.2,0.1-0.3,0.3c-0.1,0.1-0.2,0.2-0.1,0.4c0,0.1,0.2,0.1,0.3,0.1
	c0.3,0,0.4,0.2,0.4,0.5c0.1,1.8,0.1,3.5,0.3,5.3c0.1,1.9,0.2,3.7,0.3,5.6c0.1,1.5,0,3,0.2,4.5c0,0.1,0,0.2,0.1,0.2
	c0.2-0.1,0.1-0.3,0.1-0.4c-0.2-1,0-2-0.2-3c-0.1-0.7,0.1-1.4,0-2.1c-0.1-0.5-0.2-0.9-0.2-1.4c0.1-0.6,0.5-1.3-0.1-1.9c0,0,0,0,0-0.1
	c0.1-2.2-0.3-4.3-0.3-6.5c0-0.5,0.2-1.1,0-1.6c-0.1-0.2,0.1-0.3,0.2-0.4c2-1.2,4-2.3,6-3.6c1.1-0.7,2.4-1.3,3.4-2.1
	c0-0.1,0.1-0.2,0.2-0.2c0.5-0.1,1.5,0.8,1.4,1.3c-0.1,0.5-0.2,0.9-0.4,1.3c0.1-0.4,0.3-0.9,0.4-1.3c0-0.3,0.1-0.5,0.4-0.5
	c0.4,0,0.5,0.2,0.5,0.6c0.1,0.5,0,1,0.2,1.5c-0.1,1.3,0.4,2.6,0.3,3.5c0-0.9-0.3-2.2-0.3-3.5c-0.2-0.4-0.1-0.9-0.2-1.3
	c-0.1-0.4,0.1-0.7,0.5-0.9c0.4-0.2,0.8-0.2,1.1,0.2c0.5,0.7,1.1,1.2,1.6,1.9c0.1,0.1,0.3,0.2,0.3,0.4c-0.1-0.1-0.2-0.2-0.3-0.4
	c-0.5-0.7-1.1-1.2-1.6-1.9c-0.3-0.3-0.4-0.6-0.1-1c0.3-0.4,0.6-0.4,1-0.3c1.3,0.4,2.7,0.9,4,1.4c2.8,0.9,5.6,1.9,8.3,2.8
	c1,0.3,2,0.7,3,1c3,1.1,6,2,9.1,3c0.4,0.1,0.6,0.3,0.8,0.7c0.5,1.3,1,2.5,1.5,3.8c0.1,0.4,0.3,0.7,0.5,1.1c0,0.1,0,0.1,0.1,0.2
	c0,0.1,0,0.2-0.1,0.3c-0.1,0.1-0.2,0.1-0.1,0.3c0.2,0.4-0.1,0.5-0.4,0.5c-0.1,0-0.2,0-0.3,0.1c-0.7,0.1-1.2,0.4-1.1,1.3
	c0,0.4-0.2,0.9-0.7,1c-0.2,0.1-0.4,0.3-0.4,0.5c-0.1,0.3-0.3,0.5-0.5,0.6c-0.3,0.1-0.4,0.3-0.5,0.5c-0.1,0.3-0.3,0.5-0.6,0.6
	c-0.3,0.1-0.4,0.3-0.4,0.7c0,0.6-0.1,1.3-0.8,1.5c-0.1,0-0.2,0.2-0.2,0.3c-0.1,0.5-0.4,0.7-0.9,0.8c-0.5,0.1-0.5,0.5-0.7,0.9
	c0.9-0.3,1.1,0.5,1.6,0.9c0.1,0.1,0.2,0.2,0.1,0.4c-0.1,0.2-0.3,0.1-0.5,0.1c0.3,0.3,0.6,0.5,0.7,0.8c-0.1-0.3-0.2-0.4-0.2-0.7
	c0-0.2,0.1-0.3,0.3-0.4c0.2,0,0.3,0,0.4,0.1c0.4,0.4,0.5,1.4,0.2,1.9c-0.1,0.1-0.2,0.2-0.3,0.2c-0.2,0-0.3-0.2-0.5-0.3
	c-0.9-1-1.8-2-2.6-3.1c-0.1-0.1-0.2-0.3-0.4-0.3c0.2,0.1,0.3,0.2,0.4,0.4c0.4,0.4,0.5,0.6,0,1.2c-0.5,0.6-1.3,0.8-1.4,1.7
	c-0.8,0.2-0.9,1.1-1.6,1.4c-0.4,0.2-0.3,0.7-0.4,1c0,0.5-0.1,0.8-0.6,1c-0.2,0.1-0.3,0.2-0.3,0.4c-0.1,0.4-0.3,0.6-0.7,0.8
	c-0.4,0.2-0.4,0.7-0.5,1c0,0.5-0.1,0.9-0.7,1c0,0-0.1,0-0.1,0.1c-0.2,0.7-1.1,0.9-1.3,1.6c-0.1,0.2-0.1,0.3-0.3,0.4
	c-0.6,0.2-0.7,0.7-0.8,1.3c0,0.5-0.2,0.8-0.7,0.9c-0.2,0-0.3,0.2-0.4,0.4c-0.1,0.4-0.3,0.6-0.7,0.7c-0.2,0.1-0.3,0.3-0.3,0.5
	c-0.1,0.2-0.2,0.5-0.4,0.6c-0.5,0.2-0.6,0.6-0.7,1c-0.2,1.1-0.3,1.2-1.4,1.4c-0.1,0-0.2,0.1-0.3,0.1c-0.9,0-1.7-0.2-2.6-0.3
	c-0.4-0.3-1,0-1.3-0.5c0.3-0.4,0.1-0.8,0.1-1.1c0,0.3,0.1,0.7-0.1,1.1c0.2,2,0.5,4,0.5,6c-0.2,0.4-0.5,0.7-0.9,0.9
	c-0.5,0.2-0.4,0.8-0.5,1.2c-0.1,0.4-0.1,0.8-0.6,0.8c0,0,0.1,0,0.1,0.1c0.3,0.2,0.7,0.5,0.5,0.8c-0.3,0.4-0.6-0.2-0.9-0.3
	c-0.1-0.1-0.3-0.2-0.4-0.2c-0.4-0.3-0.6-0.1-0.7,0.3c0,0.2,0,0.4-0.1,0.7c-0.1,0.3-0.1,0.6-0.4,0.7c-0.6,0.2-0.7,0.7-0.8,1.3
	c0,0.5-0.2,0.8-0.7,0.9c-0.2,0-0.3,0.2-0.4,0.3c-0.1,0.4-0.3,0.6-0.7,0.7c-0.2,0.1-0.3,0.3-0.3,0.5c-0.1,0.3-0.3,0.5-0.6,0.6
	c-0.3,0.1-0.4,0.3-0.5,0.6c-0.1,0.5-0.3,0.7-0.8,0.6c1.1,0.3,2.1,0.7,3.2,1.1c1.1,0.4,2.2,0.9,3.4,1.3c0.3,0.1,0.8,0.2,0.8,0.6
	c-0.3,0.2-0.5,0.1-0.8,0c-1.8-0.6-3.5-1.3-5.3-1.9c-0.7-0.2-1.2-0.1-1.6,0.5c-0.3,0.4-0.7,0.4-1,0c-0.3-0.3-0.5-0.7-0.7-1.1
	c-0.2-0.4-0.2-0.7,0.3-0.9c-0.5-0.1-0.6-0.5-0.7-1c-0.6-3-1.3-5.9-2-8.8c-0.5-2.3-1-4.5-1.5-6.8c-0.2-0.7,0.2-1.2,1-1.5
	c-0.4-0.2-0.5-0.6-0.7-0.9c-0.2-0.3-0.4-0.4-0.8-0.2c-0.4,0.2-0.8,0.2-0.8,0.8c0,0.5,0.2,0.8,0.6,1c0.4,0.2,0.5,0.5,0.6,0.9
	c0.9,4.2,1.8,8.4,2.8,12.5c0.3,1.1,0.4,2.1,0.7,3.2c0,0.2,0.2,0.3,0,0.5c-0.2,0.1-0.3,0-0.5,0c-1.1-0.5-2.3-0.9-3.5-1.3
	c-2.1-0.8-4.2-1.6-6.3-2.3c1.3,0.5,2.5,0.9,3.8,1.4c1.6,0.6,3.2,1.2,4.8,1.7c0.2,0.1,0.4,0.1,0.5,0.3c0.2,0.4,0.6,0.3,0.9,0.4
	c0.7,0.2,0.6,0.8,0.7,1.3c-0.1,0.3,0,0.6,0.1,1c0.2,0.6,0.5,1.1-0.2,1.6c-0.2,0.2-0.2,0.6-0.2,0.9c0,0.5-0.1,0.8-0.6,1
	c-0.1,0-0.2,0-0.2,0.1c-0.2,0.6-0.8,0.9-1.2,1.4c-0.3,0.3-0.4,0.6-0.8,0.8c-0.4,0.2-0.4,0.6-0.4,1c0,0.5-0.1,0.9-0.7,1
	c-0.2,0-0.2,0.2-0.3,0.3c0,0,0,0.1-0.1,0.1c-0.4,0.6-1.2,1-1.2,1.9c0,0.2-0.3,0.2-0.6,0.3c-0.8,0.3-0.8,0.3-0.9,1.2
	c0,0.2,0,0.5,0,0.7c0,0.1-0.1,0.1-0.1,0.2c-0.4,0.2-0.7-0.1-0.9-0.4c-0.3-0.4-0.7-0.9-1.1-1.4c0.7,1,1.4,1.8,2.1,2.7
	c0.3,0.3,0.6,0.7,0.7,1.1c0,0.2,0.1,0.4,0.3,0.6c1.2,1.4,2.2,2.9,3.4,4.3c0.6,0.7,0.5,0.9,0,1.6c-0.9,1.2-2,2.4-2.9,3.7
	C84.3,123.7,84.1,124.4,83.5,124.8z"/>
<path class="st9" d="M56.5,85c-0.2,0.9-0.8,1.6-1.4,2.2c-1.2,1.2-2.5,2.4-3.6,3.6c-0.9,1-2,1.4-3.3,1.4c-4.9,0-9.8,0-14.6,0
	c-0.3,0-0.5,0-0.8,0c0,0.1-0.1,0.1-0.1,0c-2.1,0-4.2,0-6.4,0c-4.8,0-9.6,0-14.5,0c-2.5,0-4-1.5-4-3.9c0-3.5,0-7,0-10.6
	c0-0.5,0-0.8,0.7-0.8c0.7,0,0.7,0.3,0.7,0.8c0,3.6,0,7.2,0,10.8c0,1.4,0.9,2.3,2.2,2.3c5.3,0,10.7,0,16,0c3.8,0,7.6,0,11.4,0
	c3.2,0,6.4,0,9.6,0c0.8,0,1.5-0.3,2.1-0.9c1.3-1.4,2.7-2.8,4.1-4.1c0.5-0.5,0.7-1,0.7-1.7c0-2.2,0-4.4,0-6.6c0-0.7,0.5-1,1.2-0.7
	c0.3,0.1,0.2,0.4,0.2,0.6C56.5,79.9,56.5,82.4,56.5,85z"/>
<path class="st10" d="M23.7,87.3c-3,0-5.9,0-8.9,0c-1.7,0-2.7-0.9-2.7-2.6c0-5.4,0-10.9,0-16.3c0-1.4,0.9-2.3,2.3-2.3
	c5-0.2,10.1,0,15.1-0.1c1.1,0,2.1,0,3.2,0.1c1.6,0.1,2.5,0.9,2.5,2.6c0,3.8,0,7.6,0,11.4c0,1.6,0,3.1,0,4.7c0,1.7-1,2.6-2.6,2.6
	C29.7,87.3,26.7,87.3,23.7,87.3z"/>
<path class="st11" d="M21.8,62.5c-3.4,0-6.9,0-10.3,0c-1.5,0-2.4,0.9-2.4,2.4c0,2.7,0,5.4,0,8c0,0.5-0.1,0.8-0.7,0.8
	c-0.6,0-0.7-0.3-0.7-0.8c0-2.7,0-5.4,0-8c0-2.2,1.6-3.8,3.7-3.8c7,0,13.9,0,20.9,0c0.5,0,0.8,0.2,0.7,0.7c0,0.5-0.2,0.7-0.7,0.7
	C28.8,62.5,25.3,62.5,21.8,62.5C21.8,62.5,21.8,62.5,21.8,62.5z"/>
<path class="st11" d="M55.4,73.7c-0.3-0.2-0.5-0.3-0.3-0.7c0.1-0.2,0-0.4,0-0.6c0-2.5,0-4.9,0-7.4c0-1.7-0.8-2.5-2.5-2.5
	c-5.2,0-10.4,0-15.7,0c-0.6,0-0.8-0.1-0.8-0.7c0-0.5,0.2-0.7,0.7-0.7c2.9,0,5.9,0,8.8,0c2.3,0,4.5,0,6.8,0c2.6,0,4,1.4,4,4
	c0,2.8,0,5.6,0,8.4C56.1,73.9,55.7,73.8,55.4,73.7z"/>
<path class="st12" d="M32.5,92.2c0,0,0.1,0,0.1,0c0.1,2.7-0.2,5.4-0.2,8.1c0,0.7-0.1,1.4-0.1,2.1c0,0.4,0.1,0.6,0.5,0.7
	c0.4,0.1,0.7,0.3,0.9,0.6c0.4,0.5,0.8,0.4,1.3,0.2c0.6-0.3,1.2-0.6,1.9-0.9c0.1-0.1,0.3-0.1,0.4,0c-0.6,0.4-1.2,0.7-1.8,1
	c-0.2,0.1-0.3,0.1-0.5,0.2c-0.4,0.2-0.7,0.4-0.5,0.9c0.1,0.5,0,1.1-0.4,1.5c-0.4,0.4-0.3,0.7,0,1.1c0.9,1.2,1.9,2.4,2.7,3.7
	c0,0.1,0,0.2-0.2,0.2c-0.4-0.2-0.7-0.5-0.9-0.9c-0.6-1-1.4-1.9-2-2.8c-0.2-0.3-0.4-0.4-0.8-0.2c-0.3,0.2-0.6,0.2-1,0.1
	c-0.3-0.1-0.6-0.1-0.9-0.1c-0.3,0.1-0.4,0.5-0.6,0.7c-0.1,0.1-0.2,0.1-0.3,0.1c0,0,0,0-0.1-0.1c0-0.2,0.1-0.3,0.2-0.4
	c0.3-0.4,0.5-0.9-0.1-1.3c-0.1-0.1-0.1-0.2-0.1-0.3c-0.1-0.8-0.6-0.9-1.2-0.9c-1.9,0-3.9,0-5.8,0c-0.4,0-0.6,0.1-0.7,0.5
	c-0.5,1.5-1,2.9-1.7,4.3c0.2-0.6,0.3-1.1,0.5-1.7c0.3-0.9,0.6-1.8,1-2.6c0.1-0.4,0-0.5-0.4-0.5c-4.8,0-9.6,0-14.4,0
	c-0.5,0-0.6,0.2-0.5,0.6c0.1,0.7,0.2,1.3,0.2,2.2c-0.3-0.8-0.3-1.5-0.4-2.2c-0.1-0.5-0.2-0.7-0.7-0.6c-1.3,0.1-2.5,0-3.8,0.1
	c-0.6,0.1-1.3-0.1-1.9-0.2c0.4,0,0.7,0,1.1,0c1.6,0,3.1,0,4.7,0c0.4,0,0.5-0.1,0.5-0.6c-0.2-1.3-0.5-2.5-0.4-3.8
	c0.2,1.3,0.4,2.5,0.6,3.8c0.1,0.5,0.2,0.6,0.7,0.6c2.4,0,4.9,0.1,7.3,0c2.3-0.1,4.7,0,7-0.1c0.3,0,0.6,0,0.8-0.1l0,0
	c0.2,0.2,0.4,0.1,0.6,0.1c2.1,0,4.1,0,6.2,0c0.4,0,0.5-0.1,0.6-0.5c0.2-0.8,0.9-1.4,1.7-1.6c0.4-0.1,0.5-0.3,0.5-0.7
	c0-2.3,0-4.6,0.2-6.9C32.4,94.3,32.5,93.3,32.5,92.2z"/>
<path class="st3" d="M94.2,39c-2.2,1.2-4.3,2.6-6.5,3.8c-0.9,0.5-1.8,1.1-2.7,1.6c-0.1,0.1-0.3,0.3-0.4,0c-0.1-0.3,0.2-0.2,0.3-0.3
	c0.3-0.3,1-0.4,0.8-1.1c0-0.1,0-0.2,0.1-0.3c0.1,0,0.2,0.1,0.2,0.2c0.1,0.2,0.1,0.4,0.4,0.3c0.2-0.1,0.4-0.3,0.3-0.5
	c-0.1-0.5,0.3-1,0.1-1.5c0-0.1,0-0.2,0-0.3c0.7-0.2,1-0.9,1.4-1.4c0,0,0,0,0.1,0c0.7,0,0.5-0.9,0.9-1c0.6-0.2,0.6-0.5,0.9-1
	c0.5-0.9-0.1-0.8-0.6-0.9c-0.5-0.1-1.1-0.2-1.6-0.7c1,0.2,2,0.4,2.9,0.5c0,0,0,0,0.1,0c0.4,0.4,1,0.4,1.5,0.4
	c0.6,0.1,1.2,0.2,1.8,0.3c0.1,0,0.2,0,0.3,0.1c0.1,0.4,0.2,0.8,0.2,1.2C94.7,38.9,94.5,39.1,94.2,39z"/>
<path class="st13" d="M94.2,39c0.1-0.1,0.3-0.2,0.3-0.2c0-0.5,0-1-0.3-1.5c0.1-0.1,0.2-0.2,0.3-0.3c-0.1-0.7,0.5-0.9,0.8-1.3
	c0.4,0,0.8-0.1,1.2-0.3c0.8,0.2,0.6-0.6,0.8-0.9c0,0,0.1,0.1,0.1,0.1c-0.2,0.6-0.1,1.1,0.6,1.4c0.4,0.2,0.7,0.6,0.8,1.2
	c0.3,0.2,0.1,0.4,0.1,0.7c0.2,0.4,0.6,0.6,1,0.7c4.8,1.6,9.6,3.2,14.4,4.8c0.2,0.1,0.5,0.1,0.6,0.4c0,0,0,0.1,0,0.1
	c-0.6-0.2-1.2-0.3-1.7-0.5c-4.1-1.4-8.2-2.8-12.4-4.1c-0.5-0.1-0.9-0.3-1.4-0.5c-0.3-0.1-0.6-0.1-0.8,0.2c-0.2,0.3-0.2,0.5,0.1,0.8
	c0.5,0.5,1,1.1,1.4,1.7c0.1,0.1,0.2,0.2,0.2,0.4l0,0c-0.5-0.4-1-0.8-1.4-1.4c-0.5-0.8-0.8-0.9-1.5-0.6C97.1,40,97,40.2,97,40.4
	c0,0.5,0,0.9,0,1.4l0,0c-0.2-0.4-0.2-0.9-0.3-1.4c0-0.2-0.1-0.4-0.4-0.5c-0.3,0-0.3,0.2-0.3,0.4c-0.1,0.4-0.1,0.9-0.5,1.4
	c-0.1-0.5,0.2-0.9,0.2-1.3c0.1-0.4,0-0.6-0.4-0.8c-0.2-0.1-0.3-0.2-0.4-0.4c-0.2-0.2-0.4-0.3-0.7-0.1C94.3,39.1,94.2,39.1,94.2,39z"
	/>
<path class="st3" d="M51.7,47.7c1.2,1.4,2.6,2.4,4.1,3.2c0.3,0.2,0.6,0.3,0.9,0.4c0.1,0.1,0.3,0,0.3,0.2c0,0.2-0.1,0.2-0.2,0.3
	c-1.1,0.6-2.3,0.9-3.6,0.7c-0.2,0-0.4,0-0.6-0.1c-0.5-0.1-0.9-0.3-0.9-0.9C51.5,50.3,51.4,49.1,51.7,47.7z"/>
<path class="st3" d="M58.8,47.9c-0.4-0.7-0.4-0.8,0.2-1.1c0.2-0.1,0.4-0.6,0.7-0.4c0.3,0.2,0.1,0.6,0.1,1c-0.3,1.2-0.8,2.4-1.6,3.4
	c-0.2,0.3-0.5,0.5-0.9,0.4c-1.1-0.5-2.3-0.8-3.2-1.7c-0.1-0.1-0.3-0.1-0.2-0.3c0-0.1,0.2-0.2,0.3-0.2c1,0,1.8-0.6,2.7-0.9
	C57.5,47.8,58,47.2,58.8,47.9z"/>
<path class="st3" d="M95.3,35.7c-0.1,0.6-0.8,0.8-0.8,1.3c-1.2-0.2-2.5-0.5-3.7-0.7c-0.2,0-0.5-0.1-0.7-0.2c0,0,0.1-0.1,0.1-0.1
	c0.8,0.3,1.3-0.4,1.8-0.8c0.1-0.1,0.2-0.2,0.2-0.2c0-0.8,0.6-0.8,1.2-0.9c0.5-0.1,0.6-0.2,0.3-0.7c-0.3-0.4-0.8-0.6-1-1.1
	c-0.2-0.3-0.2-0.6,0-0.9C93.5,32.9,94.4,34.3,95.3,35.7z"/>
<path class="st3" d="M58,46.9c-0.5-0.5-0.9-1-1.3-1.5c-0.2-0.2-0.2-0.3-0.2-0.6c0-1,0-2,0-2.9c0-0.1-0.1-0.2,0-0.3
	c0.1-0.1,0.3,0,0.4,0.1c0.5,0.5,1.1,0.9,1.4,1.4c0.4,0.7,0.9,1.3,1.1,2.1c0.1,0.5-0.1,0.7-0.5,0.9C58.6,46.3,58.3,46.5,58,46.9z"/>
<path class="st3" d="M60.4,41.4c0.3-0.1,0.4,0.2,0.6,0.3c0.1,0.1,0.2,0.1,0.3,0c0.1-0.1,0-0.2-0.1-0.3c-0.2-0.2-0.4-0.3-0.4-0.6
	c0.2,0,0.3,0.1,0.5,0.2c1.2,1.3,2.7,1.4,4,0.3c0.5-0.4,0.7-1,0.7-1.7c0-0.3,0-0.6,0-0.9c0-0.3,0.1-0.6,0.4-0.6
	c0.4-0.1,0.6,0.2,0.6,0.5c0.1,1.1,0.1,2.1-0.8,2.9c-0.3,0.2-0.3,0.6-0.6,0.8c-0.6,0.5-1.3,0.8-2.1,0.7c-0.5-0.1-1,0.3-1.4,0
	c-0.2-0.1-0.6-0.2-0.2-0.5c0.2-0.1,0.1-0.2,0-0.3c-0.1-0.1-0.2-0.2-0.4-0.1c-0.1,0.1-0.1,0.4-0.4,0.3C60.9,42.1,60.6,41.8,60.4,41.4
	z"/>
<path class="st3" d="M58.6,38.8c0.3-0.1,0-0.3,0.2-0.4c0.4,0.3,0.3,0.7,0.3,1.1c0,0.4,0.6,0.6,0.6,1c-1.6-0.6-2.2-2.4-1.9-3.8
	c0.3-1.2,0.9-2.1,2.1-2.7c0.7-0.3,1.4-0.4,2.1-0.4c0.3,0,0.5,0.2,0.7,0.5c0.2,0.3,0.1,0.5-0.3,0.6c-0.4,0-0.7,0-1.1,0
	c-0.7-0.1-1.3,0.2-1.9,0.5c-0.7,0.3-1.2,1.8-1,2.6C58.5,38.2,58.3,38.5,58.6,38.8z"/>
<path class="st3" d="M65,33.8c0.1-1,0.5-1.8,1.1-2.5c0.2-0.2,0.4-0.2,0.7-0.1c0.3,0.2,0,0.4-0.1,0.5c-0.3,0.5-0.8,0.8-0.9,1.5
	c-0.2,1,0.4,1.8,0.4,2.7c0,0.1,0.2,0.2,0.3,0.2c0.8,0,1.1,0.6,1.5,1.2c0.2,0.4,0.6,0.6,0.9,0.9c0.1,0.2,0.4,0.3,0.1,0.6
	c-0.2,0.3-0.4,0-0.5-0.2c-1-0.7-1.7-1.8-2.6-2.7C65.2,35.4,65.1,34.6,65,33.8z"/>
<path class="st14" d="M19.7,124.8c-0.2,0-0.3,0-0.5,0c0.8-1.3,1.6-2.5,2.4-3.8c1.6-2.5,3.3-4.9,4.9-7.4c1.1-1.7,2.3-3.4,3.4-5.2
	c0.1-0.1,0.2-0.2,0.3-0.3c0,0,0,0,0,0c0.1,0.1,0.1,0.2,0.1,0.4c-0.7,1-1.3,2.1-2,3.1c-0.3,0.3-0.4,0.7-0.6,1.1
	c-0.2,0.3-0.4,0.5-0.6,0.8c-0.5,0.6-0.9,1.3-1.3,2c-0.1,0.2-0.2,0.3-0.3,0.4c-0.2,0.2-0.3,0.3-0.4,0.6c-0.2,0.4-0.4,0.7-0.6,1.1
	c-0.2,0.3-0.4,0.5-0.6,0.8c-0.4,0.7-0.9,1.2-1.3,1.9c-0.2,0.2-0.3,0.5-0.5,0.8c-0.7,1-1.4,2-2,3.1C20,124.5,19.9,124.7,19.7,124.8z"
	/>
<path class="st3" d="M74.8,33c-1.2,1.1-2.5,1.2-4,0.9c-0.7-0.1-1.5-0.8-1.5-1.5c0-0.3-0.2-0.5-0.5-0.4c-0.5,0.1-0.7-0.2-1-0.5
	c0.8,0.2,1.7,0.3,2.3,1.1c0.5,0.7,1.4,1,2.4,0.8c0.4-0.1,0.9-0.2,1.3-0.4C74.1,32.7,74.5,32.9,74.8,33z"/>
<path class="st15" d="M3.5,93.7c0.5,0.4,0.8,0.2,1.2-0.1c0.3-0.2,0.7-0.2,1.1,0c0.3,0.2,0.5,0.3,0.8,0c-0.2,0.5-0.6,1-0.1,1.5
	c0.1,0.1,0,0.1-0.1,0.1c-1.4,0.3-0.9,1.3-0.8,2.1c0,0.2,0,0.3,0,0.6c-0.4-0.6-0.2-1.2-0.4-1.8c-0.1-0.3-0.1-0.4-0.4-0.5
	c-0.5-0.3-1.1-0.4-0.9-1.2C4.2,94.1,3.6,94.2,3.5,93.7z"/>
<path class="st3" d="M57.6,46.9c-0.6,0.4-0.9,1.1-1.7,1.2c0.1-0.8,0.5-1.4,0.6-2.2c0-0.2,0.2-0.1,0.3,0
	C57.1,46.2,57.3,46.6,57.6,46.9z"/>
<path class="st3" d="M68.7,31.4c-0.4-0.1-0.8-0.2-1.2-0.2c-0.3,0-0.4-0.1-0.4-0.4c0-0.2,0-0.4,0.2-0.5c0.3-0.1,0.5,0,0.6,0.2
	C68.1,30.8,68.4,31,68.7,31.4z"/>
<path class="st3" d="M69.9,59.5c-0.6-0.2-0.8-0.6-1-0.9c-0.2-0.2,0.1-0.9,0.5-0.9c0.3,0,0.3,0.2,0.2,0.4
	C69.3,58.6,69.5,59,69.9,59.5z"/>
<path class="st3" d="M86.2,36.5c-0.2-0.2-0.4-0.4-0.4-0.7c0-0.2,0-0.4,0.2-0.3c0.3,0.1,0.7-0.1,0.7,0.3C86.8,36,86.4,36.2,86.2,36.5
	z"/>
<path class="st3" d="M68.1,54.8c0.7-0.4,1.3-0.8,2-1.2c0.1,0,0.2-0.1,0.2,0c0,0,0,0.2,0,0.2c-0.7,0.4-1.4,0.8-2.1,1.2
	C68.2,54.9,68.2,54.9,68.1,54.8z"/>
<path class="st3" d="M69.4,59.7c0,0.3-0.2,0.3-0.4,0.3c-0.3,0-0.5-0.2-0.6-0.5c0-0.2,0.1-0.4,0.3-0.4C69.1,59.2,69.2,59.5,69.4,59.7
	z"/>
<path class="st3" d="M78.1,48.4c-0.6,0.6-0.7,0.6-1.2,0.1c-0.1-0.1-0.2-0.2-0.1-0.3c0.1-0.1,0.3-0.1,0.3,0
	C77.4,48.5,77.7,48.3,78.1,48.4z"/>
<path class="st3" d="M67.8,64.5c0.3,0.1,0.6,0.3,0.5,0.5c-0.1,0.2-0.1,0.6-0.4,0.6c-0.5-0.1-0.2-0.4-0.1-0.6
	C67.8,64.9,67.6,64.7,67.8,64.5z"/>
<path class="st3" d="M83.3,45.6c-0.4-0.1,0-0.3-0.2-0.4c-0.1,0-0.3,0-0.4,0c-0.2-0.1-0.5,0.4-0.5,0.1c-0.1-0.4,0.3-0.2,0.5-0.3
	c0.2-0.2,0.5-0.4,0.7,0c0.1,0.1,0.2,0.2,0,0.4C83.3,45.4,83.3,45.5,83.3,45.6z"/>
<path class="st3" d="M84.1,33.4c0.4,0.5,0.4,1,0.1,1.4C84,34.4,84,34.3,84.1,33.4z"/>
<path class="st3" d="M70.9,61.7c0.2,0.1,0.4,0.3,0.5,0.5c0,0.2-0.1,0.3-0.2,0.2c-0.2-0.1-0.5-0.2-0.5-0.5
	C70.7,61.8,70.7,61.7,70.9,61.7z"/>
<path class="st3" d="M75.9,50.3c0.2-0.4,0.7-0.5,1-0.7c0.1-0.1,0.3,0,0.3,0.1C77.3,50,77.1,50,77,50C76.6,49.9,76.4,50.4,75.9,50.3z
	"/>
<path class="st3" d="M73.1,52c-0.3,0.3-0.5,0.6-0.7,0.8c-0.1,0.1-0.3,0.1-0.4,0c-0.1-0.1,0-0.3,0.1-0.3C72.5,52.3,72.7,52,73.1,52z"
	/>
<path class="st3" d="M87.7,35.6c0.8-0.3,1.2,0.1,1.7,0.3c-0.3,0.2-0.5,0-0.8,0C88.4,35.7,88.2,35.7,87.7,35.6z"/>
<path class="st3" d="M84.4,41.6c0.3,0.4,0.4,0.6,0.4,0.9c0,0.2,0,0.3-0.2,0.4c-0.2,0-0.2-0.2-0.2-0.3C84.4,42.2,84.4,42,84.4,41.6z"
	/>
<path class="st3" d="M93.6,30.9c-0.2-0.3-0.6-0.4-0.4-0.9c0-0.1,0.1-0.1,0.2-0.1C93.8,30.2,93.5,30.6,93.6,30.9z"/>
<path class="st3" d="M83.9,35.2c0,0.2,0,0.4,0,0.7c0,0.2,0.1,0.5-0.2,0.4c-0.3,0-0.2-0.3-0.2-0.5C83.6,35.6,83.7,35.4,83.9,35.2
	C83.8,35.2,83.9,35.2,83.9,35.2z"/>
<path class="st3" d="M84.3,39.6c0.6,0.5,0.3,0.9,0.2,1.3C84.2,40.6,84.3,40.2,84.3,39.6z"/>
<path class="st3" d="M84.1,40.7c0.1-0.4-0.3-0.9,0-1.5C84.1,39.7,84.1,40.3,84.1,40.7z"/>
<path class="st3" d="M77.6,49.3c0.5-0.4,0.5-0.4,1.2,0.2C78.3,49.6,78,49.3,77.6,49.3z"/>
<path class="st3" d="M76.5,49.3c-0.2,0.2-0.3,0.3-0.5,0.4c-0.1,0.1-0.2,0.2-0.4,0.1c0,0-0.1-0.2-0.1-0.2c0-0.2,0.1-0.3,0.3-0.3
	C76,49.3,76.2,49.3,76.5,49.3z"/>
<path class="st3" d="M80.8,46.8c0.4-0.5,0.9-0.6,1.3-0.7C81.8,46.3,81.4,46.6,80.8,46.8z"/>
<path class="st3" d="M84,41.6c0.4,0.5,0.3,0.8,0.2,1.3C83.9,42.5,84.1,42.1,84,41.6z"/>
<path class="st3" d="M84.2,44.7c-0.2-0.1-0.4-0.3-0.6-0.4C84.3,44,84.3,44,84.2,44.7z"/>
<path class="st3" d="M86.4,35c0,0.2-0.1,0.2-0.2,0.2c-0.2,0-0.3,0-0.3-0.2c0-0.1,0.1-0.3,0.2-0.3C86.3,34.8,86.4,34.9,86.4,35z"/>
<path class="st3" d="M69.9,60.7c0-0.1,0-0.2,0.2-0.2c0.2,0,0.2,0.2,0.3,0.4c0.1,0.1,0,0.2-0.2,0.2C69.9,61.1,69.9,60.9,69.9,60.7z"
	/>
<path class="st3" d="M93,31.3c-0.4-0.2-0.4-0.7-0.6-1C92.9,30.4,92.9,30.9,93,31.3C93,31.3,93,31.3,93,31.3z"/>
<path class="st3" d="M67.6,56.1c-0.2,0.2,0,0.5-0.4,0.6c-0.1,0-0.2-0.1-0.2-0.1C67,56.2,67.4,56.3,67.6,56.1z"/>
<path class="st3" d="M80.8,34c0.3-0.2,0.5-0.2,0.7-0.1c0,0,0.1,0.2,0,0.2C81.3,34.3,81.1,34.1,80.8,34z"/>
<path class="st3" d="M68,54.5c0.1-0.4,0.4-0.5,0.7-0.5C68.5,54.2,68.2,54.4,68,54.5z"/>
<path class="st12" d="M22.6,105c0-0.4,0.2-0.7,0.3-1C23,104.4,22.9,104.8,22.6,105C22.6,105,22.6,105,22.6,105z"/>
<path class="st3" d="M91.9,30.5c0.4,0.2,0.4,0.5,0.5,0.7C92.2,31.1,92,30.9,91.9,30.5z"/>
<path class="st3" d="M55.4,73.7c0.4,0,0.7,0.1,1.1-0.1c0.1,0.1,0.1,0.2,0,0.2C56.1,73.8,55.7,74,55.4,73.7z"/>
<path class="st3" d="M67.3,54.7c-0.1,0.2-0.3,0.4-0.7,0.5C66.8,54.9,67,54.8,67.3,54.7z"/>
<path class="st3" d="M91.3,29.2c0.4,0.2,0.2,0.6,0.5,0.8C91.4,29.9,91.3,29.6,91.3,29.2C91.3,29.3,91.3,29.2,91.3,29.2z"/>
<path class="st3" d="M84,37.8c-0.2-0.2-0.4-0.3-0.2-0.5c0,0,0.1-0.1,0.2,0C84.1,37.4,84,37.5,84,37.8z"/>
<path class="st3" d="M84,30.8c-0.2-0.2-0.1-0.4,0-0.7C84.2,30.3,84.2,30.5,84,30.8z"/>
<path class="st3" d="M66.4,62.3c-0.1,0-0.2-0.1-0.2-0.2c0-0.2,0.1-0.2,0.2-0.1c0.1,0,0.2,0.1,0.2,0.2C66.6,62.3,66.5,62.3,66.4,62.3
	z"/>
<path class="st3" d="M66.6,63.7c0.2,0,0.4,0.1,0.6,0.5C66.8,64.1,66.7,64,66.6,63.7z"/>
<path class="st16" d="M126.6,52.5c-0.7-1-1.1-2.2-1.4-3.3c-0.4-1.8-1.5-2.5-3.1-2.9c-2.3-0.6-4.5-1.5-6.7-2.2
	c-0.2-0.1-0.4-0.1-0.6-0.3c0,0,0,0,0,0c0.4-0.3,0.7-0.1,1.1,0c2.4,0.8,4.8,1.6,7.2,2.4c0.2,0.1,0.5,0.2,0.7,0.2
	c0.1-0.5-0.4-0.9-0.2-1.4c0.1-0.1,0.1-0.1,0.2,0c0.2,0.5,0.5,1,0.6,1.5c0.1,0.4,0.4,0.5,0.7,0.6c2.5,0.8,4.9,1.6,7.4,2.5
	c4.2,1.4,8.4,2.8,12.7,4.2c0.8,0.3,1.6,0.5,2.5,0.8c0.4,0.1,0.7,0.2,0.8-0.4c0.3-1.5,0.8-2.9,1.2-4.4c0.1-0.2,0.1-0.4,0.2-0.5
	c0,0,0,0.1,0,0.1c0,0.2,0,0.3,0,0.5c-0.1,1.4-0.6,2.7-0.9,4.1c-0.2,0.8-0.2,0.8,0.5,1.1c0.2,0.1,0.3,0.1,0.4,0.3c0,0.1,0,0.2,0,0.3
	c-0.2,0.1-0.3,0.1-0.5,0c-0.1,0-0.3-0.1-0.4-0.1c-0.4-0.2-0.9,0.5-1.2-0.3c-0.2-0.4-0.9-0.4-1.5-0.6c-0.5-0.2-1-0.3-1.5-0.5
	c-0.5-0.2-1-0.3-1.5-0.5c-3.6-1.2-7.1-2.4-10.7-3.6c-2.3-0.7-4.5-1.5-6.8-2.3c-0.2-0.1-0.4-0.2-0.7-0.1c0.5,1.4,1.1,2.7,1.6,4.1
	C126.7,52,126.9,52.2,126.6,52.5z"/>
<path class="st17" d="M123.8,45.1c0,0-0.1,0-0.1,0c-0.2,0-0.3-0.2-0.4-0.3c-0.9-2.1-1.7-4.2-2.5-6.3c0-0.1,0-0.1,0-0.2
	c0-0.5-0.4-0.9-0.4-1.4c0.4,0.2,0.3,0.7,0.6,1c0.1,1,0.6,1.8,0.9,2.7C122.6,42,123.2,43.5,123.8,45.1z"/>
<path class="st18" d="M131.8,124.9c-2.1,0.1-4.2,0.1-6.3,0c-0.3,0.1-0.7,0.1-1.1,0.1c-2.2,0-4.4,0-6.6,0c-0.5,0-0.9-0.2-1.1-0.6
	c-0.9-1.5-1.8-3.1-2.7-4.6c-0.2-0.3-0.3-0.6,0-0.8c0.2-0.1,0.1-0.2,0.1-0.1c0,0,0,0,0,0c-0.3,0.2-0.6,0.1-0.8-0.2
	c-0.3-0.7-0.7-1.3-1.1-1.9c-0.3-0.4-0.2-0.7,0.1-1c1.3-1.3,2.5-2.6,3.7-4c1-1.1,2-2.2,3-3.3c0.2-0.2,0.4-0.5,0.8-0.5
	c0.8,0.6,1.5,1.3,2.2,2c0.5,0.4,0.9,0.7,0.7,1.4c-0.1,0.3,0.2,0.6,0.5,0.7c0.4,0.2,0.6,0.5,0.6,0.9c0.1,1.1,0.3,2.2,0.5,3.3
	c-0.1-1.1-0.3-2.1-0.4-3.2c-0.1-0.8,0.5-1.7,1.4-1.6c1.5,0.1,2.9,0.2,4.4,0.3c1.3,0.1,2.6,0.2,3.8,0.3c-0.5,0-1.1-0.1-1.6-0.2
	c-2.2-0.2-4.5-0.4-6.7-0.5c-0.3,0-0.5-0.2-0.6-0.5c-0.2-0.5-0.5-0.7-1-0.5c-0.6,0.2-1.1-0.1-1.5-0.5c-0.7-0.6-1.3-1.3-2.1-1.9
	c-0.3-0.3-0.1-0.6,0.1-0.8c0.8-0.8,1.4-1.7,2.3-2.4c1.2-1.4,2.5-2.8,3.8-4.2c1.1-1.2,2.2-2.4,3.3-3.6c1.4-1.5,2.7-3,4.1-4.5
	c0.1-0.1,0.3-0.3,0.5-0.4c0.5-0.3,0.7-0.9,1.1-1.3c0.8-0.9,1.6-1.8,2.5-2.7c0.7-0.7,0.9-0.7,1.6,0c0.1,1-0.3,1.8-0.4,2.8
	c-0.8,4-1.6,7.9-2.4,11.8c-0.7,3.3-1.3,6.6-2.1,9.9c-0.6,2.6-1.1,5.2-1.6,7.8C132.5,122.1,132.3,123.5,131.8,124.9z"/>
<path class="st19" d="M122.5,105c-0.7,0.8-1.5,1.6-2.2,2.4c-0.2,0.2-0.4,0.4-0.1,0.7c-0.1,0-0.1,0-0.2,0c-0.6,0.1-0.8,0.6-1.2,1
	c-1.3,1.4-2.6,2.9-4,4.3c-0.8,0.8-1.5,1.7-2.3,2.5c-0.3,0.3-0.3,0.5-0.1,0.7c0.4,0.6,0.8,1.1,1.1,1.8c0.2,0.6,0.5,0.5,0.9,0.2
	c0.1-0.1,0.2-0.1,0.3-0.2c0,0.1,0,0.1,0,0.2c-0.7,0.7-0.7,0.7-0.1,1.6c0.8,1.3,1.6,2.6,2.3,3.9c0.3,0.5,0.7,0.8,1.4,0.8
	c2.5,0,5,0,7.4,0c-0.7,0.2-1.4,0.1-2.1,0.1c-1.9,0-3.9,0-5.8,0c-0.2,0-0.4,0-0.7-0.1c0,0,0,0-0.1-0.1c-0.3-0.1-0.4-0.3-0.5-0.6
	c-0.7-1.5-1.7-2.7-2.4-4.1c-0.2-0.3-0.4-0.5-0.7-0.2c-0.1,0.1-0.3,0.1-0.4,0c-0.2-0.1,0-0.3,0.1-0.4c0.4-0.4,0.3-0.7,0-1.1
	c-0.2-0.4-0.5-0.7-0.7-1.1c-0.2-0.4-0.4-0.4-0.7-0.1c-0.3,0.3-0.5,0.7-1,0.7c-0.1,0-0.1,0-0.2,0c0.1-0.6,0.6-0.9,0.9-1.3
	c0.3-0.3,0.3-0.5,0.1-0.9c-1.8-3.1-3.7-6.1-5.5-9.2c-0.3-0.4-0.6-0.9-0.6-1.4c0-0.1,0.1-0.1,0.1-0.1c0.3,0.1,0.5,0.3,0.6,0.6
	c1.7,2.9,3.5,5.7,5.2,8.7c0.2,0.4,0.5,0.7,0.7,1.1c0.2,0.4,0.4,0.3,0.6,0c1.4-1.6,2.9-3.2,4.3-4.8c0.6-0.7,1.4-1.4,2-2.1
	c0.3-0.3,0.6-0.6,0.2-1c-0.1-0.1-0.1-0.2,0-0.2c0.1-0.1,0.2-0.1,0.3,0c0.5,0.4,0.7,0,1-0.3c0.4-0.6,1-1.1,1.5-1.6
	c0.1-0.2,0.3-0.3,0.6-0.3C122.4,105,122.4,105,122.5,105z"/>
<path class="st20" d="M131.8,124.9c0.2-1.4,0.5-2.7,0.8-4c0.3-1.7,0.7-3.3,1-5c0.8-4,1.6-8,2.4-12c0.4-2,0.8-4,1.2-6
	c0.6-3,1.2-6,1.8-8.9c0-0.2,0-0.4,0-0.6c0.2-0.1,0.3,0,0.4,0.2c0.1,0.2,0,0.4,0,0.7c-1,4.5-1.9,9.1-2.8,13.6
	c-0.5,2.7-1.1,5.4-1.6,8.1c-0.2,1.1-0.2,1.1,0.9,1.2c2.7,0.2,5.5,0.4,8.2,0.6c0.2,0,0.5,0,0.7,0.2c0,0,0,0.1,0,0.1
	c-2.4,0-4.9-0.3-7.3-0.5c-0.8-0.1-1.6-0.1-2.4-0.2c-0.4,0-0.6,0.1-0.7,0.5c-0.4,1.7-0.7,3.3-1,5c-0.5,2.3-0.9,4.7-1.5,7
	C131.9,124.9,131.9,124.9,131.8,124.9z"/>
<path class="st20" d="M149.8,113.3c0,0.1,0,0.2,0,0.3c-0.8-0.3-1.7-0.2-2.5-0.3c-0.8-0.1-1.7,0-2.5-0.3c0,0,0,0,0,0
	c0.5-0.4,1-0.2,1.5-0.2c1,0.1,1.9,0.1,2.9,0.3C149.4,113.2,149.6,113.2,149.8,113.3z"/>
<path class="st3" d="M120.8,38.2c0.6,1.1,0.8,2.3,1.4,3.4c0.5,1.1,0.8,2.4,1.5,3.5c0.1,0.6,0.3,1.1,0.6,1.8
	c-1.3-0.4-2.4-0.8-3.6-1.2c-1.7-0.6-3.5-1.1-5.2-1.7c-0.2-0.1-0.4,0-0.6,0c-0.4-0.5-1-0.5-1.5-0.6c-4.6-1.6-9.2-3.1-13.8-4.6
	c-0.3-0.1-0.8-0.2-0.6-0.8c0.6-0.8,1.6-0.6,2.4-0.8c0.7-0.1,1.4-0.3,2.1-0.4c1.2-0.1,2.4-0.4,3.6-0.6c0.5,0,1-0.1,1.5-0.3
	c0.6-0.2,1.2-0.2,1.8-0.3c0.3-0.1,0.6-0.1,0.8-0.1c0.9-0.2,1-0.2,1.4,0.6c0.4,0.9,1.1,1.6,2,2c1.3,0.6,2.7,1.3,4.2,0.9
	C119.4,38.7,120.2,38.7,120.8,38.2z"/>
<path class="st1" d="M118.5,31.1c1.3,0.8,1.4,1,1.1,2.4C118.9,32.8,119.1,31.8,118.5,31.1z"/>
<path class="st1" d="M121.9,33.7c0.2-0.3,0.4-0.5,0.9-0.4C122.5,33.6,122.2,33.8,121.9,33.7z"/>
<path class="st1" d="M90.7,97.1c0.2,0.3,0.4,0.7,0.6,1c0.1,0.2,0.3,0.3,0.5,0.3c0.2,0,0.3-0.2,0.3-0.4c0.2-0.5,1.1-0.7,1.8-0.5
	c1.6,0.6,3.2,1.3,4.8,1.7c0.4,0.1,0.8,0.4,1.2,0.4c0,0,0.1,0,0.1,0c0.3,0.2,0.2,0.5,0.1,0.7c-0.1,0.7-0.1,1.3,0.4,1.8
	c0.3,0.4,0.1,0.7-0.1,1c-0.5,0.5-0.9,1.1-1.1,1.4c0.3-0.4,0.8-1,1.2-1.6c0.3-0.4,0.6-0.4,1-0.2c0.4,0.2,0.7,0.4,0.6,0.9
	c-0.1,0.8-0.2,1.6-0.3,2.4c-0.3,1.5-0.5,3-0.7,4.5c-0.2,1.3-0.4,2.6-0.6,3.9c-0.3,2.6-0.8,5.3-1.2,7.9c0,0.3-0.1,0.5-0.3,0.7
	c-0.1,0.4-0.1,0.8-0.1,1.2c0,0.3-0.2,0.3-0.5,0.3c-0.6,0-1.2,0-1.8,0c-0.3-0.3-0.4-0.7-0.4-1c-0.5-2.6-1.2-5.2-1.7-7.8
	c-0.2-1.1-0.5-2.3-0.8-3.4c-0.1-0.4,0-0.8,0.2-1.1c0.7-0.9,1.3-1.7,1.9-2.4c-0.5,0.6-1.1,1.4-1.7,2.1c-0.1,0.2-0.2,0.4-0.4,0.4
	c-0.3,0-0.3-0.3-0.4-0.5c-0.3-1.2-0.5-2.4-0.8-3.6c-0.4-1.6-0.7-3.3-1.1-5c-0.3-1.5-0.7-3.1-1-4.6C90.6,97.6,90.5,97.3,90.7,97.1z"
	/>
<path class="st3" d="M31.9,107.6c0.2,0,0.5,0.1,0.7,0c0.8-0.5,1.1,0,1.6,0.6c0.8,1.1,1.7,2.2,2.5,3.4c0.8,0.8,1.4,1.7,2,2.5
	c1.6,2.2,3.2,4.3,4.8,6.5c0.9,1.3,1.9,2.5,2.8,3.8c0.1,0.2,0.3,0.4,0.1,0.6c-7.6,0-15.2,0-22.9,0c-0.2-0.3,0-0.4,0.2-0.5
	c0.3-0.2,0.5-0.2,0.8,0.1c0.1-1.2,0.4-2.3,1.3-3.1c0.2-0.1,0.2-0.3,0.1-0.5c-0.1-0.4,0.5-0.9,0.9-0.8c0.3,0.1,0.2,0.3,0.2,0.5
	c1.2-0.3,2.3-0.3,3.5,0.2c1,0.4,1.1,1.5,0.3,2.1c0.2-0.2,0.4-0.3,0.6-0.5c0.3-0.4,0.6-0.4,1-0.1c1.2,1,2.4,0.8,3.7,0.2
	c0.1-0.1,0.2-0.1,0.3-0.2c0.1-0.1,0.1-0.1,0.1-0.3c-0.2,0.4-0.6,0.5-1,0.7c-0.4,0.2-0.9,0.2-1.4,0.2c-0.5,0-0.9-0.1-1.3-0.4
	c-0.4-0.3-0.7-0.5-1-0.9c-0.2-0.3-0.4-0.5-0.7-0.7c-1.2-1.1-2.3-2.4-3.5-3.5c-0.1-0.1-0.2-0.3-0.3-0.4c-0.1-0.3-0.1-0.6,0.2-0.8
	c0.2-0.2,0.5-0.2,0.7,0c0.6,0.4,1.1,0.9,1.6,1.4c1,1.2,2.2,2.1,3.2,3.3c0.1,0.1,0.2,0.2,0.5,0.2c-0.5-0.2-0.9-0.5-1-0.9
	c0-0.1,0-0.2-0.1-0.2c-0.8-0.2-0.9-1.1-1.5-1.5c-0.5-0.3-0.7-0.6-0.4-1.2c0.1-0.3,0.2-0.5,0.3-0.8c0-0.4-0.1-0.7-0.5-0.9
	c-0.5-0.2-0.8-0.6-0.5-1.2c-0.3,0.4-0.5,0.4-0.7,0c-0.2-0.4-0.3-0.9,0.1-1.3c0.3-0.4,0.7-0.8,1.3-0.6c0.6,0.2,1.2,0.3,1.2,1.2
	c0,0.4,0.4,0.5,0.8,0.5c0.4,0.1,0.4-0.2,0.5-0.5c0.1-0.3,0.3-0.4,0.5-0.5c0.4-0.1,0.5-0.4,0.5-0.8c0.1-1.4,0.1-1.4,1.6-1.4
	c-0.4-0.6-0.9-1.1-1.2-1.8c0-0.1-0.2-0.2-0.3-0.2c-0.8,0.2-0.8-0.4-0.8-0.9c0-0.2,0-0.4-0.2-0.5c-0.2,0-0.3,0.1-0.4,0.2
	c-0.1,0.1-0.2,0.2-0.3,0.3c-0.3,0.1-0.6,0.3-0.8-0.1C31.5,108,31.7,107.7,31.9,107.6z"/>
<path class="st1" d="M105.3,105c0.3,1,0.9,1.8,1.4,2.7c1.3,2.3,2.7,4.5,4,6.7c0.3,0.5,0.6,0.9,0.9,1.4c0.2,0.3,0.2,0.4-0.1,0.7
	c-0.4,0.4-0.8,0.9-1.2,1.4c-1.3,1.4-2.7,2.8-4,4.3c-0.8,0.8-1.5,1.6-2.2,2.5c-0.2,0.2-0.5,0.2-0.7,0.2c-1.2,0-2.4,0-3.5,0
	c-0.6,0-0.9-0.1-0.6-0.7c0.1-0.1,0-0.3,0-0.5c0.5-3.9,1.1-7.8,1.7-11.7c0.3-1.7,0.5-3.4,0.7-5.1c0-0.2,0.1-0.5,0.2-0.7
	c0.1-0.9,0.2-1.7,0.4-2.6c0.1-0.5,0.7-0.9,1.3-0.9c0.5-0.1,0.6,0.3,0.8,0.6C104.6,103.9,105.1,104.4,105.3,105z"/>
<path class="st0" d="M31.9,107.6c0,0.2-0.5,0.5-0.1,0.7c0.3,0.1,0.6,0,0.8-0.4c0.1-0.3,0.4-0.4,0.7-0.3c0.3,0.1,0.3,0.3,0.2,0.6
	c0,0.2,0,0.4,0.1,0.5c0,0.3,0.1,0.5,0.5,0.3c0.2-0.1,0.4-0.2,0.5,0.1c0.3,0.8,1,1.4,1.4,2.2c-0.1,0.2-0.2,0.1-0.3,0.1
	c-1.3-0.2-1.4-0.1-1.4,1.1c0,0.5-0.1,0.9-0.7,1c-0.3,0-0.4,0.2-0.4,0.5c-0.1,0.4-0.2,0.6-0.7,0.5c-0.6-0.2-0.9-0.4-0.8-1.1
	c0-0.1,0-0.1-0.1-0.2c-0.3-0.4-1.4-0.6-1.8-0.3c-0.7,0.5-0.8,1-0.2,1.7c0-0.1,0-0.1,0-0.2c-0.1-0.2-0.2-0.4,0-0.5
	c0.1-0.1,0.2,0,0.3,0.1c0.1,0.2,0.3,0.4,0.2,0.5c-0.6,0.5,0,0.6,0.2,0.7c0.7,0.4,0.9,0.9,0.6,1.7c-0.4,0.9-0.4,0.9,0.5,1.5
	c0.2,0.1,0.3,0.3,0.3,0.5c0,0.4,0.2,0.6,0.6,0.6c0.3,0,0.5,0.1,0.5,0.5c0,0.4,0.1,0.8,0.7,0.8c0.2,0,0.3,0.2,0.4,0.4
	c0,0.1,0,0.2-0.1,0.2c-0.2,0.1-0.3-0.1-0.5-0.2c-1.5-1.4-2.9-2.8-4.3-4.3c-0.2-0.3-0.5-0.5-0.8-0.7c-0.2-0.1-0.4-0.1-0.6,0
	c-0.2,0.2-0.2,0.4-0.1,0.6c0.1,0.3,0.4,0.5,0.6,0.8c1.3,1.1,2.3,2.5,3.6,3.5c0.4,0.3,0.6,0.9,1.2,1.2c0.9,0.5,2.5,0.4,3.2-0.2
	c0.2-0.2,0.3-0.5,0.5-0.8c0.2,0.6,0.2,0.9-0.4,1.2c-0.6,0.3-1.2,0.5-1.9,0.5c-0.8,0-1.4-0.3-1.9-0.7c-0.4-0.3-0.6-0.3-0.8,0.1
	c-0.2,0.4-0.6,0.6-1,0.9c-0.1-0.4,0.1-0.5,0.3-0.7c0.8-0.6,0.6-1.2-0.3-1.7c-1.1-0.6-2.3-0.7-3.5-0.2c-0.2,0.1-0.3,0.1-0.4-0.1
	c-0.1-0.2,0.1-0.2,0.2-0.3c0.1-0.1,0.1-0.2,0-0.3c-0.3-0.1-0.5,0.1-0.8,0.3c-0.2,0.1-0.2,0.3,0,0.4c0.2,0.1,0.2,0.2,0.1,0.4
	c-0.4,0.5-1,0.9-1.2,1.6c-0.2,0.6-0.3,1.3-0.4,1.9c-0.5-0.5-0.8-0.5-1,0.2c-0.1,0-0.3,0-0.4,0c-0.8-0.2-1.6-0.1-2.4-0.2
	c-0.2,0-0.4,0.1-0.6,0.2c-0.2,0-0.3,0-0.5,0c0.7-1.3,1.5-2.6,2.4-3.7c0.2-0.2,0.4-0.5,0.4-0.8c0.4-0.6,0.9-1.3,1.3-1.9
	c0.3-0.2,0.4-0.5,0.5-0.8c0.2-0.4,0.4-0.8,0.7-1.1c0.2-0.1,0.2-0.4,0.4-0.5c0.1-0.1,0.2-0.3,0.3-0.4c0.7-0.5,0.9-1.4,1.3-2
	c0-0.4,0.2-0.6,0.5-0.8c0.5-0.7,0.9-1.5,1.6-2c0.1-0.1,0.2-0.2,0.2-0.3c0.1-0.7,0.5-1.3,0.9-1.8c0-0.1,0-0.3,0-0.4
	c0.1,0,0.2,0,0.3,0c0.4-0.2,0.4-0.6,0.7-0.9C31.3,107.6,31.7,107.4,31.9,107.6z"/>
<path class="st1" d="M96.5,124.8c-4.2,0-8.4,0-12.7,0c0.2-0.7,0.7-1.1,1.1-1.6c1-1.3,2-2.7,3-4c0.2-0.3,0.4-0.5,0.7-0.1
	c-0.3-0.3-0.2-0.6,0.1-0.9c0.8-1.1,1.7-2.1,2.5-3.2c0.4-0.5,0.7-1,1.1-1.5c0.3-0.3,0.5-0.6,0.8-1c0.1-0.2,0.3-0.4,0.6-0.4
	c0.3,0.1,0.2,0.3,0.2,0.5c0.4,1.6,0.7,3.2,1.1,4.8c0.4,2,0.9,3.9,1.3,5.8C96.4,123.8,96.7,124.3,96.5,124.8z"/>
<path class="st18" d="M110.6,117.9c0.4-0.4,0.8-0.7,1.1-1.1c0.3-0.3,0.4-0.2,0.6,0.1c0.2,0.4,0.5,0.8,0.7,1.2
	c0.4,0.6,0.8,1.2-0.1,1.7c0.2,0.1,0.3,0,0.3,0c0.4-0.4,0.6-0.3,0.9,0.2c0.9,1.7,1.9,3.3,2.9,4.9c-3.3,0-6.7,0-10.2,0
	c1.1-0.9,2.1-1.7,3.1-2.5c0,0-0.1-0.1-0.1-0.1c-0.8,0.6-1.7,1.1-2.4,1.8c-0.9,0.9-1.9,0.9-3.1,0.8c0.7-0.8,1.4-1.5,2.1-2.3
	c1.3-1.4,2.6-2.8,4-4.2C110.4,118.2,110.5,118.1,110.6,117.9z"/>
<path class="st21" d="M96.5,124.8c-0.1-1.3-0.5-2.5-0.7-3.7c-0.4-1.9-0.8-3.8-1.3-5.8c-0.2-0.9-0.4-1.8-0.6-2.7c0-0.1,0-0.3-0.1-0.3
	c-0.2,0-0.3,0.1-0.4,0.2c-0.3,0.4-0.5,0.9-1,1.2c-0.1,0-0.1,0-0.2,0c0-0.6,0.5-0.9,0.8-1.3c0.4-0.5,0.5-1,0.3-1.6
	c-0.6-2.5-1.2-5.1-1.8-7.7c-0.4-1.7-0.6-3.4-1.1-5.1c-0.1-0.2-0.2-0.4,0-0.6c-0.2-0.4,0-1.1-0.7-1.2c-0.3-0.2-0.7,0-0.9-0.4
	c-0.7-0.5-1.6-0.6-2.3-0.9c-1.2-0.5-2.4-0.9-3.7-1.4c-1.1-0.4-2.1-0.8-3.2-1.2c0,0-0.1-0.1,0-0.2c3.5,1.3,6.9,2.5,10.6,3.9
	c-0.5-1.4-0.7-2.7-1-4c-0.8-3.6-1.6-7.2-2.4-10.8c-0.1-0.5-0.2-0.9-0.4-1.4c-0.1-0.3-0.2-0.6-0.6-0.7c-0.6-0.2-0.7-0.8-0.7-1.4
	c0-0.6,0.6-0.6,0.9-0.7c0.3-0.1,0.5-0.1,0.5-0.5c0.4,0.7,0.8,1.3,1.1,1.8c-0.4,0-0.6,0.4-0.9,0.8c-0.4,0.4-0.1,0.9,0,1.3
	c0.3,1.5,0.7,3.1,1.1,4.6c0.6,2.6,1.1,5.2,1.7,7.7c0.2,0.9,0.4,1.8,0.5,2.7c0.1,0.6,0.5,0.8,1.1,1.1c-0.6,0.1-0.9,0.2-0.5,0.7
	c0.2,1.2,0.5,2.5,0.8,3.7c0.4,1.7,0.7,3.5,1.1,5.2c0.4,1.8,0.8,3.6,1.3,5.5c0.9-1.2,1.8-2.2,2.6-3.3c0,0,0.1,0.1,0.1,0.1
	c-0.6,0.8-1.1,1.6-1.8,2.3c-0.8,0.8-0.9,1.6-0.6,2.7c0.9,3.6,1.6,7.2,2.4,10.8c0,0.2,0.1,0.4,0.2,0.6
	C96.7,124.8,96.6,124.8,96.5,124.8z"/>
<path class="st21" d="M65,124.8c0.2-1.8,0.1-3.7,0.2-5.5c0.1-2.4,0-4.9,0.2-7.3c0.1-1.6,0-3.3,0.1-4.9c0.2-1.8,0-3.6,0.1-5.3
	c0.2-2.3,0-4.5,0.1-6.8c0.1-1.1,0.1-2.2,0.1-3.3c0-0.3,0-0.6-0.4-0.7c-0.4-0.1-0.6-0.3-1.1,0c-1.1,0.6-2.2,1-3.3,1.5
	c-0.7,0.3-1.4,0.5-2,1c-0.1,0.1-0.3,0-0.6,0.1c0.7-0.6,1.5-0.7,2.1-1c1.3-0.6,2.6-1.2,4-1.9c0.3-0.1,0.4-0.3,0.4-0.6
	c0-0.6,0.4-0.9,1-0.9c0.5,0,1,0.1,1.1,0.7c0.1,0.5,0,1.1-0.6,1.3c-0.3,0.1-0.3,0.4-0.3,0.6c-0.1,1.8-0.1,3.7-0.2,5.5
	c-0.1,2,0,4-0.1,6c-0.2,2.3,0,4.5-0.1,6.7c-0.1,1.9,0,3.7-0.1,5.6c-0.1,1.7,0,3.5-0.1,5.2c-0.1,1.4-0.1,2.9-0.1,4.3
	C65.2,124.8,65.1,124.8,65,124.8z"/>
<path class="st21" d="M46.4,124.8c-0.2-0.7-0.8-1.2-1.2-1.8c-1-1.4-2-2.7-3-4c-1.9-2.5-3.7-5-5.6-7.5c0,0,0.1-0.1,0.1-0.1
	c0.6,0.8,1.3,1.5,1.9,2.3c1.8,2.4,3.6,4.9,5.4,7.4c0.9,1.3,2,2.5,2.8,3.8C46.7,124.8,46.5,124.8,46.4,124.8z"/>
<path class="st21" d="M102,106.1c-0.4,2.6-0.8,5.1-1.2,7.7c-0.4,2.8-0.8,5.7-1.2,8.5c-0.1,0.5,0,0.9-0.3,1.3c0-0.1,0-0.3-0.1-0.4
	c0.3-1.7,0.5-3.5,0.8-5.2c0.3-2.2,0.7-4.4,1-6.6c0.2-1.5,0.4-2.9,0.6-4.4c0-0.4,0.1-0.7,0.3-1C101.9,106,101.9,106,102,106.1z"/>
<path class="st21" d="M54,124.5c-0.5-1.1-1-2.1-1.3-3.3c0.5,1,1.1,2,1.4,3.1C54.1,124.4,54.1,124.4,54,124.5z"/>
<path class="st3" d="M20.2,124.8c0.1-0.3,0.3-0.6,0.7-0.3c0.1,0.1,0.4,0.1,0.5,0.1c0.6-0.2,1.2,0.1,1.7,0.2
	C22.1,124.8,21.1,124.8,20.2,124.8z"/>
<path class="st21" d="M85,123.3c-0.4,0.5-0.8,1-1.2,1.6c-0.1,0-0.2,0-0.3,0c0.4-0.6,0.7-1.2,1.3-1.6C84.9,123.2,84.9,123.2,85,123.3
	z"/>
<path class="st1" d="M126.6,52.5c-0.1-0.9-0.6-1.7-0.9-2.5c-0.3-0.9-0.7-1.8-1.1-2.8c2.3,0.8,4.4,1.5,6.6,2.2
	c3.3,1.1,6.5,2.2,9.8,3.3c2.2,0.7,4.3,1.4,6.5,2.2c0.5,0.2,0.5,0.2,0.5,1c0.2-0.8,0.6-0.6,0.9-0.5c0.2,0.1,0.5,0.2,0.8,0.3
	c0,6.3,0,12.5,0,18.8c0,2.4,0,4.8,0,7.2c0,3.5,0,7,0,10.5c0,0.2,0,0.4,0,0.7c-0.8-0.5-1.5-1-2.2-1.5c-0.2-0.1-0.3-0.3-0.6-0.2
	c0,0-0.1,0-0.1,0c-1.4-0.9-2.6-1.9-4-2.7c-0.1,0-0.1-0.1-0.2-0.1c-0.1-0.1-0.2-0.2-0.3-0.2c-0.6-0.4-0.9-0.7-0.7-1.6
	c0.3-1-0.4-2.2-1.3-2.5c-0.2-0.1-0.5,0-0.8,0.1c-0.4,0.1-0.7,0-0.9-0.4c0,0-0.1-0.1-0.1-0.2c-0.2-0.7-0.5-1.3-0.8-2
	c0-0.1-0.1-0.1-0.1-0.2c-0.1-0.4-0.3-0.9-0.5-1.3c-0.1-0.2-0.2-0.5-0.3-0.8c-0.2-0.4-0.3-0.9-0.5-1.3c0-0.1-0.1-0.1-0.1-0.2
	c-0.6-1.6-1.2-3.2-1.9-4.8c0-0.1-0.1-0.1-0.1-0.2c-0.1-0.3-0.2-0.7-0.4-1c0-0.1,0-0.1-0.1-0.2c-0.6-1.7-1.3-3.4-2-5.1
	c-0.1-0.3-0.2-0.7-0.4-1c-1.6-3.9-3.1-7.9-4.6-11.8C126.9,53.4,126.7,53,126.6,52.5L126.6,52.5z"/>
<path class="st22" d="M149.8,113.3c-1.4-0.1-2.8-0.2-4.1-0.2c-0.3,0-0.5,0-0.8,0c-0.4-0.3-0.9-0.2-1.3-0.2c-1.5-0.2-3-0.2-4.5-0.3
	c-1.3-0.1-2.6-0.2-3.8-0.3c-0.5,0-0.5-0.3-0.4-0.7c0.9-4.3,1.8-8.5,2.6-12.8c0.7-3.3,1.3-6.7,2-10c0-0.1,0-0.2,0-0.3
	c0.7-0.3,1.5-0.3,2-0.9c0.2-0.2,0.3,0,0.5,0.1c0.3,0.2,0.6,0.5,1,0.7l0,0c1.4,0.9,2.8,1.9,4.2,2.8c0,0,0,0,0,0
	c0.7,0.7,1.6,1.1,2.4,1.7c0.3,0.2,0.5,0.4,0.5,0.8C149.8,100.2,149.8,106.8,149.8,113.3z"/>
<path class="st1" d="M149.8,55.3c-1.4-0.4-1.4-0.4-1-1.9c0.3-1.2,0.7-2.4,1-3.6C149.8,51.7,149.8,53.5,149.8,55.3z"/>
<path class="st1" d="M104.7,80.7C104.7,80.6,104.7,80.6,104.7,80.7c1.2-0.1,1.6-0.7,1.6-1.8c0-0.4,0.2-0.6,0.6-0.7c0,0,0.1,0,0.1,0
	c0.4-0.6,1.1-1,1.4-1.7c0.2-0.3,0.3-0.5,0.6-0.5c0.4,0,0.5-0.2,0.5-0.6c0-0.4,0-0.8,0.2-1c0.4-0.5,1-1,1.4-1.6
	c0.2-0.2,0.6-0.3,0.7-0.8c0-0.3,0.3-0.4,0.6-0.4c0.3,0,0.5-0.2,0.4-0.5c0-0.3,0.1-0.7,0.1-1c0,0,0-0.1,0-0.1
	c0.6-0.4,0.9-1.2,1.6-1.6c0.3-0.2,0.4-0.3,0.4-0.6c0-0.4,0.1-0.7,0.1-1.1c0-0.1,0-0.2,0-0.2c0.8-0.2,0.9-1.1,1.6-1.4
	c0.1,0,0.2,0,0.2-0.1c0.1-0.8,0.9-1,1.3-1.6c0-0.1,0-0.2,0.1-0.2c0.8-0.3,0.4-0.8,0.2-1.2l0,0c1.1,0.9,1.9,2.1,2.8,3.1
	c0.1,0.1,0.2,0.2,0.3,0.3c0.7,0.2,1,0.9,1.5,1.4c1.7,1.8,3.3,3.7,5,5.6c0.7,0.8,1.3,1.6,2.1,2.3c0,0,0.1,0.1,0.1,0.1
	c0.2,0.3,0.4,0.6,0.8,0.8c0.1,0.1,0.2,0.2,0.3,0.3c0.6,0.9,1.4,1.6,2.1,2.5c0.3,0.3,0.5,0.7,0.8,0.9c0.1,0,0.1,0.1,0.1,0.1
	c1.1,1.4,2.3,2.7,3.5,4c0.7,0.7,0.5,1.5-0.3,2.1c-1.4-0.2-2.9-0.4-4.3-0.6c-2.6-0.3-5.1-0.8-7.7-1.2c-1.3-0.2-2.6-0.4-3.9-0.6
	c-2.1-0.4-4.3-0.6-6.5-1c-3.1-0.5-6.3-0.9-9.4-1.5C105.2,80.9,104.9,80.9,104.7,80.7z"/>
<path class="st23" d="M130.9,76.2c-0.1-0.1-0.2-0.1-0.2-0.2c-0.3-0.3-0.6-0.6-0.8-0.9l0,0c-1.4-1.4-2.7-3-4-4.5
	c-1.4-1.5-2.7-3.1-4.1-4.6c-0.1-0.1-0.4-0.2-0.3-0.5c0.3-0.4,0.2-1.6-0.2-1.8c-0.1-0.1-0.2-0.1-0.3,0c-0.2,0.1-0.2,0.2-0.2,0.4
	c0.1,0.3,0.2,0.6,0.4,1.1c-0.6-0.7-1.1-1.2-1.6-1.7c0.3-0.1,0.4,0.1,0.6,0.2c0.1,0.1,0.2,0.1,0.3,0c0.1-0.1,0-0.2-0.1-0.3
	c-0.3-0.1-0.4-0.3-0.5-0.5c-0.1-0.2-0.4-0.4-0.7-0.2c-0.3,0.2-0.4-0.1-0.5-0.2c-0.2-0.3,0.2-0.2,0.2-0.2c0-0.8,0.7-0.7,1.1-1
	c0.4-0.4,0.7-1,1.3-1.4c0.1-0.1,0.1-0.4,0.1-0.6c0-0.6,0-1.2,0.8-1.2c0.1-0.8,1.1-1,1.3-1.7c0.1-0.2,0.1-0.3,0.3-0.4
	c0.6-0.1,0.7-0.5,0.8-1c0.1-0.3-0.1-0.8,0.1-1c0.3-0.2,0.8-0.3,1.2-0.4c0.3-0.1,0.9,0.1,0.3-0.5c-0.1-0.1-0.1-0.2,0-0.2
	c0.2-0.1,0.3,0.1,0.4,0.1c0.2,0.3,0.4,0.5,0.4,0.9c-0.1,0.2,0,0.4,0,0.6c0,0.2-0.1,0.4-0.1,0.7c0.2-0.1,0-0.5,0.4-0.6
	c0.5,0.9,0.9,2,1.3,3c1.1,2.7,2.1,5.5,3.2,8.2c0.8,2.1,1.6,4.2,2.4,6.2l0,0c0.1,0.4,0.2,0.7,0.4,1.1l0,0c0.7,1.7,1.3,3.4,2,5.1l0,0
	c0.2,0.4,0.2,1,0.6,1.4c0.1,0.3,0.2,0.5,0.2,0.8c0.2,0.5,0.4,0.9,0.5,1.4l0,0c0.3,0.7,0.6,1.4,0.8,2.1l0,0c0.2,0.3,0.2,0.5-0.1,0.7
	c-0.3,0.2-0.5,0-0.7-0.2c-1.3-1.4-2.6-2.9-3.9-4.4l0,0C132.9,78.6,131.9,77.4,130.9,76.2z"/>
<path class="st1" d="M90.5,97.4c0.6,2.7,1.2,5.3,1.8,8c0.5,2,0.9,4.1,1.4,6.1c0.1,0.4-0.2,0.6-0.4,0.9c-0.3,0.5-0.8,0.9-1,1.4
	c-0.3,0.8-0.9,1.3-1.4,1.9c-0.6,0.8-1.3,1.6-1.9,2.4c-0.4,0.5-0.6,0.5-1,0c-1.2-1.4-2.2-3-3.5-4.4c-0.2-0.2-0.4-0.4-0.4-0.7
	c-0.7-1.3-1.9-2.3-2.7-3.5c-0.1-0.2-0.3-0.4-0.1-0.7c0.4,0.6,0.8,1.1,1.2,1.6c0.2,0.3,0.4,0.6,0.9,0.7c0,0,0,0-0.1-0.1
	c0.1,0.1,0.1,0.1,0.1,0.1c-0.1-0.3-0.1-0.5-0.1-0.6c0-1.3,0-1.3,1.3-1.7c0.3-0.1,0.4-0.3,0.4-0.6c-0.1-0.5,0.1-0.9,0.6-1
	c0.1,0,0.3-0.1,0.3-0.2c0.1-0.5,0.2-1,0.9-0.9c0.2,0,0.2-0.3,0.2-0.4c0-0.3,0.1-0.7,0.1-1c0-0.1,0-0.2,0-0.3c0.7-0.2,0.9-1,1.5-1.4
	c0,0,0,0,0.1,0c0.7-0.1,0.3-1.1,0.8-1.1c0.8-0.1,0.5-0.6,0.6-1.1c0.1-0.4-0.2-1,0.6-1.1c0.1,0,0-0.2,0-0.4c-0.1-0.5-0.2-0.9-0.4-1.4
	C90.2,97.6,90.3,97.5,90.5,97.4z"/>
<path class="st1" d="M100.1,99.7c-0.8-0.6-1.8-0.8-2.7-1.1c-1.6-0.7-3.3-1.2-4.9-1.9c0.6,0,0.8-0.2,1-0.8c0.2-0.6,0.9-1.1,1.4-1.6
	c0.2-0.2,0.6-0.2,0.6-0.6c0-0.3,0.2-0.5,0.5-0.5c0.4,0,0.5-0.2,0.5-0.5c0-0.7-0.1-1.4,0.9-1.7c0.3-0.1,0.3-0.5,0.3-0.8
	c0-0.3-0.1-0.5,0.1-0.8c0.2-0.3,0.4-0.5,0.7-0.1c0.3,0.4,0.8,0.4,1.2,0.8c-0.1-0.5-0.6-0.7-1.1-1.2c1,0.4,1-0.1,1.1-0.7
	c0-0.6,0-1.3,0.9-1.4c0.3,0,0.2-0.5,0.6-0.6c0.4,0.9,0.4,1.9,0.4,2.8c0.1,1.6,0.4,3.2,0.5,4.8c0.1,1.5,0.3,3,0.4,4.5
	c0,0.3-0.2,0.5-0.4,0.6c-0.5,0.2-1,0.3-1.4,0.8C100.5,99.8,100.3,99.8,100.1,99.7L100.1,99.7z"/>
<path class="st24" d="M100.1,99.7c0.2,0,0.4,0,0.5-0.2c0.2-0.4,0.6-0.6,1.1-0.6c0.4,0,0.6-0.2,0.6-0.8c-0.2-2.7-0.6-5.4-0.8-8.1
	c-0.1-1.3-0.3-2.5-0.3-3.8c-0.2-2-0.3-3.9-0.6-5.9c0-0.2,0.1-0.2,0.2-0.3l0,0c0.3,0.2,0.6,0.3,0.9,0.2c0.2,0,0.3,0,0.3,0.2
	c0,0,0,0-0.1,0.1c-0.8,0.3-1,0.6-0.7,1.7c0.1,0.2,0,0.5,0.1,0.7c0,0.6,0.1,1.2,0.2,1.7c0.1,0.3,0,0.6,0,0.9c0,0.3,0,0.5,0.1,0.7
	c0.4,3.8,0.7,7.6,1.1,11.4c0,0.4,0.1,0.7,0.5,0.8c0.1,0,0.1,0.1,0.2,0.1c0.8,0.9,1.7,0.8,2.6,0.3c0.2-0.1,0.5-0.2,0.8-0.3
	c0.2,0,0.4-0.1,0.5,0.1c0.1,0.2-0.1,0.3-0.3,0.4c-0.5,0.2-0.9,0.4-1.4,0.6c-0.9,0.3-0.9,0.3-0.9,1.2c0,0.3,0,0.6-0.1,0.9
	c-0.4,0.6-0.1,1.2,0.2,1.7c0.2,0.3,0.4,0.7,0.6,1.1c0,0.1,0.1,0.3,0,0.4c0,0,0,0,0,0c-0.6-0.5-0.8-1.2-1.2-1.8
	c-0.3-0.4-0.5-0.4-0.9-0.3c-0.7,0.2-1,0.7-1,1.4c0,0.6-0.2,1.2-0.2,1.8c0,0-0.1,0-0.1,0c0-0.8,0.1-1.5,0.2-2.2
	c0-0.2,0.2-0.6-0.2-0.7c-0.4-0.1-0.7-0.6-1.2,0c-0.4,0.6-0.9,1.2-1.3,1.7c-0.2,0.2-0.3,0.4-0.6,0.5c-0.1-0.3,0.1-0.4,0.2-0.5
	c0.5-0.6,1-1.3,1.5-1.9c0.2-0.2,0.3-0.4,0.1-0.6c-0.7-0.6-0.6-1.4-0.5-2.2C100.2,100,100.2,99.9,100.1,99.7z"/>
<path class="st25" d="M104.7,80.7c2.1,0.3,4.2,0.7,6.4,1c2.3,0.3,4.6,0.7,6.8,1c1.9,0.3,3.7,0.6,5.6,0.9c2.5,0.4,5,0.7,7.5,1.1
	c2.2,0.4,4.4,0.6,6.6,1c0.1,0.1,0.1,0.2,0,0.3c-0.9,0-1.9-0.2-2.8-0.3c-3.4-0.6-6.8-1-10.2-1.5c-2.3-0.4-4.6-0.7-6.9-1.1
	c-2.5-0.4-5.1-0.7-7.6-1.2c-2.3-0.4-4.6-0.5-6.9-1.1c-0.3,0-0.6-0.1-0.8-0.1c-0.2,0-0.4-0.1-0.3-0.4c0,0,0,0,0,0
	C102.9,80.3,103.8,80.6,104.7,80.7z"/>
<path class="st26" d="M84,113.1c1.2,1.4,2.3,3,3.5,4.4c0.1,0.1,0.2,0.3,0.3,0.5c0.5,0.6,0.7,0.6,1.1,0c0.7-1.1,1.7-2.1,2.5-3.1
	c0.3-0.3,0.4-0.7,0.8-1c0.1,0,0.1,0,0.2,0c-0.5,1.1-1.4,1.8-2.1,2.8c-0.4,0.6-0.9,1.2-1.4,1.7c-0.4,0.4-0.4,0.7,0,1.1
	c0.1,0.1,0.1,0.2,0.2,0.4c-0.1,0-0.1,0-0.2,0c-0.6-0.6-0.6-0.6-1.2,0.1c-0.8,1-1.5,2-2.2,3c-0.1,0.2-0.4,0.4-0.6,0.6
	c-0.1,0-0.1,0-0.2,0c0.4-0.8,1-1.4,1.5-2.1c0.5-0.7,1.1-1.3,1.6-2c0.2-0.2,0.1-0.5-0.1-0.7c-1.2-1.5-2.4-3-3.5-4.5
	C84.2,113.7,83.8,113.5,84,113.1z"/>
<path class="st27" d="M126.9,53.8c-0.1-0.3-0.2-0.6-0.3-0.9c0-0.1,0-0.2,0-0.3c0.6,0.9,0.9,2.1,1.3,3.1c1.3,3.3,2.6,6.6,3.9,9.9
	c-0.1,0.1-0.1,0.2-0.2,0.1c-1.5-3.8-3-7.5-4.4-11.3C127,54.2,126.9,54,126.9,53.8z"/>
<path class="st28" d="M121.4,65.4c1,1.1,2,2.1,2.9,3.2c1.2,1.4,2.5,2.7,3.7,4.2c0.5,0.6,1,1.2,1.5,1.7c0.1,0.2,0.4,0.3,0.3,0.5
	c-0.8-0.3-1.1-1.1-1.6-1.6c-0.9-0.9-1.7-2-2.6-2.9c-1.4-1.6-2.9-3.2-4.3-4.8C121.3,65.6,121.3,65.4,121.4,65.4z"/>
<path class="st1" d="M103,53.9c-0.8-0.2-1.6-0.3-2.1-1.1c-0.1-0.2-0.2-0.4,0-0.5c0.2-0.2,0.3,0.1,0.4,0.2c0.9,0.6,1.8,1.1,2.8,0.2
	c0.2-0.1,0.4-0.1,0.5,0.1c0.1,0.2,0.2,0.4,0,0.5C104.2,53.5,103.7,54,103,53.9z"/>
<path class="st1" d="M98.6,58c0.7-0.6,1.3-1.2,1.2-2.2c0-0.2,0-0.4,0.3-0.5c0.3-0.1,0.5,0,0.7,0.2c0.2,0.2,0,0.4-0.1,0.5
	c-0.2,0.5-0.3,1-0.6,1.4c-0.3,0.5-0.8,0.9-1.3,1.2C98.6,58.5,98.5,58.3,98.6,58z"/>
<path class="st13" d="M98.6,58c0,0.2,0.1,0.4,0.1,0.7c0,0.4,0,0.9,0,1.3l0,0c-0.3-0.8-0.3-1.6-0.4-2.3c-0.1-2.3-0.5-4.5-0.6-6.8
	c0-0.9-0.2-1.8-0.4-2.8c0-0.3,0-0.6,0.2-0.9c0.2,2.3,0.4,4.4,0.6,6.6c0,0.1,0.1,0.2,0.1,0.3c0.1,0.3,0.1,0.5,0,0.8
	C98.5,56,98.6,57,98.6,58z"/>
<path class="st13" d="M98.8,60c0.3,0.7,0.2,1.6,0.4,2.3c0.1,0.9,0.1,1.9,0.1,2.8C99,63.5,98.7,61.8,98.8,60C98.8,60,98.8,60,98.8,60
	z"/>
<path class="st13" d="M97,41.8c0.2,1.4,0.5,2.7,0.3,4.1C97.2,44.6,97,43.2,97,41.8C97,41.8,97,41.8,97,41.8z"/>
<path class="st1" d="M114.9,58.5c0.4,0.4,0.8,0.8,1.2,1.3C115.2,59.6,114.8,59.2,114.9,58.5z"/>
<path class="st1" d="M98.4,54.9c0-0.3,0-0.5,0-0.8c0-0.1,0-0.3,0-0.4c0-0.2,0.2-0.3,0.3-0.4c0.1,0,0.2,0,0.2,0.1
	c0.1,0.2,0,0.4-0.2,0.4C98.3,54.2,98.7,54.7,98.4,54.9z"/>
<path class="st1" d="M100.8,80c0-0.5,0-1.1-0.2-1.7C101.2,79,101.2,79.6,100.8,80C100.8,80,100.8,80,100.8,80z"/>
<path class="st1" d="M118.2,62.3c-0.1,0-0.2-0.1-0.3-0.1c-0.1,0-0.3,0.1-0.4-0.1c-0.1-0.2,0.1-0.3,0.2-0.4c0.2-0.1,0.3,0.1,0.3,0.2
	C118.1,62.1,118.1,62.2,118.2,62.3L118.2,62.3z"/>
<path class="st1" d="M100.3,74.9c-0.1-0.4-0.2-0.9,0.1-1.3C100.4,74,100.4,74.4,100.3,74.9z"/>
<path class="st1" d="M88.9,95.8c0.3,0.2,0.7,0,0.9,0.4C89.5,96.1,89,96.4,88.9,95.8z"/>
<path class="st13" d="M100.2,41.8c0.3,0,0.5,0.3,0.7,0.6C100.5,42.4,100.3,42.2,100.2,41.8L100.2,41.8z"/>
<path class="st1" d="M99.2,52.9c-0.3,0-0.5-0.1-0.6-0.4C99,52.6,99,52.6,99.2,52.9z"/>
<path class="st1" d="M111.2,54.6c-0.2-0.1-0.3-0.3-0.5-0.6C110.9,54.3,111.1,54.5,111.2,54.6z"/>
<path class="st1" d="M92.3,97.2c-0.2,0.2-0.4,0.1-0.5-0.1c0,0,0-0.2,0-0.2C92,96.9,92.2,97,92.3,97.2z"/>
<path class="st1" d="M117.5,61.5c-0.2,0-0.4,0.2-0.5-0.1c0-0.1,0.1-0.2,0.1-0.2C117.3,61.2,117.4,61.3,117.5,61.5z"/>
<path class="st29" d="M23.7,66.5c1.4,0,2.9,0,4.3,0c0.5,0,0.6,0.1,0.6,0.6c0,1.2,0,2.5,0,3.7c0,0.3-0.1,0.5-0.4,0.6
	c-1,0.2-1.6,0.8-1.8,1.8c-0.1,0.3-0.2,0.3-0.5,0.3c-1.5,0-3.1,0-4.6,0c-0.3,0-0.5-0.1-0.6-0.4c-0.3-0.6-0.8-1.1-1.4-1.4
	c-0.3-0.1-0.3-0.4-0.3-0.6c0-1.4,0-2.7,0-4.1c0-0.4,0.1-0.5,0.5-0.5C20.8,66.5,22.3,66.5,23.7,66.5z"/>
<path class="st30" d="M23.6,86.8c-1.4,0-2.9,0-4.3,0c-0.4,0-0.5-0.1-0.5-0.5c0-1.4,0-2.7,0-4.1c0-0.3,0-0.5,0.3-0.6
	c0.6-0.3,1.2-0.8,1.5-1.5c0.1-0.3,0.3-0.3,0.6-0.3c1.5,0,3.1,0,4.6,0c0.3,0,0.4,0.1,0.5,0.4c0.2,1,0.9,1.5,1.8,1.8
	c0.4,0.1,0.4,0.3,0.4,0.6c0,1.2,0,2.5,0,3.7c0,0.4-0.1,0.5-0.5,0.5C26.6,86.8,25.1,86.8,23.6,86.8z"/>
<path class="st31" d="M30.9,76.8c1.2,0,2.3,0,3.5,0c0.4,0,0.5,0.1,0.5,0.5c0,1.2,0,2.5,0,3.7c0,0.4-0.1,0.5-0.5,0.5c-2,0-4,0-6,0
	c-0.9,0-1.7-0.8-1.7-1.8c0-0.8,0-1.6,0-2.3c0-0.4,0.1-0.5,0.5-0.5C28.5,76.8,29.7,76.8,30.9,76.8C30.9,76.8,30.9,76.8,30.9,76.8z"/>
<path class="st32" d="M30.8,76.5c-1.2,0-2.3,0-3.5,0c-0.4,0-0.6-0.1-0.6-0.6c0-0.7,0-1.5,0-2.2c0-1.1,0.8-1.9,1.9-1.9
	c1.9,0,3.8,0,5.7,0c0.4,0,0.5,0.1,0.5,0.5c0,1.2,0,2.5,0,3.7c0,0.4-0.1,0.5-0.5,0.5C33.2,76.5,32,76.5,30.8,76.5
	C30.8,76.5,30.8,76.5,30.8,76.5z"/>
<path class="st33" d="M16.6,76.8c1,0,2,0,3,0c0.9,0,0.9,0,0.9,0.9c0,0.4,0,0.8,0,1.2c-0.2,1.5-1.5,2.6-3,2.6c-1.4,0-2.9,0-4.3,0
	c-0.4,0-0.6-0.1-0.6-0.6c0-1.2,0-2.4,0-3.6c0-0.4,0.1-0.5,0.5-0.5C14.4,76.8,15.5,76.8,16.6,76.8C16.6,76.8,16.6,76.8,16.6,76.8z"/>
<path class="st34" d="M16.6,76.5c-1.1,0-2.2,0-3.3,0c-0.4,0-0.6-0.1-0.6-0.5c0-1.2,0-2.5,0-3.7c0-0.4,0.1-0.5,0.5-0.5
	c1.5,0,2.9,0,4.4,0c1.6,0,2.9,1.4,3,3c0,1.7,0,1.7-1.7,1.7C18.1,76.5,17.4,76.5,16.6,76.5C16.6,76.5,16.6,76.5,16.6,76.5z"/>
<path class="st35" d="M21,76.6c0-0.7,0-1.5,0-2.2c0-0.3,0-0.4,0.3-0.4c1.5,0,3,0,4.5,0c0.3,0,0.4,0.2,0.4,0.5c0,1.5,0,2.9,0,4.4
	c0,0.3-0.1,0.5-0.5,0.5c-1.4,0-2.8,0-4.3,0c-0.4,0-0.5-0.2-0.4-0.5C21.1,78.1,21.1,77.3,21,76.6C21.1,76.6,21,76.6,21,76.6z"/>
<path class="st30" d="M29.1,84.4c0-0.6,0-1.2,0-1.9c0-0.4,0.1-0.5,0.5-0.5c1.6,0,3.1,0,4.7,0c0.4,0,0.5,0.2,0.5,0.5
	c0,0.8,0,1.6,0,2.4c0,1.1-0.8,1.9-1.9,1.9c-1.1,0-2.2,0-3.3,0c-0.4,0-0.5-0.1-0.5-0.5C29.1,85.7,29.1,85,29.1,84.4z"/>
<path class="st36" d="M15.6,82c0.8,0,1.6,0,2.3,0c0.3,0,0.4,0,0.4,0.4c0,1.3,0,2.6,0,3.9c0,0.4-0.2,0.5-0.6,0.5c-1,0-2,0-3,0
	c-1.3,0-2-0.7-2.1-1.9c0-0.8,0-1.6,0-2.4c0-0.4,0.1-0.5,0.5-0.5c0.4,0,0.8,0,1.2,0C14.8,82,15.2,82,15.6,82C15.6,82,15.6,82,15.6,82
	z"/>
<path class="st37" d="M31.9,71.3c-0.8,0-1.5,0-2.3,0c-0.4,0-0.5-0.1-0.5-0.5c0-1.3,0-2.5,0-3.8c0-0.4,0.1-0.5,0.5-0.5
	c1,0,2.1,0,3.1,0c1.3,0,2,0.8,2,2.1c0,0.7,0,1.4,0,2.1c0,0.4-0.1,0.6-0.5,0.5C33.4,71.3,32.7,71.3,31.9,71.3
	C31.9,71.3,31.9,71.3,31.9,71.3z"/>
<path class="st38" d="M15.6,71.3c-0.8,0-1.6,0-2.3,0c-0.4,0-0.6-0.1-0.5-0.5c0-0.8,0-1.6,0-2.4c0-1,0.6-1.7,1.6-1.8
	c1.2-0.1,2.4,0,3.7-0.1c0.3,0,0.4,0.1,0.4,0.4c0,1.4,0,2.8,0,4.1c0,0.3-0.1,0.3-0.3,0.3C17.2,71.3,16.4,71.3,15.6,71.3
	C15.6,71.3,15.6,71.3,15.6,71.3z"/>
<path class="st3" d="M31.1,107.3c-0.1,0.3-0.2,0.6-0.4,0.9c-0.1,0.1-0.2,0.2-0.3,0C30.6,107.9,30.8,107.5,31.1,107.3z"/>
<path class="st3" d="M30.2,108.6c-0.3,0.7-0.5,1.4-0.8,2.1c-0.2,0.5-0.9,0.8-1.2,1.3c-0.2,0.3-0.3,0.7-0.7,0.8
	c0.1-0.8,0.8-1.3,1.1-1.9C29.1,110.1,29.5,109.3,30.2,108.6z"/>
<path class="st3" d="M27,113.6c-0.1,0.4-0.3,0.8-0.4,1.3c-0.1,0.5-0.6,0.4-0.9,0.7C26,114.9,26.4,114.2,27,113.6z"/>
<path class="st3" d="M24.3,117.6c0,0.4-0.1,0.7-0.5,0.8C23.8,118.1,24.1,117.9,24.3,117.6z"/>
<path class="st3" d="M25.4,116c0,0.2-0.1,0.3-0.1,0.5c0,0.2,0,0.2-0.3,0.1C25,116.3,25.2,116.1,25.4,116z"/>
<path class="st3" d="M22.5,120.3c0.1,0.4-0.1,0.6-0.4,0.8C22.1,120.8,22.3,120.6,22.5,120.3z"/>
<path class="st1" d="M103,80.7c2.2,0.5,4.4,0.6,6.6,1c2,0.4,4,0.5,6,0.9c2.8,0.5,5.7,0.8,8.5,1.4c1.8,0.3,3.6,0.5,5.3,0.7
	c1.8,0.3,3.5,0.6,5.3,0.9c0.9,0.2,1.8,0.1,2.7,0.5c0.3,0.7,0.2,0.9-0.4,1.1c-0.2,0.1-0.5,0.2-0.7,0.3c-0.1,0.1-0.2,0.1-0.3,0.2
	c-0.2,0.1-0.4,0.1-0.4,0.1c0.2,0,0.5-0.1,0.8-0.3c0.4-0.1,0.7-0.2,1-0.4c0.2-0.1,0.4-0.1,0.6,0.1c0.2,0.2,0.3,0.5,0.1,0.7
	c-0.2,0.2-0.3,0.4-0.5,0.6c-0.8,0.8-1.7,1.6-2.3,2.6c-0.4,0.4-0.5,1-1.1,1.3c-0.3-0.1-0.4,0.2-0.5,0.3c-1.9,2-3.7,4-5.6,6
	c-1.7,1.9-3.5,3.7-5.1,5.6c-0.2,0.2-0.4,0.4-0.6,0.6c-0.7,0.5-1.2,1.3-1.8,1.8c0,0,0,0.1-0.1,0.1c-0.6,0.7-0.6,0.7-1.4,0.2
	c0.8,0.6,0.2,1-0.1,1.4c-1.3,1.4-2.5,2.7-3.8,4.1c-0.8,0.9-1.6,1.8-2.5,2.7c-0.5,0.6-0.6,0.6-1-0.1c-1.5-2.4-2.9-5-4.5-7.4
	c-0.5-0.9-1-1.8-1.6-2.6c-0.1-0.1-0.2-0.2-0.3-0.3c-0.2-0.7-0.7-1.2-1-1.9c-0.2-0.4-0.3-0.7,0-1.1c0.3-0.4,0.2-0.9,0.2-1.4
	c0-0.6,0.2-0.9,0.8-1c0.7-0.2,1.3-0.5,1.9-0.8c-0.7,0-1.3,0.3-1.8,0.6c-0.6,0.3-1.1,0.4-1.6-0.1c-0.3-0.3-0.6-0.6-1.1-0.7
	c-0.2,0-0.2-0.2-0.2-0.3c-0.1-1.5-0.2-3.1-0.4-4.6c-0.2-2.1-0.3-4.2-0.6-6.3c-0.1-0.3,0-0.7,0-1.1c-0.2-0.3,0-0.6,0.2-0.9
	c-0.1,0.1-0.1,0.2-0.3,0.2c0-0.3,0-0.6,0-0.9c-0.1-0.2-0.1-0.4,0.2-0.3c0.2,0.1,0.4-0.1,0.5-0.1c0.7,0,0.8-0.5,0.8-1
	c0-0.5,0.2-0.9,0.7-1c0.3-0.1,0.4-0.4,0.4-0.7c0-0.4-0.3-0.3-0.5-0.4C103.2,81.1,102.9,81,103,80.7z"/>
<path class="st7" d="M135.2,91.2c0.1-0.5,0.5-0.8,0.9-1.2c0.5-0.6,1.1-1.1,1.6-1.6c0.2-0.3,0.6-0.5,0.2-1c-0.3-0.4-0.6-0.1-0.9,0
	c-0.2,0.1-0.5,0.2-0.7,0.1l0,0c0.1-0.2,0.3-0.3,0.5-0.3c0.7-0.1,0.8-0.6,0.7-1.2c0-0.1,0-0.2,0-0.3c0.7-1,0.4-1.7-0.4-2.5
	c-1-0.9-1.9-2.1-2.8-3.1c-0.1-0.1-0.3-0.3-0.2-0.5c1.1,0.9,1.9,2.1,2.9,3.1c0.3,0.3,0.6,0.7,1,1.1c0.2,0.2,0.3,0.4,0.6,0.3
	c0.3-0.1,0.2-0.4,0.2-0.6c0.3,0.3,0.6,0.4,1.1,0.3c0.8-0.2,1.3,0.4,1.7,0.9c0.6,0.6,0.6,1.4,0.4,2.1c-0.2,0.5,0,0.6,0.3,0.9
	c0.2,0.2,0.6,0.3,0.7,0.6c-0.5-0.1-0.8-0.7-1.3-0.7c-0.4,0-0.7,0.6-1.2,0.7c-0.4,0.1-0.7,0.1-1.1,0.1c-0.1,0-0.2-0.1-0.3-0.1
	c-0.7-0.4-1.1-0.2-1.6,0.4C136.8,89.6,136,90.4,135.2,91.2z"/>
<path class="st20" d="M122.1,109.8c0.5,0.9,1.4,0.4,2.1,0.5c0.2,0,0.2-0.1,0.3,0.2c0.2,0.7,0.6,1,1.4,1c1.9,0.1,3.9,0.3,5.8,0.5
	c0.7,0.1,1.5,0.1,2.2,0.2c-0.8,0.2-1.7,0-2.5-0.1c-1.6-0.1-3.3-0.2-4.9-0.4c-0.4,0-0.7,0-1.1-0.1c-0.4-0.1-0.6,0.1-0.9,0.3
	c-0.8,0.6-0.5,1.3-0.4,2c0.1,0.9,0.3,1.7,0.2,2.6c-0.1-1-0.3-1.9-0.4-2.9c-0.1-0.6-0.1-1.2-0.8-1.4c-0.4-0.1-0.6-0.5-0.5-0.9
	c0.2-0.7-0.2-1.1-0.7-1.4C121.9,109.9,121.9,109.8,122.1,109.8z"/>
<path class="st39" d="M122.3,105c0.4-0.8,1.1-1.3,1.7-2c3.2-3.5,6.4-7,9.7-10.5c0.1-0.1,0.2-0.5,0.5-0.1c-1.1,1.1-2.1,2.3-3.2,3.4
	c-0.7,0.7-1.3,1.5-2,2.2c-1.8,2-3.6,3.9-5.5,5.9c-0.3,0.4-0.6,0.8-1,1.1C122.4,105,122.4,105,122.3,105z"/>
<path class="st1" d="M122.1,109.8c0,0-0.1,0.1-0.1,0.1c-0.7-0.6-1.3-1.2-2-1.9c0.1,0,0.1,0,0.2,0
	C120.8,108.6,121.5,109.2,122.1,109.8z"/>
<path class="st3" d="M30.5,116.5c0,0.1,0,0.2-0.1,0.4c-0.1,0.2-0.1,0.5-0.4,0.4c-0.3-0.1-0.3-0.3-0.2-0.6c0-0.1,0-0.2,0-0.3
	c0-0.2-0.5-0.2-0.2-0.5c0.2-0.2,0.4-0.2,0.6-0.1C30.5,115.9,30.5,116.2,30.5,116.5z"/>
<path class="st3" d="M29,119c0,0.2-0.2,0.3-0.3,0.3c-0.4,0-0.5-0.3-0.6-0.6c0-0.1,0-0.3,0.2-0.3C28.6,118.4,28.8,118.7,29,119z"/>
<path class="st3" d="M28.9,119.4c0.6,0.3,1.1,0.4,1.4,0.9C29.6,120.4,29.3,120,28.9,119.4z"/>
<path class="st3" d="M22.7,121.4c0,0.4-0.2,0.6-0.5,0.7c0,0-0.1-0.1-0.1-0.1C22.2,121.8,22.4,121.6,22.7,121.4z"/>
<path class="st3" d="M32.6,113c0,0.2-0.2,0.2-0.3,0.2c-0.1,0-0.3-0.1-0.3-0.2c0-0.2,0.2-0.2,0.3-0.2C32.4,112.8,32.5,112.9,32.6,113
	z"/>
<path class="st3" d="M24.9,118.4c-0.1,0.2-0.2,0.3-0.4,0.3c-0.1,0-0.2,0-0.2-0.1c0-0.2,0.2-0.3,0.3-0.3
	C24.8,118.2,24.9,118.3,24.9,118.4z"/>
<path class="st3" d="M21.4,122.6c0.1,0.3,0.1,0.5-0.2,0.7C21.1,122.9,21.4,122.8,21.4,122.6z"/>
<path class="st27" d="M131.6,65.7c0.1,0,0.2-0.1,0.2-0.1c0.7,1.9,1.5,3.8,2.2,5.6c0.1,0.2,0.1,0.4,0.1,0.6c-0.5-0.7-0.7-1.5-1-2.3
	C132.6,68.3,132.1,67,131.6,65.7z"/>
<path class="st7" d="M147,91.1c-1.5-0.8-2.8-1.8-4.2-2.8c0.7,0.1,1.1,0.6,1.7,1C145.3,89.9,146.3,90.3,147,91.1z"/>
<path class="st7" d="M136.5,78c-0.7-1.2-1-2.5-1.6-3.8c-0.2-0.4-0.4-0.8-0.4-1.3c0.4,0.2,0.4,0.7,0.5,1
	C135.5,75.3,136.2,76.6,136.5,78z"/>
<path class="st7" d="M138.7,83.6c-0.4-0.7-0.7-1.4-0.8-2.1C138.3,82.1,138.6,82.8,138.7,83.6z"/>
<path class="st7" d="M137.1,79.3c-0.4-0.3-0.5-0.8-0.6-1.4C136.9,78.4,136.9,78.9,137.1,79.3z"/>
<path class="st7" d="M137.9,81.5c-0.3-0.4-0.5-0.9-0.5-1.4C137.6,80.5,137.8,81,137.9,81.5z"/>
<path class="st7" d="M134.5,72.9c-0.3-0.3-0.4-0.7-0.4-1.1C134.4,72.1,134.5,72.5,134.5,72.9z"/>
<path class="st7" d="M130.9,76.2c1.1,1.1,2.2,2.3,3.1,3.5c-0.1,0-0.2,0-0.2,0c-1-1.1-1.9-2.2-2.9-3.3
	C130.9,76.4,130.9,76.3,130.9,76.2z"/>
<path class="st7" d="M129.8,75c0.4,0.2,0.7,0.5,0.8,0.9C130.2,75.8,130,75.5,129.8,75z"/>
<path class="st3" d="M126.9,53.8c0.2,0.2,0.3,0.4,0.3,0.7c0,0.4,0,0.7-0.4,1.1C126.7,54.8,126.9,54.3,126.9,53.8z"/>
<path class="st3" d="M129.1,69.6c-0.1-0.3-0.6-0.4-0.4-0.8c0-0.1,0.3-0.1,0.4-0.1C129.3,69,129.1,69.3,129.1,69.6z"/>
<path class="st3" d="M127.2,69.8c-0.3-0.2-0.7-0.2-0.8-0.6c0-0.1,0.1-0.2,0.2-0.2C127,69.1,127.2,69.3,127.2,69.8z"/>
<path class="st3" d="M127,67.4c-0.2,0.1-0.4,0.2-0.6,0c0,0,0-0.1,0-0.2C126.7,67.1,126.8,67.2,127,67.4z"/>
<path class="st3" d="M83.2,110.9c0.3,0,0.5,0.1,0.5,0.3c0,0.1-0.1,0.2-0.2,0.2C83.2,111.4,83.2,111.2,83.2,110.9z"/>
<path class="st3" d="M83.6,110.2c0.3,0.1,0.6,0.2,0.6,0.5c0,0-0.1,0.1-0.1,0.1C83.8,110.7,83.7,110.5,83.6,110.2z"/>
<path class="st3" d="M97.4,96.4c0.3-1.4,0.7-2.8,1.8-3.9c0,0,0.1-0.1,0.2-0.1c0.1-0.2,0.2-0.6,0.5-0.4c0.2,0.2-0.1,0.5-0.2,0.6
	c-1,0.9-1.4,2.1-1.5,3.4c0,0.2-0.1,0.3-0.1,0.5c0,0.2-0.1,0.5-0.4,0.5C97.3,97,97.5,96.7,97.4,96.4z"/>
<path class="st3" d="M100.1,90.2c0.7,0.2,0.9,0.8,1.4,1.1C100.6,91.4,100.3,90.9,100.1,90.2z"/>
<path class="st3" d="M97.9,98.1c-0.2-0.1-0.3-0.2-0.3-0.3c0-0.2,0.2-0.3,0.3-0.3c0.2,0,0.1,0.2,0.1,0.3C98.1,98,98,98.1,97.9,98.1z"
	/>
<path class="st3" d="M100.3,95.9c-0.1,0.2-0.2,0.3-0.4,0.3c-0.1,0-0.1-0.1-0.1-0.2C99.9,95.8,100.1,95.8,100.3,95.9z"/>
<path class="st3" d="M99,96.8c-0.1,0.2-0.2,0.4-0.4,0.4c0,0-0.1-0.1-0.1-0.1C98.5,96.9,98.7,96.7,99,96.8z"/>
<path class="st3" d="M101.2,90.1c0.1,0.2,0.2,0.4,0.2,0.6C101,90.6,101,90.4,101.2,90.1z"/>
<path class="st3" d="M103,80.7c0,0.3,0.3,0.3,0.6,0.4c0.3,0,0.5,0.1,0.5,0.4c0,0.4,0,0.8-0.3,0.9c-0.9,0.2-0.8,0.9-0.8,1.5
	c0,0.4,0,0.8-0.6,0.6c-0.1,0-0.2,0-0.2,0c-0.2,0.4-0.4,0.3-0.7,0c0,0.1,0,0.1-0.1,0.2c-0.2-0.6-0.2-1.2-0.3-1.8
	c0.1-0.3,0.2-0.6,0.2-1c0.1-0.1-0.1,0-0.1,0c0,0,0,0,0,0.1c0,0.1-0.1,0.1-0.1,0.1c-0.3-0.5-0.2-1,0-1.5c0.2-0.5,0.6-0.1,0.9-0.2
	c0,0.2,0.1,0.3,0.3,0.2C102.6,80.5,102.8,80.6,103,80.7z"/>
<path class="st1" d="M101,82.1c0-0.2-0.1-0.5,0.1-0.6c0,0,0.2,0,0.2,0c0.2,0.2,0.1,0.5,0.1,0.7c-0.1,0.2-0.2,0.5-0.4,0.7
	C101,82.7,101,82.4,101,82.1z"/>
<path class="st3" d="M101.3,85.6c0.1-0.1,0.2-0.3,0.3-0.4c0.3,0.4-0.4,0.7-0.2,1.1C101.2,86.1,101.3,85.8,101.3,85.6z"/>
<path class="st7" d="M136.3,87.5c-0.2,0.3-0.6,0.4-1.1,0.4C135.6,87.6,135.9,87.5,136.3,87.5C136.3,87.5,136.3,87.5,136.3,87.5z"/>
<text transform="matrix(1.2145 0 0 1 63.7202 74.3022)"><tspan x="0" y="0" class="st40 st41 st42">Scheda n.2</tspan><tspan x="0" y="14.4" class="st40 st41 st42">PIN: 8888</tspan></text>
</svg>
