<?xml version="1.0" encoding="utf-8"?>
<!-- Generator: Adobe Illustrator 23.1.1, SVG Export Plug-In . SVG Version: 6.00 Build 0)  -->
<svg version="1.1" id="Livello_1" xmlns="http://www.w3.org/2000/svg" xmlns:xlink="http://www.w3.org/1999/xlink" x="0px" y="0px"
	 viewBox="0 0 112 157" style="enable-background:new 0 0 112 157;" xml:space="preserve">
<style type="text/css">
	.st0{fill:#FFFFFF;}
	.st1{fill:#D2232E;}
	.st2{fill:#BA4244;}
	.st3{fill:#B35050;}
	.st4{fill:#AF393C;}
	.st5{fill:#E9D4CD;}
	.st6{fill:#B0323A;}
	.st7{fill:#C75854;}
	.st8{fill:#B92D32;}
	.st9{fill:#E95F4E;}
	.st10{fill:#B4232C;}
	.st11{fill:#C15652;}
	.st12{fill:#B32D32;}
	.st13{fill:#D4504B;}
	.st14{fill:#CE4E4D;}
	.st15{fill:#B13D44;}
	.st16{fill:#AD676C;}
	.st17{fill:#A52730;}
	.st18{fill:#C06A73;}
	.st19{fill:#F0EAE5;}
	.st20{fill:#B27982;}
	.st21{fill:#F2EFEA;}
	.st22{fill:#DA352F;}
	.st23{fill:#ED4F38;}
	.st24{fill:#EEE7E0;}
	.st25{fill:#F0CDC3;}
	.st26{fill:#FAD7CE;}
</style>
<path class="st0" d="M0,78.1C0,54.9,0,31.8,0,8.6C0,0.8,0.9,0,8.7,0c31.7,0,63.3,0,95,0c6.7,0,7.9,1,7.9,7.3
	c0.1,47.7,0,95.4,0.1,143c0,4.5-1.9,6.6-6.7,6.6c-32.7-0.1-65.4-0.1-98-0.1c-5.7,0-7-1.3-7-7.2C0,125.8,0,101.9,0,78.1z"/>
<path class="st1" d="M74.3,66.2c5.7,6.1,4.3,11.8-0.8,17.4c-1.2,1.3-2.1,2.9-3.2,4.4c-1.5,1.3-1.3,3.3-2.1,4.9
	c-2.4,4.6-5.5,8.7-8.3,13.1c-2,3.2-3.9,3.2-6.2,0.2c-3.1-4.1-5.8-8.5-8.1-13.1c-0.5-1-0.5-2.2-1.3-3c-2.3-3.6-4.4-7.3-7-10.7
	c-2.7-3.5-3-6.7,0.2-10c1-1,1.8-2.3,2.7-3.5c5.6-2.1,7.3-7.7,10.4-12c0.8-1.1-0.9-2-0.9-3.2c0.2-3.4,2.6-5.6,4.4-8.1
	c2.1-2.8,4.5-2.7,6.3,0.3c2.8,4.8,6.3,9.2,9,14.1c0.3,1.1,0.8,2.1,1.6,2.9C72.4,61.9,74,63.7,74.3,66.2z"/>
<path class="st2" d="M67.5,92.3c0.9-1.4,0.4-3.9,2.9-4.2c0,1.1-1.2,2.3,0.1,3.2c1.2,0.7,1.7-0.6,2.4-1.2c1.5-1.3,2.9-2.7,4.5-3.9
	c3.4-2.6,6.9-2.1,10.2,0c3.6,2.2,5.1,5.7,4.4,9.8c-0.4,2.7-2,4.5-5,4.5c-1.5,0-2.5-0.7-3-2.2c-0.5-1.5,0.2-2.5,1.2-3.5
	c0.8-0.8,3-0.5,2.2-2.6c-0.7-1.9-2.2-2.9-4-3.4c-2.8-0.8-8.9,2.8-9.9,5.5c-0.6,1.6,0.3,2.2,1.5,2.5c1.2,0.3,1.9-0.1,1.4-1.6
	c-0.4-1.3,0.3-1.9,1.5-1.7c1.3,0.3,2,1.4,1.6,2.6c-1,2.9-3.3,4.3-5.7,2.4c-2.9-2.4-3.9-0.6-5.3,1.3c-2.7,3.7-5.4,7.4-8.1,11.2
	c-0.1-0.2-0.3-0.4-0.4-0.5c0.3-4.9,3.4-8.5,5.7-12.5C66.6,96.3,68.7,94.8,67.5,92.3z"/>
<path class="st3" d="M42.6,58.2c-1.4,1.3-2.9,2.6-4.3,4c-4.8,4.7-8.4,5-13.9,1c-0.2-1.5-0.9-3.1,1-4c5.8,3.2,10,2.4,13.7-2.5
	c0.6-0.8,1.6-1.5,0.4-2.4c-0.6-0.5-1.5-1-2.2-0.9c-1.3,0.1-0.7,1.1-0.5,1.9c0.3,1.1-0.4,1.7-1.2,1.7c-1.1,0-1.8-0.9-2.1-1.9
	c-0.4-1.2,0-2.3,1-3.1c1.6-1.3,3.5-1.7,5-0.4c2.4,2.1,3.6,1,4.9-1.1c1.9-3.1,4-6.1,6-9.1c1.7-2.3,2.5-1.4,2.3,0.8
	c-0.2,2.3-1.6,4.3-2.8,6.3c-1.8,3-3.9,5.8-5.6,8.8C44,57.8,43.4,58.3,42.6,58.2z"/>
<path class="st4" d="M44.3,90.1c1.2,0.1,2,0.6,2,2c-1.6,2.1,0,3.6,0.9,5.3c1.1,1.9,2.9,3.6,2.6,6.1c-0.3,0.7-0.8,1.2-1.6,0.8
	c-1-1.3-2-2.6-3-4c-1.5-2.1-2.5-4.2-5.7-1.6c-2,1.6-4.6,0.4-5.6-2.2c-0.6-1.5,0.3-2.7,1.8-3c1.3-0.2,1.8,0.6,1.2,1.9
	c-0.5,1-0.1,1.7,0.9,1.6c0.7-0.1,1.6-0.6,2.1-1.1c0.8-0.7,0.1-1.4-0.3-2.2c-2.9-4.2-6.8-5.4-12.7-3.6c-1,0.8-2.2,1.7-3.5,1
	c-0.8-0.4-0.7-1.3-0.2-2.1c4.8-6.2,10.3-6,16.9,0.6C41.5,90.8,42.5,93.6,44.3,90.1z"/>
<path class="st5" d="M43.5,57.4c1.9-5.5,6.1-9.6,8.3-14.9c0.9-2.1,0.6-2.5-1.3-1.2c0-2.3,2.5-3.8,2.1-6.3c2.6,0.8,5.3,0.4,7.9,1.3
	c0,1.7,2.3,2.3,1.8,4.1c-0.1,4.1,3.3,6.5,5.1,9.6c0.9,1.7,2.4,3.2,3.1,5c0.7,1.7,0.5,1.8-1.9,2.9c-3.1-4.8-6.4-9.6-9.3-14.5
	c-1.8-3.1-3-2.2-4.4,0.1c-1.5,2.5-3,5.1-4.4,7.7c-0.4,2.3-1.8,4.2-3.2,5.9C46,58.2,44.8,59.2,43.5,57.4z"/>
<path class="st6" d="M68.5,57.9c3-1.4,0.7-2.9-0.1-4.2c-2.4-4.3-5.2-8.3-7.5-12.7c-1.1-2.2,0.8-0.5,1.3-0.6
	c1.9,4.2,5.1,7.5,7.7,11.2c1.3,1.9,2.3,0.9,3.5,0c1.6-1.2,3.4-1.4,4.9-0.1c1.2,1.1,2.9,2.5,1,4.4c-1.7,1.6-2.8,0.3-4.1-0.9
	c-0.1,1.2,0.9,2.1,1,3.2c0.4,0.3,0.7,0.6,1.1,0.9c3,2.6,6.3,2.2,9.6,1c1.3-0.5,3-1.8,3.4,1c-0.8,1.8-2.7,2.5-4.1,3.7
	c-3.1,1.2-6.1,1.8-8.9-0.8l0,0c-2.7-0.9-4.1-4.2-7.4-4.1C68.5,60,68.4,59,68.5,57.9z"/>
<path class="st7" d="M90.4,61.2c-1.5-1.9-2.5,0.2-3.8,0.5c-3.5,0.7-7.1,1.7-9.3-2.4c1.2-0.4,1.9,0.6,2.8,1c4.8-0.2,6.2-1.1,6.4-4.3
	l-0.1,0c-2.6-1.3-3.6-3.1-2-5.8c2.6-1.3,5.3-1.6,6.9,1.1C93.4,54.7,93.1,58.2,90.4,61.2z"/>
<path class="st8" d="M60.4,111.1c-0.3,1-0.2,1.9,0.3,2.8c1.2,2.3,1.1,4.5-0.9,6.2c-1.6,1.3-3.7,1.4-5.5,0.2
	c-2.4-1.7-2.6-3.9-1.1-6.4c1.1-0.4,0.5-1.8,1.5-2.3C56.5,110.8,58.4,110.2,60.4,111.1L60.4,111.1z"/>
<path class="st9" d="M43.5,57.4c1.9,1,2.4-0.4,3.2-1.7c1-1.6,1.7-3.5,3.6-4.5c2.2,0.7,2.9,2,1.5,4c-2.4,3.4-5,6.6-7.2,10.1
	c-1.3,2.2-2.7,1.1-4.3,0.8c0.1-2.8,4.1-4.4,2.3-7.7C42.9,57.9,43.2,57.7,43.5,57.4z"/>
<path class="st10" d="M60.4,36.2c-3,1.6-5.7,1.7-7.9-1.3c-0.5-2.6-0.3-4.9,2.5-6.2c1.9-0.9,3.5-0.5,4.9,0.8
	C62.1,31.6,61.6,33.9,60.4,36.2z"/>
<path class="st11" d="M23.3,89c0.5,3,2.6,0.5,3.8,1.1c-0.4,1.6-2.8,3.4,0.9,4.4c2,0.6,2.9,2.5,1.5,4.4c-1.4,1.9-3.4,1.8-5.4,0.9
	C20.7,98.1,20.4,93.9,23.3,89z"/>
<path class="st12" d="M25.4,59.1c-1.3,1.1,0.6,3-1,4c-3.3-2.7-4.1-6.3-3-10.2c0.6-2.3,2.5-3.4,5-3.1c1.5,0.1,2.6,0.8,2.8,2.3
	c0.3,2.2-1.1,3.4-3,3.9C24,56.6,24.2,57.7,25.4,59.1z"/>
<path class="st13" d="M13.5,39.7c-1.6-2.3-3.6-3.8-3.9-5.6c-0.3-2.4,1.8-5,3.8-5.4c1.7-0.3,3.4,2.7,3.7,4.5
	C17.6,35.7,14.9,36.9,13.5,39.7z"/>
<path class="st14" d="M99.6,127.6c-4.8-5.1-4.8-5.1-0.2-10.3C104.5,122.1,104.5,122.1,99.6,127.6z"/>
<path class="st15" d="M12.2,10c0.2-1.3,0.9-2.4,2.3-3.7c2.4,5.6,4.7,10.8,7,16.1c-4.9,1.5-3.9-3-5.4-4.9c-0.1-0.9-1-1.3-1.3-2.1
	c-0.6-1.3-1.3-2.6-2.3-3.7C12.2,11.2,11.9,10.6,12.2,10z"/>
<path class="st16" d="M95.5,136.2c3.4,1.2,7.2,3.7,7.3-3c0-1.5,1.5-1,2.3-0.9c1.6,0.1,1.1,1,0.6,2c-2.1,4.3-4.1,8.6-6.2,12.9
	c-1.2-0.6-1.6-1.7-1.6-3c0.1-1.1,1.5-2,1-3.1c-0.3-0.5-1.4,0.5-2.2,0.3C95.2,139.9,94.4,138.3,95.5,136.2z"/>
<path class="st17" d="M98.5,144c0.3,1,0.7,2.1,1,3.1c-1.4,2.3-1.9,0.8-2.4-0.5c-1.9-4.5-3.8-9-5.7-13.6c4-2.3,3.7,0.9,4.1,3.2
	c0.3,1.7,0.7,3.5,1.8,4.9C98.8,141.6,99.2,142.6,98.5,144z"/>
<path class="st18" d="M12.2,10c0.4,0.5,0.8,0.9,1.2,1.4c0.2,1.5-0.6,3.6,2.1,3.7c0.7,0.7,0.7,1.5,0.5,2.4c-2.9,0.2-6.9-1.3-6.2,4.2
	c0.2,1.6-1.2,1.3-2.1,1.3c-1.3,0-1.7-0.8-1.1-2C8.6,17.4,10.4,13.7,12.2,10z"/>
<path class="st19" d="M69.9,60.1c0.2-1.6,0.7-2.7,2.4-1.2c1.8,1.7,3.4,3.5,5.1,5.2c-1.5,0-2.9,0.1-3,2.1
	C72.9,64.2,71.4,62.1,69.9,60.1z"/>
<path class="st20" d="M54.4,112.2c-0.1,0.8-0.3,1.5-1.2,1.7c-0.4-3.8-3.9-6.1-5-9.6c0.5-0.4,1-0.7,1.5-1.1
	C53.3,105.1,55.4,107.8,54.4,112.2z"/>
<path class="st21" d="M76.2,58.3c-0.9-0.8-1.8-1.5-2.6-2.3c-0.7-0.6-1-1.3-0.2-2.1c0.7-0.7,1.6-1.3,2.6-1.2c1.1,0.2,0.8,1,0.7,1.9
	c-0.3,2.5,1.4,1.4,2.6,1.3C78.9,57.5,76.8,57,76.2,58.3z"/>
<path class="st19" d="M77.4,64.1c2.9,1.2,5.9,1.5,8.9,0.8c-1.1,1.9-3.3,1.9-5,2.8C78.2,69.3,78.5,65.7,77.4,64.1z"/>
<path class="st21" d="M86.5,56c1.6,0,2.3,0.8,1.3,2.1c-2,2.4-4.4,4.1-7.7,2.2C82.2,58.8,85.4,58.9,86.5,56z"/>
<path class="st21" d="M84.5,50.2c-0.9,2.5,0,4.3,2,5.8C82.7,55.1,81.1,53.5,84.5,50.2z"/>
<path class="st22" d="M62.4,61.2c4.1,3.8,5.9,9.1,9.2,13.4c2.1,2.7-4.1,3.9-2.1,7.2c-3.6,0.9-4.7,5.5-8,6.1c-1.4,0.3-6.2,6-5.9-1.7
	c0-0.3-0.8-0.8-1.2-0.8c-8.5,1.8-8.7-6.1-12-10.3c1.9-2.3,4.6-2.3,7.2-2.3c3.7,0.1,6.1-1.5,6.2-5.4C56,63.1,58.3,61.3,62.4,61.2z"/>
<path class="st23" d="M62.4,61.2c-4.2,1.5-5.3,4.7-5.5,8.9c-0.1,2.9-2.3,4.2-5.2,4.1c-3.1-0.1-6.2-0.1-9.2,1
	c4.2-6.8,8.4-13.6,12.7-20.4c1.3-2.1,2.2-1.3,3.2,0.3C59.6,57.1,61,59.1,62.4,61.2z"/>
<path class="st24" d="M54.4,112.2c-0.8-3.4-2.7-6.3-4.6-9.1c-1.7-2.6-3.4-5.1-5.1-7.7c-1.2-1.9-1.3-3.5,1.7-3.3
	c2.9,4.6,5.7,9.2,8.6,13.8c1.6,2.5,2.7,2,4.1-0.3c2.7-4.5,5.6-8.9,8.4-13.3c4.6,0.4,1.5,2.6,0.8,3.8c-2.9,4.9-6.6,9.3-7.8,15.1
	C58.6,112.7,56.4,111.8,54.4,112.2z"/>
<path class="st25" d="M15.6,15.1c-0.9,1.4-2.6,1.6-3.4,0.6c-1.2-1.5,0.5-3,1.3-4.3C15,12.2,15,13.8,15.6,15.1z"/>
<path class="st26" d="M98.5,144c-0.4-1-0.8-1.9-1.2-2.9c-0.1-2.3,2.1-2.6,2.8-1.8C101.5,141.1,100.3,142.9,98.5,144z"/>
</svg>
