<?xml version="1.0" encoding="utf-8"?>
<!-- Generator: Adobe Illustrator 23.1.1, SVG Export Plug-In . SVG Version: 6.00 Build 0)  -->
<svg version="1.1" id="Livello_1" xmlns="http://www.w3.org/2000/svg" xmlns:xlink="http://www.w3.org/1999/xlink" x="0px" y="0px"
	 viewBox="0 0 112 157" style="enable-background:new 0 0 112 157;" xml:space="preserve">
<style type="text/css">
	.st0{fill:#FFFFFF;}
	.st1{fill:#DE7231;}
	.st2{fill:#E0232E;}
	.st3{fill:#DF232E;}
	.st4{fill:#F6E3DD;}
	.st5{fill:#272023;}
	.st6{fill:#F8E4DF;}
	.st7{fill:#231E20;}
	.st8{fill:#DA232E;}
	.st9{fill:#C6C3C6;}
	.st10{fill:#D9D8D7;}
	.st11{fill:#D9D8D8;}
	.st12{fill:#C3C2C4;}
	.st13{fill:#C12F2D;}
	.st14{fill:#C32F2D;}
	.st15{fill:#D66931;}
	.st16{fill:#DB6B31;}
	.st17{fill:#858386;}
	.st18{fill:#808287;}
	.st19{fill:#B03F4A;}
	.st20{fill:#6E281F;}
	.st21{fill:#DD262E;}
	.st22{fill:#6B271A;}
	.st23{fill:#A13034;}
	.st24{fill:#E99A34;}
	.st25{fill:#ECA033;}
	.st26{fill:#B4B5B8;}
	.st27{fill:#B9BBB9;}
	.st28{fill:#DF5C56;}
	.st29{fill:#B2B4B6;}
	.st30{fill:#DB5B58;}
	.st31{fill:#A99F9C;}
	.st32{fill:#7A7373;}
	.st33{fill:#75696A;}
	.st34{fill:#B62A2B;}
	.st35{fill:#B25D62;}
	.st36{fill:#A33428;}
	.st37{fill:#BC6C6E;}
	.st38{fill:#A22828;}
	.st39{fill:#232020;}
	.st40{fill:#F1D3CF;}
	.st41{fill:#DE8B34;}
	.st42{fill:#DD7032;}
	.st43{fill:#CD3F2E;}
	.st44{fill:#E7C3BE;}
	.st45{fill:#E28433;}
	.st46{fill:#403F3A;}
</style>
<path class="st0" d="M0,153.7C0,105.5,0,57.3,0,9.1C0,0.5,0.6,0,9.2,0c31.5,0,63,0,94.5,0c7,0,8.3,1.2,8.3,8.1c0,47,0,94.1,0,141.1
	c0,6.3-1.4,7.7-7.7,7.7c-32.4,0-64.7,0-97.1,0.1C4.1,157,1.6,156.5,0,153.7L0,153.7z"/>
<path class="st1" d="M35.1,108.4c-0.5,0-1,0-1.5,0.1c-2.7-1.6-3.1-4.6-4-7.2c-1.9-5.4-4.9-10.5-5.4-16.4c0.7-5.3,4.9-5.1,8.8-5.5
	c2.2,0.1,4.2-1.4,6.5-1c0.5,0.5,0.8,1.2,1,1.9c1.5,5.2,3.1,10.3,4.4,15.5c0.2,1.1,0.7,1.9,2,1.3c0.7-0.2,1.3-0.1,2,0
	c3.6,1.1,7.7-1.4,11,1.8c-0.2,3.1-3,4.3-4.7,6.3C47.8,102.3,41.4,105.3,35.1,108.4z"/>
<path class="st2" d="M37.4,40.3c0,5,0,10,0,15.9c3.6-2.9,5.1-6.7,9.3-6.7c2.5,1.6,3.1,4.9,5.9,6.4c2.1,1.9,5.2,0.5,7.3,2.3
	c0.6,0.8,0.7,1.8,0.5,2.8c-3.8,5.5-9.6,8.7-15.2,12.1c-3.4,2.1-5.6-2-8.6-2.7c-1.4-0.3-2.1-2.1-3.6-2.6c-1.1-0.5-2.2-0.9-2.5-2.3
	c5.8-4.5,5.2-10.8,4.2-16.9c-0.3-1.8,0.2-3,0.5-4.5C35.2,42.4,33.4,39.7,37.4,40.3z"/>
<path class="st3" d="M59.6,99.6c-2.8-2-6-0.9-9-0.9c-1.1,0-1.9,0.4-2-1.1c0-0.8,0.4-1.3,1-1.8c5.2-3.1,9.3-8,15.1-10.1
	c1.9-0.2,3.6,0.3,3.8,2.2c0.6,4.9,4.8,7.2,7.5,10.6c0.2,0.4,0.4,0.8,0.4,1.3c-0.3,2.3-0.7,4.5,0.1,6.8c0.1,0.7,0.1,1.4,0,2.2
	c-0.9,1.9,0.3,4.6-2.3,5.9c0-4.3,0-8.6,0-13.7c-3.1,1.9-4.2,4.9-7,5.8C62,107.3,61.9,102.2,59.6,99.6z"/>
<path class="st4" d="M53.5,113.5c1.3,1.6,3.9,0,5.1,2c0.7,0.9,0.4,1.8,0.3,2.8c-0.4,3.5,1.1,5.2,4.7,5.1c1.9,4.4-0.8,8.8,0.2,13.2
	c-1.7,1.6-3.9,1.6-6.1,1.6c-2.4-0.3-4.9,0.3-7.2-1c-3-3.5-2.3-7.8-2.4-11.9C48.8,120.8,48.4,115.9,53.5,113.5z"/>
<path class="st5" d="M25.1,84.4c2.8,8,5.7,16,8.5,24c-3.9,0-7.5-1.5-11.2-2.5c-1.7-0.4-3.1-1.6-3.1-3.5c0-6.7,0-13.4,0.1-20
	c0-0.3,0.6-0.7,0.9-1C22.8,80.9,24.7,81.5,25.1,84.4z"/>
<path class="st6" d="M48.7,22.4c-3.4-2.7-3.6-6.5-3.1-10.3c2.2,0.1,2.3,2,2.8,3.5c0.7,2.1,2,3.3,4.3,3.3c3.1,0.3,6.3-0.7,9.2,1.1
	c1,1.3,1.2,2.8,1.3,4.3c-0.1,3.6,0.2,7.2-0.2,10.8c-0.3,3-0.6,6.3-4.4,7.2c-1.9,0.1-3.6-0.2-5.2-1.2c-0.6-3.4,0.5-7.7-4.6-8.8
	c-4-3-0.5-6.1-0.2-9.2c2.1-1,2.9,3.2,4.4,1.5c1.2-1.4-0.9-1.6-2-1.6C50.2,23,49.4,22.8,48.7,22.4z"/>
<path class="st7" d="M81.9,48.4c10.6,3.8,10.7,3.8,10.6,15.3c0,3.6,0.6,7.3-0.5,10.8c-2.5,1.7-4.2,0.6-5.6-1.6
	c-3.1-6-5.1-12.5-7.7-18.8c-0.8-1.9-2.1-3.9-0.7-6.1C79.3,47.9,80.7,47.4,81.9,48.4z"/>
<path class="st8" d="M87,72.4c1.1,1.9,3,2,5,2.1c-3.7,7.8-10,13.8-14.2,21.3c-0.8,0.8-0.8,2.2-2,2.8c-0.5,0.2-0.9,0.4-1.4,0.6
	c-1.2-4-7-4.8-6.7-9.8c0.1-2.2-0.9-3-3-2.9c0.3-3.8,2.8-4.3,5.5-2.9c1.9,1,3.9,1.8,5.7,3c2.3,1.6,4.1,0.1,4.5-2.6
	c0.5-3.1-1.8-5.3-2-8.2C80.4,72.5,83.9,72.9,87,72.4z"/>
<path class="st9" d="M75.8,98.5c0.2-1.2,0.3-2.5,2-2.8c0,6,0,12,0.1,18.1c0,1.2-0.7,3.1,1.1,3.4c1.4,0.2,2.2-1.3,2.9-2.4
	c0.3-0.6,0.6-1.2,0.8-1.8c0.5-1.3-0.2-3.6,1.8-3.7c1.8-0.1,2.9,2.1,3,3.6c0.5,5.4,2.2,10.9-0.5,16.3c-0.5,0.9-0.8,2-1.9,2.1
	c-1.5,0.1-1.2-1.3-1.5-2.2c-0.9-2.6-1.7-5.1-4.6-6.2c-2.1,1.1-0.3,3.6-1.8,4.8c-1.9-0.6-1.8-2.8-3.1-3.9c0-2.7,0-5.4,0-8.2
	c3.3-1.7,0.7-5,2.1-7.2c0-0.6,0-1.1,0-1.7c-0.9-2.4-0.1-4.8-0.2-7.3C76,99.1,76,98.8,75.8,98.5z"/>
<path class="st10" d="M81.9,48.4c-1.3,0-2.6,0-3.9,0c-0.4,0.3-0.9,0.5-1.4,0.6c-2.5-0.9-4.8-0.2-7.2,0.6c-6.3,2.2-9.8,1.3-13.8-3.3
	c1-0.6,2-1.3,3-1.9c4.7-1.7,6.3-5.1,5.7-9.8c-0.1-2.5-0.2-5,0.2-7.4c0.2-1.1,0.4-2.6,1.8-2.7c1.4,0,1.5,1.5,1.8,2.6
	c-0.2,4.3,1.7,8.5,0.5,13c3-0.6,2.3-2.6,2.3-4.3c0-3.2-1.2-6.6,1.2-9.6c2.1,0.3,1.7,2,1.9,3.4c0.6,3-0.9,7.1,3.9,8.1
	c3.1,3.9,3,5-0.4,8.8C78.3,48.1,81,46.4,81.9,48.4z"/>
<path class="st11" d="M52.3,108.6c-1.2,0.1-1.8,0.8-1.8,2c-2.8,4.2-2.6,8.9-2.6,13.6c-0.1,1.7,0.2,3.8-1.8,4.7
	c-1.7,0.7-2.2-0.7-2.7-2c-0.7-3,0.4-6.2-1.2-9.2c-1.3,2.9-0.1,6-0.4,9c0,0.5,0,1,0,1.5c-0.2,1.6,0.2,4.2-1.6,4.3
	c-2.4,0.1-1.6-2.7-2.2-4.3c-0.6-1.5,0.3-3.4-1.5-4.5c-1-1.5-1.9-2.9-2.9-4.4c-3-4.4-0.7-7.2,2.9-9.7c3.9-1.6,7.6-3.6,12-3.3
	C50,106.4,52.3,105.8,52.3,108.6z"/>
<path class="st12" d="M37.4,40.3c-2.8,0.1-1.9,2.2-2.2,3.8C32.9,43,35.9,38.8,33,39c-2.8,0.2-3.4,3.7-4.2,6.3
	c-0.2,0.8-0.5,1.6-0.8,2.4c-6.7-4.9-7-15.6-0.4-23.3c1,2.6,0.7,5.5,2.7,7.4c0.9,0.9,1.7,2.6,3.1,2c1.2-0.5,2.4-1.7,2.6-3.4
	c0.1-1.1-1.3-3.1,0.9-3c2.2,0,1.6,2.3,1.4,3.6C37.8,34.1,37.3,37.1,37.4,40.3z"/>
<path class="st13" d="M57.6,136.9c2.1-0.1,4.1-0.2,6.2-0.3c0.8,3,1.7,6.1,2.7,9.7c-3-1-5.7,0.7-7.8,0.6c-4.4-0.2-8.9,2-13.1-0.3
	c-0.7-0.6-2.4-0.3-2.1-1.6c1-4.9,5-7.8,10.2-7.8C54.9,137.2,56.3,137.4,57.6,136.9z"/>
<path class="st14" d="M51.7,19.9c-2.4,0.8-3.7,0.1-4.2-2.4c-0.3-1.9-0.7-3.8-1.9-5.4c0.2-0.7-0.2-1.8,1.2-1.6
	c0.8,0.1,1.9,0.8,2.3,0.5c4.1-3.1,9.1,0.3,13.3-2.2c1.4-0.8,2.5,0.4,3.5,1.2c0.2,1.1,2.6,0.4,1.9,2.3c-1.8,4.9-5.4,7.3-11,7.5
	C55,19.7,53.3,19.5,51.7,19.9z"/>
<path class="st15" d="M51.7,19.9c1.8-1.4,3.9-0.5,5.8-0.9c3-0.6,6.8-0.7,6.7-5.1c0-1.8,4.4-1.4,1.7-4c1.8-0.1,3.6,0,5.5-0.3
	c4.9-0.7,7.4,2.4,5.8,7c-0.5,1.2-1.1,2.4-1.6,3.6c-4.6,2.2-9.3,2.3-13.9-0.1C58.2,20.1,55,20,51.7,19.9z"/>
<path class="st16" d="M57.6,136.9c-1.8,1.4-3.8,0.5-5.7,0.9c-2.4,0.5-5,0.9-4.4,4.4c0.3,1.6-0.7,2.1-2.2,2.6c-2,0.6,0.5,1.1,0.3,1.8
	c-0.8,0-1.8-0.3-2.5,0c-3.4,1.3-7,0.2-8.7-2c-1.8-2.4,0.8-5.4,2.1-8c4.7-2.3,9.3-2.3,14-0.1C52.8,136.7,55.2,136.8,57.6,136.9z"/>
<path class="st17" d="M50.5,136.5c-4.7,0-9.3,0.1-14,0.1c0-0.6,0-1.2,0.1-1.8c0.5-3.7,0.8-7.5-0.1-11.2c0,0,0,0,0,0
	c0.1-0.8,0.3-1.5,0.5-3.2c2.1,4.1,2,7.8,3.2,12.1c0.2-2.5,0.3-4.2,0.4-5.8c0.9-1.8,2.1-2.4,3.9-1c0.1,0.9-0.2,2.4,0.9,2.5
	c1.4,0.2,1.1-1.3,1.2-2.1c0.1-0.8,0-1.6,0-2.4c1.4-0.7,2.1,0.2,2.9,1.1C49.7,128.7,50.1,132.6,50.5,136.5z"/>
<path class="st18" d="M61.5,20.2c4.6,0,9.3,0,13.9,0.1c-0.2,1.3-0.5,2.6-0.7,3.9c-1.5,1.7,1.3,4.7-1.9,6c-0.3-1.3,0.4-2.8-1-3.8
	c-1.2,1.5-0.4,3.2-0.6,4.7c-0.1,1.1,0.1,2.5-1.5,2.6c-1.4,0.1-2-1-2.4-2.1c-0.3-1.1,0.2-2.3-0.6-3.3c-0.1-0.9-0.2-1.9-0.3-2.8
	c-0.3,0-0.6,0-0.9,0.1c0,3.2,0,6.4,0,9.6c-2.4,1.5-3.3,0.5-3.4-2c-0.1-3,0.4-6-0.4-8.9C61.7,22.8,61.6,21.5,61.5,20.2z"/>
<path class="st19" d="M18.6,7.3c-7.8,7.3-7.8,7.3,1.8,15.1C18,23.2,18,23.2,9.2,16.3c0.1,2,0,3.6,0.4,5.1c0.6,2-0.5,1.9-1.7,2
	c-1.3,0-2.1-0.1-1.9-1.9c0.3-4,0.5-8,0.2-12C6,7.7,5.8,6.9,7.8,6.9c2.2,0,1.9,1,1.5,2.5c-0.3,1.1-0.1,2.3-0.1,3.4
	C13.7,13,13,5.7,18.6,7.3z"/>
<path class="st20" d="M52.3,108.6c-3.8-3.1-7.5-1.1-10.9,0.4c-1.8,0.8-3.2,1.4-5,0.5c-0.4-0.4-0.9-0.8-1.3-1.2
	c6-5.6,12.7-7.7,20.5-3.8c2.1,0.5,4,1.2,3.4,4C56.8,109.9,54.6,111.8,52.3,108.6z"/>
<path class="st21" d="M25.1,84.4c-0.9-2.1-3.2-2-4.7-3.1c3.4-5.3,6.9-10.6,10.3-15.9c1,0.3,1.9,0.7,2.9,1c0.6,0.8,0.3,1.5-0.1,2.3
	c-1.9,3.9-2.3,7.8,0.3,11.5C30.8,81.5,26.3,79.7,25.1,84.4z"/>
<path class="st22" d="M55.6,46.2c5.3,3.8,10.8,4.3,16.4,0.7c2-1.3,3.3,0.8,4.9,1.5c-3,5.1-10.2,7.7-17.3,6.3c-3-1.4-6.7-2-7.1-6.3
	C53.5,47.7,54.6,47,55.6,46.2z"/>
<path class="st23" d="M100.1,142.7c-2-3.5-5.6-5.6-8.2-8.5c4-1,4-1,5.4,1.1c1.3,1.9,3,3.5,5.4,5.3c0-2.5,0.6-4.5-0.6-6.4
	c3.8-0.9,3.6-0.9,3.5,2.8c-0.1,3.3,0,6.7,0,10c0,0.8,1.1,2-0.4,2.5c-0.8,0.3-1.8,0.3-2.5,0.1c-1.5-0.6,0-1.6-0.1-2.4
	c-0.2-1.3,1.8-3.6-1.5-3.5C100.2,143.9,99.9,143.6,100.1,142.7z"/>
<path class="st24" d="M59,108.5c-0.3-2-2.5-2.4-3.4-4c0.2-2.6,1.9-3.9,4-5c2,0.9,3.5,2.4,4.3,4.4c0.7,1.6,1.5,2.8,3.5,2.8
	C64.7,107.8,62,108.7,59,108.5z"/>
<path class="st25" d="M52.5,48.4c1.9,2.3,4.2,4.1,7.1,5.2c-1.5,4.3-5,2.9-8,2.8c-2.8-1.5-4.1-4-4.8-7C48.4,48.1,50.5,48.3,52.5,48.4
	z"/>
<path class="st26" d="M49.4,124.7c-1-0.4-1.9-0.7-2.9-1.1c-0.5-3.6,0.5-7.1,1-10.7c0.3-2.1,1.5-2.3,3-2.4c0.9,1.1,3.1,0.8,3,2.9
	C50.8,116.8,49.8,120.7,49.4,124.7z"/>
<path class="st27" d="M61.8,24.2c1.6,2.5,0.8,5.4,0.9,8.1c0.1,1.9,0.4,3.3,2.8,2.8c0.3,7.8-0.7,9.2-7,9.2c0-0.7,0-1.3-0.1-2
	C63.5,36.9,61.2,30.3,61.8,24.2z"/>
<path class="st28" d="M13.2,38.6c-1.4,0.1-5-2.7-4.8-4c0.3-2.4,2-4.6,3.8-5.5c1.6-0.7,2.5,1.6,2.7,3.3
	C15.1,34.7,12.9,36.3,13.2,38.6z"/>
<path class="st29" d="M72.9,30.2c2.1-1.5-0.1-4.4,1.9-6c0.3,4.6,0.1,9.3,3,13.3c-0.1,0.9,0.6,2.8-1.4,1.6
	C72.9,37.1,72.4,33.8,72.9,30.2z"/>
<path class="st30" d="M102.4,121.4c4,3.3-0.4,5.5-1.8,6.5c-2.4,1.8-2.6-1.7-3.7-3C97.9,122.4,99.7,121.2,102.4,121.4z"/>
<path class="st31" d="M48.7,22.4c1-0.2,2-0.4,2.9-0.7c1.6-0.5,3.1-0.5,3.8,1.2c0.8,2-1.5,2.8-2.2,4c-0.9,1.4-1.9-0.7-2.7-1.5
	c-0.7-0.7-1.3-1.5-1.9-2.3C48.7,22.9,48.7,22.7,48.7,22.4z"/>
<path class="st32" d="M48.8,32.3c5.1,0.9,6.2,2.9,4.6,8.8c-1.1,0.1-2.4,0.9-3.2-0.1c-1-1.2,0.3-2,1.1-2.8c1.7-1.6,1.4-2.9-0.7-3.6
	C49.2,34.2,48.4,33.8,48.8,32.3z"/>
<path class="st33" d="M63.6,123.4c-5.1,0.9-6.7-1.6-5-7.9c1.2,0.2,2.7-1.3,3.6,0.4c0.5,1-0.7,1.6-1.3,2.3
	C57.4,122.1,61.9,122.1,63.6,123.4z"/>
<path class="st34" d="M102.4,121.4c-1.8,1.2-3.7,2.3-5.5,3.5c-0.7-2.6-0.7-2.6,2.7-6.6C101.2,118.6,101.4,120.3,102.4,121.4z"/>
<path class="st35" d="M100.1,142.7c0.3,0.3,0.6,0.6,0.9,0.9c-0.7,2-3,2.7-3.6,5.1c-0.5,2.3-2.6,0.7-5.1,1.1
	C95.6,146.9,97.8,144.8,100.1,142.7z"/>
<path class="st36" d="M76.2,108.4c1.3,2,0.2,4.3,0.4,6.4c0.1,1.4-1.3,1.5-2.5,0.8c0.1-0.3,0.2-0.7,0.2-1
	C75.7,112.8,73.6,109.9,76.2,108.4z"/>
<path class="st37" d="M74.1,123.8c2.9-0.1,2.6,2.2,3.1,3.9c-0.7,1-1.7,2-2.7,1.1C73,127.4,73.9,125.5,74.1,123.8z"/>
<path class="st38" d="M13.2,38.6c-2.9-3,0.8-4.2,1.7-6.2C17.7,35.4,14.4,36.7,13.2,38.6z"/>
<path class="st11" d="M36.4,123.6c1.8,3.7,1.5,7.5,0.1,11.2C36.5,131.1,36.5,127.3,36.4,123.6z"/>
<path class="st39" d="M39.4,80.3c0-0.5-0.1-1-0.1-1.5c1-3.9,4.9-3.7,7.5-5.3c3-2,6.8-3.1,8.3-6.8c1.8-2.4,3.7-4.4,6.9-4.8
	c3.6,2.3,3.1,6.5,4.8,9.7c0.7,3.7,3.4,3.6,6.2,3.2c1.1,0.1,1.9,0.4,2,1.6c-4.3,5.8-11,8.6-16.6,12.8c-2.8,2.1-4.8,5.9-9.2,5.5
	c-2.3-2.1-2.8-5.1-3.9-7.8c-0.7-1.8-1.1-3.8-3.1-4.8C41.3,81.6,40.2,81.3,39.4,80.3z"/>
<path class="st40" d="M61.7,62.3c-2.2,1.6-4.3,3.2-6.5,4.9c-1.9,3.2-5.8,4.2-8,7.1c-2.2,2.3-5.9,2-7.9,4.5c-1.6,1.4-3.6,1.5-5.6,1.5
	c-3.6-1.7-3.1-5.5-4.4-8.3c2.2-0.2,1.5-3.1,3.2-3.6c1.3-0.3,0.8-1.2,1-1.9c2.4,2.5,6.1,3.1,8.3,5.9c1.5,1.8,2.8,0.1,3.8-0.7
	c4.7-3.4,9.3-7,14-10.5c0.6-0.6,1.2-1.4,2.2-1.2C63.6,60.9,62.9,61.6,61.7,62.3z"/>
<path class="st3" d="M39.4,80.3c1.3,0.1,2.5,0.1,3.8,0.2c1.5,5.6,5,10.8,3.3,17c0.1,0.8,0.6,1.8,0.3,2.3c-0.5,0.8-1-0.2-1.5-0.6
	c-2.3-1.9-1.8-4.9-2.7-7.3C41.4,88.1,40.5,84.2,39.4,80.3z"/>
<path class="st41" d="M46.6,97.5c-1.2-5.7-3.1-11.2-3.3-17c3.8,3.8,3.9,9.4,6.5,13.8c0.6,0.8,0.4,1.6-0.1,2.4
	c-0.3,0.3-0.7,0.6-1,0.9C47.9,97.6,47.3,97.5,46.6,97.5z"/>
<path class="st42" d="M74.7,76.3c-0.6-0.3-1.2-0.5-1.8-0.8c-2.3-2.5-3.5-5.6-4.2-8.8c-1.7-7.8-1.7-7.8-9.1-8.3
	c-2.8-0.4-6,1.3-8.1-1.9c2.3-1.9,6-0.2,8-2.8c6.8,1.4,12.2-1.3,17.4-5.3c0.4,0,0.7,0,1.1,0c3,8,6,16,9,24c-1.7,3.5-6.6,0.7-8.3,4.1
	C77.4,77,76,77.4,74.7,76.3z"/>
<path class="st43" d="M59.7,58.4c6.7-2,9.5-0.3,10,6.8c0.3,3.8,3.4,6.5,3.2,10.3c-3.5,1.7-6.1,1.4-6.9-3c1.6-4.4-0.3-8.2-2.1-12
	c-0.4-0.8-1.5-0.5-2.3-0.2c-0.7,0.3-1.3,0.6-2,0.9C59.7,60.2,59.7,59.3,59.7,58.4z"/>
<path class="st44" d="M74.7,76.3c1.4-0.8,2.8-1.4,4.1,0.2c1,1.1,2.1,2.2,3,3.3c0.4,0.5,0.7,1.1,1,1.6c-3.9,1,2.3,4.4-1.5,6
	c-1.1,0.4-4.1-0.1-3.9,2.7c-0.3,0-0.9-0.1-0.9-0.1c0.1-4.3-4.6-2.4-6.3-5c-2.2-3.3-3.7,0.4-5.4,1.5c-5.4,2.8-9.5,7.6-15.1,10.2
	c0-0.8,0.1-1.6,0.1-2.4C58,88.3,66.4,82.3,74.7,76.3z"/>
<path class="st36" d="M76,99.5c1.3,2.4,0.9,4.8,0.2,7.3C73.8,104.4,74.8,101.9,76,99.5z"/>
<path class="st29" d="M66.8,28.2c0.3,0.4,0.7,0.7,0.9,1.2c0.5,1.3,0,3.5,2,3.3c1.7-0.2,0.8-2.2,1-3.3c0.2-1.1-0.1-2.3,1.2-3
	c0.2,3.8-0.5,7.5,0.4,11.4c0.9,3.8-4.1,2.4-5.4,4.9C69,37.6,66.6,32.9,66.8,28.2z"/>
<path class="st26" d="M44.4,125.7c-1.5-0.2-2.7,0.2-3.9,1c-0.1-2,0-4-0.3-6c-0.6-4.3-0.7-4.3,4.2-5.4
	C44.4,118.9,44.4,122.3,44.4,125.7z"/>
<path class="st45" d="M61.6,60.2c1.8-2,3.3-3.2,4.2,0.7c0.8,3.4,2.2,6.7,1.9,10.3c-0.1,1.4-0.6,1.8-1.8,1.2
	c-1.5-3.3-1.9-7.1-4.3-10.1C61.9,61.6,62.4,60.9,61.6,60.2z"/>
<path class="st46" d="M47.2,74.3c1.1-4,5.2-4.9,8-7.1c2,0.9,0.6,2.2,0,2.5C52.5,71.2,50.4,73.6,47.2,74.3z"/>
</svg>
