<?xml version="1.0" encoding="utf-8"?>
<!-- Generator: Adobe Illustrator 23.1.1, SVG Export Plug-In . SVG Version: 6.00 Build 0)  -->
<svg version="1.1" id="Livello_1" xmlns="http://www.w3.org/2000/svg" xmlns:xlink="http://www.w3.org/1999/xlink" x="0px" y="0px"
	 viewBox="0 0 112 157" style="enable-background:new 0 0 112 157;" xml:space="preserve">
<style type="text/css">
	.st0{fill:#FFFFFF;}
	.st1{fill:#272324;}
	.st2{fill:#252424;}
	.st3{fill:#242324;}
	.st4{fill:#1B1B1B;}
	.st5{fill:#F1F0F1;}
	.st6{fill:#F2F0F0;}
	.st7{fill:#343434;}
	.st8{fill:#3E3E3E;}
	.st9{fill:#242021;}
	.st10{fill:#231E20;}
	.st11{fill:#373737;}
	.st12{fill:#272626;}
	.st13{fill:#676868;}
	.st14{fill:#666666;}
	.st15{fill:#414040;}
	.st16{fill:#484748;}
	.st17{fill:#3A383A;}
	.st18{fill:#E4E4E4;}
	.st19{fill:#D9D9D8;}
</style>
<path class="st0" d="M112,78.4c0,23.3,0,46.6,0,69.9c0,7.6-1,8.6-8.8,8.6c-31.5,0-63.1,0-94.6,0c-7.6,0-8.6-1-8.6-8.2
	C0,101.7,0,54.8,0,7.8C0,1,0.9,0.1,7.9,0.1c32,0,64.1,0,96.1,0c6.8,0,7.9,1,7.9,7.8C112,31.4,112,54.9,112,78.4z"/>
<path class="st1" d="M82.2,75.3c0.7,3.5,2.6,6.5,2.9,10.2c0.3,4.7,0,9.1-3.2,12.7c-1.6,1.7-1,3-0.1,4.4c1.4,2.1,2.7,0.2,3.8-0.3
	c4.4-2.1,7.5-5.5,9.2-10.1c0.6-1.5,2-4.5-2.2-3.2c-1.4,0.4-2.3-0.9-2-2.1c0.5-2,2-3.2,4.1-2.7c3.7,0.9,4.3,3.9,3.9,7
	c-0.9,6.6-5.6,10.4-10.9,13.4c-2.6,1.5-5.4,2.1-5.8,5.9c-0.2,1.5-1.8,2.8-3.9,1.4c0-1.8,3.3-1.6,2.4-3.7c-0.9-2.1-2.9-0.7-4.4-0.8
	c-4.2-0.4-8.2-1.2-12.5-4.1c5.3,0.6,9.6,2.1,14.1,1.3c1.1-0.2,3.1,0.4,2.4-2c-0.4-1.6-1.4-1.2-2.7-0.9c-11.2,2.6-16.9-2-17.4-14.8
	c-2.2,3.5-2.1,6.4-2.1,9.4c-0.1,3.9,0.4,7.7,1.5,11.3c1.2,3.8-0.4,4-3.5,4c-3,0-3.2-1-2.6-3.5c1.2-4.9,2.2-9.8,1.6-14.8
	c-0.3-2.1-0.1-4.4-2.5-6.4c0.5,4.6,0.2,8.5-2.9,11.7c-3.7,3.9-8.2,5.1-13.2,3.3c-2.7-1-3.7-0.5-3.9,2.3c-1.7,1-3.4,2-4.1-1
	c3.3,0.4,4.1-2.6,3-3.9c-6.1-7.3-3.8-15-1.9-22.8c0.8-5,3.7-8.8,6.9-12.4c0.8-0.8,1.6-1.5,2.4-2.2c1.1-0.9,2.5-1.5,3.4-2.7
	c3.8-2.9,7.7-5.7,11.5-8.7c2-1.6,3.7-1.3,5.8,0c5,3,8.7,7.6,14,10.2c1.2,0.9,1.9,2.3,3.1,3.2C78.8,67.4,81.9,70.6,82.2,75.3z"/>
<path class="st2" d="M77.9,50.4c-3.1-2.6-6.1-5.2-10.2-5.9c-1.4-0.2-3.3-0.9-2.8,1.8c0.2,1.2,0.7,2.3-0.7,3c-1,0.5-2,0.2-2.7-0.6
	c-1.1-1.1-1.8-2.4-1.1-4c1.1-2.6,3.3-3.6,6-3.7c4.7-0.1,8.3,2.1,11.5,5.2c1.9,1.8,3.5,3.8,6.7,2.3c1-0.5,2.3,0,3.2,0.8
	c1.2,1,1.6,2.4,0.3,3.4c-1.5,1.3-1.8-0.1-2.1-1.3c-0.4-1.5-1.6-1-2.3-0.5c-1.6,0.9-0.4,2,0,3c2.7,6.9,3.1,13.8-0.6,20.6
	c-1.9-2.3-1.4-5-1.4-7.6c0.1-4.2-0.6-8.2-2.4-12C78.3,53.4,79.1,51.6,77.9,50.4z"/>
<path class="st3" d="M28,103.2c1,1.6,2.7,0.9,4.1,1c5.1,1.1,10.2,0.5,15.3-0.6c-3.7,2.8-7.9,3.7-12.4,3.7c-1.1,0-3-0.9-3,1.4
	c0,1.6,0.9,1.8,2.3,1.2c0.7-0.3,1.3,0.3,1.4,1c0.1,0.9-0.5,1.6-1.4,1.9c-1.6,0.6-3.1-0.4-3.3-1.5c-0.9-5.1-5.5-5.9-8.8-8.3
	c-3.9-2.8-7.5-6.1-8.4-11.3c-0.5-2.8-0.2-5.3,2.3-7.1c1.3-0.9,2.9-1,4.2,0c0.9,0.7,1.8,1.6,1.4,2.9c-0.6,1.8-1.9,1-3.2,1
	c-2.6,0-1.5,2-1.1,3.2C19.3,97.2,23.4,100.4,28,103.2z"/>
<path class="st4" d="M28.1,73.2c-1.6-6.7-2.4-13.4,1-19.9c0.4-0.9,1.2-1.9-0.2-2.5c-1-0.4-2.4-1-2.6,0.9c-0.2,1.3-0.8,1.9-1.9,1
	c-0.8-0.6-1.1-1.7-0.4-2.7c0.8-1.2,2.3-2.2,3.4-1.7c4.1,2,5.9-1.2,8.3-3.3c3.4-2.9,7.2-4.8,11.8-4c2,0.4,3.7,1.4,4.5,3.5
	c0.5,1.4,0.2,2.6-0.8,3.7c-0.8,0.9-1.8,1.6-3.1,0.9c-1-0.5-1.3-1.3-0.8-2.5c1.2-2.9-0.9-2.6-2.5-2.4c-4.3,0.7-7.5,3.4-10.6,6.1
	c-1.4,1.2,1,1.5,1,2.6c0.4,0.9-0.2,1.4-0.8,1.8c-4.4,2.8-3.5,7.4-4,11.6C30,68.9,31.7,72,28.1,73.2z"/>
<path class="st5" d="M28.1,73.2c2-1.6,0.7-3.7,0.8-5.5c0.1-4.4,0.4-8.6,2.5-12.5c0.7-1.2,1.3-2.6,2.8-0.9c3.4,2.7,3.9,6.1,2.8,10.1
	c-2.6,4.1-5.2,8.1-7.9,12.2C28.6,75.5,27.8,74.5,28.1,73.2z"/>
<path class="st6" d="M80,53.3c4.1,6.6,3.6,13.8,3,21.1c-0.3,0.3-0.5,0.6-0.8,0.9c-1.9-4-4.4-7.5-6.9-11C74,58.1,75.4,54.9,80,53.3z"
	/>
<path class="st7" d="M13.5,33.3c-2.9,0-5.4,0.4-5.2-2.6c0.2-2.6,2.2-5.1,4.6-5.1c2.8,0,4.9,2.6,4.8,5.4
	C17.6,34.3,14.6,33.1,13.5,33.3z"/>
<path class="st8" d="M99.2,124.1c2.2-0.6,4.8-1.4,4.7,2c-0.1,2.8-2.1,5.3-4.9,5.1c-2.5-0.1-4.5-2.5-4.5-5.2
	C94.6,122.7,97.2,123.4,99.2,124.1z"/>
<path class="st9" d="M56.7,42.6c-2.9-0.1-4.6-1.4-4.8-3.9c-0.2-2.7,1.4-4.5,4.2-4.5c2.5,0,4,1.5,4.2,4
	C60.4,40.9,58.7,42.1,56.7,42.6z"/>
<path class="st10" d="M60.4,118.6c-0.4,2.6-1.8,4.1-4.3,4c-2.5-0.1-4.1-1.6-4.1-4.1c0-2.8,1.8-4.3,4.5-4.2
	C59,114.5,60.2,116.2,60.4,118.6z"/>
<path class="st11" d="M12,10.3c0-1.4,0.3-2.9,1.8-3c1.3,0,1.4,1.7,1.8,2.7c1.8,4.2,3.2,8.6,5.8,12.7C16,25,17.7,19.6,16.1,18
	c-1-0.2-1.6-0.8-1.9-1.7c-0.3-1.7-0.9-3.3-2.5-4.2C11.5,11.5,11.5,10.9,12,10.3z"/>
<path class="st12" d="M99.1,147.4c-0.9,2-1.4,1.9-2.3-0.1c-1.8-4.6-3.8-9-5.8-13.7c5.4-2.5,2.8,3.8,5,4.7c0.8,0.8,1.3,1.7,1.8,2.7
	c0.6,1,1.1,2,1.4,3.1C99.4,145.2,99.7,146.3,99.1,147.4z"/>
<path class="st13" d="M96.8,141.4c-1.1-0.8-0.8-2-0.8-3.1c2.7-0.6,7.4,1.5,6.3-4.6c-0.2-1.3,1.4-1.1,2.3-1c1.3,0.1,1.5,0.8,0.9,2
	c-2.2,4.2-4.3,8.5-6.4,12.8c-0.4-1.1-0.7-2.1-1.1-3.2C98.6,142.9,100.4,141,96.8,141.4z"/>
<path class="st14" d="M12,10.3c0,0.8,0.1,1.6,0.1,2.4c0.8,1.4,1.6,2.7,2.9,3.6c0.4,0.6,0.7,1.2,1.1,1.7c-2.9,0.3-7.3-1.8-6.7,4.2
	c0.1,0.9-0.2,0.9-3.5,0.5C8,18.6,10,14.4,12,10.3z"/>
<path class="st15" d="M80,53.3c-4.7,2.3-3.7,7-4.8,10.9c-1.8-0.5-2.8-1.5-2.2-3.5c0.3-4,3.8-6.6,4.8-10.3
	C79.2,50.9,79.4,52.3,80,53.3z"/>
<path class="st16" d="M37,64.3c-0.6-3.5-0.9-7-2.8-10.1c0.3-0.4,0.7-0.8,1-1.2c1.7,0.9,1.8,2.9,2.9,4.2c0.7,1.7,0.7,3.4,1,5.2
	C38.4,63.1,37.7,63.7,37,64.3z"/>
<path class="st5" d="M39,62.5c-2-1.4-0.6-3.5-1-5.2c1,1.2,1.5,3.3,3.7,1.9C40.9,60.3,40,61.4,39,62.5z"/>
<path class="st17" d="M67.5,85.3c-1.7,0.3-3.3-0.3-4.2-2.3c-0.3-0.8-0.8-1.5-1.3-2.1c-5.3-6.5-8-6.5-11.8,1c-2,3.9-4.9,3.2-7.4,2.1
	c-3.1-1.5-7.4-3.3-5.4-8c2.4-5.6,4.7-11.4,10.5-14.6c1-0.5,1.8-1.4,2.6-2.2c3.5-3.7,7-3.5,11.4-0.5c6,4.1,9.5,9.9,12.4,16.3
	C76.6,80,73.4,85.3,67.5,85.3z"/>
<path class="st18" d="M15,16.3c-3.4,0.7-4.2-0.6-2.9-3.6C15.7,11.8,14.6,14.7,15,16.3z"/>
<path class="st19" d="M96.8,141.4c0.1-2.3,2.3-2.5,3-1.6c1.4,1.9,0,3.4-1.8,4.5C97.6,143.3,97.2,142.3,96.8,141.4z"/>
</svg>
