<?xml version="1.0" encoding="utf-8"?>
<!-- Generator: Adobe Illustrator 23.1.1, SVG Export Plug-In . SVG Version: 6.00 Build 0)  -->
<svg version="1.1" id="Livello_1" xmlns="http://www.w3.org/2000/svg" xmlns:xlink="http://www.w3.org/1999/xlink" x="0px" y="0px"
	 viewBox="0 0 112 157" style="enable-background:new 0 0 112 157;" xml:space="preserve">
<style type="text/css">
	.st0{fill:#FFFFFF;}
	.st1{fill:#242122;}
	.st2{fill:#222020;}
	.st3{fill:#1C1B1C;}
	.st4{fill:#1E1D1D;}
	.st5{fill:#1D1C1D;}
	.st6{fill:#3A3A39;}
	.st7{fill:#3F3F3F;}
	.st8{fill:#242324;}
	.st9{fill:#212121;}
	.st10{fill:#C6C3C4;}
	.st11{fill:#373737;}
	.st12{fill:#D4D3D3;}
	.st13{fill:#303030;}
	.st14{fill:#BFBDBD;}
	.st15{fill:#646665;}
	.st16{fill:#5D5B5B;}
	.st17{fill:#5E5F5F;}
	.st18{fill:#BCBBBB;}
	.st19{fill:#575556;}
	.st20{fill:#4F4D4E;}
	.st21{fill:#525252;}
	.st22{fill:#454447;}
	.st23{fill:#444444;}
	.st24{fill:#484749;}
	.st25{fill:#E8E7E7;}
	.st26{fill:#D7D7D7;}
</style>
<path class="st0" d="M0.1,78.4c0-23.3,0-46.7,0-70c0-7.4,1-8.3,8.5-8.3c31.9,0,63.7,0,95.6,0c6.5,0,7.8,1.2,7.8,7.5
	c0,47.3,0,94.7,0,142c0,6.1-1.3,7.3-7.4,7.3c-32,0-64.1,0-96.1,0c-7.3,0-8.3-1-8.3-8.5C0.1,125.1,0.1,101.8,0.1,78.4z"/>
<path class="st1" d="M39.1,98c-8.2,0.7-14.8-3.6-16.6-10.9c-2-7.8,2-14.6,10.8-18.2C37,68.3,40.7,68,44,68.8c-1.7-2.7-5-5.4-3.9-9.9
	c0.9-4.9,1.9-9.6,6.3-12.9c8.9-6.8,22.4-1.8,23.7,9.4c0.6,4.9,2.3,4,5.2,2.6c0.6,0.7,0.6,1.5,0.2,2.3l0.1-0.1
	c-0.4,0.2-0.8,0.4-1.2,0.7c-4.5,0.9-4.3,5.9-8.1,8.8c4.2-2.1,7.6-1.1,11.1-0.9c8.9,3.2,13.1,9.8,11.4,17.8
	c-1.7,7.9-8,12.1-17.2,11.6c-1.4,0.5-2.2-0.7-3.4-1.1c-3.1-1.1-5.2-3.4-7-6c-2.1-1.2-2.8-3-2.5-4.5c0.9,3.7-1.4,8-0.5,12.6
	c0.2,1.3,0.2,2.7,0.7,3.9c1.4,3.6,0.5,4.7-3.6,4.8c-6.2,0.2-2.7-3.5-2.9-5.7c0.7-4.6,0.3-9.2,0.2-14c-1,1.5-1.5,3.2-3.3,3.8
	c-2,2.8-4.9,4.5-7.9,6.1C40.7,98.5,39.9,98.5,39.1,98z"/>
<path class="st2" d="M60.1,92.2c2.9,11.1,14.1,18.7,23.8,16.1c1.6-0.4,5.6-0.4,1.8-3.7c-0.7-0.6-0.6-1.5,0.1-2.2
	c0.8-0.7,1.7-0.9,2.8-0.6c1.3,0.5,2.4,1.4,2.4,2.9c0.1,4.4-3,6.2-6.5,6.9c-5.3,1.1-10.3-0.2-14.9-2.9c-5.3-3.1-8.8-7.8-10.3-13.8
	C58.6,93.8,57.9,92.6,60.1,92.2z"/>
<path class="st3" d="M33.3,59c-2-7-2.4-14,1.3-20.7c1.9-3.4,4.4-6.4,8.7-6.5c3-0.1,4.8,1.2,4.5,4.5c-0.1,1-0.8,1.8-1.9,2.1
	c-1.2,0.4-1.8-0.4-2-1.5c-0.7-3.8-2.6-1.5-3.6-0.5c-5.1,4.8-6.7,10.9-5.4,17.7c0.4,1.9,1.2,3.8,1.8,5.6c2,1.3,3.5,3.1,4.4,5.3
	c0.3,0.8,0.9,2-0.9,2c-2-1.7-3.8-3.6-5-6C34.9,60,32.7,60.9,33.3,59z"/>
<path class="st4" d="M51.3,96.9c-4.7,10.2-12.6,15.5-22.4,15c-3.3-0.2-6.3-1.2-8-4.2c-1.5-2.6-1-4.8,2-6c0.8-0.3,1.6-0.1,2.3,0.5
	c0.7,0.7,0.9,1.6,0.3,2.2c-4,4,0.7,3.7,2.2,3.9c7.3,1.4,13.3-1.3,18.2-6.8c2-2.2,3.5-4.8,4.5-7.7c0.7-0.6,0.2-2.2,1.7-1.9
	c0.9,0.2,1,1.2,1,2C52.9,95.3,52.1,96.1,51.3,96.9z"/>
<path class="st5" d="M75.5,60.2c-0.1-0.8-0.2-1.5-0.2-2.3c2.1-7.4,2.1-14.6-3.6-20.6c-1.1-1.2-3.2-5.5-4.8,0.1
	c-0.4,1.3-1.9,1.3-2.9,0.2c-1.4-1.6-1.5-3.5,0.3-4.8c3.1-2.3,6.2-1.3,8.6,1.1c5.9,5.7,7.4,12.8,5.8,20.6c-0.3,1.5-0.8,2.9-1.2,4.3
	c-0.2,0.6-0.9,0.7-1.2,1.2C76.1,60.2,75.8,60.3,75.5,60.2z"/>
<path class="st6" d="M14.3,35.9c-1.5-2.3-6.7,2.3-6.3-2.8c0.1-1.7,1.9-5.4,5.1-6.2c0.9-0.2,5.4,5.6,5.3,6.6
	C18.2,35.1,16.7,36.1,14.3,35.9z"/>
<path class="st7" d="M102.7,121.2c-1.7,1.8-2.4,4.8-5,6.2c-0.9,0.5-5.6-4.9-5.6-6.3c-0.2-3.7,3.7-1.5,5-3.4
	C97.8,116.8,102.5,119.6,102.7,121.2z"/>
<path class="st8" d="M59.8,35.7c-0.3,2.3-1.3,4.1-3.8,4.3c-2.7,0.2-4.5-1.3-4.7-3.9c-0.2-2.7,1.5-4.3,4.2-4.4
	C58.1,31.7,59.3,33.3,59.8,35.7z"/>
<path class="st9" d="M55.1,120.2c-2.3-0.3-3.9-1.8-3.8-4.3c0.1-2.7,1.9-4.3,4.7-4c2.5,0.2,3.9,2,3.7,4.5
	C59.5,118.8,57.9,120.2,55.1,120.2z"/>
<path class="st10" d="M40.2,67c0.2-3.1-3.2-4.5-3.5-7.3c0.9-1.3,2.1-1.1,3.4-0.8c1.1,5.2,4.3,9.2,8.1,13.2c-4.9-2.6-9.7-3.9-15-3.2
	C35.1,66.6,38.3,69,40.2,67z"/>
<path class="st11" d="M99.4,145.1c-0.9,1.1-0.4,3-2.4,4.2c-2.3-5.3-4.5-10.5-6.8-15.8c5.3-2.5,3.1,3.5,5.1,4.7
	c0.9,0.7,1.3,1.7,1.8,2.7c0.4,1.4,1.2,2.5,2.6,3.2C99.7,144.3,99.6,144.7,99.4,145.1z"/>
<path class="st12" d="M77.3,68.7c-5-0.4-9.7,0.4-14.4,3.3c3.5-3.3,5.8-7,7.6-11c0.6-1.2,2.2-1.3,3.6-1.1c1.4,3.3-3.1,4-2.9,6.7
	C72.7,69,75.7,66.7,77.3,68.7z"/>
<path class="st13" d="M11.1,10.9c0.4-1.4,0.5-2.9,2.3-3.9c2.3,5.2,4.5,10.3,6.8,15.5c-5.3,2.9-3.1-3.3-5-4.5
	c-0.7-0.8-1.2-1.6-1.7-2.5c-0.5-0.8-0.9-1.7-1.4-2.6C11.9,12.2,11.4,11.6,11.1,10.9z"/>
<path class="st14" d="M51.3,96.9c0.2-0.9,0.4-1.9,0.6-2.8c0-0.3,0.6-1.1-0.4-1c-0.4,0-0.8,0.6-1.2,0.9c-0.3-0.7-0.1-1.6-1-2
	c0.9-2.5,1.8-5.1,3.1-8.7c2.7,7.1,1.8,12.9-0.1,18.8C51.6,100.5,53.3,98.3,51.3,96.9z"/>
<path class="st15" d="M99.4,145.1c-0.1-0.5-0.1-1.1-0.2-1.6c-0.7-1.3-1.3-2.7-3.2-2.5c-0.9-0.8-0.7-1.9-0.8-2.9
	c2.8-0.5,7.2,1.6,6.6-4.4c-0.1-1.3,2-0.9,3.4-0.4C103.3,137.2,101.3,141.2,99.4,145.1z"/>
<path class="st16" d="M39.1,98c0.8,0,1.5,0,2.3,0c-0.9,4.3-3.9,6.4-7.9,7.2c-1.9,0.4-3.7,0-4.6-2.1c-0.2-0.5,0-1.3,0.3-1.8
	c0.4-0.8,1.1-0.5,1.7-0.2C35.7,103.6,37.2,103,39.1,98z"/>
<path class="st17" d="M14.4,14.9c0.9,0.9,0.8,2,0.8,3.1c-2.8,0.5-7.1-1.7-6.7,4.3c0.1,1.4-1.9,1-3.3,0.4c1.9-4,3.9-7.9,5.8-11.8
	C12,11,13,10.8,13.2,12c-0.7,0.7-1.1,1.5-0.7,2.5C12.9,15.6,13.7,15,14.4,14.9z"/>
<path class="st18" d="M60.1,92.2c-1,0.7-0.6,1.8-0.8,2.7c-1.6,1.1-0.4,2.8-1.1,4.1c-1.6-5-1.7-9.9,0.5-15.9c1.1,3.3,1.8,5.6,2.6,7.8
	C60.8,91.4,60.4,91.8,60.1,92.2z"/>
<path class="st19" d="M68.2,97c1.1,0.4,2.2,0.7,3.4,1.1c2.6,5,4.6,5.9,8.5,3.3c0.9-0.6,1.5-0.5,2,0.2c0.9,1.3,0,2.2-0.9,2.9
	c-2.3,1.8-7.1,0.5-9.6-2.7C70.3,100.3,69.3,98.6,68.2,97z"/>
<path class="st20" d="M76.3,60.1c0.4-0.4,0.8-0.8,1.2-1.2c2.5,0.6,4.6,1.8,5.5,4.3c0.5,1.4-0.1,2.8-1.7,2.8c-1.9,0-0.8-1.1-0.7-2.2
	C80.8,61.2,77.9,61.2,76.3,60.1z"/>
<path class="st21" d="M33.3,59c0.5,0.9,1.9,0.8,1.9,2c-2.5-0.4-4.7-0.1-4.4,3.1c0.1,1.2,0.3,2-1,2c-1.4,0-2-1.2-1.7-2.5
	C28.6,60.7,30.8,59.7,33.3,59z"/>
<path class="st5" d="M71.2,66.7c-0.5-2.9,2.8-4.1,2.9-6.7c0.5,0.1,1,0.1,1.5,0.2C75.4,63.2,72.9,64.7,71.2,66.7z"/>
<path class="st22" d="M64.3,82c0.2-4.7,4.1-9.1,8.1-9c3.9,0,10.9,6,10.7,9c-0.4,4.3-7.6,9.9-12.5,9.7C68.1,91.5,64.1,85.5,64.3,82z"
	/>
<path class="st23" d="M26.6,81.2c0.2-4.5,4.5-8.6,8.6-8.2c3.9,0.3,10.1,6.3,9.8,9.4c-0.4,3.6-6.6,9.4-10,9.3
	C30.1,91.4,26.3,86.8,26.6,81.2z"/>
<path class="st24" d="M63.3,56.1c-0.2,5-4.7,9.2-9.5,8.9c-4.3-0.3-8.2-4.7-8.1-9.2c0-3.4,5.6-8.6,9-8.5
	C59.9,47.5,63.5,51.1,63.3,56.1z"/>
<path class="st25" d="M96,141c0.6-1.7,2.1-1.7,3.2-1c1.5,0.9-0.7,2.3,0,3.5C95.7,145.7,97.3,141.4,96,141z"/>
<path class="st26" d="M14.4,14.9c-0.3,2.6-2.7,2.5-3.4,1.3c-0.8-1.4-0.5-3.8,2.2-4.2C13.6,13,14,13.9,14.4,14.9z"/>
</svg>
