<?xml version="1.0" encoding="utf-8"?>
<!-- Generator: Adobe Illustrator 23.1.1, SVG Export Plug-In . SVG Version: 6.00 Build 0)  -->
<svg version="1.1" id="Livello_1" xmlns="http://www.w3.org/2000/svg" xmlns:xlink="http://www.w3.org/1999/xlink" x="0px" y="0px"
	 viewBox="0 0 112 157" style="enable-background:new 0 0 112 157;" xml:space="preserve">
<style type="text/css">
	.st0{fill:#FFFFFF;}
	.st1{fill:#2D2928;}
	.st2{fill:#252122;}
	.st3{fill:#AA2128;}
	.st4{fill:#F6E4DF;}
	.st5{fill:#F6E3DF;}
	.st6{fill:#383535;}
	.st7{fill:#A01F25;}
	.st8{fill:#818083;}
	.st9{fill:#B7B8B8;}
	.st10{fill:#8C8C8C;}
	.st11{fill:#BABABD;}
	.st12{fill:#F3E5DF;}
	.st13{fill:#A7ABAB;}
	.st14{fill:#3D3D3D;}
	.st15{fill:#989899;}
	.st16{fill:#838384;}
	.st17{fill:#7C7C7F;}
	.st18{fill:#631723;}
	.st19{fill:#353635;}
	.st20{fill:#F1E6E4;}
	.st21{fill:#48413E;}
	.st22{fill:#929295;}
	.st23{fill:#503F3D;}
	.st24{fill:#37393B;}
	.st25{fill:#7B232B;}
	.st26{fill:#747578;}
	.st27{fill:#434343;}
	.st28{fill:#444444;}
	.st29{fill:#302D2B;}
	.st30{fill:#827C7C;}
	.st31{fill:#302A2C;}
	.st32{fill:#6F706C;}
	.st33{fill:#6B6B6B;}
	.st34{fill:#857875;}
	.st35{fill:#807470;}
	.st36{fill:#CFD1D2;}
	.st37{fill:#7B7B7B;}
	.st38{fill:#747677;}
	.st39{fill:#D4362F;}
	.st40{fill:#AC7244;}
	.st41{fill:#EBDBD4;}
	.st42{fill:#646467;}
	.st43{fill:#6B6060;}
	.st44{fill:#676669;}
	.st45{fill:#C4302D;}
	.st46{fill:#5A797E;}
	.st47{fill:#A1A1A5;}
	.st48{fill:#62767C;}
	.st49{fill:#231915;}
	.st50{fill:#C4C5CB;}
	.st51{fill:#5F6064;}
	.st52{fill:#EFDED9;}
	.st53{fill:#363638;}
	.st54{fill:#605D5D;}
	.st55{fill:#D48534;}
	.st56{fill:#68371D;}
	.st57{fill:#D18635;}
	.st58{fill:#D8D9E1;}
	.st59{fill:#2F2017;}
	.st60{fill:#D93E2F;}
</style>
<path class="st0" d="M2.2,1.4c2-1.5,4.4-1.2,6.7-1.2c31.2,0,62.4,0,93.6,0c8.6,0,9.5,0.8,9.5,9.3c0,41.8,0,83.5,0,125.3
	c0,5.2,0,10.3,0,15.5c0,4.4-1.9,6.6-6.7,6.6c-32.5-0.1-65.1-0.1-97.6,0c-2.8,0-4.8-0.8-6.4-3c-0.2-0.2-0.5-0.5-0.7-0.7
	c-0.8-1.7-0.5-3.6-0.5-5.4C0,100.3,0,52.7,0,5.2C0.1,3.6,0.2,1.9,2.2,1.4z"/>
<path class="st1" d="M55.3,43c-0.7,0.9-1.5,1.8-2.2,2.7c-6.2,4.6-12.6,3-19,0.4c-2.7-1.9-3.4-3.7-1.1-6.7c3.8-5.1,5.3-10.9,4-17.3
	c-0.8-2.6,1.1-3.2,2.9-3.4c3.4-0.4,6.8-0.8,10.1,0.6c2.5,2.2,1.5,5.2,1.7,8c0.2,2.1-0.2,4.3,0.4,6.4C52.2,37.2,55,39.7,55.3,43z"/>
<path class="st2" d="M80.4,113c0.4,2.4-0.6,4.5-1.9,6.4c-2.6,4.2-3.7,8.7-3.1,13.6c1.3,4-0.5,5.5-4.3,5.4c-2.9,0-5.9,0.7-8.6-0.8
	c-2.3-2.1-1.5-4.8-1.6-7.3c-0.2-3.1,0.4-6.2-0.5-9.2c-0.6-3.1-4.2-5.4-2.2-9.1l0,0C63.6,106.8,75.8,107.3,80.4,113z"/>
<path class="st3" d="M20.5,75c-1.8-7-0.6-14.1-0.7-21.2c0-2.5,2.4-3,4.2-3.6c1.7-0.6,3.5-0.9,5.3-1.3c0.5-0.2,0.9-0.1,1.4,0.2
	c1.4,1.1,2.5,2.4,1.9,4.3c-0.2,0.6-0.8,1.3-0.6,1.9c1.7,4.6,0.1,9.1-0.7,13.5c-0.3,1.7-0.1,2.8,1.6,3.7c1.3,0.7,2.7,1.9,0.4,3.4
	C28.9,76.7,24.6,77.5,20.5,75z"/>
<path class="st4" d="M58.2,112c-1.4,3.6,3.1,4.8,3.2,7.9c0.8,5,0.1,10,0.4,14.9c0.1,1.4-0.2,2.9-1.8,3.1c-3.9,0.6-7.9,2-11.6-0.7
	c0.3-1.1,0.6-2.1,0.9-3.2c1.5-0.8,3.3,0.2,5-0.6c-1-1.6-2.6-0.7-3.9-1.1c-2.7-2.4-2.8-5.2-1.2-8.2c0.8-1.2,2.3-1,3.4-1.8
	c2.9-2.1,2.8-5.8-0.3-8.2C53.9,112.2,56.5,113.5,58.2,112z"/>
<path class="st5" d="M55.3,43c-2-2.3-4.3-4.4-4.2-7.7c-0.7-5-0.1-10-0.3-15c-0.1-0.6,0.2-1.1,0.7-1.5c4-0.1,8.1-1,11.8,1.2
	c0.3,1,1.7,2,0.1,3.1c-1.4,0.3-2.8,0-4.2,0.7c0.5,2,2,0.7,3,1.1c3.4,4.2,3.4,7.6,0,10.1c-2.6-1.8-3.2,0.6-3.8,2.1
	C57.6,39.2,57.1,41.5,55.3,43L55.3,43z"/>
<path class="st6" d="M77.1,61c0.8,1,1.6,2,2.4,2.9c1,1.7-0.2,2.7-1.2,3.8c-1.7,3.4-5.8,3.6-8.3,6.1c-0.9,0.9-2.3,0.5-3.3-0.2
	c-2.8-2-6.2-3.4-7.8-6.7c0.9-3.1,3.7-0.4,5.5-1.8c-4.5,0.6-7.1-1.4-8.7-5.2c0.1-0.5,0.3-0.9,0.6-1.2c1.3-1.4,4.9,1.7,4.9-2.4
	c0.4-1.8,1.1-3.6,2.6-4.7c2-1.4,4.2-2.3,5.2,1.2c-0.1,0.5-0.2,1-0.5,1.4c-0.9,1-2.8,2-2,3.4c0.8,1.6,3-0.2,4.4,0.8
	c0.4,0.2,0.7,0.6,0.9,1.1c0.2,0.9-0.2,1.6-0.9,2.2c-1.2,1-2.4,2.3-1.3,3.8c1,1.3,2.4-0.4,3.7-0.4c-1.1-0.5-2.6-0.6-2.5-2.1
	c0.2-1.9,1.6-2.8,3.4-3C75.4,60,76.4,60.2,77.1,61z"/>
<path class="st7" d="M92.5,83.1c0.1,6.5,0.4,12.9,0.3,19.4c-0.1,4.8-4.3,4.2-7.4,4.8c-1,0.7-2,1.8-3.4,0.7c-0.4-0.8-0.7-1.8-0.1-2.3
	c4.9-3.8,3.2-9.2,2.5-13.7c-0.6-3.9,0.2-6.7,2.4-9.5C89,81.5,90.8,81.7,92.5,83.1z"/>
<path class="st8" d="M50.2,20.2c-3.1,0-6.2,0.1-9.3,0.1c-1.6,0-3.4-0.3-3.9,1.9c0.1-2-3.1-4.5,1.4-5.7c1.9-0.5,0-1.4-0.6-2.3
	c-1.3-1.7-4.4-1.8-4.5-4.1c5.9-2.4,10.5,2.3,15.9,1.9c4.5-0.5,4.9-0.2,3.8,3.7c-0.3,1.3-0.6,2.6-1.7,3.5l0,0
	C50.9,19.4,50.8,20.1,50.2,20.2z"/>
<path class="st9" d="M48.4,137.2c1.5,0,2.9,0,4.4-0.1c8.6-0.6,8.6-0.6,8.6-9.3c0-2.6,0-5.3,0-7.9c2.1,5.6,0.4,11.4,1,17
	c-0.5,3.3-1.1,6.4-3.1,9.2c-2.7,4.3-7.4-0.7-10.4,2.2c-0.9-1.7-2.4-3.3-0.8-5.4c0.5,0.1,1.2,0.1,1.2-0.3c0.1-0.6-0.8-0.2-1-0.5
	C48.3,140.5,48.4,138.8,48.4,137.2z"/>
<path class="st10" d="M38.1,124.1c0.3,6.3-0.5,12.6,0.3,18.9c0.1,0.9,0.2,2.2-1,2.5c-1.4,0.4-1.5-1-1.9-1.8
	c-1.1-2.2-2.1-4.5-3.1-6.8c-1-2.2-1.6-4.3,1.2-5.9c1.4-0.8,1.7-2.2,1.7-3.9c-0.1-10.6-0.1-21.2-0.1-31.8c3.4,0.6,2.4,3.3,2.3,5.3
	c-0.3,6.6-0.1,13.2-0.2,19.7C37.2,121.7,37.2,123,38.1,124.1z"/>
<path class="st11" d="M51.4,19.2c0.1-1.3-0.2-2.8,0.4-3.8c1.9-3.3-0.3-3.3-2.5-3.4c4.3-3.6,9.6-2.6,14.5-2.4
	c2.6,0.1,1.7,2.8,0.8,4.6c-0.6-0.2-1.4-0.5-1.7,0.3c-0.4,1.2,1,1,1.4,1.5c0.2,1.5-0.2,2.8-1,4C59.3,19.7,55.2,20.8,51.4,19.2z"/>
<path class="st12" d="M82.5,107.9c1-0.1,1.7-1.4,3-0.7c-0.1,3.3-4.9,2.5-5,5.8c-7.2-4.6-14.6-3.3-22.1-1c0-2.7-3.2-1.3-4-2.9
	c0.8-1.6,2.4-2.4,3.9-3.2c5.8-2.5,11.5-2.6,17.3,0.3c1.6,0.6,3.4,0.6,5,0.8C81.2,107.1,81.9,107.5,82.5,107.9z"/>
<path class="st13" d="M30,49.3c-0.3,0-0.5-0.2-0.7-0.4c0.6-0.3,1.2-0.6,1.8-0.9c3.3-1,6.4-1.1,9.6,0.6c3.5,1.8,7.5,0.6,11.2,1.5
	c2.2,2.6,5.2,4.6,6.7,7.8c-0.6,0.9-1.7,0.5-2.4,1.1l-0.1,0c-1.8,1.8-4,1.4-6.2,1.2c-1-0.2-1.9-0.6-2.7-1.4c-0.4-1.1-0.9-2.1-2.4-1.5
	c-4-2-6.7-6.2-11.5-6.9C32.2,50.2,31,49.9,30,49.3z"/>
<path class="st14" d="M90.6,133.2c6.8-2.7,7.1,5.1,11.4,6c0.6-1.6,0.5-3.2,0-4.7c-0.7-2.2,0.9-1.7,1.9-1.8c1.5-0.1,1.7,0.3,1.4,2
	c-0.7,4.1-0.8,8.2,0,12.3c0.1,0.7,1,1.5-0.3,1.8c-0.8,0.2-1.7,0.2-2.5,0c-1.3-0.2-0.8-1-0.5-1.8c0.5-1.4,0.5-2.9,0.1-4.3
	c-4.3,0.1-3.6,7.3-9.1,6.1c1.8-3.1,6.9-4.5,5.8-7.9C97.7,137.9,94.2,135.5,90.6,133.2z"/>
<path class="st15" d="M74.5,33.1c0.8-6.1,1.5-12.2-0.1-18.3c-0.3-1.2-0.6-3,1.1-3.4c1.5-0.4,1.7,1.3,2.2,2.2
	c1.2,2.6,2.3,5.2,3.4,7.8c0.7,1.5,0.8,3.2-0.7,4c-3.4,1.7-2.8,4.6-2.8,7.3c0,5.5,0.5,11-0.2,16.4c-2.6-0.7-1.7-2.8-1.8-4.5
	C74.9,40.8,76.3,36.8,74.5,33.1z"/>
<path class="st16" d="M58.2,57.9c-1.1-2.8-6.4-2.5-5.1-7.1c0.9-3.5,3.4-3.6,6.2-2.9c3.9,1.2,8.9,0.1,11.2,4.9c-0.4,1-1,1.6-2.1,1.1
	c-0.1-1.1,0.3-2.5-1.2-2.9c-1.4-0.4-2.3,0.5-2.9,1.5c-0.9,1.4-1.5,2.9-2.3,4.4C61,58.2,59.8,58.9,58.2,57.9z"/>
<path class="st17" d="M58.2,106.9c-1.3,0.8-2.1,2.3-3.9,2.2c-3.5-0.6-7.2-0.6-10.1-2.9c1.7-1.7,3.6-3,4.5-5.5
	c1.9-5.4,2.1-5.3,7.7-3.4c0.4,0.2,0.8,0.5,1.1,0.9c-0.2,1.6-0.4,3,0.7,4.5C59.1,103.8,59.7,105.4,58.2,106.9z"/>
<path class="st18" d="M38.1,124.1c-2.4-0.5-1.8-2.4-1.8-4c0-6.8,0.1-13.6,0-20.4c0-1.5,0.9-3.4-1.1-4.5c-0.8-0.9-2.2-1.3-2.1-2.9
	c-0.6-1.5,0.7-2.2,1.4-3c1.4-0.7,1.8-3.1,4.1-2.2c0.8,1,0.9,2.1,1.1,3.3c1.7,2.5,2,5,0,7.5c-0.1,1,0.3,2.2-0.4,3.1
	c-1.8,5.2-0.3,10.5-0.8,15.8C38.3,119.2,38.2,121.7,38.1,124.1z"/>
<path class="st19" d="M13,15.1c2.4,2.9,4.8,5.8,7,8.5c-5.1,2.1-5.2-5.7-9.7-6.7c-0.4,1.7-0.3,3.4,0.1,5.1c0.6,2.2-1.1,1.5-2.1,1.6
	c-1.1,0.1-1.7-0.1-1.4-1.6c0.8-4.2,0.8-8.6,0-12.8c-0.4-2.2,1-1.7,2-1.7c1.1-0.1,1.9,0.1,1.5,1.7c-0.4,1.6-1.2,3.4,0.4,5
	C12.1,13.5,12.6,14.2,13,15.1z"/>
<path class="st20" d="M59.3,47.9c-2.7-0.4-4.4,1.4-6.2,2.9c-5.2,0.3-10.4,1.3-15.2-2.1c-1.9-1.4-4.5-0.5-6.7-0.8c1-0.6,2-1.2,3-1.8
	c6.3,0.5,12.7,1.5,19-0.4C54.6,48.3,57.7,46,59.3,47.9z"/>
<path class="st21" d="M20.5,75c4.5,0.1,9,0.1,13.6,0.2c0.4,0.3,0.6,0.7,0.6,1.2c-2.2,2.7-2.2,6.3-3.9,9.1c-0.8,0.6-1.6,1.1-2.6,0.6
	C25.6,82.4,23,78.7,20.5,75z"/>
<path class="st22" d="M59.3,146.1c1-3.1-0.4-7,3.1-9.2c3,0,6-0.3,9,0c3.1,0.3,4.2-1.1,4-3.9c0.9,1.2,0.8,2.6,1,4
	c0.8,2,0.7,3.6-2.1,3.7c-1.4-2-3.1-1.8-4.3-0.1c-1,1.4-2.3,2.6-2.7,4.4C64.6,144.9,61.9,145.2,59.3,146.1z"/>
<path class="st23" d="M92.5,83.1c-2,0-4-0.1-6.1-0.1c-2.6-0.6-5.3-0.3-7.7-1.3c-1.7-3.7,2.5-4.4,3.4-6.9c1.2-1-0.4-3.8,2.4-3.8
	C87.4,74.8,90.5,78.6,92.5,83.1z"/>
<path class="st24" d="M39.2,101.1c-0.3-1-0.6-2-0.9-2.9c0.7-0.8,1.6-0.9,2.6-0.7c0.4,0.2,0.8,0.4,1.2,0.7c3.9,2.9,4,3,5.2-1.3
	c0.8-2.8,2-4.9,5.4-4.5c0.4,0.2,0.8,0.4,1.2,0.7c0.5,1.8,3.9,2.1,2.4,4.9c-4.7-2.1-6.2,0.5-6.9,4.6c-0.5,2.6-2.5,3.8-5.2,3.6
	C42.5,104.4,40.9,102.7,39.2,101.1z"/>
<path class="st25" d="M74.5,33.1c2.9,0.2,2.1,2.4,2.2,4c0.3,4-0.8,8.1,0.6,12.1c-0.1,4-0.1,7.9-0.2,11.8c-1,0-1.9,0-2.9,0
	c-0.4-0.5-0.5-1.1-0.4-1.8c0.4-1-0.6-2-0.3-3c1.7-5.7,0.3-11.6,0.8-17.3C74.4,37,74.4,35,74.5,33.1z"/>
<path class="st26" d="M67.3,145c-2-2.6,2.4-3.8,1.5-6.2c1.9-0.2,3.8-0.6,5.6-0.4c0.5,0.1-1,0.9-1.1,1.7c1.6,1.7,3.4,3.2,5,5
	c0.4,0.9,2.1,2.9-0.1,2.5C74.7,146.8,70.4,148,67.3,145z"/>
<path class="st27" d="M97.1,118.2c1.9,2.1,6.8-2.8,6.9,2.3c0,1.8-2,5.5-5.3,6.4c-0.9,0.2-5.5-5.9-5.2-6.8
	C94,118.4,95.2,117.7,97.1,118.2z"/>
<path class="st28" d="M13.9,35.9c-2.1-2-6.2,2.5-7.4-2.3C6.2,32.4,10.9,27,12,27c1,0,5.5,5.8,5.2,6.8C16.8,35.4,15.7,36.2,13.9,35.9
	z"/>
<path class="st29" d="M52.3,114.1c1.6,0,3.2,0,5.3,0c-2.4,4-0.7,10.6-8.4,10c-0.7-1.6,0.8-1.6,1.6-2.1c1.7-1.1,3.5-2.1,0.5-4.2
	C49.3,116.4,50.7,115,52.3,114.1z"/>
<path class="st30" d="M84.5,70.9c-2.7,0.8,0.9,3.2-1.1,4.1c-1.3,0.5-3.5,2.3-3.6,1c-0.1-1.8-3.9-3.7-0.7-5.3
	c-1.1,0.9-2.4,1.5-2.8,1.1c-0.9-1-0.3-1.8,0.3-2.6c0.5-0.7,0.7-1.5,0.7-2.3c0.7-1,2.3-1.4,2.2-3C81.7,65.9,83.4,68.3,84.5,70.9z"/>
<path class="st31" d="M55.2,43.1c1-2.8,1.8-5.7,2.9-8.4c0.8-1.8,2.7-2.1,4.3-1.5c1.4,0.5,0,1.2-0.2,1.8c-2.3,0-3.4,1.6-2,3
	c4.9,4.8,0.3,4.5-2.6,5.1C56.9,43.3,56,43.1,55.2,43.1z"/>
<path class="st32" d="M28.2,86.1c0.6-0.4,1.2-0.7,1.8-1.1c0.2,0,0.3,0,0.5-0.1c1.6-0.3,2.8-3.7,4.3-1.7c0.8,1.1,3.2,3.6,0.8,5.9
	c-0.2,0.2-0.2,0.6-0.2,1c-0.8,0.8-1.6,1.5-2.3,2.3C31,90.6,29.3,88.5,28.2,86.1z"/>
<path class="st33" d="M13,15.1c-0.7-0.4-1.3-0.8-2-1.1c1.2-2.1,3.7-3.1,4.4-5.8C16,6.1,18,7.5,20.2,7C17.8,10.4,14.5,12,13,15.1z"/>
<path class="st34" d="M50.4,132.3c1.7-2.5,3.4-1.7,5,0c0.4,0.4,1.1,1.1,1,1.5c-0.2,0.8-1,1.3-1.9,1.3c-1.8,0-3.7,0-5.3-1.1
	C49.7,133.5,50,132.9,50.4,132.3z"/>
<path class="st35" d="M62.2,24.9c-1.4,1.8-2.7,1.8-4.3,0.2c-0.7-0.7-1.9-1-1.2-2.2c1-1.6,2.6-0.9,4.1-0.8c1,0.1,2,0.2,2.7,1.1
	C63,23.7,62.6,24.3,62.2,24.9z"/>
<path class="st6" d="M73.5,56.3c0.4,1.2,2.5,0.3,2.4,1.9c0,0.3-1,0.5-1.6,0.8c-1,0.4-2,1.1-3,0l0,0c-1.1-1.6-4.5-1.9-3-5
	c0,0,0,0,0,0c0.7-0.4,1.4-0.8,2.1-1.1C71.5,54,72.5,55.2,73.5,56.3z"/>
<path class="st36" d="M78.4,145c-2.4-0.9-5.4-1.3-5-5c2.3,0.3,3.2-0.9,3.1-3C77.8,139.5,77.9,142.3,78.4,145z"/>
<path class="st37" d="M64.3,16.1c-1.3,0.6-3,2.1-3.7,0.1c-0.7-2,1.7-3.3,3.1-4.3c0.7-0.5,0.5,1.5,0.8,2.3
	C64.5,14.8,64.4,15.5,64.3,16.1z"/>
<path class="st38" d="M48.3,142.1c1.1-0.6,1.9-3.3,3.4-1.4c1,1.3-1.1,2.9-2.1,3.8c-1,1-1.1-0.9-1.5-1.6
	C48.1,142.6,48.2,142.4,48.3,142.1z"/>
<path class="st11" d="M50.2,20.2c0.4-0.3,0.8-0.7,1.2-1c-0.1,5.4-0.2,10.7-0.3,16.1C49.3,30.3,51.2,25.2,50.2,20.2z"/>
<path class="st39" d="M34.2,76.4c-0.1-0.4-0.1-0.8-0.2-1.2c-0.7-2.7-3.3-1.7-5.4-2.7c2.6-3.2,0.5-7.5,3.3-10.8c0.8-0.9-0.6-2-1-3.1
	c-0.8-2-2.1-4.5,1.5-5.6c0.6-0.6,1.4-0.6,2.1-0.3c2.2,2.2,5.7,3.7,4.1,7.9c-0.4,0.4-0.9,0.9-1.2,1.4c0.6-0.6,1-1.5,2.1-1.4
	c3.7,2.7,1.5,6.7,2.1,10.1c0,1.5,0,2.9-0.5,4.3c-0.5,1.2-1.4,1.8-2.7,2.1C37,77.4,35.5,77.4,34.2,76.4z"/>
<path class="st40" d="M34,53.1c-0.6,0-1.1,0-1.7,0c-0.8-1.3-1.5-2.5-2.3-3.8c1.4-0.1,2.8-0.2,4.2-0.2C35.2,50.5,35.5,51.8,34,53.1z"
	/>
<path class="st41" d="M77.3,67c2.2,1.8-0.9,2.8-0.6,4.7c1.1-1.1,2.1-2,3.1-2.9c1.5,2-2,2.8-1,4.9c1.1-0.8,2.1-1.5,3.1-2.3
	c0.9,2.1-1.9,2.5-1.8,4.2c1.1-0.2,2.2-0.3,3.3-0.5c-1,2.6-3.9,3.6-5.3,5.8c-0.5,0.7-1.2,0.8-1.9,0.8c-5.6-0.9-8.9-5.6-13.4-8.2
	c-3.8-2.2-6.9-5.7-10.8-7.9c-1.3-0.7-2.3-1.9-2.3-3.6c0.1-0.5,0.4-0.9,0.7-1.2c4.4-0.1,6.8,2.9,9.1,6.1c1.8,1.4,3.6,2.9,5.5,4.1
	c2.3,1.5,4.9,4.8,7-0.7C72.1,70,75.9,69,77.3,67z"/>
<path class="st42" d="M59.5,66.8c-3.4-1.5-5.6-4.9-9.3-5.9c-0.7-0.3-1.1-0.9-1.1-1.7c2.3-0.1,4.7-0.2,7-0.3c2.5,1.7,3.2,7.7,8.3,3.4
	c0.9-0.7,1.9,0.3,1.6,1.6c-0.3,1.4-0.8,2.8-1.2,4.3C62.9,68.7,62,64.5,59.5,66.8z"/>
<path class="st43" d="M71.3,59c1,0.3,2-1,3,0c0,0.7-0.1,1.4-0.1,2c-1.1,0.3-2.8,0.5-2.4,1.8c0.7,2.6,3.3-0.7,4.8,1.4
	c-1.2,0.8-2.3,2-3.7,2.3c-1.7,0.4-3.9,2.9-5.1,0.5c-0.7-1.4-0.6-4.5,2.2-5.5C71.2,61.1,71.2,60,71.3,59z"/>
<path class="st44" d="M68.4,54c-0.2,2.4,3.6,2.4,3,5c-0.8,0-1.7,0.1-2.5,0c-1.5-0.3-3.4,3.5-4.1,0C64.5,57.6,64.2,53.6,68.4,54z"/>
<path class="st42" d="M58.2,57.9c1.3-0.3,2.6-0.7,3.9-1c0.5,3.2,0.4,5.3-3.4,2.4c-0.6-0.4-1.6-0.2-2.4-0.3
	C56.9,58.6,57.5,58.3,58.2,57.9z"/>
<path class="st45" d="M76.4,80.8c0.6,0,1.2,0,1.7,0.1c2.7,0.9,6.3-1.3,8.4,2.1c-0.3,1.5,2,3.6-1.2,4.4c-0.7,0.2-0.6,1.1-0.2,1.7
	c2.7,4,0.3,8.4,1.3,12.6c0.4,1.8-0.2,3.2-2.5,3.5c-1.6,0.2-1.4,1.6-1.4,2.8c-0.8,0-1.7-0.1-2.5-0.1c-2.8-3.2-4.9-7-7.6-10.3
	c-2.6-3.3-1-7.7-1.4-11.6c0-1.4,0-2.8,0.7-4.1C72.9,80,74.7,80.6,76.4,80.8z"/>
<path class="st46" d="M72.2,86.3c-1.6,7.6,3.2,12.8,6.9,18.3c0.7,1,1.2,1.9,0.9,3.1c-1.6,0-3.4,1.2-4.8-0.6
	c-2.3-3.1-7.7-2.7-8.6-7.5c0.3-3.7,1.6-7.1,2.9-10.5C70,88,70,86.1,72.2,86.3z"/>
<path class="st47" d="M67.4,100.1c1.9,3.2,6.5,3.4,7.8,7.1c-5.6-2.5-11.3-2.5-17.1-0.4c0.3-2-0.3-3.9-1.8-4.9
	c-3.5-2.4,0-2.8,0.9-3.9c1.8-1.7,3.9-1.3,6-1c0.7,0.2,1.4,0.5,2,1C66.2,98.5,66.7,99.4,67.4,100.1z"/>
<path class="st48" d="M34,53.1c0.1-1.4,0.1-2.7,0.2-4.1c4.3,1.8,7.9,4.6,11,8c0.2,5.2-0.3,10.3-4.7,14c-0.1-2.4-0.3-4.9-0.4-7.3
	c-0.1-1.4-0.1-2.7-2-2.7l0,0C39.3,57.1,34.9,56.1,34,53.1z"/>
<path class="st49" d="M49.1,59.3c0.4,0.6,0.7,1.1,1.1,1.7c0,0-0.1,0.4-0.1,0.4c-0.3,2.4,0.2,5-1.1,7.3c-0.7,1.5-1.2,3-1.6,4.6
	c-0.7,2.5-2.1,4-5,3.6c-0.8-0.3-1.4-0.8-1.6-1.6c1-5.4,3.3-10.3,4.7-15.6c0.2-0.8,0.9-1.3,1.8-1.5C47.9,58.6,48.5,58.9,49.1,59.3z"
	/>
<path class="st50" d="M47.3,58.2c-2.5,5.4-3.3,11.5-6.2,16.7c-0.2,0.5-0.4,0.6-0.8,0.2c0.1-1.3,0.1-2.7,0.2-4
	c1.6-4.7,3.1-9.3,4.7-14C46.4,56.5,47.3,56.5,47.3,58.2z"/>
<path class="st51" d="M64.3,98.1c-2.3,0-4.7,0-7-0.1c-0.4,0-0.7,0-1.1-0.1c0.1-2.3-4.1-2-3-5c1-0.8,2.3-0.6,3.3-1.3
	c2.3,0.1,3.8,1.8,5.5,3c0.3,0.3,0.7,0.5,1,0.8C63.6,96.3,64.9,96.7,64.3,98.1z"/>
<path class="st52" d="M62.6,95.4c-2.8,0.4-4.1-2.3-6.4-3.1c-3.1-0.1-4.9-2.5-7.1-4.1c-2.3-1.6-4.6-4.3-7.5-0.6
	c-1.2,1.5-2.3-0.1-3.4-0.7c-0.9,1.1-1.9,2.1-2.8,3.2c-2.4-1.7,0.8-2.7,0.5-4.6c-1.1,0.9-2.1,1.8-3.3,2.7c-0.8-2.2,1.6-2.9,1.8-4.4
	c-1.9-1.4-2.2,3.5-4.4,1.2c-0.7-0.8,3.7-2.2-0.3-2.7c-0.4-0.1,0.2-1.5,0.8-2.1c1.2-1.3,2.6-2.5,3.9-3.8c1.3,0,2.6-0.1,3.9-0.1
	c8.7,3.9,15.6,10.6,23.4,15.7C62.7,92.8,63.4,93.9,62.6,95.4z"/>
<path class="st53" d="M38.2,86.9c0.9-2,2.2,2,2.9-0.1c2-6.1,4.9-1.9,7.2-0.5c2.8,1.7,5.3,4,7.9,6c-0.4,2.5-2,0.3-3,0.7c0,0,0,0,0,0
	c-2.9-2-5.2-3.6-5.9,2c-0.4,3.1-2.8,4.7-6.2,2.9l0,0c-0.4-0.6-0.4-1.2,0-1.8c2.8-5.3,2.8-5.3-2.9-5.2C38.2,89.7,38.2,88.3,38.2,86.9
	z"/>
<path class="st54" d="M38.3,91.1c2.2-0.5,4.7-3.7,6.5-1.1c1.2,1.7,0,4.9-2.6,6.3c-0.5,0.3-0.6,1.1-0.9,1.7c-1,0-1.9,0-2.9,0
	C38.8,96.1,38.8,91.9,38.3,91.1z"/>
<path class="st54" d="M41.2,98c7.5,0.7,4.4-6.2,6.8-9.6c1.9,1.7,4.6,2,5.3,4.7c-2.9,0.2-4.8,0.9-4.9,4.6c-0.1,1.3,0.1,4.9-1.7,4.8
	C44.6,102.3,41.5,101.3,41.2,98z"/>
<path class="st55" d="M62.6,95.4c-0.3-2.3-2.5-2.9-4.1-4.1c-6.8-5.1-13.6-10.1-20.4-15.1c0.8-0.4,1.5-0.8,2.2-1.2
	c0.3,0,0.5-0.1,0.8-0.2c0.5,0.6,1,1.2,1.5,1.7c6.9-2.3,11.8,1.2,16.2,5.8c2.1,2.1,4.1,4.3,6,6.6c0.7,2.7,0.7,5.1-2,6.8L62.6,95.4z"
	/>
<path class="st56" d="M38.2,61.1c0,0.5,0.1,1,0.1,1.5c0,1.3-0.2,2.4-1.8,2.4c-0.5,0-1.2-0.1-1.4-0.4c-0.8-1.4,0.9-1.9,1.4-2.8
	C36.7,61.3,37.6,61.3,38.2,61.1C38.2,61.1,38.2,61.1,38.2,61.1z"/>
<path class="st57" d="M48.2,68c0.1-2.4,0.9-4.5,1.9-6.7c2.2,4.4,6.9,6,10.5,8.7c5,3.9,9.8,8.3,15.9,10.7c-1.3,0.6-3-0.2-4.1,1.1
	c-0.3,0.4-0.6,0.6-1.1,0.4c-0.7-0.5-1.4-1.2-2.2-1.6C59.1,81.3,53.4,75.1,48.2,68z"/>
<path class="st58" d="M71.7,81.7c0.2,0.2,0.4,0.2,0.6,0.2c0,1.5,0,3,0,4.4c-2.4,4.3-2.9,9.3-4.8,13.7c-1.1,0.1-1.8-0.4-2.3-1.3
	C66.2,92.6,66.8,86.4,71.7,81.7z"/>
<path class="st59" d="M71.7,81.7c-2.9,5.4-3.2,11.8-6.6,17c-0.3-0.2-0.5-0.4-0.8-0.6c-0.2-0.9-1.7-1.1-1.5-2.3
	c0.3-2.3,1.9-4.3,1.6-6.7c0.4-6.2,1.6-8.3,5.9-9.4C71.3,79.9,71.5,80.8,71.7,81.7z"/>
<path class="st60" d="M70.2,79.7c-4.7,1.4-3,6.9-5.9,9.4c-3.1-0.7-4.3-3.5-6-5.5c-4.2-4.8-9.4-7-15.7-6.9c2.3-0.6,3.7-2,3.6-4.4
	c0-1.8,0.7-3,2-4.1c3.7,0.3,4.4,3.8,6.3,5.9C58.9,78.6,64.4,79.3,70.2,79.7z"/>
</svg>
