<?xml version="1.0" encoding="utf-8"?>
<!-- Generator: Adobe Illustrator 23.1.1, SVG Export Plug-In . SVG Version: 6.00 Build 0)  -->
<svg version="1.1" id="Livello_1" xmlns="http://www.w3.org/2000/svg" xmlns:xlink="http://www.w3.org/1999/xlink" x="0px" y="0px"
	 viewBox="0 0 112 157" style="enable-background:new 0 0 112 157;" xml:space="preserve">
<style type="text/css">
	.st0{fill:#FFFFFF;}
	.st1{fill:#221E20;}
	.st2{fill:#231F20;}
	.st3{fill:#F7E4E1;}
	.st4{fill:#F8E3DE;}
	.st5{fill:#D65A30;}
	.st6{fill:#DA7B71;}
	.st7{fill:#D28935;}
	.st8{fill:#D18634;}
	.st9{fill:#F7E4DB;}
	.st10{fill:#CD4E2F;}
	.st11{fill:#F7E3D8;}
	.st12{fill:#D96F32;}
	.st13{fill:#323231;}
	.st14{fill:#F2CBAA;}
	.st15{fill:#D3786C;}
	.st16{fill:#404040;}
	.st17{fill:#C88A3A;}
	.st18{fill:#928F90;}
	.st19{fill:#888788;}
	.st20{fill:#D08436;}
	.st21{fill:#C4DBB8;}
	.st22{fill:#373737;}
	.st23{fill:#2B2C2B;}
	.st24{fill:#2A2A2A;}
	.st25{fill:#3CA5DB;}
	.st26{fill:#35A5D8;}
	.st27{fill:#CFA252;}
	.st28{fill:#6E6E6E;}
	.st29{fill:#9DC06D;}
	.st30{fill:#959595;}
	.st31{fill:#B1272A;}
	.st32{fill:#5A757B;}
	.st33{fill:#5A5759;}
	.st34{fill:#BDA3A9;}
	.st35{fill:#B1242A;}
	.st36{fill:#5F727C;}
	.st37{fill:#D19B93;}
	.st38{fill:#595657;}
	.st39{fill:#D67F37;}
	.st40{fill:#EDC7A0;}
	.st41{fill:#3C3631;}
	.st42{fill:#1B140F;}
	.st43{fill:#A09391;}
	.st44{fill:#584A44;}
	.st45{fill:#D46452;}
	.st46{fill:#47423F;}
	.st47{fill:#2E1E13;}
	.st48{fill:#6E635F;}
	.st49{fill:#A09894;}
	.st50{fill:#F3E5DB;}
	.st51{fill:#F9F9FA;}
	.st52{fill:#F9E2D4;}
	.st53{fill:#EDEDED;}
</style>
<path class="st0" d="M0.3,3.4C2,0.7,4.5,0.1,7.6,0.1c32,0.1,63.9,0.1,95.9,0.1c7.2,0,8.5,1.2,8.5,8.3c0,31.8,0,63.6,0,95.4
	c0,15,0,30,0,45c0,6.6-1.4,8-7.8,8c-32.1,0-64.3,0-96.4,0c-6.2,0-7.5-1.2-7.5-7.2C0.3,100.9,0.3,52.1,0.3,3.4L0.3,3.4z"/>
<path class="st1" d="M47,142.3c-2.3-1-0.8-2.8-0.9-4.2c1.2-1.8,2.6-1.1,3.8-0.1c2.8,2.2,5.3,1,7.8-0.4c2.7-1.5,3.3-4,2.6-6.9
	c-0.6-2.9-0.3-5.6,1.7-7.9c1.8-2.1,1.6-4.6,1.1-7.1c-0.6-3.6-0.7-7,2.9-9.3c1.5-0.9,3.1-1.4,4.7-1.9c0.7-0.2,1.4-0.2,2.1-0.1
	c2.3,0.3,4.7,0.5,7.1,0.5c2.6,0.1,5.2-0.3,7.8,0.4c0.8,0.3,1.4,0.8,1.5,1.7c-3.8,3.7-4.9,7.6-2.3,12.8c1.9,3.9-0.1,8.1-3.8,10.2
	c-2.8,1.6-3.5,3.5-4,6.2c-1.6,10.2-7.4,14.5-17.8,13c-3.4-0.5-6.9,1.5-10.3-0.2c-1.2-2.8-0.4-4.1,2.7-3.8c2.4,0.3,4.3-0.6,5.9-2.8
	C55.4,144.5,51.2,145.2,47,142.3z"/>
<path class="st2" d="M22.1,50.7c3.6-4.5,5.2-8.9,2.4-14.8c-1.6-3.3,0.6-7.4,4-9.3c2.6-1.4,3.5-2.9,3.9-5.7
	c1.4-10.4,7.4-14.9,17.8-13.6c1.6,0.2,3.3-0.1,4.9-0.2c3.1,1.2,2.4,2.9,0.4,4.5c-2,1.6-4.6,2.3-6.7,3.9c-3.9,1.7-6.9,4-5.7,9
	c0.4,1.9-0.4,3.8-2.3,4.5c-5,1.8-5.1,5.6-4.4,9.7c0.5,3.3,0.2,6.3-2.8,8.3c3-1.8,3.4-4.8,2.9-7.9c-0.7-4.4-0.6-8.3,4.5-10.1
	c1.5-0.5,2.4-2,2.1-3.6c-0.9-5.4,2.4-8.3,6.5-10.6c5.1-1.5,10.1-4.8,15.3-0.4c1.3,0.9,1.3,2.1,1,3.5c-0.9,2.8-2.7,2-4.3,0.8
	c-3.1-2.4-5.7-0.7-8.2,0.9c-2.6,1.7-3,4.2-2,7c0.7,2.1,0.9,4.3-0.8,6.1c-2.5,2.6-2.5,5.7-1.9,8.9c0.9,4.4-0.6,7.5-4.3,9.7
	c-1.9,1.2-4,1.3-6.2,1.3c-1.9,0.1-3.7-0.4-5.5-0.8c-3.2-0.2-6.3-0.2-9.5,0C22.6,51.6,22.2,51.3,22.1,50.7z"/>
<path class="st3" d="M67.2,107.1c-3.6,2.1-3.4,5.3-2.7,8.8c0.6,3.2,1.8,6.4-2.3,8.7c-2.2,1.2-1.2,4-0.4,5.9c1.6,3.8,0.3,6.8-3.1,8.3
	c-2.9,1.3-6.3,4.4-9.5,0.1c-0.7-1-1.7-1.6-3-0.8c0.6-1.9,0.8-3.4,0.2-5.7c-1.3-4.8,0.5-10.2,2.4-14.6c3.7-8.8,3.9-9.5-4.6-11.6
	c-0.6-5.3,2.6-8.4,6.5-11c2.7-1.4,5.6-2,8.5-2.8c1-0.2,2-0.2,2.9,0.2c2,1.1,2.4,3.1,2.9,5c0.4,1.6,3.9,4-0.7,5
	C66.2,103.4,68.5,104.2,67.2,107.1z"/>
<path class="st4" d="M44.1,50.1c3.4-2.2,4.1-5.2,3.3-9c-0.7-3.2-2-6.8,2.4-9c2.1-1.1,1.1-3.8,0.3-5.5c-1.6-3.8-0.8-6.8,2.8-8.4
	c3-1.3,6.5-4.8,9.9-0.2c1.1,1.5,2.1,1.2,3.2,0c-2,2.3-0.6,5-0.8,7.5c-0.4,5.2,0.6,10.7-3.2,15.4c-1.8,2.2-1.4,5.6-0.1,8
	c0.9,1.7,3.1,3.2,5.5,1.5c1.6,5.4-2.3,8.1-5.5,11.2c-3.4,2.7-7.5,2.3-11.5,2.6c-2.9-2.1-4.8-4.8-4.6-8.5c2.3-2.1,3.2,0.5,4.7,1.3
	c0.4,0.2,1.1,0.6,1.2,0.2c0.3-1.2-0.8-1-1.4-1.1C48,54.1,44.2,54,44.1,50.1z"/>
<path class="st5" d="M75.2,59.1c1.4,1.7,2.7,3.4,4.1,5.1c2.4,1.5,3.1,4.2,4.5,6.4c0.4,4.3-1.8,7.6-3.8,11.1
	c-3.6,1.4-7.1-0.3-10.6-0.5c-0.5-0.2-1-0.4-1.5-0.7c-2.3-5.2-0.2-16.7,3.8-20.6C72.7,58.9,73.8,58.3,75.2,59.1z"/>
<path class="st6" d="M75.2,59.1c-3.7,0.6-4.1,4.1-5.2,6.6c-1.9,4.4-2.6,9.1-1.9,14c-2.7,3.9-1.2,7.9,0.1,11.8c0,2.9,1.2,5.4,2.2,8
	c0.7,1.8,1.9,3.6,1,5.7c-1.4,0.6-2.8,1.3-4.2,1.9c0.1-3-3-3.3-4.4-5.2c0.6-0.8,3.9,0.7,2.1-2.3c-1.2-1.9-1.9-4.2-2.9-6.3
	c-1.2-2.9-2-5.9-2.6-9c-0.6-3-0.1-5.2,2.8-6.6c2-4.4,1.6-9.4,4.1-13.6c2.1-2.8,2.4-7.3,6.9-8C73.8,57.1,74.5,58.1,75.2,59.1z"/>
<path class="st7" d="M22.1,50.7c0.3,0.1,0.7,0.1,1,0.2c1.5,0,2.6,0.7,3.2,2c3.6,7.1,5.9,14.5,3,22.5c-2.4,1.2-4.8,0.4-7.1,0
	c-4-0.7-1.8-4.3-3-6.3c0.1-3.9,0.2-7.9,0.2-11.8C19.4,54.6,20,52.3,22.1,50.7z"/>
<path class="st8" d="M89.4,106.9c-0.4-0.4-0.8-0.7-1.2-1.1c-1.7-0.5-2.8-1.7-3.5-3.2c-2.5-5-3.4-10.3-3.6-15.8
	c-0.1-2.2,0.6-4.3,2.7-5.5c1.6-0.7,3.2-0.7,4.9-0.6c2.7,0.2,4.2,1.2,4.1,4.3c-0.2,5.1-0.2,10.2,0,15.3c0.1,2.5-1.4,3.9-2.4,5.8
	C90,106.4,89.7,106.6,89.4,106.9z"/>
<path class="st9" d="M90.3,106.1c3.1-7.1,1.3-14.5,1.7-21.8c0.1-1.7-1.1-2.2-2.6-2.2c-2.1,0-4.3,0-6.4,0c-1.3,0.5-2.2,0-2.7-1.2
	c-0.8-4.1,3.3-6.8,2.9-10.8c-0.6-0.5-0.5-0.9,0.2-1.1c4.2,0.8,8.9,2,9.2,6.7c0.2,2.8,0.5,5.8,0.5,8.7c0,5.5-0.1,10.9,0,16.4
	C93.2,103.2,92.4,105,90.3,106.1z"/>
<path class="st10" d="M38.2,98.1c-1,0.2-1.8-0.1-2-1.3c-1.6-2.1,0.1-4.1,0.2-6.2c0.2-5.7-0.5-11.2-4.1-15.8c1-0.8,2.2-1,3.3-0.7
	c2.8,0.9,4.7-0.3,6.2-2.5c3.7,0.7,2.3,4.2,3.4,6.3C45.2,85.6,44.3,92.8,38.2,98.1z"/>
<path class="st11" d="M19.3,69c0.1,7.4,6,4.9,9.9,5.8c0.9-0.4,1.6-0.2,2.3,0.5c0.9,2.1,1.4,4.1,0.4,6.3c-4.4,0.7-1.1,4.8-3,6.6
	c-1.9-1.5-2.9-5.4-6.5-2.4c-1.4-2.1-3.2-4-3.2-6.8C19.2,75.6,19.2,72.3,19.3,69z"/>
<path class="st12" d="M31.2,82.2c0-2.3,0-4.6,0-6.9c0.3-0.3,0.6-0.3,0.9,0c2.6,1.5,4.7,2.5,5,6.6c0.4,5.2,0.2,10-0.9,15
	c-1.7-2.2-3.4-4.5-5.1-6.7c-1.1-0.9-0.8-2.4-1.6-3.4C27.5,84.3,29.1,83.2,31.2,82.2z"/>
<path class="st13" d="M20.4,9c4.9,5.5,4.4,9.7-2.3,15.8c1.3,0.8,2.5,1.7,3.7,2.5c-5.7-1.2-11-3-13.4-8.4C6.9,15.2,7.7,11.7,11,9
	c0.9-0.3,1.3,0.2,1.6,0.9c0.2,2.5-0.4,5,0,7.4c0.3,2.1,1.3,4,3.7,3.9c2.3-0.1,2.6-2.2,3-4c0.6-2.5-0.7-4.9-0.5-7.4
	C19.1,9.1,19.5,8.6,20.4,9z"/>
<path class="st14" d="M73.1,56.1c-3,2-3.7,5.5-5.8,8.1c-3.4,2.1-4.7,6.2-8.1,8.3c-3.7,0.6-4.2-2.4-4.3-4.6c-0.1-2.9-1.8-3-3.7-3.1
	c-0.7-0.3-1.2-0.7-1.3-1.6c3.6-1.6,8.1,0.1,11.2-3.2c2.3,2.1,4,1.3,5.7-0.8c1.4-1.7,2.2-4,4.3-5.2C71.8,54.8,72.5,55.5,73.1,56.1z"
	/>
<path class="st15" d="M38.2,98.1c3.6-6.2,5.8-12.8,6.2-20c0.9-1.7,1.9-1.2,3-0.3c0.3,0.4,0.5,0.9,0.7,1.3c0.6,4.9-1.1,9.3-2.7,13.7
	c-1.4,1.9-2.1,4.1-3.6,5.9c-0.2,0.1-0.4,0.2-0.6,0.4c-0.8,0.5-1.6,1.4-2.3,1.4C37.5,100.3,38.8,98.8,38.2,98.1z"/>
<path class="st16" d="M20.2,34.9c-0.1,4.3-4.5,1.4-5.4,4c-0.8-2.7-6.4,0-5-3.6c0.8-2.2,1.9-6.7,5.4-6C17.3,29.7,18.7,33.1,20.2,34.9
	z"/>
<path class="st17" d="M51.1,96.1c-3.6,2.5-5.5,6.1-6.9,10.1c-2.4-1.7-4.8-3.5-3-7c0,0,0,0.1,0,0.1c1.5-1.8,2.3-4.1,3.9-5.8
	c1.3-1.1,2.7-1.3,4.3-0.8C50.6,93.4,52.5,93.9,51.1,96.1z"/>
<path class="st18" d="M49.2,15.2c0.1-0.8,0.1-1.6,0.2-2.4c2.7,1.7,2.8-4.8,5.9-1.9c0.8-1.3,1.2-2.6-0.2-3.8c1.4-1.1,2.7-1.2,4.1,0
	C59,8.5,59.8,8.7,61,8.4c3.3,0.7,2.3,4.2,4,5.9C59.6,11.9,54.5,15,49.2,15.2L49.2,15.2z"/>
<path class="st19" d="M47,142.3c4.1,0.6,8.1,1.5,12-0.6c1.5-0.8,2.7-0.4,3,1.2c0.4,2.8-1.3,0.6-2,0.7c0.6,3.5-3.6,1.6-4.3,3.8
	c-0.3,1-1.1,0.7-1.9,0c-2.6-2.5-2.6-0.3-2.7,1.6C48.2,147.8,48,144.8,47,142.3z"/>
<path class="st20" d="M71.2,54.1c-0.8,3.2-2.8,5.7-5,7.8c-2,1.8-4.7,2.7-5-1.7c3.8-2.2,5.3-5.8,6.2-9.9C69.2,51,69.9,52.8,71.2,54.1
	z"/>
<path class="st21" d="M83.4,69c-0.1,0.4-0.1,0.8-0.2,1.1c-1.3-2-2.6-3.9-3.9-5.9c3.1-1.2,4.4-5.8,2.7-9.8c-1.3-3.1-0.9-5.1,3-5.3
	c1.7,0.1,3.1,0.8,4.3,2C83.4,55.8,82.8,62.2,83.4,69z"/>
<path class="st22" d="M102.2,119.2c3.5,0.2,4.3,1.9,1.8,4.3c-1,1-1.4,1.9-2,3c-1.3,2.3-3.2,2.5-4.3-0.2c-0.4-1-0.8-1.7-1.7-2.6
	c-2.9-2.8-1.7-4.3,2-4.4C99.4,119.7,100.8,119.8,102.2,119.2z"/>
<path class="st23" d="M102.1,135.3c4.7,2,6.3,6.8,3.9,11.3c-2.5,4.6-6.7,5.5-11.7,2.5c0.2-0.7,0.6-1.3,1.4-1.4
	c6.6,0.1,8.2-1.8,6.6-8.2c-0.2-0.9-0.7-1.8-0.7-2.9C101.6,136.1,101.8,135.7,102.1,135.3z"/>
<path class="st24" d="M102.1,135.3c0,0.2,0.1,0.3,0.1,0.5c-6.8,2.1-6.8,2.1-6.5,9.6c0,0.8,0.1,1.6-0.4,2.4c-0.3,0.4-0.6,0.9-1,1.3
	c-4.6-5.1-3.9-11.3,1.7-15.1C98.6,132.2,100.4,133.2,102.1,135.3z"/>
<path class="st25" d="M89.3,51.1c-1.8,0.1-3.4-0.2-4.3-2c0.4-0.9,0.5-2.1,1.1-2.7c1.4-1.4,1.7-5.4,4.7-3.4c2.1,1.4,1.5,4.5-0.1,6.7
	C90.3,50.3,89.7,50.6,89.3,51.1z"/>
<path class="st26" d="M20.1,111.1c0.3-2.9,0.7-5.6,4.2-6c1.5-0.2,2.8,1.3,2.4,2.5c-0.8,2.6-1.7,5.7-4.9,6.2
	C19.8,114.3,20.5,112.1,20.1,111.1z"/>
<path class="st27" d="M31.2,82.2c-2.7,2.7,0.3,5.3,0,8c-1.4,0.1-2-0.8-2.2-2C29.6,86.2,24.2,81.8,31.2,82.2z"/>
<path class="st28" d="M20.4,9c-0.4,0.4-0.8,0.8-1.2,1.2c-2.4-0.1-4.7,0-7.1-0.1C11.7,9.7,11.3,9.3,11,9C14.1,6.1,17.2,5.9,20.4,9z"
	/>
<path class="st29" d="M28.1,100.6c1.8,1.8,1.2,3.8,0.9,5.9C25.5,103.9,25.5,103.9,28.1,100.6z"/>
<path class="st30" d="M102.2,119.2c-1.3,1.9-2.7,2.4-4.1,0.1C99.4,116.8,100.8,117.4,102.2,119.2z"/>
<path class="st2" d="M61,8.4c-0.7,0.9-0.6,3-2.3,2.1c-0.6-0.3-2.4-2.8,0.6-3.4C59.8,7.5,60.4,7.9,61,8.4z"/>
<path class="st31" d="M80.3,80.9c0.9,0.4,1.8,0.8,2.7,1.2c-1.7,8.6,0.4,16.4,5.1,23.6c-3,0.7-6.1,0.4-9.1,0.2
	c-5.5-3.1-7.7-8.6-8.9-14.1c-0.8-3.7-4.1-7.6-1.1-11.7C72.9,79.5,76.5,81.7,80.3,80.9z"/>
<path class="st32" d="M69.1,80.1c1,9.5,4.1,18.2,10,25.9c-2-0.2-4-0.4-5.9-0.6c-2.3-4.4-4.9-8.6-6-13.4c-0.7-2.8-2-5.4-2.1-8.4
	c-0.1-2.5,0.8-3.5,3.1-3.8C68.4,79.9,68.8,80,69.1,80.1z"/>
<path class="st33" d="M63.3,140.7c2.8-2.7,5-5.3,4.1-9.4c-0.4-1.8,1.2-4,3.2-4.6c4.7-1.5,4.8-4.4,3.7-8.6c-1.3-4.8,1-8,7.4-10
	c-5.9,3.6-6.3,7.7-4.9,12.6c1,3.3-0.5,5.9-3.8,7.1c-3.3,1.2-4.6,3-3.4,6.8C71,138.5,68.7,140.7,63.3,140.7z"/>
<path class="st34" d="M67.1,91.9c2,4.5,4.8,8.6,6,13.4c-0.6,0-1.1-0.1-1.7-0.1C70.3,100.7,66.8,96.9,67.1,91.9z"/>
<path class="st35" d="M32.1,75.2l-0.5,0c0,0-0.5,0.1-0.5,0.1c-0.7-0.2-1.3-0.3-2-0.5c0.2-6.7,0-13.3-3-19.5
	c-0.8-1.6-1.3-3.4-3.1-4.4c3.4-1.2,6.8-0.6,10.2-0.5c5.6,4.8,7.1,11.7,8.9,18.3c0.3,1.1-0.1,2.3-0.9,3.2c1,3.5,0.1,5.2-3.8,3.8
	C35.7,75.1,33.9,75.2,32.1,75.2z"/>
<path class="st36" d="M41.3,72c-0.2-8.1-4.9-14.5-8-21.5c1.7,0.3,3.4,0.6,5.2,0.9c5.8,6.5,8.1,14.6,9.8,22.8c0.3,1.4,0.2,3-1.4,3.9
	c-0.9-0.7-1.7-0.7-2.5,0.1C41.9,76.8,44.6,72.9,41.3,72z"/>
<path class="st37" d="M46.9,78c0.5-8.8-3.6-16.1-7.2-23.6c-0.5-1-1.4-1.8-1.2-3.1c1.9-0.4,3.9-0.1,5.6-1.2c1.9,2.2,4,4.2,6.9,5
	c0.9,1.5,0.2,2.4-1.1,3.1c-1-1.5-1.7-3.2-4-3.1c0,3.8,0.8,7.2,3.5,10.2c1.2,1.3,1.9,2.5-0.1,4.4c-1.7,1.6,0.9,4.3,0.5,6.7
	c0,0.7-0.1,1.4-0.6,2c-0.7,0.4-1.4,0.4-2-0.1L46.9,78z"/>
<path class="st38" d="M49.2,15.1c-2.9,3.3-6.1,6.4-5.2,11.6c0.3,1.5-1.2,2.9-2.6,3.3c-4.8,1.4-4.3,5-4.1,8.8c0.4,6.7-0.7,8.1-7.3,10
	c6-3,6.6-7.8,5.3-13.5c-0.7-3.2,0.7-5.5,3.9-6.6c2.6-0.9,3.4-2.7,3.2-5.4C41.5,16.9,42.2,16.2,49.2,15.1
	C49.2,15.2,49.2,15.1,49.2,15.1z"/>
<path class="st39" d="M48.9,78.3c0.1-0.7,0.1-1.4,0.2-2.1c2.6-0.8,3-2.4,2.1-4.9c-0.8-2.2-1.6-4.6-0.1-6.9c4.2-1,3.8-0.9,4.6,2.9
	c0.4,1.7-0.3,5,3.2,5.1c4.9,0.8,5.1,1.1,4.2,6.8c-2.8,0.1-3.3,1.5-2.9,4.1c0.5,3.4,3,6.4,1.7,10.1c-0.9,0-1.9,0-2.8-0.1
	c-2.7,0.7-4.9,1-4.4-3.1c0.3-2.1-0.2-4.3-2.7-5.2C49.5,83.5,47.1,81.9,48.9,78.3z"/>
<path class="st40" d="M53.1,84.2c4.3,0.3,3.6,5.4,3.2,6c-2.4,4.6,1.9,2.1,2.8,3c-2.7,0.9-5.4,1.9-8.1,2.8c0.2-1.5-1.3-1.9-1.9-2.9
	C48.2,89.2,51.3,87,53.1,84.2z"/>
<path class="st41" d="M52,111.9c0.6-1.4-1.3-4.1,2.2-3.8c1.9,0.2,3.8,0.6,3.3,3.2c-0.4,2.1-0.6,4.6-3.5,4.6
	C50.7,116,52.7,113.3,52,111.9z"/>
<path class="st42" d="M61.2,99.4c-0.1,1.2-0.7,2.2-1.8,2.5c-1.3,0.3-1.5-1.1-1.8-1.9c-0.5-1.8,1.1-1.5,2-1.8
	C60.6,98,61.2,98.3,61.2,99.4z"/>
<path class="st43" d="M53.2,134.2c0.3,1.3,0.6,1.5,2.8,1.6c-2.3,2-4.4,2.1-6.2,0.4c-1-1,1.3-1,1.3-2
	C51.8,133.6,52.5,133.6,53.2,134.2z"/>
<path class="st44" d="M53.2,134.2c-0.7,0-1.4,0-2.1-0.1c-0.9-0.6-1.4-1.4-0.7-2.4c0.5-0.7,1.4-1.1,2-0.3
	C53.1,132.2,55.4,132.7,53.2,134.2z"/>
<path class="st45" d="M51.1,64.4c-0.9,3.3,1.7,5.8,2,8.8c0.3,3.2,0,5.6-4,3c-0.5-1.7-1-3.4-1.5-5.1c-0.3-1.1,0-0.9,1.4-2.4
	c1.1-1.2,0.7-3.2-1.5-3.1c-1.9,0.1-2.1-1.4-2-2c0.5-2.9-0.1-5.6-1.6-8c-0.5-0.8-0.2-1.2,0.7-1.1c0.5,0.1,0.9,0.5,1.3,0.7
	c1.3,2.8,2.6,5.5,4,8.3C50.3,63.7,50.7,64.1,51.1,64.4z"/>
<path class="st46" d="M60.1,44.6c-0.8,1.4,1.1,4.1-2.2,3.9c-1.9-0.1-4.2-0.2-3.8-3.2c0.3-2.4,0.9-4.8,4-4.7
	C61.2,40.7,59.3,43.3,60.1,44.6z"/>
<path class="st47" d="M49.9,58.2c0.4-1,0.7-2.1,1.1-3.1c2.3-0.6,3.7,0.7,3,2.6C53.6,58.9,51.6,60.4,49.9,58.2z"/>
<path class="st48" d="M61.1,22.2c0.8,1.4,1.5,2.9-0.9,3.3c-1.3,0.2-2.6-1.3-2.6-1.9C57.9,21.4,59.8,22.3,61.1,22.2L61.1,22.2z"/>
<path class="st49" d="M61.2,22.2c-1.1-1.6-3.1-0.6-4.5-1.6c1.3-2.2,3-1.8,4.7-0.8C62.6,20.6,62,21.5,61.2,22.2
	C61.1,22.2,61.2,22.2,61.2,22.2z"/>
<path class="st50" d="M63.1,79.2c0.9-3.7-1.4-5.4-4.2-6.8c1.4-3.1,4-5.4,6.1-8c0.8-1,1.5-1.1,2.3-0.1C65.9,69.2,64.5,74.2,63.1,79.2
	z"/>
<path class="st51" d="M12.1,10.1c2.4-1.5,4.7-1.8,7.1,0.1c1.7,2.7,2,5.6,1.2,8.5C19.8,21,18.5,23,15.7,23c-2.7,0-4.1-2-4.6-4.4
	C10.5,15.7,10.4,12.7,12.1,10.1z"/>
<path class="st52" d="M53.1,84.2c-0.1,3.5-3.1,5.8-4,9c-1.4-0.2-2.7,0.3-3.9,1.1c-0.9,0.2-1.4-0.1-1.1-1.1c1.7-4.9,3.2-9.7,3.1-15
	c0.5,0,1.1,0,1.6,0.1C48.2,81.8,50.6,83,53.1,84.2z"/>
<path class="st40" d="M44.2,93.2c0.4,0.4,0.7,0.7,1.1,1.1c-1.2,1.8-1.7,4.1-4.1,4.9C41.4,96.8,42.7,95,44.2,93.2z"/>
<path class="st53" d="M95.3,147.8c-1-2-1.3-4.1-1.2-6.3c0.3-5.4,2.7-7.2,8.1-5.7c1.2,2.3,2.1,4.7,2,7.5
	C103.7,149.3,100.5,151,95.3,147.8z"/>
</svg>
