<?xml version="1.0" encoding="utf-8"?>
<!-- Generator: Adobe Illustrator 23.1.1, SVG Export Plug-In . SVG Version: 6.00 Build 0)  -->
<svg version="1.1" id="Livello_1" xmlns="http://www.w3.org/2000/svg" xmlns:xlink="http://www.w3.org/1999/xlink" x="0px" y="0px"
	 viewBox="0 0 112 157" style="enable-background:new 0 0 112 157;" xml:space="preserve">
<style type="text/css">
	.st0{fill:#FFFFFF;}
	.st1{fill:#231F21;}
	.st2{fill:#F6E4E0;}
	.st3{fill:#D48634;}
	.st4{fill:#D48734;}
	.st5{fill:#F5E2DF;}
	.st6{fill:#F6E9E2;}
	.st7{fill:#CAC9CB;}
	.st8{fill:#5F7681;}
	.st9{fill:#A1ACAF;}
	.st10{fill:#5E7680;}
	.st11{fill:#F3E2E1;}
	.st12{fill:#3D3835;}
	.st13{fill:#A8A8AA;}
	.st14{fill:#3B3534;}
	.st15{fill:#ECC053;}
	.st16{fill:#583B39;}
	.st17{fill:#735A60;}
	.st18{fill:#D46932;}
	.st19{fill:#CCCCCC;}
	.st20{fill:#47352C;}
	.st21{fill:#CECCC5;}
	.st22{fill:#656162;}
	.st23{fill:#AAA9AC;}
	.st24{fill:#736367;}
	.st25{fill:#979698;}
	.st26{fill:#D66831;}
	.st27{fill:#6E6E70;}
	.st28{fill:#747577;}
	.st29{fill:#393935;}
	.st30{fill:#434343;}
	.st31{fill:#959998;}
	.st32{fill:#565657;}
	.st33{fill:#0C0C0C;}
	.st34{fill:#EECF72;}
	.st35{fill:#686D68;}
	.st36{fill:#9C9CA0;}
	.st37{fill:#6B6D6A;}
	.st38{fill:#A7A7A9;}
	.st39{fill:#9B999C;}
	.st40{fill:#BE3A2D;}
	.st41{fill:#C23F31;}
	.st42{fill:#AEB2B3;}
	.st43{fill:#0A080A;}
	.st44{fill:#5D2918;}
	.st45{fill:#F1CB33;}
	.st46{fill:#D23F39;}
	.st47{fill:#463D3D;}
	.st48{fill:#4E2412;}
	.st49{fill:#B1AEB4;}
	.st50{fill:#F4DBD5;}
	.st51{fill:#655A56;}
	.st52{fill:#837977;}
	.st53{fill:#BDB09E;}
	.st54{fill:#D8D1CB;}
	.st55{fill:#554A47;}
	.st56{fill:#B5492D;}
	.st57{fill:#645C59;}
	.st58{fill:#AFAFAE;}
	.st59{fill:#4E4A4D;}
	.st60{fill:#A1512A;}
	.st61{fill:#9A2F25;}
	.st62{fill:#291F21;}
	.st63{fill:#BE2C2C;}
	.st64{fill:#B82E2C;}
	.st65{fill:#212023;}
	.st66{fill:#CF332E;}
	.st67{fill:#888686;}
	.st68{fill:#A7A7A7;}
	.st69{fill:#B3262A;}
	.st70{fill:#D83F2F;}
	.st71{fill:#4B2A30;}
	.st72{fill:#5A7171;}
	.st73{fill:#66767A;}
	.st74{fill:#5B6A71;}
	.st75{fill:#D5A597;}
	.st76{fill:#BBB0B5;}
	.st77{fill:#C6B1BB;}
	.st78{fill:#E2DCDC;}
	.st79{fill:#E3D9D8;}
	.st80{fill:#26272A;}
	.st81{fill:#ADBCC1;}
	.st82{fill:#53403B;}
	.st83{fill:#AFC8C5;}
	.st84{fill:#E1D5D7;}
	.st85{fill:#DBD3CF;}
	.st86{fill:#CECEC6;}
	.st87{fill:#D3D6D2;}
	.st88{fill:#BABCC4;}
	.st89{fill:#566F70;}
	.st90{fill:#5A6F73;}
	.st91{fill:#401622;}
</style>
<path class="st0" d="M0,78.6C0,55.4,0,32.2,0,9c0-8.3,0.7-9,9.3-9C41,0,72.7,0,104.4,0c6.4,0,7.6,1.2,7.6,7.6c0,47.2,0,94.5,0,141.7
	c0,6.3-1.4,7.7-7.7,7.7c-32.2,0-64.4,0-96.6,0c-6.3,0-7.7-1.5-7.7-8.3C0,125.4,0,102,0,78.6z"/>
<path class="st1" d="M33.4,127.5c0.8-4.7,2.5-9.4,0.1-14.1c-0.8-1-0.6-1.9,0.6-2.2c2.1-0.6,4.1-1.4,6.2-1.7c1.3-0.2,2.6,0.3,3.9,0.5
	c8.3,1,10.8,4.8,8.2,12.8c-0.3,0.8-0.6,1.5-1,2.2c-1.9,2.4-1.3,4.8-0.2,7.4c2.1,4.9,0.6,7.1-4.8,7.4c-3.3,0.1-6.6,0.7-9.8-0.7
	c-1.7-1.7-1.9-4.3-3.7-6C33,131.2,32.3,129.3,33.4,127.5z"/>
<path class="st2" d="M50.4,124.6c0.5-1.8,1-3.5,1.3-5.3c0.9-5.1-0.9-7.6-6.2-7.7c-1.9,0-3.5-0.9-5.2-1.2c-0.4-0.4-0.5-0.9-0.4-1.4
	c1-1.8,3-1.7,4.6-2.4c4.1-1.3,7.4,1.3,11,2.3c2.2,0.2,4.6-1.3,6.7,0.5c-0.3,2.9-2.6,1.8-4.2,2.1c-1.5,0.3-3.9-0.8-4.3,1.2
	c-0.5,2.3,2.2,2.1,3.5,2.5c3.4,1,3.8,2.7,2,5.4c-1.6,3.4,2.4,2.2,3.1,3.8c3.5,3-0.3,6.1,0,9.1c-0.9,0.8-3.1-0.2-2.9,2.1
	c1,1.4,3.2,0.1,3.9,1.9c-2.7,2-5.7,1.2-8.6,1.1c-0.8,0-2.1-0.4-2.1-1C52.1,133.2,47.7,129.4,50.4,124.6z"/>
<path class="st3" d="M34.4,59.4c1.7,0.5,2.4-0.9,3-1.9c3.4-5.1,8-8.5,13.9-10.1c2.1-1,4.3-1.4,6.5-1.3c0.5,0.2,0.7,0.6,0.8,1.1
	c-0.5,1.6-1.2,3.1-1.2,4.7c-0.6,7.9-6.6,11.1-12.5,14.4c-3.4,1.4-6.1-0.3-8.8-2c-0.7-0.6-1.3-1.4-1.7-2.3
	C34.1,61.2,33.7,60.3,34.4,59.4z"/>
<path class="st4" d="M62.2,109.4c-2.3,0.3-4.7,0.6-7,0.9c-2.7-1.4-1.2-3.5-0.8-5.3c0.1-0.4,0.3-0.9,0.4-1.3c1.1-3.6,5-5.2,6-8.8
	c2-1.8,4-3.4,6.6-4.2c2.6-0.4,4.8,0.9,6.9,2.1c1,0.7,1.9,1.5,2.5,2.7c0.2,0.8,0.1,1.5-0.5,2C71.8,101.8,68.7,107.5,62.2,109.4z"/>
<path class="st5" d="M58.1,47.6c0.1-0.3,0.1-0.5,0.1-0.8c-0.5-0.5-0.5-0.9,0.1-1.3c-0.7-2.1-2.1-3-4.4-3.1c-1.5-0.1-3.6-0.2-4.2-1.9
	c-0.9-2.3,2.4-1.7,2.9-3.3c0.2-3-0.6-3.6-3.3-2.6c-3.1-3.5-0.2-6.8,0.2-10.2c1.8-1.5,4.2-1.7,6.3-2.4c0.5-0.1,0.9-0.2,1.4-0.1
	c0.8,0.1,1.4,0.4,1.9,1.1c2.8,4.8,3.3,9.9,1.3,15.1c-1.4,3.6-0.3,6,3.2,7.5c1.6,0.9,3.5,0.6,5.2,1.1c1,0.5,2.2,0.9,1.4,2.4
	C64.6,52.2,60.5,51.7,58.1,47.6z"/>
<path class="st6" d="M21.3,70.4c-2.3-3.7-4.2-7.5-0.1-11.3c1.4-1.3,1.1-3,1.1-4.7c0-6.2,0-12.3,0-18.5c0-1.7-0.8-3.9,2-4.4
	c2,2,1.2,4.5,1.4,6.9c0.3,6.3-0.4,12.5,0.5,18.8c0.2,0.6,0.5,1.3,0.4,1.9c-0.6,3.3,1.5,1.5,2.7,1.5c1.7,0.1,3,0.8,3.5,2.6
	c-2.5,6.1-5.4,11.9-11.5,15.4c-0.4,0-0.7,0-1.1,0c-0.3-0.4-0.4-0.8-0.4-1.2C20.2,74.9,22.3,73,21.3,70.4z"/>
<path class="st7" d="M68.3,47.5c-1.7-0.2-3.6,0.6-5-0.8c-5.4-4.7-3.8-10-1.1-15.3c2,1,5,0.8,5.2,4.1c0,1.8-0.1,3.6,0.4,5.4
	c-0.3-1.7-0.6-3.3-0.1-5c2.5-3.6,5.7-4.2,9.5-2.4c-0.8,4.4-1.3,8.8,1.1,13C75.2,49.5,71.5,46.7,68.3,47.5z"/>
<path class="st8" d="M92.2,55.6c0,6.7,1.2,13.5-0.7,20.2c-2,0-4,0.6-5.9,0.9c-2.9,0.2-5.8,0.6-8.7-0.4c-1.7-1.1-1.4-2.5-0.5-3.8
	c4.3-5.8,9-11.3,13.9-16.6C90.9,55.4,91.6,55.3,92.2,55.6z"/>
<path class="st9" d="M28.4,108.3c-2.2-0.2-4.3-0.6-6.1-1.8c-0.6-2,0.8-3.2,1.9-4.4c6.4-7.6,12.5-15.5,19.1-23
	c0.7-0.3,1.4-0.3,2.1,0.1c1.7,3.9-2.9,4.4-3.7,7c-1.3,1.9-2.9,3.5-4.3,5.3c-0.8,0.8-1,2.1-1.2,2.2c0.2-0.1,0.5-1.2,1.2-2.1
	c1.3-1.7,3-3.2,4.1-5.1c2.4-2.4,4.5-5.1,6.9-7.5c0.6-0.3,1.3-0.5,2-0.4c3.3,0.7,2.4,2.7,1.1,4.4c-2,2.6-4.2,5.1-6.6,7.4
	C39.1,96.2,33.8,102.2,28.4,108.3z"/>
<path class="st10" d="M19.2,82.4c0.3-0.4,0.6-0.8,0.9-1.2c2.6,0,5.2,0,7.7-0.8c2.5-0.3,5-0.7,7.4,0.6c1.4,1.7,0.4,3.1-0.7,4.5
	c-3.7,4.9-7.8,9.5-11.6,14.3c-0.8,1-1.9,2.2-3.3,1.6c-1.3-0.6-0.8-2.1-0.7-3.1C19,93,18.4,87.7,19.2,82.4z"/>
<path class="st11" d="M91.3,76.8c0.3,0.5,0.6,1.2,1.1,1.5c1.2,0.8,4.2-0.9,3.3,2.7c-0.6,2.6-1,5.1-4.6,4.4c-0.4-0.9,0.3-1.8,0-3.1
	c-0.8,1.5-2.1,2.6-0.8,4.3c0.8,5.3-1.4,10.1-3,14.9c-2.4,0.2-1.8-2-2.6-3.1c-0.2-0.4-0.4-0.7-0.6-1c-0.9-1.3-2.3,0-3.4-0.5
	c-1.5-0.6-2.3-1.6-2.2-3.3c2.5-6.5,7.5-11.4,11.6-16.9C90.4,76.2,91,76.4,91.3,76.8z"/>
<path class="st12" d="M89.5,50.7c1.3,0.5,2.9,0.7,2.7,2.7c-4,6.6-9.8,11.8-14.4,18c-1.3,1.8-2.5,3.4-2.9,5.6
	c-0.2,0.4-0.4,0.8-0.8,1.1c-2,0.5-4,0.5-6-0.4c-1-2.1,0.5-3.4,1.7-4.7c2.1-2.3,3.9-4.9,5.8-7.4c1.6-2.2,3.8-3.9,5.2-6.3
	C83.9,56.6,85.3,52.2,89.5,50.7z"/>
<path class="st13" d="M77.1,33.5c-0.3,0.4-0.9,1-0.9,1c-3-2.5-5.4-0.2-7.8,1.1c-0.7-4.4-1.1-8.7-3.1-12.8c-1-2,0.5-3.1,2.4-3.4
	c3.7-0.5,7.1-0.2,8.9,3.7c0.5,0.8,0.9,1.8,1.7,2.4C77.9,28.2,77.5,30.8,77.1,33.5z"/>
<path class="st14" d="M43.5,79.8c-7.1,8.9-14.1,17.8-21.2,26.6c-1.8-0.1-3.5-0.3-2.8-2.9c5.7-7.9,12.4-15,18.2-22.9
	c1-0.8,1.9-1.6,3.2-1.9C41.9,78.7,42.9,78.7,43.5,79.8z"/>
<path class="st15" d="M24.4,38.6c0-2.3,0-4.7-0.1-7c0.6-2.4,1.4-4.8,1.8-7.2c0.4-1.9,0.7-4-2.2-4.7c-2.2-0.5-2.6-2.2-2-4.2
	c0.5-1.7,1.9-2.3,3.5-2c1.9,0.2,3,1.5,3,3.4c0.1,3.3,0,6.6-0.1,9.9c-0.1,6.3-0.1,12.5-0.2,18.8c-3-0.9-2.7-3.6-2.6-5.7
	c0.1-2,0.2-4.1,0.4-6.1C25.1,35.2,27.2,37.7,24.4,38.6z"/>
<path class="st16" d="M27.3,81.7c-2.5,0.9-5,1.9-7.2-0.5c0.3-1,1.6-1.5,1.3-2.7c4-4.9,7.8-9.9,11.2-15.3c0.2-1.5,0.7-2.7,2.7-2
	c0.4,0.7,0.9,1.4,1.3,2.1c0.6,3.5-1.5,5.8-3.4,8.2C30.6,74.6,28.3,77.8,27.3,81.7z"/>
<path class="st17" d="M28.4,108.3c1.3-5.7,6.4-8.7,9.9-12.8c1.7-2.1,2.9-5.2,6.1-5.9c0.8,0.3,1.8,0.1,2.1,1.2
	c-0.5,1.6-1.1,3.3-0.8,5c-0.3,1.2-1.1,2-2.2,2.5c-2.3,0.6-4.5,1.2-3.8,4.3c-0.3,1.8-1.4,2.9-3.1,3.4c-2.5-0.3-3,2.3-4.6,3.3
	C30.9,109,29.6,108.6,28.4,108.3z"/>
<path class="st18" d="M85.7,97.6c0.5,1.3,1.1,2.6,1.6,3.9c0.7,8.3,0.1,16.6-1,24.8c-1.1,1.5,0.3,3.6-1.8,5.9
	c-1.4-6.6,0-12.7-0.9-18.7c-0.4-1.7-0.9-3.4-1.3-5.1c-0.4-0.4-0.6-0.8-0.7-1.4C82.7,103.8,82.5,100,85.7,97.6z"/>
<path class="st19" d="M69.3,9.6c1.8,0.2,3.6,0.2,5.3,0.6c3.2,0.9,6.3,1.9,3.6,6.4c-0.6,0.9-0.1,2.5-0.1,3.8
	c-0.8,0.2-1.3-0.2-1.8-0.7c-3.5-3.5-8.1-1.4-12.1-2.2c-0.7-0.1-1.4-0.3-1.9-0.7c-1.2-2.6,1.2-3.2,2.5-4.5C66,11,67.8,10.6,69.3,9.6z
	"/>
<path class="st20" d="M91.3,76.8c-4.1,5.7-8.3,11.4-12.4,17.1c-0.3,1.6-0.8,2.7-2.8,1.9c-0.6-0.7-1.3-1.4-1.9-2.1
	c0.5-1.8,1.1-3.5,2.2-5c2.9-4.7,6.6-8.7,9.8-13.1c1.8-0.6,3.6-2.4,5.3,0.3C91.5,76.1,91.4,76.4,91.3,76.8z"/>
<path class="st21" d="M33.4,127.5c0,1.9-0.1,3.8-0.1,5.6c1.6,1.6,1.5,4,2.7,5.8c1.8,1.9,4.4,1,6.5,1.8c1.7,0.7,4,0.5,4.4,3.1
	c-0.3,2.2-3.7,2.1-3.5,4.7c-2.4-0.4-4.9-0.7-7.3-1.1c-1.6-0.2-3.5-1.3-3.3-2.5C33.4,139.1,30.5,133.2,33.4,127.5z"/>
<path class="st22" d="M42.3,141.5c-2.2-0.8-5.3,1.4-6.9-1.9c0.2-0.5,0.3-1.1,0.9-1.2c3,0,6,0.1,9,0.1c6.3,0.1,7-0.9,4.3-6.4
	c-1.4-2.8-1.9-5.3,0.9-7.6c-1,4.3,2.9,7.7,2.1,12c-0.2,1.2,1.4,0.9,2.3,0.9c2.8,0.2,5.6-0.8,8.4,0.1c0,0.6,0.1,1.3,0.1,1.9
	c-0.5,0.5-1,1-1.6,1C55.3,140.6,48.9,142.4,42.3,141.5z"/>
<path class="st23" d="M42.3,141.5c7-1.5,14-2.3,21.1-2c1.9,2.4,4.1,4.7,2,8.1c-3.4-0.9-6.4-2.6-9.7-3.7c-1.8-0.2-3.7-0.2-5.5,0.1
	c-1.3,0.3-2.4,1.6-3.9,0.5C46.3,141.7,43.2,143.1,42.3,141.5z"/>
<path class="st24" d="M79.3,48.4c1.5-0.1,2.9,0.2,4.1,1c1,1.3,1.2,2.7,0.7,4.3c-1.1,2-4,1.6-5.1,3.7c0.7-0.4,1.5-0.5,2.3-0.2
	c0.8,1-0.1,1.7-0.4,2.5c-0.9,1.8-2,3.6-4.3,3.9c-1.4-1.2-3.2,0-4.7-0.7c-1.4-1.3,0.4-2.7,0-4c0.2-1.5,0.2-2.9,0-4.4
	c0.1-1.4,0.9-2.5,1.8-3.5c0.5-0.5,1.1-0.8,1.8-0.7c1.7,0.9,2.6-0.2,3.4-1.5C78.9,48.7,79.1,48.5,79.3,48.4z"/>
<path class="st25" d="M69.3,9.6c1.3,2.9-1.8,1.4-2.4,2.4c-1.1,1.9-4,1.8-4.4,4.3c-0.3,0.4-0.7,0.6-1.2,0.6c-1.7-0.6-2.4-2.1-3.4-3.4
	c-0.5-0.6-1.6-1.1-1.6-1.8c0.2-2.8-1.3-3.2-3.5-3c-1,0.1-1.9-0.2-2.6-1.1C56.9,5.6,63.1,7.1,69.3,9.6z"/>
<path class="st26" d="M24.4,38.6c1.7-1.7,0.4-4.2,1.7-6.7c0.5,5-0.3,9.5,2,13.6c0.3,1.3,0.6,2.5,0.9,3.8c0.2,0.2,0.4,0.3,0.5,0.5
	c-0.6,3.3-0.4,6.9-4.1,8.7C22.8,51.9,24.3,45.2,24.4,38.6z"/>
<path class="st27" d="M50.2,7.5c1.5,0,2.9,0.1,4.4,0.1c2.7,0,2.6,0,2.2,2.7c-0.3,1.9,2.3,0.8,2.5,2.3c-1.4,1.5-1.9,3.8-4.2,4.4
	c-0.5,0-0.9-0.1-1.3-0.4c-1.6-1.5-3.5-2.5-5.4-3.4c-1.5-0.7-3.1-1.5-2.1-3.7C47.3,8.3,48.7,7.7,50.2,7.5z"/>
<path class="st28" d="M56.2,142.6c2.8,2.2,7.2,1.4,9.2,5c-3.1,3.4-7.1,2.9-11.1,2.8c-0.7-1.6-5.4,1.5-3.6-3.1
	C52.8,146.1,54.5,144.3,56.2,142.6z"/>
<path class="st29" d="M10.7,27.5c1.4,0,5.8,5.7,5.6,6.8c-0.6,3.5-4.4,0.7-5.6,2.9c-1-2.1-6,0.2-4.7-3.4C6.8,31.6,8,28.4,10.7,27.5z"
	/>
<path class="st30" d="M96,118.6c1.8,2.1,6.7-2.7,6.7,2.3c0,1.8-2.1,6.4-5.4,6.2c-2.7-0.2-3.6-4-4.9-6.3
	C91.5,119.3,93.8,118.2,96,118.6z"/>
<path class="st31" d="M38.3,81.4c-6.3,7.3-11.8,15.4-18.8,22.2c-1.6-7-1.2-14.1-0.2-21.2c0,6,0,12.1,0,18.1
	c5.9-6.3,12.1-11.8,16.3-19C36.9,79.7,37.4,79.6,38.3,81.4z"/>
<path class="st32" d="M54.3,16.5c0.3,0,0.5,0,0.8,0c2.2,0.3,4.4,0.7,6.6-0.1c0.3,0,0.6,0,0.9-0.1c0.6,0.1,1.2,0.2,1.9,0.3
	c2.8,0.7,5.6,0.4,8.4,0.5c1.2,0,3-0.4,2.8,1.7c-0.2,1.7-1.7,1.2-2.8,1.2c-7.3,0.1-14.5,1.2-21.8,1.3c-1,0.1-1.8-0.2-2.6-0.8
	c0-0.3-0.1-0.5-0.2-0.8C48.1,14.5,51.8,16.6,54.3,16.5z"/>
<path class="st33" d="M96.9,141.9c0.2,1.6,0.3,3.3,0.6,4.9c0.3,1.7-0.8,1.5-1.8,1.4c-0.8-0.1-2.6,0.2-1.9-1.2
	c1.8-3.5,0.3-7.2,1-10.7c0.5-2.9,2-4.5,5-4.1c0.5,0.1,1.1,0.8,1.2,1.4c0.2,0.7-0.6,1.5-1.2,1c-3.7-2.7-2.5,0.8-2.7,2.2
	c-0.2,1.6,0,3.3,0,5C97,141.9,96.9,141.9,96.9,141.9z"/>
<path class="st34" d="M83.5,113.5c1.9,5.4,0.4,11,1,16.6c1.4-0.9,0.2-3,1.7-3.8c1,3.7-1.7,7.5,0,11.2c-0.6,1.9-0.5,4-1.9,5.7
	c-3.1-1.9-2.2-5-1.9-7.6C83.4,128.3,83.5,120.9,83.5,113.5z"/>
<path class="st35" d="M29.1,49.3c1.9-5,5.1-9.5,4.9-15.2c0-1.6,1.6-2.4,2.7-3.3c0.2-0.2,1.1,0,1.3,0.3c0.7,1.4,1.2,3.4,0.3,4.3
	c-4.7,4.5-4.5,11.2-7.9,16.2c-0.6-0.3-0.8-1.1-1.2-1.6C29.1,49.8,29.1,49.5,29.1,49.3z"/>
<path class="st36" d="M51.5,147.3c-1.8,3.5,2.8,1.3,2.8,3.2c-3.9,0.5-7.5-0.6-11-2c-3.1-4.4,1.7-2.9,3-4c1.6,0.2,2-1.5,3.1-1.9
	C50.6,143.9,52.6,145,51.5,147.3z"/>
<path class="st37" d="M82.2,107.3c0,0.4,0,0.7,0,1.1c-2.2,3.8-3.5,7.9-5,12c-0.9,1.5-0.4,3.3-1.2,4.8c-1,0.3-1.4,2.6-2.6,1.3
	c-1.3-1.5-1.8-5-0.7-5.4c4.6-1.8,3.7-6.4,5.5-9.5c1.1-2,1.9-4.1,2.8-6.2C82.1,105.7,81.5,107,82.2,107.3z"/>
<path class="st38" d="M54.3,16.5c-1.4,2.2-5.5-0.8-6.1,3.1c-1-3.3-4.6-6.1-1.9-10.1c0,2.5,2.2,2.4,3.7,3.1
	C51.8,13.4,54.3,13.6,54.3,16.5z"/>
<path class="st39" d="M73.9,76.7c1.1-4.6,5-7.2,7.6-10.7c3.3-4.4,7-8.4,10.6-12.5c0,0.7,0.1,1.4,0.1,2.2
	C86.7,62,80.6,68.1,76.3,75.5C75.8,76.5,75.2,77.3,73.9,76.7z"/>
<path class="st40" d="M35.2,61.3c-0.9,0.7-1.8,1.3-2.7,2c-1.1-0.7-2.2-1.4-3.2-2c-3.2-2.6-2.8-5.2,1-7.6c1.8,1.6,3,3.7,4.1,5.9
	C34.7,60,34.9,60.7,35.2,61.3z"/>
<path class="st41" d="M76.2,95.7c1.3,0,2-1,2.8-1.9c0.8,0.9,1.6,1.7,2.5,2.6c1.1,0.6,2.2,1.2,2.4,2.6c-0.6,2.1-0.2,4.6-2.6,5.8
	c-1.6-2.5-3.3-4.9-4.9-7.4C76.2,96.9,76.2,96.3,76.2,95.7z"/>
<path class="st42" d="M80.4,59.6c0.3-0.7,0.6-1.4,0.9-2c-0.8-2,1-2.4,2-3.3c0-1.6,0.1-3.2,0.1-4.8c2.2-0.2,4.1,0.7,6.1,1.3
	c-2.5,3-5.1,5.9-7.6,8.9C81.3,60.1,80.9,60,80.4,59.6z"/>
<path class="st43" d="M11.4,23.7c0-5.8,0.2-10.1-0.1-14.3c-0.1-1.6,0.2-2.1,1.6-2c1.5,0.1,1.3,0.9,1,2
	C12.9,13.7,15.2,18.5,11.4,23.7z"/>
<path class="st44" d="M30.4,53.6c-1.7,2.4-4.1,4.6-1.1,7.6c-2.8,1.2-3.9,0.1-3.8-2.8c1.2-2.8,2.5-5.6,3.7-8.4c1.2-0.1,0.8,1,1.2,1.6
	C30.4,52.3,30.4,52.9,30.4,53.6z"/>
<path class="st45" d="M84.4,143.2c0.3-2-1.6-4.7,1.9-5.7c1.6,1.1,3.9,1.9,2.8,4.4C88.2,143.9,86.3,144.2,84.4,143.2z"/>
<path class="st46" d="M44.5,107.6c-1.5,0.6-3,1.1-4.5,1.7c-1.6,1.4-3.2,1.4-4.8,0.2c-0.2,0-0.5-0.1-0.7-0.1
	c-0.5-0.4-0.5-0.8-0.2-1.3c2.5-1.7,4.5-4.4,8.1-3.4C43.7,105.2,44.5,106.2,44.5,107.6z"/>
<path class="st47" d="M90.3,86.6c-0.6,0.2-1.4,1.5-1.9,0.1c-0.3-0.6,0.3-1.6,0.4-2.4c0.3-1.8,0.7-3.6,2.5-4.4
	c0.3-0.2,1.3,0.4,1.6,0.9c1.4,2.2-1.1,3.1-1.8,4.6C90.9,85.8,90.6,86.2,90.3,86.6z"/>
<path class="st48" d="M81.2,104.9c0.7-2,1.5-4.1,2.2-6.1c0.1-1.2,0.1-2.4,1.8-2.3c0.2,0.4,0.3,0.8,0.5,1.1c-1.1,3.2-2.3,6.5-3.4,9.7
	c-1-0.2-0.7-1.2-1.1-1.8C81.1,105.3,81.1,105.1,81.2,104.9z"/>
<path class="st49" d="M20.4,77.6c0,0.3-0.1,0.6-0.1,0.9c-1.4-0.2-2.9-0.3-4.9-0.6c1.1-2.5,1.3-5.2,4.8-5.5
	C21.5,74.1,19.9,75.9,20.4,77.6z"/>
<path class="st50" d="M68.3,47.5c3.1-2.1,6.7-0.4,9.9-1c0.3,0.6,0.7,1.3,1,1.9c0,0,0,0.1,0,0.1c-0.8,0.7-1.7,1.1-2.7,1.1
	c-2.1-0.5-4.4,0.3-6.3-1.2C69.6,48.1,69,47.8,68.3,47.5z"/>
<path class="st16" d="M20.4,77.6c-2.6-1.6-0.4-3.4-0.2-5.2c0.4-0.7,0.7-1.4,1.1-2c1-0.4,2.2-0.6,1.7,1C22.4,73.5,22.4,76,20.4,77.6z
	"/>
<path class="st51" d="M49.2,34.6c0-1.9,1-2.3,2.5-1.5c1.5,0.9,2.7,2.3,2.9,4c0.1,0.8-1.3,0.3-2.1,0.1C51.9,35.8,51.1,34.5,49.2,34.6
	z"/>
<path class="st52" d="M59.3,135.7c-1.3-0.2-2.9,0.2-4.2-1.6c2.6-0.7,4.8-1.5,7.1-0.5C62.1,135.4,60.5,135.2,59.3,135.7z"/>
<path class="st53" d="M35.2,109.5c1.6-0.1,3.2-0.1,4.8-0.2c0.1,0.3,0.2,0.7,0.3,1c-1.5,1.5-3.3,1-5.1,1c-1.4,0-2.1,0.5-1.9,2
	C30,110.3,35.2,111.1,35.2,109.5z"/>
<path class="st54" d="M34.4,108.4c0,0.3,0,0.7,0.1,1c-0.8-0.1-1.6-0.1-2.4-0.2c0.1-2.8,0.3-5.6,4.4-3.7
	C36.8,107.3,35.3,107.6,34.4,108.4z"/>
<path class="st55" d="M62.3,124.4c-2.8,1.1-3.9-1.1-5.2-2.7c-0.8-0.9-0.6-1.1,2.1-1C59.2,122.8,62.3,122.3,62.3,124.4z"/>
<path class="st56" d="M76.8,19.2c0.4,0.4,0.8,0.8,1.3,1.2c0.1,1.7,0.2,3.4,0.3,5.1c-0.9,0.1-1.7-0.1-2.1-1
	C75.8,22.7,74.5,20.7,76.8,19.2z"/>
<path class="st5" d="M48.4,20.4c0.6,0,1.3-0.1,1.9-0.1c0.5-0.2,0.9-0.2,1.4,0c1.6,0.7,4.1-0.7,4.8,2.1c-0.1,0.1-0.3,0.3-0.4,0.4
	c-2.2,0.1-4.5,1.3-6.7-0.2C49,21.9,48.7,21.1,48.4,20.4z"/>
<path class="st50" d="M58.3,45.5c0,0.4-0.1,0.8-0.1,1.3c-2.3,0.2-4.6,0.5-6.9,0.7C53,44.5,55.9,45.9,58.3,45.5z"/>
<path class="st57" d="M49.3,22.6c2.2-0.2,4.5-0.8,6.7,0.2c-2,1.2-4.2,1.8-6.6,1.6C49.4,23.7,49.4,23.2,49.3,22.6z"/>
<path class="st58" d="M76.1,125.3c-2.3-2.3,0.6-3.3,1.2-4.8C77.5,122.2,79.7,124.5,76.1,125.3z"/>
<path class="st59" d="M42.9,114.9c4.8,3.2,1.5,7.2,1.3,10.6c-0.3,3.9,3.4,6.6,2.6,10.9C39.8,130.1,43.3,122.4,42.9,114.9z"/>
<path class="st60" d="M36.4,138.4c-0.3,0.4-0.6,0.8-0.9,1.2c-1.2-2-2.7-3.9-2.1-6.5C36.9,133.4,36,136.3,36.4,138.4z"/>
<path class="st61" d="M44.5,107.6c-0.8-0.8-1.6-1.6-2.5-2.4c-0.5-2.5,1.4-2.8,3-2.9c3.6-0.4,7.3-0.4,10.3,2.2
	c0.4,1.9-1.6,3.8-0.1,5.8C51.7,109.5,48.6,106.4,44.5,107.6z"/>
<path class="st62" d="M74.3,51.3c-0.6,1.1-1.3,2.2-1.9,3.3c0,3-2.9,4.1-4.3,6.2c-0.4,0.5-0.8,1-1.1,1.6c-1.5,2.2-3.5,3.9-5.2,5.8
	c-1.9,1.6-2.8,4.1-5.1,5.3c-0.9,0.4-1.7,0.7-2.7,0.3c-2.7-1.3-5.6-2.3-8.2-4c-1-1.3-2.9-2.2-1.5-4.3c5.1-3.6,11.3-6.2,11.9-13.7
	c0.9-1.2,2.1-0.6,3.1-0.3c3.3,0.9,6.5,0.8,9.7-0.2C70.9,50.6,72.6,50,74.3,51.3z"/>
<path class="st63" d="M44.4,65.5c-0.4,1.9,2,2.2,2.1,3.8c-0.6,1.2-2.4,1.2-1.9,3.5c0.6,2.8-2.9,4.4-4.3,6.8
	c-0.4,0.9-1.1,1.5-2.1,1.7c-1-1.4-1.9-0.2-2.8,0.1c-2.7,0.1-5.4,0.1-8.2,0.2c-2.7-4.8,2.3-6.8,3.9-9.8c1.6-2.8,3.7-5.5,5.2-8.5
	C39,64.5,41.3,66.6,44.4,65.5z"/>
<path class="st64" d="M74.3,51.3c-2.8-0.4-4.8,2-7.4,2.2c-3.7,0.2-7.3,0.4-10.6-1.8c0.2-1.6-0.9-3.7,1.8-4.2c3.8,3.9,8,2.1,12.2,0.9
	c1.9-0.7,3.9-0.4,5.8,0.1c0.8,1.2,0,1.6-1,1.9C74.9,50.8,74.6,51.1,74.3,51.3z"/>
<path class="st65" d="M55.4,104.6c-3.1,0.5-5.9-2-9.1-1.1c-1.5,0.4-3.5-0.4-4.2,1.8c-3.2-0.4-4.8,3-7.7,3.2c0.1-1.4,1.4-1.9,2.1-2.9
	c1.3-0.7,2.2-1.8,2.8-3.1c-0.4-3.1,2.3-3.6,4.1-5c0.9-0.4,1.6-0.9,2-1.9c-0.7-2.6,1.6-3.3,2.9-4.8c0.7-0.6,1.2-1.3,1.8-2
	c1.8-1.8,3.2-4,5.7-5c4.6,1.4,9.4,2.4,11.6,7.5c-1.9,1.4-3.8,2.9-5.7,4.3C57.6,97.3,55.9,100.6,55.4,104.6L55.4,104.6z"/>
<path class="st66" d="M67.3,91.4c-3.3-3.2-7.7-4.9-11.6-7.2c-0.5-0.1-0.8-0.4-0.8-0.9c0.9-2.4,3.1-3.8,4.6-5.7
	c0.3-0.3,0.7-0.6,1.1-0.8c0.9-0.3,1.8-0.4,2.7-0.5c0.9,0,1.8,0,2.7,0.1c0.7,0.1,1.3,0.3,1.9,0.8c2,0,4.1,0,6.1,0
	c2.8,0.1,4.2,2.1,3.3,4.3c-1.2,2.9-0.4,5.4,0,8c-1.4,1.1-0.6,3.8-3,4.1C71.8,93.3,69.9,91.2,67.3,91.4z"/>
<path class="st61" d="M55.4,104.6c-0.4-4.7,1.2-7.9,6.2-8.9c-0.4,1.1-2.6,1.5-1.3,3.1c0.8,1.1,2,2.2,0.4,3.2
	c-1.3,0.8-1.9-1.1-2.9-1.9C56.8,101.7,56.1,103.1,55.4,104.6z"/>
<path class="st67" d="M51.4,20.7c-0.4-0.1-0.7-0.2-1.1-0.4c6.4-1.8,12.9-0.2,19.3-0.8c1.7-0.2,3.6,0.6,5.6-1
	c-3.5-2.4-7.7,0.4-10.8-1.9c3.2-0.8,6.5,0.1,9.7-0.1c1.8-0.1,2.6,1.1,2.7,2.8c-0.2,1.8-0.4,3.6-0.6,5.3c-1.9-5.1-6-4.1-10.4-3.8
	c2,4.9,4.8,9.5,2.6,14.8c-0.1,2.3-0.4,4.6,1.1,7.5c-3.6-2.2-3.2-5-3.2-7.6c0.7-4.5-1.3-8.2-3.7-12.8c0.8,3.7,3.4,6.6-0.2,9
	c-1.7,4.9-4.1,9.9,1.8,14c0.8,0.6-0.5,0.7-1,1c-3.7-1-5.9-3.6-4.6-7.1c2.2-5.9,1.9-11.4-0.6-17C56.4,20,53.5,21.7,51.4,20.7z"/>
<path class="st0" d="M51.4,20.7c2-0.1,4-0.3,6-0.3c1.7,0,1.1,1.2,0.7,2.1c-0.6,0-1.1-0.1-1.7-0.1C55.1,20.7,52.7,22.2,51.4,20.7z"/>
<path class="st68" d="M62.5,31.7c1.3-2.7,0.7-5-1.1-7.3c-1-1.3-1.3-2.9,0.8-3.6c2-0.6,1.8,1.1,2.3,2.3c1.5,4,5,7.6,1.9,12.4
	C66.6,32.7,63.5,33.3,62.5,31.7z"/>
<path class="st69" d="M77.3,89.5c-1.7-2.1-4.5-3.8-1.3-7.1c1.9-2-0.5-3.7-1.9-5.2c0.1-0.2,0-0.4-0.1-0.6c0.8-0.4,1.6-0.8,2.4-1.2
	c3.3,0,6.7,0,10,0c-0.2,1.1,0.1,2.8-0.6,3.3C82.1,81.8,80.5,86.3,77.3,89.5z"/>
<path class="st70" d="M40.3,79.6c0.2-1.4-0.6-3,1.2-4c4.1-2.2,2.7-3.8-1-5.1c2.1-1.8,4.3-0.7,6-1.3c3,0.7,5.7,1.8,8,3.9
	c0.3,0.4,0.5,0.8,0.6,1.2c0.1,3.1-2.1,3.8-4.5,4.5c-0.8,0.2-1.7,0.5-2.5,0.7c-0.9,0.7-1.8,0.7-2.8,0.1c-0.6,0-1.3,0.1-1.9,0.2
	C42.4,79.8,41.4,79.7,40.3,79.6z"/>
<path class="st71" d="M50.7,78.9c0.8-1.9,3.6-1.9,3.9-4.3c4.3-3,4.8,0.3,5.5,3.3c-0.8,2.4-2.9,3.8-4.6,5.6c-2.5,1.4-3.9,3.6-5.2,6.1
	c0.1,0.8-0.2,1.5-1,1.9c-0.8-0.6-2,0.3-2.8-0.7c-0.7-0.4-1.4-0.7-2.1-1.1c1.9-2.3,3.6-4.6,5.6-6.8C51.2,81.6,52.7,80.6,50.7,78.9z"
	/>
<path class="st72" d="M45.4,79.7c0.9,0,1.9,0,2.8-0.1c-1.4,3.1-3.7,5.4-6.8,6.9l-0.1-0.1C41.7,83.6,45.2,82.7,45.4,79.7z"/>
<path class="st73" d="M37.4,91.7c-0.4,2.7-2.5,3.8-4.4,5.2c0.4-2.6,2.4-4,4.1-5.5L37.4,91.7z"/>
<path class="st74" d="M41.4,86.6c0.1,2.8-2,3.9-3.9,5.2c0,0-0.3-0.3-0.3-0.3c0.9-2.1,2.3-3.7,4.1-4.9C41.3,86.5,41.4,86.6,41.4,86.6
	z"/>
<path class="st75" d="M85.2,96.5c-1.3,0.2-1,1.7-1.8,2.3c-1-0.5-1.6-1.3-2-2.3C82.7,95.3,84,93.5,85.2,96.5z"/>
<path class="st76" d="M68,77.3c-0.6,0-1.2,0-1.8,0.1c-1.1-3.1,2.1-4.2,3.1-6.4c0.2-0.4,0.5-0.7,0.8-1.1c1.8-1.7,3.1-3.9,5.6-4.7
	c0.5,0,0.8,0.2,1,0.7C73.7,69.7,70.8,73.5,68,77.3z"/>
<path class="st77" d="M80.4,59.6c0.5,0,0.9,0,1.4,0c-1.7,2.1-3.5,4.2-5.2,6.3c-0.2-0.2-0.4-0.4-0.6-0.5c-0.2-0.4-0.2-0.8-0.1-1.3
	c0.1-0.2,0.3-0.4,0.4-0.5C78.3,62.8,78.9,60.8,80.4,59.6z"/>
<path class="st78" d="M46.5,90.7c1,0.1,2.2-0.9,2.8,0.7c-1.3,1.4-2.6,2.8-3.9,4.2C43.1,93.3,44.7,92,46.5,90.7z"/>
<path class="st79" d="M43.4,97.5c-1.4,1.7-2.7,3.3-4.1,5C37.7,98.7,38.1,98.2,43.4,97.5z"/>
<path class="st80" d="M51.5,147.3c-0.1-1.8-2.5-2.6-2.1-4.7c2.2,0,4.5,0,6.7,0.1C55.5,145.1,55,147.7,51.5,147.3z"/>
<path class="st81" d="M71.4,62.6c0.8-0.2,1.7-0.1,2.2-0.5c0.8-0.6,1-2.4,2.4-1.2c0.5,0.4,0.2,1.7,0.3,2.6c0,0,0,0,0,0
	c-1.9,2.4-4.4,4.4-6,7l0,0c-0.7,0.8-1.6,0.9-2.6,0.6c-0.4-0.2-0.7-0.6-0.9-1c-0.2-3.3,2.7-4.7,4.1-7C71.1,62.9,71.3,62.8,71.4,62.6z
	"/>
<path class="st82" d="M66.3,61.5c0.4-0.4,0.9-0.7,1.3-1.1c1.5-0.7,2.8-2.3,4.7-1c1.5,1.5-1.1,2-0.8,3.2c0,0,0,0,0,0
	c-1.2,1.6-2.1,3.5-4.2,4.1c-0.3-0.3-0.6-0.7-0.8-1.2C65.8,64.2,67,62.8,66.3,61.5z"/>
<path class="st83" d="M83.3,54.2c-0.7,1.1-1.3,2.2-2,3.3c-2.2-0.9-2.8,4.3-4.4,1.8c-1.2-1.8,2.2-3.3,3.6-5
	C81.4,53.3,82.4,54.4,83.3,54.2z"/>
<path class="st84" d="M72.3,59.5c-1.6,0.3-3.1,0.6-4.7,1c1.6-1.9,3.2-3.8,4.8-5.8C74.2,56.3,73.1,57.9,72.3,59.5z"/>
<path class="st7" d="M75.1,50.5c0.5-0.5,1.3-1,1-1.9c1.1,0,2.1,0,3.2,0c-0.2,1.4,0.5,3.2-1.8,3.8C75.7,52.9,75.2,52,75.1,50.5z"/>
<path class="st65" d="M61.6,16.4c-2.1,2.8-4.3,2.1-6.6,0.1c1.5-1.2,1.7-3.9,4.3-3.9C59.2,14.3,60.9,15.1,61.6,16.4z"/>
<path class="st24" d="M60.1,77.9c-2.1-0.6-1.9-5.2-5.5-3.3c0-0.5,0-1-0.1-1.5c0.6-0.2,1.2-0.5,1.8-0.7c1.3,0.8,2.3-0.4,3.5-0.4
	c1.5-0.4,2.4-1.8,4-2c0.5,0,0.9,0.2,1.2,0.6c1.3,4.2-3,4.6-4.6,6.9L60.1,77.9z"/>
<path class="st85" d="M66.3,61.5c1.8,0.8,0.4,2.5,0.9,3.6c-0.9,2.5-2.7,3.6-5.3,2.9c-0.2-0.2-0.4-0.3-0.6-0.5
	C63,65.5,64.7,63.5,66.3,61.5z"/>
<path class="st86" d="M60.1,73.5c-1.2-0.4-3,1.2-3.7-1c1.7-1.7,3.3-3.3,5-5c0,0-0.1-0.1-0.1-0.1C63.1,69.9,61.4,71.7,60.1,73.5z"/>
<path class="st87" d="M50.3,89.6c0.3-3.3,0.4-6.7,5.2-6.1c0,0.3,0,0.5,0.2,0.7C53.9,86,52.1,87.8,50.3,89.6z"/>
<path class="st88" d="M60.4,77.6c-0.1-3.2,4.8-3.3,4.2-6.8c0.8-1.1,1.7-1,2.7-0.4l0.2,0.2c1.5,4.1-2.3,4.9-4.3,6.8
	C62.2,77.5,61.3,77.5,60.4,77.6z"/>
<path class="st89" d="M63.1,77.4c0.6-2.8,4.8-3.3,4.3-6.8c1,0,1.9-0.1,2.9-0.1c-0.1,3.1-3.7,4-4.2,6.8
	C65.2,77.3,64.1,77.4,63.1,77.4z"/>
<path class="st90" d="M70.3,70.5c0.8-3.4,2.9-5.7,6-7c-0.1,0.6-0.2,1.2-0.3,1.8C73.7,66.7,72.9,69.6,70.3,70.5z"/>
<path class="st24" d="M67.2,70.4c-0.9,0.1-1.8,0.2-2.7,0.3c-0.1-0.2-0.3-0.3-0.5-0.5c-0.1-2.3,1.8-2.9,3.2-3.9c1.6-1,2-3.3,4.1-3.8
	C72.3,66.4,66.9,66.9,67.2,70.4z"/>
<path class="st91" d="M67.3,66.4c-1.1,1.3-2.1,2.6-3.2,3.9c-1.4,1-2.2,2.8-4,3.2c0.4-2,0.8-4,1.2-6c2.4,0.2,4.3-0.8,6-2.3
	C67.3,65.6,67.3,66,67.3,66.4z"/>
</svg>
