<?xml version="1.0" encoding="utf-8"?>
<!-- Generator: Adobe Illustrator 23.1.1, SVG Export Plug-In . SVG Version: 6.00 Build 0)  -->
<svg version="1.1" id="Livello_1" xmlns="http://www.w3.org/2000/svg" xmlns:xlink="http://www.w3.org/1999/xlink" x="0px" y="0px"
	 viewBox="0 0 112 157" style="enable-background:new 0 0 112 157;" xml:space="preserve">
<style type="text/css">
	.st0{fill:#FFFFFF;}
	.st1{fill:#241E1F;}
	.st2{fill:#221F20;}
	.st3{fill:#CB232D;}
	.st4{fill:#8C3422;}
	.st5{fill:#F8E2DE;}
	.st6{fill:#F8E1DB;}
	.st7{fill:#7F8386;}
	.st8{fill:#C5232D;}
	.st9{fill:#4D4E51;}
	.st10{fill:#B76754;}
	.st11{fill:#F4E2DB;}
	.st12{fill:#C8412E;}
	.st13{fill:#F6E6E5;}
	.st14{fill:#F6E7E2;}
	.st15{fill:#AA3042;}
	.st16{fill:#F4E3DE;}
	.st17{fill:#DCE2C5;}
	.st18{fill:#F1E78D;}
	.st19{fill:#9E9E9F;}
	.st20{fill:#CD4E4B;}
	.st21{fill:#CD4B46;}
	.st22{fill:#E68F33;}
	.st23{fill:#D99636;}
	.st24{fill:#C6D2B0;}
	.st25{fill:#C9DFC1;}
	.st26{fill:#A93B3E;}
	.st27{fill:#B33039;}
	.st28{fill:#B9666B;}
	.st29{fill:#C88334;}
	.st30{fill:#D6BA5A;}
	.st31{fill:#CD993A;}
	.st32{fill:#9C644C;}
	.st33{fill:#B7777A;}
	.st34{fill:#DA7D33;}
	.st35{fill:#AB4B2B;}
	.st36{fill:#661C15;}
	.st37{fill:#D57733;}
	.st38{fill:#A54229;}
	.st39{fill:#3D342E;}
	.st40{fill:#392C2C;}
	.st41{fill:#B18B37;}
	.st42{fill:#DFB085;}
	.st43{fill:#BB6350;}
	.st44{fill:#E9AE37;}
	.st45{fill:#9E4F38;}
	.st46{fill:#C75530;}
	.st47{fill:#A89FAC;}
	.st48{fill:#98979D;}
	.st49{fill:#4E4846;}
	.st50{fill:#BF3A2D;}
	.st51{fill:#CC6437;}
	.st52{fill:#443531;}
	.st53{fill:#CE5B30;}
	.st54{fill:#E6B03E;}
	.st55{fill:#F1E9E4;}
	.st56{fill:#F8F3F3;}
</style>
<path class="st0" d="M0,78.7C0,55.3,0,32,0,8.7c0-7.6,1-8.5,8.8-8.5c31.7,0,63.5,0,95.2,0c6.6,0,8,1.3,8,7.9c0,47.2,0,94.4,0,141.5
	c0,6.2-1.4,7.5-7.9,7.5c-32.2,0-64.5,0-96.7,0c-6.1,0-7.4-1.1-7.4-7.3C0,126,0,102.3,0,78.7z"/>
<path class="st1" d="M78.5,93.9c-1.1,1.3-2.2,2.7-3.2,4c-4.4,0.5-4.3-3.6-6.1-5.8C68,86.4,64.3,80.8,68,74.7
	c1.9-8.6,3.8-17.2,9.6-24.3c2.1-2,4.5-2.5,7.3-1.6c0.8,0.2,1.4,0.7,2,1.2c0.3,0.3,0.7,0.5,1,0.8c1.1,1.9,0,3.5-1,5
	c-1.3,2.2-1.9,4.5-2.4,6.9c-1.2,3.6-3.3,7.1,0,10.7c2,0.4,3.9-0.3,5.8-0.6c1-0.1,2,0,1.6,1.5c-2.4,3.6-4.8,7.2-7.2,10.8
	C83.2,88.5,82.1,92.1,78.5,93.9z"/>
<path class="st2" d="M32,64c1.5-1.8,2.9-3.6,4.4-5.4c4-0.2,4.3,3.2,5.6,5.6c1.6,5.4,4.1,10.8,1.7,16.6c-1.8,9.3-4.4,18.4-10.4,26.1
	c-3.4,2.5-6.5,0.9-9.6-0.7c-0.7-0.3-1.4-0.6-2.1-0.9c3.7-5.5,6-11.4,6-18.2c0-3.5-1.1-5-4.9-4.1c-1,0.2-3.3,1.6-3-1.4
	c2.4-3.5,4.8-7,7.2-10.6C27.7,68,29.3,65.6,32,64z"/>
<path class="st3" d="M39.3,55c1.3-1.4,2.5-2.7,3.8-4.1c1.8-1.2,3.8-0.6,4.1,1c0.6,3.4,3.9,4.2,5.4,6.6c1.1,1.8,3,2.3,4.9,2.7
	c2,0.4,3.6,1.4,4.5,3.3c0.2,3.1-1.6,5.7-2.3,8.6c-0.3,1.3-1.1,2.5-0.3,3.8c3.7,1.2,5.5,3.6,5.4,7.7c-0.1,3.3,1.7,6.3,2.9,9.4
	c2.7,2,4.9,4.2,3.7,7.9c-1.6,1.5-2.5,3.8-5.1,4.2c-0.8-0.6-1.5-1.3-1.8-2.2c-1.2-5.3-5.7-7.2-10.1-9.2c-1.5-0.7-3.3-0.7-4.1-2.4
	c-0.8-2.4-0.2-4.6,0.6-6.8c1.2-2.9,0.6-5.2-2.1-7c-0.3-0.4-0.6-0.8-0.8-1.2c-2.4-4.7-2.1-10.3-4.9-14.9C41.2,60.3,38.2,58.7,39.3,55
	z"/>
<path class="st4" d="M84.8,49.8c-2.3-0.7-4.4-0.2-6.3,1.1c-1.7-1.2-3.3,1-5,0.3c-1-0.9-1.6-2.1-2.7-2.9c-4.3-4.1-6.6-9.3-8.6-14.8
	c2.8-4.8,3.1-9.6,0.1-14.5c-1.1-1.8-2.4-3.8-1-6.1c4.4,0.6,6.6,3.7,8,7.3c1.5,3.7,2.5,7.6,2.3,11.6C71.3,36,72,40,73,42.7
	c-2.7-4.9-0.7-11.7-2.4-18.1c-1.6-6-4.1-10.8-10.6-12.5c-1.6-0.5-3.1-1.1-2.9-3.2c9.2-1.8,16.6,1.2,22.4,8.4
	c0.1,1.7-0.1,3.3,0.9,4.9c1.2,2,1.6,4.4,1.5,6.7C81.6,36.1,82.2,43.1,84.8,49.8z"/>
<path class="st5" d="M62.5,34c3.8,4,4.9,9.8,8.8,13.7c0.3,2.9-1.4,4.2-3.8,5.1c-0.8,0.1-1.6,0.1-2.3,0c-3.4-0.8-7.4-0.4-9.3-4.4
	c-0.4-1.6,0.6-3.5-1.1-5.4c-1.9,2.2-0.7,4.7-1.3,6.9c-0.4,1-0.6,2.5-2,1.9c-1.1-0.5-0.7-1.9-0.2-2.9c-0.4-3.2,1.6-7.1-3.1-8.9
	c-0.5-0.2-0.7-1.5-0.8-2.2c-0.2-6-2.5-11.9-0.9-18.1c0.3-2.8,1.3-5.1,4.6-5.7c1.5-0.2,3.1-0.2,4.5,0.4c5,3,6.3,7.7,6,13.1
	C61.3,29.7,60.9,32,62.5,34z"/>
<path class="st6" d="M60.4,117c0.8,0.2,2.3,0.4,2.3,0.6c-0.1,5.5,5.7,10.8,1,16.5c-0.8,1-0.6,1.7-0.1,2c3.6,2.5,1.9,5.9,1.7,9
	c-2.7-0.6-5.1-2.2-8-2.3c-1.9-0.7-3.5-1.8-5.1-3.1c-3.1-3.1-2.4-7-2.3-10.8c0.1-2.7,0-5-2.9-6.2c-3-4.3-5.7-8.9-7.7-13.7
	c0.4-2.4,2-3.7,4-4.8c2.4-0.7,4.8-0.7,7.3-0.1c2,0.8,4,1.4,5,3.5c0.1,0.8-0.2,1.4-0.9,1.9c-1.8,0.6-2.8,1.7-2.3,3.7
	c0.4,1.7,1.6,2.3,3.3,2.5C57.4,115.9,59.1,115.7,60.4,117z"/>
<path class="st7" d="M40.1,146.1c-3.4-1.6-6.6-3.3-8.2-7c-3.1-9.4-1.2-19.4-3.8-28.9c-1.2-4.5,3.1-1.8,4.6-2.8
	c0.8,0.2,1.5,0.6,2.2,1.1c3.3,2.9,5.4,6.5,5.4,10.8c0,6.6,0.9,13,2.7,19.4c-0.5,1.9-0.3,3.9-0.4,5.8C42.5,146.1,41.8,147,40.1,146.1
	z"/>
<path class="st8" d="M19.8,81.5c1.7,2.1,3.2-0.3,4.9-0.3c2.7-0.1,4.3,0,4.4,3.5c0.2,6.5-1.4,12.5-4,18.4c-0.8,1.7-1.8,2.1-3.4,2.2
	c-1.6-0.2-2.6-1.3-2.6-2.6C19.2,95.6,17.8,88.5,19.8,81.5z"/>
<path class="st8" d="M83.5,63c-0.6-4.8,3-8.1,4.4-12.2c3,0,4.4,1.8,4.5,4.3c0.1,6.4,0.8,12.9-0.4,19.3c-2.8-0.8-5.4,1.4-8.2,0.5
	C81.7,71,82.7,67,83.5,63z"/>
<path class="st9" d="M32.8,108.1c-1.3,0-2.6,0-4.5,0c2.4,3.7,3,7.4,2.8,11.2c-0.4,6.3,0.2,12.6,2.5,18.6c1,2.5-0.6,1.4-1.6,1.3
	c-5.5-7-6.5-15.3-7.2-23.7c-0.3-3.1,0.5-6.3-0.9-9.2c3-0.5,5.9,2.1,8.9-0.1C33.7,106.7,33.5,107.3,32.8,108.1z"/>
<path class="st10" d="M84.8,49.8c-3-3.4-4.2-7.3-4.1-11.8c0.1-6,0.9-12.3-2.5-17.8c-1.2-2,1.9-1.5,1.4-2.9c3.7,3.2,4.8,7.8,5.9,12.2
	c1.6,6.7,2.5,13.6,1.5,20.5C86.2,49.9,85.5,49.9,84.8,49.8z"/>
<path class="st11" d="M60.4,117c-2.1-0.1-4.3,0.1-6.4-0.3c-2.5-0.5-3.5-2.5-3-4.8c0.3-1.4-0.1-4.2,3.1-2.8c1.8,1,1.1,3.4,3,4.7
	c1.5-1.6,0.8-3.6,0.9-5.3c-0.2-4.2-4-4.3-6.6-5.9c-1.6-1.4,0.2-5.2-3.6-5c-0.5-0.2-0.7-0.5-0.9-1c0.2-1.4,1.1-2.1,2.3-2.6
	c7.9-0.4,12.6,4.2,16.4,10.2c0.3,0.6,0.5,1.3,0.8,1.9C60.6,107.1,60.6,107.1,60.4,117z"/>
<path class="st12" d="M62.5,34c-3-0.3-3.3-2.4-2.7-4.7c1.5-5.7-0.2-10.3-4.5-14.1c-2.1-2.1-1.5-4.2,0.1-6.2c0.6,0,1.2-0.1,1.9-0.1
	c0.7,1.3,1.8,2.1,3.4,2.2c0.6,0.6,1,1.2,1,2c-0.2,2.9,1.7,5.1,3.1,7.4C66.6,24.1,65.5,31.8,62.5,34z"/>
<path class="st13" d="M78.5,93.9c1.6-3.2,3.9-6,6.2-8.7c0.2,2.2,2.3,1.5,3.5,2.1c2.7,1.5,3.6,4.2,3.2,6.8c-0.4,2.9-2.8,4.1-5.8,3.9
	c-1.2-0.6-1.7,0.2-2.1,1.1C78.8,100.2,80.9,95,78.5,93.9z"/>
<path class="st14" d="M32,64c-1.2,2.7-3,4.9-5,7c-3.6-1.6-7.1-3.1-6.9-8.1c0.1-3.1,2.6-5.6,5.9-4.9c1.2-0.7,1.5,0.5,2.2,1
	C32.5,58.3,31.2,61.9,32,64z"/>
<path class="st15" d="M93.6,129.1c5.8,2,9.4,4.4,12.3,7.6c2.9,3.2,1.8,9-1.6,11.7c-3.4,2.7-7.8,2.3-10.9-0.9
	c-2.7-2.8-2.8-8.9,0.4-11.7C95.6,134,97.3,132.7,93.6,129.1z"/>
<path class="st16" d="M51.1,48.8c0.2,0.8,0.3,1.5,0.5,2.3c1-0.4,0.5-1.3,0.7-2c0.3-0.4,0.7-0.5,1.2-0.3c1.6,2.9,4.5,4.4,7.2,6
	c0.3,0.4,0.4,0.9,0.5,1.4c-0.1,1.5-0.4,3-1.1,4.3c-3.2,2.5-5.2-0.2-7.6-1.5c-1.8-1.9-5.3-2.1-5.4-5.9c0-1.4-1.8-2.7-3.8-2.3
	C44.8,46.5,48.8,50.9,51.1,48.8z"/>
<path class="st17" d="M28.1,59c-0.7-0.3-1.4-0.7-2.2-1c0.2-6.5-0.6-13.2,2.4-19.4c0.3-0.7,0-1.2-0.6-1.7c-0.9-0.8-2.8-1.3-2-2.9
	c0.8-1.6,2.6-1.1,4.1-1c1.7,0.6,3.4-0.2,5.1,0.2c0.5,1.2,4,0.4,2.2,3.2c-1.1,1.7-1.9,3.7-4,0.6c-0.8-1.2-1.6,0.2-2.2,0.9
	c-2.5,3.5-2.9,7.6-3,11.7C27.9,52.7,28,55.9,28.1,59z"/>
<path class="st18" d="M81.8,124.1c0,1.5,0,3-0.1,4.4c0,0.8,0,1.7-1,2c-2.2,0.6-9.6-5.5-8.9-7.6c1.5-4.6,3.8-0.1,5.7-0.2
	C79.2,122,80.7,122.5,81.8,124.1z"/>
<path class="st19" d="M40.1,146.1c1.2-0.2,1.5-0.7,1.3-2c-0.3-1.7-0.9-3.5,0.7-5c3.4,1.1,5.3,4.7,9.1,5.3c0.6,0.3,1.2,0.6,1.8,0.9
	c1.2,0.7,2.7,0.7,3.7,1.7c0.2,0.5,0,0.9-0.4,1.1C50.7,147.8,45.1,149.4,40.1,146.1z"/>
<path class="st20" d="M100.1,129.3c-2-2.2-4.1-3.7-4.1-6c0-2,2-4.7,3.5-4.9c2.2-0.2,3.9,2.6,4.1,4.7
	C104,125.5,101.2,126.8,100.1,129.3z"/>
<path class="st21" d="M12.4,28.9c2,2,4.2,3.7,4,5.9c-0.1,1.8-1.9,4.8-3.8,4.7c-2.1-0.1-4.1-3-4-4.9C8.7,32.7,10.9,31,12.4,28.9z"/>
<path class="st22" d="M55.3,9c0.5,2.1-1,4.1-0.1,6.2c-1.7-0.1-3.3-0.1-5-0.2c-0.9-0.7-2.4,0.1-3.1-1.1C46.7,8.4,46.7,8.4,55.3,9z"/>
<path class="st23" d="M56.2,148.1c0.1-0.3,0.1-0.5,0-0.8c1.5-1.5,1.1-3.4,1.2-5.2c3,0.1,6.4-0.7,8,3.1c0.1,2.9-0.8,4.4-4.2,3.4
	C59.6,148,57.8,148.2,56.2,148.1z"/>
<path class="st24" d="M81.8,124.1c-1.5-0.4-2.9-0.9-4.4-1.3c0-0.3,0-0.7-0.1-1c-0.5-1.4-3.2-2.8-1.3-4.1c2.2-1.6,2.3,1.7,3.5,3.1
	c0.9-1.5,1.6-2.7,2.2-3.8c0.9-0.2,1.4,0,1,1c0.4,0.9-1.4,2.2,0.5,2.9c1,0.3,2.7,0,2,1.8C84.7,124.2,83.1,124.2,81.8,124.1z"/>
<path class="st25" d="M82.7,118.1c-0.3-0.3-0.7-0.7-1-1c1.9-5.9,2.4-11.9,1.8-18c0.1-1.5,0.9-1.7,2.1-1.1
	C86,104.9,85.8,111.7,82.7,118.1z"/>
<path class="st26" d="M16,7.8c5.7,4.2,6.3,8.5,1.8,14.1c-1,0.3-1.3-0.3-1.7-1c0.7-4.2-0.2-8.2-1.7-12.1C14.6,8.1,15,7.5,16,7.8z"/>
<path class="st27" d="M7.6,22.1c-4.3-4.8-4.3-8.1,0-13.2c1-0.3,1.5,0.4,1.8,1.1c-0.2,3.6-0.1,7.3,0,11C9.1,21.8,8.6,22.4,7.6,22.1z"
	/>
<path class="st28" d="M7.6,22.1c0.4-0.4,0.8-0.8,1.3-1.3c2.6,0.2,5.2,0.3,7.7-0.1c0.4,0.4,0.8,0.8,1.2,1.2c-3.3,2.3-0.7,3.9,1.6,6.2
	C13.8,27.7,11,24.5,7.6,22.1z"/>
<path class="st29" d="M71.5,101.9c-1.4-2.3-1.8-5.1-4.1-6.8c0.5-1.6,0.7-3.3,3.1-3c1.4,2.1,1.8,5,4.8,5.9
	C74,99.2,73.9,101.6,71.5,101.9z"/>
<path class="st30" d="M35,33.1c-1.8,2-3.5,2.7-5.1-0.2c0,0,0,0,0,0c0.7-0.4,0.7-1.1,0.6-1.7c-0.8-4,1.5-2.9,3.5-2.1
	c1-0.1,1.2-1.9,2.3-1.3c1,0.5,0.9,1.7,0.5,2.6C36.3,31.3,35.1,31.8,35,33.1z"/>
<path class="st31" d="M39.3,55c1.9,1.8,1.6,5.3,4.8,6.1c0.2,2.2-1.7,2.4-3,3.2c-1.9-1.7-1.9-4.9-4.7-5.7
	C37.1,57.2,37.4,55.5,39.3,55z"/>
<path class="st17" d="M34,29.1c-0.1,0.3-0.2,0.6-0.2,0.9c-3.3-1.6-2.4,2.2-3.9,2.9c0-0.6,0.1-1.4-0.2-1.9c-1.2-2.4-0.5-4.5,1.8-5.2
	C34,25,32.3,28.6,34,29.1z"/>
<path class="st32" d="M47.1,13.9c1.1,0.2,2.4-0.2,3.1,1.1c-2.6,0.5-1.7,3.8-3.8,4.6C45.2,17.6,43.7,15.5,47.1,13.9z"/>
<path class="st33" d="M8.9,10.1C8.5,9.7,8.1,9.3,7.7,8.9c2.5-2.5,5.3-2.7,8.3-1c-0.4,0.3-0.7,0.7-1.1,1C13,9.7,11,10.4,8.9,10.1z"/>
<path class="st34" d="M73.7,51.1c1.6-0.5,2.9-4.5,4.7-0.2c-4.9,7.3-7.5,15.6-9.2,24.1c-4.9,3.4-4.9,3.4-6-1.5
	C65.2,65.3,66.9,57.1,73.7,51.1z"/>
<path class="st35" d="M64.2,74c0.3,0.9-0.4,2.4,0.9,2.6c1.2,0.2,0.4-1.3,0.9-1.8c1.2-1.5,2,1.9,3.3,0.3c-4,6,0.6,11.4,1.3,17.1
	c-1.3,0.8-1.4,2.6-3.1,3c-3.3-2.1-3.7-6.1-3.7-8.9c-0.1-4.8-1.3-7.5-6.2-8.2C59.7,76.6,62.1,75.5,64.2,74z"/>
<path class="st36" d="M83.5,63c0.1,4,0.2,7.9,0.3,11.9C80.8,72.6,80.7,67.8,83.5,63z"/>
<path class="st37" d="M32.8,108.1c-0.1-0.7-0.1-1.3-0.2-2c5.5-7.9,8.1-16.8,10-26c2.5,1.4,2-0.9,2.4-1.9c0.9-2.6,1.9-4,4.1-0.9
	c0,0.3,0.1,0.5,0.2,0.8c-0.4,5.6-1.8,10.9-4,16c-1.9,4.1-3.8,8.1-6.5,11.8c-1.2,1.6-2.4,3.3-4.7,3.4
	C33.7,108.8,33.2,108.4,32.8,108.1z"/>
<path class="st38" d="M49.1,77.2c-1.1-0.8-2.2-1.9-3,0.3c-0.5,1.5-1.2,3-0.9,4.7c-1.6-0.3-1-2.5-2.6-2.2c1.6-3.7,0.8-7.4-0.5-11
	c-0.6-1.6-1.2-3.1-1.1-4.8c-0.3-2.2,2.2-2,3-3.2C47.4,66,47.9,71.7,49.1,77.2z"/>
<path class="st39" d="M64.2,74c-0.6,4.1-3.7,3.9-6.7,4.1c-0.4-5.2,3.1-9.4,3.8-14.3c0.3-3.3,2.6-5.7,3.6-8.7c0.7-1.1,1.6-2,2.6-3
	c1.9-0.9,2.5-3,3.9-4.3c2,0.3,2.4,1.8,2.4,3.4C69.4,58.3,65.7,65.7,64.2,74z"/>
<path class="st40" d="M44,94c1.3-4.2,3.3-8.3,3.4-12.7c0-1.5,1.2-2.2,1.9-3.3c5.3-0.1,4.6,3.5,3.7,6.4c-0.8,2.5-1.8,4.9-2.1,7.6
	c-0.1,1.2-0.9,1.9-1.7,2.7c-0.7,0.8-1.3,1.5-2,2.3C45.1,97.1,44.1,96,44,94z"/>
<path class="st41" d="M49.2,94.7c0.2-1.2,0.8-2.1,1.7-2.7c3.2,1.6,6.9,2.3,10,4.4c3,2,4.6,4.3,4.8,7.7c-1.5,0.3-1.7-0.8-2.4-1.7
	C59.8,97.6,55.4,94.5,49.2,94.7z"/>
<path class="st42" d="M65.7,55c-0.4,3.5-2.6,6-4.4,8.8c-2.6-0.8-5.1-2.1-7.7-2.2c-2.9-0.1-1.2-1.6-1.3-2.5c2.5-0.4,4.5,3.8,7.4,0.9
	c1.7-1,1.6-2.3,0.8-3.8c-0.1-0.3-0.2-0.6-0.3-0.9c0.3-0.5,0.8-0.9,1.4-1.1C63.1,53.7,64.5,53.8,65.7,55z"/>
<path class="st43" d="M61.5,13.1c-0.7-0.5-1.1-1.2-1-2c9.4,2.9,11.3,10.7,11.9,18.8c0.4,5.6,0.3,11.1,2.8,16.4
	c-4.1-3.4-4.5-8-4.7-12.7C70.1,25.6,69.3,17.8,61.5,13.1z"/>
<path class="st44" d="M61.3,55c-0.4,0.1-0.7,0.1-1.1,0.2c-3.2-1.1-7-1.6-7.1-6.2c0.7-2,2-1.6,3.3-0.8c2.2,3,5.8,2.6,8.9,3.6
	C64.3,53.3,61.8,52.9,61.3,55z"/>
<path class="st45" d="M56.4,48.2c-1.1,0.3-2.2,0.5-3.3,0.8c0,0-0.4,0-0.4,0s-0.4,0.1-0.4,0.1c-0.1-1.6-0.2-3.2-0.2-4.9
	c0-1.4-0.6-3.1,1.7-3.3c2.1-0.2,3.1,1,3.4,2.8C57.5,45.3,58,47,56.4,48.2z"/>
<path class="st46" d="M61.3,55c-1.4-1.6-2.6-3.1,1-2.9c1,0,2-0.1,3-0.2c0.7,0.1,1.4,0.1,2.1,0.2c-0.2,1.2,0.2,2.7-1.7,2.9
	C64.2,55,62.8,55,61.3,55z"/>
<path class="st47" d="M48.3,20.8c3-2.2,5.3-2.3,7.5,0.2C53.6,20.3,51.4,22.4,48.3,20.8z"/>
<path class="st48" d="M40.2,109.1c2.8,4,5.6,8,7,12.8c0.9,1.1,1.2,2.4,0.9,3.7c-0.9,4.7,0.1,9.1,1.4,13.6c0.4,1.3,0.7,2.5-0.1,3.8
	c-4,0.3-5.4-2.7-6.8-5.4c-2.1-4.4-3-9.1-2.6-14c0.3-4.3-0.7-8.2-3-11.9c-0.6-0.9-2-1.8-0.6-2.9C37.8,107.7,39.1,108.1,40.2,109.1z"
	/>
<path class="st49" d="M40.2,109.1c-1,0.1-2,0.1-3.5,0.2c4,5.4,4.2,11.5,4.5,17.7c0.3,6.3,1.5,12.5,8,16c2.5-0.7,2.9,0.2,1.9,2.3
	c-4.2-0.5-6.7-3.2-9.1-6.3c-2.4-5.9-3.2-12-3-18.4c0.2-4.5-1.7-8.3-5-11.5c4.7-4.2,7-9.8,9.9-15.2c1.1,1,2.1,2,3.2,3
	c0,0,0.3,0.3,0.3,0.3c1.5,4-2.1,5.4-4.1,7.7C42.3,106.4,41.3,107.7,40.2,109.1z"/>
<path class="st50" d="M51.1,145.3c0.1-1.4-0.5-2.2-1.9-2.3c-2.4-6.9-3.8-13.9-2-21.1c3.7,0.4,4.9,2.2,4.3,6.1
	c-0.6,3.8-1.2,7.8,1.7,11.2c1.8,4.3,1.8,4.7-1,6.9C51.9,145.8,51.5,145.6,51.1,145.3z"/>
<path class="st51" d="M43.4,105c0.8-2.9,3.9-4.5,4.1-7.7c1.4,0.5,2.2-2.3,3.9-0.8c2.1,1.9-0.7,3.6-0.1,5.4c0.7,0.9,2.9,0.5,2.3,2.5
	c-0.4,1.2-1.4,1.1-2.4,0.8C48.6,105.2,46,105.1,43.4,105z"/>
<path class="st52" d="M59.2,108c0.1,1.3,0.4,2.6,0.3,3.9c-0.2,1.5,1.3,4-1.9,4.1c-2.3,0.1-3.1-1.6-3.4-3.5c-0.2-1.1-0.1-2.3-0.1-3.4
	c0.4-0.3,0.7-0.5,1.1-0.8C56.4,106.9,57.8,106.8,59.2,108z"/>
<path class="st53" d="M52.3,146.1c2-2.1,0.2-4.7,1-6.9c1.8,0.4,2.9,1.8,4.2,2.9c2.2,2.3,3.6,4.5-1.2,5.2
	C54.8,147.2,53.3,147.5,52.3,146.1z"/>
<path class="st54" d="M59.2,108c-1.3,0.1-2.6,0.2-4,0.3c-1.3-1-2.7-2-4-3c3.7-1,0.5-2.2,0.1-3.2C55.1,102.5,58.7,103.2,59.2,108z"/>
<path class="st55" d="M104.3,141.4c-0.2,4-1,7.7-5.3,7.4c-4.2-0.2-4.8-4.2-4.8-7.5c0-3.5,0.8-7.2,5.3-6.9
	C103.9,134.7,104.2,138.5,104.3,141.4z"/>
<path class="st46" d="M60.5,56c2.1-0.1,2.7,1.2,2.2,2.7c-0.4,1.1-1.3,2.4-2.9,1.1C59,58.4,59.5,57.2,60.5,56z"/>
<path class="st56" d="M8.9,10.1c1.8-1.3,3.7-2.1,6-1.2c3.3,3.6,3.4,7.6,1.7,11.9c-2.5,2.4-5.1,2.3-7.7,0.1
	C7.2,17.3,7.1,13.7,8.9,10.1z"/>
</svg>
