<?xml version="1.0" encoding="utf-8"?>
<!-- Generator: Adobe Illustrator 23.1.1, SVG Export Plug-In . SVG Version: 6.00 Build 0)  -->
<svg version="1.1" id="Livello_1" xmlns="http://www.w3.org/2000/svg" xmlns:xlink="http://www.w3.org/1999/xlink" x="0px" y="0px"
	 viewBox="0 0 112 157" style="enable-background:new 0 0 112 157;" xml:space="preserve">
<style type="text/css">
	.st0{fill:#FFFFFF;}
	.st1{fill:#C82D2D;}
	.st2{fill:#F9EFF1;}
	.st3{fill:#BF3A33;}
	.st4{fill:#BB4B4D;}
	.st5{fill:#F8F0EA;}
	.st6{fill:#F7EAE5;}
	.st7{fill:#CB4E4F;}
	.st8{fill:#BF362E;}
	.st9{fill:#C43A2E;}
	.st10{fill:#A23135;}
	.st11{fill:#C84B45;}
	.st12{fill:#C64644;}
	.st13{fill:#AE3741;}
	.st14{fill:#A83643;}
	.st15{fill:#C56A77;}
	.st16{fill:#B86B75;}
	.st17{fill:#B35E5B;}
	.st18{fill:#C07076;}
	.st19{fill:#F7D8CF;}
	.st20{fill:#F5D1D2;}
	.st21{fill:#D44234;}
	.st22{fill:#D44031;}
	.st23{fill:#FCDFD6;}
	.st24{fill:#FBF1DA;}
	.st25{fill:#DF5A42;}
</style>
<path class="st0" d="M110.4,153.8c-1.3,3.2-3.1,3.2-8,3.1c-31.3-0.2-62.6-0.1-93.9-0.1c-7.1,0-8.2-1-8.2-7.9c0-46.9,0-93.9,0-140.8
	c0-6.9,1.2-8.1,8.1-8.1c31.5,0,62.9,0,94.4,0c1.6,0,3.3,0.2,4.9,0.4c2.7,0.4,3.1,2.7,3.7,4.7c0.6,2.1,0.4,4.3,0.4,6.5
	c0,44.1,0,88.3,0,132.4C111.8,146.3,112,150.9,110.4,153.8z"/>
<path class="st1" d="M31.5,78c-5.7-5.8-7.5-13-6.8-20.9c0.1-1.2,1.1-3-1.3-2.6c-1.1,0.2-3.5,0.1-2,2.7c0.4,0.8,0.6,1.6-0.2,2.2
	c-0.8,0.6-1.6,0.2-2.3-0.2c-1.1-0.6-1.7-1.6-1.4-2.9c0.7-2.5,2.5-4.2,4.9-4.3c3.3-0.1,4.5-1.8,5.7-4.4c1.6-3.5,4.2-6.4,7.9-7.9
	c3-1.2,5.8-1.3,8.2,1.3c1.1,1.3,1.2,2.7,0.5,4.2c-0.5,1.1-1.4,2-2.7,1.8c-1.7-0.2-1.8-1.5-1.9-3c-0.2-2.3-1.7-1.6-2.9-0.9
	c-2.4,1.5-4.5,3.4-5.9,6c-0.5,0.9-2.4,2.2-0.6,3.3c1.4,0.9,3.1,2.9,4.9,1.3c3.3-2.9,6.8-4.8,11.3-3.6c4.4,1.2,6.2,5.2,8.6,9
	c1.4-2,2.4-3.9,3.7-5.4c3.9-4.6,9.6-5.5,14.1-1.6c2.5,2.2,4.5,2,7,0.9c0.8-0.5,1.6-0.7,2,0.3c0.5,1.1-0.5,1.7-1.1,2.5
	c-1.6,1.4-1.5,3.1-1.1,5c1.7,7.8-1,14.3-6.1,20.1c-3.2,3.6-7.1,6.5-9.8,10.6c-2.6,1.9-2.7,6.5-7,6.5c-1.5-3.2,0.6-5.4,2.2-7.7
	c3-4.4,6.1-8.6,9.1-13c2.6-3.8,3.6-8,3.8-12.6c0.2-4.6-2.5-5.6-5.9-6.5c-3.5-0.9-5.7,0.4-7.3,3.5c-0.9,1.7-1,4-3.3,4.7
	c-1.2-0.3-1.9-1.3-2.4-2.3c-1.8-3.1-4.5-3.2-7.3-2c-2.9,1.2-4.5,3.8-3.9,6.8c1.4,6.3,5,11.6,8.6,16.8c2,2.4,3.7,5,4,8.2
	c0.2,2.1,1.3,3.6,3.1,4.8c0.5,0.9,0.4,1.9,0.2,2.9c-0.4,1.3-0.8,2.7-2.2,3c-1.8,0.3-2.6-1.2-3.1-2.6c-1.8-4.9-4.8-9-8.2-12.8
	c-2.6-3.4-5.9-6.3-8.4-9.8c-4-5.6-6.6-11.4-4.8-18.5c0.3-1.1,0.5-2.3-1-3.5c-2.3,1.8-1.4,4.4-1.4,6.6c0.1,3.2,1.5,6.1,2.5,9
	C32,74.6,33,76.3,31.5,78z"/>
<path class="st2" d="M57.6,98.3c2.4-2,3.1-5.5,5.8-7.2c2-1.1,4.2-3.2,5,1.1c-1.1,5.1-5.8,8.2-6.9,12.6c1.1-1.3,0.9-4.4,4-4.6
	c-0.1,1.3,0.1,2.7-0.7,3.8c-2.2,3.1-4,6.3-3.5,10.4c0.2,1.2-0.8,2.1-2,2.6c-0.4-4.9-3.4-6.2-7.7-5.6c-0.1-0.8-0.1-1.6-0.2-2.3
	c0-4.5-3.8-7.1-5.5-10.8c-1.3-2-3.3-3.6-3.5-6.3c0.3-1.7,0.3-3.7,2.8-3.8c4.6,4.6,7.8,10,10,16.3C56.7,102.3,57.8,100.4,57.6,98.3
	L57.6,98.3z"/>
<path class="st3" d="M80.5,55c-0.2-0.7,3-1.6-0.2-2.1c0.7-3.3-4.6-10.4-7.7-10.3c-1.5,0-1.4,1.1-1.4,2.1c-0.1,1.6-0.9,2.6-2.5,2.4
	c-1.7-0.3-2.5-1.6-2.5-3.3c0-3.3,2-4.8,5.1-4.8c6-0.1,9.4,4,11.8,8.6c1.4,2.6,2.6,4.3,5.8,4.5c2.4,0.1,4.4,1.6,5,4.2
	c0.4,1.9-0.6,3.4-2.6,3.4c-2,0-1.9-1.2-1.3-2.8c0.9-2.1-1-2.3-2.1-2.3c-2.4-0.1-1.4,1.9-1.3,2.9c1.1,8.4-2,15.3-7.2,21.5
	c-1.6,0.9-2.2,0.3-2-1.3c0.3-1.7,1.4-3,2.1-4.5C82.2,67.2,83.6,61.2,80.5,55z"/>
<path class="st4" d="M65.5,100.2c-1.5,1.9-3,3.8-4.5,5.8c0.8-5.3,4.5-9,6.6-13.5c1.4-6.4,8.9-11.7,14.8-10.5c6.4,2.5,9,6.1,8.4,11.3
	c-0.3,2.7-1.8,4.2-4.4,4.6c-1.6,0.2-3-0.3-3.6-2c-0.5-1.5,0.2-2.6,1.3-3.5c1-0.8,3.6-0.2,2.4-2.7c-1-2-2.6-3.5-5-3.6
	c-2.2-0.1-4.2,0.6-5.9,2.2c-1,1.1-1.6,2.4-1.8,3.9c1.4,0,1.9-2.6,3.7-1.1c1,1.5,1.6,2.9,0,4.4c-1.1,1-2.7,2-4,1
	C68,91.9,67.6,97.8,65.5,100.2z"/>
<path class="st5" d="M82.5,81.9c-7.3,0.2-10.7,5.9-14.8,10.5c-0.1-4.3-3.4,0.8-4.2-1.4c1-3.3,4-5.1,6.3-7.4c7-7,12.2-14.5,8.3-25
	c-0.9-2.5,1.3-2.6,2.4-3.6c2.6-0.4,2.9,1.3,3.1,3.2c0.7,6.8-1.1,13-4.6,18.8c-0.5,0.8-2,1.9,0.5,1.9C79.9,80.6,81.7,80.8,82.5,81.9z
	"/>
<path class="st6" d="M45.3,88.1c-1.1,1.2-1.7,2.6-1.9,4.1c-1.1,0.1-2-0.5-2.5-1.3c-3.4-4.4-7.9-7.2-13.3-8.8c-0.1-2.8,5-0.6,4-4.2
	c0.2-3.5-2.2-6.2-3-9.4c-1-3.6-1.2-7.2-0.8-10.9c0.2-1.8,0.8-3.4,3.1-2.6c1.6,0.6,3.2,1.1,2.3,3.5c-3.2,9,0.2,16.2,6.2,22.7
	C41.4,83.5,43.3,85.8,45.3,88.1z"/>
<path class="st7" d="M34.5,87c-2.4-0.5-4.8-1.9-7.1-0.1c-1.8,1.4-5.5,3-0.4,5.3c1.8,0.8,2.6,2.8,0.9,4.5c-1.9,1.9-4,1.3-5.7-0.3
	c-3.2-3-2-8.4,2.5-12.3c1.7,0.3,3.2-0.6,4.8-0.7C32.1,83.1,34.5,83.5,34.5,87z"/>
<path class="st8" d="M51.2,43.5c0.1-3.1,1.6-4.8,4.2-5c2.8-0.2,4.4,1.6,4.6,4.2c0.1,2.7-1.4,4.4-4.2,4.5
	C53.1,47.4,51.6,45.8,51.2,43.5z"/>
<path class="st9" d="M51.7,111.4c1.9-2.1,4.5-2.4,6.6-1c2.4,1.5,1.9,4.2,1.1,6.7c-2,1.4-4.2,2-6.4,0.6
	C50.7,116,51.2,113.6,51.7,111.4z"/>
<path class="st10" d="M34.5,87c-1.2-2.2-2.7-3.5-5.4-2.4c-1.4,0.6-3.1,1-4.4-0.5c1-0.6,2-1.3,3-1.9c7.8-0.7,11.5,5.1,15.8,10
	c1.1,1.9,2.2,3.7,3.3,5.6c0.2,1-0.2,1.4-1.2,1.2c-1.3-1.7-2.6-3.4-3.9-5.1c-1.1-0.5-1.9-1.4-2.9-2.2c-1.5-0.9-2.2-2.4-3.2-3.8
	C35.1,87.7,34.8,87.4,34.5,87z"/>
<path class="st11" d="M12.6,27.9c2.6-1.3,4.2-0.4,4.1,2.2c-0.1,2.8-2.1,5.6-4.4,5.9c-1.5,0.2-3.8-2.9-4.1-5.4
	C7.9,27,10.1,26.9,12.6,27.9z"/>
<path class="st12" d="M98.3,128.2c-2.2,1.1-4,1.1-4.1-1.9c-0.1-2.9,2-5.6,4.1-5.8c1.6-0.2,4,2.7,4.2,5.4
	C102.6,128.9,100.8,129.4,98.3,128.2z"/>
<path class="st13" d="M99.6,145.1c-0.3,1.4-0.6,2.9-2.3,4.2c-2.3-5.4-4.6-10.6-6.9-15.8c5.1-2.5,3.4,3.1,5.2,4.6
	c0.8,0.8,1.2,1.7,1.6,2.7c0.7,1,0.3,2.6,1.9,2.9C99.6,144.1,100,144.4,99.6,145.1z"/>
<path class="st14" d="M11.5,10.1c0.3-1.1,0.5-2.7,1.7-2.8c1.4-0.1,1.4,1.6,1.8,2.6c1.8,4.2,3.6,8.4,5.5,12.7c-5,2.4-3.3-3.2-5.1-4.6
	c-0.8-0.7-1.3-1.6-1.8-2.5c-0.5-0.9-1-1.8-1.4-2.7C12.1,11.9,10.8,11.3,11.5,10.1z"/>
<path class="st15" d="M14.6,15c1,0.8,0.8,2,0.9,3c-2.8,0.5-7.3-1.7-6.6,4.4c0.1,1.2-1.8,0.8-3.5,0.4c2.1-4.4,4.1-8.6,6.1-12.8
	c0.6,0.7,1.3,1.4,1.9,2C12,13.8,12,15,14.6,15z"/>
<path class="st16" d="M99.6,145.1c-0.3-0.3-0.6-0.7-0.9-1c-1.2-0.6,0.9-3.9-2.3-3c-1-0.8-0.8-2-0.8-3c2.8-0.3,6.8,1.3,6.5-4.1
	c-0.1-1.5,1.3-1.2,2.2-1.1c1.7,0.3,1,1.3,0.5,2.1C103,138.4,101.3,141.7,99.6,145.1z"/>
<path class="st17" d="M39.4,91.1c1.3,0.5,1.4,1.9,2.1,2.9c-1.9,0.8-3,3.4-5.5,2.7c-2.8-0.8-4.2-2.6-2.5-5.5c1-0.9,2.3-1.1,2.9,0
	C37.7,93.4,38.4,91.7,39.4,91.1z"/>
<path class="st18" d="M45.4,99.1c0.4-0.4,0.8-0.8,1.2-1.2c2,3.5,6.2,6.1,4.8,11.1C49.5,105.7,47.5,102.4,45.4,99.1z"/>
<path class="st19" d="M77.5,91c-0.7,0.1-1.8-0.2-1.9,1c-0.1,0.9,1.4,2.3-0.6,2.7c-1.2,0.2-2.2-0.5-3-1.5c-1-1.4,0.2-2.1,0.9-2.9
	c0.8-0.8,1.8-1.4,2.7-2.1C75.4,89.7,77,89.9,77.5,91z"/>
<path class="st20" d="M39.4,91.1c0.7,2.1-0.6,3.3-2.3,3.5c-2.4,0.3-1.1-1.5-1.3-2.6c-0.2-1.5-1.3-1-2.3-0.8c0.3-1.2,2.2-1.5,1.9-3.1
	C36.8,89.1,38.1,90.1,39.4,91.1z"/>
<path class="st21" d="M57.7,98.2c-2.5,1-3.6-0.9-3.7-2.6c-0.2-3.6-2.1-6.4-3.5-9.5c-0.5-1.2,0.2-1.8,1.1-2.4c3.6-0.5,3,3.5,5.4,4.9
	c2-4.6,5.5-8.4,8.4-12.5c1.7-2.4,1.8-5.4,1.4-8.1c-0.5-3.3-4-4.4-6.4-2c-2.2,2.2-4.1,4.6-7.5,5.3c-2.5,0.5-1.5,2.7-1.2,4.6
	c0.4,2.4,2.7,5.6-2.1,6.5c-2.7-3.3-5.6-6.5-5.5-11.3c0.1-3.1,0.3-6.1,3.6-7.6c3.3-1.5,5.7,0.3,7.8,2.6c0.9-1.9,2-3.8,2.7-5.8
	c0.5-1.4,1.4-2.1,2.5-2.9c4.1-3.2,7.7,0.4,11.3,1.1c2.8,0.6,1.2,4,1.4,6.1c0.8,8-4.3,13.4-8.2,19.6C62.4,88.6,57.1,92,57.7,98.2
	C57.6,98.3,57.7,98.2,57.7,98.2z"/>
<path class="st22" d="M51.5,84c-0.3,0.7-0.7,1.4-1,2c-3.5-1.7-10.7-16.3-9.6-19.6c1.2-3.4,3-6,7.3-6.5c4.9-0.5,6.2,2.5,7.4,6.1
	c-1.3,0-2.1-0.9-3.1-1.3c-3.7-1.7-6.4,0-6.9,4.1c-0.8,5.4,2.2,9.3,5.1,13.3C51.3,82.5,52.1,82.9,51.5,84z"/>
<path class="st23" d="M96.3,141.1c0.2-2.1,1.9-1.8,2.8-1.2c2,1.4-0.6,2.7-0.5,4.1C96.4,144.2,97.3,142,96.3,141.1z"/>
<path class="st24" d="M14.6,15c-0.8,1.6-2.5,1.8-3.1,0.7c-0.7-1.3-0.3-3.2,1.9-3.6C13.8,13.1,14.2,14.1,14.6,15z"/>
<path class="st25" d="M51.5,84c-0.3-0.7-0.7-1.3-1-2c0.4-2.3,0.9-4.3-0.5-6.7c-1.4-2.5-0.5-5.8,2.4-5.7c3.5,0.1,4.8-1.6,6.2-3.8
	c1.5-2.5,3.7-3.6,6.3-2.4c2.8,1.3,3.7,3.6,3.5,7c-0.4,4.7-3.5,7.8-5.5,11.6c-0.2,0.4-0.7,0.7-1.1,1c-2.6,1.8-2,6.7-4.8,7.1
	C53.6,90.6,54.9,84.8,51.5,84z"/>
</svg>
