<?xml version="1.0" encoding="utf-8"?>
<!-- Generator: Adobe Illustrator 23.1.1, SVG Export Plug-In . SVG Version: 6.00 Build 0)  -->
<svg version="1.1" id="Livello_1" xmlns="http://www.w3.org/2000/svg" xmlns:xlink="http://www.w3.org/1999/xlink" x="0px" y="0px"
	 viewBox="0 0 112 157" style="enable-background:new 0 0 112 157;" xml:space="preserve">
<style type="text/css">
	.st0{fill:#FFFFFF;}
	.st1{fill:#282223;}
	.st2{fill:#262123;}
	.st3{fill:#231E1F;}
	.st4{fill:#F3E2DD;}
	.st5{fill:#1F1E1F;}
	.st6{fill:#C8242D;}
	.st7{fill:#F3E2DE;}
	.st8{fill:#C3232C;}
	.st9{fill:#C0232C;}
	.st10{fill:#BCBBBD;}
	.st11{fill:#E4996B;}
	.st12{fill:#BABDBD;}
	.st13{fill:#ED9A6E;}
	.st14{fill:#D24E30;}
	.st15{fill:#45302B;}
	.st16{fill:#241D1C;}
	.st17{fill:#261D20;}
	.st18{fill:#E6DEDA;}
	.st19{fill:#981E23;}
	.st20{fill:#9E1F25;}
	.st21{fill:#571E15;}
	.st22{fill:#E68733;}
	.st23{fill:#742F24;}
	.st24{fill:#D77C33;}
	.st25{fill:#732F22;}
	.st26{fill:#A9A0A2;}
	.st27{fill:#A83229;}
	.st28{fill:#99302E;}
	.st29{fill:#CD4C47;}
	.st30{fill:#C94E49;}
	.st31{fill:#BC6757;}
	.st32{fill:#E1E2E2;}
	.st33{fill:#463228;}
	.st34{fill:#DD9034;}
	.st35{fill:#9B9E9D;}
	.st36{fill:#9C9A9C;}
	.st37{fill:#A8A5A6;}
	.st38{fill:#32261C;}
	.st39{fill:#B5222C;}
	.st40{fill:#7D6F6C;}
	.st41{fill:#786764;}
	.st42{fill:#A18F8B;}
	.st43{fill:#BA8588;}
	.st44{fill:#786A67;}
	.st45{fill:#A62A28;}
	.st46{fill:#4F5250;}
	.st47{fill:#595052;}
	.st48{fill:#BA552E;}
	.st49{fill:#432A21;}
	.st50{fill:#EBE1D8;}
	.st51{fill:#CC6833;}
	.st52{fill:#1F1917;}
	.st53{fill:#D44033;}
	.st54{fill:#DC432F;}
	.st55{fill:#E37631;}
	.st56{fill:#301E22;}
</style>
<path class="st0" d="M0.2,154C0.2,116.7,0.1,79.3,0,42C0,30.6,0,19.3,0,7.9C0.1,1.1,1.2,0,7.9,0c32.2,0,64.5,0,96.7,0
	c5.8,0,7.3,1.3,7.3,7c0,47.7,0,95.4,0,143.1c0,5.7-1.4,6.9-7.3,6.9c-32.4,0-64.8,0-97.2,0c-2.6,0-5-0.1-6.8-2.3
	c-0.3-0.1-0.5-0.2-0.4-0.4C0.1,154.1,0.2,154,0.2,154z"/>
<path class="st1" d="M63.4,18.9c-0.2,0.2-0.2,0.5-0.2,0.7c-1.7,1.4-3.8,0.7-5.7,0.7c-3.3,0-4.9,1.3-4.9,4.7c0,3.8,0.2,7.5,0.7,11.3
	c0.4,2.6,0.7,5.3-1.4,7.5l0,0c-1.9,4.2-6.4,3.3-9.7,4.9c-0.4,0.3-0.8,0.5-1.2,0.8c-1.8,0.9-3.6,1.2-5.3-0.3
	c-0.3-0.4-0.2-0.9,0.1-1.2c1.5-3.7-2.4-1-2.8-2.3c-1.9-3.2,0.6-4.1,2.8-4.6c2.4-0.5,5-0.1,7.2-0.2c-3-0.5-7.7,1.9-8.2-4.1
	c-0.5-3.6-0.3-7.2,0.2-10.8c-0.7-2.2-0.8-4.4-0.4-6.8c0.5-2.4,1.8-3.5,4.1-3.6c6.9-0.1,13.8-0.6,20.7,0.1
	C61.2,15.9,64.1,15.5,63.4,18.9z"/>
<path class="st2" d="M77.3,121c0.1,3,0.3,5.9-0.4,8.8c0.1,3.5,0.6,7.1-1.3,10.4c-2.9,1.6-5.6,1.5-8.5-0.3c1-2.7,3.5-0.6,4.7-1.9
	c-5.1,0.4-5.3,0.1-4.8-7.4c0-0.7-1.1,0.3-0.5,0c0.1-0.1,0.2,0.1,0.2,0.4c0,0.7,0.1,1.3,0,2c-0.2,1.8,0.9,4.4-2.2,4.7
	c-3.4,0.2-3.5-2.5-3.6-4.8c-0.1-2,0-4-0.9-5.9c-1-2.5-1.2-5.1-1.4-7.7c-0.5-6.3,0.8-8,7.1-9.6c3.5,1,5.4-2,7.9-3.4
	c2.3,0.3,2.8,1.5,1.8,3.4c0.6,2.3,3.4,0.3,4.2,2.1c0.6,3.3-1.5,4-4.1,4.1c-3.3,0.1-6.6,0.1-9.9,0.3C76.4,115.7,76.4,115.7,77.3,121z
	"/>
<path class="st3" d="M81.4,66.8c3.4,4.7,6.8,9.5,10.3,14.2c1.6,2.1,1.2,4.4,1.2,6.7c0,4.8-0.2,9.6-0.3,14.5c-1.1,0.3-2-0.3-2.7-1
	C84.6,95,79.4,89,74.4,82.8c-0.4-0.5-0.5-1.2-0.5-1.9c0.7-2,2.3-1.6,3.7-1.3c2.6,0.6,5.3,0.8,8,1.1c-3.6-1.9-7.6-3-10.6-5.8
	C75.4,70.9,78,68.5,81.4,66.8z"/>
<path class="st4" d="M66.3,110.8c-6.2,1.3-7,2.5-6.1,8.6c0.4,2.6,0.7,5.2,1.1,7.8c0.7,1.1,0.4,2.3,0.4,3.4
	c0.1,8.9-1.5,10.2-10.7,8.4c-1-0.2-2-0.4-2.9-0.8c0-1.4-0.6-3,0.9-4.1c1.1,0,2.3-0.1,3.4-0.4c-1-0.8-2.2,0.4-3.2-0.3
	c-2.2-3.9-2-6.9,2.8-8.6c-1.1-2-1.9-0.2-2.9,0.2c-1.7-1.1-1.2-2.1,0.1-3c1.2-0.9,2.6-1.5,2.1-3.5c-0.6-2.5,0.9-3.3,3.1-3.4
	c2.6-0.1,3.8-1.2,2.7-3.9c2.3-5.5,9.2-6.3,14.2-1.6C70,111.3,67.9,109.9,66.3,110.8z"/>
<path class="st5" d="M30.7,90.2C27,85,23.2,79.8,19.5,74.5c-0.8-6.5-0.2-12.9-0.4-19.3c2.5-0.6,3.3,1.1,4.4,2.2
	c0.7,0.7,1.3,1.6,1.9,2.5c0.6,1,1.4,2,2.2,2.8c2.9,2.7,5.1,6,7.8,8.9c1.1,1.3,2.6,2.7,1.3,4.8c-3.3,1.6-6.5-0.9-9.6,0
	c2.9,1.9,7.4,2.4,9.1,6.6C34.8,85.6,34.3,89,30.7,90.2z"/>
<path class="st6" d="M75.3,139.9c0.5-3.4,1.1-6.7,1.6-10.1c3.4,4.5-0.6,10.2,2.5,14.8c0.5,0.8-0.7,1.3-1.6,1.2
	c-6.2-0.6-11.9,1.5-17.8,2.4c-4.4,0.7-9.5-1-15-0.3c1.2-3.3,2.3-6,3.3-8.8c6.1-0.6,12.2,0.2,18.3,0.8
	C69.5,140.4,72.4,141,75.3,139.9z"/>
<path class="st7" d="M51.9,43.8c1-6.4-0.8-12.8-1-19.2c-0.1-4.7,1-6.4,5.7-5.5c2.1,0.4,4.3,0.3,6.5,0.5c-0.3,1.7-2.2,0.9-2.9,2
	c-0.2,0.8-1.6,1.4-1.2,2c1.2,1.7,2.6-0.5,4,0c1.6,2.8,2.3,5.6,0.1,8.4c-1.2,1.9-4.6,0.8-5.1,3.6c0.9,0.8,2.2,1.4,2.5,2.3
	c0.6,1.8,2.1,4.2-1.8,4.5C56.4,42.7,54.2,43.3,51.9,43.8z"/>
<path class="st8" d="M87.6,107c-1.2,1-2.7,1.2-4.2,1.4c-4.5-2.1-7.2-6.3-10.7-9.4c-2-2.1-4.3-4.1-5.9-6.5c-0.3-0.4-0.5-0.8-0.8-1.1
	c-2.3-4.1-6.6-6.6-9.2-10.6c-0.4-1.6,0.5-2.3,1.8-2.7c0.5-0.1,1-0.2,1.5-0.2c1,0,2,0,3,0.2c1.2,0.3,2.4,0.8,3.5,1.4
	c7.5,7.6,13.8,16.3,20.7,24.4C88,104.7,88.5,105.8,87.6,107z"/>
<path class="st9" d="M24.6,49.9c1.7-1.2,3.7-1.3,5.7-1.1c0.5,0,1.1,0.1,1.4,0.4c5.9,8.9,14.9,15.1,20.9,24c1,1.4,1.8,2.8,1,4.6
	c-0.3,0.4-0.7,0.7-1.2,0.9c-1,0.3-2,0.3-3,0.1c-1.2-0.3-2.4-0.6-3.6-1.1C38,70.1,31.5,61.6,24.9,53.1C24.2,52.2,23.7,51.1,24.6,49.9
	z"/>
<path class="st10" d="M43.8,107c-1.7,1.7-2.6,3.8-3.5,5.9c-3.1,6.9-7.2,9.5-14.7,9.4c4.2-6,8.1-11.8,12.1-17.5
	c0.3,0.1,0.6,0.3,0.9,0.5c2.7-5.7,7.2-10.3,9.7-16c1.6-1.2-1.7-2.4-0.1-3.6c0.7-0.3,1.3-0.4,2-0.1c2.9,1.3,2.7,5.4,6.1,6.3
	c0.2,0.5,0.1,0.9-0.1,1.4c-4.4,0.8-6.6,3.8-8.3,7.7C46.9,103.1,46.2,105.7,43.8,107z"/>
<path class="st11" d="M87.6,107c-4-7.1-10.1-12.5-15-19c-2.1-2.8-4.3-5.4-6.5-8.1c0.3-2,1.9-1.1,3-1.3c2.1,0.2,4.2,0.1,5.4,2.3
	c6,7.1,12.1,14.1,18.1,21.2C94,106.9,90.9,107,87.6,107z"/>
<path class="st12" d="M68,50.1c3.4-2.6,3.7-6.9,6.1-10.1c3.6-4.8,7.2-6.6,13.5-5.3c-6.2,4.2-7.3,11.5-12.4,16.1
	c-0.8-1-0.2-1.7,0.4-2.5c-5.5,5.5-7.8,13.1-12.6,19C61,67.2,60,66,59.8,64C62.9,59.6,64.6,54.3,68,50.1z"/>
<path class="st13" d="M24.6,49.9c3.3,6.4,8.6,11.2,12.9,16.8c2.7,3.5,5.6,6.9,8.4,10.4c0.7,0.6,2.5,0.3,2,1.5
	c-0.9,2-2.7,0.9-4.2,0.4c-2-1.4-4.8-1.2-6.6-3.1c-3.5-4.4-6.9-8.7-10.4-13.1c-0.5-1.1,1-2.1,0.6-2.7c-0.6-0.8-1.4,1.1-2.4,0.6
	c-0.5-0.6-0.9-1.1-1.4-1.7c1.2-3.4-2.8-5.1-2.8-8.2C21.8,49.7,23.2,50,24.6,49.9z"/>
<path class="st14" d="M63.4,18.9c-0.9-2.6-3.3-1.8-5.1-1.9c-5.4-0.2-10.7-0.3-16.1-0.4c-6.4-0.1-7.5,1-6.7,7.5
	c0.1,0.6,0.4,1.3-0.3,1.8c-4.3-2-0.6-5-1-7.5c-0.1-2.3,1-3.7,3.4-3.8c2.5-0.2,5-0.1,7.4-0.1c4.6-0.1,4.6-0.1,2.9-4.5
	C49.7,8.7,51.7,8,54,8.6c4.2,1.2,8.6,0.4,13.4,0.4C65.9,12.6,64.6,15.8,63.4,18.9z"/>
<path class="st15" d="M52.9,78c-0.6-5.9-5.6-8.9-9-12.9c-4.6-5.4-10.3-9.9-13.7-16.4c1.7-1.4,3.8-0.4,5.6-0.8c0,0.3,0,0.6,0,0.8
	c3.5,3.6,5.3,8.6,9.5,11.7c3.5,4,7.9,7.2,10.3,12.1c0.4,2.5,3.4,3.5,3.7,6.1c-1.2,0.2-2.2,0.6-2.1,2c-0.2,0.2-0.3,0.4-0.5,0.6
	C54.3,81.6,53,80.5,52.9,78z"/>
<path class="st16" d="M43.8,107c1.1-4.6,4-8.4,6-12.5c1.4-2.9,4.3-0.7,6.4-1.6c3.8-1,5.1,2.4,7.4,4.1c0.3,0.7,0.3,1.5-0.1,2.2
	c-1.8,1.5-4,1.8-6.1,2.6c-2.5,0.5-4.7,1.5-6.1,3.7c-1.1,1.7-2.8,2-4.5,2.3C45.7,107.9,44.6,108.2,43.8,107z"/>
<path class="st17" d="M68,50.1c-1.6,5.2-3.5,10.3-7.9,14c-1.4,1.3-3,1.1-4.6,0.7c-2.7-1.1-5.3-2.4-7-4.9c-0.3-0.8-0.2-1.5,0.2-2.2
	c1-1,2.4-1.4,3.7-1.4c5.1-0.3,7.6-4.3,11-7.1C65,49.5,66.5,49.8,68,50.1z"/>
<path class="st18" d="M55.2,64.2c1.6-0.1,3.3-0.1,4.9-0.2c0.7,1.2,1.6,2.3,3,2.9c2.7-1.5,3.2-4.5,4.7-6.8c1.4-2.1,2-5,5.3-5.4
	c0.4,0.8,0.8,1.5,1.1,2.3c-0.9,2.5-2.1,4.8-3.6,7c-1.3,1.8-2,3.8-0.9,6c0.1,0.5,0,0.9-0.1,1.4c-1.2,1.9-2.9,1-4.5,0.8
	c-2.2-0.3-2.9,1.2-3.5,2.8c-0.5,1.3-0.1,3.1-2,3.7c0,0-0.4,0-0.4,0c-2.1-1.6-4.8-2.8-4.3-6.1C54.4,69.8,57.8,67.1,55.2,64.2z"/>
<path class="st19" d="M30.7,90.2c2-2.3,2.6-5.6,5.3-7.4c2-1.3,4-0.4,6-0.1c1.2,0.9,1.9,2,2.4,3.4c0.1,0.5,0,0.9-0.1,1.4
	c-2.4,3.7-3.8,8-6.2,11.7c-0.5,0.3-0.9,0.2-1.3,0C34.8,96.1,32.7,93.2,30.7,90.2z"/>
<path class="st20" d="M69.3,71c-0.2-0.2-0.3-0.5-0.3-0.8c0.7-4.6,3.3-8.4,5.3-12.5c2.7,2.8,5.2,5.8,7.1,9.2c-2,2.7-4.1,5.4-6.1,8
	c-1.6,1.2-3.3,0-5,0.5C66.7,74.6,69.2,72.5,69.3,71z"/>
<path class="st21" d="M75.3,139.9c-6.5,2.2-13.1,0.7-19.7,0.6c-2.5,0-4.9-0.8-7.4-1.3c-0.1-0.4-0.1-0.8-0.2-1.1
	c2.7-1.4,5.6-0.3,8.3-0.1c3.7,0.3,5.3-0.6,4.8-4.5c-0.3-2.1-0.7-4.2,0.1-6.3c1.8,2.2,0.6,4.8,0.9,7.2c0.2,1.4,0.4,2.7,2.3,2.6
	c1.6-0.1,1.8-1.3,1.8-2.5c0-2.4,0-4.9,1-7.3c0,2.3,0.1,4.5,0,6.8c-0.1,1.9,0.5,3.3,2.4,3.8c2.1,0.5,2.3-1.3,3-2.6
	c1.5,3.4,1.5,3.4-4.3,4.9C70.7,139.9,73,139.9,75.3,139.9z"/>
<path class="st22" d="M47.9,10.1c2.2,0.8,3.9,2.3,3.3,4.7c-0.6,2.2-2.8,0.9-4.3,1c-2.8,0.2-5.7,0.3-8.5,0.1
	c-2.2-0.1-3.4,0.7-4.2,2.6c-0.3-1.3-0.7-2.5-1-3.8c-0.7-2.5,0-3.9,2.8-3.6C40,11.4,43.9,10.5,47.9,10.1z"/>
<path class="st23" d="M66.3,110.8c1.4-0.3,2.8-0.6,4.4-1c-6.4-3.3-9.5-3-13.6,1.3c-1.4-0.7-2.7-1.5-4.1-2.2c-0.7-4,3-4.2,5.2-5.8
	c3.6-1.7,7.2-1.3,10.8,0c1.7,1,4.2,1.2,4.3,3.8C72.5,110.9,69.8,111.5,66.3,110.8z"/>
<path class="st24" d="M63.4,49.2c-2.2,7.1-8,8.4-14.4,8.8c-3.6,1.4-5.7-1.1-7.7-3.2c-1.3-1.4-0.2-2.4,1.4-2.7
	c6.1,1.8,11.2-1.4,16.6-3.3C60.7,48.9,62.1,49,63.4,49.2z"/>
<path class="st25" d="M59.3,48.7c-4.7,4.4-9.9,6.6-16.3,4.2c-1.4-1-4.2-1.3-2.2-4c0.1-0.3,0.1-0.6,0.2-0.9c4.8,0,9.7,0.6,14.1-2.1
	C56.5,46.8,58.3,47.2,59.3,48.7z"/>
<path class="st26" d="M73.2,54.8c-2.9,2.6-4.1,6.3-6.2,9.4c-0.8,1.2-1.1,3.9-3.8,2.8c2.8-8.2,8-14.9,14.3-22.1
	c-1,2.6-1.6,4.2-2.2,5.9C74.2,51.9,73.5,53.2,73.2,54.8z"/>
<path class="st27" d="M73.3,106.9c-1.4-0.9-2.7-1.9-4.1-2.8c-1.2-2.7-4.8-2.5-6.1-5.1c-0.1-0.6-0.1-1.2-0.2-1.8
	c0.9-1.4,2.4-1.4,3.8-1.4c0.8,0.1,1.6,0.3,2.4,0.7c2.7,2.1,5.1,4.6,7.5,7.1c1.5,1.5,2.4,3.2,0.8,5.2c-0.7,0.3-1.4,0.7-2.1,1
	C75.5,108.2,75.3,106.9,73.3,106.9z"/>
<path class="st28" d="M102.2,133.8c-2.8,0.9-3.4,2.6-3.1,5.2c0.3,2.8,0,5.6,0.3,8.4c0.1,1.3,0.4,2.3-1.5,2.3c-1.4-0.1-2-0.3-1.7-2
	c0.4-3.1,0.2-6.3,0.3-9.4C96.7,134.9,98.5,133.3,102.2,133.8z"/>
<path class="st29" d="M104.3,122.7c-1.8,2-2.4,5.2-4.8,5c-1.8-0.2-3.8-2.9-3.6-4.9c0.2-2,1.7-5,4.1-4.7
	C101.6,118.3,102.8,121,104.3,122.7z"/>
<path class="st30" d="M12.3,39.8c-1.4-2.1-4-3.6-3.7-5.8c0.2-1.8,2.2-4.7,3.5-4.8c2.3-0.2,3.9,2.7,4.1,4.7
	C16.4,36.2,14,37.8,12.3,39.8z"/>
<path class="st31" d="M20.7,50.9c2.2,2.3,7.1,3.7,2.8,8.2c-1.2-1.1-2.3-2.1-4.1-3.8c0,6.9,0,13.1,0,19.3c-1.6-7.5-0.8-15-0.2-22.4
	C19.3,51.7,20.2,51.3,20.7,50.9z"/>
<path class="st32" d="M44.2,86.9c-0.2-0.4-0.5-0.7-0.7-1.1c0.4-1.7,1.7-1.8,3.2-1.7c0.8,0.3,1.4,0.7,1.4,1.7
	C47.9,87,50.5,87.5,49,89c-2.4,3-4.1,6.5-6.2,9.7c-0.9,1.4-1.4,3.6-3.8,3.3c-0.5-1.1-2.3-1.3-2.1-2.9c0.4-0.1,0.8-0.1,1.2-0.2
	C40.1,94.9,42.9,91.3,44.2,86.9z"/>
<path class="st33" d="M77.5,108.8c0.4-3.6-2.7-5-4.5-7.3c-1.2-1.5-3.2-2.4-3.7-4.5c0.2-0.1,0.4-0.2,0.5-0.3c1.2,0.3,2.4,0.7,3.5,1.3
	c3.4,3.5,6.8,6.9,10.1,10.4C81.5,109.5,79.5,109,77.5,108.8z"/>
<path class="st34" d="M58.1,104c-1.6,1.8-4.5,2.2-5.1,4.9c-2.1-0.4-4.2-0.8-6.3-1.2c1.7-0.4,2.5-1.7,3.4-3c1.5-2.2,3.5-4.5,6.8-3.8
	C58.2,101.6,58.8,102.6,58.1,104z"/>
<path class="st35" d="M38.9,102c2.9-2.7,4.3-6.4,6.4-9.6c0.9-1.4,1.2-3.6,3.7-3.3c0.4,3.8-3,5.7-4.3,8.6c-1.2,2.7-3.6,4.6-4.6,7.5
	c-0.4,1.3-1.8,2.3-2.4-0.2C38.1,103.9,38.5,102.9,38.9,102z"/>
<path class="st7" d="M55.1,45.9c-4,5.5-9.1,3.4-14.1,2.1c3.2-2.5,8-0.9,10.9-4.1C52.9,44.5,54,45.2,55.1,45.9z"/>
<path class="st36" d="M34.9,36.8c0.6,2.3,1.7,3.4,4.5,3c3.1-0.5,6.4-0.6,9.5,0.3c0,0.4,0,0.9,0,1.3c-4.3,0.2-8.6,0.5-12.9,0.5
	c-2.6,0-3.8,1-3.1,3.6c-2.4-1.2-1.3-3-0.1-4C34.6,40.3,34.5,38.5,34.9,36.8z"/>
<path class="st37" d="M77.3,121c-0.6-3.1-1.9-4.8-5.6-3.8c-2.2,0.5-4.7,0.1-7,0c-0.8,0-1.9,0.1-1.6-1.2c0.2-0.9,1-1,2-0.7
	c3.8,1,7.6-0.7,11.4-0.3c2.1,0.2,3-1.2,3.1-3.1c1.3,1.2,1,2.5-0.2,3.4C77.5,116.8,77.6,118.9,77.3,121z"/>
<path class="st38" d="M74.3,57.6c-0.8,4.6-2,9-5.3,12.5c-1.4-0.8-2.5-1.7-1.2-3.4c2.3-3.1,3.5-7,6.5-9.7
	C74.4,57.2,74.4,57.4,74.3,57.6z"/>
<path class="st39" d="M12.4,20.8c-0.1-4,0.1-7.9-0.3-11.9c-0.2-1.8,0.5-2,1.8-2c1.6,0,1.7,0.3,1.2,2c-1.2,4.2,1.2,8.9-1.6,13
	C12.6,22.1,12.2,21.7,12.4,20.8z"/>
<path class="st40" d="M63,23.6c-1.6,0.3-1.8,3.3-3.8,2.4c-1.2-0.6-3.1-1.5-2.8-3c0.3-1.9,2.4-1.1,3.8-1.4C61.3,22,63.1,21.5,63,23.6
	z"/>
<path class="st41" d="M49.2,133.3c1-0.8,2-2.2,3-2.2c1.6,0,3.3,1.4,3.4,2.8c0.2,1.9-1.9,1.3-3,1.3c-1.2,0-2.7,0.1-3.6-1.2
	C49.2,133.8,49.2,133.5,49.2,133.3z"/>
<path class="st42" d="M58,35.7c-0.8-0.4-2.2-0.8-0.7-1.8c1.7-1.2,3.5-2.3,5.8-1.8C63.9,36.7,59.2,33.7,58,35.7z"/>
<path class="st43" d="M12.4,20.8c0.4,0.4,0.7,0.7,1.1,1.1c0,0.2,0,0.4-0.1,0.5c-1.2,1.6-2.7,1.9-4.4,0.8c-0.7-0.5-1.3-1.2-0.9-2.1
	C9.3,18.4,11,21.7,12.4,20.8z"/>
<path class="st44" d="M49.1,124.9c0-4.3,4-1,5.4-3.7c0.1,2.7-1.9,2.4-2.5,3.5C51.1,124.8,50.1,124.9,49.1,124.9z"/>
<path class="st45" d="M40.8,48.8c-0.7,2.1,2.1,2.3,2.2,4c-0.7,0.2-2.1,0.4-0.9,1.3c2.1,1.5,4,3.6,6.9,3.8c0,0.6,0.1,1.3,0.1,1.9
	c-1.5,0-2.4,2.5-4.3,1c-4.7-2.8-7.6-6.9-9-12.1C37.5,49.7,39.2,49.4,40.8,48.8z"/>
<path class="st46" d="M70.3,74.7c1.8-2.8,3.4,0.2,5,0.1c4.5,2,9,4,14.6,6.5c-6.1,1.5-10.7-1-15.5-0.4c-1.9-1.2-4.1-0.7-6.1-1.3
	C67.9,77.6,67.3,75.5,70.3,74.7z"/>
<path class="st47" d="M41.9,83.3c-2.1,1-3.9-0.5-5.9-0.5c-3.8-2.9-8.2-4.8-13.5-7c5.6-2,10.1,0.2,14.6,0.1c2.4,0.4,5,0.1,7,1.9
	C44.4,80,44.9,82.3,41.9,83.3z"/>
<path class="st31" d="M24.9,60.8c1.2-0.8,0.9-2.9,2.6-3c0.5,0,1.4,0.9,1.6,1.6c0.9,2.2-1.9,2.2-2.5,3.5
	C25.8,62.5,25.2,61.7,24.9,60.8z"/>
<path class="st48" d="M70.3,74.7c-1.6,1.3-0.7,3.5-1.9,4.9c-0.8,0-1.6-0.9-2.2,0.3c-1-0.3-1.9-0.7-2.9-1c-2-3.3,1.2-5.2,2.2-7.7
	c1.3-0.4,2.7,1.1,3.9-0.2C71.4,71.8,67.6,74.1,70.3,74.7z"/>
<path class="st49" d="M57.3,80.7c4.1,2.7,7.1,6.3,9.9,10.2c-1.4,1.2-2.8,0.3-4.2-0.1c-2.8-1.3-4.5-3.7-6.4-6
	c-0.5-1.2-0.6-2.4,0.2-3.6C57,81.1,57.1,80.9,57.3,80.7z"/>
<path class="st15" d="M65.5,71.2c0.8,3-2.9,4.7-2.2,7.7c-1.1-0.1-2.3-0.2-3.4-0.2c0.5-2.1,0.9-4.1,1.5-6.2
	C62,70.2,63.5,69.9,65.5,71.2z"/>
<path class="st33" d="M63,90.1c1.4,0.3,2.8,0.6,4.2,0.9c0.2,0.3,0.3,0.5,0.2,0.8c0.6,1.7,2.3,3,2,5.1c0,0-0.1,0.1-0.1,0.1
	c-0.6,0-1.2-0.1-1.7-0.1C65.2,95.2,62.7,93.5,63,90.1z"/>
<path class="st49" d="M69.3,96.9c-0.8-1.7-2.1-3.1-2-5.1c2,2.1,3.9,4.1,5.9,6.2C71.8,98.1,70.5,97.6,69.3,96.9z"/>
<path class="st50" d="M56.8,81.3c0.1,1.2,0.2,2.4,0.4,3.6c-0.3,2.4-2.2,4.5-1.3,7.1c-5,0.8-3.4-4.5-5.8-6.1c-0.8-3-0.3-5.7,2-7.9
	c0.3,0,0.6,0,1,0C53.8,79.6,55.4,80.3,56.8,81.3z"/>
<path class="st51" d="M41.9,83.3c1.7-1.5,0.8-3.9,2.2-5.5c0.9,0.6,2,1.6,2.9,0.8c0.7-0.6-0.9-0.9-1.1-1.5c1.2-0.2,2.4-0.3,3.2,1
	c1.2,2.9-0.1,5-2.2,6.9c-1.1,0.3-2.5-0.3-3.4,0.9C42.4,85.3,42.1,84.4,41.9,83.3z"/>
<path class="st52" d="M46.9,85c0.7-2.3,1.5-4.6,2.2-6.9c1,0,1.9,0,2.9,0c-0.9,2.6-0.2,5.6-2,7.9c-0.6,0-1.3-0.1-1.9-0.1
	C47.7,85.5,47.3,85.2,46.9,85z"/>
<path class="st53" d="M55.8,92c-4.1-3.2,0.2-4.9,1.3-7.1c3,0.5,3.3,4.1,5.8,5.2c1.1,2.5,4,3.9,4.5,6.9c-1.5,0.1-3,0.1-4.5,0.2
	c-2.3-1.4-4.5-2.9-6.8-4.3C56.2,92.5,56,92.2,55.8,92z"/>
<path class="st54" d="M44.9,60.9c1.6,0.3,2.4-2.3,4.3-1c2,1.5,4.1,2.9,6.1,4.4c1.3,0.7,2.6,1.4,4.2,2.3c-2.3,1.7-3.5,3.8-4.5,6.1
	C51.6,68.7,47.6,65.4,44.9,60.9z"/>
<path class="st55" d="M58.1,104c-0.4-1.1-0.8-2.1-1.2-3.2c1.9-1.1,3.9-1.9,6.1-1.9c3.9,0.7,4.9,1.5,6.1,5.1
	C65.6,103.3,61.9,102.9,58.1,104z"/>
<path class="st56" d="M44.2,86.9c2.1,1.4,0.5,2.7-0.3,3.7C42,93.4,41.2,97,38,98.9C38.8,94.3,40.4,90,44.2,86.9z"/>
</svg>
