<?xml version="1.0" encoding="utf-8"?>
<!-- Generator: Adobe Illustrator 23.1.1, SVG Export Plug-In . SVG Version: 6.00 Build 0)  -->
<svg version="1.1" id="Livello_1" xmlns="http://www.w3.org/2000/svg" xmlns:xlink="http://www.w3.org/1999/xlink" x="0px" y="0px"
	 viewBox="0 0 112 157" style="enable-background:new 0 0 112 157;" xml:space="preserve">
<style type="text/css">
	.st0{fill:#FFFFFF;}
	.st1{fill:#F7E4DF;}
	.st2{fill:#F7E4DD;}
	.st3{fill:#BC362C;}
	.st4{fill:#F6E5E2;}
	.st5{fill:#F7E4E2;}
	.st6{fill:#D55F31;}
	.st7{fill:#BB2C2C;}
	.st8{fill:#CE512F;}
	.st9{fill:#DF8533;}
	.st10{fill:#4A2C29;}
	.st11{fill:#A83929;}
	.st12{fill:#4A221B;}
	.st13{fill:#AA422A;}
	.st14{fill:#763024;}
	.st15{fill:#7D392F;}
	.st16{fill:#373434;}
	.st17{fill:#424545;}
	.st18{fill:#49413F;}
	.st19{fill:#2D2D29;}
	.st20{fill:#858585;}
	.st21{fill:#272F2B;}
	.st22{fill:#7E7E7E;}
	.st23{fill:#2D2623;}
	.st24{fill:#231E1F;}
	.st25{fill:#232122;}
	.st26{fill:#838384;}
	.st27{fill:#4C301C;}
	.st28{fill:#58361F;}
	.st29{fill:#79797A;}
	.st30{fill:#8B8A8B;}
	.st31{fill:#848484;}
	.st32{fill:#6A6A6A;}
	.st33{fill:#777777;}
	.st34{fill:#6E6E6E;}
	.st35{fill:#6F7070;}
	.st36{fill:#B82D2B;}
	.st37{fill:#BB2A2C;}
	.st38{fill:#F8A231;}
	.st39{fill:#A9A5A1;}
	.st40{fill:#999392;}
	.st41{fill:#DF7936;}
	.st42{fill:#CBC0B8;}
	.st43{fill:#EF7D31;}
	.st44{fill:#C5482E;}
	.st45{fill:#C55F30;}
	.st46{fill:#CF5330;}
	.st47{fill:#E06D43;}
	.st48{fill:#9D2425;}
	.st49{fill:#E5734B;}
	.st50{fill:#E3D1CF;}
	.st51{fill:#DCCDD7;}
	.st52{fill:#D4D4CE;}
	.st53{fill:#ED8E33;}
	.st54{fill:#ED7A31;}
</style>
<path class="st0" d="M0,78.4C0,55.5,0,32.7,0,9.9c0-9.1,0.7-9.8,9.6-9.8c31.3,0,62.7,0,94,0c6.8,0,8.4,1.4,8.4,8.1
	c0,46.8,0,93.7,0,140.5c0,7.2-1.3,8.3-8.7,8.3c-31.8,0-63.7,0-95.5,0c-6.4,0-7.7-1.2-7.7-7.6C0,125.7,0,102,0,78.4
	C0,78.4,0,78.4,0,78.4z"/>
<path class="st1" d="M57.8,52.7c0.3,0.8,0.6,1.6,0.9,2.5c-0.2,1.6-0.9,2.9-2.5,3.5c-4.4,0.8-8.5,0.9-10.6-4.1
	c-0.1-0.5-0.1-1.1,0.2-1.5c-0.1-0.8,0-2.2-0.4-2.3c-6-2.3-3.8-7.1-2.9-10.8c1.5-6.2,0.5-8-5.7-8c-1.6-0.1-1.7-0.9-0.9-2.1l-0.1,0.1
	c3.6-2.1,6.9-2.2,9.4,1.7c1.1,1.7,2.8,2.3,4.4,3.1c2.6,1.2,3.6,3.6,5,5.8C56.7,44.3,57.3,48.4,57.8,52.7z"/>
<path class="st2" d="M53.9,104.8c0.9-1.4-0.2-2.1-1.1-2.9c0.4-1.4,1.2-2.4,2.6-3c4-1,7.8-1,11,2c1.5,1.7,3.5,1.4,5.4,1.5
	c2.1,0.1,4.3-0.4,5.9,1.4c-3.4,2.4-7.3,0.2-10.9,1.4c4.4,5.6,2.7,11.7,1.8,17.8c-6.6,1.6-9.3-2.6-11.6-7.6
	C54.9,112.2,55.3,108.2,53.9,104.8z"/>
<path class="st3" d="M70.9,132.7c-0.1,0.1-0.3,0.3-0.4,0.3c-6.6-0.6-10.5,2.9-12.8,8.7c-1,0.8-1.6,0.7-1.7-0.7
	c1.8-4.5-1.6-6.9-4.2-9.3c-2.9-2.7-5.3-5.4-4.1-9.7c1.9-1.9,2-1.9,2.9-0.1c0.7,1.4,0.5,3.3,3,4.1c0.3-2.7-0.3-5.1-1.8-7.2
	c-0.3-0.4-0.5-0.8-0.7-1.3c-0.1-1.1-0.2-2.5,1.2-2.6c2-0.1,3,1.4,4,2.9c0.4,0.9,0.6,1.9,0.7,2.9c1.3,7.4,2.5,8.6,10.2,9.7
	C68.9,130.5,70.8,130.2,70.9,132.7z"/>
<path class="st4" d="M77,73.7c2.7,0,5.5,0.5,8.1,0c2.8-0.5,4.2,1.2,5.5,2.8c1.5,1.8-0.4,2.7-1.3,4c-1.4,2.1-2.2,4.1-5.4,4.6
	c-2.2,0.3,0,4.1-2.1,5.5c-1.3-1-1.2-2.6-1.4-4c-2-3.5-4.8-6.8-4.6-11.3C76,74.7,76.3,74.1,77,73.7z"/>
<path class="st5" d="M34.9,82.7c-2.5-1.9-5.5-0.5-7.3,0.3c-2.7,1.1-5.2-0.5-5.5-1.2c-0.9-2.2-1.4-5.9,0.6-7.1c3.1-1.9,6.2-3.3,7.3-7
	c1.1,1,1.2,2.6,2.3,3.6c0.2,0.3,0.5,0.7,0.6,1.1c0.6,1.1,1.4,2.1,1.9,3.2c0.5,1.8,2.8,2,3.3,3.8C37.8,81.3,36.1,81.8,34.9,82.7z"/>
<path class="st6" d="M52.7,117.8c2.7,2.9,1.9,6.7,3.4,11.1c-3.2-2-6.7-1.9-6.4-6.3c0.1-1.7-0.8-2.1-2.1-0.7
	c-3.4-1.5-6.7-3.1-10.1-4.6c-0.7-2.4,1.6-1.6,2.5-2.3c7.3,1.2,10.1-4.4,13.6-9c2,3.4,3,7.1,2.7,11.1c-0.2,0.2-0.4,0.4-0.6,0.5
	c-3.5-2.4-3.5-2.4-3.8-0.1c-2.4,0.7-4.6-2.2-6.7,0.2C47.5,118,50.1,119.3,52.7,117.8z"/>
<path class="st7" d="M40.9,24.9c0.3-0.2,0.5-0.4,0.8-0.6c3-2.2,8.9,0.7,8.9-0.8c0.2-3.7,2.1-5.8,4-8.3c0.9-0.3,1.6-0.2,1.8,0.8
	c-2.2,4.4,1.1,6.8,3.6,9.1c2.4,2.2,4.5,4.2,4.7,7.7c-0.8,0.8,0.2,2.7-1.2,2.9c-1.4,0.2-1.6-1.4-2-2.4c-1-3.1-3.1-4-6.1-3.1
	c-0.5,0-0.9-0.2-1.4-0.4c-2.4-2.1-5.2-2.7-8.3-2.7C44,27,41.6,27.6,40.9,24.9z"/>
<path class="st8" d="M40.9,24.9c2.4,1.6,5,0.6,7.6,0.8c2.9,0.2,5.3,1,6.5,4c0.5,0.6,0.6,1.2,0.3,1.9c-0.5,0.7-1.3,1.1-2.1,0.9
	c-3.3-0.8-0.6,1.4-1.1,2c-0.5,0.9-1.4,1.1-2.3,1.3c-2.2-1.2-6.3-0.1-5.9-4.8c0.1-1.3-1.5-1.4-2.7-1.4c-1.8,0-3.6,0-5.4,0.1
	C36.7,27.3,38.2,25.5,40.9,24.9z"/>
<path class="st6" d="M70.9,132.7c-1.4-2.1-3.5-0.9-5.4-1.1c-6.3-0.7-8.5-3.3-9.6-10.9c3.3-1.5,5.2,1,7.3,2.6
	c1.5,1.2,2.8,2.7,4.8,3.3c2.7,1.2,5.3,0.6,7.9-0.7c1.3-0.3,2.5-0.3,3.1,1.2c0,0-0.2,0.1-0.2,0.1c-0.1-0.7-0.7,0.6-0.5,0
	C74.8,127.8,74.4,132.4,70.9,132.7z"/>
<path class="st9" d="M72.5,43.3c-3-3.1-5.6-0.4-8.4,0.5c-4.5-1.9-7.6-4.7-7.3-10.1c1.5-4,3.4-2.6,5-0.2c0.9,1.2,0.8,3.3,3.2,2.2
	c3.3,0.6,6.4,1.6,8.6,4.3C74.3,41.4,74.2,42.6,72.5,43.3z"/>
<path class="st10" d="M31.9,72c-3.1-0.2-1.7-2.7-2-4.2c1.2-1.5-0.2-3.4,1.1-5.3c1.8-2.6-0.1-7,3.4-8.8c3-1.5,6.6-0.3,9.8-0.6
	c0.5,0,1-0.1,1.5-0.2c0.1,0.3,0.2,0.7,0.3,1c-1.6,3.3-5,1.5-7.4,2.6c-4.3,1.3-3.6,5.1-4.1,8.3c0,0.5-0.1,0.9-0.2,1.4
	C33.7,68.2,33.6,70.4,31.9,72z"/>
<path class="st11" d="M57.8,33.8c-0.6,5.1,4.4,6.6,6.3,10c-1.8,2-3.6,4-5.4,6c-1.4,0.2-1.4-0.8-1.4-1.8c2.1-2.9,1.4-5.4-1.3-7.4
	c-1.1-1.9-1.4,1.2-2.3,0.4c-2.1-1-1.6-4.1-3.9-4.9c0.4-0.9,1.2-1.2,2.1-1.2c2-0.1,3.3-0.7,3-3c0-0.7,0-1.3,0-2c0.3,0,0.6,0,0.9,0
	C58.1,30.3,56.9,32.6,57.8,33.8z"/>
<path class="st12" d="M81.8,85.8c0.9,1.6-0.3,3.3,0,4.9c-1.9,4.2-0.6,9.3-4,13c-3.2,0-6.3,0-9.5,0.1c-1.5,0-2.7-0.1-2.4-2.1
	c1.4-1.6,3.3-1.3,5.1-1.4c1.7-0.2,3.8,0.7,4.8-1.7c1.6-4.3,1.8-8.9,3.7-13.1C80.4,85.1,81.2,85.2,81.8,85.8z"/>
<path class="st13" d="M67.9,126.6c-2.1,2-3.6,0-4.4-1.1c-1.9-2.9-4.6-4-7.7-4.8c0-1-0.1-2-0.1-3.1c0,0,0.1,0,0.1,0
	c0.9-0.7,0.9-2.1,2-2.7c2.2,4.6,5.7,7.3,10.8,7.9C68.5,124.2,68.2,125.4,67.9,126.6z"/>
<path class="st14" d="M55,99.8c-0.2,1.2-0.8,2.1-2.1,2.2c-2.8-1.8-6.5-1.7-9-4.1c-0.9-1.5-0.7-3,0-4.4c1.7-1.5,3.8-2.4,5.2-4.3
	c1.4-1.8,3.1-2.1,5.1-0.8c0.7,0.7,1.2,1.4,1,2.5c-2.2,1.7-5.7,2-6.5,5.4C50.6,97.5,53.3,97.7,55,99.8z"/>
<path class="st15" d="M56.7,57.6c0.6-0.9,0.8-2.1,2-2.5c3.7,1.9,8.4,1.6,11.1,5.6c0,0.7-0.4,1.3-0.9,1.8c-1.8,1.5-3.1,3.4-5,4.9
	c-1.3,0.8-2.7,1.3-4.1,1.5c-1.3,0.1-2.5,0-3.6-0.6c-0.4-0.3-0.6-0.7-0.6-1.2c1-1.7,3.2-1.3,4.6-2.4c1.4-1.1,3.7-1.6,2.9-4.2
	C61.3,58.5,58.3,59.7,56.7,57.6z"/>
<path class="st16" d="M43.9,94.1c1.1,1.3-0.4,2.5-0.1,3.7c-4.7-4-5.6-10.3-9-15.1c-0.2-2.2,1.7-2.3,3-2.9
	C41.7,83.8,41.4,89.6,43.9,94.1z"/>
<path class="st17" d="M68.6,62.1c0.4-0.5,0.7-0.9,1.1-1.4c3.2,3.9,4.7,8.8,7.3,13c-0.1,0.7-0.1,1.3-0.2,2c-2.1,1.4-3.8,1.4-4.5-1.5
	c-0.1-2.1-1.6-3.8-1.9-5.9C70,66.2,67.6,64.7,68.6,62.1z"/>
<path class="st18" d="M35.9,29.7c0.3,0.7,0.6,1.4,0.9,2.1c-0.1,2.6-0.8,4.8-4,4.4c-1.9-0.2-3.1-1.7-2.8-3.5
	C30.6,29.3,33.3,29.5,35.9,29.7z"/>
<path class="st19" d="M40,115c-0.3,1.4-1.7,1.5-2.5,2.3c-2.6,1-3.8-0.6-4.3-2.7c-0.4-1.9,0.8-3.3,2.7-3.5
	C38.8,110.7,39.6,112.7,40,115z"/>
<path class="st20" d="M25,113.8c2.5,0.3,3.3,1.8,3.2,3.8c-0.1,2.4-1.9,3.1-3.7,3.1c-1.9-0.1-2.9-1.6-2.9-3.5
	C21.6,115,23.3,114.2,25,113.8z"/>
<path class="st21" d="M56,140.9c0.6,0.2,1.1,0.5,1.7,0.7c1.4,2.3,1.7,4.5-1.3,5.7c-1.8,0.7-3.5-0.2-4-2C51.6,142.5,53,141,56,140.9z
	"/>
<path class="st22" d="M89.1,40.1c-0.2,2.3-1.7,3.4-3.6,3.3c-2-0.1-3.3-1.4-3.2-3.6c0.2-2.3,2.1-2.9,3.9-2.9
	C88.3,36.8,88.9,38.4,89.1,40.1z"/>
<path class="st8" d="M57.8,33.8c-0.6-1.3-1.3-2.7-1.9-4c2.5-3.3,4.3-0.9,5.9,0.9c1,1.1,1.3,2.6,1.1,4.2c1.5,0,0.9-1.7,1.9-2
	c0.1,0.9,0.2,1.9,0.3,2.8c-1.8,1.8-2.5,0.9-3.5-0.9C61,33.9,59.9,30.2,57.8,33.8z"/>
<path class="st23" d="M78.2,127.3c-0.8-0.4-1.6-0.9-2.4-1.3c-1.7-2.9,0.1-4.2,2.4-5c1.9-0.6,3.4,0.7,3.6,2.4
	C82.3,126,80.8,127.3,78.2,127.3z"/>
<path class="st24" d="M72.5,43.3c0.4-1.1,0.8-2.2,1.2-3.4c2.3-0.7,4.3-0.5,5.2,2.2c0.5,1.7-0.4,3-1.8,3.6
	C74.6,46.6,73.2,45.6,72.5,43.3z"/>
<path class="st25" d="M56.4,16.1c-0.6-0.3-1.2-0.6-1.8-0.8c-1.5-2.1-1.4-4.1,1-5.3c1.9-0.9,3.7,0,4.2,2C60.5,14.6,59,15.9,56.4,16.1
	z"/>
<path class="st26" d="M87.5,70.6c-0.9-1.9-6,1.2-4-3.8c0.6-1.4-0.1-3.9,2.6-3C90.3,65.2,86.9,68.3,87.5,70.6z"/>
<path class="st27" d="M57.9,115c-0.2,1.2,0.1,2.8-2,2.7c0.1-4.1-2.1-7.7-2.3-11.7c0.1-0.4,0.2-0.8,0.3-1.2c3.2,0.5,1.7,3.4,2.5,5.1
	C57.2,111.4,57.4,113.3,57.9,115z"/>
<path class="st28" d="M57.9,47.7c0,0.8,0.1,1.5,0.8,2c-0.3,1-0.6,1.9-1,2.9c-2.7-3.4-2-8.1-4-11.7c0.6-0.6,0.7-2.4,2.3-1
	C57.6,42.2,59.2,44.6,57.9,47.7z"/>
<path class="st29" d="M22.9,90.6c1.8-0.6-1.7-3.7,1.5-3.3c0.4,0.1,4.4-1.3,3.1,2c-0.6,1.5,0.9,4.5-2.4,4.3
	C23.5,93.5,22.2,92.6,22.9,90.6z"/>
<path class="st30" d="M88.2,52.4c-1.8-1.2-4.9,0.9-5.3-2c-0.2-1.3-0.3-4.7,1.7-4.4C87.7,46.4,86.4,50.4,88.2,52.4z"/>
<path class="st31" d="M28.2,122.3c-2.1,1.5-2.4,3.9-3.1,6c-0.2,0.6-0.5,1.4-1.3,1c-0.4-0.1-0.9-0.8-0.8-1
	C24.2,125.9,23.3,121.7,28.2,122.3z"/>
<path class="st32" d="M26.3,111.7c-2.6-1.3-2.2-4.2-3.6-6.3C28.2,106.3,28.2,106.3,26.3,111.7z"/>
<path class="st33" d="M88.7,59.9c-0.3,0.3-0.6,0.6-1,0.8c-1.1,0.5-2.6,2-3.1-0.2c-0.4-1.7-3-3.3-0.7-5.2c0.6-0.5,2.7-1.7,1.8,1.2
	c-0.2,0.6,1.1,1.2,0.8,2.6C86.2,60.4,88.2,58.6,88.7,59.9z"/>
<path class="st34" d="M27.3,101.8c-2.7-0.9-3.6-3.1-5-4.8c0.9-0.4,2.1-1.3,2.7-1C27.4,97.2,26.6,99.8,27.3,101.8z"/>
<path class="st35" d="M83.4,35.9c-0.9-2.2,0.8-2.5,1.3-3.3c0.8-1.4-0.1-5,2.5-3.9c1.7,0.7-0.5,3.7-1.3,5.5
	C85.6,34.9,84.5,35.3,83.4,35.9z"/>
<path class="st36" d="M56.7,57.6c3,0.2,6.1,0,8.4,2.4c-2.1,4.9-6.2,6.3-11,6.5c-7-1.4-12.2-5.3-16.2-11.1c2.6-1.6,5.8,0.4,8.3-1.5
	C48.3,59,52.8,57.5,56.7,57.6z"/>
<path class="st37" d="M55,99.8c-3.2-0.5-6.1-1.8-8.9-3.3c2.1-1,3.3-3.2,5.3-4.4c6.1-3.4,18.6,1.2,21,7.8c0.2,0.7,0,1.3-0.4,1.8
	c-2,0-4,0-5.9,0C62.7,98.7,58.9,99.3,55,99.8z"/>
<path class="st38" d="M52.7,117.8c-2.8,2.8-4.9,2.7-10.4-0.8c3.5,0,6.7-4,9.7,0.5C52.2,117.7,52.5,117.8,52.7,117.8z"/>
<path class="st39" d="M73.9,73.8c-0.3,2.5,1.8,1.5,3,2c0.5,3.9,2.6,7,5,10c-0.7,0.1-1.3,0.3-2,0.4c-5.3-2-11.7-0.4-16.2-5
	c0.3-1.4,1.7-1.3,2.6-1.8c-3.6,0.4-6.4-1.8-9.5-3c-0.3-0.4-0.6-0.8-0.8-1.2c-0.4-2.3-2.2-4.7,0.1-7c1.3,0,2.5-0.1,3.8-0.1
	c2,1.4,2.7-0.8,3.9-1.5c1-2.1,2.5-3.8,4.8-4.4c1,1.9,2.1,3.8,3.1,5.7C68.8,71.1,73.4,71.7,73.9,73.8z"/>
<path class="st40" d="M43.9,94.1c-2.6-2.6-4.9-5.5-4-9.5c0.2-0.8-0.2-0.7-0.5-0.7c-4.1,0-1.3-2.6-1.5-4c-1.4-1.4-5.1-0.4-4.1-4.1
	c0.9-1.8,2.6-2.3,4.3-2.8c1.7-0.4,3.5-0.5,5.2,0c3.8,2.4,8.9,2.6,11.7,6.7c1.6,1.8,2.2,4,2.2,6.3c0,2.3-0.7,3.9-3.5,3
	c-1.5,0-3.3-1.4-4.1,1C48.6,92.6,46.1,93,43.9,94.1z"/>
<path class="st41" d="M31.9,72c-0.3-2.5,1-4.4,1.8-6.6c2.4-0.9,4.8-0.4,6.2,1.5c1.4,2-0.4,3.6-1.8,5c-2,1.1-4.1,1.7-6.3,0.8
	C31.8,72.5,31.8,72.2,31.9,72z"/>
<path class="st42" d="M31.8,72.7c1.8-1.4,3.9-1,5.9-0.9c0.2,0.2,0.3,0.3,0.5,0.5c0.1,0.5,0.1,0.9-0.2,1.3c-1,1.5-3,1.1-4.3,2.1
	C33.2,74.7,31.5,74.3,31.8,72.7z"/>
<path class="st43" d="M54.9,31.7c1.1,1.1,1.6,2.9,0.7,3.8c-1.1,1.2-2.4-0.4-3.7-0.8c-1.3-1.2-2.7-2.4-3.5-4.7
	C50.7,30.7,52.6,32.3,54.9,31.7z"/>
<path class="st44" d="M37.8,71.8c3.6-5.2-0.9-5.4-4-6.4c0,0,0.1-0.4,0.1-0.4c1.9-1.6,5-1.7,4.9-5.6c0-1.7,2.1-0.5,3,0.3
	c3.4,3.1,7.2,5.1,11.6,6.2c0.8,0.4,1.9,0,2.6,0.8c0,0.4,0,0.9,0.1,1.3c0.2,2.6,0.4,5.1,0.6,7.7c-0.1,1.9-0.2,3.9-2.9,3.9
	c-1.5-2.2-4-3.5-6.3-3.7c-2.1-0.1-2.6-1.4-3.8-2.3C42.3,71.4,39.6,73,37.8,71.8L37.8,71.8z"/>
<path class="st41" d="M52.9,66.6c-5-1.4-9.5-3.5-13.4-7.5c0.9,5-0.2,6.1-5.6,6c0.2-3.7-1.3-8.1,4-9.6c5.2,3.6,9.6,8.5,16,10.3
	C53.6,66.2,53.3,66.4,52.9,66.6z"/>
<path class="st45" d="M57.9,47.7c-0.6-2.6-1.3-5.2-1.9-7.8C61.1,42.6,61.6,44.4,57.9,47.7z"/>
<path class="st46" d="M64.1,80.8c4.9,2.8,10.8,2.6,15.8,5.4c0.2,4.8-1.9,9.1-2.8,13.6c-1.6,1.2-3.3,1-4.4-0.4
	c-2.9-3.7-7.2-5.4-11-7.9c-3.2-2.5-5.2-5.6-5.3-9.8c-0.1-1.3,0.1-2.2,1.4-2.8C60.1,78.3,62.6,77.8,64.1,80.8z"/>
<path class="st47" d="M61.8,90.8c4.3,2.3,8.8,4.2,12,8.1c0.8,1,2.1,0.8,3.2,0.8c-0.8,3-3.3,1.6-5.1,2c-4.4-9.6-15.6-12.5-23.6-6
	c-0.7,0.6-1.3,0.9-2.2,0.8c2.1-3.2,4.4-6.1,8.8-5.9C57.2,88.9,59.5,89.3,61.8,90.8z"/>
<path class="st48" d="M61.8,90.8c-2.3-0.1-4.6-0.2-6.9-0.3c-0.4-0.6-0.7-1.1-1.1-1.7c5.4-3,1.5-6.1,0-9.1c1-1.3,1.9-2.6,2.9-3.9
	c0,0,0.4-0.1,0.4-0.1c0.4,1.3,1,2.5-0.1,3.7c0.8,3.9-0.2,8.8,5.7,10.1C63.8,89.8,62.4,90.6,61.8,90.8z"/>
<path class="st49" d="M52.9,66.6c0.3-0.3,0.6-0.5,0.9-0.8c4.9,0.4,8.3-2.2,11.3-5.7c-0.7,5.4-4.7,6.3-9.1,6.8
	C55,66.7,54,66.6,52.9,66.6z"/>
<path class="st50" d="M63.8,66.5c0,1.7-2.1,1.6-2.4,2.7c-0.4,1.1-0.5,2.7-1.9,2c-1.7-0.9-0.2-2.2,0.4-3.2
	C61.2,67.5,62.5,67,63.8,66.5z"/>
<path class="st51" d="M73.9,73.8c-0.8-0.6-1.5-1.4-2.3-1.6c-5.6-1.7-2.3-3,0.2-4.3C72.4,69.8,73.2,71.8,73.9,73.8z"/>
<path class="st52" d="M57,79.5c0-1.2,0.1-2.5,0.1-3.7c3.9-0.2,7.1,5.4,11.6,0.8C68,80,68,80,64.1,80.8C61.9,79.3,59.4,80,57,79.5z"
	/>
<path class="st53" d="M37.8,71.9c2-1.9,4.1-0.1,6.2-0.2c0.9,0,0.8,1.5-0.3,2.2c-1.9-0.1-3.8-0.2-5.7-0.2C38,73,37.9,72.4,37.8,71.9z
	"/>
<path class="st54" d="M40.1,68.9c2.7-1.5,4.3-1.4,5.8-0.3c0.2,0.2,0.1,0.8,0.1,1.3C44.4,69.6,42.8,69.3,40.1,68.9z"/>
</svg>
