<?xml version="1.0" encoding="utf-8"?>
<!-- Generator: Adobe Illustrator 23.1.1, SVG Export Plug-In . SVG Version: 6.00 Build 0)  -->
<svg version="1.1" id="Livello_1" xmlns="http://www.w3.org/2000/svg" xmlns:xlink="http://www.w3.org/1999/xlink" x="0px" y="0px"
	 viewBox="0 0 112 157" style="enable-background:new 0 0 112 157;" xml:space="preserve">
<style type="text/css">
	.st0{fill:#EB2135;}
	.st1{fill:#1C0E3C;}
	.st2{fill:#1B0F3B;}
	.st3{fill:#1B0F3A;}
	.st4{fill:#E12236;}
	.st5{fill:#1A0E3B;}
	.st6{fill:#1E0D3C;}
	.st7{fill:#1E0E3D;}
	.st8{fill:#1C103A;}
	.st9{fill:#311A3D;}
	.st10{fill:#21103B;}
	.st11{fill:#270E3A;}
	.st12{fill:#18103D;}
	.st13{fill:#D82335;}
	.st14{fill:#B52A36;}
	.st15{fill:#752A57;}
	.st16{fill:#EB2136;}
	.st17{fill:#9C1F46;}
	.st18{fill:#4A235D;}
	.st19{fill:#522460;}
	.st20{fill:#57225E;}
	.st21{fill:#751D53;}
	.st22{fill:#64225D;}
	.st23{fill:#631E54;}
	.st24{fill:#75225C;}
	.st25{fill:#81215B;}
	.st26{fill:#1F0F3C;}
	.st27{fill:#721D53;}
	.st28{fill:#661F57;}
	.st29{fill:#751F58;}
	.st30{fill:#721E55;}
	.st31{fill:#6E2562;}
	.st32{fill:#93225D;}
	.st33{fill:#761E54;}
	.st34{fill:#701F57;}
	.st35{fill:#642664;}
	.st36{fill:#7C225D;}
	.st37{fill:#67235D;}
	.st38{fill:#6F215B;}
</style>
<g>
	<path class="st0" d="M112,25.4v22.2c-3.2,4.2-7.3,7.7-12.2,10.4c-9.3,5.1-16.8,12-25.3,17.8c-0.3,0.2-0.6,0.4-0.8,0.5
		c0,0.1-0.1,0.1-0.1,0.1c-0.7,0.5-1.4,0.9-2,1.4c-0.1,0.1-0.2,0.1-0.2,0.1C50,91.3,29.2,105.4,7.8,118.6c-2.4,1.5-4.6,3.8-7.7,3.6
		v-21c5.4-6.1,12.3-10.7,19.3-15.4h0c0.4-0.3,0.8-0.5,1.2-0.8c0.2-0.1,0.3-0.2,0.5-0.3c0.1-0.1,0.2-0.1,0.3-0.2
		c0.6-0.4,1.2-0.8,1.8-1.2c6.9-4.1,15.1-6.8,19.8-13.2c0.3-0.3,0.5-0.7,0.7-1c0.1-0.1,0.2-0.2,0.4-0.3c0.8-0.6,1.7-1.1,2.6-1.5
		c0.3-0.2,0.6-0.3,1-0.4c0.4-0.1,0.8-0.2,1.2-0.3c4.9-1.5,9.1-4,12.6-7.5c0.1-0.1,0.1-0.1,0.2-0.1c0.3-0.3,0.7-0.6,1.1-0.9
		c0-0.1,0.1-0.1,0.1-0.1c0.3-0.2,0.6-0.5,1-0.7c1-0.5,1.8-1,2.8-1.4c0,0,0-0.1,0.1-0.1c6.6-3.5,12.9-7.4,17.9-12.7
		c0,0,0.1-0.1,0.1-0.1c0.4-0.4,0.8-0.8,1.3-1.1c0.3-0.2,0.6-0.4,0.9-0.6c0.4-0.2,0.8-0.4,1.1-0.6c4.5-2.4,7.8-6.2,12.6-8.3
		c0.3-0.1,0.6-0.2,0.9-0.4c0.6-0.3,1.2-0.6,1.7-1c1.9-1.3,3.6-3,5.6-4.2c0.4-0.3,0.9-0.5,1.4-0.7C110.7,25.7,111.3,25.5,112,25.4z"
		/>
	<path class="st0" d="M112,67.5v22.8c-1.5,1.4-3.2,2.7-5,3.9c-14.3,9.9-28.7,19.8-43.4,29.4c0,0,0,0-0.1,0c-0.6,0.4-1.3,0.9-1.9,1.3
		c0,0,0,0,0,0c-6.6,4.2-13.2,8.4-19.9,12.5c0,0,0,0,0,0c-0.4,0.2-0.8,0.4-1.1,0.6c-0.3,0.2-0.6,0.3-0.8,0.5
		c-0.3,0.1-0.6,0.3-0.9,0.5c-9.9,5.8-19.2,12.4-29.7,17.4c-0.5-0.1-0.9-0.2-1.4-0.4c-4.4-1.6-7.5-5.4-7.5-9.8v-4.7
		c3.7-4.9,9.3-8.4,14.8-11.8c21.6-13.3,42.7-26.9,62.8-41.8c0.4-0.3,0.8-0.6,1.2-0.9c0.1-0.1,0.2-0.1,0.2-0.2l0.2-0.1
		c0.6-0.4,1.3-0.9,1.9-1.3c7.8-5.4,16.2-10.1,24.4-15.1C107.5,69.2,109.5,67.6,112,67.5z"/>
	<path class="st1" d="M0.1,77v26.2c8.7-4.7,15.5-11.4,23.4-17h0c8-4.6,18.9-6.3,21.4-16.4c-0.2-0.4-0.4-0.7-0.8-0.9
		c-1.5-1.1-4.3-1.4-3.8-4.3c2.6,0.4,4.6,1.5,6.4,2.8c0.9,0.6,1.7,1.2,2.6,1.8c6.4-1.4,12.1-3.6,14.5-9.7
		c10.2-2.9,18.1-8.2,23.5-16.4c6.8-0.2,9.1-6,14-8.6c0.9-1.3,1.5-2.6,1.8-3.7c1.5-5.2-2.9-8-8.7-10.1c-0.3-0.1-0.6-0.2-0.9-0.3
		c-0.3,0-0.6-0.1-0.8-0.1c-3.4-0.2-6.3,1.1-9,2.7c-27,16.6-53.8,33.5-80.6,50.4c-0.8,1.1-1.9,2-3,3 M61.8,53.8
		c0.9,1.3,0.6,2.7,1,4.1c0,0.2,0.1,0.4,0.2,0.6c-0.1-0.2-0.2-0.3-0.3-0.5C61.9,56.8,61.7,55.4,61.8,53.8z M18.1,78.5
		c1.9,1.9,2.1,4.4,3.3,6.1c0.2,0.2,0.3,0.4,0.5,0.6c-0.3-0.1-0.6-0.3-0.8-0.4C19,83.6,17.3,82.1,18.1,78.5z M85.9,41.8
		c-1.6-1.3-3.3-2.7-3.7-5.7C84.4,38.1,84.8,40.2,85.9,41.8z"/>
	<path class="st0" d="M0.1,76.5v-13c6.2-7.1,15.1-11.8,22.8-17.6c0.1-0.1,0.2-0.1,0.3-0.2c0.3-0.3,0.6-0.6,1-0.9
		c1.1-1,2.4-1.8,3.7-2.6c0.6-0.3,1.1-0.6,1.7-0.9c0,0,0,0,0.1,0c5.2-2.7,10.8-5,15.3-8.6c0.2-0.2,0.4-0.4,0.6-0.6
		c0.5-0.4,0.9-0.8,1.4-1.1c2.2-1.5,4.6-2.7,6.9-4c0.6-0.4,1.3-0.8,1.9-1.2c0.5-0.3,1-0.7,1.4-1.1c3.6-2.4,6.9-5.2,10.5-7.5
		c0.1-0.1,0.2-0.1,0.2-0.2l1.1-0.5c3.3-1.4,6.7-2.9,9.4-5.1c0.5-0.4,1-0.8,1.4-1.3c0.1-0.1,0.2-0.2,0.3-0.3c1.7-1.5,3.5-2.8,5.1-4.4
		c0.1-0.1,0.2-0.2,0.3-0.3C86,5,86.3,4.7,86.7,4.5c0.5-0.3,0.9-0.6,1.4-0.9c0.4-0.3,0.9-0.6,1.3-0.8c0,0,0,0,0,0
		C90.5,2,91.7,1.4,92.9,1c2.1-0.7,4.3-1,6.6-1h0.3c0.4,0,0.8,0,1.2,0.1c0.7,0,1.1,0.2,1.9,0.3c-0.1,0,0.1,0,0,0
		c4.4,1,7.9,4.2,8.8,8.1c0.2,0.7,0.2,1.4,0.2,2.1v0.2c-2.3,2.5-5.1,4.6-8.8,5.8c-0.1,0.1-0.3,0.1-0.4,0.2c-0.5,0.2-0.9,0.4-1.4,0.6
		c-2.3,1-4.6,2.2-7,3.2c-0.8,0.4-1.7,0.8-2.6,1.2C62.7,40,33.6,58,4.4,76.1C2.7,76.7,1.2,77,0.1,77"/>
	<path class="st2" d="M80,88.1c0,0.1-0.1,0.1-0.1,0.1c-5.3,9.3-16.1,13.4-24.7,19.5C37.2,120.4,17.1,131.1,0.1,145v-25.1
		c21.3-13.7,42.7-27.5,64-41.2c1.8-1.2,3.9-2.1,5.9-3.1c1-0.5,1.9-0.6,3-0.4c0.1,0.2,0.2,0.3,0.4,0.5c0.1,0.2,0.2,0.4,0.3,0.6
		c0,0.1,0.1,0.1,0.1,0.2c1.6,3.4,0.9,7.8,5.1,10.1c0.1,0.1,0.2,0.2,0.4,0.2C79.5,87.3,79.7,87.7,80,88.1z"/>
	<path class="st3" d="M112,87.9v21.7c-3-0.9-2.1-5.8-5.6-6.3c-1.2,3.5,2.7,5.6,3.2,8.6c0,0.2,0,0.5,0,0.7c0,0.3-0.1,0.6-0.2,0.9
		c-9.2,10.5-22.5,16-35.4,22c-0.7,0.1-1.3,0-1.9-0.1c-0.5-0.1-1-0.2-1.4-0.3c-2.5-0.9-3.8-3.1-5.1-5.4c-0.5,2.8,2.7,4.4,3.3,6.7
		c0,0.2,0.1,0.3,0.1,0.5h0c0,0.3,0,0.6-0.1,0.9c-3.4,5-8.2,8.4-14.7,9.7c-0.3,0-0.6,0-0.8-0.1c-0.7-0.1-1.4-0.2-2-0.3
		c-4.3-0.9-7.1-3.5-9.8-6.4l0,0c-0.6-0.7-1.3-1.4-1.9-2.2c-0.1-0.2-0.2-0.3-0.4-0.5c-0.1-0.1-0.1-0.1-0.1-0.1c-0.4-1-0.2-2,0.7-2.8
		C63.9,119.4,88,103.7,112,87.9z"/>
	<path class="st0" d="M38.8,156.9c-0.8-3.4,1.9-5.4,4.4-7.5c0.2-0.1,0.3-0.2,0.4-0.4c0.3-0.2,0.6-0.4,0.9-0.6c2-1,4.6-0.6,6.8-1.2
		c0.9-0.3,1.8-0.7,2.5-1.5c4.8-2.9,9.7-5.9,14.5-8.8c0.2-0.2,0.4-0.3,0.6-0.5c0.6-0.5,1.2-0.9,1.8-1.3c0.6-0.5,1.3-0.9,1.8-1.5
		c11.9-7,23.8-14,35.7-21c0.4-0.3,0.8-0.5,1.2-0.7c0.8-0.4,1.6-0.6,2.4-0.6v17c-12.2,12.8-27.8,21.8-45.2,28.6H39.7"/>
	<path class="st4" d="M72.3,0C70.6,5,65,6.8,60.7,9.7c-0.2,0.1-0.5,0.3-0.7,0.5c-0.1,0.1-0.2,0.1-0.2,0.2C54,12.9,49,16.5,43.7,19.7
		c-0.4,0.2-0.8,0.5-1.2,0.7c-0.1,0-0.1,0.1-0.2,0.1C33.3,26.2,24,31.6,14.6,36.6c-4.2,2.2-8.3,5-13.8,4.3c-0.2-0.1-0.5-0.1-0.7-0.2
		c0,0,0,0-0.1,0c0,0,0,0,0.1,0V24c5-4.5,12.4-6.9,17.3-11.5c1.1-1,2.7-1.7,4.3-2.4c0,0,0,0,0,0c0.9-0.4,1.8-0.8,2.6-1.2
		c0,0,0.1,0,0.1-0.1c1.4-0.7,3-1.2,4.6-1.5c0.6-0.1,1.2-0.3,1.7-0.5c1.8-0.7,3.3-1.8,4.7-3c1.5-1.3,3-2.6,4.7-3.6
		c0.2-0.1,0.3-0.1,0.4-0.2H72.3z"/>
	<path class="st5" d="M46.7,34.3c-4.7,4-9.7,7.6-16.3,9.2c-0.9-0.2-1.8-0.7-2.7-1.2c-1.3-0.7-2.6-1.3-3.6-0.6
		c-1,0.8-0.7,1.9-0.2,3.2c0.4,0.8,0.8,1.7,1.1,2.4c-8.4,6.3-16.7,12.6-25.1,19V40.7c0,0,0,0-0.1,0c0,0,0,0,0.1,0
		c0.8-0.3,1.7-0.7,2.4-1.2c13.9-6.3,25.3-16,39.8-21.3c0.6,0.4,1,0.9,1.4,1.5c0.1,0,0.1,0.1,0.1,0.1c0.1,0.2,0.2,0.4,0.3,0.6v0.7
		c0.2,3.4,2.4,6.5,2.9,9.8C47.1,32.1,47.1,33.2,46.7,34.3z"/>
	<path class="st6" d="M112,45.2v24.5c-10.7,6-19.5,14.6-31.9,18.4c-0.1,0-0.1,0-0.2,0.1c-0.3-0.3-0.6-0.7-0.9-1.1
		c-0.1-0.1-0.2-0.2-0.2-0.3c-1.8-3.3-1.3-7.8-5.1-10.1c-0.1-0.1-0.1-0.1-0.2-0.1c-0.4-0.2-0.8-0.4-1.3-0.6c-0.8,0-1.5-0.1-2.3-0.2
		C84,65.5,98,55.3,112,45.2z"/>
	<path class="st7" d="M112,126.9v19.4c0,0.3,0,0.7-0.1,1c-0.1,1.1-0.4,2.1-0.9,3.1v0c-1.1,0.8-2.6,1.3-4.7,1.1
		c-0.3-0.1-0.6-0.1-0.9-0.2c-0.3-0.1-0.6-0.2-1-0.3c-0.4-0.2-0.9-0.4-1.3-0.6c-1.1-0.5-1.3-2.6-3.4-1.5c1.1,0.4,2,1,2.5,2
		c0.2,0.5,0.3,1.1,0.3,1.7c0,0.3,0,0.6-0.1,0.9c0,0.1-0.1,0.2-0.1,0.4c-0.6,1.2-1.4,2.2-2.4,3.1H65.6
		C81.1,146.9,96.5,136.9,112,126.9z"/>
	<path class="st8" d="M38.8,156.9H28.6c-3.2-1.4-6.4-1.2-9.6,0h-6.7c-1.1,0-2.2-0.1-3.3-0.4c-0.5-0.1-0.9-0.2-1.4-0.4
		c9-8.9,21.4-14.1,32.3-20.9c0.1,0.6,0.1,1.2,0.1,1.9c0.2,0.3,0.4,0.7,0.5,1c0.4,0.9,0.8,1.8,1.1,2.7l0,0c0.8,2.6,1.4,5.2,2.9,7.6
		c0.4,0.5,0.7,1,1.2,1.5c-2,2.3-4,4.6-5.9,6.9"/>
	<path class="st9" d="M0.1,9.6L0.1,9.6C0.6,9.3,1,8.9,1.4,8.5C1.6,8.4,1.8,8.3,2,8.1c1.8-1.3,3.5-2.7,5.5-3.9c1-0.5,2-1,3-1.4
		c0.5-0.2,1-0.3,1.5-0.4c1.4-0.2,2.8-0.1,4.1,0.4C16.3,2.9,16.4,3,16.6,3c0,0,0.1,0,0.1,0c2.5,2,5.4,3.5,7.7,5.7
		c0.5,0.4,0.9,0.9,1.3,1.4C17.1,16.2,8.6,22.3,0.1,28.4V10.6c0-0.2,0-0.3,0-0.5"/>
	<path class="st10" d="M87.3,6C87.3,6,87.3,6,87.3,6L87.3,6c0,2.9-2.1,3.9-4.9,4.3h0c-1.3,0.7-2.6,1.1-3.9,1.2
		c-5.2,0.6-10.5-2.1-15.7-0.8c-0.2,0.1-0.4,0.1-0.6,0.2C62,11,61.9,11,61.8,11c-0.7-0.2-1.3-0.5-1.8-0.9c-0.7-0.5-1.2-1.2-1.4-2.1
		c4-2.7,8-5.3,11.9-8h11.3c2.1,1.1,3.8,2.4,4.8,4.5C86.9,4.9,87.1,5.4,87.3,6C87.2,6,87.2,6,87.3,6z"/>
	<path class="st11" d="M112,10.6v16.1c-0.4,0.1-0.8,0.1-1.2,0.2c-0.7-0.1-1.4-0.1-2.1-0.2c-6-1-7.5-4.6-7.3-9.2
		c0-0.9,0.1-1.9,0.2-2.9c3.4-2,6.8-4.1,10.2-6.1C111.9,9.2,112,9.9,112,10.6z"/>
	<path class="st12" d="M35.4,3.7c-1,2.2-4.3,3.9-5.5,6c-1.4,0.1-2.8,0.3-4.2,0.4c-1.4,0.1-2.8,0.1-4-0.1c0,0,0,0,0,0
		c-3.4-0.5-5.7-2.2-5.6-6.5c0-0.3-0.1-0.5-0.1-0.8c0-1.4,0.9-2.2,2-2.8h16.6C35.8,1.4,35.9,2.7,35.4,3.7z"/>
	<path class="st13" d="M111.9,147.2c-0.1,1.1-0.4,2.1-0.9,3.1v0c-1.8,3.7-6,6.4-11,6.5h-3.4c0.7-1.9,2.6-2.7,4.6-3.4
		c0.5-0.3,1-0.6,1.4-1c0.6-0.5,1.3-1,1.9-1.5c0.4-0.3,0.8-0.6,1.2-0.9C107.8,149.1,109.9,148.2,111.9,147.2z"/>
	<path class="st14" d="M20.6,0c-1,1.3-2.9,1.9-4,3c-0.2,0.2-0.3,0.3-0.5,0.6c-1.3,0.2-2.6,0.5-3.8,0.7c-1.6-0.3-3.2-0.2-4.9,0
		C5.7,4.5,4,4.6,2.3,4.5c0.8-1,1.9-1.9,3.1-2.6c0,0,0,0,0,0C7.4,0.7,9.7,0,12.3,0H20.6z"/>
	<path class="st15" d="M87.1,6.1L87.1,6.1c0.1-0.1,0.1-0.1,0.2-0.1L87.1,6.1z"/>
	<path class="st15" d="M92.9,0c0.1,0.4,0,0.7,0,1c-0.5,2.4-3.8,3.3-5.7,5c0,0-0.1,0-0.1,0.1c0,0,0,0,0,0c-0.7-0.1-1.3-0.2-1.8-0.5
		c-2.8-1.1-4.1-3.5-5.8-5.6H92.9z"/>
	<path class="st16" d="M0.1,9.6L0.1,9.6c0.1-1.3,0.5-2.5,1.1-3.6C1.6,6.7,1.8,7.4,2,8.1C2.2,9,2.3,9.9,2.3,10.8
		c-0.5,1.5-1.3,2.4-2.2,2.9v-3c0-0.2,0-0.3,0-0.5"/>
	<path class="st17" d="M40.1,0.2c-0.3,5.7-4.2,8.5-10.3,9.6c0.3-1,0.6-2,0.8-3c0.6-2.3,1.2-4.5,1.8-6.8h7L40.1,0.2z"/>
	<path class="st18" d="M112,133.2v8.6C107.7,139,107.6,136.1,112,133.2z"/>
	<path class="st19" d="M0.1,99.2V90C3.8,93.2,5.4,96.2,0.1,99.2z"/>
	<path class="st10" d="M102.9,0.4c-5.2,1.9-10.4,3.8-15.6,5.7c-0.1,0-0.1,0-0.2,0.1c0,0,0.1-0.1,0.1-0.1c0,0,0-0.1,0.1-0.1
		c0.7-1.1,1.4-2.1,2.1-3.2c0,0,0,0,0,0C90,1.8,90.5,0.9,91.1,0h8.7c0.4,0,0.8,0,1.2,0.1"/>
	<path class="st20" d="M29.9,156.9H17.6C21.7,152.9,25.8,151.3,29.9,156.9z"/>
	<path class="st21" d="M101.6,14.6c3.1,4.1,6.1,8.2,9.2,12.3c-1.8,3.8-4.6,6.7-9.5,7.6c1.2-6.7-3.7-9.9-9.4-12.6
		C93.7,18.2,96.4,15.1,101.6,14.6z"/>
	<path class="st22" d="M44.8,69.8c-4.4,0.7-9.6,2.9-11-3.3c-0.8-3.6,2.7-6.5,5.7-6.5c6,0,9.6,3.6,9.7,9.1
		C47.8,69.4,46.3,69.6,44.8,69.8z"/>
	<path class="st23" d="M23.6,86.1c-2.3-0.2-4.7-0.1-6.7-0.8c-3.9-1.4-6.5-4-4.3-7.9c1.7-3.1,4.7-4.5,8.5-2.6
		c3.6,1.8,6.9,3.7,2.4,7.6C22.8,83.1,23.4,84.9,23.6,86.1C23.5,86.2,23.6,86.1,23.6,86.1z"/>
	<path class="st24" d="M87.3,43c-2.3-0.1-4.7,0.2-6.8-0.5c-3-1-5.3-3.4-4.1-6.2c1.1-2.4,4.3-4.6,7.2-3.9c2.5,0.6,5.6,2.5,4.9,5.9
		c-0.3,1.6-0.9,3.2-1.3,4.8L87.3,43z"/>
	<path class="st25" d="M63.8,59.5c-3.1-0.1-4.5-2.3-6.5-3.9c-3.2-2.5-0.6-4.1,0.8-6c1.5-2,3.3-2.8,5.8-1.5c2.3,1.3,5.2,2.6,4,5.4
		c-0.9,2.2-2.8,4-4.3,6C63.6,59.5,63.8,59.5,63.8,59.5z"/>
	<path class="st26" d="M58.6,8c1,0.8,2,1.6,3,2.4c4.4,1.4,8.4,3,7.2,8.1c-1.8,4.2-6.7,5.5-10.3,8c-7.7,2.7-10.6-4.2-16-6
		c-0.1-0.8-0.1-1.5-0.2-2.3C46.3,13.1,52.8,11,58.6,8z"/>
	<path class="st27" d="M68.8,18.5c-2.4-2.7-4.8-5.4-7.2-8.1c6.9-9.3,13.9,1,20.8-0.1C79.7,15.4,75.6,18.7,68.8,18.5z"/>
	<path class="st28" d="M42.5,20.5c8.9-5.2,9.6,6.2,16,6c-1.9,5-8.5,4.4-11.8,7.7C45.4,29.7,35.7,27,42.5,20.5z"/>
	<path class="st29" d="M25.2,47.3c-3.6-2.6-13-4-4.6-9.7c6.7-4.6,8,2,9.9,5.9C28.7,44.7,27,46,25.2,47.3z"/>
	<path class="st30" d="M72.3,75.8c12.4-0.5,10.7,5.6,7.7,12.4C69.9,87.7,68.6,82.9,72.3,75.8z"/>
	<path class="st31" d="M16.8,126.8c-3.7-0.6-5-2.9-5.1-5.8c-0.1-3,1.7-5.5,5.2-5.6c4.1-0.1,5.4,3.7,5.8,6.1
		C23.1,124.2,19.5,125.6,16.8,126.8z"/>
	<path class="st32" d="M37.3,113.9c-2.2-2.6-5.1-4.5-5.5-6.7c-0.6-2.8,3-5.1,5.5-5.4c2.9-0.4,6.2,2.7,6.3,4.7
		C43.6,108.4,40.4,110.5,37.3,113.9z"/>
	<path class="st33" d="M112,101.1v11.6c-0.8,0-1.6,0-2.4,0h-1.3c-2.4-2.1-5.2-4-7-6.5c-2.9-4.1,1.4-6.2,4.4-7.9
		C109.7,96,110.5,99.1,112,101.1z"/>
	<path class="st34" d="M45.7,149.9c-9.8-1.6-10-6.5-5.7-12.9c6.4,0.7,7.7,7.6,13.9,8.6C53.3,150.3,49.4,150,45.7,149.9z"/>
	<path class="st35" d="M72.6,133.6c-0.1,2.5-1.5,3.5-4.3,3.2c-1-0.6-2.2-1-2.8-1.8c-1.9-2.6-7.6-3.4-5.3-8c0.9-1.8,2.2-4.2,5.1-3.4
		c4.5,1.2,5.4,4.4,4.9,8.2C70.1,132.4,71.7,133,72.6,133.6z"/>
	<path class="st36" d="M91.1,117.8c-1.7,2.4-3.5,4.9-7.1,4.3c-2.3-0.4-4-2.3-3.5-4.6c0.6-2.4,1.9-4.9,5.3-4.1
		C88.2,113.8,91.1,114.7,91.1,117.8z"/>
	<path class="st37" d="M95.9,62.2c4.2,0.8,6.9,2.7,7.2,6c0.3,3.4-3.2,4.7-6.2,5c-3.3,0.3-6.4-1.3-6.9-4.4
		C89.5,65.3,92.9,63.7,95.9,62.2z"/>
	<path class="st38" d="M105.7,150c-0.2,2.5-1.7,3.6-4.5,3.4c-0.3-1.5-1.1-2.3-3.1-2.1c-3.1,0.4-5.5-0.7-6-3.4
		c-0.5-2.2,1.4-4.1,3.4-4.9c3.2-1.3,4.5,1.9,6.5,3.2C103.5,147.2,104.5,148.8,105.7,150z"/>
	<path class="st16" d="M0.1,9.6L0.1,9.6c0.1-1.3,0.5-2.5,1.1-3.6C1.6,5.5,1.9,5,2.3,4.5c0.8-1,1.9-1.9,3.1-2.6c0,0,0,0,0,0
		c1.8,0,3.5,0.2,5,1c0.6,0.3,1.2,0.8,1.8,1.4C9,6.5,5.7,8.6,2.3,10.8c-0.9-0.2-1.6-0.3-2.2-0.6"/>
</g>
</svg>
