<?xml version="1.0" encoding="utf-8"?>
<!-- Generator: Adobe Illustrator 23.1.1, SVG Export Plug-In . SVG Version: 6.00 Build 0)  -->
<svg version="1.1" id="Livello_1" xmlns="http://www.w3.org/2000/svg" xmlns:xlink="http://www.w3.org/1999/xlink" x="0px" y="0px"
	 viewBox="0 0 80 80" style="enable-background:new 0 0 80 80;" xml:space="preserve">
<style type="text/css">
	.st0{fill:#41BEB9;}
	.st1{fill:#40BEB9;}
	.st2{fill:#ABDAF3;}
	.st3{fill:#934F95;}
	.st4{fill:#96D2EF;}
	.st5{fill:#7E5298;}
	.st6{fill:#6FBFBA;}
	.st7{fill:#8196C9;}
	.st8{fill:#526896;}
	.st9{fill:#DFB23E;}
	.st10{fill:#27B5AB;}
	.st11{fill:#24B5AA;}
	.st12{fill:#D8B141;}
	.st13{fill:#DCAD38;}
	.st14{fill:#9CB05F;}
	.st15{fill:#AAC480;}
	.st16{fill:#29A1A4;}
	.st17{fill:#BEE7F8;}
	.st18{fill:#905062;}
	.st19{fill:#C38D86;}
	.st20{fill:#C7988A;}
	.st21{fill:#C68697;}
	.st22{fill:#C583A2;}
</style>
<path class="st0" d="M34.7,55.1c-2.1-0.9-4.5-0.2-6.6-0.8c-2.6,1.1-4.8-0.2-7.2-0.8c-0.9-0.6-1.9-0.9-2.8-1.3
	c-2.3-0.7-4.5-1.8-6.8-2.5c-0.7-0.2-1.3-0.5-1.9-0.9C8.8,48.3,8,47.9,8.3,47c0.2-0.8,1.1-0.7,1.8-0.8c0.5-0.1,1,0,1.6,0
	c18.1,0,36.3,0,54.4,0c0.8,0,1.6,0,2.3,0.2c1.4,0.5,0.8,1.2,0.1,1.9c-1.3,1.1-2.9,1.5-4.4,2.1c-1.1,0.5-2.3,0.7-3,1.8
	c-0.1,0.4-0.3,0.7-0.6,1c-0.2,0.2-0.4,0.3-0.7,0.4c-1.8,0.6-3.8-0.4-5.6,0.8c-0.4,0.3-0.9,0.4-1.5,0.4c-2.5-0.3-5.1-0.3-7.5,0.4
	c-0.5,0.4-1.1,0.4-1.7,0.3c-2.4-0.8-4.8-0.8-7.1,0C35.8,55.6,35.2,55.6,34.7,55.1z"/>
<path class="st1" d="M56.2,34.3c2.7,0.4,5.4,0.8,7.9,2.1c-0.7,0.8-1,2.2-2.3,2.1c2.4-0.9,4.8-0.2,6.9,1.3c0.9,0.6,2.1,1.5,0.1,2.4
	c-3.7,0.3-7.5,0.1-11.2,0.1c-15.4,0-30.9,0-46.3,0c-0.8,0-1.6,0-2.3,0c-0.9-0.1-2.1,0.1-2.4-1c-0.3-1.1,1.2-1,1.6-1.7
	c4-2.1,8.2-3.5,12.5-4.8c0.9-0.3,1.8-0.2,2.7-0.1c0.9,0.8,1.9,1,3.1,1c8.8,0,17.6,0,26.4,0c0.8,0,1.8,0.2,2.3-0.8
	C55.4,34.5,55.7,34.2,56.2,34.3z"/>
<path class="st2" d="M23.2,34.2c1.2-0.7,1.4-1.9,1.6-3.1c0.9-5.2,4-8.4,8.7-10.5c3.6-1.6,7.2-2.1,11-1c0.8,0.2,1.7,0.4,2.3,1.1
	c-0.8,1.1,0.1,2,0.6,2.8C50.1,29,48.8,32.2,43,34c-2.2,0.7-4.3,1.2-6.6,0.6c-1.1-0.3-2.2-0.1-3.3,0.2c-0.9,0.2-1.9,0.4-2.8,0
	c-2-0.9-4-1.6-6.1-0.2C23.8,34.8,23.5,34.5,23.2,34.2z"/>
<path class="st3" d="M4,46.5c-0.2-0.1-0.5-0.2-0.7-0.2c-1.5-0.1-2.8-0.4-2.7-2.2c0.1-1.9,1.6-1.9,3-2c0.3-0.1,0.7-0.1,1-0.1
	c15.4,0.5,30.8,0.1,46.2,0.2c2.3,0,4.7-0.1,7,0.1c0.8,1.6,3,1.3,4,2.7c0.1,0.5,0,0.9-0.5,1.2c-5.5,0.5-11.1,0.1-16.6,0.2
	c-1,0-1.9,0-2.9,0c-0.4,0.1-0.8,0.2-1.3,0.2c-0.7-0.3-1.6-0.1-2.3-0.5c-0.5-0.4-0.3-1-0.4-1.5c-1.2,0.2-1.3,1.6-2.4,1.7
	c-2.4,0.1-4.7,0.1-7.1,0c-0.8-0.9-1.6-0.5-2.4,0c-5.4,0.1-10.7,0-16.1,0c-0.3,0-0.5,0-0.8,0c-1.1-0.4-2.3-1.4-3.5-0.1
	C4.9,46.4,4.5,46.6,4,46.5z"/>
<path class="st4" d="M23.2,34.2c2.5-2.1,5.1,0,7.5-0.2c4.4-0.3,8.9,1,13.2-0.9c4.8-2.2,5.7-5.4,1.9-10.7c-1.7-2.3-0.1-1.6,1-1.7
	c5.8,2.7,8.3,7.6,9.3,13.6c-0.2,0.2-0.3,0.4-0.5,0.6c-0.4,1.3-1.5,1-2.3,1c-9.1,0-18.2,0-27.2,0c-1.1,0-2.1-0.2-2.8-1
	c-0.9,0-1.7,0-2.6-0.1C21.4,34.1,22.4,34.4,23.2,34.2z"/>
<path class="st5" d="M61.3,45.8c0-0.4,0-0.7,0-1.1c-0.5-0.8-0.6-1.5,0-2.3c4.7-0.4,9.4-0.7,14.1-0.3c0.5,0,1,0.3,1.5,0
	c1.4-0.2,2.5,0.3,2.6,1.8c0.1,1.4-0.8,2.1-2.2,2.3c-0.7,0.1-1.3,0.4-1.9,0.6c-1.6-0.2-3.3,0.2-4.9,0c-0.4-0.1-0.8-0.2-1.2-0.4
	c-1.8-0.4-3.5-0.1-5.3-0.2C63.1,46.2,62.1,46.5,61.3,45.8z"/>
<path class="st6" d="M69.6,46.3c0.4,0,0.8,0.1,1.1,0.1c0.1,0.3,0,0.5-0.2,0.6c-0.5,0.2-1,0.2-1.4-0.3c-20.2,0-40.3,0-60.5,0
	c2.3,2.3,5.4,3,8.1,4.1c0.7,0.3,1.6-0.1,1.8,1c-0.7,0.7-1.4,0.6-2.1,0.1c-4.4-1.3-8.7-2.8-12.5-5.6c0.4-0.2,0.7-0.5,1.1-0.7
	c1.1-0.7,2.1-0.4,3.2,0c0.2,0.1,0.4,0.1,0.6,0.2c9.3,0,18.5,0.3,27.8-0.2c1.1-0.1,2.2,0.1,3.3,0.5c0.4,0,0.9,0,1.3,0
	c0.6-0.5,1.3-0.3,2-0.3c8.1,0,16.3,0,24.4,0C68.2,46.1,69,45.9,69.6,46.3z"/>
<path class="st7" d="M4.2,42.2c-0.2-0.1-0.5-0.1-0.7-0.2c1.4-1.2,3-2,4.7-2.5c0.3,1-1.2,0.8-1.3,2c21,0,41.9,0,62.8,0
	c1.8-1.2,3.6-1,5.3,0.1c-0.3,1-1.1,0.7-1.7,0.7c-22.8,0-45.6,0-68.4,0C4.6,42.4,4.4,42.3,4.2,42.2z"/>
<path class="st8" d="M4.2,42.2c22.6,0,45.2-0.1,67.9-0.1c1,0,2.1,0.4,3-0.5c0.1-0.2,0.2-0.2,0.4-0.1c0.5,0.2,1,0.4,1.6,0.7
	c-2,1-4,0.4-6.1,0.4c-3.2,0.1-6.4,0.1-9.6,0.1c-1,0.8-2.1,0.8-3.1,0c-17,0-34,0-51.1-0.1C6.2,42.6,5.1,43,4.2,42.2z"/>
<path class="st9" d="M34.7,55.1c3.5-1.2,7-1.3,10.5,0C43,59.4,36.3,58.8,34.7,55.1z"/>
<path class="st10" d="M75.4,41.5c-0.1,0-0.3,0.1-0.4,0.1c-1.8,0-3.5,0-5.3,0c-1.9-2.3-4.3-3.1-7.2-2.7c-1.1,0.2-2.3,0.3-3.5-0.5
	c1.9-0.2,3.6-0.8,5-2.1c3.5,1.2,7,2.3,10.2,4.2C74.7,40.8,75.1,41,75.4,41.5z"/>
<path class="st11" d="M69.2,46.8c0.5,0,1,0,1.5,0c0.9-0.3,1.8-0.5,2.5,0.4c0.4,0.5,0.1,0.9-0.4,1.2c-3,1.6-6.2,2.8-9.5,3.7
	c-1,0.6-2,0.8-3,0c0.3-1.5,1.5-1.8,2.7-2.2C65.2,49.2,67.5,48.6,69.2,46.8z"/>
<path class="st12" d="M20.7,53c2.5,0,4.8,1.4,7.4,1.3c-3.5,3.6-7.5,3.5-10.6-0.3C18,52.4,18.3,52.3,20.7,53z"/>
<path class="st13" d="M52.8,54.8c0.3-0.5,0.7-0.6,1.3-0.6c1.1-0.9,2.3-0.4,3.5-0.5c0.9-0.1,1.9,0.2,2.7-0.5l0,0
	c1.5-0.6,1.4,0.7,1.7,1.5C59.3,57.6,55.4,57.6,52.8,54.8z"/>
<path class="st0" d="M72.8,48.4c0.6-2.2-1.3-1.2-2.1-1.6c0-0.1,0-0.2,0-0.3c1.5,0.3,3.2-1.3,4.6,0.4C74.7,47.7,73.9,48.2,72.8,48.4z
	"/>
<path class="st14" d="M62,54.6c-0.8-0.2-0.6-1.6-1.7-1.5c0-0.3,0-0.6,0-0.9c1,0,2,0,3,0C63,53,62.7,53.9,62,54.6z"/>
<path class="st15" d="M20.7,53c-1,0.5-2.6-0.8-3.2,1c-0.8-0.4-0.9-1.2-1-2c0.7,0,1.4,0,2.1-0.1C19.4,52.2,20.5,51.7,20.7,53z"/>
<path class="st14" d="M60.3,53.1c-0.5,1.7-1.9,0.8-3,1c-1.1,0.2-2.2,0.1-3.3,0.1c0.3-1.6,1.6-0.9,2.4-1C57.8,53,59,53.1,60.3,53.1z"
	/>
<path class="st16" d="M23.3,34.9c1.8,0.5,3.5,0.5,5.3,0.5c8,0,16,0,24.1,0c1,0,2.1,0.3,3-0.5c0.5,0.1,1.1,0.3,0.4,0.9
	c-0.8,0.7-1.8,0.6-2.7,0.6c-9.1,0-18.2,0-27.3,0C24.9,36.4,23.5,36.6,23.3,34.9z"/>
<path class="st17" d="M36.3,23.5c0,1.8-5.1,5.9-6.9,5.5c-1.4-0.4-1.8-1.5-1.2-2.6c1.2-2.2,3-3.7,5.4-4.5
	C34.9,21.5,35.9,22.2,36.3,23.5z"/>
<path class="st0" d="M39.9,46.3c-9.4,0-18.8,0-28.3-0.1c-0.9,0-1.9,0.2-2.8-0.3c5.9-0.1,11.7-0.1,17.6-0.2c0.4-0.3,0.7-0.4,1.1,0
	c2.8,0,5.5,0,8.3,0c0.7-0.6,1.4-0.6,2.1,0C38.6,46,39.4,45.6,39.9,46.3z"/>
<path class="st0" d="M69.6,46.3c-9.5,0-18.9,0-28.4,0c0.7-0.8,1.6-0.4,2.4-0.4c5.9,0,11.9-0.1,17.8-0.1
	C64.1,46.2,66.9,45.3,69.6,46.3z"/>
<path class="st18" d="M58.2,42.7c1,0,2.1,0,3.1,0c0,0.7,0,1.4,0,2.1C60.5,43.7,57.8,45.5,58.2,42.7z"/>
<path class="st5" d="M37.9,45.8c-0.7,0-1.4,0-2.1,0c0.1-1,0-2.2,1.7-1.9C39.3,44.2,37.4,45.3,37.9,45.8z"/>
<path class="st5" d="M8.2,45.8c-1.1,0.9-2.1-0.1-3.2,0C6.1,44.5,7.2,44,8.2,45.8z"/>
<path class="st19" d="M30.3,44.8c-0.7,0-1.1-0.2-1-0.7c0.1-0.6,0.5-0.8,1.1-0.8c0.3,0,0.6,0.2,0.7,0.6
	C31.1,44.6,30.7,44.8,30.3,44.8z"/>
<path class="st20" d="M11.5,43.9c0,0.5-0.3,0.8-0.8,0.8c-0.5,0-0.8-0.2-0.9-0.7c0-0.5,0.2-0.8,0.7-0.8
	C11.1,43.2,11.4,43.5,11.5,43.9z"/>
<path class="st21" d="M40.8,44c0.1,0.6-0.3,0.8-0.8,0.8c-0.3,0-0.7-0.2-0.8-0.4c-0.2-0.5,0.2-0.8,0.6-1C40.3,43.2,40.7,43.5,40.8,44
	z"/>
<path class="st5" d="M27.5,45.8c-0.4,0-0.7,0-1.1,0c0.3-0.7-1-1.7,0.2-1.9C27.9,43.7,27.3,45.1,27.5,45.8z"/>
<path class="st22" d="M70.1,43.7c0.1,0.7-0.2,1-0.6,1.1c-0.4,0.1-0.9,0-1-0.5c-0.1-0.6,0.2-0.9,0.8-1C69.7,43.2,69.9,43.5,70.1,43.7
	z"/>
</svg>
