<?xml version="1.0" encoding="utf-8"?>
<!-- Generator: Adobe Illustrator 23.1.1, SVG Export Plug-In . SVG Version: 6.00 Build 0)  -->
<svg version="1.1" id="Livello_1" xmlns="http://www.w3.org/2000/svg" xmlns:xlink="http://www.w3.org/1999/xlink" x="0px" y="0px"
	 viewBox="0 0 80 80" style="enable-background:new 0 0 80 80;" xml:space="preserve">
<style type="text/css">
	.st0{fill:#8D2B2A;}
	.st1{fill:#8F2A2A;}
	.st2{fill:#952B2A;}
	.st3{fill:#A72A2A;}
	.st4{fill:#9F2A2B;}
	.st5{fill:#8E2B2A;}
	.st6{fill:#8C2B2A;}
	.st7{fill:#A42A2B;}
	.st8{fill:#501615;}
	.st9{fill:#2B0102;}
	.st10{fill:#2A0202;}
	.st11{fill:#2B0202;}
	.st12{fill:#8F2B2A;}
	.st13{fill:#9A2A2A;}
	.st14{fill:#501716;}
	.st15{fill:#2A0102;}
	.st16{fill:#521616;}
	.st17{fill:#501817;}
	.st18{fill:#511716;}
	.st19{fill:#501717;}
	.st20{fill:#511615;}
	.st21{fill:#511718;}
	.st22{fill:#2C0304;}
	.st23{fill:#511717;}
	.st24{fill:#912B2B;}
	.st25{fill:#511A1B;}
	.st26{fill:#2C0303;}
	.st27{fill:#2C0403;}
	.st28{fill:#DE4029;}
	.st29{fill:#2C0202;}
	.st30{fill:#E85E2B;}
	.st31{fill:#DD402A;}
	.st32{fill:#E5532B;}
	.st33{fill:#F8B250;}
	.st34{fill:#C71517;}
	.st35{fill:#A82A2A;}
	.st36{fill:#DF402A;}
	.st37{fill:#BC2A2A;}
	.st38{fill:#B22A2B;}
	.st39{fill:#EE9F5A;}
	.st40{fill:#E0402A;}
	.st41{fill:#2C0203;}
	.st42{fill:#F0A961;}
	.st43{fill:#B22A2A;}
	.st44{fill:#C82A2A;}
	.st45{fill:#9E2A29;}
	.st46{fill:#A42A29;}
	.st47{fill:#C71415;}
	.st48{fill:#C61515;}
	.st49{fill:#C51517;}
	.st50{fill:#E25E42;}
	.st51{fill:#D01717;}
	.st52{fill:#C42A2A;}
	.st53{fill:#C81414;}
	.st54{fill:#C22A2A;}
	.st55{fill:#E03E2A;}
	.st56{fill:#F08219;}
	.st57{fill:#B12A2A;}
	.st58{fill:#ED6C2B;}
	.st59{fill:#932A29;}
	.st60{fill:#E2482B;}
	.st61{fill:#A12A29;}
	.st62{fill:#922A29;}
	.st63{fill:#FDD354;}
	.st64{fill:#EF8615;}
	.st65{fill:#A46806;}
	.st66{fill:#E4502B;}
	.st67{fill:#F08715;}
	.st68{fill:#F5812A;}
	.st69{fill:#EF8516;}
	.st70{fill:#DF4428;}
	.st71{fill:#C12B2A;}
	.st72{fill:#CC2A2A;}
	.st73{fill:#D72A2A;}
	.st74{fill:#E7592A;}
	.st75{fill:#E34C2B;}
	.st76{fill:#D92A2A;}
	.st77{fill:#DF3E2A;}
	.st78{fill:#2B0203;}
	.st79{fill:#E32A29;}
	.st80{fill:#B52A2A;}
	.st81{fill:#EA632C;}
	.st82{fill:#E9995E;}
	.st83{fill:#E6532A;}
	.st84{fill:#EFAB61;}
	.st85{fill:#C12A2C;}
	.st86{fill:#E5532A;}
	.st87{fill:#DF4129;}
	.st88{fill:#F88C2B;}
	.st89{fill:#B72A29;}
	.st90{fill:#E65B2B;}
	.st91{fill:#E89756;}
	.st92{fill:#AA2A29;}
	.st93{fill:#FDE6B0;}
	.st94{fill:#EF8614;}
	.st95{fill:#E2472A;}
	.st96{fill:#DF3F2A;}
	.st97{fill:#F37802;}
	.st98{fill:#E95D2A;}
	.st99{fill:#F48F05;}
	.st100{fill:#EC6A2A;}
	.st101{fill:#F37A02;}
	.st102{fill:#E0422A;}
	.st103{fill:#E75829;}
	.st104{fill:#F5AD0B;}
	.st105{fill:#E8592A;}
	.st106{fill:#F38F06;}
	.st107{fill:#F38D05;}
	.st108{fill:#F49406;}
	.st109{fill:#F38805;}
	.st110{fill:#F49A07;}
	.st111{fill:#F08614;}
	.st112{fill:#EC662A;}
	.st113{fill:#F37B03;}
	.st114{fill:#F48F06;}
	.st115{fill:#F49507;}
	.st116{fill:#EC6728;}
	.st117{fill:#F5AA0B;}
	.st118{fill:#F6C510;}
	.st119{fill:#F07429;}
	.st120{fill:#F38406;}
	.st121{fill:#F49908;}
	.st122{fill:#F9B129;}
	.st123{fill:#F17628;}
	.st124{fill:#F02B2B;}
	.st125{fill:#F7C40F;}
	.st126{fill:#F5B00D;}
	.st127{fill:#FAB329;}
	.st128{fill:#F9A928;}
	.st129{fill:#F5A60B;}
	.st130{fill:#F5AC0D;}
	.st131{fill:#F8C712;}
	.st132{fill:#F9A92A;}
	.st133{fill:#F4970C;}
	.st134{fill:#F18817;}
	.st135{fill:#FAE08F;}
	.st136{fill:#FBDF82;}
	.st137{fill:#FBAF28;}
	.st138{fill:#F9AF28;}
	.st139{fill:#F0821C;}
	.st140{fill:#FBDF8C;}
	.st141{fill:#F07E1D;}
	.st142{fill:#FCE08F;}
	.st143{fill:#F88B2A;}
	.st144{fill:#E4512A;}
	.st145{fill:#F1772A;}
</style>
<path class="st0" d="M68.5,60.7c-0.5,1.2-1.4,2.2-2,3.3c-0.7,1.4-2,2.3-3.2,3.3c-0.6,0.5-1.2,1.1-2,1.3c-2.1,1.1-4.3,2-6.6,2.5
	c-3,0.5-6,0.5-8.9-0.3c-0.3-0.1-0.5-0.2-0.8-0.1c-0.2-0.2-0.1-0.4-0.1-0.5c0.1-0.5-0.3-0.7-0.6-0.9c-0.3-0.2-0.6,0-0.8,0.2
	c-0.2,0.2-0.3,0.4-0.6,0.4c-1-0.6-2-1.2-3.1-1.8c-0.2-0.1-0.4,0-0.5,0.1c-0.4,0.3-0.9,0.5-1.3,0.8c-0.6-0.3-0.3-0.8-0.4-1.2
	c0,0.4,0,0.9,0,1.3c0,0.3,0.1,0.7-0.3,0.9c0-0.3,0-0.7-0.5-0.4c-0.3,0.2-0.6,0.3-0.9,0.4c-0.1-0.1-0.1-0.1-0.1-0.2
	c0-1.8,0-3.6,0.4-5.3c0.5-0.1,0.4,0.4,0.4,0.6c0,0.6,0.3,0.7,0.9,0.6c1.6-0.3,2.7-1.3,3.2-2.9c0.1-0.3,0.2-0.6,0.4-0.7
	c0.4-0.2,0.8,0.1,1.2,0.3c1.3,0.5,2.7,0.7,4.1,0.9c0.5,0.7,0.6,1.6,0.8,2.4c0.3,0.9,0.8,1.6,1.6,2.1c0.2,0.1,0.4,0.4,0.7,0.2
	c0.3-0.2,0.3-0.5,0.2-0.8c-0.3-1-0.4-2.1-1-3c-0.2-0.3-0.4-0.6-0.2-1c0.7-0.3,1.4-0.4,2.2-0.6c1.5-0.5,2.8-1.3,4-2.3
	c0.3-0.2,0.5-0.5,0.9-0.6c0.7,0.2,0.9,0.9,1.4,1.3c0.7,0.1,1.4,0.2,2.1-0.1c1.1-0.4,1.7-1.4,1.8-2.9c0-0.6,0.4-0.8,0.9-0.9
	c0.4-0.1,0.8-0.2,0.4-0.7c-0.2-0.3,0.1-0.4,0.4-0.3c0.3,0.1,0.5,0.2,0.7,0.5c0.2,0.4,0.5,0.6,0.8,0.8c1.3,0.9,2.6,1.9,3.9,2.8
	C68.3,60.3,68.6,60.4,68.5,60.7z"/>
<path class="st1" d="M6.6,43.2c-1.5-1-2.5-2.4-3.1-4.1c-1.9-5.3,1.6-11,7.2-11.9c0.6-0.1,0.7-0.3,0.7-0.8c0.1-0.7,0-1.5,0.3-2.2
	c0.8-0.3,1.8,0,2.1,0.7c-0.4,0.4-0.5,0.8-0.5,1.3c0,0.6,0.1,1.3-0.1,1.9c-0.2,0.3-0.6,0.4-0.9,0.5c-3.3,1.3-5.3,3.7-6,7.1
	C6,37,5.9,38.3,6.4,39.5c0,0.1,0,0,0,0.1c-0.2,1.4,0.3,2.3,1.5,3.1c0.4,0.3,0,0.6-0.3,0.6C7.3,43.3,6.9,43.3,6.6,43.2z"/>
<path class="st2" d="M32.6,10.8c0.5-0.6,0.9-1.3,1.5-1.9c3.5-3.1,8.8-2,10.7,2.4c-0.2,0.4,0.1,0.7,0.3,0.9c0.4,0.4,0.5,0.8,0.5,1.4
	c-0.1,1.1,0.2,1.4,1.3,1.5c0.9,0.2,1.7,0.1,2.5,0.6c0.2,0.1,0.3,0.1,0.5,0c0.1,0,0.3-0.1,0.4-0.1c1,0.7,2.3,0.7,3.2,1.7
	c0.1,0.1,0.1,0.2,0.2,0.3c0.3,0.3,0.7,0.6,1.1,0.6c0.6,0.1,0.4-0.6,0.6-0.9c0.2-0.3,0.4-0.7,0.9-0.5c-0.2,0.9-0.3,1.9-0.9,2.7
	c-0.2,0-0.4,0-0.5-0.1c-1.1-0.7-2.4-0.8-3.7-1.1c-0.5-0.3-0.9-0.2-1.4-0.1c-0.5,0.1-1,0.2-1.4-0.3c0,0-0.1-0.1-0.1-0.1
	c-1,0.1-2-0.5-3-0.3c-0.7,0.1-0.7-0.1-0.6-0.6c0.1-1,0.1-1.9-0.1-2.8c-0.2-0.8-0.6-1.3-1.1-1.9c-0.6-0.7-1.5-1-2.2-1.6
	c-0.4-0.4-1-0.2-1.5-0.4c-0.1,0-0.1-0.1-0.1-0.1c-0.1,0,0,0,0,0.1c0,0.2,0,0.3-0.1,0.5c-1.2-0.5-2.4-0.2-3.6,0.2
	c-0.8,0.3-1.5,0.6-2.1,1.4c-0.2,0.2-0.4,0.4-0.7,0.5C32.6,12.3,32.5,11.6,32.6,10.8z"/>
<path class="st0" d="M56.3,16.9c-0.5,0.3-0.7,0.6-0.7,1.2c-0.1,0.5-0.3,1-1,0.4c-0.5-0.4-1-0.8-1.5-1.2c-0.8-0.6-1.9-1.2-2.8-1.3
	c-1.5-0.2-2.9-0.6-4.3-0.7c-0.7-0.1-0.7-1-0.7-1.6c0.1-0.6-0.1-1-0.5-1.3c-0.3-0.2-0.7-0.6-0.1-1c0.1,0.3,0.2,0.6,0.7,0.5
	c2.1-0.3,4.1-0.3,6.2,0.2c0.2,0.6-0.1,1.2-0.2,1.7c0.3-0.5,0.1-1.2,0.8-1.6c2,0.8,3.8,1.7,5.3,3.3c0,0.3-0.2,0.5-0.3,0.8
	C56.8,16.5,56.7,16.9,56.3,16.9z"/>
<path class="st3" d="M10.3,46.3c0-0.4,0.2-0.7-0.1-1.1c0.4-0.6,1.1-0.6,1.7-0.7c1.4-0.4,2.8-1.1,4.3-1.2c1.2,0.9,2,2.2,3.1,3.1
	c0.3,0.2,0.3,0.6,0.2,1c-0.1,0.9-0.4,1.8-0.1,2.7c0.1,0.5,0.1,1,0,1.5c-0.5,0.8-1.2,1.2-2.1,1.4c-1.4-0.3-1.7-1.7-2.6-2.5
	c-1-1-1.2-2.3-1.8-3.5c-0.3-0.5,0.4-0.9,0.4-1.3c0-0.1,0.1-0.1,0.2-0.2c0-0.1-0.1,0-0.1,0C12.4,45.9,11.4,46.2,10.3,46.3z"/>
<path class="st4" d="M6.6,43.2C6.8,43.1,7,42.7,7.4,43c0.2,0.2,0.4,0.1,0.6-0.2c-0.7-0.4-1.3-0.8-1.6-1.7c-0.1-0.4-0.3-0.7-0.1-1
	c0.1-0.1,0.1-0.3,0.1-0.5c-1-3.1-0.1-5.7,1.8-8.2c1.3-1.7,3-2.7,5-3.3c0.5,0.1,0.5,0.5,0.5,0.9c-0.2,0.7-0.7,1.1-1.3,1.5
	c-2.5,1.5-4.2,3.6-4.3,6.7C7.8,39,8.2,40.5,9,41.9c0.3,0.6,1,1.1,1.6,1.5c0.2,0.1,0.4,0.1,0.5,0.4c-0.1,0.2-0.2,0.3-0.4,0.3
	c-0.9,0.1-1.8,0.6-2.8,0.3c0.1-0.1,0.4-0.2,0-0.4C7.4,43.9,6.9,43.6,6.6,43.2z"/>
<path class="st5" d="M13.4,45.7C13.4,45.7,13.4,45.8,13.4,45.7c-0.6,1-0.1,1.8,0.3,2.6c0.3,0.9,0.8,1.7,1.4,2.5
	c0.4,0.5,1,0.8,1.1,1.5c0.1,0.5,0.8,0.2,1,0.7c-0.2,0.5-0.6,0.6-1,0.8c-0.2,0.1-0.3,0.1-0.5,0.2c0.1,0.1,0.2,0,0.3,0.1
	c0.5,0.1,1.1,0.1,1.2,0.7c0.1,0.6-0.6,0.4-1,0.6c-0.1,0-0.1,0.1-0.2,0.2c-0.3,0.2-0.5,0.4-0.9,0.4c-0.2,0-0.4,0-0.6,0
	c-2.3-2.2-3.8-4.9-4.2-8.1c0-0.2-0.1-0.3-0.3-0.3c0.4-0.7,1.2-0.7,1.7-1.1C12.3,46,12.8,45.6,13.4,45.7z"/>
<path class="st6" d="M65.4,19c-0.1,0.7,0.4,0.7,0.9,0.9c4.4,1.6,7.1,4.7,8.1,9.3c0.3,1.4,0.3,2.8,0,4.2c-0.6,0.6-1.3,0.8-2.1,0.7
	c-0.1-0.1-0.1-0.2-0.1-0.2c0.7-3.1,0.3-6.1-1.7-8.6c-1.3-1.6-2.9-2.8-4.9-3.4c-0.3-0.1-0.5-0.2-0.6-0.4c0.2-0.6,0.1-1.3,0.1-1.9
	C65.1,19.4,65.1,19.1,65.4,19z"/>
<path class="st6" d="M70.5,51.8c0.1,2.6-0.4,5.1-1.4,7.5c-0.3,0.2-0.5,0.1-0.8,0c-1.4-0.7-2.8-1.4-4.2-2c-0.2-0.1-0.4-0.2-0.5-0.5
	c0-0.3,0.1-0.4,0.3-0.6c0.9-0.6,1.5-1.4,2.2-2.2c0.4-0.2,0.8-0.3,1.2-0.5c0.4-0.1,0.6-0.4,0.7-0.8c0-0.4-0.1-0.8-0.5-1
	c-0.3-0.1-0.5-0.2-0.5-0.6c0.2-0.3,0.4-0.5,0.6-0.8c0.5-0.4,1.1-0.3,1.7-0.1c0.1,0,0.2,0.1,0.3,0.1c0.4,0,0.9-0.1,0.9,0.6
	c0.1,0.7-0.4,0.7-0.9,0.7C69.8,52.1,70.2,51.7,70.5,51.8z"/>
<path class="st0" d="M22.3,67.6c-0.1-0.6-0.7-0.9-1.1-1.2c0-0.8,0.7-2.2,1.3-2.4c0.9,2.1,2.7,3.1,4.7,3.9c1.1,0.4,2.2,0.3,3.2,0.4
	c0.1,0,0.2,0,0.3,0c1.1,0.1,2.2-0.2,3.3-0.6c0.4-0.2,0.9-0.3,1.3,0.1c0.2,0.9,0,1.8-0.5,2.6c-1.9,0.3-3.8,0.5-5.7,0.2
	c-1.3-0.2-2.5-0.6-3.7-1.2c-0.2-0.1-0.4-0.3-0.6-0.2C23.8,68.9,23.1,68.2,22.3,67.6z"/>
<path class="st3" d="M14.6,55.8c0.1-0.2,0.3-0.2,0.5-0.2c0.3,0.7-0.3,1.3-0.5,1.9c-0.1,0.4-0.2,0.7,0,1.1c0.1,0.2,0.1,0.4,0.2,0.7
	c0.5,2.3,2.7,3.7,5,3.1c0.4-0.1,0.8-0.1,1.2,0c0.5,0.1,0.6,0.7,1,0.9c0,0.7-0.9,1.9-1.6,2.1c-0.1-0.1-0.1-0.1-0.2-0.2
	c-0.3-0.7-0.7-0.8-1.5-0.5c-2.2,0.7-4.5-0.3-5.6-2.3c-1.1-2-0.8-4.4,0.8-6C14.3,56.2,14.4,56,14.6,55.8z"/>
<path class="st7" d="M69.3,50.4c-0.6-0.2-1.2-0.2-1.7,0c-0.4-0.6-0.3-1.2-0.2-1.8c0.7-0.7,1.6-0.8,2.4-1.4c2.1-1.6,2.6-3.8,1.8-6.2
	c-0.2-0.6-0.8-0.8-1.4-1c-0.4-0.1-1-0.1-0.6-0.9c0.1,0,0.2,0,0.3,0c1.6,0.2,3.2,0.2,4.8,0.4c0.5,0.4,0.8,0.9,1,1.5
	c-1,0.1-1.5,0.7-1.5,1.6c0.5,1.5-0.3,4.1-1.6,5.1c-0.2,0.2-0.4,0.4-0.6,0.6C71.4,49.5,70.4,50,69.3,50.4z"/>
<path class="st6" d="M22.9,10.7c0.2,0.2,0.3,0.4,0.6,0.3c0.8,0,1.2,0.5,1.6,1.1c0,0.4-0.3,0.5-0.7,0.5c-1.9,0.2-3.5,1.1-5.1,2.1
	c-1.9,1.2-3.2,2.8-4.3,4.7c-0.7,1.3-1,2.7-1.4,4.1c0,0.1-0.1,0.3-0.1,0.4c-0.8,0.1-1.2-0.3-1.7-0.8c0.8-3.4,2.6-6.2,5.1-8.5
	c0.8-1.1,2-1.7,3-2.4C20.9,11.5,22,11.4,22.9,10.7z"/>
<path class="st8" d="M7.8,44.4c1-0.3,2.1-0.2,3.1-0.7c0.6-0.4,1.4-0.2,2.1-0.5c1.3-0.2,2.5-0.4,3.8-0.6c0.4-0.1,0.7-0.1,1.1-0.2
	c0.2,0,0.4-0.1,0.5,0c0.1,0,0.2,0.1,0.2,0.1c0,0.1,0,0.2,0,0.3c-0.7,0.4-1.5,0.7-2.4,0.7c-1.7,0.5-3.4,1-5.1,1.6
	c-0.3,0.1-0.6,0.2-1,0.3c-3,0.9-5.9,1.8-9.1,2.8c0.4-0.9,0.7-1.7,1.1-2.4c0.1-0.2,0.2-0.2,0.4-0.3C4.3,45,6.1,44.7,7.8,44.4z"/>
<path class="st9" d="M10,26.4c-0.9,0.5-1.7,1-2.5,1.4c-1,0.4-2.2,0.1-3.1-0.3c-0.6-0.3-0.7-1.3-1-2c0-0.1,0-0.2,0.1-0.2
	C4,24,5.9,23.1,7.2,23.5c0.2,0,0.3,0.2,0.4,0.3C8.4,24.6,9.1,25.5,10,26.4z"/>
<path class="st10" d="M22.9,10.7c0,0.3-0.2,0.5-0.5,0.6c-2.1,0.6-3.8,1.9-5.5,3.2c-1.1-1.2-0.8-2.6-0.5-4c0-0.2,0.2-0.3,0.4-0.4
	c1.3-0.8,2.5-1.4,4-0.4C21.4,10.1,22.2,10.3,22.9,10.7z"/>
<path class="st11" d="M61.3,68.5c1.9-1.3,3.6-2.8,5.2-4.5c1.1,0.7,1.1,2,1.4,3c0.1,0.3-0.5,0.7-0.7,1.1c-0.5,1.1-1.4,1.5-2.5,1.3
	c-0.5-0.1-1.1,0-1.6,0.1C62.2,69.6,61.6,69.4,61.3,68.5z"/>
<path class="st12" d="M69.3,50.4c0.9-0.8,1.9-1.5,2.8-2.3c1-1,1.4-2.1,1.9-3.2c0.3-0.6,0.3-1.4-0.1-2.1c0.8,0.4,1.6,0.1,2.4,0.4
	c0.2,3.6-1.7,6.4-5.2,7.3c-1,0.3-0.3,1-0.6,1.4c-0.2,0.3-0.4,0.4-0.8,0.3c-0.2-0.1-0.5-0.3-0.4-0.6c0.1-0.3,0.3-0.5,0.7-0.3
	c0.1,0.1,0.2,0.1,0.3,0.1C70.8,50.1,69.8,50.5,69.3,50.4z"/>
<path class="st13" d="M65.4,19c-0.1,0.6-0.3,1.1,0.1,1.7c0.4,0.5-0.7,0.2-0.5,0.7c-0.1,0.1-0.2,0.1-0.4,0.1c-0.3-0.3-0.4-0.6-0.5-1
	c-0.5-1.6-1.3-2.9-2.6-3.9c-0.5-0.4-1.2-0.3-1.6-0.8c0,0-0.1-0.1-0.2,0c-0.7,0.5-1.6,0.1-2.3,0.5c-0.2,0-0.3,0-0.5-0.1
	c0-0.3,0.1-0.6,0.4-0.7c1.3-0.9,2.8-1.3,4.4-0.9C63.8,15.1,65.2,16.8,65.4,19z"/>
<path class="st14" d="M34.8,70.5c0-0.9,0.5-1.7,0.4-2.6c0-0.2,0-0.4,0-0.6c0.1-0.5,0.1-0.9,0.2-1.4c0-0.6,0.3-1.2,0.4-1.9
	c0.2-0.7,0.1-1.5,0.6-2.2c0.6,0.3,0.3,0.8,0.3,1.2c-0.2,0.5,0.1,1.1-0.4,1.6c-0.4,0.9-0.1,1.8-0.3,2.7c-0.2,0.9-0.1,1.9-0.2,2.9
	c-0.2,2.6-0.4,5.3-0.6,7.9c-0.1,0-0.2,0-0.2,0c-1.5-1-1.5-1-1.2-2.8C34.2,73.6,34.5,72,34.8,70.5z"/>
<path class="st15" d="M74.6,39.6c-0.2,0.2-0.4,0.4-0.7,0.3c-1.2-0.4-2.3-0.3-3.5-0.3c-0.3,0-0.6,0.1-0.6-0.4
	c-0.2-0.7,0.2-1.4,0.4-2.1c0.1-0.3,0.4-0.5,0.7-0.6c0.6-0.2,1.1-0.3,1.6-0.5c0.5-0.2,0.9-0.1,1.2,0.4c0.6,0.3,1.5,0.5,1.7,1
	c0.2,0.5-0.5,1.2-0.7,1.8C74.6,39.3,74.6,39.5,74.6,39.6z"/>
<path class="st16" d="M72.3,34.2c0.7-0.2,1.4-0.4,2.1-0.7c1.2,0.4,2.4,0.6,3.7,1.1c-1.4,0.2-2.7,0.4-4,0.6c-0.2,0.3-0.6,0.3-0.9,0.4
	c-2,0.4-4,0.6-6.1,0.9c-1.3,0.2-2.6,0.4-3.9,0.6c-0.2,0-0.4,0.1-0.6,0.1c-0.2,0-0.5,0-0.5-0.2c-0.1-0.3,0.2-0.3,0.4-0.4
	c0.8-0.3,1.7-0.5,2.6-0.8c0.9-0.2,1.8-0.5,2.7-0.8c1.2-0.3,2.4-0.7,3.6-1C71.6,34.1,71.9,33.9,72.3,34.2z"/>
<path class="st10" d="M24.9,12c-0.5-0.3-1-0.7-1.5-1c-0.1-1,0.7-2.3,1.5-2.6c0.2-0.1,0.3,0,0.5,0.1c0.4,0.2,0.8,0.4,1.3,0.6
	c0.6,0.2,0.9,0.6,0.8,1.2c0.6,0.6,0.3,1.4,0.4,2.1c0,0.4-0.2,0.6-0.5,0.5C26.6,12.7,25.6,12.7,24.9,12z"/>
<path class="st17" d="M52.1,12.2c-0.3,0.7-0.6,1.4-0.9,2.1c0,0-0.1,0-0.1,0c0.1-0.8,0.3-1.5,0.4-2.3c0.6-3,1.3-6,2-9.1
	c0.5,0.5,0.8,1,1.2,1.4c0.3,0.3,0,0.6-0.1,0.9C53.8,7.6,53,9.9,52.1,12.2z"/>
<path class="st18" d="M11.8,23c0.5,0.3,1.1,0.6,1.6,0.9c0.6-0.1,1,0.4,1.5,0.6c0.7,0.3,1.4,0.7,2.1,1.1c0.1,0.1,0.3,0.2,0.3,0.4
	c-0.1,0.3-0.3,0.2-0.5,0.2c-0.9-0.2-1.6-0.7-2.5-0.9c-0.2,0-0.3-0.1-0.5-0.3c-0.6-0.4-1.3-0.7-2.1-0.7c-0.9-0.6-2-0.8-2.9-1.2
	c-0.9-0.3-1.7-0.6-2.6-0.9C6.2,22,6.2,22,6.2,22c1-0.9,2-1.1,3.2-0.2C10.1,22.3,11,22.6,11.8,23z"/>
<path class="st19" d="M20.6,65.4c0.6-0.6,1.1-1.3,1.6-2.1c0-0.3,0.2-0.6,0.4-0.9c0.3-0.3,0.5-0.7,0.8-1c0.1-0.2,0.3-0.3,0.5-0.2
	c0.2,0.1,0.1,0.4,0.1,0.5c-0.2,0.6-0.6,1-0.8,1.6c-0.1,0.3-0.3,0.5-0.6,0.6c-0.4,0.8-0.8,1.6-1.2,2.4c-0.9,1.7-1.8,3.4-2.7,5.1
	c-0.4-0.5-0.5-1-0.8-1.5c-0.2-0.3,0-0.5,0.2-0.8c0.7-1,1.5-2.1,2.2-3.1C20.3,65.9,20.6,65.7,20.6,65.4z"/>
<path class="st20" d="M63.8,56.7c1,0.8,2.2,1.1,3.4,1.7c0.7,0.3,1.2,0.9,2,0.9c0.2,0.1,0.4,0.3,0.7,0.4c1.5,0.7,1.6,0.9,1.1,2.6
	c-0.8-0.5-1.6-1-2.4-1.6c-1.6-1.1-3.2-2.2-4.7-3.4c-0.2-0.2-0.7-0.2-0.5-0.7C63.4,56.5,63.6,56.5,63.8,56.7z"/>
<path class="st21" d="M32.6,10.8c0.3,0.6,0.3,1.3,0.7,1.9c0.3,0.3,0.5,0.7,0.1,1.1c-0.6-0.3-0.7-0.9-1.1-1.3c-0.3-0.6-0.8-1.2-0.9-2
	c-0.5-0.9-1-1.7-1.6-2.6c-0.1-0.2-0.2-0.4-0.2-0.5c0.1-1.2,0.3-2.4,0.6-3.6C31,6.1,31.8,8.5,32.6,10.8z"/>
<path class="st22" d="M57,13.9C56.4,14,56,13.7,55.9,13c-0.3-1.3,0.1-2.1,1.3-2.5c1.4-0.4,1.3-0.3,1.9,1c0.3,0.7,0.2,1-0.3,1.4
	C57.7,13.9,57.7,14,57,13.9z"/>
<path class="st23" d="M13.4,45.7c-1.1,0.6-2.2,1.1-3.3,1.7c-0.3,0.2-0.7,0.3-1,0.5c-1.6,1.3-3.4,1.2-5.3,0.4c2.2-0.7,4.3-1.3,6.4-2
	c1.2-0.6,2.6-0.7,3.9-1.3C14,45.6,13.6,45.5,13.4,45.7z"/>
<path class="st11" d="M22.3,67.6c0.9,0.4,1.7,1,2.4,1.6c-0.3,1.2-1.3,2.1-2.3,2.1c-0.4,0-0.5-0.2-0.6-0.5
	C21.3,69.6,21.9,68.6,22.3,67.6z"/>
<path class="st24" d="M31.4,10.5c0.4,0.6,0.7,1.2,1,1.9c-0.1,0.4-0.3,0.5-0.6,0.4c-0.3-0.1-0.6-0.2-0.9-0.2c-0.1,0-0.2,0-0.3-0.1
	c-0.3-0.2-0.7-0.3-1.1-0.2c-0.6,0-1.1,0-1.7,0.1c-0.3-0.7,0-1.5-0.3-2.2c1.2,0.1,2.3,0.1,3.5,0.4C31.2,10.7,31.4,10.6,31.4,10.5z"/>
<path class="st7" d="M67.1,36.4c1.4-0.4,2.8-0.4,4.1-0.7c1-0.2,1.9-0.3,2.9-0.5c-0.1,0.4-0.3,0.8-0.4,1.2c-0.6-0.3-2.9,0.1-3.3,0.6
	c-0.3,0.4-0.4,1-0.5,1.5c-0.1,0.2,0,0.5-0.2,0.6c0,0,0,0,0,0c-0.2-0.7-0.8-1.1-1.3-1.4C68.2,37,67.7,36.6,67.1,36.4z"/>
<path class="st25" d="M37.3,70c0.3-0.7,0-1.5,0.1-2.2c0-0.3-0.1-0.7,0.2-1c0.4,0.8-0.1,1.6,0.3,2.3c-0.1,1.1,0.1,2.3,0.2,3.4
	c0.1,1.7-0.2,3-1.4,4.6C37,74.6,37.2,72.3,37.3,70z"/>
<path class="st26" d="M76.3,43.1c-0.8,0.1-1.7,0.4-2.4-0.4c0.1-0.4,0.1-0.9,0.5-1.3c0.4-0.4,0.7-0.6,1.3-0.3
	C77,41.4,76.4,42.3,76.3,43.1z"/>
<path class="st27" d="M42.9,69.9c0.1-0.2,0.3-0.4,0.4-0.5c0.3-0.3,0.6-0.8,1.1-0.4c0.4,0.3,1.1,0.6,0.6,1.4c0,0.1,0,0.2-0.1,0.2
	c0,0.6-0.5,0.8-0.9,0.9c-0.4,0.1-0.7-0.3-0.9-0.7C43,70.6,42.7,70.3,42.9,69.9z"/>
<path class="st28" d="M55.8,59.8c-1.5,1.2-2.9,2.4-4.8,2.9c-0.8,0.2-1.6,0.6-2.4,0.6c-0.6-0.3-0.9-0.8-0.8-1.4
	c2.5-0.7,4.7-2,6.5-3.9c0.1-0.1,0.2-0.1,0.2-0.1c0.1,0,0.2,0.1,0.4,0.1C55.2,58.5,55.8,59,55.8,59.8z"/>
<path class="st29" d="M47.8,61.9c0.3,0.5,0.5,0.9,0.8,1.4c0.7,1.2,1.1,2.5,1.5,3.8c0.2,0.6,0,1-0.4,1.3c-0.4,0.3-0.6-0.2-0.9-0.4
	c-1.7-1.1-1.9-2.8-2.2-4.5c-0.3-0.5,0-1,0.2-1.5c0.1-0.1,0.1-0.1,0.2-0.2C47.2,61.7,47.4,61.7,47.8,61.9
	C47.7,61.8,47.7,61.8,47.8,61.9z"/>
<path class="st30" d="M61.1,58c0.1,2.2-1.2,3.4-3.4,3.3c-0.3,0-0.6,0.2-0.8-0.2c-0.1-0.3-0.6-0.5-0.4-0.9c0.2-0.2,0.6-0.3,0.9-0.4
	c1.6-0.4,2.2-1.9,1.4-3.4c-0.2-0.3-0.6-0.6-0.2-1c0.3-0.2,0.7-0.2,1.1-0.1c0.3,0.1,0.5,0.3,0.8,0.4C60.7,56.6,61.2,57.2,61.1,58z"/>
<path class="st31" d="M61.1,58c-0.2-0.5-0.2-1-0.6-1.4c-0.2-0.2-0.2-0.5,0-0.7c0.7-0.6,1.6-0.9,2.2-1.5c0.3-0.4,0.7-0.7,1-1.1
	c0.2-0.3,0.3-0.6,0.7-0.6c0.5,0.6,1.4,0.7,1.9,1.3c-0.4,1-1.3,1.6-2.1,2.3c-0.1,0.1-0.2,0.2-0.4,0.4c-0.2,0-0.3,0-0.5-0.1
	c-0.3-0.2-0.6-0.3-0.9-0.5c-0.2,0.5,0.7,0.4,0.3,0.9c-0.2,0.2-0.6,0.3-0.9,0.4C61.4,57.4,61.1,57.6,61.1,58z"/>
<path class="st28" d="M46.9,61.9c-0.1,0.5-0.2,1-0.3,1.6c-1.7,0-3.3-0.4-4.9-1.1c-0.1-0.1-0.3-0.1-0.5-0.1c-0.2-0.1-0.2-0.3-0.2-0.5
	c0.1-0.5-0.5-1.1,0.3-1.5c1.1,0.3,2,1,3.1,1.2c0.1,0.1,0.2,0.1,0.2,0.2c0.1,0.5,0.2,0,0.4,0C45.5,61.6,46.2,61.4,46.9,61.9z"/>
<path class="st32" d="M41.1,61.7c0,0.2,0,0.4,0,0.5c-0.4,1.9-1.4,3.3-3.5,3.7c-1.2,0.2-1.2,0.3-1.2-0.9c0-0.2,0-0.3,0-0.5
	c0.1-0.5-0.1-1.1,0.2-1.6c0.6,0.9,1.4,1.2,2.4,0.6c0.6-0.3,1.1-0.7,1.5-1.3C40.6,61.9,40.7,61.6,41.1,61.7z"/>
<path class="st33" d="M56.6,60.3c0.1,0.3,0.2,0.6,0.4,0.9c-0.5-0.4-0.9-0.9-1.2-1.4c-0.2-0.7-0.7-1.2-1.1-1.7c0-0.1,0.1-0.2,0.2-0.2
	c0.3,0,0.4,0.3,0.6,0.5C55.9,59,56.4,59.6,56.6,60.3z"/>
<path class="st34" d="M13.8,24.9c0.2,0,0.3,0,0.5,0.1c0.4,0.2,0.6,0.5,0.5,0.9c-0.4,1.2-0.6,2.4-1,3.6c-0.3,0.1-0.5,0-0.4-0.4
	c-0.1-0.3-0.1-0.6-0.3-0.9c0-0.9,0-1.7,0-2.6C13,25.1,13.3,24.9,13.8,24.9z"/>
<path class="st35" d="M39.7,10.1c2.9,0,6.1,2.7,5.1,7.4c0.5-0.4,1-0.6,1.6-0.1c0.3,0.2,0.6,0.3,1,0.2c0.6-0.1,1.1-0.3,1.5,0.5
	c0.2,0.4,0.7,0,1.1-0.1c0.5,0,0.9-0.4,1.3,0.2c-0.2,0.3-0.6,0.2-0.9,0.3c-1.6,0.2-3,0.8-4.3,1.7c-0.2,0.1-0.5,0-0.6-0.2
	c-0.6-0.8-1.4-1.5-1.9-2.4c-0.1-0.3-0.1-0.5-0.1-0.8c0-2.2-1-3.8-2.9-4.9c-0.3-0.2-0.6-0.3-0.9-0.6C39.4,11.1,39.6,10.6,39.7,10.1z"
	/>
<path class="st36" d="M46,20.2c1.4-1.5,3.3-1.9,5.2-1.9c1.5,0,2.9,0.5,4.2,1.2c0.1,0.1,0.3,0,0.4,0.1c0.3,0.1,0.5,0.5,0.8,0.4
	c0.8-0.1,0.8,0.3,0.5,0.8c-0.7,0.7-1.4,1.4-2.4,1.8c-0.2,0-0.4,0-0.5-0.1c-1-1-2.3-1.4-3.6-1.8c-1.1-0.4-2.3-0.4-3.5-0.2
	C46.8,20.6,46.3,20.8,46,20.2z"/>
<path class="st37" d="M33.3,13.8c0.4-0.3-0.1-0.7,0-1c0.9-1.7,2.4-2.1,4.1-2.5c0.8-0.2,1.5-0.3,2.2,0.4c0.2,0.5,0.3,1.1,0.3,1.7
	c0,0.2,0,0.4-0.1,0.6c-0.3,0.3-0.7,0.2-1,0.2c-1.9-0.2-3.6,0.9-4.2,2.7c-0.7,0.5-1.4,1-2.3,0.8c-0.2-0.7,0-1.3,0.1-1.9
	C32.4,14.2,32.7,13.7,33.3,13.8z"/>
<path class="st38" d="M55.8,19.7c-0.1,0-0.3,0-0.4-0.2c0.3-0.9,0.6-1.7,0.9-2.6c0.3-0.2,0.4-0.6,0.7-0.7c0.2,0,0.3,0,0.5,0
	c0.9,0.1,1.9-0.1,2.8,0.3c1.6,0.7,2.8,1.8,3.4,3.5c0.2,0.5,0,0.9-0.4,1.2c-0.2,0.1-0.4,0.1-0.6,0c-0.2-1.7-1.1-2.9-2.8-3.4
	c-0.9-0.3-1.8-0.2-2.7,0.1c-0.6,0.2-0.8,0.7-1,1.2C56,19.4,56.2,19.7,55.8,19.7z"/>
<path class="st39" d="M39.6,12.4c0-0.6,0-1.2-0.1-1.8c0.1-0.2-0.1-0.4,0.2-0.5c0,0.5-0.1,1,0.2,1.4c0.1,0.1,0.1,0.3,0.1,0.5
	C39.9,12.2,39.9,12.4,39.6,12.4z"/>
<path class="st40" d="M18.7,42.5c-0.1,0-0.1,0-0.2,0c-0.1-0.7-0.6-1.3-0.1-2c0.5-0.2,0.9-0.2,1.4-0.1c1.2,0.1,1.7,0.8,2.1,2
	c0.4,1.3,1.2,2.4,2.2,3.4c0.6,0.6,1.3,1.2,1.5,2.1c-0.2,0.5-0.7,0.7-1.1,0.9c-0.7,0.5-1.5,0.9-2.2,1.4c-0.6-0.4-1.2-0.4-1.8-0.2
	c-0.4,0.1-0.8,0.3-1.2,0c-0.6-0.9,0-1.8,0-2.7c0-0.5,0-0.8-0.4-1c-1.1-0.8-1.7-2-2.7-2.8c0,0,0-0.1,0.1-0.2c0.8-0.2,1.6-0.5,2.4-0.7
	c0.4-0.2,0.8-0.2,1.2-0.4C19.4,42.4,19,42.6,18.7,42.5z"/>
<path class="st41" d="M19.2,50.1c0.6-0.1,1.3-0.2,1.8-0.4c0.6-0.2,1,0,1.2,0.5c0.2,0,0.3,0.1,0.4,0.3c0.2,0.5,0.7,0.8,0.8,1.4
	c-0.5,0.9-1.3,1.3-2.3,1.7c-1.4,0.1-1.7-0.1-2.2-1.2c0-0.2,0.1-0.4,0.1-0.6C19.2,51.2,19.2,50.6,19.2,50.1z"/>
<path class="st42" d="M19.1,51.8c0,0.2,0,0.3,0,0.5c-0.6,0.8-1.6,1-2.4,1.5c-0.2,0.1-0.5,0.1-0.6-0.3c0.3-0.2,0.7-0.4,1-0.6
	C17.9,52.6,18.5,52.2,19.1,51.8z"/>
<path class="st43" d="M13.4,29.1c0,0.2,0.1,0.3,0.4,0.3c0.6,0.2,1.1,0,1.6-0.2c0.2-0.1,0.4-0.3,0.7-0.1c-0.2,1.1-0.8,2.1-1.4,3.1
	c-1.1,0.9-2.5,1.5-3.3,2.8c-0.9,1.4-1.1,3.4-0.4,4.6c0.2,0.3,0.7,0.4,0.7,0.9c-0.3,0.2-0.6,0.1-1,0.2c-0.1,0.1-0.2,0.2-0.1,0.4
	c0.1,0.3,0.2,0.6,0.5,0.7c0.6,0.2,0.5,0.7,0.7,1.1c0.3,0.6,0.9-0.2,1.2,0.2c0.1,0.1,0.1,0.2,0.1,0.3c-0.7,0.3-1.4,0.4-2.1,0.4
	c-0.4,0-0.7-0.2-1.1-0.4c-1.3-1.1-1.9-2.5-2.2-4.1c-0.2-1.6-0.2-3.2,0.5-4.8c0.9-2,2.3-3.4,4.3-4.3C13,30,13,29.4,13.4,29.1z"/>
<path class="st44" d="M21.1,62.6c-0.4-0.1-0.7-0.2-1.1,0c-2.3,0.7-4.9-0.8-5.3-3.2c0,0,0-0.1,0-0.1c-0.9-1.4,0.3-2.4,0.5-3.7
	c0.4,0.1,0.5-0.3,0.9-0.4c0.5-0.2,1.1-0.4,1.6-0.5c0.8-0.2,1.5,0.1,2.1,0.7c0.1,0.5-0.2,0.9-0.7,1c-0.2-0.1-0.4-0.3-0.6,0
	c-0.1,0.2-0.3,0.2-0.4,0.1c-0.6-0.4-0.9,0-1.1,0.4c-0.8,1.8-0.1,3,1.6,3.6c0.3,0.1,0.5-0.1,0.8-0.2c0.6-0.2,1.1-0.3,1.5,0.3
	C20.9,61.3,21.3,61.9,21.1,62.6z"/>
<path class="st45" d="M19.7,55.6c-0.9-0.5-1.7-1.1-2.7-0.4c-0.2,0.1-0.6,0-0.9,0c0-0.4,0.3-0.3,0.6-0.3c0.2,0,0.5,0,0.5-0.3
	c0-0.2-0.3-0.4-0.5-0.4c-0.4,0-0.9-0.2-1.4,0c0.4-0.4,0.7-0.6,1-0.8c0.2,0.3,0.5,0.2,0.7,0.1c0.7-0.6,1.5-0.8,2.3-1.3
	c0.3,1.2,1.2,1,2.1,1c0.1,0.2-0.1,0.3-0.2,0.3c-0.9,0-0.8,0.5-0.6,1.1C20.4,55.1,20.2,55.5,19.7,55.6z"/>
<path class="st46" d="M72.3,34.2c-1.5,0.4-3,0.8-4.5,1.2c-0.6-1-1.4-2-1.6-3.2c0.6-0.6,1.5-0.7,2.2-1c0.4,0.1,0.6-0.3,0.8-0.2
	c-0.4,0.1-0.8,0.2-1.3,0.4c-0.1,0-0.3,0-0.4-0.1c-0.3-1.2-0.6-2.4-1.3-3.4c-0.1-0.1-0.1-0.3-0.3-0.4c-0.8-0.6-0.9-1.4-1-2.3
	c-0.3-1-1.2-1.4-1.9-2c-0.3-0.9-0.3-1,0.6-1.2c0.6-0.1,1,0.2,1.5,0.6c1.8,1.2,3.2,2.9,4.3,4.7c1,1.7,1.7,3.5,2,5.4
	c0.1,0.6,0.2,1.1,0.8,1.4C72.3,34.1,72.3,34.1,72.3,34.2z"/>
<path class="st47" d="M72.3,34c-0.8,0.2-0.9-0.4-1-1c-0.4-3-1.7-5.6-3.6-7.9c-0.9-1.1-2.1-1.8-3.1-2.8c-0.2-0.2-0.5-0.1-0.8-0.1
	c-0.3-0.2-0.7-0.3-1-0.5c-0.2-0.1-0.4-0.3-0.2-0.5c0.2,0,0.5,0,0.7,0c0.6-0.4,1,0.1,1.4,0.3c0.1,0,0.2,0,0.3,0
	c1.2,0.5,2.3,0.9,3.4,1.7c1.5,1.1,2.8,2.3,3.5,4c0.5,1.2,0.8,2.4,0.9,3.7C72.8,31.9,72.9,33,72.3,34z"/>
<path class="st36" d="M66.2,32.3c0.4,0.9,1.1,1.6,1.4,2.5c0.1,0.2,0.1,0.4,0.1,0.6c-1.9,0.5-3.7,1.1-5.6,1.6c0,0,0,0.1,0,0.1
	c1.6-0.2,3.2-0.5,4.8-0.7c1.2,0,1.2,0,1.4,1.4c0.1,0.2,0.2,0.3,0.2,0.5c0.2,1.5,0.4,2.9,0.8,4.3c0.3,1.2-0.4,2.4-1.6,2.9
	c-0.7,0.3-0.8,0.7-0.6,1.4c0.2,0.5,0.4,1,0.2,1.5c0,0.6,0,1.3,0,1.9c0,0.4,0,0.7-0.6,0.7c-0.7,0-1.5-0.1-2.1-0.4
	c-0.2-0.3-0.2-0.6-0.2-0.9c0.1-1.3,0-2.6-0.5-3.8c-0.3-1.2-0.8-2.4-1.8-3.2c-0.5-0.4-0.7-0.9-0.7-1.5c0-1,0.2-2-0.2-2.9
	c-0.4-1-0.4-2-0.9-2.9c-0.2-0.3-0.3-0.6-0.2-0.9c0-0.1,0.1-0.2,0.1-0.2c1.7-0.8,3.4-1.6,5.3-2.1C66.1,32.2,66.1,32.2,66.2,32.3z"/>
<path class="st41" d="M65,50.7c0.7,0.1,1.5-0.1,2.1,0.4c0.1,0.2,0.3,0.3,0.6,0.3c0.7,0.2,0.7,0.7,0.7,1.3c0,0.6-0.3,0.8-0.8,0.9
	c-0.4,0.1-0.9,0.2-1.3,0.4c-0.7-0.4-1.6-0.3-1.9-1.2c-0.3-0.3-0.4-0.7-0.5-1.1c-0.1-0.4-0.3-0.7,0.1-1C64.2,50.4,64.6,50.4,65,50.7z
	"/>
<path class="st48" d="M22.5,64c0.1-0.2,0.2-0.5,0.4-0.7c0.5-0.4,0.8,0,1.2,0.2c1.1,0.8,2.2,1.4,3.4,1.9c0.8,0.4,1.6,0.5,2.4,0.8
	c0.5,0.2,0.9,0.3,1.2,0.7c0.1,0.6-0.1,1.1-0.5,1.6c-3,0.2-5.5-0.9-7.5-3.1C22.6,65,22.4,64.5,22.5,64z"/>
<path class="st49" d="M35.4,67.3c0,0.2,0,0.4-0.2,0.5c-0.5-0.1-1,0.1-1.5,0.3c-0.8,0.5-1.9,0.1-2.7,0.6c-0.1,0-0.2-0.1-0.3-0.2
	c-0.1-0.6,0.3-1.1,0.4-1.7c0.1-0.1,0.2-0.2,0.4-0.2c1.1,0.2,2.2,0.4,3.3,0.1C35.2,66.5,35.4,66.8,35.4,67.3z"/>
<path class="st50" d="M31.2,66.9c-0.2,0.5-0.3,1.1-0.5,1.6c-0.1,0-0.1,0-0.2,0c0.1-0.5,0.3-1,0.4-1.6c0-0.1,0.1-0.1,0.1-0.1
	C31.1,66.8,31.1,66.9,31.2,66.9z"/>
<path class="st51" d="M21.1,62.6c-0.2-0.6-0.4-1.2-0.4-1.9c0.1-0.5,0.3-0.2,0.6-0.2c0.3,0.3,0.6,0.7,0.9,1c0.1,0.4,0.5,0.6,0.4,1.1
	c-0.2,0.2-0.2,0.6-0.5,0.7C21.4,63.5,21.5,62.7,21.1,62.6z"/>
<path class="st52" d="M67.6,48.5c-0.2-0.7-0.5-1.4-0.7-2.1c-0.1-0.3-0.1-0.7,0.4-0.8c1.7-0.4,2.5-2.1,1.8-3.7
	c-0.6-1.3-0.4-2.6-0.6-4c0.1,0,0.2,0.1,0.3,0.1c0.7,0,1,0.2,0.8,0.9c0,0.1,0.1,0.2,0.1,0.3c-0.4,0.6,0.2,0.6,0.5,0.6
	c1.3,0.1,1.7,0.9,2,2.1C72.8,45,70.5,48,67.6,48.5z"/>
<path class="st53" d="M30.7,12.4c0.1,0,0.1,0,0.2,0c0.2,0.5-0.2,0.5-0.5,0.5c-3.7,0.5-6.7,2.4-9.5,4.6c-1.5,1.2-2.7,2.8-3.9,4.3
	c-0.5,0.7-0.8,1.5-1.3,2.2c-0.2,0.3-0.3,0.7-0.8,0.5c-0.5-0.2-0.9-0.5-1.4-0.7c0.2-2.1,0.9-4,2.1-5.8c1-1.5,2.3-2.7,3.8-3.7
	c1.1-0.7,2.2-1.2,3.4-1.6c0.6-0.2,1.1-0.4,1.7-0.4c0.3,0,0.5-0.1,0.5-0.4c0.7,0.2,1.5,0.4,2.2,0.6c0.3,0.1,0.6,0.3,0.7-0.2
	c0.5-0.8,1.2-0.2,1.8-0.4C29.9,12.3,30.4,12.1,30.7,12.4z"/>
<path class="st54" d="M13.1,43.4c-0.1-0.2-0.3-0.5-0.6-0.2c-0.8,0.6-0.9-0.1-1-0.6c0-0.4-0.1-0.5-0.4-0.6c-0.6-0.2-0.9-1.1-0.5-1.5
	c0.7,0.2,1.3-0.1,2-0.1c0.3,0,0.6,0,0.9,0.1c0.4,0.2,0.8,0.5,1.3,0.6c0.2,0.1,0.5,0.2,0.6,0.4c0.3,0.7,0.9,1.1,1.6,1.3
	C15.7,43.1,14.4,43.2,13.1,43.4z"/>
<path class="st55" d="M16.9,42.7c-0.7,0.1-1.3-0.1-1.6-0.9c-0.1-0.4-0.5-0.6-0.9-0.6c-0.4,0-0.6-0.2-0.8-0.5
	c0.9-0.5,1.8-0.2,2.7-0.2c0.8,0.5,1.3,1.2,1.6,2.1C17.6,42.8,17.3,42.7,16.9,42.7z"/>
<path class="st56" d="M18,42.6c-0.5-0.6-0.9-1.3-1.4-1.9c0.6-0.4,1.2-0.4,1.8,0c-0.1,0.6,0.5,1.2,0.2,1.9
	C18.3,42.5,18.1,42.5,18,42.6z"/>
<path class="st55" d="M18.7,42.5c0.4-0.1,0.8-0.2,1.2-0.3c-0.3,0.4-0.8,0.5-1.2,0.5C18.6,42.6,18.7,42.6,18.7,42.5z"/>
<path class="st57" d="M64.6,21.4c-0.5,0.1-0.9-0.5-1.4-0.3c0.3-0.8-0.1-2.3-0.8-3c-0.9-0.8-1.9-1.4-3.1-1.7c-0.3-0.1-0.7,0-1,0.1
	c-0.3,0.1-0.7,0.3-0.8-0.3c0.2-0.4,0.6-0.4,0.9-0.3c0.5,0.1,0.9,0.1,1.3-0.3c0.2-0.2,0.4-0.2,0.5,0c0.2,0.5,0.6,0.5,1.1,0.6
	c0.4,0.1,0.6,0.4,0.9,0.6c1.1,0.8,1.5,1.9,2.1,3C64.5,20.4,64.3,21,64.6,21.4z"/>
<path class="st58" d="M36.4,61.8c0,0.8-0.3,1.5-0.4,2.2c-0.8,0.4-1.3-0.2-1.8-0.7c-0.4-0.4-0.8-0.9-1.2-1.2c-0.1-0.3,0-0.6,0.1-0.8
	c0.4-1,0.8-1.9,1.2-2.9c0.1-0.2,0.2-0.4,0.4-0.5c1-0.4,2-0.7,3.1-0.3c0.5,0.3,1.2,0.3,1.4,0.9c-0.4,0.3-0.8,0.1-1.1,0
	c-1.3-0.4-2.3,0.1-2.6,1.2c-0.2,0.8,0.1,1.5,0.8,1.9C36.4,61.6,36.4,61.7,36.4,61.8z"/>
<path class="st58" d="M41.1,61.7c-0.5,0.5-0.8,1.2-1.5,1.6C39,63.7,38.4,64,37.7,64c-0.9,0-1.2-0.3-1.2-1.1
	c-0.1-0.4,0.1-0.8-0.1-1.1c0,0,0-0.1-0.1-0.1c-0.1-0.2-0.1-0.4,0-0.6c0.1-0.1,0.2-0.3,0.3-0.3c0.2,0,0.2,0.2,0.3,0.3
	c0.4,0.8,0.9,1,1.6,0.4c0.4-0.3,0.7-0.8,0.8-1.3c0.1-0.3,0-0.6,0.2-0.8c0.8-0.1,1.3,0.2,1.8,0.9c-0.4,0-0.4,0.3-0.3,0.6
	C41.1,61.1,41.1,61.4,41.1,61.7z"/>
<path class="st59" d="M35.4,67.3c-0.2-0.3-0.2-0.6-0.8-0.3c-0.8,0.3-1.8,0.3-2.7-0.1c-0.2-0.1-0.4-0.1-0.6-0.2
	c-0.2-0.9,0.5-1.7,0.7-2.5c0.1-0.3,0.1-0.7,0.5-0.9c0.2,0,0.3,0,0.4,0.2c0.6,1.2,1.7,1.8,2.8,2.3C35.4,66.3,35.7,66.9,35.4,67.3z"/>
<path class="st60" d="M35.7,65.9c-1.1-0.1-2-0.7-2.6-1.6c-0.2-0.3-0.3-0.5-0.5-0.8c-0.2-0.6,0-1.1,0.6-1.4c0.7,0,0.8,0.6,1.2,1
	c0.5,0.5,1,0.9,1.7,0.9C35.9,64.6,35.8,65.2,35.7,65.9z"/>
<path class="st61" d="M14.8,24.6c0.7-0.3,0.9-1,1.2-1.6c0.7-1.4,1.8-2.5,2.8-3.7c2.2-2.6,5-4.4,8-5.7c1-0.4,2.2-0.9,3.4-0.9
	c0.3,0,0.6,0.1,0.7-0.3c0.3,0,0.7-0.1,0.9,0.1c0.3,0.3,0.5,0,0.7-0.2c0.4,0.4,0.7,0.8,0.9,1.4c-0.6,0.4-1,0.9-0.9,1.7
	c0,0.4-0.1,0.7-0.2,1.1c-0.1,0.1-0.1,0.1-0.2,0.2c-1.4,0-2.7,0.3-3.9,0.8c-0.9,0.3-1.6,0.2-2.4-0.1c-0.1,0-0.3-0.1-0.4-0.2
	c-0.8-0.5-1.5-0.5-2.3,0.1c-0.8,0.6-1.1,1.3-0.9,2.3c0,0.2,0.1,0.3,0.1,0.5c0,0.8,0,1.5-0.7,2.2c-0.6,0.5-0.9,1.3-1.7,1.7
	c0,0.1-0.2,0.1-0.1,0.1c0.4,0.2,0.8,0.2,0.9,0.8c-0.4,0.7-1.2,1-1.8,1.5c-0.7,0.6-1.4,1.4-2,2.1c-0.2,0.2-0.3,0.5-0.6,0.5
	c-0.6,0.4-1.3,0.5-1.9,0.7c-0.5,0.2-0.4-0.2-0.4-0.4c0-1,0.3-2,0.6-3c0.2-0.5,0.4-1-0.1-1.5c1,0.2,1.8,0.8,3,1
	C16.3,25.4,15.6,25,14.8,24.6z"/>
<path class="st62" d="M22.6,62.6c-0.2-0.3-0.7-0.5-0.5-1C22,61.4,22,61.2,22.1,61c0.3-0.9,0.2-1.8-0.2-2.7c0-0.5,0.3-0.7,0.7-0.8
	c0.6,0.3,1.2,0.6,1.6,1.2c0.1,0.2,0.2,0.6,0.4,0.7c1.4,0.5,1.8,2.2,3.2,2.8c1.3,0.6,2.5,1.2,3.9,1.6c0.1,0,0.2,0.1,0.2,0.1
	c0.1,0.1,0.1,0.2,0.1,0.2c-0.3,0.9-0.5,1.9-1,2.8c0,0-0.1,0-0.1,0c-1.1-0.8-2.5-0.8-3.8-1.4c-1.2-0.6-2.4-1.3-3.5-2
	c-0.3-0.2-0.5-0.3-0.8-0.2c0.3-0.6,0.7-1.3,1-1.9c0,0-0.1-0.1-0.1-0.1C23.4,61.7,23,62.1,22.6,62.6z"/>
<path class="st61" d="M30.7,12.4c-0.4-0.1-0.9,0.3-1.1-0.3C30,12.1,30.4,11.9,30.7,12.4z"/>
<path class="st63" d="M31.9,64.1c0-0.1,0-0.1,0-0.2c-0.1-0.7,0.3-1.3,0.4-1.9c0.3-1,0.5-2.1,0.9-3.1c0.2-0.5,0.3-0.9,0.4-1.4
	c0.3-1,0.5-1.9,0.7-2.9c0.2-0.6,0.3-1.2,0.3-1.7c0.1-0.5,0.3-1,0.3-1.5c0-1,0-2,0-3c0-0.9-0.3-1.2-1.2-1.2c-1.1,0-2.2,0.3-3.2,0.7
	c-0.6,0.2-1.3,0.4-1.9,0.6c-0.4,0.1-0.7,0.3-1.1,0.4c-1.1,0.4-2.1,0.9-3.2,1.3c-0.6,0.2-1,0.7-1.7,0.4c-0.1-0.1-0.2-0.3-0.3-0.4
	c0.2-0.6,0.8-0.7,1.2-1c0.6-0.4,1.3-0.9,1.9-1.3c0.3-0.4,0.7-0.7,1.2-1c0.5-0.3,0.9-0.6,1.4-0.9c0.4-0.3,0.9-0.5,1.3-0.9
	c0.9-0.6,1.8-1.3,2.6-2.1c0.2-0.2,0.6-0.5,0.5-0.8c-0.1-0.4-0.6-0.5-1-0.6c-1.4-0.1-2.8-0.6-4.3-0.4c-2.1-0.2-4.2-0.2-6.2-0.4
	c-0.3,0-0.6-0.1-0.9-0.1c-0.5,0-1,0-1.6,0c-0.6,0-1.2,0-1.8,0c-1,0-2,0-3,0c-1-0.1-2.1,0.1-3.1-0.2c0.4,0,0.8-0.1,1.1-0.1
	c0.5-0.5,1.2-0.3,1.8-0.5c0.9-0.1,1.7-0.2,2.6-0.4c0.8-0.1,1.6-0.2,2.4-0.3c0.7-0.2,1.5-0.2,2.2-0.3c0.3-0.1,0.6-0.1,1-0.2
	c0.6,0,1.3-0.1,1.9-0.3c1.4-0.3,2.7-0.5,4.1-0.9c0.7-0.2,1.4-0.4,2.1-0.7c1.3-0.5,1.8-1.6,1.1-3c-0.7-1.4-1.7-2.5-2.9-3.5
	c-0.2-0.2-0.5-0.4-0.7-0.5c-0.6-0.6-1.2-1.1-2-1.5c-0.7-0.4-1.2-0.9-1.9-1.3c-0.5-0.3-0.9-0.6-1.4-0.9c-0.5-0.4-1.2-0.6-1.5-1.2
	c0-0.2,0.1-0.2,0.2-0.3c0.1,0,0.3,0,0.4,0c0.6,0.3,1.2,0.6,1.8,0.9c0.4,0.2,0.9,0.4,1.3,0.7c1.1,0.6,2.3,1,3.4,1.6
	c1.2,0.6,2.4,1.1,3.6,1.6c0.9,0.5,1.8,0.8,2.7,1.2c0.8,0.3,1.5,0.5,2.3,0.7c1.1,0.3,2.1-0.2,2.4-1.4c0.2-0.7,0.4-1.5,0.3-2.2
	c0-0.9,0.2-1.8,0.2-2.7c0-2.1,0.3-4.2,0.2-6.3c0-0.6,0-1.3,0-1.9c0-0.4,0-0.8,0-1.1c0.1-0.9-0.2-1.7,0.2-2.6c0-0.2,0-0.3,0-0.5
	c0.1-0.1,0.2-0.2,0.3-0.3c0.6,0.9,0.4,2,0.6,3.1c0,0.6,0.2,1.2,0.2,1.8c0.2,0.7,0.1,1.5,0.3,2.2c0.2,1.9,0.5,3.8,0.8,5.7
	c0.1,0.5,0.2,1,0.2,1.5c0.2,1.1,0.5,2.2,1.2,3.1c0.5,0.6,1,0.7,1.6,0.4c1.3-0.6,2.4-1.6,3.6-2.4c0.4-0.3,0.8-0.5,1.1-0.8
	c0.5-0.4,0.9-0.7,1.4-1.1c0.6-0.5,1.2-0.9,1.8-1.4c0.3-0.3,0.7-0.6,1-0.9c0.3-0.3,0.8-0.5,1.2-0.7c0.8-0.5,1.5-1.1,2.2-1.8
	c0.2-0.2,0.2-0.5,0.6-0.3c0.1,0.1,0.1,0.2,0,0.4c-0.9,1.2-1.9,2.3-2.7,3.5c-0.3,0.3-0.6,0.6-0.9,1c-0.4,0.6-1,1-1.4,1.6
	c-0.3,0.4-0.6,0.7-0.9,1.1c-0.7,0.8-1.3,1.6-1.9,2.5c-0.3,0.4-0.5,0.9-0.7,1.4c-0.2,0.9,0.1,1.8,1,2c0.8,0.3,1.7,0.5,2.6,0.2
	c0.9-0.1,1.8-0.1,2.7-0.3c1.1-0.2,2.3-0.3,3.4-0.6c2.2-0.5,4.3-1,6.4-1.5c0.7-0.1,1.4-0.5,2.2-0.3c0.1,0,0.2,0,0.3,0
	c0.2,0,0.5-0.2,0.5,0.2c-0.8,0.3-1.5,0.6-2.3,0.9c-1.9,0.7-3.7,1.4-5.6,2.3c-0.5,0.5-1.2,0.7-1.8,1c-0.3,0.1-0.5,0.2-0.8,0.3
	c-1,0.5-1.9,0.9-2.9,1.4c-0.8,0.3-1.4,0.7-2.1,1.2c-0.7,0.4-1.4,0.8-2,1.4c-0.6,0.6-0.6,1,0.2,1.5c0.6,0.4,1.3,0.8,2,1
	c0.8,0.2,1.5,0.6,2.2,0.8c0.3,0.1,0.7,0.3,1,0.4c0.5,0.2,1,0.3,1.4,0.5c0.6,0.2,1.2,0.4,1.8,0.6c0.6,0.2,1.3,0.4,1.9,0.6
	c0.1,0.1,0.2,0.1,0.3,0.3c-0.4,0.5-0.8,0.2-1.3,0.1c-0.3,0-0.6-0.1-0.9-0.2c-0.5-0.1-1-0.2-1.6-0.3c-0.6-0.2-1.2-0.1-1.7-0.1
	c-0.6,0-1.2,0-1.7,0c-1.4-0.1-2.7,0.1-4,0.7c-1,0.4-1.1,0.7-0.9,1.7c0.1,0.4,0.3,0.8,0.5,1.2c0.2,0.7,0.6,1.3,0.9,1.9
	c0.1,0.2,0.2,0.4,0.4,0.6c0.2,0.3,0.3,0.7,0.6,1c0.8,1.4,1.6,2.8,2.4,4.2c0.2,0.3,0.4,0.6,0.5,0.9c0,0.1,0,0.2,0,0.2
	c-0.1,0.1-0.1,0.1-0.2,0.2c-0.1-0.1-0.1-0.1-0.2-0.2c-0.4-0.1-0.6-0.5-0.8-0.8c-0.4-0.7-0.9-1.2-1.4-1.9c-0.8-1-1.5-1.9-2.3-2.9
	c-0.2-0.3-0.4-0.5-0.6-0.8c-0.9-1-1.7-2-2.8-2.8c-0.3-0.2-0.5-0.4-0.8-0.5c-0.7-0.3-1.1-0.1-1.2,0.7c-0.1,0.4,0,0.9,0,1.3
	c0,0.9,0,1.8,0,2.7c0,0.9,0,1.9,0,2.8c0,0.4,0,0.7,0.1,1.1c0.1,1,0.1,2,0.1,3c0,0.7,0.2,1.4-0.3,2.1c0,0.1-0.1,0.1-0.1,0.2
	c0,0,0-0.1-0.1-0.1c-0.1-0.1-0.1-0.3-0.2-0.4c-0.4-0.6-0.3-1.4-0.5-2.1c-0.2-0.9-0.4-1.7-0.6-2.6c-0.3-1.4-0.8-2.8-1.4-4.1
	c-0.3-0.8-0.8-1.5-1.5-2.1c-0.8-0.7-1.5-0.6-2,0.3c-0.7,1.1-1.2,2.2-1.7,3.3c-0.4,1-0.9,1.9-1.3,2.9c-0.1,0.3-0.2,0.5-0.5,0.7
	c-0.6,1.4-1.3,2.7-1.7,4.2c-0.3,0.4-0.4,0.9-0.6,1.4c-0.2,0.2-0.3,0.6-0.4,0.9C32,64.4,31.8,64.4,31.9,64.1z"/>
<path class="st64" d="M53.9,57c0.2,0.3,0.4,0.6,0.7,0.9c-1.4,1.4-2.7,2.8-4.7,3.5c-0.7,0.2-1.3,0.5-2.1,0.5c0,0,0,0,0,0
	c-0.2-0.1-0.4-0.3-0.6-0.5c-0.2,0.1-0.1,0.4-0.3,0.5c0,0,0,0,0,0c-0.8,0-1.5,0-2.3,0c0-0.7,0-1.4,0-2.1c0.1-0.1,0.3-0.2,0.5-0.2
	c3-0.2,5.9-0.8,8.4-2.5C53.6,57,53.7,57,53.9,57z"/>
<path class="st65" d="M46.9,61.9c0-0.2,0-0.5,0-0.7c0-0.1,0-0.2,0.1-0.3c0.4,0.3,0.6,0.6,0.8,1C47.5,61.9,47.2,61.9,46.9,61.9z"/>
<path class="st66" d="M54.9,57.9c0,0,0-0.1,0-0.1c-0.1-0.7-0.1-0.7,0.5-1.6c-0.4,0.3-0.6,0.7-1,0.8c-0.8-1.4-1.7-2.8-2.4-4.4
	c0.6-0.5,1.3-0.2,1.9-0.3c0.7,0,1.4,0.1,2,0.3c3.2,0.9,6.6-1.5,6.7-4.9c0-0.3,0-0.5,0-0.8c0.1-0.6,0.4-1,1.1-0.7
	c0.5,1.1,0.2,2.2,0,3.2c-0.5,2.2-1.4,4.2-3,5.7c-0.3,0.2-0.5,0.6-0.9,0.5c-0.4,0-0.8,0-1.2,0c0,0-0.1,0.1-0.1,0.1
	c-1.5,0.1-2.4,1-2.8,2.4c0,0.1-0.1,0.2-0.2,0.2C55.2,58.2,55.1,58,54.9,57.9z"/>
<path class="st67" d="M59.8,55.6c2.2-1.8,3.4-4.2,3.8-6.9c0.1-0.8,0.1-1.7,0.2-2.5c-0.1-0.1-0.1-0.2-0.1-0.3c0-0.3,0-0.5,0.3-0.5
	c0.4-0.1,0.4,0.2,0.5,0.4c0.7,1.6,0.5,3.2,0.5,4.9c-1.3,0.1-1.3,0.1-0.9,1.3c0.1,0.2,0.1,0.5,0.2,0.7c-0.8,0.9-1.4,1.9-2.4,2.5
	c-0.4,0.3-0.9,0.6-1.4,0.6C60.2,55.9,59.8,56.1,59.8,55.6z"/>
<path class="st68" d="M55.4,58.4c0.2-0.7,0.3-1.3,0.7-1.9c0.6-0.7,1.4-1,2.4-0.9c0.2,0.7,0.9,1.2,0.9,2c0,1.4-0.7,2.3-2.1,2.5
	c-0.3,0-0.5,0.1-0.8,0.2C56,59.8,55.8,59.1,55.4,58.4z"/>
<path class="st69" d="M43.9,59.4c0.2,0.7,0.4,1.4,0.3,2.1c-1.1,0-2.1-0.6-3-1.2c-0.6-0.3-1-0.9-1.7-0.9C39.3,59,39.9,59,40,58.7
	c1,0.1,1.9,0.6,2.8,0.7C43.2,59.4,43.6,59.5,43.9,59.4z"/>
<path class="st70" d="M54.9,22.5c-0.3,0.4-0.7,0.6-1.1,0.9c-0.5,0.1-1,0-1.4-0.4c-1.6-1.6-3.6-1.8-5.7-1.3c-0.3,0.1-0.5,0.2-0.8,0.2
	c-0.9,0.2-1,0.2-1.3-0.7c-0.2-0.5-0.5-0.9-0.9-1.2c-0.9-0.9-1.7-1.8-2.8-2.4c-0.2-0.1-0.4-0.3-0.5-0.6c-0.1-0.6-0.1-1.2-0.2-1.8
	c1,1.1,2.5,1.4,3.5,2.6c0.8,0.7,1.3,1.8,2.3,2.4c0.7,0.5,1.4,0,2.1,0c1.7-0.1,3.2,0.4,4.7,1.1c0.4,0.2,0.8,0.6,1.3,0.6
	c0.1,0,0.3,0,0.2,0.1C54.1,22.8,54.7,22.4,54.9,22.5z"/>
<path class="st71" d="M43.7,17.8c-1-0.6-1.9-1.2-2.9-1.8c-0.3-0.2-0.3-0.6-0.6-0.8c-0.1-1-0.3-2.1-0.4-3.1c0-0.2,0-0.4,0-0.5
	C42.7,12.7,43.9,14.8,43.7,17.8z"/>
<path class="st72" d="M57.7,20.4c-0.2,0.1-0.4,0.3-0.6,0.4c-0.3,0,0.6-0.9-0.4-0.4c-0.3,0.2-0.8-0.3-1-0.6c0.2-0.3,0.1-0.8,0.3-1.1
	c0.6-0.9,2.1-1.5,3.5-1.1c1.5,0.4,2.7,1.2,3.2,2.8c0.1,0.3,0,0.5-0.2,0.8c0.2,0.5,1,0.5,1.2,1c-1-0.1-0.6,0.6-0.5,1
	c-0.2,0.3-0.6,0.2-0.9,0.3c-1,0.2-1.5,0.8-1.7,1.8c-0.1,1.2,0.6,1.9,1.7,2.3c0.4,0.2,0.8-0.1,1.2,0.1c0.2,0.9,1,1.5,1.3,2.4
	c0.1,0.3,0.4,0.7,0,1c-0.2,0-0.4-0.1-0.6-0.3c-1.4-1.2-3.1-1.9-4.9-2.4c-0.7-0.2-0.9-0.5-0.8-1.2c0.1-0.9,0.1-1.9-0.1-2.9
	c-0.1-0.3-0.1-0.6,0.1-0.9c0.2-0.3,0.4-0.2,0.7-0.3c0.8-0.2,1.3-0.9,1.3-1.7c0-0.8-0.2-1.2-1.1-1.6C58.8,19.5,58.2,19.7,57.7,20.4z"
	/>
<path class="st36" d="M27.5,27.9c-1.2-0.5-2.3-1.1-3.5-1.6c-0.2-0.3,0-0.4,0.2-0.5c0.4-0.3,0.8-0.6,1.3-0.7
	c-0.9,0.1-1.8,0.8-2.8,0.6c-0.6-0.2-1.2-0.5-1.8-0.9c0.2-0.5,0.8-0.7,1.3-0.8c1.1-0.4,2.3-0.7,3.6-0.6c0.9,0.1,1.3-0.3,1.5-1.1
	c0.5-2,1.7-3.6,3.3-4.8c0.4-0.3,0.9-0.6,1.4-0.8c0.1,0,0.1,0,0.2,0c0.7-0.3,1.4-0.6,2.1-0.9c1-0.6,2.2-0.6,3.3-0.6
	c0.6,0,1.3,0,1.9,0.4c0,0.3,0,0.7,0,1c-0.3,0.3-0.7,0.1-1.1,0.1c-2.7-0.5-5,0.4-7,2.3c-0.4,0.4-0.8,0.8-1.3,1.3
	c1.4-1,2.9-1.6,4.6-1.9c0.4,0,0.7,0,0.8,0.5c0.1,0.4-0.4,0.5-0.6,0.6c-1.3,0.7-2.4,1.7-3.4,2.8c-0.6,0.7-0.8,1.6-0.9,2.4
	c-1,1-2,1.9-2.7,3.1C27.9,27.9,27.7,28,27.5,27.9z"/>
<path class="st73" d="M39.5,15.5c-0.6,0-1.1,0-1.7-0.2c-1-0.2-1.9,0.3-2.8,0.3c-0.2,0-0.5,0-0.7,0.1c0.1-1.7,2.5-3.3,4.3-2.9
	c0.3,0.1,0.6,0.1,0.9,0.1C39.5,13.8,39.5,14.7,39.5,15.5z"/>
<path class="st74" d="M26.7,47.1c-0.4,0.3-0.8,0.5-1.3,0.8c-0.3-0.7-0.8-1.2-1.3-1.7c-1.3-1.4-2.6-2.9-2.9-4.9
	c0-0.3-0.3-0.3-0.5-0.3c-0.3,0-0.6-0.1-0.9-0.3c2.4-0.1,4.9,0.1,7.3,0.3c0.2,0.3,0,0.7,0,1c-0.2,1.3-0.3,2.5-0.2,3.8
	C26.9,46.2,26.9,46.7,26.7,47.1z"/>
<path class="st36" d="M33.3,58.9c-0.2,1.1-0.5,2.1-0.9,3.1c-0.4-0.4-0.2-0.9-0.2-1.4c-1.7,0-3.4,0.2-5.1-0.4
	C26,60,24.9,59.7,24,58.7c-0.3-0.6-1.1-0.6-1.4-1.2c0.2-1.2,0.9-2.1,1.1-3.3c-0.8,0.1-1.4,0.3-2.1,0.5c-0.4,0.1-0.8,0.3-1.3,0.1
	c0-0.1,0-0.1-0.1-0.2c-0.5-1-0.5-1,0.6-1.1c0.1,0,0.2-0.1,0.4-0.2c0.7-0.5,1.5-0.8,2-1.6c0.2-0.1,0.3,0.1,0.4,0.2
	c1.7,3.3,4.5,5.2,8,6c0.4,0.1,0.8,0.2,1.2,0.4C33.2,58.5,33.5,58.6,33.3,58.9z"/>
<path class="st75" d="M33.3,58.9c-0.3-0.6-0.9-0.6-1.4-0.7c-2-0.4-3.8-1.2-5.4-2.4c-1.4-1.1-2.6-2.4-3.2-4.1
	c-0.3-0.4-0.5-0.8-0.8-1.2c0.6,0,1.1-0.5,1.7-0.6c0.5-0.2,0.8,0.2,1,0.5c1.6,3.3,4.3,5.1,7.9,5.7c0.8,0.1,0.7,0.7,0.6,1.3
	C33.6,58,33.6,58.5,33.3,58.9z"/>
<path class="st76" d="M13.4,40.1c-0.6,0.2-1.2,0.1-1.8,0.3c-0.9-0.3-1.5-1.7-1.4-2.9c0.2-1.7,1-3.1,2.2-4.2c0.6-0.5,1.4-0.8,2.1-1.2
	c0.3,0.3,0.2,0.6,0.1,0.9c-0.5,2.1-0.6,4.1-0.1,6.2c0.1,0.6,0,0.9-0.7,0.8C13.7,40,13.5,40,13.4,40.1z"/>
<path class="st77" d="M13.4,40.1c0.1-0.1,0.2-0.2,0.3-0.2c0.8,0.1,0.8-0.3,0.6-1c-0.5-2.1-0.4-4.2,0.2-6.3c0.1-0.2,0.1-0.4,0.1-0.6
	c0.5-1,0.9-2,1.4-3c1.1-1.7,2.7-3.1,4.4-4.2c0.1-0.1,0.1-0.1,0.2,0c0.5,0.4,1,0.7,1.6,1.1c-0.1,0.5-0.6,0.6-0.9,0.8
	c-1.9,1.1-3.5,2.5-4.7,4.4c-1.5,2.4-1.5,5-0.7,7.6c0.1,0.3,0.3,0.6,0.1,1C15.2,40,14.3,40.1,13.4,40.1z"/>
<path class="st78" d="M20.4,54.8c1.2-0.3,2.5-0.6,3.9-0.9c-0.6,1.3-0.9,2.6-1.6,3.7c-0.3,0.2-0.5,0.4-0.7,0.7
	c-0.2,0.7-0.7,1-1.5,0.8c-0.3-0.1-0.7,0-1-0.2c-0.4-0.5-0.6-1.1-0.8-1.7c-0.1-0.3-0.2-0.6,0.3-0.7c0.4-0.2,0.5-0.5,0.7-0.8
	C19.9,55.3,20.2,55,20.4,54.8z"/>
<path class="st79" d="M19,56.4c-0.3,0.5,0.1,0.9,0.3,1.4c0.1,0.3,0.2,0.6,0.3,0.9c0.6,0.3,1.2,0.3,1.8,0.3c0.5,0,0.7,0.2,0.3,0.6
	c-0.3,0.3-0.1,0.8-0.4,1.1c-0.2-0.1-0.4-0.3-0.5,0c-0.5-0.2-1-0.4-1.5,0.1c-0.1,0.1-0.3,0.2-0.5,0.2c-0.9-0.3-1.8-0.7-2.2-1.7
	c-0.4-1-0.1-2.3,0.6-2.9c0.4-0.3,0.8-0.6,1,0.2c0.3-0.1,0.2-0.7,0.6-0.6C19,56,19,56.2,19,56.4z"/>
<path class="st80" d="M65,31c-0.2-0.9-0.6-1.7-1.2-2.3c-0.3-0.3-0.5-0.6-0.2-1c0.9-0.7,1.3-1.7,1.6-2.8c0,1.3,1,2.1,1.5,3.1
	c0.5,1,1,2,0.9,3.2c-0.7,0.3-1.4,0.4-2.1,0.5C65.2,31.6,64.9,31.4,65,31z"/>
<path class="st81" d="M65.2,24.9c0.1,1.3-0.3,2.3-1.6,2.8c-0.4,0-0.8,0.4-1.2,0c0-0.4,0.3-0.5,0.5-0.8c0.4-0.6,0.4-1.2-0.1-1.7
	c-0.7-0.6-1.1-0.7-1.8-0.1c-0.1,0.1-0.3,0.2-0.5,0.2c0.1-1.4,0.9-2.1,2.8-2.1C64.2,23.4,64.8,24,65.2,24.9z"/>
<path class="st82" d="M68.5,31.4c-0.1-0.2-0.3-0.1-0.5-0.2c0.5-0.2,1-0.3,1.6-0.2C69.2,31.1,68.8,31.2,68.5,31.4z"/>
<path class="st83" d="M64.5,45.8c-0.3-0.3-0.7-0.6-0.7,0.2c-0.5,0.1-1,0.1-1.4-0.4c-0.5-1.1-1.3-2.1-2.3-2.8c-0.7-0.5-1-1.1-0.7-1.9
	c0.3-1,0-2-0.3-3c-0.2-0.5-0.3-1-0.5-1.5c-0.1-0.3-0.2-0.7,0.1-1c0.6-0.3,1.2-0.7,1.9-0.9c0.1,0.8,0.7,1.4,0.8,2.2
	c0.1,0.8,0.6,1.4,0.6,2.2c0,0.8,0,1.7,0,2.5c0,0.5,0.2,0.9,0.6,1.2C63.7,43.4,64.1,44.6,64.5,45.8z"/>
<path class="st84" d="M31.9,64.1c0.1,0.1,0.2,0.2,0.3,0.2c-0.3,0.8-0.6,1.6-0.9,2.4c0,0.1-0.1,0.1-0.1,0.2c0,0-0.1,0-0.1,0
	s-0.1,0-0.1,0C31.3,66,31.6,65.1,31.9,64.1z"/>
<path class="st85" d="M21.3,60.7c0-0.5-0.5-1.2,0.6-1.4c-0.7-0.3-1.1-0.1-1.6-0.2c-0.3,0-0.6,0-0.8-0.4c0.9,0.1,1.8,0.4,2.4-0.5
	c0.7,0.7,0.6,1.6,0.4,2.4c0,0.3-0.2,0.6-0.3,0.9C21.6,61.4,21.5,61,21.3,60.7z"/>
<path class="st86" d="M41.9,52.7c0.6,1.4,1.1,2.7,1.4,4.2c-0.9,0.2-1.6-0.4-2.4-0.7c-0.6-0.2-1-0.3-1.5,0.2
	c-0.5,0.5-1.2,0.8-1.6,1.4c-0.8-0.3-1.7-0.3-2.5,0.2c-0.2,0.1-0.3,0.3-0.5,0c0.5-1.2,1-2.5,1.6-3.6c0.6-0.5,1.3-0.1,2-0.4
	c0.9-0.3,1.9-0.6,2.7-1.1C41.4,52.6,41.7,52.4,41.9,52.7z"/>
<path class="st87" d="M37.8,57.7c-0.1-0.4,0.2-0.6,0.5-0.9c0.4-0.3,0.8-0.6,1.2-1c0.4-0.3,0.7-0.4,1.1-0.2c0.9,0.5,1.8,0.8,2.7,1.1
	c0.2,0.9,0.4,1.7,0.6,2.6c-0.1,0.4-0.4,0.4-0.7,0.3c-1.1-0.3-2.3-0.5-3.4-1c-0.3,0.1-0.5-0.1-0.7-0.4C38.8,58.1,38.3,57.8,37.8,57.7
	z"/>
<path class="st88" d="M39.2,58.4c0.3,0,0.5,0.2,0.7,0.4c0.3,0.4-0.5,0.3-0.3,0.7c0.1,1.1-0.3,1.9-1.2,2.5c-1.1,0.6-1.6,0.4-1.6-0.9
	c-0.3,0.2-0.3,0.4-0.3,0.7c-0.8-0.2-1.3-0.9-1.2-1.7c0.1-1,0.8-1.9,1.6-1.9c0.5,0,1.1-0.2,1.7,0.2C38.6,58.4,39,58.4,39.2,58.4z"/>
<path class="st89" d="M32.1,16.6c-0.5,0.4-1,0.8-1.5,1.2c-1.5,1.2-2.5,2.7-3,4.5c-0.2,0.9-0.6,1.4-1.7,1.3c-1.7-0.1-3.3,0.4-4.8,1.2
	c-0.1,0-0.2,0-0.3,0c-0.4-0.2-0.9-0.2-1.1-0.7c0.4-0.7,1.5-1,1.4-2.1c1.4-0.1,0.6-1.1,0.8-1.8c0.4-0.1,0.5,0.3,0.7,0.5
	c0.3,0.2,0.5,0.5,0.9,0.5c1.1,0.2,1.9-0.2,2.4-1.1c0.4-0.8,0.3-1.5-0.2-2.2c-0.1-0.2-0.3-0.3-0.2-0.6c1.7,0.8,3.1-0.3,4.7-0.7
	C30.9,16.5,31.5,16.5,32.1,16.6z"/>
<path class="st90" d="M25.6,17.3c0.7,0.9,1.2,1.8,0.5,3c-0.3-0.3-0.3-0.7-0.5-1c-0.5-0.8-1.4-1.1-2.1-0.6c-0.8,0.5-0.9,1.5-0.3,2.2
	c0.1,0.2,0.4,0.3,0.3,0.6c-0.8,0-1.1-0.8-1.6-1.2c-0.5-2,0.6-3.6,2.4-3.5C24.9,16.8,25.2,17.1,25.6,17.3z"/>
<path class="st91" d="M19.7,24.1c0.4,0.2,0.7,0.4,1.1,0.7c-0.1,0.1-0.1,0.1-0.2,0.2c0,0-0.1,0-0.1,0s-0.1,0-0.1,0
	C20,24.6,19.5,24.3,19,24C19.3,23.9,19.5,24.1,19.7,24.1z"/>
<path class="st92" d="M24,58.7c1.4,0.7,2.8,1.4,4.4,1.6c1.3,0.2,2.6,0,4,0.1c-0.1,0.5-0.1,1-0.1,1.6c-0.1,0.7-0.3,1.3-0.6,1.9
	c-1.2-0.2-2.2-0.5-3.3-1.1c-0.5-0.3-0.9-0.5-1.3-0.8c-0.6-0.3-1.1-0.7-1.4-1.4c-0.1-0.4-0.4-0.7-0.8-0.8
	C24.5,59.8,24.1,59.4,24,58.7z"/>
<path class="st93" d="M46.5,46.9c-0.7-0.6-1.4-1.3-2.1-1.9c-0.1-0.1-0.2-0.2-0.3-0.3c-0.4-0.3-0.9-0.5-1.4-0.2
	c-0.4,0.3-0.2,0.7-0.2,1.1c0.1,1.9,0.3,3.7,0.5,5.6c0,0.3,0.1,0.6-0.2,1c-0.2-1.4-0.6-2.6-1.1-3.7c-0.3-0.7-0.6-1.5-1-2.2
	c-0.2-0.4-0.5-0.9-1.1-0.9c-0.6,0-0.6,0.6-0.9,1c-1.1,2.1-2,4.4-2.9,6.6c-0.1-0.6,0.1-1.3,0.3-1.8c0.7-1.9,0.9-3.9,1.3-5.9
	c0.3-1.5-0.3-1.8-1.8-1.4c-1.8,0.5-3.4,1.5-5.2,2.2c-0.4,0.1-0.5,0-0.3-0.3c1.9-1.2,3.6-2.6,5.4-3.9c0.2-0.2,0.5-0.5,0.4-0.8
	c-0.1-0.3-0.5-0.5-0.9-0.5c-2.2-0.1-4.5-0.5-6.7-0.4c-0.5-0.1-1.1-0.2-1.6-0.2c-0.3,0-0.7,0-0.5-0.5c1.6-0.2,3.2-0.4,4.8-0.6
	c0.9-0.2,1.9-0.3,2.8-0.4c1.1-0.1,1.7-0.9,1.3-2c-0.6-1.5-1.7-2.6-2.9-3.6c-0.6-0.5-1.2-1.1-1.8-1.6c0.3-0.3,0.5,0,0.7,0.1
	c2.2,1.3,4.3,2.7,6.7,3.7c0.8,0.4,1.2,0.2,1.5-0.6c0.5-1.5,0.6-3,0.6-4.5c0.2-1.4,0.3-2.9,0.3-4.3c0-0.2-0.2-0.7,0.4-0.5
	c0.3,2.6,0.2,5.2,0.7,7.8c0.1,0.6,0.2,1.4,0.8,1.6c0.6,0.2,1.1-0.5,1.6-0.9c1.9-1.8,3.8-3.6,5.8-5.4c0.1-0.1,0.3-0.2,0.6-0.1
	c-1,1.3-1.9,2.5-2.9,3.7c-0.8,1.1-1.8,2.1-2.1,3.5c-0.2,0.9,0.2,1.4,1.1,1.4c1.5,0.1,2.8-0.3,4.3-0.6c1.7-0.3,3.3-0.8,5.1-1
	c-1.3,0.5-2.6,1-3.9,1.5c-1.8,0.8-3.6,1.7-5.3,2.8c-0.7,0.5-0.6,1,0.1,1.4c1.6,0.9,3.4,1.2,5,1.9c-0.1,0.2-0.4,0.2-0.5,0.1
	c-1.1-0.5-2.3-0.2-3.4-0.3c-0.6,0-1.2,0.3-1.7,0.5c-0.5,0.1-0.6,0.8-0.3,1.2c0.5,0.7,0.8,1.6,1.5,2.2c0.1,0.1,0.1,0.2,0,0.3
	C46.8,47,46.7,47,46.5,46.9z"/>
<path class="st94" d="M16.1,39.8c-0.5-1.3-0.9-2.7-0.9-4.2c0-2.8,1.2-5,3.1-6.9c1.1-1.1,2.5-1.9,3.9-2.7c0.5,0.2,0.9,0.6,1.4,0.9
	c-1.1,1.1-2.2,2.3-3.1,3.7c-1.4,2.4-2.4,5-2.3,7.9c0,0.4,0.1,0.7,0.3,1.1C17.7,39.6,16.9,39.8,16.1,39.8z"/>
<path class="st95" d="M18.5,39.5c-0.4,0-0.5-0.2-0.5-0.6c-0.1-3.2,0.8-6,2.5-8.6c0.7-1.1,1.5-2.1,2.4-2.9c0.2-0.2,0.4-0.4,0.7-0.4
	c0.6,0.4,1.3,0.9,1.9,1.3c0.2,0.5,0,0.9-0.4,1.2c-2,1.7-2.9,3.9-3.5,6.4c-0.2,0.9-0.5,1.8-0.1,2.7c0.2,0.5-0.3,0.5-0.6,0.6
	C20,39.3,19.2,39.3,18.5,39.5z"/>
<path class="st96" d="M65,31c0.2,0.2,0.3,0.5,0.5,0.7c-2.1,0.6-4.3,1.1-6.4,1.6c-0.4-0.7-0.2-1.5-0.4-2.3c-0.4-2.4-1.3-4.4-3.2-6
	c-0.3-0.2-0.6-0.4-0.7-0.8c0.8-1.2,1.8-2.4,2.8-3.5c0.3,0.9,0.9,1.7,1.1,2.7c0.1,1.5,0.4,2.9,0.1,4.4c-0.1,0.4,0.3,0.3,0.5,0.3
	C61.4,28.7,63.3,29.6,65,31z"/>
<path class="st97" d="M54.9,24.2c2.8,1.9,4,4.7,4.2,7.9c0,0.4,0,0.8,0,1.1c-1.1,0.3-2.3,0.5-3.5,0.6c-0.6,0.2-0.9-0.2-1-0.6
	c-0.6-1.6-1.4-3-2.6-4.2c-0.3-0.3-0.6-0.8-0.2-1.2c0.3-0.4,0.6-0.7,0.9-1.1c0.4-0.3,0.7-0.1,0.9,0.1c1.4,1.1,2.4,2.4,3.1,4.1
	c-0.2-1.9-0.7-3.7-2.3-5.1c-0.2-0.2-0.4-0.4-0.4-0.7C54.2,24.8,54.5,24.5,54.9,24.2z"/>
<path class="st98" d="M33.6,57.5c0.1-0.7-0.2-1-1-1.1c-2.2-0.4-4.2-1.3-5.8-3.1c-0.7-0.9-1.5-1.7-1.9-2.7c-0.1-0.3-0.4-0.6-0.8-0.6
	c1-0.6,2.1-1,3.1-1.4c0.3,0.1,0.4,0.3,0.5,0.5c1.1,2,2.7,3.4,4.8,4.3c0.3,0.1,0.7,0.1,1,0.2c0.4,0.1,0.8,0.3,0.6,0.9
	C34.2,55.6,34,56.6,33.6,57.5z"/>
<path class="st99" d="M27.5,27.9c0.9-1.2,1.7-2.4,3-3.3c0.8-0.9,1.8-1.2,2.9-1.3c0.6,0,1.3,0.1,1.9,0c1.2-0.2,2.2,0.5,3.3,0.8
	c0.3,0.1,0.4,0.4,0.4,0.7c-0.2,0.4-0.6,0.3-1,0.4c-2.7,0.2-4.7,1.5-5.9,3.9c-0.2,0.4-0.4,0.7-0.9,0.4C29.9,29.1,28.7,28.6,27.5,27.9
	z"/>
<path class="st100" d="M62.6,45.5c0.3,0.4,0.8,0.5,1.2,0.5c0,0.1,0,0.1,0,0.2c-0.6-0.1-0.9,0.2-0.9,0.8c0,3.5-2,5.4-5,5.9
	c-0.7,0.1-1.4,0-2-0.2c-0.6-0.2-1.2-0.3-1.8-0.3c0-0.5,0.3-0.5,0.6-0.6c2.5-0.7,3.8-2.7,4.8-4.9c0.2-0.5-0.1-1.1,0.3-1.6
	c0.7,0,1.4,0.5,2.1,0.1C62.1,45.3,62.3,45.3,62.6,45.5z"/>
<path class="st101" d="M52.6,22.9c0.3,0.5,0.8,0.3,1.2,0.5c-0.3,0.3-0.7,0.6-1,0.9c-0.3,0.1-0.7,0.2-1,0.1c-1.6-0.5-3.2-0.4-4.7-0.1
	c1.2,0,2.3,0.3,3.4,0.8c0.3,0.1,0.6,0.2,0.5,0.7c-0.5,0.4-0.9,0.7-1.4,1.1c-0.3,0.2-0.7,0.2-1.1,0.1c-1.9-0.4-3.8-0.4-5.6,0.1
	c-0.6,0.2-0.9,0-1.1-0.6c-0.2-0.4-0.2-0.9-0.3-1.4c1.6-1.2,3.4-2.2,5.4-2.5C48.8,22.1,50.8,22,52.6,22.9z"/>
<path class="st102" d="M53.9,57c-1.9,1.6-4.3,2.2-6.7,2.6c-0.9,0.2-1.7,0.1-2.6,0.2c0-1.1,0-2.1-0.1-3.2c-0.1-0.6,0.3-0.4,0.6-0.4
	c0.8,0.2,1.6,0.2,2.3-0.2c1.3-0.1,2.4-0.7,3.6-1.2c0.5-0.2,1-0.4,1.4,0.1C53,55.7,53.5,56.3,53.9,57z"/>
<path class="st103" d="M52.6,22.9c-1.2-0.1-2.5-0.4-3.7-0.4c-2,0-3.8,0.8-5.5,1.6c-0.6,0.3-1,1.1-1.8,0.9c-0.3-2-0.6-3.9-0.8-5.9
	c0.1-0.5,0.5-0.3,0.7-0.2c0.7,0.3,1.4,0.6,2.1,1c0,0,0.1,0.2,0.2,0.1c0,0,0-0.2,0-0.2c0.7,0.3,1.2,0.8,1.2,1.5
	c0,0.5,0.1,0.6,0.6,0.5c0.7-0.2,1.5-0.5,2.3-0.5C49.6,21.1,51.4,21.3,52.6,22.9z"/>
<path class="st104" d="M31.2,29.5c0.2,0,0.5,0,0.6-0.3c1.4-3.1,3.9-4.3,7.1-4.3c0.2-0.1,0.3-0.1,0.5,0c0.1,0.9-0.2,1.9-0.2,2.8
	c-0.5,0.4-1,0.3-1.6,0.5c-1.3,0.3-2.4,0.8-2.9,2.1c-0.2,0.4-0.5,0.6-0.9,0.4C32.9,30.3,31.9,30.1,31.2,29.5z"/>
<path class="st105" d="M20.7,39.1c0.1-0.2,0.6-0.1,0.4-0.6c-0.6-1.4,0-2.7,0.4-3.9c0.6-2.1,1.6-4.2,3.5-5.5c0.3-0.2,0.2-0.7,0.4-0.9
	c0.7,0.5,1.4,0.9,1.9,1.6c0.1,0.3,0,0.6,0,0.9c0,1.1-0.5,2-1.2,2.8c-0.5,0.7-1.3,0.9-2.1,1.1c-1.9,0.7-2.5,1.6-2.4,3.6
	c0,0.3,0.1,0.5-0.1,0.7C21.3,39,21,39.1,20.7,39.1z"/>
<path class="st97" d="M59.8,45.4c0,2.9-1.6,4.9-3.9,6.3C55.3,52,54.5,52,54,52.5c-0.7,0-1.4,0-2.1,0c-0.3-0.3-0.4-0.7-0.6-1
	c-0.2-0.6,0.4-0.5,0.7-0.6c1.5-0.3,2.7-0.9,3.8-2c0.9-0.9,1.4-1.9,1.6-3.1c0.1-0.4,0.2-0.8,0.8-0.6C58.7,45.1,59.3,45.2,59.8,45.4z"
	/>
<path class="st106" d="M26.7,47.1c-0.1-1.7-0.1-3.4,0.2-5.1c0.1-0.4,0.2-0.7,0.3-1.1c1.7-0.1,3.3,0.2,4.8,0.7
	c0.8,0.2,0.9,0.4,0.3,1.1c-0.9,1-1.9,1.8-3,2.6c-0.4,0.2-0.5-0.1-0.5-0.3c-0.1-0.3-0.2-0.7-0.1-1c-0.2,0.7-0.1,1.5-0.5,2.2
	C27.6,46.5,27.1,46.8,26.7,47.1z"/>
<path class="st107" d="M41.8,26.3c0.3,0.2,0.4,0.6,0.9,0.4c2.1-0.7,4.2-0.6,6.3-0.1c0.2,0,0.5,0.1,0.7,0.1c-1.5,1.3-3.2,2.5-5,3.4
	c-0.9,0.5-1.5,0.1-2.1-1.1C42.1,28.2,41.8,27.3,41.8,26.3z"/>
<path class="st108" d="M51.8,27.7c-0.1,0.5,0.2,0.9,0.5,1.3c1.1,1.1,1.9,2.4,2.4,3.8c0.2,0.5,0.3,0.9,0.9,1
	c-0.9,0.4-1.9,0.3-2.8,0.3c-0.5,0-0.9-0.1-1.1-0.5c-0.5-1-1.1-1.8-1.7-2.7c-0.2-0.2-0.4-0.5-0.2-0.8C50.4,29.3,51,28.5,51.8,27.7z"
	/>
<path class="st109" d="M27.2,30.5c0-0.3,0-0.6,0.2-0.9c1.5,1,2.7,2.3,3.6,3.9c0.9,1.6,0.4,3.1-1.1,3.4c-1.6-1.3-2.5-3-2.6-5
	C27.1,31.5,27,31,27.2,30.5z"/>
<path class="st110" d="M54.5,45c0.6,0,1.3,0,1.9,0c0.2,0.2,0.1,0.5,0,0.7c-0.9,2-2.3,3.8-4.2,4.9c-0.4,0.2-0.8,0.4-1.2,0.3
	c-0.3-0.6-0.7-1.2-0.9-1.9c-0.1-0.5,0.2-0.7,0.6-0.9c1.2-0.6,2.3-1.4,2.8-2.7C53.7,45,54.2,45.2,54.5,45z"/>
<path class="st110" d="M30.1,47.6c1.1-0.4,2.3-0.8,3.5-0.7c1,0,1.3,0.3,1.3,1.3c0,1.1,0,2.1,0,3.2c-0.1,0.4-0.3,0.6-0.8,0.4
	c-1.8-0.8-3.1-2-4.1-3.7C30,48,30,47.8,30.1,47.6z"/>
<path class="st111" d="M34.8,18.5c-1.7,0.3-3.3,1-4.7,2c0.1-0.6,1-1.7,1.9-2.4c2.1-1.6,4.5-2.4,7.1-1.6c0.1,0,0.3,0,0.4,0
	c0,0.6,0,1.3,0,1.9c-0.1,0.1-0.2,0.1-0.3,0.2c-1.4-0.2-2.7,0.1-4.1-0.2C35.1,18.4,34.9,18.4,34.8,18.5z"/>
<path class="st112" d="M39.4,18.5c0,0,0.1,0,0.1,0c0.1,2.2-0.1,4.3-0.2,6.4c-0.2,0-0.3,0-0.5,0c0-0.2,0-0.6-0.3-0.6
	c-1.1,0-1.8-1.1-2.9-0.8c-0.8,0.2-1.6,0-2.4,0c-0.1-0.1-0.1-0.3,0-0.4c1.3-1.2,2.7-2.3,4.5-2.6c1.2-0.2,1.2-0.2,1.4-1.5
	C39.2,18.8,39.2,18.7,39.4,18.5z"/>
<path class="st113" d="M55.1,37.1c1-0.5,1.9-1.1,3-1.4c0.3,0.1,0.2,0.4,0.1,0.6c-0.1,0.4-0.4,0.8-0.6,1.2c-0.4,0.6-0.3,1.1,0.2,1.6
	c1.3,1.3,1.9,2.9,2.3,4.6c0,0.4,0.1,0.8-0.2,1.1c-0.7,0-1.3-0.4-1.9-0.5c-0.5-0.7-0.5-1.7-0.7-2.5c-0.3-1.3-1-2.4-1.7-3.5
	C55.2,37.9,54.7,37.6,55.1,37.1z"/>
<path class="st114" d="M55.1,37.1c0,0.3,0.1,0.5,0.3,0.8c0.9,1.1,1.6,2.4,1.9,3.8c-0.3,0.4,0,0.9-0.1,1.3c-0.1,0.4-0.1,0.9-0.7,0.8
	c-0.4,0-0.7-0.2-1-0.4c-0.4-0.3-0.5-0.7-0.6-1.1c-0.2-1-0.6-1.9-1.3-2.6c-0.3-0.4-0.7-0.8-0.6-1.4C53.6,37.8,54.3,37.5,55.1,37.1z"
	/>
<path class="st115" d="M41.9,52.7c-1.1,0.4-2.1,1.1-3.3,1.4c-0.8,0.2-1.5,0.1-2.2,0.2c0.4-1.3,1.1-2.5,1.8-3.6
	c0.5-0.7,1.4-0.8,2.1-0.2C41.1,51,41.6,51.8,41.9,52.7z"/>
<path class="st116" d="M59.8,43.6c-0.5-1.1-0.6-2.4-1.5-3.4c-0.3-0.3-0.5-0.6-0.8-0.9c-0.6-0.6-0.7-1.2-0.2-1.9
	c0.4-0.5,0.7-1,0.7-1.7c0.2-0.2,0.4-0.3,0.7-0.3c-0.1,0.8,0.3,1.4,0.6,2.1c0.4,1.2,0.7,2.4,0.3,3.7c-0.2,0.5,0,0.9,0.5,1.2
	c1.1,0.8,2,1.8,2.5,3.1c-0.2,0-0.5,0-0.7,0c-0.1,0-0.2,0-0.3,0C61.1,44.6,60.2,44.3,59.8,43.6z"/>
<path class="st117" d="M52.9,38.3c0.2,0.8,1,1.3,1.4,2c0.6,0.9,0.6,2,1.1,3c-1.4-0.5-2.8-0.9-4.1-1.7c-1.1-0.7-1.2-1.1-0.3-2
	C51.6,39.1,52.2,38.6,52.9,38.3z"/>
<path class="st118" d="M33.8,30.7c0.3,0,0.6,0,0.7-0.4c0.4-1.5,1.6-2,2.9-2.3c0.6-0.1,1.2-0.3,1.8-0.3c-0.1,1-0.1,2-0.6,2.9
	c-0.6,1-1.6,1.2-2.6,0.8C35.2,31.1,34.5,31,33.8,30.7z"/>
<path class="st119" d="M44.4,52.8c0-1,0-2,0-3c0.1-0.1,0.1-0.3,0.1-0.4c0.5-1.1,1-1.3,1.8-0.3c0.9,1,2,1.9,3.3,2.3
	c0.2,0.2,0.4,0.5,0.5,0.7c-0.1,0.2-0.4,0.2-0.6,0.2c-0.8,0-1.2,0.4-1.3,1.2c-0.6,0.1-0.7-0.7-1.2-0.7c-0.6-0.3-1.1-0.3-1.7,0
	C45.1,53,44.8,53.1,44.4,52.8z"/>
<path class="st120" d="M34.3,54.6c-0.1-0.4-0.4-0.6-0.8-0.7c-1.5-0.2-2.7-1-3.8-2c-1-0.9-1.9-1.9-2.4-3.2c0.3-0.1,0.7-0.3,1-0.4
	c0.4-0.1,0.6,0.2,0.7,0.5c1.1,1.9,2.7,2.9,4.9,3.3c0.4,0.1,0.9,0.1,0.7,0.8C34.7,53.4,34.6,54,34.3,54.6z"/>
<path class="st121" d="M21.6,38.9c-0.1-0.5-0.2-1-0.2-1.5c0-1.5,1-2.7,2.6-3c0.7-0.2,1.4-0.1,2.1,0.2c0.4,0.2,0.7,0.4,0.6,0.8
	c-0.2,0.3-0.6,0.2-0.9,0.3c-1.2,0.1-1.7,0.6-1.9,1.8c-0.1,0.4-0.1,0.8-0.4,1.1C22.9,38.9,22.3,38.9,21.6,38.9z"/>
<path class="st103" d="M48.3,53.5c-0.1-1.3,0.1-1.4,1.9-1.4c0.8,0.9,1.6,1.9,2.3,3c-0.5-0.3-0.9-0.1-1.4,0.1
	c-1.1,0.5-2.2,1.2-3.6,1.1c0-0.1,0-0.1,0-0.2C48.1,55.4,48.1,54.4,48.3,53.5z"/>
<path class="st122" d="M51,50.9c2.8-1.1,4.4-3.2,5.4-5.9c0.6,0.1,1.2-0.2,1.7,0.2c-0.3,0-0.5,0.1-0.5,0.5c-0.3,2.8-2.9,5-5.6,5.4
	c-0.3,0-0.6-0.1-0.7,0.4C51.2,51.3,51.1,51.1,51,50.9z"/>
<path class="st123" d="M26.7,35.4c-0.3-1-1.3-0.7-1.9-1c-0.2-0.1-0.4,0-0.7,0c0.7-0.1,1.5-0.4,1.8-0.8c0.5-0.7,1.2-1.4,1.2-2.4
	c0-0.2,0-0.4,0.2-0.5c0.1,1.8,0.4,3.5,1.6,5c0.4,0.5,0.8,0.9,1.1,1.4c-0.7,0.4-1.3,0.6-2.1,0.7C27.3,36.9,27.1,36.1,26.7,35.4z"/>
<path class="st124" d="M58.7,23.4c-0.5-0.8-1.2-1.6-1.1-2.7c0-0.1,0-0.2,0-0.4c0-0.1,0.1-0.2-0.1-0.3c-0.1,0-0.2-0.1-0.2-0.2
	c1.1-0.6,2.2-0.6,3.1,0.3c0.6,0.6,0.4,1.4,0.1,2.1C60.3,23.1,59.6,23.5,58.7,23.4z"/>
<path class="st125" d="M26.7,35.4c0.7,0.6,1,1.4,1,2.3c-1.4,0.4-2.7,0.8-4.2,0.9c0.1-0.5,0.1-1,0.2-1.5c0.2-1,1-1.7,2-1.7
	C26,35.4,26.3,35.4,26.7,35.4z"/>
<path class="st126" d="M54.5,45c-0.5,0.2-0.8,0.5-1,1c-0.4,1-1.3,1.6-2.3,2.1c-0.4,0.2-0.9,0.4-1,0.9c-0.1-0.2-0.3-0.4-0.4-0.7
	c-0.4-1.5-0.8-2,1.1-2.7C52.1,45.2,53.3,44.9,54.5,45z"/>
<path class="st127" d="M34.7,52.8c0-0.3,0-0.5-0.4-0.5c-2.4-0.3-4.3-1.4-5.4-3.6c-0.1-0.2-0.3-0.3-0.4-0.4c0.6-0.2,1.2-0.5,1.8-0.7
	c0.8,2,2.4,3.2,4.2,4.1c0.3,0.2,0.5-0.1,0.6-0.3C34.9,51.9,34.9,52.4,34.7,52.8z"/>
<path class="st128" d="M54,25.1c1.3,1.3,2.3,2.8,2.7,4.6c0.1,0.5,0.1,1.1,0,1.7c-0.5-1.1-1.1-2.2-1.9-3c-0.6-0.7-1.2-1.5-2.2-1.7
	C53.1,26.2,53.6,25.6,54,25.1z"/>
<path class="st129" d="M48.3,53.5c0.4,1.1,0,2-0.7,2.8c-0.8,0.5-1.7,0.5-2.6,0.1c-0.3-0.1-0.4,0-0.4,0.2c-0.2-0.3-0.1-0.6-0.1-0.9
	c0.2-0.4-0.2-1.1,0.2-1.3c0.4-0.3,0.8,0.2,1.3,0.3c0.8,0.1,1.5-0.5,1.4-1.4c0-0.2-0.2-0.5-0.1-0.7C47.8,52.6,48,53.2,48.3,53.5z"/>
<path class="st130" d="M49.8,30.2c0.6,1.3,1.6,2.3,2.2,3.6c0.1,0.3,0.6,0.1,0.8,0.4c-1,0.4-2.1,0.1-3-0.3c-1-0.5-1.1-1.8-0.4-3.1
	C49.5,30.5,49.7,30.4,49.8,30.2z"/>
<path class="st131" d="M47.2,52.6c0.3,0.6,0.6,1.2,0,1.9c-0.9,0.9-1.7,0.4-2.5,0c-0.2,0.4,0.1,0.9-0.2,1.3c0-1,0-2,0-2.9
	c0.3,0,0.5,0,0.8-0.2C45.9,52.2,46.6,52.2,47.2,52.6z"/>
<path class="st132" d="M51,25.6c-0.7-0.7-1.7-0.8-2.6-1c-0.7-0.2-1.4-0.2-2.3-0.2c0.7-0.7,1.5-0.6,2.2-0.7c1.2-0.1,2.5-0.1,3.7,0.4
	c0.3,0.1,0.6,0.1,0.8,0.1C52.2,24.7,51.6,25.2,51,25.6z"/>
<path class="st133" d="M49.6,51.4c-1.4,0.1-2.2-0.9-3-1.7c-1.2-1.2-1.2-1.3-2.2,0.2c0-0.3,0-0.6,0-0.9c0-0.4,0-0.9,0.5-1.1
	c0.4-0.2,0.9-0.1,1.3,0.2C47.6,49,48.6,50.2,49.6,51.4z"/>
<path class="st134" d="M43.7,19.7c0.1,0.2,0.3,0.4,0.5,0.7c-0.9-0.5-1.6-0.9-2.4-1.2c-0.3-0.2-0.7-0.5-1.1-0.2
	c-0.3-0.7,0-1.4-0.3-2.1C41.7,17.7,42.9,18.5,43.7,19.7z"/>
<path class="st135" d="M26.3,39.6c0.1,0.4,0.4,0.3,0.6,0.3c0.5,0,1,0.1,1.4,0.3c-2,0-4,0.2-5.9-0.3C23.8,40.2,25,39.4,26.3,39.6z"/>
<path class="st136" d="M40.6,25.1c-0.5,0.1-0.3,0.5-0.3,0.9c0,1.4,0,2.7-0.3,4c0.2-2.3,0.1-4.6,0.2-7.1
	C40.8,23.7,40.5,24.4,40.6,25.1z"/>
<path class="st100" d="M59.8,43.6c0.7,0.2,1,1,1.8,1.3c0.3,0.1-0.1,0.4,0,0.6c-0.6-0.2-1.2-0.4-1.7-0.6C59.8,44.4,59.8,44,59.8,43.6
	z"/>
<path class="st137" d="M28,46.2c-0.1-1,0.3-2,0.5-3c0.3,0.7-0.1,1.6,0.7,2.1C29,45.8,28.4,45.9,28,46.2z"/>
<path class="st138" d="M56.5,43.8c0.8-0.3,0.4-1,0.5-1.5c0.1-0.2-0.4-0.7,0.3-0.6c0.2,0.9,0.3,1.7,0.5,2.6
	C57.4,44.1,56.9,44.1,56.5,43.8z"/>
<path class="st139" d="M22.8,25.7c1-0.2,1.9-0.7,3.1-0.8c-0.5,0.6-1.4,0.8-1.8,1.5C23.6,26.1,23.2,25.9,22.8,25.7z"/>
<path class="st140" d="M30.1,45.9c0,0.2,0.1,0.3,0.3,0.3c-0.8,0.5-1.6,1.2-2.6,1.4c0-0.1-0.1-0.1-0.1-0.2
	C28.6,46.9,29.4,46.4,30.1,45.9z"/>
<path class="st141" d="M54.4,56.8c0.3-0.5,0.8-0.8,1.3-1.3c0,0.9-0.9,1.4-0.8,2.2C54.7,57.4,54.5,57.1,54.4,56.8z"/>
<path class="st142" d="M46.5,46.9c0.2,0,0.3-0.1,0.3-0.3c0.5,0.6,1.1,1.1,1.2,2C47.6,48,47,47.5,46.5,46.9z"/>
<path class="st143" d="M60.5,25.3c0.4-0.4,0.7-1.1,1.5-0.8c0.6,0.2,1.3,0.6,1.4,1.4c0.2,0.9-0.5,1.3-1,1.9
	C61.2,27.5,60.5,26.6,60.5,25.3z"/>
<path class="st144" d="M39.4,18.5c0,0.1,0,0.1,0,0.2c0,2,0.3,1.7-1.8,2.1c-1.1,0.2-2.2,0.7-3,1.5c-0.4,0.4-0.9,0.8-1.3,1.2
	c-1.1,0-1.9,0.6-2.8,1.1c0.2-2.9,2.5-4.1,4.5-5.5c0.2-0.1,0.5,0,0.5-0.3c0-0.3-0.4-0.3-0.6-0.3C36.4,18.2,37.9,18.3,39.4,18.5z"/>
<path class="st145" d="M23.5,21.4c-1-0.9-1.2-1.3-0.8-2.2c0.3-0.8,1.1-1.3,1.9-1.1c0.8,0.1,1.4,1,1.5,2.1
	C25.7,21.2,24.4,21.8,23.5,21.4z"/>
</svg>
