<?xml version="1.0" encoding="utf-8"?>
<!-- Generator: Adobe Illustrator 23.1.1, SVG Export Plug-In . SVG Version: 6.00 Build 0)  -->
<svg version="1.1" id="Livello_1" xmlns="http://www.w3.org/2000/svg" xmlns:xlink="http://www.w3.org/1999/xlink" x="0px" y="0px"
	 viewBox="0 0 80 80" style="enable-background:new 0 0 80 80;" xml:space="preserve">
<style type="text/css">
	.st0{fill:#39464E;}
	.st1{fill:#414244;}
	.st2{fill:#DBE5EF;}
	.st3{fill:#1C3A4D;}
	.st4{fill:#DF232E;}
	.st5{fill:#D5E4F1;}
	.st6{fill:#C2CED7;}
	.st7{fill:#FBEC8A;}
	.st8{fill:#FAE157;}
	.st9{fill:#B6CBE1;}
	.st10{fill:#FCCD7D;}
	.st11{fill:#A5BED9;}
	.st12{fill:#CEDBEB;}
	.st13{fill:#88919A;}
	.st14{fill:#9E1F25;}
	.st15{fill:#F8DC31;}
	.st16{fill:#C5D2D9;}
	.st17{fill:#414141;}
	.st18{fill:#F9DB31;}
	.st19{fill:#CEDBE9;}
	.st20{fill:#C2CFD8;}
	.st21{fill:#89949D;}
	.st22{fill:#F7C051;}
	.st23{fill:#CCD9E7;}
	.st24{fill:#F1B433;}
	.st25{fill:#E1EAE2;}
	.st26{fill:#F3B633;}
	.st27{fill:#FAE755;}
	.st28{fill:#8896A6;}
	.st29{fill:#84909C;}
	.st30{fill:#707E89;}
	.st31{fill:#838E9B;}
	.st32{fill:#B4CAE0;}
	.st33{fill:#4C697C;}
	.st34{fill:#4F697C;}
	.st35{fill:#E0E9F1;}
	.st36{fill:#083B55;}
	.st37{fill:#F9F3B1;}
	.st38{fill:#6395B6;}
	.st39{fill:#BDD2EC;}
	.st40{fill:#7391AB;}
	.st41{fill:#7392AB;}
	.st42{fill:#B3CAE2;}
	.st43{fill:#7391AA;}
	.st44{fill:#718FA6;}
	.st45{fill:#3F5563;}
	.st46{fill:#7795AB;}
	.st47{fill:#7692A9;}
	.st48{fill:#9AA0A9;}
	.st49{fill:#9C9FAA;}
	.st50{fill:#788CA2;}
	.st51{fill:#9498A3;}
	.st52{fill:#9BA0AA;}
	.st53{fill:#959CA6;}
	.st54{fill:#1575A3;}
	.st55{fill:#999FA8;}
	.st56{fill:#9A9FA8;}
	.st57{fill:#9BA0A9;}
	.st58{fill:#9DA2AB;}
	.st59{fill:#9BA1AA;}
	.st60{fill:#9DA3AB;}
</style>
<path class="st0" d="M42.8,29.4c0.7,0,1.3,0,2.1,0c0.3,0,0.4,0.1,0.3,0.4c-0.4,4.3-0.9,8.7-1.4,13c-0.3,2.6-0.6,5.3-0.8,7.9
	c0,0.1-0.1,0.1-0.1,0.2c-0.3-0.2-0.2-0.5-0.2-0.7c0-3,0-5.9,0-8.9c0-3.7,0-7.4,0-11.1C42.7,30,42.6,29.7,42.8,29.4z"/>
<path class="st1" d="M37.7,51.3c-0.4-4-0.8-8-1.3-12c-0.3-3.1-0.7-6.3-1-9.4c-0.1-0.4,0.1-0.4,0.4-0.4c0.7,0,1.3,0,1.9,0l0.1,0.1
	c0.1,0.1,0.1,0.3,0.1,0.4c0,1.6,0,3.1,0,4.8c0,0.3,0,0.6-0.3,0.7c-0.1,0-0.1,0.1-0.1,0.1c0.1,0.6-0.2,1.3,0.3,1.9
	c0.1,0.1,0.1,0.4,0.1,0.6c0,4.3,0,8.5,0,12.8C37.8,51,37.9,51.3,37.7,51.3z"/>
<path class="st2" d="M37.8,62.1c0-1.3,0-2.5,0-3.8c0.1-0.1,0.3-0.1,0.5-0.1c0.3,0,0.7,0,1,0c0.4,0,0.5,0.1,0.5,0.5
	c0,0.3,0,0.6,0,0.9c0,1.9-0.1,3.7,0.1,5.5c0,0.4-0.1,0.7-0.1,1c0,0.1-0.1,0.2-0.3,0.2c-0.4,0-0.8,0-1.3,0c-0.2,0-0.4-0.1-0.1-0.3
	c0.2-0.2,0.1-0.5,0.1-0.8c0.1-0.8,0-1.6,0.1-2.5C38.2,62.5,38.1,62.2,37.8,62.1z"/>
<path class="st3" d="M42.8,29.4c0,0.2,0,0.4,0,0.7c0,6.7,0,13.4,0,20.1c0,0.3,0,0.5,0.1,0.8c-0.1,5-0.1,10-0.1,15c0,0.1,0,0.3,0,0.4
	c-0.1,0.1-0.2,0.1-0.4,0c0-0.1,0-0.1,0-0.1c0-2.5,0.1-5,0-7.5c0-0.6,0.1-1.2,0-1.8c0-0.2,0-0.4-0.1-0.5c0.1-0.7,0.1-1.4,0.1-2.1
	c0-0.5-0.2-1-0.1-1.6c0-0.2,0-0.4,0.1-0.6c0.1-0.2,0.1-0.4,0.1-0.7c0-6.9,0-13.7,0-20.6c0-0.8-0.1-1.6-0.1-2.4c0-0.9,0-1.8,0.1-2.7
	c0.1-0.3,0.2-0.1,0.4-0.1C42.8,27,42.8,28.2,42.8,29.4z"/>
<path class="st4" d="M41.7,68.9c-0.7,0.7-2,0.7-2.8,0.1c-0.7-0.7-1.1-1.6-1.2-2.5c0.5-0.1,1,0,1.6-0.1c0.8-0.1,1.3,0.3,1.7,1
	c0.1,0.3,0.4,0.6,0.4,1C41.4,68.5,41.8,68.6,41.7,68.9z"/>
<path class="st5" d="M38.7,27.1c0.2-0.2,0.3-1.2,0.1-1.5c-0.1-0.1-0.1-0.2-0.1-0.4c0-0.3,0.1-0.7-0.4-0.7c-0.1,0-0.1-0.1-0.1-0.1
	c0.1-0.5-0.3-0.4-0.6-0.4c-0.6,0-1.2,0-1.7,0c-0.1,0-0.3,0.1-0.4-0.1c0.2-0.1,0.5-0.1,0.7-0.1c0.5,0,1,0,1.6,0
	c0.2,0,0.3-0.1,0.3-0.3c0-0.1,0-0.4,0.3-0.4c0.3,0,0.3,0.2,0.4,0.4c0.1-0.2,0.1-0.4,0.3-0.4c0.3,0,0.4,0.2,0.4,0.4
	c0.1-0.2,0.1-0.4,0.3-0.4c0.3,0,0.2,0.2,0.3,0.4c0.1-0.2,0.1-0.4,0.4-0.4c0.2,0,0.2,0.1,0.1,0.4c0,0.1-0.1,0.1-0.1,0.2
	c0.1,0.6-0.3,1.2-0.2,1.8c0,0.1,0,0.2-0.1,0.3c-0.4,0.2-0.3,0.6-0.3,0.9c0,0.5,0,1,0,1.5c0,0.4-0.1,0.5-0.5,0.5c-0.1,0-0.2,0-0.3,0
	c-0.8,0-0.9-0.1-0.8-0.9C38.1,27.1,38.1,27.1,38.7,27.1z"/>
<path class="st6" d="M37.8,52.3c0-0.1,0-0.1,0-0.2c0-0.4,0.1-0.7,0.1-1.1c0-4.4,0-8.8,0-13.2c0.2-0.2,0.4-0.2,0.6,0.1
	c0,0.1,0,0.3,0,0.4c0,0.2,0,0.5,0.2,0.7c0.1,0.1,0.1,0.3,0,0.4c-0.2,0.3-0.2,0.7-0.2,1c0,0.3,0,0.6,0,1c0,0.1,0,0,0,0.1
	c0.1,0.4,0.3,0.9,0.1,1.4c-0.2,0.4-0.1,1-0.1,1.6c0,0.2-0.1,0.5,0.2,0.7c0.1,0.1,0.1,0.2,0,0.3c-0.3,0.3-0.2,0.7-0.2,1.1
	c0,0.6-0.1,1.2,0.2,1.6c0.1,0.1,0,0.2-0.1,0.3c-0.3,0.5-0.3,2.1,0,2.6c0.1,0.1,0.1,0.2,0,0.4c-0.3,0.3-0.3,0.7-0.2,1
	C38.2,52.4,38,52.4,37.8,52.3z"/>
<path class="st7" d="M38.2,22c-0.1-0.1-0.1-0.1-0.1-0.3c0.4-0.2,0.6-0.4,0.6-0.9c0-0.3,0.1-0.4,0.4-0.6c0.3-0.1,0.3-0.4,0.3-0.6
	c0-0.6-0.1-1.2,0.1-1.8c0.3-0.4,0.3-0.8,0.4-1.3c0.1-0.1,0.1-0.4,0.3-0.4c0.2,0,0.3,0.2,0.3,0.4c0.1,0.3-0.1,0.6,0.1,0.9
	c0.1,0.7,0.1,1.3,0.2,2c0.1,0.3,0.1,0.6,0.3,0.9c0.1,0.1,0.2,0.1,0.4,0c0.1,0,0.1,0,0.1,0.1c0.1,0.1,0.1,0.3,0.1,0.4
	c0,0.4,0.1,0.7,0.4,1c0,0.1,0,0.1,0,0.1c-0.1,0.1-0.3,0.1-0.4,0.1c-0.2-0.1-0.4,0-0.7-0.1c-0.2-0.1-0.4-0.3-0.4-0.6
	c0-0.1-0.1-0.1-0.1-0.3c-0.1-0.2-0.1-0.5-0.4-0.5c-0.2,0-0.3,0.3-0.4,0.5c-0.1,0.1-0.1,0.2-0.1,0.4c0,0.3-0.1,0.4-0.4,0.4
	c-0.1,0-0.3,0.1-0.4,0.1C38.7,22,38.4,22.2,38.2,22z"/>
<path class="st8" d="M39.6,17.9c0,0.7,0,1.3,0,2c0,0.2,0,0.4-0.3,0.4c-0.3,0.1-0.4,0.3-0.4,0.6c0,0.5-0.3,0.7-0.7,0.7
	c-0.2-0.9-0.2-1.9-0.2-2.8c0-0.1-0.1-0.3,0.1-0.4c0.1,0.1,0.1,0.4,0.1,0.6c0,0.3,0,0.7,0,1c0,0.1,0,0.3,0.1,0.3
	c0.1,0,0.2-0.1,0.2-0.2c0.1-0.2,0.1-0.4,0.1-0.7c-0.1-1,0.1-2.1,0.2-3.1c0.1-0.8,0.3-1.6,0.5-2.4c0.1-0.2,0.1-0.4,0.2-0.6
	c0.1-0.1,0.1-0.2,0.4-0.1c0.2,0.4,0,0.8,0,1.2c0,1-0.3,1.9-0.3,2.9C39.8,17.6,39.7,17.8,39.6,17.9z"/>
<path class="st9" d="M38.7,27.1c-0.1,0.2-0.3,0.1-0.4,0.1c-0.1,0.1,0,0.3,0,0.4c0,0.3-0.1,0.7,0.1,0.8c0.3,0.2,0.7,0.1,1.1,0.1
	c0.2,0,0.1-0.2,0.1-0.4c0-0.7,0-1.3,0-2c0-0.1,0-0.4,0.3-0.4c0.2,0,0.2-0.2,0.2-0.4c-0.1-0.7,0.4-1.2,0.2-1.9c0,0,0.1-0.1,0.1-0.1
	c0.1,0.1,0.1,0.3,0.3,0.4c0.2,0.3,0.1,0.6-0.1,0.8c-0.2,0.3-0.2,0.6-0.1,0.9c0.1,0.3,0.2,0.6,0.2,0.9c0,0.4,0,1,0,1.4
	c0,0.7,0,0.7-0.7,0.8c-0.7,0-1.5,0.1-2.2,0c-0.1,0-0.1-0.1-0.1-0.1c0-0.8,0-1.6,0-2.5c0-0.1-0.1-0.4,0.1-0.4
	c0.4,0.1,0.4,0.4,0.4,0.7C38.3,26.7,38.3,26.9,38.7,27.1C38.7,27,38.7,27,38.7,27.1z"/>
<path class="st10" d="M39.6,17.9c-0.1-1,0.1-2.1,0.2-3.2c0.1-0.4,0.1-1,0.1-1.4c-0.1-0.2-0.1-0.4-0.1-0.7c0.2-0.5,0.1-1,0.1-1.5
	c0.1-0.1,0.1-0.4,0.1-0.6c0.2,0.1,0.2,0.4,0.2,0.5c0,0.4,0,0.7,0.1,1.1c0.1,0.4-0.1,0.7,0,1c0.1,0.7,0.4,1.4,0.3,2.1
	c-0.1,0.5,0.2,1,0.1,1.5c-0.1,0.2-0.1,0.6-0.3,0.8c-0.1-0.1-0.2-0.2-0.2-0.4c0-0.1,0-0.4,0-0.5c0-0.1,0-0.4-0.2-0.4
	c-0.2,0-0.1,0.2-0.1,0.3c-0.1,0.4-0.1,0.7-0.3,1C39.8,17.8,39.7,17.9,39.6,17.9z"/>
<path class="st11" d="M37.8,28.5L37.8,28.5L37.8,28.5c0.9,0.1,1.6,0.1,2.5,0c0.2,0,0.4,0,0.5,0.1c0.1,0.2,0.1,0.4,0.1,0.6
	c0,2.9,0,5.8,0,8.7c0,0.1,0.1,0.4-0.1,0.5c-0.2,0.1-0.4,0.1-0.6,0c-0.1-0.2,0-0.4,0-0.7c0.1-0.6,0-1.1,0-1.7c0-2.2,0-4.4,0-6.6
	c0-0.7,0-0.7-0.7-0.7c-0.4,0-0.7,0-1.1,0c-0.3,0-0.2,0.3-0.4,0.4c-0.2-0.1,0-0.4-0.1-0.6C37.8,28.7,37.8,28.6,37.8,28.5z"/>
<path class="st12" d="M37.8,57.8c0-0.4,0-1,0-1.4c0.9-0.2,1.8-0.1,2.7-0.1c0.4,0.4,0.4,1.3,0,1.6C39.7,58,39,58,38.3,58
	C38.1,58,37.9,58,37.8,57.8z"/>
<path class="st13" d="M37.8,52.3c0.2,0,0.5,0,0.7,0c0.1-0.1,0.3-0.1,0.4-0.1c0.2,0,0.4,0,0.6,0.1c0.3,0.3,0.3,0.7,0.7,1
	c0.1,0.1,0,0.3-0.1,0.4c-0.2,0.1-0.3,0.4-0.5,0.5c-0.6,0.1-1.3,0.2-1.9-0.1C37.8,53.5,37.8,52.9,37.8,52.3z"/>
<path class="st14" d="M41.7,68.9c-0.1-0.1-0.1-0.4-0.4-0.4c-0.1,0-0.1-0.1-0.1-0.1c0.1-0.3-0.1-0.5-0.2-0.7
	c-0.1-0.1-0.1-0.1-0.1-0.1c-0.3-0.6-0.7-1.1-1.5-1c0.3-0.1,0.7-0.1,1-0.1c0.5,0,1,0,1.5,0c0.1,0,0.4,0,0.5,0.1c0.1,0,0.2,0,0.4,0
	C42.8,67.4,42.4,68.2,41.7,68.9z"/>
<path class="st15" d="M41.9,15.3c0.3,0.9,0.6,1.8,0.6,2.8c0.1,0.8,0.1,1.6,0.1,2.5c0,0.2,0,0.4-0.3,0.4c-0.3,0-0.4-0.1-0.4-0.4
	c0-0.1-0.1-0.1-0.1-0.1l0,0c-0.1-0.2-0.1-0.4-0.1-0.7c0-0.9,0-1.8,0-2.7c0.1-0.4,0-0.9,0.1-1.4C41.6,15.6,41.5,15.3,41.9,15.3z"/>
<path class="st16" d="M37.8,28.7c0.1,0.1,0,0.3,0.1,0.4c0.1-0.1-0.1-0.5,0.4-0.4c0.1,0.1,0.2,0.2,0.2,0.4c0,0.3,0,0.6,0.2,0.8
	c0.1,0.1,0.1,0.2,0,0.3c-0.4,0.4-0.2,0.8-0.2,1.3c0,0.5-0.1,1,0.2,1.4c0.1,0.1,0.1,0.2,0,0.3c-0.4,0.5-0.2,1-0.3,1.6
	c-0.1,0.5-0.2,0.6-0.7,0.4c0-1.8,0-3.5,0-5.3c0-0.1,0.1-0.4-0.1-0.5l0,0C37.8,29.2,37.8,29,37.8,28.7z"/>
<path class="st17" d="M42.8,22c0,0.4,0.2,0.5,0.7,0.5c0.5-0.1,1,0,1.5,0c0.2,0,0.3,0.1,0.3,0.3c0.1,1,0.1,1-1,1c-0.3,0-0.6,0-1,0
	s-0.5,0.1-0.4,0.4c0,0.1,0,0.1-0.1,0.2l-0.1-0.1C42.6,23.7,42.6,22.9,42.8,22C42.8,22,42.8,22,42.8,22z"/>
<path class="st18" d="M39,16.3c-0.1,1.2-0.2,2.5-0.2,3.7c0,0.2-0.1,0.4-0.2,0.5c-0.1,0.1-0.2,0.1-0.4,0.1c-0.1,0-0.1-0.1-0.1-0.3
	c0-0.6,0-1.2,0-1.8c0-0.7,0.1-1.3,0.2-1.9c0.3-0.3,0.1-0.7,0.4-1.1l0,0c0.2-0.1,0.3,0.1,0.3,0.2C39,15.9,39,16.1,39,16.3z"/>
<path class="st19" d="M37.8,54.1c0.7,0,1.3,0,1.9,0c0.3-0.2,0.6-0.1,0.9,0c0.1,0.3,0.1,0.6,0.1,1c0,0.1-0.1,0.3-0.3,0.3
	c-0.8,0-1.6,0.2-2.5,0c-0.1,0-0.1-0.1-0.1-0.1C37.8,54.8,37.8,54.5,37.8,54.1z"/>
<path class="st17" d="M37.8,23.8c-0.8,0-1.6,0.1-2.4,0c0-0.3,0-0.7,0-1c0-0.2,0.1-0.3,0.3-0.3c0.7,0,1.4,0,2.1,0
	C38,22.9,38,23.4,37.8,23.8z"/>
<path class="st13" d="M37.7,29.5c0.2,0.1,0.1,0.3,0.1,0.4c0,1.8,0,3.6,0,5.4c0.1,0.7,0.1,1.5,0,2.2c0,4.6,0,9.3,0,13.8
	c0,0.2,0.1,0.4-0.1,0.7c-0.1-0.2-0.1-0.5-0.1-0.7c0.1-0.1,0.1-0.3,0.1-0.4c0-4.3,0-8.6,0-12.8c0-0.2,0-0.4-0.2-0.5
	c-0.2-0.1-0.2-0.3-0.3-0.5c0-0.4,0-1,0-1.4c0-0.2,0.1-0.3,0.2-0.3c0.2,0,0.3-0.1,0.3-0.3C37.8,33.2,37.7,31.3,37.7,29.5z"/>
<path class="st20" d="M40.4,66.4c-0.3,0-0.7,0-1,0c-0.5,0-1.1-0.1-1.6,0c0-1.4,0-2.9,0-4.3c0.4-0.1,0.6,0,0.5,0.4c0,1.1,0,2.2,0,3.3
	c0,0.1,0,0.4-0.3,0.4c0.6,0,1.1,0.1,1.7-0.1c0.3-0.1,0.6-0.1,0.8-0.1c0.1,0,0.1,0.1,0.1,0.1C40.7,66.4,40.5,66.3,40.4,66.4z"/>
<path class="st21" d="M37.8,23.8c0-0.4,0-0.9,0-1.3h0.1c0.1-0.1,0.2-0.1,0.3-0.1c0.8,0,1.6-0.1,2.4,0.1c0.4,0.4,0.2,0.9,0.1,1.4
	c-0.1-0.1-0.1-0.3-0.1-0.4c0-0.1,0.1-0.2-0.1-0.2c-0.1,0-0.2,0.1-0.2,0.1c0,0.1,0,0.2,0,0.4c0,0.1,0,0.1-0.1,0.1
	c-0.1,0-0.1-0.1-0.1-0.1c0-0.1,0-0.2,0-0.3c0-0.1,0-0.2-0.2-0.2c-0.1,0-0.2,0.1-0.2,0.2c0,0.1,0,0.1,0,0.2s0,0.2-0.1,0.2
	c-0.1,0-0.1-0.1-0.1-0.2s0-0.2,0-0.3c0-0.1-0.1-0.2-0.2-0.2c-0.1,0-0.2,0.1-0.2,0.2c0,0.1,0,0.2,0,0.3c0,0.1,0,0.2-0.1,0.1
	c-0.1,0-0.1-0.1-0.1-0.1c-0.1-0.1,0.1-0.5-0.1-0.5c-0.4,0-0.1,0.4-0.2,0.5C38,23.8,37.8,23.8,37.8,23.8z"/>
<path class="st22" d="M41,16.8c-0.4-0.9-0.1-1.8-0.3-2.7c-0.1-0.5-0.4-1.1-0.1-1.8c0.1-0.2-0.2-0.6-0.1-0.9c0-0.1-0.1-0.3,0.1-0.4
	c0.2,0.7,0.5,1.3,0.7,2.1c-0.4,0.1-0.1,0.4-0.1,0.6c0.4,1,0.4,2,0.6,3c0,0.1,0,0.2,0,0.3C41.3,17.2,41.2,16.7,41,16.8z"/>
<path class="st23" d="M37.8,56.3c0-0.2,0-0.5,0-0.7c0.1-0.1,0.3-0.1,0.4-0.1c0.6,0.1,1.2,0,1.8,0c0.7,0,0.8,0.2,0.6,0.9
	c-0.1,0.1-0.3,0.1-0.4,0.1c-0.7,0-1.3,0-2,0C38,56.3,37.8,56.3,37.8,56.3z"/>
<path class="st24" d="M39,16.3c-0.2-0.1-0.1-0.2-0.2-0.4c0-0.1,0-0.3-0.2-0.4c0.1-0.9,0.5-1.6,0.8-2.5c0.1-0.4,0.3-0.8,0.4-1.3
	c0.4,0.2,0.2,0.5,0.1,0.7c0,0.2,0,0.5,0,0.7c-0.2,0.1-0.3,0.4-0.4,0.6c-0.1,0.7-0.5,1.4-0.4,2.2C39.3,16.1,39.1,16.2,39,16.3z"/>
<path class="st25" d="M40.5,22.5c-0.9,0-1.8,0-2.7,0c0.1-0.2,0.2-0.4,0.4-0.4c0.2,0,0.4-0.1,0.7-0.1c0.7-0.1,1.5-0.3,2.2,0
	c0.2,0.1,0.4-0.1,0.6,0.1c-0.1,0.2-0.4,0.1-0.6,0.1C40.9,22,40.8,22.4,40.5,22.5z"/>
<path class="st26" d="M41.5,17c0-0.7-0.2-1.4-0.4-2.2c-0.1-0.5-0.1-1-0.4-1.4c-0.1-0.1,0-0.2,0-0.3c0-0.1,0-0.2,0.1-0.2
	c0.1,0,0.1,0.1,0.1,0.2c0.2,0.7,0.5,1.5,0.7,2.2c-0.2,0.1-0.1,0.3-0.1,0.4c-0.1,0.4,0.1,0.9-0.1,1.3C41.6,17.1,41.5,17.1,41.5,17z"
	/>
<path class="st27" d="M41.7,20.5c0.1,0,0.2,0.1,0.1,0.1c-0.1,0.4,0.2,0.2,0.4,0.2c0.3,0,0.1-0.2,0.1-0.3c0.1-0.8-0.1-1.6,0-2.5
	c0.3,0.7,0.1,1.5,0.1,2.2c0,0.3,0,0.5,0,0.8c-0.1,0.2-0.1,0.4-0.1,0.6c0,0.1-0.1,0.3-0.3,0.1c-0.4,0-0.4-0.4-0.5-0.7
	C41.6,21,41.7,20.8,41.7,20.5z"/>
<path class="st28" d="M40.5,56.2c0.1-0.9,0-0.7-0.7-0.7c-0.7,0-1.4,0-2.1,0c0-0.1,0-0.1,0-0.2c0.7,0.1,1.5,0,2.2,0
	c0.5,0,0.7-0.1,0.6-0.6c0-0.1,0-0.4,0-0.5c0-0.1,0.1-0.1,0.1-0.1s0.1,0,0.1,0.1c0,0.4,0.1,0.8,0,1.2c-0.3,0.1-0.6,0-1,0.1
	c-0.1,0,0,0.1,0,0.1v-0.1c0.3,0,0.7-0.1,1,0.1c0.1,0.2,0.1,0.4,0.1,0.7c0,0.1-0.1,0.1-0.1,0.1C40.6,56.3,40.6,56.3,40.5,56.2z"/>
<path class="st29" d="M37.8,57.8c0.9,0,1.7,0,2.6,0v0.1c0,0.1-0.1,0.1-0.1,0.1c-0.3,0.1-0.5,0.1-0.7,0.2c-0.4,0-0.9-0.1-1.3,0.1
	c-0.1,0-0.3,0-0.4,0C37.8,58.1,37.8,58,37.8,57.8z"/>
<path class="st30" d="M42.8,25.7c-0.1,0-0.3-0.1-0.4,0.1c0,0.8,0,1.6,0,2.5c0,0.1,0,0.1-0.1,0.2c-0.1,0-0.1,0-0.1-0.1
	c-0.1-0.4-0.1-0.9-0.4-1.3c0-0.1,0-0.1,0.1-0.1c0.4-0.4,0.3-0.9-0.1-1.2c0-0.1,0-0.1,0.1-0.1c0.3-0.1,0.3-0.4,0.3-0.6
	c0-0.5,0.1-0.6,0.7-0.5v0.1c-0.1,0.1-0.5-0.1-0.5,0.4C42.4,25.3,42.2,25.6,42.8,25.7z"/>
<path class="st31" d="M37.8,56.3c0.9,0,1.9,0,2.8,0c0,0,0,0,0,0.1c0.1,0.1,0,0.1,0,0.2c-0.1,0-0.1,0-0.2,0c-0.9,0-1.7,0-2.6,0
	C37.8,56.3,37.8,56.3,37.8,56.3z"/>
<path class="st5" d="M38.6,26.9c-0.3,0.1-0.4,0-0.4-0.3c0-0.4,0-0.7-0.3-1c0.7,0,0.7,0,0.6,0.7C38.4,26.5,38.6,26.7,38.6,26.9z"/>
<path class="st22" d="M40,12.5c-0.1-0.2,0.1-0.5-0.1-0.7c0.1-0.2,0.1-0.5,0.2-0.7c0.1,0.4,0.1,1,0.1,1.4
	C40.2,12.5,40.1,12.5,40,12.5z"/>
<path class="st24" d="M38.7,15.5c-0.1,0.4,0.2,0.9-0.4,1.1C38.4,16.3,38.4,15.8,38.7,15.5z"/>
<path class="st25" d="M42.2,22c0.4-0.1,0.1-0.5,0.4-0.7c0.1,0.3-0.1,0.6,0.2,0.8c0,0,0,0,0,0.1C42.6,22.2,42.5,22.2,42.2,22L42.2,22
	z"/>
<path class="st32" d="M38.2,58.3c0.4-0.2,1,0,1.4-0.1c0.2-0.2,0.5-0.1,0.7-0.1c0.1,0,0.1,0.1,0.2,0.1c0.1,0.2,0.1,0.4,0.1,0.7
	c0,2.2,0,4.5,0,6.7c0,0.2,0,0.4-0.1,0.6c-0.3,0-0.6,0-0.9,0c-0.1-0.1-0.1-0.1-0.1-0.2c0.1-2.2-0.1-4.3,0-6.4v-0.1
	c-0.1-1.1-0.1-1.1-1.2-1.1C38.4,58.3,38.3,58.3,38.2,58.3z"/>
<path class="st33" d="M41.8,25.6L41.8,25.6c0,0.1,0,0.1-0.1,0.2c-0.1,0.7-0.1,1.6-0.1,2.3c0,0.4,0.4,0.2,0.5,0.3h0.1
	c0.1-0.2,0.1-0.5,0.1-0.8c0-0.6-0.1-1.2,0.1-1.8c0.1,0.1,0.1,0.3,0.1,0.4c-0.1,0.7-0.1,1.6-0.1,2.3c0.1,2.5,0.1,4.9,0.1,7.5
	c0.1,5.2,0,10.4,0,15.6c0,0.2,0.3,0.5-0.1,0.7l-0.1-0.1c-0.1-0.3-0.1-0.7-0.1-1c0-5.1,0-10.2,0-15.2c0-2.2,0-4.3,0-6.6
	c0-0.2,0-0.4-0.1-0.5c-0.3-0.1-0.4-0.1-0.4,0.3c0,0.1,0,0.3,0,0.4c0,7.4,0,14.8,0,22.2c0,0.1,0,0.3,0,0.4c-0.1,0.1-0.3,0.1-0.4,0
	C41,52.1,41,51.8,41,51.6c0-2,0.1-4,0-6c-0.1-1.9-0.1-3.8-0.1-5.7c0-0.3,0-0.5-0.3-0.7c-0.5-0.1-0.8,0-0.9,0.6
	c-0.1,0.4,0.1,0.7-0.1,1.1c-0.1,0.1-0.1,0.4-0.4,0.3c-0.1-0.5-0.1-1-0.1-1.6c0-0.3,0.1-0.6,0.3-0.8c0.2-0.1,0.4-0.4,0.7-0.3
	c0.2,0,0.4,0,0.6,0c0.4,0.1,0.4-0.1,0.4-0.4c0-2.9,0-5.8,0-8.7c0-0.4-0.1-0.5-0.4-0.7c-0.7-0.1-1.6-0.1-2.3-0.1
	c-0.1,0-0.4,0.1-0.5-0.1c0.8,0,1.6,0,2.4,0c0.1-0.1,0.1,0,0.2-0.1c0.5-0.1,0.7-0.2,0.7-0.7c0-0.7,0-1.5,0.1-2.2
	C41.3,25.5,41.6,25.4,41.8,25.6z"/>
<path class="st34" d="M40.5,58.2c-0.1,0-0.1,0-0.1,0c-0.1-0.1-0.1-0.1,0-0.3l0,0c0,0,0.1,0,0.1-0.1c0.2-0.1,0.6-0.1,0.6-0.6
	c0-0.4-0.1-0.7-0.5-0.8c0-0.1,0-0.1,0-0.1c0.1,0,0.1,0,0.1,0c0.4-0.2,0.5-0.4,0-0.7c-0.3-0.1-0.7,0-1-0.1c0.4-0.1,0.7,0.1,1-0.1
	c0.2-0.1,0.4-0.4,0.3-0.7c0-0.1,0-0.3,0.1-0.4c0.1-0.1,0.2-0.1,0.3,0c0.1,0.1,0.1,0.4,0.1,0.6c0,0.1-0.1,0.4,0.1,0.4
	c0.1,0,0.2,0,0.4,0c0.1-0.3,0.1-0.6,0-1c0-0.1,0-0.1,0-0.1c0-0.5-0.1-1,0.1-1.6c0-0.1,0.1-0.1,0.1-0.1l0,0c-0.1,0.7,0,1.4,0.1,2.1
	c0.1,0.4-0.1,1,0,1.5c0.1,0.2-0.1,0.4-0.1,0.5c0,0-0.1,0-0.1,0.1h-0.1v-0.1c-0.1-0.1,0.1-0.4,0-0.5c0-0.1-0.1-0.2-0.2-0.2
	c-0.1,0-0.3,0-0.4,0.1c-0.1,0.1,0,0.2,0.1,0.3c0.1,0.1,0.4,0.1,0.2,0.4c-0.2,0.3-0.3,1.1-0.1,1.4c0.1,0.1,0.1,0.3-0.1,0.4
	c-0.3,0.1-0.3,0.4-0.3,0.7c0,2.2,0,4.3,0,6.4c0,0.2,0,0.4,0,0.6c-0.1,0.2-0.1,0.3-0.4,0.2c-0.1-0.2-0.1-0.5-0.1-0.7
	c0-2.1,0-4.2,0-6.3C41,58.7,41,58.4,40.5,58.2z"/>
<path class="st34" d="M42.4,56.4c0.1,0,0.2,0.1,0.2,0.2c-0.1,0.4,0.1,1-0.1,1.3c-0.1,0.2,0.1,0.4,0.1,0.6c0,2.5,0,5.1,0,7.6
	c0,0.1-0.1,0.1-0.1,0.1c0,0-0.1,0-0.1-0.1c-0.2-0.3-0.1-0.7-0.1-1c0-2.1,0-4.1,0-6.2c0-0.2,0-0.4,0-0.7c-0.1-0.1-0.1-0.3,0-0.5
	c0-0.1,0-0.1,0-0.1C42.3,57.3,42.1,56.9,42.4,56.4L42.4,56.4z"/>
<path class="st34" d="M40.4,66.4c0.1-0.1,0.1-0.1,0.3-0.1c0.1-0.1,0.2-0.1,0.4-0.1c0.2,0.1,0.4,0.1,0.6,0c0.1,0,0.4,0,0.5,0
	c0.1,0,0.1,0.1,0.2,0.1l0,0c0,0,0,0,0,0.1C41.8,66.4,41,66.4,40.4,66.4z"/>
<path class="st35" d="M39.6,38.8c-0.1,0.2-0.3,0.4-0.3,0.7c0,0.7-0.1,1.3,0,1.9c0.1,0.7,0,1.4,0,2.1c0,0.2,0,0.4,0.1,0.5
	c0.4,1,0.4,1.9,0.4,2.9c0,1.3,0,2.6,0,3.9c0,0.1,0,0.3,0,0.4c0,0.8,0,0.8-0.8,0.9c-0.1,0-0.3,0-0.4,0c-0.3-0.2-0.3-0.7,0-0.9
	c0.1-0.1,0.3-0.2,0.1-0.3c-0.3-0.1-0.2-0.3-0.2-0.5c0-0.6,0-1.2,0-1.7c0-0.2-0.1-0.4,0.2-0.5c0.1-0.1,0.1-0.2,0-0.3
	c-0.2-0.1-0.2-0.3-0.2-0.4c0-0.6,0-1.1,0-1.7c0-0.2-0.1-0.4,0.2-0.6c0.1-0.1,0.1-0.3,0-0.3c-0.4,0.1-0.2-0.2-0.2-0.4
	c0-0.6,0-1.2,0-1.7c0-0.2-0.1-0.5,0.2-0.6c0.1-0.1,0.1-0.3,0-0.3c-0.4,0.1-0.2-0.2-0.2-0.4c0-0.5,0-1,0-1.6c0-0.3,0-0.6,0.3-0.7
	c0.1-0.1,0.1-0.3,0-0.3c-0.4,0.1-0.2-0.2-0.2-0.4c0-0.2,0-0.4,0-0.6c0-0.4-0.1-0.5-0.4-0.4c-0.2-0.3,0-0.6,0-0.8c0-0.4-0.1-1,0-1.4
	c0.3,0,0.4-0.1,0.4-0.5c0-0.4,0-0.7,0-1c0-0.1,0.1-0.3,0.1-0.4c0.2-0.2,0.2-0.3-0.1-0.4c-0.1-0.1-0.1-0.2-0.1-0.3c0-0.6,0-1.2,0-1.8
	c0-0.1-0.1-0.4,0.2-0.5c0.1,0,0.1-0.2,0.1-0.2c-0.4-0.1-0.3-0.5-0.3-0.7c0-0.1,0-0.4-0.1-0.5c0.4,0,0.8,0,1.2,0
	c0.1,0.1,0.1,0.3,0.1,0.4c-0.1,2.8,0,5.5-0.1,8.3C39.5,38,39.6,38.3,39.6,38.8z"/>
<path class="st36" d="M41.8,25.6c-0.2,0-0.4,0-0.7,0c-0.1,0-0.1,0-0.1-0.1c0-0.4,0-0.8,0.2-1.2c0.2-0.4,0-0.8-0.1-1.2
	c-0.3-0.3-0.3-0.6,0.1-0.8c0.1-0.1,0.1-0.2,0.1-0.3c0.2,0,0.4,0,0.6-0.1c0.1,0,0.3,0,0.5,0c0.2,0,0.4,0.1,0.6,0.1c0,0.7,0,1.6,0,2.3
	c-0.5,0-0.7,0.3-0.6,0.7C42.3,25.6,42.1,25.6,41.8,25.6z"/>
<path class="st27" d="M41.5,17L41.5,17c0.2,0.4,0.1,0.7,0.1,1c0,0.8,0,1.6,0,2.5c-0.1,0.1-0.1,0.3-0.3,0.4c-0.5-1-0.7-2.2-0.7-3.3
	c0-0.3-0.1-0.5,0.2-0.7c0.1,0,0.1-0.2,0.3-0.2C41.4,16.7,41.2,17,41.5,17z"/>
<path class="st37" d="M41.1,21.9c-0.7,0-1.5,0-2.2,0c0,0,0,0,0-0.1c0.1-0.4,0.8,0.1,0.7-0.4c0-0.4,0.3-0.6,0.4-0.9
	c0.2-0.3,0.4-0.3,0.4,0c0.1,0.3,0.4,0.6,0.3,1C40.8,21.8,41.1,21.7,41.1,21.9z"/>
<path class="st38" d="M41,25.6L41,25.6l0.1,0.1c0,0.8,0,1.6,0,2.5c0,0.1-0.1,0.1-0.2,0.2c-0.2,0.1-0.5,0.1-0.7,0.1
	c0.4-0.1,0.5-0.3,0.4-0.7c0-0.5,0-1,0-1.5c0-0.3,0.1-0.5-0.2-0.7c-0.2-0.1,0-0.8,0.1-1c0.2-0.2,0.3-0.4,0-0.7c0-0.4,0.1-0.9,0-1.3
	c0.1-0.2,0.1-0.6,0.6-0.4c0.4,0.1,0.2,0.3,0,0.4c-0.3,0.1-0.3,0.4,0,0.5c0.1,0.3,0.1,0.6,0.1,0.9c0.1,0.2,0.1,0.4-0.1,0.6
	C40.7,24.9,40.7,25.2,41,25.6z"/>
<path class="st39" d="M39.6,38.8c-0.2-0.4-0.1-0.8-0.1-1.3c0-2.6,0-5.3,0-7.9c0-0.3,0.1-0.6,0.1-0.9c0.8,0,0.8,0,0.8,0.8
	c0,2.5,0,5.1,0,7.6c0,0.4,0,0.9-0.2,1.3C39.9,38.6,39.7,38.7,39.6,38.8z"/>
<path class="st40" d="M40.7,28.7c0.4-0.1,0.6,0.1,0.6,0.6c0,3.1,0,6.3,0,9.6c-0.2-0.1-0.4-0.2-0.6-0.3c0-0.3,0-0.5,0-0.8
	C40.7,34.7,40.7,31.8,40.7,28.7z"/>
<path class="st41" d="M40.6,56.4c0.2,0.1,0.5-0.1,0.6,0.2c0.1,0.4,0.1,0.8-0.1,1.1c-0.1,0.1-0.5,0.1-0.7,0.2v-0.1
	c0.3-0.3,0.3-1.1,0-1.4C40.5,56.4,40.5,56.4,40.6,56.4z"/>
<path class="st42" d="M39,52.3c0.7-0.2,0.7-0.2,0.7-1c0-1.6,0.1-3.1,0-4.8c0-0.7,0.1-1.6-0.4-2.2c-0.1-0.1-0.1-0.4-0.1-0.5
	c0-1.3,0-2.7,0-4c0-0.1,0-0.2,0.1-0.3c0,0.6,0,1.1,0,1.7c0.1,0.1,0.1,0.4,0.1,0.6c0,0.6,0,1.1,0,1.6c0.1-0.7-0.1-1.6,0.1-2.5
	c0-0.4,0-0.7,0-1.2c0.1-0.6,0.4-0.9,1-0.7c0.2,0.2,0.2,0.6,0.2,0.9c0,1,0,2.1,0,3.1c0,2.8,0.1,5.5,0,8.2c0,0.1,0,0.3,0,0.4
	c0,0.8-0.4,1-1.2,0.7C39.4,52.3,39.2,52.3,39,52.3z"/>
<path class="st43" d="M39.6,52.3c1-0.1,1-0.1,1-1.1c0-1.9,0-3.7,0-5.6c0-0.2,0-0.4-0.1-0.7c-0.1-0.1-0.1-0.1-0.1-0.1
	c0.4-0.7,0.2-1.6,0.2-2.3c0-0.8,0.1-1.6,0-2.5c0-0.4,0-0.7-0.1-1.1C41,39,41,39.4,41,39.7c0,1.2-0.1,2.4,0,3.6
	c0.3,2.8,0.1,5.5,0.1,8.3c0,0.2,0,0.4,0,0.6c-0.4,0.1-0.4,0.4-0.4,0.8c0,0.3,0.1,0.7-0.1,1c-0.1,0-0.1,0-0.1,0c-0.3,0-0.5,0-0.8,0
	c-0.1-0.2,0-0.3,0.2-0.4c0.2-0.1,0.4-0.2,0.1-0.5C39.7,53,39.7,52.6,39.6,52.3z"/>
<path class="st44" d="M41,66.3c-0.1,0-0.2,0-0.4,0v-0.1c0-2.1,0.1-4.3,0-6.3c0-0.4,0-0.7,0.1-1.2c0-0.1,0-0.4-0.1-0.5
	c0.7,0.1,0.7,0.1,0.7,0.7c0,2.5,0,4.9,0,7.3C41.2,66.3,41,66.3,41,66.3z"/>
<path class="st45" d="M40.7,54.1c0-0.4,0-0.8,0-1.2c-0.1-0.4,0.1-0.6,0.6-0.6c0.1,0,0.3,0,0.4,0c0.1-0.1,0.2-0.1,0.3,0
	c0.3,0.5,0.1,1.1,0,1.7c0,0.1-0.2,0.2-0.4,0.1c-0.1,0-0.2,0-0.3,0C41,54.2,40.9,54.2,40.7,54.1C40.8,54.1,40.7,54.1,40.7,54.1z"/>
<path class="st46" d="M40.8,54.1c0.1,0,0.3,0,0.4,0c0,0.2,0,0.4,0,0.7c0.1,0.4-0.1,0.5-0.4,0.5C40.8,54.8,40.6,54.5,40.8,54.1z"/>
<path class="st47" d="M40.8,55.5c0.3,0,0.5,0,0.4,0.4c0,0.4-0.2,0.4-0.4,0.4C40.8,56,40.8,55.7,40.8,55.5z"/>
<path class="st44" d="M40.4,57.9c0,0.1,0,0.1,0,0.3c-0.2,0-0.5,0-0.7,0C39.7,57.7,40.2,58.1,40.4,57.9z"/>
<path class="st48" d="M41.9,26.9c0,0.1-0.1,0.2-0.1,0.2c0.5,0.3,0.3,0.8,0.4,1.3l0,0c-0.5,0.1-0.6,0-0.6-0.4c0-0.6-0.1-1.3,0.1-1.9
	C42,26,42,26.2,42,26.4C42.1,26.6,42.1,26.7,41.9,26.9z"/>
<path class="st49" d="M41.9,26.9c-0.1-0.3,0.1-0.6-0.1-0.8c-0.1-0.1-0.2-0.1-0.1-0.4h0.1c0.2,0,0.5-0.1,0.4,0.2
	C42.2,26.3,42.5,26.7,41.9,26.9z"/>
<path class="st30" d="M41.9,52.3c-0.1,0-0.1,0-0.3,0c-0.1-0.1-0.1-0.4-0.1-0.5c0-7.5,0-15,0-22.5c0-0.6,0.2-0.7,0.7-0.5
	c0,0,0,0-0.1,0.1c-0.1,0.1-0.2,0.1-0.3,0.2c-0.1,2.5,0,4.9,0,7.3c0,1.2-0.1,2.5-0.1,3.7c0.1,4,0,8,0.1,12
	C41.9,52.1,41.9,52.1,41.9,52.3C41.9,52.2,41.9,52.3,41.9,52.3z"/>
<path class="st30" d="M42.3,52.3L42.3,52.3c-0.1,0-0.1,0-0.1-0.1c-0.1-0.2,0.1-0.6-0.2-0.8c-0.1-0.1-0.1-0.3,0-0.5
	c0.1-0.1,0.1-0.1,0.1-0.3c0-0.7,0-1.3,0-2c0-0.1-0.1-0.1-0.1-0.2c-0.1-0.1-0.2-0.4-0.1-0.5c0.1-0.1,0.1-0.2,0.1-0.4
	c0-0.6,0-1.2,0-1.8c0-0.1-0.1-0.3-0.2-0.4c-0.1-0.1-0.1-0.2,0-0.4c0.4-0.9,0.3-1.8,0.1-2.7c0-0.1-0.1-0.1,0-0.3
	c0.4-0.4,0.2-0.9,0.2-1.3c0-0.3,0.1-0.6,0-0.8c-0.1-0.4-0.1-0.9,0-1.4c0.1-0.5,0.1-1.1,0-1.6c-0.1-0.4-0.1-0.8,0-1.3
	c0.1-0.6,0.1-1.3,0.1-1.9c0-0.1-0.1-0.2-0.1-0.3c-0.1-0.1-0.1-0.2-0.1-0.4c0-0.1,0.1-0.1,0.1-0.1c0.1-0.1,0.1-0.3,0.1-0.4
	c0-0.4,0-0.8,0-1.3c0-0.3,0.1-0.7-0.2-0.9c-0.1-0.1,0-0.2,0.1-0.3c0.1-0.1,0.2-0.3,0.2-0.4c0-0.2-0.1-0.5,0.1-0.7l0,0
	c0.1,0.1,0.1,0.4,0.1,0.6c0,6.1,0,12.1,0,18.2C42.3,49.1,42.3,50.7,42.3,52.3z"/>
<path class="st50" d="M39.5,40.8c0,1,0,1.9,0,2.9c0,0.1,0.1,0.3-0.1,0.3c-0.1,0-0.1-0.1-0.1-0.3c0-0.8,0-1.7,0-2.5
	C39.4,41.1,39.3,40.8,39.5,40.8z"/>
<path class="st30" d="M41.7,25.7c0.1,0.1,0.2,0.2,0.1,0.4c-0.2,0.7-0.1,1.5-0.1,2.2c0,0.3,0.3,0.1,0.4,0.1c-0.5,0.2-0.7,0.1-0.7-0.4
	c0-0.6,0-1.3,0-1.9C41.5,25.9,41.4,25.8,41.7,25.7z"/>
<path class="st30" d="M41,66.3c0.1-0.1,0.1-0.1,0.2-0.1c0.4,0,0.3-0.2,0.3-0.4c0-2.3,0-4.6,0-6.9c0-0.3-0.1-0.6,0.4-0.7
	c0.3-0.1,0-0.2-0.1-0.4c0.1-0.1,0.3-0.1,0.4,0c0,0.1,0,0.3,0,0.4c0,0,0,0.1-0.1,0.1c-0.3,0.1-0.3,0.4-0.3,0.7c0,1.9,0,4,0,5.9
	c0,0.3,0,0.6,0,0.8c0,0.1,0,0.4-0.2,0.4C41.5,66.3,41.3,66.3,41,66.3z"/>
<path class="st30" d="M41.5,54.1c0.2,0,0.4-0.1,0.4-0.3c0-0.5,0.1-1,0-1.5l0,0c0.1-0.1,0.2-0.1,0.4,0l0,0c0,0.6,0,1.2,0,1.8
	c-0.2,0.1-0.4,0.4-0.4,0.7c0,0.1,0,0.3-0.1,0.4c-0.2,0-0.3-0.1-0.3-0.3C41.5,54.6,41.5,54.3,41.5,54.1z"/>
<path class="st51" d="M42.2,57.8c-0.1,0-0.3,0-0.4,0c-0.2-0.4,0-0.7-0.1-1.1c-0.1-0.3,0.1-0.3,0.3-0.3c0.1-0.1,0.2-0.1,0.3,0l0,0
	C42.3,56.9,42.3,57.4,42.2,57.8L42.2,57.8z"/>
<path class="st30" d="M42.2,56.4c-0.1,0-0.1,0-0.3,0c0-0.1-0.1-0.1-0.1-0.1c-0.4,0-0.3-0.4-0.3-0.5c0-0.3,0.4-0.2,0.5-0.3
	c0.3,0,0.3,0.2,0.3,0.4C42.4,56,42.3,56.3,42.2,56.4z"/>
<path class="st52" d="M41.8,55.2c0-0.2,0-0.4,0-0.7c0-0.4,0.1-0.5,0.4-0.4l0,0c0.1,0.4,0.1,0.7,0,1.1C42.1,55.2,41.9,55.2,41.8,55.2
	z"/>
<path class="st30" d="M42.2,57.8c0-0.4,0-1,0-1.4h0.1h0.1C42.3,56.9,42.5,57.4,42.2,57.8z"/>
<path class="st30" d="M42.2,55.2c0-0.4,0-0.7,0-1.1C42.4,54.5,42.4,54.8,42.2,55.2z"/>
<path class="st30" d="M42.5,66.3c-0.1,0-0.1,0-0.1,0c-0.1-0.1-0.1-0.4-0.1-0.6c0-2.2,0-4.5,0-6.8c0-0.2,0-0.4,0.1-0.6l0,0
	c0.1,0.1,0.1,0.4,0.1,0.5c0,2.2,0,4.3,0,6.4C42.4,65.7,42.4,66,42.5,66.3z"/>
<path class="st53" d="M42.2,58.3c0,2.7,0,5.3,0,8c-0.1,0-0.4,0-0.5,0c0-0.3,0.1-0.7,0.1-1c0-2.2,0-4.3,0-6.5
	C41.8,58.4,41.9,58.3,42.2,58.3z"/>
<path class="st54" d="M41,25.6c-0.1,0-0.4,0.1-0.4-0.2c0-0.3-0.2-0.7,0.2-0.8c0.4-0.1,0.4-0.4,0.3-0.7c-0.1-0.3-0.1-0.5-0.1-0.8
	c0.1,0.5,0.5,1,0.1,1.6C41,24.9,41.2,25.3,41,25.6z"/>
<path class="st55" d="M41.9,51c-0.1,0.1,0,0.3,0.1,0.4c-0.1,0.3,0.1,0.7-0.2,0.8c-0.1-0.1-0.1-0.4-0.1-0.5c0-3.1,0-6.1,0-9.2
	c0-0.8-0.1-1.7-0.1-2.6c0.1-3.6,0-7.2,0.1-10.8c0-0.1-0.1-0.3,0.1-0.4c0.4,0.4,0.2,0.8,0.1,1.2c0,0.1-0.1,0.2,0,0.2
	c0.4,0.1,0.3,0.4,0.3,0.6c0,0.6,0,1.2,0,1.8c0,0.1,0.1,0.4-0.1,0.4c0-0.7,0-1.4,0-2.1c-0.1,0.6,0.1,1.3-0.1,2.1c0,0.1-0.1,0.2,0,0.2
	c0.4,0.1,0.3,0.4,0.3,0.6c0,0.6,0,1.1,0,1.7c0,0.2,0.1,0.4-0.3,0.5c-0.1,0-0.1,0.2,0,0.2c0.3,0.1,0.2,0.3,0.2,0.4c0,0.6,0,1.2,0,1.8
	c0,0.2,0.1,0.5-0.3,0.5c-0.1,0-0.1,0.2,0,0.2c0.4,0.1,0.3,0.4,0.3,0.6c0,0.5,0,1,0,1.6c0,0.3,0.1,0.6-0.5,0.7
	c0.5,0.1,0.5,0.4,0.5,0.7c0,0.4,0,0.9,0,1.3c0,0.3,0.1,0.7-0.3,0.9c-0.1,0,0,0.1,0.1,0.2s0.1,0.2,0.1,0.4c0,0.7,0,1.3,0,1.9
	c0,0.1-0.1,0.2-0.1,0.4c-0.1,0.1,0,0.3,0.1,0.4c0.1,0.7,0,1.6,0,2.3C42.1,50.7,42.1,50.9,41.9,51z"/>
<path class="st56" d="M41.9,30c-0.1-0.4,0.1-0.8-0.1-1.2c0.1,0,0.2,0,0.4,0c0,0.3,0,0.6,0,0.9C42.2,29.8,42.2,30,41.9,30z"/>
<path class="st57" d="M41.9,52.2c0.1-0.2,0.1-0.4,0.1-0.6c-0.1-0.1,0-0.2,0.1-0.2c0.4,0.2,0.1,0.6,0.1,0.9
	C42.1,52.3,42,52.3,41.9,52.2C41.9,52.2,41.9,52.2,41.9,52.2z"/>
<path class="st57" d="M41.9,51c0-0.7,0-1.5,0-2.2c0-0.1-0.1-0.3,0.1-0.4c0.2,0,0.1,0.2,0.1,0.4c0,0.7,0,1.3,0,1.9
	C42.2,50.8,42.2,51,41.9,51z"/>
<path class="st58" d="M41.9,48c0-0.9,0-1.8,0-2.6c0.2,0,0.3,0.1,0.3,0.3c0,0.7,0,1.3,0,2C42.2,47.8,42.2,48,41.9,48z"/>
<path class="st59" d="M41.9,33c-0.1-0.8,0.1-1.6-0.1-2.5c0-0.1,0-0.1,0.1-0.1c0.1,0,0.1,0.1,0.1,0.1C42.1,31.3,42.2,32.1,41.9,33
	C42,33,42,33,41.9,33z"/>
<path class="st60" d="M42,35.8c0-0.8,0-1.6,0-2.4h0.1C42.1,34.2,42.1,35,42,35.8C42.1,35.8,42,35.8,42,35.8z"/>
</svg>
