<?xml version="1.0" encoding="utf-8"?>
<!-- Generator: Adobe Illustrator 23.1.1, SVG Export Plug-In . SVG Version: 6.00 Build 0)  -->
<svg version="1.1" id="Livello_1" xmlns="http://www.w3.org/2000/svg" xmlns:xlink="http://www.w3.org/1999/xlink" x="0px" y="0px"
	 viewBox="0 0 80 80" style="enable-background:new 0 0 80 80;" xml:space="preserve">
<style type="text/css">
	.st0{fill:#557B4A;}
	.st1{fill:#588250;}
	.st2{fill:#1C3826;}
	.st3{fill:#8BBA5C;}
	.st4{fill:#6B9351;}
	.st5{fill:#294631;}
	.st6{fill:#FBF192;}
	.st7{fill:#5B7D49;}
	.st8{fill:#27432E;}
	.st9{fill:#394B3A;}
	.st10{fill:#FBE260;}
	.st11{fill:#F7D532;}
	.st12{fill:#F3D133;}
	.st13{fill:#FBD280;}
	.st14{fill:#577051;}
	.st15{fill:#688F58;}
	.st16{fill:#F3BA3B;}
	.st17{fill:#B8D2A2;}
	.st18{fill:#87AA6D;}
	.st19{fill:#F7E131;}
	.st20{fill:#F5BD47;}
	.st21{fill:#D5AB38;}
	.st22{fill:#C3DEE7;}
	.st23{fill:#F4D632;}
	.st24{fill:#ECEB8E;}
	.st25{fill:#F3DB33;}
	.st26{fill:#1F749B;}
	.st27{fill:#496841;}
	.st28{fill:#87B65C;}
	.st29{fill:#83A46C;}
	.st30{fill:#81A36C;}
	.st31{fill:#A8C783;}
	.st32{fill:#274226;}
	.st33{fill:#A9C78A;}
	.st34{fill:#6E9453;}
	.st35{fill:#86A66A;}
	.st36{fill:#ABC586;}
	.st37{fill:#6C9655;}
	.st38{fill:#B9CC97;}
	.st39{fill:#5E7556;}
	.st40{fill:#8BAA6E;}
	.st41{fill:#87A075;}
	.st42{fill:#8EA579;}
	.st43{fill:#ACCA87;}
	.st44{fill:#99B57A;}
	.st45{fill:#93B378;}
	.st46{fill:#809D72;}
	.st47{fill:#75A3B3;}
	.st48{fill:#577050;}
	.st49{fill:#345037;}
	.st50{fill:#597252;}
	.st51{fill:#5D7758;}
	.st52{fill:#B4CB91;}
	.st53{fill:#FAE358;}
	.st54{fill:#8CA07A;}
	.st55{fill:#8DB06F;}
	.st56{fill:#617C58;}
	.st57{fill:#EDEDED;}
	.st58{fill:#889D75;}
	.st59{fill:#869F73;}
	.st60{fill:#869D75;}
</style>
<path class="st0" d="M43.1,30c0.1,1,0.1,2.1,0.1,3.1c0.1,0.1,0.1,0.4,0.1,0.5c0,1.6,0.1,3.2,0.1,4.9c-0.1,1,0.1,1.9,0.1,2.8
	c0,0.3,0.2,0.5,0.5,0.7c0.3,0.1,0.5,0.2,0.8,0.3c0.1,0.1,0.2,0.1,0.2,0.3s-0.2,0.1-0.3,0.1c-0.4,0-0.7,0-1,0s-0.4,0.1-0.4,0.4
	c0,0.4,0.1,0.9,0,1.3c0,0.3,0,0.7,0,1c-0.1,0.2-0.3,0.1-0.4,0c-0.2-0.1-0.4-0.2-0.6-0.1c-0.1,0-0.3,0-0.4,0
	c-0.2-0.1-0.5,0.1-0.7-0.2c0-0.1,0-0.1,0.1-0.2c0.1,0,0.1-0.1,0.1-0.1c1-0.1,1-0.1,1-1.2c0-1.3,0-2.7,0-4.1c0-0.7,0-0.7-0.7-0.7
	c-0.4,0-0.4,0.4-0.4,0.7c0,1.6,0,3.1,0,4.7c0,0.2,0,0.5-0.1,0.7c-0.2,0-0.1-0.1-0.1-0.3c0-0.5,0-1.1,0-1.6c0-0.1-0.1,0.1,0,0
	c0,0,0,0,0,0.1c-0.1,1.1,0.1,2.2,0.1,3.4C41,48.1,41,49.8,41,51.5c0,0.3,0,0.6-0.4,0.6c-0.4,0-0.5-0.2-0.6-0.6c0-0.1,0-0.4,0-0.5
	c0-1.7,0-3.4,0-5.1c0-0.2,0-0.4,0.1-0.7c0.4-0.2,0.5,0.1,0.7,0.3c0-1.4-0.1-3,0-4.5c0-0.1,0-0.1,0.1-0.1c0.1-1.3,0-2.6,0-3.9
	c0-0.4-0.1-1,0.1-1.5c0.3,0.1,0.2,0.4,0.3,0.5c0,0.5,0,1,0,1.5c0,0.1,0,0.4,0.1,0.5c0.1,0.1,0.4,0.1,0.5,0.1c0.5,0,0.6-0.3,0.6-0.7
	c0.1-2.2-0.1-4.5-0.1-6.7c0-0.3-0.1-0.7,0.3-0.8C42.8,29.9,43,29.9,43.1,30z"/>
<path class="st1" d="M42.8,18.5c0.2,2,0.1,4,0.3,6.1c0.1,1.6,0.1,3.4,0.1,5c-0.2,0.1-0.4,0.1-0.7,0.1c-0.3-0.4-0.1-0.8-0.2-1.3
	c-0.1-0.6-0.1-0.6-0.7-0.7c-0.1,0-0.2,0-0.3-0.1s-0.1-0.1-0.1-0.3c0.1-0.1,0.4-0.1,0.5-0.1c0.4-0.1,0.5-0.2,0.5-0.7
	c0.1-1.6-0.1-3.2-0.1-4.9c0-0.3-0.1-0.4-0.4-0.4c-0.1,0-0.4,0-0.4,0.1c0,0.7-0.1,1.4-0.2,2.1c0,0.1-0.1,0.2-0.1,0.4
	c-0.1,0.2-0.1,0.5-0.5,0.4s-0.4-0.3-0.4-0.6c0-0.1,0-0.1,0-0.2c0-0.6,0.1-1.2-0.2-1.7c0-0.2-0.1-0.4-0.2-0.7c0-0.1,0-0.3,0.1-0.4
	c0.2-0.7,0.1-1.6,0.1-2.3c0-0.2-0.1-0.4-0.1-0.7s0-0.5,0-0.7c0.1-0.3,0.1-0.4,0.4-0.5c0.1,0,0.2,0,0.4,0c0.7,0,0.8,0.1,0.8,0.8
	c0,0.1,0,0.4,0,0.5c0,0.3,0,0.5,0,0.8c0,0.5-0.1,1-0.1,1.6c0,0.3,0.1,0.5,0.4,0.5s0.4-0.2,0.4-0.5c0-0.4,0-0.7,0-1.2
	C42.2,18.7,42.3,18.5,42.8,18.5C42.7,18.3,42.8,18.3,42.8,18.5z"/>
<path class="st2" d="M37.8,33.2c0.1-1,0.1-2.1,0.1-3.1c0.1-0.1,0.2-0.1,0.4-0.1c0.4,0.1,0.4,0.4,0.4,0.7c-0.1,2.3,0,4.6-0.1,6.9
	c0,0.4,0,0.7,0.4,0.8c0.1,0.1,0.2,0.2,0.1,0.4c-0.5,0.1-0.6,0.6-0.6,1.1c0,1.4,0,2.9,0,4.3c0,0.4,0.1,0.6,0.5,0.7
	c0.1,0.1,0.1,0.1,0.1,0.1c-0.1,0.4-0.4,0.1-0.7,0.2c-0.3,0.1-0.4,0.4-0.8,0.3c0-0.9,0-1.8,0-2.8c-0.1-0.1-0.2-0.1-0.2-0.2
	c0.2-1.2,0.1-2.4,0.1-3.6c0-0.8,0-1.6,0-2.5c0-0.9,0-1.7,0-2.6C37.7,33.6,37.7,33.4,37.8,33.2z"/>
<path class="st3" d="M43.3,38.6c-0.1-1.8-0.1-3.6-0.1-5.5c0.7,1.1,1.3,2.3,2.1,3.4c0.3,0.5,0.6,1,0.9,1.6c0.1,0.1,0.1,0.3,0.1,0.4
	c-0.1,0.1-0.3-0.1-0.4-0.1c-0.4-0.1-0.7-0.1-0.8,0.4c0.1,0.1,0.1,0,0.1,0c0.1-0.1,0.2-0.1,0.4,0c0.1,0.1,0.1,0.3,0,0.4
	c-0.1,0.2-0.4,0.4-0.6,0.4C44.5,39.3,43.9,38.9,43.3,38.6z"/>
<path class="st4" d="M43.3,38.6c0.7,0.1,1.2,0.6,1.7,1c0.1,0.1,0,0.2,0,0.4c-0.1,0.4,0.1,0.6,0.5,0.6c0.3,0,0.5,0,0.7,0.1
	c0,0.5,0,1,0,1.6c0,0.4-0.1,0.4-0.4,0.4c-0.7,0-1.5,0-2.3,0c-0.3,0-0.4,0.1-0.4,0.4c0,0.4,0.1,0.9-0.1,1.3c0-0.4,0-1,0-1.4
	c0-0.3,0.1-0.4,0.4-0.4c0.4,0,0.9,0,1.4-0.1c-0.3-0.1-0.6-0.3-1-0.4c-0.5-0.1-0.7-0.4-0.7-1c0-0.6,0.1-1.3-0.1-1.9
	C43.2,39.1,43.2,38.8,43.3,38.6z"/>
<path class="st5" d="M38,29.4c0.1-3.1,0.1-6.3,0.3-9.4c0-0.4,0-0.9,0.1-1.3c0.1-0.1-0.1-0.4,0.1-0.4s0.4,0.1,0.5,0.3
	c0.1,0.4,0.1,1,0.1,1.5c0,0.4,0.1,0.6,0.4,0.7c0.1,0,0.1,0.1,0.1,0.1c0,0.2-0.1,0.3-0.2,0.3c-0.4,0.1-0.4,0.4-0.4,0.7
	c0,1,0,1.9,0,2.8c0,0.6-0.1,1.2-0.1,1.8c0,0.3,0.1,0.6,0.4,0.7c0.1,0.1,0.4,0.1,0.1,0.4c-0.5,0.1-0.6,0.4-0.6,0.9
	c0,0.4,0.1,0.7-0.1,1.1C38.4,29.7,38.2,29.7,38,29.4z"/>
<path class="st6" d="M41.9,55.1c0.1,1.2,0.3,2.3,0.2,3.5c0,0.4-0.1,0.7-0.1,1c-0.2-0.1-0.1-0.4-0.1-0.7c0-0.7,0-1.4,0-2.2
	c-0.1,0-0.1,0.1-0.2,0.2c-0.4,0.1-0.4,0.4-0.4,0.8c0,0.8,0.1,1.6-0.1,2.5C41,60.4,41,60.5,41,60.7c0,0.1-0.1,0.4-0.4,0.4
	c-0.2-0.6-0.1-1.3-0.1-1.9c-0.1-0.7-0.1-1.3-0.4-1.9c-0.2-0.5-0.4-1-0.4-1.8c-0.1,0.3-0.1,0.7-0.4,0.7c0-0.4,0-0.8,0-1.2
	c0.1-0.1,0.2-0.1,0.4-0.1s0.4,0,0.5,0c0.5,0,1,0,1.6,0C41.7,54.9,41.9,54.9,41.9,55.1z"/>
<path class="st7" d="M37.8,33.2c0,1.1,0,2.2,0,3.4c-0.1,0.3-0.3,0.5-0.7,0.7c-0.6,0.2-1.1,0.7-1.6,0.9c-0.4,0.1-0.6,0.6-0.6,1
	c0,0.7,0,1.3,0,1.9c0,0.5,0.1,1-0.1,1.5c0,0.1-0.1,0.1-0.1,0.1c-0.1-0.1-0.1-0.3-0.1-0.4c0-0.8,0-1.6,0-2.4c0-0.9,0.1-1.7,0.6-2.5
	C36.2,36,36.9,34.5,37.8,33.2z"/>
<path class="st0" d="M43.3,47.9c-0.1,2-0.1,4-0.3,6.1c0,0.2-0.1,0.4-0.1,0.7c0,0.4-0.2,0.5-0.6,0.4c-0.3-0.5-0.1-1-0.1-1.6
	c0.1-0.6,0.1-1.1,0-1.7c0-0.2-0.1-0.4-0.2-0.6c-0.1,0.1-0.2,0.3-0.4,0.2c-0.2-0.1-0.2-0.4-0.4-0.6c-0.1-0.1-0.1-0.4,0.1-0.5
	c0.1-0.1,0.4-0.1,0.5-0.1c0.7-0.1,0.7-0.1,0.7-0.7c0-0.4,0-0.7,0-1.2c0-0.5,0.1-0.6,0.7-0.5C43.1,47.7,43.2,47.7,43.3,47.9z"/>
<path class="st8" d="M38.8,55c-0.4,0.1-0.5,0-0.5-0.4c-0.2-1.8-0.4-3.7-0.4-5.5c-0.1-0.4,0-0.8,0-1.2c0.1-0.1,0.1-0.1,0.3-0.1
	c0.4,0,0.5,0.1,0.5,0.5c0,0.4,0.1,0.7,0.1,1c-0.1,0.5,0,1,0.6,1.1c0.1,0.2,0.1,0.4-0.1,0.5c-0.5,0.4-0.5,0.8-0.4,1.3
	c0.1,0.7,0.1,1.5,0.1,2.2C38.9,54.6,38.9,54.8,38.8,55z"/>
<path class="st9" d="M38.3,17.8c0-1.9,0.1-3.9,0.2-5.8c0-0.3,0.4-0.7,0.7-1c0.8-0.4,1.6-0.4,2.4,0c0.3,0.1,0.4,0.4,0.5,0.7
	c-0.1,0.1-0.1,0.1-0.3,0.1c-0.2,0-0.4-0.1-0.5-0.2c-0.7-0.5-1.1-0.5-1.9,0.1c-0.2,0.1-0.3,0.4-0.4,0.7c-0.1,1.5-0.1,3-0.1,4.4
	c0,0.2,0,0.5-0.1,0.7C38.9,17.8,38.6,17.9,38.3,17.8z"/>
<path class="st10" d="M39.1,56.3c0.1-0.1,0.1-0.4,0.2-0.7c0-0.1-0.1-0.3,0.1-0.3c0.1,0,0.2,0.1,0.2,0.3c-0.1,0.4,0.2,0.9,0.2,1.3
	c0,0.1,0,0.3,0.1,0.3c0.4,0.2,0.3,0.6,0.4,0.9c0.2,1,0.1,1.9,0.1,2.9c0.1,0.1,0.1,0.2,0.1,0.4c0,0.7-0.2,1.3-0.4,2
	c-0.2,0.1-0.3-0.1-0.3-0.3c-0.1-0.6-0.3-1.2-0.2-1.9c0-0.2,0.1-0.5-0.1-0.7c-0.1-0.5-0.1-1-0.1-1.6c0-0.7,0.1-1.5-0.1-2.2
	c-0.1,0.2,0.1,0.7-0.4,0.7C39.1,57.1,39.1,56.6,39.1,56.3z"/>
<path class="st11" d="M43.3,47.9c-0.1,0-0.1-0.1-0.1-0.1S43,47.7,43,47.7c-0.8-0.1-0.8-0.1-0.8-0.9c0-0.5-0.1-1.1,0.1-1.6
	c0.1-0.1,0.3,0,0.4,0.1c0.1,0.1,0.3,0.2,0.5,0.1c0.1,0.1,0.2,0.2,0.3,0.3c0.2,0.1,0.5,0.1,0.6,0.4c0.1,0.5,0,1,0,1.6
	c0,0.1-0.1,0.1-0.3,0.1C43.6,47.9,43.4,47.9,43.3,47.9z"/>
<path class="st12" d="M38.2,47.7c-0.1,0-0.1,0-0.3,0c-0.1,0-0.1,0.1-0.1,0.1c-0.8,0-0.7,0-0.9-0.9c-0.1-0.8,0.3-1.2,0.9-1.5
	c0.3-0.1,0.5-0.3,0.8-0.4c0.2,0.2,0.2,0.5,0.2,0.8c0,0.4-0.1,0.7-0.1,1.1C38.9,47.5,38.7,47.7,38.2,47.7z"/>
<path class="st11" d="M41.5,56.9c0-0.3,0.1-0.4,0.4-0.5c0,1.1,0,2.2,0,3.2c-0.1,1.6-0.1,3.2-0.6,4.8c-0.1,0.1,0,0.3,0,0.5
	c-0.3-0.1-0.4-0.2-0.3-0.6c0.2-0.6,0.1-1.2,0.1-1.8c0-0.1,0-0.1,0-0.2c0-0.7-0.1-1.6,0-2.3c0.1-0.9,0.2-1.7,0.2-2.6
	C41.4,57.1,41.4,56.9,41.5,56.9z"/>
<path class="st13" d="M40.3,63.4c-0.2-0.8,0.4-1.6,0.2-2.4c0.1-0.1,0.2-0.2,0.2-0.4c0-0.1,0-0.3,0.2-0.4c0.3,0.6,0.1,1.3,0.1,1.9
	c0,0.1-0.1,0.3,0,0.5c0.1,0.5,0.1,1-0.1,1.6c0,0.1,0,0.1,0,0.2c0,1.4,0.1,2.8-0.2,4.3c0,0.1,0,0.1,0.1,0.2c0,0.4,0,0.4-0.1,0.7
	c-0.1-0.2-0.1-0.4-0.1-0.7c0-0.9,0-1.7-0.2-2.6c-0.1-0.3-0.1-0.7-0.1-1s0-0.6-0.1-0.9C39.9,64,40.1,63.7,40.3,63.4z"/>
<path class="st14" d="M38.8,55c0-1,0-2.2-0.1-3.2c0-0.4,0-0.9,0.6-1.1c0.2-0.1,0.1-0.3,0.1-0.4l0.1-0.1c0.1-0.1,0.4-0.1,0.5,0.1
	c0.1,0.1,0.1,0.4,0,0.5c-0.2,0.4-0.4,0.9-0.4,1.4c0.1,0.8,0.1,1.6,0.1,2.4c0,0.1,0,0.3-0.1,0.4c-0.1,0-0.3,0-0.4,0
	C38.9,55.1,38.9,55,38.8,55z"/>
<path class="st15" d="M41.9,11.7c0.1,0,0.2,0,0.3,0c0.3-0.1,0.3,0.1,0.3,0.4c0.1,1.5,0.1,3,0.2,4.5c0.1,0.4,0.1,0.7,0,1
	c-0.4,0.2-0.6,0.1-0.7-0.3C42,17.2,42,16.9,42,16.7c0-1.6,0-3.1-0.1-4.7C41.9,11.8,41.9,11.8,41.9,11.7z"/>
<path class="st16" d="M40.3,63.4c0,0.2,0.1,0.4-0.1,0.7c0,0-0.1,0.1,0,0.1c0.4,0.7,0,1.4,0.2,2c0.3,0.7,0.1,1.6,0.1,2.3
	c0,0.1,0,0.3-0.1,0.4c-0.1-1.1-0.4-2.2-0.5-3.4c-0.1-0.6-0.2-1.2-0.4-1.9c-0.1-0.2-0.1-0.4-0.1-0.7c0.1-0.2,0.1-0.4,0.1-0.7
	c0-0.6-0.2-1.2,0.1-1.8c0.3,0.1,0.2,0.3,0.1,0.4c-0.1,0.7,0.1,1.5,0.2,2.2C40.1,63.4,40.2,63.4,40.3,63.4z"/>
<path class="st17" d="M46.4,40.7c-0.3,0-0.7-0.1-1,0c-0.3,0.1-0.6-0.4-0.5-0.7c0-0.1,0.1-0.2,0.1-0.4c0.6-0.4,0.6-0.4,0.5-0.8
	c-0.1,0.1-0.2,0.4-0.4,0.3C45,39,45,38.9,45,38.8c0-0.2,0.1-0.4,0.4-0.5c0.4-0.2,0.7,0,1,0.3C46.4,39.4,46.4,40,46.4,40.7z"/>
<path class="st18" d="M41.6,51.2c0.2,0,0.3-0.1,0.3-0.3c0-0.1,0.1-0.2,0.2-0.2c0.1,0,0.1,0.1,0.1,0.2c0.3,0.8,0.2,1.6,0.1,2.5
	c-0.1,0.5,0,1-0.1,1.6c-0.1,0-0.3,0-0.4,0s-0.2,0-0.3,0c-0.1-0.1-0.1-0.4-0.1-0.6c0-0.7-0.1-1.3,0.1-2C41.6,52,41.5,51.6,41.6,51.2z
	"/>
<path class="st19" d="M39.7,60.5c0,0.7,0,1.3,0,2c0,0.1,0.1,0.4-0.2,0.4c-0.2-1.8-0.4-3.7-0.4-5.5c0.3-0.1,0.1-0.3,0.1-0.5
	s-0.1-0.4,0.1-0.7c0.2,0.3,0.4,0.6,0.3,0.9C39.7,58.3,39.7,59.4,39.7,60.5z"/>
<path class="st20" d="M40.7,68.9c-0.1-0.1-0.1-0.4-0.1-0.5c0.1-0.7,0.1-1.5,0.1-2.3c-0.1-1.2,0.3-2.3,0.2-3.5
	c0.1-0.2,0.1-0.4,0.4-0.4c-0.1,0.7,0.1,1.4-0.1,2.1c-0.1,0.1-0.1,0.4,0.1,0.6c-0.1,1.2-0.4,2.3-0.5,3.4
	C40.7,68.5,40.7,68.7,40.7,68.9z"/>
<path class="st21" d="M38,29.4c0.2,0,0.4,0,0.7,0c0.2-0.1,0.4-0.1,0.7-0.1c0.1,0,0.2,0,0.4,0c0.4,0.1,0.5,0.4,0.2,0.7
	c-0.1,0.1-0.4,0.1-0.5,0.1C39,30,38.6,30,38.3,29.9c-0.1,0-0.2,0-0.3,0C37.9,29.8,37.8,29.7,38,29.4z"/>
<path class="st22" d="M42.8,17.6c0-0.4,0-0.7,0-1c0.1,0.3,0.1,0.6,0.1,0.9s-0.1,0.7-0.1,1c-0.1,0-0.1-0.1-0.1-0.1
	c-0.4,0.1-1,0.2-1.4,0.1c-0.1-0.3-0.1-0.5,0-0.8c0.1-0.1,0.3-0.1,0.4-0.1C42,17.5,42.4,17.8,42.8,17.6z"/>
<path class="st23" d="M36.4,46.5c0,0.5,0,1,0,1.4c0,0.3-0.2,0.2-0.4,0.2c-0.2,0-0.4-0.1-0.4-0.3C35.5,47.2,35.7,46.8,36.4,46.5z"/>
<path class="st24" d="M42.5,29.4c0.2,0,0.4,0,0.7,0c0,0.1,0,0.4,0,0.5c-0.1,0-0.3,0-0.4,0c-0.3,0.1-0.6,0.3-0.9,0.1
	c-0.2-0.1-0.4,0-0.7-0.1c-0.2-0.2-0.1-0.4,0.1-0.7C41.6,29.3,42.1,29.2,42.5,29.4z"/>
<path class="st25" d="M44.8,47.3c0-0.1,0-0.2,0-0.3c0-0.1-0.1-0.4,0.1-0.4s0.4,0.1,0.4,0.4s0,0.5,0,0.7c0,0.3-0.1,0.4-0.4,0.4
	c-0.3,0-0.3-0.1-0.3-0.4C44.8,47.6,44.8,47.4,44.8,47.3L44.8,47.3z"/>
<path class="st26" d="M38.3,17.8c0.1-0.2,0.4-0.1,0.6-0.2c0.1-0.1,0.1-0.1,0.2,0.1c-0.1,0.2,0,0.5-0.1,0.7c-0.1,0.1-0.1,0.1-0.2,0.1
	c-0.3-0.2-0.5-0.1-0.6,0.2C38.3,18.4,38.3,18.1,38.3,17.8z"/>
<path class="st27" d="M34.8,42.7L34.8,42.7c0.1-0.1,0.2-0.2,0.4-0.2c0.7,0,1.4,0,2.1,0c0.1,0,0.3,0.1,0.4,0.1c0.1,0,0.1,0,0.1,0.1
	C36.8,42.7,35.8,42.7,34.8,42.7z"/>
<path class="st14" d="M37.8,47.9c0.1,0,0.1-0.1,0.1-0.1c0,0.4,0,0.8,0,1.3C37.8,48.6,37.9,48.3,37.8,47.9z"/>
<path class="st28" d="M41.3,29.4c0,0.1-0.1,0.4,0,0.5c0.1,0.1,0.1,0.1,0.1,0.2c-0.1,2.5,0.1,4.9,0.1,7.4c0,0.2,0,0.4-0.1,0.7
	c-0.2-0.3-0.1-0.6-0.1-0.9c0-0.6,0-1.2-0.1-1.8c0,0.4,0,0.9,0,1.3c-0.1,0.7,0,1.5-0.1,2.2c0,0.6,0.1,1.2-0.1,1.8l0,0
	c-0.4-0.1-0.6-0.4-0.8-0.6c-0.1-0.5,0-1-0.1-1.5c0-1.1,0-2.2,0.1-3.4c-0.1,0.2,0.1,0.5-0.1,0.6c-0.1-0.1-0.1-0.2-0.2-0.4
	c0-0.1,0-0.2,0-0.4c0.1-1.6,0-3.1,0-4.7c0-0.2,0-0.4,0.1-0.7c0.2-0.4,0.1-0.6-0.5-0.7c-0.2-0.2-0.1-0.5-0.1-0.7
	c0.1-0.2,0.1-0.5,0.1-0.7c0-0.2,0-0.4,0.2-0.5c0.1-0.1,0.2-0.1,0.3-0.3c0.1-0.1,0.1-0.1,0.3-0.1c0.3,0.4,0.1,0.8,0.1,1.3
	c0,0.5,0.1,1,0.1,1.6c0,0.1,0,0.2,0.1,0.2s0.1-0.1,0.2-0.2c0.1-0.1,0.1-0.4,0.1-0.5c0-0.4,0-0.8,0.1-1.3c0-0.2,0-0.4,0.4-0.4
	C41.3,28.4,41.3,28.9,41.3,29.4z"/>
<path class="st29" d="M41.9,30.1c0.3,0.1,0.6-0.1,0.9-0.1c-0.2,0.1-0.2,0.4-0.2,0.6c0,2.3,0.1,4.6,0.1,6.9c0,0.8,0,0.8-0.8,0.8
	c-0.1-0.2-0.1-0.4-0.1-0.6c0.1-2.3-0.1-4.6-0.1-6.9C41.6,30.6,41.5,30.2,41.9,30.1z"/>
<path class="st30" d="M41.8,38.7c0.1,0,0.1,0,0.2,0c0.4-0.1,0.7,0.1,0.6,0.6c0,1.6,0,3.3,0,4.9c0,0.5-0.2,0.7-0.7,0.7
	c-0.2,0-0.4,0-0.7,0c0.6-0.9,0.3-1.9,0.3-2.8c0-1,0.1-2.1,0.1-3.1C41.7,38.8,41.7,38.8,41.8,38.7z"/>
<path class="st31" d="M41.9,30.1c-0.1,0.1-0.1,0.4-0.1,0.6c-0.1,2.5,0.1,5.2,0.1,7.7c-0.2,0-0.4,0-0.6,0c0-0.8,0-1.6,0-2.5
	c0-1.7-0.1-3.4-0.1-5.2c0-0.2,0-0.5,0.1-0.7C41.4,30,41.6,29.9,41.9,30.1z"/>
<path class="st32" d="M39.9,50.7c0-0.1,0-0.3,0-0.5v-0.1c-0.1-1.6,0-3.2,0-4.9c0-0.1,0-0.2,0-0.4c0-0.5,0-1,0-1.6
	c0-0.1,0-0.2,0.1-0.4c0.3,0.1,0.2,0.3,0.2,0.4c0,0.3,0,0.7,0.1,1c0,0.3,0.1,0.6-0.1,0.8c0,2.1,0,4.2,0,6.2c0,0.1,0,0.3,0.1,0.4
	c0.1,0.2,0.2,0.1,0.4,0.1c0.1,0,0.3-0.1,0.3-0.2c0-0.1,0-0.2,0-0.4c0.1-2.9,0.1-5.8,0.1-8.7c0-0.1,0-0.1,0.1-0.2c0,0.6,0,1.2,0,1.8
	c0,0.1-0.1,0.4,0.1,0.5l0,0c0,0.1,0,0.1,0,0.2v0.1c0.1,1.6,0.1,3.3,0,4.9v0.1c0,0.1,0,0.3,0,0.5v0.1c0,0.5,0.1,1-0.1,1.5
	c-0.4,0.3-0.7,0.2-1.2,0.1C39.6,51.8,39.7,51.3,39.9,50.7z"/>
<path class="st33" d="M41.8,38.7c0,0.9,0,1.9-0.1,2.8c-0.1,0.8,0.1,1.7,0.1,2.5c0,0.4,0,0.7-0.5,0.9h-0.1l0,0c0-1.9,0-3.7,0-5.7
	C41.2,38.7,41.3,38.6,41.8,38.7z"/>
<path class="st34" d="M40.2,45.2c0-0.3,0-0.5,0-0.8c-0.1-1.1-0.2-2.3-0.1-3.5c0-0.1,0-0.3,0.1-0.4c0.4,0,0.4,0.3,0.7,0.5
	c0,1.7,0,3.4,0,5.1c-0.1,0-0.1,0-0.1,0.1C40.7,45.8,40.7,45.3,40.2,45.2z"/>
<path class="st35" d="M42.4,45.2c0,0.6,0,1.3,0,1.9c0,0.4,0.1,0.7,0.6,0.6c0.1,0,0.1,0,0.2,0.1c-0.4-0.1-0.6,0.1-0.6,0.6
	c0.1,0.4,0,0.9,0,1.3c0.1,0.4-0.1,0.6-0.6,0.5c-0.1,0-0.1,0-0.2,0c-0.3-0.4-0.2-0.9-0.1-1.3c0.1-1,0.1-1.9,0.1-2.9
	c0-0.2-0.1-0.5,0.1-0.7C42,45.2,42.2,45.2,42.4,45.2z"/>
<path class="st36" d="M41.9,45.2c0.1,1.6-0.1,3.4-0.1,5c-0.1,0-0.4,0-0.5,0l0,0c-0.1-1.7-0.1-3.4,0-5.1l0,0
	C41.4,45.3,41.6,45,41.9,45.2z"/>
<path class="st34" d="M40.9,41c0-1.2,0-2.3,0-3.5c0-0.1-0.1-0.4,0.1-0.4c0,1.2,0,2.3,0,3.5C41,40.7,41,40.9,40.9,41z"/>
<path class="st37" d="M41.1,27.9c-0.1,0.1-0.2,0.2-0.2,0.4c0,0.5,0,1,0,1.5c0,0.1,0,0.2-0.1,0.3c-0.1,0.1-0.1,0.4-0.4,0.4
	c-0.3-0.1-0.1-0.3-0.2-0.5c0-0.9,0-1.9-0.1-2.8c-0.2-0.4-0.4-0.8-0.4-1.3c0-1.3,0-2.5,0-3.7c0-0.2-0.1-0.5,0.2-0.6
	c0.3,0.7,0.2,1.5,0.2,2.3c0,0.2,0.1,0.4,0.3,0.4c0.2,0,0.3-0.1,0.3-0.3c0.2-0.9,0.4-1.8,0.3-2.8c0.2,0,0.2,0.2,0.2,0.4
	c0,1.9,0.1,3.7-0.1,5.6c0,0,0,0.1-0.1,0.1c0,0.1,0.1,0.1,0.1,0.2C41.3,27.6,41.3,27.7,41.1,27.9z"/>
<path class="st38" d="M41.6,17.7c-0.1,0.1-0.2,0-0.3-0.1c0-0.1,0-0.1,0-0.2c0-1,0-1-1-1c-0.4-0.1-0.4-0.5-0.3-0.8
	c0.1-1.2,0.1-2.4,0.1-3.6c0-0.1,0-0.2,0.1-0.3c0.4-0.1,0.9-0.1,1.4,0c0.1,0.1,0.1,0.4,0.1,0.6c0,1.6,0.1,3.2,0.1,4.9
	C41.7,17.3,41.7,17.5,41.6,17.7z"/>
<path class="st39" d="M39.9,27.2c0,0.1-0.1,0.2-0.2,0.2c-0.1,0.1-0.1,0.1-0.3,0c0,0,0,0-0.1-0.1c0.1-0.4-0.2-0.2-0.3-0.2
	c-0.3-0.1-0.4-0.2-0.4-0.5c0.1-1.8,0.1-3.5,0.1-5.3c0-0.2,0.1-0.4,0.3-0.4c0.1-0.1,0.4,0.1,0.4-0.2c0.1-0.1,0.1-0.1,0.2,0
	c0,0.1-0.1,0.2-0.1,0.3c-0.1,1.4,0,2.8-0.1,4.2c0,0.3,0,0.6-0.1,0.9C39.5,26.5,39.5,26.9,39.9,27.2z"/>
<path class="st40" d="M41.6,21c0.7,0,0.7,0,0.7,0.7c0,1.6,0.1,3.1,0.1,4.8c0,0.7,0,0.7-0.7,0.7c-0.2-0.4-0.2-0.8-0.2-1.2
	c0-1.4,0-2.9,0-4.3C41.5,21.4,41.5,21.1,41.6,21z"/>
<path class="st41" d="M39.9,27.2c-0.4-0.1-0.6-0.2-0.5-0.7c0.2-1.7,0.1-3.4,0.1-5.1c0-0.1-0.1-0.4,0.2-0.5c0.4,0,0.3,0.3,0.3,0.5
	c-0.1,0.1-0.1,0.4-0.1,0.5c0,1,0.1,2.1,0,3.1c-0.1,0.7,0.2,1.3,0.2,1.9C40,27.1,39.9,27.1,39.9,27.2z"/>
<path class="st42" d="M40,11.7c0.1,0.1,0.1,0.4,0.1,0.5c-0.1,1,0.1,2.2-0.1,3.2c-0.1,0.3,0,0.7,0.1,0.9c-0.3,0.1-0.3,0.4-0.3,0.6
	c0,0.2,0,0.4,0,0.7c-0.1,0.1-0.2,0.1-0.4,0c-0.1-0.4-0.1-0.9-0.1-1.3c0-1.3,0-2.6,0-4c0-0.2,0-0.4,0.1-0.7
	C39.7,11.6,39.8,11.6,40,11.7z"/>
<path class="st43" d="M41.6,21c0,1.6,0,3.2,0,4.8c0,0.4,0.1,1,0.1,1.4c-0.1,0-0.3,0-0.5,0c-0.1-0.3,0-0.5,0-0.8c0-1.7,0-3.4,0-5.2
	c0-0.1-0.1-0.1-0.1-0.1C41.3,20.9,41.5,21,41.6,21z"/>
<path class="st44" d="M41.1,27.9c0-0.1-0.1-0.4,0.2-0.4c1,0.1,1,0.1,1.1,1.1c0,0.3,0,0.7,0,1c-0.4,0-0.8,0-1.2,0
	C41,28.9,41.2,28.4,41.1,27.9z"/>
<path class="st45" d="M41.2,18.5c0.4-0.1,1-0.1,1.4-0.1c-0.3,0.1-0.4,0.2-0.4,0.6c0.1,0.4,0,0.9,0,1.3c0,0.3-0.1,0.3-0.3,0.4
	C41,20.8,41,20.8,41,20C41.1,19.4,41.2,18.9,41.2,18.5z"/>
<path class="st46" d="M39.8,20.7c-0.1,0-0.1,0-0.2,0h-0.1c-0.1-0.2-0.1-0.4-0.1-0.7c0-0.5,0-1.1-0.1-1.6c0.2-0.2,0.4-0.2,0.7-0.1
	c0,0.7,0,1.3,0,2.1C40,20.5,40.1,20.6,39.8,20.7z"/>
<path class="st47" d="M40,18.2c-0.2,0.1-0.4,0.1-0.7,0.1c-0.1,0.1-0.1,0.1-0.2,0c0.1-0.2-0.1-0.4,0.1-0.6c0.1-0.1,0.2-0.2,0.4-0.1
	c0.1,0,0.2,0,0.3,0C39.9,17.9,39.9,18,40,18.2z"/>
<path class="st27" d="M34.8,41c0-0.7,0-1.3,0-1.9c0-0.5,0.4-1,0.8-1.2c0.7-0.3,1.2-0.7,1.9-1c0.1-0.1,0.2-0.2,0.4-0.4
	c0,0.8,0,1.6,0,2.5c-0.1,0.7-0.4,1-1,1.2c-0.5,0.2-1,0.5-1.5,0.9C35.1,41.2,35,41.3,34.8,41z"/>
<path class="st48" d="M40.2,40.5c0,1.3,0,2.6,0,3.9c-0.2-0.3-0.1-0.6-0.1-0.9c0-0.2,0.1-0.4-0.1-0.6c-0.2-0.2-0.1-0.4-0.1-0.7
	c0-1,0-1.9,0-2.9c0-0.3-0.1-0.6-0.4-0.6c-0.1,0-0.1-0.1-0.1-0.1c0.1-0.2-0.1-0.3-0.3-0.3c-0.3,0-0.4-0.1-0.4-0.4c0-2.3,0-4.6,0-6.9
	c0-0.1,0.1-0.3,0.1-0.4c0-0.3,0-0.5-0.4-0.6c0.4,0,0.7-0.1,1.1,0.1c0.1,0.2,0.1,0.5,0.1,0.8c0,2.3,0.1,4.6-0.1,6.9
	c0,0.4,0.2,0.4,0.4,0.5c0.3,0.1,0.1,0.4,0.2,0.6C40.2,39.4,40.2,40,40.2,40.5z"/>
<path class="st49" d="M34.8,41c0.1,0,0.3,0.1,0.3,0.1c0.2-0.4,0.8-0.4,1.1-0.7c0.1-0.1,0.2-0.3,0.4-0.3c0.7-0.1,1-0.5,1.2-1.1
	c0,1,0,2,0,3.1c0,0.2-0.1,0.4-0.2,0.7c-1,0-1.9,0-2.8,0C34.8,42.1,34.8,41.5,34.8,41z"/>
<path class="st14" d="M39.2,44.9c-0.7,0-0.7,0-0.7-0.7c0-1.6,0-3.2,0-4.8c0-0.8-0.1-0.7,0.7-0.7c0,0,0,0,0,0.1
	c0.1,0.1,0.1,0.3,0.1,0.4c0,1.7,0.1,3.5,0.1,5.2c0,0.1,0,0.4-0.1,0.5C39.4,44.9,39.3,44.9,39.2,44.9z"/>
<path class="st14" d="M38.2,47.7c0.4-0.1,0.5-0.2,0.4-0.7c-0.1-0.7,0.1-1.3-0.1-2c0.2,0,0.4,0,0.6,0c0.2-0.1,0.4-0.3,0.6,0.1
	c-0.3,0.2-0.4,0.5-0.4,0.9c0.1,1.2,0,2.3,0,3.5c0,0.2,0,0.4-0.1,0.6l0,0c-0.7,0-0.7,0-0.7-0.7c0-0.5-0.1-1-0.1-1.5
	C38.6,47.7,38.3,47.8,38.2,47.7z"/>
<path class="st48" d="M39.9,45.2c-0.1-0.1-0.4-0.1-0.6-0.1c0-0.1,0-0.1,0-0.2c0.1,0,0.1,0,0.1,0c0.1-0.1,0.3-0.1,0.4-0.1
	c0.1,0,0.1,0.1,0.1,0.1c0,0.1,0,0.2,0,0.3C40,45.2,40,45.2,39.9,45.2L39.9,45.2z"/>
<path class="st50" d="M39.4,28.6c0,0.3,0,0.5,0,0.8c-0.2,0-0.4,0-0.7,0c0-0.4,0-0.9,0-1.3c0-0.8-0.1-0.7,0.7-0.7l0,0
	C39.5,27.9,39.5,28.2,39.4,28.6z"/>
<path class="st51" d="M39.1,18.3c0.1,0,0.1,0,0.2,0c0.1,0.1,0.2,0.3,0.2,0.5c0,0.6,0,1.2,0,1.9c-0.4,0.1-0.7-0.1-0.6-0.6
	c0.1-0.5,0-1.1,0-1.6C38.9,18.4,39,18.4,39.1,18.3z"/>
<path class="st52" d="M40,52.4c0.4,0,0.7,0.1,1.1-0.1c0.1-0.5-0.1-1,0.1-1.6l0,0c0.4-0.1,0.3,0.3,0.3,0.5c0.4,0.3,0.2,0.7,0.1,1.1
	c-0.1,0.9,0,1.8,0,2.6c-0.5,0-1.1,0-1.6,0c-0.1-0.1-0.1-0.4-0.1-0.6c0-0.5,0-1.1,0-1.6C39.8,52.6,39.8,52.4,40,52.4z"/>
<path class="st53" d="M41.3,62.2c-0.1,0.1-0.3,0.3-0.4,0.4c-0.1,0-0.1-0.1-0.1-0.1c0.3-0.7,0.1-1.6,0.1-2.3c0-0.9,0-1.9,0-2.8
	c0-0.5,0.2-0.7,0.6-0.6c0,0.7,0.1,1.3,0,1.9C41.2,59.9,41.4,61,41.3,62.2z"/>
<path class="st54" d="M40,52.4c0,0.9,0,1.8,0,2.7c-0.1,0-0.3,0-0.5,0c-0.1-1,0.1-2-0.1-3.1c-0.1-0.4,0.3-0.7,0.3-1.2
	c0,0,0.1,0,0.2-0.1C39.9,51.2,39.8,51.8,40,52.4z"/>
<path class="st55" d="M41.6,17.7c-0.1-1.6,0.1-3.1-0.1-4.6c-0.1-0.4,0.2-0.9,0-1.4c0-0.1,0-0.1,0.1-0.2c0.1,0.2,0.2,0.3,0.4,0.3
	c0.1,0.3,0.2,0.7,0.1,1c-0.1,0.4,0.1,0.7,0.1,1.1c0,1,0,2,0,3c0,0.4,0,0.8,0.6,0.7C42.4,17.8,41.9,17.7,41.6,17.7z"/>
<path class="st56" d="M39.5,17.6c-0.1,0-0.3,0.1-0.4,0.1s-0.1-0.1-0.2-0.1c0-1.1,0-2.2,0-3.3c0-0.7,0.1-1.5,0.1-2.3
	c-0.1-0.4,0.4-0.3,0.5-0.5c0.1,0.1,0.1,0.1,0,0.2C39.5,13.7,39.5,15.6,39.5,17.6z"/>
<path class="st57" d="M39.5,11.7c0-0.1,0-0.1,0-0.2c0.7-0.6,1.3-0.6,1.9,0c0,0.1,0,0.1-0.1,0.2c-0.4,0-1,0-1.4,0
	C39.8,11.7,39.7,11.7,39.5,11.7z"/>
<path class="st58" d="M39.4,50.2c0-1.5,0-3.1,0-4.6c0-0.4,0.2-0.4,0.5-0.4l0,0c0.1,0.9,0,1.8,0,2.8c0,0.7,0.1,1.5,0,2.3l0,0
	C39.7,50.2,39.5,50.2,39.4,50.2z"/>
<path class="st59" d="M40,38.3c-0.7,0-0.7,0-0.6-0.7c0.1-0.7,0-1.3,0-2c0-1.3,0-2.6,0-3.9c0-0.5,0-1.1,0-1.6c0.1,0,0.3,0,0.5,0
	c0.1,1.1,0,2.2,0.1,3.3c0.1,0.7-0.1,1.5-0.1,2.2c0,0.1-0.1,0.4,0.1,0.4C40.1,36.8,40.1,37.6,40,38.3z"/>
<path class="st34" d="M40,38.3c0-0.7,0-1.5,0-2.2c0.1-0.4-0.1-0.7,0.2-1.1c0,1.3,0,2.6,0,3.9C40,38.8,40.2,38.5,40,38.3z"/>
<path class="st37" d="M39.4,28.6c0-0.4,0-0.8,0-1.2c0.1,0,0.2,0,0.3,0c-0.2,0.1-0.2,0.4-0.2,0.6S39.5,28.5,39.4,28.6z"/>
<path class="st60" d="M39.8,44.9c-0.1,0-0.3,0-0.4,0c0.1-2.1-0.1-4.1-0.1-6.2c0.7-0.1,0.7-0.1,0.7,0.7c0,1.2,0,2.4,0,3.6
	c0,0.1,0,0.2,0,0.3c-0.1,0.4,0,0.7-0.1,1.1C39.9,44.6,40,44.8,39.8,44.9z"/>
<path class="st0" d="M41.2,45.1c0,1.7,0,3.4,0,5.1C41,48.6,41,46.8,41.2,45.1L41.2,45.1z"/>
<path class="st14" d="M39.9,50.2c0-1.6,0-3.4,0-5H40c0,1.6,0,3.1,0,4.6C40,50,40,50.1,39.9,50.2z"/>
<path class="st14" d="M39.8,44.9c0.1-0.5-0.1-1.1,0.1-1.6c0,0.5,0,1.1,0,1.6C39.9,44.9,39.9,44.9,39.8,44.9z"/>
<path class="st0" d="M41.2,50.7c-0.1,0.5,0.1,1-0.1,1.6C41.2,51.8,41,51.2,41.2,50.7z"/>
</svg>
