<?xml version="1.0" encoding="utf-8"?>
<!-- Generator: Adobe Illustrator 23.1.1, SVG Export Plug-In . SVG Version: 6.00 Build 0)  -->
<svg version="1.1" id="Livello_1" xmlns="http://www.w3.org/2000/svg" xmlns:xlink="http://www.w3.org/1999/xlink" x="0px" y="0px"
	 viewBox="0 0 80 80" style="enable-background:new 0 0 80 80;" xml:space="preserve">
<style type="text/css">
	.st0{fill:#40BEBB;}
	.st1{fill:#19B9AF;}
	.st2{fill:#E8AF35;}
	.st3{fill:#EAB335;}
	.st4{fill:#773F87;}
	.st5{fill:#8C589B;}
	.st6{fill:#D7A537;}
	.st7{fill:#68C1BC;}
	.st8{fill:#DDA237;}
	.st9{fill:#E5BB4D;}
	.st10{fill:#DDBA4D;}
	.st11{fill:#D5B356;}
	.st12{fill:#CABA71;}
	.st13{fill:#CDAF5E;}
	.st14{fill:#EED2BF;}
	.st15{fill:#E6F5F9;}
	.st16{fill:#E0F2F6;}
	.st17{fill:#69B58C;}
	.st18{fill:#88B999;}
	.st19{fill:#BAE5F5;}
	.st20{fill:#70B056;}
	.st21{fill:#EDB434;}
	.st22{fill:#BCE2F2;}
</style>
<path class="st0" d="M22.6,22.8c1.6-7.2,5.3-13.4,10.3-18.7C38-1.4,46-0.4,50.3,5.9c1.1,3.7,3.2,7.1,4,10.9c1.1,5.6,3.2,11.1,1.3,17
	c-0.4,1.2-0.4,2.4-0.2,3.6c0.7,7.1-1.9,13.3-4.7,19.5c-0.7,1.5-1.7,2.8-2.1,4.4c-0.2,0.9-0.6,1.7-1.8,1.5c-1.5-1.9-1.8-4.5-3.6-6.2
	c-2.8-2.2-5.1-1.6-6.7,1.7c-0.1,0.3-0.3,0.6-0.4,0.8c-1.1,1.5,0,3.7-1.5,5c-1.8,0.9-3.8,0.6-5.7,0.4c-0.3-0.1-0.6-0.2-0.9-0.4
	c-1-1.1-0.5-2.9-1.5-4c-0.2-0.3-0.3-0.6-0.4-0.9c-0.1-2.3-1.9-4.1-1.4-6.5c-0.7-5-2.5-9.7-2.7-14.8C21.7,32.8,21.9,27.8,22.6,22.8z"
	/>
<path class="st1" d="M46.4,62.5c2.1-1.9,2.6-4.7,3.8-7c3.3-6.5,3.7-13.7,4.6-20.9c0.6-5.1-0.7-9.8-0.6-14.7c0-2.8-1.9-5.7-2.8-8.5
	c-0.6-1.8-1.7-3.5-1.1-5.5c1.1,1.5,2.3,3.1,3.4,4.6c0.7,2.2,1.8,4.1,3.4,5.9c4,7.6,4.4,15.7,3.6,23.9c-0.4,4.5-1.6,8.8-2.8,13.1
	c0.5,0.7,0.5,1.5,0.2,2.2c-0.1,0.3-0.3,0.5-0.5,0.7c-1.6,1-1,2.6-1.1,4c-0.1,1.8-0.9,3.3-2.3,4.5c-2.7,0.5-5.2,0.1-7.7-0.8
	C46.1,63.6,46.1,63.1,46.4,62.5z"/>
<path class="st2" d="M54.5,64.5c-0.3-1.7,1.6-2.9,1.3-4.6c0.6-1.3,0.6-3,1.9-4l0.1,0.1c2.5-0.6,4,0.9,5.2,2.6
	c3.3,4.5,3.9,9.3,1.2,14.4c-0.3,0.5-0.2,1.1-0.5,1.5l0,0c-1.8,1-2.8,0.5-3.2-1.5c-0.2-0.8-0.3-1.7-0.8-2.5c-0.8-1.7-0.9-3.7-2.8-4.8
	C56,65.5,55,65.4,54.5,64.5z"/>
<path class="st3" d="M43.2,73.2c-0.3,1.3-0.5,2.5-0.8,3.8c-1.5,1.1-2.6,0.7-3.1-1.1c-0.4-2.9-1.4-5.7-2.1-8.4c-0.9-3-1-5.9-0.6-9
	c0.1-1.1,0.8-1.8,1.9-2c4.5-0.2,7.1,2.1,6,6C43.5,66.1,43.6,69.7,43.2,73.2z"/>
<path class="st4" d="M54.5,64.5c1,0,2,0.1,2.4,1.2c0.1,2.6-1.2,3.7-3.7,3.6c-2.6-0.1-5.3-0.1-7.9-0.1c-1.5-2.8-1.3-3.7,1.1-5.2
	C49.1,64.2,51.8,64.3,54.5,64.5z"/>
<path class="st5" d="M28.2,64c2.1,0,4.3,0,6.4,0c0.5-0.5,1-0.4,1.5,0c0,1.8,2.7,3.7-0.3,5.3c-2.5,0-5-0.1-7.5-0.1
	c-1.3,0-2.3-0.4-3.1-1.4C24.5,65.2,25.7,64,28.2,64z"/>
<path class="st6" d="M24,66.5c-1.6,2.4-2,5.2-2.6,7.9c-0.5,0.4-1,0.4-1.5,0c-1.5-5.1-0.7-9.8,2.3-14.1c0.6-0.9,0.9-2,1.5-2.9
	c2.9-1.5,1.8,1.8,3,2.5l0,0c1,1,0.7,2.3,0.6,3.4C26.4,64.7,25.3,65.7,24,66.5z"/>
<path class="st7" d="M22.6,22.8c0,3.2,0.2,6.4,0,9.5C22.4,38.2,23,43.9,25,49.4c0.4,1.2,0.3,2.6,0.4,3.9c-0.2,0.3-0.5,0.4-0.9,0.4
	c-0.2-0.1-0.4-0.2-0.6-0.4c-1.3-5.3-2.4-10.6-2.8-16.1C20.6,32.4,20.7,27.5,22.6,22.8z"/>
<path class="st8" d="M46.4,64c-1.5,1.5-1.1,3.4-1.1,5.2c-1,1.1-0.2,3.2-2,4c-1.4-2.9-1.2-6.1-0.3-8.8c1.7-5,0.7-7-4.4-7.1
	c-0.7-1.3,0.1-1.8,1.2-1.9c1.3-0.1,2.8-0.4,4,0.6c1.4,2,3.1,3.8,2.7,6.5C46.4,63,46.4,63.5,46.4,64z"/>
<path class="st9" d="M63.6,74.5c-0.4-2.7,1.8-4.9,1.4-7.7c-0.3-1.9,0.1-3.8-1.8-5.3c-1-0.8-1.1-2.3-0.9-3.8
	c-1.1,0.8-2.2,2.2-2.6-0.2c-0.2-1.3-0.9-1.6-2-1.6c0.1-0.8,0.1-1.7,0.2-2.5c2.9,0.8,4.6,3,6.3,5.3c3.4,3,3.3,6.6,2,10.5
	C64.9,70.7,65.3,73.1,63.6,74.5z"/>
<path class="st10" d="M20,74.4c0.5,0,0.9,0.1,1.4,0.1c0,1,0.3,2.1-0.9,2.5c-1.3,0.4-1.6-0.7-2-1.6c-2.4-4.3-3.9-8.8-2.4-13.8
	c0.2-0.8,0.3-1.5,1.2-1.7c0.1,0.1,0.3,0.2,0.4,0.3c0.9,1.6,0.6,3.4,0.6,5.1C18.3,68.4,19.2,71.4,20,74.4z"/>
<path class="st11" d="M35.9,69.3c1.5-1.8-0.3-3.5,0-5.3c-0.8-1.8-0.9-3.6,0-5.4l0,0c0.4-0.4,0.9-0.4,1.3,0
	c-0.2,4.9,0.6,9.7,2.5,14.3c0.4,0.8,0.1,2,0.1,2.9c-0.3,0.4-0.7,0.3-1,0C37.2,73.9,38,70.9,35.9,69.3z"/>
<path class="st10" d="M17.3,59.8c1.5-2.8,3.8-4.9,6.5-6.4c0,0,0.2,0.1,0.2,0.1c0.7,0.7,0.7,1.4,0.4,2.3c-0.6,0.8-1.9,0.6-2.2,2.2
	c-0.2,1.4-1.8,2.4-3.2,3.2c-1.1,0.6-1.2-0.3-1.5-1C17.5,60,17.4,59.9,17.3,59.8z"/>
<path class="st12" d="M59.7,70.5c1.7,1,0.5,4.8,4,4c-0.2,1.2-0.5,2.6-2.1,2.4c-1.4-0.1-1.3-1.5-1.5-2.6C60,73.1,59.8,71.8,59.7,70.5
	z"/>
<path class="st0" d="M57.1,16.3c-2.4-1.2-3.7-3.1-3.4-5.9C55.3,12.1,56.4,14.1,57.1,16.3z"/>
<path class="st13" d="M38.8,75.8c0.3,0,0.7,0,1,0c0.3,1.8,1.6,1.2,2.7,1.2c0,1.1-0.3,2.6-1.4,2.5C39.1,79.3,39.4,77.1,38.8,75.8z"/>
<path class="st14" d="M24,66.5c0.6-1.2,1.5-2.1,2.6-2.8c0.5-0.3,0.9-0.3,1.4,0c0,0,0.2,0.2,0.2,0.2c-1.3,1-3.4,1.5-3,3.9
	C24.8,67.4,24.4,67,24,66.5z"/>
<path class="st15" d="M37.8,29.6c-4.5-1.8-6.6-5.5-5.8-10c0.6-3.8,4-7,7.8-7.4c4.8-0.4,8.4,1.8,9.9,6.3c1.4,4.1,0,7.9-3.9,10.3
	C43.1,30.2,40.5,30.1,37.8,29.6z"/>
<path class="st16" d="M41,49.6c-4.4,0-7.6-3-7.7-7.2c-0.1-4.2,3.4-7.6,7.8-7.6c4.1,0,7.2,3.2,7.3,7.3C48.5,46.2,45.3,49.5,41,49.6z"
	/>
<path class="st17" d="M37.2,58.6c-0.4,0-0.9,0-1.3,0c-0.3-2.1,0.7-3.7,2.6-3.8c1.7-0.1,4.1-1.6,5.3,1.2c-1.7,0.5-3.9-1.2-5.2,1.2
	C37.7,57.3,37.2,57.7,37.2,58.6z"/>
<path class="st18" d="M24,56c0-0.9,0-1.7,0-2.5c0.4,0,0.9-0.1,1.3-0.1c-0.2,2.3,2.2,4.2,1.3,6.6c-2,0.1-0.7-2.8-2.5-2.8
	C23.7,56.8,23.6,56.4,24,56z"/>
<path class="st17" d="M35.9,58.6c0,1.8,0,3.6,0,5.4c-0.4,0-0.8-0.1-1.2-0.1C35.1,62.2,33.3,59.8,35.9,58.6z"/>
<path class="st19" d="M37.8,29.6c2.7,0.2,5.2-0.4,7.8-0.8C43.2,31.1,40.5,30.7,37.8,29.6z"/>
<path class="st18" d="M28,63.7c-0.5,0-0.9,0-1.4,0c0-1.3,0-2.5,0-3.8C29,60.5,27.6,62.4,28,63.7z"/>
<path class="st20" d="M57.6,55.9c-0.1,1.6-0.9,2.9-1.9,4C56,58.4,54.5,56.1,57.6,55.9z"/>
<path class="st21" d="M24,56c0,0.4,0.1,0.8,0.1,1.2c0.4,2.3-1.7,3.6-2.4,5.2c-1,2.3-2.3,4.9-1.7,7.8c0.3,1.4,0,2.8,0,4.2
	c-1.7-1.9-2.5-4.2-2.6-6.7c-0.1-2.5,0.1-5,0.1-7.5c2.7,0.9,3.8-1.5,4.3-2.9C22.4,55.6,23.2,56.1,24,56z"/>
<path class="st19" d="M47.7,21.8c0,3.2-3.5,6.5-6.7,6.4c-3.6-0.1-7.3-4.3-7.1-8c0.1-2.2,4.4-5.9,6.7-5.8
	C43.9,14.5,47.8,18.6,47.7,21.8z"/>
<path class="st22" d="M46.4,42.4c0,2.8-2.7,5.7-5.4,5.6c-2.3-0.1-5.7-3.2-5.8-5.4c-0.1-2.6,2.6-5.7,5.2-5.7
	C43.8,36.8,46.4,39.2,46.4,42.4z"/>
</svg>
