<?xml version="1.0" encoding="utf-8"?>
<!-- Generator: Adobe Illustrator 23.1.1, SVG Export Plug-In . SVG Version: 6.00 Build 0)  -->
<svg version="1.1" id="Livello_1" xmlns="http://www.w3.org/2000/svg" xmlns:xlink="http://www.w3.org/1999/xlink" x="0px" y="0px"
	 viewBox="0 0 160 270" style="enable-background:new 0 0 160 270;" xml:space="preserve">
<style type="text/css">
	.st0{fill:#2B293B;}
	.st1{fill:#B4B4BA;}
	.st2{fill:#9D9CA1;}
	.st3{fill:#ABAAAE;}
	.st4{fill:#8B8B90;}
	.st5{fill:#99999D;}
	.st6{fill:#9E9E9E;}
	.st7{fill:#979798;}
	.st8{fill:#9A999D;}
	.st9{fill:#B8B7BC;}
	.st10{fill:#B1B0B4;}
	.st11{fill:#B2B2B2;}
	.st12{fill:#C1C0C0;}
	.st13{fill:#C1C1C1;}
	.st14{fill:#B4B4B4;}
	.st15{fill:#C2C2C2;}
	.st16{fill:#B9B9B9;}
	.st17{fill:#ABAAB0;}
	.st18{fill:#D3D3D3;}
	.st19{fill:#9F9F9F;}
	.st20{fill:#B6B6B6;}
	.st21{fill:#A1A1A0;}
	.st22{fill:#B5B5B5;}
	.st23{fill:#C4C4C4;}
	.st24{fill:#C7C7C6;}
	.st25{fill:#BABABA;}
	.st26{fill:#BDBDBD;}
	.st27{fill:#AAABAB;}
	.st28{fill:#ADADAD;}
	.st29{fill:#AEAEAE;}
	.st30{fill:#C7C8C6;}
	.st31{fill:#9A9B9A;}
	.st32{fill:#9C9C9D;}
	.st33{fill:#C9C9C9;}
	.st34{fill:#C8C7C6;}
	.st35{fill:#C9CAC9;}
	.st36{fill:#9B9C9D;}
	.st37{fill:#9B9C9C;}
	.st38{fill:#A1A1A1;}
	.st39{fill:#4B4A53;}
	.st40{fill:#4C4A54;}
	.st41{fill:#D7D8D8;}
	.st42{fill:#E4E4E4;}
	.st43{fill:#2E2E2F;}
	.st44{fill:#2D2C2F;}
	.st45{fill:#111111;}
	.st46{fill:#181818;}
	.st47{fill:#121212;}
	.st48{fill:#1E1E1E;}
	.st49{fill:#161615;}
	.st50{fill:#0D0D0D;}
	.st51{fill:#191919;}
	.st52{fill:#2C2C2D;}
	.st53{fill:#0C0C0C;}
	.st54{fill:#101010;}
	.st55{fill:#212223;}
	.st56{fill:#131313;}
	.st57{fill:#212121;}
	.st58{fill:#0D0E0E;}
	.st59{fill:#2A2A2A;}
	.st60{fill:#171717;}
	.st61{fill:#272727;}
	.st62{fill:#171617;}
	.st63{fill:#0B0B0B;}
	.st64{fill:#141414;}
	.st65{fill:#070707;}
	.st66{fill:#030303;}
	.st67{fill:#080808;}
	.st68{fill:#202020;}
	.st69{fill:#1D1D1D;}
	.st70{fill:#242324;}
	.st71{fill:#4E4C55;}
	.st72{fill:#959595;}
	.st73{fill:#ACABAB;}
	.st74{fill:#CCCCCC;}
	.st75{fill:#A5A5A5;}
	.st76{fill:#B3B3B3;}
	.st77{fill:#060809;}
	.st78{fill:#B8B7BA;}
	.st79{fill:#959499;}
	.st80{fill:#A4A4A8;}
	.st81{fill:#A5A4A8;}
	.st82{fill:#76A682;}
	.st83{fill:#D2ECEB;}
</style>
<path class="st0" d="M137.3,141.8c-1.2,25.5-2.4,50.9-4.2,76.3c-0.8,11.4-1.8,22.8-2.8,34.2c-0.8,9.7-8.7,17.3-18.4,17.7
	c-0.7,0-1.3,0-2,0c-20.1,0-40.3,0-60.4,0c-11.7,0-19.5-7.1-20.6-18.7c-2-21.6-3.5-43.3-4.7-65c-1.3-24.9-2.1-49.8-2.4-74.7
	c-0.1-12.4-0.4-24.7,0.4-37.1c0.8-13.1,2.5-26.2,4.6-39.2c1-6,1.9-12,3.2-17.9C31.7,8.8,37,4,45.5,2.2c6.2-1.4,12.5-1,18.7-1.2
	c14.7-0.4,29.4-0.1,44.1,0.2c5.5,0.1,10.7,1.2,14.9,5.1c3.7,3.4,5.4,7.8,6.3,12.5c3,15.1,5.3,30.3,6.8,45.6c2,19.6,1.2,39.2,1,58.8
	C137.2,129.4,137.3,135.6,137.3,141.8z"/>
<path class="st1" d="M39.3,150.8c-5.5-8.5-9.4-17.6-11.5-27.5c-1.4-6.6-1.3-13.3-1.2-20c0.2-16.9,1.2-33.7,3.1-50.5
	c1.4-12.4,3.1-24.7,4.7-37.1c0.6-4.7,4.2-8.6,8.9-9.6c4.5-1,9.1-1.6,13.8-1.9c0.6-0.2,1.2-0.2,1.9,0c-0.5,1.3-1.6,1.2-2.6,1.3
	c-1,0.1-1.9,0.2-2.1,1.4c-1.8,1.4-4,1.4-6,2c-3.6,1-6.9,2.3-8.2,6.1c-0.9,2.8-1.6,5.8-2,8.8c-0.7,5-1.4,10-1.8,15.1
	c-0.3,3-0.7,6.1-0.9,9.1c-0.2,3.8-0.5,7.6-0.9,11.5c-0.2,2.4-0.2,4.8-0.3,7.2c-0.4,10.1-0.7,20.2-0.3,30.2
	c0.2,5.1,0.5,10.3,1.1,15.5c0.5,4.5,1.3,9,2.4,13.4c1.3,5.3,3.9,10,7.3,14.3c2.2,2.8,4.3,5.7,7.2,7.9c1.5,1.1,3,2.1,4.7,2.9
	c0.8,0.4,1.5,0.7,2,1.4c0.2,1.4,1.5,1.5,2.4,2.3c0.7,0.6,1.9,1.1,0.6,2.2c-4.7-2-9.4-4.1-13.2-7.6c-1.1-1-2.1-1.3-3.6-0.6
	c-1.7,0.8-3.3,1.7-5,2.2C39.5,150.8,39.4,150.8,39.3,150.8z"/>
<path class="st2" d="M99.3,4c5.6,0.4,11.3,0.9,16.7,2.3c5.7,1.5,8.1,5.8,8.7,11.4c1.7,14.8,4,29.6,5.3,44.5
	c1.5,16.7,2.4,33.5,2.1,50.3c-0.2,13.1-4.6,25.1-11.4,36.2c-0.4,0.7-0.9,1.4-1.3,2.1c-0.7,0.3-1.3,0-1.9-0.4c-1.1-0.7-2.3-1.4-3.4-2
	c-1.7-1-2.3-0.9-3.9,0.4c-0.8,0.7-1.5,1.7-2.8,1.5c-0.6-0.3-0.9-0.7-0.8-1.4c0.1-0.6,0.5-1.1,1-1.5c8.4-7.9,13.8-17.3,15.4-28.9
	c0.8-6,1.3-12,1.7-18.1c0.5-9,0.3-18,0.2-27.1c-0.1-7.7-0.7-15.4-1.3-23.1c-0.7-8.2-1.4-16.4-2.6-24.5c-0.5-3.2-1.1-6.5-2-9.6
	c-1-3.4-3.1-5.5-6.5-6.5c-3.8-1.1-7.6-2-11.6-2.7c-0.9-0.2-1.9-0.2-2.6-1C98.1,5,98.8,4.5,99.3,4z"/>
<path class="st3" d="M107,149.1c0,0.5,0.4,0.7,0.7,1c0.3,1.1-0.7,1.3-1.3,1.7c-5.1,3.5-10.6,6-16.8,6.9c-2.4,0.3-3.3,1.7-3.2,4.1
	c0.1,2.9,0.8,5.7,1.2,8.5c0.1,0.8,0.6,1.5,1,2.3c0.3,0.5,0.9,1.2-0.1,1.6c-11.9,2.9-22.6,0-32.5-6.8c-0.4-0.3-0.8-0.5-1.2-0.8
	c1.6-2.2,3.2-4.4,4.8-6.6c1-1.3,1.7-2.8,1.8-4.5c0.2-1.7-1.4-1.7-2.3-2.4c-0.4-0.3-1.7-0.2-0.7-1.3c0.6-0.4,1.3-0.2,1.9,0
	c3.9,1.3,7.8,2.6,11.9,3.4c5.3,1,10.6,0.8,15.9-0.2c1.9-0.3,3.7-0.9,5.5-1.3c3.9-1.3,7.8-2.7,11.3-4.9
	C105.5,149.3,106.1,148.8,107,149.1z"/>
<path class="st4" d="M118.4,152.1c-3.1,4.1-6.3,8.2-10.2,11.6c-1,0.9-1.8,1.9-3.1,2.5c-2.2,0.6-2.8,0.1-2.7-2.1
	c0-1.9-0.1-3.9-0.1-5.8c0-1.5,0.1-3,0.7-4.4c0.5-1,1.6-1.2,2.4-1.7c1.7-1.2,3.3-2.4,4.9-3.7c1.6-1.4,2.2-1.4,4.1-0.2
	c1.3,0.8,2.6,1.5,3.9,2.3C119.1,151,119,151.5,118.4,152.1z"/>
<path class="st5" d="M103.4,153.8c-0.7,3.6,0,7.3-0.4,11c-0.2,1.9,1.4,1,2.1,1.4c-2.9,2.4-6,4.5-9.5,5.9c-0.8-0.2-1.9,0.7-2.5-0.5
	c-0.8-1.6-0.2-2.9,0.6-4.2c0.1-0.2,0.5-0.4,0.4-0.4c-1.6-0.8-0.9-2.2-0.9-3.3c0.2-0.4,0.1-0.8,0-1.1c-0.7-1.9-0.4-3.6,1-5.1
	c2.8-1,5.6-1.9,8.1-3.4C102.6,153.8,103,153.6,103.4,153.8z"/>
<path class="st6" d="M46.3,213.7c4.7,0.6,8.9,2.3,12,5.9c2.3,2.7,1.6,5.1-1.6,6.5c-3.7,1.6-7.4,1.3-11-0.4c-0.6-1.1-0.6-2.3-0.2-3.5
	c0.2-0.5,0.5-1.1,0-1.7c-0.2-1,1-1.8,0.3-2.8C45.3,216.3,44.7,214.9,46.3,213.7z"/>
<path class="st7" d="M107,215.3c3-1.5,6.2-2.1,9.5-1.7c3.9,0.5,5.3,3.2,3.2,6.6c-2.5,4.1-6.3,6.3-11.1,6.8c-1.3-1-0.9-2.3-0.4-3.5
	c0.1-0.2,0.2-0.3,0.3-0.4c0.2-0.2,0.5-0.2,0.7-0.1c0.7,0.5,0.9-0.2,1.2-0.6c0.5-0.7,1.1-1.1,1.9-0.3c0.1,0.2,0.3,0.2,0.1,0.1
	c0,0,0-0.1,0.1-0.2c-1.3-1.2-2.3,0.7-3.5,0.3c-0.2,0-0.4,0-0.7-0.1c-0.4-0.3-0.5-0.7-0.7-1.1C107.8,219.2,108,217.2,107,215.3z"/>
<path class="st8" d="M53.4,166.2c-1-1-2.2-1.8-3.1-2.9c-0.1-1.3-0.8-2.6-0.6-3.9c0.1-0.3,0-0.6-0.2-0.9c-0.9-1.1-0.9-2.3,0-3.5
	c0.2-0.3,0.2-0.5,0.1-0.8c0-1.8,0.4-2.3,2.1-2.5c2.6,1.4,5.3,2.9,8,4.1c1.7,0.7,2.1,2.2,1.1,3.7c-1.6,2.4-3.3,4.7-5.1,7
	C54.9,167.7,54.2,166.8,53.4,166.2z"/>
<path class="st9" d="M94.3,157.8c-0.9,1.8-1.2,3.6-0.2,5.4c0.2,0.4-0.3,0.3-0.5,0.3c-0.9,1.4-0.7,2.8,0.4,4
	c-0.1,0.4-0.1,0.8-0.2,1.1c-0.8,2.6-0.6,2.9,1.9,3.5c-2.1,0.8-4,2.1-6.3,2.3c-1.2-0.8-1.8-2.1-2-3.5c-0.4-2.6-0.8-5.1-1.2-7.7
	c-0.4-2.8,0.7-4.4,3.5-4.8C91.1,158.1,92.7,157.5,94.3,157.8z"/>
<path class="st10" d="M51.7,151.9c-0.9,0.5-1.8,0.9-1.7,2.2c-0.1,0.9-1.2,1.1-1.2,2.2c0,1.2,0.6,2,1.2,2.9c0.4,1.3,1.2,2.6,0.3,4
	c-3.8-3.2-6.8-7-9.7-11c-0.4-0.5-0.9-1-1.3-1.5c0,0,0,0,0,0c2-1.2,4.1-2.1,6.3-2.9c0.7-0.3,1.4-0.1,1.9,0.3
	C48.8,149.6,50.5,150.4,51.7,151.9z"/>
<path class="st11" d="M75.5,238.4c2.8-0.7,5.6-0.6,8.4,0.1c0.4,0.5,0.2,1.2,0.3,1.8c0.1,1.5-0.1,3.1,0.4,4.6c-1.1,1.1-2.4,0-3.3,0.5
	c0.8,0.1,2-0.3,3.1,0.1c0.1,0.1,0.2,0.2,0.2,0.2c-0.5,1.2-0.3,2.5-0.7,3.7c-2.2,0.8-4.5,1-6.8,0.4c-0.6-0.3-1.4-0.5-1.3-1.4
	c0.1-1.2-0.5-2.1-1-3c0.1-0.2,0.2-0.4,0.4-0.5c2.3-0.8,2.5-1.4,0.9-3.3C75.6,240.7,75.7,239.5,75.5,238.4z"/>
<path class="st12" d="M106.6,208.7c-0.1,0-0.2,0-0.3,0c-2.3-0.5-4.7-1.1-5.3-3.6c-0.6-2.5,1.2-4,2.9-5.4c1.7-1.4,3.7-2.5,5.9-3.1
	c1-0.3,1.1,0.4,1.2,1c0.1,0.5,0,1,0,1.5c0,1.4,0.4,2.7,0.8,3.9c-0.2,0.5-1.1,0.7-0.6,1.4c0.5,0.6,0.9,1.1,0.2,1.9
	c-0.7,0.6-0.4,1.6-0.6,2.3l-0.1,0.1l-0.1,0C109.2,208.9,107.9,208.9,106.6,208.7z"/>
<path class="st13" d="M80.6,212.7c-3.8,0.4-7.2-0.5-10.1-3c-2.9-2.5-2.6-5.4,0.8-7.2c1.6-0.9,3.4-1.5,5.3-1.5c0.9,0,2-0.7,2.6,0.5
	c0.5,1-0.2,2.5-1.4,3.3c-0.4,0.1-0.9,0.1-1.3,0.1c-0.5,0-1.2-0.1-1.3,0.4c-0.2,0.8,0.7,0.5,1,0.7c1.1,0.7,0.6,1.3-0.2,1.9
	c0.6-0.2,1-0.7,1.6-0.7c0.9,0,1.8-0.3,2.1,1c0.1,0.2,0.1,0.5,0.1,0.7c0,0.9,0.6,1.8-0.4,2.4C79.6,211.9,80.7,211.7,80.6,212.7z"/>
<path class="st14" d="M109,179.2c2.7-1.4,5.6-2.2,8.8-2c-0.5,1.4-0.6,2.9-0.8,4.3c-0.3,0.5-0.8,0.5-1.3,0.5c0.5,1.2,1.2,2.3-0.1,3.4
	c1.2,0.8,1.9,1.8,1.9,3.2c-2.1,1.3-4.3,2.1-6.7,2c-1.9-0.4-2-0.5-1.7-2.5c0.1-0.7,0.3-1.3,0.2-2c-0.1-0.6-0.4-1.2-0.5-1.9
	c0.4-1,0.7-1.9,0.1-3C108.5,180.7,108.8,179.9,109,179.2z"/>
<path class="st15" d="M106,233.4c2.3-1.3,4.9-1.2,7.4-1.6c0.8,0.9,1.4,1.9,0.2,3c-1.1,1.6-1.2,3.2-0.3,4.3c0.9,1.3,1.4,2.5,0.5,4
	c-1.8,1.2-3.8,2-6,2.1c-1.9-0.3-2.1-1.3-0.8-3.3c1.1-1.4-0.5-2-0.9-2.9C105.9,237.1,106.2,235.3,106,233.4z"/>
<path class="st16" d="M108.7,223.3c-0.1,1.2-0.4,2.5,0,3.7c-2.5,0.3-4.9,0.1-7.1-1.2c-2.3-1.4-2.8-3.4-1.3-5.6
	c1.7-2.4,4-3.8,6.7-4.8c1.1,0.2,1.5,0.8,1.4,1.8c-0.1,1.4,0.6,2.8-0.4,4.2c0,0.3-0.3,0.7-0.5,0.6c-1.5-0.8-2.6,0.7-4,0.4
	c0.7,0.2,1.5,0.5,2-0.5c0.2-0.5,0.9-0.3,1.2,0C107.3,222.5,108.1,222.7,108.7,223.3z"/>
<path class="st17" d="M99.3,4c0.1,0.7-0.4,1.2-0.7,1.7C98.4,6,98,6,97.6,5.9c-0.4-0.3-0.7-0.3-1.1,0c-0.7,0.3-1.4,0.1-2-0.1
	c-0.9-0.7-2,0-3-0.3c-0.7,0-1.4,0.1-2.1-0.1c-7-0.1-14.1-0.3-21.1,0.2C64.2,5.9,60.1,6.3,56,7.1c-0.7,0.1-1.4,0.2-2-0.5
	c-0.4,0-0.8,0.1-1.1-0.2c1.3-1.8,3.5-1.2,5.3-1.8c-0.1-0.4-0.4-0.2-0.6-0.2c-0.2,0-0.4,0-0.7-0.1c6-0.9,12-1.1,18-1.2
	c4.9-0.1,9.8-0.1,14.7,0.2C92.9,3.5,96.1,3.7,99.3,4z"/>
<path class="st18" d="M107.4,242.1c-0.7,1.1-1.4,2.2,0.3,3c-2.7,0.5-5.3,0.2-7.7-1.3c-2.1-1.4-2.6-3.2-1.2-5.2
	c1.7-2.6,4.2-4.2,7.1-5.2c0.5,0.1,0.9,0.2,0.8,0.9c-0.2,1.5,0.1,3.1-0.5,4.6c-0.3,0.5-0.7,0.6-1.2,0.9c-0.4,0.2-0.7,0.5-0.6,1.1
	c0.1,0.6,0.5,0.8,1.1,0.9C106.2,241.7,107,241.4,107.4,242.1z"/>
<path class="st19" d="M82.9,219.7c2.2,0,4.1,0.8,5.9,2.1c2.2,1.5,2.4,3.7,0.7,5.7c-1.6,1.9-3.8,3.1-6.2,3.5
	c-1.2-0.3-1.8-1.1-1.6-2.3c0.1-0.7-0.1-1.3-0.5-1.8c0.2-0.5,0.6-0.6,1.1-0.4c-0.4-0.2-0.7-0.1-1,0.2c-0.1,0.1-0.2,0.2-0.4,0.2
	c-1.4-0.5-0.9-1.5-0.6-2.5c1.4-0.5,1.3-1.7,1.2-2.9C81.5,220.5,81.8,219.8,82.9,219.7z"/>
<path class="st20" d="M82.9,219.7c-1.4,0.8-0.7,2.1-0.6,3.1c0,1.5-0.4,2.2-1.9,1.9c-1,1.2-0.9,1.6,0.5,2c0.1,0,0.3,0,0.4,0l0,0
	c1,0.3,1.4,0.8,1,1.9c-0.3,1,0.2,1.8,0.9,2.4c-2.7,0.6-5.4,0.8-8.1-0.2c-1-1.7-0.8-2.6,0.7-4.1c1.4-1.4,1.2-2.3-0.6-3.1
	c-0.2-0.1-0.4-0.2-0.5-0.4c0.3-0.3,0.3-0.7-0.1-1.3c-0.9-1.2-0.8-1.4,0.8-2.1C78,219.1,80.4,219.3,82.9,219.7z"/>
<path class="st21" d="M48.7,178.6c2.9,1,5.4,2.5,7.3,5c1.7,2.4,1.2,4.5-1.4,5.9c-1.7,0.9-3.5,1.4-5.5,1.1c-1.9-0.8-2-1.8-0.4-3.5
	c0.7-0.4,1.4-0.6,2.2-0.5c0.5,0,1-0.1,1.1-0.8c0-0.5-0.3-0.9-0.7-1.1c-0.6-0.3-0.9,0.1-1.2,0.5c-0.1,0.1-0.2,0.2-0.2,0.3
	c-0.1,1-0.7,1.6-1.7,1.3c-1.1-0.3-0.6-1.2-0.5-2c0.1-1.4-0.1-2.8,0-4.3C47.7,179.9,47.8,179,48.7,178.6z"/>
<path class="st22" d="M82.2,193.9c-2.2,0.5-4.3,0.6-6.4-0.3c-1.3-1.5-1.3-2.1,0.1-4.3c0.2-0.4,0-1,0.3-1.3c1.4-1.5,0.1-1.9-1-2.3
	c-0.3-1,0.2-2.2-0.4-3.2c2.6-0.7,5.1-0.8,7.7-0.3c0.6,2.1,0.4,4.2-0.7,6.1c-0.5,0.3-1.1-0.2-1.7,0.2c0.5,0.4,1,0.3,1.5,0.5
	c0.2,0,0.5,0,0.7,0.1c0.3,0,0.5,0.2,0.7,0.4c0.4,1.2-0.3,2.5,0,3.7C83.2,193.7,82.6,193.8,82.2,193.9z"/>
<path class="st23" d="M51.3,245.2c-1.7-0.1-3.2-0.6-4.6-1.4c0.2-1.4,0.2-2.9,0.9-4.2c0-1.5,0.5-3-0.1-4.5c-0.1-0.2-0.2-0.5-0.3-0.8
	c-0.4-1.6-0.1-2,1.5-2.2c1.9,0.2,3.7,0.9,5.4,1.7c0.7,1.8,0.6,3.7-0.2,5.5c-0.2,0.3-0.5,0.4-0.8,0.5c-1,0.3-0.1,0.5,0.1,0.7
	c1.6,1.1,0.9,2.9,1.3,4.4c0.1,0.5-0.4,0.5-0.7,0.5C52.9,245.3,52.1,245.4,51.3,245.2z"/>
<path class="st19" d="M51.7,197.7c2.9,1,5.1,2.8,6.4,5.6c0.6,1.5,0.1,2.8-1.1,3.7c-2.5,1.9-5.3,2.4-8.3,1.8c1.5-1.3,1.5-2.1,0.4-4.3
	c0-1.2-1-1.8-1.7-2.6c0.6-1.1,1.5-1,2.5-0.7c0.6,0.2,0.6,1.1,1.4,1.1c0.2,0.1,0.1-0.3,0.1-0.1c0,0.1-0.1,0-0.2,0
	c-0.5-0.1-0.7-0.6-1-0.8c-0.4-0.7-0.2-1.4-0.2-2.1C49.9,198.2,50.5,197.6,51.7,197.7z"/>
<path class="st21" d="M81.6,188.3c0.2-1.6,0.8-3.1,0.5-4.7c-0.1-0.5,0.1-1,0.5-1.3c2.2,0.1,4.2,0.8,5.9,2c2.6,1.7,2.8,4.1,0.6,6.3
	c-1.9,1.9-4.2,3-6.9,3.4c0.2-0.2,0.5-0.4,0.3-0.7c-0.8-1.3-0.2-2.4,0.3-3.6c0-0.4,0.6-0.6,0.5-1.2c-0.7,0.1-0.7,0.9-1.1,1.2
	c-0.2,0-0.5,0-0.7,0C81.2,189.1,81.1,188.7,81.6,188.3z"/>
<path class="st24" d="M45.6,208c-3.6-1-6.3-3.2-8-6.6c-1.5-3-0.4-5.1,2.9-5.9c1.7-0.4,3.4-0.4,5.1,0.1c-0.5,1.5-0.1,2.9-0.2,4.4
	c-0.8,0.7-2.1,0.8-2.5,2c0.4,0.5,1.1,0.5,1.5,1c0.7,0.5,1.1,1.1,0.9,2.1c-0.2,1,1.1,1.8,0.5,2.9c0,0-0.1,0-0.1,0
	C45.7,208.1,45.7,208,45.6,208z"/>
<path class="st25" d="M48.7,178.6c-0.5,1.7-0.3,3.4-0.4,5c0,0.5,0.1,1.1-0.2,1.6c-0.5,0.1-0.8-0.2-1.2-0.5c-0.5-0.3-0.9-0.2-1.4,0.1
	c-0.3,0.2-0.5,0.5-0.4,0.8c0.2,0.6,0.7,0.9,1.3,0.9c0.9,0,1.8,0.2,2.6,0.7c-0.8,1.1-1.7,2.2,0,3.3c-2.7,0.1-5.2-0.6-7.4-2
	c-0.8-1.2,0-2.2,0.3-3.2c1.1-1.2,1-2.2-0.4-3.6c-0.4-0.9-0.4-1.9-0.6-2.9c-0.4-1.8,1.2-1.3,2-1.6C45,177.2,46.9,177.8,48.7,178.6z"
	/>
<path class="st18" d="M48.7,232.1c-2,0.6-0.7,2-0.6,3c0,1.2-0.7,1.9-1.9,1.7c-0.6-0.1-0.7,0.1-0.9,0.5c-0.2,0.3-0.3,0.6-0.1,0.9
	c0.3,0.4,0.6-0.1,0.8-0.2c1.4-0.3,1.8,0.8,2.3,1.7c-0.5,0.5-0.8,1.1-0.7,1.8c0.1,1-0.3,1.7-1,2.3c-3.3-1.4-5.6-3.7-6.7-7.1
	c-0.7-2.1,0.2-3.7,2.3-4.5C44.4,231.5,46.5,231.6,48.7,232.1z"/>
<path class="st26" d="M45.8,220.4c0.2,0.2,0.6,0.5,0.6,0.6c-0.6,1.5-0.2,3.2-0.6,4.8c-3-1.1-5.2-3.1-6.6-5.9
	c-1.6-3.2-0.1-5.8,3.5-6.1c1.3-0.1,2.5,0,3.8,0c-0.6,1.4-0.4,2.8,0,4.3c-0.2,0.4-0.5,0.5-0.9,0.6c-0.2,0-0.8,0-0.3,0.3
	C45.7,219.3,44.3,220.5,45.8,220.4z"/>
<path class="st27" d="M51.3,245.2c0.8-0.3,1.8,0.3,2.5-0.3c-0.8-0.7-0.1-1.6-0.1-2.3c-0.1-0.9-0.5-1.3-1.1-1.8
	c-0.4-0.8,0.4-0.9,0.7-1.3c0.7-1.8,0-3.8,0.7-5.6c2.5,1,4.6,2.5,6.1,4.7c1.4,2.1,1,4-1.2,5.4C56.6,245.4,54,245.8,51.3,245.2z"/>
<path class="st28" d="M77.5,204.4c0-0.6,0.8-0.4,0.9-1.1c0.3-2.2,0.4-2.2-1.9-2.3c3.2-0.7,6.4-0.3,9.4,0.7c-0.7,1-1.1,2-1,3.3
	c0,0.5-0.4,0.8-0.7,1.1c-0.3,0.8-0.3,1.5,0.4,2c0.6,1.1,0.3,2.4,0.6,3.6c-1.5,0.7-3,1.2-4.7,1c-0.3-0.1-0.6-0.3-0.9-0.3
	c-0.7-0.1-1.4,0-1.4-0.9c-0.1-0.9,0.6-1,1.3-1.2c-0.6-0.2-0.6-0.3-0.3-0.8c0-0.1-0.2-0.2-0.3-0.4c0.6-0.5,1.1-1,0.8-1.6
	c-0.1,0.4,0.1,1-0.8,0.9c0.1-1.3-1-0.1-1.3-0.6c-0.3-0.3-0.2-0.6,0-0.8c0.9-0.6,0.4-1.1-0.2-1.6C77.2,204.9,77.3,204.6,77.5,204.4z"
	/>
<path class="st29" d="M111.3,203c-1.8-1.3-0.9-3.3-1.1-5c-0.1-0.6,0.3-1.2-0.6-1.5c1.2-0.6,2.6-0.9,4-1c0.6-0.2,1.2-0.1,1.8-0.1
	c0.6,0,1.4-0.3,1.8,0.1c0.7,0.6-0.3,1-0.4,1.6c-0.1,0.6-0.1,1.1,0.3,1.6c0.4,0.4,0.6,0.9,0.2,1.5c-0.4,0.3-0.8,0.3-1.3,0.3
	c-0.6,0.1-1.4-0.2-1.6,0.6c-0.2,0.7-0.1,1.5,0.6,1.9c2.3,1.1,2.3,1.1,1.1,3.3c-0.1,0.3-0.3,0.5-0.5,0.7c-1.5,1-3.2,1.6-5,1.7
	c-1.6-0.8-0.6-2.1,0-2.6c1.1-0.9-0.2-0.7-0.3-1.1C110.9,204.4,111.7,204,111.3,203z"/>
<path class="st14" d="M45.6,208c-0.1-1.3-1.8-2.3-0.7-3.8c0.1-0.1-0.7-0.1-0.9-0.5c0.6-0.4,0.7-1,0.7-1.8c0-0.7,0-1.3,0.6-1.8
	c0.3-1.1-1.3-1.5-0.8-2.8c0.3-0.7,0.5-1.3,1.1-1.6c2.2,0.2,4.2,0.8,6,2c-1,0.5-1.7,1.2-1,2.4c0.5,0.9-0.5,0.7-0.7,1.2l0,0
	c-0.8,0.6-1.9,0-2.7,0.6c0.3,1.1,0.7,2.1,2,2.4c1.7,0.9,1,2.7,1.3,4c0.2,0.6-1.3,0.1-2,0.4C47.6,208.7,46.6,208.5,45.6,208z"/>
<path class="st30" d="M74.8,245.5c1.4,0.3,2,1,1.5,2.5c-0.3,0.8,0.2,1.4,1.1,1.4c0.4,0,0.3,0.2,0,0.3c-0.1,0-0.2,0-0.3,0.1
	c-3.1-0.2-5.7-1.5-7.6-3.8c-1.7-2-1.4-4.1,0.7-5.6c1.6-1.1,3.3-1.8,5.2-2c0.5,0.1,0.9,0.1,0.9,0.9c0,0.7-0.2,1.5,0.1,2.3
	C73.8,243,74.4,242.6,74.8,245.5z"/>
<path class="st31" d="M116.8,181.7c-0.2-1.6-1.1-3.4,1-4.5c1-0.2,1.9,0,2.8,0.3c2.5,0.9,3.4,2.7,2.4,5.1c-1,2.7-2.9,4.7-5.5,5.9
	c-1.1-0.7-0.9-2.5-2.4-3c1.3-0.5,1.9-1.4,1.5-2.8C116.5,182.5,116.5,182.1,116.8,181.7z"/>
<path class="st32" d="M84.3,244.8c-0.4-0.2-0.9-0.5-1.3-0.8c1-0.8,0.7-2,0.6-3.2c0-0.9-0.1-1.6,0.4-2.4c1.9,0.2,3.7,0.9,5.2,2.1
	c1.9,1.5,2.1,3.5,0.5,5.4c-1.5,1.8-3.4,3-5.7,3.5c-0.7-1.3-1.2-2.6,0.3-3.7C84,245.4,84.5,245.2,84.3,244.8z"/>
<path class="st33" d="M76.2,189.6c-1,1.3-0.7,2.6-0.4,4c-2.6-0.4-4.7-1.7-6.3-3.6c-1.6-1.9-1.4-3.9,0.6-5.5c1.4-1.1,3-1.7,4.7-2
	c1.2,0.6,1.4,2,0.4,3c-0.1,0.4,0.3,0.5,0.6,0.7c0.8,0.4,0.9,1.1,0.3,1.6C75,188.6,75.5,189.1,76.2,189.6z"/>
<path class="st34" d="M109.7,185.9c0.6,0.9,0.1,1.8-0.1,2.5c-0.3,1.3,0.1,1.8,1.1,2.2c-2.3,0.3-4.6-0.1-6.6-1.3
	c-2.2-1.3-2.7-3.3-1.2-5.4c1.5-2.2,3.6-3.7,6.1-4.7c0.6,0.1,0.5,0.5,0.4,0.9c-0.2,0.5-0.2,1.1,0.1,1.4c1.2,1.2,0.3,1.9-0.5,2.7
	c-0.7,1.1-1.6,0.9-2.6,0.5c-0.3,0.1-0.9,0-0.9,0.4c0,0.4,0.6,0.3,0.9,0.3C107.6,185.2,108.7,185.6,109.7,185.9z"/>
<path class="st35" d="M43,177.2c-1.3,0.3-1.9,0.9-1.1,2.3c0.3,0.6,0.1,1.5,0.1,2.3c0,0.6,0.1,1.2,0.4,1.7c0.3,0.7,0.3,1.4-0.3,1.9
	c0.4,1.1-0.4,2.1-0.4,3.1c-2.7-1.4-4.7-3.4-5.7-6.3c-0.8-2.3,0.1-3.9,2.4-4.7C39.9,177,41.4,177.1,43,177.2z"/>
<path class="st33" d="M75.5,219.7c0,0.5-1.7,0.5-0.4,1.5c0.5,0.4,0.3,1.5,1.4,1.3c-0.6,0.3-1.3,0-1.7,0.5c0,0.2,0.1,0.4,0,0.7
	c-0.5,1.5-0.1,2.6,1.3,3.4c-1.4,1-0.8,2.5-1,3.7c-2.4-0.5-4.4-1.8-5.9-3.7c-1.3-1.8-1.1-3.5,0.6-5C71.5,220.7,73.4,220,75.5,219.7z"
	/>
<path class="st36" d="M83.6,205.7c0.6-0.4,1-0.7,0.7-1.6c-0.3-1.3,0.1-2.2,1.6-2.4c0.1,0,0.1,0,0.2,0c2.8,0.9,4.6,2.6,4.5,4.5
	c0,2.1-2.4,4.5-5.4,5.5c-0.9-0.4-1.2-1.1-0.9-2c0.1-0.5,0.4-0.9-0.1-1.4C83.8,207.5,84.5,206.4,83.6,205.7z"/>
<path class="st37" d="M115.8,207c0-1-0.2-2.1,1.1-2.7c-0.9-0.5-1.8,0.1-2.4-0.6c0.1-0.1,0.1-0.2,0.2-0.2c0.7-0.5,3.2-0.5,0.5-1.9
	c-0.6-0.3-0.2-1,0.5-1.1c0.5-0.1,1,0.3,1.3-0.3c0.3-0.3,0.2-0.5-0.1-0.8c-1.2-1-1.2-2.4,0.2-3.7c-1.3,0-2.4,0-3.5,0
	c1.9-0.5,3.8-0.4,5.6,0.2c2.3,0.7,3.3,2.5,2.5,4.8C120.7,203.6,118.6,205.7,115.8,207z"/>
<path class="st38" d="M113.8,243.1c-0.1-1.4-0.3-2.8-1-4c-0.4-0.8-0.1-1.5,0.8-1.5c0.9,0,1.1-0.4,1.3-1.1c0.2-0.9-0.5-0.7-0.9-0.8
	c-0.6-0.2-0.7-0.8-0.9-1.3c1.2-0.7,0-1.7,0.3-2.6c0.4,0,0.9-0.1,1.3,0c4.3,0.5,5.8,3.3,3.5,7C117.2,240.6,115.7,242.1,113.8,243.1z"
	/>
<path class="st39" d="M94.3,157.8c-1.5,0.2-3,0.5-4.6,0.7c-2.5,0.4-3.7,2.1-3.4,4.6c0.3,2.1,0.7,4.2,0.9,6.2c0.2,1.9,0.8,3.5,2,5
	c-0.1,0.5-0.3,0.8-0.8,0.7c0.1-0.2,0.3-0.5,0.3-0.5c-2-2.2-1.9-5-2.4-7.7c-0.2-1.3-0.4-2.6-0.6-4c-0.3-2.8,1-4.5,3.7-4.9
	c6.8-1,12.8-3.8,18.1-8c0.7-0.5,1.4-1,2-1.5c2.4-2,2.5-2,5.1-0.5c1.5,0.9,3.1,1.8,4.6,2.7c-0.3,0.5-0.4,1.1-1.1,1.3
	c0.3-0.6,0.2-1.1-0.5-1.5c-1.2-0.6-2.3-1.4-3.4-2c-2.3-1.4-2.3-1.4-4.3,0.4c-2.1,1.8-4.4,3.3-6.7,4.9
	C100.5,155.5,97.4,156.6,94.3,157.8z"/>
<path class="st40" d="M51.7,151.9c-1.4-0.8-2.6-1.8-3.7-3c-0.9-0.9-1.8-1-3-0.5c-1.9,0.8-3.8,1.6-5.7,2.4c0.5-1.3,1.9-1.2,2.9-1.8
	c2.8-1.8,5.2-2,7.8,0.7c2.4,2.5,5.8,3.9,9.1,5.2c0.9,0.4,1.7,0.8,2.4,1.5c0.6,1.4,0.4,2.5-0.6,3.7c-1.5,2-2.9,4-4.4,6
	c-0.4,0.6-0.9,1.2-1.6,1.3c-0.6-0.3-1.1-0.8-1.4-1.4c1.2,0.9,2,0.6,2.8-0.6c1.4-2,2.8-3.8,4.2-5.8c1.2-1.8,0.8-3.1-1.2-4
	C56.6,154.7,54.1,153.3,51.7,151.9z"/>
<path class="st29" d="M106.6,208.7c1.3,0,2.6,0,3.9,0C109.2,209.1,107.9,209.2,106.6,208.7z"/>
<path class="st41" d="M54.1,6.6c2.1-0.3,4.2-0.7,6.2-1c7.4-1.1,14.9-1.1,22.3-1c2.3,0,4.7-0.3,7,0.3c0.8,1.3-0.5,1.7-1,2.4
	c-0.8,0.4-1.6,0.3-2.5,0.3c-4.5,0-8.9,0-13.4,0c-8.8,0.1-17.3,1.6-25.7,4c-3,0.9-4.5,2.8-5.3,5.6c-1.2,4.5-1.7,9.1-2.3,13.6
	c-0.7,4.7-1.1,9.5-1.6,14.2c-0.3,3.4-0.6,6.8-0.8,10.1c-0.5,8.8-0.8,17.7-1.2,26.5c-0.2,6.8,0.2,13.6,0.5,20.3
	c0.3,6.8,0.9,13.5,2.4,20.2c1.1,5,2.7,9.9,6,14c1.9,2.4,4,4.5,6.7,6c0.9,0.5,1.7,0.7,2.7,0.5c10.3-2.4,20.7-2.6,31.1-2.4
	c0.8,0,1.6-0.1,2.1,0.7c0,0.7-0.5,0.4-0.8,0.5c1.6-0.6,3.2,0.3,4.9,0c0.4-0.1,0.8,0.1,1.1,0.4c0.3,0.2,0.7,0.5,0.6,0.9
	c-0.1,0.4-0.5,0.6-0.9,0.6c-0.6,0-1.1,0.2-1.6,0.3c-0.8,0-1.6,0.3-2.3-0.5c0-0.8,0.5-0.4,0.8-0.5c-1.1-0.2-2.1,0.6-3.2,0.7
	c-1.3,0-2.6,0-3.9,0c-0.6,0-1.2,0.1-1.7-0.4c-0.2-0.5,0.1-0.5,0.5-0.6c0.6,0,1.3,0,1.8,0c-0.9,0.3-2.1-0.6-2.9,0.6
	c-0.3,0.4-0.8,0.4-1.2,0.4c-2.9,0-5.9,0-8.8,0.3c-3.3,0.3-6.5,0.6-9.7,1.4c-0.6,0.2-1.4,0.2-1.6,1c-0.1,0.8,0.4,1.4,1,1.8
	c2.4,2,5.1,3.3,8,4.4c4.3,1.6,8.7,2.2,13.2,2.4c1.1,0,2.1-0.7,3.3-0.2c0.5,1.3,1,0.1,1.5,0c0.8-0.6,1.7-0.7,2.6-0.8
	c0.9,0.1,1.9,0.2,2.6-0.5c0.2-0.2,0.5-0.3,0.8-0.3c0.6,0.1,1.1,0.3,1.7,0.4c0.9,0.1,1.6,0.6,1,1.6c-3.4,1.4-7.1,2-10.7,2.3
	c-7.3,0.6-14.4-0.8-21.3-3.3c-1.2-0.4-2.4-0.9-3.6-1.3c-2.2-1.4-4.7-2.3-6.8-3.9c-3.4-2.6-5.9-6-8.5-9.4c-4.9-6.4-7.1-13.7-8.3-21.6
	c-0.9-6-1.3-12-1.7-18.1C32.7,92,32.8,84,33,76.2c0.2-7.6,0.5-15.2,1.2-22.8c0.5-5.6,0.8-11.2,1.5-16.8c0.8-7.1,1.3-14.3,3.4-21.2
	c1-3.2,3.1-5.5,6.5-6.4C48.4,8.2,51.2,7.4,54.1,6.6z"/>
<path class="st42" d="M90.6,143.4c0.4-1.2,1.3,0,2.2-0.7c-2.7-0.7-5.2-0.7-7.7-1.1c0.7,0,1.5-0.1,2.2-0.1c1.4-1.2,3.1-0.7,4.6-0.5
	c4.4,0.4,8.8,1,13,2c0.8,0.2,1.5,0,2.2-0.5c6.2-3.7,9.8-9.4,11.8-16.2c1.9-6.4,2.6-13,3.1-19.6c0.6-7.4,1.1-14.9,0.9-22.3
	c-0.2-6.6-0.3-13.2-0.7-19.8c-0.4-6.3-0.7-12.5-1.3-18.8c-0.9-8.6-1.6-17.3-3.3-25.8c0-0.2-0.1-0.3-0.1-0.5
	c-0.6-4.7-3.2-7.4-7.9-8.4c-6.1-1.3-12.2-2.7-18.5-3.1c-1,0-2-0.1-2.7-1c0-0.8,1.2-1.1,1-2c0.7,0,1.3,0,2,0.1
	c0.4,0.5,0.9,0.7,1.5,0.5c0.5-0.1,0.9-0.6,1.5-0.2c0.7-0.1,1.3,0.5,2,0.3c0.2-0.2,0.4-0.2,0.7-0.1c0.4,0,0.9,0.1,1.3,0.1
	c4,0.9,8.1,1.4,12,2.6c2.2,0.7,4.5,1.1,6.4,2.7c2.1,1.8,2.8,4.4,3.4,6.9c1.4,6.1,2,12.4,2.7,18.6c1.1,9.3,1.8,18.6,2.2,27.9
	c0.6,12,0.9,23.9,0.2,35.9c-0.4,7.8-1,15.7-2.7,23.3c-2.3,10-7.7,18-15.3,24.8c-0.2,0.2-0.4,0.4-0.6,0.6c-3.9,2.9-8.3,4.9-13,6.1
	c-0.2-0.7-0.3-1.6-1.5-1c-0.5,0.2-0.9-0.3-1.2-0.6c0.2-1.1,1.3-1.1,2.1-1.4c2.2-0.9,4.2-2.1,6.1-3.4c0.7-0.5,1.8-1.2,1.6-2.2
	c-0.2-1.1-1.5-1-2.3-1.2c-2-0.5-4-0.9-6.1-1C91.9,144.2,91.1,144.1,90.6,143.4z"/>
<path class="st43" d="M109.6,153.7c-0.5,0-0.8,0-0.9-0.3c-0.1-0.5,0.2-0.5,0.6-0.6c0.2-0.1,0.4-0.1,0.6-0.2c2.4-0.6,3.6,0.6,3,3.1
	c-0.1,0.2-0.1,0.4-0.4,0.5c-0.3,0.1-0.4-0.1-0.5-0.3c0-0.1-0.1-0.2-0.1-0.3C111.9,153.8,111.3,152.9,109.6,153.7z"/>
<path class="st44" d="M94,167.6c-0.7-0.1-1.7,0.1-1.4-1c0.3-1-0.9-2.6,1-3c0,0.4,0.1,0.8,0,1.2c-0.2,1.4,0.1,2.1,1.7,1.9
	c0.4-0.1,1.2-0.3,1.3,0.4c0.1,0.9-0.8,0.5-1.3,0.5C94.8,167.5,94.4,167.5,94,167.6z"/>
<path class="st45" d="M45.8,220.4c-0.7,0.4-0.2,2.3-1.5,1.5c-0.8-0.4,0.2-1.4,0.5-2.1c0.1-0.1,0.1-0.3,0.2-0.4
	c-0.1-0.1-0.2-0.2-0.2-0.2c-0.5-0.2-1.6,0.4-1.6-0.6c0-0.9,1.1-0.4,1.7-0.5c0.5-0.1,1,0,1.5-0.1c0.7,0.2,0.9,0.5,0.3,1.1
	C46.3,219.5,45.9,219.8,45.8,220.4z"/>
<path class="st46" d="M47.5,221.3c-0.3-1.3,0.5-1.2,1.3-1.3c0.7,0,1.2,0.2,1.2,1c0,1.4-1.4,1.2-2.1,1.6
	C47.4,222.8,47.6,221.7,47.5,221.3z"/>
<path class="st47" d="M52.9,221.5c-0.2,0.4,0.2,1.5-0.5,1.1c-0.7-0.4-2.1-0.2-2-1.5c0-0.9,0.7-0.9,1.4-1
	C52.9,220,52.9,220.6,52.9,221.5z"/>
<path class="st48" d="M56.7,222.1c-0.9,0-1.3-0.1-1.3-1c0-0.9,0.3-1,1-1.1c0.9-0.1,1.1,0.5,1.2,1.2C57.7,222.1,57,222,56.7,222.1z"
	/>
<path class="st49" d="M54.9,220.1c0.1,0.5-0.3,0.5-0.5,0.8c-0.2,0.4,0.1,1.2-0.7,1.1c-0.7-0.1-0.4-0.8-0.4-1.2
	c-0.1-0.9,0.7-0.6,1.2-0.7C54.6,220,54.8,220.1,54.9,220.1z"/>
<path class="st50" d="M116.5,220.2c-0.2-0.1-0.3-0.1-0.4-0.1c-0.9,0.1-1.7,0-1.9-1.1c-0.1-0.7,0.3-1.2,0.9-1.4
	c1-0.3,1.9-0.3,2.6,0.6c0.6,0.8,0.6,1.8-0.1,2.6c-0.8,0.9-1.8,0.8-2.8,0.4c-0.2-0.1-0.4-0.3-0.3-0.5c0-0.4,0.4-0.3,0.6-0.4
	C115.5,220.2,116,221.2,116.5,220.2z"/>
<path class="st51" d="M108.7,223.3c-0.8-0.1-1.7-0.4-2.7,0.1c0.2-0.4,0.2-0.6,0.3-0.8c0.2-0.3,0.3-0.7-0.1-0.8
	c-0.5-0.3-0.5,0.3-0.6,0.5c-0.3,0.4-0.4,1.2-1.1,0.9c-0.9-0.4-2.8,0.5-2.4-1.7c2,0.4,4-0.2,5.9-0.2c0.5,0,0.5,0.4,0.4,0.7
	c0.2,0.3,0.6,0.5,0.3,1C108.7,223.1,108.7,223.2,108.7,223.3z"/>
<path class="st51" d="M109,222.1c0.1-0.2,0.1-0.4,0.2-0.6c0.9,0.7,1.9,0.1,2.7-0.1c1.7-0.4,1.7,0.8,1.7,1.6c0,0.7-0.9,0.3-1.4,0.3
	c-0.4,0-0.9,0-0.5-0.6c0.1-0.3,0.6-0.5,0-0.7c-0.4-0.2-0.5,0.2-0.7,0.5c-0.2,0.4-0.3,0.9-0.6,1.2c-0.5,0.4-1.1,1.1-1.4-0.2
	C109.4,223,108.7,222.5,109,222.1z"/>
<path class="st16" d="M109,222.1c0,0.5,1.2,0.9,0.1,1.3c-0.1-0.1-0.2-0.2-0.3-0.4c-0.1-0.3-0.7-0.5-0.3-1
	C108.6,222.1,108.8,222.1,109,222.1z"/>
<path class="st52" d="M50,159.2c-1.3-0.1-1.5-1.1-1.7-2.1c-0.2-1.4,0.3-2.5,1.7-3c0.4,0.1,1-0.1,1.1,0.4c0.1,0.5-0.5,0.5-0.8,0.6
	c-0.9,0.2-1.1,0.8-1.1,1.6c0,0.8,0.2,1.3,1.1,1.5c0.3,0.1,0.9,0,0.8,0.6C51,159.4,50.4,159.1,50,159.2z"/>
<path class="st53" d="M74.8,245.5c-1.1-0.7-1.2-1.8-0.8-2.9c0.4-1.2,1.5-1.1,2.5-1.1c1.2,0.6,1.4,1.6,1.1,2.8
	C77.2,245.9,75.9,245.4,74.8,245.5z"/>
<path class="st54" d="M84.3,244.8c0.2-0.1,0.4-0.6,0.6-0.2c0.3,0.6-0.3,0.8-0.7,1.1c-1.2,0-2.3-0.1-3.5-0.1c-0.6,0-1.3,0-1.1-1
	C81.1,245.3,82.7,245.3,84.3,244.8z"/>
<path class="st55" d="M105.5,203.9c-0.5,0.2,0.1,1.2-0.8,1.1c-0.7-0.1-0.2-0.8-0.6-1.1c-0.7-0.1,0,1.4-1,1c-0.5-0.2-0.3-0.7-0.3-1
	c-0.1-1.1,0.7-0.7,1.3-0.8c0.5-0.1,1.1,0,1.6-0.1c0.7-0.1,1.1,0.2,1,0.9c0,0.3,0.2,0.9-0.3,1C105.4,205.2,106,204.2,105.5,203.9z"/>
<path class="st50" d="M111.3,203c0.6,0.3,1.4,0.4,1.2,1.3c-0.3,1.1-1.3,0.7-2.1,0.7C109.6,203.8,110,203.2,111.3,203z"/>
<path class="st56" d="M108.3,204c-0.6,0.1,0.1,1.3-0.8,1c-0.6-0.1-0.4-0.7-0.4-1.1c-0.1-1.1,0.8-0.6,1.3-0.7c0.6-0.2,1.1,0,1.2,0.7
	c0,0.4,0.2,1-0.4,1.1C108.3,205.3,109,204.1,108.3,204z"/>
<path class="st47" d="M77.8,207c-0.1,0.2-0.2,0.5-0.3,0.7c-1.7,1-2.4,0.9-3.6-0.3c0.5-0.4,1-0.4,1.5,0c0.3,0.2,0.5,0.2,0.7,0
	c0.1-0.2,0.2-0.4,0.2-0.6c-0.1-0.3-0.3-0.4-0.6-0.4c-0.6,0.1-1.4,0.7-1.5-0.5c-0.1-1.4,0.7-1.6,1.9-1.5c0.5,0.1,1,0,1.5,0.1
	c0,0.3,0,0.6-0.1,0.9c0.2,0.2-0.5,0.1-0.2,0.3C77.8,205.9,78.4,206.2,77.8,207z"/>
<path class="st57" d="M78.9,208.3c0.7-0.6,0.2-1.5,0.4-2.2c0.1-0.2,0-0.4,0.3-0.5c0.2,0,0.4,0,0.5,0.1c0.7,0.8,0,3-1.1,3.2
	C78.9,208.8,78.9,208.5,78.9,208.3z"/>
<path class="st58" d="M116.8,181.7c1.5,2.4,1,3.7-1.7,3.9c-0.3-0.1-0.5-0.2-0.8-0.3c-0.3-0.2-0.7-0.3-0.5-0.7
	c0.2-0.4,0.6-0.3,0.9-0.2c0.4,0.1,0.8,0.9,1.3,0.2c0.4-0.6-0.4-0.5-0.7-0.8c-0.6-0.7,0.8-0.7,0.4-1.4c-0.6,0-1.2,0.9-1.9,0
	C114.6,181.3,115.7,181.6,116.8,181.7z"/>
<path class="st59" d="M109.7,185.9c-0.8,0.7-1.6,0.7-2.3,0c-0.5-0.5-0.4,0.2-0.7,0.3c-0.8-0.8-0.7-1.5,0-2.3
	c0.2,0.7,0.3,1.3,1.2,0.5c0.2-0.2,0.7-0.1,1.1-0.2C109.7,184.6,109.9,185.2,109.7,185.9z"/>
<path class="st60" d="M110.9,183.7c0.8-0.1,0.9,0.2,0.8,0.6c-0.2,0.7-0.3,1.8-0.8,1.9c-0.8,0.2-0.5-0.9-0.7-1.4
	C109.9,184.3,110.4,183.7,110.9,183.7z"/>
<path class="st54" d="M113.1,234.4c0.2,0,0.6,0,0.6,0.1c0.4,1.3,0.7,1.3,1.2,0.1c0-0.1,0.4,0,0.6,0c-0.3,0.6,0.8,1.2,0.1,1.7
	c-0.6,0.5-0.4,0.5,0,1c0.7,0.8-0.7,0.4-0.8,0.9c-0.1,0.4-0.1,1-0.8,0.9c-0.6-0.1,0.1-0.8-0.4-1.1c-0.8,0-0.5,0.9-0.9,1.2
	c-0.3,0-0.6,0-0.7-0.5C112,237.1,112,235.6,113.1,234.4z"/>
<path class="st61" d="M107.4,242.1c-0.5,0-1.1-0.2-1.6,0c-1.7,0.5-1.6-1-2.2-1.8c-0.1-0.2,0.1-0.4,0.3-0.5c0.8-0.4,1.5-1.2,2.5-1
	c0.1,0.1,0.1,0.2,0.2,0.2C108.5,239.6,108,240.9,107.4,242.1z"/>
<path class="st41" d="M94.7,5.3c-0.6,0.3-1.2,0.6-1.7,0.9c-0.5,0.3-1,0.6-1.5,0.2c-0.7-0.5,0.3-0.9,0.2-1.4
	C92.6,5,93.7,4.7,94.7,5.3z"/>
<path class="st2" d="M97.3,5.5c-0.2,0-0.5,0-0.7,0.1c0-0.4-0.1-0.9,0.4-1.1c0.1-0.1,0.4,0,0.5,0.2C97.9,5,97.6,5.3,97.3,5.5z"/>
<path class="st50" d="M81.2,226.7c0-0.1,0-0.1,0-0.2c-0.1-0.5-0.4-1.2,0.2-1.5c0.8-0.3,0.2,1,0.9,1c0.5-0.1-0.1-1.3,0.8-1.1
	c0.5,0.1,0.3,0.6,0.3,1c0.1,0.9-0.6,0.7-1.1,0.7C82,226.8,81.6,226.8,81.2,226.7L81.2,226.7z"/>
<path class="st62" d="M80.8,226.7c-0.4,0.3-0.9,0.7-1.2,0.1c-0.3-0.6-0.7-1.3-0.3-2c0.3-0.4,0.6-0.7,1-0.1
	C80.9,225.3,79.8,226.2,80.8,226.7z"/>
<path class="st45" d="M83.9,225c0.7-0.1,1.2,1,1.8,0c0.1-0.1,0.5,0,0.4,0.2c-0.2,0.5-0.4,1-0.8,1.4c-0.2,0.3-0.6,0.2-0.9-0.1
	C84.3,226.2,83.9,225.7,83.9,225z"/>
<path class="st63" d="M76.1,227c-0.9,0-2.1,0.2-2.1-0.9c0-1-0.5-2.4,0.8-3.1c0.2,0,0.3,0,0.5,0c0.8,0.1,2.1-0.3,2.1,1
	C77.5,225,78.3,226.8,76.1,227z"/>
<path class="st59" d="M49,187.3c-0.7,0-1.4-0.3-2.1-0.1c-1.1,0.3-2-0.2-2.5-1.2c-0.3-0.8,0.3-1.3,0.9-1.7c1-0.6,1.8-0.3,2.4,0.6
	c0.1,0.1,0.2,0.3,0.3,0.4c0.2,0.5-0.7,1.3,0.5,1.4c1,0.1,0.6-0.6,0.6-1.1c0.1-1.1,0.8-1.7,1.8-1.6c1,0.1,1.9,0.6,1.9,1.7
	c0,1-0.9,1.5-1.8,1.6C50.3,187.3,49.7,186.8,49,187.3z"/>
<path class="st56" d="M76.2,189.6c-0.7-0.3-2,0.4-2.2-0.4c-0.2-0.9,1-1.3,1.7-1.8c0.3-0.2,0.6-0.4,0.4-0.8c-0.7-0.4-1.6,1.1-2.1,0.1
	c-0.3-0.6,0.6-0.9,1.2-1.1c0.3,0,0.6,0,0.8,0.1c0.7,0.1,1.4,0.1,1.6,0.9c0.2,0.7-0.3,1.1-0.9,1.5c-0.2,0.1-0.3,0.3-0.5,0.4
	c0.4,0.5,1.4-0.1,1.3,0.7C77.5,189.9,76.6,189.4,76.2,189.6z"/>
<path class="st56" d="M82.3,189.6c0-0.3-0.2-0.5-0.1-0.8c0.1-0.6-0.4-1.6,0.4-1.7c0.6-0.1,1.3,0.5,1.9,0.9c0.3,0.2,0.3,0.7,0.1,1.1
	c-0.4,0.7-1.1,0.4-1.6,0.5C82.7,189.6,82.5,189.6,82.3,189.6z"/>
<path class="st57" d="M81.6,188.3c0,0.4-0.1,0.9-0.1,1.3c-0.3,0-0.5,0-0.8,0c-0.5,0-1.2,0.3-1.5-0.3c-0.2-0.4-0.1-1.1,0.2-1.4
	c0.4-0.5,1.1-0.3,1.7-0.2C81.3,187.7,81.5,188.1,81.6,188.3z"/>
<path class="st45" d="M48.3,239.7c-0.2-0.1-0.4-0.2-0.5-0.4c-0.8-1.1-1.7-1.5-2.6-0.1c-0.3,0.4-0.7,0.6-1.4,0c0.5-0.3,1-0.5,1.4-0.8
	c-0.6-0.8-1.8-0.1-1.6-1.1c0.1-0.8,1.1-0.2,1.6-0.5c0.1-0.7-1.2-0.9-0.6-2c1.1,1.2,2.4,2.4,3.5,0.1c0.6,0.5,0.6,0.5-0.2,1.7
	c0.4,0.5,1.5-0.3,1.5,0.7c0,0.8-0.9,0.3-1.4,0.6C47.8,238.7,49.3,239,48.3,239.7z"/>
<path class="st51" d="M53.4,239.5c0.3,0.8-1,0.6-0.7,1.3c-0.8,0.2-0.9-0.9-1.6-0.8C51.8,238.8,52.5,238.9,53.4,239.5z"/>
<path class="st64" d="M49.3,204.3c-0.7,0.6-1.6,0.4-1.9,0c-0.3-0.6-0.8-1.5-0.1-2.3C49.6,201.9,49.6,201.9,49.3,204.3z"/>
<path class="st65" d="M50,201.3c0.8-0.2,1.2,0.7,2,0.7c0.5,0,0.3,0.7,0.3,1.1c0,0.2,0,0.5-0.3,0.5c-0.9,0.1-0.3-1-0.9-1.1
	c-0.6,0.2,0,1.3-0.9,1.1c-0.6-0.2-0.2-0.9-0.3-1.3C50,202,50,201.6,50,201.3C50,201.3,50,201.3,50,201.3z"/>
<path class="st66" d="M53.2,201.2c0.2,0.2,0.4,0.2,0.4,0.3c0.1,0.7,0.4,1.5-0.1,2.2c0,0-0.4,0-0.4-0.1C52.8,202.7,53,202,53.2,201.2
	z"/>
<path class="st46" d="M87.4,189.2c-0.8,0.6-1.5,0.6-2.2,0c-0.4-0.3-0.5-0.8-0.1-1.2c0.7-0.6,1.5-0.6,2.2-0.1
	c-0.3,0.8-1.1-0.1-1.4,0.6C86.1,189.4,87,188.5,87.4,189.2z"/>
<path class="st67" d="M45.3,200.1c0,0.6-0.2,1.3,0,1.8c0.7,1.5-0.1,1.8-1.3,1.8c-0.1-1.2-1-0.5-1.5-0.6c-0.6-0.1-1-0.3-0.7-0.9
	C42.1,201.1,44.1,200,45.3,200.1z"/>
<path class="st68" d="M42,185.5c0-0.5,0-1,0-1.5c0-0.2,0-0.5-0.1-0.6c-0.9-0.8-0.9-0.8,0.1-1.5c1-0.6,1.6-0.3,1.5,0.9
	c0,0.6-0.1,1.1,0,1.7C43.6,185.6,43,185.7,42,185.5z"/>
<path class="st46" d="M80.7,206.8c0.1-0.2-0.4-1.3,0.5-1c0.8,0.3,2,0.7,2,2.1c0,0.3-0.3,0.5-0.3,0.4
	C82.3,207.3,80.2,209.3,80.7,206.8z"/>
<path class="st13" d="M77.8,207c-0.2-1.1-1-1.5-2.1-1.7c0.6,0,1.1,0,1.7,0c0.6-0.5,1-0.2,1.2,0.4C78.8,206.3,78.9,207,77.8,207z"/>
<path class="st69" d="M83.6,205.7c1.8,0.5,0.8,1.7,0.6,2.6C82.8,207.7,83.8,206.5,83.6,205.7z"/>
<path class="st53" d="M117,200c0.7,0.9-0.1,0.8-0.6,0.9c-0.4,0-0.8-0.7-1.2,0.1c0.1,0.1,0.1,0.2,0.2,0.2c1,0,2.3-0.1,2.1,1.4
	c-0.3,1.7-1.8,1.1-3,1c-0.9-0.8-1-1.9-0.5-2.9C114.6,199.4,115.9,200.1,117,200z"/>
<path class="st70" d="M106.7,183.9c0,0.8,0,1.5,0,2.3c-0.5,0-1.1,0.2-1.6,0.1c-1-0.2-1.1-1.1-0.5-1.6
	C105.1,184.3,105.9,183.8,106.7,183.9z"/>
<path class="st0" d="M88.6,6.9c8.2,0.7,16.2,1.7,24.1,4.3c2.7,0.9,4.1,2.5,4.9,5.1c1.4,4.6,1.9,9.3,2.5,14c2.4,18.4,3.5,37,3.6,55.5
	c0.1,12.8-0.3,25.5-3.2,38c-1.6,6.8-4.4,13-10.2,17.4c-0.2,0.2-0.4,0.3-0.7,0.5c-2,1.7-4,2.2-6.7,1.5c-5.1-1.4-10.3-1.8-15.6-1.9
	c-4.8-0.5-9.7-0.4-14.5-0.2c-6.5,0.2-12.9,0.8-19.2,2.5c-0.8,0.2-1.4-0.1-2-0.4c-6-3.4-9.7-8.6-11.9-15c-2.3-6.5-3.1-13.3-3.7-20.2
	c-1.6-18.6-0.7-37.1,0.6-55.6c0.7-10.4,1.8-20.8,3.4-31.1c0.3-1.9,0.8-3.8,1.4-5.7c0.8-2.4,2.3-3.9,4.8-4.7C56.2,8,66.5,6.8,77,6.9
	C80.9,6.9,84.8,6.9,88.6,6.9z"/>
<path class="st71" d="M90.6,143.4c3.2,0.5,6.4,0.6,9.5,1.6c2.3,0.8,2.5,1.5,0.7,3.1c-2.8,2.5-6.1,4-9.6,5.3c-0.3,0-0.5,0-0.7,0.3
	c-0.8,0.7-1.7,0.6-2.6,0.7c-0.9,0.2-1.9,0.4-2.8,0.6c-0.4,0.4-0.8,0.4-1.2,0.1c-6.7,0.7-13.1-0.3-19.3-3c-2.2-1-4.4-2.2-6.2-3.9
	c-2-1.8-1.8-2.6,0.7-3.3c4.6-1.3,9.3-1.6,14.1-1.9c2.2-0.1,4.3-0.2,6.5-0.3c0.2-0.3,0.3-0.3,0.5,0c2,0.3,4.1,0.2,6.2,0.2
	c0.7-0.1,1.3-0.3,1.9,0.1C89,143.5,89.8,143.4,90.6,143.4z"/>
<path class="st42" d="M80.1,142.8c-0.2,0-0.3,0-0.5,0c-0.2,0-0.4,0-0.5-0.1c-0.2-0.2,0-0.2,0.1-0.2c1.6,0,3.2,0,4.8,0.4
	C82.7,142.8,81.4,142.8,80.1,142.8z"/>
<path class="st42" d="M87.9,154.5c0.9-0.2,1.8-0.5,2.6-0.7c0.3,0.2,0.8,0.6,0,0.7C89.7,154.6,88.8,154.9,87.9,154.5z"/>
<path class="st42" d="M88.2,143.1c-0.6,0-1.3-0.1-1.9-0.1c1.1-0.5,2.1-0.7,3.4-0.1C89.1,143.1,88.6,143.1,88.2,143.1z"/>
<path class="st42" d="M83.9,155.2c0.4,0,0.8-0.1,1.2-0.1c0.1,0.1,0.6,0.2,0.2,0.3c-0.7,0.3-1.4,0.5-2.4,0.3
	C83.3,155.5,83.6,155.4,83.9,155.2z"/>
<path class="st72" d="M116.5,218.9c0,0.2-0.2,0.5-0.5,0.5c-0.3,0-0.5-0.2-0.6-0.5c0-0.4,0.1-0.6,0.6-0.6
	C116.3,218.3,116.5,218.5,116.5,218.9z"/>
<path class="st73" d="M75.2,243.6c0-0.5-0.1-1.1,0.6-1.1c0.6,0,0.6,0.7,0.6,1.2c0,0.5,0,1.1-0.6,1.1C75.1,244.7,75.2,244,75.2,243.6
	z"/>
<path class="st74" d="M105.8,241.5c-0.5-0.1-1.3,0.3-1.2-0.8c0-0.9,0.6-1.2,1.3-1.2c0.5,0,1.1,0.3,1.2,1.1
	C107.1,241.7,106.4,241.4,105.8,241.5z"/>
<path class="st75" d="M52.3,185.6c-0.2,0.8-0.8,1.1-1.4,1.1c-0.6,0-1.1-0.3-1.1-1c0-0.7,0.3-1.1,1.1-1.2
	C51.5,184.5,52,184.9,52.3,185.6z"/>
<path class="st76" d="M47.5,185.6c-0.1,0.7-0.5,1.2-1.2,1.1c-0.6,0-1.3-0.3-1.3-1c0-0.8,0.6-1.1,1.3-1.1
	C47,184.5,47.4,184.9,47.5,185.6z"/>
<path class="st77" d="M40.6,99.3c0-7.9,0-15.7,0-23.6c0-2.3,0.5-2.9,2.8-3.3c1.9-0.3,3.8-0.4,5.7-0.5C64,71.1,79,71,94,71.2
	c7,0.1,14,0.6,21.1,1c2.7,0.1,3.4,1,3.4,3.6c0,14.9,0,29.9,0,44.8c0,0.6,0,1.2,0,1.8c0.3,2.5-1,4-3.5,4.1c-2.5,0.1-5,0.2-7.5,0.3
	c-5,0.2-10,0.5-15.1,0.5c-6.2,0-12.4,0.4-18.6,0.2c-7.7-0.2-15.4-0.3-23.1-0.7c-2.4-0.1-4.8,0-7.2-0.5c-2.3-0.4-2.9-1.1-2.9-3.4
	C40.6,115.1,40.6,107.2,40.6,99.3z"/>
<path class="st78" d="M73.2,154.2c-5.3-0.9-10.1-2.8-14.3-6.1c-0.5-0.4-1.4-0.9-1.1-1.7c0.2-0.7,1-0.7,1.7-0.9
	c3.3-0.8,6.7-1.3,10.1-1.4c1.4,0,2.8-0.4,4.3-0.3c1-0.3,2-0.2,3.2,0.1c-1.6,0.8-3.3,1.6-2.9,3.8c-1.1,1.3-2.5,0.1-3.8,0.4
	c1.1,0.9,2.9,0.1,3.6,1.6c-0.7,1.1-1.5,2.2-0.4,3.5C73.8,153.5,74.1,154.2,73.2,154.2z"/>
<path class="st79" d="M87.6,143.8c4.1,0.1,8.2,0.6,12.2,1.7c0.6,0.1,1.4,0.2,1.5,0.9c0.1,0.8-0.6,1.2-1.1,1.6
	c-3.5,2.8-7.6,4.7-12,5.7c-2.8-0.4-3.9-2.2-2.5-4.3c1-0.8,2.3-0.4,3.4-1.3c-0.6-0.3-1.3,0-1.8-0.2c-1.1-0.1-1.5-0.8-1.6-1.8
	C85.6,144.9,86.4,144.2,87.6,143.8z"/>
<path class="st80" d="M85.9,149.8c-0.5,2,0.1,2.9,2.3,3.9c-4.6,1.2-9.3,1.4-14,0.7c-0.4-0.1-0.7-0.2-1.1-0.3c0.4-0.5,0.1-0.8-0.3-1
	c-1.3-0.6-0.4-1.6-0.4-2.4c0.1-0.9,0.7-1,1.4-1c0.7-0.9,1.7-0.8,2.6-0.6c2.2,0.3,4.4,0.3,6.6,0C84,149.1,85.1,148.8,85.9,149.8z"/>
<path class="st81" d="M87.6,143.8c-0.3,0.4-0.8,0.8-1,1.2c-0.7,1.2-0.3,2.1,1.1,2.4c-0.1,0.9-0.8,0.9-1.5,1
	c-3.4,0.6-6.9,0.3-10.3,0.3c-0.8,0-1.5-0.3-2-1c-0.3-0.5-0.3-1.1-0.4-1.6c-0.1-1.5,0.4-2.2,2-2c0.3,0,0.5,0,0.8-0.4
	c-0.8,0-1.7,0-2.5,0c3.5-0.5,7.1-0.3,10.6-0.1C85.5,143.7,86.5,143.8,87.6,143.8z"/>
<path class="st82" d="M79.3,126.7c-11.7,0-23.5-0.4-35.2-1.1c-2-0.1-2.6-0.8-2.6-2.7c0-15.7,0-31.4,0-47.2c0-1.9,0.6-2.4,2.7-2.6
	c18.7-1.2,37.4-1.5,56.1-0.7c5,0.2,9.9,0.5,14.9,0.8c1.9,0.1,2.5,0.7,2.5,2.6c0,15.6,0,31.2,0,46.8c0,2.4-0.5,2.8-3,3
	C102.9,126.3,91.1,126.7,79.3,126.7z"/>
<path class="st83" d="M73.8,147.8c4.6,0.6,9.2,0.7,13.8-0.3c0.3,0,0.6,0,0.8-0.1c0.7-0.2,1.5-0.5,1.8,0.5c0.2,1-0.7,1.2-1.4,1.3
	c-1,0.2-1.9,0.4-2.9,0.6c-4,0.3-8.1,0.5-12.1,0c-1.2-0.5-2.5-0.4-3.7-0.8c-0.6-0.2-1.4-0.4-1.1-1.3c0.2-0.8,1-0.6,1.6-0.5
	C71.7,147.4,72.7,147.8,73.8,147.8z"/>
</svg>
