<?xml version="1.0" encoding="utf-8"?>
<!-- Generator: Adobe Illustrator 23.1.1, SVG Export Plug-In . SVG Version: 6.00 Build 0)  -->
<svg version="1.1" id="Livello_1" xmlns="http://www.w3.org/2000/svg" xmlns:xlink="http://www.w3.org/1999/xlink" x="0px" y="0px"
	 viewBox="0 0 80 135" style="enable-background:new 0 0 80 135;" xml:space="preserve">
<style type="text/css">
	.st0{fill:#FFFFFF;stroke:#000000;stroke-width:0.2509;stroke-miterlimit:10;}
	.st1{fill:#573F3D;}
	.st2{fill:#476440;}
	.st3{fill:#424B3B;}
	.st4{fill:#5B6C56;}
	.st5{fill:#69624D;}
	.st6{fill:#EFD53C;}
	.st7{fill:#796F55;}
	.st8{fill:#83504E;}
	.st9{fill:#6E4F52;}
	.st10{fill:#A19169;}
	.st11{fill:#756D5A;}
	.st12{fill:#ED4F4E;}
	.st13{fill:#EE5855;}
	.st14{fill:#ED4D4A;}
	.st15{fill:#A13A37;}
	.st16{fill:#EACC3A;}
	.st17{fill:#E94D4B;}
	.st18{fill:#BB9D3A;}
	.st19{fill:#A6403D;}
	.st20{fill:#EFD439;}
	.st21{fill:#CCAA51;}
	.st22{fill:#F5DD32;}
	.st23{fill:#F6DF32;}
	.st24{fill:#C19B3F;}
	.st25{fill:#ECD93D;}
	.st26{fill:#E1D14A;}
	.st27{fill:#F1E148;}
	.st28{fill:#77612E;}
	.st29{fill:#6B582B;}
</style>
<path class="st0" d="M71.5,135h-63c-4.7,0-8.5-3.8-8.5-8.5V8.5C0,3.8,3.8,0,8.5,0h63C76.2,0,80,3.8,80,8.5v118
	C80,131.2,76.2,135,71.5,135z"/>
<path class="st1" d="M35.2,89.6c0.5,0.6,1.1,1.1,1.6,1.7c1.5-2.4,1.6-5.3,0.3-7.6c-0.2-0.4-0.4-0.8-0.6-1.3c0.5-1.1,0.9-2.2,0.3-3.4
	c-0.1-0.2-0.1-0.4-0.2-0.6c-0.1-0.3-0.2-0.6-0.3-0.9c0-0.2,0-0.4,0.2-0.6c0.2-0.1,0.4-0.1,0.5,0.1c0.7,0.6,1.3,0.8,1.3-0.5
	c0-3-0.4-6.1-0.6-9.1c-0.3-4.9-1.1-9.7-1.3-14.5C36.4,50,36.2,47,36,44c-0.1-1.1-0.2-2.2-0.7-3.2c-0.5-0.9-0.9-1.9,0.2-2.8
	c0.4-0.3,0.2-0.9,0.1-1.4c-0.1-1.1-0.5-2.4,1-3.1c0.5-0.2,0.3-1,0.2-1.6c-0.1-0.8-0.2-1.6,0.9-1.9c0.6-0.2,0.4-0.8,0.4-1.2
	c-0.1-1.1-0.6-2.5,1.2-2.7c0.1,0,0.3-0.3,0.3-0.3c-0.7-2.3,2.4-3,2.2-5.1c1.4-0.7,1.8-2.6,3.2-3.1c1.2-0.4,2.1-1.4,3.4-1.7
	c0.4,0.4,0.4,0.8,0.2,1.3c-0.4,0.6-1,1.1-1.6,1.3c-1.6,0.6-2.3,1.8-2.6,3.3c-1.9,1.9-3,4-2.4,6.7c-0.4,1-1.4,0.4-2,0.6
	c-0.1,0.9,0.3,1.6,0.6,2.3c0.2,0.7,0.2,1.6-0.7,1.6c-1.8,0.1-0.6,1.2-0.8,1.8c-2,1.4-2,1.4-0.3,3.4c0.3,0.4,0.5,0.8,0.5,1.3
	C38.5,40,37.8,40.1,37,40c0.2,1,1.1,1.3,1.7,1.9c0.4,0.5,1.2,1.1,0.6,1.6c-1.4,1.1-0.4,1.5,0.4,2.1c2.3,1.8,2.3,1.8,0.1,3.4
	c0.2,0.8,1,1,1.5,1.5c1.6,1.3,1.5,1.5-0.4,2.4c0.7,0.8,1.7,1.3,2.4,2c0.3,0.3,0.9,0.9,0.7,1.2c-2,2.5,0.8,2.4,1.7,3.2
	c0.2,0.2,0.4,0.3,0.6,0.5c0.4,0.8-0.5,1-0.6,1.6c0.4,1.8,2,2.7,2.9,4.2c0.3,0.5,0.5,1,0.1,1.6c-0.3,0.2-0.6,0.3-1,0.1
	c-1-1.1-2.7-0.7-3.9-1.6c-0.7-0.5-1.8-0.2-1.7,1.5c0.1,2.3-0.1,4.6,1.6,6.5c0.3,0.3,0.3,0.8,0.1,1.1c-1.4,1.8-1.5,3.7-0.5,5.7
	c0.2,0.3,0,0.8-0.2,1.1c-1.4,1.9-0.7,3.9-0.1,5.8c0.1,0.6,0.1,1.1,0,1.7c-0.2,2.5,0.1,2.6,2.6,1.9c2-0.5,3.4-2.4,5.5-2.7
	c1,1.7-0.6,2.8-0.8,4.2c-0.1,0.9-0.7,1.6-1.1,2.4c-0.1,0.2-0.3,0.4-0.5,0.5c-1.6,0.5-2.9,1.8-4.7,1.2c0.1-2.1,1.8-2.3,3.2-2.7
	c-2.4-0.3-2.3-0.2-5.2,0.5c-1.8,0.5-3.6,1.2-5.7,1.2c1.2,1.8,2.6,1.1,4,0.8c1.2-0.3,2.4-1.1,3.3,0.4c-0.8,1.2-2.2,1.5-3.4,2
	c-2.3,1.1-4.3,2.4-5.1,5c-0.4,1.3-1.2,2.6-2.8,3.1c2.9,0.1,5.7,0.1,8.4,0.9c0.2,0.3,0.2,0.7-0.1,1c-0.6,0.5-1.2,1.1-1.9,1.6
	c-0.2,0.1-0.4,0.2-0.6,0.1c-2.9-2.5-7.9-2.2-10.3,1.8c-0.5,0.9-0.1,1.5,0.5,2.1c0.7,0.7,1.7,1.3,1.5,2.6c-1.4,0.5-2.8,0-3.9-0.7
	c-1.1-0.7-2-1.4-3.4-1.2c-1.2,0.1-1.3-0.5-0.6-1.4c4.2-3.1,7.3-7.2,10.5-11.1c1.9-2.3,2.6-4.6,1.8-7.5c-0.2-0.6-0.2-1.2-0.3-1.9
	c0.1-0.6,0.3-1.1,1-1.1c0.1,0.1,0.3,0.1,0.4,0.2c0.7,0.4,0.2-0.2,0.2-0.3c-0.4-0.7-1-1.4-0.7-2.3C34.8,89.4,35,89.4,35.2,89.6z"/>
<path class="st2" d="M53.3,13.3c4-1.8,8.1-2,12.2-0.3c2.3,1,3.9,2.7,4.4,5.2c0.7,3.4,0,6.5-1.5,9.5c-1.3,2.6-2.9,4.9-4.7,7.2
	c-3.3,4.5-6.5,9-8,14.5c-0.1,0.2-0.2,0.4-0.4,0.6c-0.2,0-0.3-0.3-0.3-0.2c-0.2,0.9-0.8,1.7-0.8,2.7c0,0.6-0.4,1.1-1,1.1
	c-0.8,0-0.6-0.8-0.7-1.3c-0.3-2.2-1.4-4.8-1-6.6c0.7-2.9,0.3-5.5-0.1-8.3c-0.1-0.6,0.5-1.1,0.8-1.7c1.6-2.8,1.7-5.8,1.6-8.9
	c-0.1-1.8,0.5-3.6,0.6-5.4c0.1-1.6,2-0.8,2.7-1.8c0.2-0.3,1,0,1.2-0.6c-2.2,0.4-5.3-2.8-4.7-4.9C53.9,13.3,53.2,13.6,53.3,13.3z"/>
<path class="st3" d="M53.3,13.3c0.2,0.3,1.3-0.5,0.8,0.7c-0.4,1-0.9,2.1,1,1.8c0.2,0,0.5,0.3,0.4,0.5c-0.9,1.3,0.6,1.1,1,1.5
	c0.4,0.3,1,2.2,1.5,0c0.1-0.2,0.6-0.1,0.8,0.1c0.6,0.8,0.1,2-0.9,1.9c-0.7,0-1,0.2-1.4,0.6c-0.2,0.2-0.4,0.7-0.6,0.6
	c-1.2-0.7-1.2,0-1.1,0.8c0.2,1.3,0,2.5-0.3,3.7c-0.3,1,0.4,2.2-0.3,3.2c-0.2,0.3-0.3,0.6,0,0.9c1.2,1.6,0.3,2.8-0.6,4.2
	c-0.7,1.2-1,2.7-1.8,4c-0.4,0.6,0.4,1.4,0.7,1.9c1.1,2.1,0.3,3.9-0.8,5.7c0.2,0.6,0.8,0,1.2,0.3c0.6,0.6-0.1,0.9-0.2,1.2
	c-0.3,0.9-0.3,1.7,0,2.4c0.5,1.3,0.6,2.5,0.2,3.8c0.2,0,0.3,0.1,0.5,0.1c0.6-1.7,1.1-3.3,1.8-5.2c0.1,0.7,0.2,1.3,0.2,1.8
	c-1,4.5-1.5,9-1.5,13.6c0.3,3.3,0.1,6.6,0.1,9.9c0,1.3,0,2.6,0.9,3.7c-1.4,1.4-2.2,0.7-2.6-0.8c-0.5-2.1-0.8-4.3-1-6.5
	c-1.4-2.5-3-4.9-3-8c0.1-0.2,0.3-0.4,0.5-0.4c1.1,0,1.2,0.8,1.3,1.5c-0.5-2.2,0.4-4.5,0.3-6.9c0.2-0.9,0.4-1.7,0.4-2.6
	c0-1.3-0.4-2-1.9-1.6c-0.5,0.2-1.1,0.6-1.5-0.1c-0.4-0.6-0.1-1.2,0.3-1.8c0.7-1,2.1-2-0.2-2.9c-0.8-0.3-0.3-1.6,0.2-2.4
	c1.2-2.1,0.9-2.8-1.2-3.6c-0.9-0.4-0.8-1.2-0.4-1.5c1.7-1.4,1.8-3.7,2.7-5.5c-0.5-0.2-0.8,0.3-1.2,0.4c-1.2,0.2-1.6-0.5-1-1.4
	c0.8-1.3,1.7-2.3,0.8-4.1c-0.4-0.7,1.1-1.3,1.3-2.2c-0.9-0.4-2,0.8-2.6-0.3c-0.5-0.8,0.1-1.7,0.4-2.5c0.1-0.4,0.3-0.7,0-1.1
	c-0.3-0.3-0.6-0.5-0.6-1c1.4-1.3,2.4-2.8,2.5-4.8c0-0.4,0.1-0.8,0.1-1.2C49.9,14.5,51.5,13.7,53.3,13.3z"/>
<path class="st3" d="M48.6,94.9c0.6-1.8,1.1-3.5,2-5.2c0.3-0.5,0.3-1,0.2-1.6c0-0.1,0-0.2,0-0.3c1-2.6,1.3-5.2,1.4-7.9
	c0-1.5,0.6-2,2.1-1.4c0.8,0.2,0.4,1.2,1.1,1.5c1.7-0.2,3.1,0.4,4.5,1.4c0.5,0.4,1.1,0.7,1,1.5c-0.1,0.7,0.4,1,0.8,1.4
	c0.5,0.5,1.1,1,0.5,1.8c1.1,1.4-0.1,3.4,1.2,4.8c0.2,0.2,0.6,0.9,0.2,1.1c-1.4,0.7-0.7,1.9-0.6,2.9c0,0.3,0.1,0.8-0.2,0.9
	C61,96,61.9,97.1,62.1,98c0.4,1.4,0.6,2.8,0.4,4.2c-0.7,0.2-1.2-0.1-1.7-0.3c-0.6-0.3-1.2-0.9-2-0.3c-0.1,0.1-0.6,0.1-0.7,0
	c-1-1.5-3.4-1.2-4.1-3.2c-0.2-0.7-0.7-1.5-1.7-0.8c-0.4,0.3-0.6-0.3-0.8-0.6c-0.3-0.6-0.6-1.3-0.9-1.9c-0.3-0.7-0.7-0.4-1.1-0.1
	C49.2,95.2,48.9,95.2,48.6,94.9z"/>
<path class="st4" d="M38,110.2c0.2,0,0.4,0,0.5,0.1c-3.4,3.7-7.1,7.1-11.4,9.7c-4,2.4-8.6,2.7-13.2,2.3c-0.3,0-0.6-0.2-0.9-0.3
	c-1.2-0.5-1.3-1.1-0.4-1.9c1.2-1.1,2.5-2.2,3.9-3.2c1.7-1.2,3.5-2.3,5.2-3.4c0.2,0.3-0.6,1.1,0.4,0.9c1.7-0.3,3,0,4.1,1.4
	c0.4,0.5,0.9,1,1.3-0.1c0.1-0.2,0.6,0.1,0.7,0.3c0.3,0.4,0.6,1,1.3,0.8c2-1.5,3.7-3.4,5.7-5C35.9,111.3,36.6,110.1,38,110.2z"/>
<path class="st5" d="M37.1,78.6c1.1,2.4,1.1,2.7-0.6,3.9c-1.5-1.7-2.8-3.4-4.4-5c-3.1-3.2-6.8-4.3-11.1-3.2
	c-1.1,0.3-2.2,0.6-3.7,1.1c0.5-3.3,2.4-5.2,5.2-6.3c0.1-1-1-1.4-1.1-2.3c0-1-0.8-1.5-1.1-2.3c-0.3-0.7-0.4-1.2,0.6-1.3
	c0.2,0,0.4,0.1,0.6,0.3c0.5,0.6,0.9,1.2,1.7,2c0-0.9-0.3-1.6-0.5-2.3c-0.4-1.9-0.5-3.9-0.9-5.7c-1.2-0.3-2,1.9-3.2,0.3
	c-0.3-1.2,0.4-2.1,0.7-3.1c0.2-0.6,0.5-1.2,1.1-1.5c0.4,0.1,0.7,0.3,0.5,0.8c0,0.5-0.1,0.9-0.1,1.4c2.3,0,2.5,0.2,3.1,2.4
	c0.4,1.5,0.7,3,0.7,4.5c0,1.1,0.2,2.2,0.7,3.3c0.5-0.7,0.6-1.5,0.8-2.2c0.2-0.8,0.6-1.5,1.2-2.1c0.5-0.4,0.9-1.1,1.6-0.9
	c0.6,0.2,0.5,0.9,0.6,1.4c0.7,3.1,1.8,6.1,3.5,8.9c0.5,0.9,1.2,1.7,1.4,2.7c-0.1,0.1-0.2,0.1-0.3,0.2c-0.5,0-0.9-0.3-1.2-0.7
	c-1.9-3-3.5-6.1-4.6-9.9c-1.2,1.6-1,2.9-0.8,4.2c0.7,3.8,0.6,4-3.3,3.5c-1.6,0.1-2.7,1.1-4.3,2.1c2.9,0.1,5.4-0.3,7.9,0.1
	c0.2,0.1,0.4,0.1,0.6,0.2c0.4,0.3,0.8,0.6,1.3,0.8c0.2,0.1,0.4,0.2,0.6,0.3c1.8,1.1,3.2,2.6,4.6,4.1C35.6,79.2,36.3,79.2,37.1,78.6z
	"/>
<path class="st6" d="M62.9,63.9l0-0.2l0.2,0c1,0,1.6-1.9,2.7-0.9c1.2,1,0.5,2.3,0.1,3.5c-0.5,1.5-1.7,2.5-2.4,3.8
	c0.1,0.1,0.2,0.2,0.2,0.1c1.2-0.2,2.9-1.1,3.4,0.4c0.6,1.6-1.1,2.4-2.4,3.1c-1.8,1.1-3.7,1.9-5.7,2.5c-2.5,0.8-3.7-0.3-3.4-2.9
	c0.3-2.9,0.9-5.7,2.6-8.1c0.7-1,1.4-1.7,2.6-0.4C62.2,66.1,62.5,64.7,62.9,63.9z"/>
<path class="st7" d="M62.9,63.9c0,1.2-0.8,2-1.5,3c-0.9-0.8-0.5-2.1-1.6-2.7c-3.3,3-3.3,7.1-3.8,11c2.1,0.8,4.1,0.5,6.1-0.7
	c1.9-1,3.9-1.8,5.1-4.1c-1.5-0.5-2.7-0.1-3.9,0.5c-0.4,0.2-0.8,0.4-1.1,0.1c-0.4-0.5,0-0.9,0.4-1.2c1.1-0.8,1.6-2.1,2.5-3.1
	c0.6-0.6,0.8-1.6,1-2.4c0.3-1.3-0.4-1.7-1.6-1.2c-0.4,0.2-0.8,0.5-1.4,0.4c0.9-1.1,1.9-2.1,3.4-2.7c0.6,2.7,0.2,5.1-0.6,7.5
	c1,0.7,2.3,0.6,3.1,1.6c-1,1.9-2.4,3.4-4.5,4.3c-2,0.9-4,1.6-5.9,2.5c-1.4,0.7-3,1.1-3.2,3.1c-0.8-0.1-0.8-0.9-1.2-1.3
	c-0.2-0.4-0.2-0.7,0.1-1c0.2-1.3-0.8-2.3-0.6-3.7c0.2-1.3,0-2.7,0-4c0-1.3,0-2.7,0-4c0-0.8,0.1-1.6,0.1-2.4c0.7,2.8,0.3,5.7,0.5,8.5
	c0.1,1.2,0,2.4,0,4.1c1.4-2.7,1-5.4,1.9-7.7c0.9-2.3,2.6-4.2,3.4-6.6c1.5,0.5,1.3,2,2.1,2.8C62.3,64.6,62.5,64.1,62.9,63.9z"/>
<path class="st8" d="M35.2,89.6c-0.2,0-0.3,0-0.5,0c-1.2,0.3-1.5-0.7-2-1.3c-1-1.3-2-2.6-3.3-3.8c-1.1-1-2.2-2.2-3.9-1.1
	c-0.2,0.1-0.5,0.2-0.7,0.1c-2.3-1.5-4.3,0.4-6.5,0.4c-0.3,0-0.8,0.1-0.8,0.4c0.5,2.1-1.3,2.6-2.4,3.5c-0.3,0.3-0.4,0.7-0.2,1.1
	c0.7,1.4-0.2,2-1.3,2.6c1.7,1.6,2.8,3.4,2.9,5.7c-0.4,0.4-0.8,0.4-1.3,0.1c-0.1-0.2-0.4-0.3-0.4-0.6c-0.6-1.6-1.6-3-2.9-4
	c-0.5-0.4-0.8-0.8-0.2-1.3c0.4-0.4,0.8-0.8,1.3-1.1c0.5-0.3,0.7-0.7,0.3-1.2c-1-1.1-0.2-1.7,0.5-2.3c0.4-0.3,0.8-0.6,1.2-0.8
	c1-0.3,1.2-1,0.8-1.8c-0.5-1.1,0.1-1.6,1.1-1.8c0.9-0.2,1.7-0.3,2.2-1.2c0.3-0.6,0.9-0.5,1.5-0.4c1,0.3,2,0.4,3,0.8
	c0.9,0.3,1.6,0.6,2.3-0.3c0.5-0.7,1.2-0.2,1.7,0.1c1.8,0.9,3.3,2.2,4.6,3.7C33.2,86.5,34.4,87.9,35.2,89.6z"/>
<path class="st9" d="M15.2,97.4c0.5,0,1-0.1,1.2-0.7c0.4,0,1,0.1,1,0.4c0.1,1.5,1.1,1.6,2.2,1.7c1.3,0.1,1.8-0.9,2.4-1.7
	c0.2-0.3,0.4-0.6,0.6-1c-1.7,1.5-3.5,1-4.4-1.1c-1.4-3.3,0.2-6.8,3.8-8c3.9-1.2,7.4-0.5,10.3,2.4c0.8,0.8,2,1.2,2.1,2.6
	c-0.3,0.3-0.6,0.6-0.9,1c-1.2-1.6-2.3-3.2-4.1-4.3c-3.1-1.8-6.3-1.1-8.9,0.8c-0.5,0.4-0.9,1-1.2,1.5c-0.8,1.5-0.5,1.9,1.2,1.9
	c1.8,0,3.3,1.1,3.6,2.9c0.3,1.9-1,3.9-2.9,4.4C18.8,100.9,16.6,99.9,15.2,97.4z"/>
<path class="st10" d="M19.7,54.6c0,1.1-0.9,1.9-1,3c0.2,1.3,1.4,2.1,1.8,3.3c0.3,0.8,1,1.5,0.6,2.4c-0.4,0.1-0.8,0.2-0.5,0.7
	c0.3,0.5,0.7,1,0.9,1.6c0.2,0.3,0.6,0.8-0.1,1.1c-2.2-2.3-3.5-5.1-4.6-8c-2.1-5.6-2-11.2,0.9-16.5c0.2-0.2,0.4-0.2,0.6,0
	c0.4,1.5,0.2,2.9-0.7,4.3c-0.8,1.1-0.9,2.4-0.3,3.6c0.7,1.2,1.2,2.4,1.3,3.8C18.7,54.6,19.2,54.5,19.7,54.6z"/>
<path class="st11" d="M18.2,42.1c-0.2,0-0.3,0-0.5,0c0.7-1.5,1.4-3,3.2-4c0.1,2.6,0.4,5.1-0.7,7.4c-0.4,1-1.1,1.8,0.6,2.3
	c0.7,0.2,0.7,1,0.7,1.7c0,1.5-0.1,3-0.8,4.4c-0.2-0.2-0.3-0.4-0.5-0.6c-0.5-0.6-0.2-1.4-0.2-2.1c0-0.9-0.1-1.6-1.1-2.1
	c-1.5-0.7-1.4-2-0.9-3.2c0.6-1.2,1-2.5,1.5-3.7C19.1,41.5,18.7,42.3,18.2,42.1z"/>
<path class="st4" d="M40.4,108.7c0-0.3-0.1-0.7-0.1-1c-0.3-0.5-0.1-1,0.2-1.3c2.7-3,4.8-6.5,6.8-9.9c0.2-0.3,0.5-0.6,0.9-0.8
	c0.4,0,0.6,0.2,0.7,0.6c-1.1,2.7-2.7,5-4.4,7.3c-1,1.3-2.1,2.6-2.9,4.1C41.3,108.2,41,108.7,40.4,108.7z"/>
<path class="st5" d="M37,77.1c-0.2,0-0.4,0-0.5,0c-1.4,0-1.5-1-1.7-2c0.1-0.2,0.2-0.4,0.4-0.5C36.1,75.3,36.5,76.2,37,77.1z"/>
<path class="st1" d="M48.9,96.3c-0.2-0.2-0.3-0.3-0.5-0.5c-0.2-0.3-0.2-0.5,0-0.8c0,0,0.1-0.1,0.1-0.1c0.3,0,0.6,0,0.9,0
	C49.6,95.5,49.3,95.9,48.9,96.3z"/>
<path class="st5" d="M34.3,73.2c0.5,0.4,0.9,0.8,1,1.5c0,0-0.1,0.1-0.1,0.1C34,74.8,33.7,74.3,34.3,73.2L34.3,73.2z"/>
<path class="st12" d="M47.6,67.1c0.3,0,0.6,0,0.9,0c0.1,0.1,0.2,0.1,0.3,0.2c4.7,6.2,4.3,13.1,2.5,20.1c-0.1,0.3-0.3,0.5-0.5,0.8
	c0,0,0,0,0,0c-1.8,2.3-4.4,3.3-7.1,3.9c-1.7,0.4-2.1-0.1-1.7-1.7c0.2-1,0.2-2,0.3-3.1c2.7-5.1,3.8-10.6,3.9-16.4
	C46.2,69.4,46.4,68.1,47.6,67.1z"/>
<path class="st13" d="M34.5,92.1c-0.7-0.7-1.6-1.2-2.2-2c-2.5-3-7.5-3.9-10.9-2.2c-2.8,1.4-3.8,3.7-2.5,7.3c0.4,1,1.4,1.4,2.2,1.5
	c1.3,0.1,0.8-1.2,1-1.9c1.5,0.8,1.5,0.8,0.6,2.1c-0.3,0.4-0.4,0.9-0.6,1.3c-1.3,2.1-2.6,1.6-4.5,0.7c-0.2-0.1-0.4-0.2-0.2-0.5
	c0.5-1-0.6-1.1-0.9-1.6c-0.5-1.1-2-1.7-1.6-3.3c0.1-0.5-0.6-0.9-1.2-0.9c-0.5,0-1.1,0-1.2-0.6c-0.1-0.7,0.7-0.7,1.1-1.1
	c0.4-0.3,0.9-0.2,1.2-0.6c0-0.2,0.1-0.4,0-0.5c-1.1-1.6-1-2.1,0.7-3c0.5-0.3,1-0.4,1.5-0.6c0.2-0.2,0.1-0.4,0-0.7
	c-0.6-2.3-0.5-2.4,1.7-2c0.7,0.1,1.1,0.1,1.6-0.6c0.7-1,1.6-1,2.7-0.5c1.1,0.5,2.3,1.3,3.3-0.3c0.3-0.4,0.9,0,1.3,0.2
	c1.8,1,3.2,2.6,4.5,4.2c0.8,1,1.5,2.2,2.6,3.1c0.5,0.8,1,1.6,1.3,2.5c0.2,0.4,0.6,0.9,0,1.2c-0.6,0.3-0.8-0.3-1.1-0.7
	C34.8,92.5,34.7,92.3,34.5,92.1z"/>
<path class="st14" d="M48.5,95c0,0.3,0,0.5,0,0.8c-1.8,2.2-2.8,5-4.6,7.2c-0.8,1.1-1.6,2.2-2.5,3.2c-0.4,0.5-1,0.8-1.1,1.5
	c-3.1,0.4-8.5-0.3-9.8-1.3c0.1-0.1,0.2-0.3,0.3-0.3c0.7-0.3,1.5,0.6,2-0.1c0.6-0.8,1.4-1.7,1.6-2.6c0.4-2.8,2.7-3.9,4.6-4.9
	c1.3-0.7,2.7-1.3,4.2-1.7c0.2-0.1,0.3-0.4,0.6-0.4C45.4,96.2,46.7,94.9,48.5,95z"/>
<path class="st15" d="M47.6,67.1c-0.8,2.3-0.7,4.7-0.8,7.2c-0.1,1.8-0.2,3.9-1.2,5.7c-0.4,0.7-0.5,1.5-0.6,2.2c-0.3,2-0.7,4-2.7,5.1
	c-0.3-1.3-1-2.5-0.8-3.9c0.1-0.8,0.4-1.3,0.8-1.9c0.9-1.3,0.6-1.6-1.1-1.7c0.2-0.6,0.7-0.8,1-1.3c0.2-0.3,0.4-0.5,0-0.8
	c-1.4-0.8-0.6-1.5,0.1-2.2c0.4-0.4,0.8-0.8,1.2-1.2c-2.3-1.5-2.2-4-2.2-6.1c0-1.1-0.2-2-0.3-3.2c1.4,0,2.9,0,4.3,0
	c0.4,0.6-0.5,0.7-0.4,1.2C46.8,65.4,46.8,65.4,47.6,67.1z"/>
<path class="st16" d="M46.1,59.9c-1.6-0.2-2.7-1.4-4-2c-0.3-0.2-0.5-0.4-0.5-0.7c0.1-0.3,0.3-0.5,0.7-0.6c0.4-0.1,1,0.1,1.4-0.3
	c-1-1.6-3.3-1.9-4-3.7c0.8-1,1.8,0,2.6-0.5c-0.7-0.9-1.9-1.2-2.7-1.9c-0.4-0.4-1.2-0.8-0.9-1.5c0.2-0.6,0.9-0.7,1.4-0.7
	c0.3,0,0.6,0,1-0.1c-0.1-0.8-0.7-1-1.2-1.4c-0.4-0.3-0.9-0.6-1.4-0.9c-0.6-0.4-1.2-1-0.9-1.8c0.3-0.9,1.2,0.1,1.7-0.3
	c-0.3-0.9-1.1-1.1-1.7-1.6c-0.7-0.6-1.3-1.2-1.6-2c-0.2-0.6,0.1-0.9,0.7-0.8c0.9,0,1.4,1.1,2.4,0.8c0.2-0.3,0.3-0.6,0.7-0.7
	c1.8,0,3,1,3.2,2.6c0.3,3.1,1.3,6.1,2.4,9c0,0.7,0,1.5,0.1,2.2c0,0.2,0.1,0.4,0.1,0.6c-0.2,1.1-0.2,2.2,0.5,3.2
	c0.2,0.3,0.3,0.5,0.4,0.8c0.2,0.7,0.5,1.3,0.9,1.9c0.1,0.2,0,0.4,0,0.6c-0.2,0.1-0.3,0.2-0.6,0.2C46.4,60.1,46.2,60.1,46.1,59.9z"/>
<path class="st17" d="M38,110.2c-2.2,1.8-4.3,3.7-6.4,5.6c-0.6,0.6-1.2,1.3-2.2,1.1c-0.2-1-1-1.6-1.7-2.2c-1.7-1.5-1.7-2.3,0.2-3.6
	c0.5-0.4,1.2-1.1,1.2-1.2c0.4-1.8,1.7-1.6,2.9-1.6c1.7,0.1,3.3,0,5,0.4C37.8,108.9,38.1,109.4,38,110.2z"/>
<path class="st18" d="M46.2,22c0.1,0.5,0.6,0.4,0.9,0.4c-1.7,3.2-2.6,6.6-2.8,10.3C44.2,35,44.3,36.9,45,39c0.6,1.7-0.5,3.1-2.1,3.3
	c-1-2-0.7-4.1-0.9-6.2c-0.1-0.2-0.1-0.4-0.2-0.7c-0.2-1.2-0.2-2.5-0.8-3.6c-0.5-0.9-1-1.9,0.8-1.9c0.1,0,0.1-0.8,0-1.3
	c0.1-0.9-0.8-1.3-0.9-2.1c-0.1-0.7-0.5-1.7,0.9-1.5c0.5,0.1,0.4-0.4,0.4-0.6c0-0.7,0.2-1.4,0.4-2.1c0.3-1.3,1-0.6,1.6-0.4
	c0.2-0.2,0.3-0.4,0.4-0.6c0.2-0.8,0.4-2,1.6-1.5C47.5,20.3,46.2,21.2,46.2,22z"/>
<path class="st19" d="M43.8,96.4c-0.1,0.2-0.3,0.4-0.6,0.4c-0.8-0.7-1.6-0.4-2.4-0.1c-0.7,0.2-1.3,0.6-2,0.7
	c-2.4,0.3-2.4,0.3-3.3-2.3c3-0.5,5.8-1.2,8.6-2.3c0.8-0.3,1.5-0.5,2.2,0.3c0.6,0.8,1.3-0.1,2.1,0.2C46.9,94.6,44.6,94.4,43.8,96.4z"
	/>
<path class="st20" d="M41.8,28.6c0.9,0.5,1.5,1.1,1.1,2.2C42.2,31.1,42,30,41,30.4c0.7,1.6,1.6,3.1,1.2,5C41,36,39.9,35.7,38.8,35
	c-0.5-0.8-0.9-1.7-0.7-2.6c0.5-0.5,0.8-0.1,1,0.1c0.3,0.2,0.6,0.6,1,0.2c0.2-0.3,0.2-0.6,0-0.9c-0.8-1.2-1-2.5-0.9-3.8
	c0.8-0.4,1.1,0.2,1.4,0.6C41.1,29.3,41.4,28.8,41.8,28.6z"/>
<path class="st21" d="M34.2,73.3c0,0.7,0.3,1.2,1,1.4c0,1.1,0.5,1.8,1.4,2.4c0,0.2,0,0.3,0,0.5c0,0.3,0.3,0.4,0.5,0.6
	c0,0.1,0,0.2,0.1,0.4c-0.1,0.8-0.7,1.2-1.2,1.7c-1.7-2.3-4-4-6-6c1.1-1,2,0.2,3,0.4c0.1-0.7-0.4-1.5,0.4-2
	C33.6,72.9,33.9,73.1,34.2,73.3z"/>
<path class="st18" d="M38.8,35c1.2-0.3,2.3,0.2,3.4,0.4c0,0.1,0.1,0.1,0.1,0.2c-0.3,1.8-2.1,2.3-3,3.6c-0.2,0.2-0.3,0.4-0.5,0.6
	c0-0.8-0.7-1-1.1-1.4c-0.6-0.5-1.2-1-1.3-1.9c-0.2-1.2,0.1-1.6,1.5-1.3C38.3,35.2,38.6,35.3,38.8,35z"/>
<path class="st22" d="M46.2,22c-0.1,0-0.1-0.1-0.2-0.2c-0.4-0.6,0.9-1.4-0.1-1.7c-1-0.3-0.7,1-1.2,1.4c-0.2,0.1-0.4,0.3-0.6,0.4
	c0.1-0.7,0.1-1.4,0.3-2.1c0.1-0.5,0.4-1.3,0.9-1.2c1.4,0.2,1.9-1.3,3.1-1.5c0.2,0.5-0.8,1.3,0.4,1.7c0.7,0.2,0.3,0.8-0.1,1.1
	C48,20.7,47.1,21.3,46.2,22z"/>
<path class="st23" d="M46.6,59.9c0.2,0,0.4,0,0.6-0.1c0.6-0.1,0.9,0.3,1.2,0.8c0.2,0.4,0.4,0.8,0.1,1.2l0,0
	c-0.6,0.9,0.3,1.6,0.4,2.4c0.1,0.8,0.4,1.6-0.9,1.5c-0.7-0.8-1.5-1.6-2.2-2.5c-0.6-0.7-1.2-1.3-1-2.3C45.3,60.3,46.3,60.8,46.6,59.9
	z"/>
<path class="st24" d="M48,65.7c0.9-0.4,0.7-1,0.5-1.7c-0.1-0.7-0.9-1.4,0-2.1c0.7,2.9,1.9,5.5,3.3,8.1c-0.4,0.9-0.9,0.7-1.3,0
	c-0.6-1-1.3-1.9-2-2.9c0,0,0,0,0,0C48.6,66.5,48.2,66.1,48,65.7z"/>
<path class="st24" d="M46.6,59.9c-0.1,1.2-1.1,0.9-1.8,1c0.1-0.7,1.2-0.3,1.3-1C46.2,59.9,46.4,59.9,46.6,59.9z"/>
<path class="st15" d="M43,63.7c0.1-0.1,0.2-0.2,0.3-0.2c0.3,0,0.4,0.2,0.3,0.4c0,0.1-0.3,0.2-0.4,0.1C43.1,64,43,63.8,43,63.7z"/>
<path class="st5" d="M37,78.2c-0.2-0.1-0.6,0.3-0.7-0.1c-0.1-0.2,0.1-0.4,0.3-0.5C36.8,77.7,36.9,77.9,37,78.2z"/>
<path class="st22" d="M43.3,42.1c1.3-1.1,1.3-2.2,0.8-3.7c-0.4-1.2-1.3-2.6-0.7-4c0.6-1.3,0.1-2.7,0.4-4c0.3-1.4,0.5-2.8,1.3-4
	c0.2-0.3,0-0.8,0-1.2c0.2-2,0.3-2,2.1-2.8c0.5-0.1,1-0.1,0.7,0.7c-0.5,1.1-1.4,2.1-1.3,3.6c0.9,0.2,1.3-0.8,2.1-0.9
	c0.4,0,0.8-0.2,1.1,0.1c0.3,0.4,0.1,0.8-0.2,1.1c-0.6,0.7-1.3,1.4-1.9,2.1c0,0.9,1.5,0.3,1.3,1.3c-0.1,0.7-0.5,1.3-0.9,1.9
	c-0.5,0.6-1.2,1-1.3,2.1c1.3-0.2,2-1.7,3.5-1.2c-0.1,1.4-1.3,2-2.2,2.8c1.5,0.9,1.5,0.9,0.4,1.9c-0.9,0.8-1.9,1.4-2.2,2.9
	c0.9,0.2,1.1-1,2-1c0.7,0.3,0.3,0.9,0.3,1.4c0,0.4-0.3,1.1,0.3,1.3c1.2,0.4,0.7,1,0.3,1.6c-0.4,0.6-1,1.1-1.4,1.6
	c-0.3,0.4-0.4,0.9-0.1,1.4c0.3,0.4,0.7,0.2,1.1,0c0.4-0.1,0.8-0.3,1.1,0.1c0.3,0.4,0.1,0.9-0.2,1.3c-0.6,0.8-1.2,1.5-1.7,2.3
	c-0.2,0.3-0.3,0.5-0.1,0.9c0.6,0.2,0.8-0.4,1.2-0.5c1.6-0.7,2.7,0,2.5,1.8c-0.1,1,0.1,2.1-0.5,3c-0.3,0.3-0.7,0.3-1.1,0.3
	c-0.3,0-0.6-1.2-0.9,0c-0.1,0.4-0.7-0.1-0.8-0.4c-0.8-2.4-2.6-4.3-3.3-6.8C43.8,46.9,42.8,44.7,43.3,42.1z"/>
<path class="st24" d="M45.3,49.2c1,2.3,3.1,4.1,3.4,6.8c0.5-0.1,0.2-0.8,0.5-0.9c0.5-0.2,0.3,0.3,0.5,0.5C50,56.1,50.5,56,51,56
	c0.1,1.5,0.1,3-0.4,4.4c-0.5,1.5,0.2,2.9,0.2,4.4c-0.9,0.1-0.8-0.5-0.8-0.9c-0.1-1-0.3-1.9-1.4-2.1c-0.2-0.3-0.3-0.7-0.5-1
	c-1.2-2.4-1.1-5.4-2.9-7.6c-0.8-0.7-0.5-1.6-0.4-2.5C45.2,50.2,44.7,49.5,45.3,49.2z"/>
<path class="st1" d="M48.5,67.1c1,0.7,1.9,1.5,2.4,2.7c0.2,0.5,0.5,0.4,0.9,0.2c0.3,2.1,0.8,4.1,1,6.2c0.1,1.2,0.9,1.2,1.6,1.6
	c0,0.3-0.1,0.7-0.1,1c-0.2,0.2-0.3,0.5-0.5,0.5c-0.8,0-0.9,0-0.8,0.5c0.1,2.5-0.5,4.8-1,7.2c-0.1,0.7-0.4,1.2-1.1,1.4
	c0.8-2.4,1.2-4.9,1.5-7.5c0.4-3.9-0.3-7.6-2.6-10.9C49.2,69,48.5,68.2,48.5,67.1z"/>
<path class="st25" d="M33.3,72.7c-0.2,0.7,0.1,1.4,0.4,2c0.2,0.3,0.4,0.7,0,1c-0.4,0.3-0.7,0-1-0.3c-0.8-0.7-1.7-1.3-2.9-1.2
	c0,0,0,0,0,0c-0.5-0.3-1.2-0.3-1.5-0.9l0,0c-1.6-0.9-3.9-0.9-4.3-3.3c1.1-0.2,2.1,0.8,3.3,0.1c-0.2-2.7-1.9-5.6,0.6-8.4
	c1.4,1.8,1.5,4,2.4,5.8C31.4,69.2,32.3,71,33.3,72.7z"/>
<path class="st26" d="M18.2,42.1c0.5-0.6,0.8-1.4,1.7-1.6c0.5,1.4,0.1,2.5-0.5,3.7c-0.4,0.8-0.9,1.5-1.1,2.4c-0.4,1.3,0.1,1.9,1.5,2
	c0.7,0,0.8,0.4,0.8,0.9c0,1.3,0,2.6-0.4,3.8c-0.2,0.5-0.4,0.9-0.6,1.4c-0.5,0.4-0.9,0.8-1.6,1.5c-0.1-2.3-0.2-4.3-1.5-6.1
	c-0.8-1.1-0.4-2.7,0.3-3.8c0.6-1,1.1-1.8,0.9-2.9C17.8,42.9,18.1,42.5,18.2,42.1z"/>
<path class="st27" d="M21.1,63.2c-0.9-1.2-1.1-2.7-2.2-3.8c-0.3-0.3-0.9-1.2-0.3-1.9c0.2,0.3,0.5,0.4,0.8,0.3
	c0.3-0.2,0.5-0.6,0.8-0.9c0.5-0.5,1.1-0.8,1.7-0.6c0.6,0.2,0.5,0.9,0.6,1.5c0.2,1.8,0.4,3.6,0.5,5.5C22.5,65.4,21.9,63.9,21.1,63.2
	L21.1,63.2z"/>
<path class="st21" d="M24.1,70c0.6,1.3,2,1.6,3,2.4c0.4,0.3,1,0.4,1.3,0.9c-3.1-0.2-6.3-0.1-9.8,0.2C20.1,71.4,21.9,70.3,24.1,70z"
	/>
<path class="st10" d="M21.2,63.3c0.7,0.2,1.3,1.4,2,0c0.6,0.9,0.8,2,0.7,3.4C22.5,65.7,21.7,64.6,21.2,63.3z"/>
<path class="st21" d="M28.4,73.3c0.6,0.2,1.1,0.4,1.5,0.9C29.1,74.3,28.4,74.3,28.4,73.3z"/>
<path class="st8" d="M14.4,91.5c-0.1,0.1-0.1,0.3-0.2,0.4c-0.1,0-0.3-0.1-0.4-0.1c0.1-0.1,0.1-0.3,0.3-0.4
	C14.2,91.3,14.3,91.3,14.4,91.5z"/>
<path class="st28" d="M45.3,49.2c-0.1,0.5,0.1,1.1-0.5,1.4c-0.2-0.4-0.2-1-0.5-1.3c-0.8-0.8-1.2-1.6-1-2.8c0.1-0.4-0.2-0.9-0.4-1.3
	c-0.4-0.7-0.6-1.2-0.4-2.3c0.5-1.8-0.6-2.8-3.1-3.8c0.2-1.8,1.8-2.5,3-3.6c0.8,1.2,0.2,2.4,0.4,3.7c0.1,1-0.4,2.1,0.5,2.9
	C43.5,44.6,44.3,46.9,45.3,49.2z"/>
<path class="st29" d="M45.2,53.1c0.3-0.5,0.5-1.1,1.1-0.2c0.6,0.8-0.1,2,0.8,2.6c-0.3,1.9,1.6,3.3,0.9,5.2c-0.3-0.3-0.6-0.6-0.9-0.9
	c0-0.2,0-0.3-0.1-0.5c-0.4-0.6-0.4-1.4-1.1-1.8c-0.1-0.2-0.2-0.4-0.4-0.6C45.5,55.7,45.5,54.4,45.2,53.1L45.2,53.1z"/>
<path class="st24" d="M45.2,53.2c0.8,1.2,1.4,2.4,0.5,3.8C44.7,55.8,44.4,54.6,45.2,53.2z"/>
<path class="st24" d="M46.1,57.5c1,0.2,1.1,1,1.1,1.8C46.1,59.1,46,58.4,46.1,57.5z"/>
</svg>
