<?xml version="1.0" encoding="utf-8"?>
<!-- Generator: Adobe Illustrator 23.1.1, SVG Export Plug-In . SVG Version: 6.00 Build 0)  -->
<svg version="1.1" id="Livello_1" xmlns="http://www.w3.org/2000/svg" xmlns:xlink="http://www.w3.org/1999/xlink" x="0px" y="0px"
	 viewBox="0 0 80 135" style="enable-background:new 0 0 80 135;" xml:space="preserve">
<style type="text/css">
	.st0{fill:#FFFFFF;stroke:#000000;stroke-width:0.2509;stroke-miterlimit:10;}
	.st1{fill:#3B4535;}
	.st2{fill:#485547;}
	.st3{fill:#4C3433;}
	.st4{fill:#41503C;}
	.st5{fill:#B0393A;}
	.st6{fill:#50554C;}
	.st7{fill:#5B413F;}
	.st8{fill:#585C62;}
	.st9{fill:#565E77;}
	.st10{fill:#DDAF65;}
	.st11{fill:#927F6B;}
	.st12{fill:#E8E6E6;}
	.st13{fill:#C73338;}
	.st14{fill:#F4E932;}
	.st15{fill:#F6EA31;}
	.st16{fill:#943238;}
	.st17{fill:#CCAC3A;}
	.st18{fill:#98312F;}
	.st19{fill:#E8E236;}
	.st20{fill:#B09239;}
	.st21{fill:#8A8C8A;}
	.st22{fill:#D0D1CE;}
	.st23{fill:#B1993B;}
	.st24{fill:#D4D5D4;}
	.st25{fill:#A9AAA6;}
	.st26{fill:#7A7B78;}
	.st27{fill:#9DA39D;}
	.st28{fill:#E44037;}
	.st29{fill:#BBAC4E;}
	.st30{fill:#CECFCC;}
	.st31{fill:#B8AD46;}
	.st32{fill:#B2A556;}
	.st33{fill:#C1B852;}
	.st34{fill:#B8AE52;}
	.st35{fill:#C0B840;}
	.st36{fill:#F5CC6F;}
	.st37{fill:#DFDDDE;}
	.st38{fill:#EECE7F;}
	.st39{fill:#756046;}
</style>
<path class="st0" d="M71.5,135h-63c-4.7,0-8.5-3.8-8.5-8.5V8.5C0,3.8,3.8,0,8.5,0h63C76.2,0,80,3.8,80,8.5v118
	C80,131.2,76.2,135,71.5,135z"/>
<path class="st1" d="M58.1,48.4c1,1.1,1.1,2.6,1.9,3.9c-0.1,0.1-0.2,0.1-0.3,0.2c-0.2,0-0.5,0-0.7-0.1c-3.4-2.4-4.3-2-5.4,1.9
	c-0.9,1.7-3.2,2.6-2.6,5.2c0.2,0.9,0.3,1.7,1,2.3c1.5,3,1.2,6.3,1.9,9.4c-0.1,2.3,0.7,4.5,0.2,6.9c-0.4,2-1.3,3-3.1,3.4
	c-0.8,0.2-1.5,0.3-1.8,1.3c-1.7,6.3-3.4,12.6-4.7,19c-0.3,1.2-0.1,2.6-1.3,3.4c-0.2,0.1-0.4,0.1-0.6-0.1c-0.4-0.6-0.6-1.2-0.9-1.9
	c0.6-5.4,0.7-11,3.2-16.1c0.5-1,0.5-2.2,0.5-3.3c0-0.5,0.3-1.2-0.6-1.3c-0.7-0.1-1.3,0.2-1.6,0.8c-0.3,0.5-0.3,1.1-0.5,1.6
	c-1.5,5.6-2.2,11.3-1.8,17.1c0.1,0.8,0.1,1.6-0.2,2.4c-0.4,0.6-0.9,1.4-1.6,0.4c-1.4-6.1-0.3-12.1,1-18c0.6-2.8-0.7-4.8-3.4-5.3
	c-1.2-0.1-2.2,0.3-3.2,0.8c-1.7,0.6-2.1,1.8-1.6,3.5c0.4,1.5,1,3,1.7,4.3c0.7,2.2,0.6,4.5,0,6.7c-0.2,0.6-0.7,1-1.3,1.3
	c-0.8,0.1-1.2-0.3-1.1-1.1c0.4-3-0.3-5.8-1.1-8.6c-0.4-1.4-0.9-2.7-0.9-4.2c0-0.7-0.2-1.5-0.7-2c-3.4-3-2-6.7-1.7-10.3
	c0.4-4.1,2.1-8,3.5-11.9c1-2.5,1.2-5.1,0.1-7.6c-0.2-1.3-1.2-2.1-1.5-3.3c-0.1-1.1-0.3-2.2-0.7-3.2c0.4-1.6,0.8-3.3,3.1-2.6
	c0.5,0.5,0.6,0.5,0.7,0.2c0.1-0.4,0.2-0.8,0.5-1.2c-0.5,0.2-0.3,1.4-1.3,0.9c-0.2-0.3-0.4-0.6-0.3-0.9c1.6-2.7,0.1-4.9-1.2-7.2
	c3.1-1.2,4.5,0.6,5.4,3.3c0.5-1.1-0.3-2.6,1.1-3.1c1.2-0.2,2.1,0.5,3.2,0.7c2.6,0.5,5,0.3,7.1-1.5c0.4-0.4,0.8-0.7,1.1-1.2
	c0.5-0.6,0.7-1.4,1.4-1.7c0.6,0.1,1.1,1,1.6,0.8c2.4-0.7,2.1,1,1.8,2.2c-0.5,2.3,1.6,3.8,1.9,5.8c0.1,2.8,0.5,5.6,0.1,8.4
	C55.8,49.2,56.9,48.3,58.1,48.4z"/>
<path class="st2" d="M32.2,97.7c0.2-0.4,0.5-0.7,0.9-0.8c1.1,1.4,0.6,3.1,0.6,4.6c0.1,3.9,1.3,4.7,4.9,3c0.3-0.1,0.5-0.1,0.7,0.1
	c0.7,0.6,0.7-0.2,1-0.5c0.7-0.2,1-1.1,1.9-1c0.4,0.6,0.6,1.2,0.5,1.9c-0.1,0.5-0.5,0.7-0.9,0.8c-0.1,0-0.2,0-0.2,0.1
	c-1.3,1.3-2.1,7-1.1,8.7c0.1,0.2,0.2,0.4,0.3,0.6c0.2,1.3,1.2,1.2,2.1,1.4c-0.4-0.2-0.8-0.4-0.7-1c0.4-0.4,0.9-0.5,1.3-0.3
	c1.7,0.8,3.3,1.8,5.2,2.1c1.1,0.2,1.1,0.8,0.4,2.1c1,0.2,2.8-1.8,2.9,0.9c0,0.1,0.4-0.2,0.6-0.2c2.5-0.2,5-0.1,7.4,0.9
	c1,0.4,2.3-1.5,3.1,0.8c0.5-1.4,0.7-2.1-0.5-2.9c-1.5-0.9-2-2.7-3-4.1c-0.2-0.3,0.2-0.7,0.6-0.9c1.2,1,2.4,1.8,3.4,3
	c0.9,1,1.8,1.2,3,1.2c1.4,0,2.9,0,4.3-0.1c1.1,0,1.6,0.2,1.5,1.5c-0.2,1.5-0.1,3-0.1,4.5c0,1.3-0.5,1.6-1.7,1.6c-7,0-13.9,0-20.9,0
	c-11.6,0.1-23.1,0.2-34.7,0.2c-2.2,0-4.5,0-6.6,0c-0.8-2.1,0-4.2-0.4-6.3c-0.1-0.8,0.5-1.2,1.4-1.2c3.4,0,6.7,0,10.1,0
	c3.7,0,7.4,0,11,0c1.2,0,2-0.3,2.2-1.6c0-0.2,0.1-0.3,0.1-0.5c1.2-2.4,1.2-4.6-1.2-6.3c0.9-0.9,0.4-1.9,0.3-2.9
	c-0.1-1-0.3-2-0.1-3.1c0.4-2,0-4.1,0.3-6.1C32.2,98,32.2,97.9,32.2,97.7z"/>
<path class="st3" d="M40.4,115.2c0-0.2,0-0.4-0.1-0.6c-0.2-0.1-0.2-0.3-0.3-0.5c0-0.4,0.6-0.7,0-1.1c-0.1-0.3,0-0.6,0.2-0.9
	c0.8-1.1,0.6-2.3,0.8-3.5c0-0.3,0.1-0.6,0.1-0.9c0-0.4,0.1-0.9,0.1-1.3c0.1-0.3,0.2-0.6,0.5-0.8c0.3-0.2,0.6-0.4,0.9-0.5
	c0,0,0,0.1,0,0.1c1.3,1.8,0.1,4.1,1.5,5.9c0.1,0.1,0,0.3-0.1,0.4c-0.4,0.7-1.8,1-1,2.1c0.6,0.8,1.7,1.4,2.7,1.4
	c1.6-0.1,2.6,0.8,3.8,1.6c1.5,1,3.2,1.7,5.6,1.5c-1.9-1.1-2.1-1.9-1.1-3.6c1.2-2,0.8-4.5,0.1-6.8c0.6-6,0.7-12.2,2.9-18
	c0.5-1.3,0.4-2.6-0.4-3.7c-0.9-1.3-1-2.6-0.9-4.1c0.6-5.4,0.7-10.8,0.8-16.2c-0.1-1.1-0.3-2.2-0.1-3.3c0.4-2.7-1.6-3.9-3.2-5.1
	C52,56.5,52,58,51.9,58.8c-0.1,1,0.7,2.2-0.5,3.1c-1.1-0.4-1-1.3-1-2.2c0-0.8,0.5-1.5-0.1-2.3c-0.2-0.3-0.2-0.6,0.2-0.8
	c1.1-0.6,1.6-2,2.8-2.5c0.4,0,0.5,0.2,0.6,0.5c0.1,0.4,0.4,0.7,0.7,0.9c1.1,0.4,1.8,2.5,3.4,0.8c0.3-0.4,0.5-0.9,0.8-1.3
	c0.9-0.7,0.6-1.9,1.1-2.7c0,0,0,0,0,0c1.2,0.3,1.1,1.8,2.2,2.2c0.2-1-0.4-1.8-0.4-2.7c0.3-0.4,0.8-0.4,1.2-0.4c0.7,0.4,1.4-0.7,2,0
	c0.7,1.3,0,3,1.2,4.4c0.7-0.7,0.8-1.6,0.8-2.4c-0.2-2.5,0.8-5.1-0.4-7.6c-1-0.8-0.1-1.5,0.2-2.2c0.3-0.8,1.1-1.6,0.4-2.6
	c-0.1-0.2-0.2-0.4-0.2-0.6c0.1-0.7,0.6-1.2,0.8-1.8c0.1-0.3,0-0.4-0.2-0.2c-0.1,0.1-0.3,0.1-0.4,0.2c-0.3,0.1-0.6,0.1-0.9-0.1
	c-0.5-0.8,0.2-1.2,0.6-1.7c0.4-0.4,0.8-0.8,1.2-1.1c0.3-0.2,0.5-0.4,0.9-0.5c0.2,0,0.5,0,0.7,0c1.7,1.5,1.1,3.5,1,5.3
	c0.2,1.9-0.1,3.8-0.3,5.7c-0.4,3.5-0.8,7-1.2,10.4c-0.1,0.7,0,1.3,0.6,1.6c0.2,0.8,0.2,1.7-0.6,2.1c-0.7,0.4-1.3-0.5-1.8-0.9
	c-2.6-1.8-3.5-1.8-4.6-0.1c-0.5,0.8-0.6,1.6,0.2,2.6c-0.4-2.2,1-2.6,2.5-2.7c1.7-0.1,1.8,1.2,1.7,2.5c0,1.3,1.3,2.4,0.8,4
	c0.7-1.1,1.3-1.9,2.2-0.6c-0.8,1.4-1.4,2.8-1.4,4.5c0,1.7-0.8,2.8-1.7,2.8c-0.9,0.1-1.6-0.8-2.1-2.6c-0.1-0.3-0.2-0.6-0.2-0.9
	c0-3-1.1-5.5-4-6.9c-0.4,0.8,0,1.7,0.1,2.5c0.4,3.8,1,7.6,1.9,11.3c0.3,1.2,0.1,2.4-0.8,3.3c-0.9,0.9-1.3,2-1.3,3.2
	c0,5.1-1.3,9.9-2.3,14.9c-0.9,4.2-0.4,8.4-0.1,12.6c0.1,1.6,1.2,2.7,1.9,4.1c-0.2,0.5-0.5,1,0.2,1.5c0.9,0.7,1.8,1.3,1.7,2.6
	c0,0.2,0.1,0.4,0.4,0.3c1.8-0.8,1.5,1.2,1.7,1.6c0.3,0.9-0.2,2.1-1.5,2.3c-0.5-1.4-0.5-1.5-1.7-0.6c-0.9,0.6-1.5,0.9-1.8-0.5
	c-0.2-0.9-1.1-0.7-1.3-0.2c-0.4,0.7-0.7,0.8-1.3,0.4c-1.8-1.5-3.5-1.3-5,0.3c-0.5-0.3-0.3-0.7-0.4-0.9c-0.3-0.5,0.8-1,0.1-1.4
	c-0.9-0.6-0.7,0.4-1,0.8c-0.2,0.3-0.4,0.4-0.8,0.2c-0.5-0.4-1-0.7-1.5-1.1c0.2-0.6,0.9-0.5,1.5-0.7c-0.6-0.8-1.5-1.4-2-1.2
	c-1.4,0.6-2-0.2-2.8-1c-0.6-0.6-1.5-0.9-2.4-0.8c-0.2,0.1-0.3,0.1-0.5,0.1c-0.2-0.1-0.5-0.2-0.8-0.2
	C40.7,115.4,40.5,115.3,40.4,115.2z"/>
<path class="st4" d="M63.3,51.8c-0.5,0-1,0-1.5,0c-1.3-6-2.9-11.9-3.7-18c-0.5-3.6-0.8-7.1-0.6-10.7c0.1-1.8,0.5-3.5,1.1-5.1
	c1-2.4,2.8-3.8,5.5-3.9c2.4,0,4.2,1.3,5.2,3.8c0.8,2,1.2,4.1,1.4,6.3c0.6,5.4,0.5,10.8-0.2,16.2c-0.1-1.3-0.2-2.7-0.4-4
	c-0.1-0.6-0.5-1-1.1-1c-0.4-1,0.5-1.8,0.3-2.7c-0.1-1.1-0.3,0-0.5,0c-0.8,0.7,0,2.9-2.4,2.3c-0.6-0.1-0.6,2-0.5,3.2
	c0.3,0,0.6,0.1,0.9,0.1c0.8,0.7-0.7,1.7,0.2,2.4l0,0c0.4,0.9-0.5,1.4-0.8,2.1c-0.4,1.1-1,2.2-0.1,3.3c-0.6,1.4-1.7,0.7-2.6,0.6
	c-1,0.2-1.3,1.6-0.3,2.5C64.6,50.2,64.5,50.9,63.3,51.8z"/>
<path class="st5" d="M32.3,104.5c-0.2,1.5,0.1,2.9,0.5,4.3c0.4,1.3,0.4,1.3-1.2,1.4c-1.2-1-1.7-2.5-2.1-3.9
	c-0.4-1.2-0.9-2.4-1.7-3.4c-1.3-1.5-1.9-3.7-4-4.6c-0.8-0.4-0.8-1.4-0.8-2.1c0-4.2-0.3-8.4,0.1-12.7c0.2-1.6-0.1-3.1,0.2-4.7
	c1.8-8.9,2.7-17.9,5.7-26.6c0.1-0.2,0.3-0.4,0.4-0.5c0.5-0.3,0.8,0.2,1.1,0.4c1.6,2,1,4.4,0.6,6.5c-0.3,1.6-1,3.3-1.7,4.9
	c-2,4.6-2.8,9.5-2.8,14.5c0,1.1,0.1,2,1.2,2.6c0.8,0.4,1.3,1.2,1.3,2.1c0.2,2.8,1.5,5.4,1.9,8.2c0.2,1.1,0.3,2.1,0.5,3.1
	c0.2,1.2,0.2,2.2-0.2,3.3c0,0.1,0.4,0.2,0.5,0.4c0,0,0.1,0.1,0.1,0.1C32.6,100.1,32.3,102.3,32.3,104.5z"/>
<path class="st6" d="M54.3,40.2c-0.3,0.1-0.8,0.4-0.9-0.2c-0.1-0.7-0.2-1.4-0.4-2.1c-0.1-0.4,0.3-1.3-0.8-0.6
	c-0.3,0.2-0.3-0.4-0.3-0.6c0-1-0.1-2,0.3-3c0.3-0.8,0.2-0.7-0.9-0.7c-0.9,0-1.9-0.3-2.2-1.4c-0.8,0.2-0.5,1.2-1.2,1.6
	c-0.9,0.1-1.4,1.1-2.2,1.3c-1.2,0.3-2.7,1-3.2-1.1c-0.1-0.3-0.7,0-0.9,0c-2.4,1-3.7,0.8-5.4-1.3c-0.4-0.5-0.8-0.9-1.4-1.2
	c-0.3-0.4-0.5-0.8-0.3-1.2c0.2-0.4,0.8-0.5,1-0.9c0.1-0.3,0-0.5,0-0.2c-0.1,0.3-0.3-0.3-0.2,0c0.1-0.5,0.7-0.8,0-1.6
	c-2.1-2.1-2.6-4.7-1.4-7.4c0.3-0.8,0.3-1.3-0.1-2c-1-1.8-1.9-3.6-2.9-5.5c0.4,0,0.7,0,0.9,0.1c2.7,0.8,2.7,0.8,4.2-1.4
	c0.9,0.1,1.2,1.3,2.2,1.4c0.5-0.5,1-1.1,1.6-1.7c1,0,1.2,1.2,2.1,1.4c0.9-0.2,1.1-1.2,1.8-1.5c0.1,0,0.3,0,0.4,0.1
	c1.6,2,1.6,2,3.8,0.7c0.4-0.2,0.8-0.6,1.5-0.4c0,1.1-0.6,2.1-0.9,3.1c-0.5,1.8-1,3.5-0.9,5.5c0.1,2.4-0.6,4.8-0.5,7.2
	c0,0.2-0.5,0.4-0.3,0.9c2,0.3,3.7,1.3,5.3,2.5c0.8,0.6,1.5,1.5,1.5,2.6c-0.3,0.5-0.4,1,0.1,1.4c0.2,1.8,1.2,3.5,1.3,5.3
	c-0.2,0.2-0.1,0.5-0.2,0.8C54.4,40.1,54.3,40.2,54.3,40.2z"/>
<path class="st7" d="M30.8,52.2c-0.3-0.1-0.7-0.3-1-0.4l-0.1-0.1l0.1,0.1c-1.2,4.9-2.7,9.9-3.7,14.9c-0.5,2.2-1.3,4.5-0.5,6.9
	c0.3,1-0.5,1.5-0.8,2.1c-0.5,0.9-1.4,1.6-0.5,2.8c0.2,0.2,0.1,0.9-0.3,1.3c-0.4,0.4-0.5,0.9-0.3,1.3c0.7,2.4-0.2,4.8-0.1,7.2
	c0.1,2.5,0,5,0.1,7.6c0,1.2,0.1,2.2,1.5,2.8c1.7,0.8,2,2.7,2.8,4.3c-0.9-0.4-1.3-1.3-1.9-2.1c-0.6-0.7-1-1.6-2.1-1.9
	c-0.9,0.9-0.1,2.4-1.2,3.4c-1.7-2.1-3.2-4.1-3.2-6.9c0.1-4.3,0.5-8.6,0.9-12.8c0.1-0.9,0.1-1.9,0.2-2.8c-0.1-0.3-0.2-0.6-0.3-1
	c0.2-1.4-0.5-2.8-0.1-4.2c0.2-0.9,0.3-2,1.3-2.3c1-0.4,1.6,0.5,2.2,1.4c0.1-1.4-1-2-1.3-3c-0.1-0.5,0.3-0.9,0.6-1.2
	c0.9-2.8,1.8-5.6,1.8-8.6c0-1.1,0.2-2,0.8-2.9c0.9-1.6,1.1-3.3,0.8-5.1c-0.6-3.4-0.6-3.4,2.8-4C29.6,49.9,31,50.7,30.8,52.2z"/>
<path class="st8" d="M23.6,70c-0.4,0.1-0.7,0.2-1.1,0.3c-1.6,0.6-2.4,2.2-3.6,3.2c-0.1-0.1-0.2-0.1-0.3-0.2c0.3-1.6-0.4-3.1-0.3-4.7
	c0.1-5.1,0.8-10.1,1.9-15.1c0.8-3.6,1.6-7.3,2.4-10.9c0.7-3.1,1.9-6,3.8-8.6c1.3-0.3,2.5-0.1,3.4,1c0.5,0.7,1.6,0.9,1.4,2
	c0,0.2,0,0.6,0.3,0.4c0.3-0.1,0.5-0.3,0.8,0c0.3,0.4,0,0.7,0,1.1c-0.2,1.6-1.1,3-1.1,4.6l0,0c-0.5,0-0.6,1.3-1.4,0.5
	c-0.4-0.4-0.6,0.2-0.6,0.3c0,0.7-0.4,1.1-0.8,1.6c-0.5,0.4-1,0.3-1.6,0.2c-2.6-0.1-4,1.2-3.6,3.7c0.2,1.3,0,2.3-0.8,3.3
	c-0.5,0.6-1,1.4-0.9,2.2c0.6,3.5-1,6.7-1.3,10.1c-0.2,3.2-0.4,3.1,2.5,4C23.2,69.2,23.6,69.3,23.6,70z"/>
<path class="st6" d="M29.8,35c-1.1-0.3-2.3-0.7-3.4-1c1.3-1.5,2.7-3.1,4.4-4.3c0.4,0.8,1.2,0.6,1.8,0.8c0.4,0.2,0.7,0.5,1,0.8
	c0.5,0.5,0.8,1,0.8,1.7c-0.1,1,0.7,1.4,1.3,1.9c0.2,0.1,0.3,0.3,0.4,0.5c-0.7,1-0.4,1.9,0,2.9c0.1,0.3,0.3,0.6-0.1,0.8
	c-0.3,0.2-0.6,0.1-0.9,0c-1.1-0.4-1.8-1.5-1.6-2.3c0.4-1.2-0.3-1.1-0.9-1.3C31.8,35.3,30.9,34.8,29.8,35z"/>
<path class="st9" d="M58.1,48.4c-1,1.4-2.6,0.7-3.9,1.3c-0.2,0.1-0.7-0.3-0.5-0.5c1.1-1.3-0.7-3,0.7-4.2c0.1-0.1,0-0.5-0.1-0.6
	c-1-1.4-0.3-2.7,0-4.1c0,0,0,0,0,0c0.6-0.5,0.6,0.7,1.1,0.4C56.8,43,57.1,45.8,58.1,48.4z"/>
<path class="st10" d="M66.8,61.8c0-0.4-0.4-0.7-0.2-1.1c0.4-1.1-0.5-1.1-1.1-1c-0.8,0-1.5,0.5-2.3,0.9c0.2,0.4,0.5,0.9,0.6,1.3
	c0.1,0.4,0.2,0.9-0.3,1.4c-1.3-0.6-2-1.6-2-2.9c0-1.4,1.2-2.2,2.1-3c0.4-0.4,0.9,0,1.4,0.1c1.7,0.3,2.6,1.7,4,2.7
	c0.4-0.5,0-1.5,0.7-1.9c0.4,0,0.6,0.4,0.8,0.7c-0.1,0.2-0.1,0.4-0.1,0.7C70.5,62.4,69.4,63.1,66.8,61.8z"/>
<path class="st11" d="M66.8,61.8c0.3,0,0.6,0,1,0c1.9,0.2,2.1,0.1,2.3-1.9c0-0.4,0-0.8,0.4-1.1c0.8,2.2,0.7,4.3-0.4,6.3
	c-0.6-0.3-1.1,0-1.5,0.4C68,66.1,68,66.2,67.9,66c-0.7-1.1-0.6-2.6-1.6-3.6C66.3,62.3,66.6,62,66.8,61.8z"/>
<path class="st12" d="M32.7,30.7c-0.3,0.1-0.6,0.1-0.9,0.2c-0.4,0.2-0.9,0.5-1.3,0.1c-0.4-0.5,0.4-0.8,0.3-1.3c0,0-0.1,0-0.1,0
	c1-1.3,2.8-0.1,3.9-1.2c0.2-0.2,0.4-0.2,0.6,0.1c0.3,0,0.6-0.1,0.7,0.3c0.1,0.3-0.1,0.4-0.3,0.5c-0.3,0.2-0.7,0.3-1,0.5
	C34.1,30.5,33.6,31,32.7,30.7z"/>
<path class="st8" d="M20.7,78.6c0,0.4-0.1,0.7-0.1,1.1c-1.4-1.9-3-3.8-1.9-6.4c0,0,0.1,0,0.1,0C19.8,74.9,20.2,76.8,20.7,78.6z"/>
<path class="st6" d="M34.6,28.5c-1.1,1.1-2.6,0.8-3.9,1.2c0.3-0.9,1.1-0.9,1.9-1C33.3,28.6,33.9,28.5,34.6,28.5z"/>
<path class="st1" d="M55.3,40.6c-0.6,0.7-0.6-0.4-1.1-0.4c0-0.4,0.1-0.7,0.4-1C55.1,39.7,55.2,40.1,55.3,40.6z"/>
<path class="st1" d="M53.4,34c-0.8-0.4-0.7-0.9-0.1-1.4C53.5,33,53.5,33.5,53.4,34z"/>
<path class="st13" d="M57.1,65.7c0.1,3.1,0,6.2-0.6,9.2c-0.1,0.7,0.4,1.4,0.3,2.2c-0.2,1.8-0.5,3.7-0.6,5.6
	c-0.1,0.9-0.2,1.7,0.5,2.5c1.4,1.6,1.3,3.3,0.5,5.2c-0.4,1-0.8,2-0.7,3.2c0.1,1.4-0.8,2.6-1,3.9c-0.2,1.4-0.2,2.9-0.3,4.4
	c-0.2,1.8-0.5,3.7-0.5,5.5c0.1,1.8-0.2,3.4-2.2,4.1c-0.1,0-0.1,0.1-0.2,0.2c-1,0.6-0.8,2.6-2.4,2.2c-1.8-0.4-2.8-1.9-3.7-3.5
	c-0.2-0.4-0.5-0.8-0.3-1.3c1.1-1.3-0.7-0.8-0.9-1.4c-1-0.8-1.3-2.1-1-3c0.4-1.1,0-2,0-3.1c-0.2-0.4-0.5-0.8-0.2-1.3
	c1.1-2.5,1.3-5.2,1.7-7.8c0.3-1.8,1.1-3.6,1.7-5.4c0.5-1.6,1.1-3.1,1.3-4.8c0.1-0.8,0.3-1.4,1.5-1.3c0.7,0.1,1.5-0.4,2.3-0.7
	c0.4-0.1,0.9-0.3,0.9-0.7C53,78,54.3,76.6,53.6,75c-0.5-1.1,0-2.3-0.3-3.5c0.3-2,1.7-3.5,2.2-5.4C55.8,65.2,56.3,64.6,57.1,65.7z"/>
<path class="st14" d="M23.6,70c-0.8-0.8-1.8-0.7-2.7-0.6c-1,0.1-1.4-0.5-1.6-1.4c-0.1-0.8-0.1-1.6,0.1-2.4c0.6-2.7,0.6-5.5,1.8-8
	c0.1-0.2,0.1-0.3,0-0.6c-1.2-2.2-0.1-3.9,1.3-5.5c0.3-0.4,0.6-0.5,0.4-1.2c-1.3-3.4,0.7-5.8,4.2-5.2c0.5,0.1,0.9,0.2,1.4,0.4
	c1.2,0.8,1,2,0.9,3.2c-0.7,1-2,1-3,1.5c1.5,3,1.5,5.8-0.6,8.4c-0.3,0.4-0.2,0.9-0.2,1.4C25.5,63.5,24.4,66.7,23.6,70z"/>
<path class="st15" d="M39,104.6c-0.3,1-1.2,1.2-2.1,1.2c-1,0.1-2.1,0.1-3-0.4c-0.6-0.4-0.7-1-0.7-1.7c0-2.3,0-4.6-0.1-6.9
	c0-2.4,0.5-4.7-0.1-7.1c-1.3-2.8-2.1-5.5,0.2-8.2c0.9-0.9,2-1,3.2-1c2.5,1,3.4,2.1,2.9,4.7C39,87.9,39.7,90.5,38,93
	c-0.7,1-0.1,3.3,0.4,4.7C39.2,100,39,102.3,39,104.6z"/>
<path class="st16" d="M46.1,108.9c1,2,2,3.9,4.3,4.7c0.8-1.3,1.1-3,3-3.3c0.6-0.1,1.1-0.5,1-1.3c-0.1-0.5-0.1-1.1,0.4-1.5
	c0.6,2.1,0.8,4.3,0.3,6.5c-0.1,0.6,0.1,1.5-1.1,1.5c-0.5,0-0.4,0.5-0.1,0.9c0.5,0.8,1.4,1,2.5,1.3c-1.3,0.9-2.3,1.4-3.6,0.8
	c-1.7-0.7-3.7-1.1-4.9-2.8c-0.2-0.2-0.7-0.5-0.8-0.4c-1.8,1.3-2.7-0.8-4.1-0.9c-1.3-0.1-0.4-1.3-0.7-2c-0.3-0.7,0.5-0.8,1-0.8
	c0.3,0,0.4-0.1,0.7-0.5c-1-0.8-1.4-1.8-1-3.2c0.2-0.9-0.1-1.9-0.2-2.8c1.2-0.8,0.5-2.4,1.4-3.4c0.3,0.4,0.7,0.9,1,1.3
	c0.2,0.2,0.6,0.6,0.2,0.8c-1.9,1.2-0.1,2.5-0.2,3.7c0,0.1,0,0.2,0,0.3c0.2,0.4,0.5,0.6,0.8,0.9C46,108.7,46,108.8,46.1,108.9z"/>
<path class="st17" d="M42.2,103.1c-0.5,0.5-0.7,1.7-1.9,1c0.2-3.7-0.4-7.4,0.2-11.1c0.4-3.1,1.4-6.2,1.9-9.3c0.1-0.6,0.4-1,0.8-1.4
	c0.5-0.6,1.2-0.6,1.9-0.5c0.6,0.1,0.7,0.7,0.8,1.2c0.4,1.6,0.2,3.3-0.6,4.6c-1.7,2.7-1.7,5.8-2.3,8.7
	C42.6,98.5,42.1,100.8,42.2,103.1z"/>
<path class="st18" d="M57.1,65.7c-0.5-0.2-1-0.5-1.2,0.4c-0.2,1.1-1.8,4.3-2.6,5.3c-0.7-2.9-0.7-5.9-1.5-8.8
	c-0.1-0.3-0.3-0.6-0.4-0.8c-0.1-0.7,0.7-1.5-0.1-2.2c-0.3-0.3-0.1-0.7,0-1.1c0.1-0.8,0-1.8,0.9-2c1-0.3,1.9,0,2.2,1.2
	c2.9,1.4,2.9,4,2.6,6.7C56.9,64.7,57.1,65.2,57.1,65.7z"/>
<path class="st19" d="M58.8,56.5c-0.2,0.2-0.5,0.4-0.6,0.6c-0.4,0.9-1,1-1.7,0.4c-0.8-0.6-1.8-1.1-2.3-2c-0.2-0.3-0.7-0.4-0.5-0.9
	c-0.1-0.2-0.2-0.4-0.3-0.5c0-0.5,0-1,0-1.4c0.2-1.2,0.8-2.1,1.9-2.5c1.1-0.4,2.2-0.1,3.1,0.7c0.5,0.4,0.7,1.3,1.6,1.3
	c0.6,1.9,0.6,2.1-0.8,3C58.5,55.5,58.9,56.1,58.8,56.5z"/>
<path class="st20" d="M39,104.6c-0.1-0.7-0.4-1.3-0.3-2.1c0.2-1.6,0.1-3.1-0.6-4.6c-0.3-0.5-0.3-1.1-0.1-1.6
	c0.2-0.6,0.1-1.2-0.4-1.6c-1.5-1.2-0.6-2.1,0.3-3c0.7-0.6,0.9-1.3,0.6-2.3c-0.3-0.9,0-1.9,0.2-2.8c0.7-2.9,0.2-4.3-2.2-5.9
	c1.1-0.5,1.9,0.6,2.9,0.6c0.4,0,0.6,0.6,0.6,0.9c-0.1,0.8-0.2,1.5,0.8,1.9c0.6,0.3,0.3,1,0.2,1.5c-0.7,2.9-1.3,5.8-1.6,8.8
	c-0.1,0.5-0.3,1.1-0.6,1.5c-0.2,0.5-0.5,1.1-0.2,1.6c1.2,2.2,0.6,4.7,0.8,7C39.2,104.6,39.1,104.6,39,104.6z"/>
<path class="st21" d="M35.1,30.6c0.2,0.5,0.8-0.3,1.1,0.6c0.3,1.1,1.5,1.8,2.6,2.3c0.5,0.2,0.4,0,1.6-0.3c0.9-0.3,1.9,0,2.8,0
	c0,0-1,0.9,0.3,0.9c0.7,0,1.3,0.4,2,0c0.6-0.3,0.8-0.9,1.3-1.4c0.6-0.7,0.7,0.3,1.1,0.4c0.3,0.2,0.3,0.5,0.1,0.8
	c-0.1,0.4-0.3,0.6-0.7,0.7c-3.4,2.1-6.8,2.6-10.6,0.7c-1.5-0.8-2.3-1.8-2.8-3.3C34,31.2,34.2,30.6,35.1,30.6z"/>
<path class="st22" d="M34.2,31.5c1.1,2.8,3.4,4.1,6.2,4.4c2,0.2,4,0,5.7-1.1c0.3-0.2,0.8-0.2,1.1-0.2c-2.8,2.7-6,2.8-9.5,1.6
	c-0.6-0.2-1.1-0.5-1.7-0.8c0,0,0,0,0,0c-0.9-0.6-2-1-2.1-2.3c-0.1-0.6-0.4-1.1-0.8-1.5c-0.2-0.4-0.1-0.6,0.3-0.6
	C34,30.9,34.1,31.2,34.2,31.5z"/>
<path class="st23" d="M33.2,81.6c-0.1,0.3,0,0.7-0.2,0.9c-1.3,2.4-0.6,4.8,0,7.2c-1.4-0.6-1-2.2-1.6-3.2c-0.4-0.7-0.1-1.7-0.6-2.5
	c-0.3-0.6,0.1-1.1,0.5-1.5C31.9,82.1,32.6,81.9,33.2,81.6z"/>
<path class="st8" d="M31.2,43.1c1-0.5,0.7-1.9,1.5-2.6c0.3,1.2,0,2.4-1.1,4.4C31.5,44.3,31.4,43.7,31.2,43.1L31.2,43.1z"/>
<path class="st22" d="M48,33.8c0-0.3-0.1-0.5-0.1-0.8c0.4-0.4,0.1-1.5,1.2-1.4C48.9,32.4,48.7,33.2,48,33.8z"/>
<path class="st24" d="M33.6,119.9c-0.2-2.3-0.3-2.3,0.9-3.8c0.4-0.5,0-0.5-0.1-0.7c-0.2-0.6,0-1,0.5-1.4c0.9-0.3,1.8-0.8,2.1,0.7
	c0.3,0.6-0.3,1.2,0.2,1.8c0.3,0.4,0.2,0.7-0.2,1c-0.7,0.5-0.8,1.6-1,2.7c-0.3,1.5-1,2.9-1.9,4.2c-0.2,0.2-0.4,0.2-0.6,0.1
	c-0.3-0.1-0.3-0.4-0.2-0.6c0.5-1.1,0.2-2.1-0.3-3.1C32.7,120.2,33.2,120.1,33.6,119.9c0.2,0.2,0.5,0.4,0.8,0.4
	C34.1,120.3,33.8,120.1,33.6,119.9z"/>
<path class="st25" d="M37.1,114.7c-0.5-0.9-1.4-0.4-2.1-0.7c-0.3-1.2-0.4-2.4-0.2-3.7c0.2-1.1-0.8-2.2-0.3-3.7c1-0.3,2-0.1,3.1,0
	c0.2,1.2-0.8,0.7-1.2,1.1c0.4,0.4,1.2,0,1.2,0.5c0.1,0.9,0.1,1.9-0.3,2.6c-0.4,0.7-0.3,0.8,0.3,1.1c0.4,0.2,0.4,0.7,0.2,1.1
	C37.6,113.5,37.3,114.1,37.1,114.7z"/>
<path class="st26" d="M41.8,105.5c0,0.3,0,0.6-0.1,0.9c-0.3,0.5-0.3,1,0,1.5c-0.1,0.2-0.3,0.3-0.4,0.5c-0.5,1.2,0.2,2.7-0.9,3.8
	c0,0.3,0,0.6-0.1,0.9c0,0.3-0.3,0.6,0,1c0,0.1,0,0.3,0,0.4c-0.7,0.4-1.4,0.4-1.2-0.6c0.4-2.3,0.7-4.7,0.9-7
	C40.1,105.7,40.6,105.4,41.8,105.5z"/>
<path class="st27" d="M41.8,115.5c0.1,0.1,0.3,0.1,0.4,0.1c0.5,0.3,1,0.7,1.5,1c0,0,0,0.1,0,0.2c-2.9,0.4-3.2,0.3-3.4-1.6
	c0.1,0,0.2,0,0.3-0.1C41.1,115.4,41.5,115.3,41.8,115.5z"/>
<path class="st1" d="M32.3,104.5c-0.8-2.2-0.2-4.4-0.1-6.7C32.9,100.1,32.8,102.3,32.3,104.5z"/>
<path class="st28" d="M66.8,45.7c1-0.5,1.1-0.5,1.1,0c-0.3,3.4,0.2,6.8-0.6,10.1c-0.1,0.5-0.1,1.2-0.9,1.1c-0.7,0-0.9-0.5-1.1-1.1
	c-0.5-1.5-0.4-3.1-0.5-4.7c0-1,0.7-1.8,1-2.7c0.4-0.7,0.6-1.5,0.8-2.3C66.6,46,66.6,45.8,66.8,45.7z"/>
<path class="st29" d="M66,48.9c0.1,1-0.6,1.7-1.2,2.3c-0.6-0.1-0.6,1.4-1.5,0.6c0.3-0.5,0.5-1,0.4-1.6c0-0.1,0.1-0.6-0.3-0.4
	c-1.5,0.8-1.2-0.6-1.2-1.1c0.1-1.4-0.2-2.8,0.5-4.1c0.9,0.4,0.6,1.4,1.1,1.9c0.4,0.5,0.6,0.8,1.4,0.7C66.7,47.1,66.9,47.9,66,48.9z"
	/>
<path class="st30" d="M61.3,55c0.5,0.1,0.5,0.7,0.8,0.9c0.6,0.5,0.8,0.8,0.2,1.5c-0.7,0.8-1.3,1.8-1.9,2.8c-0.4-0.1-0.7-0.3-0.6-0.8
	c0-0.1,0.5-0.7-0.2-0.4c-0.4,0.2-0.7,0.7-1.1,0c-0.3-0.5,0.2-0.7,0.4-1C59.4,56.9,60.2,55.7,61.3,55z"/>
<path class="st31" d="M66.1,38.2c-0.6-0.3-1-0.9-0.8-1.6c0.3-1,0.1-2.2,0.9-2.9c1.1-0.9,0.7,0.8,1.5,1c0-0.9,0.1-1.8,0.8-2.4
	c1.4,1,0.7,2.1,0.1,3.1c-0.2,0.1-0.3,0.3-0.5,0.4c-0.6,0.1-0.6,0.6-0.9,1C66.9,37.3,66.5,37.8,66.1,38.2z"/>
<path class="st32" d="M66.8,45.7l0,0.1c-0.1,0.3-0.3,0.3-0.5,0.2c-1-0.8-1.2-1.6-0.7-2.9c0.3-0.9,1.2-1.4,1.6-2.3
	c0.9,0,1.6,0.1,1.1,1.3c-0.4,0.9-0.9,1.8-1.4,2.7C66.7,45,66.4,45.3,66.8,45.7z"/>
<path class="st33" d="M67.2,40.7c-0.8,0-1.2-0.4-0.8-1.2c0.2-0.4,0.4-0.8,0.6-1.2c0.6-0.4,0.9-1.3,2-1.3
	C68.9,38.6,67.7,39.5,67.2,40.7z"/>
<path class="st34" d="M68.7,35.5c0.4-1.1,0.3-2.1-0.1-3.1c0.2-0.6,0.6-1.1,1.3-1.4c0.8,1.7-0.1,3.1-0.7,4.5
	C69,35.5,68.8,35.5,68.7,35.5z"/>
<path class="st2" d="M40.4,112.3c0.4-0.7,0.5-1.5,0.4-2.3c0-0.5-0.1-1.1,0.5-1.5c0.7,1.3-0.2,2.5-0.2,3.8
	C41.2,112.5,40.7,112.3,40.4,112.3z"/>
<path class="st4" d="M67.2,36.9c-0.1-0.4-0.2-0.9,0.2-1.2c0.3-0.2,0.5,0,0.7,0.3C68,36.4,67.7,36.7,67.2,36.9z"/>
<path class="st1" d="M53.7,54.7c0.3,0.3,0.6,0.5,0.5,0.9C53.6,55.5,53.1,55.4,53.7,54.7z"/>
<path class="st30" d="M58.8,56.5c-0.1-0.5-0.3-1,0.4-1.2C59.1,55.7,59.3,56.2,58.8,56.5z"/>
<path class="st2" d="M41.7,108c-0.5-0.5-0.5-1,0-1.5C41.7,107,41.7,107.5,41.7,108z"/>
<path class="st2" d="M40.3,114.2c-0.4-0.3-0.5-0.6,0-1C40.9,113.5,40.4,113.8,40.3,114.2z"/>
<path class="st2" d="M41.8,115.5c-0.4,0-0.8,0-1.1-0.3C41.2,115,41.7,114.6,41.8,115.5z"/>
<path class="st35" d="M64,37.6c1.2,0.4,1.2,1.3,1.2,2.2c0,0.9,0.3,1.9-0.3,2.8c-0.2,0.3-0.5,0.4-0.8,0.3c-0.4-0.1-0.6-0.5-0.7-0.9
	C63.3,40.5,63.8,39.1,64,37.6z"/>
<path class="st3" d="M66.3,46c0.2-0.1,0.3-0.1,0.5-0.2c0.3,1.2,0.4,2.3-0.8,3.1c0.2-0.4,0.5-1,0-1.3c-1.2-0.8-1.2,0.9-2.1,1.1
	c0-0.8,0-1.5,0-2.2c0.4-0.2,0.7-0.3,1.1-0.1C65.5,46.6,66,46.5,66.3,46z"/>
<path class="st36" d="M42.3,24.9c-0.7,0.7-1.5,1.4-2.8,0.8c0.8,1.2,1.7,1.6,2.7,1.5c0.2,0,0.5-0.2,0.7-0.1c0.6,0.4,1.8,0.4,1.6,1.4
	c-0.2,0.9-1,0.9-1.7,0.8c-0.9-0.1-1.7-0.3-2.6-0.5c0.4,1.1,1.3,1.5,1.8,2.2c-1.4,1.4-2.3,1.5-3.6,0.2c-1.1-1.2-1.6-2.5-1-4.2
	c0.4-1.2,0.5-2.4,0-3.7c-0.5-1.5,0.2-3,1.3-4.1c1.8-1.8,5-1.8,7.2,0c-0.9,0.7-1.8,1.2-1.4,2.7c0.5,2,0.3,2.1-1.9,2.7
	C42.5,24.6,42.4,24.8,42.3,24.9L42.3,24.9z"/>
<path class="st37" d="M51.1,30.9c-0.8,0.1-1.6-0.2-2.3-0.5c-1.1-0.4-2.1-1-3.3-1.5C47.5,27.8,48.7,28.3,51.1,30.9z"/>
<path class="st1" d="M34.2,31.5c-0.4-0.4-0.7-0.5-1,0.1c-0.4-0.1-0.5-0.5-0.6-0.9c0.6-0.3,1.3-0.6,1.9-0.9c0.2,0.2,0.3,0.5,0.5,0.7
	C34.6,30.7,34.6,31.3,34.2,31.5z"/>
<path class="st36" d="M42.2,24.9c0.4,0.1,0.8,0.2,0.6,0.7c-0.1,0.3-0.2,0.7-0.6,0.5c-0.3-0.1-0.2-0.4-0.1-0.6
	C42.2,25.3,42.2,25.1,42.2,24.9C42.3,24.9,42.2,24.9,42.2,24.9z"/>
<path class="st38" d="M20.7,78.6c-1.3-1.5-1.9-3.3-2-5.3c0.5-0.1,0.5-0.5,0.6-0.9c0.4-1.7,1.5-2.5,3.2-2.2c2.1,1.9,2.3,2.4,1.3,4.9
	c-0.8-0.2-0.6-0.9-0.7-1.5c-0.2-0.7-0.6-1.2-1.3-1.2c-0.8,0-0.7,0.8-0.8,1.2c-0.5,1.2-0.5,2.5,0,3.7C21.2,77.8,21.2,78.3,20.7,78.6z
	"/>
<path class="st1" d="M29.8,51.8c-0.3,0-0.5,0.5-0.8,0c0,0,0-0.2,0.1-0.2C29.4,51.3,29.6,51.4,29.8,51.8
	C29.8,51.7,29.8,51.8,29.8,51.8z"/>
<path class="st1" d="M34,33.1c0.6,0.8,1.6,1.3,2.1,2.3c-1,0.2-1.5-0.6-2.2-1.1C33.5,33.9,33.6,33.4,34,33.1z"/>
<path class="st16" d="M45.1,107.4c1.3,0.3,1.3,0.3,2.2,1.4c-0.4,0.5-0.9-0.1-1.3,0.1c0,0,0,0,0,0C45.8,108.4,44.9,108.3,45.1,107.4
	L45.1,107.4z"/>
<path class="st13" d="M45.1,107.5c0.3,0.5,1.1,0.7,1,1.4c-0.4-0.1-0.8-0.2-1.1-0.4C44.1,108.1,44.6,107.7,45.1,107.5z"/>
<path class="st13" d="M55,65.5c0.2,0.2,0.2,0.4,0.2,0.6c-0.1,0.2-0.2,0.3-0.4,0.1c-0.2-0.1-0.4-0.3-0.2-0.6
	C54.7,65.6,54.9,65.6,55,65.5z"/>
<path class="st2" d="M33.6,119.9c0.5-0.1,1.1-0.2,1.6,0.1C34.3,120.8,34.3,120.8,33.6,119.9C33.6,119.9,33.6,119.9,33.6,119.9z"/>
<path class="st39" d="M43.3,20.7c0,0.9-0.5,1.5-1.1,1.5c-1-0.1-1.9-0.5-3-0.6c-0.3,0-0.4-0.5-0.2-0.8c0.5-1.1,2.8-1.7,3.8-1
	C43.1,20.1,43.3,20.4,43.3,20.7z"/>
</svg>
