<?xml version="1.0" encoding="utf-8"?>
<!-- Generator: Adobe Illustrator 23.1.1, SVG Export Plug-In . SVG Version: 6.00 Build 0)  -->
<svg version="1.1" id="Livello_1" xmlns="http://www.w3.org/2000/svg" xmlns:xlink="http://www.w3.org/1999/xlink" x="0px" y="0px"
	 viewBox="0 0 80 135" style="enable-background:new 0 0 80 135;" xml:space="preserve">
<style type="text/css">
	.st0{fill:#FFFFFF;stroke:#000000;stroke-width:0.2509;stroke-miterlimit:10;}
	.st1{fill:#4C5249;}
	.st2{fill:#474746;}
	.st3{fill:#4B5949;}
	.st4{fill:#928550;}
	.st5{fill:#C2A945;}
	.st6{fill:#F2E835;}
	.st7{fill:#ECE639;}
	.st8{fill:#E14B4C;}
	.st9{fill:#F2E834;}
	.st10{fill:#F1E833;}
	.st11{fill:#C1B35E;}
	.st12{fill:#E3D768;}
	.st13{fill:#8C7F48;}
	.st14{fill:#ECDD35;}
	.st15{fill:#E5454F;}
	.st16{fill:#EAE254;}
	.st17{fill:#E4D441;}
	.st18{fill:#E8DD5A;}
	.st19{fill:#F4E932;}
</style>
<path class="st0" d="M71.5,135h-63c-4.7,0-8.5-3.8-8.5-8.5V8.5C0,3.8,3.8,0,8.5,0h63C76.2,0,80,3.8,80,8.5v118
	C80,131.2,76.2,135,71.5,135z"/>
<path class="st1" d="M49.5,74.7c-1.4-7.9-1.1-15.9-0.9-23.9c0.1-3.7,0-7.5-0.2-11.2c-0.2-4.6,0-9.3,0.9-13.8c0.6-3,1.6-5.9,3.2-8.5
	c3.4-5.4,10.2-6.1,14.2-0.4c1.8,2.5,2.6,5.5,2.7,8.5c0.2,4.2-0.3,8.3-0.7,12.4c-0.9,9.1-2.2,18.1-3.4,27.1c-0.4,3.2-0.7,6.4-1.1,9.5
	c-0.1,1.1,0,1.9,1,2.7c1.8,1.6,1.4,3.4-0.9,4.2c-1.3,0.4-1.5,1.2-1.6,2.3c-0.2,3.2,0,6.4-0.5,9.6c-0.5,3.5-1.2,7.1-1.5,10.6
	c-0.5,5.4-0.3,10.7,1.8,15.8c0.4,0.9,1,1.8,1,3.2c-3.5-1.6-7.3-2-10.2-4.7c-1.8-1.7-3-3.6-2.8-6.3c0.2-2.9-0.5-5.9-0.4-8.8
	c0.1-1.9,0.3-3.8,0.2-5.7c-0.2-4.2-1.1-8.2-2.3-12.2c-0.2-0.8-0.3-1.4,0.6-1.3c1.2,0.1,1.1-0.4,1.1-1.2c-0.2-2.3-0.3-4.6-0.5-6.9
	c0.2-0.5,0.5-1.1,1.2-0.9c0.5,0.2,0.4,0.7,0.2,1.1c0.4-0.8,0.1-1.7,0.4-2.4c0.3-0.6,0.6-1,1.2-0.3c0.7,2.7-0.7,5.2-0.8,7.8
	c0.4-2.2,1.1-4.2,2.3-6c0.1-0.2,0.2-0.4,0.4-0.5c0.8-1,1.3-2.2,1.9-3.3c0.7-1.4-0.5-3.3,1.3-4.3c-0.8-1.1-1.9-0.2-2.6-0.8
	c-0.4-1.6,1-1.9,1.7-2.7c0.9-0.7,1.7-1.3,1.3-2.7c-0.3-0.9,0.5-1.6,1.3-2c1.2-0.7,2.5-1.3,1.8-3.1c2-1.6,0.6-4,1.4-6.1
	c0.6-1.6,1.4-3.2,2-4.8c0.6-1.6,0.8-3.4,1.1-5.1c0.2-1.2,0.2-2.5,0.8-3.6c0.6-1.1,0.4-2.3,0.1-3.5c1.7-2.8,1.2-6,1.5-9
	c-0.6,0.3-0.4,1-0.8,1.2c-1.6,0.7-1.3,1.9-1,3.3c0.3,1.7-0.2,2.6-2.1,2.3c0.4,4.6,0.4,4.6-2.2,3.9c0.7,3.5,0.7,3.5-1.8,3.9
	c-0.4,1.5,1.5,3.1,0,4.6c-1-0.1-0.9-1.2-1.6-1.8c-0.7,1.3-1.7,1.5-3,0.6c-0.2,1,0.3,1.6,0.5,2.2c0.3,0.6,0.8,1.1,0.6,1.9
	C55.1,46,55.1,46,55.4,48c0,0.2,0.1,0.3,0.1,0.5c0.1,1.1,0.1,2.4-0.9,3.1c-0.9,0.6-1.5-0.7-2.4-0.9c-0.3,0.8,0.2,1.5,0.4,2.2
	c0.1,0.5,0.6,1.3,0.3,1.6c-1.9,1.9-0.2,3.4,0.4,5.1c0.3,0.9,0.9,1.8-0.5,2.4c-0.2,0-0.4-0.1-0.6-0.2c-0.2-0.2-0.5-0.6-0.6-0.6
	c-0.5,0.2-0.1,0.6-0.1,0.9c0.2,1.1,0.8,2,1.1,3.1c0,0.3,0,0.7-0.2,0.9c-1.8,0.9-1.5,2.5-1.3,4.1C50.6,71.8,51.9,73.9,49.5,74.7z"/>
<path class="st2" d="M32.2,81.3c0.3,1.4-0.9,3,0.8,4.2c0.2,0.1,0.1,0.8,0,1.1c-0.2,1.1-0.3,2.2-0.6,3.3c-0.6,2.3-1.1,4.5-1,7
	c0.1,2.1-0.3,4.3-0.4,6.4c-0.2,3.5-0.4,7-0.3,10.5c0.1,1.8-0.6,3.1-2,4.1c-2.2,1.6-4.4,3.2-6.8,4.4c-1,0.5-2.2,1.2-3.1,0.4
	c-0.9-0.8,0.1-1.9,0.3-2.9c0.1-0.5,0.4-1.1,0.6-1.6c1.2-2.3,1.6-4.8,1.3-7.4c-0.3-2.7-0.7-5.4-1-8.1c-0.5-4.3,0.1-8.6-0.1-12.9
	c-0.1-1-0.2-2.1-0.3-3.1c-0.1-1-0.4-1.7-1.5-2.2c-1.4-0.6-1.5-1.7-0.4-2.9c0.8-0.9,0.7-1.6,0.5-2.6c-1.1-5.2-1.4-10.6-2.5-15.8
	c-1.1-5.1-1.9-10.2-2.6-15.3c-0.8-6.3-1-12.6-0.6-18.9c0.1-1.8,0.2-3.5,0.3-5.3c0.1-1.5,0.3-3,1.1-4.4c0.9,0.1,1.1,0.8,1.3,1.5
	c0,1.8,0.6,3.4,1.2,5.1c0,0.2,0,0.4-0.1,0.7c-0.5,0.3-1,0.5-1.4-0.1c-0.1,1.5,1.3,2.5,1.3,3.9c0,0.3-0.1,0.7-0.3,0.9
	c-1.7,1.1-0.6,2.3-0.3,3.5c0.1,0.3,0.3,0.6,0.4,0.9c0.2,0.5,0.5,1,0.1,1.6c-1,0.6-1.2,1.3-0.6,2.3c0.4,0.7,0.9,1.3,1.2,2
	c0.1,0.2,0.2,0.4,0.2,0.6c0,0.7-0.8,1.2-0.2,2c0.9,1.1,2.2,2.2,0.6,3.8c-0.4,0.4,0.5,0.9,0.9,1.2c1.3,1.1,1.6,2.1-0.4,2.9
	c1,1.1,3,1.3,2.3,3.5c-0.2,0.6,1,0.9,1.5,1.3c0.6,0.5,1.8,0.9,1.3,2c-0.4,0.9-1.4,0.2-2.3,0.2c0.7,1.4,0.7,2.9,1.8,4.1
	c0.8,0.9-0.4,1.4-1,1.9c0.3,0.6,0.7,0.8,1.1,0.9c1.5,0.8,3.4,1.5,2,3.9c-0.1,0.2,0.2,0.6,0.4,0.9c1.3,1.9,3.4,3.1,4.7,5
	C30.8,77.6,32.2,79.1,32.2,81.3z"/>
<path class="st3" d="M14.8,20.9c-0.3-0.5-0.5-0.9-0.8-1.4c1.9-6,8.9-8.1,13.6-4c1.5,1.3,2.3,3,3.1,4.8c2,5.1,2.3,10.4,2.1,15.7
	c-0.4,12.8,0,25.5-0.1,38.3c0,1.8-0.1,3.5-0.2,5.3c-1.8-0.7-1.6-2.4-1.8-3.8c-0.1-1.1-0.4-2.1-1-3.1c-1.2-1.8,0.1-3.3,0.6-4.8
	c0.2-0.6,0.5-0.5,1.4,0.6c-0.2-1.5,0-2.9-0.4-4.3c-0.1-1.5-1.4-1.2-2.3-1.4c-0.6-0.3-0.7-0.9-0.7-1.5c0-1.1,0.4-2,0.9-3
	c0.3-0.7,0.7-1.2-0.5-1.4c-0.9-0.2-0.5-1-0.2-1.6c0.4-0.8,1.3-1.4,1.2-2.5c-0.9,0-1.1,0.8-1.6,1.2c-0.6,0.5-1.2,1-1.9,0.4
	c-0.7-0.6-0.3-1.3,0-2c0.5-1.1,1.6-1.8,2.1-2.9c0.1-0.4,0.4-0.7,0.1-1.1c-0.2-0.1-0.3,0-0.4,0.1c-0.7,0.4-1.3,1.9-2.3,1
	c-1-0.9,0-2.1,0.6-3c0.5-0.7,1.3-1.2,1.5-2.3c-1.3-0.2-2.3-1.2-3.9-0.9c-1.2,0.3-1.1-1-0.8-1.9c0.3-0.8,1.1-1.4,1.4-2.2
	c-0.4-0.3-0.7,0-1,0.1c-0.5,0.2-1,0.7-1.5,0.2c-0.5-0.5-0.1-1.1,0.2-1.5c0.6-0.9,0.5-1.3-0.4-2c-0.9-0.7,0.4-1.9,0.2-3
	c-0.6-0.5-0.8,0.3-1.1,0.4c-1.2,0.7-1.4,0-1.3-1c0.1-1.1,0.7-2.1,0.7-3.3c-0.8-0.2-1.2,0.7-2,0.4c-0.3-0.1-0.7-0.4-0.6-0.7
	c1-3.1-1.9-5-2.1-7.8C15.4,21.2,15,21.1,14.8,20.9z"/>
<path class="st4" d="M57.1,63.7c-0.3,1-1.9,0.9-1.9,2.2c0,0.5-0.3,0.8-0.8,1.1c-0.1,0.1-0.5,0-0.4,0.2c0.8,2,0.8,2-0.2,3.5
	c-0.3,0.4-0.4,0.9-0.4,1.4c-0.1,0.5-0.2,1-0.7,1.3c-0.2,0.1-0.4,0-0.5-0.2c-0.8,0.8-0.4,2.1-1.2,3.1c-0.2-0.8-0.5-1.9-1.5-0.7
	c0-0.3,0-0.6,0-0.9c0.8-0.5,0.9-1.2,0.9-2c0-0.9,0.1-1.9,0.1-2.8c1.2,0.3,0.2,1.5,0.7,2.1c0,0.3,0.3-0.2,0.1,0
	c-0.1,0.1-0.2,0-0.2-0.1c-0.1-1.6-0.1-3.1,0.8-4.5c0.4-0.6,1-1.3,0.4-2.1c-1.1-0.7-1.1-1.9-1.4-2.9c0.4-0.5,0.8-1,1.5-0.5l0,0
	c0.5,0.4,1,1.5,1.4,0.1c0.7-2.1,1.7-4,2.5-6c0.5-1.4,0-2.6-0.4-4c-0.5-1.8-0.4-2,1.6-1.5c0.2-1.7-0.9-3.2-0.7-4.9
	c-0.3-0.6-0.7-1.1-1-1.7c0.7-1.8,1.4-0.6,1.9,0.1c1.1,1.6,1.4,3.4,1.5,5.1c-0.3-2.2,1.3-3.9,1.9-6c1.3-2.5,2.2-5.2,3.2-7.7
	c0.3-0.7,0.4-1.6,1.3-1.9c0.5,0.1,0.7,0.6,0.9,1c0,2.4-1.1,4.6-1.9,6.8c-0.8,2.3-1.3,4.7-2.2,7c-0.5,1.3-0.5,2.9-1.7,4
	c-0.2,0.2-0.2,0-0.1,0.2c1.9,2.6-1.5,3.5-1.9,5.4C58.2,59.7,57.1,61.6,57.1,63.7z"/>
<path class="st5" d="M30.2,72.8c1.1,0.6,1,1.8,1,2.7c0,1.6,0.5,2.9,1.3,4.2c0.1,0.6,0.2,1.2-0.2,1.7C30.7,78.8,29.4,76,27,74
	c-0.9-0.8-1.9-1.6-2.5-2.7c1-0.3,1.8-0.7,1.4-2c-0.2-0.6,0-1.2,0.3-1.8c1.9-0.2,3.4,1,3,2.7C29,71.5,29.6,72,30.2,72.8z"/>
<path class="st6" d="M56.6,45.5c1.2,1.9,1.4,4,1.4,6.2c-1,0-1-1.3-1.7-1.4c-0.4,0.1-0.4,0.3-0.3,0.5c1.3,2.5,1.2,4.8-0.2,7.3
	c-1,1.8-1.7,3.9-2.5,6c-0.9-0.8-1-1.6-1-2.5c0.7,0,1.1-0.3,0.9-1c-0.3-0.7-0.6-1.5-1.1-2.1c-0.7-0.9-0.8-1.9-1-2.9
	c-0.1-0.4,0.2-1,0.5-0.9c2,0.7,0.8-0.7,0.7-1.1c-0.3-1.3-1.1-2.5-0.7-3.9c1.4-0.3,1.8,1.4,2.9,1.6c1.5-2.2-0.2-4.3,0-6.4
	C55.4,44.3,55.6,46.3,56.6,45.5z"/>
<path class="st7" d="M57.1,63.7c-0.6-1.4-0.5-2.6,0.1-4c0.6-1.2,1.3-2.3,1.5-3.6c0.2-1.1,1.1-1.8,2.3-2.2c-0.7-0.4-1.4-0.5-1.8-1
	c0.6-1.1,1.9-1.7,2.5-2.8c0.2-0.3,0.6-0.8,0.1-0.9c-1.5-0.4-0.7-1-0.2-1.6c0.3-0.4,0.9-0.5,0.9-1c0.3-4.3,2.7-8.1,3.5-12.3
	c-0.1-0.7-0.5-1.3,0.2-1.9c0.1,0,0.2,0,0.3,0c0,0.7,1.1,0.3,1,1.1c-0.1,1-0.3,2.1-0.8,3c-0.5,0.8-1.4,1.3-0.4,2.5
	c0.5,0.6-0.4,1.6-0.8,2.4c-0.4,0.7-1.3,1.4,0.1,2.1c0.5,0.2,0,0.7-0.1,1c-0.4,0.8-1,1.4-1.7,2c-0.7,0.6-1.2,1-0.2,1.8
	c0.4,0.4,0.2,0.9,0,1.3c-0.4,0.7-1,1.2-1.6,1.8c1.7,1.2,1.8,1.5,0.6,2.9c-0.5,0.6-1.4,1-0.4,2.1c0.6,0.6-0.2,1.2-0.7,1.5
	c-0.8,0.5-1.7,0.9-2.5,1.5c-0.6,0.5-1.4,1-0.2,1.8c0.7,0.4,0.3,0.8,0,1.2C58.3,62.8,57.6,63.2,57.1,63.7z"/>
<path class="st7" d="M65.7,33.4c-1,2.1-1.9,4.3-2.6,6.5c-0.4,1.1-0.8,2.2-1.7,3.1c-0.1-0.1-0.2-0.2-0.3-0.2
	c-0.5-1.9-1.1-3.7-1.6-5.6c0.6-0.7,1.1-0.1,1.7,0.1c0.3,0.2,0.6,0.3,0.9,0c0.3-0.3,0.3-0.7,0-1c-0.9-1.1-0.7-2.4-1.1-3.6
	c1.5-0.2,1.6,1.3,2.8,1.6c0.7-1.8-0.9-3.5-0.3-5.3c1-0.5,1.1,1,2,1c0.9-1.8-0.8-3.7-0.1-5.5c0.6-0.4,1,0.5,1.5,0.2
	c0.4-0.5,0.1-1.1,0-1.6c0-0.4-0.4-0.8,0.2-1c0.5-0.2,1.1,0.1,1.2,0.5c0.3,1,0.7,2,0.4,3c-0.2,0.7-0.4,1.4-0.5,2.1
	c-0.1,0.4-0.4,1-0.2,1.1c1.9,2.1-0.4,2.6-1.4,3.7c0,0,0,0,0,0c-0.4-0.5-0.4-1-0.2-1.3C66.2,31.8,66.1,32.7,65.7,33.4z"/>
<path class="st8" d="M57.6,72.2c0.9,0,0.4,1.3,1.6,1.1c0.8-0.1-0.9,1.1-0.1,1.7c-2.4,1.8-1.8,4.7-2.5,7.2c-0.3,1-0.2,2.1-1.7,2.2
	c-0.6,0.1-0.7,0.8-0.9,1.3c-0.1,0.4-0.3,0.8-0.8,0.6c-0.5-0.1-1-0.3-1-0.9c0-1.4,0-2.7,0.4-4C53.7,78.1,55.4,75.1,57.6,72.2z"/>
<path class="st9" d="M61.4,43c-0.2,2.3-1.9,4-2.3,6.4c-0.4-1.3-0.8-2.6-1.3-4c-0.2-0.6-0.5-1.1-0.8-1.7c-0.5-0.9-0.8,0-1.3,0.1
	c-0.6-1.1-1.1-2.2-0.8-3.5c1.2,0,1.4,1.2,2.5,1.6c0.4-0.6,0.3-1.7,1.4-2c0.4,0.9,0.8,1.7,1.2,2.6C60.3,42.9,61.1,42.5,61.4,43
	L61.4,43z"/>
<path class="st10" d="M52.6,73.2c0.2-0.5,0.4-0.9,0.6-1.4c0-0.3,0-0.7,0-1c0.2-1.2,1.4-1.8,1.8-2.9c-0.4-0.8-1.3,0.2-1.7-0.5
	c-0.2-0.3-0.1-0.7,0.4-0.7c0.7,0,0.8-0.6,1.4-0.8c0.2-0.1,0.4-0.2,0.7-0.2c0.9-0.1,2-0.6,2.5,0.1c0.6,0.9-0.4,1.5-1,2.1
	c-0.4,0.4-0.6,0.7-0.2,1.2c0.6,0.8,0.1,1.5-0.3,2.2c-1.8,0.4-1.1,2.4-2.1,3.3l0,0C53.5,74.9,53.1,74,52.6,73.2z"/>
<path class="st11" d="M52.6,73.2c1.1-0.1,1.2,1.3,2,1.5c-1,2.2-2,4.5-3,6.7c-0.1,0-0.2,0-0.4,0c0.2-1.5,0.2-3.1,0.6-4.6
	c0.3-1.2,0.4-2.3,0.3-3.5C52.4,73.2,52.5,73.2,52.6,73.2z"/>
<path class="st12" d="M52.2,65.1c0.9,0.9,0.5,2,0,2.8c-0.8,1.4-1.1,2.8-1.1,4.5c-0.6-0.9-0.2-1.9-0.8-2.6c-0.1-0.4-0.2-0.8-0.3-1.2
	c-0.3-1.2-0.6-2.3,1.2-2.3C52,66.4,52.3,65.8,52.2,65.1z"/>
<path class="st4" d="M61.4,43c-0.5,0-1.2,0.2-1.4-0.6c0.7-0.4,0.4-0.9,0.2-1.4c-0.4-1.3-0.8-2.5-0.7-3.9C60.5,39,61.2,40.9,61.4,43z
	"/>
<path class="st11" d="M54.7,74.7c0.1-0.5,0.4-1.1,0.3-1.6c-0.3-1.7-0.3-1.7,1.3-1.8c0.2,0,0.3,0,0.5,0
	C56.2,72.6,55.8,73.9,54.7,74.7z"/>
<path class="st6" d="M52.3,61.7c-0.5,0.2-1,0.3-1.5,0.5c0-0.1,0-0.2,0-0.2c0-0.7-0.8-1.6,0.1-1.9C51.9,59.8,52.2,60.8,52.3,61.7z"/>
<path class="st13" d="M30.2,72.8c-1-0.5-1.8-0.8-1.4-2.4c0.3-1.2-0.7-2.7-2.4-3c-0.2-0.2-0.2-0.4-0.2-0.6c0.8-2.5-0.5-4.3-1.8-6.2
	c-2.5-4.1-3.6-8.7-5.1-13.1c-0.7-2-2.2-3.5-2.6-5.5l0,0c-0.1-1.8,0.2-3.5-0.3-5.3c-0.2-1.8-0.9-3.5-0.7-5.3c0-0.3,0.1-0.7,0.1-1
	c0.2-1.3-0.8-2.7,0.4-3.8c-0.1-0.1-0.1-0.2,0-0.3c1.3-0.2,1.1,0.9,1.2,1.5c0.1,0.8,0,1.7,0.6,2.5c1.3,2.4,1.3,5.2,1.9,7.8
	c0.4,1.9,1.7,3.6,1.9,5.6c0.1,0.9,0.7,1.7,0.8,2.7c0.1,0.7-0.2,1.7,1,1.8c0.4,0.1,0.7,0.5,0.6,0.9c-0.6,3.6,2.1,6.4,2.6,9.8
	c0.1,0.4,0.3,0.9,0.3,1.4c0.2-0.5,0.2-1.6,0.9-1.4c1.2,0.3,0,1.6,0.6,2.3c0.1,0.5-0.1,1.2,0.5,1.5c0.9,1,0.5,2.2,0.8,3.4
	c1.8,0.6,0.8-1.6,1.7-2c0.9,2,0.6,3.9,0.2,6c-1.1-0.7-0.4-1.6-0.9-2.2c-1.4,0.6,0.1,2.2-0.7,2.5C28.5,71.4,30.7,72.1,30.2,72.8z"/>
<path class="st14" d="M26.4,67.1c0,0.1,0,0.3,0,0.4c0,1.1-0.3,2.2,0.4,3.2c0.5,0.7,0,1.1-0.7,0.9c-0.5-0.1-1.1-0.3-1.6-0.3
	c-0.1-0.1-0.2-0.2-0.3-0.4c-0.9-1.4-0.9-1.4,0.6-2.6c-0.9-1.1-2.4-1.2-3.4-2.1c-0.4-0.3-0.9-0.5-0.9-1c0-0.7,0.7-0.8,1.3-0.8
	c0.2,0,0.5,0,0.5-0.4c-0.2-0.7-0.9-1-1.4-1.5c-0.2-0.2-0.3-0.3-0.5-0.5c1.7-1.7-0.9-1.9-1.1-3.1c1.2-1,2.5,0.4,3.9,0.2
	c-1.1-1.6-3.1-1.8-4.1-3.1c-0.2-1,1-0.7,1.1-1.7c0,0-0.2-0.2-0.5-0.2c-1-0.3-1.7-0.8-2.4-1.5c-0.2-0.2-0.5-0.5-0.3-0.8
	c0.1-0.4,0.4-0.4,0.8-0.4c0.5,0,1.1,0.4,1.6-0.2c-0.2-1-1.2-1.1-1.8-1.7c-0.5-0.5-1.4-0.8-1.2-1.6c0.2-0.9,1.3-0.2,1.9-0.7
	c-0.3-1.1-1.3-1.8-1.9-2.7c-0.6-0.9-0.7-1.4,0.5-1.8c0.1,0,0.1-0.4,0.1-0.7c1.3,1.1,2,2.6,2.8,3.9c0.6,1,0.4,2.3,1,3.5
	c1.2,2.5,1.9,5.3,2.8,8c0.3,1,1,1.9,1.5,2.9c0.1,0.8,0.2,1.6,0.8,2.3C26.6,64,27,65.4,26.4,67.1z"/>
<path class="st15" d="M28.1,87.4c-1-0.5-1.8-1.1-2-2.2c-0.3-1.4-2-2.1-2.3-3.6c-1.9-0.8-1-2.8-1.9-4c0.9-1.1-0.9-1.9-0.3-3.1
	c0.5-1.1-0.4-2.1-0.4-3.2c0-1.2-0.5-2.3-0.9-3.4c-0.1-0.2-0.1-0.5,0.2-0.6c0.7-0.1,1,0.4,1.2,0.9c1,2.7,3,4.7,5.1,6.5
	c2.9,2.5,3.9,5.7,3.9,9.4c0,0.8,0,1.4-0.9,1.8C29,86.1,28.8,86.9,28.1,87.4z"/>
<path class="st16" d="M17.6,30.6c-0.6-1.4-0.5-3-1.4-4.3c-1.1-1.6-1.6-3.4-1.4-5.4c0.3-0.3,0.5-0.7,0.8-0.8c0.7-0.1,0.5,0.6,0.6,1
	c0.1,0.7,0.1,1.4,0.2,2.1c0,0.3,0.1,0.8,0.3,0.9c2.6,0.7,1.2,2.5,1.2,4c0,0.6-0.5,1.2,0.3,1.7C18.2,30.2,18,30.5,17.6,30.6z"/>
<path class="st14" d="M16.8,37.2c0.7,1.2,0.7,3.4-0.1,4.8c-1.1-0.6-1.5-1.8-1.9-2.8c-0.8-1.9-0.8-1.9,1.4-2
	C16.4,37,16.6,37,16.8,37.2z"/>
<path class="st17" d="M16.8,37.2c-0.2,0-0.4,0-0.5,0c-0.2-0.5-0.4-0.9-0.5-1.4c0.1-0.3-0.1-0.4-0.4-0.5c-0.5-1-0.9-1.9-1-3.1
	c-0.1-1.4,0.7-1.1,1.4-0.8C16.9,33.2,16.6,35.3,16.8,37.2z"/>
<path class="st18" d="M16.3,26.6c-0.2,1.3,0.4,2.6-0.4,3.8c-0.4-1.3-1.8-2.2-1.5-3.8C15.1,26.3,15.7,26.9,16.3,26.6z"/>
<path class="st13" d="M15.3,35.3c0.3,0,0.5-0.4,0.8-0.1c0.2,0.3-0.1,0.5-0.4,0.6C15.4,35.8,15.3,35.6,15.3,35.3z"/>
<path class="st19" d="M17.6,30.6c0.2-0.3,0.4-0.5,0.5-0.8c0.8-0.5,1.2-1.6,2.4-2c0.4,2.1-0.6,3.8-1,5.9c1.2-0.4,1.3-2.1,2.7-1.9
	c0.4,1.4-0.2,2.8-0.7,4.1c0.7,0.5,1.3-0.5,1.9,0.1c0,1.5-1.4,2.2-1.9,3.4c0.7,0.6,1-0.1,1.4-0.4c0.5-0.5,1.2-1.2,1.8-0.6
	c0.8,0.8-0.2,1.4-0.6,2c-0.4,0.6-0.9,1.1-1.2,1.7c-0.2,0.3-0.3,0.7,0,1.1c0.3,0.2,0.6,0,0.9-0.1c0.8-0.6,1.6-1.5,2.2,0.3
	c0.4,1.1,1.4-0.4,2.2,0c0.3,1.3-0.6,2.3-1.4,3.2c-0.8,0.9-1.6,1.7-1.3,3.2c1.1-0.6,1.3-1.6,2.1-2.1c0.4-0.2,0.7-0.4,1.1-0.2
	c0.4,0.2,0.3,0.7,0.3,1c-0.2,1-0.5,2-1.3,2.8c-0.4,0.4-0.8,0.8-1.2,1.2c-0.5,0.6-0.9,1.5-0.4,1.9c0.8,0.7,1.2-0.4,1.5-1
	c0.6-1,1.3-1.7,2.4-1.6c0.6,0,0.2,1.9-0.6,3c-0.5,0.6-1.5,1-1.4,2.1c0.9,0.2,1.2-0.9,2.1-0.6c0.1,1.8-1.5,3.2-1.7,4.9
	c-0.8-0.5-0.1-1.4-0.6-2.1c-0.3,0.6-0.6,1.2-1,1.9c-0.5-1.3-1.2-2.4-1.3-3.6c-0.1-1-0.4-1.9-0.8-2.7c-1.2-1.9-1.8-3.9-0.8-6.3
	c-1.1,0.5-1.9,0.7-2-0.6c-0.1-1.5-0.1-3.1-1.3-4.4c-0.6-0.7-0.3-1.9,0.1-2.8c-0.6-0.2-1.4,1.1-1.5-0.3c-0.2-3.1-0.7-6-1.8-8.9
	C17.6,31.1,17.7,30.8,17.6,30.6z"/>
<path class="st19" d="M31.6,64.1c0,0.8,0,1.6,0,2.3c-0.2,0-0.3,0.1-0.4,0.1c-1.9-0.4-2-0.6-2.1-2.6c0-0.4,0-0.8,0.1-1.2
	C31.2,61.8,31.3,61.8,31.6,64.1z"/>
<path class="st1" d="M65.7,33.4c0-0.3,0-0.6,0.1-0.9c0.2-0.5,0.4-1,0.7-1.8c0.1,0.8,0.1,1.3,0.2,1.8c-0.6,0.5-0.4,1.2-0.6,1.8
	C65.9,34,65.8,33.7,65.7,33.4z"/>
<path class="st11" d="M53.3,70.8c0.4,0.3,0.5,0.7,0,1C52.7,71.5,52.8,71.1,53.3,70.8z"/>
<path class="st5" d="M26.4,67.1C26,66.6,26,66,26.1,65.5c0.3-1.2-0.1-2.2-1-2.7c-1.3-0.8-0.9-1.6-0.2-2.4c1.5,1.3,1.6,3.3,2.3,5
	C27.5,66,27.1,66.7,26.4,67.1z"/>
</svg>
