<?xml version="1.0" encoding="utf-8"?>
<!-- Generator: Adobe Illustrator 23.1.1, SVG Export Plug-In . SVG Version: 6.00 Build 0)  -->
<svg version="1.1" id="Livello_1" xmlns="http://www.w3.org/2000/svg" xmlns:xlink="http://www.w3.org/1999/xlink" x="0px" y="0px"
	 viewBox="0 0 80 135" style="enable-background:new 0 0 80 135;" xml:space="preserve">
<style type="text/css">
	.st0{fill:#FFFFFF;stroke:#000000;stroke-width:0.2509;stroke-miterlimit:10;}
	.st1{fill:#4E483A;}
	.st2{fill:#435943;}
	.st3{fill:#425441;}
	.st4{fill:#465448;}
	.st5{fill:#505A50;}
	.st6{fill:#97454B;}
	.st7{fill:#E6D737;}
	.st8{fill:#ED4B4C;}
	.st9{fill:#E9DA3C;}
	.st10{fill:#EFE734;}
	.st11{fill:#D3C53B;}
	.st12{fill:#ED4940;}
	.st13{fill:#F4E932;}
	.st14{fill:#F0E736;}
	.st15{fill:#E34A44;}
	.st16{fill:#E7D936;}
	.st17{fill:#92383A;}
	.st18{fill:#EDE636;}
	.st19{fill:#CBBF43;}
	.st20{fill:#EEE634;}
	.st21{fill:#EBE035;}
	.st22{fill:#B5A845;}
	.st23{fill:#928547;}
	.st24{fill:#C9BE4B;}
	.st25{fill:#EBE137;}
	.st26{fill:#A79C54;}
	.st27{fill:#A89C51;}
	.st28{fill:#CFBB45;}
	.st29{fill:#F1E837;}
</style>
<path class="st0" d="M71.5,135h-63c-4.7,0-8.5-3.8-8.5-8.5V8.5C0,3.8,3.8,0,8.5,0h63C76.2,0,80,3.8,80,8.5v118
	C80,131.2,76.2,135,71.5,135z"/>
<path class="st1" d="M27.6,19.8c1.9,2.4,2.6,5.2,3.3,8.1c1,4.1,1.5,8.3,1.9,12.5c0.4,4,1.3,8,2.2,12c0.1,0.5-0.2,1.4,0.8,1.5
	c1.1,0.1,0.8-0.9,1.1-1.5c-0.2-0.5,0-1.1-0.3-1.6c0-0.3-0.1-0.5-0.1-0.8c-0.3-0.5,0-1.1-0.3-1.6c0-0.3-0.1-0.6-0.1-0.9
	c-0.2-2.1,1-2,2.4-1.5c1.1,1,1.2,2.4,1.6,3.7c0.5,1.5-1.7,1.6-1.6,2.9c0.4,0.4-1.1,1.7,0.7,1.3c1.3-0.2,1.1-1.2,1.1-2
	c0.1-3.3,0.3-6.5,0.1-9.8c0-0.8,0-1.6,0.1-2.4c0.1-0.8,0.2-1.7,1.4-1.4c1,0.3,1.3,0.8,1.1,1.9c-1,4.2-0.4,8.5-0.6,13.1
	c1.7-1.1,1.9-2.4,1.6-3.7c-0.1-0.5-0.4-1.1-0.1-1.6c0.8-1.3,1.9-2.5,0.3-4c-0.2-0.1,0.3-0.5,0.6-0.6c1.5,0.2,2.1-1.2,3.3-1.8
	c0.6,1,0.4,1.9,0.2,2.8c0,2.3-0.5,4.6-0.8,6.8c-0.1,0.8-0.2,1.6-0.2,2.4c0,0.8,0.7,0.7,1.2,0.9c0.6,0.3,0.9-0.2,1-0.7
	c0.3-1.3,0.6-2.6,0.7-4c0.4-3.8,0.6-7.6,1-11.4c0.6-5.4,1.3-10.9,4-15.8c0.4-0.1,0.6,0.1,0.8,0.4c0.5,2.5-0.2,5.1,0.8,7.6
	c0.1,0.3,0.1,0.8-0.1,0.9c-1.7,0.4-0.9,1.4-0.6,2.3c0.5,1.5,0.1,2.2-1.8,1.6c0.2,1.2,0.9,1.9,1.3,2.7c1.2,2.2,1,2.8-1.5,3.3
	c0.2,1.1,1,1.8,1.7,2.6c0.8,1,1.4,1.9,0.2,3.1c-1.1,1,0.6,1.8,0.4,2.8c0,0.5,0,0.9-0.2,1.3c-0.6,0.6-2.2,0.9-0.6,2
	c0.2-0.3,0.2-0.6,0.4-1c0.1-0.2,0.2-0.4,0.4-0.5c0.1,0,0.2,0,0.3-0.1c0.2,0.1,0.4,0.2,0.5,0.4c0.3,1.4,0.4,1.6,1.6,2.7
	c-0.5,1.1-1.2,2.1-1.6,3.2c-0.6,1.6-1,3.3,0.6,4.7c0.3,0.2,0.5,0.6,0.3,0.8c-0.9,1.4,0,2.3,0.7,3.4c0.7,1.2,0.4,2.5-0.1,3.7
	c-0.5,1.2-1,2.3-1.6,3.5c-0.4,0.9-0.5,1.9-2.1,1.7c-1-0.1-1.9,2.1-1.6,3.5c0.8,4.1,1.5,8.1,2.4,12.2c0.6,2.8,1.5,5.5,2.2,8.3
	c-0.2,0.5-0.6,0.8-1.2,0.6c-1.8-3-1.8-6.5-3-9.7c-0.2-0.7-0.3-1.4-0.4-2.1c-0.6-2.9-0.8-3-3.8-2.7c-1.6,1-2.4,4.1-1.6,6.5
	c0.9,2.7,1.7,5.4,2,8.2c-0.2,0.6-0.3,1.2-1.1,1.1c-0.9-1.4-1.4-3.1-2-4.6c-2.1-0.5-2.6-1.2-2-3.5c0.6-1.9,0.5-3.8,0.7-5.7
	c0.1-1.3-0.4-1.5-1.5-1c-1.9,0.8-3.1,1.9-2.8,4.3c0.2,1.5,0.6,3.3-1,5.1c-0.6-2.7-1.3-5-1.4-6.8c0.7,1.5-1,3-1.2,4.9
	c-0.1,1-1.3,0.9-2.2,1.1c-2.4,3.4-4.1,7.3-5.9,11c-0.6,0.4-0.9,0.1-1.2-0.4c-0.3-1,0.3-1.8,0.8-2.7c1.4-2.4,2.6-4.9,4.2-7.2
	c1.6-2.4,2.1-5.1,2.3-7.9c0.1-2-0.5-2.7-2.4-2.5c-1.4,0.1-3.1-0.2-4,1.6c-0.8,2-1.5,4.2-2.6,6.1c-0.3,0.6-0.5,1.9-1.8,1
	c1.2-2.8,2.3-5.7,3.6-8.5c1.1-2.3,0.7-4.8,1.7-7.1c0.2-0.5-0.2-0.9-0.4-1.3c-0.3-0.9-0.9-1.7-0.9-2.7c-0.2-0.8,0.2-1.1,0.8-1.3
	c1.6,0.2,1.6,1.5,2,2.6c0.5,1.5,1.3,1.7,2.3,0.5c1.3-1.5,3.2-2.6,3-5.1c0-0.5,0.6-0.9,0.9-1.3c0.3-0.7,0.5-1.3,0.5-2
	c0-0.8,0.3-2-0.8-2.1c-1.2-0.2-1.9,0.8-1.8,1.9c0.2,1.7-0.5,2.2-2,1.8c-0.7-0.2-1.1-0.8-1.4-1.5c-0.5,1.6-1.4,2.8-2.2,4
	c-0.7,1-1.4,1.5-1.8-0.2c-0.2-0.8-0.3-1.7-0.1-2.6c0.2-0.4,0.5-0.5,0.8-0.8c1.6-1.3,1.5-1.7-0.1-3.2c-0.1-1.1,1-1,1.5-1.5
	c1.4-0.8,1.4-0.8,2.6,0.1c0.1-0.7-0.4-1.4,0-2c0.5-1-0.6-1.1-0.9-1.7c-0.7-1.2-1,0-1.4,0.2c-0.8,0.4-1.4,0.4-1.9-0.4
	c-0.2-1.9-1.4-3.8-0.3-5.8c0.2-0.4,0,0.1-0.1,0c-0.2,0.3-0.4,0.5-0.8,0.5c-0.5-0.2-0.6-0.6-0.6-1.1c0-0.2,0.1-0.4,0.1-0.6
	c0.3-0.7,0.3-1.4,0.4-2.1c0-0.2,0.1-0.4,0.2-0.6c0.2-0.6,0.2-1.2,0.3-1.8c0.3-1.2,0.8-2.4,1-3.6c0.1-0.6,0.3-1.3-0.6-1.5
	c-1.6-0.3-1.5-1.4-1.1-2.6c0.3-0.9,0.8-1.7,1.2-2.6c0.2-0.4,0.5-1.1,0.1-1.3c-2.2-1.2-0.3-2.4-0.2-3.6c-0.5,0-1,0.9-1.6,0.5
	c-0.7-0.6-0.2-1.3,0-2c0.5-1.5,0.8-3.1,1.1-4.7c0.1-0.5,0.2-0.9,0-1.4c-0.8,3.7-2.2,7.4-1.6,11.4c0.1,0.6-0.1,1.3-0.3,1.9
	c-0.3,0.6-0.3,1.6-1.1,1.5c-0.7,0-0.7-0.9-0.8-1.5c-0.3-4.7,0.6-9.2,1.7-13.6c0.4-1.5,0.8-2.9,0.8-4.4
	C26.6,20.5,26.6,19.7,27.6,19.8z"/>
<path class="st2" d="M55.4,23c-0.2-0.2-0.4-0.4-0.5-0.6c1.9-4,4.3-7.4,9.2-8.2c3.7-0.6,6.3,1.9,7.1,4.6c1.4,4.2,0.9,8.4-0.2,12.5
	c-0.5,1.8-1.1,3.5-2,5.1c-3.2,6.2-6.8,12.2-10.6,18.2c-0.4-0.5-0.7-0.4-1.1,0c-0.2,0.2-0.3,0.9-0.8,0.6c-0.5-0.3-0.4-0.8-0.1-1.2
	c0.5-0.7,0.2-1.5,0.2-2.2c0.3-2.3,2.1-3.7,3.4-5.5c-0.8,0.1-1.6,0.9-2.2,0.3c-0.6-0.6,0-1.5,0.2-2.2c0.5-1.6,1.8-2.8,2.1-4.7
	c-2.3,2-2.1,4.9-3.3,7.4c-0.7-5.1-1-10.2,0.1-15.3c1.6,2.2,0.5,4.8,1.3,7c0.3-0.8,0.8-1.8,1.2-2.9c0.4-1.2,1.6-2.3-0.7-3.3
	c-1.1-0.5,0-2.2-0.3-3.6c-1.9,1-2-0.2-2.2-1.6C56,25.8,56.9,24.2,55.4,23z"/>
<path class="st3" d="M38.3,46.3c-1.5-0.5-1.7-0.4-2.4,1c-1.1-2.3-1.2-4.8-1.6-7.2c-0.9-5.5-1.7-11.1-1-16.7c0.3-3,1.3-5.8,3.6-7.9
	c2.8-2.6,7.3-2.6,9.9,0.2c2.3,2.4,3.7,5.4,3.8,8.8c0.1,3.5-0.1,7-1,10.4c-0.4-0.6-0.4-1.2-0.3-1.5c0,1.2-0.5,2.7-0.3,4.2
	c-0.3,2.2-0.6,4.3-0.9,6.5c0-0.7-0.1-1.4-0.1-2.4c-1,1.1-1.5,3-3.3,1.7c-0.3-0.8,0.2-1.3,0.7-1.8c1.6-2.4,1.2-5.5-0.9-7.1
	c-0.9-0.7-1-1.5-1.3-2.4c-0.3-0.9-0.5-2.1-1.8-1.6c-1.1,0.4-2.6,0.9-2,2.6c0.3,1-0.1,1.7-0.5,2.5c-0.2,0.8,0,1.6,0.3,2.3
	c0.4,0.9,0.8,1.7,0.1,2.7c-0.3,0.3-0.3,0.8,0,1.1C40.8,43.6,39.6,44.9,38.3,46.3z"/>
<path class="st4" d="M35.1,95.2c1.6-0.7,2.7-1.7,1.8-3.6c-0.1-0.2-0.1-0.5,0.2-0.5c2.4-0.1,0.7-1.7,0.5-2c-0.9-1.5,0.1-1.5,1-1.8
	c1,1.4-0.3,3.3,0.6,4.2c1.3,1.3,0.1,2.7,1.1,4.1c0.1-2.3,0.4-4.4-0.1-6.4c-0.1-0.6-0.1-1.1,0.5-1.4c1.4-0.7,2.8-1.4,4.2-2.1
	c0.7-0.3,1.2-0.1,1.1,0.7c-0.5,2.5,0.1,5-1,7.4c-0.5,1.2,0,2.2,1.5,3.2c-0.5,0.1-0.6,0.5-0.7,0.9c-0.4,2.8-0.8,5.5-1.4,8.3
	c-0.2,1,0,1.6,1,2c1.2,0.4,1.7,1.4,1.5,2.7c-0.2,1.3-1,2-2.3,1.9c-0.9-0.1-1,0.5-1.1,1.2c-0.2,1.3-0.3,2.5-0.5,3.8
	c-0.4,2.6-1.4,3.6-3.9,4.2c-0.9,0.2-1.7,0.3-2.6,0.4c-2.3,0.1-4.6-0.5-6.9,0.3c-0.1-0.2-0.1-0.3-0.2-0.5c0.6-0.5,1.2-1.1,1.9-1.5
	c3.2-1.9,4.3-5,4.9-8.4c0.1-0.7,0-1.2-0.8-1.7c-1.8-1.1-1.9-2.2-0.4-3.8c0.6-0.6,1.1-1.2,1-2c-0.2-2.8-0.4-5.6-0.6-8.4
	C35.5,95.7,35.3,95.4,35.1,95.2z"/>
<path class="st5" d="M27.3,54.8c0.7-0.2,0.8-0.9,1.2-1.6c0.3,1.1-0.1,1.9-0.2,2.8c-0.1,0.9-0.3,2,0.6,2.6c1.2,0.9-0.2,1.1-0.3,1.6
	c0.4,0.9,1.4,1.5,1.1,2.6c-0.1,0.2-0.3,0.3-0.5,0.4c0.2-0.1,0.4-0.3,0.5-0.4c1.8-0.4,0.8,0.9,0.9,1.6c-0.6,0.5-1.5,0.4-2.1,1.1
	c0.8,1.4-0.1,2.6-0.5,3.9c0.7,1,0.4,2.1,0.5,3.2c0.7,0,0.3-0.8,0.8-0.9c0.7,0.6,0.7,1.3,0.1,1.9c-0.5,0.2-0.8,0.6-1,1.1
	c-0.6-1.2-1.7-2-2.4-3.2c-1.2-2.1-0.8-4.1,0-6.2c1.1-2.5,1.3-5.1,0.1-7.5c-2.1-4.5-4.5-9-6.6-13.5c-2.9-6-5.9-12-6.6-18.8
	c-0.3-2.4-0.3-4.8,0.5-7.1c1.6-4.4,6.1-6,10-3.4c1.1,0.7,2.2,1.6,2.8,2.8c-0.4,0.3-0.6,0.7-0.3,1.2c0.2,1.4,0.4,2.9,0.2,4.3
	c-0.1,1.1-0.5,1.9-1.9,1.1c-0.3-0.2-0.7-0.5-1.1-0.2c-0.4,0.4-0.2,0.9-0.1,1.3c0.1,0.2,0.2,0.4,0.3,0.6c0.4,0.8,1.6,1.6,1.1,2.5
	c-0.6,1.1-1.7-0.5-2.6-0.1c-0.4,0.8,0.2,1.4,0.5,2c0.7,1.3,1.7,2.5-0.6,3.4c-1,0.4-0.3,1.4-0.1,2.1c0.4,1.4,1.8,2.2,2.1,3.7
	c0,0.4-0.2,0.6-0.6,0.8c-1.8,0.3-2.2,1.3-1.7,2.9c0.8,2.4,1.7,4.8,2.8,7c0,0.1,0,0.1,0.1,0.2c0,0.1,0,0.2,0.1,0.2
	c1.2-1.9,1.6-1.1,2,0.5C26.7,52.6,26.2,53.9,27.3,54.8z"/>
<path class="st4" d="M56.6,100.2c0.4-0.2,0.7-0.3,1.1-0.5c1,0.2,2.1,0.3,2.8,1.1c0.6,0.6,0.9,1.4,0.7,2.2c-0.2,0.9-0.9,1.3-1.8,1.1
	c-1-0.2-1.1,0.5-1.1,1.1c0,1.8,0.5,3.5,1.3,5c1.6,3,3.8,5.5,6,8.1c0.6,0.7,1.3,1.3,1.9,2.4c-3.4,1-6.6,1.2-9.9,0.4
	c-0.9-0.2-1.4-0.8-1.9-1.6c-1-2.2-1.8-4.5-3.1-6.5c-0.7-1-1.1-2.1-2.8-2.3c-1.3-0.1-2.2-1.8-1.4-3c1.4-2.2,0.7-4.1,0-6.1
	c0.3-0.3,0.5-0.6,0.8-0.9c1.2,0.7,0.8,2.4,2,3.3c0.8-1.2,0.5-3.2,2.6-3.2C54.9,101.1,55.7,100.2,56.6,100.2z"/>
<path class="st4" d="M28.2,105.6c0.2,0.5,0.5,0.6,1,0.6c0.4,0.7,1.4,0.8,1.9,1.3c0.9,0.9,1,2,0.4,2.8c-0.7,0.9-1.6,1.1-2.8,0.5
	c-1.6-0.8-1.9-0.8-2.8,0.6c-1.5,2.2-2.6,4.6-3.6,7c-0.7,1.7-2,2.4-3.6,2.7c-2.6,0.5-5.2,0.3-7.7-0.5c-0.3-0.9,0.4-1.3,0.8-1.7
	c3-3.5,5.4-7.5,7.4-11.7c0.5-1,0.9-1.8-0.4-2.8c-1.5-1.1-0.5-3.7,1.4-3.9c0.6-0.1,1.2,0,1.6-0.6c1,2.2,3.3,2.4,5.2,3.1
	C27.9,103.6,27.6,104.8,28.2,105.6z"/>
<path class="st6" d="M26.8,103.3c-0.6-0.4-1.3-0.6-2-0.6c-0.5,0-1.1,0.7-1.5,0.2c-0.5-0.6-1.1-1.1-1.2-2c0-0.4,0-0.8-0.3-1.1
	c0.3-0.9,0.6-1.7,1.2-2.4c0.7-0.6,1.2-1.4,1.1-2.4c0-0.4,0.1-0.7,0.4-0.8c1,0.3,1-0.6,1.2-1.1c0.6-1.8,1.8-3.3,2.2-5.2
	c0.1-0.4,0.2-0.8,0.6-1c1.5,2.3,1.3,4.8,0.5,7.1C27.8,97.1,27,100.1,26.8,103.3z"/>
<path class="st1" d="M49,37.7c-0.7-0.6-0.5-1.4-0.4-2.2c0.1-0.9,0.4-1.8,0.7-2.7c0.4,0.8,0.1,1.5,0.3,2.2C49.6,36,49.3,36.9,49,37.7
	z"/>
<path class="st5" d="M27.6,19.8c-0.6,0.4-0.5,1-0.6,1.6c-1.1-0.2-0.8-1.3-1.1-2c0.2-0.4,0.3-0.9,0.8-1.1
	C27.1,18.6,27.5,19.1,27.6,19.8z"/>
<path class="st1" d="M24.1,95.1c0.4,1.2,0,2-1.1,2.4C23.1,96.6,23.6,95.8,24.1,95.1z"/>
<path class="st1" d="M26.7,18.2c-0.1,0.4-0.1,0.9-0.6,1.1c-0.4,0.1-0.6,0-0.4-0.4c-0.3-0.7-0.2-1.1,0.7-1.1
	C26.5,17.8,26.7,18,26.7,18.2z"/>
<path class="st3" d="M36,48.2c0.5,0.4,0.4,1,0.3,1.6C36,49.3,36,48.8,36,48.2z"/>
<path class="st3" d="M36.5,50.6c0.5,0.5,0.4,1,0.3,1.6C36.4,51.7,36.4,51.2,36.5,50.6z"/>
<path class="st7" d="M45.5,41.9c-0.5,0.4-0.6,1-0.9,1.5c-0.3,0.3-0.8,0.8,0,1c0.5,0.2,1.1,0,1.8,0c-0.3,1.8-1.9,2.6-2.6,4.1
	c1,0.4,1.5,1,0.8,2.2c-0.4,0.7-0.4,1.5-0.7,2.3c-0.2,0.5-0.4,1.1-1.2,0.7c-0.4-0.2-1.1,0.1-1.1-1c0.2-2.3-0.3-4.6,0-6.9
	c0.1-1,0.2-1.9,0-2.8c-0.3-1.4-0.1-2.7,0.9-3.7c-0.4-0.6-1.4,0.1-1.4-1c-0.2,0.3-0.4,0.4-0.4,0.5c0,4.8,0,9.5-0.1,14.3
	c0,1.6-0.2,1.7-2,0.9c-0.7-0.3-0.6-1.1-0.8-1.6c-0.5-0.9-0.6-1.8,0.7-1.8c1.3,0,1.2-0.6,0.8-1.5c-0.4-0.9-0.8-1.9-1.1-2.8
	c0.3-0.6-1-1.9,0.9-1.7c0.4,0.1,0.6-0.7,0.2-1.2c-0.5-0.7-1-1.4-1.3-2.3c-0.4-1,0-1.4,1.4-1.1c-0.9-1.6-1.8-3-1.5-4.6
	c1.2-0.2,1.7-1,1.5-2.2c0.2-0.5,0.3-1.1,0.4-1.6c0.4-0.8,0.7-1.9,1.7-1.7c1.2,0.2,1.4,1.4,1.5,2.4c0.1,1,0.2,2.1,0.1,3.1
	c2.6-0.8,3.1-0.5,2.5,2.1c-0.1,0.5-0.2,0.6,0.3,1.2C46.9,39.8,46.5,41.1,45.5,41.9z"/>
<path class="st8" d="M26.8,103.3c-0.9-1.7-0.1-3.6-0.1-5.4c0-1.3,1.3-2.4,1.6-3.8c0.2-0.7,0.4-1.4,0.4-2.2c0.1-1.7,0-3.4-0.3-5
	c0.3-1.3,1-2.1,2.5-1.8c0.7,0.1,1.4,0,2.1-0.2c2.1-0.4,3.2,0.6,3.1,2.8c-0.2,3.4-1.2,6.5-3.1,9.3c-1.8,2.7-3.4,5.5-4.8,8.5
	c-0.6,0.1-0.9-0.2-0.9-0.7C27.3,104.3,27.1,103.8,26.8,103.3z"/>
<path class="st9" d="M55.4,23c0.4-0.4,0.9-1.4,1.2-0.1c0.2,1.1,0.1,2.2,0.1,3.3c0,0.9-0.3,1.7,0.1,2.6c1,0,0.9-1.5,2.1-1.5
	c0.7,1.7-0.3,3.3-0.3,5c0.9,0.5,1.3-0.6,2-0.4c0.3,1.9-0.7,4.8-2.9,7.9c-0.7-2.5-0.7-5.1-0.8-7.7c-0.6,4.8,0.1,9.5-0.3,14.3
	c0.4-3.3,1.1-6.4,4.3-8.7c-0.1,3.3-2.6,5.4-3.1,8.3c1,0.1,1.7-1.1,3-0.7c0,1.5-1.4,2.1-2.1,3.2c-0.7,1-1.2,2.2-2.2,3.1c0,0,0,0,0,0
	c-0.7-0.5-0.6-1.3-0.9-1.9c0-0.5-0.3-0.9-0.6-1.3c-1.3-2-1.3-2,1.3-2.2C55.4,44,53,42.6,52.8,40c0.3-0.1,0.5-0.2,0.6-0.1
	c0.8,0.1,1.4,1.6,2.2,0.6c0.6-0.8-0.4-1.6-0.8-2.3c-0.7-1.1-1.7-2.1-1.6-3.6c0.9-0.5,1.5,0.4,2.4,0.6c-0.1-1.7-1.6-3-1.3-4.7
	c0.8-0.2,0.9,0.9,1.8,0.7C55.1,28.5,55.1,25.8,55.4,23z"/>
<path class="st10" d="M40,73.2c-0.7-0.4-1.3,0.4-2,0.3c0-0.5,0.2-0.8,0.5-0.9c1-0.5,1.7-1,2-2.3c0.2-1.1,0.4-2.1,0-3.2
	c-0.1-0.1-0.1-0.3-0.1-0.5C40,65.8,40.4,64.8,40,64c-1.2,0.6-2.1-0.7-3.3-0.4c-0.9,0.3-1.5-0.1-0.8-1.2c0.2-0.3,0.4-0.6,0.4-1.1
	c-0.1-0.7-0.5-1.8,0.4-2.1c1-0.2,2.1-0.2,3.1,0.5c0.8,0.5,1.2,1.8,2.4,1.7c1.3-0.1,2.4-0.8,3.5-1.4c0.4-0.2,0.7-0.7,1.3-0.6
	c0.6,0.2,0.5,1,1,1.3c0.9,0.6,0.8,1.2,0.6,2.3c-0.6,2.4-1.4,3-3.7,2.2c-0.3-0.1-0.5-0.3-1-0.5c-0.1,1.1,0.6,2.4-0.2,3
	c-1.2,0.9-0.1,2.1-0.7,2.9c-0.8,0.9,0.3,2-0.4,2.8C41.7,73.5,40.8,73.6,40,73.2z"/>
<path class="st11" d="M57.4,67.6c-0.9-0.6-1.7-0.5-2.7-0.1c-1,0.4-1.8,0.1-2-1.1c-0.1-0.9-0.9-1.3-1.5-1.7c-0.9-0.7-2-1.2-0.9-2.6
	c0.3-0.4-0.1-0.5-0.4-0.7c-1.2-0.6-1.6-1.6-1.8-2.9c-0.2-1.2-1-1.5-1.7-0.6c-1,1.3-2.6,1.5-3.7,2.5c-0.5,0.4-0.6,0-0.8-0.4
	c-0.5-1-1.4-1.4-2.4-1.6c-2.3-0.5-2.3-0.4-1.9-3c0.6,1,1.2,1.3,2,0.4c2.1,0.5,4.1-0.4,6.3-0.1c1.1,0.2,2.2-0.1,2.8,1.3
	c0.3,0.6,1.3,1.5,2.5,0.7c0.2-0.1,1.8,0,1.9,0.4c0,0.9,1.6,1.3,0.9,2.4c-0.1,0.1-0.2,0.3-0.2,0.4c0.1,0.8,1.2-0.4,1.3,0.7
	c0,0.5-0.6,1.4,0.4,1.6c1.4,0.3,0.8,0.8,0.3,1.4c-0.3,0.3-0.6,0.5-0.9,0.8C55.6,66.3,57.2,66.1,57.4,67.6L57.4,67.6z"/>
<path class="st12" d="M56.6,100.2c-0.7,0.5-1,2-2.4,0.9c-2.6-0.1-3.5-2.3-3.9-4.1c-0.6-3.1-1.6-6.1-2.4-9.2
	c-0.3-1.2-0.3-2.2,1.1-2.6c0.4-0.2,0.7-0.2,1.1-0.2c2.7,0,2.7-0.1,3.4,2.6C54.6,91.8,55.6,96,56.6,100.2z"/>
<path class="st13" d="M47.2,78.6c0.1-1.1-0.8-1.9-0.7-3c0.5-0.6,1.3,0.4,1.9-0.1c-0.1-0.2-0.2-0.4-0.3-0.5c-0.9-0.8-2.6-0.5-2.9-2.1
	c-0.7-2.3,0.9-2.6,2.5-2.9l0,0c0.3-0.4,0.8-0.7,1.2-1c0.2-0.2,0.4-0.5,0.6-0.7c0.1-0.1,0.2-0.1,0.2-0.2c0.6-0.2,1.2-0.8,1.9,0.1
	c3.1,3.8,1.6,10.1-3,12.2C47.9,79.8,48.2,78.7,47.2,78.6L47.2,78.6z"/>
<path class="st14" d="M25.6,18.9c0,0.3,0.2,0.4,0.4,0.4c0.3,0.7,0.6,1.4,0.9,2c0,2.4-0.9,4.6-1.5,7c-0.8,3.7-1,7.4-1.1,11.1
	c-0.2,0.4-0.3,0.8-0.9,0.5c-1-1.3-2.2-2.5-2.7-4.2c-0.7-2.2-0.4-2.5,2.2-2.7c-0.4-1.1-1.1-1.9-1.6-2.8c-0.3-0.7-1.2-1.5-0.3-2.3
	c0.9-0.8,1.4,0.1,2.1,0.5c0.3,0.2,0.5,0.6,1.1,0.4c-0.5-0.7-0.9-1.3-1.3-1.9c-0.3-0.5-0.7-0.9-0.7-1.5c0-0.8-0.5-1.7,0.5-2.1
	c0.8-0.4,1.3,0.4,1.8,0.8c0.2,0.2,0.4,0.5,1.1,0.4c0.3-1.4,0-2.8-0.1-4.3C25.5,19.7,25,19.2,25.6,18.9z"/>
<path class="st15" d="M31.1,37.1c1.1,5.4,1.6,10.6,2.8,15.6c0.5,1.9-1.8,3.8-3.5,3.2c-0.7-0.3-1-1.1-1-1.8c-0.2-3-0.5-6,0.9-8.9
	c0.2-0.5,0.3-1.1,0.5-1.6c0.2-1,0.2-1.8-1.1-1.8c-0.8,0-0.9-0.5-0.7-1.2C29.4,39.5,29.9,38.4,31.1,37.1z"/>
<path class="st16" d="M29.4,73.6c0-0.6,0-1.3-0.1-1.9c1-1,1.4-2.3,2.2-3.4c0.4-0.6,0.7-1,1.5-1.3c0.4,0.8-1,1.9,0.4,2.3
	c0.7,0.6,1.6,0.4,2.4,0.4c0.8,0,1.7-0.1,2.3,0.7c-0.3,0.7-1.5,0.9-0.8,2.2c0.2,0.5-0.7,1.7-1.3,2.4c-1,0.9-2,1.8-2.8,2.9
	c-0.7,0.9-1.3,0.5-1.7-0.2c-0.6-0.8-1-1.7-1-2.6C30.4,74.2,29.8,74.1,29.4,73.6z"/>
<path class="st17" d="M49.1,85.2c-0.5,0.6-1.1,1-0.7,2c0.8,2.2,1.4,4.4,2.1,6.6c0.2,0.5,0.4,1,0.2,1.6c-0.3,1.3,0.7,2.2,1.1,3.3
	c0.5,1.3,1.5,1.7,2.5,2.3c-1-0.1-1.6,0.4-1.8,1.4c-0.1,0.5-0.1,0.9-0.1,1.4c0,0.5-0.2,0.9-0.8,1c-0.5,0-0.9-0.2-1.1-0.7
	c-0.4-1.2-0.7-2.4-1.1-3.6c-0.2-1-1.2-1.9-0.5-3.1c0.1-0.3-0.1-0.6-0.4-0.8c-0.7-0.5-0.9-1.1-0.6-1.8c0.2-0.5,0.1-0.9-0.2-1.3
	c-1.5-2.5-0.6-5,0-7.5C47.8,85.2,48.4,85.3,49.1,85.2z"/>
<path class="st18" d="M25.5,39c0.1-0.8,0.5-1.7-0.2-2.5c-0.1-0.1-0.1-0.5-0.1-0.7c0.7-3.7,1-7.6,2.4-11.2c0-0.1,0.2-0.2,0.5-0.5
	c0.7,3.6-0.4,6.7-1.7,10.1c1.4-0.5,1.6-2,3-2.2c-0.1,1.7-1.1,2.9-1.6,4.4c0.2,0.4,0.5,0.3,0.8,0.2c0.8-0.3,1.3-0.2,0.9,0.8
	c-0.6,1.4-1.3,2.7-1.9,4.1c-0.5,1.3-0.2,1.7,1.2,1.9c0,0.9-0.7,0.9-1.3,0.8c-1-0.2-0.8-0.9-0.8-1.6c0-0.1,0-0.3,0-0.4
	c0-0.2,0-0.4,0.1-0.6c-0.2,0.2,0,0.4-0.1,0.7c-0.1,0.5,0.2,1.2-0.7,1.3C24.6,42.1,25.2,40.5,25.5,39z"/>
<path class="st19" d="M40,73.2c0.9,0,1.7,0,2.6,0c-0.3,0.2-0.5,0.4-0.8,0.5c-0.4,0.1-1-0.2-0.8,0.7c0.1,0.6,0.2,1.1,0.9,1.1
	c1.4,0,2.7,0.1,3.5,1.5l-0.1,0.1c-2.1,0-4.2,0.7-6.3,0.1c-1.1-0.3-1.4,0.8-1.8,1.5c-1,1.7-2.1,3.2-3.8,4.2c-0.4,0.3-0.8,0.6-1.3,0.5
	c-0.7-0.2-1.6,0.2-1.9-0.6c-0.3-0.7-0.2-1.4,0.5-1.9c0.6,0.1,0.6,0.7,0.9,1c0.7,0.6,1.4,0.6,1.7-0.2c0.7-2,2.8-3.1,3.1-5.3
	c0-0.3,0.3-0.6,0.7-0.4c0.9,0.5,1.4-0.5,2.2-0.4c1,0.1,2-0.1,0.6-1.3C39.4,74,40,73.6,40,73.2z"/>
<path class="st20" d="M26,43.3c0.5-0.4,0.4-0.9,0.4-1.4c0.1-0.2,0.3-0.2,0.5-0.1C27,44,27,44,28.8,43.3c1.1-0.4,1,0.5,0.9,1
	c-0.3,1.6-0.8,3.2-1.4,4.7c-0.5,0.5,0,1.3-0.5,1.9l0,0.1c-0.6,0.7,0.1,1.6-0.5,2.3l0,0.1c-1.7-2.3-2.3-4.8-0.8-8
	c-0.1,0.2-0.6,0.2-0.3,0.4c0.1,0.1,0.1,0.1,0.1,0.2c-0.3,0.7-0.7,1-1,0.2C24.7,45.1,24.9,44,26,43.3z"/>
<path class="st21" d="M39.5,86.2c-2.5-0.7-3.2-2.5-1.8-4.8c0.4,1.5,1.5,1.8,2.9,1.9c1.4,0,2.8,0.4,3.5-1.4c1.1,2.2,0.9,2.6-0.9,3.7
	c-0.7,0.5-1.5,0.5-2.3,0.7C40.4,86.4,39.9,86.5,39.5,86.2z"/>
<path class="st22" d="M26,43.3c-0.2,0.5-0.3,1.1-0.4,1.6c-0.1,0.4,0,0.8,0,1.2c0.6,0.3,0.6-0.7,1.1-0.4c-0.9,2.6-0.6,5.2,0.7,7.8
	c0,0.5,0,0.9,0,1.4c-0.9,0.8-1.2,0-1.2-0.6c0.2-1.3-0.7-2.5-0.1-4c-1.4,0.5-0.7,1.5-1.1,2.1c-0.7-0.4-0.7-0.9-0.9-1.4
	c-0.4-3.5,0.2-7-0.9-10.4c0.2-0.2,0.3-0.3,0.5-0.5c0.3-0.2,0.6-0.4,0.9-0.5c0.1,0.4,0.1,0.7,0.2,1.1c0.5-0.4,0.2-1.2,0.8-1.5
	C25.6,40.4,25.8,41.9,26,43.3z"/>
<path class="st23" d="M38.1,70.3c-1.6-0.3-3.4,0.6-4.7-1.1c1.6-0.1,1.6-0.1,1.3-1.4c-0.2-0.7,0.9-2.3,1.8-2.7c1-0.4,1.8-0.1,2.6,0.5
	c-0.8,0.8,0.6,1.9-0.2,2.6C38.1,68.9,38.6,69.7,38.1,70.3z"/>
<path class="st24" d="M30.7,64.3c-0.1-0.3-0.2-0.6-0.2-0.9c0-0.9-0.5-0.5-0.9-0.4l0,0c0-1.1-1.2-1.7-0.9-2.9
	c0.8,0.4,1.5,0.6,1.9-0.4c0.2-0.5,0.5-1,1.1-1.2c0.6,0.3,0.2,0.8,0.3,1.2c0.1,0.4,0.2,0.9,0.7,0.7c2-0.6,1.2,0.5,0.7,1.2
	c-0.3,0.5-0.6,0.9-0.5,1.5c0.3,1.4,0.3,1.4-1.2,2c-0.7-0.6,0.4-1,0.3-1.5C31.3,63.3,31.1,64.1,30.7,64.3z"/>
<path class="st25" d="M45.4,77c0.8,0.2,1,1.3,1.9,1.5c0,0,0,0,0,0c-0.1,1.2,0.7,2.1,1,3.1c0.5,1.3,1.9,1.1,3,1.5
	C49,84.2,48,84,46.7,82.6c-0.6-0.7-1.4-1.1-1.7-2.3c-0.2-1.2,0.4-2.1,0.2-3.2C45.3,77.1,45.4,77,45.4,77z"/>
<path class="st26" d="M28.1,69.3c-0.3-0.3-1.3-0.6-0.5-1.2c0.9-0.7,1.2-1.1,0.3-2c-0.4-0.4,0.3-0.6,0.6-0.7c0.6,0.2,1.6-0.4,1.9,0.6
	c0.2,0.9,0.3,1.9-0.6,2.7C29.3,69.1,28.8,69.3,28.1,69.3z"/>
<path class="st11" d="M55.8,73.8c-0.7,0.1,0-1.6-1.2-0.7c-0.2,0.1-0.5-0.1-0.4-0.4c0.2-0.4,0.1-1,0.6-1.2c1.8-0.8-0.2-0.8-0.2-1.3
	c0.1-0.5,0.7-0.1,0.9-0.4c0.6-0.7,0.9,0.2,1.3,0.3c0.8,0.2,0.3,0.7,0.1,1.1C56.6,72.1,56.2,73,55.8,73.8z"/>
<path class="st27" d="M47.8,68.5c-0.4-0.8-1.3-0.8-2.4-1.3c0.9-0.1,1.3-0.2,1.8-0.2c0.5,0,0.8-0.1,0.9-0.7c0.2-0.8,1.4-0.9,2-0.3
	c0.2,0.2,0.2,0.5,0,0.5c-2,0-0.5,1-0.5,1.6c0,0,0,0,0,0c-0.4,0.4-0.8,0.6-1.3,0.7C48.2,68.7,48,68.6,47.8,68.5z"/>
<path class="st9" d="M55.7,53.6c-0.1,0.3-0.2,0.6-0.4,1c-0.8-0.8-1.1-1.7-1.5-2.5c-0.5-1.1-0.2-1.4,1.1-1.1c0.2,0,0.4,0.1,0.6,0.2
	c0.4,0,0.6,0.2,0.6,0.7c0,0.2-0.1,0.3-0.1,0.5C55.7,52.6,55.9,53.1,55.7,53.6z"/>
<path class="st28" d="M38.8,82c1.3-1,2.3-0.4,3.3-0.5c0.3,0,0.6,0.1,0.6,0.5c0,0.4-0.3,0.6-0.6,0.6C41.1,82.5,40.1,82.5,38.8,82z"/>
<path class="st10" d="M47.7,69.9c-1.4,0.5-2.3,1.4-2.5,2.9c-1.2-2.2-0.9-2.8,1.6-3C47.1,69.8,47.4,69.9,47.7,69.9z"/>
<path class="st10" d="M47.8,68.5c0.2,0,0.3,0,0.5-0.1c0.6-0.1,1,0.2,1.3,0.5c-0.4,0.7-1.1,0.9-1.9,1C47.6,69.4,47.4,68.9,47.8,68.5z
	"/>
<path class="st3" d="M37.9,52.4c0.4,0.5,0.7,1,0.8,1.6c-0.2,0.2-0.5,0.4-0.7,0.6c-0.1-0.3-0.4-0.5-0.4-0.8
	C37.6,53.3,37.8,52.9,37.9,52.4z"/>
<path class="st10" d="M45.7,69.1c-0.2,0.3-0.5,0.2-0.8,0.1c-0.3-0.1-0.4-0.3-0.3-0.5c0.1-0.3,0.3-0.6,0.7-0.4
	C45.6,68.5,45.8,68.8,45.7,69.1z"/>
<path class="st2" d="M56.2,51.7c-0.2-0.2-0.4-0.4-0.6-0.7c0-0.4,0-0.9,0-1.3c0.4,0.6,0.8,1.2,0.9,1.9C56.4,51.7,56.3,51.7,56.2,51.7
	z"/>
<path class="st22" d="M27.3,53.4c0-0.8-0.3-1.7,0.5-2.3C27.7,51.8,28,52.7,27.3,53.4z"/>
<path class="st11" d="M57.4,67.6c0.5,0.4,0.5,0.9,0.1,1.7C57.4,68.5,57.4,68.1,57.4,67.6C57.4,67.6,57.4,67.6,57.4,67.6z"/>
<path class="st22" d="M27.8,51c0-0.7-0.1-1.4,0.5-1.9C28.3,49.7,28.5,50.4,27.8,51z"/>
<path class="st2" d="M55.7,53.6c-0.1-0.5-0.1-1,0.3-1.4C56.1,52.7,56.2,53.2,55.7,53.6z"/>
<path class="st4" d="M39.5,86.2c0.5,0,0.9,0.1,1.4,0.1C40.3,86.7,39.9,86.7,39.5,86.2z"/>
<path class="st1" d="M40,33.5c-0.1,0.8,0.2,1.6,0.4,2.5c-1,0.2-1.5-0.7-2.3-0.5c0.1-0.9,2-1.6,0.2-2.7c-0.3-0.2,0.4-0.7,0.6-1.2
	c0.4-1.3,1.7-1.5,2.6-2c0.6-0.4,1.5,0.2,1.8,1.1c0.2,0.6,0.4,1.2,0.5,1.8c0.1,0.9,0.3,1.3,1.2,1.7c1,0.5,1.9,1.3,1.7,2.8
	c-0.2,1.4,0.6,2.8-0.1,4.2c-0.3,0.5-0.6,0.7-1.1,0.7c0.2-0.9,0.9-1.7,0.6-2.7c-0.6-0.4-1,0.5-1.7,0.2c0.5-1.2,1.4-2.4,1.3-4
	c-1.4,0-1.7,1.7-3.1,1.7c-0.1-2.3,1.3-4.9-0.8-6.9c-0.9,0.2-0.9,1.1-1.4,1.6C40,32.4,40.2,33,40,33.5z"/>
<path class="st29" d="M23,40.4c0.9,0.6,1.3,1.6,1.3,2.6c0.1,2.4,0,4.9,0,7.3c0,0.2-0.3,0.4-0.4,0.5c-1.3-2.3-2.3-4.7-2.9-7.2
	c-0.1-0.5-0.2-1.1-0.3-1.6C20.8,40.3,21.1,40.2,23,40.4z"/>
<path class="st24" d="M29.6,63c-0.1,0.4,0.1,1.2-0.4,1.1c-0.8-0.2-1.2-0.9-0.9-1.8C28.9,62.2,29.1,62.8,29.6,63
	C29.6,63,29.6,63,29.6,63z"/>
<path class="st3" d="M40,33.5c0-0.6-0.2-1.2,0.4-1.6C40.4,32.5,40.4,33,40,33.5z"/>
<path class="st1" d="M49.7,68.9c-0.4-0.2-0.9-0.3-1.3-0.5c0.4-0.5,1-0.2,1.4-0.4C49.7,68.3,49.7,68.6,49.7,68.9z"/>
<path class="st22" d="M26.9,41.8c-0.2,0-0.3,0.1-0.5,0.1c0-0.7,0-1.4,0-2.2C28,40.3,26.7,41.2,26.9,41.8z"/>
</svg>
