<?xml version="1.0" encoding="utf-8"?>
<!-- Generator: Adobe Illustrator 23.1.1, SVG Export Plug-In . SVG Version: 6.00 Build 0)  -->
<svg version="1.1" id="Livello_1" xmlns="http://www.w3.org/2000/svg" xmlns:xlink="http://www.w3.org/1999/xlink" x="0px" y="0px"
	 viewBox="0 0 80 135" style="enable-background:new 0 0 80 135;" xml:space="preserve">
<style type="text/css">
	.st0{fill:#FFFFFF;stroke:#000000;stroke-width:0.2509;stroke-miterlimit:10;}
	.st1{fill:#4C554B;}
	.st2{fill:#4A584A;}
	.st3{fill:#4C4E47;}
	.st4{fill:#454E45;}
	.st5{fill:#565D50;}
	.st6{fill:#674645;}
	.st7{fill:#576C50;}
	.st8{fill:#A05D63;}
	.st9{fill:#CCB53C;}
	.st10{fill:#DF4F56;}
	.st11{fill:#EEDF34;}
	.st12{fill:#F2E333;}
	.st13{fill:#BB5D63;}
	.st14{fill:#E75C54;}
	.st15{fill:#ECD93D;}
	.st16{fill:#EE5258;}
	.st17{fill:#A18C40;}
	.st18{fill:#EEDC40;}
	.st19{fill:#E2504E;}
	.st20{fill:#EDDB40;}
	.st21{fill:#B59A3D;}
	.st22{fill:#ECDE38;}
	.st23{fill:#ED5A56;}
	.st24{fill:#C45965;}
	.st25{fill:#EDE241;}
	.st26{fill:#EE5454;}
	.st27{fill:#EEE434;}
	.st28{fill:#877A48;}
	.st29{fill:#A74A52;}
	.st30{fill:#EEE747;}
</style>
<path class="st0" d="M71.5,135h-63c-4.7,0-8.5-3.8-8.5-8.5V8.5C0,3.8,3.8,0,8.5,0h63C76.2,0,80,3.8,80,8.5v118
	C80,131.2,76.2,135,71.5,135z"/>
<path class="st1" d="M51.5,57.9c-1.5-0.7-1.9-2-1.9-3.5c0-1.7-0.1-3.4,0.3-5c0.2-1.2,0.1-2.1-0.7-3.1c-1.3-1.6-1.1-2.8,0.6-3.7
	c1.2-0.6,1.5-1.5,1.7-2.6c0.8-3.7,1.6-7.3,2.3-11c0.7-3.3,1.9-6.4,3.3-9.5c1.3-2.7,3.4-4.8,5.9-6.5c1.2-0.8,2.5-1.3,4-1.4
	c2.6-0.1,4.5,1.4,5,3.9c0.1,0.7,0.2,1.5,0.1,2.1c-0.5,3.2-0.5,6.5-1.7,9.6c-0.2,0.4-0.4,0.7-0.2,1.1c0.8,1.8-0.5,2.6-1.5,3.6
	c-1,0.9-2.4,1.6-2,3.4c0.1,0.4-0.3,1.1-0.7,1.4c-1.6,1.3-2,3.2-2.8,5c-0.8,1.8-1.7,3.6-2.8,5.3c-0.4,0.7-0.2,1.1,0,1.8
	c0.8,2.1,0.4,3-1.6,3.6c-1,0.3-1.2,0.8-1.2,1.7c0.1,2.3,0.3,4.6,0.8,6.9c0.2,1.2-0.2,1.7-1.2,1.3C55,61.5,52.7,60.3,51.5,57.9
	c1.9-0.2,2.7,1.7,4.8,2.4c-1.4-2-2.2-3.7-4.2-4.6C51.2,56.3,52.3,57.4,51.5,57.9z"/>
<path class="st2" d="M70.8,110.2c1.9,2.8,1.9,7.4,0.2,10.2c-1.9,3-5.8,2.9-8.4,1.9c-4.3-1.7-6.7-5.2-8.7-9.1
	c-2.2-4.5-3.3-9.5-4.2-14.4c-0.3-1.6-0.8-3.1-0.7-4.7c0-0.7-0.3-1-0.8-1.3c-0.7-0.4-1.3-0.9-1.5-1.7c0-1.1,0.7-0.4,1.1-0.4
	c1.3,0.5,2.3-0.3,3.3-1c0.4-0.3,0.8-0.8,1.4-0.7c0.6,0.5,1,1.2,1.4,1.8c0.7,1,1.6,1.9,1.2,3.2c0.3,1.8,0.6,3.5,1.4,5.2
	c0.1,0.2,0.2,0.3,0.4,0.5c1.5,0.2,2.4,0.8,2.6,2.6c0.2,1.5,0.3,3.6,3,3.2c0.9-0.1,1.2,1.3,1.7,2.1c0.6,0.9,1,1.9,2.3,1.3
	c1-0.4,1.4,0.5,1.7,1.2c0.4,0.9,0.8,1.9,1.7,2.5c0.3,0.2,0.5,0.2,0.2,0c0,0,0.1-0.3,0-0.5c-0.1-0.6-0.4-1.3,0-1.9
	C70.4,110,70.6,110,70.8,110.2z"/>
<path class="st3" d="M17.8,91.3c0-0.8,0.6-1.5,1-2.1c0.7-1.2,1.3-2.2,0.4-3.7c-0.7-1.2,0.1-2.5,1.7-2.8c1.3-0.3,1.4-1,1.4-2
	c-0.1-2.1-0.2-4.1-0.7-6.2c-0.5-1.9,0-2.4,1.7-1.7c2.9,1.2,5.3,3.2,6.9,6c0.2,0.4,0.4,0.9,0.4,1.4c0,1.6,0.1,3.2-0.2,4.8
	c-0.2,1.6-0.3,2.8,0.9,4.2c1,1.1,0.7,2.5-0.8,3.2c-1.3,0.7-1.5,1.7-1.8,2.8c-1.1,5-2,10-3.6,14.9c-1.2,3.7-2.4,7.3-5.5,9.9
	c-0.8,0.7-1.5,1.4-2.5,1.8c-0.2,0.1-0.6,0-0.6-0.2c0.1-3.1-1.1-6.1-0.1-9.2c-1.9-1.2-3.5-0.8-5.2,0.5c-1.3,0.9-2,0.4-1.6-1.2
	c1.9-1.2,3.3-2.8,4.3-4.8c0.2-0.2,0.4-0.3,0.6-0.3c1.4,0.1,0.6,1.6,1.3,2.3c1.9-1.4,0.7-3.6,1.4-5.2c0.1-0.2,0.3-0.3,0.5-0.4
	c0.4-0.1,0.8,0.1,1,0.4c0.7,1,1.1,0.6,1.3-0.3c0.2-0.6,0.1-1.3,0.2-1.9c0.1-1.2,0.1-2.3,2.1-1.8c1.7,0.4,1.5-1.6,2-2.7
	c0.4-1.5,0.1-3,0.6-4.5c0-0.3,0.3-0.5,0.4-0.8c0.1-0.1,0.1-0.3,0.2-0.4c-0.2-0.1-0.2,0-0.2,0.2c0.1,0.3,0-0.1-0.1,0.2
	c-0.5,0.4-0.4,1.2-0.8,1.6c-0.2,0.1-0.4,0.2-0.6,0.2c-0.3-0.1-0.6-0.3-0.8-0.6c-0.1-0.2-0.1-0.4,0-0.6c0.1-0.1,0.1-0.4,0.1-0.4
	c-0.4-0.1-0.6,0.2-0.9,0.4c-1.7,0.7-3.1,1.9-4.9,2.1c-0.5-0.3-0.6-0.6-0.3-1.1l0,0c0.5-0.6,1.2-0.9,1.9-1.3c1.1-0.9,2.3-1.3,3.6-1.9
	c0.5-0.2,1.5-0.2,0.9-1.2c-0.5-0.9-1.2-0.9-2-0.4c-1,0.6-1.3,1.8-2,2.7c-0.3,0.4-0.5,0.8-1.1,0.9C17.9,91.9,17.7,91.7,17.8,91.3z"/>
<path class="st4" d="M32.4,43c0.2,0.4,0.9,0.2,1,0.9c0.2,1.1-0.7,0.6-1.1,0.8c-2.5,0.2-2.8,0.6-2.2,2.9c0.2,0.6,0.4,1.2,0.4,1.9
	c0,0.5-0.1,1-0.5,1.2c-0.4,0.2-0.8-0.1-1-0.4c-1.4-1.8-2.2-0.4-3.1,0.6c-1.3,0.5-1.8-0.3-2-1.3c-0.2-1.1-0.7,0-1-0.3
	c-0.6-0.5-0.6-1.2-0.8-1.9c0.2-0.4,0.6-0.6,1.1-0.7c0.7-0.2,1.3,1,1.9,0.2c0.5-0.6-0.2-1.1-0.4-1.7c-0.1-0.3-0.2-0.6,0-0.9
	c0.9-0.4,1.5,0.1,1.7,0.5c-1.8-1.1-1.5-3.3-1.7-5.2c-0.8-1.9-0.6-4.3-3.4-4.8c-0.6-0.1-0.4-1.3-0.7-1.9c-0.6-1.2-0.2-3.4-2.9-2.8
	c-0.8,0.2-1.2-1.1-1.6-1.9c-0.6-1.2-1.2-2.2-2.9-1.9c-1.3,0.2-1.6-0.8-1.4-1.9c2.3-1.4,3-1.2,6,1.8c0-1.4,0.1-2.6-0.5-3.8
	c-0.4-0.7-0.3-1.7,0.4-1.9c2.2-0.8,1.4-2.5,1.5-4c0.1-0.9-0.1-1.8,1.1-1.9l0,0c0.5,0.6,1.2,1.1,1.8,1.6l0,0c0.3,0.3,0.4,0.7,0.3,1.1
	c-0.2,1.2,0.7-0.2,0.7,0.3c1.8,1.8,2.8,4,3.7,6.3c2.1,5.2,3.3,10.6,3.9,16.1c0.1,0.7,0,1.4,0.4,2.1C31.7,42.4,31.9,42.8,32.4,43z"/>
<path class="st5" d="M20.4,14.5c-0.4,0.3-0.8,0.8-0.7,1.2c0.4,1.2,0.1,2.3,0,3.4c-0.1,0.7-0.2,0.9-1,1.2c-0.7,0.3-1.3,0.7-0.9,1.6
	c0.2,0.5,0.2,1.1,0.6,1.5c0.2,0.2,0.6,0.6,0.3,0.8c-1.2,0.8,1.4,2.5-0.9,3.1c-0.4-0.8-1.1-1.5-1.7-2.3c-0.7-0.8-1.2-1.8-2.5-0.7
	c-0.5,0.4-0.9-0.9-1.4-0.1c-1.2,0-1.4-1.2-2-1.7c0.8,2.3,3.2,3.8,3.8,6.5c-0.1,0.5-0.5,0.7-0.8,1c0,0.9,1.8,4.2,2.5,4.7
	c1.1,0.7,2.4,1.2,2.2,3c-0.1,0.8,0.8,1.1,1.4,1.4c0.7,0.5,1.7,0.6,2.2,1.4c0.1,0.8-0.6,1-1.1,1.4c-0.2,0.1-0.4,0.1-0.6,0.1
	c-0.9-1.4-2.2-2.2-3.6-3c-0.6-0.3-1.1-0.8-0.7-1.5c0.6-0.9,0.2-1.2-0.6-1.5c-0.7-0.3-1.4-0.8-2.1-1.2c-0.6-0.4-1.3-0.8-0.6-1.7
	c0.4-0.5,0.1-0.8-0.2-1.2c-0.5-0.5-1-1-1.4-1.6c-0.2-0.3-0.5-1-0.4-1c1.8-1.5,0-2.4-0.6-3.4C8,23.2,7.3,20.3,8,17.1
	c0.6-3.2,2.7-5,5.9-5C16.4,12.1,18.6,12.9,20.4,14.5z"/>
<path class="st6" d="M52.4,89c-0.4,0.2-0.5,0.9-1,0.9c-1-1.2-1.7-2.5-1.8-4.1c0-0.6-0.1-1.2,0.5-1.5c0.6-0.4,1.1,0.2,1.4,0.6
	c0.8,1.1,1.5,1.1,2.1-0.2c0.5-1.2,1.6-1.4,2.9-1.7c-3-0.6-2.6-3-2.7-5.1c-1.4,0.2-2,1.1-2.3,2.2c-0.7,2.5-2.4,4.6-1.9,7.5
	c0.2,1.2-1.1,2.2-1.8,3.2c-0.3,0-0.7-0.5-1,0c-0.7-0.9-0.7-1.8,0.2-2.5c0.9-0.6,0.9-1.5,0.9-2.3c0.1-2.4,0.4-4.8,0.2-7.2
	c-0.1-2.5,1-4.1,3-5.2c1.8-1,3.7-1.7,5.8-1.8c0.7,0.7,0,1.1-0.2,1.6c-0.7,1.7-1,3.5-0.9,5.4c0.1,0.9,0.2,1.6,1.2,2
	c1.5,0.6,1.9,2.1,0.9,3.5c-0.6,0.9-0.6,1.5-0.2,2.4c0.6,1.2,1,2.5,1.5,3.8c0.9,2.2,2,4.2,4.3,5.2c1.2,0.5,1.5,1.4,0.4,2.5
	c0.9,0.5,1.8,1,2.6,1.5c0.8,0.5,2,0.9,1.1,2.3c-0.4,0.6,0.5,0.8,0.8,1.3c0.6,0.9,2.2,1.7,0.6,3.1c-0.4,0.4,0.1,0.7,0.3,1
	c0.6,0.8,1.2,1.7,1.4,2.7c0,0-0.2,0-0.2,0l-0.2,0c-1.9-0.9-3-2.7-2.8-5c-1.5-1.9-1.5-4.9-4.3-5.8c-0.4-0.1-0.7-0.5-0.7-0.9
	c0.2-2.2-1.5-2.7-3-3.5c-1.6-0.8-3-1.8-4.2-3.2c-0.2-0.2-0.5-0.5-0.7-0.7C53.9,90.5,53.3,89.6,52.4,89z"/>
<path class="st7" d="M9.9,111.5c0,0.8-0.3,1.9,1.1,0.8c0.4-0.3,1-0.5,1.4-0.9c1-0.9,2-1,3-0.2c0.5,0.4,1.2,0.2,1.5,0.4
	c0.3,0.3,0,1.1-0.1,1.6c-0.3,1.6-0.6,3.2,0.4,4.6c-0.7,1.2-0.1,2.5-0.1,3.8c-1.3,1.4-3.1,1.7-4.8,1.6c-2.4,0-4-1.9-4.3-4.6
	c-0.1-1.2-0.1-2.4,0.1-3.6c0.3-1.7,0.8-3.4,0.8-5.2c0-0.6,0.3-1.2,0.6-1.8c0.3-0.5,0.7-1.1,0.4-1.6c-0.9-1.7,0.3-2.5,1.3-3.4
	c1.1-1,2.4-1.9,2.2-3.7c0-0.2,0.1-0.5,0.3-0.6c1.7-1.5,2.1-3.8,3.4-5.5c0.1,0.3,0.1,0.7,0.4,1c0.7,1.5-0.1,2.6-1.1,3.6
	c-0.8,0.8-1.4,1.5-0.5,2.7c0.8,1,0,1.4-0.8,1.8c-2,1-3.5,2.1-3.4,4.9C11.7,108.5,10.4,110.1,9.9,111.5z"/>
<path class="st5" d="M32.3,44c0.4,0,0.8,0.4,1.1-0.2c0.8,1,0.8,2-0.2,2.9c-0.8,0.6-0.8,1.4-0.8,2.3c-0.1,2.8-0.3,5.5-0.5,8.3
	c0,0.7-0.1,1.4-0.6,2c-1.7-1.6-3.2-1.1-4.9,0.3c-1.2,1-1.5,1.8-0.3,2.9c-1,0.3-1.9,0.6-3.2,0.5c0.2-1.4,0.9-2.5,1.1-3.8
	c0.2-1.2,0.2-2.4,0.2-3.5c0-0.6-0.3-0.9-0.8-1.3c-2.2-1.3-2.3-2-0.8-4.3c0.2-0.2,0.2-0.6,0.3-0.9c0.5-0.2,0.2-1,0.7-1
	c0.3,0,0.9,0.5,0.8,1c-0.1,0.9,0.3,1.3,1.1,1.4c-0.5,0.6-1.1,1-2.3,1.4c1.6,0.7,2.5,1.6,2.9,3.2c0.4,1.9,2.1,0.7,3.2,0.9
	C28.6,55.1,30.7,46.4,32.3,44z"/>
<path class="st8" d="M26.1,62.5c-0.3-0.3-0.7-0.3-1.1-0.3c-0.8-0.1-1-0.6-0.6-1.1c1.1-1.5,2.5-2.7,4.4-3.4c1.8-0.7,1.8,1,2.6,1.7
	C30,61,28.2,62,26.1,62.5z"/>
<path class="st5" d="M23.2,46.9c-0.3,0.4-0.7,0.4-1.2,0.5c-0.9-1.7-1.6-3.4-2.3-5.2c0.1-0.1,0.2-0.1,0.2-0.2
	c1.6-0.5,1.7,0.9,2.2,1.7C21.9,45,23.8,45.5,23.2,46.9z"/>
<path class="st7" d="M17.8,91.3c0.2,0.2,0.3,0.4,0.5,0.6c0.4,0,0.5,0.2,0.6,0.5c-0.5,0.6-1.2,0.9-2,0.9C17,92.5,17.2,91.8,17.8,91.3
	z"/>
<path class="st5" d="M23.3,17.5c-0.8,0.4,0.5,0.9-0.1,1.4c-1.3-0.6-0.8-1.8-0.9-2.8C22.8,16.4,23.1,16.9,23.3,17.5z"/>
<path class="st5" d="M22.3,16.1c-1-0.1-1.6-0.6-1.8-1.6C21.2,14.9,21.8,15.4,22.3,16.1z"/>
<path class="st5" d="M32.4,43c-0.6,0-1-0.3-1-0.9C31.8,42.2,32.4,42.3,32.4,43z"/>
<path class="st9" d="M59.8,42.1c-1.7,1.4-3.7,2-5.6,3c-0.1-0.2-0.2-0.4-0.2-0.5c1.3-1.3,1.2-2.9,1-4.6c-0.2-1.5,0.2-2.8,0.8-4.2
	c0.9-2.2,1.3-2.3,3.2-0.8c0.6-1.2-0.2-2.5,0.7-3.6c1,0.9,0.3,2.1,0.4,3.1c0,0.3,0.5,0,0.1,0c-0.1,0-0.2,0-0.1-0.2
	c0.9-2.6,3.2-4,5-5.7c0.7-0.1,1-0.7,1.5-1.1c0.3-0.3,0.8-0.7,1.2-0.3c0.4,0.4,0.1,0.9-0.1,1.3c-0.8,2.5-3.3,3.8-4.4,6.1
	c-0.7,1.4-1.2,3-2.7,3.8c-0.3,0.2-0.7,0.6-0.4,1C61.4,40.6,59.9,41.2,59.8,42.1z"/>
<path class="st10" d="M56.6,56.9c-0.8-0.6-1.3-1-1.7-1.4c-0.7-0.9-1.5-1.3-2.6-1.5c-1.6-0.4-1.8-0.8-1.6-2.4
	c0.1-0.9,0.3-1.7,0.3-2.6c0.1-1.1,0.3-2.3-0.8-3.1c-0.1-0.1-0.2-0.3-0.2-0.4c-0.4-0.7-0.5-1.3,0-2c0.3-0.4,0.8-0.6,1.3-0.4
	c0.7,0.3,1.2,0.7,1.3,1.6c0,0.8,0,1.6,0,2.4c3-1.1,3.5-0.6,3,2.7c0.7-0.3,1.3-0.7,1.9-0.9c0.7-0.3,1.4-0.3,2,0.3
	c0.4,0.4,0.6,1,0.3,1.5c-0.4,0.8-1.1,0.9-1.8,0.6c-0.2-0.1-0.5,0-0.8,0C56.4,53,57,54.8,56.6,56.9z"/>
<path class="st11" d="M59.8,42.1c-0.3-0.2-0.4-0.5-0.1-0.8c0.4-0.5,1.2-0.9-0.1-1.5c-0.7-0.3-0.2-1.3,0.3-1.5c2.1-1.1,2.4-3.3,3.5-5
	c0.2-0.4,0.4-1,0.8-1.1c2.2-0.8,2.2-3.2,3.5-4.6c-1,0.1-1.4,1.2-2.3,1.5c-0.5-0.2-0.7-0.5-0.4-1c0.2-0.1,0.4-0.1,0.6,0
	c0.6-0.9,1.2-1.9,1.8-2.8c0.7-0.9,1.4-1.7,2.7-1.8c0.5,1,0.4,2-0.1,2.8c-0.8,1-1.6,1.8-0.7,3.2c0.4,0.5-0.3,1-0.7,1.4
	c-1.1,1.3-2.4,2.3-3.9,3.3c1.2,0.5,1.6,1.2,0.8,2.2c-0.9,1.3-2.8,1.9-2.7,3.9C61.7,40.8,60.8,41.5,59.8,42.1z"/>
<path class="st12" d="M65,28.1c0.1,0.3,0.3,0.6,0.4,0.9c-2,1.7-3.8,3.8-5.8,6.1c0-1.4,0-2.6,0-3.7c0.1-0.8,0.2-1.6,0.9-2.1
	c0.8,0.2,0.7,1.3,1.5,1.6c0.8-0.7,0.5-1.7,0.5-2.6c0.1-1.6,0.7-2.7,2.4-3C65.4,26.2,65.3,27.1,65,28.1z"/>
<path class="st13" d="M51.5,57.9c0-1-0.9-1.7-0.7-2.7c1.1-0.5,2-0.2,2.8,0.6c1.4,1.3,2.3,2.8,3.3,4.3c0.2,0.3,0.4,0.6,0.1,0.8
	c-0.2,0.3-0.6,0.2-0.9,0.1c-1.3-0.5-2.2-1.5-3.3-2.3C52.4,58.5,52.1,58,51.5,57.9C51.5,57.9,51.5,57.9,51.5,57.9z"/>
<path class="st14" d="M61.6,42.5c-0.6,1.9-1.2,3.2-2.2,4.3c-1.2,1.4-2.5,1.2-3.3-0.5c-0.4-0.8-0.3-1.3,0.6-1.7
	C58.2,44.1,59.7,43.4,61.6,42.5z"/>
<path class="st9" d="M65,28.1c0-0.9,0-1.9,0-2.8c1,0.8,0.3,1.9,0.6,2.8C65.4,28,65.2,28,65,28.1z"/>
<path class="st15" d="M70.7,112.1c0.3,0.6,0.6,1.1,0.1,1.9c-2-1-2.9-2.8-3.5-4.8c-0.9-0.2-1.2,0.7-2.1,0.9c-1.2-1.2-2-2.8-2.7-4.4
	c-0.9-0.1-0.7,0.8-1.4,1.1c-2.1-1.5-2.4-3.8-2.6-6.2c-1.8,0.6-1.8,0.6-2.3-0.8c0.1-0.4,0-0.8,0-1.2c-0.1-0.8-0.8-1.9,0.4-2.3
	c1-0.4,1.5,0.6,2.2,1.2c1.3,1.1,1.4,2.6,1.7,4.2c0.9-0.7,1.8-1.2,2.7-1.6c0.9,0.4,2.9,0.1,1.3,2.1c-0.9,0.5-0.8,1.3-0.2,1.7
	C67.4,105.8,68.7,109.2,70.7,112.1z"/>
<path class="st16" d="M47.7,90.9c0-0.5-0.3-1.2,0.2-1.6c1.3-0.9,1.2-2.3,1.2-3.7c0-1.1,0-2.2,0.8-3.1c0.3-0.4,0.5-1,0.6-1.5
	c0.3-2.2,1.6-3.5,3.8-3.9c0.1,1.2,0.1,2.4,0.2,3.6c0.1,0.8,0.2,1.6,1.5,1.2c1-0.3,1.6,0.3,1.5,1.2c-0.1,0.8-0.7,1.2-1.6,0.9
	c-1.1-0.4-1.6,0.1-1.9,1.1c-0.1,0.3-0.2,0.6-0.4,0.9c-0.6,1-1.2,1-2.1,0.2c-0.5-0.5-0.4-1.4-1.4-1.7c-0.2,1-0.2,1.8,0.3,2.7
	c0.5,0.8,0.8,1.7,0.9,2.7C50.3,90.7,49.3,92.1,47.7,90.9z"/>
<path class="st17" d="M63,100.1c0,0.5,0,1.2-0.8,1.2c-0.3,0-0.7-0.2-0.7,0.2c0,0.7-0.3,1.1-0.9,1c-0.6-0.1-0.4-0.8-0.5-1.2
	c-0.3-2.2-1.3-4-3.4-5.1c-0.3,1,0.2,1.8,0.3,2.6c0.1,0.6-0.2,0.7-0.6,0.8c0,0,0,0,0,0c-1.1-1.7-0.4-4.1-1.8-5.7c0.9-1.4-0.7-2-0.9-3
	c0.5-0.4,0.9,0.1,1.4,0c0.2,0,0.4,0.2,0.4,0.4c0.4,0.8,1,1.5,1.7,2C59.7,95,60.7,98.1,63,100.1z"/>
<path class="st17" d="M70.7,112.1c-0.9-0.4-1.3-1.3-1.8-2.1c-1-1.5-1.9-2.9-3-4.3c-0.3-0.4-0.7-0.8-1.3-1c-1.2-0.4-1.4-1.6-1.5-2.6
	c0-0.3,0.4-0.4,0.8-0.4c2,0.6,2.8,2.7,4.4,3.8c-0.1,0.5-1.1,0.5-0.4,1.3c0.9,1.1,1.3,2.5,2.4,3.5C70.4,110.8,70.6,111.4,70.7,112.1z
	"/>
<path class="st15" d="M54.5,93.9c1,0.1,1.3,0.9,1.3,1.7c0,1.4,0.5,2.7,0.5,4C54.9,98,55.1,95.8,54.5,93.9z"/>
<path class="st18" d="M55,90.9c-0.5,0.6-0.9-0.2-1.4,0c-0.3-0.7-1.1-1-1.2-1.8c0.3-0.4,0.5-0.2,0.7,0.1C53.8,89.7,54.4,90.3,55,90.9
	z"/>
<path class="st19" d="M27.6,87.8c-2.8,1.3-3.2,1.2-3.2-2.4c-0.7-0.2-0.9,0.5-1.4,0.7c-0.8,0.2-1.6,0.2-2.3-0.3
	c-0.4-0.3-0.7-0.7-0.6-1.2c0.1-0.5,0.6-0.8,1.1-0.8c0.3,0,0.6,0,1,0c0.8,0.1,1.1-0.3,1.1-1.1c0-1.4,0-2.7,0-4.6
	c1.5,2.2,3.9,2.5,5.5,3.9c0.2,0.2,0.8,0,0.7,0.6c-0.1,0.6,0,1.3,0,1.9c-0.1,1.8-0.7,3.7,0.9,5.3c0.4,0.4,0.3,1.1-0.1,1.6
	c-0.4,0.5-0.9,0.5-1.5,0.3c-0.7-0.2-1.2-0.5-1.2-1.3C27.6,89.5,27.6,88.6,27.6,87.8z"/>
<path class="st20" d="M9.9,111.5c-0.4-1.4-0.2-2.7,1-3.7c0.5-0.5,0.8-0.9,0.2-1.6c-0.6-0.7-0.2-1.3,0.3-1.9c1.1-1.5,2.6-2.2,4.3-2.8
	c0-0.2,0-0.5,0-0.5c-1.5-1.1-1.6-1.6-0.5-2.9c1.7-2,1.7-2,2.2-3.8c1.5-1,3.1-1.9,4.9-2.4c0.6-0.3,1.1-0.3,1,0.6c0,0.1,0,0.3,0,0.4
	c-0.1,0.7-0.7,1-1.3,1.3c-1.2,0.5-2.5,0.7-1.5,2.6c0.3,0.6-0.4,1.3-0.9,1.8c-2.3,2.1-3.3,5.2-5.4,7.6c-0.1,0.2-0.1,0.5,0,0.7
	C13.5,109.1,12.4,110.9,9.9,111.5z"/>
<path class="st21" d="M14.2,106.8c-0.5,0-1.1-0.1-0.8-0.8c0.4-0.8,1-1.7,1.7-2.3c1.4-1.3,2.1-3,2.9-4.7c0.4-0.8,1.7-0.7,1.8-1.8
	c0-0.2,0.5-0.3,0.3-0.8c-0.7-1.6-0.5-2.4,1.1-2.7c0.9-0.1,1.4-0.6,2.1-0.9c0.3,0.2,0.6,0.3,0.9,0.5c0.3,1.5-0.5,2.9-0.5,4.4
	c0,0.3-0.2,0.8-0.4,0.8c-3.2-0.2-3.3,3.3-5.3,4.4c-0.2,0.1-0.4,0.3-0.5,0.5l0,0C16.7,104.9,15.6,106,14.2,106.8L14.2,106.8z"/>
<path class="st22" d="M17.5,103.5c0.2-1.6,1.8-2.4,2.5-3.7c0.5-0.8,1.2-1.5,1.8-2.2c0.7-0.1,0.4,0.8,1.1,0.8
	c0.6-1.6,0.2-3.6,1.3-5.1c0,0,0,0,0,0c1.5,1.1,0.5,2.6,0.6,3.9c-0.1,1.5-0.8,2.7-1.7,3.7c-1,0-1.1-1.2-2.2-1.3c-0.4,2,0.3,4.3-1.3,6
	C18.2,105.6,18.9,103.6,17.5,103.5z"/>
<path class="st23" d="M18.9,92.4c-0.2-0.2-0.4-0.3-0.6-0.5c0.6-1,1.1-2.1,1.7-3.1c0.3-0.5,0.7-0.9,1.2-1.1c1.1-0.7,1.8-0.5,2.5,0.7
	c0.3,0.4,0.5,0.8,0.7,1.3C22.6,90.6,20.8,91.5,18.9,92.4z"/>
<path class="st24" d="M23,74c2.8,1.1,4.7,2.6,6.1,4.8c0.2,0.3,0.4,0.7,0.2,1.1c-0.3,0.4-0.7,0.3-1.1,0.2c-0.5-0.1-0.9-0.2-1.3-0.5
	C25.4,78.1,23.8,76.7,23,74z"/>
<path class="st25" d="M14.1,106.8c1-1.3,2.1-2.4,3.4-3.4c0,1.2-0.1,2.4-0.1,3.6c0,0.4,0,0.8-0.2,1.2c-0.3,0.9-1.6,1.9-2.1,1.6
	c-0.9-0.5-0.6-1.4-0.3-2.1C15.1,107,14.6,106.9,14.1,106.8z"/>
<path class="st21" d="M24.8,97.3c-0.4-1.3,0.4-2.8-0.6-3.9c0.2-0.6,0.4-1.1,1-1.4l0,0C24.8,93.7,25.6,95.5,24.8,97.3z"/>
<path class="st21" d="M23.3,92.5c-0.2-0.4-0.6-0.5-1-0.6c0.5-0.6,1.2-0.8,2.2-1C24.4,91.9,23.8,92.1,23.3,92.5z"/>
<path class="st21" d="M25.2,91.9c0-0.8-0.2-1.7,1-2.1C26.3,90.8,25.7,91.3,25.2,91.9C25.1,91.9,25.2,91.9,25.2,91.9z"/>
<path class="st26" d="M32.3,44c0.1,0.5,0.3,1.2-0.1,1.6C31,46.5,30.9,47.8,31,49c0.2,1.8-0.7,3.4-1.3,5c-0.7,1.7-0.7,1.7,1.5,2.2
	c-1.5,0.1-2.5,0.4-3.4,0.8c-1.2,0.5-1.9,0.1-2.3-1.1c-0.1-0.5-0.2-0.9-0.3-1.4c0-0.9,0-1.6-1.3-1.2c-0.9,0.3-1.5-0.5-1.5-1.4
	c0-0.9,0.8-1.1,1.6-1c0.5,0,1.1,0.5,1.5-0.2c0-0.1,0.1-0.1,0.1-0.2c1.5-2.9,1.7-2.9,3.9-0.4c0.1,0.1,0.3,0.1,0.4,0.2
	c0.4-0.9-0.1-1.7-0.4-2.5C28.5,44.6,29,43.8,32.3,44z"/>
<path class="st27" d="M13.6,29.1c-1.6-2.6-3.6-4.9-5-8c1.9,0.7,2.6,2.2,3.5,3.3c0.3,1.6,0.3,1.7,1.5,1.1c0.8-0.4,1.3,0,1.8,0.6
	c0.9,1.1,1.4,2.5,2,3.8c0.7-0.1,0.5-1.2,1.3-1.1c0.6,0.1,0.9,0.7,1.1,1.1c0.7,1.2,1.4,2.5,1.3,4c0,0.9,0.3,1.5,1.2,0.6
	c0.5-0.5,0.9-0.2,1.1,0.3c0.4,1.7,1.4,3.1,1.7,4.9c0.1,0.5,0.4,1.3-0.3,1.5c-0.7,0.2-1.3-0.5-1.1-1.2c0.2-1-0.4-0.6-0.8-0.8
	c-1.7-0.8-2.9-2.2-3.4-4.1c-0.2-0.9-0.5-1.3-1.7-1.7C16.1,32.7,14.7,30.8,13.6,29.1z"/>
<path class="st28" d="M13.6,29.1c1.5,0.9,2.7,2.1,3.7,3.6c0.4,0.6,0.8,0.9,1.3-0.2c0.4-0.8,1.2-0.5,1.3,0.6c0.1,2.5,1.4,4.3,3.3,5.7
	c0.7-0.1,0.2-0.9,1.2-1.3c-0.3,0.1-0.3,0.2-0.3,0.4c0,0.6,0,1.3,0.1,1.9c0,0.4,0.3,0.9,0.7,0.8c0.5-0.1,0.2-0.7,0.4-1
	c0.1,0.2,0.4,0.4,0.3,0.6c-0.6,1.9,0,3.3,1.4,4.6c0.4,0.4,0.6,1.1,0.9,1.6c-0.6,0.6-0.9,0.1-1.2-0.3c-0.6-0.8-1-1.6-2.1-1.7
	c-0.4,0.1-0.6-0.1-0.8-0.4c-0.3-0.7-1-1.1-1.3-1.8c-2.6-3.7-5.5-7.1-8.5-10.4c-0.6-0.7-1.6-1.1-1.3-2.3
	C13.1,29.5,13.4,29.4,13.6,29.1z"/>
<path class="st29" d="M24.2,44c0.1,0.1,0.3,0.3,0.4,0.4c0.3,0.4,0.6,0.9,1,1.3c0.8,0.8,0.5,1.5-0.2,2.2c-0.9,0.8-1.1-0.1-1.6-0.6
	c-0.2-0.2-0.4-0.3-0.6-0.4c0-0.2,0-0.4-0.1-0.4c-1.3-0.3-1.4-1.4-1.4-2.5c-0.3-1-0.4-1.8,1.1-1.2C23.5,42.9,23.8,43.4,24.2,44z"/>
<path class="st30" d="M12.7,29.5c0.3,0.7,0.7,1.3,1.3,1.7c2,1.5,3.4,3.7,5.1,5.5c1.4,1.5,2.9,3.2,3.7,5.3c-0.8,0.2-1.4,0-1.6-0.9
	c-1.1-1.1-2.6-1.3-3.8-2.3c-0.4-0.3-1.1-0.7-0.5-1.3c0.9-0.8,0.5-1.1-0.3-1.5c-0.9-0.4-1.7-0.9-2.5-1.4c-0.6-0.3-1.1-0.6-0.4-1.4
	c0.5-0.5-0.1-0.8-0.4-1.1c-0.6-0.4-1.1-0.9-1.4-1.6C11.4,29.7,11.9,29.4,12.7,29.5z"/>
<path class="st4" d="M21.2,41.1c0.5,0.3,1,0.6,1.6,0.9c0.4,0.7,1.5,0.9,1.4,2c-0.4-0.3-0.9-0.7-1.3-0.9c-1.1-0.7-1.1,0.1-1.1,0.9
	c-0.6-0.7-0.5-1.9-1.8-1.9C20.1,41.4,20.6,41.1,21.2,41.1z"/>
<path class="st18" d="M68.3,105.4c-0.6,0-1.2,0-1.5-0.5c-0.7-1.3-2.1-2.1-2.9-3.3c0.7-0.2,1.3-0.3,0.4-1.1c-0.4-0.3-0.8-0.4-1.3-0.4
	c-1.6-1.1-3.2-2.1-3.8-4.2c-0.2-0.6-0.8-0.9-1.3-1.3c-1-0.9-2.3-1.7-2.5-3.2c1.8,1.8,3.9,3,6.1,4.2c0.8,0.4,2.9,0.7,1.2,2.6
	c-0.3,0.3,0.1,0.6,0.4,0.7c0.6,0.3,1.3,0.6,1.9,1c0.8,0.6,2.5,0.7,1.2,2.3c-0.3,0.4,0.3,0.6,0.6,0.9
	C67.5,103.7,68.3,104.3,68.3,105.4z"/>
<path class="st5" d="M26.1,61c-0.3,0-0.4-0.2-0.3-0.4c0.1-0.2,0.2-0.4,0.4-0.5c0.3-0.1,0.3,0.2,0.3,0.4C26.5,60.8,26.4,61,26.1,61z"
	/>
<path class="st9" d="M61.4,38.2c-0.2,0.8-0.6,1.1-1.3,1.3C60.1,38.8,60.5,38.4,61.4,38.2z"/>
</svg>
