<?xml version="1.0" encoding="utf-8"?>
<!-- Generator: Adobe Illustrator 23.1.1, SVG Export Plug-In . SVG Version: 6.00 Build 0)  -->
<svg version="1.1" id="Livello_1" xmlns="http://www.w3.org/2000/svg" xmlns:xlink="http://www.w3.org/1999/xlink" x="0px" y="0px"
	 viewBox="0 0 80 135" style="enable-background:new 0 0 80 135;" xml:space="preserve">
<style type="text/css">
	.st0{fill:#FFFFFF;stroke:#000000;stroke-width:0.2509;stroke-miterlimit:10;}
	.st1{fill:#4C544D;}
	.st2{fill:#625C55;}
	.st3{fill:#5C5853;}
	.st4{fill:#545F50;}
	.st5{fill:#884C44;}
	.st6{fill:#6F4C4F;}
	.st7{fill:#535B52;}
	.st8{fill:#AF9C43;}
	.st9{fill:#ECD73C;}
	.st10{fill:#E95B5A;}
	.st11{fill:#E46068;}
	.st12{fill:#CBBC44;}
	.st13{fill:#C3AF4F;}
	.st14{fill:#E0D73E;}
	.st15{fill:#EE574D;}
	.st16{fill:#EDE537;}
	.st17{fill:#EE5255;}
	.st18{fill:#904441;}
	.st19{fill:#DFCE42;}
	.st20{fill:#E2D54B;}
	.st21{fill:#E0CA3B;}
	.st22{fill:#EBDE3A;}
	.st23{fill:#EE5754;}
	.st24{fill:#E0CE45;}
	.st25{fill:#EE5259;}
	.st26{fill:#E8DE51;}
</style>
<path class="st0" d="M71.5,135h-63c-4.7,0-8.5-3.8-8.5-8.5V8.5C0,3.8,3.8,0,8.5,0h63C76.2,0,80,3.8,80,8.5v118
	C80,131.2,76.2,135,71.5,135z"/>
<path class="st1" d="M54.5,63.3c2.5,0.2,5.1,0.4,6.6,3c0.2,0.3,0.3,0.5,0.2,0.9c-1.3,0.6-1.7-1.3-3-1.2c0.5,1.3,1.5,2,2.6,3
	c0.1-0.7-0.3-1.5,0.3-1.9c1.3,1.1,1.8,2.7,3.1,4.3c-1.9-0.2-3.4-0.3-4.9-0.6c-4.2-0.7-8.3,0.1-12.4,0.8c-5,0.9-10,2-15.1,2.4
	c-4,0.3-8,0.1-11.8-1.1c-2-0.6-3.7-1.8-4.8-3.8c-1.3-2.4-0.9-4.9,0.9-6.8c1.8-1.9,4-2.7,6.6-2.9c4.8-0.3,9.5,0.6,14.2,1.5
	c1.9,0.4,3.8,0.8,5.6,1.3c1.7,0.5,3.5,0.6,5.2,0.3c0.6-0.1,1.2-0.1,2,0.1c-0.6,1.3-1.8,0.9-2.7,1.2c-0.6,0.2-2.1-0.1-1.3,1.5
	c0.1,0.2,0.1,0.4,0,0.6c-1,1-2.3,0.8-3.4,0.3c-1.6-0.8-2.4-0.5-2.4,1.4c0,0.2-0.2,0.4-0.4,0.5c-0.9,0.4-2,0.1-3,0.7
	c0.4,0.6,1.2,0.7,1.7,1.1c1,1.3,2.4,1.6,3.6,0.7c2.4-1.6,5.1-0.8,7.6-1.4c0.9,0.8,1.8,0.2,2.7,0.1c1.6-0.2,3.3-0.6,5.4-0.4
	c-1.7-1.4-3-1.4-4.5-0.6c-0.9,0.5-1.7,1.3-2.8,0.8c-0.6-1.3,0.9-1.3,1.3-2c0.4-0.7,2.6-0.5,1.1-2.3C52.4,64.5,53.7,63.7,54.5,63.3z"
	/>
<path class="st2" d="M28.9,27c-0.4,4-0.1,8-0.8,11.9c-0.7,4-2.1,7.7-4.9,10.7c-1.1,1.2-2.4,2.1-4.1,2.2c-3.3,0.3-6-2.2-6.2-5.8
	c-0.2-3.2,0.5-6.2,1.8-9.1c1.8-3.8,3.9-7.5,5.3-11.5c0.9-2.6,1.8-5.1,2-7.8c0.2-1.7-0.2-3.3-0.5-5c-0.3-1.9,0.1-2.2,1.8-1.5
	c1.9,0.7,3.3,1.9,4.5,3.4c0.8,1,1.2,2.2,1.2,3.5C28.9,21.1,28.9,24,28.9,27z"/>
<path class="st3" d="M69.1,43.9c0,3.7-1.8,6.8-4.2,7.7c-3.4,1.3-6.7,0.4-9-2.5c-2.1-2.6-3.2-5.5-3.4-8.8c-0.2-3.5-0.7-7-1.7-10.4
	c-0.2-0.6-0.3-1.2-0.4-1.9c-0.2-2.9-0.8-5.7-1.8-8.4c-0.2-0.5-0.4-1-0.1-1.6c1.2-2.5,2.9-4.3,5.5-5.4c0.9-0.4,1.6-0.2,1.6,0.9
	c0.3,5.8,3.6,10.3,6.3,15.1c1.7,3,3.8,5.9,5.3,9C68.2,39.8,69,42,69.1,43.9z"/>
<path class="st4" d="M59.4,112.4c-0.7,3.1-1.4,6.2-0.3,9.4c0.2,0.6,0.3,1.3-0.4,1.7c-0.6,0.4-1.1,0-1.6-0.3c-3.5-2-5.9-4.5-5.3-8.9
	c0.6-4.6,0.5-9.2,0.6-13.9c0.1-5,1.1-9.7,3.8-13.9c0.7-1.1,1.3-2.4,2.8-2.8c0.4,0.5,0.3,1,0.2,1.5c-0.1,0.2-0.2,0.4-0.3,0.6
	c-0.1,0.2-0.3,0.3-0.4,0.5c-1.5,2.8-3.4,5.5-2.3,9c0.3,1,0.8,2.3-0.9,2.7c-0.2,0.1-0.3-0.4-0.5,0c0,0.2,0,0.3,0,0.5
	c0,0.1,0,0.2,0,0.3c0.1,0.9,0.7,1.5,1.1,2.3c0.2,0.5,0.5,1,0.4,1.6c-0.1,0.2-0.2,0.4-0.4,0.6c-2,0.8-0.6,1.8-0.2,2.8
	c0.5,1,1.5,1.9-0.6,2.3c-0.8,0.1-0.6,0.8-0.3,1.3c0.4,0.8,0.8,1.7,1.8,2.4c0.1-1.9-0.3-3.7-0.3-5.4c-0.1-0.4,0-0.8,0.1-1.2
	c0.1-0.4,0.2-0.8,0.7-0.8c0.6,0,0.7,0.5,0.8,1c0.4,2,0,4.1,1.2,5.9C59.4,111.8,59.7,112,59.4,112.4z"/>
<path class="st5" d="M23.3,113.4c-2.7-5.2-5.8-10.2-8.8-15.3c-1.3-2.2-2.3-4.6-2.6-7.1c-0.2-1.6,0-3,0.5-4.5c1.4-4,5.3-5.6,9.3-3.8
	c1.4,1.2,3.2,2.2,3.3,4.4c0.4,1,0.3,2.1,0.1,3.1c-0.3,1.4-0.4,1.5-2.1,0.7c-0.1,1.6,0.8,2.9,1.6,4.2c0.8,1.4,0.6,2.1-1.3,1.6
	c0.4,1.3,1.2,2.4,1.5,3.6c0.3,1.1,1.3,2.3-0.4,3.3c-0.5,0.3,0,0.9,0,1.3c0.1,1.4,0.9,2.7,0.8,4.2c-0.1,0.6-0.3,1.1-0.7,1.5
	c-0.2,0.1-0.6,0-0.6-0.2c-0.6-3-2.7-5.7-1.5-9c0.3-0.9,0.2-1.6-0.5-2.2c-1.2-1-1.7-2.3-2-3.7c-0.8-3.3-2.7-6.3-2.6-9.8
	c0-1.1-0.9-1.5-1.8-0.7c-1.3,1-1.6,2.3-1.7,3.8c-0.1,3.9,1.6,7.2,3.4,10.3c2.4,4.1,4.8,8.1,7,12.3c0.2,0.4,0.5,0.8,0.5,1.3
	C24.4,113.5,24.1,113.9,23.3,113.4z"/>
<path class="st6" d="M59.2,85.4c-0.4-0.5-0.3-1,0-1.5c3-2.5,6.8-1.5,8.3,2.1c0.9,2.2,1,4.5,0.4,6.8c-0.5,2.2-1.3,4.3-2.4,6.2
	c-2.5,4.3-4.4,8.8-6,13.4c-0.2-0.2-0.3-0.4-0.5-0.6c-0.3-2.1-0.2-4.2,0.1-6.2c0.3-1.8-0.4-3.8,1-5.4c-1.6-1.5-0.5-3-0.1-4.6
	c-2.7,0.2-2.6,0.2-2.1-2.3c0.3-1.4,0.9-2.7,0.9-4.2c-0.1-0.5-0.4-0.9-0.7-1.3c-0.1-0.7,0.3-1.2,0.5-1.7
	C58.7,85.8,58.9,85.6,59.2,85.4c1.5,1.8,2.4,3.7,1.7,6.1c-0.5,1.5,1.3,1.5,1.9,2.4c0.1-2.3,1.1-4.1,1.9-5.9c0.4-1,1.4-1.9,0.2-3
	c-1.2-1-2.5-1.2-4-0.5C60.3,84.9,59.9,85.6,59.2,85.4z"/>
<path class="st7" d="M24.6,87.1c-0.1-2-2.2-2.8-2.9-4.4c2.7,0.7,3.8,3,5.1,5.1c1.6,2.6,1.7,5.7,1.9,8.6c0.3,3.5,1.3,6.9,1.7,10.4
	c0.3,2.5,0.5,4.9,1.5,7.2c0.6,1.4,0.2,2.7-0.7,3.8c-1.3,1.6-2.7,3-4.7,3.6c-1.1,0.3-1.5,0.1-1.5-1c-0.1-2.4-0.8-4.7-1.7-6.9
	c0.7,0,1-0.3,0.9-1c-0.3-0.6-0.5-1.2,0.1-1.8c0.1-0.5,0-1.1,0.4-1.5c0.8,0.5,0.7,1.3,0.7,2c0,0.8,0.4,0.3,0.7,0.3
	c0.9-3,2.5-5.9,0.9-9.1c-0.2-0.5-0.3-1-0.1-1.4c1.4-3.7-0.9-7.1-0.9-10.6C26,89.2,25.4,88,24.6,87.1z"/>
<path class="st8" d="M49.9,69.4c-1.2,0-2,0.9-3.1,1.2c-0.5,0.2-1.1,0.5-1.3,0c-0.3-1.3-0.8-0.8-1.4-0.3c-0.8,0.8-1.8,0.9-2.8,1.2
	c-1.8,0.5-2.2,0.3-3.2-1.3c0.1-1.3,1-1.6,2.1-1.7c2.1-0.3,3.9-1.7,6-2.1c0.2,0,0.9-0.3,0.3-0.7c-0.2-0.1-0.5,0-0.7,0
	c-0.6-0.2-1.3-0.4-1.2-1.1c0-0.7,0.8-0.7,1.3-0.9c1.1-0.5,2.3-0.3,3.5-0.5c-0.3-0.7-1-0.2-1.4-0.5c2.3-0.6,4.4-0.1,6.5,0.7
	c0.1,1.1-1.1,1-1.5,1.6c0.6,0.6,1.1-0.3,1.8,0c-1,2.1-3.3,2.7-4.6,4.3l0,0.2L49.9,69.4z"/>
<path class="st9" d="M45.8,65.6c0.2-0.2,0.4-0.5,0.6-0.7c0.4-0.3,0.9-0.4,1.2,0.1c0.3,0.4,0.2,0.9-0.1,1.3c-0.3,0.3-0.6,0.5-1,0.6
	c-1.9,0.4-3.6,1.6-5.4,2c-1.1,0.3-2.2,0.3-3,1.3c-1.2,0.3-1.3-1.3-2.6-1c1.2-1.7,2.6-1.6,4.1-1.3c1.5,0.2,0.5-2.6,2.5-2
	c1.2,0.4,2.5,0.4,3.7,0.1c0.3-0.1-0.1,0,0.1-0.2C46.1,66,46,65.8,45.8,65.6C45.9,65.7,45.8,65.6,45.8,65.6z"/>
<path class="st10" d="M49.9,69.4c0.1,0,0.2-0.1,0.2-0.2c1-0.1,1.7-0.7,2.5-1.2c2.6-1.6,4.1-1.2,6,1.7c-3-0.2-5.8,0.3-8.6,0.6
	C49.2,70.4,49.8,69.8,49.9,69.4z"/>
<path class="st11" d="M61.3,67.1c-0.3,1,0.6,1.6,0.8,2.6c-1,0.1-1.8-0.2-2.4-0.9c-0.8-0.9-2-1.6-2.2-3c-0.1-0.3,0-0.7,0.3-0.8
	c0.4-0.2,0.7-0.1,1.1,0.1C59.8,65.6,60.2,66.8,61.3,67.1C61.3,67.2,61.3,67.1,61.3,67.1z"/>
<path class="st12" d="M31.5,71.7c-0.5-0.8-1.8-0.6-2.3-1.7c2.3-1.1,4.5-0.6,6.8,0c-0.9,1.4-2.6,0.8-3.6,1.8l0,0
	C32.1,71.7,31.8,71.7,31.5,71.7L31.5,71.7z"/>
<path class="st13" d="M31.4,71.7c-0.1,0.5-0.2,1-0.8,1.1c-1.9,0.3-3.8,0.6-5.9-0.5c1.6-1.3,3.2-1.2,4.8-0.9
	C30.2,71.5,30.8,71.8,31.4,71.7C31.5,71.7,31.4,71.7,31.4,71.7z"/>
<path class="st8" d="M45.9,65.7c0.6,0.5,0.4,0.9-0.2,0.9c-1.5,0.1-3,0-4.5,0c0.1,1.9,0.1,1.9-1.5,1.5c0.3-0.2,0.3-0.5,0.2-0.8
	c-0.3-2,0.5-2.6,2.3-1.8C43.4,66,44.6,66.5,45.9,65.7z"/>
<path class="st12" d="M32.4,71.7c1.5,0.3,2.9-0.7,4.7-0.4c-1.1,1-2.3,1.4-3.5,1.7C32.3,73.4,32.2,72.6,32.4,71.7
	C32.4,71.7,32.4,71.7,32.4,71.7z"/>
<path class="st14" d="M23.2,39.5c-0.9-0.8-1.4,0.3-2.1,0.4c-1,0.1-1.5-0.3-1.2-1.2c0.4-1.3,1.1-2.5,1.6-3.7c-1.8,0-2.1-0.5-1.3-2.1
	c0.3-0.7,1.1-0.9,1.3-1.9c-1-0.2-1.8-0.6-1-2c0.9-1.5,0.3-3.2,0.8-4.8c0.3-1.1,0.7-2.1,1.3-3.2c0.1,1.3,0.1,2.4,0.1,3.9
	c0.5-1,1-1.2,1.7-0.9c-0.2-1.1-1.8-1.7-1-3.1c2.2,1.3,2.9,3.4,3.5,5.6c-0.9,0.7-1.6,0.1-2.7-0.1c1.3,1.6,2.5,2.9,2.8,4.7
	c-0.6,0.7-1.4-0.2-2.1,0.4c0.8,1.6,0.9,3.5,2.1,5.1c-2.7-0.4-2.8-0.4-2.9-2.6c0-0.7,0-1.4-0.2-2.2c-0.1,0.8-0.2,1.5-0.2,2.3
	c0,0.8,0.2,1.6,0.3,2.3c0.1,1.5,0.4,3-0.3,4.4C23.1,40.6,23.4,40,23.2,39.5z"/>
<path class="st15" d="M20.7,43.2c0,1.4-0.2,2.6,0.7,3.9c1.1,1.6-0.7,4-2.8,3.8c-0.9-0.1-1.9-0.4-2.7-0.8c-0.9-0.5-1.5-1.4-0.8-2.4
	c0.7-1.1,0.3-2.8,1.9-3.6c0.8-0.4,0-1.6,0.2-2.5c0.1-0.4-0.7-0.9,0.3-1c0.5-0.1,0.9-1.1,1.6-0.2c0,0.1,0.1,0.1,0.2,0.1
	c0.5,0.6,1.6,0.1,1.8,0.9C21.1,41.9,20.8,42.6,20.7,43.2z"/>
<path class="st16" d="M23.2,39.5c0.5,0.4,0.3,0.9,0.4,1.4c0,0.2,0,0.3-0.1,0.5c0,1.5,1,2.8,0.6,4.3c-0.2,0.5-0.5,0.9-0.7,1.4
	c-0.8,0-0.6-0.4-0.4-0.9c0-0.4,0-1.1-0.2-1c-1.9,0.9-1.2-0.6-1.2-1.3C21.6,42.2,22.1,40.8,23.2,39.5z"/>
<path class="st14" d="M24.1,45.7C24,44.4,23,43.3,23.2,42c0-0.2,0.2-0.4,0.3-0.6c0.9,0.4,0.9-0.3,0.9-0.8c0.1-1-0.2-2,0.3-3.1
	c0.4,1.2,0.8,2.3,0.7,3.5c0,1.2,0.5,2.6-1,3.5C24.2,44.6,24.6,45.4,24.1,45.7z"/>
<path class="st14" d="M23.1,46.2c0,0.3,0,0.7,0.4,0.9c0,0.4-0.2,0.9-0.7,0.7c-0.3-0.1-0.2-0.5-0.2-0.8
	C22.6,46.7,22.8,46.4,23.1,46.2z"/>
<path class="st17" d="M57.3,22.5c2.2,4.4,4.9,8.5,7.5,12.7c1.6,2.5,2.6,5.3,3,8.3c0.9,6.4-4.2,8.6-8.7,6.8c0.1-1.5,1.6-0.7,2.3-1.4
	c0.4-0.4,1.2-0.5,0.1-1c-0.2-0.1-0.2-0.5,0-0.6c1.6-1.9,0.2-3.8-0.4-5.3c-0.9-2.3-1.2-4.9-2.8-7c-0.6-0.7-1.1-1.9-0.8-3.1
	c0.4-1.6,0-3.1-0.6-4.7C56.3,25.6,56.1,24,57.3,22.5z"/>
<path class="st18" d="M57.3,22.5c-1,1.5-0.5,3,0.1,4.3c0.8,1.8,1,3.7,0.6,5.6c-0.1,0.3,0.7,2.8,0.9,2.8c0.8,0,0.9,0.7,1,1.1
	c0.2,2,1.2,3.8,1.9,5.6c0.4,0.9-0.3,2,1,2.6c0.6,0.3-0.1,1.4-0.4,2.1c-0.2,0.5-1.2,0.9-0.1,1.6c0.3,0.2-0.4,1.3-1.4,1.5
	c-0.7,0.1-1.5-0.3-2,0.4c-0.4-0.3-0.9-0.7-1.4-0.9c-0.5-0.2-0.8-0.7-0.6-1.1c0.4-1.4-0.4-3.1,1.3-4.1c-0.1-0.2-0.2-0.4-0.4-0.6
	c-0.8-1.5-1.1-3.1-1.9-4.6c-0.3-0.5-0.8-1.1-0.1-1.7c0.6-0.5,1.2-0.1,1.9,0.2c-3.1-3.8-1.6-8.2-1.7-12.4c0.1-0.9-0.2-1.9,0.3-2.8
	C57,21.5,57.3,21.9,57.3,22.5z"/>
<path class="st19" d="M56.3,25.1c-0.1,1.7,1.1,3.1,0.9,4.8c-0.1,0.4,0.2,1-0.3,1c-1.7,0-1,1-0.7,1.6c0.8,1.4,1.5,2.9,2.2,4.4
	c0.3,0.6,0.3,1.2,0.2,2c-0.9-0.5-1.3-1.5-2.5-1.5c0.5,1.1,1,2,1.4,3c0.4,1,1,2,0.6,3.2c-0.6-0.1-0.9-1-1.8-0.7
	c0.3,1.3,0.6,2.6,0.1,4.1c-0.5-0.6-0.6-1.2-1.1-1.7c-1.5-1.3-1.3-3.3-1.3-5c0-0.7,0.3-1.3-0.6-1.8c-0.6-0.3-0.4-1.1-0.3-1.8
	c0.3-2,0.9-4,0.8-6.1l0,0c1.3,0.8,0.7,2.3,1.2,3.4c-0.4-4.4-0.1-8.9,0-13.3C56.4,22,55.5,23.8,56.3,25.1z"/>
<path class="st20" d="M54,30.6c-0.5,0.3-1.1,1.4-1.3-0.1c-0.2-1.3-0.2-2.7,0.2-4c0.5-1.7,1.1-3.3,1.5-5C54.2,24.6,54.8,27.7,54,30.6
	C53.9,30.7,54,30.6,54,30.6z"/>
<path class="st21" d="M58.6,86.1c0.1,0.6-0.1,1.2-0.3,1.7c0.2,0.4,0.4,0.7,0.8,0.8c0.7,0.9,0.1,1.9-0.1,2.7
	c-0.4,1.3-0.4,2.7-1.3,4.1c1.5-0.7,1.6-0.8,2.9-0.8c0.4,0.9-0.2,1.6-0.5,2.4c-0.8,1.8-0.8,1.8,1,2.6c-0.1,0.8-0.6,1.4-1.1,2
	c-1,1.3-0.9,1.4,0.6,2.3c-0.8,1.4-1.8,2.7-1.1,4.6c0.4,1-0.4,2.1-0.6,3.2c-0.4,0.4-0.9,0.6-0.9-0.2c0.1-1.8-0.8-3.6-0.5-5.4
	c0.1-0.3-0.1-0.7-0.1-1.2c-0.6,0.7-0.2,1.4-0.4,2c-2.2-1.2-2.2-1.4-0.9-3.9c0-0.2,0-0.3,0.1-0.5c0.2-1.7-0.4-3.1-1.4-4.3
	c0-0.2,0-0.3,0-0.5c0,0,0,0,0,0c0.9,0,1.8,0.1,1.3-1.4c-0.5-1.3-0.8-2.7-0.7-4.2c0-0.8-0.3-1.8,1-2.1c0.6-0.1,0.2-0.8,0.3-1.2
	C56.9,87.9,57.1,86.6,58.6,86.1z"/>
<path class="st22" d="M56.1,103.1c0.6,0.6,1,1.3-0.3,1.6c-0.5,0.1-0.4,0.5-0.2,0.7c0.4,0.6,0.9,1.1,1.4,1.6c0.2,2,0.4,4.1,0.6,6.4
	c-2.1-0.9-2.9-2.6-3.6-4.4c-0.4-1.1,0-1.5,1.1-1.4c0.2,0,0.4,0.2,0.7,0.2c0.1,0,0.3-0.1,0.4-0.1c-0.6-0.8-1.2-1.7-1.7-2.5
	c-0.4-0.6-0.7-1.3-0.2-2C54.8,102.4,55.5,103.4,56.1,103.1z"/>
<path class="st22" d="M54.7,98.3c0.6,0.1,1.3,0,1.4,0.8c0.1,1.2,1.1,2.3,0,3.5c-0.3-0.4-0.6-0.8-0.6-1.2
	C55.6,100.3,54.4,99.5,54.7,98.3L54.7,98.3z"/>
<path class="st21" d="M54.7,98.3c0.5,1,1.2,1.9,0.9,3.1c-0.3-0.5-0.7-1.1-1-1.6C54.3,99.3,54.1,98.8,54.7,98.3z"/>
<path class="st21" d="M54.7,97.8c-0.3,0-0.6,0-0.7-0.3c-0.1-0.3,0.1-0.5,0.4-0.4C54.7,97.2,54.7,97.6,54.7,97.8
	C54.7,97.9,54.7,97.8,54.7,97.8z"/>
<path class="st23" d="M24.3,110.5c0,0.6,0,1.2-0.1,1.8c-1.5-1.3-2-3.2-2.9-4.9c-1.8-3.1-3.8-6.1-5.4-9.3c-1.1-2.1-2.1-4.3-2.6-6.6
	c-0.4-1.6-0.3-3.3,0.2-5c0.4-1.3,1.3-2.2,2.4-2.8c1.1-0.6,1.5-0.3,1.6,0.9c0.1,0.6,0.5,1,0.7,1.5c0.3,0.6-1.4,0.6-0.4,1.5
	c0.5,0.4,0.9,1.1,0.3,1.9c-0.1,0.1,0.1,0.5,0.2,0.6c1.3,1.5,1.3,3.4,2,5.1c0.5,1.4,0.9,2.8,2.1,3.8c0.8,0.6,1.5,1.3,0.4,2.5
	c-0.7,0.8-0.6,2.5-0.1,3.5C23.5,106.9,23.7,108.8,24.3,110.5z"/>
<path class="st24" d="M26.3,111.5c-0.7,0.4-0.2,1.4-1,2c-0.7-1.5-0.2-3-0.5-4.4c-0.4-1.8-0.9-3.5-1.2-5.3c-0.1-0.7-0.2-1.3,0.9-0.8
	c0.7,0.3,0.7-0.5,0.5-0.9c-0.6-1.4-1.2-2.8-1.8-4.1c-0.2-0.5-0.5-1-0.7-1.5c-0.1-0.3-0.3-0.6,0.1-0.9c0.4-0.3,0.8,0,1,0.3
	c0.3,0.3,0.4,0.6,0.9,0.8c-0.4-2.3-2.8-3.8-1.7-6.4c0.6,0,0.8,1,1.8,0.9c0-1.3,0.4-2.7,0.2-4c2.1,1.5,2.5,3.7,2.4,6.1
	c0,0.8-0.3,1.6,0.5,2.4c0.7,0.7,0.6,1.8,0.4,2.9c-0.3,1.4-0.8,2.7-0.7,4.2c0.4,0.5,0,0.8-0.3,1c-1.1,2.3-0.5,4.7-0.6,7.1
	C26.4,111.1,26.4,111.3,26.3,111.5z"/>
<path class="st25" d="M59.2,85.4c1.9-2.5,4.7-2.6,6.6-0.3c0.5,0.7,0.6,1.2,0.1,1.9c-1.1,1.5-1.5,3.3-2.3,4.9
	c-0.4,0.8-0.7,1.9,0.4,3.2c-1.6-0.6-2.2-2-3.5-1.9c-0.4,0-0.5-0.4-0.4-0.7c0.1-0.5,0.3-1.1,0.3-1.6c0.2-1.3,0.6-2.7-0.8-3.7
	C59,86.9,59.3,86.1,59.2,85.4C59.2,85.5,59.2,85.4,59.2,85.4z"/>
<path class="st4" d="M59.1,88.6c-0.3,0.3-0.7,0.8-1.1,0.4c-0.3-0.3,0.2-0.8,0.3-1.2C58.8,87.9,59.1,88.1,59.1,88.6z"/>
<path class="st26" d="M26.8,103.3c0.3-0.1,0.5-0.3,0.4-0.7c0.8-0.3,1,0.2,1,0.9c0.2,1.8,0.1,3.6-0.7,5.4c-0.5,1.2-1,2.3-0.9,3.7
	c-0.6-0.3-0.4-0.8-0.4-1.1c0-0.2,0-0.4,0-0.5C26.1,108.4,25.5,105.8,26.8,103.3z"/>
<path class="st7" d="M26.8,103.3c-1.1,2.5-0.4,5.1-0.6,7.6c-0.8-0.8-0.5-2-0.5-2.9c0.1-1.4,0.1-2.8,0.2-4.2
	C25.9,103,26.4,103.3,26.8,103.3z"/>
</svg>
