<?xml version="1.0" encoding="utf-8"?>
<!-- Generator: Adobe Illustrator 23.1.1, SVG Export Plug-In . SVG Version: 6.00 Build 0)  -->
<svg version="1.1" id="Livello_1" xmlns="http://www.w3.org/2000/svg" xmlns:xlink="http://www.w3.org/1999/xlink" x="0px" y="0px"
	 viewBox="0 0 80 135" style="enable-background:new 0 0 80 135;" xml:space="preserve">
<style type="text/css">
	.st0{fill:#FFFFFF;stroke:#000000;stroke-width:0.2509;stroke-miterlimit:10;}
	.st1{fill:#4D554A;}
	.st2{fill:#5D6156;}
	.st3{fill:#515349;}
	.st4{fill:#4D5B4A;}
	.st5{fill:#4A5B49;}
	.st6{fill:#4E5A52;}
	.st7{fill:#6E5451;}
	.st8{fill:#6A4446;}
	.st9{fill:#6B4B49;}
	.st10{fill:#E4DC3B;}
	.st11{fill:#EE5154;}
	.st12{fill:#E25F65;}
	.st13{fill:#DAD342;}
	.st14{fill:#EE5856;}
	.st15{fill:#D5CA46;}
	.st16{fill:#EBE145;}
	.st17{fill:#ED4A4B;}
	.st18{fill:#9C4244;}
	.st19{fill:#D6D13D;}
	.st20{fill:#C4B94F;}
	.st21{fill:#E3DC4F;}
	.st22{fill:#E1D64E;}
	.st23{fill:#CEC659;}
	.st24{fill:#E8DE36;}
	.st25{fill:#D9CB3B;}
	.st26{fill:#C7BD3D;}
	.st27{fill:#DFD43C;}
	.st28{fill:#EFE534;}
	.st29{fill:#EE595C;}
	.st30{fill:#E2646C;}
	.st31{fill:#EB534B;}
	.st32{fill:#E75B61;}
	.st33{fill:#EE5552;}
	.st34{fill:#E55D5E;}
</style>
<path class="st0" d="M71.5,135h-63c-4.7,0-8.5-3.8-8.5-8.5V8.5C0,3.8,3.8,0,8.5,0h63C76.2,0,80,3.8,80,8.5v118
	C80,131.2,76.2,135,71.5,135z"/>
<path class="st1" d="M67.8,57.7c-2.2-0.4-4.5-0.8-6.3-2.7c-1.1-1.2-1.7-2.6-1.9-4.3c-0.2-2.8-0.6-5.5-0.7-8.3c-0.1-3-0.8-6-1-9
	c0-0.5-0.2-0.9-0.4-1.4c-1.7-4.6-1.6-9.2-0.4-13.8c0.2-0.9,0.6-1.8,1-2.7c1.8-3.6,6.8-4.7,9.5-1.4c1.8,2.2,2.7,4.4,2.9,7.1
	c0.3,5.7-0.2,11.3-1.4,16.9c-0.7,3.1-1.3,6.2-2,9.3c-0.7,3.2-0.8,6.3,0.7,9.3C68.1,57.1,68.2,57.3,67.8,57.7z"/>
<path class="st2" d="M25.2,46.9c0,3.3-0.6,6.3-2.6,9c-2.5,3.5-7.5,3.4-9.9-0.2c-1.8-2.7-2.3-5.8-2.3-8.9c-0.1-4.4,0.3-8.7,1.4-13
	c0.4-1.6,0.7-3.3,1.1-4.9c0.6-2.3,0.5-4.6,0.1-6.9c-0.5-2.8,0.6-4.6,2.7-6.2c1.1-0.9,2.3-1.7,3.8-1.8c0.9-0.1,1.4,0.4,1.2,1.3
	c-1,6,0.8,11.7,2,17.4c0.7,3.4,1.9,6.7,2.2,10.3C25.1,44.4,25.1,45.7,25.2,46.9z"/>
<path class="st3" d="M65.1,76.8c2.1,0.1,3,1.7,3.8,3.2c1.3,2.4,1.7,5.1,1.8,7.9c0.1,5.2-0.5,10.3-1.9,15.4
	c-0.9,3.4-1.3,6.7-0.5,10.2c0.3,1.5-0.2,2.8-1.2,3.9c-1.3,1.4-2.9,2.5-4.7,3.1c-1.5,0.5-1.9,0.2-1.8-1.4c0.4-4.2-0.2-8.3-1.1-12.4
	c-0.8-3.9-1.9-7.7-2.8-11.6c-0.8-3.7-1.2-7.4-0.5-11.2c0.4-2.3,1.2-4.5,3-6.1C61,76.1,62.9,75.8,65.1,76.8c-0.3,0.4-0.7,0.5-1.2,0.6
	c-4.6,1.3-5.9,5.5-2.9,9.1c0.7,0.8,1,1.8,1.6,2.6c0.1,0.2,0.2,0.4,0.3,0.6c0.2,0.5,0.6,0.8,1.1,1c0.7,0.3,1.2,0.9,1.4,1.6
	c0.6,2.8,2.4,5.2,2.6,7.6c1.3-3.7,1.1-8,1.2-12.2c0.1-3.7-0.8-7.1-3.5-9.8C65.2,77.7,64.8,77.3,65.1,76.8z"/>
<path class="st4" d="M24.2,115.2c0,1.9-0.9,3.6-1.9,5.1c-2.2,3.2-6.8,3.3-9.3,0.3c-1.5-1.8-2.3-4-2.5-6.4c-0.6-5.9,0-11.6,1.2-17.4
	c0.3-1.5,0.6-3,0.9-4.5c0.6,0,0.7,0.4,0.9,0.9c0.1,0.8,0,1.7,0.1,2.6c0.4,2.6,0.6,2.7,2.9,1.7c0.2,0.1,0.4,0.2,0.5,0.4
	c0.2,1-0.2,1.9-0.2,2.9c0.1,1.2-0.6,3.2,2,1.8c0.9-0.5,1.1,0.3,1.1,1c0,1-0.4,1.9,0,2.8c0.3,0.7-0.3,2.4,1.7,1.5
	c0.8-0.4,1.1,1.2,1.2,2c0.2,1.1,0.2,2.3,1.5,2.8C24.6,113.6,24.5,114.4,24.2,115.2z"/>
<path class="st5" d="M47.1,108.3c0.2,3.2-0.3,6.4-1.4,9.4c-0.5,1.5-1.3,2.9-2.8,3.7c-2,1.1-3.9,0.8-5.6-0.5
	c-1.5-1.1-2.5-2.7-3.1-4.5c-0.9-3.3-1.2-6.6-0.7-9.9c0.7-4.6,1.9-9,2.8-13.6c0.4-1.8,0.7-3.6,1.1-5.4c1.5-0.7,1.8,0,1.8,1.3
	c-0.2,1.1,0.3,2.2,0.4,3.3c0.1,0.6,0.2,1.3-0.3,1.5c-0.8,0.3-0.9-0.6-1.3-1c0,1.3-0.2,2.7,0,4c0.1,0.6,0,1.4,0.5,1.5
	c2.4,0.5,1.4,1.9,1.1,3.3c-0.3,1.3-0.3,2.4,1.7,2.3c1.5-0.1,1.2,1.1,1.2,2.1c0,1.5-0.1,2.9,2,1.3c0.9-0.7,1.3-0.1,1.3,0.8
	c0,0.6-0.2,1.2-0.2,1.9c0.2-0.4,0.2-0.9,0.6-1.2C46.4,108.3,46.8,108.2,47.1,108.3z"/>
<path class="st6" d="M43.4,49.2c0,0.3,0,0.5,0,0.8c0.2,0.5,0.4,1.2-0.2,1.5c-0.7,0.3-0.8-0.6-0.9-1C42,49,42.1,47.6,42,46.1
	c0.1-0.5,0.2-0.9,0.4-1.4c0.1-0.2,0.1-0.4,0.2-0.7c0.3-2,0.8-3.9,0.7-5.9c-0.1-1.4-0.7-2-2.1-1.9c-0.4-0.4-0.2-0.8-0.1-1.3
	c0.1-0.3,0,0.1,0.1-0.2c0.9-3.3,0.7-3.6-2.5-3.5c-0.6-1.5,0.6-3.1-0.5-4.5c-1.1-0.3-1.1,1.5-2.3,1.1c-1-1.2-0.4-2.7-0.7-3.8
	c-0.3,1.8,0.1,3.8,0.2,5.8c-0.5,0.3-1,0.3-1.4-0.1c-0.5-4.6,0.1-9.1,1.8-13.4c1.6-4.1,6.1-4.8,9-1.4c1.7,2,2.5,4.4,2.8,7
	c0.4,3.7,0,7.3-0.8,10.9c-1.1,4.6-2.3,9.3-3.2,14C43.5,47.6,43.8,48.4,43.4,49.2z"/>
<path class="st7" d="M13.1,93.4c-0.1-0.4-0.1-0.8-0.5-1c0.4-1.9,1-3.9,1.3-5.8c0.4-3.2,0.6-6.3-1-9.5c1.5,0.4,3,0.7,4.4,1.4
	c2.3,1,3.6,2.8,3.8,5.3c0.3,3.2,0.7,6.5,0.9,9.7c0.3,3.8,1.1,7.5,2,11.2c0.9,3.4,1.3,7,0.1,10.5c-0.2-0.8,0.3-1.8-0.5-2.5
	c-0.8-2.2-0.6-4.5-1-6.7c-0.3-1.7-0.9-3-2.1-4.1c-0.6-0.6-1.4-0.9-0.5-2.3c0.7-1.1-0.8-2-1.6-2.9c-0.3,0.3-0.2,0.5-0.2,0.8
	c0,0.7,0.7,1.9-0.3,2.1c-1.3,0.3-0.7-1.3-1.2-1.9l0,0c-1.2-2.4-1.9-5-2.7-7.4C14.2,91.4,14.5,92.7,13.1,93.4z"/>
<path class="st8" d="M38.5,88.9c0.5-1.3,0.5-1.3-1-1.4c-0.1-3.3-0.1-6.6-1.8-9.9c1.6,0,2.6,0.4,3.5,1.2c0,0.1-0.1,0.2-0.1,0.3
	c-0.1,2.1,1.6,2.7,3.2,3.8c-0.2-1.3-1.4-1.7-1.4-2.7c0.1-0.1,0.1-0.2,0.2-0.3c2.3,0.8,3.4,2.6,3.7,4.8c0.7,4.1,1.2,8.2,1.7,12.3
	c0.3,2.7,0.5,5.4,0.7,8.1c0.1,1.1,0.1,2.2-0.1,3.3c-0.2,0.1-0.4,0.3-0.6,0.4c-1.2-0.9-0.6-2.3-0.9-3.5c-0.2-0.8-0.2-1.7-0.8-2.4
	c-1-1.1-2.4-2-1.3-3.8c0.1-0.2,0-0.5-0.2-0.7c-2.7-2.3-1.7-6.5-4.4-8.8C38.7,89.4,38.6,89.1,38.5,88.9z"/>
<path class="st9" d="M34.1,29.8c0.4,0,0.8,0,1.2,0c0.6,1.3,1.1,2.5,2.3,3.3c0.8,0.5,1.4,1.4,0.2,2.3c-0.7,0.5,0.2,1.6-0.6,2.2
	c-0.6,0.1-0.9-0.3-1.2-0.7c0.2,6.5,1.7,11.7,3.9,12.9c0.4-1.9,1.1-3.6-0.4-5.3c-0.3-0.4-0.4-1-0.1-1.6c1.9,0.1,2.3,1.6,2.9,3
	c0.6,1.7,0.1,3.5,0.6,5.2c0.4-0.4,0.3-0.8,0.4-1.2c0.5,2.4,0.6,4.8,1.8,7.1c-4.6-0.1-8.7-3.7-9.1-7.8c-0.6-5.2-1.2-10.5-1.9-15.7
	C34.1,32.4,34,31.1,34.1,29.8z"/>
<path class="st8" d="M39.2,78.7c0.8,0,1.5,0.2,1.9,1c0,0-0.1,0.1-0.1,0.1c-1,0.4-1.7,0.2-1.9-1L39.2,78.7z"/>
<path class="st9" d="M43.4,49.2c0-0.8-0.2-1.6,0.2-2.4C43.7,47.6,43.8,48.4,43.4,49.2z"/>
<path class="st10" d="M64.2,36.9c-0.2-0.2-0.4-0.5-0.7-0.8c-0.8,1.1,0.5,2.2,0.1,3.4c-1.5-1.6-2.9-3.1-4.3-4.6
	c0.4-0.8,1.3,0.2,1.9-0.4c-0.9-0.9-1.8-1.8-2.6-2.8c-0.6-0.8-1.4-1.6-0.7-2.8c0.3-0.5-0.2-1.1-0.4-1.6c-0.4-1.4-0.4-2.8-0.3-4.3
	c0-0.4,0-1.1,0.6-1.1c0.5,0,0.8,0.6,0.8,1c0.1,0.9,0.2,1.9,0.3,2.8c0,0.4,0.1,0.8,0.1,1.4c0.8-0.8,0.1-2,1.4-2.5
	c1.7,2.1,1.6,4.5,1.1,7c0.3,0.1,0.4,0.1,0.4,0.1c0.6-0.7,1.2-1.8,2.2-1.3c0.9,0.5,0.8,1.7,0.7,2.6C64.8,34.5,64.9,35.9,64.2,36.9
	L64.2,36.9z"/>
<path class="st11" d="M62.7,43.1c0.3,1.1,1.3,1.6,2,2.4c0.6,0.7,1.1,1.2,0.1,1.9c-0.1,0.1-0.3,0.2-0.4,0.3c-1.1,1.4-1.1,2.8,0.1,4.2
	c-3.3,0-4-2.2-4.1-4.6c-0.2-2.7-0.4-5.4-0.6-8.1c0-0.4-0.2-0.9,0.4-0.9c0.4-0.1,0.7,0.3,0.9,0.7c0.3,0.4-0.1,0.8,0,1.1
	C61.3,41.3,61.5,42.5,62.7,43.1L62.7,43.1z"/>
<path class="st10" d="M64.1,37c0.5-0.1,0.9-0.3,1.2-0.6c1.3-1.1,1.7-1,2,0.5c0.7,2.8,0.8,5.5-0.7,8.2C65.2,42.5,64.3,39.8,64.1,37
	C64.2,36.9,64.1,37,64.1,37z"/>
<path class="st12" d="M66.4,56.1c-3.4-0.5-4.4-1.3-5.1-3.9C63.6,52.7,64.9,54.3,66.4,56.1z"/>
<path class="st13" d="M62.7,43.2c-0.1-0.4-0.2-0.8-0.3-1.1c-0.1-0.5-0.8-1-0.1-1.5c0.5-0.4,1.6,0.1,2,0.8c0.5,0.8,0.3,1.7,0.2,2.5
	C63.6,44,63.4,43,62.7,43.2L62.7,43.2z"/>
<path class="st14" d="M19.9,45.9c0,0.3-0.1,0.8,0,0.9c1.6,1.4,1.5,3.2,1.1,5c-0.4,0.3-0.6-0.4-1.2-0.3c1.2,1.5,1.4,3.1,0,4.8
	c-0.2-0.4-0.4-0.7-0.7-1.2c-0.6,0.7,0,1.8-1,2.1c-0.9,0.4-1.7,0.1-2.5-0.2c-1.8-0.7-2.6-2-3.1-3.7c-1.4-4.4-1.5-8.9-1-13.5
	c0.3-2.7,1-5.4,1.5-8.4c0.8,2.4,1,4.7,2.3,6.7c0.7,1,0.3,2.5,0.9,3.6c0.3,0.6,0.3,1.5,1.4,1.2c0.7-0.2,0.7,0.5,1,0.8
	C19.1,44.6,19,45.6,19.9,45.9L19.9,45.9z"/>
<path class="st15" d="M20,41.1c-0.1-1.6-0.6-3-1.3-4.5c-1.1-2.3-2.1-4.7-2.6-7.3c-0.2-1.1-1.4-1.6-1.1-3c0.9,0.2,1.5,0.8,1.9,1.5
	c0.5,0.8,1.2,1.5,2,2c0.8,0.6,1.8,1,0.5,2.1c-0.4,0.4,0.1,0.7,0.3,1c0.8,0.7,1.5,1.5,1.6,2.5c-0.6,0.8-1.6,0-2.2,0.9
	c0.9,1.5,2.9,2.1,3.4,4c-0.6,0.5-1.2-0.4-1.9,0.1c0.7,0.9,1.5,1.7,2,2.7c0.6,1,1.7,2,0.6,3.4c-0.3,0.4,0.2,0.7,0.4,1
	c0.3,0.9,0.8,1.7,0.4,3c-1.4-2.1-1.7-4.3-2.2-6.5C21.5,42.8,21.1,41.7,20,41.1L20,41.1z"/>
<path class="st15" d="M19.9,41.1c0.1,0.9,0.6,1.6,0.9,2.4c0.4,1.1,0.4,2-1,2.4c0,0,0,0,0,0c-0.2-1.6-1.1-3.1-0.8-4.8
	c-0.7-0.2-0.8,0.3-1.1,0.5c-0.5,0.4-0.8,0.2-1-0.4c-0.3-1.4-0.3-2.8,0.3-4.3C18.9,38.1,18.7,40.1,19.9,41.1
	C20,41.1,19.9,41.1,19.9,41.1z"/>
<path class="st16" d="M14.5,30.6c1.1,1.4,1.1,2.8,2.2,3.4c0.3,0.2,0.2,1,0.1,1.6c-0.1,0.5-0.5,0.9-0.9,1c-0.7,0.2-0.8-0.4-0.9-0.8
	C14.6,34.3,14.3,32.8,14.5,30.6z"/>
<path class="st17" d="M65.1,76.8c3.2,2.4,4.5,5.7,4.6,9.5c0.1,4.4,0.2,8.9-1,13.3c-0.2,0.8-0.4,1.5-0.9,2.3
	c-0.8-2.1-0.7-4.3-2.3-6.1c-0.7-0.8-0.6-2.3-0.9-3.4c-0.2-0.9-0.7-1.4-1.7-1.2c-0.4-0.4-0.1-1-0.4-1.4l0,0c-1.1-2.6-0.3-5.6-1.7-8.1
	c-0.5-0.9,0.1-1.7,1-1.6c1.1,0.1,1-0.2,0.8-1c-0.2-0.9,0-1.7,1-2.2C64.1,76.8,64.6,76.8,65.1,76.8C65.1,76.8,65.1,76.8,65.1,76.8z"
	/>
<path class="st18" d="M63.6,76.9c-0.6,1.1-1,2.2,0.2,3.2c0.1,0.1,0.1,0.5,0,0.6c-0.1,0.2-0.4,0.3-0.6,0.2c-0.7-0.2-1.4-1-2.2-0.2
	c-0.2,0.4,0.3,0.6,0.4,1c0.3,1,1.5,1.8,0.6,3c-0.2,0.3,0.6,3,0.9,3.4c0.7,0.8-0.3,1.1-0.5,1.5c-1.3-1.1-1.6-3-3.1-4
	c-0.5-0.3-0.6-1.1-0.6-1.7c0-1.7,1.2-3.2,0.7-4.9c-0.1-0.3,0.5-0.6,0.8-0.8C61.3,77.5,62.4,77.1,63.6,76.9z"/>
<path class="st19" d="M65.6,107.9c-0.3-0.2-0.6-0.3-0.8-0.5c-0.9-1.2-1.8-2.3-3.1-3.2c-0.7-0.4-1-1.1,0.1-1.6c0.6-0.3,0.3-0.6,0-0.9
	c-0.9-0.8-1.8-1.5-2.1-2.8c0.2-0.1,0.3-0.2,0.5-0.2c2.6-0.3,2.6-0.3,3.1,2.2c0.1,0.3,0.1,0.7,0.3,0.9c1.5,1.7,1.2,4,2.3,5.8
	C65.9,107.8,65.7,107.9,65.6,107.9z"/>
<path class="st20" d="M60,93c-1.7-1.4-3-2.9-2.6-5.4c0.2-1-1.1-2.1-0.3-3.7C58.9,86.9,59.3,90,60,93L60,93z"/>
<path class="st21" d="M66.4,103.7c-1.1-1.5-1.5-3-2.1-4.4c-0.3-0.6,0.2-1.1,0.8-1.3c0.6-0.2,0.8,0.4,1,0.8
	C66.5,100.3,67,101.8,66.4,103.7z"/>
<path class="st22" d="M61.9,94.1c0.8-0.1,0.9-1.1,1.7-1.2c1,1.7,1,2.5,0.1,4.8C62.8,96.5,62.1,95.4,61.9,94.1L61.9,94.1z"/>
<path class="st20" d="M60,93.1c0.3,0,0.7,0,1,0l0,0c0,1.4,0.9,2.7,0.6,4.1c-1.5-0.7-1.5-0.7-3-2.9C59.2,94,60.9,94.8,60,93.1
	C60,93,60,93.1,60,93.1z"/>
<path class="st23" d="M61,93.1c0-0.7-0.4-1.3-0.7-2c-0.4-0.8-0.2-1.5,0.2-2.4c1.7,1.7,1.4,3.5,1.4,5.3c0,0,0,0,0,0
	C61.6,93.7,61.3,93.4,61,93.1C61,93.1,61,93.1,61,93.1z"/>
<path class="st18" d="M62.5,89.7c0.5,0.4,0.4,0.9,0.4,1.4C62.3,90.8,62.4,90.3,62.5,89.7z"/>
<path class="st24" d="M16.7,97.7c0.7,0.4,0.2,1.5,1.2,1.7c-0.1-1.3-0.5-2.6-0.8-4.1c1.5,0.4,2.3,1.2,2.8,2.1
	c0.5,0.9,1.1,1.6,1.9,2.2c-0.5,1-1.5,0.2-1.9,0.9c0.2,0.7,1,0.8,1.4,1.3c1.1,1.2,2.6,2.2,1.9,4.2c0,0.1,0.1,0.3,0.1,0.5
	c0.8,2.1,0.8,4.2,0.5,6.3c-1.3,0.2-1.3-0.8-1.5-1.6c-0.2-0.9-0.2-1.9-0.6-2.8c-0.6,0.2-0.1,1.2-0.8,1.3c-0.7,0.1-1.1-0.6-1.3-1.2
	c-0.5-1.7-1-3.5,0-5.2c-0.8-0.6-0.9,0.2-1.2,0.4c-0.5,0.4-1,0.9-1.7,0.6c-0.6-0.3-0.6-0.9-0.6-1.5C16.3,101,16.1,99.3,16.7,97.7z"/>
<path class="st25" d="M13.1,93.4c0.5-1.1,0.2-2.5,1.2-3.5c1.2,2.5,2.5,4.9,2.5,7.8c-0.7,0.3-1.1,0.9-1.7,1.3
	c-0.7,0.6-1.1,0.3-1.4-0.4C13.1,97,13,95.2,13.1,93.4z"/>
<path class="st26" d="M38.5,88.9c1.6,0.9,2.4,2.5,3.3,4c0.2,0.3,0.4,0.8,0.3,0.9c-1.3,1.4,0.2,1.9,0.7,2.8c0.5,0.7,0.9,1.5,1.4,2.2
	c0.2,0.3,0.4,0.8,0.1,0.9c-2.1,1-0.4,1.8,0.2,2.2c2.1,1.2,1.4,3.3,1.8,5c0.2,0.6,0.1,1.3,0.1,1.9c-0.7,0.7-0.5,1.6-0.4,2.5
	c-1-1.2-1.4-2.5-0.5-4.5c-1,0.9-1.5,1.5-2.1,1.9c-0.6,0.5-1.2,0.4-1.4-0.5c-0.2-0.9-0.6-1.8-0.2-2.8c0.2-0.4,0.3-0.9-0.1-1.4
	c-0.2,0-0.5,0-0.7,0.1c-1.7,0.8-2,0.6-2.4-1.2c-0.3-1.4,0.6-2.6,0.9-3.9c-2,0.4-2.1,0.3-2.4-1.4c-0.4-2.2,0.2-4.4,0.1-6.9
	c1.4,0.7,0.7,2.3,1.7,2.9C39.5,91.9,38.4,90.5,38.5,88.9z"/>
<path class="st27" d="M42.4,45.9c-1.2-0.8-1.6-2.3-2.8-3.1c-0.1-0.1-0.2-0.1-0.3-0.2c-1.4-0.9,0-2.7-1.3-3.6
	c-0.4-0.4-0.9-0.7-0.7-1.3c0.1-0.5,0-1-0.3-1.4c-1.1-1.4,0.1-1.5,1-1.7c-0.3-1.1-1.4-1.5-2.1-2.1c-0.8-0.8-1.1-1.6-0.7-2.7
	c-1-2.1-0.9-4.2-0.1-6.6c1,1.1,0.9,2.1,1,3.2c0,0.5-0.3,1.1,0.3,1.5c1.3,0.1,1.3-1.2,2-1.9c1.5,1.6,0.8,3.4,0.5,5.1
	c0.6,1.5,1,3.2,2.6,4c-0.1,0.3-0.2,0.6-0.3,0.9c-0.2,1.4,2.2,2,1.2,3.6c-0.9,1.8,0.7,3.4,0.5,5.2C42.7,45.2,42.6,45.6,42.4,45.9z"/>
<path class="st28" d="M42,39.5c0.6-0.4,0.3-0.7-0.1-1c-0.7-0.6-1.7-1.3-0.7-2.4c0.3-0.1,0.6-0.1,0.9-0.3c0.8-0.5,1.2-0.2,1.4,0.6
	c0.2,0.9,0.5,1.8,0.4,2.8c-0.2,1.7-0.1,3.4-0.9,5C42.3,42.7,41.4,41.3,42,39.5z"/>
<path class="st28" d="M41.5,35.2c-0.5,0-1.3,0.6-1.5-0.5c-0.3-1.2-1.8-2.1-1.1-3.6c0.9-0.2,1.5-0.9,2.5-1.2
	C42.5,31.7,42.5,33.4,41.5,35.2z"/>
<path class="st28" d="M38.4,26c0,0.5,0,1,0,1.4c-0.2,1.4-0.6,1.5-1.9,0.4C36.9,26.6,37.3,26.3,38.4,26z"/>
<path class="st9" d="M42,39.5c-0.4,1.7,0.9,3.1,1,4.7c-0.1,0.2-0.1,0.5-0.2,0.7c-1.2-1.5-1-3.6-1.7-5.3C41.1,39.2,41.7,39.1,42,39.5
	z"/>
<path class="st29" d="M17.3,83c1.9,0.2,2.6,1.1,3,2.6c0.6,2.3,0.3,4.7,0.8,7.1c0.2,1.1,0.1,2.3,0.2,3.5c-0.7,0-1.1-0.3-1.1-0.8
	c0-2.5-1.4-4.2-3.1-5.7c-0.8-0.7-1.2-1.2-0.4-2.3C17.5,86.1,18.2,84.7,17.3,83z"/>
<path class="st30" d="M19.5,82.3c-2-0.6-3.4-2-4.7-3.6C17.5,78.6,19.4,80,19.5,82.3z"/>
<path class="st25" d="M16.3,90.3c1.1,1.1,2.5,1.9,2.8,3.7c-2.2,0.4-2.4,0.3-2.5-1.7c0-0.4,0.1-0.8-0.1-1.1
	C16.3,90.9,15.8,90.8,16.3,90.3z"/>
<path class="st31" d="M45.4,98.4c-0.7-0.8-1.4-1.5-2.1-2.4c-0.2-0.2-0.4-0.6-0.4-0.8c0.5-2-0.8-3.4-1.8-4.9c-1-1.4-1.5-2.8-0.6-4.4
	c0.4-0.7,0.1-1.3-0.3-2c3,0.7,3.4,0.9,3.9,3.5c0.6,3.4,1.1,6.9,1.7,10.3C45.8,98,45.8,98.2,45.4,98.4z"/>
<path class="st32" d="M39.1,78.8c0.5,0.5,1.1,0.9,1.9,1c0.7,0.8,1.4,1.7,2.1,2.5c0.2,0.2,0.2,0.6,0.1,0.9c-0.2,0.5-0.6,0.3-1,0.1
	c-1.9-0.6-3.2-2-4.1-3.7C37.5,78.5,38.6,79,39.1,78.8z"/>
<path class="st33" d="M37.3,37.7c0.2,0.3,0.4,0.5,0.7,0.8c1.1,1.2,0.3,3.2,1.6,4.4c0,0,0,0,0,0c0,0.9,0.4,1.6,1,2.1
	c0.9,0.8,1,2.1,0.6,2.6c-0.9,1.2-0.1,2.2,0.1,3.5c-0.9-0.4-1.6-0.7-2.4-0.9c-1-0.2-1.4-0.9-1.6-1.8c-0.7-3.7-1.5-7.3-2-11
	c0-0.4,0-0.8,0-1.3C36.6,36.1,36.7,37.2,37.3,37.7z"/>
<path class="st34" d="M37.6,51.2c2.5-0.2,4.3,1.2,5.7,4.6C40.5,55.1,38.7,53.7,37.6,51.2z"/>
<path class="st9" d="M39.6,42.9c-1.2-0.9-1.8-1.9-1.4-3.5c0.1-0.3-0.1-0.6-0.2-0.9c0.9,0,1.2,0.8,1.6,1.2c0.1,0.1,0.1,0.3,0.2,0.4
	C37.9,40.9,40,42,39.6,42.9z"/>
</svg>
