<?xml version="1.0" encoding="utf-8"?>
<!-- Generator: Adobe Illustrator 23.1.1, SVG Export Plug-In . SVG Version: 6.00 Build 0)  -->
<svg version="1.1" id="Livello_1" xmlns="http://www.w3.org/2000/svg" xmlns:xlink="http://www.w3.org/1999/xlink" x="0px" y="0px"
	 viewBox="0 0 80 135" style="enable-background:new 0 0 80 135;" xml:space="preserve">
<style type="text/css">
	.st0{fill:#FFFFFF;stroke:#000000;stroke-width:0.2509;stroke-miterlimit:10;}
	.st1{fill:#4E594F;}
	.st2{fill:#505D50;}
	.st3{fill:#4C5B4D;}
	.st4{fill:#536451;}
	.st5{fill:#774844;}
	.st6{fill:#6C4643;}
	.st7{fill:#734644;}
	.st8{fill:#4D5750;}
	.st9{fill:#704646;}
	.st10{fill:#6B534D;}
	.st11{fill:#4F5D4E;}
	.st12{fill:#4F5C52;}
	.st13{fill:#6E4E4A;}
	.st14{fill:#B6A449;}
	.st15{fill:#734744;}
	.st16{fill:#E0C939;}
	.st17{fill:#D3C544;}
	.st18{fill:#9A8A39;}
	.st19{fill:#DFCD42;}
	.st20{fill:#E5D542;}
	.st21{fill:#DECF46;}
	.st22{fill:#CAB757;}
	.st23{fill:#D8D365;}
	.st24{fill:#EE544E;}
	.st25{fill:#DAC63F;}
	.st26{fill:#E7DD47;}
	.st27{fill:#EE5251;}
	.st28{fill:#ED4F4C;}
	.st29{fill:#D9C84F;}
	.st30{fill:#E7D83C;}
	.st31{fill:#E4DC4B;}
	.st32{fill:#E6D34D;}
	.st33{fill:#D2C964;}
	.st34{fill:#EB5A59;}
	.st35{fill:#EBDC38;}
	.st36{fill:#E46365;}
	.st37{fill:#E95553;}
	.st38{fill:#E85E66;}
	.st39{fill:#E3D653;}
	.st40{fill:#EE575A;}
	.st41{fill:#EA5D61;}
</style>
<path class="st0" d="M71.5,135h-63c-4.7,0-8.5-3.8-8.5-8.5V8.5C0,3.8,3.8,0,8.5,0h63C76.2,0,80,3.8,80,8.5v118
	C80,131.2,76.2,135,71.5,135z"/>
<path class="st1" d="M52.1,71.2c-5.4,0.8-10.7,1.4-16.1,2c-3,0.3-6,0.7-9,1c-3.9,0.4-7.6-0.3-11-2.5c-1.4-0.9-2.4-2.1-2.4-3.9
	c0-1.1,0.2-2.1,1.1-2.8c2.2-2,4.7-3.4,7.8-3.7c0.3,0.3,0.6,0.3,0.9,0.4c1.5,0.6,2.9,1.5,4.6,1.5c0.9,0,1.4,0.6,1.8,1.3
	c1.1,1.5,3,0,4.1,1.1c0.2,0.3,0.2,0.8,0.3,1.1c0.4,0.3,0.9,0.2,1.4,0.3c0.8,0,1.6,0,2.4-0.2c0.6-0.1,1.3-0.2,1.5,0.4
	c0.7,2.2,2.7,2,4.2,2.1c2.1,0.1,4.1,0.4,6.2,0.3C51.2,69.4,52.3,69.4,52.1,71.2z"/>
<path class="st2" d="M20.2,91.4c0,6.4,1.3,12.7,1.7,19c0.2,2.5,0.1,4.9-0.6,7.4c-1.2,3.9-4.6,6-8.1,4.7c-2.5-0.9-3.8-2.8-4.5-5.2
	c-0.9-3.2-0.7-6.3,0-9.5c0.3-1.5,0.4-3.2,1.2-4.6c0.6,0.4,0.8,1,1.2,1.5c1.3,1.4,1.7,2.7-0.1,4c-0.3,0.3-0.5,0.8-0.5,1.3
	c0.7,0,0.9-1.8,2-0.6c0.5,0.6,0.6-0.2,0.7-0.5c0.2-0.4,0.2-0.9,0.2-1.4c0-0.7-0.4-1.6,0.5-1.9c0.7-0.2,1.2,0.7,1.8,1.3
	c0.8-4.3,3.5-7.9,3.2-12.3C19.3,93.6,18.4,92,20.2,91.4z"/>
<path class="st3" d="M59.4,40.6c-0.5-5.9-1.8-11.6-2-17.5c-0.1-2.5,0.1-4.9,1.1-7.2c1.1-2.5,3-3.9,5.7-3.9c2.6,0,4.5,1.4,5.6,3.8
	c1.5,3.3,1.6,6.7,0.8,10.2c-0.8,0.2-1-0.4-1.3-0.9c-0.9-0.4-3.1,0.2-3.4,0.9c-0.3,0.7,0,1.9-1.4,1.7c-1.2-0.4-1,0.6-1.1,1.2
	c-0.1,1.1,0,2.2-0.8,3.1c-1.7,1.6-0.9,4-1.9,5.9C60.1,38.7,60.8,40.2,59.4,40.6z"/>
<path class="st4" d="M10.1,50.7c-0.8-2.4-1.3-4.9-1.4-7.5c-0.3-6.8,0.6-13.5,2.1-20.2c0.1-0.4,0.1-0.8,0.1-1.2
	c0.2-4.4,2.4-6.3,6.4-7.5c1.5-0.4,1.8-0.2,1.5,1.3c-0.3,1.6-0.6,3.1-0.7,4.7c-0.3,3.2,0.4,6.3,1.2,9.4c0.2,1,0.5,2,0.3,3.1
	c-0.8,0.3-1-0.4-1-0.9c-0.2-0.9-0.8-1.3-1.5-1.8c-1.1-1.5,0.5-2.8,0.3-4.2c-0.8,1.5,0.2,3.7-2.5,4.4c-1.9,0.5-4.8,6-4.5,8
	c0.1,0.8,0.1,1.6-0.1,2.4c-0.7,2.2-0.2,4.4,0.3,6.6C10.8,48.5,11.4,49.7,10.1,50.7z"/>
<path class="st5" d="M36.3,107.5c-0.8-2-0.8-4.2-1-6.3c-0.4-3.7-0.6-7.5-0.3-11.2c0.2-2.9,0.9-5.6,3.3-7.7c3.1-2.8,6.8-2,8.5,1.8
	c1.2,2.6,0.8,5.3,0.6,8c-0.1,1.6-0.4,3.2-0.3,4.8c0.1,1.6-0.5,3-1.5,4.1c-0.2,0.1-0.4,0.1-0.6,0c-0.1-1,0.4-2.1-0.8-3
	c-0.7-0.5,0.1-1.3,0.4-1.9c0.9-1.5,1.7-3.1,0.6-4.8c-1.7,1.6-2.1,3.7-1.8,6c0.1,0.4,0.1,0.8,0.1,1.2c-0.1,0.6-0.2,1.4-1,1.4
	c-0.7,0-0.7-0.7-0.8-1.2c-0.1-0.6,0-1.3-0.7-1.7c-0.8,0.5-0.3,1.3-0.3,1.9c0,0.9,0.4,1.8-1.2,2.1c-1,0.2-0.7,1.6-0.7,2.5
	c0.1,1.4,1.2,1.8,2.3,1.9c0.3,0.1,0.6,0.4,0.6,0.7c-1.4,1.3-2.8,2.6-4.4,3.5C36.5,109.1,36.8,108.1,36.3,107.5z"/>
<path class="st6" d="M61.2,110.3c-0.8-2.8-1.3-5.7-1.5-8.7c-0.1-2.2-0.7-4.4-1.3-6.6c-1-3.4-1.3-6.9-0.7-10.4c0.3-1.6,0.9-3.1,2-4.3
	c2.1-2.1,4.4-2.4,7-0.3c2.5,2,3.2,4.9,3.6,7.8c-0.4,1.4-0.7,2.8-1,4.2c-0.1,0.5-0.2,1.4-0.8,1.4c-2.1,0-1.5,1.2-1.3,2.4
	c0.2,1.2,0.8,2.8-1.5,1.7c-0.6-0.3-0.8,0.2-1,0.6c-1.8,3.3-2.6,6.9-2.4,10.6c0,0.5-0.1,1-0.4,1.4C61.7,110.4,61.5,110.4,61.2,110.3z
	"/>
<path class="st7" d="M43.2,27.4c1.5,5.5,1.7,11.1,1.7,16.8c0,1.6-0.1,3.2-0.6,4.7c-0.6,2-1.8,3.7-3.6,4.8c-2.6,1.6-5.4,1-7-1.6
	c-0.8-1.3-1.5-2.7-1.3-4.3c0.6-0.8,0.6-1.8,1.3-2.5c1.1-1.1,1-2.9,2.6-3.9c1.2-0.8,0.1-2.8-0.3-4.2c0.3-1.6,1.1-2.9,1.8-4.3
	c0.4-0.7,0.8-1.6,1.9-1.3c0.6,0.8,0.4,1.6-0.3,2.2c-0.8,1.4-1.8,2.8-0.7,4.6c1.1-1.5-0.6-3.1,0.5-4.5c2.9,0.6,1.3-1.9,2-2.8
	c0.2-0.3-0.5-0.1-0.2,0c0.1,0,0,0.1,0,0.2c-0.2,0.4-0.6,0.5-1,0.4c-0.8-0.5-0.5-1.6-1.3-2.1c-0.1-0.2-0.1-0.4-0.1-0.7
	c0.7-1.3,1.8-2,3.1-2.5C42.3,26.6,42.7,27,43.2,27.4z"/>
<path class="st8" d="M61.2,110.3c0.1,0,0.3,0,0.4,0c0.1-0.2,0.3-0.2,0.5-0.1c0.4,0.2,0.7,0.1,1-0.1c0.7-0.7,1.4-1.4,2.3-2
	c-1,0.4-1.5,1.3-2.3,1.9c-0.2,0.1-0.4,0.1-0.6,0c-0.6-2.2-0.1-2.9,2-4c1.1-0.6,1.9-1.8,2.4-2.9c0.6-1.4,2-2,2.7-3.3
	c0.2-0.3,0.6-0.7,1-0.2c0.3,0.3,0.2,0.7,0,1.1c-0.2,3.4-0.9,6.8-1.6,10.1c-0.3,1.2-0.4,2.4-0.5,3.5c-0.5,4-3.4,6.9-7.4,7.2
	c-0.6,0-0.9-0.2-0.8-0.8c0.2-0.9,0.4-1.9,0.7-2.8C61.5,115.3,61.6,112.8,61.2,110.3z"/>
<path class="st9" d="M17.2,30c1.2-0.1,1.8,0.4,1.8,1.6c0,0.5,0,1,0.5,1.2c0,0,0,0,0,0c0.5,0.8-0.2,1.7,0.4,2.5c1,4.6,2.8,9,2.4,13.8
	c-0.1,1.6-0.5,3.1-1.2,4.6c-2.2,4.5-7,3.6-9.2,0.8c-0.9-1.1-1.6-2.4-1.8-3.8c0.5-1.1,0-2.3,0.1-3.4c-0.2-1.1,0-2.2-0.2-3.3
	c-0.5-2.8-0.2-3,2.4-2c0.6-0.6,0.2-1.3,0.1-2c-0.4-2.5-0.3-2.6,2.1-1.9c0.3-0.8-0.1-1.6-0.1-2.3c0-0.6,0-1.4,0.6-1.4
	c2.3-0.1,1.8-1.6,1.7-3C16.8,30.8,16.8,30.3,17.2,30z"/>
<path class="st10" d="M52.1,71.2c-0.4-0.8-0.8-1.7-2-1c-0.3-0.3-0.6-0.6-0.5-1.1c0.1-0.3,0.4-0.5,0.7-0.6c0.1-0.1,0.5,0,0.4-0.1
	c-0.8-0.7-2.2-1-1.8-2.5c2.5,0.5,5.1-0.4,7.5,0.8c0.6,0.3,1.8,0.6,2-0.3c0.2-1-0.8-1.4-1.8-1.4c-3.1,0-6.2-0.3-9.2-0.7
	c-0.4-0.1,0.3,0.5,0.1,0.9c-1.5,0.9-2.4-0.7-3.7-0.7c-0.3,0.5,0.4,1.1,0.1,1.7c-0.1,0.2-0.2,0.4-0.4,0.6c-1.3,0.1-2.1-0.9-3-1.7
	c-1.4-1.2-2.8-2-4.7-1.7c-0.5,0.1-1,0.6-1.6,0.4c-2.9-1.1-6-1-9-1.6c-0.7-0.1-1.4,0.2-2.1-0.2c-0.2-0.2-0.4-0.3-0.5-0.5
	c4-1.1,7.9-0.5,11.9-0.1c6.8,0.7,13.6,1.5,20.5,2.3c1.3,0.1,2.6-0.1,3.8-0.1c2.8,0,4.8,1.2,6,3.8c-1.6,0.4-2.1-1.8-3.7-1.6
	c1.4,2.5,2.2,2.9,3.7,1.6c1.1,0.5,1.3,1.6,1.8,2.8c-2.2,0.2-4.3-0.3-6.4,0c-1.5,0.2-3,0.3-4.4,0.9C54.5,71.3,53.3,71.4,52.1,71.2z"
	/>
<path class="st11" d="M43.2,27.4c-0.5-0.2-1.1-0.4-1.6-0.6c-0.3-0.6,0.3-1.2-0.3-1.9c-1,1.3-2.4,2.4-2.5,4.2c0,0.2,0,0.4,0,0.6
	c0.3,1.8-0.7,2.9-2.1,3.7c-0.8,0.5-1.4,1.2-2.3,1.6c-0.2,0-0.4,0-0.6-0.2c1.4-4.8,2.1-9.8,2.1-14.8c0-0.9,0.2-1.7,0.8-2.5
	c1.6-2,3.6-3.2,6.4-4.3C42.5,18.3,43,22.9,43.2,27.4z"/>
<path class="st12" d="M36.3,107.5c0.6,0.5,0.9,1.2,1,1.9c0.4,0.6,0.7,1.8,1.6,0.3c0.8-1.2,1.4-2.6,2.6-3.6c-0.1-0.3-0.3-0.5-0.6-0.6
	c-0.1-2.9,1.8-4,4.2-4.7c0.1,0,0.3,0,0.4,0c0.1,1.6-0.7,3.1-1,4.6c-0.6,3-0.9,6-0.9,9c0,2-0.8,3.4-2.2,4.5c-1.2,0.9-2.5,1.7-3.9,2.3
	c-0.9,0.4-1.4,0.2-1.3-0.8c0.1-1.1,0.2-2.2,0.4-3.3c0.3-3-0.3-5.9-0.3-8.8C36.2,108.1,36.3,107.8,36.3,107.5z"/>
<path class="st13" d="M69.4,24.9c0.4,0.4,0.8,0.7,1.1,1.1c-0.3,3.8-1.5,7.5-2.5,11.1c-0.9,3.3-1.8,6.6-1.8,10.1
	c0,1.1-0.4,2.1-1.1,2.8c-1.6,1.7-3.5,2.9-5.7,3.8c-0.8,0.3-1.3,0.1-1.1-0.8c0.8-4.1,0.8-8.2,0.9-12.4c0.8-0.8,0-2,0.8-2.9
	c1,0.5,0.6,1.6,0.9,2.3c0.9,0.7,0.8-0.3,1.1-0.6c0.1-0.2,0.2-0.3,0.3-0.5c0.3-0.4,0.8-0.8,0.9-1.4c0-0.7-0.6-1.3-0.2-2
	c0.1-0.2,0.3-0.3,0.4-0.4c0.5-0.3,1-0.6,1.4-1.1c0.1-0.1,0.2-0.3,0.3-0.4c0.1-0.2,0.2-0.4,0-0.7c-0.2-0.2-0.4-0.4-0.5-0.7
	c0-0.3,0-0.6,0.2-0.9c0.6-0.6,1.3-0.8,1.9-1.4c0.3-0.3,0.8-0.7,0.6-1.2C66.4,26.7,68.4,26,69.4,24.9z"/>
<path class="st14" d="M70.6,100.6c-0.1-0.3-0.1-0.6-0.2-1c-0.8,0.9-1.1,2.2-2.4,2.3c0,1.4-1.2,2.2-1.9,3.3c-0.5,0.7-0.8,2.2-2.2,1
	c-0.1-0.1-0.3,0.1-0.4,0.1c0.4,1.3-1.3,2.2-0.8,3.5c0,0.4-0.2,0.6-0.5,0.8c-0.1-0.1-0.3-0.2-0.4-0.3c0.1-1.7-0.6-3.5,0.4-5.1
	c0.3-0.5-0.2-1.1-0.2-1.6c0.1-1.2-0.3-2.6,1.4-3c0.4-0.1,0.4-0.4,0.5-0.7c0-0.4,0-0.8,0.2-1.2c0.3-0.8-0.1-2,0.8-2.4
	c1-0.4,1.1,1.1,1.8,1.4c0.6-0.8,0-1.3-0.1-1.9c-0.2-0.7-0.3-1.4-0.3-2.1c0.1-1.2,0.3-1.4,1.4-0.8c0.3,0.1,0.5,0.4,0.8,0.3
	c0.6-1.7,0.1-3.9,1.8-5.2c0.5,1.6,0.8,3.3,0.6,5c-0.7,1.1-0.1,2.4-0.7,3.5c0.2-0.3-0.1-1,0.7-0.8C70.9,97.3,71.2,99,70.6,100.6z"/>
<path class="st15" d="M20.2,91.4c-1.1,1.2-0.2,2.7-0.7,3.9c-1,0.6-1.2-1.1-1.3-0.8c-0.4,1.3-3.3,1.6-1.5,3.8c0.5,0.6-0.2,1-0.6,1.3
	c-0.9,0.8-2.7,1.1-1.4,3c0.2,0.3-0.3,0.7-0.7,0.9c-1,0.5-1.8,1.3-3,1.2c-1-0.1-1.1-0.8-1.1-1.6c0.8-2.9,1.6-5.8,2.3-8.7
	c0.6-2.3,1.1-4.7,1.2-7.1c0-1,0.3-1.9,1-2.6c1.8-2,4.1-3.1,6.9-4.1C20.9,84.5,20.6,88,20.2,91.4z"/>
<path class="st11" d="M33.8,45.7c-0.2,0.9-0.5,1.8-1.4,2.3c0-2.2,0-4.3,0.3-6.4c0.1-0.7,0.2-1.4,0.1-2.1c-0.3-1.7,0.1-3.1,1.1-4.5
	c0,0,0.1,0.1,0.1,0.1c0.5,0.9,0.7,2,1.9,2.3c0.4,0.8-0.2,1.3-0.5,1.9c-0.6,1.3-1.7,2.3-0.8,4C34.8,43.9,33.9,44.8,33.8,45.7z"/>
<path class="st8" d="M70.9,95.6c-0.5,0.7-0.2,1.5-0.4,2.4c-0.6-0.3-1.4-0.4-0.9-1.2c0.7-1.3,0.5-2.6,0.7-3.9c0.2-1,0.5,0.2,0.7,0
	C70.9,93.9,70.9,94.8,70.9,95.6z"/>
<path class="st4" d="M20,35.3c-0.8-0.7-0.4-1.6-0.4-2.5C20,33.6,20,34.5,20,35.3z"/>
<path class="st16" d="M49.8,69.2c0.5,0.2,0.5,0.5,0.3,0.9c-3.4-0.2-6.7,0-10-0.9c-1.3-0.4-1.1-1-0.4-2c-1.6,0.1-2.9,0.9-4.3,0.4
	c-0.5-0.5-1.3,0-1.9-0.5c0-0.4,0-0.8,0.4-1c0.3-0.7-0.3-1.6,0.3-2.2c0.1-0.2,0.3-0.3,0.5-0.4c0.3-0.1,0.6-0.1,0.9,0.1
	c0.5,0.4,1.2,0.8,1.6,1.4c3.2,1,6.3,2.5,9.7,3C48,68.2,49.1,68.1,49.8,69.2z"/>
<path class="st17" d="M23.1,61.8c1.9-0.6,3.7-0.6,5.6,0.1c0.9,0.3,1.7,0.5,2.8,0.2c1.3-0.5,2.2,0.5,3.1,1.3c0.1,0.1,0.2,0.2,0.1,0.3
	c0,0.1-0.1,0.2-0.1,0.2l-0.1,0.1c-1.7,0.4-3.1,2.3-5.2,1.3c0-0.8,0-1.5-1.2-1.5C26.1,63.7,24.4,63.1,23.1,61.8z"/>
<path class="st18" d="M29.2,65.2c1,0.1,2,0,2.7-0.8c0.7-0.9,1.6-0.8,2.5-0.5c0.5,0.9-0.3,1.5-0.5,2.3c-0.5-0.8-1.3-0.5-1.9-0.4
	C31,65.9,30,65.9,29.2,65.2z"/>
<path class="st18" d="M33.5,67.2c0.6,0.1,1.4-0.3,1.9,0.5C34.7,67.6,34,68,33.5,67.2z"/>
<path class="st19" d="M11,104.8c0.5-0.4,1-0.8,1.5-1.1c0.5-0.3,1.1-0.6,1.8-0.9c-0.5-0.2-0.9-0.3-1.2-0.5c-0.5-0.5,0.1-0.8,0.4-1.2
	c0.9-0.9,1.8-1.8,3-2.2c-0.1-0.9-0.8-0.2-1.2-0.6c-0.3-0.3-0.7-0.7-0.4-1c1.6-1.2,2.1-3.3,3.9-4.2c1,0.6-0.8,1.8,0.6,2.2
	c0.4,2.3-1.2,4.2-1,6.4c0,0.1,0,0.2-0.1,0.2c-1.7,1.4-1.6,3.6-2.3,5.5c-0.1,0.2-0.2,0.4-0.4,0.7c-0.5-0.7-1-1.4-1.4-2
	c-0.1,1.9-0.4,3.7-1.5,5.3c-1-0.4-0.3-1.5-0.8-2c-0.7,0.7-0.7,2-1.9,2.2c-0.5-2.1-0.3-2.8,1.9-5C10.3,106.5,10.3,106.5,11,104.8z"/>
<path class="st20" d="M69.4,24.9c-0.4,1.2-1.1,2.2-2.2,3c1.9,0.6,2,0.9,0.7,2.2c-0.8,0.8-1.6,1.5-2.8,1.5c-0.1-0.1-0.1-0.1-0.2-0.2
	c-0.4-0.3-0.9-0.4-1.3-0.8c-0.6-1-0.5-2,0.1-3c0.3-0.3,0.5-0.5,0.9-0.3c0.7,0.4,0.5-0.3,0.5-0.5c0.3-2,0.3-2,1.4-3.3
	c0.7,0.2,0.3,1,0.6,1.4c0.6-0.1,0.5-0.7,0.8-1c0.3-0.3,0.6-0.8,1.2-0.8C69.8,23.7,69.4,24.3,69.4,24.9z"/>
<path class="st21" d="M60.7,40.7c-0.6-0.9-0.2-2-0.5-2.9c0.3-1.3,0.7-2.5,0.7-3.9c0-0.9,0.4-1.8,1.4-2.3c0,1.1,1.3,0.7,1.6,1.4
	c0.1,0.5-0.1,0.8-0.4,1.2c-0.1,0.4-0.8,0.4-0.6,1c0.1,0,0.3-0.1,0.4,0c0.2,0.1,0.3,0.2,0.4,0.3c-0.1,0.3-0.6,0.6,0,0.9
	c0.7,0.3,0.5,0.9,0.3,1.4c-0.6,0.4-1.1,0.8-1.4,1.4l0,0c-0.3,0.2-0.6,0.3-0.9,0.2c-0.4-0.3-0.7-0.6-0.6-1.1c-0.2,0.6,0.3,1,0.3,1.6
	C61.4,40.4,61.3,40.9,60.7,40.7z"/>
<path class="st13" d="M63.7,33c-0.8-0.1-1.6-0.3-1.4-1.4c0.8-0.6,0.5-1.4,0.5-2.2c0.1-0.8-0.1-1.6,0.4-2.3c0.7-1.2,1.2-0.7,1.6,0.2
	c-0.2,0-0.4,0-0.5,0.3c-1.4,1.5-0.7,2.9,0.1,4.3C64.4,32.4,64.2,32.8,63.7,33z"/>
<path class="st22" d="M17.2,30c-0.3,0.8,0.2,1.4,0.3,2.1c0.1,0.9,0.1,1.8-0.4,2.6c-0.6,1.1-1.4-0.6-2.2,0.2c0.1,0.8,0.1,1.7,0.4,2.6
	c0.2,0.7,0.1,1.6-0.6,1.9c-0.7,0.3-1-0.6-1.3-1.1c-0.1-0.2-0.4-0.2-0.7-0.4c-0.2,1.8,1.5,3.5,0.1,5.3c-0.8-0.5-1.6-1.1-2.7-1.8
	c0.3,2.2,0.8,4,0,5.8c-0.7-1.6-1-3.3-0.8-5c0.2-1.7,0.8-3.2,0-5c-0.4-1,0.5-2.1,1.2-3c1.1-1.3,2.2-2.5,3-4c0.4-0.7,0.9-1.6,1.9-0.6
	c0.1,0.1,0.6-0.1,0.5-0.3c-0.5-1.5,2.4-2.6,0.2-4.4c1.4,0.9,1.5,0.9,1.3,1.9C17.3,28,17.2,29,17.2,30z"/>
<path class="st23" d="M12.3,28.7c0.9-1.6,2.3-1.9,3.6-2.7C15.3,28.3,14.6,28.7,12.3,28.7z"/>
<path class="st24" d="M37.1,107.1c-0.3-1.9-0.8-3.9-0.9-5.8c-0.3-4.4-1-8.9-0.1-13.3c0.4-1.9,1.2-3.6,2.6-5.1
	c1.7-1.9,3.8-1.9,5.9-0.2c-0.2,0.7-1.6-0.2-1.3,1c-0.7-0.7-0.7,0.8-1.3,0.5c-1-0.5,0.1,1.5-1.2,0.9c-0.3-0.2-0.2,0.5-0.1,0.7
	c0.5,2.5,0.1,4.9,0.2,7.4c0,0.2,0,0.6-0.1,0.7c-1.3,1.1-1.2,3-2.1,4.1c-1.7,2.1-1.3,4.5-1.2,6.8c0.1,0.8,0.3,1.5,0.1,2.3
	C37.4,107.1,37.2,107.1,37.1,107.1z"/>
<path class="st25" d="M45.1,100.9c-0.1,0.1-0.1,0.1-0.2,0.2c-0.8,0.8-1.8,1.3-2.8,1.9c-1.1,0.6-0.1,2.1-1.3,2.7
	c-1.7,0.5-2.4,0.1-2.8-1.6c-0.3-1.4-0.1-2.8,0.3-4c0.6-1.5,1,0.4,1.8,0.3c-0.1-1.2-0.6-2.5-0.3-3.8c0.1-0.4,0.2-0.8,0.6-0.9
	c0.4-0.1,0.7,0.2,1,0.5c1,1,0.5,2.3,0.7,3.6c0.7-0.6,0.9-1.2,0.7-1.9c-0.4-1-0.2-2.1-0.3-3.1c-0.1-1-0.1-2,1.1-2.6
	c0.8-0.4,0.6-1.8,1.5-2.4c0.6,0.5,1.2,1.1,0.6,1.9c-0.9,1.1,1.1,0.9,0.6,1.8c-0.4,0.7-0.6,1.5-1,2.2c-0.4,0.7-0.8,1.3-1.3,2
	c2.1,0.5,2.1,0.6,1.3,2.5C45.4,100.4,45.3,100.6,45.1,100.9z"/>
<path class="st26" d="M41.5,106.2c-1.3,3-2.4,4.4-4.1,5.3c-0.4-0.7-0.2-1.4-0.2-2.1C38.5,108.1,39.5,106.6,41.5,106.2z"/>
<path class="st27" d="M61.1,103.5c-0.4-4.5-1.8-8.9-2.7-13.3c-0.6-3-0.2-5.9,1.4-8.5c1-1.6,2.3-2.2,4-1.8c0.7,0.2,1.2,0.2,0.7,1.2
	c-0.3,0.7-0.6,1.5-0.9,2.2c-0.3,0.7-0.4,1.6-0.2,2.5c0.2,0.7,0,1.4,1,1.9c0.6,0.3,0.6,1.9,0.8,3c0.2,1.2-0.6,2.5,0.1,3.7
	c0.2,0.4-0.3,0.5-0.6,0.5c-0.4,0.1-0.8,0.4-0.9,0.8C63.7,98.6,60.9,100.5,61.1,103.5z"/>
<path class="st28" d="M42.4,28.2c1,3.2,1.2,6.4,1.5,9.5c0.2,2.9,0,5.7,0,8.6c0,2.3-1,4.1-2.4,5.8c-1.1,1.3-2.5,1.8-4.3,1.6
	c-0.5-0.1-0.9-0.2-1.3-0.6c-0.3-0.3-0.4-0.8-0.2-1.1c0.4-0.9,0.4,0.8,0.8,0.2c0.2-0.3,0-1.1,0.4-0.9c1,0.4,0.6-0.2,0.6-0.6
	c0-0.3-0.4-0.7,0.3-0.5c0.2,0.1,0.3,0.5,0.5,0.7c0.9-2.1,0.9-4.2,0.5-6.5c-0.2-1.3-0.6-2.9,1-3.9c0.4-0.3,0.5-1,0.7-1.5
	c0.2-0.4,0.1-1.1,0.4-1.4c1.9-2.1,1.4-4.6,1.4-7C42.2,29.9,42,29.1,42.4,28.2z"/>
<path class="st29" d="M33.8,45.7c-0.1-0.1-0.2-0.3-0.3-0.4c-0.9-0.9,1.3-1.5,0.1-2.6c-0.8-0.7,0.2-1.8,0.5-2.6
	c0.4-0.9,1-1.8,1.6-2.6c0.2-0.2,0.4-0.3,0.7-0.1c1.3,1.5,1,3.2,0.5,4.9c-0.2,0.5-0.4,0.9-1,0.4c-0.7-0.5-0.4,0.3-0.5,0.5
	c-0.3,0.6-0.2,1.4-0.5,2.1C34.5,45.9,34.1,45.5,33.8,45.7z"/>
<path class="st30" d="M36.3,37.4c-0.2,0-0.4,0.1-0.7,0.1c-0.1,0-0.1,0-0.2,0c-1.9-0.1-1.9-0.1-1.5-2c0-0.1,0-0.3,0-0.5
	c0.2-0.2,0.4-0.4,0.7-0.6c0.9-0.7,1.8-1.4,2.8-2c0.9-0.5,0.4-2,1.4-2.6c1.5-0.4,1.5-0.4,1.1,0.9c-0.1,0.4-0.2,0.8-0.2,1.1l0,0
	c-1.2,0.5-1.5,1.5-1.9,2.6C37.4,35.3,36.8,36.4,36.3,37.4z"/>
<path class="st31" d="M38.8,29.2c-0.4,0.1-0.8,0-0.6-0.6c0.8-1.9,1.9-3.5,3.7-5c0.7,1.3,0.3,2.3-0.3,3.3
	C40.6,27.7,39.7,28.4,38.8,29.2z"/>
<path class="st30" d="M39.2,34.1c0,1.5,1,2.9,0.6,4.4c-0.1,0.4,0,1-0.6,1.2c-0.5,0.1-0.8-0.4-1.1-0.7C37,37.4,37.3,35.8,39.2,34.1
	L39.2,34.1z"/>
<path class="st32" d="M39.7,31.7c1.3,0.1,0.7-1.2,1.3-1.7c0.9,1.4,0.5,2.9,0.5,4.3c0,0.5-0.1,1-0.7,1.1c-0.6,0.2-0.8-0.3-1.1-0.7
	c-0.2-0.3-0.3-0.6-0.6-0.7c0,0,0,0,0,0C39.4,33.3,39.6,32.5,39.7,31.7C39.7,31.7,39.7,31.7,39.7,31.7z"/>
<path class="st33" d="M63.1,109.8c0.8-1.5,1.6-3.1,4-2.7c-0.9,1.7-2.7,2.1-3.9,3.1c-0.1-0.1-0.2-0.2-0.1-0.3
	C63,109.9,63.1,109.8,63.1,109.8z"/>
<path class="st6" d="M63.1,109.8c0.1,0.1,0.1,0.3,0,0.4c-0.1,0.4-0.4,0.7-0.8,0.8c-0.5,0.1-0.4-0.2-0.3-0.5c0.2-0.3,0.3-0.5,0.5-0.8
	C62.8,109.8,62.9,109.8,63.1,109.8z"/>
<path class="st28" d="M15.4,55.5c0.8-2.3,1.7-4.3,0.9-6.7C16,48,14.5,48.2,14.8,47c0.2-0.9-0.4-1.7-0.3-2.6c0.1-1,0.1-1.9,0.1-2.9
	c0-0.3-0.2-0.7,0.1-0.9c1.5-0.7,1.4-2.2,1.8-3.4c0.1-0.1,0-0.3,0.1-0.5c0.5-0.8,1.4-1.4,1.4-2.4c0-1,0-1.9,0.2-2.9
	c0.8,5,2.4,9.7,3.2,14.7c0.4,2.8-0.3,5.4-1.6,7.9C19.2,55.5,17.6,56,15.4,55.5z"/>
<path class="st34" d="M47.5,65.1c-0.1-0.7-1-0.8-1.1-1.6c3.7,0.2,7.3,0.7,10.9,0.7c1.2,0,1.2,0.2,2.3,2.8c-1.6,0.7-3.2,0.3-4.7-0.4
	c-1-0.4-1.9-0.8-2.7,0.3c-0.4,0.5-0.8,0.3-1.2,0c-0.7-0.6-1.4-1.1-2.3-1C48,66,47.5,65.9,47.5,65.1z"/>
<path class="st35" d="M47.5,65.1c0.3,0.4,0.8,0.6,1.2,0.7c0.8,1.4,2.5,1.9,3.6,3.2c-0.8-0.1-1.4-0.2-2-0.3c-1.6-0.2-3.2-0.7-4.8-0.8
	c-1.4-0.1-1.9-0.9-1.8-2.1c0-0.9-1.1-1.4-0.8-2.4C44.6,63.3,46,64.5,47.5,65.1z"/>
<path class="st35" d="M36.9,65.2c-0.4-0.5-1.5-0.3-1.5-1.4c-0.3-0.5-0.3-1,0.1-1.4c2.1-0.3,3.7,0.5,5.2,1.8c0.9,0.8,1.8,1.6,2.8,2.1
	c-1.1,1.6-1.8,0-2.7-0.4c-0.4-0.2-0.3-0.7-1-0.1C39.1,66.6,37.8,65.8,36.9,65.2z"/>
<path class="st18" d="M36.9,65.2c1.1-0.2,2.2,1.4,3.4-0.1c0.2-0.3,0.9,0.5,1.4,0.7c0.6,0.3,1.1,1.4,2,0.5c0-0.2,0.1-0.4,0.1-0.5
	c0.4,1.2,1.3,1.8,2.4,1.8c1.6,0,2.8,0.7,4.2,1.2c-0.2,0.2-0.3,0.3-0.5,0.5c-1.8-0.8-3.9-0.3-5.7-1c-1.5-0.6-3-1.7-4.6-1.7
	c-1.1,0-1.9-0.5-2.7-0.9C36.6,65.5,36.7,65.3,36.9,65.2z"/>
<path class="st36" d="M64.7,67c0.1,0.5,0.2,1.1,0.3,1.6c-2.6,0-3.9-1-5.1-4.1c1.2-0.1,2.1,0.4,2.9,1.1C63.5,66.1,63.8,66.9,64.7,67
	C64.7,67.1,64.7,67,64.7,67z"/>
<path class="st18" d="M35.5,62.4c0,0.5,0,0.9-0.1,1.4c-0.3,0-0.6,0-0.9,0c0-0.2,0-0.3,0-0.5C34.9,63,35.2,62.7,35.5,62.4z"/>
<path class="st37" d="M68,33.1c0.1,2.2-1,4.2-1.4,6.3c-0.3,1.6-0.5,3.1-0.9,4.7c-0.6,2.7,0.2,2.8-3.8,3.1c1.3-2.2,0.2-4.7,1.4-6.8
	c0.4-0.7,0.8-1.4,1.4-1.9c0.7-0.6,1.3-1.2,0.7-2.2c-0.3-0.5,0-0.9,0.4-1.2C66.6,34.3,67.1,33.5,68,33.1L68,33.1z"/>
<path class="st38" d="M65.4,48.3c-1.2,1.9-2.8,3.1-4.5,4.1c-0.3,0.2-0.6,0.3-0.9,0.1c-0.2-0.1-0.3-0.4-0.3-0.6
	c0.5-1.3,1.3-2.4,2.4-3.2C62.9,48,63.9,47.5,65.4,48.3z"/>
<path class="st20" d="M63.7,33c0.2-0.3,0.3-0.6,0.5-0.9c0.5-0.3,0.7,0.2,1.1,0.4c0.3,0,0.6,0.1,0.8,0.1c0.2,0.6-0.3,1-0.4,1.4l0,0
	c-0.7,0.4-1.3,0.9-1.9,1.4c0,0,0,0.1,0,0.1c-0.2-0.1-0.5-0.1-0.7-0.2c-0.3-0.5-0.1-0.9,0.1-1.3C63.3,33.7,63.5,33.3,63.7,33z"/>
<path class="st21" d="M65.2,32.5c-0.4-0.1-0.7-0.3-1.1-0.4c-1.4-1.6-1.3-3.2,0.1-4.5c-0.3,1-1,2,0,3c0.3,0.3,0.6,0.6,0.9,1
	c0,0,0,0,0,0C65.2,31.9,65.2,32.2,65.2,32.5z"/>
<path class="st39" d="M60.7,40.7c0.4-0.2,0.5-0.6,0.5-1c-0.2-0.4,0-0.5,0.4-0.5c0.4,0,0.7,0,1.1,0.1c0,1-0.5,1.7-1.3,2.1
	C60.6,41.8,60.7,41.1,60.7,40.7z"/>
<path class="st37" d="M68,33.1c-0.1-0.2-0.2-0.4-0.3-0.6c-0.2-0.3-0.5-0.6,0-0.9c0.2-0.1,0.4-0.1,0.6-0.1c0,0.3,0.2,0.6,0.1,0.9
	C68.4,32.6,68.2,32.8,68,33.1C68,33.1,68,33.1,68,33.1z"/>
<path class="st21" d="M63.7,35.4c0.4-0.8,0.9-1.4,1.9-1.4C65.1,34.7,64.6,35.3,63.7,35.4z"/>
<path class="st39" d="M62.7,39.2c0-0.9,0.5-1.4,1.4-1.4C63.7,38.4,63.2,38.9,62.7,39.2z"/>
<path class="st21" d="M65.6,34c-0.1-0.5,0.2-1,0.4-1.4C66.7,33.2,66.6,33.2,65.6,34z"/>
<path class="st40" d="M17.5,87.7c-0.8,1.3-0.7,2.5-0.6,3.6c0.2,2.1-0.4,3.8-2.1,5.1c-0.7,0.6-1.3,1.2-0.7,2.2
	c0.2,0.3,0.1,0.6-0.2,0.9c-1.1,1.2-2.3,2.3-2.7,4c-0.6-1.4,0-2.6,0.4-3.8c1.2-3.3,1.9-6.7,2.3-10.2c0.1-1.1,0.6-1.6,1.7-1.6
	C16.3,88,16.9,87.8,17.5,87.7z"/>
<path class="st41" d="M20.3,82.1c-0.5,2.8-2.2,4.5-4.6,4.8c-0.3,0-0.6,0.1-0.9-0.2c-0.3-0.4-0.2-0.8,0.1-1.1c0.6-0.7,1.2-1.3,2-1.7
	C17.9,83.4,18.8,82.4,20.3,82.1z"/>
<path class="st13" d="M65.2,31.6c-0.7,0.1-1-0.3-0.9-1C65.3,30.3,65.5,30.7,65.2,31.6z"/>
<path class="st13" d="M63.1,34c0,0.4-0.1,0.9-0.1,1.3c-0.1,0.1-0.2,0.2-0.4,0.3c-0.3,0.2-0.3,0.9-0.8,0.5c-0.4-0.4,0-0.6,0.2-0.9
	C62.4,34.8,62.6,34.2,63.1,34z"/>
<path class="st13" d="M61.6,39.2c-0.1,0.2-0.3,0.3-0.4,0.5c-0.9-0.9-0.5-1.6,0.3-2.5C61.8,37.9,61.1,38.6,61.6,39.2z"/>
</svg>
