<?xml version="1.0" encoding="utf-8"?>
<!-- Generator: Adobe Illustrator 23.1.1, SVG Export Plug-In . SVG Version: 6.00 Build 0)  -->
<svg version="1.1" id="Livello_1" xmlns="http://www.w3.org/2000/svg" xmlns:xlink="http://www.w3.org/1999/xlink" x="0px" y="0px"
	 viewBox="0 0 80 135" style="enable-background:new 0 0 80 135;" xml:space="preserve">
<style type="text/css">
	.st0{fill:#FFFFFF;stroke:#000000;stroke-width:0.2509;stroke-miterlimit:10;}
	.st1{fill:#4A423D;}
	.st2{fill:#49524C;}
	.st3{fill:#595C4F;}
	.st4{fill:#404843;}
	.st5{fill:#505E51;}
	.st6{fill:#693F43;}
	.st7{fill:#F1BA80;}
	.st8{fill:#C7CECB;}
	.st9{fill:#786962;}
	.st10{fill:#999C99;}
	.st11{fill:#AD973D;}
	.st12{fill:#D2565C;}
	.st13{fill:#ED4742;}
	.st14{fill:#EFCE34;}
	.st15{fill:#AC3631;}
	.st16{fill:#B33835;}
	.st17{fill:#B0983B;}
	.st18{fill:#F7E531;}
	.st19{fill:#4D5576;}
	.st20{fill:#C5A43A;}
	.st21{fill:#807640;}
	.st22{fill:#AC3C3B;}
	.st23{fill:#D0AB9C;}
	.st24{fill:#EBEBEA;}
	.st25{fill:#999C9B;}
	.st26{fill:#EEB48A;}
	.st27{fill:#A9494C;}
	.st28{fill:#E1E4E0;}
	.st29{fill:#E3E4E1;}
	.st30{fill:#E7D340;}
	.st31{fill:#8B908F;}
	.st32{fill:#EAEBE9;}
	.st33{fill:#F2F3EE;}
	.st34{fill:#E0BEAD;}
	.st35{fill:#AAAEAE;}
	.st36{fill:#E1E4E4;}
	.st37{fill:#E35351;}
	.st38{fill:#F2C087;}
	.st39{fill:#D3C347;}
	.st40{fill:#CFBD46;}
	.st41{fill:#DBCE54;}
	.st42{fill:#D6CB52;}
	.st43{fill:#D0CC56;}
	.st44{fill:#C0B357;}
	.st45{fill:#4F5D83;}
	.st46{fill:#F1F0EF;}
</style>
<path class="st0" d="M71.5,135h-63c-4.7,0-8.5-3.8-8.5-8.5V8.5C0,3.8,3.8,0,8.5,0h63C76.2,0,80,3.8,80,8.5v118
	C80,131.2,76.2,135,71.5,135z"/>
<path class="st1" d="M55.7,14.9c3.5,0.3,5.6,2.9,7.5,5.4c0.8,1,0.7,2.7,0.2,4.1c-0.3,0.7-0.7,1.3-1.1,1.8c-1.3,1.7-1.8,1.7-2.8-0.1
	c-0.2-0.4-0.5-0.8-0.8-1.1c-0.5-0.4-0.8-1.2-1.6-0.8c-0.7,0.3-1.1,1-1,1.8c0.4,1.8,0.2,3.8,1.3,5.5c1.6,2.5,3,5,4.5,7.6
	c1.4,2.5,2.3,5,1.8,7.9c0,0.2-0.1,0.5,0,0.7c1.1,4.9-0.1,9.7-0.4,14.5c-0.1,1.2-0.3,2.4,0.3,3.5c0.1,0.2,0.2,0.5,0.1,0.7
	c-0.5,2.2,0.4,4.2,1,6.3c0.6,2.1,0.2,2.6-1.9,3.4c-0.1,0-0.2,0-0.2,0.1c-2.8,1-4.3,0.3-5.3-2.6c-0.2-0.7-0.4-1.4-0.6-2.1
	c-1.2,0.9-1.8,1.9-1.7,3.5c0.1,2.5-0.2,4.9-0.7,7.4c-0.3,1,0.1,2.1-0.3,3.1l0.1,0.1L54,85.4c0.4,1.1-0.3,2.3,0.5,3.3l0,0
	c-0.1,1.3,1.6,2.1,0.9,3.6c0.1,0.1,0,0.3-0.1,0.4c-0.5,1,0.5,2,0.1,3.1c0.1,0.1,0,0.2-0.1,0.3c-1.1,0.3-1.6,1.4-2.3,2.1
	c-1.8,0.9-3.5,1.8-5.6,0.7c-0.2-1.1-0.7-2-1-3.1c-0.3-0.9-1.1-2.3,0.8-2.6c0-0.1,0.1,0.3,0.1-0.1c-0.4-1.3-0.9-2.6-2.7-2.2
	c-0.9-0.1-0.9-1.1-1.6-1.4c-0.2,0.2-0.4,0.4-0.5,0.6c-0.4,0.3-0.2,0.6-0.2,0.9c-1.3,0.9,0.1,1.6,0.2,2.3c-0.1,0.5-0.3,0.8-0.6,1.2
	c-1.2,0.7-2.1,1.5-2.7,2.8c-0.4,0.8-1,1.6-2,1.9c-0.6,0.1-1.2,0.2-1.8,0.2c-0.6,0-1.2-0.1-1.7-0.3c-0.8-0.7-0.3-1.3,0.3-1.7
	c1-0.6,1.9-1.3,3.6-1.3c-1.5-0.3-2.6-0.3-3.2-1.3c-0.5-0.7,0.9-1.6,0.2-1.8c-0.9-0.3-1.6-0.6-2.2-1.3c-0.3-0.4-0.6-0.7-0.4-1.3
	c0.7-1.5,0.4-3.1,0.6-4.6c0.1-0.6,0-1.4,0.8-1.5c1.1-0.1,0.9,0.8,1.1,1.5c0.1,0.8,0.1,1.6,0.4,2.3c0.1,0.4,0.2,0.9,0.2,1.3
	c0,0.8,0.1,1.5,1.2,1.6c2.4,0.5,3.6-0.6,4.4-2.9c1.9-5.5,4.1-10.8,6.3-16.2c0.6-1.5,1.8-2.5,2.9-3.5c0.6-0.6,1-1.1,1.2-1.9
	c0.7-3-1.5-5-2.5-7.3c-0.5-1-2,0-3.1,0.2c-3.2,1.3-4.7,4.1-6.2,6.9c-0.9,0.6-1.8,0.5-1.4-0.7c0.8-2.3-0.2-2.9-2.2-2.8l0-0.1
	c-0.3-0.5-0.3-0.9,0-1.4c0-0.2,0.1-0.3,0.1-0.5c0.5-0.2,0.9,0.3,1.3,0.1c2.5-1.2,5.1-2.2,7.6-3.4c1.9-0.7,3.5-1.2,4.1-3.9
	c0.6-2.8,1.8-5.6,3.5-8.1c0.8-1.1,0.4-2.3,0.3-3.5c0-1.2-1-1-1.8-0.8c-1.5,0-3.1,1.1-4.5-0.2c-0.2-0.4-0.2-0.7,0.1-1
	c0.2-0.1,0.4-0.2,0.6-0.3c0.6-0.1,1.3-0.2,1.9-0.4c0.7-0.2,1.3-0.5,2-0.7c0.2,0,0.4-0.1,0.6,0c0.6,0.1,1.2,0.2,1.8,0
	c1.6,0,2.6-1.7,4.2-1.8c0.4,0,0.6-0.6,0.4-0.9c-0.4-0.5-0.9-0.2-1.2,0.1c-1.3,1.2-2.7,1.6-4.2,0.6c-0.2-0.3-0.2-0.6-0.1-1
	c0.1-0.2,0.2-0.4,0.4-0.5c0.3-0.3,0.8-0.6,0.8-1.1c-0.4,0-0.8,0.2-1.2,0.1c-0.6,0-1.1-0.1-1.4-0.8c0.3-0.8,1.4-1.5,0-2.3
	c-0.4-0.3-0.9-0.6-0.9-1.3c0.3-0.8,1.2-0.8,1.7-1.3c0.1-0.1,0.3-0.3,0.4-0.4c0.5-0.8-0.1-1.3-0.6-1.7c-0.2-0.1-0.4-0.2-0.5-0.3
	c-1.7-0.5-3.2-1.3-4.7-2.3c-0.6-0.4-0.9-0.9-0.8-1.6c0.2-0.7,0.6-0.5,1.1-0.4c1.1,0.1,0.6-0.8,0.7-1.3c0.2-0.9-0.5-2.2,1.2-2.4
	c2,0.2,2,0.2,1.4-2.4c0.5-0.9,1.1-1.2,2.1-0.7l0,0C53.5,15.7,54.6,15.3,55.7,14.9z"/>
<path class="st2" d="M47.6,93.6c-0.3-0.1-0.9-0.4-0.9,0.2c-0.1,0.8-0.2,1.5,0.5,2.2c0.7,0.8,1,1.8,0.4,2.9c0.6,0.6,0.3,1.3,0.3,2.1
	c-0.3,3.8,0.7,7.6,0.8,11.4c0,0.5,0.3,0.9,0.7,1.2c2.4-5,2.1-10.4,3.4-15.5c0.6-1.8,1-2.1,2.4-2c-0.1,0.6-0.4,1.2-0.3,1.9
	c0.4,3.1-0.3,6-1.1,9c-0.6,2.5-1.2,5-1.1,7.5c0.1,2.3,0.1,2.3,2.3,2.3c4,0,8,0,12-0.1c0.7,0,1.4,0,2.2,0c0.9,0,1.3,0.4,1.2,1.3
	c-0.1,1.5-0.1,3,0,4.6c0,1.1-0.5,1.4-1.5,1.3c-3,0-5.9,0.1-8.9,0.1c-15.5,0.1-31,0.2-46.5,0.3c-3.1,0-3.1,0-3.2-3.2
	c0-3.9,0-3.9,3.9-3.9c3,0,6.1-0.1,9.1-0.2c1.2,0.2,0.3,0.8,0.1,1c-0.8,1-2,1.5-3,2.9c2.9-0.8,5.5-1.4,7-3.9c0.1-1.3,0.8-2,2-2.4
	c0.9-0.1,1.6-0.5,2.3-1c0.4-0.3,0.7-0.7,0.8-1.2c1-3.3,2.4-6.5,4.2-9.5c0.8-1.3,0.6-2.7,0.5-4c0.6-0.8,1.4-1.4,1.7-2.6
	c0.2-0.8,1.2-1.4,1.9-1.9c0.1-0.1,0.6,0.1,0.9,0.2c0.6,0.4,0.6,0.9,0.4,1.5c-1.1,3.2-1.8,6.6-3.7,9.6c-1.5,2.4-2.5,5-3.3,7.7
	c-0.7,2.1,0.3,3.1,2.5,2.6c1.9-0.5,3.9-0.9,5.8-1.4c2.1-0.5,3-1.6,2.6-3.6c-0.5-3.3-0.1-6.7-0.6-10c-0.2-1.1-0.4-2.2-0.7-3.2
	c-0.7-2.2-1.4-4.4-0.4-6.7c0.5-0.2,0.8-1.1,1.5-0.3c0.6,0.7,2,0.9,1.7,2.2C47.8,93,47.7,93.3,47.6,93.6z"/>
<path class="st3" d="M31.5,57.1c-0.4,0.6-0.9,0.6-1.5,0.4c-1.1-0.3-2.1-0.7-3.1-1c-1.5-0.6-2.7,0-2.9,1.6c-0.2,0.9-0.1,1.9-0.5,2.8
	c-0.3,0.7-0.6,1.5-1.6,1.5c-0.9-0.1-1.4-0.7-1.5-1.5c0.8-0.3,2,0.2,2.2-1.2c0.1-0.6,0.1-1.2-0.6-1.4C21.3,58,21.2,58.5,21,59
	c-0.2,0.6-0.1,1.3-0.9,1.4c-0.1-0.6-0.3-1.3-0.3-1.9c-0.2-1.6-0.4-3.2-1.4-4.7c-1-1.7-1.5-3.7-0.2-5.6c0.4-0.6,0.2-1.2,0.1-1.8
	c-0.5-4.1-1.6-8.1-2-12.3C15.9,29,16,24,18.3,19.3c0.5-1,1-2,1.8-2.8c2.1-2.1,5.1-1.9,6.8,0.6c1.5,2.3,2.1,5,2.2,7.7
	c0.1,2.7-0.6,5.2-1.2,7.8c-1,4.2-2.1,8.4-3.2,12.5c-0.7,2.8,0.8,4.5,3.7,4.3c0.2,0,0.5,0,0.7,0c0.4,0.2,0.7,0.4,0.7,0.8
	c-0.3,1.5,0.5,3.2-1,4.5c-1-0.8-0.2-1.9-0.6-3c0.3,1-0.4,2,0.4,2.8c1.1-0.2,2.2-0.9,3,0.4C32.2,55.8,32.3,56.5,31.5,57.1z"/>
<path class="st4" d="M29.6,49.9c-0.1-0.1-0.3-0.3-0.4-0.4c0.7-0.1,1.4-0.2,2.1-0.3c1.9-0.4,2.1-0.8,2.3-2.8c0.3-2.7,1.4-5.2,3.2-7.3
	c0.8-0.9,1.7-1.6,2.1-2.8c0.1-0.4,0.6-0.2,0.8-0.3c0.2-0.2,0.4-0.2,0.6,0c0.4,2.2,1.3,2.8,3.9,2.3c0.2,0,0.4,0.1,0.6,0.2
	c0.3,0.6,0.8,0.8,1.5,0.8c0.7-0.1,1,0.3,0.7,1c-0.3,0.1-0.5,0.4-0.5,0.7c0.3,3.1-0.4,6.1-1.2,9.1c-0.3,0.9-0.8,1.7-1.6,2.3
	c-2,1.7-3.9,3.4-5.8,5.3c-0.3,0.1-0.5,0.1-0.7-0.1c-0.1-0.7-0.4-1.2-1.2-1c-1.5,0.2-3,0.4-4.5,0.6c0.4-0.7,0-1.4-0.1-2.1
	c-0.3-0.4-0.4-0.8-0.3-1.3c0.4-1.3,0.4-2.8,2.4-1c0.9,0.8,2.9,1.3,4.4,0.1c0.6-0.5,1.4-0.7,2-1.2c-0.9,0.3-1.7,0.2-1.9-0.7
	c-0.4-2.4-1.8-1.6-3.2-1.3c-1.3,0.3-2,1.7-3.3,1.8C30.8,51,30.2,50.4,29.6,49.9z"/>
<path class="st5" d="M52.2,28.4c0.1,0.8,0,1.3-1,1.1c-0.2-0.1-0.5,0.2-0.8,0.3c-0.8,0.4-1.2-0.1-1.6-0.7c-0.2-0.8,0-1.6-0.4-2.4
	c-0.1-0.2-0.2-0.3-0.2-0.5c-0.2-0.5-0.6-0.6-1.1-0.7c-1.7-0.2-3.2-1.1-4.5-2.1c1.1-1.6,0.9-3.1-0.3-4.6c-0.7-0.9-1.2-1.9-1.4-3
	c-0.4-2.3,0.6-3.7,3-4c2.3-0.3,4.4,0.5,6.4,1.5c0.8,0.4,1.4,1,2.1,1.5c-0.7,0.1-1.4,0.3-1.9,1c-0.9,0.6-1.1,1.6-1.6,2.4
	c-0.3,0-0.8,0.2-0.7,0.5c0.3,0.7,0,1.4,0,2.1c0,2.2,0,2.2-1.9,1.2c-0.2,0.8,0.2,1.2,0.8,1.4c1.4,0.6,2.4,1.7,4,1.9
	c0.3,0,0.5,0.4,0.7,0.6L51.7,26l0.1,0c1.8,0.2,0.8,1.9,1.7,2.6C52.9,28.8,52.6,28.5,52.2,28.4C52.1,28.3,52,28.2,52,28
	c-0.2,0.1-0.2,0.2,0.1,0.2C52.1,28.2,52.2,28.3,52.2,28.4z"/>
<path class="st6" d="M34.6,88.3c-0.8-1.1-0.3-2.4-0.8-3.6c-0.8,0.1-0.6,0.6-0.5,1c0.2,1.3-0.2,2.5-0.1,3.8c0.1,0.7-0.3,1.1-0.9,1.1
	c-0.5-0.3-0.3-1.1-0.8-1.5c-0.1-3.1,0.4-6.2,1-9.2c0.9-4.5,1.9-9,3.3-13.4c0.4-1.2,0.7-2.5-0.1-3.7c0.9-0.6,2.1,0,3.2-0.9
	c0,1.6-0.4,2.8-0.7,4.1c-0.2,0.7,0.5,0.2,0.7,0.2c0.6,0.7,0.3,1.5,0.1,2.3c-1.7,6-3.4,12.1-3.8,18.4C35.3,87.4,35.1,87.9,34.6,88.3z
	"/>
<path class="st2" d="M31.5,89.2c0.4-0.2,0.7-0.2,0.7,0.4c0,0.4,0,0.8,0,1.1c1,1.5,2.7,1.7,4.2,2c-0.1,1-0.8,0.5-1.1,0.9
	c-0.7,0.8-0.7,1.1,0.3,1.4c0.3,0.1,0.7,0.1,0.9,0.3c0.6,0.5,1.8,0.1,1.8,1c0,0.7-1.1-0.1-1.6,0.3c-1,0.8-2.3,0.9-3.1,2
	c-1.3,1.1-2.1,2.6-2.9,4.1c-1-0.2-0.6-0.9-0.5-1.4c1-2.4,0.2-4.8,0.4-7.2C30.9,92.4,31.6,90.9,31.5,89.2z"/>
<path class="st7" d="M42.5,23.5c0.4-0.1,1-0.6,1.1-0.3c0.6,1.6,2.1,1.5,3.4,1.8c0.2,0,0.3,0.3,0.5,0.5c0.4,0.3,0.6,0.8,0.8,1.3
	c0,2.4-1.1,3.5-3.4,3.4c-0.5,0-0.9-0.2-1.4,0c-0.3,0-0.6,0.1-0.8-0.3c-0.4-0.9-0.4-1.8-0.2-2.7c0.2-0.9-0.2-1.5-1.1-1.7
	C40.9,24.3,41.8,24,42.5,23.5z"/>
<path class="st8" d="M28.2,116.8c0.1,0.4,0.2,0.9-0.1,1.1c-2.6,1.9-5.2,3.9-9.1,3.3c1.5-1,2.2-2.3,3.5-3c0.4-0.2,1.2-0.3,1-1.2
	c0.4-0.5,0.9-0.8,1.5-0.9C26.2,116,27.2,116.3,28.2,116.8z"/>
<path class="st9" d="M43.5,30.2c0.4-0.4,1-0.3,1.5-0.4c2.1-0.4,2.7-1.1,2.8-3.3c0.2-0.2,0.3-0.2,0.5,0l0,0c0.4,0.8,0.3,1.6,0.5,2.4
	c0.4,0.5,1,0.7,1.5,0.9c0.3,0.3,0.6,0.7,0.9,1c-0.5,1.1-1.2,0.3-1.7,0.1c-0.8-0.2-1.5-0.3-1.7,0.7c-0.2,0.9,0.6,0.9,1.2,1
	c0.7,0.2,1.6-0.1,2.2,0.6c0.3,0.5,0.9,0.4,1.4,0.5c0.1,0.2,0,0.5-0.1,0.6c-1.6,0.7-3.2,0.6-4.9,0.4c-1-0.1-2.1-0.1-3.1,0.3
	c-0.7,0.1-1.6,0.9-2-0.4c0.7-0.7,1.6-1,2.4-1.4c1.1-0.5,1.3-1.4,0.3-2.1C44.8,30.7,44.1,30.5,43.5,30.2z"/>
<path class="st10" d="M42.6,34.6c0.6,1,1.3-0.3,1.9,0c1.8,1.4,3.8,0.6,5.7,0.4c1-0.1,1.9-0.3,2.5,0.7c0,0.3,0,0.6,0,0.9
	c0,0.1-0.1,0.2-0.1,0.3c-0.8,0.5-0.3,1.6-0.9,2.2l-0.2,0l-0.2,0c-1.3-1.2-1.4,0.2-1.9,0.9c-0.6,0.3-1.3,0.7-2,0.4
	c0.5-2.6,0.2-2.8-2.9-1.8l0,0c-0.3-2.7-2.7-1.8-4.2-2.5c-0.2,0-0.4,0-0.6-0.1C40.4,35,41.6,34.9,42.6,34.6z"/>
<path class="st11" d="M28.2,116.8c-1.2,0.5-2.2-0.1-3.2-0.7c2.9-1.6,3.8-4.1,4-7.3c0.2-2.5,0.4-5.1,1.2-7.5c0.2,0.4,0,1,0.5,1.3
	c0.9,1.2,0.3,2.5,0.1,3.7c-0.3,2.9-0.5,5.9-1.1,8.8C29,115.4,28.4,115.9,28.2,116.8z"/>
<path class="st12" d="M20.1,60.4c0.5-0.5,0.3-1.2,0.4-1.8c0.1-0.6,0.1-1.4,0.9-1.5c0.7-0.1,1.4,0.4,1.7,1c0.4,0.6,0,2.7-0.6,3.1
	C21.6,62,21,61,20.3,60.8C20.1,60.8,20,60.6,20.1,60.4z"/>
<path class="st2" d="M55.4,92.3c-0.1-0.5,0.1-1.2-0.5-1.4c-1.4-0.6-0.8-1.4-0.3-2.2C55.9,89.7,56.1,90.9,55.4,92.3z"/>
<path class="st5" d="M55.7,14.9c-1.6,1.3-1.6,1.3-3.5,0C53.4,14.8,54.6,13.8,55.7,14.9z"/>
<path class="st5" d="M41.5,25.4c0.6,0,1.1,0,1.7,0.2c-0.4,1.4-0.6,2.8-0.4,4.2c-0.8-0.3-0.5-1-0.6-1.6
	C41.9,27.3,42.2,26.2,41.5,25.4z"/>
<path class="st6" d="M37.2,57.5c0.2,0,0.3,0,0.5,0c0.7,1.6-0.2,2.9-0.9,4.2c-0.5,0-0.6-0.6-0.9-0.8C36.1,59.7,36.6,58.6,37.2,57.5z"
	/>
<path class="st2" d="M55.4,95.8c-0.1-1-1.7-2-0.1-3.1C55.7,93.7,56.2,94.7,55.4,95.8z"/>
<path class="st2" d="M54.5,88.8c-1.1-1-0.7-2.2-0.5-3.3C54.2,86.6,54.3,87.7,54.5,88.8z"/>
<path class="st2" d="M54,85.2c0-1-0.4-2.1,0.3-3.1C54.4,83.2,54.3,84.2,54,85.2z"/>
<path class="st6" d="M35.7,61.4c0,0.5,0,0.9,0,1.4C35.3,62.3,35.4,61.9,35.7,61.4z"/>
<path class="st13" d="M34.6,88.3c0.1-7.2,2.2-14.1,4.1-20.9c0.1-0.4,0.2-0.8,0.3-1.1c0.5-1.1,1-2.1,1.6-3.2c1-2,2.7-3.3,4.7-4
	c1.8-0.3,2.7,1,3.5,2.3c0.7,1.1,0.8,2.4,1.3,3.6c0.1,0.2,0.2,0.6,0.1,0.7c-1.9,1.5-1.3,4.6-3.7,5.7c-1,0.5-1.4,1.2-1.1,2.3
	c0.2,1-0.1,1.9-0.5,2.8c-1.6,3.1-2.6,6.5-3.2,9.9c-0.6,3.2-2.6,5.1-5.5,5.2c-1.1-0.1-1.1-1-1.4-1.7C34.7,89.2,34.7,88.7,34.6,88.3z"
	/>
<path class="st14" d="M36.8,61.8c-0.4-1.5,0.9-2.7,0.9-4.2c0.5-1.1,1.2-2.1,2.2-2.7c1.4-0.9,2.3-2.4,3.8-3.3
	c0.8-0.5,1.1-1.5,1.3-2.5c0.4-2.1,0.9-4.2,1-6.4c0-0.7,0.1-1.3,0.5-1.8c1.6,0.4,3.2-0.3,4.8-0.1c1.8,0.3,2.5,2.2,1.1,4
	c-1.4,1.9-2.4,4.1-3.8,6c-0.7,1-1.6,2.4-1.7,3.9c-0.1,1.4-1.8,2-2,3.4C42.2,59.3,39.5,60.5,36.8,61.8z"/>
<path class="st15" d="M50.4,79.7c2.2,1,1.7,3.2,2,5c0,0.3-0.2,0.8-0.3,0.8c-0.9,0.3-0.5,1.1-0.7,1.7c-0.3,0.7,0.2,1.9-0.7,2.3
	c-0.8,0.4-1.8,0.4-2.8,0.4c-0.7,0-1.5-0.1-1.7-1c-0.1-0.2-0.1-0.5-0.3-0.6c-2.3-1.6-1.5-3.6-0.4-5.4c0.9-1.6,1.4-3.4,2.7-4.7
	c0.7-0.7,0.4-1.7,0.8-2.4c0.9-0.2,1.4,0.7,2.1,0.9c0.6,0.2,0.6,0.3,0.4,0.9c-0.3,1,1.3,0.2,1.4,1.3C52.1,79.3,51,78.4,50.4,79.7z"/>
<path class="st16" d="M36.1,91.3c1.8-0.1,3-0.8,3.7-2.7c0.5-1.2,1.3-2.2,1.4-3.8c0-1.3,1.1-2.4,1.2-4c0-1.5,1-3,1.8-4.3
	c0.6-1.1,1.1-1.9,0.6-3.3c-0.3-0.8-0.4-2.2,1.2-2.2c1.2-0.1,0.9-1.9,2.2-1.9c0.2,0,0.3-0.3,0.1-0.3c-1.9-0.5,0.9-1.5-0.2-2.1
	c-0.2-0.1,0.4-0.6,1-0.5c1,0.1,1.1-0.5,0.7-1.2c-0.5-0.8-0.7-1.7-0.9-2.6c-0.5-1.6-1.7-2.7-3.4-3.3c0.5-0.6,1.3-0.5,2-0.7
	c1.1-0.3,2.6-0.8,2.2,1.4c1,0.7,1.1,1.7,1.1,2.7c0,0.6,0.4,0.8,0.9,0.9c0.5,0.1,0.9,0.4,0.9,0.9c0,0.3,0.1,0.8-0.1,0.9
	c-1.4,0.7,0,2.7-1.7,3.5c-1.5,0.7-2.3,2.3-3.2,3.9c-0.9,1.6-0.2,3.9-2.3,4.9c-0.2,2.2-1.7,3.9-2.1,6c-0.5,2.4-1.8,4.5-2.6,6.8
	c-0.3,0.9-1.1,1.6-2.2,1.4c-0.7-0.1-1.4,0-2.2,0c-0.2-0.1-0.2-0.2-0.2-0.2C36,91.3,36,91.3,36.1,91.3z"/>
<path class="st17" d="M52.9,98.1c0.4,0.6,0.4,1.2,0.3,2c-0.6,3.3-1,6.6-1.6,10c-0.1,0.8-0.3,1.8-1,2.4c-0.6,0.6-0.3,1.3-0.3,1.9
	c-2.1-0.5-2.2-0.5-2.2-2.3c0-1.5-0.1-3-0.4-4.5c-0.5-2.9-0.5-5.8,0-8.6C49.4,98.6,51.1,98.3,52.9,98.1z"/>
<path class="st18" d="M29.8,115.1c-0.3-0.4-0.9-0.6-0.7-1.4c1.1-3.1,0.9-6.3,1.4-9.5c0.1-0.5,0.2-1.1,0.3-1.6c0.2-2.6,0.8-3.3,3-4
	c0.6,0.1,1.3,0.2,1.9,0.3c1.2,0.4,1.6,1.2,1.3,2.4c-0.6,1.9-0.9,3.8-2.1,5.5c-0.9,1.3-1.2,2.9-1.6,4.4c-0.3,1-0.3,2.1-1.1,2.8
	C31.4,114.6,30.8,115.4,29.8,115.1z"/>
<path class="st19" d="M56.9,58.1c0.8-0.6,0.8-1.4,0.6-2.3c-0.5-2.3,0.6-4,2.1-5.6c0.3-0.4,0.9-0.4,1.5-0.4c0.3,1.4-0.6,2.7-0.2,4.1
	c0.1,0.3,0,0.8,0.4,0.7c2.5-0.5,1.1,1.8,1,2c-1.2,2.5-0.1,5-0.7,7.6c0,0-0.2,0.1-0.3,0.1c-4,0.1-3.5,0.1-3.5-3.2
	c0-0.8,0-1.6-0.9-2.1C56.6,58.8,56.7,58.5,56.9,58.1z"/>
<path class="st20" d="M44.9,58.1c-0.3-1.6-0.3-1.6,1.6-3c-1.1-2.1-1.1-2.1,1.4-2.4c-0.3-0.5-1.2-0.4-1.3-1.2c1.7-1.2,3-2.8,3.9-4.8
	c0.2-0.4,0.6-0.7,0.2-1.3c-0.1-0.2-0.3-0.6,0-0.5c2.3,0.6,1.1-1.5,1.6-2.3c0.6-0.9,0-1.6-1.1-1.8c1.4-0.5,2-0.3,2.1,0.9
	c0.2,1.7,0.5,3.4-0.7,4.9c-1.4,1.5-1.4,3.6-2.4,5.3c-0.2,0.4-0.3,0.9-0.6,1.3c-0.9,1.2-1.3,2.4-0.1,3.8
	C47.6,56.5,46.4,57.9,44.9,58.1z"/>
<path class="st11" d="M32.1,114.1c0.2-0.8,0.6-1.6,0.6-2.5c-0.1-1.1,0.3-2.2,0.8-3.2c1-2.1,2-4.2,2.6-6.5c0.4-1.3,0.3-2.1-0.5-3
	c0.6,0,1.3,0,1.9,0c0.1,0.3,0.2,0.7,0.4,0.8c0.8,0.5,0.8,0.9,0.4,1.7c-0.8,1.6-1.5,3.3-2.5,4.8c-1.3,2-1.6,4.4-2.5,6.6
	C33,113.4,32.9,114.1,32.1,114.1z"/>
<path class="st21" d="M51.9,55.7c-0.4-1.1-0.4-2,0-2.8c1.6-3.4,3.4-6.8,4.4-10.4c0.1-0.4,0.5-0.8,1-1.1c-0.4,2.5-0.8,5.1-1.9,7.3
	C54.2,50.9,53.8,53.5,51.9,55.7z"/>
<path class="st22" d="M55.9,65.8c0,1,0.1,2.1-0.4,3.2c-0.3,0.6-0.6,1.1-1.2,1.4c-0.3,0.1-0.6,0.2-0.9,0c-0.3-0.2-0.3-0.5-0.1-0.8
	c1-2.5,1-5.1,0.3-7.7c-0.1-0.4-0.2-0.9,0.3-1.1c0.6-0.3,0.8,0.2,1.1,0.6C55.9,62.7,55.9,62.7,55.9,65.8z"/>
<path class="st23" d="M61.6,70.2c-0.6,0.5-1.2,1.1-1.7,1.6c0.1,0.5,0.4,0.3,0.7,0.3c1.5,0.1,2.2,1.5,1.5,2.8
	c-0.2,0.3-0.4,0.5-0.8,0.3c-0.2-0.1-0.2-0.5-0.5-0.3c-0.5,0.3-0.7,1.4-1.4,0.7c-0.7-0.6,0.5-1.3,0.1-2.2c-0.5,0.2-1.1,1-1.5-0.2
	c-0.8-2.3,0-3.6,2.4-3.6c0.4,0,0.8,0.1,1.2,0.1C61.8,69.9,61.8,70.1,61.6,70.2z"/>
<path class="st24" d="M56.9,58.1c0,0.3,0,0.6,0.1,1c0,0.6-0.1,1.2-0.1,2c-1.6-1.6-2.8-3.3-2.4-5.6c0-0.2,0-0.5,0.1-0.7
	c0.2-0.7,0.3-1.9,1.2-1.8c1,0,0.8,1.2,0.9,1.9C56.7,55.9,56.8,57,56.9,58.1z"/>
<path class="st25" d="M52.7,36.5c1.3-0.1,2.7,0.8,3.6-1.1c0.2-0.5,1.6-0.4,2.4-0.5c0.1,0.6,0.1,1.1,0.2,1.7c0,0.4-0.3,0.7-0.4,1.1
	c-0.5,1.1-1.6-0.9-2,0.4c-0.3,1-1,1.3-2,0.8c-0.3-0.1-0.4,0.6-0.9,0.5c-0.6-0.8-1.3-1.5-1-2.6C52.6,36.6,52.7,36.5,52.7,36.5z"/>
<path class="st26" d="M51.3,33.2c-1,0-2,0-3,0c-1,0-1.4-0.6-1.2-1.5c0.2-1.2,1-1.7,1.9-1.6c0.8,0.1,1.3,1.2,2.3,0.7
	c0.3,0.1,0.6,0.2,0.9,0.4c1.1,0.8,1.1,1.1-0.1,1.8C51.8,33.1,51.5,33.1,51.3,33.2z"/>
<path class="st27" d="M57.5,21.4c0.7,0.2,1.2,0.4,1.7,0.5c0.4-0.8-0.9-1.1-0.3-2.1c1,0.4,1.9,0.8,2.1,2.1c0.1,0.7,0.3,1.3,1.2,1.5
	c0.5,0.1,0.7,0.6,0.4,1.1c-0.4,0.6-0.8,0.1-1.2-0.2c-0.2-0.2-0.4-0.3-0.6-0.5c-0.5,0.6,0.3,0.8,0.3,1.2c0,0.3-0.1,0.5-0.3,0.6
	c-0.1,0-0.4,0-0.4-0.1C59.6,24.2,57.8,23.5,57.5,21.4z"/>
<path class="st28" d="M52.7,35.6c-0.8-0.2-1.6-0.5-2.5-0.1c-1.4,0.5-2.9,0.3-4.4,0.4c-0.7,0-1.7-0.1-1.3-1.3
	c0.7-0.9,1.8-0.7,2.6-0.5c1.9,0.5,3.7,0.1,5.5,0.1c0.3-0.2,0.6-0.3,0.8,0c0.5,0.6-0.3,1-0.4,1.4C53,35.5,52.8,35.6,52.7,35.6z"/>
<path class="st29" d="M44.5,38.4c0.6-0.1,0.6-0.7,0.8-1.1c0.5-0.6,1-1,1.5-0.1c0.5,0.8,1.4-1,1.5,0.3c0.1,1,0.2,2.1-1,2.6
	c-0.1,0.1-0.2,0.1-0.3,0.1c-0.1-0.8-0.5-0.4-1-0.3C44.5,40.3,44.5,40.3,44.5,38.4z"/>
<path class="st30" d="M60.9,68.1c-0.6-0.3-1.4-0.2-2.1-0.4c-0.7-0.1-0.9-0.6-0.9-1.2c0-0.5,0.4-0.8,0.8-1c1.2-0.5,2.2-0.2,3.1,0.8
	c0.4,0.4,0.4,0.8,0.2,1.3C61.9,68.3,61.4,68.3,60.9,68.1z"/>
<path class="st31" d="M48.8,18.3c-0.5-2.1-0.4-2.2,1.6-2.4c0.3,0.3,0.7,0.5,0.8,0.8c0.3,0.7,0.4,1.6-0.4,2.1
	C50,19.4,49.3,18.9,48.8,18.3z"/>
<path class="st32" d="M52.5,36.7c0.4,0.9,1.3,1.5,1,2.6c-0.7,0.1-1.4,0.3-1.9-0.4c0-0.5-0.3-0.9-0.4-1.3
	C51.1,36.6,51.6,36.3,52.5,36.7z"/>
<path class="st33" d="M49.4,39.8c0-0.6-0.1-1.1-0.1-1.7c0-0.5-0.1-1,0.6-1.1c0.5-0.1,0.8,0.3,1,0.8c0.1,0.4,0.3,0.7,0.4,1.1
	C50.8,39.5,50.2,40,49.4,39.8z"/>
<path class="st2" d="M42.3,90.7c0.7,0.9,1.1,1.8,0,2.7c-0.1-1.2-1.1,0-1.6-0.9C40.5,91.7,41.8,91.4,42.3,90.7z"/>
<path class="st34" d="M61.6,70.2c0-0.2,0.1-0.3,0.1-0.5c1.4-0.2,1.7,0.8,2,1.9C62.4,71.7,61.6,71.5,61.6,70.2z"/>
<path class="st2" d="M37.1,94.4c0-0.5,0.4-0.9,0.4-1.4c0-0.5,0.6-0.4,0.9-0.3c0.5,0.1,0.5,0.5,0.3,0.9
	C38.4,94.3,37.9,94.7,37.1,94.4z"/>
<path class="st10" d="M53.1,35.5c0-0.3-0.4-0.5-0.1-0.8c0.8-0.7-0.2-0.4-0.3-0.6c0-0.1,0-0.3,0-0.4c0.6-0.2,1.1-0.5,1.8-0.8
	C54.4,34.1,54.4,35.1,53.1,35.5z"/>
<path class="st5" d="M53.5,16.7c-0.1,0.1-0.1,0.4-0.2,0.4c-0.5,0.1-0.7-0.2-0.9-0.5c-0.1-0.2,0-0.4,0.1-0.4
	C53,16.2,53.3,16.3,53.5,16.7z"/>
<path class="st6" d="M36.1,91.3c0,0.1,0,0.3,0,0.4c-1.3-0.1-1.5-0.9-1.4-2C35.2,90.1,35.4,91,36.1,91.3z"/>
<path class="st2" d="M48,94.3c-0.1,0.1-0.2,0.4-0.4,0.4c-0.3,0.1-0.3-0.2-0.2-0.4c0.1-0.2,0.2-0.4,0.3-0.6
	C47.8,93.7,48,93.9,48,94.3z"/>
<path class="st2" d="M37.4,97.8c-0.1,0.1-0.1,0.3-0.2,0.4c-0.1,0-0.3-0.1-0.4-0.2c0.1-0.1,0.1-0.3,0.2-0.4
	C37.1,97.6,37.2,97.7,37.4,97.8z"/>
<path class="st2" d="M42.8,88.8c0,0.5,0.1,1.1-0.5,1.4C42.4,89.7,42.3,89.1,42.8,88.8z"/>
<path class="st35" d="M39.2,116.7c1.7-0.2,3.2,0,4.7,0.6C42.5,118.2,41.3,118.1,39.2,116.7z"/>
<path class="st36" d="M46.6,115.2c-0.2,0.5-0.4,0.9-0.5,1.4c-0.1,0.4-0.1,0.8-0.7,0.6c-0.3-0.1-0.6-0.2-0.8-0.5
	c-0.2-0.4-0.2-0.7,0.2-1c0.2-0.2,0.5-0.4,0.8-0.5C45.8,115,46.1,114.9,46.6,115.2z"/>
<path class="st37" d="M24.6,34.7c0.5,0.7,0.8,1.3,0.6,2c-0.9,3.1-0.6,6.5-1.8,9.5c-0.1,0.2,0,0.5-0.1,0.7c-0.5,1.6-1.3,2.4-2.3,2.4
	c-1-0.1-1.5-0.9-1.4-2.9c0-1.9-0.5-3.8,0-5.7c0.2-0.5,0.1-1.1,0.7-1.4c0.8-0.5,1.6-0.9,1.2-2.1c-0.1-0.2,0.3-0.4,1.1-0.2
	c0.4,0.1,0.6-0.2,0.7-0.4C23.7,36,24.1,35.4,24.6,34.7z"/>
<path class="st38" d="M24.1,48.5c0.8,0.2,1.2,0.8,1.7,1.2c1.5,1.4,1.8,2.6,0.9,4.4c-0.7,1.4-2.2,2-4,1.6c-0.2,0-0.3-0.1-0.4-0.2
	c-0.4-0.2-1.1,0.5-1.2-0.5c0-0.5-0.1-0.5-0.5-0.8c-0.3-0.2-1-0.2-0.7-1C20,53,19,52.8,19.6,52c0.4-0.5-1-0.8-1.1-1.5
	c-0.1-0.5-0.5-0.9,0-1.3c0.5-0.3,0.6,0.2,0.9,0.4C21.2,50.8,22.2,50.5,24.1,48.5z"/>
<path class="st39" d="M29.6,49.9c1-0.1,1.7,0.4,2,1.4c0.4,0.8,0.1,1.6,0.1,2.4c-0.1,0.5-0.2,0.9-0.3,1.4c-0.8,0.1-1.5-1-2.3-0.1
	c0,0-0.3-0.2-0.5-0.4l0,0c0.7-0.8,0.4-1.7,0.4-2.6C29.1,51.3,29,50.5,29.6,49.9z"/>
<path class="st40" d="M23.5,29.7c-1.3-1.6-0.9-3.2-1.2-4.6c0-0.2,0.2-0.4,0.3-0.6c0.3-0.3,0.6,0,0.8,0.2c0.8,0.8,1.3,1.9,1.4,3
	C24.8,28.5,23.8,28.8,23.5,29.7z"/>
<path class="st41" d="M26.2,25.5c-0.7-0.5-0.2-1.2-0.6-1.6c-0.6,0.4,0,1-0.4,1.4c-0.5,0.2-1.5-3.1-1.3-4.8
	C26.2,21.4,26.5,22.1,26.2,25.5z"/>
<path class="st42" d="M20.6,33.8c-0.2-1.7-0.3-3,0-4.4c0.1-0.3,0.3-0.7,0.6-0.7c0.3,0,0.6,0.2,0.8,0.4c1,1.1,0.7,2.8-0.6,3.7
	C21.2,33.1,21,33.4,20.6,33.8z"/>
<path class="st43" d="M19.4,32.9c1.1,1.4,1.2,2.6,0.5,4c-0.1,0.3-0.4,0.5-0.7,0.5c-0.4-0.1-0.4-0.4-0.5-0.7
	C18.5,35.4,18.9,34.3,19.4,32.9z"/>
<path class="st44" d="M27.9,27.7c-0.2,1.5-0.6,2.7-1.2,2.6c-0.8-0.1-1.4,0.4-2.4,0.6C25.1,29.3,26.4,28.8,27.9,27.7z"/>
<path class="st39" d="M28.6,54.6c-0.2,0.2-0.4,0.5-0.6,0.7c0.1-1.5,0.1-3,0.3-4.5C28.9,52.1,28.5,53.4,28.6,54.6
	C28.6,54.7,28.6,54.6,28.6,54.6z"/>
<path class="st45" d="M31.7,53.6c0-0.8-0.1-1.6-0.1-2.4c1.1-1.2,2.6-1.9,4.1-2.5c1-0.3,2.2,0.2,3,0.8c0.7,0.6-0.9,1,0,1.5
	c0.6,0.3,1,0.3,1.3-0.3c0,0.5,0.8,1.1-0.2,1.5c-0.6,0.3-1.3,0.6-1.8,1.1c-0.7,0.8-1.2,1.3-2.1,0.4c-0.4-0.4-0.7-0.3-1.1-0.1
	c-1.5,0.6-2.1-0.4-2.6-1.6C31.7,52.5,32.2,53.3,31.7,53.6z"/>
<path class="st46" d="M40.3,36c0.3,0,0.6,0,0.9-0.1c1-0.4,1.7-0.1,2.7,0.3c1.8,0.7-0.2,1.7,0.5,2.3c-0.9,0.8-1.8,1.7-2.9,0.2
	c-0.2-0.3-0.6-0.2-0.9-0.3C38.9,37.7,38.8,37.7,40.3,36z"/>
<path class="st1" d="M48.9,28.8c-0.7-0.7-0.3-1.6-0.5-2.4C49.1,26.9,49.2,27.8,48.9,28.8z"/>
<path class="st1" d="M52.2,28.4c-0.6-0.1-1.3-0.2-1.2-1.1c0-0.1,0.2-0.3,0.3-0.3C52.4,26.9,51.7,28,52.2,28.4
	C52.2,28.3,52.2,28.4,52.2,28.4z"/>
<path class="st1" d="M48.4,26.4c-0.2,0-0.3,0-0.5,0c-0.1-0.3-0.3-0.7-0.4-1C48.5,25.2,48.7,25.4,48.4,26.4z"/>
<path class="st1" d="M51.8,26c-0.2,0.1-0.4,0.3-0.6,0.4c-0.1,0-0.4-0.1-0.4-0.1c0-0.3,0.3-0.2,0.5-0.3C51.4,25.9,51.6,25.9,51.8,26
	C51.7,25.9,51.8,26,51.8,26z"/>
</svg>
