<?xml version="1.0" encoding="utf-8"?>
<!-- Generator: Adobe Illustrator 23.1.1, SVG Export Plug-In . SVG Version: 6.00 Build 0)  -->
<svg version="1.1" id="Livello_1" xmlns="http://www.w3.org/2000/svg" xmlns:xlink="http://www.w3.org/1999/xlink" x="0px" y="0px"
	 viewBox="0 0 80 135" style="enable-background:new 0 0 80 135;" xml:space="preserve">
<style type="text/css">
	.st0{fill:#FFFFFF;stroke:#000000;stroke-width:0.2509;stroke-miterlimit:10;}
	.st1{fill:#425544;}
	.st2{fill:#4F4B44;}
	.st3{fill:#493E35;}
	.st4{fill:#E4976F;}
	.st5{fill:#434F40;}
	.st6{fill:#52392D;}
	.st7{fill:#A1715A;}
	.st8{fill:#946F63;}
	.st9{fill:#F4B482;}
	.st10{fill:#E8A680;}
	.st11{fill:#715F5B;}
	.st12{fill:#694C44;}
	.st13{fill:#F1BD79;}
	.st14{fill:#8F7269;}
	.st15{fill:#BB9082;}
	.st16{fill:#61594D;}
	.st17{fill:#786958;}
	.st18{fill:#D9A279;}
	.st19{fill:#584D4D;}
	.st20{fill:#C5A589;}
	.st21{fill:#76635B;}
	.st22{fill:#92776E;}
	.st23{fill:#966859;}
	.st24{fill:#A4806C;}
	.st25{fill:#F19F6F;}
	.st26{fill:#EBB475;}
	.st27{fill:#F1AA67;}
	.st28{fill:#B89739;}
	.st29{fill:#C59177;}
	.st30{fill:#BE836D;}
	.st31{fill:#CB8C63;}
	.st32{fill:#956C60;}
	.st33{fill:#C6A63A;}
	.st34{fill:#EC4138;}
	.st35{fill:#C68764;}
	.st36{fill:#E49571;}
	.st37{fill:#BD3730;}
	.st38{fill:#EC4035;}
	.st39{fill:#DCBD39;}
	.st40{fill:#A2ACA1;}
	.st41{fill:#A17061;}
	.st42{fill:#E5DA37;}
	.st43{fill:#EBAE70;}
	.st44{fill:#A2A495;}
	.st45{fill:#806655;}
	.st46{fill:#C2B453;}
	.st47{fill:#BDB35C;}
	.st48{fill:#BDB253;}
	.st49{fill:#D2BD3E;}
	.st50{fill:#EB3F36;}
	.st51{fill:#C2AB3C;}
	.st52{fill:#F6F6F3;}
	.st53{fill:#EEAB69;}
	.st54{fill:#ECE235;}
	.st55{fill:#C4AD44;}
	.st56{fill:#DDD042;}
	.st57{fill:#5C463C;}
	.st58{fill:#CEBF7C;}
	.st59{fill:#E4A480;}
	.st60{fill:#F9EB30;}
</style>
<path class="st0" d="M71.5,135h-63c-4.7,0-8.5-3.8-8.5-8.5V8.5C0,3.8,3.8,0,8.5,0h63C76.2,0,80,3.8,80,8.5v118
	C80,131.2,76.2,135,71.5,135z"/>
<path class="st1" d="M65.9,112.9c0,0.6,0.3,0.8,0.9,0.8c2.7,0,5.4,0,8.2,0c0.3,0.6-0.3,1-0.7,1.3c-2.4,2.2-4.8,4.4-7.2,6.7
	c-0.8,0.7-1.5,1-2.6,1c-14.7,0.1-29.4,0.2-44.1,0.3c-5,0-10,0-15-0.1c-0.5,0-0.9,0-1.2-0.2c2.5-2.7,5.1-5.4,7.6-8
	c0.6-0.6,1.3-0.8,2.2-0.7c1,0,1.9,0,2.9,0c2.2-0.1,2.2-0.1,3.1-2.2c0.4-1,0.1-2.3,1.3-2.9c0.8,2.3-0.6,4.2-1.2,6.3
	c-0.2,0.5-0.7,1.1,0,1.4c0.6,0.2,0.9-0.5,1.1-1c0.3-0.9,0.2-1.9,1.1-2.5c0.2-0.1,0.5-0.1,0.7-0.1c3.8,0.2,7.6,0,11.5,0.1
	c1.9,0.1,3.5-0.3,4.6-1.9c0.5-0.3,1.1-0.5,1.6-0.8c0.2-0.1,0.4-0.1,0.7,0c0.8,1,0,1.5-0.6,2.1c-0.5,0.5-0.9,1.2-0.3,1.9
	c0.6,0.7,1.3,0.1,1.9-0.2c0.7-0.4,1.1-1.1,1.5-1.8c0.3-0.7,0.8-1,1.5-0.4c0.9,0.9,2.1,1.1,3.3,1.1c3.7,0,7.3,0,11,0.1
	c1.8,0.2,3.4-0.4,5-1C65.4,111.8,66.2,111.4,65.9,112.9z"/>
<path class="st2" d="M23.6,92.6c0-0.1,0-0.2,0-0.2c0.1-1.3-0.3-2.5-0.6-3.7c-0.4-1.7-2.3-0.3-3.1-1.2c-1.1-0.1-2.1-0.5-3.2-0.6
	c-0.2,0-0.4-0.1-0.6-0.1c-0.3-0.3-0.3-0.6-0.3-0.9c0.1-0.2,0.2-0.4,0.3-0.6c0.7-0.5,1.3-1.1,1.1-2.1c0.1-1.3,0.1-2.7,0.2-4
	c0.2-2.2-0.4-4.1-2-5.6c-0.6-0.9-1.5-1.6-1.3-2.9c-0.7-2.8,1.6-4.2,3.1-6.4c-1.8-0.4-3.4-0.8-4.4-2.5C12.4,60.9,12,60,12,59
	c0.1-2.4-0.9-4.6-1.2-7c-0.1-1.2-1.7-1.2-1.9-2.2c-0.1-0.8,0.5-1.4,1-1c1.4,1.3,0.3-1,1-0.6c1.2,0.1,1,1.1,1.1,1.8
	c0.2,1.2,0.3,2.4,0.4,3.6c0.1,0.6,0,1.4,0.4,1.6c2.3,1,1.8,3.1,2.2,4.8c0.2,0.7,0.4,1.6,1.3,1.9c0.5,0.1,0.7-0.3,0.8-0.7
	c0.3-0.9,0.4-1.7-0.3-2.5c-0.1-0.1-0.2-0.2-0.4-0.3c-1.9-1.7-1.9-1.8,0.4-2.5c1.2-0.3,1.5-1,1.6-2c0.2-1.5-0.1-3,0.2-4.6
	c-0.4,0.9-0.7,1.8-1.5,2.4c-0.9,0.6-1.7,0.4-2.3-0.3c-0.6-0.8-0.3-1.5,0.4-2c0.2-0.1,0.4-0.3,0.6-0.4c0.5-0.4,1.3-0.6,1.2-1.4
	c-0.1-0.9-1-0.5-1.6-0.6c-1.3-0.3-1.9-0.7-0.9-2.1c0.7-1,0.5-2.7,2.4-2.4c0.3,0.1,0.3,0.4,0.5,0.6c-0.2-0.1-0.2-0.4-0.4-0.5
	c-2.9-0.6-3.4-0.4-5.1,2.1c-0.2,0-0.4,0-0.6-0.2c-0.5-2.3,1.6-5.7,3.9-5.8c1.6-0.1,3.4-1.3,5,0.3c0,0.8-2.1,0.8-0.7,2.1
	c0.7,2.2,2.9,3.1,4.2,4.8c2,2.9,0.6,5.7-0.4,8.5c-0.2,0.6-0.9,1,0,1.8c2.3,1.8,2.1,2.5-0.5,3.5c-0.3,0.1-0.6,0.3-0.8,0.5
	c-0.9,2.2-3.2,3.9-2,6.7c0.2,0.4-0.5,0.8-0.6,1.2c-0.9,1.7,0.4,1.3,1.3,1.3c0.2-0.1,0.3-0.2,0.5-0.4c1.4-0.5,0.9,1.2,1.6,1.4
	c0.1,0.1,0.2,0.3,0.3,0.5c0.4,0.6,0.9,0.1,1.3,0c3-1.5,5.7-3.3,8.3-5.4c0.5-0.4,0.9-1.1,1.8-0.8c1.1,2.3,0.6,4.6-0.1,6.8
	c-0.1,0.2-0.3,0.4-0.5,0.5c-0.9,0-1.6,0.3-2.4,0.9c-2.4,1.8-4.7,3.7-7.5,4.9c-0.5,0.2-0.7,1.3-0.7,2c-0.1,1.3-0.5,2.8,1.4,3.3
	c0.2,0.1,0.5,0.2,0.5,0.4c-0.6,3.5,0.8,7.2-0.8,10.6c-0.1,0.2-0.2,0.2-0.5,0.3C23.2,94,23.6,93.2,23.6,92.6z"/>
<path class="st3" d="M33.4,71.9c0.2,0,0.3,0,0.5,0c1.2,0.5,1,1.7,1.4,2.6c0.4,0.8,0.9,1.5,1.8,2.2c-0.3-2.2-1.2-4-1.1-6.1
	c0.1-2.4,0.3-4.7,0.9-7c0.4-1.5,0.1-2.8-1.2-3.9c-0.4,1.2,0,2.5-0.4,3.6c-0.3,0.8-0.6,1.5-1.3,0.3c-0.1-2.9-0.3-5.8-2.2-8.2
	c-0.2-1.1,0.3-1.7,1.3-1.9c1-0.2,1.1,0.6,1.5,1.2c0.5,0.8,1.1,1.6,2.2,2c0.2-1.7-0.2-3.1-1.6-4.1c-1.5-1.1-2.2-3.4-1.7-5.1
	c0-0.5,0-0.9,0-1.4c-0.2-0.5-0.4-1,0.1-1.5c0.3-0.3,0.5,0.1,0.7,0.3c1,1.1,2.4,0.2,3.5,0.7c1.1-0.1,0.2-1,0.5-1.4
	c0.3-0.5,0.1-1.7,1.3-0.8c0.5,1.3,0.4,2.6,0.3,3.9c-0.1,0.6-0.3,1.2-1.1,1.4c-0.7,0-1-0.6-1.6-1c-0.6-0.4-1.4-0.7-1.8,0.1
	c-0.5,0.8-0.3,1.6,0.6,2c0.8,0.4,1.6,1,2.6,0.9c1.3,0.9,0.4,2.2,0.8,3.3c0.9,2.8,0.5,5.6,0.2,8.4c-0.4,2.9-0.5,3,2.2,3.9
	c0.2,0.1,0.3,0.3,0.4,0.5c-1,0.8-1,0.8-3.1,1.2c0.6,0.8,1.8,0.4,2.1,1.3c0,0.2-0.1,0.4-0.3,0.5c-1.6,0.2-2.7,0.6-1.8,2.6
	c0.5,1,0,2.2,0.5,3.3c0.2,0.5,0.4,1,0.8,1.4c0.8,0.8,1.8,1,2.8,0.7c1.1-0.3,1-1.3,1.1-2.1c0.1-1.9,0-3.8-1.1-5.5
	c0-1.3-0.2-2.6,0.8-3.6c2.2-3.1,4.9-6,6.2-9.7c0.6-0.9,0-2.2,1-2.9c0.7,0.9-0.1,2.5,0.9,3c0.8,0.4,2-0.1,3-0.1
	c0.8,0,1.6,0.1,2.3,0.1c0.2,0.2,0.2,0.4,0.2,0.7c-0.2,0.5-0.4,0.9-0.9,1c-1.3-0.1-2.1,0-2.6,1.7c-0.9,3-2.5,5.7-5.7,7
	c-1.9,0.8-2.7,2.2-2.2,4.2c0.3,1.6,0.3,3.2,0.2,4.8c0,1.4,0.5,2.1,2,2.1c4.8-0.1,9.5,0.2,14.3,0.1c1.8,0,2.5-0.7,2-2.5
	c-0.3-1.1-0.9-2.3-0.2-3.4c1.3-0.1,1.3,0.9,1.6,1.7c1.7,5.3,1.1,6.2-4.4,6.5c-1.3,0.1-2.7,0.2-4,0.3c-2.2,0.2-2.3,0.4-1.1,2.1
	c0.8,1.1,1.8,2.1,2.5,3.2c0.4,0.6,1.3,1.4,0.1,2.2c-1.2,0-1.7-0.9-2.4-1.6c-1.1-1.2-1.8-1-2.1,0.6c-0.4,0.9,0,2.1-1,2.8
	c-0.9,0.1-0.9-0.4-0.9-1c0-0.4,0.1-0.8,0-1.3c0-0.8-0.2-1.6,0.2-2.4c0.2-0.4,0.3-0.7,0.4-1.1c-0.1-1.8-1.2-2.9-2.8-3
	c-1.7-0.1-3.2,0.8-4.1,2.5c-0.1,0.1-0.4,0.2-0.1,0.4c2.1,1.4,1.6,4.5,4,5.8c1.1,0.6,0.9,5.3-0.1,6.1c-0.3,0.3-0.7,0.3-1-0.1
	c-0.3-3.2-1.1-6.3-3.8-8.7c-0.2,1.3,0,2.8-1.4,3.5c-1.2,0.7-2.4,0.6-3.7,0.7c-2.3,0-4.6,0.6-6.9,0.5c-1.1-0.1-1.8,0.6-2.3,1.5
	c-1.4,2.3-2.7,4.5-3.1,7.2c-0.2,1-0.4,2-1.4,2.7c-1.2,0.2-1-0.7-0.9-1.3c0.2-0.9,0.4-1.8,0.4-2.7c-0.7-3.1-0.1-4.4,2.5-5.5
	c1.1-1.4,0.9-3.2,1.8-4.7c0.5-0.8,0.4-2.4,2.1-1.8c0.4,0.1,0.7-0.7,0.9-1.3c0.2-0.6,0.2-1.5,1.2-1.5c0.5,0.3,0.5,0.9,0.9,1.3
	c3.2-2.6,3.1-4.8-0.1-7.4C33.2,76.8,32.4,74.4,33.4,71.9z"/>
<path class="st4" d="M33.4,71.9c-0.3,2.9,0.5,5.4,3.2,6.8c2,1.1,1.9,3,2,4.7c0,1.2-0.8,2.1-1.9,2.7c-0.4,0.2-0.6,0.6-1,1
	c-0.7-0.7-0.7-1.5-0.9-2.4c-0.2-0.1-0.3-0.2-0.4-0.4c-0.3-0.4-0.6-0.3-1-0.2c-1.5,0.1-1.9,1.8-3.2,2.3c-0.3,0.1,0.3,0.3,0.2,0.7
	c-0.2,1.6,0.4,3.4-1.4,4.5c-0.7,0.4,0,0.4,0.1,0.6c0.4,0.8,0.2,1.5-0.2,2.3c-0.1,0.3-0.1,0.6-0.4,0.8c-0.4,0.5-0.7-1.1-1.2,0
	C27,96.2,26.3,97,26.1,98c-0.1,0.3,0.2,0.2,0.4,0.2c0.9,0.2,0.3,0.6,0.1,1c-0.6,0.8-0.9,1.8-1.3,2.7c-0.5,1.1-1,2.4-2.6,2.2
	c-1.4-1.2-0.3-2.5,0.1-3.6c0.7-1.9,0.8-3.8,0.5-5.7c-0.1-0.8-0.3-1.5,0.3-2.2c0.3,0.4-0.2,1,0.5,1.5c0-2.1,0.8-3.9,0.6-5.9
	c-0.1-0.8,0-1.5-0.5-2.1c-0.8-1-0.3-1.8,0.5-2.6c-0.3,0-0.5-0.1-0.7-0.1c-1.1-0.1-1.2-0.2-1-0.5c0.5-0.9-1.1-0.4-0.7-1.1
	c0.6-1-0.8-2.5,0.9-3.3c-0.4-0.4-0.9-0.8,0.2-1.1c1-0.2,1.9-0.7,2.7-1.5c0.9-0.8,2-1.2,2.9-2c0.9-0.8,2.1-1.5,3-2.3
	c0.2-0.2,0.5-0.5,0.8-0.5C33.4,71,33.3,71.5,33.4,71.9z"/>
<path class="st5" d="M40.3,19.7c0.1-1.4,0.2-2.8-0.3-4.2c-0.8-2.5,0.2-3.5,2.7-3.1c2.4,0.3,4.2,1.8,6,3.2c0.9,0.7,1.7,1.4,2.5,2.2
	c0.9-0.5,0.9-1.4,1.1-2.1c0.6-1.9,2.8-3.6,4.6-3.6c2.7-0.1,4.7,1.9,4.9,4.8c0.2,2.3-0.3,4.4-0.9,6.6c-0.9,3.2-2.3,6.3-3.9,9.2
	c-0.5,0.9-1.2,1.7-1.1,2.8c-1.6-0.4-1-1.9-1.5-2.8c0.1-0.2,0.1-0.4,0.2-0.6c0.4-0.8,0.2-1.7,0.6-2.4c0.9-1.2,0.8-2.3-0.2-3.3
	c0.7-2-0.4-3.9-0.3-6c-0.4,2.3-1.8,0.2-2.5,0.7c-1.6-0.3-1.5,1.2-2,2c-0.4,0.6-0.2,1.6-1.3,1.6c-1.5-0.8-2.6-2.1-4.1-2.9
	c-0.5-0.3-0.9-0.1-1.3-0.2C43.1,19.9,41.5,20.2,40.3,19.7z"/>
<path class="st6" d="M54.7,32.6c1,0.7,0.3,2.2,1.3,2.9c0.8,1.5,1.7,2.9,2.4,4.4c1.4,2.9,0.7,5-1.6,7.2c-1.8,1.7-4,2-6.2,2.6
	c0.1,1.5,0.8,2.9,0.7,4.4c-0.3,1.1,0.4,2.5-0.6,3.5c-1-1.2-0.3-2.8-1-4.3c-0.8,1-1.8,1.7-3.2,1.2c-1.3-0.5-2.1-1.4-2.1-2.9
	c-0.4-0.8,0.6-2.9-1.2-2c-1.1,0.5-3,1.2-2.9,3.3c0.1,1-0.1,1.8-1.4,1.5c-0.9-1.1,0.5-2.5-0.5-3.5c-0.9-0.8-1.4-1.6,0.1-2.4
	c0.6-0.1,0.8-0.4,0.9-1c0.7-0.4,1.6,0.1,2.4-0.4c0.7-0.8,0.3-1.7,0.3-2.5c0.2-2.3-0.5-4.7,0.5-7c1.4-0.4,1,0.7,1.3,1.4
	c0.2,2.7-0.4,5.5,0.5,8.1c0.1-2,0.8-3.8,1.9-5.4c1.6-2.4,2-5,1.2-7.7c-0.1-0.2-0.1-0.4-0.1-0.7c0.5-1.1,1.4-2.1,1-3.5
	c-0.3-0.9-1.5-1.2-1.3-2.4c0.7-0.9,1.5-1.8,2.1-2.8c0.7-1,1-2.3,1.7-3.4c0.6-0.8,1.1-0.6,1.6,0c0.6,0.5,0.6,1.2,0.8,1.8
	c0,0.2,0,0.4,0,0.7c-0.1,1.2-0.5,2.6,1.2,3.1c0.5,0.1,1,0.2,1.4,0.5c0.7,0.8,0.6,1.7,0.1,2.6c-0.2,0.9,0.4,2-0.6,2.8
	c-0.6-0.9-1.2-1.8-1-3.1C53.6,30.7,54.8,31.5,54.7,32.6z"/>
<path class="st7" d="M33.5,47.4c-0.4,1.7,1.4,2.8,1.3,4.4c0,0.1,0.1,0.2,0.1,0.2c2.2-0.5,1.5,1.7,2.2,2.5c0.7,0.9,0.6,2,0.1,3.1
	c-2.5-1.1-3-1.6-3.5-3.9c-0.8,0.2-1.6,0.2-1.6,1.4c-0.9,1.5-2.7,1.5-4.1,2.3c-1.3,0.7-2.1,1.4-1.9,3.3c0.2,1.7-1.3,3.3-1.8,5.1
	c-0.2,0.6-0.1,1.8-1.1,2.1c-0.6,0.2-1.1,0.2-1.7-0.1c-1-1.3,0.1-2.5,0.2-3.8c0.2-1.4,1-2.9-0.3-4.2c0.3-0.8,0.9-1,1.7-1
	c0.8,0,1.2-0.3,1.1-1.1c-0.1-0.7-0.5-1.1-1.2-1.1c-0.4,0-0.9,0.4-1.4-0.3c0.5-0.7,0.4-1.8,1.5-2.5c0.6-0.4,0.4-1.9,0.6-2.9
	c0-0.1,0-0.1-0.1-0.2c-0.6-1.1,0.8-1.5,0.8-2.6c0-0.9-1.7-0.9-1-2.1c0.9-0.8,1.7-0.1,1.9,0.6c0.7,1.8,1.7,3.6,1.7,5.6
	c0,0.7-0.5,1.5,0.3,2c0.8,0.4,1.5-0.2,2.2-0.6c0.6-0.3,0.9-0.9,1.4-1.3c0.4,0,0.8-0.1,0.8-0.4c-0.3-3.7-3.8-5.5-5-8.6
	c-0.1-1.8,1.1-1.9,2.5-1.7C30.5,43.6,32.5,45.1,33.5,47.4z"/>
<path class="st8" d="M59.3,88.3c0.5-1-0.3-1.5-0.8-2c-0.9-1-1.6-2.2-2.5-3.1c-0.9-0.9-0.8-1.8-1.1-2.7c0.9-0.5,1.6,0.2,2.4,0.1
	c0.6,0.3,0.7,0.8,0.5,1.4c-0.1,0.5-0.2,1,0.3,1.3c2.1,1.4,3.6,3.5,5.2,5.4c0.6,0.7,1.3,0.5,1.4-0.6c0.1-0.7-0.1-1.5,0.1-2.1
	c0.2-0.6,0.3-1.6,1.4-0.8c0.1,3.5,0.4,7,1.5,10.3c-0.3,2.7-0.9,5.3-1.1,8c-0.1,2.4-0.3,4.7-0.2,7.1c0,0.8,0.2,1.6-0.5,2.2
	c-0.1-0.3-0.1-0.8-0.7-0.5c-1.6,1-3.3,1.5-5.2,1.3c0.4-1,1.5-1.2,2.2-1.9c0.7-0.5-0.3-0.9-0.1-1.4c0.9-3.3,1.3-6.7,1.2-10.2
	c-0.1-3.5-0.8-6.6-3-9.3C59.8,90.1,59,89.4,59.3,88.3z"/>
<path class="st9" d="M57.5,58.8c-0.3-0.4-0.6-0.8,0-1.2c1.7-0.7,3.3,0.3,4.9,0.1c0.2,0,0.3,0,0.3,0.2c3.7,1.8,5.9,4.6,6.7,8.6
	c0.4,1.9-0.8,3.6-0.5,5.6c0.1,0.4-1.1,3-3.3,2.3c-0.4-0.6-0.2-1.6-1.1-1.9c-0.1-0.1-0.1-0.1-0.2-0.2c-0.2-0.3-0.3-0.7-0.5-1.1
	c-0.1-0.2-0.1-0.4-0.2-0.6c-0.1-0.7-0.5-1.3-1-1.8c-0.8-2.8-2.2-5.3-4-7.7C58.2,60.5,57.4,59.8,57.5,58.8z"/>
<path class="st10" d="M74.3,68.2c0.5,0.4,0.4,0.9,0.3,1.4c-0.3,1.1-0.2,2.2,0,3.4c0.1,0.7,0.3,1.4-0.3,1.9c-0.7,0.8-1.1,0.8-1.3-0.3
	c0,0,0-0.2,0-0.2s-0.1,0.1-0.1,0.1c0.4,1.9-0.5,3.8-0.1,5.7c0.1,0.6,0.2,1.3-0.2,1.8c-1.3-0.9-2-2.2-2.2-3.8c0-0.6,0-1.3,0.2-1.9
	c0.3-0.8,0.3-1.7,0.3-2.5c0.6-5.6-1.1-10.3-5.1-14.1c-0.3-0.3-0.9-0.7-0.4-1.4c4-1.7,6.9-0.3,8,4c-0.2,0.3-0.7,0-0.6,0.1
	C73.4,64.3,73.5,66.4,74.3,68.2z"/>
<path class="st11" d="M17.6,83.8c0.5,0.6,0.6,1.1-0.2,1.4c-0.4,0.2-0.9,0.3-1.3,0.5c-0.9,0.5-1.9-0.9-2.6-0.1
	c-1,1.1-1.8,2.4-2.5,3.7c-0.2,0.4-0.3,0.5,0.3,0.7c1.1,0.4,0.5,1.2,0.3,2.1c2-1.7,3.6-3.5,5.1-5.4c0.4-0.6,1-0.7,1.4-0.2
	c0.6,0.6,1.5,0.5,2,1.1c-0.7-0.1-1.2,0.2-1.7,0.7c-1.4,1.5-3.2,2.6-4.8,3.9c-0.6,0.5-1.2,1-1.7,1.6c-1.4,1.7-1.1,3.5-0.4,5.4
	c-0.9,0.3-1-0.6-1.4-1c-0.1,0.9,1,2.2-0.5,2.9c-0.5-1.3-1.1-2.6-1.6-3.8c-0.3-0.5-0.1-0.9,0.1-1.3C8.4,95,8.8,94.1,7.2,94
	c-0.1,0,0-0.4,0.1-0.6c1.4-2.8,2.9-5.6,4.7-8.2c1.2-1.7,1.8-3.5,1.7-5.6c-0.1-2.3-0.1-4.6,0-6.9c0-0.7-0.2-1.4,0.5-2
	c0.5,0.8,1,1.6,1.5,2.4c0.7,3.1-0.4,6.4,0.8,9.6C16.8,83.4,17.3,83.4,17.6,83.8z"/>
<path class="st12" d="M65.2,58.3c0.1,0.5,0.3,0.9,0.7,1.2c4.2,3.5,6,8,5.5,13.4c0,0.3,0,0.6-0.1,0.9c-0.1,0.4-0.8-0.3-0.5,0.2
	c0.4,0.8,0.2,1.5,0.1,2.3c0,0.6-0.1,1.3-0.1,1.9c-0.6,1.9-1.1,3.9-0.5,5.9c-0.1,1.3,0.3,2.8-1,3.9c-0.8-0.5-0.9-1.2-0.9-2.1
	c-0.5-0.4,1.2-2.9-1.4-1.5c0,0.3-0.1,0.7-0.1,1c-0.2,1.4-0.2,2.8,0,4.3c0.1,2,1.3,3.7,1,5.8c-1.2-2.5-2-5-1.9-7.8
	c0-0.9,0-1.9-0.1-2.8c-0.5-0.8-0.2-1.6,0.1-2.3c1.3-2.9,2.1-5.8,2.7-8.9c0.4-2.3,0.5-4.7,0.3-7c-0.9-3.3-2.4-6.3-5.6-8
	c-0.4-0.2-0.6-0.5-0.6-0.9C63.5,58,64.3,58.7,65.2,58.3z"/>
<path class="st13" d="M40.3,19.7c2.2-0.8,2.8-0.5,3.5,1.8c1.3,1.8,2.3,3.7,2.8,5.9c0.5,0.9,1.2,1.8-0.2,2.6c-1.4,0.8-2.8,1-4.3,0.4
	c-0.3-0.1-0.5-0.6-0.1-0.7c0.6-0.2,0.9-0.3,0.7-1c-0.3-0.9-1-0.4-1.5-0.4c-2.7,0-2.9-0.2-1.9-2.8c0.3-0.7,0.6-1.2-0.3-1.8
	c-0.5-0.3-1-0.9-0.5-1.6C39,21.2,39.7,20.5,40.3,19.7z"/>
<path class="st14" d="M20.1,39.2c-1.6-0.8-3.2-0.3-4.9-0.5c-0.9-0.1-0.3,0.9-1.1,1.3c-1.6,0.8-2.9,2.2-2.7,4.4c0,0.1,0,0.2-0.1,0.3
	c-0.5,0.9-0.8,1.9-0.3,3c0.1,0.2,0,0.4-0.1,0.6c0,0.5,0,0.9,0,1.7c-0.7-0.5-1.5-1.6-2-0.1c-1.4-0.7-1.6-1.9-1.3-3.2
	C7.8,46,7.9,45.4,8,44.9c0.1-1.1,1.3-2,1.1-3.1c-0.2-1.1-1.4-1.7-1.7-2.9c1.3-0.3,2.2,0.9,3.4,0.7c0.5-0.9-0.8-1.4-0.4-2.3
	c1-0.1,2,0.3,2.9,0.6c1.3,0.4,2.5,0.4,3.7-0.1c1.2-0.5,2.4-0.6,3.7,0c0.3,0.3,0.3,0.6,0.3,0.9c-0.1,0.2-0.2,0.4-0.4,0.5
	C20.4,39.2,20.2,39.2,20.1,39.2z"/>
<path class="st15" d="M9.4,101c0.7-1,0.1-1.9-0.1-2.8c-0.1-0.6-0.8-1.3,0.1-1.6c0.8-0.2,0.7,0.7,1,1.3c0.2,0.5,0.3,1.1,0.9,1.3
	c0.8,0.8,0.7,2,1.4,2.7c1.1,1.2,1.8,2.8,3.9,3c1.7,0.2,2.5,3.7,1.2,5c-0.2,0.2-0.5,0.4-0.9,0.3c-0.3,0-0.6-0.2-0.9-0.3
	c-0.6-0.2-1.3-0.6-1.5-1.1c-0.8-2.2-3.8-2.4-4.1-5C10.3,102.9,9.8,102,9.4,101z"/>
<path class="st16" d="M34.1,45.6C34,45.4,34,44.9,33.7,45c-0.2,0.1-0.2,0.7-0.2,1c-0.7-2.9-0.6-5.7,1.2-8.3c1.1-1.6,2.2-3.2,2.8-5.1
	c0.4-1.1,1.2-1.8,2.4-2c0,0.1,0.1,0.2,0.1,0.3c0,0.2-0.1,0.4-0.2,0.6c-0.6,0.9-0.6,1.6,0.5,1.9c0.8,0.3,1.3,0.6,0.5,1.5
	c-1.1,1.1-0.7,2.5-0.9,3.8c-0.1,1.5,0.4,3-0.8,4.3c-0.8,1-0.1,2.2-0.5,3.3c-0.5,0.1-0.6-0.4-0.9-0.5c-1-2.2-2.4-4.3-1.8-6.8
	c-1.1,1.2-1,1.3-1.2,3.1C34.8,43.4,35.6,44.8,34.1,45.6z"/>
<path class="st17" d="M38.4,22c-0.1,0.7,0.2,1,0.8,1.3c0.6,0.3,1.3,0.6,1.9,0.9c-0.2,0.9-1.4,0.3-1.4,0.9c0,0.8-1.1,1.4-0.6,2.2
	c0.5,0.7,1.3,0.3,2,0.2c0.9-0.2,1.8,0.6,2.6-0.6c0.3,1.2-0.5,1.3-0.7,1.7c-0.3,0.8,0.8,0.3,0.8,0.9c-0.5,0.1-1,0.1-1.5,0.2
	c0,0-0.1,0.1-0.1,0.3c1.9,0.3,3.6,0.3,4.9-1.4c-0.5-0.2-1.6,0.3-0.8-0.9c0.2-0.4,0.4-0.8,1-0.4c0.1,1.1,1.3,1.1,1.8,1.8
	c-0.2,0.2,0-0.1-0.2,0.2c-1.5,2.2-3.4,3.2-6.1,2.2c-0.9-0.5-2.1-0.1-2.9-0.9c0,0,0,0,0,0c0-0.8,0.9-1,1.2-1.7
	c-1.1-0.6-2.4-0.1-3.4-0.8c0-0.2-0.1-0.4-0.1-0.4c1.1-1.5,1.4-3.1,0.5-4.8C37.9,22.6,38,22.2,38.4,22z"/>
<path class="st4" d="M22.2,113.1c-0.3,1.1-0.3,2.3-0.9,3.3c-0.4,0.7-0.7,1.2-1.6,0.9c-0.9-0.4-1.1-1.2-0.6-2
	c0.4-0.7,0.8-1.5,1.1-2.3c0.5-1.4,0.8-2.9,1.1-4.3c-0.1-0.9-0.4-1.9,0.3-2.8c0.3,0.1,0.3,0.3,0.3,0.5c0.2-0.1,0.1-0.3,0.1-0.5
	c0-0.4,0.2-0.7,0.4-1c0.5-0.5,1.2-1,1.9-0.6c0.8,0.4,0.6,1.3,0.3,1.9C23.7,108.5,23.5,111,22.2,113.1z"/>
<path class="st18" d="M20.6,38.7c0-0.3,0-0.6,0-0.9c3,0.9,6.5,0.6,8.5,3.8c-0.2,0.2-0.5,0.7-0.6,0.7c-1.1-0.7-1.3,0.4-1.8,0.9
	c-1.2,0.5-2-0.4-2.7-1C22.9,41.1,21.5,40.1,20.6,38.7z"/>
<path class="st19" d="M69.3,88c0.2-1.4,0.4-2.7,0.5-4.1c-0.4-1-0.2-1.9,0-3.2c1.3,1.1,1.3,2.4,1.4,3.5c0.1,1.7,0.8-0.2,1,0.3
	c0.1,1.9,0.2,3.8,1.3,5.4c0.2,0.3,0.2,0.7,0,1.1c-0.6-0.4-1.5,0.2-1.7,0C71.3,89.7,69.9,89.2,69.3,88z"/>
<path class="st8" d="M72.2,84.5c-0.7,0.3-0.2,1.2-0.9,1.7c-0.5-1.5-1.1-3-1.4-4.5c0,0.8-0.1,1.5-0.1,2.3c-0.9-0.9-0.5-2.1-0.3-3.1
	c0.1-0.9,0.7-1.6,0.5-2.6c-0.1-0.3,0.5-0.1,0.8,0c0,0.8,0.2,1.5,0.9,2c0.6,0.5,0.6,1.2,0.8,1.8C72.3,82.9,72.3,83.7,72.2,84.5z"/>
<path class="st2" d="M22.6,105.3c-0.4,0.4-0.4,1.1-0.6,1.7c-0.5-0.3-0.3-0.7-0.4-1c0.1-2.4,0.5-4.8,1.2-7.1c0.4-1.3,0.2-2.6,0.5-4
	c0.2,0.2,0.5,0.4,0.5,0.5c-0.4,1.9,0.4,3.9-0.8,5.7c-0.5,0.8-0.7,1.9-0.3,3C23.1,104.4,23.1,104.9,22.6,105.3z"/>
<path class="st8" d="M73.2,73.9c0,0.7-0.1,1.4,1,1c-0.5,1.8-1.1,3.6-1.6,5.4c-0.1,0-0.2-0.1-0.2-0.1c-0.5-2.1-0.2-4.2,0.1-6.3
	C72.8,73.9,73,73.9,73.2,73.9L73.2,73.9z"/>
<path class="st20" d="M7.3,93.4c0.2,0.1,0,0.8,0.5,0.4c0.2-0.2,0.3-0.5,0.5-0.8c0.1-0.2,0.3-0.3,0.7-0.6c0.7,2-0.5,3.3-1.2,4.8
	C7,96,6.4,94.8,7.3,93.4z"/>
<path class="st8" d="M74.3,68.2c-0.7-0.2-0.6-0.9-0.8-1.4c-0.4-1.7-0.9-3.3-1.6-4.9c0.7-0.5,0.9,0.3,1.3,0.3
	C73.6,64.3,73.9,66.3,74.3,68.2z"/>
<path class="st8" d="M66.9,84.5c0.1-1,1.4-0.8,1.6-1.7c0,1.1,0.6,2.2-0.2,3.2C67.7,85.7,68.3,84.2,66.9,84.5z"/>
<path class="st12" d="M62.4,57.7c-0.2,0.3-0.5,0.4-0.8,0.3c-1.3-0.5-2.7-0.3-4.1-0.5c0-0.1,0-0.3,0-0.4
	C59.2,56.7,60.8,57.2,62.4,57.7z"/>
<path class="st8" d="M66.8,89.7c-0.6-1.4-0.6-2.8,0-4.3C66.8,86.9,66.8,88.3,66.8,89.7z"/>
<path class="st8" d="M74.6,73c-0.6-1.1-0.5-2.2,0-3.4C74.7,70.8,74.8,71.9,74.6,73z"/>
<path class="st21" d="M54.4,87.3c0.2,1.8,0,3.6,0.7,5.4c0.6,1.3-0.5,2.3-1.3,3.1c-1.8,2-3.3,4.2-4.6,6.6c-0.4,0.7-0.8,1.4-0.9,2.2
	c-0.4,2-1,3.8-2.8,5c-0.8,0.5-0.6,1.4-0.7,2.2c-0.6,1.4-1.1,2.9-2.9,3.4c-0.7,0.2-1.3,0.6-2,0c-0.6-0.6-0.5-1.3-0.4-2
	c0.2-0.7,0.5-1.3,1.3-1.6c0.7-0.2,0.7-0.8,0.2-1.3c0.3-0.4,0.7-0.7,0.8-1.2c0.4-2.3,1.9-3.7,3.5-5.2c0.5,0.6,0.2,1.1-0.1,1.6
	c-0.4,0.7-1.2,1.2-1.1,2.3c1.5,0,1.9-0.9,1.9-2.1c1.1-2.8,2.9-5.3,4.5-7.9c1.4-2.1,3.1-4.1,2.3-7c-0.1-0.3,0.3-0.6,0.6-0.7
	c0.6-0.3,0.5-0.9,0.6-1.4C54,88.3,53.9,87.7,54.4,87.3z"/>
<path class="st22" d="M26.5,103.5c-0.9,2.1-2.3,3.9-2.8,6.2c-0.2,1.2-0.5,2.3-1.1,3.4c-0.2,0-0.3,0-0.5,0c0-2,0.8-3.9,1.4-5.7
	c0.3-0.9,0.5-1.8,0.6-2.7c-0.9-0.6-1,0.5-1.6,0.6c0-0.5,0-0.9,0.1-1.4c1.8-0.2,2.1-1.7,2.4-3c0.2-1.1,0.7-1.5,1.6-1.7
	c0.4,0.8,0.3,1.5,0,2.3C26.6,102.1,25.8,102.8,26.5,103.5z"/>
<path class="st23" d="M63,115.7c1.4,0,2.1,0.5,2,1.4c-0.1,1-1.4,1.9-2.7,1.9c-1,0-1.8-0.7-1.8-1.5C60.6,116.3,61.5,115.7,63,115.7z"
	/>
<path class="st24" d="M18.3,118.8c1.6,0.9,1.6,1.1,0.9,2.2c-0.7,1.1-2.3,1.6-3.2,0.9c-0.3-0.2-0.4-0.4-0.3-0.8
	C15.9,119.7,16.6,119.1,18.3,118.8L18.3,118.8z"/>
<path class="st24" d="M18.3,118.8c0.2-0.4-0.3-1,0.5-1.1c0.1,0,0.3,0.2,0.3,0.3C19.3,118.8,18.8,118.8,18.3,118.8L18.3,118.8z"/>
<path class="st21" d="M39.8,111.2c0.3-0.4,0.7-0.6,1.1-0.8C40.9,111,40.5,111.3,39.8,111.2z"/>
<path class="st25" d="M23.3,67.5c0.4-0.6-0.2-1.6,0.7-2.1c0.4-0.2,0.3-0.8,0-1.3c-0.1-0.2-0.2-0.4-0.3-0.6c1-0.3,1.4-0.8,0.9-1.9
	c0-0.1,1.2,0,1.2-0.7c0-0.3-1-0.1-0.7-0.9c0.4-1.2,0.8-2.4,2-2.9c1.6-0.7,3.3-1.4,5-2.1c2.5,2.4,2.7,5.5,2.3,8.7
	c-0.2,0.3,0,0.7-0.2,1c-2.1,2.4-4.9,3.9-7.6,5.6c-0.7,0.4-1.4,0.7-2.1,1.1c-0.7,0.3-1.1,0-1.4-0.6l0,0
	C22.1,69.6,22.8,68.6,23.3,67.5z"/>
<path class="st26" d="M11,48.2c0-0.1,0.1-0.3,0.1-0.4c0-0.7,0.5-1.1,0.6-1.7c0.1-0.6-0.3-1.2,0.2-1.7c0.5-3,2.8-3.8,5.3-1.9l0,0
	c-0.5,0-1,0-1.3,0.4c-0.3,0.4-0.7,0.9-0.6,1.2c0.4,1-1.7,1-0.9,2c0.6,0.7,1.5,0,2.3-0.1c0.6,0,1,0.2,1.1,0.7
	c0.2,0.7,0.2,1.5-0.5,1.9c-0.4,0.3-1,0.5-1.5,0.7c-0.5,0.2-1.1,0.4-1,1.1c0.1,0.7,0.7,0.8,1.2,1c0.7,0.3,1-0.4,1.3-0.8
	c0.5-0.5,0.4-1.4,0.9-1.9c0.3-0.3,0.4-0.6,0.8-1.2c0.4,2.6,0.1,4.9-0.1,7.1c-0.1,1-0.5,1.7-1.7,1.6c-0.5,0-1.1-0.2-1.6,0.2
	c-0.2,0.8,0.5,0.7,0.8,0.9c1.7,1,2.2,3,1.2,4.7c-0.3,0.5-0.8,0.8-1.3,0.9c-0.6,0.1-0.8-0.5-0.9-0.9c-0.6-1.6-2.1-3-0.8-5
	c0.3-0.4-0.2-0.7-0.6-0.7c-0.5-0.1-0.9,0.5-1.4,0.2c-0.6-2.2-0.9-4.4-1-6.7C11.5,49.4,11.6,48.7,11,48.2z"/>
<path class="st27" d="M31.2,52.1c0.1,1.6-1.2,1.9-2.2,2.4c-0.9,0.4-1.7,0.8-2.7,0.4c-0.3-0.6,0-1.1,0.1-1.6c0.6-2.3-1.1-4.1-1.3-6.3
	c0-0.6-0.8-1.2-1.7-1c-0.8-0.7-1.4-1.4-2.4-1.9c-1.3-0.6-1.4-2-1.9-3c-0.5-1,0.1-1.4,0.9-1.6c0.5-0.1,1-0.1,1.4,0.2
	c3.2,2.9,7,5.3,9.2,9.1C31.2,49.8,31.9,50.9,31.2,52.1z"/>
<path class="st28" d="M34.1,64.8c-0.1-0.4-0.1-0.7,0.2-1c0.7,0.1,0.5-0.4,0.5-0.8c0-1.6,0-3.2,0.2-4.8c1.8,1.6,3.4,3.3,2.3,6
	c-1.1,2.7-0.3,5.6-0.8,8.4c0,0.2,0,0.5,0.1,0.7c1.4,1.1,0.7,2.8,1.4,4.1c-2-0.4-3.3-1.7-3.7-3.7c-0.1-0.6-0.2-1.3-0.5-1.8
	c0.2-1.8,0.4-3.6,0.5-5.3C34.5,65.9,34.6,65.3,34.1,64.8z"/>
<path class="st29" d="M16.6,86.7c0.1,0.4,0.7,0.9,0.1,1.2c-1.9,1.2-3,3.3-4.8,4.5c-0.4,0.3-0.7,1.1-1.3,0.4
	c-0.4-0.4-0.1-0.9,0.3-1.2c0.1,0,0.1-0.1,0.2-0.2c0.3-0.4,0.8-0.8,0.3-1.2c-0.5-0.4-0.8,0.2-1.1,0.5C9.9,91,9.8,91.2,9.5,91
	c0.9-2.1,2.1-4,3.5-5.9c0.5-0.7,0.9-1.8,1.7-0.1c0.2,0.4,1.1,0,1.4,0.6c0,0,0,0,0,0c-0.1,0.4-0.6,0.8,0,1.1
	C16.2,86.8,16.4,86.7,16.6,86.7z"/>
<path class="st30" d="M17.6,83.8c-0.5,0-0.9-0.1-1.4-0.1c0.3-0.9-0.4-1.6-0.5-2.4c0-0.1,0.2-0.2,0.2-0.4c0-0.8-1.4-0.5-1.1-1.5
	c0.2-0.6,0.6-1.1,0.5-2c-0.1-1.2,0.4-2.4-0.3-3.6c-0.2-0.3,0.3-0.6,0.7-0.8c1.8,1.5,2.7,3.3,2.3,5.8C17.8,80.5,18.2,82.2,17.6,83.8z
	"/>
<path class="st25" d="M21.5,59.8c0.5,0,1.1-0.1,1.6,0.2c-0.4,2.6-1,5-1.8,7.4c1.4,0.9-0.2,1.3-0.4,2l0,0c-1.4,0.5-1.8-0.3-2-1.5
	c0-0.3-0.5-0.7,0.1-0.9c0.4-0.1,0.6,0,0.1-0.6c-0.6-0.6-0.6-1.8-0.2-2.5C20.1,62.7,20.5,61.1,21.5,59.8z"/>
<path class="st31" d="M20.3,53.8c-0.5-0.8-0.6-2.1-0.4-2.6c0.3-0.8,0.6-1.7,0.7-2.6c0.1-0.9,0-1.9,1.1-2.4
	C23.2,50.1,22.9,52,20.3,53.8z"/>
<path class="st32" d="M20.9,69.4c-0.1-0.3-0.4-0.7-0.1-0.8c0.9-0.2,0.3-0.8,0.5-1.2c0.7,0,1.3,0,2,0.1c0.2,1.2-0.3,2.2-0.5,3.3
	c-0.4-0.4-1.8,0.3-1.2-1.3C22,68.9,21.2,69.5,20.9,69.4z"/>
<path class="st32" d="M19,67.9c0.5,0.7,1,1.4,2,1.5c-0.2,1.3-0.4,1.5-1,0.7c-0.6-0.9-1.4,0.1-2-0.5C18.6,69.3,18.4,68.4,19,67.9z"/>
<path class="st14" d="M20.1,39.6c-0.7,0.3-0.9,0.9-1,1.5c-0.7-0.3-1.1-0.8-1.3-1.6c0.8-0.4,1.6-0.3,2.3-0.3c0,0,0,0,0,0
	c0.2,0.1,0.2,0.2,0.2,0.3C20.2,39.5,20.2,39.6,20.1,39.6z"/>
<path class="st32" d="M22.9,70.9c0.5,0.2,1,0.4,1.4,0.6c-0.3,0.4-0.8,0.4-1.3,0.4c-0.3,0-0.7,0.1-0.7-0.3
	C22.4,71.3,22.7,71.1,22.9,70.9z"/>
<path class="st11" d="M16.1,86.8c0,0.3-0.2,0.6-0.5,0.6c-0.5,0-0.4-0.4-0.3-0.7c0.2-0.4,0.3-0.9,0.8-1.1
	C16.1,86.1,16.1,86.5,16.1,86.8z"/>
<path class="st14" d="M11.9,44.4c0.1,0.7,0.5,1.2,0.4,1.9c-1.3-0.2-1.4-0.9-0.9-1.9C11.6,44.4,11.8,44.4,11.9,44.4z"/>
<path class="st26" d="M17.2,42.5c0.7,0.5,0.6,1.1,0,2C17.2,43.6,17.2,43.1,17.2,42.5C17.3,42.5,17.2,42.5,17.2,42.5z"/>
<path class="st33" d="M57.5,58.8c1.8,1.7,3.2,3.8,4.2,6c0.3,0.7,0.8,1.4,1.2,2c0.5,0.6-0.6,1.4,0.2,2c0.9,0.5,0.6,1.6,1.1,2.3l0,0
	c0.4,0.4,0,1.1,0.5,1.5c0,0,0,0,0,0c0.1,1.5,0.6,2.9,1,4.4c0.4,1.6,0.2,1.9-1.5,2.2c-1.5,0.3-3.1,0.4-4.5,0.3c-4-0.2-8-0.1-12-0.3
	c-1.7-0.1-1.7-0.1-1.7-1.7c0-2.1,0.1-4.1-0.4-6.2c-0.5-1.9,0.3-3.4,2.1-4c3.3-1.1,4.4-4,6-6.4c0.5-0.7-0.1-1.5,0-2.3
	c0.1-0.8,0.6-1.1,1.1-0.7C55.6,58.4,56.6,58.3,57.5,58.8z"/>
<path class="st34" d="M45,51.3c0.3,0.6-0.2,1.4,0.5,2c1.4,1.3,2.8,1.1,3.7-0.6c0.2-0.3,0.1-0.8,0.6-1.2c1.1,1.9,1.1,3.9,0.9,6
	c-0.7,2.1-1.8,4-3.3,5.6c-1.1,1.2-1.7,2.8-2.9,4c-0.9,0.4-1.7,0.2-2.4-0.5c-0.1,0-0.3,0-0.4-0.1c-2.3-2.2-2.3-2.7,0.4-4.4
	c0.2-0.1,0.5-0.3,0.4-0.4c-1.3-1.2,0.2-3-0.8-4.1c-0.8-0.9-0.3-1.7,0-2.4c0.4-0.9,1.6-1.1,0.6-2.7C41.8,51.8,43.5,50.7,45,51.3z"/>
<path class="st35" d="M53.4,90.3c-0.1,0.2-0.3,0.5-0.2,0.7c1.2,2.5-0.4,4.3-1.5,6.1c-1.8,3-3.6,6-5.4,8.9c-0.7,0.4-1.2,0.2-1.5-0.5
	c0.2-0.5,0.5-0.9,0.5-1.5c0,0,0,0.1,0,0.1c0.4-0.4,0.7-1,1-1.5l0,0c0.9-1.1,1.4-2.4,2-3.6c0.1-1,0.6-1.7,1.2-2.5
	c1.5-0.6,1.5-1.8,1.2-3c-0.2-0.7-0.6-1.4-0.2-2c0.4-0.6,0.1-0.7-0.3-0.9c-1.2-0.7-1.9-1.8-2.2-3c-0.3-1.2-0.8-2.3-1.6-2.9
	c-1.1-0.8,1.3-0.8,0.2-1.3c0.8-1.8,4.3-3.1,5.9-2.2c1.3,0.7,2,2.1,1.8,3.7c-0.4,0.2-0.5,0.6-0.6,1c-0.2,0.6-0.2,1.3,0,1.9
	c-0.3,0.5-0.3,1,0,1.5C53.5,89.6,52.8,89.9,53.4,90.3z"/>
<path class="st36" d="M69,66.7c0.9,2.4,0.6,4.9,0.2,7.2c-0.5,2.8-0.8,5.7-2.5,8.2c-0.5,0.7-0.5,1.8-0.8,2.7
	c-1.2,0.9-0.3,2.2-0.6,3.4c-0.1,0.6,0.3,1.3-0.5,1.7c-0.4,0.2-2.4-0.8-2.5-1.2c-0.1-0.9-0.1-1.7-1.5-1.2c-0.3,0.1-0.8-0.5-0.6-0.9
	c0.4-1.2-0.4-1.6-1.2-2c-1.4-0.8-2.6-1.7-1.6-3.6c0-0.1-0.1-0.3-0.2-0.4c2.3-0.7,4.7-0.2,7-0.8c0.5-0.1,1.1-0.1,1.6-0.3
	c0.6-0.3,1-0.7,0.7-1.5c-0.4-1.2-0.7-2.4-1-3.6c0.8-0.1,1.5-0.2,1.6-1.3c0-0.5,0.3-0.8,1-0.8c0.4,0.1,0.6-0.4,0.3-0.6
	c-0.9-0.8-0.5-1.6,0-2.3C69.2,68.6,68.4,67.6,69,66.7z"/>
<path class="st37" d="M45,51.3c-0.4,0.1-0.8,0.2-1.1,0.4c-0.5,0.3-1.3,0.3-1.3,1.1c0,1,1.1,0.7,1.6,1.1c-0.4,0.6-1,0.7-1.6,0.9
	c-1,0.4,0.1,1.8-1,2.1c0.1,0.1,0.3,0.1,0.4,0.2c0.7,0.3,1.4,0.6,0.6,1.5c0.6,0.6,0.6,1-0.3,1.1c-0.2,0-0.4,0.3-0.1,0.5
	c0.5,0.5,0.8,1.6,0.8,2c0,0.9-0.1,1-0.9,0.5c-0.5-0.3-1.2,0-1,0.5c0.3,0.7-1.5,1.3-0.1,1.9c0.7,0.3,0.6,0.8,0.7,1.4
	c-0.5-0.1-1.1-0.1-1.6-0.2c-1.1-0.3-1.7-1.1-1.3-2.2c0.8-2.5,0-5.1,0.7-7.6c0.2-0.8-0.6-1.4-0.5-2.2c0.4-0.1,0.8-0.3,1-0.7
	c0.7-2.6,0.6-2.8,2-3.7c0.6-0.4,0-0.9,0.4-1c0.4-0.1,0.9,0,1.4-0.1c0.5,0,0.9-0.1,1.7-0.3C44.5,49.5,45.2,50.4,45,51.3z"/>
<path class="st38" d="M43.6,70c1,0.8,1.2,2,1.4,3.1c0.1,0.8,0.1,1.6,0,2.4c0,2.7-0.2,3-1.6,3.1c-2.9,0.2-3.7-0.3-4.2-2.8
	c-0.4-1.6,0.5-3.3-0.7-4.8c-0.4-0.5,0-1.1,0.8-1.2c0.6-0.1,1.3,0.2,1.8-0.2l0,0C42,69.1,42.8,69.4,43.6,70z"/>
<path class="st39" d="M39.2,43.1c0-2.3,0.1-4.6,0.1-6.8c0-1.6,0.1-1.6,1.9-1.8c0.1,0,0.3,0,0.4,0c1.8,0.5,1.9,1.6,1.1,3
	c0,2.5-0.1,5-0.1,7.4c-0.5,1,0.1,2-0.4,3c-1,0-2,0.2-2.9-0.5C39.3,46,39.3,44.6,39.2,43.1z"/>
<path class="st40" d="M33.2,90.3c0.8-1.7,2.2-1.9,3.7-2.1c2.7-0.4,4.2-2.5,3.6-5.2c-0.1-0.6-0.6-1.2,0.2-1.7
	c0.6-0.4,1.4-0.3,2.1-0.1c0.5,0.1,0.4,0.5,0.4,1c-0.1,2.3-0.2,4.6,0.3,6.9c0.1,0.5,0,0.9-0.7,1c-0.5,0.1-1.2,0.5-1.6,0.3
	c-1.8-0.8-3.5-0.1-5.1,0.2C35,90.9,34.1,90.8,33.2,90.3z"/>
<path class="st41" d="M29.1,94.5c-0.2-1.1,0.4-2.6-1.6-2.7c0.9-0.3,1.8-0.5,2.3-1.4c0.6-1.1-0.1-2.3,0.2-3.4
	c0.1-0.4-0.8,0.2-1.4-0.5c1.7,0.2,2.5-1.2,3.1-2.1c0.7-1.1,1.4-0.7,2.1-0.6c0.4,0,0.7,0.2,1,0.5c0,0.2,0,0.3,0.1,0.5
	c-1,0.7-0.6,2-1.4,2.8C31,90,31.1,90.1,30,93.4C29.8,93.9,29.5,94.2,29.1,94.5z"/>
<path class="st42" d="M34.1,45.6c1-0.9,0-2,0.2-3.1c0.6-2.8,0.4-2.9,2.1-4.8c0.9,0.5,0.2,1.3,0.4,1.9c0.4,1.1-0.9,0.7-1,1.4
	c1.4,0.3,1.7,1.4,1.7,2.6c0,0.8,0.1,1.6,0.4,2.3c-1.1,0-2.2,0.1-3.3,0.1C34.2,46.1,34.2,45.8,34.1,45.6z"/>
<path class="st37" d="M43.6,70c-0.9,0.1-1.7,0-2.4-0.5c-0.6-0.7-1.5-0.3-2.2-0.5c-0.6-0.1-1.1-0.4-1-1.1c0.1-0.5,0.5-0.7,1-0.8
	c1-0.2,2.2,0.4,3.1-0.5c0.9-0.2,1.6,0.4,2.4,0.5c-0.1,0.4-0.8,0.5-0.5,1.1C44.3,68.9,43.8,69.4,43.6,70z"/>
<path class="st43" d="M38.4,48.4c-1,0.8-0.4,1.6-0.1,2.4c-0.1,0.2-0.2,0.4-0.3,0.6c-0.8-0.6-1.9-0.7-2.8-1.2c-1-0.6-1.1-2.4-0.5-3.2
	c0.7-0.8,2-0.7,3,0.1C38.2,47.4,38.3,47.9,38.4,48.4z"/>
<path class="st37" d="M41.1,69.5c-0.2,0.1-0.3,0.3-0.5,0.4c-0.6,0.2-1.3-0.2-1.7,0.5c-0.3,0.7,0.3,1.1,0.6,1.7
	c0.6,1.3-0.3,2.4-0.3,3.6c-0.6-0.5-0.5-1.1-0.4-1.7c0-1-0.2-1.8-0.5-2.7c-0.6-1.5-0.4-1.7,1.3-1.8C40,69.4,40.5,69.5,41.1,69.5z"/>
<path class="st44" d="M44,80.3c-1.6,0.4-2.8,0.2-4,0.1c-0.4,0-0.7-0.3-0.7-0.8c0-0.4,0.4-0.5,0.7-0.4C41.3,79.3,42.7,78.8,44,80.3z"
	/>
<path class="st21" d="M53.4,85.8c-0.2-0.5-0.2-1,0.6-1C54,85.3,54,85.7,53.4,85.8z"/>
<path class="st21" d="M53.5,89.3c-0.6-0.5-0.6-1,0-1.5C53.5,88.3,53.5,88.8,53.5,89.3z"/>
<path class="st3" d="M34.8,84.3c-0.4,0-0.7-0.1-1-0.5c0.1-0.3,0.1-0.9,0.6-0.7C35,83.3,34.7,83.9,34.8,84.3z"/>
<path class="st45" d="M47.2,27.3c-0.3,0.1-0.7,0.3-1,0.4c-0.5-1.3-0.8-2.7-1.7-3.9c-0.5-0.7-0.8-1.5-0.8-2.4
	c0.4,0.1,0.7-1.8,1.3-0.1c0,0.1,0.2,0.2,0.4,0.2c1.8,0.2,2.5,1.8,3.6,2.8c0.1,0.4,0.6,0.9,0.1,1.3C48.4,26.2,48.1,27.2,47.2,27.3z"
	/>
<path class="st46" d="M52.8,23.1c-0.7-0.5-0.3-1.4-0.5-2c0.1-0.4-0.1-0.9,0.2-1.3c0.8,0.1,0.8,1,1.4,1.3c0.6-0.6,0-1.7,1.1-2.3
	c0.4,0.6,0.5,1.4,0.5,2.1c-0.1,0.9,0,1.6,0.5,2.4c0.7,1.1-0.2,2.1-0.8,3c-0.1,0-0.2,0-0.3,0C53.6,25.7,54.7,23.5,52.8,23.1z"/>
<path class="st47" d="M53.9,14.6c0.6,1.4,0.5,2.5,0.3,3.6c-0.1,0.4-0.3,0.8-0.8,0.7c-0.5-0.1-0.5-0.6-0.5-0.9
	C52.9,17,53,15.9,53.9,14.6z"/>
<path class="st48" d="M54.7,32.6c-0.9-1-1.4-2.2-1.5-3.6c0-0.4-0.1-0.9,0.4-1c0.6-0.1,0.8,0.4,1,0.8c0.1,0.2,0.2,0.5,0.1,0.7
	c-0.6,1.2,0.3,2.1,0.4,3.1c0,0-0.2,0-0.2,0L54.7,32.6z"/>
<path class="st49" d="M55.7,29.8c-0.1-0.8,0.2-1.7-0.4-2.5c-0.4-0.3-0.4-0.6-0.1-0.9c0,0,0,0,0,0c0.7,0.1,1.5,0.1,1.5,1.1
	C56.7,28.4,57,29.4,55.7,29.8z"/>
<path class="st50" d="M48.5,40.8c0.8-3.3,0.6-6.7,2-9.9c0.4-1,0.4-2.1,0.4-3.2c0-0.4,0.2-0.8,0.7-0.7c0.4,0,0.5,0.3,0.5,0.7
	c-0.1,2.2,1.3,4,1.9,6.1c0.2,0.6,0.6,1.1,0.3,1.8c-1,2.2-1.6,4.5-3.1,6.4c-0.5,0.6-1,1-1.8,0.6C48.8,42.1,48.3,41.7,48.5,40.8z"/>
<path class="st51" d="M47.5,33.5c0.2,0.1,0.5,0.3,0.6,0.4c0.7,1.6-0.1,6.5-1.3,7.8c-1.2,1.2-1,2.9-1.8,4.3c-0.2,0.4,0.8,0.8,0.6,1.6
	c-0.6,0.1-1.4,0.2-2.2,0.1c-0.2-2.8-0.1-5.6,0.1-8.4c0.1-0.6,0.4-1.2,0.3-1.8C43,34.4,44.1,33.3,47.5,33.5z"/>
<path class="st52" d="M43,31c0.2,0.1,0.3,0.7,0.6,0.4c0.7-0.6,1.3-0.9,1.9,0c0.4,0.6,0.3,0,0.4-0.2c0.3-1.1,1.7-1,2.2-2.1
	c0-0.1,0.6,0,0.9,0c0.2,1.6,0.1,3-1.5,3.9c-2,0.7-4,1.9-6.3,1.3c0,0,0,0,0,0c-0.3-0.6-0.9-0.5-1.5-0.5c-0.7-0.1-1.2-0.4-1.4-1.1
	c-0.2-0.6,0.2-1,0.7-1.3c0.3-0.2,0.5-0.4,0.8-0.6C40.9,30.9,42,30.9,43,31z"/>
<path class="st53" d="M48.5,48.3C48,48.2,47,48.4,47,48c0-0.8-0.6-1.5-0.6-2.1c0-1,0.5-2,0.8-3c0.1-0.4,0.5-0.3,0.8-0.1
	c1,0.5,1.9,1.1,3.1,0.9c0.4-0.1,0.5,0.3,0.6,0.6C52.1,46.6,50.6,48.3,48.5,48.3z"/>
<path class="st54" d="M57.5,42.2c0.3,0.7,0.7,1.3,0.5,2c-0.2,0.6-0.1,1.7-1.3,0.9c-0.5-0.3-0.5,0.1-0.5,0.4c-0.1,0.5-0.2,1-0.7,1.1
	c-0.7-0.4,0-1.2-0.5-1.7c-0.5,1.5-1,2.9-3.2,3.4c0.8-1.7,1.3-3.2,1-4.8c-0.1-0.3,0-0.7,0.4-0.8c1.1-0.2,1.5-1.8,2.8-1.4
	c0.4,0.1,0.8,0.2,1.2,0.2C57.3,41.7,57.5,41.9,57.5,42.2z"/>
<path class="st16" d="M41.2,34.4c2.1-0.4,4.2-0.9,6.3-1.3c0,0.1,0,0.2,0,0.4c-1.2,0.2-2.1,1.2-3.4,1.4c-0.9,0.2-0.6,1.4-0.4,1.7
	c0.9,1.2,0.2,1.9-0.5,2.7c-0.2-0.6,0.2-1.4-0.5-1.9C42.6,36.3,43,34.8,41.2,34.4z"/>
<path class="st55" d="M53.8,27.3c-1.4-1.1-1.6-1.8-0.9-3.9C54.8,24.4,55.1,25.4,53.8,27.3z"/>
<path class="st56" d="M57.5,42.2c-0.2-0.2-0.3-0.4-0.5-0.6c-0.5-0.5-1.1-0.9-0.9-1.8c0.1-0.3-1.1-0.3-0.5-0.9
	c0.3-0.3,0.9-0.2,1.3,0.2c0.9,0.8,1.3,1.7,1.2,2.9C58.1,42.1,57.7,42.1,57.5,42.2z"/>
<path class="st5" d="M53.8,27.3c0.9-2.1,0.8-2.3-0.9-3.9c0-0.1,0-0.2,0-0.3c0.5-0.1,0.4-0.9,1-0.8c1.1,1.2,0.4,2.9,1.4,4.1
	c0,0.3,0.1,0.6,0.1,0.9C54.8,27.3,54.3,27.3,53.8,27.3z"/>
<path class="st34" d="M47.1,51.4c-0.1-0.3-0.1-0.5-0.1-0.7c0-0.6-0.1-1.3,0.9-1.4c0.3,0,0.6,0.1,0.7,0.5c0.1,0.7,0,1.3-0.7,1.5
	C47.6,51.4,47.4,51.4,47.1,51.4z"/>
<path class="st16" d="M42.2,47.9c0.3-1-0.1-2.1,0.4-3C42.5,45.9,43.1,47,42.2,47.9z"/>
<path class="st57" d="M20.1,39.6c0-0.1,0-0.3,0-0.4c0.2-0.2,0.4-0.3,0.5-0.5c1,0.5,1.9,1.1,2.6,2c0.9,1.2,2.2,1.9,3.6,2.5
	c0.7,0.6,1.9,0.7,1.7,2.2c-0.1,0.6,1,1,1.2,1.7c0.4,1.2,2.3,1.1,2.2,2.1c-0.1,1.2,0.1,2.1,0.5,3.1c0.2,0.4,0.4,0.7-0.1,0.9
	c-0.6,0.3-0.7-0.1-0.8-0.5c-0.1-0.2-0.2-0.4-0.4-0.6c-0.7-3.4-2.5-6.1-5.5-7.9c-0.7-0.4-1.3-0.9-1.8-1.6
	C23,41.2,21.6,40.4,20.1,39.6z"/>
<path class="st1" d="M62.4,111.7c0.1-0.3,0.1-0.5,0.2-0.8c0.3,0.3,0.5,0.6,0.3,1C62.7,112.2,62.5,111.8,62.4,111.7z"/>
<path class="st3" d="M64.2,71.1c-0.7-0.6-0.7-1.6-1.1-2.4C64.2,69.1,64.2,70.1,64.2,71.1z"/>
<path class="st3" d="M64.6,72.5c-0.5-0.4-0.4-1-0.5-1.5C64.9,71.3,64.6,72,64.6,72.5z"/>
<path class="st8" d="M70.9,76.4c-0.2-0.9-0.1-1.9-0.8-2.7c-0.3-0.4-0.4-1,0.3-1.4c0.9,0.2,0.2,1.4,0.9,1.7
	C71.2,74.7,71.6,75.6,70.9,76.4z"/>
<path class="st8" d="M73.2,74c0.2-0.3,0.4-0.5,0.8-0.2c0,0,0.1,0.2,0.1,0.2C73.8,74.4,73.5,73.9,73.2,74C73.2,73.9,73.2,74,73.2,74z
	"/>
<path class="st5" d="M42.9,21.8c-0.8-0.1-1.4-0.2-2-0.3C42,20,42,20,42.9,21.8z"/>
<path class="st2" d="M11.5,44.4c0,0.8,0,1.5,0.9,1.9c-0.2,0.7-0.7,1.1-1.3,1.5c-0.3,0-0.6,0-0.9,0C10.6,46.7,9.7,45.1,11.5,44.4z"/>
<path class="st58" d="M38.1,43.4c-0.3-2.6-0.3-4.9-0.2-7.2c0-0.5-0.1-1.1,0.5-1.6c0,1.5,0,2.8,0,4.2C38.4,40.2,38.5,41.7,38.1,43.4z
	"/>
<path class="st13" d="M43,31c-1,0.5-2.1,0.1-3.1-0.1c-0.1-0.1-0.1-0.2-0.1-0.3C40.9,30.8,42,30.4,43,31z"/>
<path class="st21" d="M48.2,99c-0.3,1.4-0.7,2.7-2,3.6C46.5,101.3,47.3,100.1,48.2,99z"/>
<path class="st21" d="M46.2,102.6c0,0.7-0.2,1.3-1,1.5C45.3,103.4,45.5,102.8,46.2,102.6z"/>
<path class="st59" d="M44.8,105.5c0.5,0.2,0.9,0.5,1.5,0.5c0.9,0.8,0.4,1.4-0.2,1.9c-0.7,0.5-1.4,1.1-2.3,0.7
	c-0.5-0.2-0.8-0.8-0.4-1.4C43.7,106.6,44,105.8,44.8,105.5z"/>
<path class="st60" d="M55.4,63c2.6,3,3.9,6.6,5.1,10.2c0.4,1.3,0.3,1.6-1.2,1.6c-4.1,0-8.2,0-12.6,0c1-1.4,1.9-2.5-0.1-3.8
	c1.5-0.3,2,2.1,3.3,0.7c0-0.5-0.4-0.7-0.6-1c-0.7-1.1-0.5-2,0.7-2.1c2.2-0.1,3.1-1.7,4.1-3.3C54.5,64.7,54.7,63.8,55.4,63z"/>
</svg>
