<?xml version="1.0" encoding="utf-8"?>
<!-- Generator: Adobe Illustrator 23.1.1, SVG Export Plug-In . SVG Version: 6.00 Build 0)  -->
<svg version="1.1" id="Livello_1" xmlns="http://www.w3.org/2000/svg" xmlns:xlink="http://www.w3.org/1999/xlink" x="0px" y="0px"
	 viewBox="0 0 80 135" style="enable-background:new 0 0 80 135;" xml:space="preserve">
<style type="text/css">
	.st0{stroke:#000000;stroke-width:0.2509;stroke-miterlimit:10;}
	.st1{fill:#0B0C0D;}
	.st2{fill:#EDEDEE;}
	.st3{fill:#4A4B4D;}
	.st4{fill:#2F3031;}
	.st5{fill:#ABACAD;}
	.st6{fill:#AAABAD;}
	.st7{fill:#A4A7A7;}
	.st8{fill:#A9AAAC;}
	.st9{fill:#ACADAF;}
	.st10{fill:#08080A;}
	.st11{fill:#07080A;}
	.st12{fill:#A4A7A8;}
	.st13{fill:#A9ABAC;}
	.st14{fill:#060607;}
	.st15{fill:#070808;}
	.st16{fill:#08090A;}
	.st17{fill:#070709;}
	.st18{fill:#060608;}
	.st19{fill:#060709;}
	.st20{fill:#E8E8E8;}
	.st21{fill:#E8E8EA;}
	.st22{fill:#E9E9EA;}
	.st23{fill:#E9E9EB;}
	.st24{fill:#E8EAEB;}
	.st25{fill:#EAEAEC;}
	.st26{fill:#E2E3E5;}
	.st27{fill:#AAABAC;}
	.st28{fill:#ADAEB0;}
	.st29{fill:#A4A6A7;}
	.st30{fill:#ABACAE;}
	.st31{fill:#A4A5A7;}
	.st32{fill:#060707;}
	.st33{fill:#A4A5A6;}
	.st34{fill:#ADAEAF;}
	.st35{fill:#EBECEE;}
	.st36{fill:#ECEDED;}
	.st37{fill:#ECEEEF;}
	.st38{fill:#EAEBEC;}
	.st39{fill:#EAEAEB;}
	.st40{fill:#CACCCD;}
	.st41{fill:#08090B;}
	.st42{fill:#EEEEEF;}
	.st43{fill:#090A0B;}
	.st44{fill:#EBECED;}
	.st45{fill:#A4A6A8;}
	.st46{fill:#EAEBED;}
	.st47{fill:#A5A6A7;}
	.st48{fill:#EAECED;}
	.st49{fill:#9FA0A2;}
	.st50{fill:#A5A5A8;}
	.st51{fill:#ACAEAE;}
	.st52{fill:#A9ABAD;}
	.st53{fill:#ACACAD;}
	.st54{fill:#ECECED;}
	.st55{fill:#A5A5A7;}
	.st56{fill:#EBEDEE;}
	.st57{fill:#09090B;}
	.st58{fill:#9FA1A2;}
	.st59{fill:#090A0C;}
	.st60{fill:#A7A6A7;}
	.st61{fill:#ABADAE;}
	.st62{fill:#ACABAD;}
	.st63{fill:#A2A2A4;}
</style>
<path class="st0" d="M71.5,135h-63c-4.7,0-8.5-3.8-8.5-8.5V8.5C0,3.8,3.8,0,8.5,0h63C76.2,0,80,3.8,80,8.5v118
	C80,131.2,76.2,135,71.5,135z"/>
<path class="st1" d="M77.2,84c-0.1,5.2-1.1,10.5,1,15.5c0.4,0.9-0.5,1.6-0.7,2.3c-1,4.3-0.1,8.6-0.5,12.8c-0.3,3,1,6-0.1,9.1
	c-0.5,1.4-0.1,3.4-0.1,5.1c0.1,2.1-1.1,3.8-3,3.6c-2.9-0.3-5.9,0-8.7-0.1c-2.8-0.2-5.5-0.1-8.3-0.1c-2.7-0.1-5.4-0.1-8.2,0.1
	c-2.7,0.3-5.4-0.1-8.1-0.1c-2.8,0-5.5,0-8.3,0c-2.7,0-5.4-0.1-8.2,0c-2.8,0.1-5.7-0.4-8.5,0.2c-0.6,0.1-1.5-1.4-1.9,0.2
	c-1.7-1.1-3.5-0.5-5.3-0.4c-1.4,0.1-2.8-0.8-4.1,0.1c0.1-1.2-1.3-1.7-1.2-3.1c0.2-3.3,0.2-6.7,0-10c-0.1-1.5,0.1-3,0.1-4.4
	c0-1.4-0.2-2.9-0.1-4.4c-0.1-0.8,0-1.7,0-2.5c0.1-3.9-0.1-7.9,0-11.8c0.2-4.4,0.1-8.8,0.1-13.2c0-4.4-0.1-8.8-0.1-13.2
	c0-4.4-0.4-8.8,0.3-13.2c0.1-0.9-0.7-1.6-0.3-2.6c0.1-1.1-0.6-2-1-3L2.1,51c1.3-0.9,1.9-1.9,1.1-3.5c-0.5-1.1,1-2.2,0-3.3
	c0.1-3.3,0.2-6.7,0.2-10c0-3.1-0.3-6.2-0.3-9.3c0-3.1,0.2-6.2,0.2-9.3c0-3,0.4-6.1-0.2-9.1C3,5.1,4.4,4.6,4.2,3.3
	C4.1,2.9,5.8,4.6,6.2,3c2.6,1.2,5.4-0.1,8.1,0.5c0.6,0.1,1.9,0.5,3-0.4c1-0.8,2.5,0.6,3.9,0.3C22.9,3,24.8,3.7,26.5,3
	c1.3-0.5,2.5,0.5,3.9,0.3c2.1-0.3,4.3,0.4,6.5,0.1c1.6-0.2,3.1,0.4,4.6-0.1c2.2-0.7,4.5,0.1,6.8,0c1.9-0.1,4,0.1,6,0
	c1.8-0.1,3.6,0.5,5.4-0.2c1.2-0.5,2.4,0.4,3.7,0.3c2.8-0.1,5.7,0.1,8.5-0.1C73.5,3.1,75,3.7,76.6,3c1-0.4,0.7,0.8,0.6,1.3
	c-0.6,3.5,0.2,7.1-0.4,10.7c-0.1,0.5,0,1,0.5,1.3c0.1,3.2,0,6.5-0.3,9.7c-0.2,3.1,0.1,6.3,0,9.4c0,3,0.4,6.1-0.2,9.2
	c-0.2,0.9,0.2,2,0.4,3c0.4,2.1,0.6,4.2,0,6.3c-0.4,2,0.3,4,0.3,5.9c-0.1,2.2,0.4,4.5-0.2,6.6c0.9,4.1,0,8.4,0.7,12.5
	C78,80.7,77.2,82.3,77.2,84z"/>
<path class="st2" d="M75.5,67.7c0,19.9,0,39.7,0,59.6c0,3.2-0.1,3.2-3.3,3.2c-21.4,0-42.8,0-64.2,0c-2.3,0-3.1-0.6-3.1-3
	c0.1-39.9,0.1-79.8,0-119.7c0-2.3,0.8-2.9,3-2.9c21.6,0.1,43.1,0.1,64.7,0c2.4,0,3,0.8,3,3.1C75.4,27.9,75.5,47.8,75.5,67.7z"/>
<path class="st3" d="M6.5,6.6C7.2,5.8,8.2,6.1,9,6.1c20.8,0,41.5,0,62.3-0.1c2.5,0,3.1,0.7,3.1,3.1c-0.1,38.9,0,77.9-0.1,116.8
	c0,0.9,0.4,1.9-0.4,2.7c-0.1-0.1-0.2-0.2-0.3-0.2c-0.5-0.9-0.5-1.8-0.4-2.7c0.1-1.5-0.4-2.9-1-4.3c0.6-1.7,0.4-3.4,0.4-5.1
	c0-2.3-0.1-4.5,0.2-6.8c0.5-2.2,0.5-4.4,0-6.6c-0.3-1.6-0.2-3.2-0.2-4.7c0-2.3-0.2-4.7,0.2-7c0.5-2.4,0.4-4.7,0-7.1
	c-0.3-1.6-0.1-3.2-0.2-4.7c0-2.3-0.1-4.6,0.2-6.9c0.6-2.4,0.5-4.7-0.2-7.1c0-1.7,0.1-3.3,0-5c0-2.3-0.1-4.5,0.2-6.8
	c0.6-2.4,0.6-4.8-0.6-7.1c0.5-1.7,0.5-3.4,0.4-5.1c0-2.1-0.2-4.2,0.2-6.4c0.5-2.3,0.4-4.7,0-7c-0.3-1.6-0.2-3.2-0.2-4.7
	c0-2.3-0.2-4.6,0.1-6.8c0.5-2.2,0.6-4.5-0.1-6.7c-0.2-2.4-0.2-2.4-2.8-2c-0.5,0.3-0.8,0.7-1.4,0.6c-0.5-0.4-0.9-0.9-1.6-0.9
	c-2.5,0.1-4.9-0.2-7.4,0.2c-0.3,0.1-0.7,0.3-1.1,0.3c-0.7,0-1.4-0.5-2.1-0.5c-2.3,0.2-4.7-0.4-7,0.4c-0.9,1.6,0.1,3.6-1,5.2
	c-1.6-0.2-1.1-1.5-1.2-2.4c-0.2-1.1,0.3-2.3-0.8-3.1c-2.5-0.3-4.9-0.2-7.4,0C38.5,8,38.1,8,37.7,8c-0.5-0.1-1-0.2-1.5-0.2
	c-2.5,0.1-5-0.3-7.5,0.3c-0.7,0.5-0.6,1.5-1.2,2c-1.5,0-0.7-2.1-2.1-2.2c-2.3,0.1-4.7-0.5-7,0.4c-0.9,1.6,0.1,3.6-1,5.2
	c-1.6-0.1-1.1-1.4-1.2-2.3c-0.2-1.1,0.3-2.3-0.8-3.1C12.8,7.6,10.4,7.8,8,7.8c-0.3,0-0.5,0-0.8,0C6.6,7.6,6.5,7.1,6.5,6.6z"/>
<path class="st4" d="M6.5,6.6C7,6.8,6.9,7.2,7,7.6c0.4,2.1,0,4.3,0.8,6.3c-0.1,1.6-0.1,3.2-0.1,4.8c0,2,0,4.1,0,6.1
	c0,0.5,0.1,1,0,1.6c-0.9,2.1-0.6,4.3,0.1,6.4c-0.1,1.6-0.1,3.2,0,4.8c0,2.1,0.1,4.2-0.1,6.3c0,0.3-0.1,0.6-0.1,0.8
	c-0.5,2.1-0.4,4.3,0,6.4c0.3,1.6,0.2,3.1,0.2,4.7c0,2.4,0.2,4.9-0.1,7.3c-0.6,2.2-0.5,4.5,0.2,6.7c-0.1,1.7-0.1,3.3-0.1,5
	c0,2.4,0.2,4.8-0.1,7.2c-0.6,2.2-0.5,4.4,0.2,6.6c0,1.6-0.1,3.3,0,4.9c0,2.1,0.1,4.2-0.1,6.3c0,0.3-0.1,0.5-0.1,0.8
	c-0.6,2.4-0.5,4.7,0.6,6.9c-0.6,1.6-0.4,3.3-0.4,5c0,2.1,0.1,4.2-0.1,6.2c0,0.3-0.1,0.5-0.1,0.8c-0.5,2-0.4,4-0.1,6
	c0.5,2.9,1.1,3.2,3,1.6c0.6-1.7-0.2-3.5,0.7-5.1c0.2-0.2,0.4-0.3,0.7-0.2c0.8,0.9,0.5,2.1,0.6,3.2c0.1,0.9-0.3,1.9,0.7,2.6
	c2.5-0.2,5,0.2,7.5-0.3c0.5-0.2,1-0.3,1.5-0.1c3,1.3,6,1.5,9,0.1c0.7-1.6-0.2-3.4,0.9-4.9c1.7,0.4,1.1,1.8,1.2,2.9
	c0.2,2.7,0.2,2.8,2.9,2.7c1.7-0.1,3.5,0.7,5-0.7c0.9-1.7-0.1-3.7,1-5.4c0.3-0.2,0.5-0.2,0.7,0c0.8,1.2,0.5,2.6,0.6,3.9
	c0.1,1.4,0.5,2.2,2.1,2.1c2.2-0.1,4.5,0.2,6.7-0.2c0.3-0.1,0.5-0.1,0.8-0.1c2.5,0.5,5,0.2,7.6,0.2c0.6,0,1.1-0.1,1.4-0.6
	c0.9-1.8-0.1-3.8,0.6-5.6c0.4-0.2,0.8-0.2,1.1,0.1c0.6,0.8,0.5,1.8,0.5,2.8c0.1,3.3,0.1,3.4,3.6,3.3c1.5,0,3,0.3,4.5-0.3
	c0.9-0.4,1.1,0.1,1.2,0.9c0.1,0.1,0.2,0.1,0.2,0.2c-0.6,0.8-1.5,0.5-2.2,0.5c-21,0-42,0-63,0.1c-2.1,0-2.8-0.6-2.8-2.7
	C6,87.3,6,48.1,6,8.8C6,8.1,5.7,7.2,6.5,6.6z"/>
<path class="st5" d="M46.7,7.1c1.3-0.1,0.9,1,1,1.7c0.2,1.5-0.6,3.1,0.5,4.5c0.5,0,0.6,0.2,0.5,0.6c-1.6,1.2-3.7,1.6-4.9,3.4
	c-0.5,1.7,0,3.6-0.4,5.3c-0.9,1.9-3.5,2.1-4.4,4c-1.1,0.8-0.7,1.9-0.8,3c0,0.8,0,1.7-0.2,2.5c-1.1,1.8-3.2,2.3-4.8,3.6
	c-0.4,0-0.7-0.2-0.9-0.5c-0.4-2.3-0.2-4.6,0.3-6.8c0.7-1.7,2.9-1.9,3.5-3.6c1.1-0.7,0.7-1.9,0.7-2.9c0-0.9,0-1.8,0.3-2.6
	c1.1-1.6,3.1-2.2,4.5-3.6c1.3-2,0.4-4.1,0.1-6.1C43.2,8.4,45,7.8,46.7,7.1z"/>
<path class="st6" d="M25.9,7.1c2.2,0.1,0.4,2.2,1.4,2.9c0.3,1.3,0.4,2.6,0.7,3.8c-1.6,1.2-3.8,1.7-5,3.4c-0.5,1.8,0,3.7-0.5,5.4
	c-1.2,1.8-3,2.6-4.9,3.3c-0.6-0.1-1-0.4-1.2-0.9c-0.5-1.8-0.4-3.7-0.1-5.5c0.9-2,3.3-2.3,4.6-3.9c1.4-1.9,0.2-4.1,0.6-6.1
	C22.6,8.3,24.3,7.8,25.9,7.1z"/>
<path class="st7" d="M36.5,7.2c0.4-0.1,0.8,0,1.1,0.4c1.1,1.8,0.5,3.9,0.7,5.8c-1.3,1.8-3.4,2.2-5.1,3.5c-0.6,0.1-0.9-0.3-1.2-0.7
	c-0.6-2.1-0.4-4.3-0.5-6.5C33,8.4,34.7,7.7,36.5,7.2z"/>
<path class="st6" d="M56.9,7.1c0.9-0.2,1.1,0.5,1.4,1c1.3,1.7,0.6,3.6,0.8,5.5c-1.6,1.5-3.4,2.7-5.7,2.9c-0.3-0.1-0.5-0.2-0.6-0.5
	c-0.7-2-0.3-4.1-0.5-6.2C53.4,8.2,55.3,8,56.9,7.1z"/>
<path class="st8" d="M73.4,72.2c0,2.4-0.1,4.9-0.1,7.3c-0.8,1.4-2.5,1.7-3.5,2.8c-0.5,0-1.1,0.1-1.4,0.6c-0.5,0-0.8-0.3-1-0.7
	c0-0.5,0.1-0.9,0.3-1.4c0.4-1.8-0.1-3.7,0.4-5.4c1.1-1.8,3.3-2.3,4.7-3.8C73.2,71.6,73.6,71.7,73.4,72.2z"/>
<path class="st9" d="M15.7,7.2c1.4-0.1,0.9,1,1,1.7c0.2,1.5-0.5,3.1,0.5,4.5c0.5-0.1,0.6,0.2,0.5,0.6c-1.9,0.8-3.3,2.4-5.5,2.5
	c-0.4-0.2-0.6-0.4-0.7-0.8c-0.4-1.9,0-4-0.7-5.9C12,8.2,13.9,7.9,15.7,7.2z"/>
<path class="st10" d="M73.3,28.3c1,2.2,0.7,4.5,0.2,6.8c-0.4,0-0.7,0-1.1-0.1c-1.5-1-3.3-1.5-4.3-3.1c-0.3-2-0.4-3.9,0.1-5.9
	c0.3-0.6,0.7-0.7,1.3-0.4C70.8,26.4,72.4,26.8,73.3,28.3z"/>
<path class="st11" d="M73.3,103.1c0.9,2.1,0.9,4.3,0,6.4c-0.2,0.2-0.4,0.2-0.7,0.2c-1.7-0.8-3.5-1.4-4.5-3.1c-0.4-2-0.4-3.9,0-5.9
	c0.3-0.6,0.7-0.7,1.3-0.5C70.8,101.2,72.4,101.7,73.3,103.1z"/>
<path class="st12" d="M67.5,7.1C68.7,7,68.4,8,68.7,8.6c0.9,1.6,0.5,3.3,0.6,5c-1.5,1.6-3.4,2.4-5.3,3.4c-0.3,0-0.5-0.2-0.6-0.4
	c-0.7-2.2,0-4.5-0.8-6.7C63.8,8.2,65.8,7.9,67.5,7.1z"/>
<path class="st13" d="M73.4,53.4c0,2.4,0,4.9-0.1,7.3c-0.9,1.5-2.6,2.1-4,3c-0.5-0.1-0.9-0.4-1.1-0.9c-0.5-2-0.2-4.1-0.4-6.1
	c1.2-1.7,3.4-2.1,4.9-3.4C73,53.3,73.2,53.3,73.4,53.4z"/>
<path class="st6" d="M69.4,26c-0.3-0.2-0.6-0.4-0.9-0.6c-0.1-0.1-0.2-0.2-0.3-0.3c-0.6-1.8-0.4-3.7-0.2-5.5c1-1.9,3.2-2.5,4.7-3.9
	c0.4-0.1,0.7,0,0.7,0.5c0,2.4-0.1,4.9-0.1,7.3C72.3,24.8,70.9,25.5,69.4,26z"/>
<path class="st14" d="M62.7,9.5c1.4,1.1,0.7,2.6,0.8,3.9c0.1,1.2,0.1,2.3,0.1,3.5c-0.1,0.4-0.3,0.4-0.6,0.2
	c-0.3-0.3-0.5-0.6-0.9-0.9c-0.9-1-2.7-1-3.3-2.5c-1.3-1.8-0.4-3.8-0.6-5.7c0.2-0.2,0.4-0.4,0.7-0.6C60.6,7.5,61.9,8.1,62.7,9.5z"/>
<path class="st6" d="M72.9,109.4c0.2-0.1,0.3,0,0.4,0.1c0,2.4,0,4.9-0.1,7.3c-1,1.4-2.5,2.3-4.1,3c-0.5-0.1-0.9-0.5-1.1-0.9
	c-0.4-2-0.2-4.1-0.3-6.2C69.2,111.1,71.3,110.5,72.9,109.4z"/>
<path class="st6" d="M72.9,34.6c0.2,0.1,0.4,0.3,0.6,0.4c-0.1,2.3-0.1,4.6-0.2,6.9c-0.9,1.6-2.5,2.3-4,3c-0.5-0.1-0.9-0.5-1.1-1
	c-0.5-2-0.3-4.1-0.3-6.1C69.2,36.3,71.3,35.8,72.9,34.6z"/>
<path class="st11" d="M68.5,119.3c0.3,0.1,0.7,0.2,1,0.3c1.4,0,2.5,0.4,2.9,1.9c1.5,0.6,1.6,1.7,1.5,3.1c-0.1,1.3-0.1,2.7-0.2,4.1
	c-0.3-0.2-0.3-0.8-0.8-0.8c-0.2,0.2-0.4,0.2-0.7,0.2c-1.4-0.5-2.7-1.2-3.7-2.3c-0.9-1.9-0.6-3.8-0.4-5.8
	C68.2,119.7,68.3,119.5,68.5,119.3z"/>
<path class="st15" d="M68.5,82.9c0-0.8,0.5-0.8,1.1-0.6c1.6,0,2.7,0.9,3.8,2c1,2.2,0.8,4.5,0.1,6.8c-0.4,0-0.7,0-1-0.1
	c-1.3-0.6-2.5-1.4-3.7-2.3C67.5,86.8,67.5,84.8,68.5,82.9z"/>
<path class="st10" d="M68.5,63.1c0.3,0.1,0.7,0.3,1,0.4c1.6-0.1,2.7,0.7,3.3,2.1c1.8,2.1,1.1,4.4,0.5,6.6c-0.2-0.1-0.4-0.2-0.6-0.3
	c-1.9,0.2-2.9-1.2-4.3-2.1c-1.1-2.1-0.8-4.2-0.3-6.4C68.3,63.3,68.4,63.2,68.5,63.1z"/>
<path class="st6" d="M72.9,90.6c0.2,0.1,0.4,0.3,0.6,0.4c0,2.4-0.1,4.9-0.1,7.3c-1.1,1.1-2.4,2-3.9,2.5c-0.3-0.2-0.6-0.4-0.9-0.6
	c-0.1-0.1-0.2-0.2-0.3-0.3c-0.6-1.8-0.4-3.7-0.2-5.5C69.2,92.5,71.2,91.8,72.9,90.6z"/>
<path class="st11" d="M68.5,44.3c0.3,0.2,0.6,0.3,1,0.5c1.3,0.1,2.4,0.5,2.9,1.9c1.6,1.2,2,4,1,6.8l-0.2-0.1l-0.2,0
	c-1.9-0.1-3.2-1.3-4.5-2.5c-0.9-2.1-0.8-4.2-0.2-6.3C68.4,44.5,68.4,44.4,68.5,44.3z"/>
<path class="st16" d="M38.1,13.7c-1.2-2-0.3-4.1-0.6-6.1c0.3,0,0.6,0,0.9,0c1.6-0.2,2.6,0.7,3.4,1.9c0.9,1.2,1.3,5.4,0.6,6.5
	c-0.1,0.1-0.4-0.1-0.7-0.1C40.2,15.8,39,15.1,38.1,13.7z"/>
<path class="st17" d="M73.5,16.2c-0.2-0.1-0.4-0.2-0.6-0.4c-1.7,0-2.9-0.7-3.7-2.2c-1.1-1.6-0.4-3.4-0.5-5.1c0.3-0.3,0.6-0.7,0.9-1
	c1.5-0.1,2.8,0.4,3.4,2C74.7,11.6,74,13.9,73.5,16.2z"/>
<path class="st14" d="M31.7,9.5c1.2,2.4,0.8,4.8,0.3,7.2c-0.2,0-0.4,0-0.6-0.1c-1.1-1-2.7-1.4-3.4-2.8c-1.5-1-1.2-2.4-0.6-3.8
	c0.4-0.8-0.3-1.9,0.7-2.6C29.6,7.5,30.8,8.1,31.7,9.5z"/>
<path class="st18" d="M10.9,9.5c1.7,1.9,0.4,4.2,1,6.2c-0.2,0.3-0.6,0.4-0.9,0.4c-1.4-0.4-2.8-0.7-3.4-2.3c-1.7-2-1.1-4.1-0.5-6.2
	c0.2,0.1,0.3,0.1,0.5,0C9,7.5,10.1,8.3,10.9,9.5z"/>
<path class="st17" d="M17.6,13.9c-0.1-0.2-0.3-0.3-0.4-0.5c0.2-1.9-0.6-4,0.5-5.8c1.6,0,2.9,0.6,3.7,2c1.2,2,0.4,4.1,0.5,6.2
	c-0.3,0-0.6,0-0.9,0C19.5,15.9,18.4,15,17.6,13.9z"/>
<path class="st19" d="M52.5,9.6c1.3,2.1,0.4,4.5,0.6,6.7c-0.1,0-0.2,0.1-0.3,0.1c-0.3,0-0.7-0.1-1-0.2c-1.1-0.6-2.4-1.1-3.1-2.3
	c-0.2-0.2-0.3-0.4-0.5-0.5c0.2-1.9-0.7-4,0.5-5.8C50.4,7.5,51.6,8.2,52.5,9.6z"/>
<path class="st20" d="M62.7,9.5c-1.2-0.7-2.5-1.4-3.7-2c2.8-0.9,5.7-0.2,8.5-0.3C66.1,8.2,64.7,9.5,62.7,9.5z"/>
<path class="st21" d="M52.5,9.6c-1.2-0.7-2.5-1.4-3.7-2c2.7-1,5.4-0.2,8.1-0.4C55.7,8.4,54.3,9.3,52.5,9.6z"/>
<path class="st22" d="M31.7,9.5c-1.2-0.7-2.5-1.4-3.7-2c2.8-0.9,5.7-0.3,8.5-0.3C35,8.1,33.6,9.5,31.7,9.5z"/>
<path class="st23" d="M21.4,9.6c-1.2-0.7-2.5-1.4-3.7-2c2.7-1,5.4-0.3,8.2-0.4C24.6,8.4,23.2,9.3,21.4,9.6z"/>
<path class="st23" d="M10.9,9.5C9.7,8.9,8.6,8.2,7.4,7.6c2.7-1.1,5.5-0.3,8.2-0.4C14.2,8.2,12.8,9.5,10.9,9.5z"/>
<path class="st24" d="M41.9,9.5c-1.1-0.6-2.3-1.3-3.4-1.9c2.7-1.1,5.5-0.3,8.2-0.4C45.3,8.2,43.9,9.5,41.9,9.5z"/>
<path class="st23" d="M69.5,100.8c1-1.3,2.3-2.1,3.9-2.5c0,1.6,0,3.1,0,4.7C72,102.3,70.7,101.6,69.5,100.8z"/>
<path class="st23" d="M72.4,46.7c-1-0.6-2-1.3-2.9-1.9c0.8-1.6,2.6-1.8,3.8-2.9c0,1.3,0.1,2.6,0.1,3.8
	C73.5,46.5,73.2,46.7,72.4,46.7z"/>
<path class="st22" d="M73.3,84.3c-1.4-0.3-2.5-1.4-3.8-2c0.7-1.7,2.4-1.9,3.8-2.7C73.3,81.1,73.3,82.7,73.3,84.3z"/>
<path class="st23" d="M72.5,121.5c-1-0.6-2-1.3-2.9-1.9c0.8-1.5,2.5-2,3.8-2.8c0,1.3,0.1,2.5,0.1,3.8
	C73.5,121.3,73.2,121.6,72.5,121.5z"/>
<path class="st25" d="M69.4,26c1-1.3,2.4-1.9,3.9-2.5c0,1.6,0,3.2,0,4.7C72,27.5,70.7,26.8,69.4,26z"/>
<path class="st23" d="M72.9,65.6c-1.1-0.7-2.2-1.4-3.3-2.1c0.7-1.6,2.5-1.9,3.8-2.8C73.2,62.4,74,64.1,72.9,65.6z"/>
<path class="st26" d="M72.9,9.5c-1.1-0.7-2.2-1.3-3.4-2c1.1-0.9,2.5-0.7,3.5-0.2C73.7,7.6,73.7,8.8,72.9,9.5z"/>
<path class="st27" d="M62.6,127.8c0,0.3,0,0.7-0.5,0.7c-3-0.1-6.1,0.4-9.1-0.3c-1.2-1.8-0.7-3.7-0.5-5.6c0.8-2.1,3.1-2.5,4.5-3.9
	c0.5-0.2,1.2-0.1,1.5-0.7c0.5,0,0.8,0.3,1,0.7c0,0.5-0.1,0.9-0.3,1.4c-0.5,1.9,0,3.8-0.2,5.7c-0.9,1.1-2.2,1.6-3.5,2.2
	c2.1-0.7,4.4-0.2,6.5-0.4C62.3,127.5,62.5,127.6,62.6,127.8z"/>
<path class="st28" d="M72.4,127.8c0.2,0,0.3,0,0.5,0c0.1,0.9-0.5,0.8-1.1,0.8c-2.2,0-4.3,0-6.5,0c-1.2,0-1.7-0.5-1.6-1.7
	c0.1-1.6,0-3.2,0-4.8c-0.3-1.2,0.8-1.3,1.4-1.8c0.8-0.6,1.5-1.2,2.3-1.8c0.8-0.4,0.8,0.5,1.2,0.7c0.3,2.2-0.5,4.4,0.5,6.5
	c-0.4,0.9-1.3,1.1-2.2,1.9C68.9,127.6,70.7,127.6,72.4,127.8z"/>
<path class="st6" d="M41.8,127.8c0.1,0.7-0.3,0.8-0.9,0.8c-2.3,0-4.5,0-6.8,0c-1.3,0-1.7-0.6-1.7-1.8c0-1.5,0.3-3-0.3-4.5
	c-0.1-0.2-0.2-0.4-0.1-0.6c1.5-1.4,3.1-2.5,5.2-2.8c0.2,0.1,0.4,0.3,0.5,0.5c0.5,2,0.3,4.1,0.3,6.2c-0.8,1.4-2.4,1.7-3.5,2.3
	c2-0.7,4.2-0.1,6.4-0.4C41.4,127.5,41.7,127.6,41.8,127.8z"/>
<path class="st29" d="M52.5,128.3c-2.7,0.7-5.5,0.2-8.3,0.3c-1,0-1.3-0.6-1.3-1.5c0-1.7,0-3.3-0.1-5c1.1-1.9,2.7-3,4.9-3
	c1.3,2.1,0.5,4.3,0.7,6.5c-0.5,1.4-2.1,1.6-3.1,2.5c-0.2,0.1,0.3,0.3,0,0.1c-0.1-0.1,0-0.1,0.1-0.2c1.9-0.6,3.9-0.1,5.9-0.4
	C52,127.5,52.4,127.7,52.5,128.3z"/>
<path class="st30" d="M31.6,127.9c0,0.4-0.2,0.7-0.7,0.7c-2.4,0-4.8,0-7.2,0c-0.9,0-1.6-0.3-1.6-1.3c-1.1-1.5-0.6-3.2-0.5-4.8
	c0.9-2,2.9-2.7,4.8-3.6c0.4,0,0.7,0.2,0.9,0.5c0.4,2.3,0.1,4.5-0.1,6.7c-0.7,1-1.6,1.4-2.3,1.6c1.8-0.2,4,0,6.3-0.2
	C31.3,127.6,31.5,127.7,31.6,127.9z"/>
<path class="st15" d="M52.5,128.3c-0.3-0.2-0.6-0.4-0.9-0.6c-1.5,0-2.6-0.6-3.3-2c-0.7-1.5-0.2-3.1-0.4-4.7
	c-0.1-0.7,0.5-1.6-0.5-2.1c-0.6,0-1.2-0.1-1.1-1c0.6-0.5,1.2-0.7,1.9-0.5c0.6,0.4,0.5,1.2,1,1.6c1.1,1.2,2.9,1.4,3.8,2.9
	c0,2.1,0.1,4.1,0.1,6.2C52.9,128.3,52.7,128.3,52.5,128.3z"/>
<path class="st15" d="M21.9,122c0,1.7,0,3.5,0.1,5.2c-0.3,0.2-0.7,0.4-1,0.5c-1.9,0.2-3.2-1.2-4.8-1.8c-0.3-2.1-0.4-4.3,0-6.4
	c0.1-0.2,0.2-0.4,0.4-0.6c0.5-0.2,0.9-0.1,1.3,0.1C19.3,120.1,21,120.5,21.9,122z"/>
<path class="st31" d="M7.1,82.3c-0.3-2.5-0.2-5.1-0.1-7.7c0.9-1.2,2.4-1.7,3.6-2.6c0.4-0.3,0.8-0.5,1.3-0.4c0.3,0.1,0.6,0.4,0.7,0.7
	c0,0.2,0.1,0.5,0,0.7c-0.3,1.9,0.1,3.9-0.5,5.8c-1,1.7-3.1,2.1-4.4,3.5C7.5,82.5,7.3,82.5,7.1,82.3z"/>
<path class="st32" d="M7.1,51.1c-1-2.1-0.9-4.2-0.1-6.4c2.1-0.1,3.4,1.4,4.9,2.5c1,2,0.6,4.2,0.5,6.3c-0.1,0.4-0.3,0.7-0.6,0.9
	c-0.6,0.2-0.9-0.3-1.2-0.5C9.5,52.9,7.7,52.7,7.1,51.1z"/>
<path class="st33" d="M10.8,15.9c0.3-0.1,0.7-0.1,1-0.2c0.2,0.2,0.4,0.4,0.6,0.6c0.1,0.2,0.1,0.4,0.1,0.6c-0.5,2,0.1,4.2-0.5,6.2
	c-1.5,1.1-2.8,2.6-5,2.3c-0.3-2.3-0.2-4.5-0.1-6.8C7.9,17.3,9.4,16.7,10.8,15.9z"/>
<path class="st19" d="M7.9,107.5c-1.6-1.3-2-3.9-0.9-6.8c2,0.1,3.5,1.3,4.9,2.5c0.9,2.2,0.9,4.4,0.1,6.6c-0.3,0.3-0.7,0.3-1.1,0.1
	C9.8,109.2,8.3,109.1,7.9,107.5z"/>
<path class="st32" d="M7.5,32.6c-1.4-1.6-1.4-4.9,0-6.2c1.9-0.2,3.1,1,4.4,2.1c0.7,2.2,1.5,4.5-0.5,6.5C9.6,34.9,8.3,34.2,7.5,32.6z
	"/>
<path class="st18" d="M11.8,71.7c-0.3,0.2-0.6,0.3-0.9,0.5C9.4,72,8,71.5,7.5,69.9c-1.6-2-1.1-4.2-0.4-6.3c0.2-0.2,0.4-0.2,0.7-0.2
	c1.9,0.8,3.8,1.5,4.6,3.6C12.5,68.6,13,70.2,11.8,71.7z"/>
<path class="st18" d="M7.1,82.3c0.1,0.1,0.3,0.1,0.4,0c1.7-0.2,2.8,1.1,4,2c1.5,2.5,1.5,5-0.2,6.6c-1.7-0.1-3.1-0.6-3.8-2.3
	C5.8,86.6,6.3,84.5,7.1,82.3z"/>
<path class="st9" d="M16.7,119.3c-0.4,2.1,0.7,4.2-0.5,6.3c0.5,1.3-0.6,1.6-1.4,2c-0.6,0.3-1.4,0.3-1.9,0.8
	c-1.2,0.4-1.1-0.5-1.1-1.2c0-1.7,0-3.3,0-5c0.5-2.2,2.5-2.4,4.2-3C16.2,119.1,16.5,119.1,16.7,119.3z"/>
<path class="st34" d="M10.9,109.5c0.3,0,0.5,0,0.5,0.3c0.6,0.7,0.2,1.5,0.4,2.3c0.1,1.5,0.3,3,0.6,4.5c-1.7,1-3.2,2.6-5.4,2.5
	c-0.3-2.3-0.2-4.5-0.1-6.8C7.9,110.7,9.4,110.2,10.9,109.5z"/>
<path class="st15" d="M41.8,127.8l-0.2,0l-0.2,0c-1.5,0-2.6-0.7-3.4-2c-1-2.2-0.2-4.5-0.4-6.8c0.1,0,0.2-0.1,0.3-0.1
	c0.2,0,0.4,0.1,0.6,0.2c1.3,0.9,3.1,1.3,3.9,3C42.1,124,43,126,41.8,127.8z"/>
<path class="st18" d="M7,125.9c-0.8-2.1-0.9-4.2,0-6.3c2,0,3.4,0.9,4.3,2.5c-0.3,1.9,0.7,4-0.6,5.8C9,128.2,7.9,127.1,7,125.9z"/>
<path class="st15" d="M31.6,127.9l-0.2,0l-0.2,0c-1.7-0.2-3.1-0.8-4-2.3c-0.1-1.8,0-3.5,0-5.3c0-0.2,0-0.5,0.1-0.7
	c0.2-0.2,0.4-0.3,0.6-0.3c1.8,0.4,3.3,1.2,4.3,2.7c0,0.1,0.1,0.3,0.1,0.4C31.8,124.2,32.8,126.2,31.6,127.9z"/>
<path class="st17" d="M62.6,127.8l-0.2,0l-0.2,0c-1.5-0.1-2.7-0.5-3.4-2c-0.7-2.2-0.9-4.3,0.1-6.4c1.7,0.2,3.2,0.7,3.9,2.5
	C63.3,123.9,63.6,125.9,62.6,127.8z"/>
<path class="st9" d="M7.1,44.3C6.8,42,6.9,39.7,7,37.5c1-1.4,2.2-2.3,3.9-2.6c1.7,1.4,0.4,3.2,0.8,4.8c-0.3,0.6,0.2,1.2,0,1.8
	C10.6,43.2,9.3,44.5,7.1,44.3z"/>
<path class="st28" d="M7.5,63.6l-0.2,0L7,63.5C7,61,7,58.4,7,55.9c1.1-1.1,2.4-1.9,3.9-2.4c0.7,0,0.6,0.5,0.7,0.9
	c0.4,0.5,0.4,1.1,0.3,1.7c-1.3,1,0.1,2.1,0,3.1c0.1,0.6,0.9,1,0.4,1.7C10.6,61.6,9,62.6,7.5,63.6z"/>
<path class="st9" d="M7.1,100.3C6.8,98,6.9,95.7,7,93.5c0.9-1.2,1.8-2.2,3.5-2c0.6,0.5,1,1.1,1.3,1.8c0.3,1.4,0.3,2.9,0,4.3
	C10.7,99.4,9.2,100.4,7.1,100.3z"/>
<path class="st2" d="M11.3,28.4c-1.3-0.7-2.5-1.3-3.8-2c-0.1-0.3-0.3-0.6-0.4-0.9c1.6-0.8,3.2-1.7,4.9-2.5c2.1-0.1,3.4,1,4.4,2.6
	C15.2,27.5,13.6,28.6,11.3,28.4z"/>
<path class="st35" d="M7.1,100.3c1.5-0.7,3.1-1.4,4.3-2.6c2.3-0.4,3.7,0.9,5,2.6c-1.1,2-2.7,3.1-5.1,2.9c-1.4-0.8-2.9-1.6-4.3-2.5
	C7,100.6,7,100.4,7.1,100.3z"/>
<path class="st2" d="M42.4,122c-1.4-1.1-3.2-1.6-4.4-2.9c1.4-1.7,3.2-2.6,5.3-2.9c1.2,0.4,2.4,0.6,3,1.9c0.3,0.3,0.7,0.6,1,0.9
	c-1.5,1-3,2-4.5,3.1l-0.2,0L42.4,122z"/>
<path class="st36" d="M11.3,122.1c-1.4-0.8-2.9-1.7-4.3-2.5c0-0.2,0-0.3,0.1-0.4c1.8-0.7,3.1-2.4,5.3-2.4c2.5,0.2,3.6,1,4,2.9
	c-1.8,0.4-3.2,1.4-4.5,2.6C11.7,122.1,11.5,122.1,11.3,122.1z"/>
<path class="st37" d="M7.1,44.3c1.5-0.9,3.3-1.3,4.3-3c2.6,0.3,4.5,1.5,5,3.4c-1.5,1.2-2.8,2.6-5,2.5c-1.4-0.8-2.9-1.6-4.3-2.4
	C7,44.6,7,44.4,7.1,44.3z"/>
<path class="st2" d="M62.8,121.9c-1.3-0.8-2.6-1.6-3.9-2.5c0.2-0.3,0.4-0.5,0.5-0.8c1.2-1.4,2.7-2.4,4.7-2.4c1.4,0.5,2.8,1,3.4,2.4
	c-0.4,2.1-3,1.9-3.9,3.5C63.4,122,63.1,122,62.8,121.9z"/>
<path class="st38" d="M12.9,128.3c0.7-1.4,2.9-1,3.3-2.8c1.8,0.3,3,1.7,4.7,2.3c-1.1,1.4-2.6,0.4-4,0.6
	C15.7,128.5,14.3,128.4,12.9,128.3z"/>
<path class="st39" d="M7.5,69.9c1.2,0.8,2.3,1.5,3.5,2.3c-1,1.3-2.5,1.9-3.9,2.5C7.1,73.1,6.3,71.4,7.5,69.9z"/>
<path class="st39" d="M10.8,15.9c-0.8,1.6-2.4,2-3.8,2.7c0.1-1.6-0.8-3.3,0.5-4.8C8.6,14.5,9.7,15.2,10.8,15.9z"/>
<path class="st39" d="M10.9,109.5c-0.8,1.5-2.7,1.8-3.8,2.8c0-1.3-0.1-2.6-0.1-4c0-0.8,0.4-0.9,1-0.8
	C8.9,108.2,9.9,108.8,10.9,109.5z"/>
<path class="st38" d="M10.4,91.6c-1.1,0.6-2.3,1.2-3.4,1.8c0-1.6-0.8-3.3,0.5-4.9c1.1,0.7,2.2,1.4,3.3,2.1
	C11.2,91.3,11.1,91.6,10.4,91.6z"/>
<path class="st25" d="M10.9,35.1c-1.3,0.8-2.6,1.6-3.8,2.4c0-1.6-0.8-3.4,0.5-4.9c1.1,0.7,2.2,1.4,3.3,2.1c0.2,0.1,0.2,0.2,0.2,0.3
	C11,35,10.9,35.1,10.9,35.1z"/>
<path class="st36" d="M10.9,53.4c-1,1.2-2.3,2-3.9,2.4c-0.1-1.6-0.3-3.2,0.1-4.8C8.4,51.9,9.6,52.6,10.9,53.4z"/>
<path class="st40" d="M7,125.9c1.2,0.7,2.5,1.3,3.7,2c-0.9,1.5-2.3,0.8-3.3,0.5C6.3,128,6.9,126.7,7,125.9z"/>
<path class="st32" d="M31.9,16.8C31.9,16.8,32,16.7,31.9,16.8c0.5-0.5,0.9,0.1,1.3,0c1.8,0.2,3.2,1,4.3,2.5c0,1.7,0.1,3.4,0.1,5
	c0.1,1.6-0.9,0.7-1.5,0.7c-1.6,0.1-2.7-1-4-1.8c-1-1.9-0.6-4-0.7-6C31.5,17,31.7,16.8,31.9,16.8z"/>
<path class="st41" d="M37.6,32.1c0-1.7,0.1-3.3,0-5c-0.1-1.6,0.8-0.8,1.5-0.7c1.7-0.1,2.8,1,3.9,2c0.9,2,0.8,4.1,0.3,6.3
	c-0.3,0.6-0.8,0.6-1.3,0.5C40.2,34.4,38.6,33.6,37.6,32.1z"/>
<path class="st19" d="M32.7,35.2c0,0.3,0.3,0.4,0.5,0.3c1.8-0.1,3,1.2,4.3,2.1c1.1,2,0.8,4.1,0.3,6.3c-0.5,0.7-1.1,0.5-1.7,0.3
	c-1.4-0.6-2.7-1.3-3.8-2.3c-0.8-1-0.7-2.2-0.8-3.3c0-0.4,0-0.8,0-1.2C31.7,36.5,31.3,35.4,32.7,35.2z"/>
<path class="st19" d="M43,22.9c0-2.1-0.9-4.3,0.4-6.3c1.9,0.1,3.2,1.3,4.5,2.4c0.7,2.1,0.9,4.2,0.3,6.4c-0.1,0.2-0.2,0.4-0.4,0.6
	c-0.2,0.1-0.4,0.1-0.7,0.1C45.8,25,43.9,24.5,43,22.9z"/>
<path class="st36" d="M37.5,19.2c-1.4-0.8-2.8-1.7-4.3-2.5c1.3-1.6,3-2.5,5-3c1.2,0.7,2.5,1.4,3.7,2.2
	C40.9,17.7,38.9,18.1,37.5,19.2z"/>
<path class="st2" d="M36.9,37.6c-1.2-0.7-2.5-1.4-3.7-2.1c0.9-1.9,3.2-1.9,4.4-3.4c1.4,0.8,2.9,1.7,4.3,2.5
	C41.7,36.7,39.5,38,36.9,37.6z"/>
<path class="st37" d="M47.7,19.2c-1.4-0.8-2.9-1.7-4.3-2.5c1.6-1.3,3.1-2.6,5.3-2.8c1.1,0.7,2.3,1.3,3.4,2
	C52,17.8,50.4,19,47.7,19.2z"/>
<path class="st36" d="M32.4,22.8c1.2,0.7,2.4,1.4,3.7,2.1c0.6,0.8,0.1,1.3-0.6,1.7c-0.8,0.5-1.8,0.7-2.4,1.6
	c-0.3,0.5-0.8,0.6-1.3,0.6c-1.7-0.6-3.3-1.2-4.2-2.9C28.7,24,30.4,23.2,32.4,22.8z"/>
<path class="st42" d="M43,22.9c1.5,0.9,3.3,1.3,4.3,3c-1.4,1.4-2.7,2.9-5,2.5c-1.1-0.7-2.2-1.3-3.3-2c-0.5-0.7-0.2-1.1,0.5-1.5
	C40.7,24.3,41.8,23.6,43,22.9z"/>
<path class="st29" d="M31.8,28.3c0.5,0,0.9-0.1,1.4-0.1c-0.2,2.3-0.3,4.7-0.5,7c-0.7,0.7-0.1,1.6-0.4,2.3c-1.4,0.3-2.8,2.2-4.1-0.1
	c0.4-1.7,2.6-1.7,3.2-3.3C31.9,32.1,31.1,30.2,31.8,28.3z"/>
<path class="st11" d="M16.7,25.4c0.3,0.2,0.6,0.4,0.9,0.6c1.9,0.1,3.2,1.2,4.5,2.4c0.9,2.1,0.8,4.2,0.3,6.3
	c-0.3,0.6-0.9,0.5-1.4,0.4c-1.6-1-3.5-1.6-4.7-3.2c-0.4-2-0.5-4,0.2-6C16.5,25.7,16.6,25.6,16.7,25.4z"/>
<path class="st10" d="M22.1,22.9c0-2.1-0.7-4.3,0.4-6.3c2.3,0.2,3.9,1.4,5.2,3.2c0.4,1.8,0.4,3.5,0,5.3c-0.1,0.2-0.2,0.5-0.3,0.7
	c-0.4,0.4-0.9,0.2-1.4,0C24.8,24.9,23.2,24.3,22.1,22.9z"/>
<path class="st17" d="M16.2,25.5c-1.4-0.8-2.8-1.7-4.2-2.5c-0.3-2.1-0.9-4.3,0.4-6.3c1.9,0.1,3.2,1,4.3,2.5c0.3,2.1,0.3,4.2,0,6.3
	c0,0,0,0,0,0C16.6,25.6,16.4,25.7,16.2,25.5z"/>
<path class="st2" d="M27.3,19.7c-1.6-1-3.2-2.1-4.8-3.1c1.6-1.2,3.2-2.6,5.3-2.8c1.5,0.8,3.1,1.4,4,3l-0.1-0.1l-0.1,0
	C30.5,18,28.8,18.8,27.3,19.7z"/>
<path class="st2" d="M16.6,19.2c-1.4-0.8-2.9-1.7-4.3-2.5c0-0.1,0.1-0.3,0.1-0.4c1.7-0.8,3-2.5,5.2-2.4c1.1,0.7,2.3,1.3,3.4,2
	C20.3,17.9,18,18,16.6,19.2z"/>
<path class="st42" d="M22.1,22.9c1.5,0.6,2.9,1.5,4.2,2.6c-0.8,2.1-2.5,3.1-4.9,2.9c-1.3-0.8-2.6-1.5-4-2.3
	C18.8,24.5,20.6,24,22.1,22.9z"/>
<path class="st43" d="M53,16.3c0.2,0.1,0.3,0.1,0.5,0c2.1,0.6,3.9,1.6,5.3,3.2c0.4,2,0.5,4-0.1,6c-0.3,0.6-0.8,0.6-1.4,0.4
	c-1.5-1-3.3-1.6-4.5-3.1C52.2,20.6,51.9,18.4,53,16.3L53,16.3z"/>
<path class="st2" d="M58.3,19.2c-1.7-0.9-3.4-1.7-4.8-3c1.9-0.5,3.3-2.4,5.4-2.5c1.3,0.8,2.6,1.6,3.9,2.4
	C62,18.1,60.3,18.9,58.3,19.2z"/>
<path class="st9" d="M68.5,82.9c0.6,1.9-0.8,4.1,1,5.8c-1.8,0.8-3.2,2.5-5.4,2.5c-0.3-0.2-0.6-0.4-0.8-0.8c-0.4-2-0.2-4-0.7-5.9
	c1.5-1.1,2.8-2.5,4.9-2.1C67.8,82.5,68.2,82.7,68.5,82.9z"/>
<path class="st11" d="M68.5,75.2c0.1,2.1,0.9,4.3-0.4,6.3c-1.9-0.1-3.1-1.3-4.5-2.4c-0.9-2.1-1.1-4.3,0.1-6.4
	c0.2-0.1,0.4-0.2,0.6-0.2C65.9,73.1,67.4,73.8,68.5,75.2z"/>
<path class="st44" d="M68.5,75.2c-1.4-0.8-2.8-1.7-4.3-2.5c0.8-2.1,2.5-3.1,4.9-3c1.2,0.7,2.5,1.4,3.7,2.2
	C72.1,73.9,70,74.2,68.5,75.2z"/>
<path class="st2" d="M63.7,79c1.4,0.8,2.9,1.7,4.3,2.5c-0.2,0.3-0.4,0.5-0.5,0.8c-1.7,0.3-2.8,2.1-4.7,2c-1.7,0.3-2.7-0.8-3.6-2
	C59.7,80.3,61.2,79.1,63.7,79z"/>
<path class="st29" d="M68.5,25.4c0,2.2,0,4.4,0.1,6.6c0.3,1.2-0.8,1.3-1.4,1.8c-1,0.7-2,1.3-2.9,1.9c-0.4,0.1-0.7,0.1-1.1-0.1
	C63,35.4,63,35.2,63,34.9c0.2-2.1,0-4.2,0-6.3c1.2-1.8,3.2-2.4,4.9-3.4C68.2,25.2,68.4,25.3,68.5,25.4L68.5,25.4z"/>
<path class="st2" d="M64.2,35.4c0.9-1.8,3.2-1.9,4.3-3.4c1.4,0.9,2.9,1.7,4.3,2.6c-1.1,1.9-3,2.6-4.9,3C66.2,37.7,65,36.9,64.2,35.4
	z"/>
<path class="st45" d="M68.5,100.2c0,2.2,0,4.4,0.1,6.6c-0.7,2.3-2.8,2.6-4.6,3.3c-0.3,0-0.5-0.2-0.6-0.4c-0.6-2-0.3-4.1-0.4-6.2
	c1.1-1.9,3.2-2.5,5-3.5C68.2,100,68.4,100.1,68.5,100.2L68.5,100.2z"/>
<path class="st2" d="M64.1,110c1.5-1.1,3-2.1,4.5-3.2c1.4,0.8,2.9,1.7,4.3,2.5c-1.2,1.8-2.9,2.6-4.9,3
	C66.2,112.4,64.8,111.7,64.1,110z"/>
<path class="st15" d="M68.6,25.4c-0.2,0-0.4,0-0.5,0.1c-2-0.4-3.7-1.3-5.2-2.7c-0.2-1.9-1.3-3.9,0.6-5.5c0.1-0.1,0.1-0.2,0.2-0.3
	c0.2-0.1,0.4-0.2,0.6-0.2c1.7,0.3,3.3,0.9,4.3,2.5C68.8,21.3,68.7,23.4,68.6,25.4z"/>
<path class="st2" d="M68.5,19.2c-1.4-0.8-2.9-1.7-4.3-2.5c1.3-1.6,3-2.5,5-3c1.2,0.7,2.5,1.4,3.7,2.2C72,17.7,70,18.1,68.5,19.2z"/>
<path class="st17" d="M68,56.3c1.3,2.2,0.4,4.5,0.5,6.8c0,0,0.1,0,0.1,0c-0.5,0.3-0.9,0-1.3-0.2c-1.2-0.7-2.5-1.2-3.6-2.1
	c-1.8-1.9-1-4.2-1-6.4c0.2-0.3,0.5-0.5,0.8-0.7c0.2-0.1,0.5-0.1,0.7-0.1C65.6,54.4,67.2,54.8,68,56.3z"/>
<path class="st2" d="M68,56.3c-1.3-0.8-2.6-1.6-3.9-2.3c0.9-1.9,2.8-3.1,4.9-3c1.3,0.8,2.6,1.6,3.9,2.3C71.8,55.1,70,55.9,68,56.3z"
	/>
<path class="st9" d="M63.5,17.2c-0.1,1.9-0.2,3.8-0.2,5.7c-0.4,2.1-2.7,2-3.9,3.1c-0.2,0.1-0.4,0.1-0.7,0.1c-0.1,0-0.2-0.1-0.3-0.1
	c0-2.2-0.1-4.5-0.1-6.7c1.5-1,3.1-2.1,4.6-3.1C63.5,16.2,63.4,16.8,63.5,17.2z"/>
<path class="st17" d="M64.1,110c1.3,0.8,2.6,1.6,3.9,2.4c1.3,2.2,0.5,4.6,0.6,6.9c0,0,0,0,0,0c-0.6,0.2-0.4-0.8-1-0.6
	c-1.1-0.7-2.3-1.3-3.4-2c-0.3-0.2-0.6-0.4-0.8-0.7c-0.5-1.1-0.1-2.4-0.5-3.5c-0.2-0.7-0.2-1.4,0-2.1c0.1-0.2,0.3-0.4,0.5-0.4
	C63.7,109.9,63.9,110,64.1,110z"/>
<path class="st17" d="M64.2,35.4c1.2,0.7,2.5,1.4,3.7,2.2c1.4,2.1,0.5,4.5,0.6,6.7l0,0c-0.2,0.2-0.4,0.3-0.7,0.2
	c-1.7-0.7-3.3-1.6-4.8-2.8c-0.8-2-1.1-4,0.2-5.9C63.6,35.6,63.9,35.5,64.2,35.4z"/>
<path class="st46" d="M72.4,127.8c-2.2,0.9-4.5,0.2-7.6,0.4c1.7-1.2,2.9-2,4.2-2.4C70.2,126.5,71.3,127.1,72.4,127.8z"/>
<path class="st2" d="M64.3,91.1c1.8-0.8,3-2.7,5.3-2.5c1.1,0.7,2.3,1.3,3.4,2C72,92.5,70,92.9,68.5,94c-1.9,0.1-3.1-1.1-4.3-2.2
	C64.1,91.5,64.1,91.3,64.3,91.1z"/>
<path class="st9" d="M67.6,62.6c0.3,0.2,0.7,0.3,1,0.5c0.3,2.2-0.5,4.5,0.5,6.7c-1.9,0.6-3.6,1.5-4.9,3c-0.2,0-0.3,0-0.5,0
	c-0.1-0.1-0.2-0.2-0.3-0.3c-0.7-1.8-0.3-3.7-0.3-5.6C63.6,64.4,65.9,63.8,67.6,62.6z"/>
<path class="st11" d="M64.2,91.5c1.4,0.8,2.9,1.7,4.3,2.5c0.3,2.1,0.2,4.2,0.1,6.3c-0.2,0-0.4,0-0.5,0c-1.9-0.2-3.3-1.3-4.6-2.5
	c-0.8-1.6-0.4-3.3-0.5-4.9C62.9,92.2,63.2,91.4,64.2,91.5z"/>
<path class="st12" d="M68.1,44.3c0.2,0,0.3,0,0.5,0c0.3,2.3-0.4,4.6,0.5,6.8c-1.8,0.8-3.5,1.6-4.9,3c-0.2,0-0.3,0.1-0.5,0.1
	c-1.2-2-0.4-4.3-0.7-6.5C63.9,45.5,66,44.8,68.1,44.3z"/>
<path class="st47" d="M53.1,16.2c0.3,2.2-0.5,4.6,0.5,6.8c-1.2,1.6-3.1,2.1-4.7,3c-0.6,0.1-0.8-0.2-1.1-0.6c0.4-2.1,0.3-4.2,0-6.3
	c1.5-1,3.7-1.3,4.4-3.4C52.4,15.9,52.7,16.1,53.1,16.2z"/>
<path class="st41" d="M58.4,118.1c0,0.8-0.5,0.8-1.1,0.6c-1.8,0-3-1.1-4.3-2.1c-1-2-0.8-4.2-0.3-6.3c0.3-0.6,0.8-0.6,1.4-0.4
	c1.5,0.5,2.7,1.5,4,2.4C59.5,114.1,59.4,116.1,58.4,118.1z"/>
<path class="st9" d="M58.4,118.1c-0.6-1.9,0.9-4.1-1-5.8c1.8-0.9,3.3-2.4,5.4-2.7c0.3,0,0.5,0.1,0.6,0.3c-0.1,0.8-0.1,1.5-0.2,2.3
	c0.1,1.3-0.1,2.7,0.3,4c0.2,0.2,0.4,0.3,0.6,0.5c-1.9-0.2-3,1.7-4.7,2C59.1,118.5,58.8,118.3,58.4,118.1z"/>
<path class="st36" d="M53.6,116.6c1.2,0.7,2.5,1.4,3.7,2.2c-0.9,1.8-2.9,2.2-4.4,3.3c-1.4-0.8-2.8-1.7-4.3-2.5
	C49.5,117.5,51.2,116.4,53.6,116.6z"/>
<path class="st44" d="M58.8,125.9c1.1,0.7,2.3,1.3,3.4,2c-2.4,0.8-4.8,0.1-7.2,0.2C56.2,127.2,57.3,126.1,58.8,125.9z"/>
<path class="st14" d="M37.6,119c-0.2,0-0.4,0-0.5,0.1c-1.8-0.2-3.1-1.4-4.4-2.5c-1.5-1.8-1.1-3.9-0.8-5.9c0.1-0.7,0.6-1.1,1.4-0.9
	c1.7,0.6,3.2,1.4,4.5,2.6C38.5,114.7,38.7,116.9,37.6,119C37.5,119.1,37.6,119,37.6,119z"/>
<path class="st36" d="M33.2,116.7c1.3,0.8,2.7,1.4,3.9,2.4c-1.6,1-3.2,1.9-4.9,2.9c-1.4-0.8-2.9-1.7-4.3-2.5
	C28.7,117.3,30.9,116.1,33.2,116.7z"/>
<path class="st44" d="M38,125.8c1.1,0.7,2.3,1.3,3.4,2c-2.4,0.8-4.8,0.2-7.2,0.2C35.4,127.2,36.5,126.1,38,125.8z"/>
<path class="st44" d="M48.3,125.8c1.1,0.7,2.2,1.3,3.3,2c-2.3,1-4.6,0.2-6.9,0.2C45.8,127,46.9,126.2,48.3,125.8z"/>
<path class="st32" d="M27,119.3c-0.1-0.3-0.3-0.4-0.6-0.2c-1.7-0.3-3-1.5-4.4-2.5c-1-2-0.8-4.1-0.3-6.3c0.3-0.6,0.8-0.6,1.4-0.4
	c1.4,0.7,2.8,1.4,4,2.4c1.5,2.4,1.3,4.8,0.2,7.3l0,0C27.1,119.8,27,119.7,27,119.3z"/>
<path class="st36" d="M22.6,116.6c1.4,0.7,2.7,1.4,3.8,2.5c-1.5,1-3,2-4.4,2.9c-1.4-0.8-2.9-1.7-4.3-2.5
	C18.3,117.4,20.2,116.2,22.6,116.6z"/>
<path class="st48" d="M27.5,125.7c1.2,0.7,2.5,1.4,3.7,2.1c-2.4,0.7-4.8,0-7.4,0.4c0.8-1.4,2.3-1.5,3.1-2.5
	C27,125.6,27.2,125.5,27.5,125.7z"/>
<path class="st49" d="M27.5,125.7c-0.2,0-0.4,0.1-0.6,0.1c-0.5-2.2-0.1-4.3,0.1-6.5c0.1,0.1,0.3,0.1,0.4,0.2
	C27.2,121.6,27.1,123.7,27.5,125.7z"/>
<path class="st5" d="M53.6,116.6c-1.9,0.5-3.6,1.5-4.9,2.9c-1.1-0.2-0.4-1.3-0.9-1.8c-0.6-1.8-0.4-3.7-0.6-5.5
	c1.7-0.8,3.3-2,5.2-2.6c0.1,0,0.2,0,0.3,0.1c0.1,0.1,0.2,0.1,0.3,0.2C53.5,112.1,52.4,114.4,53.6,116.6z"/>
<path class="st17" d="M47.2,112.3c1.5,1.6,0.4,3.6,0.7,5.4c-0.4,0.4-1,0.4-1.5,0.4c-1-0.5-1.9-1-2.9-1.5c-2.1-1.8-1.1-4.1-0.9-6.2
	C44.1,109.6,45.5,110.2,47.2,112.3z"/>
<path class="st50" d="M22.6,116.6c-1.9,0.5-3.7,1.3-4.9,3c-0.3-0.1-0.7-0.2-1-0.2c-1.1-2.1-0.6-4.3-0.7-6.5c1.1-1.9,3.4-2.1,4.9-3.5
	c0.4-0.2,0.7-0.1,1,0.2c0.1,0.1,0.1,0.2,0.2,0.3C22.3,112.1,21.4,114.4,22.6,116.6z"/>
<path class="st19" d="M16.1,112.4c1.3,2.2,0.5,4.6,0.5,7c0,0,0-0.1,0-0.1c-0.1,0.1-0.3,0.2-0.4,0.3c-0.7-1.7-2.6-1.9-4-2.9
	c-2-1.3-0.2-3.3-0.9-4.8c0.2-0.8,0-1.8,1.3-1.8C14.1,110.5,15.5,110.9,16.1,112.4z"/>
<path class="st50" d="M11.8,71.7c0-1.7,0-3.4,0-5.1c-0.6-1.1,0.3-1.6,1-2.1c1-0.6,1.9-1.4,3-2c0.6,0,1,0.3,1.2,0.8
	c0.6,2.1,0.3,4.2,0.4,6.2c-1.3,1.6-2.9,2.7-5,2.8C12.2,72.1,12,71.9,11.8,71.7z"/>
<path class="st10" d="M11.9,79c-0.1-2.1-0.9-4.3,0.5-6.3c2,0.2,3.5,1.3,4.8,2.8c0.2,2,0.7,4-0.4,5.9C14.5,81.9,13.1,80.5,11.9,79z"
	/>
<path class="st2" d="M16.6,75.2c-1.4-0.8-2.8-1.7-4.2-2.5c0-0.2,0-0.3,0.1-0.5c1.7-0.7,3-2.1,4.9-2.5c2-0.1,3.3,1,4.4,2.5
	c-0.9,1.9-2.8,2.3-4.4,3.2C17,75.4,16.8,75.3,16.6,75.2z"/>
<path class="st2" d="M11.9,79c1.4,0.8,2.9,1.7,4.3,2.5c-0.9,2.2-3,3.3-5.3,2.8c-1.1-0.7-2.3-1.3-3.4-2C8.2,80.2,10.5,80.2,11.9,79z"
	/>
<path class="st31" d="M11.3,47.2c1.7-0.5,3-2.1,4.8-2.4c0.1,0.1,0.2,0.1,0.3,0.2c1,2,0.9,4.1,0.4,6.2c-1.1,1.5-2.9,2.1-4.4,3.1
	c-0.2,0.1-0.5,0.1-0.7,0C11.5,51.9,12.1,49.5,11.3,47.2z"/>
<path class="st19" d="M11.7,54.2c0.2-0.1,0.3-0.2,0.5-0.2c1.9,0.2,3.2,1.2,4.5,2.4c0.9,2.1,0.8,4.2,0.2,6.3
	c-0.1,0.1-0.2,0.2-0.3,0.3c-0.3-0.2-0.6-0.3-1-0.5c-1.4-0.2-2.7-0.5-3.3-1.9c-0.3-0.5-1-0.7-1-1.4c0.2-1,0-2.1,0-3.1
	c0-0.6,0.1-1.2,0.1-1.8C11.6,54.3,11.7,54.3,11.7,54.2z"/>
<path class="st49" d="M12.8,110.4c-1.5-0.5-0.8,1-1.3,1.4c-0.7-0.7,0.1-1.4-0.1-2.1c0.5-2.2,0.5-4.4-0.1-6.6
	c1.8-0.6,3.5-1.6,4.9-2.9c0.3-0.1,0.5,0,0.7,0.2c0.8,1.9,0.4,3.9,0.4,5.9c-0.2,1.3-1.2,1.8-2.2,2.3
	C14.2,109.2,13.4,109.7,12.8,110.4z"/>
<path class="st29" d="M16.2,25.5c0.2,0,0.4,0,0.5-0.1c0,2.2,0,4.4,0,6.6c0.4,1.1-0.7,1.3-1.2,1.7c-0.9,0.6-1.8,1.2-2.5,2.2
	c-0.5,0.8-0.4,1.7-0.6,2.5c-0.1,0.6,0,1.5-1.1,1.5c-0.5-1.6,0.4-3.3-0.5-4.8c0-0.1,0-0.3,0-0.4c1.7-2,0.8-4.1,0.4-6.3
	C13.1,27.8,14.7,26.8,16.2,25.5z"/>
<path class="st2" d="M12.4,60.6c1.1,0.6,2.2,1.3,3.3,1.9c0.1,1.2-1,1.3-1.6,1.8c-0.8,0.7-2.2,0.8-2.3,2.2c-1.2-1.4-3-1.9-4.4-3
	C8.5,61.6,10.4,61,12.4,60.6z"/>
<path class="st49" d="M10.9,84.3c2.2-0.1,3.8-1.4,5.3-2.8c1.4-2,0.5-4.2,0.4-6.3c0.2,0,0.4-0.1,0.6-0.1c1.2,2,1.4,4.2,0.9,6.5
	c0,0.3-0.1,0.6-0.3,0.9c-1,2-0.4,4,0,6c-1.5,1.2-3.6,1.6-5,3.1c-0.5,0.4-0.7,1.1-1.4,1.3c-0.7-0.2-1-0.7-1-1.4
	c0.1-0.3,0.3-0.6,0.4-0.9C12,89.5,12.1,86.3,10.9,84.3z"/>
<path class="st6" d="M42.9,109.9c0.1,2.3-0.7,4.6,0.5,6.7c-2.1,0.1-3.5,1.9-5.5,2.5l-0.2,0.1c0,0-0.2-0.1-0.2-0.1
	c-0.2-2.2,0.8-4.5-0.6-6.7c1.4-1.3,3.3-2,4.8-3.1c0.4-0.1,0.7,0,1,0.3C42.8,109.7,42.8,109.8,42.9,109.9z"/>
<path class="st49" d="M27.3,119.6c0-1.7-0.1-3.3-0.1-5c0-0.9-0.1-1.7-0.9-2.3c1.5-1.3,3.8-1.6,4.9-3.5c0.5-1.8-0.1-3.6,0.5-5.4
	c0.1-0.2,0.3-0.4,0.5-0.5c1.1-0.2,1.2,0.6,1.2,1.3c0,1.7,0.5,3.3,0.5,4.9c-0.1,0.5-0.3,0.8-0.7,1.1c-0.2,0-0.7,0-0.7,0
	c-0.1,2.1-0.9,4.4,0.6,6.4c-2.2,0.2-3.8,1.4-5.3,2.8C27.7,119.5,27.5,119.5,27.3,119.6z"/>
<path class="st32" d="M11.4,39.9c0.7-0.9,0.2-2,0.3-3c0.1-0.8,0.1-1.5,1.1-1.3c1.7,0,2.8,1,4,2c1,2.1,0.7,4.3,0.3,6.5
	c-0.1,0.3-0.4,0.4-0.6,0.5l-0.1-0.1l-0.1,0.1c-1-2.1-3.3-2.2-4.8-3.4C11.4,40.8,11.4,40.3,11.4,39.9z"/>
<path class="st31" d="M11.4,56.2c0.3,1,0.4,2,0,3.1c-0.3-1-0.5-2-1.5-2.7C10.3,55.6,11.2,57.2,11.4,56.2z"/>
<path class="st10" d="M11.4,93c0.4-0.5-0.1-1.4,0.9-1.5c2,0.2,3.6,1.2,4.7,2.8c0.3,1.9,0.5,3.8-0.1,5.6c-0.1,0.1-0.2,0.2-0.3,0.3
	c-0.2,0-0.3,0-0.5,0.1c-1.5-1-2.9-2.2-4.8-2.6C11.4,96.1,11.4,94.6,11.4,93z"/>
<path class="st51" d="M27.3,19.7c0.9-1.8,2.6-2.4,4.3-3c0.8,2,0.4,4.1,0.7,6.1c-1.5,1-3,2.1-4.6,3.1c-0.2,0.2-0.3,0.2-0.5,0
	C27.3,23.9,27.3,21.8,27.3,19.7z"/>
<path class="st5" d="M36.9,37.6c2-0.4,3.7-1.3,5-3c0.3,0.2,0.7,0.3,1,0.5c0.1,0.1,0.2,0.2,0.3,0.3c0.7,2,0.3,4.1,0.4,6.1
	c-1.3,1.6-3.3,2.3-5.1,3.1c-0.2,0-0.5,0-0.7-0.1c-0.1-0.1-0.2-0.2-0.3-0.2C37.3,42,38.3,39.7,36.9,37.6z"/>
<path class="st9" d="M42.3,28.4c1.9-0.4,3.2-1.9,5-2.5c0.2,0,0.3-0.1,0.4-0.2c0.5,2.1,0.5,4.3,0.4,6.5c-0.9,1.7-2.9,2.1-4.1,3.4
	c-0.6,0.2-0.8-0.2-1.1-0.6c0,0,0,0,0,0C42.5,32.9,43.4,30.5,42.3,28.4z"/>
<path class="st5" d="M36.1,43.7c0.5,0.2,1,0.4,1.4,0.6c0,0,0,0,0,0c1.3,2,0.7,4.1,0.6,6.2c-0.9,2-3,2.6-4.7,3.6
	c-0.4,0.1-0.7-0.1-0.9-0.5c-0.5-2.1,0.2-4.3,0-6.4C33,45.3,35.3,45.3,36.1,43.7z"/>
<path class="st42" d="M36.1,43.7c0.4,0.7,0.2,1.1-0.5,1.5c-1,0.6-2,1.2-3,1.9c-0.1,0.2-0.3,0.3-0.6,0.3c-1.8-0.4-3.3-1.2-4.4-2.7
	c0.1-1.5,1.5-1.7,2.4-2.5c0.9-0.5,1.7-1,2.7-0.5C33.9,42.4,35,43,36.1,43.7z"/>
<path class="st52" d="M30.3,42.8c-0.7,0.7-1.9,1-2.4,1.9c-0.3,0.1-0.5,0-0.7-0.2c-0.8-2.3-0.3-4.7-0.8-7.1c0.6-0.5,1.3-0.5,1.9,0
	c1.3,1.3,2.7-0.3,4,0c0,0.3,0,0.6,0,1C31.5,39.9,30.9,41.3,30.3,42.8z"/>
<path class="st29" d="M30.3,42.8c-0.3-1.9,0.8-3.1,1.9-4.3c0.3,1.1-0.2,2.3,0.6,3.3C32,42.1,31.1,42.4,30.3,42.8z"/>
<path class="st17" d="M47.7,32.1c0-2.1,0-4.2,0-6.3c0-0.1,0-0.2,0-0.3c0.3,0.2,0.6,0.4,0.9,0.6c2-0.1,3.2,1.2,4.5,2.4
	c0.9,2,0.7,4.1,0.3,6.2c-0.1,0.2-0.3,0.4-0.5,0.5C50.9,34.7,49.1,33.6,47.7,32.1z"/>
<path class="st17" d="M27.3,25.9c0.2,0,0.3,0,0.5,0c1.3,0.8,2.6,1.6,3.9,2.4c0.9,2.1,1.1,4.3-0.1,6.4c-2.2-0.1-3.7-1.2-4.8-3
	C26.7,29.7,26.1,27.7,27.3,25.9L27.3,25.9z"/>
<path class="st36" d="M27.4,32.2c1.4,0.8,2.9,1.7,4.3,2.5c-0.7,1.5-2.6,1.5-3.5,2.8c-0.6,0-1.2,0-1.9,0.1c-1.7,0.2-2.8-0.7-3.6-2
	C23.4,33.2,25.2,32.4,27.4,32.2z"/>
<path class="st31" d="M16.6,44.4c0.1-2.3,0.8-4.6-0.5-6.8c1.5-1.3,3.4-1.8,5-3c0.3,0.2,0.7,0.3,1,0.5c0.1,0.1,0.2,0.2,0.3,0.3
	c0.7,2,0.3,4.1,0.4,6.1c-1.1,1.8-3.4,2-4.9,3.4C17.4,45,16.9,44.8,16.6,44.4z"/>
<path class="st47" d="M27.4,32.2c-1.5,1-3.5,1.5-4.4,3.4c-0.6,0.3-0.7-0.2-1-0.5c0,0,0,0,0,0c-0.3-2.2,0.6-4.6-0.5-6.7
	c1.9-0.6,3.5-1.4,4.9-2.9c0.5-0.2,0.7,0.3,1,0.4C27.1,28,27.1,30.1,27.4,32.2z"/>
<path class="st36" d="M21.1,34.6c-1.1,2-2.9,2.6-5,3c-1.1-0.7-2.2-1.3-3.3-2c-0.1-1.4,1.2-1.5,1.9-2.1c0.6-0.6,1.6-0.6,2-1.5
	C18.2,32.9,19.6,33.7,21.1,34.6z"/>
<path class="st53" d="M53.1,35.1c-0.2-2.3,0.7-4.6-0.5-6.8c1.4-1.3,3.1-2.2,4.9-3c0.3,0.2,0.6,0.4,0.9,0.6c0,0,0-0.1,0-0.1
	c1.2,1.8,0.7,3.8,0.6,5.7c-0.8,2.2-3.2,2.6-4.7,4c-0.4,0.2-0.7,0.1-1-0.2C53.2,35.3,53.1,35.2,53.1,35.1z"/>
<path class="st36" d="M57.5,25.4c-1.3,1.5-3,2.5-4.9,3c-1.3-0.8-2.6-1.5-4-2.3c1.3-1.5,3.2-2.2,5-3C54.8,23.8,56.2,24.6,57.5,25.4z"
	/>
<path class="st50" d="M64.2,91.5c-1.5,2-0.6,4.1-0.4,6.3c-1.3,1.6-3.1,2.3-4.9,3.2c-0.3,0-0.5,0-0.7-0.2c-0.2-0.2-0.3-0.4-0.4-0.7
	c-0.3-1.9-0.2-3.8,0-5.7c0.8-2.1,3.1-2.4,4.5-3.7c0.4-0.3,0.9-0.2,1.3,0c0.2,0.2,0.4,0.4,0.6,0.6C64.3,91.3,64.3,91.4,64.2,91.5z"/>
<path class="st19" d="M63.7,90.6c-0.3,0.4-0.7,0.1-1,0.1c-1.8,0-3-1.1-4.3-2.1c-1-2.1-0.8-4.2-0.3-6.3c0.5-0.6,0.9-0.4,1.3,0.1
	c1.1,0.7,2.3,1.3,3.4,2C64.3,86.2,63.2,88.5,63.7,90.6z"/>
<path class="st45" d="M59.4,82.3c-0.3-0.2-0.7-0.3-1-0.5c-0.1-0.1-0.2-0.2-0.3-0.3c-0.7-2-0.3-4.1-0.4-6.1c1.3-1.7,3.1-2.5,4.9-3.4
	c0.6-0.1,0.9,0.3,1.1,0.7c0,0,0,0,0,0c-0.3,2.1-0.4,4.2,0,6.3C62.2,80,60.1,80.3,59.4,82.3z"/>
<path class="st5" d="M63.3,35.7c0.6,2-1,4.1,0.6,6c-1.1,1.7-3.5,1.8-4.6,3.6c-0.5,1.7,0,3.6-0.5,5.3c-0.9,2-3.4,2.2-4.4,4
	c-1.7,1.9-0.5,4-0.4,6.1c-1.8,0.8-3.4,2-5.3,2.6c-0.4-0.1-0.7-0.3-0.9-0.6c-0.7-2,0-4.3-0.8-6.3c1.4-1.6,3.8-1.7,5-3.5
	c0.5-1.7,0-3.6,0.5-5.3c0.9-2,3.4-2.2,4.4-4c1.6-1.9,0.5-4,0.3-6c1.8-1,3.6-1.9,5.3-3.1c0.4,0,0.7,0,0.7,0.5
	C63.3,35.2,63.3,35.5,63.3,35.7z"/>
<path class="st17" d="M63.3,35c-0.1-0.3-0.3-0.4-0.5-0.3c-1.9-0.1-3.2-1.1-4.3-2.5c0-2.1,0-4.2,0-6.3c0.2,0,0.4,0,0.5,0
	c1.7,0.4,3.3,1,4.2,2.6C63.8,30.6,63.7,32.8,63.3,35z"/>
<path class="st54" d="M63.1,28.4c-1.4-0.9-2.8-1.7-4.2-2.6c1.5-1,2.9-2,4.4-3c1.8,0.4,3.3,1.6,4.8,2.6
	C66.6,26.8,64.9,27.7,63.1,28.4z"/>
<path class="st17" d="M58.4,100.7c0.2,0,0.3,0,0.5,0c1.8,0.3,3.2,1.1,4.2,2.5c0.8,2.2,0.4,4.5,0.3,6.7c0,0,0.1,0,0.1,0
	c-0.2,0-0.5,0-0.7,0c-1.9-0.8-3.9-1.4-4.9-3.4C57.7,104.5,57.2,102.5,58.4,100.7z"/>
<path class="st35" d="M63.1,103.2c-1.4-0.8-2.8-1.7-4.2-2.5c1.5-1.2,3.1-2.2,4.9-2.9c1.4,0.8,2.8,1.7,4.3,2.5
	C66.6,101.5,64.9,102.5,63.1,103.2z"/>
<path class="st53" d="M63.6,54.4c-0.1,2.1-0.8,4.3,0.7,6.3c-1.6,1.2-3.4,1.9-5.1,3.1c-0.6-0.1-0.9-0.4-1.2-0.9
	c-0.5-2-0.3-4.1-0.4-6.2c1.3-1.7,3.3-2.4,5.2-3.4C63.5,53.3,63.4,53.9,63.6,54.4z"/>
<path class="st11" d="M63.6,54.4c-0.3-0.3-0.2-1-0.8-0.9c-1.8-0.2-3.2-1-4.3-2.5c0-2.1-0.8-4.3,0.4-6.3c1.8,0.2,3.2,1.1,4.3,2.5
	c0.8,2.3,0.1,4.7,0.4,7C63.6,54.1,63.6,54.4,63.6,54.4z"/>
<path class="st2" d="M59.3,63.6c1-2,2.9-2.6,4.9-3c1.1,0.7,2.2,1.3,3.3,2c-0.1,1.3-1.4,1.4-2.1,2c-0.7,0.6-1.9,0.7-1.8,2
	C62,66,60.2,65.4,59.3,63.6z"/>
<path class="st45" d="M63.6,116.2c-0.3-1.3-1.9-2.5-0.3-4C63.4,113.5,63.5,114.9,63.6,116.2z"/>
<path class="st2" d="M63.2,47.2c-1.4-0.8-2.9-1.7-4.3-2.5c1.4-1.3,3.1-2.2,4.9-2.9c1.4,0.8,2.8,1.7,4.2,2.5
	C66.6,45.4,64.9,46.4,63.2,47.2z"/>
<path class="st19" d="M59.3,63.6c1.4,1.1,3.1,1.6,4.4,3c-0.2,2.1-0.2,4.1,0,6.2c-0.3-0.2-0.6-0.4-0.9-0.6c-1.8-0.2-3.2-1.3-4.5-2.5
	c-0.9-2.1-0.8-4.2-0.2-6.3c0.1-0.1,0.2-0.2,0.3-0.3C58.7,63.3,59,63.4,59.3,63.6z"/>
<path class="st5" d="M58.4,100.7c0,2.1,0,4.2,0.1,6.3c-0.8,1.9-3,2.1-4.4,3.4c-0.3-0.1-0.7-0.3-1-0.4c0,0,0,0.1,0,0.1
	c-1.3-2-0.5-4.2-0.8-6.3c1.1-1.9,3.3-2.3,4.9-3.5C57.8,100,58.1,100.4,58.4,100.7L58.4,100.7z"/>
<path class="st2" d="M54,110.3c0.7-2.1,3.1-2,4.4-3.4c1.5,0.9,3.3,1.4,4.4,2.9c-1.9,0.6-3.1,2.7-5.4,2.4
	C56.3,111.6,55.2,111,54,110.3z"/>
<path class="st2" d="M33.2,110.3c0-0.4,0-0.7,0.4-0.9c0.9-1.5,2.4-2.2,3.9-2.7c1.8,0.4,3.4,1,4.3,2.8c-1.2,1.7-3,2.5-5,3
	C35.7,111.7,34.5,111,33.2,110.3z"/>
<path class="st55" d="M23,110.3c-0.3-0.2-0.7-0.3-1-0.5c0,0,0,0.1,0,0.1c-1.2-2-0.6-4.2-0.8-6.3c1.3-1.9,3.3-2.6,5.3-3.5
	c0.6,0.1,1,0.4,1.2,0.9c0.5,1.8,0.4,3.7,0.1,5.6C26.9,108.7,24.6,109,23,110.3z"/>
<path class="st2" d="M23,110.3c0.6-2.2,3.1-2.1,4.4-3.4c1.9,0,3.3,0.9,4.3,2.5c-1.5,1.4-3.1,2.7-5.3,2.8
	C25.3,111.7,24.1,111,23,110.3z"/>
<path class="st19" d="M52.6,103.1c1.1,2.2,0.3,4.5,0.5,6.8c0,0-0.2-0.1-0.2-0.1l-0.2,0.1c-1.9-0.4-3.4-1.7-5.1-2.6
	c-1.5-2.1-0.4-4.4-0.4-6.5c0.1-0.2,0.2-0.4,0.4-0.5c0.5-0.2,0.9,0,1.3,0.2C50.2,101.3,51.8,101.6,52.6,103.1z"/>
<path class="st37" d="M47.7,106.9c1.8,0.8,3.5,1.7,5,3c-1.9,0.6-3.3,2.5-5.5,2.5c-1.4-0.8-2.9-1.6-4.3-2.5c0,0,0,0,0,0
	c-0.2-0.5,0-0.9,0.4-1.2C44.9,108.3,46.2,107.3,47.7,106.9z"/>
<path class="st17" d="M21.5,103.1c1,2.2,0.2,4.5,0.5,6.8c-0.3-0.2-0.6-0.4-1-0.6c-1.8-0.2-3.4-0.9-4.4-2.6c0-2.2,0-4.4,0-6.6
	c0,0,0,0,0,0c0.1-0.2,0.3-0.2,0.6-0.2c0.3,0.1,0.6,0.3,0.8,0.4C19.2,101.4,20.8,101.7,21.5,103.1z"/>
<path class="st2" d="M16.7,106.8c1.5,0.9,2.9,1.7,4.4,2.6c-1.1,1.8-2.9,2.7-4.9,3c-1.1-0.6-2.2-1.3-3.3-1.9
	c-0.6-1.1,0.6-1.2,1.1-1.7C14.7,108,16.1,107.9,16.7,106.8z"/>
<path class="st17" d="M21.5,72.3c-1.4-0.9-2.8-1.7-4.2-2.6c-1-2.2-0.1-4.5-0.6-6.7c0,0,0,0,0,0c0.5-0.3,0.9-0.1,1.4,0.1
	c1.4,0.6,2.6,1.5,3.8,2.4C23.2,68.1,23.1,71,21.5,72.3z"/>
<path class="st30" d="M21.5,72.3c0.7-2.3,1.3-4.7-0.4-6.9c1.8-0.9,3.6-1.8,5.3-3c0.4,0,0.6,0.2,0.8,0.5c0.5,2.3-0.1,4.7-0.1,7
	c-1,1.7-3.2,1.8-4.1,3.4c-0.5,1.8,0.1,3.7-0.5,5.4c-1.2,1.5-2.5,2.9-4.7,2.6c0.3-2.1-0.5-4.2-0.5-6.3C18.6,74.2,20.1,73.3,21.5,72.3
	z"/>
<path class="st15" d="M16.6,44.4c0.3,0.1,0.6,0.3,1,0.4c2.1,0.1,3.6,1.1,4.9,2.7c0.3,2,0.7,4-0.4,5.9c-2.4,0.5-3.8-1-5.3-2.5
	c-0.1-2.1-0.2-4.2-0.4-6.3C16.5,44.6,16.6,44.5,16.6,44.4z"/>
<path class="st2" d="M16.8,50.9c1.7,0.6,3.2,1.7,4.7,2.6c-0.7,1.8-2.4,2.3-3.9,3.1c-0.5,0.1-0.9,0-1.4-0.3c-1.3-0.8-2.6-1.6-3.9-2.3
	C13.5,52.6,15.4,52.1,16.8,50.9z"/>
<path class="st50" d="M16.2,56.3c0.5,0,1-0.1,1.5-0.1c0.8,2.2-0.1,4.5,0.3,6.7c0,0.2-0.2,0.4-0.3,0.6c-0.3-0.1-0.7-0.3-1-0.4
	C16.7,60.8,17.4,58.5,16.2,56.3z"/>
<path class="st19" d="M17.7,88.7c-1.6-2-0.7-4.3-0.6-6.4c0.2,0,0.5,0,0.7,0c1.8,0,3,1.1,4.2,2.1c1.2,1.9,0.7,4,0.6,6
	c-0.1,0.2-0.2,0.5-0.3,0.7c-0.4,0.4-0.9,0.2-1.4,0.1C19.7,90.4,18.3,90,17.7,88.7z"/>
<path class="st56" d="M17.7,88.7c1.1,0.7,2.2,1.3,3.4,2c0.7,1-0.1,1.5-0.8,1.9c-0.9,0.6-1.9,1.2-2.9,1.6c-0.2,0.1-0.5,0-0.7-0.1
	c-1.4-0.9-2.8-1.7-4.2-2.6C13.8,89.9,15.4,88.7,17.7,88.7z"/>
<path class="st2" d="M21.4,84.4c-1.2-0.7-2.5-1.4-3.7-2.1c0-0.3,0-0.5,0-0.8c1.6-0.6,3-1.6,4.4-2.5c2-0.2,3.2,1.1,4.4,2.4
	c0.1,0.2,0.1,0.5,0,0.7C25.2,83.6,23.7,84.7,21.4,84.4z"/>
<path class="st57" d="M43.4,109c-0.2,0.3-0.4,0.6-0.5,1c-0.3-0.2-0.7-0.3-1-0.5c-1.4-0.8-2.9-1.7-4.3-2.5c-1.3-2-1.1-4.1-0.2-6.2
	c2.4-0.6,3.7,1.2,5.3,2.3C43.9,104.9,43.7,106.9,43.4,109z"/>
<path class="st30" d="M38.1,100.6c-1.1,2-0.4,4.2-0.5,6.3c-1.3,0.8-2.7,1.6-4,2.4c-0.7-2-0.6-4.2-1-6.2c0.6-2,3-1.9,4-3.5
	c0.5-1.8,0-3.6,0.4-5.4c0.9-2,3.3-2.2,4.6-3.8c1.4-1.9,0.2-4.1,0.6-6.2c1.7-1.2,3.3-2.6,5.4-3c1.1,1,0.6,2.2,0.7,3.4
	c0.1,0.9-0.1,1.9,0.3,2.8c0.1,0.3,0.2,0.7,0.2,1.1c-1.6,1.3-3.9,1.6-5,3.5c-0.5,1.8,0,3.6-0.5,5.4C42,99.3,40.3,100.4,38.1,100.6z"
	/>
<path class="st14" d="M31.7,109.5c-1.4-0.8-2.9-1.7-4.3-2.5c-0.3-2.1-0.3-4.2,0-6.3c0.1-0.1,0.2-0.1,0.3-0.2c0.2,0,0.4,0,0.7,0.1
	c1.4,0.7,3,1.1,3.8,2.6C32.2,105.3,33.1,107.5,31.7,109.5z"/>
<path class="st2" d="M32.1,103.2c-1.4-0.8-2.8-1.7-4.3-2.5c0.7-2.1,2.8-2.4,4.4-3.3c2,0.3,3.8,1,4.8,2.9c-1.5,0.9-2.9,1.9-4.4,2.8
	C32.5,103.2,32.3,103.2,32.1,103.2z"/>
<path class="st49" d="M16.6,94c0.2-0.1,0.4-0.1,0.5-0.2c1.1,2.2,1.4,4.4-0.1,6.6c-0.2,0-0.3-0.1-0.4-0.2C16.8,98.2,17,96.1,16.6,94z
	"/>
<path class="st57" d="M37.6,50.9c0-2.2-0.1-4.5-0.1-6.7c0.1,0.1,0.3,0.1,0.4,0c1.8,0.7,3.6,1.5,4.9,2.9c1,1.9,0.6,4,0.5,6
	c-0.1,0.2-0.2,0.5-0.3,0.7c-0.5,0.4-0.9,0.1-1.4-0.1C40.3,52.9,38.6,52.4,37.6,50.9z"/>
<path class="st18" d="M42.9,35c0.2,0.3,0.5,0.6,1,0.5c2,0,3.2,1.4,4.5,2.6c0.3,0.7,0.1,1.5,0.1,2.2c-0.3,1.1,0.2,2,0.4,3
	c0,0.2-0.1,0.4-0.3,0.6c-0.3,0.2-0.6,0.4-0.9,0.5c-0.2,0-0.4,0-0.7,0c-1.3-0.8-2.8-1.3-3.6-2.7C42.2,39.6,43,37.3,42.9,35z"/>
<path class="st2" d="M43.4,41.8c1.4,0.7,2.7,1.4,3.8,2.5c-1.1,1.9-2.6,2.8-4.8,2.8c-1.5-0.9-3.2-1.5-4.5-2.9
	C40,43.9,41.2,41.9,43.4,41.8z"/>
<path class="st35" d="M48.2,38.6c-1.2-1.4-3-1.9-4.3-3c0-1.3,1.2-1.4,2-2c0.7-0.5,1.6-0.7,1.9-1.5c1.8,0.8,3.4,1.8,4.9,3
	C51.6,36.8,49.5,37.2,48.2,38.6z"/>
<path class="st17" d="M32.6,53.6c0,0.3,0.2,0.4,0.5,0.4c1.9,0.1,3.2,1.2,4.5,2.4c0.9,2.1,0.8,4.2,0.3,6.3c-0.3,0.6-0.9,0.5-1.4,0.4
	c-1.6-1-3.5-1.4-4.6-3.1c-0.4-1.9-0.3-3.8-0.1-5.8c0.1-0.3,0.2-0.5,0.3-0.7C32.3,53.3,32.4,53.3,32.6,53.6z"/>
<path class="st2" d="M37,56.4c-1.3-0.8-2.6-1.5-3.9-2.3c1.2-1.5,3.1-2,4.6-3.1c1.4,0.8,2.9,1.7,4.3,2.5C41.2,55.5,39.4,56.5,37,56.4
	z"/>
<path class="st58" d="M32.6,53.6c-0.1,0-0.3-0.1-0.4-0.2c-1.1-2.1-1-4.2,0-6.2c0.2,0,0.3-0.1,0.5-0.1C33.4,49.3,32.9,51.4,32.6,53.6
	z"/>
<path class="st11" d="M32.1,47.2c0.3,2.1,0.3,4.2,0,6.2c0,0,0,0,0,0c-0.2,0.2-0.4,0.3-0.7,0.3c-1.8-0.6-3.5-1.4-4.6-3
	c-0.3-1.9-0.5-3.7,0.1-5.6c0.1-0.1,0.2-0.2,0.3-0.3c0.2,0,0.3,0,0.5-0.1C29.3,45.5,30.7,46.4,32.1,47.2z"/>
<path class="st15" d="M22,35c0.3,0.2,0.7,0.3,1,0.5c1.1,0.7,2.2,1.3,3.4,2c1.3,1,0.8,2.4,0.9,3.7c0.1,1.2,0.1,2.4,0.1,3.6
	c0,0,0,0,0,0c-0.5,0.3-0.8,0-1.2-0.2c-1-1.1-2.9-1.1-3.6-2.7C21.4,39.6,22.3,37.3,22,35z"/>
<path class="st53" d="M48.2,38.6c0.6-2.3,3-2.4,4.5-3.5l0.2-0.1c0,0,0.2,0.1,0.2,0.1c0,0,0-0.1,0-0.1c1.2,2,0.6,4.2,0.8,6.3
	c-0.8,1.6-2.4,2-3.9,2.5c-1.2-0.9-2.2-1.9-1.8-3.6C47.4,39.8,48.3,39.2,48.2,38.6z"/>
<path class="st2" d="M22.6,41.8c1.3,0.8,2.6,1.6,3.9,2.4c-0.8,2.1-2.6,2.7-4.6,3.1c-1.4-0.8-2.9-1.6-4.3-2.4
	C18.8,43,20.7,42.4,22.6,41.8z"/>
<path class="st16" d="M53.6,41.8c-1.1-2.2-0.2-4.5-0.6-6.7c0.3,0.2,0.7,0.3,1,0.5c1.6-0.1,2.6,0.8,3.4,2c0.7,0.9,1.4,5.7,0.8,6.4
	c-0.4,0.5-0.9-0.2-1.3-0.1C55.5,43.7,54.4,43,53.6,41.8z"/>
<path class="st37" d="M57.4,37.5c-1.1-0.7-2.3-1.3-3.4-2c0.8-1.9,3-2.1,4.4-3.4c1.4,0.8,2.9,1.7,4.3,2.5
	C61.3,36.3,59.7,37.5,57.4,37.5z"/>
<path class="st59" d="M58.4,100.8c-0.3-0.2-0.6-0.4-0.9-0.6c-1.9-0.2-3.2-1.2-4.5-2.4c-0.9-2-0.8-4.1-0.3-6.2
	c0.3-0.5,0.8-0.6,1.3-0.4c1.5,0.9,3.3,1.4,4.3,3C58.4,96.3,58.4,98.5,58.4,100.8z"/>
<path class="st2" d="M58.4,94.1c-1.4-0.8-2.9-1.7-4.3-2.5c0.2-2.1,2.4-3.4,5-3c1.2,0.7,2.5,1.4,3.7,2.1
	C61.8,92.5,59.5,92.6,58.4,94.1z"/>
<path class="st6" d="M59,88.6c-2,0.4-3.8,1.2-5,3c-0.3-0.2-0.7-0.3-1-0.5c-0.1-0.1-0.2-0.2-0.3-0.3c-0.6-2-0.3-4.1-0.4-6.1
	c1.3-1.7,3.4-2.1,4.9-3.4c0.6-0.2,0.9,0.3,1.1,0.6c0,0,0,0,0,0C58.6,84.1,57.6,86.4,59,88.6z"/>
<path class="st16" d="M58.4,81.9c-0.3-0.2-0.7-0.3-1-0.5c-2.1-0.1-3.5-1.3-4.8-2.7c-0.4-2-0.4-4,0-5.9c0.1-0.2,0.3-0.4,0.5-0.6
	c2,0.4,3.5,1.5,4.8,3C58.9,77.3,58,79.7,58.4,81.9z"/>
<path class="st35" d="M57.9,75.1c-1.5-0.9-3.3-1.5-4.4-2.9c1.5-1.4,3-2.9,5.4-2.4c1.3,0.8,2.6,1.6,3.9,2.4
	C61.3,73.5,59.8,74.6,57.9,75.1z"/>
<path class="st60" d="M48.1,62.6c0.2,0.2,0.4,0.4,0.6,0.6c0.1,0.2,0.1,0.4,0,0.6c-0.9,2,0,4.1-0.4,6.1c-1.6,1.3-3.2,2.5-5.3,3
	c-0.2-0.1-0.4-0.3-0.6-0.5c-0.5-2-0.3-3.9-0.2-5.9c0.8-2.3,3.2-2.6,4.8-3.9C47.5,62.3,47.8,62.3,48.1,62.6z"/>
<path class="st11" d="M47.7,44c0.1-0.1,0.2-0.2,0.3-0.2c1.5,1.4,3.8,1.6,4.9,3.5c0,2.1,0.8,4.3-0.5,6.3c-2.1-0.2-3.6-1.4-5-2.8
	C46.7,48.4,46.7,46.2,47.7,44z"/>
<path class="st16" d="M57.8,56.4c1.2,2.2,0.3,4.5,0.6,6.7c0,0,0.1,0,0.1,0c-0.4,0.3-0.9,0.1-1.3,0c-1.2-0.6-2.5-1.1-3.1-2.4
	c-1.7-1.9-0.7-4.2-0.8-6.3c0-0.4,0.8,0.2,1.3,0.1C55.9,54.5,57,55.1,57.8,56.4z"/>
<path class="st18" d="M48.1,62.6c-0.3,0.1-0.6,0.1-1,0.2c-1.8,0-3.1-1.1-4.4-2.3c-0.8-2.2-1.1-4.4,0.1-6.6l0,0
	c0.2-0.2,0.4-0.2,0.6-0.2c1.5,0.6,2.9,1.2,3.8,2.6C48.8,58.2,47.5,60.5,48.1,62.6z"/>
<path class="st44" d="M53,47.2C51.3,46,49,45.8,48,43.7c0.2,0,0.3,0,0.5-0.1c0.4-0.3,0.7-0.2,1.1,0c1.3-0.6,2.4-1.7,4-1.9
	c1.1,0.6,2.2,1.3,3.3,1.9c0.4,0.7,0.2,1.1-0.5,1.5C55.3,45.8,54.1,46.5,53,47.2z"/>
<path class="st37" d="M47.3,56.3c-1.3-0.8-2.6-1.6-3.9-2.4c0.9-2.2,2.7-2.8,4.9-2.9c1.4,0.8,2.9,1.7,4.3,2.5
	C51,54.8,49.3,55.9,47.3,56.3z"/>
<path class="st2" d="M54,60.7c1.1,0.7,2.3,1.3,3.4,2c0.7,1.1-0.3,1.4-0.9,1.8c-1,0.7-2.1,1.5-3.4,1.8c-1.9-0.2-3.4-1.2-4.4-2.9
	c0-0.1,0-0.2,0-0.4C50.4,62.1,51.8,60.5,54,60.7z"/>
<path class="st2" d="M57.8,56.4c-1.1-0.7-2.2-1.3-3.3-2c-0.4-0.7-0.2-1.1,0.5-1.5c1.2-0.6,2.3-1.3,3.5-2c1.4,0.8,2.8,1.7,4.3,2.5
	C61.4,54.9,59.7,55.8,57.8,56.4z"/>
<path class="st53" d="M53,66c1.4-1.3,3.5-1.5,4.4-3.4c0.3,0.1,0.7,0.3,1,0.4c0.1,2.3-0.7,4.6,0.5,6.8c-2.1,0.2-3.4,2-5.4,2.4
	l-0.2,0.1L53,72.2c-0.1-0.1-0.2-0.2-0.3-0.3C52.2,69.9,51.9,67.9,53,66z"/>
<path class="st2" d="M53.6,97.8c1.3,0.8,2.6,1.6,3.9,2.3c-1.3,1.5-3,2.4-4.9,3c-1.3-0.8-2.7-1.5-4-2.3
	C49.3,98.9,51.4,97.6,53.6,97.8z"/>
<path class="st17" d="M27.4,100.7c-0.3-0.2-0.6-0.4-0.9-0.5c-2-0.1-3.3-1.3-4.6-2.6c-0.7-2.2-1-4.4,0.2-6.5l0,0
	c0.5-0.3,0.9,0,1.4,0.2c1.6,1.1,3.7,1.7,4.5,3.8C28.1,97,28.5,98.9,27.4,100.7L27.4,100.7z"/>
<path class="st37" d="M22.5,97.8c1.3,0.8,2.6,1.6,3.9,2.4c-1.4,1.4-3,2.4-4.9,3c-1.3-0.8-2.6-1.5-4-2.3
	C18.3,98.8,20.4,97.6,22.5,97.8z"/>
<path class="st50" d="M53.6,97.8c-1.9,0.6-3.6,1.5-5,3c-0.3-0.2-0.6-0.4-0.9-0.6c-0.6-2.1-0.4-4.2-0.2-6.3c1.2-1.5,3.1-2,4.4-3.4
	c0.6-0.2,0.8,0.2,1.1,0.6c0,0-0.1,0-0.1,0C53.4,93.3,52.5,95.6,53.6,97.8z"/>
<path class="st19" d="M47.7,94c0.4,2.1,0.4,4.2,0,6.2c0,0.1,0,0.2,0,0.4c-0.1,0.2-0.3,0.3-0.5,0.3c-1.3-1.1-3.2-1.6-4.2-3.1
	c0-2.1-0.9-4.3,0.4-6.3C45.2,91.6,46.6,92.6,47.7,94z"/>
<path class="st5" d="M47.3,100.7c0.2,0,0.3-0.1,0.4-0.1c0.4,2.1-0.7,4.2,0,6.3c-1.1,1.3-2.5,2.2-4.3,2.1c-0.9-1-0.5-2.2-0.6-3.3
	c-0.1-0.8,0.2-1.7-0.5-2.5C43.8,102,45.1,100.5,47.3,100.7z"/>
<path class="st61" d="M22.5,97.8c-1.9,0.6-3.6,1.5-4.9,3c-0.2-0.1-0.3-0.3-0.5-0.4c0.4-2.2,0-4.4,0.1-6.6c1-1.5,3.4-1.1,3.9-3.2
	c0.3,0.1,0.7,0.3,1,0.4C22.2,93.3,21.4,95.6,22.5,97.8z"/>
<path class="st36" d="M17.7,63.5c0-0.1,0-0.3,0-0.4c1.2-2,2.9-3,5.3-2.9c1.4,0.5,2.8,1,3.4,2.5c-1.4,1.6-3,2.8-5.3,2.8
	C19.9,64.8,18.8,64.2,17.7,63.5z"/>
<path class="st58" d="M31.7,53.5c0.2,0,0.3,0,0.5-0.1c0,2.2,0,4.4,0,6.6c0.3,1.2-0.8,1.4-1.4,1.9c-0.9,0.7-2,1.1-2.5,2.1
	c-0.7,1.9,0.1,3.9-0.4,5.8c-0.4,0.2-0.7,0.2-1-0.1c-0.7-2.2,0.2-4.5,0-6.7c-0.2-2.1-0.2-4.3-0.3-6.4C27.9,55,29.9,54.3,31.7,53.5z"
	/>
<path class="st17" d="M26.4,81.5c-1.4-0.8-2.8-1.7-4.2-2.5c0.1-2.1-0.7-4.3,0.4-6.3c2,0.2,3.4,1.4,4.9,2.6c0.9,2.1,0.8,4.2,0.2,6.3
	C27.2,82.2,26.8,82,26.4,81.5z"/>
<path class="st15" d="M26.8,56.4c0.8,2.2,0.7,4.4,0.1,6.6c-0.2-0.1-0.4-0.2-0.5-0.4c-1.1-0.7-2.3-1.3-3.4-2c-1.9-1.2-2.3-3.6-1-6.8
	C24.2,53.5,25.5,54.9,26.8,56.4z"/>
<path class="st44" d="M26.8,75.2c-1.4-0.8-2.8-1.7-4.3-2.5c1.4-1,2.9-1.9,4.3-2.9c0.3,0,0.6,0,1,0.1c1.9,0.1,3.6,0.6,4.1,2.9
	C30.4,74,29.1,75.5,26.8,75.2z"/>
<path class="st52" d="M22.5,53.8c-0.8,2.3-1.2,4.6,0.4,6.8c-2.3-0.3-3.6,1.4-5.3,2.4c-0.9-2.3-0.2-4.6,0-6.9
	c1.3-0.9,2.6-1.8,3.8-2.7c1.1-2,0.4-4.2,0.4-6.3c1.4-1.2,3.3-1.7,4.6-3.1c0.3,0.2,0.6,0.4,0.9,0.6c-0.3,2.1-0.3,4.2,0,6.2
	C26.2,52.6,24.5,53.4,22.5,53.8z"/>
<path class="st61" d="M23,91.6c-0.3-0.2-0.6-0.3-1-0.5c-0.2-2.2,0.7-4.6-0.6-6.7c1.9-0.4,3.4-1.5,4.9-2.5c1.2,0.6,1.1,1.6,1.1,2.7
	c0.1,1-0.1,2.1,0.3,3c0.1,0.3,0.2,0.7,0.2,1.1C26.3,89.7,24.6,90.6,23,91.6z"/>
<path class="st31" d="M27.4,88.2c-1-1.1-0.4-2.4-0.5-3.6c-0.1-0.9,0-1.9-0.5-2.7c0-0.1,0-0.3,0-0.4c0.5-0.2,0.7,0.3,1,0.4
	c0.1,0.1,0.2,0.2,0.3,0.3C28.2,84.2,28.5,86.2,27.4,88.2z"/>
<path class="st35" d="M47.3,100.7c-1.8,0.5-3.1,2.1-5,2.5c-1.4-0.9-2.8-1.7-4.3-2.6c1.6-1,3.3-1.9,4.9-2.9
	C44.5,98.6,46.3,99,47.3,100.7z"/>
<path class="st15" d="M42.8,72.8c0.2,0,0.4,0,0.5-0.1c1.8,0.2,3.2,1.2,4.5,2.3c1,2.3,0.2,4.8,1.1,7.1c0,0.2,0,0.5,0,0.7
	c-0.4,1.7,0.4,3.6-0.8,5.2c-0.8-1.5-0.1-3-0.3-4.6c-0.1-0.7,0.5-1.6-0.7-2c-2.1-0.1-3.6-1.2-4.8-2.8c-0.3-1.9-0.5-3.8,0.1-5.6
	C42.7,73,42.8,72.9,42.8,72.8z"/>
<path class="st17" d="M37,100.3c-1.5-0.9-3.1-1.8-4.6-2.7c-1.7-1.9-1-4.1-0.6-6.2c0.4-0.6,1-0.5,1.5-0.3c1.3,1,3.2,1.3,4.1,2.9
	C37.4,96.1,38.1,98.3,37,100.3z"/>
<path class="st10" d="M42.3,84.4c1.1,2,0.4,4.2,0.5,6.2c-0.3,0-0.6,0-0.9,0c-1.7,0.1-2.7-1.2-4-1.9c-1.7-2-1.1-4.2-0.7-6.5
	c0.3-0.6,0.8-0.6,1.3-0.5C39.9,82.5,41.5,82.9,42.3,84.4z"/>
<path class="st17" d="M48.2,88c0.3-1.9-0.6-3.8,0.5-5.6c1.7-0.1,3,0.5,3.8,2c1.3,2.2,0.4,4.5,0.6,6.7c-0.3-0.2-0.7-0.3-1-0.5
	c-1.6,0.2-2.6-0.7-3.4-2C48.5,88.4,48.4,88.2,48.2,88z"/>
<path class="st2" d="M38.5,88.7c1.1,0.7,2.3,1.3,3.4,2c-0.8,2-3.1,1.9-4.3,3.4c-1.4-0.8-2.9-1.7-4.3-2.5
	C33.9,89.2,36,88.1,38.5,88.7z"/>
<path class="st2" d="M48.7,88.6c1.1,0.7,2.2,1.3,3.4,2c-0.6,2.1-3,2.2-4.4,3.4c-1.4-0.8-2.9-1.7-4.3-2.5
	C45,90.1,46.5,88.8,48.7,88.6z"/>
<path class="st2" d="M42.3,84.4c-1.2-0.7-2.5-1.4-3.7-2.1c0.1-1.8,1.8-3.1,4.4-3.3c1.4,0.8,2.9,1.7,4.3,2.5
	C45.8,82.9,44.2,83.8,42.3,84.4z"/>
<path class="st9" d="M32.2,91.6c-0.1,2-0.1,4.1,0.2,6.1c-1.5,1-3.1,2.1-4.6,3.1c-0.2,0-0.3,0-0.5,0c0-2.1,0-4.1,0-6.2
	c-0.6-1.1,0.3-1.6,1-2c0.9-0.6,1.9-1.2,2.6-1.9c0.2-0.1,0.4-0.2,0.6-0.2C32.1,90.6,31.9,91.2,32.2,91.6z"/>
<path class="st62" d="M42.9,53.9c0.1,2.2-0.8,4.6,0.6,6.7c-1.5,1.2-3.4,1.7-4.8,3c-0.4,0.1-0.7,0-1-0.2c-0.1-0.1-0.1-0.2-0.2-0.3
	c-0.2-2.3,0.6-4.6-0.5-6.8c1.9-0.5,3.6-1.4,4.9-3C42.3,53.5,42.6,53.7,42.9,53.9z"/>
<path class="st29" d="M48.2,51c-1.7,0.9-3.5,1.6-4.9,2.9c-0.2,0-0.3,0-0.5,0c-0.3-2.3,0.4-4.6-0.4-6.8c1.7-0.7,3.3-1.7,4.8-2.8
	c0.2-0.1,0.4-0.2,0.5-0.3C48.2,46.3,47.4,48.7,48.2,51z"/>
<path class="st29" d="M49.6,43.7c-0.4,0-0.7,0-1.1,0c-0.9-1-0.7-2.1-0.4-3.3C48,41.8,49.5,42.4,49.6,43.7z"/>
<path class="st63" d="M36.6,62.6c0.3,0.2,0.6,0.3,1,0.5c0,0,0-0.1,0-0.1c1.2,2,0.6,4.2,0.8,6.3c-1.2,1.9-3.4,2.4-5.2,3.5
	c-0.6,0-0.9-0.3-1.1-0.8c-0.7-2-0.4-3.9-0.1-5.9C32.9,64.2,35,63.8,36.6,62.6z"/>
<path class="st36" d="M36.6,62.6c-0.8,2-3,2.1-4.3,3.4c-2,0-3.4-0.9-4.3-2.5c1-1.7,3.4-1.7,4.3-3.4C33.7,60.9,35.1,61.7,36.6,62.6z"
	/>
<path class="st37" d="M22.5,53.8c1.6-1,3.3-1.9,4.9-2.9c1.4,0.8,2.9,1.7,4.3,2.5c-1.4,1.5-3.1,2.4-4.9,3
	C25.3,55.7,23.8,54.9,22.5,53.8z"/>
<path class="st36" d="M52.5,84.4c-1.3-0.7-2.5-1.3-3.8-2c0-0.1-0.1-0.2-0.1-0.4c0.8-2.2,2.6-2.7,4.6-3.1c1.4,0.8,2.8,1.7,4.2,2.5
	C56.2,83.1,54.5,83.9,52.5,84.4z"/>
<path class="st47" d="M53.2,78.9c-1.4,1.2-3.3,1.7-4.6,3.1c-1.2-0.9-0.4-2.2-0.6-3.3c-0.2-1.2,0.2-2.4-0.3-3.5
	c1.2-1.7,3-2.3,4.8-3.2c0.2,0,0.4,0.1,0.6,0.2c0,0-0.1,0-0.1,0C53.1,74.5,53.1,76.7,53.2,78.9z"/>
<path class="st57" d="M38.1,69.8c-1.1-2.2-0.2-4.5-0.5-6.8c0.3,0.2,0.7,0.3,1,0.5c1.9,0.1,3.3,1.1,4.3,2.6c0,2.2,0,4.4,0,6.7
	c0,0,0,0,0,0c-0.5,0.3-0.8,0-1.2-0.2C40.5,71.5,38.8,71.3,38.1,69.8z"/>
<path class="st16" d="M53.1,72.3c-0.2,0-0.4,0-0.5,0c-1.8-0.3-3.2-1-4.2-2.6c-0.9-2-0.2-4-0.4-6.1c0,0,0.5-0.1,0.8-0.2
	c1.4,0.8,2.9,1.7,4.3,2.5C53,68.1,53,70.2,53.1,72.3z"/>
<path class="st2" d="M42.8,66.1c-1.4-0.9-2.9-1.7-4.3-2.6c1.1-1.9,2.9-2.6,4.9-3c1.2,0.7,2.5,1.4,3.7,2.2
	C46.2,64.5,43.9,64.5,42.8,66.1z"/>
<path class="st36" d="M48.3,69.7c1.4,0.9,2.8,1.7,4.2,2.6c-1.6,1-3.3,1.9-4.9,2.9c-1.4-0.8-2.9-1.7-4.3-2.5
	C44.8,71.4,46.5,70.4,48.3,69.7z"/>
<path class="st2" d="M31.2,90.6c0.1,1.2-0.9,1.3-1.6,1.8c-0.8,0.6-2.2,0.8-2.3,2.2c-1.5-1-2.9-2-4.4-3c1.1-1.8,2.9-2.6,4.9-3
	C29.6,88.3,30.5,89.3,31.2,90.6z"/>
<path class="st19" d="M27.9,63.4c1.4,0.8,2.9,1.7,4.3,2.5c0.2,2.1,0.2,4.2,0,6.4c0.1,0.1,0.2,0.1,0.2,0.3c0,0.1,0,0.2-0.1,0.2
	c-0.2,0.1-0.3,0.1-0.5-0.1c-0.8-1.6-2.7-1.9-4-2.9C27,67.7,26.7,65.5,27.9,63.4z"/>
<path class="st31" d="M31.8,72.7c0.2,0,0.3-0.1,0.4-0.2c1,2.1,0.2,4.2,0.4,6.4c-1,1.8-2.9,2.5-4.7,3.2c-0.3,0-0.5,0-0.7-0.2
	c0,0,0,0,0,0c-0.5-2.2,0.4-4.6-0.6-6.7C28.5,74.4,30.1,73.5,31.8,72.7z"/>
<path class="st18" d="M27.3,81.9c0.1,0.1,0.3,0.2,0.4,0.1c1.9,0.2,3.3,1.3,4.6,2.6c0.5,2.1,1.5,4.3-0.6,6.2c-0.2,0-0.3-0.1-0.5-0.1
	c-1.1-0.6-2.2-1.3-3.3-1.9c-0.2-0.1-0.4-0.3-0.5-0.4C27.1,86.1,27.2,84,27.3,81.9z"/>
<path class="st8" d="M42,72.1c0.3,0.2,0.6,0.4,0.9,0.6c-0.2,2.1-0.2,4.2,0,6.2c-1.4,1.2-3.7,1.3-4.4,3.3c-0.3-0.1-0.7-0.3-1-0.4
	c-0.1-0.1-0.2-0.2-0.3-0.3c-0.6-2-0.5-4-0.1-6.1C38.2,73.7,40.1,73,42,72.1z"/>
<path class="st31" d="M31.7,90.7c1.1-2.1,1-4.3,0-6.4c1.6-1.2,3.2-2.3,5.2-2.7c0.2,0,0.4,0.1,0.6,0.3c0,0,0,0,0,0
	c0,1.6,0.1,3.2,0,4.8c0,0.9,0.3,1.5,0.9,2c-2.3,0-3.9,1.2-5.3,2.8c-0.3,0.2-0.7-0.4-1,0C31.9,91.4,31.7,91.1,31.7,90.7z"/>
<path class="st10" d="M37.6,81.9c0,0-0.2-0.1-0.2-0.1l-0.2,0.1c-1.9-0.6-3.6-1.4-4.9-3c0-2.1,0-4.2,0-6.4c0,0-0.1-0.2-0.1-0.2
	c0.3,0.2,0.6,0.3,0.9,0.5c1.9,0,3.2,1.1,4.3,2.4C37.5,77.5,37.5,79.7,37.6,81.9z"/>
<path class="st2" d="M37.4,75.3c-1.4-0.8-2.9-1.6-4.3-2.4c1.4-1.5,3-2.5,5-3c1.3,0.8,2.6,1.6,3.9,2.3C40.9,73.7,39,74.2,37.4,75.3z"
	/>
<path class="st2" d="M32.2,78.9c1.8,0.8,3.5,1.6,4.9,3c-2,0.5-3.3,2.3-5.4,2.4c-1.3-0.8-2.6-1.6-4-2.3
	C29.3,80.9,30.7,79.9,32.2,78.9z"/>
</svg>
