<?xml version="1.0" encoding="utf-8"?>
<!-- Generator: Adobe Illustrator 23.1.1, SVG Export Plug-In . SVG Version: 6.00 Build 0)  -->
<svg version="1.1" id="Livello_1" xmlns="http://www.w3.org/2000/svg" xmlns:xlink="http://www.w3.org/1999/xlink" x="0px" y="0px"
	 viewBox="0 0 80 135" style="enable-background:new 0 0 80 135;" xml:space="preserve">
<style type="text/css">
	.st0{fill:#FFFFFF;stroke:#000000;stroke-width:0.2509;stroke-miterlimit:10;}
	.st1{fill:#474D44;}
	.st2{fill:#494F49;}
	.st3{fill:#533637;}
	.st4{fill:#525567;}
	.st5{fill:#6E674B;}
	.st6{fill:#CED1D1;}
	.st7{fill:#6A585C;}
	.st8{fill:#716A46;}
	.st9{fill:#B9B9BA;}
	.st10{fill:#919191;}
	.st11{fill:#949596;}
	.st12{fill:#8C8C8C;}
	.st13{fill:#F3F3F1;}
	.st14{fill:#7A787E;}
	.st15{fill:#3E3D42;}
	.st16{fill:#544E30;}
	.st17{fill:#E34549;}
	.st18{fill:#958248;}
	.st19{fill:#F5E631;}
	.st20{fill:#91813B;}
	.st21{fill:#A08D43;}
	.st22{fill:#F2F2F2;}
	.st23{fill:#F0E733;}
	.st24{fill:#B8A93E;}
	.st25{fill:#D4BA3B;}
	.st26{fill:#C94B49;}
	.st27{fill:#AC9C4C;}
	.st28{fill:#DBC940;}
	.st29{fill:#C7AF41;}
	.st30{fill:#F9EB30;}
	.st31{fill:#BAA13B;}
	.st32{fill:#EC413B;}
	.st33{fill:#AD373B;}
	.st34{fill:#B9403E;}
	.st35{fill:#969698;}
	.st36{fill:#F6F6F5;}
	.st37{fill:#F2F3F0;}
	.st38{fill:#F1F2EF;}
	.st39{fill:#F3F3F3;}
	.st40{fill:#8A888A;}
	.st41{fill:#505877;}
	.st42{fill:#555E88;}
	.st43{fill:#555D87;}
	.st44{fill:#535B82;}
	.st45{fill:#565F88;}
	.st46{fill:#CDB740;}
	.st47{fill:#CBB954;}
	.st48{fill:#907F3C;}
</style>
<path class="st0" d="M71.5,135h-63c-4.7,0-8.5-3.8-8.5-8.5V8.5C0,3.8,3.8,0,8.5,0h63C76.2,0,80,3.8,80,8.5v118
	C80,131.2,76.2,135,71.5,135z"/>
<path class="st1" d="M17.2,89.2C17,89.1,17,88.9,17,88.8c0.3-1.9,1.5-2.7,2.6-1.4c1.2,1.3,2.4,1.5,4,1.6c1.7,0.1,2.1-0.6,1.9-2.3
	c-1,1.3-2.2,2.1-3.7,1.1c-1.3-0.8-0.8-1.9-0.3-2.9c1-0.5,2-1.4,2.3,0.4c0-1.1,0-1.1-2-1.1c-0.8,0.5-0.6,1.4-0.8,2.1
	c-0.2,0.5-0.5,0.8-1,0.7c-0.6-0.1-0.8-0.5-0.8-1c0.2-1.7,0.4-3.1,2.4-4.1c1.2-0.6,2-1.1,3.2-0.4c1.4,0.4,1.9,2.1,3.5,2.3
	c-1.3-1.7-3.3-2.8-3.7-5.1c0.1-0.8,0.5-1.3,1.3-1.1c1.6-0.2,0.9-0.8,0.3-1.4c-0.6-0.5-1.5,0-2.2-0.3c-1.1-1.4,0.5-1.6,1-2.2
	c3.2-0.1,4.9,2.6,3.4,5.4c-0.2,0.4-0.9,0.8-0.4,1.4c0.1,0.1,0.3,0.2,0.4,0.2c0.8-0.1,0.8-0.7,0.9-1.2c0.4-2,0.8-4.1,3-5.3
	c0.1,0-0.3-0.4-0.2-0.1c-0.8,0.5-1.6,0.5-2.2-0.1c-0.5-0.5,0-1,0.5-1.3c1.7-0.3,3.6-0.9,4.7,1.2c-2.4,1.7-2,4-1.4,6.3
	c0.2,0.8-0.2,1.4-0.5,2c-0.3,0.5-0.7,0.8-1.4,0.8c-0.8-0.1-0.5-0.9-0.8-1.5c-0.3,2.4-0.3,2.4,1.2,6.3c-0.3-1.3-0.2-1.3-1.2-2.5
	c-0.7-0.8-0.5-1.7,0.4-1.9c1.8-0.5,2.1-1.7,2.5-3.3c0.2-1.1,1-2.6,2.7-1.4c0.2,0.4,0.5,0.6,0.9,0.7c1.2,0.1,1.9,0.8,1.8,2
	c-0.1,1.3-0.9,2.2-2.1,2.3c-2.2,0.1-1.8,1.2-1.2,2.5c1.1,2.4,2.4,3,5.6,2.4c0.7,0,1.3,0.4,1.8,0.7c2,0.2,3.3-0.8,4.2-2.5
	c0.1-0.2,0.3-0.3,0.5-0.4c2.3-0.2,2.2-0.2,2.2,2.1c0,0.7,0.9,0.2,1.3,0.3c0.3,0,0.7,0.1,1,0.1c2.3,0.5,4.4-0.3,6.6-0.7
	c2.2-0.4,3-3.3,1.8-5.1c-0.3-0.4-0.7-0.8-0.2-1.7c0.5-0.8,1.4-2.2-0.2-3.1c-0.3-0.2,0.3-0.6,0.3-1c0-0.2-0.1-0.3-0.1-0.5
	c-0.3-0.4-0.5,0-0.8,0.1c-0.7,0.1-1.6,0.3-1.8-0.5c-0.2-0.7,0.7-0.9,1.3-1.1c1.5-0.7,1.1-1.6,0.4-2.6c-0.2-0.1-0.3-0.3-0.4-0.5
	c-0.1-0.4-0.1-0.8,0-1.2c0.4-0.6,0.9-0.9,1.6-0.8c1.2,0.7,1.3,2.2,2.1,3.1c0.2,0.3,0.4,0.5,0.5,0.8c0.1,0.5-0.3,0.7-0.6,1
	c0,0.1,0,0.3,0,0.4c0.4,0.4,0.1,1,0.4,1.5c0.9,4,0.5,7.9-0.6,11.8c-1.9,6.7-6.5,10.9-13,13.3c-0.8,0.3-1.7,0.5-2.5,0.8
	c-2.1,0.6-2.5,2-2.6,4.2c-0.1,2.2,1,3.4,2.1,4.8c1.1,1.4,2.2,2.9,3.8,3.9c0.1,0.1,0.2,0.3,0.1,0.4c0,0.1-0.1,0.2-0.1,0.2
	c-1.3,0.7-2.1-0.3-2.9-1c-1.9-1.7-3.5-3.6-5.6-5.1c-0.3,0-0.6,0.1-0.9,0.2c-0.7,0.6-1.2,1.6-2.3,0.5c-0.4-0.4-0.7,0-0.8,0.4
	c-1.4,2.2,0.5,3.3,1.7,4.7c1.2-1.4,2.8-2.5,1.5-4.7c-0.3-0.4,0-0.9,0.6-1.1c1.2,0.2,1.7,1.2,1.9,2.2c0.3,1.4,0.6,2.5,2.4,2.3
	c0.6-0.1,1.1,0.5,1.6,1c0.8,0.8,1.8,1,2.8,1.1c0.6,0.1,1.2,0.2,1.8,0.5c0.9,0.5,0.9,1-0.1,1.4c-5.7,0.6-11.3,0.1-17,0.2
	c-2.1,0-4.2,0.3-6.2-0.3c-1-0.4-0.7-0.9-0.1-1.5c1.4-0.9,2.7-2,4.5-2.5c1.3-0.4,2.1-1.7,1.5-3.4c-0.4-0.3-0.9-0.5-0.7-1.2
	c0.2-0.5,0.8-0.8,0.5-1.5c-0.3-0.6-0.2-1.1,0-1.8c0.5-1.5-0.5-3.3-1.9-3.7c-3.4-1-6.6-2.3-9.5-4.5c-2.5-1.9-4.6-4.1-5.5-7.2
	C17.7,90.5,17.4,89.9,17.2,89.2z"/>
<path class="st2" d="M20.9,38.2c0.6-0.8,1.3-1.6,2.3-1.9c0.5-0.1,0.8-0.4,1.1-0.8c0.1-0.1,0.2-0.2,0.3-0.2c0.6-0.2,1.2-0.4,1.5-1
	c2.4-1.4,4.6-3.3,7.5-3.9c0.5-0.1,1-0.5,1.5-0.7c0.6-0.3,0.8-0.6,0.3-1.3c-0.5-0.7-0.9-1.6-0.2-2.2c1.4-1.2,0.6-2.1-0.1-3.2
	c-0.7-1.1-1-2.3-1.9-3.3c-0.7-0.8-0.2-1.3,0.5-1.4c1.8-0.1,2.2-1.3,2.7-2.8c0.5-1.5,1.4-2.9,2.5-4.1c1.3-1.5,1.7-1.5,3,0
	c1.1,1.4,2,2.9,2.7,4.5c0.4,0.9,0.8,1.4,1.8,1.6c1.9,0.4,2,0.7,0.9,2.3c-1,1.5-1.2,3.5-2.4,4.9c-0.2,0.3-0.1,0.7,0.1,0.9
	c1.1,1,0.6,2-0.1,2.9c-0.5,0.7-0.2,1.2,0.5,1.6c0.5,0.3,1,0.7,1.5,0.8c1.9,0.4,3.7,1.1,5.2,2.5c0.4,1.6-1,1.9-1.9,2.6
	c-0.8,0.5-1.8,0.6-2.7,0.8c-0.6,0.1-1.3,0.4-1.9,0.4c-0.2,0-0.4,0-0.6-0.1c-0.6-0.2-1.2-0.1-1.8,0.1c-1.1,0.2-2.2,0.6-3.4,0.4
	c-3.1-0.3-6.1-1.1-9-2c-2.9-0.9-4.8,0.8-6.6,2.7C22.4,39.7,22,39.6,20.9,38.2z"/>
<path class="st3" d="M61.3,43.8c0,0.2,0,0.5-0.1,0.7c0.2,0.3,0.8,0.7,0.4,0.9c-1.3,1.1-0.7,2,0.1,3c-2,1.1-2.8,3-3.4,5
	c-1.4,1.2-0.5,3.1-1.5,4.5c-2.3,1.1-4.4,2.8-7.2,1.7c-0.4-0.4-0.6-1-0.4-1.3c2.3-2.8,0.8-6.3,1.5-8.7c-0.1,1.4,0,3.5-0.7,5.9
	c-2-2.3-0.2-4.4-0.7-6.2c-0.2,0.6,0.2,1.6-0.3,2.5c-1.6-0.6-0.5-2.4-1.6-3.2c-0.3,0-0.6,0-0.9,0c-1.8-0.6-3.6,0.4-5.3,0.2
	c-1.9,0.4-3.7-0.2-5.5-0.5c-1.3-0.4-2.7-0.3-4-0.5c-0.2,0-0.4,0-0.6,0c-1.7-0.3-3.1,1.3-4.8,0.5c-0.1-0.1-0.1-0.3-0.3-0.2
	c1.2,1-0.4,2,0,3.3c0.8,2.5,1.3,5.2,0.3,7.8c-1.8,0.5-3.3,0.1-4.5-1.5c-0.9-1.6-0.7-3.4-0.9-5.1c-0.2-2.3-1.1-3.8-3.6-3.9
	c-1.1-0.7-0.1-1.3,0.1-1.9c0.1-0.3,0.8-0.7,0-1c-0.5-0.4-0.9-0.8,0-1.1c0.5-0.1,0.8-0.4,1-0.9c0.4-1.3,1.2-1.7,2.6-1.2
	c8.1,2.8,16.5,3.5,25,3c4.3-0.3,8.2-1.9,12.4-2.5C59.5,43,60.7,42.4,61.3,43.8z"/>
<path class="st4" d="M61.3,43.8c-2.1-0.6-4,0.2-5.9,0.8c-3.9,1.2-7.8,1.7-11.8,1.9c-5.8,0.3-11.6-0.2-17.3-1.6
	c-2.2-0.5-4.5-1.1-6.6-2.1c-0.3,0.6-0.6,1.2-0.9,1.8c-0.5,0-0.7-0.3-0.7-0.7c-0.1-0.7-0.7-1-1-1.6c-0.8-1.5-0.2-2.9,1.4-3.1
	c0.9-0.1,1.6-0.5,2.2-1.1c0.9,0.5,1.7,1.2,2.7,0.1c0.6-0.3,0.9,0,0.8,0.6c-0.1,0.7,0.3,1,0.8,0.6c0.9-0.6,1,0.1,1.6,0.6
	c1.8,1.5,4,1.5,6.2,1.7c0.2,0,0.5,0,0.7,0.1c5,0.9,10,0.7,15-0.3c2.7,0.3,4.8-1.8,7.4-2.1c-0.1-0.7-1.2-1.2-0.5-2
	c0.6-0.6,1.1,0.1,1.6,0.4c0-0.4-0.5-0.8,0-1.1c0,0,0.1-0.1,0.2-0.1c0.1,0,0.1,0.1,0.2,0.1c0.9,0.2,1.4,1,2.1,1.5
	c0.4,0.4,0.6,0.9,1.3,0.9c1.2,0,2,0.5,2.2,1.7c0.2,1.3-0.5,2.1-1.5,2.7C61.5,43.7,61.4,43.7,61.3,43.8z"/>
<path class="st5" d="M24.8,82c-0.8,0.1-1.2-0.7-2.1-0.9c-0.1,0.7,0.8,1,0.8,1.6c-0.3,0.3-0.6,0.1-0.9,0c-0.8-0.3-1.8-0.2-2.1,0.6
	c-0.4,1.1-1,2.1-0.7,3.3c0,0.1,0.3,0.1,0.4,0.1c0.3,0,0.4-0.2,0.4-0.4c-0.1-1,0.1-2,0.8-2.8c0.4,0.4,0.9,0.8,0.5,1.4
	c0,0.3,0.1,0.7,0,0.9c-0.2,0.6-0.5,1.2,0.3,1.6c0.7,0.3,1.4,0.6,2-0.1c0.6-0.7,1.3-1.2,2.1-1.8c0,0.8,0,1.5,0,2.1
	c0.1,1.9-0.3,2.3-2.1,2.1c-1-0.1-2-0.9-2.8,0.4c-0.1,0.2-0.5,0.2-0.5-0.1c0.1-1.1-0.9-1.2-1.4-1.7c-1.2-1.4-1.6-1.3-2.5,0.6
	c-1.2-2.1-1.1-4.4-1.1-6.7c0-2.3,0-4.6,0.8-6.8c-0.2-1-0.3-1.9,0.4-2.8c0.2-0.4,0.5-0.8,1-0.7c0.4,0.1,0.8,0.4,1.3,0
	c2.1-1.7,4.1-0.9,6.2,0.1c1,0.8,0.8,1.4-0.3,1.9c0,0.4-0.1,0.8-0.5,0.9c-0.9,0.1-0.5,0.7-0.4,1.1c1.2,0.3,3.2-0.1,1.8,2.3
	c-0.7-0.4-1-0.1-1,0.6c-0.6,0.2-1.7-0.2-1.1,1.1C24.4,80.5,25.1,81.1,24.8,82z"/>
<path class="st6" d="M18.2,43.9c0.2,0.2,0.5,0.5,0.7,0.7C18.7,45,18.4,45.1,18,45c-0.2,0-0.5-0.1-0.5,0.2c0,0.1,0.3,0.2,0.5,0.3
	c-0.3,1.6-1.8,0.6-2.5,1.2c-0.1,0-0.1,0.1-0.1,0.1c0.1,0,0.1-0.1,0.2-0.1c0.6,0,1.4-0.1,1,0.8c-0.4,1-0.5,2.2-1.6,2.8
	c-1,1.4-0.5,2.9-0.1,4.3c0.9,2.9,2.1,5.7,2.8,8.6c0.2,0.8,0.5,1.7,0.4,2.6c-0.4,1.5-0.1,3-0.3,4.6c-0.1,0.5-0.4,1-0.7,1.4
	c-1.4,1.4-2.9,2.2-4.9,1.5c-0.8-0.3-1.5-0.9-1.3-1.8c0.3-1.1,1.1-0.5,1.7-0.3c1.1,0.3,2,0.1,2.7-0.9c1-1.5,1.1-3-0.1-4.5
	c-1.6-4.6-3-9.3-4.1-14.1c-0.4-1.8,0.1-3.5,1.1-5c0.8-1.3,2.1-2.1,3.7-2.2C16.5,44.4,17.5,44.8,18.2,43.9z"/>
<path class="st7" d="M34.4,109.9c0.2,0.4,0.5,0.7,0.8,0.9c-0.5,1.9-2,3-3.3,4.2c-0.8,0.7-1.6,1.3-2.3,2c-0.3,0.3-0.7,0.6-1,0.9
	c-0.5,0.7-1.4,0.7-2.1,1c-1,0.3-1.5,0.9-1.3,2c0.2,1,1,1.1,1.8,1.2c3.6,0.1,7.2,0.3,10.8-0.1c4.6-0.5,9.1-0.3,13.6-0.4
	c1.1,0,2.5,0.5,3.2-1c0.6-1.4-0.9-1.8-1.5-2.7c-0.7-0.6-1.6-0.4-2.4-0.8c-0.3-0.3-0.3-0.6,0-0.9c0-0.2,0-0.4,0-0.5
	c1.7,0.4,3.3,0.9,5,1.3c0.7,0.2,1,0.4,0.8,1.1c-0.6,1.8,0.2,3.6-0.4,5.4c-0.6,0.5-1.4,0.3-2.1,0.3c-9.3,0.1-18.7,0.1-28,0.2
	c-0.3,0-0.6,0-1,0c-1.8-0.1-1.8-0.1-1.9-1.9c-0.2-4.5-0.2-4.5,4-5.7c1.9-0.5,3.2-1.7,4.4-3.1C32.5,112,33.2,110.7,34.4,109.9z"/>
<path class="st8" d="M57.5,36.8c-0.4,0.2-0.3,0.5-0.1,0.8c0.5,0.5,1,1,1.1,2c-1.3-0.2-1.6-1.8-2.9-1.9c0,1,1.4,1.4,1.2,2.6
	c-0.7-0.2-1.9-0.6-2-0.3c-0.1,1.9-1.6,0.5-2.3,1c-0.7,0.5-1.5,1.2-2.5,1.3c-0.3,0-0.6-0.2-0.9-0.3c0.4-2.2-1.1-3.8-1.9-5.7
	c2-0.4,3.9-0.8,4.8-2.9C54.3,33.9,56,35.3,57.5,36.8z"/>
<path class="st9" d="M63.5,73.9c-0.1-0.2-0.3-0.3-0.4-0.5c0.1-0.6,0.1-1.1-0.1-1.6c-2.2-5.4,0.1-10.2,1.9-15.1
	c0-0.1,0.2-0.2,0.4-0.3c0.4,0,0.7,0.2,0.9,0.5c0,1.4-0.6,2.7-0.9,4c0.5-1.3,0.9-2.8,1.1-4.3c0.2-0.9,0.4-1.7,1.4-2
	c0,0,0.1,0.1,0.2,0.1c0.1,0.1,0.1,0.2,0,0.4c-0.3,2.3-1.2,4.4-1.8,6.6c-0.6,2-1.2,4-1.1,6.1c0,0.8,0.2,1.6,0.6,2.3
	c0.4,0.7,1.1,0.9,1.8,0.7c0.3-0.1,0.7-0.2,0.6-0.6c-0.1-0.3-0.4-0.4-0.7-0.6c1-0.8,1.6-0.3,2.1,0.6c0.1,1.4-1,1.7-2,1.9
	c-1.2,0.1-2.2-0.2-2.9-1.3c-0.9-1.4-1.2-2.9-1-4c-0.2,1.5,0,3.5,1.8,4.8c1.6,1.1,3.2,0.3,4.6-0.9c0.4,0,0.7,0.2,0.9,0.5
	c0.2,0.7,0.3,1.4,0,2.1C68.7,75.5,66.3,75.7,63.5,73.9z"/>
<path class="st10" d="M15,65.7c0.1-0.1,0.2-0.2,0.4-0.2c1,1.5,1,3.7,0,5c-0.6,0.8-1.4,1.1-2.3,1c-0.7-0.1-1.4-0.2-2.1-0.3
	c0.7,1.6,1.7,2,3.3,1.6c0.9-0.3,1.6-0.9,2.4-1.5c0.5,0.4,0.4,1,0.8,1.4c-0.5,0.8-0.4,1.7-0.8,2.6c-0.2-0.2-0.4-0.3-0.6-0.5
	c-0.8-0.1-1.6,0.2-2.4,0.5c-1.5,0.4-2.8,0.3-3.9-0.9c0.1-0.2,0.2-0.4,0.4-0.5c0.7-0.4,1.5-0.3,1.7-0.3c-1.6,0-2.6-1.4-3.2-3.2
	C8.3,69,8.5,67.7,10,67c0.1,0,0.3,0.1,0.4,0.2c0-0.1-0.1-0.2-0.1-0.4c1-1,1.8-0.5,2.7,0.2c-0.5-1.2-1.4-1.6-2.5-1.4
	c-1.1,0.2-1.7,1.1-2.1,2.1c-0.6,1.6,0.2,3.1,0,4.7c-0.1,0.2-0.2,0.4-0.4,0.5c-1.7-1.8-1.8-3.8-1-6c0.2-0.5,0.5-1,0.9-1.4
	c1.5-1.7,4.1-1.9,5.5-0.5c1.6,1.5,1.4,3.6-0.6,5.5c1.7,0.3,2.9-0.9,2.8-2.8C15.5,67.1,15.2,66.4,15,65.7z"/>
<path class="st11" d="M61.6,48.3c-0.4-0.9-1.5,0.3-1.8-0.6c-0.2-0.9,0.3-1.6,1-2c0.6-0.3,0.3-0.8,0.4-1.2c0.5-0.1,1.1-0.2,1.6-0.3
	c3.2-0.6,6,1.7,6.1,4.9c0,0.7-0.1,1.4-0.1,2.1c-0.2,0.1-0.4,0.1-0.6,0c-0.5-1.4-0.4-3-1.3-4.3c-0.5-0.7-1.2-1.2-2.2-1.5
	c2.7,1.4,4.1,4.9,2.9,7.3c-0.2,0.4-0.4,1.1-1.2,0.7C65.7,52.3,66.2,51,66,50c0.3,3.4-0.9,6.5-2.6,9.6c-0.4,0-0.7-0.2-0.9-0.5
	c-0.3-1.9,0.7-3.5,1.1-5.2C64.4,50.9,64,49.7,61.6,48.3z"/>
<path class="st12" d="M70.7,71.3c-0.1-0.1-0.2-0.3-0.4-0.4c-0.3-0.1-0.6-0.4-1-0.5c-0.6-0.4-1-1.2-2-0.8c-1.8-1.5-2-3.2-0.5-4.6
	c1.5-1.5,4.1-1.3,5.5,0.4c1.6,1.9,1.5,5.5-0.3,7.5c-1.9,2.2-4.3,2.9-7.1,2.3c-0.6-0.1-1.2-0.3-1.8-0.5c-0.1-0.4,0.2-0.6,0.3-0.9
	c1.9,0.9,3.7,1.3,5.7,0.4c0.7-0.3,1.2-0.7,1.6-1.3c0.4-1.2,1-2.3,1.2-3.6c0.4-2.8-1.3-4.3-4.1-3.5c1.5-0.4,2.8-0.2,3.4,1.3
	C72,68.6,72.4,70.2,70.7,71.3z"/>
<path class="st13" d="M66.5,53.7c0.5-0.7,0.7-1.6,0.8-2.4c0.3-3-0.9-4.6-4.2-5.8c2.3-0.6,3.8,0,4.8,2.1c0.5,1.2,0.6,2.4,0.6,3.7
	c0.3,1-0.8,1.9,0,2.9c0,0.4-0.1,0.8-0.5,1c-1.3,0.4-0.9,1.8-1.4,2.7c-0.2,0.5-0.3,1.1-0.5,1.6c-0.3,0.7-0.5,1.5-1,2.2
	c-0.2-1.6,0.6-3,0.8-4.6c-0.4-1.1,0-2.1,0.3-3C66.3,53.8,66.4,53.8,66.5,53.7z"/>
<path class="st1" d="M56.1,123.3c-0.1-1.8-0.5-3.6,0.4-5.4c0.4,1.5,0.2,3,0.2,4.5C56.7,122.8,56.5,123.2,56.1,123.3z"/>
<path class="st9" d="M68.4,54.1c-1-1-0.3-1.9,0-2.9c0.1,0,0.3,0,0.4,0C69.1,52.3,68.4,53.1,68.4,54.1z"/>
<path class="st14" d="M8,72.9C8,72.6,8,72.4,8,72.2c1.2,0.2,1.9,0.9,2,2c-0.1,0-0.2,0.1-0.2,0.2C8.9,74.3,8.3,73.7,8,72.9z"/>
<path class="st5" d="M13.7,75.3c0.8-0.3,1.4-1.2,2.4-0.5C15.4,75.1,14.6,75.3,13.7,75.3z"/>
<path class="st5" d="M17.2,89.2c0.6,0.5,0.9,1.2,0.8,2C17.4,90.7,17.1,90,17.2,89.2z"/>
<path class="st4" d="M26.1,34.3c-0.2,0.8-0.7,1.1-1.5,1C25,34.8,25.6,34.5,26.1,34.3z"/>
<path class="st4" d="M24.3,35.5c0,0.7-0.5,0.9-1.1,0.8C23.4,35.9,23.8,35.7,24.3,35.5z"/>
<path class="st12" d="M63.5,76.7c-0.6-0.4-0.4-0.9-0.4-1.5C63.6,75.7,63.6,76.2,63.5,76.7z"/>
<path class="st15" d="M25.2,72.3c-0.9-0.7-2.1-0.7-3.1-0.9c-0.9-0.2-1.9-0.1-2.3,0.8c-1,1.8-1.3,0.5-1.7-0.3c0-0.1,0-0.2,0-0.3
	c0.1-0.3,0.1-0.7,0.1-1.1c0-0.6,0.3-1.2,0.5-1.7c0.3-0.9,0.9-1.6,1.3-2.5c0.2-0.4,0.4-0.8,0.9-0.9c1.8,0.8,0.4,2.4,1,3.7
	c0.9-0.2,1.2-1.1,1.6-1.8c0.3-0.5,0.5-1.1,1.1-1.1c0.7,0,0.7,0.8,0.8,1.3c0.1,0.4,0.1,0.8,0.2,1.2c0.2,0.6,0.4,1.3,1.1,1.4
	c1,0.1,1-0.8,1.4-1.3c1-1.4,0.2-3.2,1.5-4.6c0.5-0.5,0.2-2-0.9-2.5c-1.1-0.5-1.5,0.6-2,1.2c-0.2,0.2-0.3,0.6-0.5,0.8
	c-0.3,0.4-0.6,0.8-1.1,0.6c-0.5-0.2-0.4-0.6-0.4-1c-0.1-0.9,0.4-1.9-0.5-2.7c-1-0.1-1.2,2.8-2.7,0.7c-0.2-1.4-0.8-2.9,0.8-4
	c1.1,1.6,2.7,1.7,4.4,1.6c1-0.8,2.1-0.2,3.1-0.1c5.8,0.8,11.7,1.2,17.5,0.2c0.9-0.1,1.7-0.1,2.4,0.5c1.7,0.1,3.3-0.1,4.8-1.1
	c0.7-0.5,1.6-0.6,2.4-0.9c1.1,1.2,1.2,2,0.3,3.9c-1.3,2.6-0.9,4.7,1.2,7.1c0.2-0.9-0.9-2.2,0.9-2.5c0.5,0.3,0.7,0.8,1,1.3
	c0.2,0.7,1,1.1,1.3,1.8c0.1,0.3,0,0.6-0.3,0.9c-0.5,0.3-1,0.6-1.4,0.9c-0.3,0.5-0.8,0.6-1.3,0.7c-0.6,0-1.2,0.2-1.8,0.5
	c-2.8,0.9-5.6,1.5-8.6,1.5c-0.9,0-1.9,0-2.6,0.8c-1.2,0.9-2.5,0.5-3.9,0.2c-1.2-0.2-2.4-0.1-3.5-0.1c-1,0-2.1,0.1-2.9-0.7
	c-1.4-1.4-3.2-0.9-4.9-0.9C28.6,74,26.9,73,25.2,72.3z"/>
<path class="st16" d="M38.2,73.8c1.7,0,3.3-0.2,5,0.4c0.7,0.2,1.6,0.3,2.3-0.3c1.5-1,2.3,0.3,3.3,0.9c0.1,0,0.3,2.1,0.3,2.2
	c0,0.4,0.3,0.7,0.6,1c0.1,0.2,0.3,0.3,0.4,0.5c0-0.2-0.3-0.3-0.4-0.5c-0.9-1.7,1.8-2.1,1.3-3.8c-0.1-0.4,1.8-0.6,2.8-0.2
	c1.8,0.7,3.4,1.8,5,2.8c0.3,0.2,0.7,0.6,0.5,0.7c-1.4,0.8,0,2.4-1,3.3C57,81.9,57.4,83,58.5,84c1.3,1.2,1.9,2-0.1,3.5
	c-0.9,0.7-1.6,1.1-2.5,0.9c-1.3-0.4-2.6-1.1-3.3,0.8c-0.2-0.2-0.3-0.4-0.5-0.6c-0.6-1.9-1.5-3.3-3.8-2.3l0,0c-0.8,2.2-3,2.5-4.8,3.4
	c-0.5-0.3-0.8-1-1.5-1c-0.5-1.6,0.9-2.4,1.4-3.6c0.5-1.1,0.6-1.8-0.8-2c-1-0.2-2.1-0.4-2.3-1.7c-0.3-1.4,0.8-1.9,1.8-2.5
	c-1.2-1.3-2.5-1.1-3.9-0.7c-0.6,0.1-1.1-0.2-1.6-0.3c-0.6,0-1.4,0.5-1.6-0.3c-0.2-0.8,0.7-1.1,1.3-1.5c1.4-0.8,2.9-0.6,4.4-0.4
	C40.2,74.3,38.2,75.4,38.2,73.8z"/>
<path class="st17" d="M53.1,117.8c0.4,0.1,0.8,0.2,1.2,0.2c0.9,0,1.3,0.5,1.3,1.3c0,0.5,0,1,0,1.4c0.1,1.1-0.4,1.6-1.5,1.6
	c-1.8,0-3.5,0-5.3,0c-7.3-0.1-14.5,0.7-21.8,0.4c-0.4,0-0.8,0-1.2,0c-1.2,0.1-1.6-0.5-1.5-1.6c0-0.2,0-0.5,0-0.7
	c0-1.5-0.2-2,1.7-2.2c0.9-0.1,1.7-0.2,2.6-0.3C36.7,118.1,44.9,118.1,53.1,117.8z"/>
<path class="st18" d="M49.8,78.1c-1.2,0-0.8-1.4-2-1.8c1-0.2,1.5-0.3,2.3-0.4c-2-0.2-2-0.2-2.1-0.7l-1.3-1c-0.4-0.4-0.9-0.3-1.3-0.3
	c0.1-1.3,1.1-1,1.8-1c3.3,0,6.6-0.8,9.8-1.6c0.4-0.3,1,0,1.4-0.4c0.5,0,0.9-0.1,1.4-0.1c0.6,0.3,0.1,0.7,0,1.1
	c-0.4,0.4-1.1,0-1.5,0.5c-0.4,0.2-0.9-0.1-1.4,0.5c0.5-0.5,1-0.2,1.4-0.5c0.4-0.4,1,0,1.4-0.5c0.3,0,0.8,0,0.9,0.1
	c0.4,0.7,0.8,1.5,0.9,2.4c0.1,0.8-0.8,0.8-1.4,1c-0.5,0.2-1,0.4-1.6,0.6c1.3,0.5,2.2-0.6,3.3-0.4c0.2,0.7-0.7,0.6-0.8,1.1l0,0
	c0.4,0.1,0.8-0.1,1.1,0.3c0,0.4-0.3,0.6-0.6,0.7c-1,0.3-0.6,0.5,0.1,0.5c0.9,0-0.1,1.4,1,1.3c0,0.7-0.8,0.6-1.2,1
	c0.4,0.1,0.7,0.3,1.1,0.4c-0.1,0.4-0.4,0.6-0.7,0.6c-1.7,0.1,0.5,1.2-0.4,1.5c0.3,0.4,1-0.2,1.1,0.5c0.1,0.3-1.2,0-0.3,0.6
	c0.8,0.5,0,0.8,0,1.1c-0.1,0.4-0.1,0.8-0.2,1.1c-0.1,0.5-0.5,0.8-0.9,1.1c-0.3,0.2-0.4,0.7-0.7,0.9c-0.4,0.3-0.9,0.5-1.3,0.5
	c-2.3-0.1-4.5,1.2-6.8,0.5c0.4-0.7,0.8-1.4,0.5-2.5c0.8,0.6,1.7,0.6,2.4,0.9c0.8,0.3,1.4,1,2.4,0.6c-0.2-0.6-0.9-0.1-1.1-0.6
	c0.8-0.6,2.5-0.3,2.4-1.7c0-0.7-1-1.4-1.6-2c-1.4-1.5-1.5-1.9,0.3-3.6c0.7-0.7,0.1-0.4-0.1-0.7c-0.6-0.9-0.4-1.3,1.2-2.1
	c-1.1-0.1-1.6-0.8-2.3-1.2c-0.8-0.5-1.7-0.8-2.5-1.3c-0.3-0.2-0.6-0.5-1-0.5c-0.7-0.1-1,0.1-1.7,1.1c-0.4,0.7-0.8,1.5-1.9,1.5
	c0.5,0.4,1,0.1,1.3,0.5C50.6,77.9,49.9,77.6,49.8,78.1L49.8,78.1z"/>
<path class="st19" d="M38.2,77.7c2.1-1,2.9-0.8,5,1.4c-0.2,0.7-0.9,0.6-1.4,0.6c-0.7,0.1-1.2,0.3-1.2,1.1c0,0.9,0.4,1.3,1.2,1.5
	c0.5,0.1,1.1,0.1,1.7,0.1c1.1,0.2,1.4,0.6,1,1.6c-0.8,1.6-1.7,3-2.5,4.5c-1.4,0.5-2.7,1.2-4.2,0c-1.6-1.3-2.6-3-2.8-5.1
	c-0.1-0.9,0.6-1,1.3-0.8c0.9,0.3,1.7,0.1,2.4-0.6c0.5-0.5,0.6-1.1,0.5-1.8c-0.2-0.7-0.8-0.6-1.4-0.7c-0.5-0.1-1,0-1.4-0.2
	c-0.8-0.4,0-0.7,0.2-1C37,77.8,37.7,78,38.2,77.7z"/>
<path class="st20" d="M38.2,77.7c-0.4,0.4-0.9,0.7-1.5,0.9c-1.5-0.5-2,0.7-2.2,1.6c-0.4,1.7-1,2.9-2.8,3.4c-0.6,0.2-0.4,0.7,0,1.1
	c0.4,0.4,0.7,0.6,1.2,0.6c0.2,0,0.6,0.1,0.5,0.2c-1.4,1.1-0.1,1.6,0.5,2.3c0.2,0.3,0,0.8-0.5,0.8c-0.5,0.1-0.9-0.3-1.1-0.7
	c-1-1.9-1.7-4-1.7-6.2c0-0.7,0.1-1.3,0.9-1.5c0.5-0.2,0.9,0.2,1.2,0.6c0.6,0.8-0.5,0.9-0.6,1.5c1.3,0.3,1.7-0.7,1.7-1.4
	c0-1.1-0.2-2.3-0.5-3.3c-0.6-2.1-0.6-2.6,1.4-3.3c0.3-0.1,0.5-0.3,0.8-0.4c1,0,1.9,0,2.9,0c0.3,0.1,0.6,0.5,0.8,0.4
	c1.3-0.2,2,0.5,2.8,1.6c-2.1,1-4.8-0.7-6.8,1.6C36.2,77.5,37.3,77.1,38.2,77.7z"/>
<path class="st21" d="M25.2,72.3c1.8-0.2,3.4,0.7,5.2,0.6c-0.1,0.4-0.2,0.7,0.4,0.9c0.9,0.2,1.7-0.4,2.8-0.3
	c-2.2,1.8-3.5,3.9-3.6,6.6c-0.1,1.7-1,1.9-2.3,0.8c-0.3-0.2-0.7-0.3-0.9-1c0.8-0.9,2.6-1.6,1.8-3.3c-0.6-1.4-1.3-3-3.4-2.7
	C25.8,73.4,26,72.9,25.2,72.3z"/>
<path class="st22" d="M61.2,70c0-0.3,0-0.6,0-1c-0.5-0.9-0.6-1.7-0.4-2.7c0.8-2.3,0.8-4.8,2.5-6.8c1.4-3.4,2.4-6.9,2.8-10.6
	c0.6,0.8,0.5,1.6,0.5,2.4c0,0.8,0,1.6,0,2.4c0,0,0,0,0,0c-0.5,0.9-0.2,2.1-1,2.8c-1.5,3.2-2.3,6.5-2.9,10c-0.4,2.8-0.1,3.6,1.7,6.2
	c-0.4,0.2-0.8,0.5-1.2,0.7C62,72.5,61.9,71.1,61.2,70z"/>
<path class="st23" d="M41.1,109.9c0.3,0,0.6-0.1,0.9-0.1c0.2,0.1,0.2,0.2,0.1,0.3c-0.1,0.1-0.1,0.2-0.2,0.2
	c-0.5,0.3-0.4,0.6-0.1,1.1c1.2,1.7,1.1,1.7-0.4,3.3c-0.3,0.3-0.4,0.7-0.6,1c-0.8,1.4-1.5,1.5-2.2,0.1c-0.3-0.7-0.5-1.2-1.4-1.4
	c-0.7-0.1-0.7-0.8-0.6-1.4c0.2-0.8,0.3-1.6,0.9-2.2C39,110.8,40.6,112.2,41.1,109.9z"/>
<path class="st24" d="M42,110.3c0-0.2,0-0.3,0-0.5c1.9,0.4,2.9,2,4.3,3.2c0.8,0.6,1.5,1.4,2.2,2.2c0.6,0.7,1.2,1,2.1,1
	c0,0.3,0,0.6,0,0.9c-1.6,0-2.9-0.4-3.9-1.8c-0.2-0.3-0.5-0.7-0.9-0.3c-1.4,1.2-1.7-0.2-2.2-1c-0.2-0.4-0.1-0.9-0.2-1.4
	C43.3,111.6,43,110.7,42,110.3z"/>
<path class="st25" d="M24.8,82c-1.1-1.1-1.9-2.3-1.5-3.9c0.1-0.3,0.2-0.6,0.6-0.7c0.7,0.2,0.3,1.5,1.3,1.4c0.6,1.6,1.8,2.6,2.9,3.7
	c0.5,0.6,1.3,1,1.3,1.9c-1.3,0.2-2.2-0.2-3-1.1C25.9,82.8,25.7,81.9,24.8,82z"/>
<path class="st24" d="M29.6,117c-0.1-0.1-0.2-0.4-0.2-0.4c2.3-1.6,3.9-3.9,5.8-5.9c0.3-0.1,0.6-0.2,1.1-0.4
	c-0.2,0.9-0.3,1.8-0.7,2.6c-0.6,1.2-1.2,2.6-3,2.4c-0.6-0.1-1,0.4-1.4,0.8C30.7,116.5,30.3,116.9,29.6,117z"/>
<path class="st26" d="M35.8,106.8c2.5-1,4.7-1.1,7.1,0C40.5,108.1,38.3,107.6,35.8,106.8z"/>
<path class="st27" d="M48.3,86.3c3-1,3.8-0.5,3.8,2.3c-0.4,0.3-0.9,0.7-1.5,0.6c-0.8-0.1-1.4-0.4-1.4-1.3c0.1-1,0.8-0.8,1.4-0.6
	c0.1,0,0.2-0.1,0.4-0.3C50.3,86,49.3,86.2,48.3,86.3z"/>
<path class="st28" d="M21.9,84.9c-0.3-0.4-0.6-0.9-0.5-1.4c0.6,0,1.3-0.1,1.9,0c1.5,0.4,1.9,1.7,0.8,2.8c-0.4,0.4-0.9,0.8-1.4,0.2
	c-0.5-0.6-0.1-1,0.5-1.3c0.2-0.1,0.4-0.1,0.4-0.5C23,84.8,22.4,84.9,21.9,84.9z"/>
<path class="st29" d="M26.2,78.2c0.2-1.1,0.1-1.9-1.4-1.6c-0.3,0.1-0.4-0.4-0.4-0.7c1.7-0.8,2.4-0.7,3.2,0.4
	c0.4,0.5,0.6,0.9,0.2,1.5C27.3,78.3,26.8,78.6,26.2,78.2z"/>
<path class="st25" d="M29.1,85.5c-0.4,0.4-1,0.3-1.2,0.9c-0.2,0.4-0.2,0.8,0.4,0.7c0.5-0.2,1.1-0.6,1.2,0.3c0.1,0.7-0.3,1-0.9,1.1
	c-0.6,0.1-1.1-0.2-1.3-0.7C26.7,86.6,27.4,85.7,29.1,85.5z"/>
<path class="st24" d="M41.1,109.9c-0.7,2.5-0.9,2.6-3.3,0.9c0-1.1,0.8-1.7,1.3-0.9C40,111.6,40.5,109.8,41.1,109.9z"/>
<path class="st27" d="M43.5,89.6c0-0.3,0-0.6,0.4-0.7c1.8-0.3,3.1-1.5,4.4-2.7c0.2,1.7-1.1,2.3-2.3,2.9
	C45.2,89.5,44.4,89.8,43.5,89.6z"/>
<path class="st20" d="M31.3,87.5c-0.1,0-0.3,0.1-0.4,0.1c-0.1,0-0.2-0.2-0.2-0.4c0-0.2,0.2-0.2,0.3-0.1
	C31.1,87.2,31.2,87.4,31.3,87.5z"/>
<path class="st30" d="M39.6,37.3c1.3-0.2,2.6-0.4,3.8-0.6c0.5-0.2,1-0.2,1.4,0c0.2,0,0.3,0.1,0.5,0.1c2,0.7,1.8,2.6,2.1,4.2
	c0.1,0.8-0.6,1-1.3,1.1c-3.5,0.9-7.1,1.1-10.6,0.2c-1-0.2-1.9,0.3-2.8-0.2l-0.1,0c-1.4-0.4-1.4-1.7-1.5-2.7c-0.1-1,1-1.4,1.8-1.6
	C35.3,37.4,37.4,36.6,39.6,37.3z"/>
<path class="st31" d="M39.6,37.3c-1,0-1.9,0.1-2.9,0c-1.1-0.1-0.3,1.2-1,1.2c-0.6,0.1-1-1-1.7-0.5c-0.6,0.4-1.3,0.6-1.9,0.9
	c-0.4,0.2-1.1,0.6,0,1.1c0.2,0.1-0.1,1.5,0.7,2.1c-0.9,0.6-1.7,0-2.5-0.1c-1.1-0.3-2.3-0.5-3.4-0.8c-0.4-0.1-1.1-0.1-1-0.4
	c0.2-1.5-0.4-0.7-1.1-0.6c-1.1,0.2-1.3,0-1.1-1c0.1-0.4,0.4-0.7-0.2-0.9c0.8-1.5,2.2-2.2,3.6-3c1.1-0.6,2.3-0.8,3.4-0.4
	c2.8,1,5.7,1.8,8.7,2.1C39.4,37.1,39.5,37.2,39.6,37.3z"/>
<path class="st31" d="M32.9,42.2c1.5-0.7,2.8,0,4.3,0.2c3.3,0.6,6.6,0.3,10-1c-0.9-1.5-0.4-3.3-1.8-4.5c0.6-0.2,1.2-0.3,1.9-0.5
	c1.1,0.5,1.1,2.1,2.5,2.4c0.4,0.1,0.3,0.6,0.1,1c-0.3,0.7-0.7,1.4-0.7,2.2c-3.9,0.9-7.9,1.3-12,1C35.7,43,34.3,42.9,32.9,42.2z"/>
<path class="st31" d="M44.9,36.8c-0.5,0.1-1,0.1-1.4,0C44,36.3,44.4,36.4,44.9,36.8z"/>
<path class="st32" d="M47.3,59.4c-2.5,0.8-5.2,0.8-7.7,0.8c-3.3,0-6.7-0.3-10-0.9c-0.6-0.6-0.8-1.5-0.6-2.2c1.1-2.9,1.5-5.8,1.6-8.8
	c0-0.4,0.1-1,0.8-0.8l0,0c0.6,0.4,0.6,2.4,2,0.5c0.3-0.5,1.6-0.2,2.4-0.1c1.4,0.1,2.9,0.1,4.2,0.5c0.4,0.1,0.7-0.7,1,0
	c0.9,0.8,2,0.2,3,0.4c0.7,0.1,1.7,0,1.9,0.7C46.9,52.7,48.6,55.9,47.3,59.4z"/>
<path class="st33" d="M31.4,47.5c-0.1,0.2-0.4,0.4-0.3,0.6c0.8,2.3-0.5,4.4-0.5,6.5c0,0.2,0.1,0.6-0.1,0.7c-1.5,1.1-0.7,2.7-0.9,4.1
	c-1,0.1-1.9-0.6-2.9-0.5c-0.4-1.1-0.6-2.3-0.6-3.5c0-0.9,0.1-1.9-0.2-2.8c-0.2-0.6-0.2-1.3-0.5-1.8c-0.4-0.9,0.4-0.8,0.6-1.2
	c0.2-0.4-0.4-1.2-0.3-1.8c0.2-1.4,0.4,0.8,0.9,0c0.5-0.8,0.7-0.8,1,0.2c0,0.1,0.1,0.3,0.2,0.4c0.5-0.3,0-1.3,1-1.3
	C29.8,47.2,30.6,47.4,31.4,47.5z"/>
<path class="st34" d="M47.3,59.4c-0.2-2.3-0.2-4.6-0.5-6.8c-0.1-1.1-0.5,0.6-0.9,0c0-0.4,0-0.9,0-1.3c0-1.6,0-1.6-1.9-1.8
	c-0.7-0.1-1.5-0.3-2.2,0c-1,0.3-0.6-0.6-0.7-1c1.5-0.2,3.1-0.4,4.6-0.6c0.6-0.1,0.8,0.4,1.2,0.6c0.2,0.1,0.2,0.3,0.3,0.5
	c0-0.3,0-0.6,0.2-0.8c0.5,0,0.9-0.4,1.4-0.2c0.4,1.1-0.2,2.4,0.3,3.6c0.6-1.3-0.2-2.9,1.4-4.4c-0.7,2.8-0.6,5.2-0.3,7.6
	c0.3-2.4,0.6-4.8,0.9-7.1c0.1,0,0.1,0,0.2,0c0,3.6,0,7.1,0,10.7c0,0.3-0.1,0.7-0.5,0.7c-0.5,0.1-0.4-0.6-0.8-0.7
	c0,0.5-0.1,1-0.1,1.4C48.9,59.4,48.1,59.4,47.3,59.4z"/>
<path class="st1" d="M57.9,53.2c-0.6,4.4,0.1,8.7,1.4,13c-0.4,0.2-0.8,0.5-0.6,1.1c0.2,0.7,0.7,1.2,0.8,2.1c-1.1,0.1-2-0.3-2.5-1.3
	c-0.7-1.5-1.1-3.2-1.4-4.8c-0.1-0.6,0.3-1,0.6-1.5c1-1.3,1.5-2.7,0.7-4.3C57,56,56.3,54.3,57.9,53.2z"/>
<path class="st35" d="M17.1,48.6c-1.7,1.4-1.8,3.2-1.2,5.2c0.9,3.2,2,6.3,2.9,9.5c0.3,0.9,0.6,1.8,0.8,2.7c0.1,0.5,0.4,0.6,0.8,0.6
	c-0.1,1-0.9,1.6-1.3,2.5c-1.2-1.9-1-4.2-1.7-6.3c-1-3-2.1-6-2.9-9c-0.3-1.3-0.8-2.6,0.3-3.8c1.2-0.6,0-2.3,1.4-2.8
	c-0.3,0-0.6,0-0.9-0.1c-0.2,0-0.3,0-0.2-0.3c0.8-0.9,2.2-0.4,3-1.2c0.5-0.1,0.9,0.2,1.2,0.5c0.2,0.2,0.2,0.6,0,0.6
	C17.8,46.5,17.9,48,17.1,48.6z"/>
<path class="st34" d="M52.8,47.2c-0.2,3.8-0.5,7.5-0.7,11.3c-0.2,0-0.3,0-0.5,0C51.6,54.7,51.3,50.9,52.8,47.2z"/>
<path class="st33" d="M35.8,47.9c-0.4,0.3-0.7,0.9-1.4,0.7c-0.6-0.2-1.1-0.5-1.2,0.6c0,0.3-1.2-0.4-1.8,0.4c0-0.8,0-1.5,0-2.1
	C32.9,47.2,34.4,47.2,35.8,47.9z"/>
<path class="st32" d="M47.3,48c-0.1,0.3,0.1,0.7-0.2,0.9c-0.1-0.2-0.2-0.4-0.3-0.6C46.9,48.1,47,48,47.3,48z"/>
<path class="st36" d="M14.8,49.9c-0.3,1.2-0.2,2.3,0.2,3.5c1.1,3.7,2.1,7.5,3.3,11.2c0.5,1.5,0.7,2.9,0.7,4.4c0,0.7-0.7,1.1-0.6,1.8
	c-0.2,0.3-0.1,0.8-0.5,1c0,0,0,0,0,0c-0.5,0.1-0.5,0.5-0.6,0.8c-0.7-0.2-0.8-0.8-0.8-1.4c0.1-0.2,0.2-0.4,0.4-0.6
	c0.6-1.6-0.1-3.3,0.5-5c-0.6-3.7-2.1-7.2-3.3-10.8c-0.5-1.5-0.6-3.1-0.5-4.7C13.8,49.4,14.3,49.3,14.8,49.9z"/>
<path class="st10" d="M17.5,65.7c0,1.7,0.5,3.4-0.5,5c0-1-0.1-2,0-3C17.1,67,16.8,66.2,17.5,65.7z"/>
<path class="st35" d="M15.3,47.1c-0.4,0.4-0.7,0.9-1.4,1.1c0-0.9,0.7-1,1.2-1.3C15.1,46.9,15.2,47,15.3,47.1z"/>
<path class="st1" d="M53.9,122.9c0.2,0,0.3,0.1,0.2,0.3c0,0-0.2,0.1-0.2,0.1c-0.1,0-0.2-0.1-0.4-0.2C53.6,123,53.8,122.9,53.9,122.9
	z"/>
<path class="st37" d="M70.7,71.3c0.4-0.8,0.7-1.6,0.6-2.5c-0.1-1.1-0.3-2.1-1.4-2.6c-1-0.4-2-0.2-2.6,1c-0.6-1.2-0.1-1.8,0.8-2.2
	c1-0.5,2-0.7,2.9,0.1c1.5,1.2,1.9,2.9,1.5,4.7c-0.2,1.2-0.6,2.3-1.7,3.1C70.6,72.4,70.5,71.9,70.7,71.3z"/>
<path class="st38" d="M69.4,70.4c0.7-0.5,0.8,0.1,1,0.5c-0.7,0.4-1.1,1.1-1.9,1.4c-2.3,0.7-4-0.2-4.8-2.5c-0.6-1.8-0.4-3.5,0.4-5.3
	c0.7,0.3,0.4,0.8,0.3,1.2C64,66.8,64,67.9,64.2,69c0.3,1.3,1.1,2.3,2.4,2.7C67.8,72.1,68.7,71.5,69.4,70.4z"/>
<path class="st11" d="M65.5,56.5c0.1-1,0.4-2,1-2.8c0.3,1.2-0.3,2.2-0.6,3.3C65.8,56.8,65.6,56.6,65.5,56.5z"/>
<path class="st39" d="M10,74.2c-0.7-0.7-1.3-1.4-2-2c-0.2-0.7-0.4-1.4-0.5-2.1c-0.3-1.3,0-2.5,0.7-3.7c0.7-1.2,2.3-1.9,3.5-1.5
	c1.4,0.4,1.8,1.1,1.8,3.2c-1.2,0-1.5-2.7-3.2-1l0,0c-1.5,0.7-1.5,1.9-1.1,3.2c0.4,1.6,1.4,2.7,3,3.1c0.6,0.1,1.3,0,1.9,0.3
	C12.8,73.8,11.4,74,10,74.2z"/>
<path class="st39" d="M10.4,67.1c0.2,0,0.5,0,0.7,0c0.4,0,0.8,0.2,0.7,0.7c0,0.2-0.2,0.5-0.3,0.5c-0.4,0.1-0.7-0.2-0.9-0.5
	C10.4,67.6,10.4,67.3,10.4,67.1C10.4,67.1,10.4,67.1,10.4,67.1z"/>
<path class="st40" d="M60.8,66.2c0.3-2.5,1.2-4.8,2-7.2c0.1,0.2,0.3,0.4,0.4,0.6c-0.5,2.3-1,4.5-2,6.6C61.1,66.4,61,66.4,60.8,66.2z
	"/>
<path class="st41" d="M20.8,65.6c0.3-1.2,0.7-2.5,1-3.7c1.1,0.1,1-0.9,1.3-1.5c0.3-0.7,0.8-0.7,1.3-0.7c0.6,0,0.8,0.5,0.8,1
	c0,1.1,0,2.2,0,3.8c0.6-1.5,1.2-2.5,2-3.3c0.6-0.7,1.1-0.8,1.8-0.2c0.9,0.7,1.8,3.1,1.5,4.1c-0.1,0.3-0.3,0.3-0.5,0.3
	c-0.5-0.1-1.1,0.1-1,0.7c0.1,0.6,0.6,0.6,1.1,0.5c0.1,0,0.2,0.2,0.5,0.4c-1.5,0.3-2.1,1.3-2.1,2.7c0,1.2-0.9,1.2-1.6,1.4
	c-0.8,0.1-1.3-0.3-1.6-1.1c-0.4-1-0.5-2.1-0.5-3.3c-0.7,0.3-1,0.9-1,1.4c-0.1,1-0.9,1.5-1.6,1.9c-0.4,0.2-0.8,0.6-1.3,0.2
	c-0.5-0.5,0.2-0.9,0.2-1.2C20.9,67.7,21.9,66.5,20.8,65.6z"/>
<path class="st42" d="M44.5,66.7c0-1.7-0.1-3,0.5-4.2c0.3-0.6,0.6-1.2,1.3-1.1c1,0.1,0.3,0.9,0.5,1.3c0.7,1.4,1.2,2.7,1.2,4.3
	c0,0.6,0.8,0.7,1.2,1c0.6,0.4,1,0.8,0.7,1.6c-0.3,0.9-1,0.7-1.5,0.4c-0.9-0.5-1.3,0.1-1.8,0.5c-0.5,0.3-0.8,0.2-1.2-0.2
	C44.1,69.1,44.5,67.7,44.5,66.7z"/>
<path class="st43" d="M41.5,69.7c-0.2,0.9-0.6,1.4-1.2,1.5c-0.7,0.1-1.4,0.1-2.1-0.1c-1-0.4-1.1-1.3-1-2.2c0-1.1,0-2.2,0-3.3
	c0-0.7,0.2-1.3,0.4-1.8c0.4-0.9,0.8-1.9,2-1.7c1.2,0.2,0.9,1.3,0.9,2.2c0,1.1,0.3,2.2-0.6,3.2c-0.5,0.5,1,1.7-0.5,2
	C39.8,70.4,40.5,70.3,41.5,69.7z"/>
<path class="st44" d="M51.6,69.5c-0.7-2.6-2.1-5.1-0.6-7.8c0.2-0.4,0.4-0.9,0.9-1.1c0.3-0.1,0.9-0.1,0.8,0c-0.5,1.4,1.7,1.7,1.1,3.1
	c-0.3,0.9,0.7,1.6,0.7,2.5c0.5,1.1-0.2,2.2-0.6,3.1C53.6,70.4,52.5,70,51.6,69.5z"/>
<path class="st45" d="M32.2,70.8c-1.7-2.7-1.2-7.2,0.9-8.9c0.4-0.3,0.8-0.6,1.3-0.3c0.4,0.3,0.3,0.7,0.1,1.1
	c-0.3,0.8-0.2,1.7-0.1,2.6c0.1,1.1-0.3,2.2-0.4,3.3C33.8,69.7,32.3,69.5,32.2,70.8z"/>
<path class="st1" d="M51.6,69.5c0.4,0,0.8,0,1.2,0c0.8,0.1,0.6-0.3,0.7-0.9c0.1-0.9,0.7-1.7,1.1-2.5c0.7-0.4,1.1-0.1,1.1,0.6
	c0.1,0.6-0.2,1.2,0,1.8c0.3,0.8,0,1.8-0.8,2.3c-0.9,0.6-1.8,0.3-2.6-0.4C52.1,70.2,51.9,69.8,51.6,69.5z"/>
<path class="st1" d="M60.8,66.2c0.1,0,0.3,0,0.4,0c0,1,0,1.9-0.1,2.9c-0.6-0.4-1.5-0.6-1.3-1.6C61.3,67.8,60.5,66.5,60.8,66.2z"/>
<path class="st5" d="M18,71.9c0-0.4,0.1-0.7,0.5-1C18.8,71.5,19,71.9,18,71.9z"/>
<path class="st1" d="M58.4,71c-0.4,0.5-0.9,0.4-1.4,0.4C57.3,70.8,57.9,70.9,58.4,71z"/>
<path class="st46" d="M50.7,83.9c0.4-1,1-1.7,1.8-2.3c1.4-0.9,2.2-2.3,2-4c-0.1-0.8,0.2-1,0.7-1.2c0.7-0.2,1,0.3,1.2,0.8
	c0.8,2.8-0.2,4.7-3,5.7C52.5,83.3,51.6,83.6,50.7,83.9z"/>
<path class="st47" d="M56.3,86c0,0.3,0,0.5-0.3,0.6c-0.7,0.2-1.2-0.1-1.6-0.6c-0.5-0.6-0.5-1.3,0-1.9c0.5-0.6,1.1-0.6,1.7-0.2
	c0.2,0.1,0.5,0.4,0.3,0.5C55.6,84.9,55.6,85.4,56.3,86z"/>
<path class="st46" d="M50.3,79.7c0.9-0.1,1.8-0.3,2.9-0.5C52.1,80.1,52.1,80.1,50.3,79.7z"/>
<path class="st46" d="M49.7,78.2c0.5,0.1,1.1-0.2,1.7,0.4C50.7,78.9,50,79.5,49.7,78.2C49.8,78.1,49.7,78.2,49.7,78.2z"/>
<path class="st1" d="M58.3,72.4c-0.5,0.6-1.2,0.5-2,0.4C57,72.2,57.7,72,58.3,72.4L58.3,72.4z"/>
<path class="st1" d="M58.4,72.4c0.3-0.6,0.9-0.4,1.4-0.5c0,0,0,0,0,0C59.5,72.5,58.9,72.3,58.4,72.4C58.3,72.4,58.4,72.4,58.4,72.4z
	"/>
<path class="st1" d="M61.2,76.7c-0.3,0.4-0.6,0.6-1.1,0.2C60.5,76.8,60.9,76.7,61.2,76.7C61.2,76.7,61.2,76.7,61.2,76.7z"/>
<path class="st48" d="M39.8,84.2c1.4-0.4,1.1,1.3,2,1.5c0.1,0-1.6,2.1-1.9,2c-0.9-0.3-1.4-1.1-1.5-1.9c0-0.4,0.5-1,0.6-1.6
	C38.9,83.9,39.5,84.1,39.8,84.2z"/>
</svg>
