<?xml version="1.0" encoding="utf-8"?>
<!-- Generator: Adobe Illustrator 23.1.1, SVG Export Plug-In . SVG Version: 6.00 Build 0)  -->
<svg version="1.1" id="Livello_1" xmlns="http://www.w3.org/2000/svg" xmlns:xlink="http://www.w3.org/1999/xlink" x="0px" y="0px"
	 viewBox="0 0 80 135" style="enable-background:new 0 0 80 135;" xml:space="preserve">
<style type="text/css">
	.st0{fill:#FFFFFF;stroke:#000000;stroke-width:0.2509;stroke-miterlimit:10;}
	.st1{fill:#313630;}
	.st2{fill:#4B403C;}
	.st3{fill:#4F5444;}
	.st4{fill:#634F42;}
	.st5{fill:#843B3D;}
	.st6{fill:#AB4846;}
	.st7{fill:#CE5453;}
	.st8{fill:#84725C;}
	.st9{fill:#948A3F;}
	.st10{fill:#D15257;}
	.st11{fill:#B9B9BB;}
	.st12{fill:#777364;}
	.st13{fill:#3C4060;}
	.st14{fill:#C73E39;}
	.st15{fill:#F2E832;}
	.st16{fill:#973934;}
	.st17{fill:#7E2C2A;}
	.st18{fill:#EFE734;}
	.st19{fill:#EEE434;}
	.st20{fill:#E2D938;}
	.st21{fill:#DDD639;}
	.st22{fill:#EDB55F;}
	.st23{fill:#D54B46;}
	.st24{fill:#DBDCDB;}
	.st25{fill:#F0E733;}
	.st26{fill:#E8AA66;}
	.st27{fill:#A3382E;}
	.st28{fill:#F7F7F6;}
	.st29{fill:#ECE63B;}
	.st30{fill:#9A8C3A;}
	.st31{fill:#B6B7B6;}
	.st32{fill:#D6C73B;}
	.st33{fill:#B14038;}
	.st34{fill:#AD4B42;}
	.st35{fill:#DEA979;}
	.st36{fill:#CAC23D;}
	.st37{fill:#BE3E3E;}
	.st38{fill:#A83E38;}
	.st39{fill:#EEEEED;}
	.st40{fill:#E3DB38;}
	.st41{fill:#DAC83D;}
	.st42{fill:#FFFFFF;}
	.st43{fill:#EC534F;}
</style>
<path class="st0" d="M71.5,135h-63c-4.7,0-8.5-3.8-8.5-8.5V8.5C0,3.8,3.8,0,8.5,0h63C76.2,0,80,3.8,80,8.5v118
	C80,131.2,76.2,135,71.5,135z"/>
<path class="st1" d="M27.4,102.1c-1.3-3.5-2.3-7-4.5-10.1c-0.2-0.4-0.2-0.9-0.3-1.4c1.1-2.9,0.5-5.8,0.3-8.8
	c-0.1-0.4-0.1-0.8-0.2-1.1c0-1.2,0-2.4,0-3.7c-0.1-4.4,0.7-8.8,1.3-13.1c0-0.3,0.1-0.6,0.2-0.9c0.4-1.1,0.8-2.9,2-2.5
	c1.4,0.4,0.1,1.9-0.1,2.9c-0.6,2.7-0.6,5.5-1.2,8.3c-0.1,0.5-0.2,1-0.3,1.5c-0.1,1,0,2-0.1,3c0,0.3,0.5-0.1,0.2,0
	c-0.2-0.8,0-1.7-0.1-2.5c0.6-2,1.2-2.3,1.6-0.9c0.1,0.4,0.1,0.8,0.1,1.2c0,0.3,0,0.7,0.4,0.8c0.8-0.2,0.7-1,0.8-1.5
	c0.2-0.7,0.1-1.8,0.9-1.6c1,0.2,0.7,1.2,0.3,2.5c0.1-0.2,0.7-0.5,0.4-0.5c-0.1,0-0.1-0.1-0.1-0.2c1-3.8,1.3-7.7,2.9-11.3
	c0.7-1.5-0.3-2.8-2.1-3.4c-0.4-1.2-0.4-1.2,0.7-2c-1.7-0.6-3.4-1.1-5,0.2c-0.2,0.2-0.6,0.3-0.9,0c-0.3-0.3-0.2-0.7,0-1.1
	c1.1-1.8,2.7-1.9,4.5-1.6c0.4,0.1,0.7,0.4,1.2,0.3C30.2,53.3,29,52.3,30,51c-0.6-1.9-2-2.9-3.8-3.5c-0.7-0.2-1.6-0.1-1.8-0.9
	c-0.1-0.8,0.5-1.3,1.1-1.7c0.7-0.6,1.4-0.7,2,0.2c0,0,0,0,0,0c-0.6-1-2.2-1.2-2.2-2.7c0.1-0.2,0.2-0.4,0.4-0.5c1-0.2,2,0.4,3,0.4
	c-0.2-0.5-0.9-0.7-0.9-1.3c0.2-0.5,0.6-0.6,1.1-0.7c1.9,0,3.7,1.1,5.6,0.9c1.8-0.2,4.2-3.4,3.7-5.1c-0.1-0.4-0.6-0.5-0.9-0.6
	c-0.8-0.4-0.6-0.8-0.1-1.3c-0.1-0.7-0.8-0.8-1.1-1.1c-0.2-0.1-0.3-0.3-0.4-0.5c0-0.6,0.5-0.9,0.6-1.4c-0.1-0.1-0.1-0.3,0-0.4
	c1.4,0,2.7,1.5,4.2-0.1c0.6-0.7,1-1.2,0.5-2.1C40,27.2,40.9,27,41.9,27c1,0.1,2.1,1.2,3-0.2c0.6-0.5,0.7-3.3,2.1-0.5
	c0,0.2,0,0.4,0,0.7c0.4,1.4-1.6,2.4-0.7,4c0.5,0.2,0.9,0.4,1.4,0.6c0.1,1.3-2.1,0.6-1.8,2.1c0,0.2,0,0.4-0.1,0.6
	c-0.2,0.3-0.5,0.4-0.8,0.5c-1.4,0.5-3.3,0.5-2.8,2.9c0.5,2.7,0.7,3,3.5,2.7c2.7-0.2,5.2-1.5,7.9-1.8c1.3,0.1,2.3-0.9,3.5-1.2
	c0.9,0.9,0.7,2.2,1.1,3.3c0.8,2.4,1.1,4.9,2.8,7c0.1,0.2,0.2,0.4,0.2,0.7c0,3.4,1.8,6.3,3,9.4c-0.2,0.1-0.4,0.2-0.6,0.2
	c-1.4-1-3.3-1.7-2.9-4.1c0.1-0.4-0.2-1-0.6-1.3c-1.7-1.3-2.6-3.5-4.5-4.2c0.2,2.8,3.1,4.6,2.9,7.7c0,0.5-0.1,0.8,0.6,0.6
	c1.5-0.5,1.4,0.3,1.1,1.3c-0.3,0.9-0.5,1.8,0.9,2c0.4,0,0.4,0.6,0.4,1c0,0.2-0.2,0.5-0.1,0.5c0.3,0.1,0.4-0.3,0.6-0.4
	c0.8-0.5,1.7-0.8,2.2-1.6c0.2-0.3,0.4-0.5,0.8-0.4c0.1,0.2,0.1,0.5,0.2,0.6c0.2,0.2,0.4,0.7,0.6,0.6c0.3-0.1,0.2-0.5,0.3-0.8
	c0.2-0.1,0.3-0.2,0.5,0c0.4,0.4,0.6,1,1.2,1.3c0.3,0.2,0.7,0.4,0.9,0.8c-0.1,0.1-0.2,0.3-0.3,0.4c-0.2,0.3-0.6,0.4-0.9,0.5
	c-0.8,0.1-1.6-0.3-2.4-0.3c-2.1,0.1-3.1,1.8-1.9,3.7c0.4-0.6-0.7-1.7,0.5-2c1.3-0.3,2.7-1.3,3.9,0.2c-0.9,1.4-0.9,3.2-2.3,4.3
	c-1.1,0.6-1,1.9-1.3,2.9c-0.4,1.1-0.1,2.4-1.2,3.1c-0.1,0-0.2-0.1-0.3-0.1c0-1.7,0.3-3.3,0.7-5c0.2-0.9,0.2-1.5-0.5-2.1
	c-0.7-0.6-1.2-1.4-1.9-2.2c-0.6,0.6-0.4,1.3-0.4,1.9c-0.2,4.4-0.5,8.7-1.1,13.1c-0.2,1.3-0.6,2.6-0.9,3.9c-0.8,2.9-1.2,5.9-0.9,9
	c0.5,4.2-0.5,8.1-2.6,11.7c-0.5,0.9-1.1,1.8-1.3,2.8c-0.3,1.4-0.2,1.6,1.2,1.9c1,0.2,2.1,0.2,3.1,0.5c1.2,0.3,2.4,0.9,3.2,1.9
	c0.3,0.7,0.2,1.6,1.4,1.9c2.9,0.9,3.4,1.7,3,4.6c0,0,0-0.2,0.1-0.3c1-0.7,4.6-0.4,5.3,0.4c0,0.2,0,0.5-0.1,0.7
	c-0.2,0.3-0.4,0.6-0.7,0.7c-0.4,0.2-0.9,0.2-1.3,0.3c-0.5,0-1.1,0.1-1.6,0.3c-2.5,0.5-5,0.5-7.5-0.5c-1.6-0.7-3.3-0.5-4.9-0.7
	c-2.8-0.4-5.7-0.6-8.2-2.4c-0.6,1.1-0.6,2.1-0.8,3.1c-0.2,0.7,0,1.9-1.4,1.5c-0.6-1-0.2-2.3-0.7-3.3c-0.5-1.3-1.5-1.9-2.8-2.1
	c-0.6-0.1-1.2-0.5-1.1-1.3c0.2-0.8,0.8-0.5,1-0.6c-0.5-0.3-1,0-1.3,0.7c-0.4,0.1-0.6-0.1-0.9-0.3c-0.8-1.8-2.8-2.2-4.1-3.4
	c-0.4-0.7-1.3-0.9-1.9-1.4c-0.9-0.8-2.4-0.6-2.9-2c-0.8-5.6-0.2-11.1,1.4-16.5c0.6-1.9,1.2-3.8,1.8-5.7c0.3-0.9,1.1-2.2-0.3-2.6
	c-1.3-0.4-1.7,0.9-1.9,1.9c-0.7,3.9-1.7,7.8-1.8,11.8c-0.1,1.6,0.1,3.2-0.3,4.8C28.1,101.8,27.9,102.1,27.4,102.1z"/>
<path class="st2" d="M27.4,102.1c0.2-0.2,0.3-0.4,0.5-0.5c1.3,0.4,1,1.5,1,2.4c-0.1,2.7,0.5,5.4-0.1,8.4c0.5-1.6-0.2-3.3,1.3-4.4
	c0.2,0.1,0.5,0.2,0.6,0.3c0.6,1.3,1-0.1,1.5-0.1c0.1,0.6,0.2,1.2,0.3,1.7c0,0.1-0.1,0.2-0.1,0.3c-0.2,0.3-0.2,0.6,0,0.9
	c1,1.9,0.2,3.1-1.6,3.8c-4.5,0.3-7.3,3.5-10.3,6.1c0.6-0.6,1.5-0.4,2.4-0.5c1.1-0.2,2.6-0.1,2.3-2c-0.1-0.4,0.2-0.7,0.5-0.6
	c2.6,0.3,3.6-2,5.4-3.1c0.7-0.2,1.2-0.6,1.9-0.7c1.8,0.9,3.7,0.8,5.6,0.2c0.2,0.2,0.3,0.4,0.5,0.6c0.8,0.9,0.8,2,1,3.1
	c0.4,1.5,1.1,2.7,2.5,3.5c0.8-0.8,0.2-1.6,0.2-2.3c0-0.8-0.3-1.7,1.1-1.4c0.7,1.2,0.5,2.6,0.5,3.9c7.5-0.1,14.9,0.3,22.4,0
	c0.8,0,1.6,0,2.4-0.1c2.3-0.3,2.4-0.5,1.2-2.7c-0.2-1.2-0.9-0.9-1.4-0.4c-0.7,0.7-1.1,0.8-1.9,0.1c-1-0.9-1.2-0.7-1.9,0.9
	c-0.2-0.8-0.5-1.3-0.4-1.9c0.1-0.7,0.5-1.3-0.3-1.9c-0.8-0.5-1.1-1.4-2.3-1.4c-2,0-2-0.2-1.3-2.4c2.2,0.6,4.3,1.2,5.9,2.9
	c1.2,1.3,2.8,1,4.2,1.1c1.8,0.1,1.8,0.1,1.8,1.9c0,1.4,0,2.7-0.1,4.1c-0.1,1.7-0.1,1.7-1.8,1.7c-4.9,0-9.9-0.1-14.8-0.1
	c-14.9-0.1-29.8-0.4-44.7-0.2c-1.2,0-2.4,0.1-3.6,0.1c-1.6,0-1.7-0.1-1.7-1.8c0-1.3,0.1-2.7,0.1-4c0-2,0-2,1.9-2c4.5,0,9.1,0,13.6,0
	c0.8,0,1.6,0,2.4-0.1c2.2-0.3,3.8-1.9,3.8-4.1C27.8,108.1,27.8,105.1,27.4,102.1z"/>
<path class="st3" d="M25.7,14.1c0.2,0.2,0.4,0.5,0.6,0.7c2,1.7,2.1,2.2,0.9,4.8c-0.7-0.7,0.1-1.6-0.2-2.3c-0.1,0.8,0.3,2.1-1.3,0.9
	c-0.4-0.3-0.9,0.2-1.3,0c-2.3-0.6-4.6,0.6-6.9-0.1c2.3,0.8,4.6-0.2,6.9,0c0.9,0.9,1.4,2,1.8,3.2c0,0.3,0.2,0,0.2,0
	c-0.4-1-0.1-1.6,1-1.7c0,1.1-1.2,2.2-0.2,3.4c0.1,0.1,0,0.5-0.2,0.7C25,25,24.7,28,22,28.7c-0.9,0.3-0.8,1.2-0.3,1.7
	c0.5,0.6,1.2,1.1,1.9,1.5c1.6,1,1.7,1.2,0.8,3c-0.8-1.1-0.9-1-2.7-1c-1.6,0-3.4,0.5-4.8-0.8c1.1-1.9,3-0.4,4.4-1
	c-1.5-1.1-2.8-0.3-4.2,0.3c-1.4,1.1-0.6,1.5,0.6,2c1.3,0.5,3.1-0.4,4.1,1.2c-2.1,0.4-4.1,0.2-6.2-0.4c-0.8-0.2-1.5-0.5-1.5-1.6
	c0-1,0.4-1.5,1.3-1.6c0.1,0,0.2,0,0.2-0.1c0.7-0.7,2-0.8,2.1-2.1c0.2-1.3-1.1-1.4-1.8-1.9c-1.4-0.9-1.7-2.4-2.4-3.8
	c-0.1-0.6-0.5-1.2-0.3-1.9l0,0c0.1-0.4,0.3-0.7,0.5-1.1c1.4-2.3,0.5-4.1-1.4-5.7c0.6-0.5,1.3-1,1.9-1.5
	C17.8,16.8,21.3,16.9,25.7,14.1z"/>
<path class="st4" d="M42,27.4c-0.3,0-0.6,0.1-1,0.1c-0.4,0.5,0.2,0.6,0.4,0.9c0.6,0.9,0.8,2-0.3,2.4c-1.1,0.4-1.1,1.4-1.8,2
	c-0.3-0.6-0.3-1.7-1.4-1.1c-1.2,0.6-1.2-0.6-1.7-1c0.3-2.2,0.5-4.5,0.9-6.7c0.3-1.8-0.1-3.6,0.2-5.4c0.1-0.7-0.5-1.3-0.8-1.9
	c-0.4-0.8-0.7-1.6-1.1-2.4c0.1-0.7,0.8-0.8,1-0.4c1.2,1.7,3.9,0.6,4.7,2.4c0.6,1.3-1.4,0.6-1.7,1.7c2.8-0.1,5.4,0.9,8,1.2
	c1.6,0.1,2.9-0.8,3.4-2.5c0.9-0.2,1.8-0.3,2.9,0c-0.4,0.9-1.1,1.2-1.8,1.7c-1,0.8-1.9,1.6-2.7,2.7c-0.6,0.8-0.8,1.3-0.2,2.3
	c1.1,1.9,1.2,3.9-0.3,5.8c-0.4,0.5-0.8,1-1.6,0.7c-1.5-0.6-0.8,0.5-0.8,1.1c-0.3-0.1-0.6-0.3-0.5-0.7c0.2-1.2,0.3-2.5,1-3.6
	c0,0.1,0,0.2,0,0.2c0.2-0.1,0.2-0.1,0-0.2c-0.2-0.4-0.3-0.8-0.8-1.1c-0.3,0.5,0,1.2-0.7,1.5c-0.4-0.3-0.5-0.8-0.5-1.3
	c0-1.3-0.7-1.8-2-1.7c-0.9,0.1-1.8,0.1-2.3-0.9c-0.6-1.1,0.4-1.7,1.3-2.5c-1.2-0.1-2.4-1-1.8,1c0.3,1,0.1,2.1-0.8,2.8
	c-0.1,0-0.2,0-0.3,0.2c0,0,0.1,0,0.2,0C42,25,42.1,25.2,42,27.4z"/>
<path class="st5" d="M23.4,81.8c0.6,0.8,0.3,1.7,0.4,2.5c0.1,1.4-0.3,2.9,0.2,4.3c0.6,1.5-0.4,1.7-1.4,2c-1-2.1-1.7-4.3-2.9-6.2
	c-0.3-0.6-0.3-1.2-0.2-1.9c0.3-5.6,0.1-11.3,0.3-16.9c0.1-3.4,0.9-6.8,1.4-10.2c0.4-2.9,0.8-5.8,1.7-8.6c0.2-0.2,0.4-0.2,0.6-0.1
	c0.6,0.4,1.3,1,1.1,1.7c-0.7,2,0.7,1.5,1.7,1.6c0.3,0.1,0.2-0.4,0.2-0.1c0,0.1-0.1,0.1-0.2,0.1c-0.7,0-1.4-0.2-1.3-1
	c0.1-0.7,0.8-0.7,1.3-0.7c1.9,0.2,3.6,0.9,4.4,2.9c-0.2,0.6-1.2,1.3,0.1,1.8c1.2,0.5-0.2,1.4,0.4,2.1c0.3,0.3-0.4,0.2-0.6,0.1
	c-0.4-0.2-0.7-0.3-1-0.6c-2.9-0.9-4,0-5.6,2c-2.7,3.3-2.7,7.4-3.2,11.2c0.3-0.2,0.1-0.9,0.7-0.9c0.5,0,0.6,0.5,0.7,0.9
	c0.2,0.6,0.2,1.3,0.1,1.9c-0.2,3.2,0.4,6.4-0.1,9.7c-0.3,1.5,1.3,3.2,0.9,4.4C23,83.6,22.8,82.6,23.4,81.8z"/>
<path class="st6" d="M50.8,16.7c0.3,0.2,0.7,0.4,1.2,0.6c-0.6,0.4-1.3,0.5-1.7,1.1c-1.4,2.3-3.5,1.7-5.4,1c-1.7-0.6-3.3-0.7-5-0.8
	c-0.7,0-1.5,0.2-1.5-0.9c0-1,0.7-1.2,1.5-1.1c0.4,0,0.7,0.2,1.1-0.1c-0.4-0.8-1.1-1-1.8-0.9c-1.3,0.2-2.3-0.3-2.9-1.5
	c-0.2-0.3-0.6-0.2-0.8,0c-0.4-0.3-0.8-0.7-0.7-1.1c0.2-0.6,0.8-0.4,1.2-0.3c0.5,0,1,0.1,1.4,0.3c1,0.5,1.6,0.5,2.4-0.5
	c1-1.3,1.2-1.2,2.2,0.3c0.3,0.4,0.3,0.9,0.9,1.1c3-2,2.6-2.2,3.8,1.1c0,0.1,0.1,0.1,0.1,0.2c0.2-0.1,0.4-0.2,0.6-0.3
	c1.9-1.1,1.9-1.1,2.5,1.1C50,16.5,50.4,16.6,50.8,16.7z"/>
<path class="st7" d="M25.7,14.1c-1,2.8-3.6,2.5-5.8,2.7c-0.9,0.1-2.1-0.1-3-0.3c-1.2-0.3-2.5-0.7-2.5-2.4c0.3-0.3,0.1-0.8,0.5-1
	c3.2-1.4,6.4-1.7,9.7-0.2C25.2,13.1,25.6,13.5,25.7,14.1z"/>
<path class="st8" d="M67.3,62c0.3,0,0.6-0.1,0.9-0.1c0.2,0.3,0.5,0.6,0.7,0.9c2.3,3.3,1.6,6.4-2.1,8.1c-0.8,0.4-0.9,1.1-1.4,1.5
	c-0.2,0.2-0.4,0.2-0.6,0.1c0-1.5-1-3.1,0.1-4.6c1.2-0.4,0.7-1.7,1.2-2.5c0.4-0.5,0.8-0.8,1.2-1.2c0.1-0.3,1.1,0.6,0.7-0.4
	C67.8,63.3,67.1,62.8,67.3,62z"/>
<path class="st4" d="M23.3,46.8c-0.2,0-0.3,0-0.5,0c0-1.3,0.6-2.4,1-3.6c0.3-0.7,0.7-1.5,0.7-2.3c-0.3-2.6,1.4-4.1,3.2-5.4
	c2.1-1.5,4.4-2.4,6.8-3.4c0.6-0.3,1.2-0.5,1.6-1c0.2,0.6-0.2,1-0.5,1.5c0,1.1-0.8,1.1-1.6,1.3c-2.3,0.8-4.5,1.8-6.4,3.5
	c-1.2,1.1-1.2,1.7,0.4,2.2c0.5,0.1,0.9,0.4,0.9,1c-0.4,0.1-0.8,0.1-1.1,0.4c-0.5,1-1.8,0.2-2.4,1.1l0,0
	C24.9,43.7,24.7,45.5,23.3,46.8z"/>
<path class="st9" d="M45.6,33.8c-0.5-1.6-0.4-1.8,0.9-2c0.4-0.1,0.9,0.1,1.2-0.4c3.2,1.8,6.5,3.5,9.3,5.9c-0.4,2-2,1.6-3.3,1.8
	c0.2-2.1-0.9-3.2-2.9-3.6c-0.4-0.1-0.9-0.1-1.1-0.4C48.7,33.7,47.4,33.1,45.6,33.8z"/>
<path class="st10" d="M17,32.8c1.7,0.9,3.4,0.4,5.2,0.5c1.8,0.1,1.8,0,2.3,1.6c-0.8,0.7-1.7,0.5-2.6,0.6c-1.5-0.8-3.3,0-4.8-0.8
	c-0.3-0.2-0.8-0.1-1.1-0.3c-0.6-0.3-1-0.8-0.3-1.4c0.4-0.3,0.7-0.9,1.3-0.9C17.1,32.4,17.1,32.6,17,32.8z"/>
<path class="st11" d="M12.5,15.5c0.9,0.3,2,0.1,2.3,1.5c0.3,1.1,0.7,1.9,0.1,3.1c-0.4,0.9-0.6,1.8-1.6,2.2c0.1-1.2-0.5-2.2-0.9-3.3
	C12.1,17.8,11.2,16.6,12.5,15.5z"/>
<path class="st8" d="M68.6,61.5c-0.5,0-1-0.1-1.3-0.6c1.7-2.8,1.9-6,3.1-9c0.3-0.8,0.7-1.6,0.1-2.5c-0.1-0.2-0.2-0.4-0.2-0.6
	c0.4-0.7,1.1-0.8,1.5-0.1c0.5,0.9,1,1.8,0.2,3c-1.5,2.2-1.6,4.9-2.1,7.5C69.7,60.1,69.6,61.1,68.6,61.5z"/>
<path class="st12" d="M64.9,72.5c0.2,0,0.3,0.1,0.5,0.1c-0.3,1.7-1.3,3.2-1.2,5c0.1,1.5-1.3,1.3-2,2c-0.3,0.3-0.7,0-0.9-0.4
	c-0.4-0.8-1.3-1.5-0.5-2.5c0.2-0.3,0.3-0.7,0.8-0.9c0.2,0.1,0.4,0.2,0.5,0.4c0.1,0.3,0.1,0.6,0.4,1.1C63.7,75.8,63.1,73.5,64.9,72.5
	z"/>
<path class="st8" d="M66.4,59.5c-0.1,0-0.3,0-0.4,0c-0.2-1.2,0.5-2.1,0.9-3.1c0.8-2,1.8-3.9,1.7-6.1c-0.1-1.2,0.8-1.4,1.7-1.5
	c0.1,0.1,0.2,0.2,0.2,0.3c-0.7,2.8-1.4,5.7-2.6,8.3C67.6,58.3,67.4,59.2,66.4,59.5z"/>
<path class="st11" d="M13.4,22.3c0.6,0.6,0.8,1.2,0.3,1.9c-0.6,0-1.1,0.1-1.3-0.7C12.2,22.8,12.6,22.3,13.4,22.3z"/>
<path class="st8" d="M63.6,57.5c0.2,0,0.4,0,0.6,0.1c0.5,0.3,0.7,0.9,0.7,1.5c-0.1,0.2-0.3,0.4-0.4,0.5
	C63.3,59.3,63.1,58.6,63.6,57.5z"/>
<path class="st1" d="M61.7,75.8c0.3-0.4-0.1-1.2,0.6-1.5c0,0,0,0,0,0c0.4,0.6,0.6,1.2-0.5,1.4L61.7,75.8z"/>
<path class="st13" d="M37.2,58.3c0.5,0,0.8,0.9,1.3,0.3c0.2,0.4,1.4,0,0.9,1c-0.1,0.2-0.3,0.3-0.4,0.5c0.4,2.6,2.2,4.1,4.1,5.4
	c0.4,0.3,1,0.4,1.5,0.7c1.1,0.8,1.3,2,1.2,3.3c0.3-1.2-0.4-2.2-0.3-3.3c0.3-0.5,0.7-0.7,1.2-0.1c-0.2,3,0.7,6,0.3,9
	c-0.1,0.8,0.1,1.6-0.9,2c-0.6,0.2-0.3,0.8,0,1.2c0.2,0.3,0.4,0.7,0,1c-0.3,0.2-0.6,0-0.8-0.3c-0.2-0.3-0.1-0.9-0.8-0.2
	c-1,1.1-1.8,0.7-2.6-1.4c0,1.5-0.7,2-1.8,2c-0.6,0-1.7-1.6-1.7-2.4c0-0.6,0-1.1-0.2-1.7c-0.1,1.3-1.1,2-1.9,2.8
	c-0.7,0.6-1.3,1.6-2.4,0.5c-0.3-0.3-0.6,0-0.9,0.1c-1.8,0.4-1.8,0.4-1.6-1.7c-1.1,0.5-0.8,1.7-1.3,2.5c-1.3-1.5-0.8-2.9-0.1-4.4
	c0.2-0.5,0.4-0.5,0.9-0.3c0.8,0.4,1.1,0,0.8-0.7c-1-2-0.5-4,0-6.1c0.2-0.9,0.4-1.9,0.6-2.8c0.6-2.3,1.4-4.5,4.2-4.9
	c0.5-0.1,0.5-0.5,0.2-0.9C36.3,58.9,36.9,58.7,37.2,58.3z"/>
<path class="st13" d="M34.8,55.2c1-1.8,0.8-3.8,0.3-5.6c-0.4-1.5,0.5-1.3,1.2-1.5c0.4,0,0.8,0.2,1.1,0.4c0.6,0.5,1.1,1.2,2,0.3
	c0.6-0.6,0.7-1.2,0.3-1.9c-0.5-1-1.2-0.7-2-0.3c-0.3,0.1-0.6,0.2-0.9,0c-1.2-1.2-1.2-1.5-0.2-3.4c1-1.7,1-1.7,2.9-1.3
	c0.3,0.1,0.6,0.2,0.9,0.3c1.5,0.3,1.5,0.3,1.9,1.7c0.3-0.2,0.2-0.5,0.3-0.8c0-0.2,0.1-0.5,0.2-0.8c1.4,0.4,1.1,1.6,1.4,2.6
	c0.5-0.4,0.1-1.4,1-1.3c0.7,0.1,0.8,0.7,0.8,1.3c-0.2,1.5,0.6,2.8,0.5,4.4c0.7-0.9,1.5-1.5,1.5-3c0.6,1.1,0.2,2,0.5,2.8
	c0.8-0.5,0-1.5,0.6-2c0.6,0.1,0.7,0.6,0.5,1.1c-0.5,1.3-0.1,2.7-0.7,4c-0.2,0.4,0,0.9,0.2,1.4c0.7,2.2-1.5,4.5-3.8,4.1
	c-1-0.2-1.4-0.7-1.1-1.7c0.3-1,0.5-2,0.8-3c0.1-0.6,0.2-1.2-0.6-1.8c-0.6,1.9-0.5,3.9-1.3,5.7c-0.7-0.5-0.3-1.2-0.6-1.7
	c-0.3,0.4-0.7,0.8-1,1.1c-0.4,0.4-0.6,1.3-1.5,0.8c-0.8-0.4-0.7-0.9-0.5-1.6c0.4-1.1-0.8-0.6-1.1-1c-0.3,1,0.2,1.8,0.1,2.7
	C36.3,57.6,36,57.4,34.8,55.2L34.8,55.2z"/>
<path class="st14" d="M23.4,81.8c0,1.1,0,2.2-0.1,3.5c-0.7-0.4-0.8-1-0.8-1.4c0-1.2,0.2-2.2-1.1-3.1c-0.5-0.3-0.4-1.6,0-2.4
	c0.2-0.4,0.6-0.8,0.5-1.3c-0.6-3.2-0.2-6.5-0.4-9.8c-0.6,0.2-0.2,0.8-0.7,1c-1.3-1.3-0.4-2.9-0.4-4.2c0.2-2.8,1.1-5.5,2.9-7.9
	c1.7-2.1,3.6-2.6,6.1-2.1c0,0,0.1,0.1,0.1,0.2c0,0.1-0.1,0.1-0.1,0.2c-1.8,0-3.7-0.4-4.8,2.2c0.7-0.6,1.1-0.9,1.5-1.2
	c0.7-0.6,1.4-0.8,2.4-0.3c1.1,0.5,2.3,0.8,3.7,1.3c-0.6,0.7-1.3,0.4-1.8,0.6c-0.8,0.2-0.6,0.8-0.4,1.3c-2.3,2.2-3.1,5-3.5,8.1
	c-0.2,1.7,0.4,4.1-1.9,5.1c0.5-3.7,0.2-7.4,2-11.1c-1.4,1.5-1.7,2.1-2,4.2c-0.6,4.1-1.1,8.2-1.2,12.3c-0.8,1.3-0.3,2.6,0,3.9
	C23.3,81.2,23.4,81.5,23.4,81.8z"/>
<path class="st15" d="M44.7,87.7c-0.1,4.8-0.7,9.5-1.2,14.2c-0.3,3.3-0.9,6.6-1.8,9.8c-0.1,0.5,0,1.3-0.8,1.2
	c-0.7-0.1-1.2-0.6-0.9-1.4c0.6-2.3,0.2-4.6,0.1-6.9c-0.1-3.1,0.6-6,1.6-8.9c0.2-0.6,0.3-1,0.1-1.5c-0.8-3.5-0.3-7.1-0.3-10.7
	c0-1.3,1.7-2,2.8-1.3c0.4,0.3,0.4,0.7,0.4,1.1C44.5,84.8,44.6,86.3,44.7,87.7z"/>
<path class="st16" d="M70.3,118.7c1.3,0.6,1.9,1.6,1.4,2.7c-0.2,0.4-0.4,0.5-0.9,0.6c-6,0.2-11.9,0.7-17.9,0.1
	c-1.1-0.1-2.3,0.1-3.4,0.2c-1.7,0.1-3.6,0.4-5.2-0.7c0.7-1.3,1-4.1,0.7-5.2c1.4-0.1,2.5,0.5,3.6,1.2c0.9,0.6,1.9,0.9,2.9,0.9
	c2,0.1,4,0.4,6,0.6c1,0.1,1.8,0.3,2.7,0.6c2.2,0.7,4.4,0.6,6.7,0.4c0.4-0.4,1.1,0,1.5-0.4c0.5,0,1,0,1.4,0c0.3,0,0.4-0.1,0.4-0.4
	C70.2,119,70.3,118.8,70.3,118.7z"/>
<path class="st17" d="M24.5,71.7c1.2-1.8,1.1-3.9,1.4-5.9c0.2-1.6,0.5-3.3,1.2-4.8c0.6-1.2,1.3-2.4,2.8-2.6c0.5-0.1,0.9-0.2,1.4-0.3
	c0.3-0.1,0.6,0,0.9,0.2c0.1,0.1,0.3,0.3,0.2,0.4c-0.7,1.1,0.9,2,0.5,2.6c-1.5,2.9-1.9,6.1-2.5,9.2c-0.3,1.4-0.8,2.5-1.4,3.8
	c-0.5-0.8,0.1-1.8-0.6-2.6c-0.3,1.7,0.4,4-2.6,3.9c0-1.1,0-2.2,0.1-3.3c-0.7,0-0.7,0.6-1,0.9c-0.2,0.2-0.3,0.2-0.5,0
	C24.5,72.8,24.5,72.2,24.5,71.7z"/>
<path class="st18" d="M29,40.6c-0.9-0.8-2.3-0.5-3.3-1.6c1.1-1.8,2.7-3.2,4.6-4.1c1.4-0.7,2.8-1.8,4.6-1.5c0.2,0,0.5-0.5,0.7-0.8
	c0,0,0,0,0,0c0.2,0.2,0.6,0.4,0.6,0.8c0.1,0.5,0.5,0.3,0.8,0.4c0.5,0.2,1-0.1,1.4,0.4c-0.3,0.6-1,0.2-1.5,0.7c0.6,0.6,1.3,0,1.9,0.3
	c0.3,0.2,0.1,0.4,0,0.6C38.6,37,38,38,37.8,39.4c-0.1,1.5-1.3,2.2-2.9,2.3C32.8,42,31,40.9,29,40.6z"/>
<path class="st19" d="M45.6,33.8c0.3-0.8,1,0,1.4-0.4c0.9-0.9,1.1-1,1.4-0.4c0.9,2,2.9,2.2,4.6,2.8c1.3,0.5,1.4,1,1.1,2.1
	c-0.1,0.4,0.1,0.9-0.3,1.3c-1.4,0.3-2.9,0.4-4.1,1c-1.9,0.8-3.9,0.7-5.8,1.2c-0.8,0.2-1.3-0.1-1.6-1c-0.3-1.3-0.7-2.6-0.7-3.9
	c0-0.7-0.4-2.1,1.3-1.4c0.6-0.9,1.5-0.8,2.4-0.7c0.2,0.1,0.4,0.1,0.5-0.1C45.9,34,45.8,33.9,45.6,33.8L45.6,33.8z"/>
<path class="st20" d="M30,107.9c-0.8,1.5-0.4,3.3-1.4,4.9c-0.2-3-0.3-5.9-0.5-8.7c0-0.9,0.1-1.8-0.3-2.6c-0.4-5.9,0.7-11.7,2-17.5
	c0.4-1.8,1.2-2.2,2.9-2.1c1,0.1,1.5,0.5,1.2,1.5c-0.6,2-1.1,4-1.8,5.9c-1.7,4.6-2.4,9.4-2.2,14.3C30,105.1,29.5,106.5,30,107.9z"/>
<path class="st21" d="M63.6,57.5c0,0.8,0.4,1.5,0.9,2c0.1,0.8-0.3,1.3-1.1,1.3c-0.5,0-0.8,0.3-1.2,0.5c-0.6,0.3-0.8-0.2-1.1-0.5
	c-0.4-1.6-1.2-0.2-2.2-0.2c1.5-1.2-1.2-2.8,1.2-3.7c-1.2-0.6-1.5,0.9-2.4,0.6c-0.2-0.3-0.3-0.7-0.1-0.9c1.2-1.1-0.1-2.2,0-3.3
	c0-0.4-0.4-0.4-0.7-0.3c-0.3,0.2-0.6,0.5-1.1,0.2c-0.1-0.9,1-1,1.1-1.7c-0.5-0.2-0.9-0.3-1.4-0.4c-0.4-0.1-0.6-0.5-0.5-0.7
	c1.2-1.4-0.2-1.8-0.9-2.6c-0.1-0.2-0.3-0.4-0.4-0.5c0.3-0.7,0.8-0.4,1.2-0.2c1,0.5,1.9,1,2.9,1.5c0.4,0.2,1.2,0.4,0.2,1.1
	c-0.5,0.3,0.1,0.4,0.3,0.5c2.3,1.1,3,2.1,2.7,4.7c0,0.5,0.1,0.5,0.4,0.6C62.5,55.9,63,56.7,63.6,57.5z"/>
<path class="st13" d="M49.9,65.6c0.4,1.6-0.2,3.4,1.3,4.7c0.1,0.1,0.2,0.5,0.1,0.7c-0.9,2.6-0.3,5.4-0.6,8.1c0,0.1-0.1,0.3-0.2,0.5
	c-1.2-0.5-0.3-1.8-1-2.7c-0.1,0.7-0.2,1.3-0.3,1.8c-0.1,0.4-0.3,0.6-0.7,0.6c-0.3,0-0.6-0.2-0.7-0.6c-0.2-1.1-0.5-2.1-0.5-3.3
	c0-2.7,0.4-5.4-0.3-8.1c0-0.2,0.2-0.4,0.5-1.2c0.7,2.8,0.9,5.2,1,7.5c0.4-1.5,0.4-3.1,0.1-4.6C48.5,67.4,48.5,67.4,49.9,65.6z"/>
<path class="st22" d="M38.7,24.5c0.5-0.3,0.7-0.9,0.8-1.4c0.5-1.4,0.4-1.6-1.1-2.4c2.4-1.5,2.4-1.5,4.2,0.2
	c-0.1,0.5-0.6,0.3-0.9,0.5c-0.6,0.3-1.2,0.6-0.9,1.4c0.3,0.7,0.8,0.9,1.5,0.8c0.9-0.1,2-0.4,2.6,0c0.9,0.6,0.3,1.9,0.4,2.9
	c0,0.2,0,0.3,0,0.5c-1.6,1.7-1.6,1.7-3.4,0.4c-0.1-1.3-0.4-2.4-2.2-2C39.2,25.6,38.8,25.1,38.7,24.5L38.7,24.5z"/>
<path class="st23" d="M23.3,46.8c0.4-1.7,0.7-3.5,2.1-4.7c0.3,0.8,0.7,1.4,1.4,1.8c0.6,0.4,0.9,0.9,0.9,1.6l0,0
	c-1.5-0.8-1.5-0.8-3.1,1.2c2.8-0.1,4.4,1.6,6,3.4c0.3,0.3,0.7,0.8,0,1.1c-1.5-1.5-3.1-2.6-5.5-2.4c0.4,1.2,1.5,0.7,2.3,1.2
	c-1.2,0.3-2.2,0.1-3.1,0.5c-0.4,0.2-0.8,0.1-1.1-0.2c-0.3-0.4-0.1-0.9,0.2-1.1C24.8,48.4,23.5,47.6,23.3,46.8z"/>
<path class="st24" d="M43.8,117.6c-1.1,0.2-0.8,1.2-0.5,1.5c0.6,0.5,0.2,1,0.4,1.4c0.4,0.8,0.1,1.4-0.6,1.8
	c-0.7,0.4-1.1-0.4-1.5-0.7c-2.1-1.8-2.5-4.2-2.6-6.8c0.7-1.7,2-0.4,3.1-0.8c-0.3,0.9-0.9,0.5-1.2,0.5c-0.4,0-0.8-0.1-1.2,0.3
	c0.3,1,1.2,1,2.1,0.9c0.7,0,1.3-0.3,0.9,0.9C42.5,117,44.2,116.5,43.8,117.6z"/>
<path class="st25" d="M66.4,59.5c1.3-2.8,2.5-5.6,3-8.7c0.1-0.9,0.7-1.1,1.1-1.6c1,0.2,1.2,0.9,0.8,1.7c-1.2,2.3-1.7,4.8-2.1,7.3
	c-0.2,1.4-1.5,1.8-2,2.8C66.2,60.9,66.6,60.1,66.4,59.5z"/>
<path class="st26" d="M67.3,62c0.9,1,1.8,2,1.6,3.5c-1.1,0.2-1-0.9-1.6-1.2c-1.4-1.4-2.6,0.2-4.1,0.1c0.3,0.4,0.6,0.6,0.7,0.8
	c0.4,0.7,0.5,1.4-0.3,1.8c-0.7,0.3-1.2-0.3-1.5-0.9c-0.5-1-1-2-0.2-3.1c0.7-1,2.3-1.8,3.5-1.5C66.1,61.8,66.7,61.9,67.3,62z"/>
<path class="st27" d="M58.6,47.1c-4.8-0.7-8.7-2.1-12.9-4.6c1.4-0.2,2-1.1,3.1-0.7c1,0.3,2.2,0.1,2.9,0.9c0.8,0.8,1.9,1.2,2.5,2.3
	c0.2,0.5,1.4,0.6,2.1,0.8C57,46,57.7,46.2,58.6,47.1z"/>
<path class="st28" d="M38.6,114.1c-0.3,0.6-0.6,1.2-1.6,1.1c-0.8-0.1-1.6-0.1-2.4,0c-0.9,0.1-1.3-0.4-1.6-1.1
	c-0.7-0.3-0.4-0.8-0.4-1.3c0.3-0.6,0.1-1.2,0.3-1.8c0.3-0.8,0.8-1,1.4-0.3c0.8,0.7,1.7,1.2,2.6,1.5C38,112.6,38.4,113.2,38.6,114.1z
	"/>
<path class="st29" d="M61.9,75.7c0.6-0.3,0.5-0.9,0.5-1.4c0.8-1.1,0.6-2.5,1-3.7c0.3-0.8,0.4-1.7,0.7-2.5c0.2-0.4,0.5-0.5,0.9-0.1
	c0,0.5-0.3,1.3,0,1.6c0.8,1,0.3,1.9,0.1,2.8c-0.7,1.3-1.2,2.5-1.3,4c0,0.3-0.1,0.6-0.2,0.9c-0.2,0.6-0.6,1.3-1.2,1.1
	c-0.6-0.2-0.8-0.9-0.4-1.6C62,76.5,62,76.1,61.9,75.7z"/>
<path class="st30" d="M36.9,46.5c0.2-0.1,0.4-0.2,0.6-0.3c1.7-1.3,1.6-1.2,2.8,0.4c0.8,1.1,0.6,1.8-0.4,2.6
	c-0.4,0.3-0.8,0.7-1.3,1.1c-0.8-0.8-1.5-1.5-2.3-2.3C36.3,47.4,36.5,47,36.9,46.5z"/>
<path class="st31" d="M46.6,66c-0.4,0-0.7,0-1,0.4c-0.5,0.4-0.9,0.3-1.4,0c-3.5-0.9-4.7-4.1-6.5-6.7c0.7-0.4,0.9,0.2,1.3,0.4
	c0.6,1,1,2,1.7,2.8c2.5,3.5,7.3,3.1,9.4-0.6c0.2-0.4,0.4-0.8,0.7-1.2C50.9,64,48.9,65.1,46.6,66z"/>
<path class="st32" d="M39.4,59.6c-0.3-0.3-0.6-0.7-0.9-1c2.9,0,5.8,0.1,8.7,0.1c0.1,0.9-0.4,1.3-0.9,1.3C44,60,41.6,61.1,39.4,59.6z
	"/>
<path class="st33" d="M57.1,44.7c-1.8-0.5-3-1.9-4.4-3c-0.4-0.3-0.6-0.8-0.2-1.2c0.4-0.5,1-0.4,1.5-0.1c0.7,0.5,1.3,1.2,1.6,2
	C55.9,43.4,56.5,44,57.1,44.7z"/>
<path class="st23" d="M25.4,42.1c0.3-1.6,1.6-0.7,2.4-1.1c0.8,0.3,1.5,0.8,2.2,1.6C28.3,43.1,26.9,42.3,25.4,42.1z"/>
<path class="st34" d="M58,44.2c-0.7-1-1.5-2.1-2.1-3.1c-0.3-0.5-0.5-1.2,0.2-1.5c0.8-0.3,1.1,0.6,1.1,0.9
	C57.2,41.8,58.1,42.8,58,44.2z"/>
<path class="st35" d="M43.8,31.7c-0.9,1.7-2,2.4-4,1.7C41.2,32.6,42.2,31.7,43.8,31.7z"/>
<path class="st36" d="M37.2,58.3c0.1,0.5-0.3,0.8-0.5,1.2c-0.3,0.1-0.6,0.3-0.9,0.2c-0.6-0.1-1.4-0.2-1.2-1.1
	c0.2-0.8,0.8-0.6,1.4-0.5C36.4,58.2,36.8,58.3,37.2,58.3z"/>
<path class="st2" d="M34.4,110.7c-0.4-0.1-0.9-0.3-1,0.4c-0.1,0.6,0,1.2-0.4,1.8c-0.4-1-0.9-1.9-0.5-3l0,0
	C33.4,109.5,34.1,109.6,34.4,110.7z"/>
<path class="st5" d="M23.3,80.9c-0.5-1.3-1.8-2.6,0-3.9C23.3,78.3,23.3,79.6,23.3,80.9z"/>
<path class="st4" d="M36.2,33.7c0.1-0.5-0.4-0.7-0.5-1.1c1.3-0.1,1.9,1,2.8,1.6c-0.7,0-1.3-0.1-2-0.1C36.4,34,36.2,33.8,36.2,33.7z"
	/>
<path class="st14" d="M24.5,73.3c0.2,0,0.3,0,0.5,0c0,1.2,0,2.3-0.1,3.5C24.2,75.6,24.6,74.4,24.5,73.3z"/>
<path class="st5" d="M24.9,92.8c0.7,0.5,1.1,1.2,1.1,2.4C25.2,94.4,24.9,93.7,24.9,92.8z"/>
<path class="st8" d="M61,61c0.5-0.1,0.7,0.3,1.1,0.5c-0.6,0.6-1.3,1-2.2,1.4C60,61.8,60.9,61.6,61,61z"/>
<path class="st23" d="M27.8,45.5c0.4-0.1,0.9-0.5,1.2,0.1c0,0.1,0,0.3-0.1,0.4C28.2,46.3,28,45.8,27.8,45.5
	C27.8,45.5,27.8,45.5,27.8,45.5z"/>
<path class="st13" d="M34.8,55.2c-0.6-0.4-0.5-0.9-0.3-1.8C34.9,54.2,34.8,54.7,34.8,55.2C34.8,55.2,34.8,55.2,34.8,55.2z"/>
<path class="st13" d="M50.9,67c-0.5-0.4-0.6-0.9-0.1-1.7C50.9,66,50.9,66.5,50.9,67L50.9,67z"/>
<path class="st13" d="M50.9,67c0.5,0.5,0.6,1,0.2,1.6C50.8,68,51,67.5,50.9,67C50.9,67,50.9,67,50.9,67z"/>
<path class="st9" d="M45.7,33.8c0.4,0.1,0.8,0.4,0.7,0.7c-0.3,0.5-0.8,0.2-1.1-0.2C45.4,34.1,45.5,34,45.7,33.8z"/>
<path class="st2" d="M68.3,119.6c-0.4,0.5-0.9,0.5-1.5,0.4C67.2,119.5,67.8,119.6,68.3,119.6z"/>
<path class="st2" d="M70.2,119.1c0.4,0.2,0.3,0.4,0,0.6c-0.2,0.2-0.4,0-0.5-0.2C69.9,119.4,70.1,119.3,70.2,119.1z"/>
<path class="st37" d="M22.7,116.5c-1.8,2.1-4.2,3.2-5.6,5.4c-0.2,0.3-0.6,0-0.9,0c-2.7,0.1-5.4,0.1-8.1,0.2c-0.8,0-1.1-0.1-1.1-1
	c0.1-0.9,0.1-1.9,0-2.8c-0.1-1.3,0.5-1.8,1.8-1.9c3.7-0.2,7.4,0,11.1-0.4C20.7,115.9,21.7,115.8,22.7,116.5z"/>
<path class="st38" d="M40.6,122c-4.9-0.3-9.8-0.1-14.9-0.2c1.3-1.4,2.6-2.2,4.3-1.9c1.3,0.2,2.2-0.8,3.4-0.8c0.6,0,0.4-0.7,0.4-1.2
	c0-0.6-0.3-1.4,0.5-1.7c0.9-0.3,1.9-0.4,2.8,0c0.6,0.3,1.4,1.2,1.3,1.6c-0.4,1.5,1,1.8,1.5,2.7C40,120.9,40.6,121.1,40.6,122z"/>
<path class="st39" d="M30.8,114.7c-0.8,1.1-0.9,3-3,2.7c-0.4,0-0.3,0.2-0.1,0.4c0.5,0.4,0.3,0.6-0.2,0.7c-0.8,0.1-1.3-0.6-2-0.5
	c0.9,1.5,0.7,2.3-1,2.6c-0.9,0.2-1.8,1-3,0.4c-0.7-0.4-0.3,0.4-0.5,0.6c-0.4,0.5-1,0.6-1.5,0.5c-0.2,0-0.4-0.2-0.5-0.4
	c-0.2-0.2,0-0.6,0.2-0.6c1.6-0.3,1.8-2.6,3.6-2.6c0.4-1.2,1.7-1.4,2.5-2.2c0.4-0.4,0.9-0.5,1.4-0.7C29,114.6,29.1,114.5,30.8,114.7
	L30.8,114.7z"/>
<path class="st1" d="M32.5,109.9c0.2,1,0.3,2,0.5,3c0,0.4,0,0.8,0.1,1.3c-0.7,0.2-1.5,0.4-2.2,0.6c0,0,0,0,0,0c2-1.6,2-2.2,0.4-4.4
	C31.6,110.2,32.1,110,32.5,109.9z"/>
<path class="st40" d="M22.4,20c-0.6-0.1-1.2-0.1-2-0.2c1.1-0.7,3.2,0,3.3,1.1c0.1,0.7,0.7,1,1,1.6c-0.4,0.6-1,0.9-1.6,0.8
	c-2-0.5-4-0.1-6-0.1c-1,0-2-0.7-1.9-1.3c0.1-0.9,0.9-1.6,2-1.5C19,20.4,20.7,20.4,22.4,20z"/>
<path class="st41" d="M24.4,18c-2,0.7-3.9,1.1-6,0.9c-0.4,0-0.8,0-1.2-0.2c-0.6-0.2-1.5-0.3-1.3-1.1c0.2-1.1,1-0.2,1.5-0.2
	c2.1,0,4.1,0.3,6.2-0.3C24.7,16.8,24.3,17.6,24.4,18L24.4,18z"/>
<path class="st42" d="M24.4,18.1c0.1-0.1,0.3-0.2,0.4-0.3c1-1.3,0.9-1.3,1.8,0.3c0.5-0.4,0-1.2,0.6-1.6c0.2-0.1,0.2,0,0.3,0.2
	c0.2,0.9-0.2,1.9-0.1,2.8c0,0,0-0.1,0-0.1c-0.9,0.5-0.8,1.5-1.3,2.2C25.6,20.4,24.1,19.7,24.4,18.1C24.4,18,24.4,18.1,24.4,18.1z"/>
<path class="st43" d="M17,32.8c0-0.2-0.1-0.4-0.1-0.6c2.4-2,3.4-1.9,6.2,0.7C20.8,32.9,18.9,32.9,17,32.8z"/>
<path class="st22" d="M38.7,24.5c-0.3-0.1-0.6,0.7-0.9,0c-0.1-0.3-0.1-0.7,0.2-0.8C38.5,23.7,38.6,24.2,38.7,24.5
	C38.7,24.5,38.7,24.5,38.7,24.5z"/>
<path class="st1" d="M46.8,26.6c0.4,0.2,0.8,0.3,1,0.8C47.1,27.6,46.9,27.2,46.8,26.6C46.8,26.6,46.8,26.6,46.8,26.6z"/>
<path class="st23" d="M23,53.8c0.9-2.3,2.2-3.1,4.7-2.8C26.1,52,24.6,52.9,23,53.8z"/>
<path class="st4" d="M45.6,18.6c-0.1,0.1-0.3,0.2-0.4,0.2c-0.1,0-0.3-0.1-0.4-0.2c0.1-0.1,0.3-0.2,0.4-0.2
	C45.3,18.4,45.5,18.5,45.6,18.6z"/>
<path class="st1" d="M44.3,66.4c0.5,0,0.9,0,1.4,0c0.6,1.1,0.5,2.2,0.2,3.4C45.7,68.5,45.5,67.2,44.3,66.4z"/>
<path class="st1" d="M33.2,77.4c-0.3-0.6-0.3-1.1,0-1.7C33.5,76.3,33.6,76.7,33.2,77.4z"/>
<path class="st5" d="M21.7,64.8c-0.1,0.1-0.1,0.2-0.2,0.4c-0.1-0.1-0.2-0.2-0.2-0.4c0-0.1,0.1-0.2,0.2-0.4
	C21.5,64.5,21.6,64.7,21.7,64.8z"/>
<path class="st1" d="M30.6,61.7c0.1,0.1,0.2,0.3,0.2,0.4c0,0.1-0.1,0.2-0.2,0.4c-0.1-0.1-0.2-0.3-0.2-0.4
	C30.5,61.9,30.6,61.8,30.6,61.7z"/>
<path class="st1" d="M36.2,33.7c0.1,0.1,0.3,0.2,0.4,0.4c-0.3,0-0.5,0.5-0.8,0.1C35.7,34,35.9,33.8,36.2,33.7z"/>
</svg>
