<?xml version="1.0" encoding="utf-8"?>
<!-- Generator: Adobe Illustrator 23.1.1, SVG Export Plug-In . SVG Version: 6.00 Build 0)  -->
<svg version="1.1" id="Livello_1" xmlns="http://www.w3.org/2000/svg" xmlns:xlink="http://www.w3.org/1999/xlink" x="0px" y="0px"
	 viewBox="0 0 80 135" style="enable-background:new 0 0 80 135;" xml:space="preserve">
<style type="text/css">
	.st0{fill:#FFFFFF;stroke:#000000;stroke-width:0.2509;stroke-miterlimit:10;}
	.st1{fill:#414C41;}
	.st2{fill:#454D47;}
	.st3{fill:#644D48;}
	.st4{fill:#5A4142;}
	.st5{fill:#543B3B;}
	.st6{fill:#654F47;}
	.st7{fill:#888D8E;}
	.st8{fill:#939899;}
	.st9{fill:#989E9D;}
	.st10{fill:#838587;}
	.st11{fill:#C6C7C3;}
	.st12{fill:#D9D9D7;}
	.st13{fill:#929495;}
	.st14{fill:#AB8E3B;}
	.st15{fill:#FAE430;}
	.st16{fill:#DB493F;}
	.st17{fill:#CCD1CE;}
	.st18{fill:#FBE82F;}
	.st19{fill:#BFA642;}
	.st20{fill:#B14845;}
	.st21{fill:#ED4745;}
	.st22{fill:#C64745;}
	.st23{fill:#E7E8E8;}
	.st24{fill:#C5474A;}
	.st25{fill:#CC4E51;}
	.st26{fill:#DB504E;}
	.st27{fill:#D15655;}
	.st28{fill:#BF4A4C;}
	.st29{fill:#D74540;}
	.st30{fill:#C74945;}
	.st31{fill:#BC4E4B;}
	.st32{fill:#D1605D;}
	.st33{fill:#ED4744;}
	.st34{fill:#B94747;}
	.st35{fill:#E5E4E4;}
	.st36{fill:#FFFFFF;}
	.st37{fill:#F5F5F2;}
	.st38{fill:#F0EFEE;}
	.st39{fill:#DBDEDD;}
</style>
<path class="st0" d="M71.5,135h-63c-4.7,0-8.5-3.8-8.5-8.5V8.5C0,3.8,3.8,0,8.5,0h63C76.2,0,80,3.8,80,8.5v118
	C80,131.2,76.2,135,71.5,135z"/>
<path class="st1" d="M58.6,105.6c-0.2-0.8-0.4-1.5-0.6-2.6c-2.3,2.1-4.9,3-7.7,3.6c-1.1,0.2-2.1,1-3.2,1.5l-3.4-0.9
	c-0.6,0-0.8-0.4-1-0.9c-0.4-1.6-1.5-2.3-3.1-2.3c-2.3,1.6-4.8,2.5-7.5,3.2c-0.5-0.2-1-0.4-1.6-0.5c-3.3-0.2-6.1-1.5-8.5-3.6
	c-0.1-0.1-0.3,0-0.4,0.2c-2-0.7-1.2-2.9-2.2-4.1c-0.3-1.4-1.8-2.4-1.1-4.1c0.6-0.3,1.2-0.5,1.7-0.8c0.4-0.2,0.9-0.2,1.3-0.2
	c2.5,0.2,5-0.1,7.4,0.5c0.2,0.1,0.4,0.1,0.6,0.2c0.7,0.4,1.5,0.2,2.2,0c2.8,0.7,5.9-0.7,8.6,0.8c0.6,0.3,1.2-0.2,1.9-0.3
	c1-0.2,1.9-0.2,2.9,0c1,0.3,2,0.3,3,0c0.9-0.1,1.7-0.1,2.6,0.1c2.7,0.5,2.9,0.2,2.8-2.4c0-0.3,0-0.6,0.2-0.9
	c0.1-0.2,0.3-0.3,0.6-0.3c1.2,0.4,0.6,1.9,1.6,2.4c0.2,0,0.4,0,0.5,0.1c0.1,0.1,0.3,0.3,0.4,0.4c1.2,0.1,2.5,0.2,2.1-1.8
	c-0.1-0.6,0.1-1.3,1.1-0.9c1.1,1,1.2,2.4,1.3,3.8c0.1,0.8,0.3,1.6,0,2.3c-0.8,2.1-1.6,4.3-1.6,6.6C59.5,105,59.4,105.7,58.6,105.6z"
	/>
<path class="st2" d="M59,39.9c-0.4-0.7-0.8-0.2-1.1,0c-1.7,1.4-3.6,2.3-5.8,2.5c-1.5,0.2-2.7,1.2-4.1,1.7c-0.2-0.1-0.3-0.3-0.3-0.5
	c-0.3-0.6,1.1-1,0.2-1.6c-1.9-0.7-3.6-1.9-5.7-2.3c-1.2-0.2-2.4-0.2-3.1,0.7c-1.1,1.2-2.3,1.8-3.9,1.7c-0.1,1.7,2.6,1.6,1.9,3.5
	c-0.2,0-0.3,0-0.5-0.1c-2.8-1.7-5.7-3-9-3.5c-1.9-0.3-3.3-1.6-4.7-2.9c-0.4,0.4-0.3,0.8-0.4,1.2c-1.7-1.4-1.4-3.8-2.5-5.5
	c-0.6-0.9-0.9-2-0.4-3.2c0.8-1.4,0.7-3.4,2.3-4.4c0.2,0,0.5,0,0.7,0.1c0.7,3.1,1.1,3.3,4.5,3c0.8-0.1,1.6-0.1,2.4,0.1
	c0.2,0.1,0.4,0.1,0.6,0.2c2.5,0,4.9,0.9,7.4,0.6c1-0.1,2,0.1,3,0.5c0.9,0.4,1.6-0.3,2.4-0.4c0.9-0.1,1.8-0.1,2.7,0
	c0.4,0.1,0.8,0.3,1.2,0.5c0.7,0.3,1.3,0.1,1.9-0.3c0.2-0.1,0.4-0.1,0.6-0.2c1.6-0.5,3.2,0.9,4.9,0c1,0,1.6-0.8,2.4-1.3
	c0.8-0.5,1.1,1.7,2.3,0.7c0.2-0.1,0.4-0.1,0.7-0.1c0.8,0.2,1.5,0.6,2,1.2c0.1,0.2,0.3,0.4,0.4,0.6C62,35.3,61.3,37.9,59,39.9z"/>
<path class="st3" d="M59.4,91.8c-0.7,0.7-0.1,1.3,0,1.9c0.2,0.7,0.1,1.1-0.8,1c-0.2,0-0.9,0.5-1.4,0.8c-1.1,0.7-1-0.2-1.1-0.8
	c0-0.2,0.4-0.4-0.1-0.4c-0.1,0-0.2,0-0.4,0c-1.1-0.6-0.8-1.9-1.4-2.8c-0.1-0.1-0.1-0.3-0.2-0.3c-0.2-0.1-0.2,0,0,0.1
	c0.3,0.2-0.1-0.1,0.1,0.2c0.1,0.2,0.1,0.3-0.1,0.4c-0.1,0-0.3,0-0.4,0c-1.3-0.1-1.3-1.3-1.5-2.1c-0.4-1.5-1-1.9-2.6-1.6
	c-5.6,1-11.2,0.9-16.9,0.3c-2.2-0.2-4.6-1.1-6.7,0.5c-0.2,0.1-0.5-0.3-0.5-0.3c0.1,3.1-2.8,4-4.4,5.8c-0.1,0.1-0.1,0.1-0.1,0.2
	c-0.4,0-0.9,0-1.3,0c-0.9-0.9-0.2-1.7,0.1-2.5c0.4-1.1,0.4-1.9-0.5-2.7c-0.4-0.7-0.9-1.5,0-2.2c0.3-0.1,0.7-0.2,1-0.1
	c0.5,0.1,1,0.8,1.6,0.2c1-0.9,0.5-1.6-0.1-2.4c-2.8-3.2-2.1-5.6,1.9-6.8c10.5-3.2,21-3.3,31.6-0.2c1.4,0.4,2.8,0.8,3.8,1.9
	c1.4,1.4,1.5,2.7,0.3,4.2c-0.7,0.9-1.9,1.5-1.9,2.9c0.6,0.7,1.3,1.1,2.2,0.5c0.6-0.4,1.3-0.5,2-0.1c0.4,1.3-0.9,1.6-1.5,2.3
	C59.6,90.1,59.9,91.1,59.4,91.8z"/>
<path class="st4" d="M32,107.2c0.6-1.2,1.4-1.7,2.8-1.5c1,0.2,1.8-0.3,2.5-1.1c0.7-0.8,1.4-1.6,2.6-1.2c0,1.2-1.9,1.5-1.5,3.2
	c1.5-0.9,3.1-1,4.7-0.5c0.1,0.3,0.1,1,0.7,0.5c0.7-0.5,1.4-1.1,2.2-1.4c0.6-0.2,1.3-0.1,1.7,0.5c0.5,0.8,0,1.1-0.6,1.5
	c-0.3,0.2-0.5,0.4-0.1,0.8c-0.7,0.8-1.6,1.2-2.5,1.7c-1.3,0.8-1.4,2-0.1,2.8c1.9,1.1,3.3,2.5,4,4.6c0.3,0.9,1,0.9,1.7,0.8
	c1-0.1,1.5,0.4,1.4,1.4c0,0.1,0,0.2,0,0.2c-0.1,4,0.4,3.4-3.2,3.4c-6.1,0-12.3,0-18.4,0c-2,0-2,0-2-2.1c0-0.5,0-1,0-1.4
	c0-0.9,0.3-1.4,1.2-1.3c1.1,0.1,1.6-0.4,1.9-1.4c0.8-1.9,2.6-2.7,4.2-3.8c1.9-1.3,1.9-2.5,0-3.7C34.1,108.6,32.9,108.1,32,107.2z"/>
<path class="st5" d="M36.9,45.7c-0.4-1.2-1.6-1.7-2.5-2.4c-0.9-0.8-0.9-1.6,0.1-1.6c1.9,0,3.2-0.9,4.6-2.1c0.9-0.7,2-0.8,3.2-0.4
	c0.8,0.3,1.6,0.8,2.5,0.4c0.1-0.1,0.3,0,0.5,0c0.9,0.1,0.5,1.7,1.5,1.5c0.8-0.1,1.4-0.1,1.7,0.8c-0.9,0.8-2.5,0.7-3.1,2.2
	c1,0.2,1.7-1,2.6-0.4c0,0.2,0,0.3,0.1,0.5c-0.7,0.8-1.8,1.2-2.7,1.9c-1.3,0.9-1.4,1.9,0,2.7c1.9,1.2,3.5,2.5,4.2,4.7
	c0.2,0.8,1,0.7,1.6,0.7c1.1-0.1,1.4,0.5,1.3,1.5c0,0.2,0,0.3,0,0.5c0,3.1,0,3.1-3,3.1c-6.3,0-12.6,0-18.9,0c-1.7,0-1.7-0.1-1.7-1.7
	c0-0.5,0-1,0-1.4c0-1,0.1-1.9,1.5-1.8c0.6,0,1.1-0.3,1.4-1c0.8-1.9,2.3-3,4.1-3.9C37.7,48.3,37.8,47.9,36.9,45.7z"/>
<path class="st6" d="M59.5,30.8c-0.6,0.4-1.3,0.8-1.9,1.2c-0.9-0.3-0.2-1.2-0.8-1.8c-0.1,1.9-1.4,1.5-2.5,1.5
	c-0.4-0.6-0.5-1.3-0.6-2c0.1-0.2,0.2-0.4,0.3-0.6c0.4-1.7-0.7-3-1.2-4.4c-0.3-0.8-1.2-0.7-1.9-0.5c-2.8,0.6-5.7,0.3-8.5,0.6
	c-0.2,0-0.5,0.1-0.7,0.1C36.4,25,31.1,24.5,26,23c1.3,1.3,0.6,2.5-0.1,3.5c-0.7,1.1-1.7,1.1-2.5-0.1c-0.4-0.9,0.1-1.8-0.2-2.7
	c0-0.2,0.1-0.4,0.2-0.6c0.2-0.8,0.1-1.4-0.6-2.1c-2.7-2.6-2.2-4.9,1.2-6.4c2.5-1.1,5.2-1.6,7.9-2c8.2-1.2,16.4-0.9,24.4,1.4
	c1.3,0.4,2.6,0.9,3.7,1.7c1.7,1.3,1.9,2.9,0.5,4.5c-0.4,0.4-0.8,0.8-1.2,1.2c-1.1,1-0.2,2-0.1,3c0.1,0.5,0.5,0.2,0.7,0.1
	c0.4-0.1,0.7-0.3,1.1-0.5c0.7-0.2,1.6-0.5,1.9,0.1c0.4,0.9-0.6,1.2-1.2,1.6c-1.6,1-0.1,2.3-0.3,3.4c-0.2,0.4-0.6,0.8,0.3,0.7
	c0.4,0.7,0.5,1.3-0.1,1.8C60.5,31.8,60.1,31.1,59.5,30.8c-0.2-0.2-0.2-0.4-0.3-0.6C59.2,30.4,59.3,30.7,59.5,30.8z"/>
<path class="st7" d="M19.7,87.4c-1,0.6,0.2,1.3,0,1.9c-1.1,1.2-1.3,2.8-1.8,4.3c-1.3,0.5-1.1-0.7-1.6-1.3c1.2,2.2,1.5,4.8,3.3,6.6
	c1.1,1.2,1,3,1.8,4.3c0,3.7-2.8,5.8-6,4.4c-1-0.4-1.7-1.2-2-2.2c-0.4-1.4,0.1-3,1.2-3.6c1.1-0.6,2.2-0.3,3.6,1.4
	c0-1-0.4-1.7-0.8-2.5c-1.3-2.5-2.7-4.9-3.7-7.5c-0.7-1.8-0.8-3.6,0.3-5.3c1.4-2.3,4-2.9,6.6-1.6c-0.1,0.2-0.3,0.4-0.5,0.4
	c-3.4-0.5-5.2,0.8-5.4,4c0.3-2.4,1.4-3.8,3.5-4.1C18.9,86.6,19.6,86.4,19.7,87.4z"/>
<path class="st8" d="M20.1,31.8c-0.3,0.6-0.2,1.1,0,1.7c0.8,2.2,2,4.4,2.3,6.8c-0.8,3.4-3.1,4.6-6.2,3.2c-0.2-0.5-0.8-0.7-0.9-1.3
	c-0.1-0.7-0.2-1.4-0.6-2c-0.1-0.3-0.2-0.5-0.4-0.8c0.1-0.6,0.7-0.9,1-1.3c0.4,0.5-0.2,1.3,0.8,1.4c0.4,0.1,0.6,1.1,1.2,0.5
	c0.5-0.5,0.5-1.2-0.2-1.6c-0.2-0.2-0.6-0.1-0.7-0.5c1.5-0.3,1.5-0.3,2.5,1.4c0.4-1.1-0.3-2-0.7-2.9c-1.2-2.4-2.5-4.8-3.5-7.3
	c-0.8-1.8-1-3.7,0.5-5.3c1.1,1.1-0.5,2.6,0.7,3.6c0.4-0.8-0.1-1.5,0.1-2.3c0.3-1.1,1.1-1.6,2.1-1.7c1.3,0.1,1.8,0.8,1.5,2.1
	C18.8,27.8,19.6,29.8,20.1,31.8z"/>
<path class="st9" d="M60.9,25.5c0.3-0.6,1.2-0.3,1.7-1.1c-0.5-0.5-1.1-0.2-1.7-0.3c2.7-1.2,5,0.2,4.8,2.9c-0.1,3.2-0.4,6.4-2.3,9.2
	c-0.7,1-1.1,2.1-1,3.5c0.4-0.4,0.6-0.8,0.9-1c0.8-0.6,1.6-1,2.6-0.3c1,0.7,1.4,1.7,1,2.9c-0.5,1.7-2.4,3.3-4,3.3
	c-1.3,0-3.4-1.1-3.8-3.4c-0.1-0.5-0.2-0.9-0.1-1.4c1.2-2.1,1.7-4.5,2.7-6.6c0.1-0.3-0.1-0.7-0.2-1.1c0.4-0.7,0.4-1.5,0.8-2.2
	C63.2,28,62.9,26.5,60.9,25.5z"/>
<path class="st10" d="M59.9,89.4c0.3-1,1.6-0.9,1.9-1.8c2-0.2,3.4,1.1,3.5,3.4c0.1,1.4-0.7,2.7-0.6,4.2c-0.6,1.7-1.5,3.3-2.3,4.9
	c-0.6,1.1-1.2,2.3-0.9,3.8c0.5-0.7,1-1.5,1.8-1.8c0.8-0.3,1.6-0.1,2.1,0.6c-0.1,0.2-0.2,0.4-0.4,0.5c-1,0.4-2.4,0.6-0.3,1.6
	c0.4,0.2,0.5,0.6,0.5,1c0,0.2,0.1,0.4,0.1,0.6c-0.8,1.6-2.2,2.3-3.9,2c-1.5-0.3-2.7-1-2.9-2.8c0.1-0.3,0.3-0.6,0.3-0.9
	c-0.3-2.2,0.3-4.2,1.3-6.1c0.5-1.1,0.5-2,0.3-3.1c0.5-0.5,0.6-1.1,0.8-1.7C62.4,91.3,62.2,90.9,59.9,89.4z"/>
<path class="st11" d="M64.7,95.1c-0.9-1-0.3-2-0.1-3.1c0.5-2.5-0.4-3.8-2.8-4.5c-1.3-0.2-2.3,0.7-3.6,1.1c-0.2-0.6-0.4-1.2-0.6-1.7
	c0.6,0,1-0.4,1.6-0.6c2.1-0.8,4.1-0.7,5.7,1c1.7,1.7,1.8,3.6,1,5.7C65.7,93.9,65.2,94.5,64.7,95.1z"/>
<path class="st12" d="M16.4,28.9C14.7,28.4,15,27,15,25.8c0-0.6,0.2-1.2,0.3-1.9c1.3-2.1,4.2-3,6.3-1.9c0.6,0.3,1.2,0.7,1.8,1.1
	c0,0.2,0,0.3,0,0.5c0,0.3-0.1,0.6-0.2,0.9c-0.2,0.2-0.5,0.4-0.8,0.4c-0.7-0.1-1.3-0.7-2-0.8c-0.8,0-1.7-0.3-2.5,0.1
	c-0.9,0.1-1.3,0.8-1.5,1.6C16.6,26.7,16.6,27.8,16.4,28.9z"/>
<path class="st9" d="M62.6,22.7c3.8-0.3,5.6,2.8,3.8,6.8C67,26.2,66.4,23.6,62.6,22.7z"/>
<path class="st13" d="M14.4,39.5c0.2,0.2,0.3,0.4,0.5,0.6c0.5,0.5,0.5,1.2,0.9,1.8c0.1,0.6,0.3,1.1,0.4,1.7
	C14.5,42.7,14.1,41.2,14.4,39.5z"/>
<path class="st7" d="M22,87.3c0.1,0.4,0.4,0.8,0,1c-0.7,0.3-1.1-0.2-1.5-0.7c0.1-0.3-0.2-0.7,0-1c0,0,0.1-0.2,0.1-0.2
	C21.2,86.6,21.8,86.7,22,87.3z"/>
<path class="st10" d="M65.4,102.7c1.4,1.2,0.9,2.5,0,3.7c-0.1-0.1-0.2-0.2-0.3-0.3c-0.1-1-0.3-2,0-3.1
	C65.2,102.9,65.3,102.8,65.4,102.7z"/>
<path class="st14" d="M21.1,94.6c-0.2-0.4-0.3-0.7-0.1-1.1c0.2-0.6,0.5-0.3,0.9-0.2c0,0,0.2-0.2,0.3-0.3c0.5-0.5,0.4-1.9,1.7-1.1
	c0.2-0.3,0.3-0.5,0.5-0.8c0.7-1.2,0.9-2.5,1.2-3.7c0.6-0.9,0.2,2.4,1.1,0.1c0.2-0.6,0.9-0.8,1.4-0.5c1.6,1,3.4,0.2,5.1,0.7
	c1.8,0.5,3.8,0.5,5.7,0.5c3.8,0,7.6,0,11.4-0.8c2-0.4,2.1-0.4,2.6,1.5c0.3,1,0.4,2,1.1,2.8c0.1,0.5,0.1,0.9,0.2,1.4
	c0.2,0.8,0.7,1.7-0.1,2.2c-0.8,0.5-1.7,1.5-3,0.6c-0.9-0.6-2-0.1-3-0.4c-0.5-0.3-0.9-0.6-1.2-1.1c-1.8-2.5-4.1-4.1-7.3-4.4
	c-1.4-0.1-3,0.2-4.2-0.9c-1.1,1.4-3.5,1.4-4,3.6c-0.2,1-0.5,2.1-1.8,2.3C26.5,94.9,23.8,94.8,21.1,94.6z"/>
<path class="st15" d="M29.2,95.1c0.6-0.8,0.9-1.6,1.3-2.5c0.5-1.3,1.1-2.6,2.9-2.7c0.5,0,1.3-0.2,1.2-1c0-0.3,0-0.5,0.2-0.4
	c1.9,1.5,4.2,0.7,6.3,1.3c2.4,0.7,4.1,2.1,5.6,3.9c0.4,0.5,1.3,1,1.1,1.9C47,96.3,46,96.4,45,95.7c-1.1-0.5-2.2-0.5-3.3,0
	c-0.9,0.7-1.7,1.2-2.7,0.1c-0.5-0.5-1.5-0.7-2-0.5c-2,0.8-3.9-0.1-5.8-0.2C30.5,95.5,29.9,95.5,29.2,95.1L29.2,95.1z"/>
<path class="st16" d="M43.1,106.1c-0.4,0.2-0.6,1.1-1.3,0.5c-0.9-0.9-1.7-0.5-2.3,0.4c-0.5,0.6-1,0.8-1.6,0.3
	c-0.8-0.6-0.7-1.4-0.2-2.1c0.5-0.8,1.5-1.1,2.2-1.8C41.4,103.8,42.9,104.1,43.1,106.1z"/>
<path class="st17" d="M17.9,93.8c0.5,0.3,0.9,0.7,0.8,1.4c-0.5,0.2-0.4,0.5-0.2,0.9c0.4,1,0.8,1.9,1.3,2.9c-0.1,0.2-0.4,0.4-0.6,0.2
	c-1.7-2.6-2.9-5.3-3.2-8.9C17.1,91.5,16.4,93.2,17.9,93.8z"/>
<path class="st14" d="M54.1,91.8c0-0.2,0.1-0.3,0.1-0.5l0,0c1,0.7,0.8,2,1.5,2.9c-0.1,0.3,0.1,0.9-0.3,1c-0.5,0.1-0.6-0.4-0.6-0.7
	C54.7,93.5,54.4,92.7,54.1,91.8z"/>
<path class="st14" d="M41.7,95.7c1.1-0.8,2.2-0.9,3.3,0C43.9,95.7,42.8,95.7,41.7,95.7z"/>
<path class="st14" d="M29.3,95.1c0.6,0,1.3,0,1.9,0C30.5,95.7,29.9,96,29.3,95.1z"/>
<path class="st14" d="M56,94.2c0.1-0.2,0.2-0.4,0.2-0.6c0.1,0,0.1,0,0.2,0.1c0.2,0.4,0.1,0.7-0.3,0.9C56.1,94.4,56.1,94.3,56,94.2z"
	/>
<path class="st18" d="M41.7,24.6c0.2,0,0.3,0,0.5,0c0.5-0.3,1.5-0.3,1.6-0.1c0.9,2.2,3.6,2.6,4.4,4.7c0.3,0.9,2.1,1.3,0.8,2.6l0,0
	c-0.7,0.2-1.2,0.8-2,0.5c-0.3,0-0.7,0-1-0.4c-1.1-0.8-2.2-0.4-3.3-0.2c-0.6,0.2-0.9,1.4-1.9,0.7c-0.8-1.1-2-0.9-3.1-0.8
	c-2.7,0.1-5.3-0.6-7.9-0.7l0,0c-0.3-0.4-1.2-0.2-1.1-1c0.1-0.6,0.6-0.7,1.1-0.6c1,0.1,0.9-0.7,1.1-1.2c0.7-1.4,1.7-2.1,3.4-2.6
	C36.7,24.7,39.3,25.7,41.7,24.6z"/>
<path class="st19" d="M41.7,24.6c0,0.9-0.6,1.1-1.3,1c-2.4-0.4-4.6,0.3-7,0.5c-1.1,0.1-2,1.1-2.1,2.2c-0.2,1.7-1,2-2.3,1.4
	c-0.2,0.8,0.7,0.7,0.7,1.2c-1.2,0.1-2.4-0.3-3.5,0.3c-0.4,0.2-0.8,0.1-1.1-0.1c-1-0.5-2.1-0.6-3.2-0.7c-0.2-1.2,0.9-1.9,0.8-2.9
	c-0.1-0.3-0.1-0.6,0-0.9c0.2-0.4,0.3-0.8,0.9-0.6c1.3,1.2,1.8,1.1,2.3-0.3c0.2-0.7,0.5-1.4,0.5-2c0-0.9-0.1-1,0.5-0.9
	c1.6,0.3,3.2,0.7,4.9,0.9C35,24,38.4,24.3,41.7,24.6z"/>
<path class="st19" d="M48.9,31.8c-0.1-0.6,0.3-1.5-1-1.3c-0.1,0-0.3-1.3-0.5-1.9c-0.4-1.3-0.4,0.1-0.5,0.2c-0.3,0.1-0.5,0-0.6-0.2
	c-0.7-1.1-2.3-1.5-2.4-3.1c-0.1-1-1.2-0.4-1.8-0.8c0.3-0.1,0.6-0.3,0.9-0.3c3,0.1,6-0.3,8.9-0.8c0.8-0.1,1,0.1,1.3,0.8
	c0.5,1.3,0.6,2.8,1.5,3.9c0.6,0.7-0.2,1.2-0.7,1.7c-0.2-0.3-0.4-0.7,0.1-0.9c-0.5,0.1-0.1,0.7-0.4,0.9c0.6,0.6,0.7,1.2,0.4,1.9
	c-0.7,0.5-1.4,0.9-2.3,0.3C50.9,31.5,49.9,31.9,48.9,31.8z"/>
<path class="st20" d="M47.9,43.7c-1.2,0.2-1.9,1.7-3.4,1.3c0.3-2.4,1.1-3,3.9-3.1C49,42.7,47.9,43,47.9,43.7z"/>
<path class="st19" d="M29.7,30.9c3.1-0.4,6.2,0.7,9.4,0.4c0.7-0.1,1.4,0.2,1.6,1.1c-1.4-0.7-2.9-0.9-4.4-0.5
	c-0.3,0.1-0.7,0.3-0.9,0.2c-1.6-0.8-3.2-0.9-4.8-0.5C30.2,31.6,29.8,31.3,29.7,30.9z"/>
<path class="st19" d="M42.6,31.7c1.2-0.6,2.3-1,3.3,0.2C44.8,31.5,43.7,31.8,42.6,31.7z"/>
<path class="st19" d="M46.9,32.3c0.6-0.3,1.2-0.7,2-0.5C48.3,32.2,47.8,33,46.9,32.3z"/>
<path class="st6" d="M22,27.4c0.1-0.5,0.2-0.9,0-1.4c0.9-0.3,0.6,0.6,0.9,0.9c-0.1,0.2-0.2,0.3-0.3,0.5C22.4,27.5,22.2,27.4,22,27.4
	z"/>
<path class="st21" d="M43.1,76.9c3.9,0.1,7.8,0.8,11.5,1.9c0.7,0.2,1.4,0.5,2,0.8c2.3,1.3,2.4,3.5,0.1,4.8c-1,0.6-2.2,0.9-3.4,1.2
	c-4.3,1-8.6,1.3-13,1.8c-1.8,0.2-3.6-0.3-5.5-0.5c-1.1-0.1-2.2-0.2-3.3-0.4c-0.4-0.3-1,0-1.4-0.4l0,0c-0.5-0.5-0.6-1.1-0.3-1.8
	c0.2-0.4,0.3-1.2,0.9-0.3c-0.2-3,0.5-2.4,2.1-0.7c0.7,0.8,2.4-0.5,2.3-1.7c-0.1-1-0.5-2-0.6-3c0-0.6,0-1.2,0.8-1.3
	c0.6-0.1,0.8,0.4,1,0.8c0.1,0.3-0.1-0.1,0.1,0.2c0.5,1.1-0.1,3,1.2,3.3c1,0.2,2.4-0.6,3.7-0.4c0.9,0.1,1.2-0.5,1.2-1.4
	C42.6,78.8,42.3,77.7,43.1,76.9z"/>
<path class="st22" d="M43.1,76.9c0,1.2,0,2.4,0.1,3.6c0.1,1-0.3,1.2-1.3,1.5c-1,0.3-1.7-0.6-2.7-0.2c-0.8,0.4-1.7,0.6-2.7,1.5
	c-0.4-2.1-0.4-3.9-1.2-5.5c-0.5,1.1,0.1,2.1,0.3,3.1c0.2,0.8,0.7,1.8,0,2.5c-0.9,0.8-2.3,0.8-3.5,1c-0.3,0.1-0.5-0.4-0.6-0.7
	c-0.2-0.4,0.1-1-0.4-1.5c-0.3,1.1,0,2.1,0,3.2c-0.8-0.1-0.4-0.8-0.8-1.2c-0.5,0.6-0.1,1.3-0.3,1.9c-1.7-0.3-3.5-0.5-5.1-1
	c-1.1-0.4-2.1-0.9-2.8-2.1c0.9-0.2,1.3,0.8,2,0.5c0.4-0.1,1.3,0.3,1.1-0.1c-0.4-0.9,1.6-1.1,0.4-2c-0.4-0.3-0.6-0.7,0.2-0.9
	c0.5-0.2-0.3-0.8,0.1-1.5c1.2,1.4,2.2,2.8,2.2,4.9c0.8-0.8-0.2-2.3,1.3-2.4c-0.2-1-0.6-2-1.4-2.7l0,0c0.1-0.2,0.2-0.6,0.2-0.6
	c1.2,0.4,2-1,3.2-0.9c1.2,0.1,2.4-0.3,3.5-0.4c2-0.2,4.1-0.3,6.1-0.4C41.9,76.4,42.6,76.6,43.1,76.9z"/>
<path class="st23" d="M20.6,86.5c0.1,0.3,0.7,0.7,0,1c-0.3-0.1-0.6-0.1-0.9-0.2c-2.3-0.5-4,0.5-4.4,2.6c-0.1,0.8-0.2,1.7-0.4,2.5
	c-0.6-1.6-1.1-3.2,0.1-4.6c1.3-1.4,2.9-2.2,4.9-1.4C20.1,86.6,20.3,86.5,20.6,86.5z"/>
<path class="st22" d="M28.3,78.8c0,0.3,0,0.6-0.1,1.2c-0.6-0.5-1-0.8-1.1-1.4C27.6,78.4,27.9,78.8,28.3,78.8
	C28.3,78.8,28.3,78.8,28.3,78.8z"/>
<path class="st14" d="M54.2,91.3c-0.6-0.4-0.5-0.9-0.4-1.7C54.3,90.3,54.1,90.8,54.2,91.3C54.2,91.3,54.2,91.3,54.2,91.3z"/>
<path class="st22" d="M30.2,86c0.5,0,1.1-0.1,1.4,0.4C31.1,86.5,30.6,86.6,30.2,86z"/>
<path class="st24" d="M39.8,119.1c3,0,6.1,0,9.1,0c1.5,0,1.6,0.7,1.5,1.8c0,0.7-0.4,1-1,1c-0.6,0-1.1,0.1-1.7,0.1
	c-5.5,0-11,0-16.5,0c-0.4,0-0.8,0-1.2,0c-0.7-0.1-1.1-0.5-1.2-1.3c0-0.8,0.3-1.4,1.2-1.5c0.5-0.1,1.1-0.1,1.7-0.1
	C34.4,119.1,37.1,119.1,39.8,119.1C39.8,119.1,39.8,119.1,39.8,119.1z"/>
<path class="st25" d="M44.7,114.6c1.1,0,2.3,1.2,2.2,2.4c0,0.5-0.3,0.7-0.8,0.6c-0.9-0.2-1.6-0.6-2.2-1.3c-0.3-0.4-0.6-0.7-0.4-1.3
	C43.8,114.4,44.4,114.8,44.7,114.6z"/>
<path class="st26" d="M39.8,117.5c-0.7,0-1.5-1.1-1.5-1.9c0-0.9,0.8-1.3,1.4-1.3c0.9,0,1.3,0.8,1.5,1.6
	C41.4,116.5,40.4,117.5,39.8,117.5z"/>
<path class="st27" d="M35.4,115.2c0,1.2-2,2.7-3,2.2c-0.4-0.2-0.5-0.6-0.3-1c0.4-1.1,1.2-1.6,2.2-2C35,114.2,35.2,114.9,35.4,115.2z
	"/>
<path class="st28" d="M40.5,58.2c-3.1,0-6.2,0-9.3,0c-1.4,0-1.5-0.5-1.5-1.8c0-0.7,0.4-1,1-1.1c0.5,0,1-0.1,1.4-0.1
	c5.7,0,11.5,0.1,17.2,0c1,0,1.7,0.1,1.8,1.3c0.1,1.2,0,1.5-1.4,1.6c-3,0.1-5.9,0-8.9,0.1C40.9,58.2,40.7,58.2,40.5,58.2
	C40.5,58.2,40.5,58.2,40.5,58.2z"/>
<path class="st29" d="M41,42.8c-0.1,0.1-0.2,0.2-0.2,0.2c-0.3,0.8-0.7,1.7-1.8,1.5c-0.8-0.2-1-2.4-0.5-3.3c0.6-0.9,2.1-1.5,3.1-1.3
	c1.1,0.2,2.2,1.2,2.2,1.9c0,0.5-1.3,2.1-2,2.2C41,44.2,41.4,43.3,41,42.8z"/>
<path class="st30" d="M42.2,52c0,0.8-0.9,1.8-1.6,1.7c-0.7-0.1-1.7-1.2-1.7-2c0-0.9,0.7-1.2,1.5-1.1C41.4,50.5,42.2,51.2,42.2,52z"
	/>
<path class="st31" d="M44.9,49.8c1.5,0.4,2.3,1.5,2.9,2.7c0.1,0.3,0.2,0.7,0,0.9c-0.3,0.4-0.7,0.3-1.1,0.2c-0.9-0.3-1.5-0.8-2.1-1.5
	c-0.6-0.7-0.3-0.7,0.4-1C45.8,50.8,44.7,50.5,44.9,49.8z"/>
<path class="st32" d="M35.6,50.6c-0.3,0.8,0.9,1.2,0.4,1.8c-0.5,0.6-1.3,0.9-2.1,1c-0.3,0-0.7,0-0.8-0.3c-0.1-0.3,0-0.7,0.1-0.9
	C33.8,51.4,34.5,50.8,35.6,50.6z"/>
<path class="st33" d="M43.6,13c4.3,0,8.5,0.9,12.7,2.1c1.3,0.4,2.8,1,3.1,2.7c0.2,1.3-1.1,2.8-2.9,3.4c-3.4,1-6.8,1.9-10.3,2
	c-4.5,0.2-9.1,0.3-13.6-0.6c-0.6-0.4-1.3,0.1-1.9-0.4l0,0c-0.9-1.9,1.1-2.9,1.3-4.5c0-0.3,0.4-0.5,0.7-0.1c0.1-0.1,0,0.5,0.2,0
	c0.1-0.3,0.1-0.7,0.5-0.7c0.5,0,0.6,0.4,0.8,0.8c0.2,0.3,0,0.7,0.2,1c0.5-0.8,2.2,0.5,2.1-1.3c0-0.2,0.1-0.3,0.1-0.5
	c0.2-0.4,0.4-0.8,0.9-0.5c0.3,0.2,0.2,0.7,0.2,1.1c0.2-1.5-1.5-3-0.2-4.6c0.2,0,0.3,0,0.5,0c0.5,0.7,0.9,1.5,1,2.4
	c0,1.3,1.2,1.3,2,1.7c0.9,0.4,0.9-0.6,1.1-1.1c0.4-1.1,0.9-0.5,1.4,0c0.2,0.3,0.3,0.5,0.3,1.1c0.1-0.8,0.4-1.4,0.3-2.2
	c0,0.6,0,1.1-0.6,1.2c-0.7-0.8-1.4-1.5-2.6-1.2c-1.5,0.3-2-0.6-2.4-1.7l0,0C40.1,12.7,41.9,12.7,43.6,13z"/>
<path class="st34" d="M37.4,13.1c0,1.9,0.8,3.7,0.4,5.7c-0.9-0.4,0-1.4-0.8-2c0.1,1.2-0.1,2.1-1,2.9c-0.5,0.5-0.7,0.5-1-0.1
	c-0.1-0.2,0.1-0.7-0.3-0.7c-0.3,0.1,0,0.8-0.5,0.9c-0.2-0.8-0.3-1.7-0.8-2.5c-0.6,0.9,0.1,1.8,0.1,2.8c-1.2-0.6-0.5-1.7-0.9-2.3
	c-1,0.2,0.7,2-1.1,1.9c-0.3,0-0.1,1.6-0.7,2.3c-2.3-0.3-4.7-0.4-6.5-2c-1.5-1.3-1.9-1.4-0.4-3.5c2.2,1.8,2.5,2,3.5,2
	c-0.1-1.4-1.1-2.2-2.1-3.4c1.9-0.2,3.2-1.9,5.2-1c0.1,0,1-0.9,1.8-0.9C34,13.4,35.7,13.2,37.4,13.1z"/>
<path class="st34" d="M43.1,15.9c-0.4-0.1-1-0.4-0.9,0.4c0,0.5,0.6,1-0.1,1.5c-0.7,0.4-1.2,0-1.8-0.2c-0.6-0.2-0.9-0.9-1.8-0.9
	c-0.4,0,0-1.3-0.3-1.9c-0.2-0.6-0.4-1.2-0.4-1.8c0.2,0,0.3,0,0.5,0c0.3,0.6,1.3,0.3,1.4,1.1c0,0.1-0.1,0.4,0.4,0.3
	C42,14,42.1,14.1,43.1,15.9L43.1,15.9z"/>
<path class="st2" d="M22.9,27c-0.3-0.3-0.6-0.6-0.9-0.9c-0.3-0.2-0.6-0.4-1-0.6c-1.4-0.9-1.5-1.2-0.5-1.8c1-0.3,1.3,0.8,2,1.1
	c0.5,0.1,0.7-0.1,0.5-0.6c-0.2-0.4,0.1-0.5,0.3-0.5c0.9,0.8,0.4,1.5,0,2.3C23.1,26.2,23.1,26.6,22.9,27z"/>
<path class="st34" d="M43.6,13c-1.8,0-3.5,0-5.3,0C40.1,12.3,41.9,12.4,43.6,13z"/>
<path class="st34" d="M30.7,22.2c0.7,0,1.4-0.2,1.9,0.4C31.9,22.6,31.2,22.8,30.7,22.2z"/>
<path class="st2" d="M59.5,30.8c-0.5-0.4-0.6-0.9-0.1-1.7C59.4,29.9,59.4,30.3,59.5,30.8C59.5,30.8,59.5,30.8,59.5,30.8z"/>
<path class="st2" d="M60.9,29.4c0.1,0.1,0.1,0.2,0.1,0.3c-0.1,0.2-0.1,0.4-0.2,0.7c-0.1-0.1-0.3-0.1-0.3-0.2
	C60.4,29.8,60.6,29.6,60.9,29.4z"/>
<path class="st2" d="M57.8,29.3c0.1,0.1,0.2,0.2,0.2,0.4c0,0.1-0.1,0.2-0.2,0.3c-0.1-0.1-0.2-0.2-0.2-0.4
	C57.6,29.5,57.7,29.4,57.8,29.3z"/>
<path class="st2" d="M53.8,29.8c-0.1-0.4-0.2-0.7,0.2-1.1c0.1,0.4,0.1,0.8,0.1,1.1C54,29.8,53.9,29.8,53.8,29.8z"/>
<path class="st2" d="M57,27.2c-0.1,0.1-0.1,0.2-0.2,0.3c-0.1-0.1-0.2-0.2-0.2-0.4c0-0.1,0.1-0.2,0.2-0.3C56.9,27,56.9,27.1,57,27.2z
	"/>
<path class="st35" d="M14.8,103.6c-0.4,1.3,0.3,2.2,1.1,3.2c-1.4-0.7-2.1-2-1.7-3.3c0.3-1,1.2-1.5,2-1.2c0.4,0.2,0.8,0.5,0.8,1.1
	c0,0.3-0.3,0.6-0.5,0.8c-0.5,0.4-0.9,0.1-1.1-0.4C15.3,103.7,15.2,103.5,14.8,103.6z"/>
<path class="st6" d="M20.6,23.6c-0.9,0.9,0.4,1.2,0.5,1.8c-0.6,0.1-1.3,0.2-1.9,0.3c0.5-1.2,0-1.7-1.2-1.6
	C18.7,23.5,19.6,23.1,20.6,23.6z"/>
<path class="st6" d="M16.4,28.9c-0.1-1.1-0.2-2.1,0-3.2C16.9,26.7,16.8,27.8,16.4,28.9z"/>
<path class="st36" d="M15.8,41.8c-0.7-0.4-0.7-1.1-0.9-1.8C15.9,40.3,15.7,41.2,15.8,41.8z"/>
<path class="st37" d="M64.6,41.3c-0.7,0.1-0.9-0.4-0.9-0.9c-0.1-0.7,0.1-1.3,0.9-1.4c1-0.1,1.6,0.4,1.5,1.4c-0.1,1.4-0.4-0.1-0.6,0
	C65,40.5,65.2,41.3,64.6,41.3z"/>
<path class="st38" d="M65.1,103c0.6,1,0.1,2,0,3.1c-0.6-0.1,0.2-1.5-1-1c-0.8,0.3-1.2,0-1.3-0.8c-0.1-0.8,0.2-1.4,1.1-1.5
	C64.3,102.7,64.7,102.9,65.1,103z"/>
<path class="st39" d="M60.4,103c0.6,1.4,1,2.4,2.5,3C60.5,106,60,105.4,60.4,103z"/>
<path class="st6" d="M23.1,24.1c0.3,0.2,0.4,0.4,0.1,0.7c-0.2,0.3-0.5,0.1-0.7-0.1C22.7,24.5,22.9,24.3,23.1,24.1z"/>
<path class="st34" d="M43.1,15.9c0.8-0.4,0-2.1,1.8-2c-1,1.2-0.4,2.9-1.4,4.2C42.9,17.3,43.2,16.6,43.1,15.9
	C43.1,15.9,43.1,15.9,43.1,15.9z"/>
</svg>
