<?xml version="1.0" encoding="utf-8"?>
<!-- Generator: Adobe Illustrator 23.1.1, SVG Export Plug-In . SVG Version: 6.00 Build 0)  -->
<svg version="1.1" id="Livello_1" xmlns="http://www.w3.org/2000/svg" xmlns:xlink="http://www.w3.org/1999/xlink" x="0px" y="0px"
	 viewBox="0 0 80 135" style="enable-background:new 0 0 80 135;" xml:space="preserve">
<style type="text/css">
	.st0{fill:#FFFFFF;stroke:#000000;stroke-width:0.2509;stroke-miterlimit:10;}
	.st1{fill:#4B4A43;}
	.st2{fill:#4E4F47;}
	.st3{fill:#4D5048;}
	.st4{fill:#663E40;}
	.st5{fill:#7D5D49;}
	.st6{fill:#934C4E;}
	.st7{fill:#AA5156;}
	.st8{fill:#F6F6F7;}
	.st9{fill:#898788;}
	.st10{fill:#868383;}
	.st11{fill:#888788;}
	.st12{fill:#808083;}
	.st13{fill:#9A9A9B;}
	.st14{fill:#8D8B8C;}
	.st15{fill:#D04C49;}
	.st16{fill:#A54951;}
	.st17{fill:#DDCA39;}
	.st18{fill:#F4E932;}
	.st19{fill:#E9E8E7;}
	.st20{fill:#F3F3F3;}
	.st21{fill:#A79C46;}
	.st22{fill:#C2B279;}
	.st23{fill:#EB5251;}
	.st24{fill:#B14F58;}
	.st25{fill:#9D8C49;}
	.st26{fill:#E2D13A;}
	.st27{fill:#F3F3F1;}
	.st28{fill:#CDBB51;}
	.st29{fill:#8F9092;}
	.st30{fill:#EA5050;}
	.st31{fill:#F3E432;}
	.st32{fill:#ECEBEA;}
	.st33{fill:#A39257;}
	.st34{fill:#AB9B51;}
	.st35{fill:#F3E332;}
	.st36{fill:#F7F8F8;}
	.st37{fill:#EEEEED;}
	.st38{fill:#CBB55E;}
	.st39{fill:#BA4C52;}
</style>
<path class="st0" d="M71.5,135h-63c-4.7,0-8.5-3.8-8.5-8.5V8.5C0,3.8,3.8,0,8.5,0h63C76.2,0,80,3.8,80,8.5v118
	C80,131.2,76.2,135,71.5,135z"/>
<path class="st1" d="M71.6,67.5c-1.5,0.4-2.3,1.3-2.6,2.8c-0.4,1.7-1.5,3.1-3.1,4c-0.5,0.3-1,0.5-0.9,1.2c0.2,1.1,0.6,2.2-1.1,2.7
	c-0.5,0.1-0.1,0.7,0.1,1c1.1,1.4,2.4,2.4,4.1,2.5c1.5,0.1,1.6,0.8,1.6,2c0,2.6,0,2.7-2.6,2.8c-5,0.1-10,0.1-15.1,0.2
	c-1.1,0-1.7-0.3-1.5-1.4c0-0.4,0-0.8,0-1.2c-0.1-1.2,0.2-1.8,1.5-2.2c2.5-0.7,3.2-1.4,4.6-3.5c-0.3-0.5-0.7-0.3-1-0.2
	c-1,0.2-1.4-0.3-1.2-1.1c0.3-1.4-0.4-2.1-1.5-2.9c-1.7-1.2-3-2.9-3.3-5c-0.2-1.4-1.7-1.1-2.1-2.1c-0.1-0.4,0-0.6,0.3-0.7
	c0.5-0.1,1-0.1,1.3-0.5c0.5-0.7,0.1-1.4-0.2-2c-0.7-1.5-1.1-3.1-1.4-4.8c-0.2-1.2-0.3-2.4,0.9-3.2c0.2-0.1,0.5-0.1,0.7,0.1
	c0.1,2,0.5,3.9,1.2,5.8c0.1-0.5,0.1-0.9,0.3-1.4c0.6-2.4,0.6-2.4,3.5-1.6c0.2,0.1,0.4,0.1,0.6,0.2c2.3,0.5,4.6,0.2,6.9,0.2
	c0.6,0,1.2-0.1,1.5-0.6c0.5-1,1.3-1.1,2.3-1.1c0.1,0,0.7,0.5,0.8-0.4c0.1-1.7-0.3,1.2-0.6-0.1c-0.1-0.6-1.7-1-1.8-2.2
	c0.8-1,2-0.1,2.7-0.6c-2.4-0.2-4.8,1.7-7.4,0.8c-1.8-0.5-3.6-0.2-5.3-0.3c-0.4,0-0.7-0.1-1.1-0.2c-1.7-0.4-2.1-1.4-1.4-3
	c0.5-1.1,1.1-2.1,2.5-1.5c1.4,0.6,0.7,1.6,0.1,2.4c0.8,0.4,1.3,0,1.8,0c0.2,0,0.4,0.1,0.6,0.2c0.8,0.4,1.8,0.3,2.6,0.3
	c0.8,0,1.7,0,2.5,0c0.7,0,1.4,0,2.1-0.3c1-0.2,2-0.3,3-0.7c0.7-0.3,1.4-0.5,1.5-1.4c0.1-0.9-0.7-1.2-1.4-1.4
	c-1.6-0.6-3.2-0.8-4.9-0.8c-1.5,0-3,0.3-4.4-0.4c-0.2-0.2-0.2-0.4-0.1-0.6c2.3-0.3,4.6-0.1,6.9-0.1c1.1,0,2.2,0.3,3.3,0.7
	c2.9,1,3.4,2.2,2.1,5.1c-0.1,0.5,0.2,1,0.2,1.5c2.5,2.3,1.6,5,0.9,7.7c-0.5,1.7-0.9,3.4,0.9,4.6C71.8,67.1,71.8,67.3,71.6,67.5z"/>
<path class="st2" d="M10.3,32.9c-0.2-0.4-0.6-0.5-1-0.5c-0.3-0.4,0-0.8,0.1-1.1c0.3-0.5,0.5-1,0.6-1.6c0.1-0.5-0.1-1-0.2-1.4
	c0-0.2,0-0.4,0-0.6c0.1-0.3,0.3-0.5,0.6-0.7c1.2-1.8,1.4-3.6,0.4-5.5c-0.2-0.4-0.4-0.7-0.6-1.2c-0.1-0.2-0.1-0.4-0.1-0.6
	c-0.2-0.5,0.4-1,0-1.5c-1.1-2-1.1-2,0.1-3.4c1.7,2.6,4.4,2.8,7.1,2.8c2.9-0.1,5.9,0.1,8.8-0.4c1.6-0.3,2.8-1,3.3-2.7
	c0.2-0.4,0.4-0.7,0.9-0.6c1.1,0.8,1.3,1.8,0.7,3c-0.2,0.6-0.6,1.1-0.6,1.7c0.1,0.2,0.2,0.4,0.3,0.6c2.3,1.9,2,4.4,1.4,6.9
	c-0.4,1.6-1.1,3.2-0.3,4.9c0.2,0.6,1.1,0.8,0.9,1.5c-1.3,0.1-2,0.7-2.4,2.1c-0.6,2-1.8,3.7-3.8,4.7c-0.7,0.3-1,0.7-0.6,1.5
	c0.4,0.8,0.4,1.6-0.7,1.9c-1,0.3-0.8,0.8-0.3,1.4c1.1,1.2,2.4,2.1,4,2.4c1.7,0.3,1.7,0.4,1.7,2.1c0,0.2,0,0.3,0,0.5
	c0,1.9,0,2-1.9,2.1c-5.3,0.1-10.7,0.2-16,0.3c-1.2,0-1.6-0.5-1.5-1.6c0-0.4,0.2-0.8,0.1-1.2c-0.3-1.3,0.4-1.7,1.4-2
	c2-0.7,3.8-1.7,4.9-3.6c-0.3-0.4-0.7-0.2-1.1-0.2c-1.3,0.1-1.7-0.1-1.4-1.4c0.3-1.2-0.1-1.6-1.1-2.2c-1.7-1.1-2.9-2.6-3.6-4.6
	C10.3,34,10.6,33.4,10.3,32.9z"/>
<path class="st3" d="M33.6,103.9c-2.1,0.7-3,2.4-3.7,4.3c-0.3,0.9-1,1.7-1.7,2.2c-1.2,0.9-2.6,1.5-1.6,3.4c0.2,0.4-0.3,0.8-0.9,0.8
	c-0.5-1.8-1.8-2.2-3.5-2.1c-2,0.1-4.1,0.3-6.1,0c-0.1-0.6-0.5-1-1-1.3c-2.3-1.3-3.6-3.3-4.2-5.8c-0.1-0.6-0.3-1-1-1.1
	c-0.3-0.9,0.8-0.5,0.9-1c0.6-1.2,0.2-2.5-0.1-3.7c-0.2-0.8-0.6-1.6-0.9-2.4c-0.6-2.1-1-4.2,1.5-5.5c-0.7-0.7-1.4-0.3-2.5-0.6
	c1.8-0.1,2.4-0.6,1.3-1.9c-0.6-0.8-0.2-1.5,0.3-2.2c2,2.4,4.8,2.4,7.6,2.5c0.2,0,0.5,0.1,0.7,0.1c1.5,0.3,3,0.3,4.4,0
	c1.2-0.2,2.3-0.4,3.5-0.6c1.1-0.2,2.3-0.2,2.8-1.4c0.5-1.3-1.2-1.5-1.5-2.4c0.1-0.4,0.2-0.7,0.7-0.5c0.8-0.1,1.4,0.4,1.9,0.7
	c1.3,0.8,1.6,2,1,3.5c-0.2,0.5-0.6,0.9-0.5,1.5c0.2,0.3,0.4,0.6,0.5,0.9c2.4,2.6,1.5,5.4,0.7,8.3c-0.4,1.5-1,3,1,3.8
	C33.3,103.6,33.4,103.8,33.6,103.9z"/>
<path class="st4" d="M16,112.6c1.2-0.5,2.4-0.8,3.7-0.5c1.5,0.3,2.9-0.4,4.5,0c1.8,0.5,1.9,0.6,1.5,2.6c-0.4,0.3-0.9,0.6-0.3,1.3
	c1.2,1.4,2.6,2.5,4.4,2.7c1.1,0.2,1.6,0.6,1.4,1.7c0,0.3,0,0.6,0,1c-0.1,1.6-0.1,1.8-1.8,1.8c-4.2,0.1-8.5,0.1-12.7,0.2
	c-1,0-1.9,0-2.9,0c-1.8,0.1-1.8,0.1-1.8-1.8c0-2.1,0-2.1,2-3c1.7-0.8,3.2-1.6,4.3-3.3c-0.7-0.7-1.9,0.4-2.3-0.8
	C15.5,113.7,15.5,113.2,16,112.6z"/>
<path class="st5" d="M57.3,47.4c0,0.2,0,0.3,0,0.5c0,1.1,0.2,2.2,0.2,3.3c0,0.9-0.1,2.1-1.7,1.5c-0.9,1.5-2,0.7-3,0.3
	c0.1-0.6,0.3-1,0.8-1.2c0.4-0.1,0.8-0.3,0.5-0.8c-0.3-0.5-0.7-0.6-1.2-0.5c-0.8,0.2-1.8,2.5-1.4,3.1c0.2,0.3,0.8,0.2,1,0.5
	c0.2,0.7,0.6,0.2,0.9,0.1c1.9,0.2,3.9-0.4,5.8,0.4c-1.4,0.6-2.8,0.2-3.9,0.3c2.7,0.2,5.7-0.2,8.7,0.2c0.2,0.7,1.1,0.5,1.5,1.1
	c0.2,0.4,0.3,0.3,0.9-1.1c0.1,1.1,0.1,1.6,0.1,2.2c0,0.4,0.1,0.9-0.1,1.1c-0.4,0.4-0.3-0.7-0.7-0.4c-0.3,0.2-0.2,0.8-0.6,1
	c-0.4,0.2-0.5-0.2-0.6-0.5c-0.1-0.3-0.2-1.1-0.4-0.1c-0.2,0.9-0.8,1.3-1.5,1.3c-2.7,0.1-5.5,0.6-8.2-0.3c1.5-1.3,3.4-0.4,5-0.7
	c0.6-0.1,1.6,0.2,1.6-0.9c0-0.9-0.9-1-1.6-1.1c-2.4-0.3-4.1,0.6-5.4,2.6c-0.7-0.5-1.8,0.1-2.3-1c-0.3,0.6,0.2,1.4-0.5,2
	c-1.3-1.1-0.5-3.3-2.1-4.3l0,0c-0.3-0.5,0.2-1,0.1-1.6c0-0.5,0.3-0.9-0.1-1.4c-0.8-2-0.4-3.1,1.7-4.2C52.8,47.9,55,47.4,57.3,47.4z"
	/>
<path class="st6" d="M17.9,90.1c-1.9,0.4-3.7-0.2-5.6-0.5c-1.3-0.2-1.5-1.5-2-2.4c1.2-2,3.3-2.4,5.3-2.8c4-0.8,8.1-0.8,12.1,0
	c0.3,0.1,0.6,0.2,0.9,0.4c-0.2,0.2-0.3,0.3-0.5,0.5c-1.6,1.1-3.2-0.1-4.8,0.2c-0.9,0.2-1.6-0.2-2,1.3c-0.4,1.9-1.1,1.9-2.6,0.3
	c-0.7-0.3-0.1-1.4-0.9-1.7c0.1,0,0.2,0.1,0.2,0.1c0.3,0.6,0.1,1.3,0.7,1.7C19.1,88.2,18.7,89.2,17.9,90.1z"/>
<path class="st7" d="M17,18c-1.3,0.3-2.5-0.2-3.7-0.3c-2.1-0.3-2.5-0.8-3-3c2-2.2,4.7-2.4,7.4-2.7c3.2-0.3,6.3-0.3,9.5,0.3
	c1.2,0.2,2.3,0.6,3.2,1.5c-0.2,0.2-0.3,0.4-0.5,0.5c-4.2-0.7-8.4-1-12.3-1c-0.1,0-0.4-0.2-0.4-0.1C19.9,14.9,17.6,16.4,17,18z"/>
<path class="st8" d="M10.2,27.7c0,0.1,0,0.3,0.1,0.4c0.3,0.5,0,1.1,0.3,1.5c0,0.8-0.3,1.4-0.8,1.9c-0.8,0.3-1.4,0.1-1.1-0.8
	c0.6-2.2-0.4-4.1-0.8-6.2C7.5,22.8,7,21,8.5,19.5c0.1-0.1,0.2-0.1,0.3-0.2c0.8-0.9,1.4-0.4,2,0.2c0,0.2,0,0.3-0.1,0.5
	c-1.4,1.4-1.5,3-0.9,4.7C10.1,25.7,10.1,26.7,10.2,27.7z"/>
<path class="st9" d="M30.8,91.4c0-0.3,0.1-0.6,0.1-0.9c2.7,0.6,3.3,1.4,3.3,4c0,1.8-0.5,3.4-0.9,5.1c-0.2,0.9-0.6,1.8,0.3,2.6
	c0.4,0.4,0.4,1.2-0.1,1.7c-0.3,0-0.5,0-0.8,0.1c-1-1.7-1.2-3.4-0.5-5.3c0.4-1,0.5-2.1,0.6-3.3C33,93.6,32.5,92.2,30.8,91.4z"/>
<path class="st10" d="M30.4,19c0-0.2,0.1-0.4,0.1-0.6c2.6,0.3,3.3,1.1,3.4,3.7c0,1.6-0.4,3.1-0.7,4.7c-0.3,1.2-0.5,2.3,0.3,3.4
	c0.6,0.8,0.3,1.7-0.7,2.2c-0.3-0.6-1.2-0.2-1.4-0.9c0.1-3.1,0.9-6.1,1.4-9.2C33,20.6,31.4,19.9,30.4,19z"/>
<path class="st11" d="M69.2,54.5c0.1-0.5-0.2-1.1,0.4-1.4c0,0.1,0.1,0.2,0.1,0.2c3,1.7,3.5,2.8,2.8,6.2c-0.2,1.2-0.5,2.3-0.8,3.5
	c-0.2,0.8-0.4,1.6,0.3,2.4c0.6,0.7,0.6,1.6-0.4,2.2c0-0.2,0-0.5,0-0.7c-1.4-1.2-1.7-2.6-1-4.3c0.6-1.5,0.6-3.1,0.9-4.6
	C71.9,56.2,70.5,55.3,69.2,54.5z"/>
<path class="st12" d="M49.1,53.1c0.6,0.4,0.5,0.9,0.5,1.5c-2.3,1.2-2.3,3.3-1.8,5.4c0.3,1.2,0.7,2.5,1,3.7c0.4,1.1,0.3,2.2-0.8,3
	c-0.2,0.2-0.4,0.4-0.6,0.6c-0.1-0.2-0.4-0.5-0.3-0.6c0.9-1.9,0.2-3.7-0.3-5.6c-0.2-0.7-0.3-1.4-0.5-2.1c-0.5-2.8-0.3-3.4,2.3-5
	C49.1,53.7,49,53.4,49.1,53.1z"/>
<path class="st13" d="M8.5,19.5c-0.9,1.6-0.9,3.3-0.4,5c0.3,1.2,0.6,2.4,1,3.6c0.2,0.8,0.3,1.5,0,2.3c-0.4,0.8,0.2,1,0.7,1.1
	c-0.1,0.3-0.3,0.5-0.4,0.8c-1.2-0.2-1.5-1.1-1.1-1.9c0.6-1.3,0.1-2.5-0.2-3.7c-0.4-1.8-0.9-3.5-0.8-5.4C7.3,20.5,7.3,19.6,8.5,19.5z
	"/>
<path class="st14" d="M10.7,103.4c-0.1,0.5-0.7,0.6-0.9,1c-1.1-0.2-1.6-0.9-1.2-1.8c0.5-1.2,0.1-2.3-0.2-3.5c-0.3-1.3-1-2.7-0.7-4.1
	c0.7-0.1,0.6,0.4,0.7,0.7c0.3,1.2,0.6,2.5,1,3.7c0.3,1,0.6,1.9,0.2,3C9,103.5,9.9,103.5,10.7,103.4z"/>
<path class="st13" d="M10.8,19.5c-0.6-0.3-1.3-0.7-2-0.2c0.1-0.8,1.3-0.4,1.5-1.2C10.7,18.4,10.8,18.9,10.8,19.5z"/>
<path class="st13" d="M10.3,32.9c0.6,0.4,0.4,1,0.3,1.5C10.2,34,10.2,33.5,10.3,32.9z"/>
<path class="st15" d="M55.8,52.6c1-0.1,1.3-0.8,1.1-1.7c-0.1-0.7-0.2-1.4-0.3-2.1c-0.1-0.6,0.3-0.8,0.7-1.1c2.9,0.2,5.7-0.4,8.6,0.4
	c0.5,0.2,1.1,0.2,1.6,0.5c0.7,0.4,1.8,0.6,1.7,1.7c-0.2,1.1-0.9,1.9-2,2.1c-1.2,0.2-2.4,0.4-3.5,0.6c-0.6,0.3-1.3-0.1-1.9,0.3
	c-0.9,0-1.9,0-2.8,0.1c-0.9-0.6-2,0.1-2.9-0.4C55.8,52.9,55.8,52.8,55.8,52.6z"/>
<path class="st16" d="M65.4,85.7c-3.6-0.3-7.3,0.2-10.9,0.1c-0.6,0-1.1,0-1.7,0c-0.9,0-1.3-0.4-1.3-1.3c0-1,0.5-1.2,1.4-1.2
	c4.5-0.1,9-0.3,13.5-0.5c0.5,0,1,0,1.4,0.1c0.6,0.2,0.8,0.7,0.9,1.3c0,0.7-0.3,1-1,1.1C67,85.4,66.2,85.8,65.4,85.7z"/>
<path class="st17" d="M53.1,62.9c3.2-0.1,6.3-0.2,9.3-0.2c0.4,0,0.8,0.1,1.2,0.1c0.6,0.1,0.8,0.5,0.9,1c0.1,0.5,0.1,1-0.5,1.2
	c-0.6,0.2-1.4,0.8-1.8,0.6c-2.1-1.1-4.2,0.6-6.3-0.4c-0.1,0-0.2,0-0.2,0C54,65.7,53.5,64.6,53.1,62.9z"/>
<path class="st18" d="M54,59.3c0.4-2.2,0.8-2.6,2.7-2.9c0.5-0.1,1.1-0.3,1.6-0.3c1.1-0.1,2.3,0,3.2,0.7c0.7,0.6,0.1,1.6,0.8,2.4
	c-2.8,0.6-5.3,0-7.8,0.3C54.2,59.3,54.1,59.3,54,59.3z"/>
<path class="st19" d="M69.2,54.5c2.1,0.3,3,1.4,2.7,3.5c-0.2,1.4-0.5,2.8-0.8,4.2c-0.3,1.4-0.8,2.7,0.5,3.9c0.1,0.1,0,0.5,0,0.7
	c-1.2,0.5-1.8-0.1-1.9-1.2c-0.1-1,0.1-1.9,0.3-2.8c0.4-1.5,0.7-3.1,1-4.7c0.2-1.2-0.1-2.2-1.5-2.5C68.5,55.4,68.6,55,69.2,54.5z"/>
<path class="st20" d="M48.1,66.6c0.5-1.2,0.5-2.4,0.1-3.7c-0.6-1.8-1.2-3.6-1.1-5.6c0.1-2,0.4-2.3,2.5-2.7c1.2,1-0.6,0.9-0.5,1.5
	c-1.4,0.6-1,1.8-0.9,2.9c0.2,1.8,1,3.5,1.4,5.2c0.2,0.8,0.4,1.6-0.1,2.4C49,66.7,48.6,67.3,48.1,66.6z"/>
<path class="st21" d="M65.4,60.5c-4,1.5-8,1.7-12.1,0C57.4,60.5,61.4,60.5,65.4,60.5z"/>
<path class="st22" d="M63.9,54.9c-3.2,0.2-6.3,0.1-9.5-0.5c1.6,0,3.2,0,4.8,0c2.9,0.2,5.8-0.6,8.8-0.9
	C66.9,55.1,65.1,54.1,63.9,54.9z"/>
<path class="st5" d="M55.8,53.1c1,0.1,2-0.3,2.9,0.4C57.7,53.5,56.7,54,55.8,53.1z"/>
<path class="st12" d="M49.5,66.5c0-0.8,0.1-1.6,0.1-2.4C50.2,65,50.4,65.8,49.5,66.5z"/>
<path class="st22" d="M53.4,54.1c-0.2,0.6-0.7,0.4-1.1,0.4c-0.1,0-0.2-0.1-0.3-0.2c0.2-0.1,0.4-0.2,0.5-0.3
	C52.8,54,53.1,54.1,53.4,54.1z"/>
<path class="st5" d="M61.6,53.5c0.6-0.5,1.3-0.4,1.9-0.3C62.9,53.7,62.2,53.6,61.6,53.5z"/>
<path class="st23" d="M17,18c-0.6-0.8,0.4-1.2,0.6-1.8c0.5-1.7,0.5-1.7-1.2-2.6c-0.2-0.1-0.3-0.3-0.6-0.8c3.9,0.1,7.5-0.3,11.2,0.4
	c1.1,0.2,1.8,0.9,2.8,1.1c0.1,1.9-0.4,2.7-2.3,3.1C26,17.7,24.5,18,22.9,18C20.9,18,18.9,18.2,17,18z"/>
<path class="st24" d="M18.8,47.5c3.2,0.3,6.4,0,9.6,0c1.1,0,1.4,0.4,1.4,1.3c0,0.8-0.4,1.1-1.4,1.2c-4.8,0.4-9.6-0.1-14.3,0.6
	c-0.9,0.1-1.6,0-1.6-1.2c0-1.1,0.2-1.6,1.5-1.7C15.6,47.7,17.2,47.6,18.8,47.5z"/>
<path class="st25" d="M16.5,20.5c0.2-0.8-0.1-1-0.8-0.9c-1.5,0-3-0.1-4.2-1.2c5.9,0.8,11.7,0.9,17.7-0.2c-1.7,0.9-1.8,2.4-1.7,4
	c0.1,0.6-0.1,1.3-0.8,1.2c-1.3-0.1-2.3,0.4-3.3,0.9c-0.6,0.3-1.4,0-2.1,0c-0.1-0.8,1.3-1.2,0.5-2.1c-0.8-0.9-1.7-1.1-2.8-0.8
	C17.9,21.6,16.8,22.2,16.5,20.5z"/>
<path class="st26" d="M14.2,30.1c1-1.1,0-2.1,0.7-2.7c0.7-0.6,1.7-0.3,2.6-0.2c2.8,0.4,5.7-0.5,8.5,0.3c-0.8,2.3-1.7,2.9-3.9,2.4
	c-0.5-0.1-1-0.4-1.4-0.2C18.8,30.8,16.8,29.7,14.2,30.1z"/>
<path class="st18" d="M16.5,20.5c0.4,0.5,0.9,0.8,1.6,0.6c3.2-0.8,3.4-0.7,4.9,2.3c-0.4,0.7-1.4,0.2-1.8,0.8c-0.8,0-1.5,0-2.3,0
	c-1.4-0.6-2.9,0.2-4.3-0.5l0,0C14,21.9,15.6,21.4,16.5,20.5L16.5,20.5z"/>
<path class="st27" d="M30.4,19c2.2,0.3,3.1,1.7,2.7,4.1c-0.3,1.7-0.7,3.4-1.1,5.1c-0.2,0.7-0.2,1.3,0.3,2c0.7,1,0.6,1.1-1,1.3
	c-1-1.2-0.7-2.6-0.3-3.8c0.5-1.5,0.8-3.1,1-4.6c0.2-1.8,0.2-1.9-1.5-2.7C29.7,19.9,29.8,19.6,30.4,19z"/>
<path class="st28" d="M14,24.9c4.8,0.7,9.1,0,13.6-0.2C24.9,26.7,16.6,26.8,14,24.9z"/>
<path class="st29" d="M11.2,20.8c-1.5-0.1-1.7,0.9-1.6,2c0.2,1.5,0.6,2.9,1,4.4c-0.1,0.1-0.3,0.3-0.4,0.4c-1-1.6-1.4-3.3-1.4-5.2
	c0-1.4,0.5-2.3,1.9-2.5C10.9,20.3,11.1,20.5,11.2,20.8z"/>
<path class="st25" d="M16.5,20.5c-0.4,1.2-1.8,1.8-1.9,3.2c-0.8-0.5-1.7-2.7-1.3-3.3c0.2-0.3,0.6-0.4,0.8-0.1c0.7,1,1.2,0.6,1.8,0
	C15.9,20.2,16.3,20.4,16.5,20.5z"/>
<path class="st25" d="M14.6,23.8c1.4,0.2,2.9-0.2,4.3,0.5C17.5,24.3,16,24.7,14.6,23.8z"/>
<path class="st13" d="M10.6,29.6c-0.4-0.4-0.4-1-0.3-1.5C10.8,28.5,10.8,29.1,10.6,29.6z"/>
<path class="st30" d="M18.4,86.7c0.3,0,0.6,0,0.9,0.1c0.6,0,0.3,1,0.8,0.8c0.3-0.2,0.3-0.8,0.8-1.2c0.7-0.6-1.1-0.4-0.7-1.4
	c2.6-0.2,5.2-0.2,7.8,0.3c1.1,0.4,2.4,0.6,2.4,2.2c0,1.1-1.1,1.9-2.8,2.2c-1.5,0.2-3,0.4-4.4,0.6c-1.6,0.4-3.2,0.3-4.8,0.1
	c-0.2,0-0.3,0-0.5-0.1C17.9,88.9,18.6,87.9,18.4,86.7L18.4,86.7z"/>
<path class="st31" d="M23.1,96.3c-2.2,0-4.5,0.2-6.7-0.1c-0.6-0.1-1.3-0.1-1.5-0.9c-0.1-0.4,1.1-2.1,1.5-2.2c0.5,0,0.9-0.5,1.5-0.2
	c1.3-0.2,2.5-0.3,3.8,0.1l0.1,0C23.7,94,24,94.8,23.1,96.3z"/>
<path class="st32" d="M30.8,91.4c2,0.4,2.5,0.8,2.6,2.7c0.1,1.7-0.3,3.3-0.7,4.9c-0.3,1.3-1,2.5,0.4,3.7c0.4,0.3,0,0.9-0.3,1.3
	c-1.5-0.7-1.9-1.1-1.7-2.6c0.2-1.3,0.6-2.6,0.9-3.9c0.2-0.8,0.3-1.6,0.4-2.3c0.2-1.3,0-2.4-1.6-2.7C30.2,92.2,30.3,91.7,30.8,91.4z"
	/>
<path class="st33" d="M29.5,90.2c-3,2.1-13.2,2.4-16.9,0.5C18.3,91.2,23.9,91.5,29.5,90.2z"/>
<path class="st34" d="M17.8,102.2c-0.7,0-1.4-0.2-2.1,0c-0.6,0.3-1.1,0.4-1.7-0.2c-0.7-0.8,0.1-1.7-0.5-2.4c0.1-0.1,0.2-0.2,0.3-0.2
	c2.3,0.8,4.7-0.8,6.9,0.4c0,1.2-1.1,1.2-1.8,1.3C18.2,101.1,18,101.6,17.8,102.2z"/>
<path class="st33" d="M23.1,96.3c0.6-1.5-0.6-2.3-1.3-3.3c0.8-0.8,2-0.4,2.9-0.7c1.1-0.3,0.9,1,1.4,1.4c0.7-0.1,0.2-0.9,0.6-1.1
	c0.1,0,0.1,0,0.2,0c0.2,0.2,0,2.4-0.2,2.4C25.4,95.1,24.6,96.6,23.1,96.3z"/>
<path class="st35" d="M17.8,102.2c-0.1-0.3-0.3-0.6-0.3-0.9c0-0.3-0.5-0.8,0.6-0.6c0.8,0.1,2-0.2,2.7-0.9c1,0,2-0.9,3-0.1
	c0.6,0.7,1,1.5,0.4,2.5l0,0c-0.5,0.3-0.9,0.3-1.4,0l0,0c-1-0.4-2-0.3-2.9,0C19.1,102.3,18.5,102.9,17.8,102.2z"/>
<path class="st36" d="M11.5,99.9c-0.7-1.7-1.2-3.1-1.4-4.6c-0.1-0.5-0.2-0.9,0-1.4c0.2-0.6,0.4-1.1,1.1-1.1c0.6,0,0.8,0.5,1,0.9
	C12.8,95.7,12.5,97.6,11.5,99.9z"/>
<path class="st37" d="M30.6,99.8c-0.9-1.7-1.4-3.5-1.2-5.4c0.1-0.8,0.4-1.4,1.3-1.3c0.8,0.1,1,0.8,1,1.4C31.8,96.3,31,98,30.6,99.8z
	"/>
<path class="st38" d="M26.3,97.3c-3.7,1.4-7.4,1.4-11.2,0C18.9,97.3,22.6,97.3,26.3,97.3z"/>
<path class="st34" d="M24.1,102c0-0.8-0.6-1.6-0.4-2.5c1.2-0.6,2.3,0.3,3.5,0.1c0.4-0.1,0.2,0.6,0.2,1l0,0c-0.5-0.1-0.3,1.9-1.3,0.5
	C25.7,101.7,24.9,102,24.1,102z"/>
<path class="st6" d="M18.4,90.1c1.6,0,3.2,0,4.8-0.1C21.6,90.8,20,90.7,18.4,90.1z"/>
<path class="st33" d="M21.7,92.9c-1.3,0-2.5,0-3.8-0.1C19.2,92.2,20.5,92.2,21.7,92.9z"/>
<path class="st34" d="M19.8,102c1-0.6,2-0.8,2.9,0C21.7,102,20.7,102,19.8,102z"/>
<path class="st34" d="M28,100.6c0-0.2,0-0.3,0-0.5c0-0.2-0.1-0.4,0.2-0.5c0,0.2,0.1,0.4,0.1,0.6C28.3,100.4,28.1,100.5,28,100.6
	C28,100.6,28,100.6,28,100.6z"/>
<path class="st34" d="M22.7,102.1c0.5,0,0.9,0,1.4,0C23.6,102.8,23.2,102.7,22.7,102.1z"/>
<path class="st34" d="M28,100.6c0,0.4,0.1,0.8-0.2,1.1c-0.3-0.3-0.2-0.7-0.2-1.1c0,0,0,0,0,0C27.7,100.6,27.8,100.6,28,100.6
	C28,100.6,28,100.6,28,100.6z"/>
<path class="st39" d="M21.8,119.6c2.3,0,4.6,0,6.9,0c0.7,0,1.1,0,1.1,0.7c0,0.7,0.3,1.5-0.7,1.8c-0.3,0.1-0.6,0.1-0.9,0.1
	c-4,0-7.9,0-11.9,0.5c-0.7,0.1-1.4,0-2.1,0c-0.9,0-1.3-0.6-1.4-1.3c0-0.9,0.4-1.5,1.4-1.5c2.5,0,5.1,0,7.6,0
	C21.8,119.8,21.8,119.7,21.8,119.6z"/>
<path class="st30" d="M18.4,86.7c-0.6-0.3-0.3-1.2-1-1.4l0,0c0.5-0.5,0.8-0.4,0.9,0.3C18.4,85.9,18.4,86.3,18.4,86.7
	C18.4,86.7,18.4,86.7,18.4,86.7z"/>
<path class="st30" d="M17.4,85.3c-0.1,0.3,0,0.7-0.4,0.6c-0.3,0-0.6-0.4-0.4-0.7C16.9,84.9,17.2,85.2,17.4,85.3
	C17.4,85.3,17.4,85.3,17.4,85.3z"/>
</svg>
