<?xml version="1.0" encoding="utf-8"?>
<!-- Generator: Adobe Illustrator 23.1.1, SVG Export Plug-In . SVG Version: 6.00 Build 0)  -->
<svg version="1.1" id="Livello_1" xmlns="http://www.w3.org/2000/svg" xmlns:xlink="http://www.w3.org/1999/xlink" x="0px" y="0px"
	 viewBox="0 0 80 135" style="enable-background:new 0 0 80 135;" xml:space="preserve">
<style type="text/css">
	.st0{fill:#FFFFFF;stroke:#000000;stroke-width:0.2509;stroke-miterlimit:10;}
	.st1{fill:#464A42;}
	.st2{fill:#4A4941;}
	.st3{fill:#4B4B45;}
	.st4{fill:#484D45;}
	.st5{fill:#55493E;}
	.st6{fill:#C8C8C7;}
	.st7{fill:#E6E6E7;}
	.st8{fill:#8E8F90;}
	.st9{fill:#D7D7D5;}
	.st10{fill:#7E7D7D;}
	.st11{fill:#868587;}
	.st12{fill:#7E7F7F;}
	.st13{fill:#D04D51;}
	.st14{fill:#CF4A48;}
	.st15{fill:#E5D237;}
	.st16{fill:#D0B63B;}
	.st17{fill:#D5C45B;}
	.st18{fill:#F3F4F1;}
	.st19{fill:#D15047;}
	.st20{fill:#EA4C47;}
	.st21{fill:#C6484B;}
	.st22{fill:#F5E931;}
	.st23{fill:#A7963D;}
	.st24{fill:#EADB35;}
	.st25{fill:#AC9A3C;}
	.st26{fill:#E7E7E5;}
	.st27{fill:#F3F3F1;}
	.st28{fill:#B8AC4C;}
	.st29{fill:#EAEAEA;}
	.st30{fill:#ECEAE7;}
	.st31{fill:#D54D47;}
	.st32{fill:#CB4C4C;}
	.st33{fill:#C64E50;}
	.st34{fill:#BAA43C;}
	.st35{fill:#A39047;}
	.st36{fill:#F8E631;}
	.st37{fill:#E2E3E4;}
	.st38{fill:#CCBE4E;}
	.st39{fill:#E0E1E0;}
	.st40{fill:#F1F0EF;}
	.st41{fill:#F2F2F1;}
	.st42{fill:#BD4A54;}
	.st43{fill:#F0E234;}
	.st44{fill:#9F8F4D;}
	.st45{fill:#9E8B4C;}
	.st46{fill:#E64C4E;}
	.st47{fill:#A1903F;}
	.st48{fill:#C0B05E;}
	.st49{fill:#E8E8E6;}
</style>
<path class="st0" d="M71.5,135h-63c-4.7,0-8.5-3.8-8.5-8.5V8.5C0,3.8,3.8,0,8.5,0h63C76.2,0,80,3.8,80,8.5v118
	C80,131.2,76.2,135,71.5,135z"/>
<path class="st1" d="M11.7,46.9c-0.7-0.7-0.2-1.7-0.4-2.5c-0.1-0.3-0.1-0.6,0.1-0.9c0.1-0.6,0.6-0.7,1.1-0.7c2.2-0.3,3.5-1.7,5-3.5
	c-1.6-0.5-2.5-1.3-1.6-2.9c0.3-0.5-0.1-0.9-0.5-1.2c-2-1.5-3.1-3.4-3.1-5.9c0-0.5-0.1-0.9-0.5-1.3c-0.1-0.1-0.7-0.2-0.1-0.6
	c1.5-0.9,1-2.4,0.9-3.6c-0.1-0.9-0.3-1.9-0.5-2.8c-0.4-1.6-0.4-3,2-3.6c-2.1-0.7-2.5-0.6-2.9,0.7c-0.3,0.9-0.3,1.8-0.6,3.1
	c-0.7-4.3,0.1-4.1,2.5-5.2c0.1-0.5-0.2-0.9-0.4-1.3c-0.9-1.9-0.8-2.4,1.3-3.2c2.8-1.1,5.7-1.5,8.7-1.5c2.3,0.1,4.6,0.6,6.8,1.4
	c2,0.8,2.3,1.4,1.5,3.4c-0.4,0.8-0.7,1.4,0.6,1.7c1.4,0.3,1.7,1.6,1.7,2.8c0,1-0.2,1.9-0.3,2.9c-1,0-0.8-0.7-0.9-1.3
	c-0.1-0.8,0.2-1.7-0.2-2.7c0.2,1.4,0.3,2.7-0.2,3.9c-0.2,0.5-0.4,1.2-1.1,1c-0.5-0.1-0.5-0.7-0.5-1.2c-0.1-0.6,0.3-1.2-0.1-2.2
	c-0.3,3.3,1.5,5.6,2.2,8.2c-0.6,0.1-1.3-0.2-1.4,0.8c-0.2,2.8-1.3,5.1-3.4,6.9c-0.4,0.3-0.5,0.7-0.4,1.3c0.3,1.7,0.2,1.7-1.4,2.1
	c-0.2,0-0.5,0-0.6,0.5c1,1.6,2.6,2.5,4.4,3.2c0.6,0.2,1.4,0.1,1.4,1c0,1,0.3,2.1-0.2,3c-0.3,0.5-1,0.3-1.6,0.3
	c-3.6,0-7.2,0-10.8-0.1c-1,0-1.9,0-2.9,0C13.9,47,12.8,46.8,11.7,46.9z"/>
<path class="st2" d="M30.6,105.7c-0.3,0.2-0.4,0.5-0.4,0.8c0,2.7-1.2,4.9-3,6.8c-0.3,0.3-0.7,0.6-0.7,1.2c-0.1,2.2-0.1,2.2-2,2.8
	c1,1.7,2.5,2.6,4.3,3.1c0.6,0.2,1.4,0.1,1.4,1c0.1,1,0.2,2.1-0.2,3.1c-0.2,0.4-0.7,0.3-1.1,0.3c-5.4,0.1-10.8,0.1-16.3,0.2
	c-0.7,0-1.5,0-1.4-1.1c0.1-1-0.8-2.4,0.7-2.9c1.7-0.5,3.2-1.4,4.4-2.8c0.5-0.6,0.7-1.1-0.2-1.4c-1.2-0.3-1.1-1.1-0.8-1.8
	c0.3-0.8,0.1-1.4-0.5-1.9c-1.9-1.5-2.9-3.5-3.1-6c0-0.4-0.3-0.7-0.5-1c-0.1-0.2-0.2-0.4-0.1-0.6c0.1-0.4,0.3-0.8,0.4-1.2
	c0.3-0.9,0.3-1.8-0.1-2.7c-0.4-2.2-1.7-4.5,0.6-6.5c0.1-0.7,0.5-1.3,0.1-2c-1.3-2.1-1.1-2.9,1.2-3.7c4.9-1.7,9.9-2.1,15-0.3
	c2.5,0.9,2.7,1.4,1.8,3.8c-0.1,0.2-0.2,0.4-0.3,0.7c-0.3,0.7,0.4,1,0.5,1.6c1.2,1,1.4,2.3,1,3.7c-0.6,2-0.6,4.1-0.4,6.1
	C30.9,105.3,30.8,105.5,30.6,105.7z"/>
<path class="st3" d="M68,28.4c-0.1,3-1.2,5.4-3.5,7.3c-0.4,0.3-0.8,0.6-0.6,1.2c0.2,0.7,0.6,1.3-0.1,1.9c-0.6,0.5-1.2-0.1-2,0.2
	c0.9,2,2.6,2.9,4.5,3.5c0.6,0.2,1.4-0.1,1.6,0.7c0.3,1,0.3,2.1-0.1,3.1c-0.3,0.7-1.1,0.5-1.7,0.5c-3.6,0-7.2,0-10.8-0.1
	c-1.7,0-3.4-0.1-5,0c-1.1,0-1.5-0.4-1.5-1.6c-0.1-2.1-0.1-2,2-2.5c1.8-0.4,3.3-1.3,4.5-2.6c0.3-0.3,0.5-0.6,0.3-1.1
	c-0.4-0.4-0.9-0.1-1.3-0.2c-0.8-0.1-1.2-0.5-0.9-1.3c0.4-0.9,0-1.5-0.7-2.1c-1.7-1.5-2.6-3.5-2.9-5.6c-0.1-0.8-0.3-1.6-1.1-2
	c-0.1-0.1-0.2-0.3-0.1-0.4c0-0.1,0-0.2,0.1-0.2c1.4-1.3,1-2.8,0.4-4.4c-0.8-2.2-1.3-4.3,0.9-6c0.1-0.2,0.3-0.3,0.4-0.5
	c0.2-0.5-0.2-0.9-0.4-1.3c-1-2.1-0.7-2.9,1.6-3.7c4-1.4,8.1-1.7,12.2-0.7c1,0.2,2,0.5,3,0.9c1.8,0.7,2.1,1.4,1.2,3.1
	c-0.2,0.4-0.5,0.8-0.8,1.2c-0.2,0.6,0.1,1,0.6,1.3c2.1,1.4,1.4,3.4,1.2,5.4c-0.2,1.5-1.1,3.1,0.5,4.3c0.2,0.1,0.4,0.3,0.5,0.5
	c-0.1,0.3-0.2,0.5-0.5,0.5C69.1,28.3,68.3,27.7,68,28.4z"/>
<path class="st4" d="M69.5,102.7c0.8,1.9,0.8,2.2-0.9,2.9c-0.7,0.3-0.9,0.7-1,1.4c-0.3,2.6-1.3,4.7-3.3,6.4
	c-0.5,0.4-0.7,0.7-0.5,1.4c0.4,1.7,0.3,1.7-1.5,1.8c-0.1,0-0.3,0.1-0.7,0.1c1,2,2.7,2.8,4.6,3.5c2,0.6,2,0.7,2,2.8
	c0,1-0.4,1.4-1.4,1.5c-1.5,0-3,0.2-4.5,0.2c-4,0-8-0.1-12,0c-1.1,0-1.4-0.4-1.4-1.3c-0.1-2.1-0.1-2.2,2.1-2.8c2-0.6,3.9-1.4,4.8-3.5
	c-0.4-0.7-1-0.2-1.5-0.3c-0.7-0.2-1.2-0.6-0.9-1.3c0.5-1.2-0.2-1.7-0.9-2.4c-1.5-1.4-2.5-3.1-2.7-5.2c-0.1-1-0.1-1.9-1.3-2.2
	c-0.6-0.2-1.1-1.1-0.7-1.6c1.4-1.5,0.3-2.8-0.2-4.1c-0.2-0.3-0.2-0.7,0.1-0.9c0.4-0.3,0.7,0.1,1,0.4c0.8,1.2,1,2.7,1,4.1
	c0.3-0.6-0.2-1.3,0.2-2c1-0.8,1.4-0.1,1.7,0.7c0.4,0.9,0.8,1.7,2,1.5c0.2,0,0.4,0,0.6,0c0.7,0.1,1.5,0.2,2.2,0.1
	c1.8-0.4,3.7-0.2,5.5,0.2c0.6-0.1,1.3-0.3,1.9-0.3c1.9,0.2,2.4-0.7,2.1-2.4c0-0.3,0.1-0.6,0.4-0.9c0.4-0.5,1,0.9,1.4-0.1
	c0.2,0.1,0.4,0.2,0.5,0.4c0.6,1-0.6,2,0.1,2.9C67.7,101.6,68.6,102,69.5,102.7z"/>
<path class="st5" d="M66.3,100.2c0,0.3,0,0.7-0.1,1c-1.8-0.3-3.5-0.8-5.3-0.1c-1.8,0.2-3.7,0-5.5,0c-1.6-0.4-3.3,0.6-4.8-0.7
	c-0.3-0.8-0.1-1.6-0.1-2.3c0-0.4,0.2-1-0.6-0.9c-0.5,0.2-0.7,1.1-1.5,0.7c-0.9-1.4,0.8-2.4,0.4-3.8c0.4,0,0.8,0,1.3,0
	c0.1-0.8-0.4-1.3-0.7-1.8c-0.7-1.5-0.5-2.3,1-3.1c0.9-0.5,1.9-0.7,3-0.9c3.8-0.9,7.6-0.8,11.4,0.2c0.5,0.1,1.1,0.3,1.6,0.6
	c2,0.9,2.2,1.5,1.1,3.5c-0.2,0.3-0.4,0.7-0.5,1c0.1,0.8,0.8,0.5,1.1,0.7c1.3,0.6,1.9,1.6,1.8,3.1c-0.1,1.5-0.5,3-0.8,4.4
	c-1.5-0.5-0.5-1.6-0.4-2.4c0.2-1.2,0.7-2.4-0.1-3.3c0.7,1.5,0.7,3.1-0.8,4.4l0,0c-0.9-0.8-0.2-2.1-1-3
	C66.2,98.3,67.2,99.4,66.3,100.2z"/>
<path class="st6" d="M31.8,27.8c-1.1-0.7-1.9-1.7-1.7-3.1c0.1-0.6-0.1-1-0.5-1.5c-0.8-1.2-0.8-2.5-0.6-3.9c0.1-0.4,0.2-1,0.8-0.9
	c0.5,0.1,0.7,0.6,0.8,1c0.1,0.5-0.1,0.9-0.2,1.4c-0.2,0.6-0.5,1.2-0.1,2c0.5-2,1.7-3.8-0.4-5.4c1.2-0.6,1.9-0.4,2.2,0.8
	c0.1,0.6,0,1.3,0,1.9c0,0.7-0.5,1.4,0.3,2c-0.1,1.4-0.5,2.7,0.4,4.1C33.4,26.8,32.9,27.7,31.8,27.8z"/>
<path class="st7" d="M48.8,94.1c0.2,0.7,1.3,0.1,1.4,1C48.7,96,48.7,96,48.7,98c0.8,0.9,1.4,2,1.2,3.3c0.1,1.1,0.2,2.2,0,3.3
	c-0.1,0.5-0.4,0.7-0.9,0.6c-0.5-0.1-0.7-0.6-0.5-0.9c1.3-1.8,0-3.3-0.4-4.8c-0.1-0.4-0.3-0.2-0.4,0c-0.1,0.1-0.1,0.3-0.1,0.5
	c-0.6-0.7-0.7-1.5-0.8-2.4C46.4,95.7,47,94.9,48.8,94.1z"/>
<path class="st8" d="M12.2,93.2c0.7,0.5,0.5,1.4,0.9,2c-2.9,0.5-2.3,2.7-1.9,4.4c0.4,2.1,0.9,4.1,0.3,6.2c0,0.2-0.1,0.3-0.1,0.5
	c-1.8-0.6-2.2-1-1.4-2.3c0.6-1,0.6-1.9,0.2-2.9c-0.4-1.2-0.7-2.4-0.7-3.7c0-1.4,0.4-2.5,1.8-2.9C11.9,94.2,12.2,93.9,12.2,93.2z"/>
<path class="st9" d="M67.7,100.3c0.8-0.8,0.7-1.9,0.8-2.8c0.2-1.3-0.6-2-2-2.2c1.4-0.8,2.4-0.5,2.7,0.9c0.2,1.1,0.2,2.2-0.1,3.3
	c-0.2,0.7-0.7,1.5,0,2.2c0.2,0.4,0.3,0.7,0.5,1.1c-0.5,0.1-0.8-0.5-1.3-0.3c-0.3,0.9,0.7,0.6,0.9,1.1c0.2,0.4,0.3,0.7,0.1,1.1
	c-0.2,0.3-0.4,0.5-0.8,0.4c-0.4-0.1-0.8-0.4-0.8-0.7c-0.1-0.9,0-1.9,0-2.8C67.7,101.1,67.7,100.7,67.7,100.3z"/>
<path class="st10" d="M30.6,105.7c0-0.2,0-0.3,0-0.5c0.1-2.5,0.2-5,0.8-7.5c0.3-1.3-0.5-2-1.5-2.7c-0.2-0.5-0.7-0.9,0-1.4
	c0.1,0.3,0.4,0.4,0.7,0.6c1.7,0.7,2.3,1.5,2.1,3.3c-0.1,1.1-0.3,2.2-0.6,3.3c-0.2,1.1-0.6,2,0.2,3.1
	C33.1,104.8,32.3,105.5,30.6,105.7z"/>
<path class="st11" d="M50.5,16.3c0,0.2,0,0.4,0,0.6c-2.3,1.6-2.6,2.4-1.2,5.7c0.7,1.7,0.9,3.1-0.4,4.5c0,0.2,0,0.4,0,0.6
	c-1.3-0.4-1.4-1.4-0.7-2.2c0.7-0.8,0.4-1.4,0.2-2.2c-0.3-0.9-0.7-1.8-0.9-2.7C46.5,17.9,47.5,16.6,50.5,16.3z"/>
<path class="st12" d="M70,27.4c-0.2,0-0.4,0-0.6,0c-1.1-1.4-1.4-3-0.7-4.7c0.3-0.7,0.4-1.5,0.5-2.3c0.2-1.8-0.3-2.9-2.3-3.1
	c0-0.5-0.3-1.1,0.4-1.5c0.1,0.3,0.3,0.5,0.6,0.6c2.3,1,2.5,1.4,2.4,3.7c0,0.9-0.1,1.7-0.4,2.6c-0.3,1-0.6,1.9,0.4,2.8
	C70.7,26,70.7,26.8,70,27.4z"/>
<path class="st13" d="M11.7,46.9c1.1-0.4,2.2-0.2,3.3,0C13.9,47.2,12.8,47,11.7,46.9z"/>
<path class="st13" d="M11.3,43.6c0.1,0.3,0.2,0.6-0.1,0.9C11,44.1,11.1,43.8,11.3,43.6z"/>
<path class="st12" d="M68,28.4c0.2-0.9,0.9-0.7,1.4-0.5C69.1,28.4,68.5,28.2,68,28.4z"/>
<path class="st14" d="M21.1,15.7c-1.9-0.2-3.7-0.5-5.5-1c-0.8-0.2-1.6-0.5-1.6-1.5c0-1,0.8-1,1.5-1.2c4.2-1.5,8.4-1,12.6,0.3
	c0.5,0.2,1,0.6,1.1,1.2c0,0.6-0.6,0.7-1,0.9C25.9,15.3,23.5,15.5,21.1,15.7z"/>
<path class="st15" d="M26.6,26.1c-0.9-0.2-0.6-1-1-1.3c-0.8,2-1.2,2.3-3,1.7c-0.9-0.2-1.7-0.4-2.6,0c-0.5,0.3-1.1,0.2-1.6,0
	c-1-0.4-2-0.3-3-0.1c-1.5,0.4-1.8,0-1.5-1.5c0.1-0.5,0.4-1.1,0.5-1.6c0.2-0.9,0.8-1.1,1.6-0.9c2.4,0.6,4.9,0.4,7.4,0.4
	c0.5,0,1,0,1.4,0C27.3,23.1,27.5,23.4,26.6,26.1z"/>
<path class="st13" d="M17.6,46.3c-1.4,0-2.7-0.1-4.1-0.1c-0.6,0-1.4,0-1.3-0.9c0.1-0.8,0.2-1.6,1.2-1.8c0.3-0.1,0.6-0.1,1,0
	c4.3,0.1,8.6,0.1,12.9,0.2c0.5,0,1,0,1.4,0.2c0.6,0.3,0.5,0.9,0.5,1.5c-0.1,0.7-0.7,0.8-1.3,0.8C24.4,45.9,21,46.6,17.6,46.3z"/>
<path class="st16" d="M14.3,16.1c2.6-0.3,4.8,0.9,7.3,0.7c2.3-0.3,4.7-0.3,7-0.6c-1.6,3.1-2.4,3.6-6,3.9c-0.4,0-0.8,0-1.2,0
	C17,20,17,20,14.3,16.1z"/>
<path class="st17" d="M25.5,21.1c-2.4,1-4.8,1.1-7.2,0.1C20.7,20.8,23.1,21.1,25.5,21.1z"/>
<path class="st18" d="M13.2,23.3c-0.8-1.1-0.8-2.4-0.8-3.6c0-0.7,0.1-1.4,1-1.3c0.7,0.1,0.8,0.7,0.8,1.3C14,20.9,14,22.2,13.2,23.3z
	"/>
<path class="st19" d="M22.1,40.5c-0.1,0.6-0.1,1.3-0.9,1.4c-0.6,0.1-1.3-0.9-1.2-1.7c0.1-0.6,0.4-1,1.1-1
	C22,39.2,22.1,39.8,22.1,40.5z"/>
<path class="st20" d="M21.6,89.1c1.8-0.1,3.5,0.3,5.2,0.8c0.6,0.2,1.5,0.3,1.6,1.2c0,0.8-0.7,1-1.3,1.2c-4.2,1.5-8.3,1.8-12.4-0.3
	c-0.4-0.2-1-0.3-0.9-0.9c0-0.7,0.6-0.9,1.1-1.1C17.1,89.4,19.3,88.9,21.6,89.1z"/>
<path class="st21" d="M18.6,121.7c2.9,0.1,5.9-0.1,8.8-0.2c0.5,0,1,0,1.4,0.1c0.6,0.2,0.8,0.7,0.8,1.3c0,0.5-0.2,0.9-0.8,1.1
	c-0.5,0.1-0.9,0.3-1.4,0.3c-4.5,0.1-9.1,0.2-13.6,0.2c-1.6,0-2-0.7-1.4-2.1c0.3-0.7,0.8-0.7,1.4-0.7C15.4,121.6,17,121.7,18.6,121.7
	z"/>
<path class="st22" d="M22.6,100.8c0.2,0,0.3,0,0.5,0c1,0.9,2.1,1.7,1.4,3.4c-0.2,0.2-0.4,0.5-0.5,0.4c-2.2-0.5-4.5,0.4-6.7-0.3
	c-0.7-0.2-1.3-0.4-1.9,0l-0.1,0c-1-0.1-0.7-0.7-0.4-1.2c0.6-0.9,1.3-1.8,2.4-2.2l0.1,0C19,100.5,20.8,101.1,22.6,100.8z"/>
<path class="st23" d="M22.2,94.9c1.5-0.8,3.1-0.3,4.6-0.6c-0.2,1.6-0.2,1.6,1,2.7c-1.8,0.5-3.5,0.8-5.2,0.8
	C21.4,97,21.6,96,22.2,94.9z"/>
<path class="st24" d="M22.2,94.9c0.3,1-0.3,2.1,0.5,3c-2.1,0.4-4.2,0.4-6.2-0.3c-1.3-2.3,1-2.1,2-2.8c0.4,0.1,0.9,0.1,1.3,0.2
	c0.7,0.7,1.3,0.5,2,0C21.9,94.9,22.1,94.9,22.2,94.9z"/>
<path class="st25" d="M24.5,104.2c0-1.3-1.1-2.2-1.4-3.4c3.4-0.3,4,0.1,4.6,3.4C26.6,104.4,25.5,104.1,24.5,104.2z"/>
<path class="st26" d="M29.9,95c1.9,0.6,2,0.6,1.9,2.4c0,0.9-0.2,1.7-0.3,2.6c-0.2,1.4-0.9,2.8,0.1,4.3c0.4,0.6-0.3,0.9-1,0.9
	c-1.1-1.4-0.4-3-0.3-4.6c0-0.3,0.2-0.6,0.3-0.9C31.1,97.3,31.1,97.3,29.9,95z"/>
<path class="st25" d="M17.2,101c-0.5,0.9-1.2,1.7-2,2.4c-0.4,0.4-0.2,0.6,0.1,0.9c-0.6,0.7-1.3,0.6-1.9,0.2c-0.6-0.4,0-1,0-1.5
	c0-0.6,0.6-1,0.6-1.5c0-1.1,0.7-1,1.4-1C16,100.6,16.7,100.6,17.2,101z"/>
<path class="st27" d="M11.4,105.8c-0.6-0.3-1.3-0.8-0.6-1.4c1.2-0.9,0.7-1.8,0.4-2.7c-0.4-1.3-0.7-2.6-0.8-3.9
	c-0.1-2,0.5-2.6,2.6-2.6c-2.1,1.4-1.9,3.4-1.3,5.5c0.1,0.4,0.2,0.8,0.3,1.1c0.2,1,0.2,2-0.1,3C11.9,105.2,11.9,105.6,11.4,105.8z"/>
<path class="st28" d="M17.6,99.3c1.3-0.6,3.9-0.7,7.4-0.4C23.8,100.3,19.4,100.5,17.6,99.3z"/>
<path class="st29" d="M12.7,101.4c-0.4-1.4-0.9-2.6-0.7-3.8c0.1-0.5,0.3-0.9,0.9-0.9c0.6,0,0.8,0.5,0.8,1
	C13.7,98.8,13.8,100.1,12.7,101.4z"/>
<path class="st30" d="M29.6,101.2c-1-1.2-0.8-2.4-0.9-3.6c0-0.6,0.1-1.2,0.9-1.1c0.7,0.1,0.7,0.7,0.8,1.3
	C30.4,98.9,29.9,99.9,29.6,101.2z"/>
<path class="st31" d="M20.8,117.4c0.6,0,1.2,0.2,1.2,1c-0.1,0.6-0.2,1.3-0.9,1.6c-0.4,0.2-1.2-1-1.2-1.8
	C19.8,117.7,20.1,117.4,20.8,117.4z"/>
<path class="st23" d="M18.4,94.7c-0.4,0.4-0.1,1.4-1.3,1.2c-1.1-0.1-0.6,1-0.7,1.6c-1.2-0.2-1.2-0.9-1-1.9l0,0
	C16.1,94.3,17.2,94.2,18.4,94.7z"/>
<path class="st25" d="M22.6,100.8c-1.7,0.7-3.5,0.2-5.3,0.2C19,100.1,20.8,100.9,22.6,100.8z"/>
<path class="st23" d="M21.8,94.9c-0.2,0.3,0.3,1.4-0.8,0.8c-0.5-0.3-0.9,0-1.3,0c-0.3,0-0.8,0-0.2-0.5c0.1-0.1,0.2-0.2,0.3-0.3
	C20.4,94.7,21.1,94.8,21.8,94.9z"/>
<path class="st8" d="M12,104.8c0-1,0.1-2,0.1-3C12.7,102.8,12.7,103.8,12,104.8z"/>
<path class="st23" d="M15.5,95.7c-0.4-0.1-1,0.3-1.1-0.4c0-0.3,0.2-0.7,0.5-0.7C15.4,94.7,15.5,95.2,15.5,95.7
	C15.5,95.7,15.5,95.7,15.5,95.7z"/>
<path class="st25" d="M15.3,104.3c0.6-0.6,1.3-0.6,1.9,0C16.6,104.3,16,104.3,15.3,104.3z"/>
<path class="st32" d="M58.2,15.5c-2.3,0.2-4.4-0.5-6.3-1.6c-0.4-0.2-0.8-0.5-0.7-1.1c0.1-0.4,0.5-0.6,0.9-0.7
	c4.2-1.2,8.4-1.9,12.6-0.3c0.4,0.2,0.9,0.3,1.3,0.5c0.5,0.2,0.9,0.4,0.9,1c0,0.7-0.4,1-0.9,1.2c-0.3,0.1-0.6,0.3-0.9,0.3
	C62.8,15.2,60.6,15.8,58.2,15.5z"/>
<path class="st33" d="M57.7,46c-2.5-0.1-4.7-0.4-7-0.1c-0.6,0.1-0.9-0.2-0.9-0.7c0-0.5-0.2-1.2,0.8-1.1c0.8,0,1.6-0.3,2.3-0.3
	c4,0.3,8-0.3,11.9-0.2c0.3,0,0.6,0,1,0c0.6,0.1,1.1,0.1,1.2,0.9c0.1,0.7-0.3,1-0.9,1.2c-0.8,0.3-1.5,0.4-2.3,0.4
	C61.7,46,59.6,45.7,57.7,46z"/>
<path class="st34" d="M55.1,26C54,26,53,26.9,52,26.2c-0.3-0.8,0.4-1.2,0.5-1.8c0.2-0.9,0.8-1.8,2.1-1.7c3.2,0,6.3,0.3,9.5,0
	c0.8-0.1,1.6,0,2.2,0.7c0.9,1.1-0.4,1.9-0.6,2.8c-0.1,0.6-1.1,0.5-1.5,0.3c-0.9-0.3-1.7,0.1-2.6,0c-0.2-0.2-0.5-0.4-0.7-0.7
	C58.5,23.1,57.4,23.1,55.1,26z"/>
<path class="st35" d="M63.5,16.6c0.5,0.9-0.2,1.5,0.2,2.3c0.2,0.4-0.3,1-0.8,0.9c-1.8-0.3-3.4,0.9-5.1,0.5c-0.6-0.1-1.2-0.2-1.9-0.4
	c-1.4-0.5-2.1-1.5-1.9-2.8c0-0.2,0.3-0.3,0.4-0.5c0.7,0.9,1.2-0.3,1.8-0.2C58.7,16.6,61.2,16.6,63.5,16.6z"/>
<path class="st36" d="M55.1,26c-0.1-1.4,0.5-2.3,1.8-2.6c0.8-0.2,1.6-0.1,2.3-0.1c1,0,1,0.8,1.4,1.4c0.5,0.6,1.3,1,1,1.9
	c-0.4,0-0.9,0-1.3,0c-0.8-0.3-1.6-0.3-2.4-0.1C56.9,26.9,56,26.6,55.1,26z"/>
<path class="st37" d="M48.8,27.2c0-0.3-0.4-0.6-0.1-0.9c1.2-1,0.8-2,0.3-3.2c-0.4-0.9-0.8-1.9-1-2.9c-0.4-2.3,0-2.8,2.4-3.3
	c0.1,0.3,0.6,0.6-0.1,0.9c-1.5,0.8-1.7,1.2-1.3,2.7c0.3,1,0.6,2,1,2.9c0.4,1.1,0.4,2.2,0,3.3C49.9,27.3,49.4,27.5,48.8,27.2z"/>
<path class="st38" d="M53.2,20.9c0.1-0.2,0.3-0.3,0.6-0.3c3.8,0.5,7.5,0.3,11.8,0C62.5,22.3,56,22.3,53.2,20.9z"/>
<path class="st39" d="M66.8,17.3c2.4,0.1,2.9,0.6,2.8,2.8c-0.1,1.1-0.4,2.2-0.7,3.2c-0.3,1-0.7,1.9,0.5,2.7c0.4,0.3,0.1,0.9,0,1.4
	c-0.9,0.2-1.3-0.2-1.5-1.1c-0.2-1,0-2,0.2-3c0.1-0.5,0.4-1,0.5-1.6C69.1,19.1,68.8,18.5,66.8,17.3z"/>
<path class="st40" d="M67.3,23.6c-0.7-1.4-1-2.5-1.1-3.6c-0.1-0.7-0.1-1.6,0.9-1.6c1.1-0.1,1.1,0.9,1.1,1.7
	C68.2,21.3,67.8,22.3,67.3,23.6z"/>
<path class="st41" d="M50.8,23.1c-0.9-1-0.9-2.2-1.2-3.2c-0.1-0.5,0.1-0.9,0.5-1.3c0.6-0.5,1.3-0.3,1.4,0.5
	C51.7,20.4,51.5,21.6,50.8,23.1z"/>
<path class="st35" d="M66,15.9c-0.4,1.2-0.7,2.2-1,3.4C64,17.8,64.1,17.5,66,15.9z"/>
<path class="st34" d="M57.9,26.5c0.8-0.7,1.6-0.6,2.4,0.1C59.5,26.6,58.7,26.5,57.9,26.5z"/>
<path class="st42" d="M54,121.6c3.4-0.5,7.1-0.3,10.7-0.3c0.4,0,0.8-0.1,1.2,0c0.6,0.1,1.3,0.2,1.3,1.1c0,0.9-0.5,1.3-1.3,1.4
	c-1.3,0-2.6,0-3.8,0c-3.1-0.1-6.2-0.1-9.3,0.2c-0.6,0.1-1.3,0-1.9,0c-0.6,0-1.2-0.2-1.2-0.9c0-0.8,0.4-1.4,1.3-1.4
	C51.9,121.6,52.8,121.2,54,121.6z"/>
<path class="st43" d="M55.1,100.5c2.1,0,4.2,0,6.3,0c0.9-0.3,1.5,0.1,1.7,1c0.3,1.3-0.3,2.2-1.4,2.9c-0.1,0.1-0.3,0.2-0.4,0.2
	c-1.7-0.8-3.5-0.3-5.3-0.3c-0.7-0.6-1.7,0.1-2.4-0.6l0,0C53.3,102.3,54.2,101.4,55.1,100.5z"/>
<path class="st44" d="M55.1,100.5c-0.5,1.1-0.7,2.3-1.4,3.2c-1.3,0.9-2.4,0.6-2.8-1.1c-0.2-0.7-0.1-1.4-1.1-1.4
	c-0.5-1-1.1-2.1-1.2-3.3c0.5-0.3,0.2-1.1,0.8-1.4c1,0.9,0.7,2,0.8,3.1c0,0.9,0.5-0.2,0.6,0.2c0.1,0.3,0.1,0.8,0.7,0.7
	C52.7,100.3,53.9,100.4,55.1,100.5z"/>
<path class="st45" d="M61.8,104.5c0.2-0.6,0.4-1.1,0.7-1.7c0.6-1.2,0.1-1.9-1.1-2.3c1.7-0.6,3.3-0.6,4.8,0.7c0,0.3,0,0.6,0.1,0.9
	c0.1,0.5,0.6,1.3,0,1.4c-0.7,0.1-1.1,1.3-2,0.7C63.4,103.8,62.6,104.5,61.8,104.5z"/>
<path class="st9" d="M66.3,100.2c-0.1-0.9-0.3-1.9-0.4-2.8c-0.1-0.6-0.1-1.4,0.8-1.4c0.9,0,1.2,0.6,1.2,1.4c0,0.9-0.1,1.9-0.2,2.8
	C67.2,101,66.7,101,66.3,100.2z"/>
<path class="st44" d="M53.7,103.8c0.8,0.1,1.7-0.1,2.4,0.6C55.3,104.3,54.4,104.6,53.7,103.8z"/>
<path class="st46" d="M57.7,93.2c-1.8-0.2-4.2-0.2-6.3-1.7c-0.3-0.2-0.7-0.3-0.7-0.8c0.1-0.5,0.4-0.7,0.8-0.8
	c2.9-0.9,5.9-1.6,8.9-1.2c1.7,0.2,3.4,0.8,5.1,1.2c0.4,0.1,0.9,0.4,0.9,1c0,0.5-0.4,0.6-0.8,0.8C63.4,93.1,60.8,93.1,57.7,93.2z"/>
<path class="st47" d="M63.6,97.6c-1.6-0.6-0.8-1.7-1.3-2.4c-0.3,2.2-0.4,2.3-2.6,2.5c-0.6,0.1-1.3,0.1-1.9,0.1
	c-2.2,0.1-2.3,0-2.8-2.3c-0.1,0.9-0.4,1.8-1.5,1.4c-0.6-0.2-1.2-0.8-1.7-1.2c-0.3-0.3-0.4-0.7-0.3-1.1c0.2-0.8,0.8-1,1.5-0.9
	c3.2,0.8,6.4,0.7,9.6,0.3c0.7-0.1,0.5,0.2,0.6,0.7C63.4,95.6,63.1,96.5,63.6,97.6z"/>
<path class="st48" d="M64.6,98.3c-2.5,1.7-9.5,1.7-12.5-0.1C56.6,98.8,60.6,98.9,64.6,98.3z"/>
<path class="st49" d="M50.8,99.9c-0.3,0.1-0.5,0.9-0.8,0.3c-0.4-1.2-0.8-2.4-0.6-3.7c1.5-0.5,1.9-0.2,1.8,1.1
	C51.1,98.4,50.9,99.1,50.8,99.9z"/>
<path class="st47" d="M64.9,95.4c0,0.1,0,0.2,0,0.2c-0.1,0.4,0.1,0.8-0.3,1c-0.1,0-0.3-0.1-0.3-0.2C64.2,96,64,95.4,64.9,95.4
	L64.9,95.4z"/>
<path class="st47" d="M64.9,95.4c0-0.5-0.2-1.1,0.3-1.7C65.6,94.4,65.5,95,64.9,95.4C64.9,95.4,64.9,95.4,64.9,95.4z"/>
</svg>
