<?xml version="1.0" encoding="utf-8"?>
<!-- Generator: Adobe Illustrator 23.1.1, SVG Export Plug-In . SVG Version: 6.00 Build 0)  -->
<svg version="1.1" id="Livello_1" xmlns="http://www.w3.org/2000/svg" xmlns:xlink="http://www.w3.org/1999/xlink" x="0px" y="0px"
	 viewBox="0 0 80 135" style="enable-background:new 0 0 80 135;" xml:space="preserve">
<style type="text/css">
	.st0{fill:#FFFFFF;stroke:#000000;stroke-width:0.2509;stroke-miterlimit:10;}
	.st1{fill:#4E4B44;}
	.st2{fill:#545145;}
	.st3{fill:#525043;}
	.st4{fill:#514F47;}
	.st5{fill:#555146;}
	.st6{fill:#E8544D;}
	.st7{fill:#954E51;}
	.st8{fill:#B7B9B9;}
	.st9{fill:#B0B3B1;}
	.st10{fill:#BFC0BF;}
	.st11{fill:#D2D4D1;}
	.st12{fill:#B5B4B7;}
	.st13{fill:#858682;}
	.st14{fill:#878586;}
	.st15{fill:#828282;}
	.st16{fill:#9E9F9E;}
	.st17{fill:#99969B;}
	.st18{fill:#E84F47;}
	.st19{fill:#D8C03A;}
	.st20{fill:#CE555B;}
	.st21{fill:#F5E332;}
	.st22{fill:#E3E3E3;}
	.st23{fill:#A49451;}
	.st24{fill:#EDEBE9;}
	.st25{fill:#FFFFFF;}
	.st26{fill:#E74E49;}
	.st27{fill:#E05459;}
	.st28{fill:#D7C73A;}
	.st29{fill:#CBCCCA;}
	.st30{fill:#907A3E;}
	.st31{fill:#ECD539;}
	.st32{fill:#DEDFDF;}
	.st33{fill:#D6C753;}
	.st34{fill:#D94C49;}
	.st35{fill:#D25458;}
	.st36{fill:#CAAF3B;}
	.st37{fill:#CBB63C;}
	.st38{fill:#C5B262;}
	.st39{fill:#DE514E;}
	.st40{fill:#D55754;}
	.st41{fill:#C4B03F;}
	.st42{fill:#D4BD3A;}
	.st43{fill:#BEAC57;}
	.st44{fill:#E35E62;}
	.st45{fill:#D4C23B;}
	.st46{fill:#DACC3A;}
	.st47{fill:#DCDDDB;}
	.st48{fill:#EAE9E9;}
	.st49{fill:#B9AA4C;}
	.st50{fill:#EDECEC;}
	.st51{fill:#E6E8E5;}
</style>
<path class="st0" d="M71.5,135h-63c-4.7,0-8.5-3.8-8.5-8.5V8.5C0,3.8,3.8,0,8.5,0h63C76.2,0,80,3.8,80,8.5v118
	C80,131.2,76.2,135,71.5,135z"/>
<path class="st1" d="M33.7,59.1c-0.1-0.2-0.1-0.4-0.2-0.7c-0.7-2.3-0.6-2.6,1.7-3.7c0.1,2.4,0.8,3.1,3.3,3.8
	c3.1,0.1,6.2,0.6,8.9-1.5c0.6-0.3,0.8-1.2,1.7-1.1c0.6,0.7,0.5,1.4,0.2,2.1c-0.2,0.5-0.5,1,0.2,1.4c0.2,0.2,0.2,0.3,0.2,0.6
	c1,1.8,0.5,3.6-0.1,5.5c-0.3,0.8-0.7,1.6-0.3,2.5c0.1,0.5,0.6,0.8,0.4,1.4c-0.9,0-1,0.6-1.1,1.3c-0.4,2.3-1.3,4.2-3.5,5.4
	c-1.1,0.6-1,2.4,0.1,3.1c0.9,0.6,1.8,1,2.8,1.2c1.6,0.3,0.8,1.5,0.9,2.3c0.1,0.9-0.4,1.2-1.3,1.2c-4.2,0-8.4,0.1-12.7,0.1
	c-0.9,0-1.6-0.1-1.6-1.2c0-1-0.3-2.1,1.3-2.4c0.8-0.1,1.5-0.4,2.2-0.9c1.4-1,1.3-2.7-0.1-3.6c-1.7-1.1-2.7-2.6-3-4.6
	c-0.1-0.5-0.2-1.1-0.4-1.6c-0.1-1.8-0.7-3.7,0.7-5.4c0.7-0.9,0.1-2.1-0.4-3.1c-0.1-0.3-0.2-0.6-0.3-0.9
	C33.3,59.8,33.6,59.4,33.7,59.1z"/>
<path class="st2" d="M17,99.5c-1-2.5-0.4-3.8,2-4.6c3.8-1.2,7.6-1,11.3,0.3c1.9,0.7,2.2,1.6,1.5,4.2c2.1,1.2,2.4,1.7,1.9,4.2
	c-0.1,0.7-0.4,1.4-0.6,2.1c-0.2,0.7-0.5,1.3,0.3,2.1c0.9,0.8,0.5,1.8-0.8,2.1c-1.1,0.2-1.4,0.7-1.5,1.7c-0.2,1.9-1.1,3.4-2.8,4.5
	c-1.4,0.9-1.3,2.7,0.1,3.6c0.6,0.4,1.2,0.7,1.9,0.9c0.8,0.2,1.1,0.7,1.1,1.6c0,1.7-0.1,2-1.6,2c-4.1,0.1-8.1,0-12.2,0
	c-0.9,0-1.1-0.5-1.1-1.2c0-0.8-0.4-1.9,0.8-2.2c0.8-0.2,1.6-0.3,2.2-0.8c1.7-1.1,1.8-2.6,0.1-3.7c-2.4-1.4-2.8-3.7-3.1-6.1
	c-0.2-0.3-0.4-0.6-0.4-1c0.5-1.3,0-2.7,0.2-4.1c1.3-1,1.4-2.1,0.6-3.4c-0.1-0.3-0.2-0.6-0.2-0.9C17,100.3,17.3,99.9,17,99.5z"/>
<path class="st3" d="M49.2,99.7c0.6-0.3,0.3-0.8,0.1-1.2c-0.6-1.7-0.4-2.3,1.2-3c0.9-0.4,1.9-0.8,2.9-1c3-0.5,6-0.4,9,0.6
	c3,1,3.2,1.4,2.7,4.4c0.2,0.6,0.1,1.2,0,1.9c-0.1,0.2-0.2,0.4-0.3,0.5c-0.3,0.3-0.8,0.7-0.5,1c1.7,2,0.1,4.6,1.4,6.7
	c-0.7,0-1.2,0.2-1.3,1c-0.2,2.5-1.3,4.3-3.5,5.6c-1,0.6-0.8,2.6,0.3,3.1c0.8,0.5,1.7,0.9,2.6,1.1c1.6,0.3,1.2,1.5,1.1,2.4
	c0,1.1-0.8,1.2-1.7,1.2c-4.1,0-8.3,0-12.4,0c-0.8,0-1.6,0.1-1.7-1.1c-0.1-1.4,0.1-1.9,1.3-2.3c0.8-0.2,1.5-0.4,2.3-0.7
	c0.8-0.3,1.4-0.7,1.4-1.9c0-1.1-0.2-1.7-1.3-2.2c-2.3-0.9-2.7-3-2.9-5.1c-0.7-1.3-0.9-2.7-0.4-3.9C50.3,104.4,50.1,102.1,49.2,99.7z
	"/>
<path class="st4" d="M50.3,16.2c-0.1-0.3-0.1-0.6-0.2-0.9c-0.5-1.9-0.4-2.3,1.4-3.2c2.4-1.2,5.1-1.4,7.7-1.2
	c1.6,0.2,3.4,0.1,4.7,1.2c-0.9,0.9-2,0.4-3,0.3c-2.5-0.3-5.1-0.5-7.6,0.5c-0.5,0.2-1.2,0.3-1.2,1c0,0.7,0.6,1,1.1,1.1
	c3.2,1,6.4,1.2,9.6-0.1c1.6-0.6,0.8-1.9,1.1-2.8c2.5,0.9,2.6,1.2,1.8,3.9c0.2,0.5,0.4,1,0.2,1.4c-2,3.2-0.1,5.9,1,8.7
	c-1.1,0.1-1.9,0.1-1.9,1.7c0,2-1.1,3.6-2.9,4.7c-1.6,1-1.5,2.8,0.1,3.6c0.7,0.4,1.5,0.7,2.2,0.9c1.1,0.2,1.4,0.9,1.3,1.9
	c-0.1,1.5-0.2,1.7-1.6,1.7c-4.2,0.1-8.4,0.1-12.7,0.2c-0.8,0-1.7,0.1-1.6-1.1c0.1-0.9-0.6-2.2,1.2-2.3c0.7,0,1.4-0.3,2.1-0.6
	c1.7-0.6,1.8-0.9,1.8-2.8c0-0.7-0.2-1-0.8-1.2c-2.2-0.8-3.2-2.5-3.5-4.7c-0.1-0.9-0.4-1.3-1.2-1.5c-0.7-0.3-0.8-0.9-0.7-1.6
	c0.1-0.2,0.3-0.2,0.5-0.2c0.4,0.3,0.8,0.3,0.9-0.3c0.3-2.1,0.8-4.1,1.5-6.1c1.3-0.3,2.5,0.3,3.6,0.8c1.5,0.6,2.9,0.8,4.4,0.3
	c0.4-0.1,0.8-0.3,0.8-0.8c0-0.3-0.2-0.5-0.5-0.5c-2.7,0.1-5.5-1.1-8.2,0c-0.4,0.4-0.8,0.3-1.2,0c-0.3-0.4-0.5-0.8-0.6-1.3
	C50.1,16.6,50.2,16.4,50.3,16.2z"/>
<path class="st5" d="M17.8,16c-0.8-2.1-0.3-3.4,2-4.2c2.2-0.7,4.5-1.1,6.8-0.7c-0.3,1-1,1.2-1.9,1.1c-1.5-0.1-2.8,0.7-4.2,0.9
	c-0.5,0-1.1,0.3-1.1,1c0,0.6,0.4,1,0.9,1.3c2.2,1.5,7.8,1.4,9.9-0.2c1.2-0.8,1.1-1.6-0.2-2.3c-0.9-0.5-1.9-0.3-2.7-0.9
	c-0.7-0.5-0.5-0.9,0.4-0.8c1.2,0,2.4,0.3,3.5,0.8c1.9,0.8,2.2,1.8,1.4,3.8c-0.3,0.6,0.2,1,0.4,1.6c0.5,1.3,1.4,2.6-0.2,3.8
	c-0.4-0.2-0.6-0.5-0.6-1c-0.1,0.9,0.2,1.8,0.4,2.6c0.1,1.1,0.3,2.2,0.3,3.2c-0.7,0.8-0.5,1.9-0.8,2.9c-0.1,1.7-1.2,2.7-2.4,3.7
	c-1.9,1.6-1.6,3.3,0.6,4.3c0.4,0.2,0.7,0.4,1.1,0.4c1.3,0.2,1.4,1,1.4,2c0,1.1-0.3,1.6-1.5,1.6c-4.1,0-8.1,0-12.2,0.1
	c-0.7,0-1.4-0.1-1.3-1c0.1-0.9-0.7-2.1,0.9-2.6c0.8-0.2,1.5-0.3,2.2-0.8c1.4-1.1,1.5-2.6,0-3.6c-1.8-1.2-2.6-2.9-3-4.9
	c0-0.7-0.5-1.4-0.6-2.1c0.2-1.2,0.1-2.4,0.5-3.5c0.8-1.2,1.1-2.5,0.1-3.8c-0.3-0.5-0.1-0.9,0-1.4C17.8,16.9,18,16.4,17.8,16z"/>
<path class="st6" d="M27.7,11.3c-0.1,0.2-0.7,0.5,0,0.6c1.1,0.1,2.2,0.3,3.2,0.9c1.5,0.9,1.5,2.2-0.1,3.1c-2.5,1.4-5.3,1.5-8.1,1.1
	c-0.8-0.1-1.5-0.4-2.3-0.5c-1.3-0.2-1.6-1.4-1.7-2.3c-0.2-0.9,0.9-1.5,1.7-1.6c1.6-0.1,3.1-1.2,4.8-0.7c0.6,0.2,1-0.4,1.5-0.6
	C27,11,27.4,11,27.7,11.3z"/>
<path class="st7" d="M49.1,55.9c-0.6,0.3-0.3,1.2-1,1.5c-1.4-1.9-3.6-1.8-5.6-2.2c-0.7-0.1-0.8,0.4-1.2,0.8c-1,1.1-1.9,2.3-3.2,3.1
	c-1.7,0.2-2.3-1.7-3.6-2.2c-0.3-0.1-0.3-0.6-0.1-0.8c0.3-0.5,0.6-0.9,0.9-1.4c4.1-1.7,8.2-1.5,12.2,0C48.1,54.9,48.8,55.1,49.1,55.9
	z"/>
<path class="st8" d="M49.2,99.7c1.1,0.6,1.4,1.7,1.6,2.8c0.2,1.1,0.4,2.2-0.7,3.1c-0.2,0.1-0.2,0.6-0.1,0.9c0.2,1.4-0.2,2.9-0.2,4.3
	c-0.4-0.3-0.7-0.6-1.2-0.8c-1-0.5-1.2-1.3-0.7-2.2c0.6-0.9,0.3-1.6,0-2.5c-0.4-1-0.6-2.1-0.8-3.2C47.1,100.7,47.5,100.3,49.2,99.7z"
	/>
<path class="st9" d="M34,60.5c1.2,1.3,1,2.8,0.7,4.4c-0.2,1-1.3-0.2-1.1,0.8c0.1,0.5,0.3,1.1,0.4,1.6c0.2,0.9-0.7,1.6-0.6,2.5
	c-2.3-0.6-2.6-1-1.6-2.9c0.3-0.6,0.4-1.2,0.2-1.8c-0.1-0.5-0.3-0.9-0.5-1.3c-0.7-2.6-0.3-3.4,2.3-4.6c0.6,0.3,0,0.6,0,0.9
	c-0.6,0.6-1.6,0.9-1.3,2.1C32.4,61,32.6,60.1,34,60.5z"/>
<path class="st10" d="M66.9,26.1c-1.6-0.4-2.2-1.4-1.9-3c0.1-0.5,0-0.9-0.3-1.3c-0.8-0.9-0.8-2-0.2-2.8c0.6-0.9,0.5-2.1,1.3-2.9
	c2.2,1.2,2.4,1.6,1.9,3.9c-0.2,0.7-0.4,1.4-0.7,2c-0.3,0.8-0.4,1.5,0.2,2.2C67.7,24.8,67.9,25.5,66.9,26.1z"/>
<path class="st11" d="M65.6,109.6c-1.3-0.6-1.4-1.8-1.3-3c0-0.3,0.1-0.6,0.2-0.9c0.1-0.4,0.1-0.4-0.6-1c-0.6-0.5-0.4-1.1-0.3-1.8
	c0.1-0.8,0.3-1.6,1.4-1.5c0.2,0.2,0.2,0.4,0.2,0.7c0-0.2-0.1-0.5-0.3-0.6c-0.9-0.7-0.1-1.3,0.2-2c0.8-0.1,0.9,0.7,1.4,1.1
	c0.4,0.7-0.1,1.6,0.3,2.3c0.1,0.6,0.1,1.1-0.4,1.5c-0.8,1.1-1.7,2.2-0.1,3.3C66.9,108.8,66.8,109,65.6,109.6z"/>
<path class="st12" d="M51.7,18.1c0.3,2.3-0.8,4.5-1.1,6.7c-0.4,0.4-0.9,0.4-1.3,0c-0.2,0-0.4,0-0.6,0c0.2-0.5,0.3-1,0.5-1.5
	c0.2-0.2,0.3-0.5,0.3-0.8c0-0.7-0.3-1.4-0.7-1.9c-0.2-0.3-0.3-0.6-0.2-0.9c0.2-1.1,0.1-2.7,2-2.1C51,18,51.3,18.2,51.7,18.1
	L51.7,18.1z"/>
<path class="st13" d="M32.2,17.3c0-0.5-0.2-1.1,0.4-1.5c0.1,0.4,0.5,0.6,0.9,0.8c1.4,0.7,1.6,1.8,1.3,3.2c-0.1,0.7-0.3,1.4-0.6,2.1
	c-0.3,0.9-0.6,1.8,0.2,2.7c0.7,0.9,0.3,2-0.6,2.1c-1.6,0.2-1.4,1.4-1.9,2.3c-0.2-1-0.1-2,0.5-2.9c0.1-2.1,0.5-4.1,1.1-6.1
	C33.8,18.7,33.3,17.8,32.2,17.3z"/>
<path class="st14" d="M49.5,59.9c0-0.2,0-0.3,0-0.5c1.5,0,1.9,0.9,2,2.2c0.1,1-0.3,1.9-0.6,2.8c-0.2,0.9-0.7,1.6,0.1,2.7
	c0.8,1,0.2,1.7-1.2,2.3c-0.2-0.3-0.8-0.4-0.8-0.9c0.2-1.9,0.8-3.8,1.3-5.7C50.5,61.7,49.8,60.8,49.5,59.9z"/>
<path class="st15" d="M17,99.5c0.4,0.2,0.4,0.6,0.4,1c-2.2,1.2-1.2,3.3-0.9,4.9c0.3,1.5,0.2,2.7-0.5,4c-0.1,0.1-0.1,0.2-0.2,0.3
	c-1.4,0-1.4-1.2-0.9-1.7c1.2-1.1,0.5-2.1,0.3-3.2c0-0.1-0.1-0.1-0.1-0.2C14.3,101.9,14.8,100.8,17,99.5z"/>
<path class="st16" d="M49.8,22.8c-0.2,0.2-0.3,0.4-0.5,0.5c-0.4-1.2-0.8-2.4-1.1-3.7c-0.5-2,0-2.7,2.1-3.5c0,0.2,0,0.4-0.1,0.6
	c-0.8,0.9-1.3,1.9-1.3,3.1c0,0.3,0.1,0.5,0.4,0.6C49.5,21.3,50.2,21.9,49.8,22.8z"/>
<path class="st17" d="M17.6,26.2c0.3,0.6,0.6,1.2,0.3,1.9c-0.4-0.6-0.7-1.1-1.4-1.4c-1.1-0.5-1.2-1.5-0.4-2.2
	c0.7-0.7,0.5-1.4,0.5-2.1c0.1-0.1,0.2-0.1,0.3-0.2c1.2,0.5,1.1,1.5,0.8,2.5C17.4,25.2,17.3,25.6,17.6,26.2z"/>
<path class="st3" d="M66.3,107.7c-0.8,0.3-1.4,0.2-1.3-0.7c0.2-1.1,0.5-2.1,1-3.1c0.2-0.3,0.2,0.3,0.4,0.5
	C66.2,105.5,65.1,106.6,66.3,107.7z"/>
<path class="st17" d="M16.5,22.3c-1-1.7-1.5-3.4,0.1-5.1c0.2,0.1,0.4,0.3,0.4,0.5c-0.4,1.4,0.5,3-0.3,4.4
	C16.7,22.2,16.6,22.3,16.5,22.3z"/>
<path class="st17" d="M17.8,16c0.6,0.4,0.5,1.1,0.7,1.6c-0.6,0.2-1.1,0.4-1.7,0c-0.1-0.1-0.2-0.2-0.3-0.3
	C16.8,16.7,17.8,16.7,17.8,16z"/>
<path class="st3" d="M66.8,102.9c-0.8-0.7-0.3-1.5-0.3-2.3C67.2,101.2,66.7,102.1,66.8,102.9z"/>
<path class="st15" d="M16.8,109.2c0,0.3-0.1,0.6-0.1,1c-0.4-0.1-0.8,0-0.9-0.5c0,0,0,0,0,0C16.1,109.3,16.3,108.8,16.8,109.2z"/>
<path class="st18" d="M38.1,59.1c0.2-0.2,0.3-0.4,0.5-0.5c0.7-0.5-0.1-1.3,0.2-1.7c0.4-0.6,1.2,0.2,1.7-0.2c0.8-0.5-0.1-1.4,0.4-2.1
	c2.1-0.2,4.1,0.4,6.1,1c0.9,0.3,1.1,1,1,1.9C45,59.7,41.6,59.5,38.1,59.1z"/>
<path class="st19" d="M46.8,65c-0.3,2.4-0.4,2.4-2.3,2.6c-2.8,0.3-5.5,0-8.3-0.1c-0.9-0.1-1.4-0.3-1.2-1.2c0.2-0.8,0.1-1.8,1.5-1.6
	c1.9,0.3,3.9,0.4,5.9,0.5C43.8,65.2,45.2,65,46.8,65z"/>
<path class="st20" d="M39.2,81.3c1.3,0,2.5,0,3.8,0.1c0.5,0,0.8,0.3,0.7,0.8c-0.1,0.6-0.7,0.1-0.8,0.2c-2.3,1.5-4.8,0.5-7.3,0.7
	c-0.6,0.1-1.4,0.1-1.3-0.9c0.1-0.8,0.7-1,1.4-1C36.8,81.2,38,81.2,39.2,81.3C39.2,81.3,39.2,81.3,39.2,81.3z"/>
<path class="st21" d="M41.1,62.6c-0.8,0-1.6,0-2.4-0.1c-0.6,0-1.2-0.1-1.2-0.8c0-0.7,0.3-1.4,1-1.4c1.8,0,3.6,0,5.5,0.1
	c0.6,0,0.6,0.7,0.6,1.2c0,0.5-0.3,0.9-0.9,0.9C42.9,62.6,42,62.6,41.1,62.6C41.1,62.6,41.1,62.6,41.1,62.6z"/>
<path class="st22" d="M49.5,59.9c1.8,1.3,1,2.9,0.6,4.5c-0.3,1.1-1.2,2,0,3.3c0.6,0.7-0.6,0.9-1.3,0.8c-0.5-0.8-0.4-1.6-0.1-2.5
	c0.3-0.8,0.5-1.6,0.8-2.5c0.3-1,0.4-1.9-0.6-2.7C48.3,60.3,49.2,60.1,49.5,59.9z"/>
<path class="st23" d="M37.8,63.5c2.2,0,4.3,0.1,6.6,0.1C42.9,64.9,39.9,64.8,37.8,63.5z"/>
<path class="st24" d="M48.1,65.9c-0.3-1.7-0.6-2.8-0.1-4c0.1-0.2,0.2-0.4,0.5-0.4c0.4,0,0.6,0.3,0.6,0.6
	C49.1,63.2,48.9,64.4,48.1,65.9z"/>
<path class="st25" d="M34,60.5c-1.8,0.2-1.6,1.6-1.4,3.2c-0.9-2.7-0.9-2.7,1.1-3.7C34,60,34.1,60.2,34,60.5z"/>
<path class="st26" d="M24.2,100.1c-1.4,0.2-2.8-0.2-4.2-0.5c-0.4-0.1-0.8-0.2-1.1-0.4c-1.4-1.2-1.3-2.3,0.3-3.2c2-1.1,4.1-1.1,6.3-1
	c1.2,0.1,2.4,0.3,3.5,0.6c0.9,0.2,1.9,0.5,2,1.7c0.1,1.3-0.8,1.9-1.9,2.2C27.5,100,25.9,100.4,24.2,100.1z"/>
<path class="st27" d="M26.4,123.3c-2.2-0.2-4.5,0.5-6.8,0.3c-0.5-0.1-1,0-1.4-0.1c-0.6-0.1-0.6-0.6-0.6-1.1c0-0.6,0.2-0.9,0.8-0.9
	c0.3,0,0.6-0.1,0.9-0.1c3.3,0,6.5,0.1,9.8,0.1c0.6,0,1.3,0,1.4,1c0,0.9-0.6,1-1.3,1C28.2,123.3,27.3,123.3,26.4,123.3z"/>
<path class="st28" d="M27.6,107.7c-0.2,0.7-1.2,1.2-1.8,1c-1.8-0.7-3.5,0-5.3-0.1c-0.8,0-0.9-0.5-1-1.1c-0.1-0.3-0.2-1.1,0.1-0.9
	c1,0.7,1.1-0.7,1.8-0.6c1.6,0.1,3.2-0.1,4.8,0.1C27.3,106.3,27.4,106.8,27.6,107.7z"/>
<path class="st29" d="M33.3,102.6c-0.3,1.1-0.5,2.2-0.8,3.2c-0.3,0.9-0.7,1.7,0.5,2.4c0.4,0.2,0.2,0.9-0.2,1.2
	c-0.5,0.3-1.2,0.1-1.2-0.4c0.1-2.2-1.5-4.1-1.1-6.4c0.2-0.8,1.3-1,1.1-2c0-0.1,0.5-0.2,0.8,0C33.2,101,33.4,101.8,33.3,102.6z"/>
<path class="st30" d="M21.3,103.4c-1.4,0-0.9-1.1-1-1.9l0,0c0.4-0.5,1-0.7,1.6-0.8c2.2-0.2,4.4-0.1,6.6,0.1c0.2,0,0.3,0.3,0.7,0.6
	c-1,0.5-1.5,1.8-2.8,1.6C24.6,101.3,24.5,101.3,21.3,103.4z"/>
<path class="st31" d="M21.3,103.4c-0.1-0.3-0.5-0.7-0.1-0.8c1-0.4,1.9-1,2.8-1.4c1.3-0.5,1.9,0.1,2.5,1.8
	C24.8,104.1,23,103.3,21.3,103.4z"/>
<path class="st32" d="M16.8,109.2c-0.3,0.1-0.7,0.3-1,0.4c0-0.5-0.8-1.1-0.1-1.5c1.3-0.6,0.8-1.5,0.5-2.3c-0.3-1.1-0.8-2.2-0.8-3.4
	c0-1.5,0.2-1.7,2-1.9c0,0.3,0,0.6,0,0.9c0,0.1-0.1,0.2-0.1,0.3c-0.4,0.9-0.3,1.8-0.4,2.7c0,0.1,0,0.2-0.1,0.3
	C17,106.3,17.8,107.7,16.8,109.2z"/>
<path class="st32" d="M17.4,101.5c1.2,0.9,1,2.1,0.7,3.3c-0.3,0.9-0.8,0.4-1.2,0.1c0,0,0,0.1,0,0.1
	C16.7,103.6,16.2,102.4,17.4,101.5L17.4,101.5z"/>
<path class="st33" d="M27.5,104.6c-2.2,0.6-4.6,0.5-6.4-0.1C23.2,104.5,25.4,104.6,27.5,104.6z"/>
<path class="st30" d="M20.3,101.5c-0.4,0.1-0.8,0.6-1.2,0c-0.1-0.2,0.1-0.4,0.3-0.5C20.1,100.7,20.3,100.9,20.3,101.5
	C20.3,101.5,20.3,101.5,20.3,101.5z"/>
<path class="st34" d="M56.9,95c2.1,0,3.7,0,5.2,0.6c0.4,0.1,0.8,0.2,1.1,0.5c1.4,0.9,1.3,1.7-0.1,2.4c-3.9,2-7.8,1.6-11.7,0.1
	C50,98,49.9,97,51.2,96.2C53.2,95,55.3,94.9,56.9,95z"/>
<path class="st35" d="M54.9,121.2c2.1,0,4.1,0.1,6.2,0.1c0.8,0,1.6,0.2,2.4,0.3c0.4,0.1,0.5,0.4,0.4,0.7c0,0.2-0.2,0.4-0.4,0.5
	c-0.2,0.1-0.5,0.1-0.7,0.1c-3.9,0.1-7.8,0.2-11.7,0.3c-0.6,0-1.4,0-1.3-0.9c0-0.8,0.6-1.1,1.3-1c1.3,0,2.6,0,3.8,0.1
	C54.9,121.4,54.9,121.3,54.9,121.2z"/>
<path class="st36" d="M51.1,99.8c3,0.9,5.7,1.3,8.4,0.9c0.5-0.1,1.3,0.1,1.5,0.4c0.3,0.7-0.1,1.2-0.7,1.7c-1.1,0.9-2.2,0.6-3.4,0.6
	c-1.7,0-3.2-0.7-4.8-1.2C51,102,51.1,101,51.1,99.8z"/>
<path class="st37" d="M51.4,106.5c0-0.3,0.1-0.8,0.3-0.8c2.5,0.3,5,0.4,7.5,0.4c0.7,0,1.4,0.4,1.8,1.1c0.3,0.6,0.3,1.1-0.5,1.1
	c-1.8,0.1-3.6,0.3-5.4,0.2C53.5,108.3,52.3,107.7,51.4,106.5L51.4,106.5z"/>
<path class="st38" d="M52.9,104.2c2.5,0,4.4,0.1,6.5,0.1C58.1,105.5,56.7,105.5,52.9,104.2z"/>
<path class="st37" d="M51.4,106.4c0,0.1,0.1,0.3,0,0.4c0,0.2,0.1,0.7-0.3,0.6c-0.3-0.1-0.2-0.5,0-0.8
	C51.2,106.6,51.3,106.6,51.4,106.4C51.4,106.5,51.4,106.4,51.4,106.4z"/>
<path class="st39" d="M63.9,12.1c1.5,2,1.3,2.5-1,3.4c-3.3,1.3-6.5,1-9.8,0.1c-0.3-0.1-0.6-0.2-0.9-0.4c-0.6-0.4-1.3-0.8-1.1-1.6
	c0.1-0.6,0.8-0.9,1.4-1.2c3.1-1,6.2-1.3,9.3-0.5C62.5,12.1,63.2,12.1,63.9,12.1C63.9,12.1,63.9,12.1,63.9,12.1z"/>
<path class="st40" d="M56.5,39.9c-1.5,0-3-0.1-4.6-0.1c-0.5,0-1-0.2-1-0.8c-0.1-0.7,0.4-1,1-1.1c0.7-0.1,1.4-0.1,2.2-0.1
	c3,0,5.9,0,8.9,0c0.2,0,0.5-0.1,0.7,0c0.5,0.1,1,0.3,1,0.9c0,0.7-0.5,0.7-1,0.8c-1.7,0.3-3.5,0.4-5.2,0.4
	C57.8,39.9,57.2,39.8,56.5,39.9C56.5,39.9,56.5,39.9,56.5,39.9z"/>
<path class="st41" d="M56.6,22.6c1.4,0,2.7,0.1,4.1,0.1c0.8,0,1.2,0.4,1.4,1c0.2,0.5,0,1.1-0.5,1.1c-0.7,0-1.5,0.5-2,0.4
	c-2.2-0.4-4.6,0.1-6.8-0.7c-0.7-0.2-1.3-0.4-1-1.3c0.2-0.6,0.3-1.4,1.4-1C54.3,22.5,55.4,22.5,56.6,22.6
	C56.5,22.6,56.6,22.6,56.6,22.6z"/>
<path class="st42" d="M51.8,18.1c0-0.9,0.2-1.7,1.4-1.4c2.1,0.5,4.2,0.6,6.4,0.5c0.4,0,0.8,0.1,1.2,0.2c0.7,0.2,0.7,0.8,0.8,1.3
	c0.1,0.6-0.3,0.8-0.8,1c-1.1,0.4-2.2,0.4-3.3,0.3C55.3,20,53.6,18.9,51.8,18.1C51.7,18.1,51.8,18.1,51.8,18.1z"/>
<path class="st43" d="M53.3,20.7c2.7,0.1,4.9,0.1,7.1,0.1C59.3,22,56.6,22,53.3,20.7z"/>
<path class="st25" d="M48.9,19.9c0-1.2-0.2-2.6,1.3-3.1c0.1,0.4,0.6,0.4,0.5,0.9C49.2,17.6,49.5,19,48.9,19.9z"/>
<path class="st25" d="M49.4,24.8c0.4,0,0.9,0,1.3,0c0.1,0.6-0.2,1.3-0.8,1.3C49.3,26.1,49.1,25.4,49.4,24.8z"/>
<path class="st41" d="M64.1,23.4c0,0.1-0.1,0.4-0.1,0.4c-0.3,0-0.3-0.2-0.2-0.4c0-0.1,0.1-0.2,0.2-0.4C64,23.2,64,23.3,64.1,23.4z"
	/>
<path class="st41" d="M62.9,22.5c0,0.1,0.1,0.3,0.1,0.4c-0.1,0.1-0.2,0.2-0.4,0.2c-0.2,0-0.2-0.2-0.1-0.3
	C62.6,22.6,62.8,22.6,62.9,22.5z"/>
<path class="st44" d="M18.6,38.3c0.9-0.5,1.9-0.2,2.8-0.2c2.3,0,4.6,0.1,6.9,0c0.9,0,1.7,0.1,2.6,0.3c0.3,0.1,0.5,0.4,0.5,0.7
	c0,0.4-0.3,0.5-0.6,0.6c-0.8,0.1-1.6,0.4-2.3,0.4c-2.8,0-5.6,0-8.4,0C18.9,40.1,18.4,39.5,18.6,38.3z"/>
<path class="st45" d="M24.6,20.4c-1.5,0-3.1,0.1-3.8-1.8c-0.1-0.2-0.2-0.3-0.5-0.3c-0.8,0-1-0.2-1-0.5c0-0.9,0.7-0.8,1.2-0.7
	c1.3,0.3,2.6,0.7,4,0.5c1.2-0.2,2.3,0.3,3.5,0.4c0.4,0,0.8,0.1,1,0.5c0.2,0.4-0.2,0.7-0.5,1C27.6,20.3,26.6,20.5,24.6,20.4z"/>
<path class="st46" d="M24.1,22.8c1.3,0,2.1,0,2.9,0.1c0.8,0.1,1.6,0.4,1.6,1.4c-0.1,1-1.2,1.4-1.7,1.3c-1.8-0.7-3.6,0.1-5.3-0.3
	c-1.1-0.2-1.2-0.9-1.4-1.6c-0.1-0.3,0.1-0.5,0.5-0.6C21.9,22.8,23.3,22.7,24.1,22.8z"/>
<path class="st47" d="M32.2,17.3c1.4-0.2,1.9,0.5,1.8,1.8c0,1.1-0.3,2-0.6,3c-0.3,1-0.9,1.9,0.3,3.1c0.8,0.7-0.7,0.7-1.3,0.7
	c-0.7-1.1-0.3-2.3-0.4-3.4c0-0.1,0-0.2,0-0.3c0-0.4,0.1-0.7,0.3-1c0.1-0.1,0.1-0.1,0.2-0.2C33.6,19.8,32.8,18.5,32.2,17.3z"/>
<path class="st48" d="M16.9,17.6c0.6-0.1,1.1-0.2,1.7,0c0,0.6-0.8,0.4-0.9,0.9c0,0.1,0,0.2,0,0.3c0.1,0.6,0,1.1,0.1,1.7
	c0.1,0.2,0.1,0.4,0.1,0.5c0.1,0.4,0.1,0.7,0.1,1.1c0,0.1,0,0.2,0,0.3c-0.2,1.3,0.6,2.7-0.5,3.9c-0.8-0.1-1.7-0.6-0.9-1.2
	c1.6-1.1,0.5-1.9,0.1-2.8C16.7,20.6,15.6,19.1,16.9,17.6z"/>
<path class="st49" d="M21.3,21c2.5,0.1,5,0.1,7.5,0.2C27.7,22.2,23.7,22.3,21.3,21z"/>
<path class="st50" d="M17.6,18.4c1,0,1.5,0.5,1.5,1.4C19,20.7,19.6,22,18,22.3c0,0,0.1,0,0.1,0c-0.4-0.4,0-1.1-0.5-1.5l0,0.1
	C17.3,20,17.3,19.2,17.6,18.4L17.6,18.4z"/>
<path class="st51" d="M32,22.6c-0.9-1.6-0.9-2-0.1-4.1c1.2,0.7,0.6,1.8,0.6,2.7c0,0,0,0,0,0C32,21.5,32.4,22.2,32,22.6L32,22.6z"/>
<path class="st46" d="M19.3,23.9c-0.1-0.1-0.2-0.2-0.2-0.3c0-0.2,0-0.4,0.2-0.4c0,0,0.1,0.2,0.1,0.4C19.4,23.6,19.3,23.8,19.3,23.9z
	"/>
<path class="st3" d="M64.9,101.5c0.8,0.4,0.3,1,0.1,1.5C65,102.5,65,102,64.9,101.5C65,101.5,64.9,101.5,64.9,101.5z"/>
<path class="st25" d="M49.8,22.8c-0.2-0.8-0.3-1.5-0.5-2.3C49.6,21.3,50.6,21.8,49.8,22.8z"/>
<path class="st2" d="M17.5,101.4c-0.8,1-0.6,2.2-0.6,3.4c-0.7-0.8-0.4-1.8-0.4-2.7C16.4,101.5,16.9,101.4,17.5,101.4z"/>
<path class="st5" d="M32,22.6c0.1-0.5,0-1.1,0.5-1.5C32.4,21.6,32.6,22.3,32,22.6z"/>
<path class="st5" d="M17.7,18.4c0,0.8,0,1.6-0.1,2.5C17.1,20,17,19.2,17.7,18.4z"/>
<path class="st5" d="M17.6,20.8c0.5,0.4,0.4,1,0.5,1.5C17.5,21.9,17.7,21.3,17.6,20.8z"/>
</svg>
