<?xml version="1.0" encoding="utf-8"?>
<!-- Generator: Adobe Illustrator 23.1.1, SVG Export Plug-In . SVG Version: 6.00 Build 0)  -->
<svg version="1.1" id="Livello_1" xmlns="http://www.w3.org/2000/svg" xmlns:xlink="http://www.w3.org/1999/xlink" x="0px" y="0px"
	 viewBox="0 0 80 135" style="enable-background:new 0 0 80 135;" xml:space="preserve">
<style type="text/css">
	.st0{fill:#FFFFFF;stroke:#000000;stroke-width:0.2509;stroke-miterlimit:10;}
	.st1{fill:#525049;}
	.st2{fill:#53514B;}
	.st3{fill:#4F4D47;}
	.st4{fill:#4D4E46;}
	.st5{fill:#51524B;}
	.st6{fill:#4C4B44;}
	.st7{fill:#C1C1C2;}
	.st8{fill:#C4C4C3;}
	.st9{fill:#96474E;}
	.st10{fill:#B2535D;}
	.st11{fill:#9E4B4F;}
	.st12{fill:#A64F51;}
	.st13{fill:#B95054;}
	.st14{fill:#F0EFEF;}
	.st15{fill:#969396;}
	.st16{fill:#8F8D90;}
	.st17{fill:#817E80;}
	.st18{fill:#8C8889;}
	.st19{fill:#8E8F90;}
	.st20{fill:#BEBEBB;}
	.st21{fill:#C45F5C;}
	.st22{fill:#CE5A5B;}
	.st23{fill:#C3575A;}
	.st24{fill:#888988;}
	.st25{fill:#6D6E6D;}
	.st26{fill:#E35B50;}
	.st27{fill:#C8B23E;}
	.st28{fill:#C0555D;}
	.st29{fill:#D9D9DA;}
	.st30{fill:#EAD63D;}
	.st31{fill:#E8E9E8;}
	.st32{fill:#D2D6D6;}
	.st33{fill:#C4CA6C;}
	.st34{fill:#E65754;}
	.st35{fill:#E2D238;}
	.st36{fill:#D3D5D5;}
	.st37{fill:#E9E7E8;}
	.st38{fill:#CBB73E;}
	.st39{fill:#9E9146;}
	.st40{fill:#D85152;}
	.st41{fill:#D6BF3A;}
	.st42{fill:#BFB341;}
	.st43{fill:#E4E4E2;}
	.st44{fill:#E2E2E4;}
	.st45{fill:#D74E4A;}
	.st46{fill:#C9B83D;}
	.st47{fill:#F0F1F0;}
	.st48{fill:#ECD935;}
	.st49{fill:#C7C159;}
	.st50{fill:#ECEDEB;}
	.st51{fill:#E0514C;}
	.st52{fill:#C2B03D;}
	.st53{fill:#B8AB40;}
	.st54{fill:#FFFFFF;}
	.st55{fill:#D24D4F;}
	.st56{fill:#AD993D;}
	.st57{fill:#D8D8D6;}
	.st58{fill:#AE9C3D;}
	.st59{fill:#F0E033;}
	.st60{fill:#F2F1F0;}
</style>
<path class="st0" d="M71.5,135h-63c-4.7,0-8.5-3.8-8.5-8.5V8.5C0,3.8,3.8,0,8.5,0h63C76.2,0,80,3.8,80,8.5v118
	C80,131.2,76.2,135,71.5,135z"/>
<path class="st1" d="M29.9,26c-0.6,2-1.6,3.8-3.4,5c-1.2,0.8-0.1,2.2-0.8,3.3c-0.3,0.5,0.7,1.1,1.4,1.4c0.6,0.3,1.2,0.6,1.8,0.7
	c1,0.1,1.1,0.7,1.1,1.5c0.1,2,0,2.1-2.1,2.2c-3.2,0.2-6.4-0.1-9.6,0.3c-0.7,0.1-1.6,0.2-1.7-0.8c-0.1-0.9-0.9-2.1,0.7-2.6
	c0.7-0.2,1.3-0.7,1.8-1.1c0.7-0.5,1.5-1.1,0.7-2.1c-0.3-0.3-0.1-0.8,0-1.2c0.3-0.7,0-1.2-0.7-1.6c-1.8-1.1-2.9-2.7-3.3-4.8
	c-0.2-0.3-0.4-0.6-0.4-0.9c0.2-1.7-0.2-3.3,1.2-4.9c0.9-1,0.2-2.7-0.3-4.1c-0.2-0.5,0.2-1.1-0.1-1.6c-0.2-1.9-0.1-2.3,1.4-3.1
	c1.9-1,4-1,6.1-0.9c1.3,0.1,2.7,0.2,4,0.6c1.3,0.4,2.6,1,2.1,2.9c-0.1,0.4,0.3,0.7,0.7,0.9c0.2,0.3-0.1,0.6-0.2,0.8
	c-0.4,0.4-0.4,0.9-0.9,1.2c-0.5,0.7-0.6,1.6-0.6,2.5c0.5-0.9-0.3-2.3,1.2-2.7c0.9,0.9,0.7,2.1,0.5,3.1c-0.4,1.6-0.4,3.3-0.1,4.9
	C30.4,25.4,30.2,25.7,29.9,26z"/>
<path class="st2" d="M17.3,78.8c0.4-0.7,1.3-0.6,1.8-1.1c0.5-0.6,1.8-1.2,0.5-2.2c0.5-1.9-0.9-2.8-2-4c-0.9-0.9-1.7-2.1-1.9-3.5
	c-0.2-0.3-0.4-0.6-0.4-0.9c0.1-1.2,0.5-2.3,0.2-3.6c-0.1-0.4-0.1-0.9,0.3-1.1c2.5-1.8,0.6-3.3-0.3-4.8c-0.1-0.2-0.1-0.4,0.1-0.6
	c0.5-0.1,1-0.2,0.7-0.9c-0.6-1.5,0.4-2.4,1.5-2.8c3.9-1.4,7.9-1.5,11.7,0.5c0.2,0.1,0.3,0.4,0.4,0.5c0.4,0.5,0.3,1,0,1.5
	c0,0.4-0.1,0.8,0.4,1c0.1,0.1,0.2,0.2,0.2,0.3c0,0.1,0,0.2-0.1,0.2c-0.3,0.4-0.5,0.8-0.7,1.3c-0.1,0.2-0.2,0.4-0.3,0.6
	c-0.4,1-0.6,1.7,0.4,2.7c1.1,1.2,0.2,3.2,0.6,4.8c0,0.4-0.2,0.7-0.4,0.9c-0.9,2-1.6,4.2-3.8,5.3c-0.4,0.2-0.6,0.5-0.4,1
	c0.1,0.1,0.1,0.3,0.1,0.5c0.1,2.8,0.1,2.8,2.6,3.8c1.4,0.6,1.8,1.3,1.5,2.7c-0.2,0.7-0.5,1.1-1.3,1.1c-4-0.1-8.1,0.4-12.1-0.1
	c0.5-1.7,1.9-1.5,3.1-1.5c2.7-0.1,5.4,0.2,8.1-0.2c-0.7-0.6-1.5-0.5-2.3-0.5c-2.2,0.1-4.3,0-6.5,0C18.4,79.8,17.5,79.9,17.3,78.8z"
	/>
<path class="st3" d="M17.3,120.5c0.4-0.2,0.9-0.4,1.2-0.7c0.8-0.7,2.2-1.2,1-2.7c0.6-1.5-0.4-2.3-1.4-3c-1.4-1.1-2-2.6-2.4-4.2
	c-0.7-0.9-0.4-1.9-0.1-2.8c1.1-2.8,1.3-5.5,0-8.3c0.2-0.1,0.5-0.1,0.5-0.4c0.1-2.5,0.5-3.1,2.8-3.6c2.9-0.6,5.8-0.7,8.7,0.3
	c2.2,0.7,2.4,1.1,2.3,3.5c0.3,1-0.9,1.5-0.8,2.3c-0.1,0.4-0.1,0.9-0.1,1.3c0.2-0.5,0-0.9,0.2-1.4c0.1-0.2,0.2-0.4,0.5-0.4
	c1.6,0.6,1.3,1.9,0.9,3c-0.6,1.9-0.7,3.7-0.1,5.6c0,0.3-0.1,0.5-0.3,0.7c-1,2-1.9,4.1-4,5.5c-0.9,0.6-0.2,2.1-0.6,3.1
	c-0.2,0.5,0.8,1.1,1.5,1.4c0.6,0.3,1.2,0.5,1.8,0.7c0.8,0.2,1.1,0.8,1,1.6c0,1.9-0.1,2.1-2,2.1c-3.2,0-6.4,0.1-9.6,0.1
	c-0.7,0-1.6,0.4-1.9-0.5c-0.2-0.9-0.7-2.1,0.5-2.7c0.5,1.1,1.4,1.6,2.7,1.5c2.6-0.1,5.2,0.1,7.8-0.3c-1.3-0.5-2.7-0.2-4.1-0.3
	C21.2,121.7,19,122.3,17.3,120.5z"/>
<path class="st4" d="M51,57.8c0.6-0.2,1.6,0.1,1.1-1.2c-0.7-1.8-0.3-2.6,1.4-3.4c2.4-1.2,5.1-1.1,7.7-0.9c1.1,0.1,2.2,0.3,3.2,0.7
	c2.2,0.8,2.3,1.2,1.8,3.6c-0.3,0.5,0.1,1,0.1,1.5c0.8,1.4,1.4,2.7,0.5,4.3c-1.2,0.4-0.9-0.7-1.3-1.2c-0.4,1.2,0.8,1.6,1,2.4
	c0.3,1.2,0.1,2.3,0.2,3.5c0,0.2-0.1,0.5-0.3,0.6c-0.6,0.1-0.7,0.7-0.8,1.1c-0.5,1.7-1.5,3-2.9,3.9c-0.7,0.5-1.4,0.8-0.8,1.8
	c0.2,0.3,0,0.6-0.3,0.8c-0.8,0.7-0.2,1.1,0.3,1.5c0.9,0.8,1.9,1.1,3,1.3c1.7,0.3,0.9,1.6,1,2.5c0.1,1.1-0.8,1-1.5,1
	c-1.6,0-3.2,0-4.8-0.1c-1.5,0.2-3,0.1-4.8-0.1c1.5-1.7,3.1-1.2,4.6-1.3c1.5-0.1,3,0.3,4.7-0.4c-0.9-0.8-1.8-0.6-2.5-0.6
	c-1.4,0.1-2.9,0.3-4.3,0.2c-1.7-0.1-2.9,0.2-3.1,2.2c-0.8,0.1-1.7,0.2-1.7-1c0-0.9-0.7-2.1,0.9-2.5c1-0.3,1.9-0.7,2.7-1.3
	c1.2,0.6,2.2-0.7,3.3-0.2c-0.8-0.9-2.1,0-2.8-1.1c-0.4-0.1-0.9-0.5-0.8-0.8c0.5-1.4-0.4-1.9-1.3-2.6c-1.5-1.1-2.2-2.7-2.6-4.4
	c-0.7-1.5-0.4-3.1,0.2-4.5c1.2-2.8,1.2-2.8-1.1-4.9C50.9,58.2,50.9,58,51,57.8z"/>
<path class="st5" d="M66.1,22c0,0.5-0.1,0.9-0.1,1.4c0.1,1.5,0.1,1.5,1.9,1.5l0,0c-1.2,0.7-2.3,1.4-2.6,2.9
	c-0.1,0.7-0.8,1.3-1.4,1.9c-1,0.9-2,1.7-2.2,3.4c-0.1,0.9-0.1,1.2,0.4,1.7c0.9,0.7,2,1,3.1,1.3c1.1,0.3,1.3,1,1.1,2.5
	c-0.1,1.1-0.8,1-1.6,1c-2.2,0-4.5,0-6.7,0.1c-0.5-0.6-1.5,0.1-2-0.9c2.3-1.5,5.1,0,7.5-1.2c-2.5-0.1-4.8-0.1-7.1-0.2
	c-1-0.1-2.1,0.2-2.6-1.1c0.8-0.4,1.7-0.8,2.5-1.2c1.3-0.3,2.7-0.1,4-0.5c-1-1-2.2,0.2-3.2-0.4c-0.1-0.2-0.2-0.5-0.3-0.6
	c-1.1-0.6,0.2-2.1-0.9-2.7c-0.9-0.5-1.7-1.2-2.3-2.1c-0.4-0.5-0.8-1.1-0.8-1.7c-0.1-1.3-1.1-1.7-2-2.2c0.3-0.4,0.8-0.6,1-1
	c0.5-0.8-0.1-1.6,0.1-2.4c0-0.2,0.1-0.5,0.3-0.6c0.5-0.4,1.3-0.7,1-1.6c-0.3-1-1.2-0.2-1.8-0.6c-0.2-0.3-0.2-0.6-0.2-0.9
	c0.1-0.4,0.7-0.6,0.6-0.8c-0.1-0.2-0.7,0-1.1-0.1c-0.4-0.4-0.6-0.7,0.1-1c1.1-0.1,2.2-0.1,1.3-1.8c-0.4-0.9,0-1.7,0.7-2.3
	c0.6-0.5,1.3-0.9,2.1-1.1c3.2-0.8,6.3-0.7,9.4,0.2c1.6,0.4,2.5,1.3,2.2,2.6c-0.3,1.4,0.6,1.7,1.3,2.3l0,0c-0.7,0.1-1.4-0.2-2,0.3
	c-0.7,0.7,0,0.6,0.4,0.7c-0.7,1.5-0.4,3.2-0.9,4.7c-1.3,0-2.6-0.4-4-0.6c-1-0.1-0.9-0.5-0.1-1.3c-2.3-0.9-3.9,0.9-5.8,1.7
	c-0.4,0.2-0.7,0.5-0.6,0.9c0.1,0.3,0.4,0.5,0.7,0.5c2.6,0.2,5.3,0.2,7.9,0c0.8-0.1,1.2-1,1.9-1.4C65.7,21.2,66.1,21.3,66.1,22z"/>
<path class="st6" d="M65.7,110c-0.4,2-1.2,3.7-3.1,4.6c-1.6,0.7-0.9,2.2-1.4,3.2c-0.4,0.7,1,1.3,1.7,1.7c0.6,0.3,1.2,0.4,1.8,0.6
	c0.7,0.2,1,0.6,1,1.4c0.1,1.9-0.1,2.2-2.1,2.2c-3.3,0.1-6.7,0-10,0.1c-0.8,0-1.5-0.1-1.2-1.2c1.9-0.6,3.8-0.1,5.7-0.3
	c1.8-0.2,3.7,0,5.5-0.4c-2.3-0.4-4.7-0.4-7-0.4c-1.2,0-2.6,0.3-3.3-1.1c0.6-0.2,1.1-0.5,1.7-0.7c1.5-0.4,3-0.9,4.9-0.8
	c-1.1-0.9-2.4,0.3-3.1-0.8c-0.3-0.3-0.8-0.6-0.8-0.8c0.4-1.9-1.2-2.5-2.2-3.5c-0.7-0.7-1.1-1.5-1.4-2.4c-0.2-0.8-0.3-1.6-1.5-1.8
	c-1.1-0.2-0.8-1.3-0.5-2.1c0.7,0.4-0.1,1.7,0.9,1.7c1.1,0,0.8-1.1,0.9-1.9c0.1-0.6,0-1.3,0-1.9c0-0.1,0.1-0.2,0.1-0.3
	c0.4-1.1,0.4-2.1,0-3.2c0-0.1,0-0.2-0.1-0.3c0.1-0.2,0.2-0.4,0.3-0.6c-1.2-0.4-0.5-1.4-0.7-2.2c-0.5-1.8-0.3-2.4,1.2-3.3
	c0.7-0.4,1.4-0.8,2.2-0.8c2.4-0.2,4.8-0.8,7.2,0.4c-0.9,0.8-2,0.5-3,0.5c-1.3,0-2.5,0-3.7,0.7c-0.5,0.3-1.7-0.1-1.5,1
	c0.1,0.8,1,1,1.6,1.2c2,0.8,4,0.9,6.1,0.1c1.8-0.7,1.9-1.3,0.7-2.8c-0.2-0.3-0.4-0.5-0.2-0.8c0.8,0,1.6-0.1,2.3,0.3
	c1,0.6,1.9,1.4,1.5,2.6c-0.4,1.3,0,1.6,1.1,1.7c0.1,0,0.2,0.2,0.3,0.3c0.1,0.1,0.2,0.2,0.2,0.4c0,0.1-0.1,0.2-0.1,0.2
	c-2.3,0.7-2.9,1.7-2.2,3.8c0.5,1.5,0.8,3.1,0.8,4.6C66.4,109.3,65.9,109.5,65.7,110z"/>
<path class="st7" d="M15.5,98.8c1.7,1.3,2.4,3.5,1.5,5.6c-0.8,1.8-1,3.6-1.4,5.4c-1.7-0.4-2.3-0.9-1.9-2.3c0.4-1.5,0.1-2.8-0.3-4.2
	c-0.2-0.9-0.2-1.7,0-2.6C13.7,99.7,14.3,98.9,15.5,98.8z"/>
<path class="st8" d="M51,57.8c2.9,1,3.6,3.2,1.7,5.8c-0.2,0.3-0.4,0.4-0.3,0.8c0.3,1.2-0.5,2.3-0.4,3.5c-1.7-0.4-2.5-0.9-2-1.9
	c0.9-1.9-0.1-3.4-0.5-5c-0.3-1.3-0.2-2.3,1-3.1C50.6,57.8,50.8,57.8,51,57.8z"/>
<path class="st9" d="M54.3,81.6c0.1-0.4,0.2-0.8-0.3-0.9c-0.6-0.1-0.7-0.6-0.6-1.1c0.1-0.6,0.5-0.8,1-0.8c3.2,0.2,6.3-0.5,9.5-0.2
	c0.5,0,1.2-0.1,1.3,0.7c0.1,0.8-0.5,1.2-1.2,1.3c-0.9,0.2-1.8,0.4-2.8,0.2c-1.9-0.2-3.7-0.1-5.6,0.4c1.3,0.1,2.7,0.2,4,0.3
	C57.9,82,56.1,81.7,54.3,81.6z"/>
<path class="st10" d="M17.3,78.8c0.3,0.3,0.5,0.5,1,0.5c3.1-0.1,6.1,0,9.2-0.1c0.9,0,1.5-0.1,1.6,1.1c0,1.5-1,0.9-1.7,0.9
	c-2.6,0-5.2,0-7.9-0.1c-1.1,0-2.1,0-2.9,0.9C16,79.9,16.1,79.5,17.3,78.8z"/>
<path class="st11" d="M53.7,36.3c0.8,0.6,1.7,0.4,2.5,0.4c2.6,0.1,5.3,0.1,7.9,0.2c0.6,0,1.2,0,1.2,0.8c0,0.6-0.6,0.6-1.1,0.7
	c-2.5,0.5-5,0.4-7.8,0.3c0.4,0.7,1.3,0.4,1.5,0.9c-0.8,0.2-1.6,0.1-2.4,0c-0.8-0.6-1.6-0.6-2.4,0c-0.9-0.8-0.4-1.8-0.4-2.8
	C52.7,36.4,53.2,36.3,53.7,36.3z"/>
<path class="st12" d="M53.3,120.3c1.1,0.5,2.3,0.5,3.5,0.5c2.5,0,4.9,0,7.4,0.1c0.5,0,1,0,1,0.7c0,0.6-0.5,0.8-0.9,1
	c-0.3,0.1-0.6,0.2-0.9,0.2c-3.4,0.1-6.9,0.1-10.3,0.1c-0.2,0-0.4-0.2-0.6-0.4C52.6,121.7,51.6,120.5,53.3,120.3z"/>
<path class="st13" d="M17.3,120.5c2,0.6,4.1,0.9,6.2,0.6c1.4-0.2,2.8,0,4.3-0.1c0.7,0,1,0.4,1,1.1c-0.1,0.6-0.4,0.9-0.9,0.9
	c-0.7,0-1.4,0-2.1,0c-2.4,0-4.9-0.2-7.3,0c-1.4,0.1-1.7-0.2-1.5-1.5c0-0.2,0.1-0.5,0.1-0.7C17,120.5,17.1,120.4,17.3,120.5z"/>
<path class="st14" d="M51.2,18.7c0.4-0.1,0.6-0.5,0.9-0.7c1-0.6,1.5-0.3,1.5,0.8c0,0.6-0.1,1.3-0.3,1.9c-0.2,0.6-0.5,1.1-1.1,0.2
	c0,0-0.1,0.5-0.3,0.7c-0.4,0.9-0.3,1.9-0.1,2.9c-0.2,1-0.9,0.4-1.4,0.4c0,0,0,0,0,0c-0.4-0.4,0-1-0.4-1.4c0.3-1,0.3-2-0.1-3
	c-0.3-0.8-0.5-1.7-0.7-2.5c-0.2-0.9,0.1-1.7,1.1-2.1c0,0.3-0.2,0.5,0.1,0.8c0.2,0.1,0.3,0.3,0.4,0.5c0,0.5-0.1,0.9-0.1,1.4
	c0,0.2,0,0.4,0,0.7C51,19.1,51,18.9,51.2,18.7z"/>
<path class="st15" d="M30.1,15.5c0.1-0.1,0.3-0.3,0.4-0.4c1.2,0.3,1.5,1.3,1.5,2.4c0,0.9-0.2,1.9-0.5,2.8c-0.4,1-0.6,1.9,0.3,3
	c1,1.2,0.2,2.2-1.9,2.8c0-0.3,0-0.7,0.1-1C29.5,21.9,31.4,18.7,30.1,15.5z"/>
<path class="st16" d="M66.5,67.6c0-0.1,0-0.3,0-0.4c0.1-2.4,0.5-4.7,0.7-7c0.1-1.3-0.8-1.6-1.5-2.2c0.1-0.5-0.1-1.1,0.5-1.4
	c2.3,1.3,2.9,2.5,2.2,5.2c-0.3,1.3-0.8,2.4-0.1,3.9C68.8,66.7,68.1,67.3,66.5,67.6z"/>
<path class="st17" d="M30.1,109.5c0-0.1,0-0.3,0-0.4c0.2-0.3,0.4-0.8,0.3-1.1c-1.2-1.8-0.3-3.5,0.1-5.2c0.2-1,0.9-2.4-1.2-2.4
	c0,0.2,0,0.4,0,0.5c-0.2,0.1-0.3,0.1-0.5,0c-0.1-1,0.2-1.8,1.1-2.4c1.5,0.3,2,1.3,1.9,2.8c-0.1,1-0.1,2-0.5,3
	c-0.3,0.8-0.6,1.6,0.3,2.6C32.6,107.9,31.9,109,30.1,109.5z"/>
<path class="st15" d="M15.9,25.2c0,0.4,0,0.7,0,1.1c-1.9-0.7-2.2-1.1-1.8-2.7c0.3-1.2,0.1-2.4-0.1-3.5c-0.7-3.2-0.4-3.8,2.3-5.4
	c0.5,0.3,0.4,0.9,0.5,1.3c-1.9,0.9-2.2,2.3-1.6,4.1C15.8,21.8,15.4,23.5,15.9,25.2z"/>
<path class="st18" d="M30.2,57.2c0-0.1,0-0.3,0-0.4c1.7,0.1,1.8,1.4,1.8,2.6c0,0.9-0.2,1.7-0.5,2.6c-0.4,1.1-0.6,2,0.3,3.1
	c0.8,1.2,0.1,2.1-1.8,2.7c0-0.3,0-0.6,0-0.9C29.4,63.6,31.1,60.5,30.2,57.2z"/>
<path class="st19" d="M15.6,67.1c0,0.3,0,0.6-0.1,0.9c-1.1-0.3-2.1-0.9-1.7-2.1c0.6-2,0-3.7-0.3-5.6c-0.3-1.7,0.1-2.3,1.8-3.3
	c0,0.1,0,0.3,0,0.4c-0.4,2.4-0.5,4.7,0.3,7C16,65.3,14.6,66.2,15.6,67.1z"/>
<path class="st20" d="M66.1,22c-0.2-0.5-0.6-0.6-1.1-0.5l0,0c-0.1-0.5-0.1-1.1-0.3-1.6c-0.5-1.4,0-2.4,1.2-3.1c1.1,0.3,1.2,1.1,1,2
	C66.9,19.9,66.8,21,66.1,22z"/>
<path class="st21" d="M56.8,117.9c0.4,0,0.7,0.1,1.1-0.1c1.3-0.5,2.3-0.2,2.9,1.3c-2,0-3.9,0.8-5.9,0.4
	C55.6,119,56.2,118.5,56.8,117.9z"/>
<path class="st22" d="M56.9,34.2c2.4-1.1,2.5-1.1,4.1,0.8c-1.3,0.7-2.8,0.1-4.2,0.6c-0.2,0.1-0.5-0.3-0.8-0.5
	C56.3,34.7,56.5,34.4,56.9,34.2z"/>
<path class="st23" d="M56.7,75.7c0.6,0.3,1.2,0,1.8-0.1c1-0.1,1.9,0.2,2.2,1.4c-1.2,0.9-2.9-0.1-4.1,0.8c-0.2,0.2-0.1-0.7-0.5-0.9
	C56.4,76.5,56.5,76.1,56.7,75.7z"/>
<path class="st24" d="M67.7,100.3c-0.1-0.1-0.1-0.3,0-0.5c1.1,1.4,0.7,3,0.4,4.5c-0.2,0.8-0.6,1.6-0.4,2.5c-0.2,0.2-0.4,0.3-0.7,0.3
	c-0.4-0.1-0.7-0.5-0.7-0.8C66.8,104.3,66.7,102.2,67.7,100.3z"/>
<path class="st24" d="M65.7,110c0.1-0.3,0.2-0.7,0.3-1c0.5-0.6,0.9-1.2,1.4-1.8c0.1-0.1,0.2-0.2,0.3-0.3
	C68.7,108.8,68.1,109.6,65.7,110z"/>
<path class="st25" d="M67.6,15.8c1.5,1.1,0.7,2.5,0.5,3.9C67.9,18.4,67.8,17.1,67.6,15.8C67.6,15.7,67.6,15.8,67.6,15.8z"/>
<path class="st5" d="M53.1,39.5c0.7-1,1.1-1,2.4,0C54.7,39.7,53.9,39.8,53.1,39.5z"/>
<path class="st5" d="M67.9,24.9c-0.1-0.7,0.1-1.5-0.7-2.1c-0.3-0.2-0.3-0.7,0.3-0.8l0,0c0.2,0.4,0.6,0.7,0.7,1.1
	C68.3,23.8,68.8,24.5,67.9,24.9C67.8,24.9,67.9,24.9,67.9,24.9z"/>
<path class="st6" d="M51.8,103.8c-0.8-1.7-0.8-1.9,0.5-2.3c0,0,0,0,0,0c0.4,0.8,0,1.5-0.2,2.2C52,103.6,51.9,103.7,51.8,103.8z"/>
<path class="st5" d="M50.1,23.6c0.8,0.3,0.3,0.9,0.4,1.4C50,24.7,50.2,24.1,50.1,23.6z"/>
<path class="st18" d="M29.8,55.9c0-0.5,0-1,0-1.5C30.4,54.9,30.3,55.4,29.8,55.9z"/>
<path class="st5" d="M67.5,22.1c0-0.4-0.2-0.8,0.2-1.2C68.1,21.4,67.8,21.7,67.5,22.1C67.5,22.1,67.5,22.1,67.5,22.1z"/>
<path class="st6" d="M52.3,105.2c-0.8-0.3-0.4-0.9-0.4-1.5c0,0-0.1,0-0.1,0C52.9,104,52.6,104.6,52.3,105.2L52.3,105.2z"/>
<path class="st26" d="M23.5,11.4c1.6,0.1,3.2,0,4.6,1c0.6,0.4,1,1,0.1,1.5c-2.8,1.4-5.7,2.4-8.8,0.9c-0.3-0.1-0.6-0.3-0.8-0.4
	c-0.5-0.3-1-0.6-0.9-1.3c0.1-0.6,0.6-0.9,1.1-1.1c1.1-0.4,2.3-0.7,3.5-0.6C22.7,11.4,23.1,11.4,23.5,11.4z"/>
<path class="st27" d="M26.9,23.8c-1-0.7-1.8,0.3-2.6,0.2c-0.8-0.1-1.5-0.5-2.5-0.4c-1.2,0.1-2.6,0.1-3.4-1.1
	c-0.3-0.4-0.6-0.8,0.4-1.2c1.6-0.6,3.2-0.8,4.8-0.7c1.1,0.1,2.2-0.3,3.3-0.4c0.8,0,1.8,1.4,1.6,2.3C28.2,23.3,27.8,23.9,26.9,23.8z"
	/>
<path class="st28" d="M23.9,37.5c1,0,2.3,0,3.7-0.1c0.8,0,1.5,0,1.6,1c0.1,1.1-0.7,1-1.5,1c-3.1,0-6.2,0-9.3,0.1
	c-0.5,0-1,0.3-1.2-0.3c-0.2-0.7,0.1-1.2,0.8-1.5c0.5-0.2,1.1-0.2,1.6-0.2C20.9,37.4,22.2,37.4,23.9,37.5z"/>
<path class="st29" d="M15.9,25.2c-0.9,0.2-1.7-0.2-1-1.1c0.8-0.9,0.4-1.6,0.2-2.4c-0.2-1.1-0.6-2.1-0.8-3.2
	c-0.2-1.8,0.6-2.4,2.5-2.5c0.6,1.4,0.9,2.7,0.7,4.3c-0.1,1.1-1.6,0.9-1.3,1.9C16.5,23.3,16,24.2,15.9,25.2z"/>
<path class="st30" d="M23,18.3c-0.9,0.1-1.9-0.2-2.9-0.3c-0.4-0.1-0.8-0.3-0.7-0.7c0-0.4,0.4-0.4,0.7-0.4c1.9-0.3,3.8,0.1,5.6-0.3
	c0.4-0.1,0.8,0.3,0.9,0.7c0.1,0.4-0.3,0.8-0.6,0.9C25,18.4,24.1,18.3,23,18.3z"/>
<path class="st31" d="M30.1,15.5c1.7,1.5,0.8,3.3,0.6,5.1c-0.1,0.6-0.4,1.2-0.6,1.8c-0.1,0.5,0,0.8,0.4,1.2c1,0.9,1,0.9-0.6,1.5
	c-0.5-1.5-0.6-3-0.2-4.6c0.3-1.1,0.7-2.4-0.2-3.5l0,0C29.2,16.3,28.6,15.6,30.1,15.5z"/>
<path class="st32" d="M29.6,16.9c0.3,1.4,0.2,2.7-0.6,3.9C27.8,18.7,27.9,17.9,29.6,16.9C29.6,17,29.6,16.9,29.6,16.9z"/>
<path class="st33" d="M20.6,19.6c1.6-0.5,3.2-0.5,5.1-0.3C23.9,20.7,22.2,20,20.6,19.6z"/>
<path class="st34" d="M22.3,57c-2.1,0.9-2.9-1.2-4.3-1.8c-0.6-0.3-0.1-1.2,0.6-1.4c0.8-0.3,1.7-0.5,2.5-0.6c2.1-0.1,4.3-0.2,6.3,0.7
	c0.5,0.2,1.1,0.6,1.1,1.2c0,0.6-0.6,1-1.2,1C25.6,56.4,24.1,57.7,22.3,57z"/>
<path class="st35" d="M26.7,65.4c-0.4-0.1-0.7-0.5-1.1-0.2c-1.6,0.9-3.3,0-4.9,0.1c-0.6,0-1.6-0.1-1.4-1.1c0.2-0.9,0.6-1.6,1.7-1.6
	c1.1,0,2.2,0,3.3-0.1c1.2-0.3,2.4-0.6,2.9,1.1l0,0C27.8,64.3,28.5,65.2,26.7,65.4z"/>
<path class="st36" d="M15.6,67.1c-1.1,0-1.3-0.9-0.8-1.4c0.7-0.8,0.4-1.4,0.1-2.1c-0.3-0.8-0.4-1.7-0.5-2.6
	c-0.2-1.3-0.1-2.5,0.9-3.5c0.6,0,1.5,0,1.5,0.4c-0.2,1.2,1,1.8,0.8,2.9c-0.1,0.7-0.2,1.4-0.5,2.1c-0.5,1-0.8,0.1-1.3-0.4
	C16.2,64,16.3,65.6,15.6,67.1z"/>
<path class="st37" d="M30.2,57.2c0.9,0.6,1,1.5,0.9,2.5c-0.1,1.4-0.6,2.6-0.9,3.9c-0.2,0.7-0.6,1.4,0.7,1.8c0.8,0.2,0.5,0.9-0.9,1.5
	c-0.9-1.5-0.5-3.2-0.4-4.8c-0.4-0.7-0.7,1.4-1.1,0.1c-0.4-1.3-0.5-2.5,0.7-3.4c0.3,0.2,0.6,0.4,0.7,0.7c0.1-0.4-0.4-0.5-0.6-0.8
	C29.1,57.9,29.2,57.2,30.2,57.2z"/>
<path class="st38" d="M22.6,60.1c-1.3,0.3-2.8-0.9-4.4-0.9c-0.4,0-0.4-0.4-0.4-0.7c0-0.3,0.3-0.4,0.5-0.4c2.3,0.6,4.6-0.2,6.8-0.1
	c0.6,0,1.6-0.4,1.7,0.6c0.1,0.8-0.8,1.1-1.5,1.3C24.6,60.1,23.8,60.1,22.6,60.1z"/>
<path class="st39" d="M27.2,63.4c-0.7-1.1-1.9-1-2.9-1.1c-1.9-0.7-4-0.4-6.1-1.4c2.1-0.2,4-0.3,5.9-0.4c0.6,0,1.3-0.1,1.9,0.1
	c0.2,0.1,0.3,0.3,0.5,0.5c-1.1,0.9-0.2,0.8,0.4,0.9C28,62.2,27.5,62.8,27.2,63.4z"/>
<path class="st39" d="M26.7,65.4c1.2-0.3,0.3-1.3,0.5-1.9c0.8,0,1.5,0.4,1.1,1.2C28.1,65.2,27.7,66.3,26.7,65.4z"/>
<path class="st40" d="M22.6,95.1c1.8,0,3.5,0,5.1,0.9c0.4,0.2,0.9,0.5,0.9,1c0,0.6-0.6,0.8-1,0.9c-1.5,0.4-2.9,1.2-4.5,1.4
	c-2.1,0.2-3.7-0.3-5.2-1.8c-0.7-0.7-0.4-1.1,0.1-1.5c0.6-0.6,1.3-0.9,2.2-0.9C21,95,21.8,95.1,22.6,95.1z"/>
<path class="st41" d="M17.7,105c3.1-1.4,6.1-0.5,9-1c0.6-0.1,1.7,1.7,1.4,2.4c-0.3,0.7-0.6,1.2-1.8,0.9c-1.4-0.3-3-0.4-4.3,0
	c-1.2,0.3-1.9-0.5-3-0.5C18.1,106.9,18.6,105.5,17.7,105z"/>
<path class="st42" d="M18.8,100.5c2.2-0.6,4.3,0.1,6.3-0.5c0.4-0.1,0.8,0.1,0.9,0.6c0.1,0.6,0,1.1-0.6,1.3c-1.5,0.4-3,0.5-4.4,0.1
	C20.2,101.7,19.4,101.6,18.8,100.5z"/>
<path class="st43" d="M29.3,100.4c0-0.4-0.1-0.8,0.4-0.9c0.4-0.1,0.8,0.1,1,0.5c0.5,0.7,0.5,1.5,0.3,2.3c-0.2,1.1-0.6,2.1-0.8,3.2
	c-0.1,0.7-0.4,1.3,0.6,1.9c1,0.7,0,1.4-0.8,1.8c-0.9-1.4-1-3-0.5-4.6c0.2-0.8,0.3-1.5,0.5-2.3C30.2,101.5,30.1,100.8,29.3,100.4z"/>
<path class="st42" d="M25.8,103c-1.9,1.1-3.9,0.5-5.9,0.3C21.3,102.5,22.7,102.4,25.8,103z"/>
<path class="st44" d="M28.8,100.9c0.2,0,0.3,0,0.5,0c0.9,1.3-0.1,2.2-0.6,3.3C28.2,103.1,27.9,102,28.8,100.9z"/>
<path class="st45" d="M59.2,57.4c-2.1,0.5-3.6-1-5.4-1.6c-0.5-0.2-0.5-0.9-0.1-1.5c0.4-0.6,1.1-1,1.8-1.2c2.6-0.5,5.2-0.6,7.7,0.1
	c0.7,0.2,1.6,0.5,1.6,1.5c0,0.9-0.7,1.4-1.4,1.8C62,57.3,60.7,57.6,59.2,57.4z"/>
<path class="st46" d="M54.3,62.6c2.6-0.3,5.2,0.3,7.8-0.1c0.7-0.1,1.3,1,2,0.3c0.3,0.4,0.7,0.8,0.4,1.3c-0.3,0.6-0.3,1.8-1.2,1.5
	c-1.3-0.5-2.6,0.1-4-0.2c-1.2-0.3-2.7-0.1-4.1,0.1c-0.9,0.1-1.8,0.1-0.9-1.2C54.7,63.7,53.9,63.1,54.3,62.6z"/>
<path class="st47" d="M65.7,58c1.8,0.2,2,0.3,2,1.8c0,1-0.1,2.1-0.3,3c-0.3,1-0.6,1.8,0.1,2.9c0.5,0.7-0.2,1.2-1,1.5
	c-1-1.2-0.5-2.6-0.3-3.9c0.1-0.4,0-0.8,0.3-1.1c0-0.4,0.1-0.8,0.1-1.2c0-0.9,0.2-1.9-1.1-2.2C65.3,58.7,65.4,58.2,65.7,58z"/>
<path class="st48" d="M57.3,60.1c0-0.8,0.2-1.5,1.2-1.4c0.9,0,1.7,0.2,2.6-0.1c0.7-0.2,0.9,0.5,1,1c0.1,0.6-0.4,0.6-0.8,0.6
	C60,60.4,58.7,60.5,57.3,60.1z"/>
<path class="st49" d="M56.3,61.2c2.2-0.1,4.2-0.1,6.4-0.1C60.9,62.6,58.4,62.6,56.3,61.2z"/>
<path class="st50" d="M66.5,62.2c0,0.4,0,0.8-0.4,1.1c-1.4-0.4-2.1-2.7-1.2-3.6c0.2-0.2,0.4-0.3,0.7-0.1c0.3,0.1,0.5,0.4,0.6,0.7
	C66.4,60.8,65.8,61.6,66.5,62.2z"/>
<path class="st51" d="M59.4,10.8c1.2-0.1,2.4,0.4,3.7,0.6c0.8,0.1,1.1,0.8,1.4,1.5c0.3,0.8-0.4,1.2-0.8,1.5c-1.2,0.9-2.6,1-4,1.1
	c-1.5,0.1-3-0.1-4.5-0.6c-0.9-0.3-1.9-0.5-1.9-1.8c0-1.1,0.9-1.4,1.7-1.7C56.4,11,57.9,10.8,59.4,10.8z"/>
<path class="st52" d="M65,21.5c-0.8,2-0.8,1.9-2.8,1.9c-2.4,0-4.7,0.1-7.1,0.2c-0.7,0-1.3-0.3-1.5-0.8c-0.3-0.6,0.7-2.1,1.4-2.2
	c0.4,0,0.8,0.2,1.2,0c0.3-0.1,0.6-0.2,0.9-0.2c0-0.4-1.5-0.6-0.2-1c1.9-0.6,3.9-0.2,6-0.2c-0.3,1.2-1.5,0.7-2.1,1.3
	C62.2,20.7,64,19.8,65,21.5C65,21.5,65,21.5,65,21.5z"/>
<path class="st53" d="M58.4,16.5c1.4,0.4,2.9-0.1,4.4,0.1c0.3,0.1,0.6,0.1,0.7,0.5c0.1,0.5-0.1,0.8-0.5,1c-0.2,0.1-0.4,0.3-0.6,0.3
	c-2.1,0.3-4.1,0.3-6.2-0.2c-0.5-0.1-1.2-0.3-1.1-1c0.1-0.8,0.8-0.7,1.3-0.6C57.1,16.8,57.7,16.6,58.4,16.5z"/>
<path class="st54" d="M52,24.6c-0.4-0.1-1-0.2-0.7-0.7c0.4-0.7,0.1-1.6,0.8-2.2C52.4,22.7,52.6,23.6,52,24.6z"/>
<path class="st14" d="M50.6,16.7c0.8-1,1.5-0.2,2.3-0.2c-0.3,1.1-1.4,0.7-1.7,1.4c-0.4-0.2-0.1-0.7-0.4-1
	C50.7,16.9,50.7,16.8,50.6,16.7z"/>
<path class="st54" d="M50.8,17c0.4,0.2,0.4,0.6,0.4,1c0,0.3,0,0.6,0,0.8c0,0.3-0.1,0.6-0.1,0.9c-0.1,0-0.2,0-0.3,0
	C50.8,18.8,50.8,17.9,50.8,17z"/>
<path class="st55" d="M62.5,94.9c0.1,0.3,0.4,0.4,0.7,0.6c2.1,1.3,2.1,1.7,0.2,3.1c-2.1,1.4-4.4,1.1-6.6,0.7
	c-0.9-0.2-1.8-0.7-2.6-1.1c-0.6-0.3-0.9-0.7-0.8-1.3c0.1-0.8,0.7-1.6,1.4-1.4c1.4,0.3,2.4-1.1,3.9-0.7
	C59.8,95.1,61.3,94.9,62.5,94.9C62.6,94.9,62.5,94.9,62.5,94.9z"/>
<path class="st56" d="M56.6,107.2c-0.3,0-0.6,0-0.9,0.1c-0.5,0.1-1,0.6-1.5-0.1c-0.5-0.7-0.5-1.5-0.1-2.2c0.2-0.3,0.3-0.2,0.7-0.2
	c1,0.1,1.1-0.2,1.7-1.3c0.1-0.2,0.2-0.4,0.5-0.5c1.9-0.1,3.9-0.4,6,0.2c-0.7,1.1-1.7,0.7-2.4,1.2c0.9,0,1.8,0,2.7,0.1
	c1.2,0.1,1.9,0.9,1.7,1.8c-0.2,0.9-1.2,1.6-2.2,1.4c-0.5-0.1-0.9-0.3-1.4-0.4C60.4,105,58.5,104.9,56.6,107.2z"/>
<path class="st57" d="M67.4,107.1c0.3,1.6,0.2,1.7-1.4,1.8c-0.2-0.4-0.4-0.8-0.4-1.3c0.1-1,0-2-0.7-2.9c-1.2-1.6-0.1-3.1,0.5-4.5
	c0.5-1.1,1.5-0.3,2.2,0.1c0.1,2-0.1,3.9-0.8,5.8C66.7,106.7,66.9,107,67.4,107.1z"/>
<path class="st58" d="M54.4,100.5c2.7,0,5.3,0.4,8-0.1c0.4-0.1,1,0.2,1.2,0.7c0.2,0.6-0.3,0.9-0.7,1c-2.8,1.1-5.5,0.6-8.1-0.5
	C54.4,101.4,54.3,101,54.4,100.5z"/>
<path class="st59" d="M56.6,107.2c-0.8-1.3,0.6-1.6,1.1-2.1c0.6-0.7,3.5,0.4,4.1,1.2c0.5,0.7-0.4,0.6-0.4,1c0,0-0.1,0-0.1,0
	c-0.5,0.3-0.9,0.3-1.4,0c-0.6-0.2-1.2-0.1-1.8,0.1C57.5,107.7,57,107.5,56.6,107.2z"/>
<path class="st60" d="M52.2,105.3c0-0.5,0.1-1.1-0.4-1.5c-0.2-0.9,0.1-1.7,0.5-2.4c1.5,0.4,1,1.6,1,2.5
	C53.3,104.6,53.4,105.5,52.2,105.3z"/>
<path class="st56" d="M55.2,103c0.1,0.1,0.3,0.2,0.3,0.3c0,0.3-0.2,0.4-0.4,0.2c-0.1,0-0.2-0.3-0.2-0.4
	C54.9,103.1,55.1,103.1,55.2,103z"/>
<path class="st56" d="M59.9,107.3c0.5,0,0.9,0,1.4,0C60.8,108,60.3,107.9,59.9,107.3z"/>
<path class="st2" d="M29.3,58.6c0.8,0.7,0.8,0.7,0.6,2.3C29.5,60.2,29.9,59.2,29.3,58.6C29.2,58.7,29.3,58.6,29.3,58.6z"/>
</svg>
