<?xml version="1.0" encoding="utf-8"?>
<!-- Generator: Adobe Illustrator 23.1.1, SVG Export Plug-In . SVG Version: 6.00 Build 0)  -->
<svg version="1.1" id="Livello_1" xmlns="http://www.w3.org/2000/svg" xmlns:xlink="http://www.w3.org/1999/xlink" x="0px" y="0px"
	 viewBox="0 0 80 135" style="enable-background:new 0 0 80 135;" xml:space="preserve">
<style type="text/css">
	.st0{fill:#FFFFFF;stroke:#000000;stroke-width:0.2509;stroke-miterlimit:10;}
	.st1{fill:#5B564C;}
	.st2{fill:#58574A;}
	.st3{fill:#5C5648;}
	.st4{fill:#5F5752;}
	.st5{fill:#57524A;}
	.st6{fill:#585549;}
	.st7{fill:#58574B;}
	.st8{fill:#9C4B55;}
	.st9{fill:#C75D66;}
	.st10{fill:#CA5C65;}
	.st11{fill:#C6C5C5;}
	.st12{fill:#B65963;}
	.st13{fill:#BEBDBE;}
	.st14{fill:#9C9D9D;}
	.st15{fill:#D2D4D0;}
	.st16{fill:#BCBEBD;}
	.st17{fill:#E9E8E4;}
	.st18{fill:#868383;}
	.st19{fill:#99979B;}
	.st20{fill:#C75B5C;}
	.st21{fill:#9A9796;}
	.st22{fill:#949293;}
	.st23{fill:#898D8B;}
	.st24{fill:#9E9FA1;}
	.st25{fill:#CF585B;}
	.st26{fill:#858383;}
	.st27{fill:#D5565A;}
	.st28{fill:#908E8E;}
	.st29{fill:#C4B442;}
	.st30{fill:#D9544A;}
	.st31{fill:#BDAD3D;}
	.st32{fill:#E1E1DC;}
	.st33{fill:#C5584D;}
	.st34{fill:#F4F4F1;}
	.st35{fill:#C0B146;}
	.st36{fill:#B6614B;}
	.st37{fill:#C25054;}
	.st38{fill:#E9EAE9;}
	.st39{fill:#EDEEEB;}
	.st40{fill:#E4D83A;}
	.st41{fill:#C95C55;}
	.st42{fill:#F3F2F3;}
	.st43{fill:#F3F3F1;}
	.st44{fill:#D7CC69;}
	.st45{fill:#BA4F5B;}
	.st46{fill:#D94A52;}
	.st47{fill:#C8BC3D;}
	.st48{fill:#D4C73B;}
	.st49{fill:#E3E3DF;}
	.st50{fill:#EAECE9;}
	.st51{fill:#D3C950;}
	.st52{fill:#C3B144;}
	.st53{fill:#C5535C;}
	.st54{fill:#C1B248;}
	.st55{fill:#DB585A;}
	.st56{fill:#F1F0EF;}
	.st57{fill:#E8E9E6;}
	.st58{fill:#EEEEE9;}
	.st59{fill:#BA494B;}
	.st60{fill:#B8A740;}
	.st61{fill:#BEAB41;}
	.st62{fill:#E7E6E4;}
	.st63{fill:#E5E6E1;}
	.st64{fill:#CF5B5B;}
	.st65{fill:#D15251;}
	.st66{fill:#988A55;}
	.st67{fill:#F4E932;}
	.st68{fill:#EBDC35;}
	.st69{fill:#E4E3DD;}
	.st70{fill:#F3F2EE;}
	.st71{fill:#BCAD5A;}
	.st72{fill:#C6B83D;}
	.st73{fill:#DE5751;}
	.st74{fill:#C5B23E;}
	.st75{fill:#D55651;}
	.st76{fill:#DECF56;}
</style>
<path class="st0" d="M71.5,135h-63c-4.7,0-8.5-3.8-8.5-8.5V8.5C0,3.8,3.8,0,8.5,0h63C76.2,0,80,3.8,80,8.5v118
	C80,131.2,76.2,135,71.5,135z"/>
<path class="st1" d="M34.2,35.5c0.1-1.1,1-1.4,1.8-1.7c3.2-1,6.4-1,9.5,0c0.8,0.2,1.5,0.6,1.8,1.4c0.6,1.2-0.7,1.9-0.7,3
	c-0.2,0.8-0.3,1.7-0.5,2.7c0.4-1,0.3-2,0.7-2.9c0.1-0.2,0.3-0.4,0.6-0.4c1.3,0.8,0.9,2.1,0.6,3.2c-0.4,1.6-0.6,3.2-0.6,4.9
	c-0.1,0.7-0.7,1.1-0.9,1.7c-0.5,1.5-1.6,2.3-2.8,3.1c-1,0.7-1.1,1.2-0.3,2.1c0.8,0.9,1.8,1.7,3,1.9c1.6,0.3,1.2,1.4,1.2,2.4
	c0,1.2-0.9,1.1-1.7,1.1c-0.6,0-1.1,0-1.7,0c-1.9,0.1-3.8,0.1-5.6-0.5c2.1-1.5,4.7-0.3,7.1-1c-0.3-0.7-0.9-0.7-1.4-0.7
	c-1.4,0-2.7,0.1-4.1,0.1c-4.1,0.1-4.1,0.1-6.7,1.8c-0.4-2.7-0.4-2.7,1.9-3.9c0.5-0.2,1-0.5,1.4-0.9c1.4-1.3,1.4-1.6-0.2-2.6
	c-1.1-0.7-1.7-1.6-2.2-2.7c-1.4-1.6-0.6-3.3-0.1-4.9c0.6-1.4,0.8-2.7,0.3-4.2C34.2,37.6,33.8,36.6,34.2,35.5z"/>
<path class="st2" d="M24.9,69.9c-0.8,1.6-1.7,3-3.4,3.8c-0.8,0.4-0.6,1-0.2,1.6c0.8,1.2,2,1.8,3.3,2.3c1.1,0.5,1.3,1.3,1,2.7
	c-0.2,1.1-1,0.8-1.6,0.8c-3.4,0-6.9,0.1-10.3,0c-0.7,0-1.7,0.6-2-0.6c-0.4-1.3,0.1-2.7,1.2-3.2c1-0.5,2-1,2.7-1.9
	c0.3-0.3,0.6-0.6,0.5-1.2c-1.6-0.9-3-2.1-3.7-4c-0.2-0.2-0.5-0.4-0.6-0.7c0-0.2,0-0.4,0-0.6c0.2-0.7-0.1-1.4,0-2.1
	c0.2-0.6,0.6-0.9,1.2-0.5c0.4,0.3,0.6,0.9,1,1c3,0.6,6,0.3,9-0.2c-3.3-1.3-6.7-1-10.1-0.8c-0.2-0.3-0.4-0.6-0.5-0.9
	c-0.2-1.5,0.2-3.2-0.8-4.6c-0.2-0.4-0.2-0.9-0.1-1.3c0.1-0.3,0.3-0.6,0.5-0.9c0.5-1.4,1.7-1.8,2.9-2.1c2.6-0.5,5.2-0.5,7.7,0
	c0.9,0.2,1.7,0.7,2.4,1.5c0.5,0.6,0.2,1.3,0.3,2c0,0.2-0.1,0.4-0.1,0.6c-0.1,0.3-0.3,0.6-0.4,0.8c-0.3,1.1-0.2,2.3-0.3,3.4
	c-0.4,0.9,0.9,0.9,0.8,1.6c0.2,1,0.2,1.9-0.1,2.9C25.2,69.5,25.1,69.7,24.9,69.9z"/>
<path class="st3" d="M57.7,120.6c0.2-0.3,0.3-0.5,0.5-0.8c0.7-0.9,0.8-1.6-0.5-2.2c-1.4-0.7-2.2-1.9-2.8-3.3c-1-1-1.1-2.3-0.5-3.3
	c1.3-2.3,0.7-4.3-0.4-6.3c-0.3-0.5-0.5-1-0.2-1.6c0-0.9,0.5-1.5,1.3-1.8c3.5-1.2,7.1-1.6,10.7-0.3c0.9,0.3,1.5,0.9,1.6,1.9
	c0.2,0.4,0.1,0.8,0.1,1.1c0,0.4-0.1,0.8-0.3,1.2c-1,1.6-1.2,3.1,0.1,4.6c0.6,1,0.4,2.1,0.3,3.2c-0.1,0.4-0.3,0.7-0.5,1
	c-0.8,1.4-1.6,2.7-3.1,3.5c-1.1,0.6-0.8,1.4-0.2,2.1c0.8,1,1.9,1.7,3.1,2.1c1.5,0.5,1.1,1.6,1,2.5c-0.1,1.2-0.9,1-1.8,1
	c-3.4,0-6.8,0.1-10.3,0c-0.6,0-1.5,0.2-1.8-0.8c-0.3-1.1,0-2.2,0.9-2.6c0.8-0.3,1.4-1,2.3-1.3c1.3,0.2,2.3-0.8,3.7-0.5
	c0.9,0.2,1.7,0.3,2.3,0.9c-2.1-1.7-2.1-1.7-4.8-0.5C58.3,120.9,58,120.8,57.7,120.6z"/>
<path class="st4" d="M17.1,28.5c0.4-0.8,0.1-1.3-0.7-1.7c-1.3-0.7-2.5-1.6-3-3.2c-0.8-0.8-0.5-1.8-0.8-2.8c-0.1-0.5-0.1-0.9,0.1-1.4
	c0.2-0.4,0.5-0.7,0.7-1.2c0.5-0.9,0.3-2,1-2.8c1.4-0.5,2.8,0,4.2-0.1c1.6-0.1,3.3-0.1,4.7-1.1c-2.5,0.3-4.9,0.4-7.4-0.1
	c-1-0.2-1,0.4-1.3,1c-0.6,0.6-0.9,0-1.3-0.3c-0.3-0.3-0.5-0.7-0.7-1.1c-0.1-0.3-0.3-0.5-0.3-0.8c0-0.2,0-0.4,0.2-0.5
	c0-1.2,0.5-1.9,1.7-2.3c3.3-0.9,6.5-1.2,9.8-0.3c1,0.3,1.9,0.7,2,1.8c0.1,1,1.3,0.9,1.4,1.7c-0.7,0.4-0.5,1-0.5,1.7
	c0,0.8,0.3,1.8-0.9,2.1c-0.6-0.2-0.4-1-0.9-1.3c-0.8,1.2,0.1,2.2,0.5,3.2c0.5,1-0.3,3.1,2.1,2.5c-0.1,1.1-0.2,2.2-1.7,1.9
	c-0.5-0.1-0.8,0.2-0.9,0.6c-0.6,1.1-1.6,2-2.7,2.7c-0.8,0.5-0.8,1.1-0.3,1.8c0.7,0.9,1.5,1.9,2.7,2.3c1.2,0.4,1.5,1.2,1.3,2.4
	c-0.1,0.9-0.4,1.3-1.3,1.3c-3.7,0-7.5,0-11.2,0c-0.6,0-1.2-0.2-1.2-0.9c0-0.9-0.4-2.1,0.8-2.5c1-0.3,1.9-0.8,2.8-1.4
	c1.7-0.3,3.5,0.3,5.1-0.5c-0.3-0.3-0.6-1.2-1-0.7C19.1,30.3,18.1,28.7,17.1,28.5z"/>
<path class="st5" d="M54.8,57.5c0.6-1.2,1.9-1.5,3-1.6c2.4-0.3,4.8-0.4,7.1,0c1.6,0.3,2.9,0.9,2.9,2.8c0.1,0.2,0.2,0.4,0.3,0.6
	c0.1,1.2,1.7,2.2,0.4,3.5c-0.2,0-0.4,0-0.6-0.2c-0.4-0.3-0.7-0.8-1.2-0.2c-0.5,0.6-0.6,1.6,0,2c2,1.4,1.1,3.3,1.2,5.1
	c-0.1,0.2-0.2,0.4-0.4,0.5c-0.2,0.1-0.6,0-0.7,0.2c-0.5,1.5-1.6,2.6-3,3.2c-0.7,0.4-0.8,0.8-0.4,1.6c0.6,1.1,1.6,1.8,2.6,2.4
	c2.1,1.2,2.1,1.2,1.5,3.7c-2.7-2.9-6.2-1.7-9.4-1.9c-1.2-0.1-2.6,0.3-3.3-1.1c1.2-0.7,2.5-1.3,3.4-2.5c0.8-1.1,0.8-1.3-0.4-2.2
	c-1.2-1-2.5-2-2.9-3.6c-0.7-0.8-0.4-1.8-0.6-2.7c0-0.2,0-0.5,0.1-0.7c0.2-0.4,0.5-0.7,0.7-1.2c0.6-1.2,0.3-2.5-0.1-3.6
	c-0.3-0.7-0.7-1.4-0.6-2.2C54.7,58.7,54.6,58.1,54.8,57.5z"/>
<path class="st6" d="M59.3,28.4c0.2-0.8,0.1-1.2-0.7-1.7c-1.5-0.8-2.6-2-3-3.7c-1-1.1-0.6-2.3-0.3-3.5c1.4-0.4,1.8,1.5,3.2,1.4
	c0.8,0.1,1.6,0.1,2.4,0.1c0.9,0,1.8,0.1,2.7-0.1c0.2-0.1,0.4-0.1,0.6-0.1c0.5-0.1,0.9-0.1,1.4-0.1c0.3-0.1,0.6-0.2,0.6-0.6
	c0-0.5-0.3-0.7-0.8-0.6c-1.3,0.2-2.5-0.8-3.9-0.4c-0.2,0.1-0.4,0.1-0.6,0.2c-1.7,0.4-3.4,0.6-4.5-1.2c-0.1-0.6-0.1-1.1,0.1-1.7
	c0.7-1.1,1.8-0.8,2.9-0.8c1.5,0.3,2.9,0.4,4.4,0c0.4-0.1,0.8-0.2,1.2-0.7c-3-0.4-5.9-0.1-8.8-0.3c-0.4-0.1-0.6-0.3-0.9-0.5
	c-0.3-0.4-0.5-0.8-0.6-1.3c-0.1-0.5,0.1-0.9,0.3-1.3c0.1-0.5,0.2-1,0.7-1.2c4-1.3,7.9-1.9,11.9,0.1c0.2,0.1,0.3,0.3,0.5,0.5
	c0.5,0.4,0,1.1,0.5,1.4l0,0c0.1,0.2,0.2,0.4,0.3,0.5c1.2,2.3,1.2,2.3,0,3.3c-0.3-0.2-0.5-0.7-0.9-0.6c-0.4,0.1-0.3,0.6-0.4,1
	c-0.1,0.8,0.8,0.9,1.1,1.4c0.3,1.2-0.3,2.4-0.2,3.6c0,0.7-0.2,1.3-0.7,1.8c-0.8,1.4-1.6,2.8-3.1,3.5c-0.9,0.5-0.7,1.1-0.2,1.8
	c0.7,1,1.7,1.6,2.8,2.2c1.9,1,2,1.5,1.1,3.6c-3.3,0.2-6.6,0-9.9-0.4c2.4-1.7,5.3-0.5,7.8-1.3C62.4,33,58.4,31,55,34.2
	c-0.4-1.6-0.3-3,1.6-3.5c0.5-0.2,0.9-0.6,1.4-0.9c1.3,0.9,2.3-0.6,3.6-0.4c0.6,0.1,1.3-0.4,1.9,0.1c-0.5-0.8-1.3-0.4-2-0.5
	C60.8,28.8,59.8,29.6,59.3,28.4z"/>
<path class="st7" d="M12.2,102.8c1.4-1.5,3.3-1.7,5.2-1.9c1.9-0.2,3.7,0,5.5,0.2c1.4,0.2,2.6,0.8,2.7,2.5c0,0.1,0.1,0.1,0.1,0.2
	c0,1.6-1.5,2.8-1.5,4.4c0.1,1.5,1.7,2.6,1.1,4.3c0.4-0.6-0.3-1.7,1-1.7c0.1,0.4,0.2,0.8,0.4,1.1c0.8,1.7,0.6,2.1-1.2,2.6
	c-0.4,0.1-0.8,0.1-1,0.5c-0.5,1.4-1.7,2.3-2.9,3.1c-0.9,0.6-0.7,1.2-0.3,1.8c0.7,1,1.6,1.8,2.8,2.2c0.9,0.3,1.5,0.8,1.4,1.9
	c-0.1,1.5-0.1,1.6-2.1,1.7c-2.3,0.2-4.7,0.1-7-0.4c2.1-1.6,4.6-0.4,6.8-1.2c-2.5-0.2-5-0.2-7.5-0.3c-1-0.1-2.3,0.3-2.8-1.2
	c1.4-0.7,2.6-1.5,3.3-2.9c0.3-0.6,0.4-1-0.3-1.3c-1.7-0.7-2.7-2.1-3.7-3.5c-1.3-2-0.7-4,1.4-5.3c0.5,0.5,0.6,1,0.3,1.6
	c-0.3,0.4-0.8,0.7-0.4,1.4c-0.3-0.4-0.1-0.8,0.2-1.1c1.2,1.2,2.6,1.2,4.1,0.8c1.2-0.3,2.5,0,3.8-0.1c0.5,0,1.2,0,1.2-0.8
	c0-0.7-0.6-1-1.2-0.8c-1.8,0.3-3.5-0.4-5.2,0c-1.1,0.2-2.1,0-2.8-0.9c-1-1.1-1-2.7-2.3-3.7C11,105.3,11.8,103.8,12.2,102.8z"/>
<path class="st8" d="M54.9,77.9c0.9,0.5,2,0.6,3,0.5c2.6-0.2,5.2,0.1,7.8,0c1.5,0,1.5,0.1,1.5,1.8c0,0.4,0.1,0.6,0.4,0.7
	c-0.4,0.4-0.8,0.4-1.3,0.4c-3.5,0-7,0-10.4-0.1c-0.6,0-1.6,0.3-1.8-0.7C54,79.6,53.6,78.5,54.9,77.9z"/>
<path class="st9" d="M13.1,122.5c0.5,0.6,1.2,0.5,1.8,0.5c2.8,0,5.6,0.3,8.3-0.1c0.2,0,0.3-0.1,0.5-0.1c0.6,0.1,1.3,0.3,1.3,1.1
	c0,0.8-0.5,1.1-1.3,1.1c-1.4,0-2.7,0-4.1-0.1c-0.9,0-1.7,0-2.6,0.1c2.1,0.7,4.4,0.2,6.5,0.5c-3.5,0.5-7.1,0-10.6,0.2
	c-0.8,0-1.2-0.4-1.2-1.2C11.8,123.8,11.4,122.5,13.1,122.5z"/>
<path class="st10" d="M33.5,57.7c0.1-0.1,0.3-0.2,0.4-0.3c0.3-0.7-0.5-1.6,0.4-2.2c0.8-0.5,1.5,0,2.3-0.1c2.8-0.1,5.6-0.1,8.5-0.2
	c0.2,0,0.5,0,0.7,0c0.8,0.1,1,0.6,1,1.4c0,0.7-0.5,1-1.1,0.9c-2.1,0-4.3-0.1-6.4,0.2c1.7,0.1,3.4,0.3,5.1,0.4
	C40.7,58.2,37.1,58.4,33.5,57.7z"/>
<path class="st11" d="M12.2,102.8c-0.6,0.8,1,1.7-0.1,2.6c-0.2,0.2-0.2,0.2,0,0.3c2.2,0.6,1.4,2.5,1.8,3.9l0,0
	c-1.7,1.4-1.6,3.3-1.5,5.2c-2.5,0.1-2.9-0.3-2.2-2.6c0.2-0.7,0.2-1.4,0-2.1c-0.3-0.9-0.4-1.9-0.7-2.8c-0.4-1.5,0.1-2.6,1.4-3.5
	C11.4,103.5,11.7,103.1,12.2,102.8z"/>
<path class="st12" d="M55,34.2c0.6-0.1,0.6-0.5,0.5-1.1c-0.2-1,0.3-1.5,1.3-1.4c3.3,0.1,6.5,0.2,9.8,0.2c0.7,0,1.3,0.2,1.2,1.1
	c0,0.9-0.6,0.7-1.2,0.7c-2,0-4.1,0-6.1,0.1c-0.6,0-1.3-0.3-2.2,0.5c3.5,0.1,6.7,0.1,9.9,0.2c-3.1,0.6-6.2,0.1-9.3,0.2
	C57.6,34.6,56.2,34.9,55,34.2z"/>
<path class="st13" d="M53.8,103.2c0.5,1,1.1,1.9,1.5,2.9c0.7,1.6,0.9,3.1-0.3,4.7c-0.7,1-0.3,2.4-0.1,3.6c-0.5-0.2-1-0.4-1.6-0.5
	c-0.5-0.2-0.9-0.5-0.8-1c0.5-2.2-0.6-4.2-1-6.2C51.3,104.5,51.6,103.9,53.8,103.2z"/>
<path class="st14" d="M35,42.7c-0.5,1.6-1.1,3.2-0.5,4.9c-0.4-0.2-0.8-0.4-1.3-0.6c-0.9-0.3-1.4-1.1-1-1.9c0.9-1.7,0.3-3.3-0.1-4.9
	c-0.5-2.1-0.3-4,2.2-4.8c0.3,0.8,0.6,1.6,0.9,2.5C34.3,39.5,35.1,41.1,35,42.7z"/>
<path class="st15" d="M26.4,110.7c-0.7,0.4-0.6,1-0.2,1.6c0.2,0.3,0.4,0.5,0.5,0.8c0.1,0.4-0.2,0.8-0.5,1c-0.4,0.3-0.9,0-0.9-0.4
	c-0.1-2-1.4-3.7-1.6-5.7c-0.2-1.8,1.4-3,2-4.5c0.8,0.1,1.5,0.3,1.3,1.3c0.6,1.1-0.2,2.4,0.4,3.5c0.1,0.6,0.1,1.1-0.5,1.5
	C26.3,109.9,26.8,110.6,26.4,110.7L26.4,110.7z"/>
<path class="st16" d="M55.3,19.7c0.6,1.1,0,2.3,0.3,3.4c-2.2-0.2-2.6-0.6-2.3-2.6c0.1-0.8,0-1.4-0.2-2.1c-0.1-0.5-0.3-1.1-0.5-1.6
	c-0.8-3.1-0.5-3.8,2.2-5.4c0.1,0.5,0.2,1,0.2,1.5c0,0.3-0.2,0.6-0.2,0.8c-0.1,0.2-0.2,0.4-0.2,0.5c-0.2,0.5-0.2,0.9-0.1,1.4
	c0.1,0.2,0.1,0.4,0.1,0.5c0.1,0.4,0.2,0.7,0.3,1.1c0.1,0.2,0.1,0.3,0.2,0.5c0.1,0.3,0.2,0.7,0.3,1c0,0.1,0,0.2,0.1,0.3
	C55.5,19.4,55.5,19.5,55.3,19.7z"/>
<path class="st17" d="M26,17.1c0.9-1.4,0.7-2.7-0.4-3.9c0.8-0.6,1.3,0.2,1.9,0.1c0,0,0,0,0,0c0.6,1.2-0.2,2.6,0.4,3.9
	c0.2,1.2-0.6,2.2-0.6,3.4l0,0c0.4,0.2,0.5,0.5,0.5,1c-0.5,0.1-0.4,0.6-0.7,0.9c-0.6,0.7-1,0.5-1.4-0.3c-0.5-1-0.1-2-0.3-3.1
	c0-0.1,0-0.2,0-0.3c0-0.5,0-1,0.3-1.4C25.9,17.3,25.9,17.2,26,17.1z"/>
<path class="st18" d="M46.5,47.4c-0.1-0.6,0.3-1,0.5-1.5c0.1-2.2,0.8-4.4,1.1-6.6c0.1-0.6,0.6-1.7-0.9-1.6c0,0.2-0.1,0.4-0.1,0.6
	c-0.3,0.2-0.6,0.2-0.9-0.1c-0.2-1.2,1-1.9,1.1-3c2.2,1.5,2.7,3.5,1.8,6c0,0.1,0,0.2-0.1,0.2c-0.3,1.2-0.9,2.3-0.1,3.6
	c0.4,0.6-0.1,1.4-0.9,1.7C47.5,46.9,46.9,47,46.5,47.4z"/>
<path class="st19" d="M12.6,12.5c0.1,0.1,0.1,0.3,0.1,0.5c-1,1.1-1.2,2.3-0.8,3.7c0.4,1.3,0.6,2.7,0.8,4.1c0.1,0.5,0.2-0.3,0.4-0.1
	c0.6,0.9,0.2,2,0.3,2.9c-0.4,0-0.8,0.1-1.2,0.1c-1.3-0.1-2.2-1.2-1.5-2.2c1-1.4,0.4-2.5,0.1-3.7c-0.2-0.8-0.4-1.5-0.5-2.3
	C10,13.5,10.6,12.9,12.6,12.5z"/>
<path class="st20" d="M17.1,28.5c0.2,0.2,0.4,0.1,0.6-0.1c1.1-0.9,1.1-0.9,1.6,0.6c0.5-0.2,0.2-0.8,0.5-1.2c0.4-0.5,0.8-0.6,1.2-0.1
	c0.6,0.8,1.1,1.7,1.7,2.7c-1.1-0.6-2.1-1.3-3,0.2c0,0.1-0.4,0.1-0.4,0c-0.8-1.5-1.6-0.3-2.5,0c-1.2,0.4-0.5-0.5-0.6-0.9
	C16.2,29.1,16.6,28.8,17.1,28.5z"/>
<path class="st21" d="M25.1,59.8c-0.5-0.6,0.2-1.2,0-1.9c3.1,1.8,3.1,4.3,1.9,7.2c-0.3,0.8-0.5,1.6,0.1,2.4c0.5,0.7,0.3,1.5-0.4,2.2
	c-0.6,0.6-1.2,0.7-1.9,0.1c0-0.2,0.1-0.4,0.1-0.5c0.2-2.6,1.1-5.1,1.3-7.7C26.4,60.8,25.7,60.3,25.1,59.8z"/>
<path class="st22" d="M67.7,23.3c0-0.7,0.1-1.3,0.1-2c0.4-1.5,0.5-3.1,1.2-4.4c0.9-1.7,0.6-3-0.7-4.2c0-0.2,0.1-0.3,0.1-0.5
	c1.9,0.5,2.3,1,2.4,2.7c0,1.2-0.6,2.1-0.9,3.2c-0.2,0.8-0.5,1.5-0.2,2.5C70.4,22.4,69.8,23,67.7,23.3z"/>
<path class="st23" d="M54.8,57.5c0,0.7,0,1.4,0,2.1c-1.6,1-1.5,2.5-1.2,4c0.2,1,0.7,2,0.6,3c-0.1,1.1,0.3,0.1,0.5,0.1
	c0.7,1,0.2,2,0.3,3c-0.8,0.5-1.6,0.6-2.1-0.2c-0.5-0.6-0.8-1.4-0.1-2.2c0.6-0.8,0.2-1.5,0-2.3c-0.3-1.1-0.6-2.2-0.6-3.3
	c0-1.1,0-2.5,1.6-2.8C54.6,58.8,54.2,57.8,54.8,57.5z"/>
<path class="st24" d="M12,69.2c0.1,0.3,0.3,0.6,0.4,1C10,70,9.8,69.9,10,67.7c0.2-1.6-0.4-3.1-0.6-4.7c-0.5-3.2-0.4-3.5,2.6-4.5
	c0,0.4,0,0.7,0.1,1.1C11,60,10.5,60.9,10.7,62C11.1,64.4,11.4,66.8,12,69.2z"/>
<path class="st25" d="M59.3,28.4c1-0.7,2.1,0.4,3.1-0.2c0.3-0.2,0.6,0.1,0.8,0.3c0.6,0.7,1.1,1.3,1.9,2.2c-1.4-0.1-2.4-2.1-3.6-0.4
	c-1.5-1-2.4,0.8-3.6,0.8c-0.3-0.6,0.7-0.8,0.2-1.4C58.4,29.3,58.9,28.9,59.3,28.4z"/>
<path class="st26" d="M67.8,59.4c0-0.2,0.1-0.4,0.1-0.7c2.1,1,2.7,2,2.2,4.1c-0.2,0.7-0.3,1.4-0.5,2.1c-0.4,1-0.4,1.8-0.1,2.9
	c0.6,1.7-0.2,2.4-2,2.1c0-0.2,0-0.4,0-0.6c0.5-2.6,0.7-5.2,1.3-7.8C69.2,60.7,68,60.3,67.8,59.4z"/>
<path class="st27" d="M57.7,120.6c0.6,0,1-0.4,1.4-0.8c0.2-0.3,3.2-0.8,3.4-0.6c0,0,0.1,0.1,0.1,0.2c-0.2,1.3,1.8,1.1,1.7,2.4
	c-0.4,0.1-0.8-0.1-1.1-0.3c-0.3-0.1-0.6-0.5-0.8-0.4c-1.2,0.4-2.3-0.4-3.5,0.1c-0.2,0.1-0.5,0.3-0.6,0.3c-0.3-0.1-0.5-0.3-0.8-0.5
	C57.4,120.7,57.5,120.6,57.7,120.6z"/>
<path class="st28" d="M67,104c0.2-0.4,0.3-0.7,0.5-1.1c2.4,1.1,3.1,2.5,2.1,5.1c-0.5,1.4-1,2.5-0.4,4.1c0.4,1.1-0.2,1.6-1.9,2
	c0-0.4,0-0.7,0-1.1c0.5-2.4,0.8-4.8,1.3-7.2C68.7,104.9,67.7,104.4,67,104z"/>
<path class="st4" d="M28,17.2c-0.9-1.2-0.1-2.6-0.4-3.9C28.6,14.5,27.9,15.9,28,17.2z"/>
<path class="st7" d="M27.4,108.3c-0.7-1.1-0.2-2.3-0.4-3.5C28,105.9,27.2,107.2,27.4,108.3z"/>
<path class="st7" d="M26.4,110.8c0-0.4,0.1-0.9,0.1-1.3c0-0.2,0.2-0.2,0.3-0.1c0.1,0.1,0.1,0.3,0.1,0.4
	C26.8,110.2,27,110.7,26.4,110.8z"/>
<path class="st22" d="M68.4,12.3c-0.6-0.3-0.5-0.9-0.5-1.4C68.4,11.2,68.5,11.7,68.4,12.3z"/>
<path class="st29" d="M35.6,44.4c0.2-1.5,0.8-2.1,2.2-2c1.2,0.1,2.4,0.1,3.6-0.2c1.1-0.2,1.9,1.4,3.2,0.6c0.3,0.5,1.2,0.4,1.2,1.4
	C42.4,45,39.1,45.3,35.6,44.4z"/>
<path class="st30" d="M35.9,35.8c2.3-2.4,5.1-2.6,9.1-0.9c-0.3,1.2-1,1.8-2.3,1.8C40.5,36.7,38.2,37,35.9,35.8z"/>
<path class="st31" d="M42.7,37.7c0.4,0.1,0.8,0.1,1.2,0.2c0.5,0.1,1.3-0.5,1.5,0.1c0.3,0.9-0.8,1-1.3,1.3c-2.1,1.4-4.4,0.8-6.7,0.5
	c-0.5-0.1-0.8-0.5-0.6-1.1c0.2-0.4,0.3-0.9,1-0.8C39.4,38.2,41,37.2,42.7,37.7z"/>
<path class="st32" d="M47.2,37.7c0-0.5,0-1.1,0.7-0.8c0.5,0.2,0.7,0.8,0.7,1.4c0,1.1-0.1,2.2-0.5,3.3c-0.4,1.2-1.1,2.4-0.1,3.8
	c0.4,0.6-0.5,0.7-1,0.5c-0.3-1.7-0.1-3.4,0.4-5.1C47.7,39.8,48.2,38.7,47.2,37.7z"/>
<path class="st33" d="M43.3,54c-1-0.3-2-1.5-2.6,0c0,0.1-0.2,0.1-0.2,0.1c-1.1-1.8-2.1,0.1-3.5,0.1c0.7-0.9,1.3-1.6,1.9-2.4
	c0.6-0.7,1-0.7,1.3,0.2c0.1,0.2,0.2,0.5,0.3,0.5C42.3,52.6,42.3,52.6,43.3,54z"/>
<path class="st34" d="M35,42.7c-0.6-1.2-0.9-2.5-0.8-3.9c0.1-0.6,0.4-0.8,0.9-0.8C35.8,39.6,35.9,41.1,35,42.7z"/>
<path class="st32" d="M46.2,38.2c0.3,0,0.6,0.1,0.9,0.1c0.2,1.4-0.3,2.6-0.7,4C45.1,40.9,45.8,39.6,46.2,38.2z"/>
<path class="st35" d="M12.9,66.3c0.5-0.2,0.7-0.9,1.4-0.8c2.2,0.4,4.6-0.6,6.8,0.4c0.6,0.3,0.8-0.3,1.2-0.3c1,0,1.4,0.6,1.6,1.4
	c0.2,1.1-0.8,1.3-1.3,1.3c-3-0.2-6,0.3-8.9-0.1C12.3,67.9,13.2,66.9,12.9,66.3L12.9,66.3z"/>
<path class="st36" d="M23.5,58.3c-1,1.5-2.6,1.7-4.1,1.7c-1.6,0-3.3-0.4-4.9-0.6c-0.5-0.1-0.9-0.4-1-0.9c-0.1-0.6,0.5-0.7,0.9-0.9
	C17.2,56.3,21.3,56.6,23.5,58.3z"/>
<path class="st37" d="M18.6,78.3c1.4,0,2.9,0.1,4.3,0.1c0.4,0,0.8-0.1,1.2,0.1c0.4,0.1,0.8,0.3,0.8,0.8c0,0.5-0.4,0.7-0.7,0.9
	c-0.5,0.4-1.1,0.3-1.6,0.3c-2.7,0.1-5.4-0.4-8.1,0.2c-0.6,0.1-1.1-0.2-1.5-0.6c-0.3-0.3-0.6-0.7-0.4-1.3c0.2-0.4,0.6-0.5,1-0.5
	c1.7,0,3.3,0.1,5,0.1C18.6,78.4,18.6,78.4,18.6,78.3z"/>
<path class="st38" d="M12,69.2c-0.9,0.4-1.7,0-1.2-0.8c0.5-0.9,0.3-1.6,0.1-2.4c-0.4-1.4-0.7-2.8-0.8-4.2c-0.2-1.6,0.4-2.1,2.1-2.2
	c0.1,0.4-0.5,0.5-0.5,0.9c0,0.1,0,0.2,0,0.3c-0.4,1.5-0.1,2.8,0.7,4.1c0.3,0.1,0.5,0.2,0.7,0.4c0,0.3,0,0.6,0,0.9c0,0,0,0,0,0
	c-0.7-0.1-1,0.3-0.9,0.9C12.3,67.9,12.3,68.5,12,69.2L12,69.2z"/>
<path class="st39" d="M25.1,59.8c1.3-0.5,1.7,0.4,1.9,1.4c0.2,1.3-0.3,2.5-0.6,3.7c-0.2,1.1-1.7,2.4,0.2,3.4c0,1.2-0.6,1.3-1.6,1
	c-0.1-1.1-0.2-2.2,0.1-3.2c-0.1-1.9,1.2-3.9,0.1-5.8C25.1,60.2,25.1,60,25.1,59.8z"/>
<path class="st40" d="M20.7,63c-0.9,0.7-1.9,0.5-2.9,0.4c-1.2-0.1-1.6-0.8-1.4-1.9c0.9-1,1.9-0.7,3-0.4l0,0
	C19.9,61.7,21.8,61.2,20.7,63z"/>
<path class="st41" d="M15.2,77.1c0.2-0.9,0.9-1.1,1.3-1.7c0.5-0.8,1-1.5,1.9-0.4c0.1,0.1,0.4,0.2,0.4,0.1c0.6-0.6,1.1-0.7,1.4,0.2
	c0.2,0.4,0,0.8-0.4,0.6c-0.7-0.3-1,1.8-1.9,0.4c-0.3-0.5-0.6-0.7-1.1-0.1C16.6,76.7,16.1,77.1,15.2,77.1z"/>
<path class="st42" d="M13,65.3c-0.3,0-0.6,0-0.8,0c-0.7-1.6-1.4-3.1-0.4-4.8c0,0-0.1,0-0.1,0c0.6,0,1,0.3,1.2,0.9
	C13.2,62.7,13.3,64,13,65.3z"/>
<path class="st43" d="M24.1,65c-0.1-1.5-0.4-3,0.4-4.4c0.2,0,0.5-0.1,0.7,0c1.3,1,0.4,2.1,0.2,3.2C25.4,64.4,25.5,65.7,24.1,65z"/>
<path class="st21" d="M24.1,65c1.5-1.2,1.7-3.2,0.4-4.4c0.1-0.2,0.3-0.4,0.6-0.3c1.4-0.1,1.2,1,1.1,1.8c-0.2,1.4-0.4,2.8-1.2,4
	C24.8,65.7,23.7,66,24.1,65z"/>
<path class="st44" d="M16.6,64c1.5,0,2.9,0.1,4.7,0.1c-1.7,1.4-3.2,0.7-4.7,0.6C16.6,64.5,16.6,64.3,16.6,64z"/>
<path class="st36" d="M16,61.6c-0.1,0.7,0.2,1.4-1.1,1.2c-1.4-0.2-1.4-0.9-1.3-1.9C14.6,60.8,15.2,61.2,16,61.6L16,61.6z"/>
<path class="st36" d="M20.7,63c0.5-1.3-0.9-1.2-1.3-1.8c1-0.1,2-0.4,2.8,0.5l0,0C22.3,62.9,21.7,63.2,20.7,63z"/>
<path class="st36" d="M19.3,61.1c-1,0-2-0.1-3,0.4c-0.1,0-0.3,0-0.4,0.1c0,0,0,0,0,0C16.9,60.3,18.1,60.4,19.3,61.1z"/>
<path class="st36" d="M22.2,61.7c0.3-0.4,0.6-0.5,0.9,0c0.1,0.2,0.1,0.6-0.1,0.6C22.6,62.2,22.4,61.9,22.2,61.7
	C22.2,61.7,22.2,61.7,22.2,61.7z"/>
<path class="st24" d="M12,69.2c0-0.7,0-1.3,0.1-2C12.6,67.9,12.6,68.5,12,69.2z"/>
<path class="st45" d="M60.6,125c-1.7,0-3.1-0.1-4.4-0.1c-0.7,0-1.3-0.1-1.3-1c0-0.7,0.5-0.9,1.1-0.9c1.9,0,3.7-0.4,5.6-0.1
	c1.4,0.2,2.8-0.3,4.2-0.1c0.5,0.1,1.2-0.1,1.4,0.6c0.1,0.8-0.5,1-1.1,1.3C64.2,125.4,62.2,124.7,60.6,125z"/>
<path class="st46" d="M55.3,102.1c2.2-0.5,3.9-0.8,5.8-0.9c1.3-0.1,2.5-0.4,3.8,0.2c0.4,0.2,0.9,0.4,0.9,1c0,0.5-0.4,0.8-0.8,1.1
	C62.8,105,57.5,104.4,55.3,102.1z"/>
<path class="st47" d="M56.2,110.9c0.1-0.3-0.1-0.9,0.5-0.7c0.9,0.4,1.8,0.1,2.6-0.3c1.8-0.7,3.6-0.3,5.4-0.2c1.1,0,1.1,1.1,1.4,2.3
	c-2.1-1-3.7,0.9-5.7,0.7c-0.7-0.1-1.6-0.2-2.5,0C56.7,113,56.8,111.5,56.2,110.9L56.2,110.9z"/>
<path class="st48" d="M57.1,105.1c1.5,0,2.9,0.1,4.3,0.1c0.6,0,1.1,0.1,1.6,0.5c0.6,0.5,0.6,1.4-0.1,1.8c-0.9,0.5-4.8,0.2-5.6-0.6
	C57,106.5,56.8,106,57.1,105.1z"/>
<path class="st49" d="M67,104c1.8,0,2.5,0.7,2.2,2.4c-0.2,1.2-0.7,2.3-1.1,3.4c-0.3,0.8-0.8,1.6,0.2,2.3c0.3,0.3,0.2,0.7-0.1,1.1
	c-0.4,0.4-0.7,0.1-1-0.1c-0.4-1.1,0.3-2.4-0.5-3.4c-0.3-0.4-0.2-0.7,0.2-1c0.9,0.4,0.1-0.5,0.4-0.6c0-0.2,0.1-0.4,0.1-0.6
	c0.2-0.8,0.2-1.5-0.1-2.2c0-0.1,0-0.2-0.1-0.3C67.2,104.6,67.1,104.3,67,104z"/>
<path class="st50" d="M67.1,108.8c-0.3,0.2-0.4,0.5-0.4,0.9c-1.4-1.9-1.2-3.8,0.6-4.7c0,0,0,0,0,0c1.1,0.8,0.8,1.9,0.4,2.9l0-0.1
	C67.4,108,67.6,108.6,67.1,108.8z"/>
<path class="st51" d="M62.9,108.4c-1.3,0.8-2.6,0.9-3.9,0C60.3,108,61.6,108,62.9,108.4z"/>
<path class="st47" d="M56.1,110.9c0,0.1,0.1,0.3,0,0.4c-0.1,0.2,0.1,0.7-0.3,0.6c-0.3-0.1-0.2-0.5,0-0.8
	C55.9,111.1,56,111,56.1,110.9C56.2,110.9,56.1,110.9,56.1,110.9z"/>
<path class="st52" d="M14,20.9c0.3-0.8,0.4-1.4,0.6-1.9c0.1-0.4,0.4-0.7,0.9-0.6c2.4,0.1,4.9,0.1,7.3,0.2c0.3,0,0.6,0.1,0.9,0.1
	c0.9,0.2,1,1.1,1,1.7c0,0.6-0.7,0.7-1.3,0.7c-2.2-0.3-4.2,0.4-6.4,0.3C15.9,21.5,15.1,20.8,14,20.9z"/>
<path class="st53" d="M23.7,33.4c-3,0.4-6.1-0.2-9.1,0.1c-0.7,0.1-1.3,0.2-1.3-0.8c0-0.9,0.6-1,1.3-1c3.3-0.3,6.6-0.3,9.9-0.2
	c0.8,0,1.2,0.5,1.1,1.2c-0.1,0.7-0.5,0.9-1.2,0.7C24.2,33.4,23.9,33.4,23.7,33.4z"/>
<path class="st54" d="M14.5,15.5c0.1-0.6,0-1.3-0.5-2.1c3.7,0.5,7.1,0.9,10.3-0.1C24,15.1,24,15,22,15.6
	C19.4,16.4,17,16.3,14.5,15.5L14.5,15.5z"/>
<path class="st55" d="M18.8,12.8c-1-0.1-2.1-0.2-3.2-0.3c-0.4-0.1-0.7-0.3-0.8-0.8c0-0.4,0.3-0.5,0.6-0.6c2.5-1.2,5.1-0.8,7.8-0.6
	c0.4,0,0.7,0.3,0.8,0.8c0.1,0.4-0.3,0.5-0.5,0.7C22.1,13.2,20.5,12.6,18.8,12.8z"/>
<path class="st54" d="M23.4,16.9c-2.3,1.3-5.6,1.2-7.6-0.2C18.6,16.1,21,16.6,23.4,16.9z"/>
<path class="st56" d="M13.1,20.6C13,21,13,21.4,12.8,21.8c-0.2,0.5-0.5,0.9-1,0.7c-0.5-0.3-0.4-0.9,0-1.2c0.8-0.4,0.4-0.9,0.3-1.4
	c-0.4-1.5-0.8-3.1-1.1-4.6c-0.3-1.3,0.3-2.2,1.7-2.4c0.2,0.1,0.4,0.3,0.4,0.6c-1.6,1.9,0.1,3.8-0.1,5.8
	C13.1,19.7,13.1,20.2,13.1,20.6z"/>
<path class="st57" d="M13.7,14.4c0.5,0.2,0.2,1,0.9,1.1c0,0,0,0,0,0c-0.2,1.1,0,2.3-0.6,3.3c-2.1-0.2-1.2-2.1-1.7-3.2
	C12,14.8,12.5,14,13.7,14.4z"/>
<path class="st58" d="M25.5,19c-1.6-1.4-1.7-2.6,0-4.8c1,0.8,0.6,1.9,0.5,2.9c0,0,0,0,0,0C25.5,17.6,26,18.5,25.5,19L25.5,19z"/>
<path class="st19" d="M13.7,14.4c-0.2,0.1-0.6,0-0.7,0.2c-0.8,1.1-0.3,3.2,0.9,4.2c-0.1,0.5-0.5,0.5-0.9,0.5c-0.9-1.1-1-2.4-1.3-3.6
	c-0.2-1,0.3-1.8,1.4-2.1C13.3,13.8,13.5,14.1,13.7,14.4z"/>
<path class="st59" d="M55.7,58.3c1.8-1.2,3.6-1.5,5.3-1.8c1.4-0.3,2.7,0.2,4,0.5c0.6,0.1,0.9,0.6,0.8,1.3c-0.1,0.6-0.5,1-1.2,0.9
	c-0.8-0.2-1.3,0.2-1.9,0.4C60.3,60.6,58,59.9,55.7,58.3z"/>
<path class="st60" d="M56.4,60.7c3,0.3,6,0.9,9.3-0.2c-0.4,0.8,0.1,1.9-1.1,2.2c-0.8,0.2-1.7,0.3-2.6,0.5c0.2,0.5,1,0.2,1.1,0.7
	c0.1,0.7-0.5,0.6-0.9,0.8c-1.4,0.6-2.7-0.1-4.1-0.4c0.1-0.5,1.4-0.7,0.1-1.2C56.7,62.4,56.7,62.4,56.4,60.7z"/>
<path class="st61" d="M66.2,67.1c-3,1.4-5.9,0.8-8.8,0.6c-0.5,0-1.4,0-1.3-1c0.1-0.8,0.6-1.5,1.6-1.4c1.7,0.1,3.5,0.1,5.2,0.2
	c0.8,0,1.5,0.3,2.3,0.3C66,65.9,65.9,66.5,66.2,67.1z"/>
<path class="st62" d="M67.8,59.4c1.1,0.5,1.6,1.4,1.5,2.7c-0.1,1.2-0.3,2.3-0.6,3.5c-0.2,0.9-0.9,1.7,0.2,2.8c0.6,0.6-0.3,1.2-1.2,1
	c-0.1-0.8-0.2-1.6-0.2-2.4c0-0.5,0.3-1,0.2-1.4c-0.2-0.6-0.4,0.8-0.9,0.2c-0.9-1-0.9-3.7,0.1-4.7c0.4-0.4,0.7-0.3,1,0
	c0.3,0.4,0.7,0.9,0.5,1.5C68.1,62.8,68,63,68,63.2c0-0.2,0.1-0.4,0.2-0.6c0.7-0.9,0.5-1.7-0.4-2.3C67.2,60,67.2,59.7,67.8,59.4z"/>
<path class="st63" d="M54.8,66.7c0,0.6-0.1,1.1-0.1,1.7c-0.1,0.4-0.2,0.8-0.8,0.7c-0.5-0.1-0.8-0.6-0.5-0.9c1.1-1.2,0.3-2.4,0-3.5
	c-0.3-1.1-0.5-2.2-0.4-3.3c0-1.3,0.6-2,1.9-1.7c0,0.2-0.1,0.6,0.1,0.7c1.5,1.7,1.6,3.5,0.7,5.4c-1.8-0.5-1.2-2-1.6-3
	c-0.3,1.2,0.9,2.2,0.7,3.6C54.8,66.4,54.8,66.5,54.8,66.7z"/>
<path class="st64" d="M58,77.2c0.7-0.8,1.2-1.5,1.8-2.3c0.2-0.3,0.5-0.4,0.8-0.1c0.3,0.3,0.4,1.4,0.8,0c0.1-0.3,0.4-0.8,0.8-0.3
	c0.3,0.3,0.7,0.9,0.6,1.2c-0.2,0.4-0.9,0.5-1.2,1c-0.6,0.9-0.8,0.1-1.2-0.3c-0.4-0.4-0.7-0.1-1,0.2C59,76.9,58.8,77.3,58,77.2z"/>
<path class="st23" d="M54.8,66.3c-0.7-1.8-1.5-3.6-0.8-5.6c0.2,1.3,0.3,2.7,0.7,4c0.2,0.5,0.4,0.9,0.9,1
	C55.6,66.2,55.2,66.2,54.8,66.3z"/>
<path class="st65" d="M61.1,13.2c-1.4,0.1-3-0.3-4.4-1c-0.8-0.4-0.8-1.1,0-1.3c3.1-0.9,6.1-1.8,9.2-0.1c0.3,0.2,0.8,0.2,0.8,0.7
	c0,0.5-0.4,0.9-0.8,1.1c-1.2,0.5-2.4,0.8-3.7,0.7C61.9,13.2,61.6,13.2,61.1,13.2z"/>
<path class="st66" d="M59.1,16c-0.8,0-1.7,0-2.5,0.4c-1-0.3-1.1-1-0.7-1.9c0.2-0.2,0.4-0.7,0.6-0.7c2.6,0.6,5.3,0.1,7.9,0.4
	c0.6,0.1,1.1,0.2,1.4,1c-0.7,0.1-1.1,0.9-1.9,0.9C62.4,14.9,60.8,14.8,59.1,16z"/>
<path class="st67" d="M60.9,21.7c-0.9,0-1.8,0-2.6-0.1c-0.4-2.1,1.6-2,2.7-2.8l0.1-0.1c2.5-0.1,3,0.3,2.7,2.5l0,0
	C62.9,21.9,61.8,21.2,60.9,21.7z"/>
<path class="st66" d="M63.8,21.3c-0.1-1.8-1.1-2.5-2.7-2.5c0.8-0.6,1.6-0.4,2.5-0.2c0.3,0,0.4,0.4,0.8,0.4c2.2,0.1,2.2,0.1,2.7,2.2
	C66,21.5,64.9,21.3,63.8,21.3z"/>
<path class="st68" d="M59.1,16c0.1-0.7,0.2-1.4,1.2-1.4c0.7,0,1.4,0,2.1,0c0.9,0,1.5,0.5,1.5,1.5C62.4,16.6,60.7,16.8,59.1,16z"/>
<path class="st69" d="M68.3,12.7c1.7,1,1.8,1.3,1.5,2.9c-0.2,1.3-0.8,2.4-1.2,3.6c-0.2,0.6-0.8,1.3,0.2,1.8c0.4,0.2,0.4,1-0.2,1.1
	c-0.6,0.2-0.5-0.7-0.9-0.9c-0.3-1.3,0.3-2.5,0.5-3.8c0-0.1,0-0.2,0-0.3c0-0.4,0.1-0.7,0.3-1c0.1-0.1,0.1-0.1,0.2-0.2
	c0.5-0.9,0.6-1.7-0.4-2.4C67.9,13.5,67.9,13.1,68.3,12.7z"/>
<path class="st16" d="M56,14.5c0.1,0.7,0.3,1.3,0.7,1.9c0,0.6-0.1,1.2-0.1,1.9c-0.1,0.7-0.2,1.6-1.3,1l0,0c-0.4-0.4,0-1.1-0.5-1.5
	l0,0c-0.4-0.4,0-1.1-0.5-1.5l0,0c-0.3-0.8-0.3-1.6,0.1-2.4l0,0c0.3-0.3,0.6-0.3,1-0.2C55.6,14,55.8,14.2,56,14.5z"/>
<path class="st66" d="M55.3,19.2c0.8,0.2,1-0.5,1.3-1c1.3,1.1,2.8,0.8,4.3,0.6c-1,0.8-2.3,1.4-2.7,2.8c-1.5,0.1-1.8-1.5-2.9-2
	C55.3,19.5,55.2,19.4,55.3,19.2z"/>
<path class="st70" d="M68.3,17.6c-0.5,0.1-0.3,1-0.9,0.9c-0.6-0.1-0.6-0.7-0.6-1.1c-0.1-0.8-0.1-1.6,0.1-2.3
	c0.1-0.4,0.3-0.8,0.7-0.8c0.5-0.1,0.7,0.3,0.9,0.6c0.3,0.4,0.2,0.9,0.3,1.4c0,0,0,0,0,0C68.3,16.5,68.7,17.2,68.3,17.6L68.3,17.6z"
	/>
<path class="st71" d="M63.3,17.5c-1.2,0.5-2.3,0.7-3.8,0C61,16.7,62.1,16.8,63.3,17.5z"/>
<path class="st66" d="M60.9,21.7c0.9-0.9,2-0.2,2.9-0.4C63,22.3,61.8,21.5,60.9,21.7z"/>
<path class="st71" d="M58.3,16.9c0.2,0,0.4,0,0.5,0.3c0,0-0.2,0.2-0.4,0.2c-0.1,0-0.2-0.1-0.4-0.2C58.1,17.1,58.2,17,58.3,16.9z"/>
<path class="st66" d="M55.4,13.7c-0.3,0.1-0.6,0.1-1,0.2c0.2-0.3,0.5-0.6,0.7-0.9C55.4,13.2,55.4,13.5,55.4,13.7z"/>
<path class="st72" d="M13.9,109.5c2.8,0.5,5.6,0.6,8.4,0.1c1.7-0.3,1.2,1.1,1.7,1.7c0.6,0.7-0.2,1.1-0.8,1.3c-0.6,0.2-1.3-0.1-1.8,0
	c-1.6,0.3-3.3-0.1-4.8,0.3c-1.6,0.4-2.1-0.4-2.7-1.5l0,0C13.9,110.8,13.9,110.1,13.9,109.5C13.9,109.5,13.9,109.5,13.9,109.5z"/>
<path class="st73" d="M23.3,102.5c-0.8,1.3-2.1,1.7-3.5,1.8c-1.8,0.1-3.7-0.2-5.4-0.6c-0.3-0.1-0.6-0.2-0.7-0.6
	c-0.1-0.5,0.2-0.7,0.6-0.8c2.1-0.6,4.3-1.2,6.6-0.7C21.7,101.9,22.7,101.7,23.3,102.5z"/>
<path class="st74" d="M13.6,104.9c3.4,0.7,6.6,0.3,9.8,0.2c-0.5,1.8-1.9,2.6-4.5,2.6C15.4,107.8,14.3,107.2,13.6,104.9z"/>
<path class="st75" d="M21.7,121.6c-1-0.1-1.8-1.4-2.4,0.1c-0.1,0.3-0.6,0.5-0.8,0.2c-0.9-1.3-1.8-0.2-3,0.4c0.6-1.3,1.5-1.7,1.6-2.6
	c0.1-0.3,0.5-0.9,0.8-0.6c0.8,0.9,2.1-1.2,2.7,0.6C20.8,120.3,21.2,120.8,21.7,121.6z"/>
<path class="st76" d="M22,108.5c-2.3,0.9-4.5,1-6.8,0C17.5,108.1,19.7,108.1,22,108.5z"/>
<path class="st72" d="M13.9,111.4c0,0.2,0,0.3,0,0.5c0,0.2,0,0.5-0.2,0.5c-0.2-0.1-0.2-0.4-0.1-0.6
	C13.6,111.6,13.8,111.5,13.9,111.4C13.9,111.4,13.9,111.4,13.9,111.4z"/>
<path class="st66" d="M54.4,13.9c0,0.8,0,1.6-0.1,2.4C53.8,15.5,53.7,14.7,54.4,13.9z"/>
<path class="st66" d="M54.8,17.7c0.5,0.4,0.4,0.9,0.5,1.5C54.7,18.9,54.9,18.3,54.8,17.7z"/>
<path class="st66" d="M54.4,16.3c0.5,0.4,0.5,0.9,0.5,1.5C54.2,17.4,54.4,16.8,54.4,16.3z"/>
<path class="st4" d="M25.5,19.1c0.2-0.6-0.1-1.5,0.6-2C25.9,17.8,26.2,18.6,25.5,19.1z"/>
<path class="st4" d="M27.4,20.5c-0.1,0.3-0.3,0.5-0.7,0.3c-0.2-0.1-0.2-0.6-0.1-0.6C26.9,20.3,27.1,20.5,27.4,20.5
	C27.4,20.6,27.4,20.5,27.4,20.5z"/>
<path class="st2" d="M11.7,60.5c-0.4,1.7,0,3.2,0.4,4.8c-0.1,0.2-0.3,0.3-0.3,0.2c-0.6-1.2-0.8-2.5-1-3.8
	C10.7,61.1,11,60.6,11.7,60.5z"/>
<path class="st3" d="M67.7,107.8c0.1-1,0.2-2-0.4-2.9C68.4,105.6,68.5,106.1,67.7,107.8z"/>
<path class="st3" d="M67.1,108.8c0.3-0.3,0.1-0.8,0.6-1c-0.1,0.4,0,0.8-0.2,1.1C67.5,109.2,67.2,109,67.1,108.8z"/>
<path class="st5" d="M68.2,62.6c0,0.5,0,1,0,1.7C67.7,63.5,67.9,63.1,68.2,62.6C68.2,62.7,68.2,62.6,68.2,62.6z"/>
<path class="st6" d="M68.2,17.6c0-0.6-0.1-1.2,0.5-1.5C68.7,16.6,69,17.3,68.2,17.6z"/>
</svg>
