<?xml version="1.0" encoding="utf-8"?>
<!-- Generator: Adobe Illustrator 23.1.1, SVG Export Plug-In . SVG Version: 6.00 Build 0)  -->
<svg version="1.1" id="Livello_1" xmlns="http://www.w3.org/2000/svg" xmlns:xlink="http://www.w3.org/1999/xlink" x="0px" y="0px"
	 viewBox="0 0 80 135" style="enable-background:new 0 0 80 135;" xml:space="preserve">
<style type="text/css">
	.st0{fill:#FFFFFF;stroke:#000000;stroke-width:0.2509;stroke-miterlimit:10;}
	.st1{fill:#465D42;}
	.st2{fill:#534436;}
	.st3{fill:#6F5456;}
	.st4{fill:#4E5F4E;}
	.st5{fill:#764C4E;}
	.st6{fill:#476046;}
	.st7{fill:#6A6454;}
	.st8{fill:#684842;}
	.st9{fill:#78664D;}
	.st10{fill:#914F52;}
	.st11{fill:#A2A8A9;}
	.st12{fill:#E3E5E1;}
	.st13{fill:#D4D5D5;}
	.st14{fill:#C75656;}
	.st15{fill:#CECFD0;}
	.st16{fill:#F3E932;}
	.st17{fill:#FAFBFC;}
	.st18{fill:#E8DB36;}
	.st19{fill:#998C3E;}
	.st20{fill:#A5ADAB;}
	.st21{fill:#E5E7E6;}
	.st22{fill:#DF9A71;}
	.st23{fill:#BDA241;}
	.st24{fill:#E3E4E1;}
	.st25{fill:#A79742;}
	.st26{fill:#ABA140;}
	.st27{fill:#CDB13B;}
	.st28{fill:#D7CF5C;}
	.st29{fill:#D0554F;}
	.st30{fill:#B94A43;}
	.st31{fill:#E6474E;}
	.st32{fill:#EA525B;}
	.st33{fill:#EE534E;}
	.st34{fill:#E38B6C;}
	.st35{fill:#E85858;}
	.st36{fill:#E8595A;}
	.st37{fill:#E2D738;}
	.st38{fill:#EBDC35;}
	.st39{fill:#CDC167;}
	.st40{fill:#DEE3DF;}
	.st41{fill:#EBDB35;}
	.st42{fill:#CD4743;}
	.st43{fill:#D94948;}
	.st44{fill:#F0A96B;}
</style>
<path class="st0" d="M71.5,135h-63c-4.7,0-8.5-3.8-8.5-8.5V8.5C0,3.8,3.8,0,8.5,0h63C76.2,0,80,3.8,80,8.5v118
	C80,131.2,76.2,135,71.5,135z"/>
<path class="st1" d="M55.5,65.4c-1.4-0.2-1.8,0.2-1.8,1.5c0.1,1.2,0.2,2.4,0.3,3.5c0.5,5,0,10-1.1,14.8c-0.1,0.3-0.3,0.6-0.4,0.8
	c-0.4-0.1-0.6-0.3-0.8-0.7c-0.2-3,0.9-5.9,1-9c0.2-3-0.1-6-0.5-9c-0.2-1.5-1.2-2.1-2.7-2.1c-2.9-0.1-2.9-0.1-5.1-1.8
	c-0.7,1.7-2,2.3-3.7,2.4c-2,0.1-3.7,0.9-4.9,2.5c-1.4,0.5-0.6-2.3-2.1-1.4c-1,0.6-0.3,1.9-0.6,2.9c-1.1,3.7-2.1,7.5-2.2,11.4
	c-0.1,2.2-0.1,4.4,1,6.4c0.1,0.7,0.6,1.5,0.2,2.1c-1.5,2.2,0.3,2.3,1.7,2.6c3.3,0.7,3.9,1.3,4.1,4.7c0.1,1.8,0.8,3.5,0.8,5.3
	c-2.1,2.5-3,5.5-3.2,8.7c-0.1,0.9,0.1,1.7-0.5,2.5c-0.6,0.3-1.2,0.2-1.8,0.1c-1.1-0.2-2.3,0-3.4-0.4c-0.4-0.2-0.7-0.4-0.5-0.9
	c0.5-1.5,0.5-3.1,0.4-4.7c-0.3-4-0.2-8,0-11.9c0.1-1.4,0.5-2.8-0.1-4.2c-0.4-1.1,0.7-2.2,0.3-3.5c-0.3-1.1-0.3-2.4-0.5-3.5
	c-0.5-2.5-0.2-4.9,0.3-7.4c0.6-3.2,1.3-6.4,1.9-9.6c0.1-0.3,0.2-0.6,0.1-0.9c-0.5-3,0.9-5.6,2.1-8.1c1.3-2.6,1.5-5.3,0-7.9
	c-0.4-0.8-0.7-1.6-1.2-2.4c-0.4-0.7-1-0.7-1.5-0.1c-1.3,0.3-1.1-0.6-0.6-1.1c0.5-0.7,1.2-1.3,1.1-2.3c0.2-2.1,1.1-4.1,0-6.2
	c-0.4-0.9-0.7-1.7-0.4-2.7c0.1-0.2,0.3-0.4,0.5-0.5c1.8-0.4,2.5,1.3,3.8,2c4.7,2.3,9.3,1.8,13.9-0.3c1.1-0.5,2.1-1.5,3.5-1.2
	c0.9,0.4,1.2,1.2,1.4,2.1c0.5,2.9,0.2,5.7-0.4,8.6c-2,1.8-2.5,4.3-3.3,6.7c-0.2,0.3-0.4,0.6-0.7,0.7c-0.8,0.1-1.6,0.2-2.3,0.5
	c-0.4,0.2-1.1,0.3-0.8,0.9c0.2,0.5,0.8,0.1,1.3,0.1c0.2,0,0.4,0,0.6,0.1c0.4,0.4,0.6,0.9,0.7,1.4c0,0.4-0.2,0.8-0.2,1.2
	c1.3,2.1,3.3,2.3,5.5,2.1c0.2,0,0.4,0.2,0.6,0.3c0.1,0.5,0.2,1,0.5,1.4c-0.1,0.8-0.8,1.5,0,2.4C56.2,64.8,56.3,65.5,55.5,65.4z"/>
<path class="st2" d="M38.7,102.5c-1.1-1.9-1.1-4-1.3-6c-0.2-2.2-0.8-2.9-3-3.2c-0.8-0.1-1.5-0.4-2.3-0.6c-0.9-0.1-1.7-1.5-1.1-1.9
	c1-0.8,0.2-1.9,0.9-2.7c0.1-0.2,0.2-0.3,0.3-0.5c0.1-1.9,0-3.8,0.2-5.6c0.1-0.8-0.1-1.8,0.8-2.3c1.1,0.6,0.8,1.6,0.9,2.6
	c0,1.4-0.4,2.8,0.7,4.1c1,1.2,2,1.8,3.5,0.9c0.4-0.2,0.7-0.4,1.1-0.6c1.3-0.4,1.6-1.5,1.7-2.6c0-0.2,0.1-0.4,0.2-0.6
	c0.5-1.5,0.4-3.2,1.6-4.5c0.3-0.3,0.5-0.9,1-0.8c0.4,0.1,0.6,0.5,0.7,0.9c0.3,2.8,1.1,5.6,0.9,8.4c-0.1,1.4-0.1,2.5,1.4,3.1
	c1.5,0.6,2.2-0.3,2.8-1.4c0.9-1.1,1.1-2.7,2.4-3.6c0.2,0.2,0.4,0.3,0.5,0.5c0,1.6-0.9,2.8-1.3,4.2c0.2,0.3,0.4,0.2,0.7,0.2
	c1-0.3,2-0.5,2.9,0.4c0.9,0.9,0.5,1.9,0,2.8c-0.2,0.3-0.3,0.7-0.3,1.1c0,2.5-0.1,2.6-2.6,3.1c0.5,2.9-0.2,5.5-2.7,7.3
	c-1.7,0.4-1.4-0.9-1.4-1.7c0-1.7,0.3-3.3,0.8-4.9c0.5-1.6,0.2-2.6-1.7-2.7c-1.1,0-2.2-0.5-3.3-0.3c-0.8,0.1-1.4-0.3-1.7-1
	c-0.6-1.5,0.8-3.1-0.4-4.7c0.6,3.5-1.1,6.9-0.6,10.4c0.1,0.9,0,2-0.6,2.7C39.4,103.9,38.8,103.7,38.7,102.5z"/>
<path class="st3" d="M29.3,112.4c0.2,0.2,0.4,0.4,0.6,0.6c1.1,1.3,0.1,2.1-0.9,2.7c-1.9,1.2-3,3.1-4.6,4.8c3.1,0.2,4.5-0.8,4.8-3.2
	c0-0.2-0.1-0.4,0-0.4c2.2-0.5,2.2-3.4,4.4-3.8c0.5,0.2,0.9,0.3,1.4,0.5c0.5,0.1,0.8,0.5,1.3,0.6c1.9,0.7,2.7,0.3,3.4-1.6
	c0.2-0.6,0.3-1.3,1.1-1.4c1.6,0.6,3.2,0.5,4.9,0.8c0.5,1.1,1.8,1.5,2.4,2.5c-1.2,0.8-2.1,0-3-0.5c-0.7-0.4-1.8-0.7-2.1,0.1
	c-0.5,1,0.7,1.3,1.4,1.4c2.7,0.6,5.1,2.4,8.1,1.8c-1.7,0.4-2.7-0.3-2.9-2c-0.1-0.7,0.5-0.7,1-0.4c5.8,0.2,11.7,0.2,17.5,0
	c0.4,0,0.8,0,1.2,0c1.7,0,1.7,0.1,1.9,1.7c0.4,5.5,0.4,5.5-5.2,5.4c-15.1,0-30.2,0-45.2,0c-2.6,0-5.1,0.1-7.7,0
	c-1,0-1.5-0.2-1.5-1.3c0-1.3,0-2.6,0-3.8c0-1.1,0.5-1.5,1.6-1.5c4,0,8-0.2,12-0.1c1.9,0.1,3.2-0.5,4-2.2
	C29,112.8,29.2,112.6,29.3,112.4z"/>
<path class="st4" d="M37.1,20c-1.7,0-3.1-0.6-3.7-2.3c-0.6-1.5-0.4-2.1,1.1-2.9c2.2-1.2,4.6-1.8,7.1-1.7c2.5,0,4.9,0.1,7.4-0.4
	c0.8-0.2,1.6-0.1,2.3,0.3c1.1,0.6,2.3,0.7,3.5,0.8c-0.8,1.6-1.2,3.4-2.1,4.9c-2.5-0.2-3.4,0.4-3.9,2.6c-2.7,0.1-5.3-0.8-8-0.3
	C39.4,21,38.1,21.2,37.1,20z"/>
<path class="st5" d="M31.9,44.8c0.4,1,0.9,2-0.8,2.2c-0.3,0.1-0.9,0.8,0.1,1.1c-1.6,1.6-3.6,2.5-5.6,3.4c-1.6,0.7-2.9,0.4-4.1-0.8
	c-1.9-1.9-3-4.1-3.7-6.6c-0.4-1.3-0.8-2.6-1.9-3.5c-1.2-1-1.7-1.5-0.5-3.2c0.1-0.2,0.2-0.4,0.3-0.7c0.5-0.5,1-0.3,1.5-0.1
	c1.9,0.8,3.4,0.3,4.4-1.5c-0.9-0.3-0.8-0.3-1.8,0.4c-0.7,0.5-1.3,0.4-1.9-0.2c-0.6-0.5-1.3-0.9-2.2-0.7c-0.2,0.7,0.7,1.3-0.1,2
	c-1.6-0.9-2-2.8-3.1-4.1c-0.9-1.1,0-2.1,1.9-2.6c0.2,0,0.4,0,0.7,0c0.4,0,0.7,0.1,1.1,0.1c-0.3-0.2-0.7-0.2-0.9-0.6
	c0.2-0.6,0.9-0.5,1.2-1c2-1.5,2.7-1.4,4.1,0.6c0.1,0.1,0.1,0.3,0.2,0.4c-1.7,1.8-3.5,3.1-6.2,2.5c2.5,1,4.9,1,7.6,0.3
	c-0.6-0.2-1.2-0.1-1.6-0.3c-0.4-0.1-0.8-0.3-0.8-0.7c0-0.4,0.5-0.6,0.8-0.8c0.3-0.2,1.2,0.1,0.7-0.8c0.7-0.2,1.4,0.2,2.1,0.4
	c2.2,0.7,2.4,1.3,1,3c-0.4,0.5-0.7,1.1-0.8,1.7c-0.1,0.2-0.3,0.6-0.2,0.6c1.5,1.6,0.2,3.5,0.6,5.2c0,0.2,0,0.5,0.1,0.7
	c0.3,0.9,0.9,1.1,1.6,0.5c0.7-0.6,1.5-1.2,2-2c0.7-1.2,1.6-2.4,2.7-3.3c0.8,0.2,0.6-1.3,1.5-0.9c-0.3,1,0.2,1.9,0.4,2.9
	c-0.1,0.1-0.2,0.1-0.3,0.2c-1.4,0-2.3,0.3-2.7,2c-0.3,1.3-1.6,2.6-2.8,3.4c-1.2,0.7-2.8,1-4.1-0.5c-0.6-0.7-1.8,0.4-1.9,1.5
	c-0.1,1.2,1.7,4.3,2.9,4.5c1.6,0.3,3-0.5,3.9-1.8c0.8-1.3,2.5-2,2.2-4c-0.1-0.7,0.7-0.6,1.3-0.3c0.5,0.3,0.2,1.3,1.1,1.1
	C31.8,44.7,31.9,44.8,31.9,44.8z"/>
<path class="st6" d="M45.7,111.8c-1.7,0.6-3.4,1.1-4.9-0.7c-1-1.5-0.6-3.1-0.4-4.6c0.3-2.5,0.3-5,0.2-7.6c-0.1-1.7-0.1-3.5,1.6-4.7
	c0.2,0.4,0.4,1,0.7,0.8c1.7-0.7,3.2,0.2,4.8,0.4c0.5,0.1,0.9,0,1.6,0c0.2,1.2,0.2,2.4-0.3,3.7c-0.5,1.5-0.6,3.1-0.7,4.6
	c-0.1,0.7,0.1,1.3,0.9,1.4c-1.2,0.6-1.6,1.7-2,2.9C46.7,109.4,46.2,110.6,45.7,111.8z"/>
<path class="st7" d="M20.7,29.1c-1.2-1.4-2.6-1.2-4.1-0.6c-1.4-1.1-3.2-1.6-4-3.4c-0.8-1.6-1.1-3.1,0.9-4.1c0.9,2.9,3.3,2.2,5.3,2.4
	c1.2,0.1,2.3,0.1,3.5-0.5c0-1.2-1.5-0.8-1.8-1.6c0-0.2-0.1-0.6-0.1-0.6c-1.3,0.4-2.5,0.3-3.8,0c-0.4-0.1-0.7-0.3-1.1-0.2
	c0.6,0,0.9,0.2,0.6,0.8c-0.7,0.4-1.3,0.4-2,0.1c-0.7-2.2-1.8-4.1-3-6.1c2.8-2.8,6.2-3,9.9-2.7c2.1,0.2,4,0.9,5.4,2.6
	c-0.4,1.1,1.2,3.1-1.5,3.3c-0.3,0-0.3,0.9-0.1,1.3c0.5,0.9,0.2,1.9,0.3,2.7c0-0.1,0-0.2,0-0.3c0-0.6,0.2-1.2,0.4-1.8
	c0.2-0.3,0.4-0.7,0.9-0.3c0.3,0.2,0.1,0.5,0,0.8c0,0.2-0.2,0.5-0.1,0.7c0.2,0.8,0.8,1.5,0.5,2.5c-0.3,1-1.5,0.6-1.9,1.2
	C23.6,26.9,21.5,27.4,20.7,29.1z"/>
<path class="st8" d="M48.8,58.1c0.2-0.3,0.4-0.7,0.5-1c0.4-0.7,0.2-1.2-0.6-1.4l-0.2,0l-0.2,0c-0.6-1.5,0.5-1.6,1.5-1.9
	c0.2-0.2,0.3-0.3,0.5-0.5c1.8-2.1,2.3-4.7,3.2-7.1c0.1,0,0.2,0,0.2,0c0.1-2.2,0.2-4.5,0.2-6.7c0-1.2-0.1-2.5-1.3-3.3
	c0-1.6-0.7-2.3-2.3-1.4c-0.3,0.2-0.8,0.2-1.2,0.2c-0.2-0.1-0.4-0.2-0.5-0.4c0.1-0.9,0.6-1.7,0.1-2.6c0.1-0.1,0.1-0.2,0.2-0.3
	c1.7,0.3,3.2,1.4,4.8,2c0.3,0.1,0.6,0.4,0.7,0.6c1,3.2,3.3,5.6,4.9,8.4c1.4,2.5,1.5,4.9,0.4,7.5c-1.5,3.5-2.8,7-4.3,10.5
	c-0.2,0-0.4,0-0.6-0.1c-0.6-0.6-0.3-1.4-0.7-2c-0.7-1.2-1.6-1.8-2.9-1C50.6,58.2,49.9,59,48.8,58.1z"/>
<path class="st9" d="M37.1,20c1.1,0.8,2.4,0,3.5,0.5c0.4,0.1,0.6,0.3,0.6,0.7c0,0.6-1.7,1.7,0.5,1.5c0.8-0.1,1.1,0.5,1.1,1.2
	c0,0.7-0.4,1.2-1.1,1.4c-0.8,0.3-2.2-0.5-2.2,1.1c0,1.4,1,2.3,2.1,3c0.5,0.3,1,0.4,1.6,0.6c0.4,0.1,1,0.3,0.9,0.6
	c-0.4,2.6,1.1,0.8,1.8,0.8c0.6-0.2,1.1-0.2,1.4,0.5c0.1,1.2-0.8,1.4-1.6,1.7c-1.9,0.6-3.8,0.5-5.6,0c-0.9-0.3-1.8-0.7-2.8-0.6
	c2,1.9,5.1,2.3,9,1.2c0.9-0.3,1.8-0.8,2.6,0.2l0,0c0.1,1.6-1.3,1.7-2.2,2c-3.1,0.8-6.4,0.8-9.3-0.6c-1.9-0.8-3.7-1.7-5.8-1.3
	c-0.1-0.2-0.1-0.5,0.1-0.7c2.3-1.3,4.5-2.9,7.3-3.4c-1.4-0.6-2.5-1.2-3.3-2.4c-1-1.6-1.1-2.9,0.1-4.4C36.5,22.7,37.5,21.6,37.1,20z"
	/>
<path class="st8" d="M47.1,32.3c-0.3-0.6-0.6-0.6-1-0.1c-1.5-0.9-0.7-2.1-0.3-3.2c0.2-0.5,0.7-0.9,1-1.3c0.9-1.6,0.6-2.2-1.3-2.3
	c-1-0.1-1.9-0.2-2.3-1.3c-0.3-0.8,0.1-1.2,1.6-1.9c-1-1.3-2.6-0.3-3.7-1.1c-0.2-0.2-0.3-0.3-0.5-0.5c1.1-0.9,2.3-0.4,3.4-0.4
	c1.6,0.1,3.3,0,4.7,1c0.6,0.5,1.1,1.1,1.7,1.6c1.1,0.8,1.3,1.9,1.2,3.2c-0.1,2.7-0.8,3.5-3.5,4c-0.4,0.1-0.8-0.1-1,0.4
	c0.2,0.9,1.4,0.6,1.8,1.3c0,0,0,0,0,0C48.5,32.3,47.9,32.5,47.1,32.3z"/>
<path class="st10" d="M52.6,18.6c0-1.9,0.1-3.8,2.1-4.9c3,0.5,4.3,2.1,3.7,4.6c-0.3,1.5-1.8,2.5-3.9,2.5
	C53,20.8,52.7,19.8,52.6,18.6z"/>
<path class="st11" d="M55.5,65.4c0.7-0.7-0.3-0.9-0.5-1.2c-0.8-1.3-0.7-1.6,1-2.1c1.5,1.2,2.1,3,3.1,4.4c1.4,2,2.8,4.1,4.1,6.1
	c0.2,0.3,0.4,0.7,0.5,1.1c0.1,0.2,0,0.5-0.2,0.6c-0.3,0.3-0.6,0.3-0.9,0.1c-0.3-0.2-0.5-0.4-0.7-0.6C59.8,71.1,57.4,68.4,55.5,65.4z
	"/>
<path class="st12" d="M50.4,114.8c-0.2,0-0.4,0-0.5,0.1c-0.5,0.6,1.5,0.7,0.4,1.6c-0.1,0.1,0.5,0.3,0.8,0.3c1,0.1,2.1-0.3,2.9,0.6
	c-0.2,0.7-0.7,0.7-1.2,0.6c-2.2-0.3-4.5,0-6.5-1.3c-0.3-0.2-0.6-0.3-0.9-0.3c-1.7,0-3-0.8-3.9-2.3c2-1.7,2.1-1.7,4.1-0.4
	c0.8,0.5,1.6,0.7,2.5,0.7C48.9,114.6,49.8,113.9,50.4,114.8z"/>
<path class="st13" d="M13.7,21.3c-0.2,0-0.6,0-0.7,0.1c-0.2,0.3-0.5,3.1-0.5,3.8c-2-0.5-2.2-0.6-1.9-2.3c0.2-0.9-0.1-1.7-0.4-2.5
	c-0.4-1-0.5-2-0.4-3c0-0.8,0.2-1.6,1.2-1.8c0,0.7,1.9-0.1,1,1.3c0,0.1,0.1,0.3,0.2,0.4c1.9,1.7,1.9,1.7,1.5,3.8
	C13.7,21.1,13.7,21.2,13.7,21.3L13.7,21.3z"/>
<path class="st14" d="M21.2,29.7c-0.1,0.3,1.1,0.5,0.2,0.9c-0.4,0.2-0.9,0.3-1.3,0.8c1.3,0.4,2.7-0.2,4.1,0.7
	c-2.9,1.6-5.7,1.6-8.5,1.1c-0.6-0.1-1.2-0.3-1.8-0.5c-0.4-0.1-0.7-0.5-0.6-0.9c0.1-0.4,0.4-0.6,0.9-0.5c0.8,0.1,1.6,0.2,2.4,0.2
	c0.9,0,2.2,0.5,2-1.3c-0.1-0.5,0.5-0.5,0.9-0.4c0.5,0.1,1.1,0.5,1.5-0.1C21,29.6,21.1,29.6,21.2,29.7z"/>
<path class="st15" d="M25.2,23c-0.9-0.9-0.4-2.3-1.4-3.2c-0.4-0.4,0.1-1.3,0.6-1.9c0.7-0.9,1-0.4,1.1,0.7c0.6-1.2-0.4-2.5,0.8-3.2
	c1.1,0.4,1.1,1.3,1,2.2c-0.1,1.3-0.4,2.5-1.1,3.6c-0.1-0.1-0.1-0.8-0.4-0.4C25.5,21.4,25.4,22.3,25.2,23L25.2,23z"/>
<path class="st14" d="M15.4,29.5c0.8-0.1,1.5,0.2,2.3,0.9c-1.2,0.6-2.2,0.1-3.2-0.4C14.6,29.6,15,29.5,15.4,29.5z"/>
<path class="st1" d="M31.6,34c0,0.2,0,0.5,0,0.7c0.3,0.2,0.3,0.5,0.1,0.8c0,0-0.1,0.1-0.1,0.1c-0.5,0.3-0.5,0.7-0.6,1.2
	c0,0.3-0.2,0.6-0.6,0.5c-0.3-0.1-0.3-0.5-0.4-0.8C30.7,35.7,30.8,34.7,31.6,34z"/>
<path class="st16" d="M52,85.6c-0.6,1.3-0.9,2.7-1.9,3.8c-1.1,0.6-2.4-0.2-3.7,0.5c-0.8,0.5-1.1-0.6-1.1-1.4c0-1,0.5-2,0.5-3
	c0.2-1.9,0.4-3.7-0.8-5.5c-0.9-1.3-0.3-3.1-0.4-4.7c-0.1-1.9-0.1-3.9,0.2-5.8c-0.2,1.3-0.1,2.5-0.3,3.8c-0.1,0.4,0.1,0.9-0.2,1.2
	c-2.9,2.6-2,6.3-2.8,9.5l0,0.1c-1.3,0-0.6-1-0.8-1.6c0,1.7-1.4,3-1.3,4.8c-0.3,0.2-0.5,0.4-0.8,0.6c-2.2,0.3-4.7-2-4.7-4.2
	c0-1.6,0.1-3.2,0-4.7c-0.2-0.8,0-1.6,0.3-2.3c1.1-1.5,0.9-3,0.4-4.7c-0.1-1.3,0.1-2.5,1.1-3.5c0.4-1.7,1.4-2.6,3.1-2.7
	c0.6,0,1.2-0.3,1.9-0.4c2.7,0,2.6-0.1,3.6-3.1c0.8-0.2,0.5,0.6,0.8,0.9c1.1,1.2,2.2,2,4.1,1.7c2.5-0.5,3.5,0.6,3.9,3.2
	c0.8,5.7,0.4,11.2-1,16.8C52,84.9,52,85.3,52,85.6z"/>
<path class="st17" d="M42.2,94.3c-1.1,2-1.5,4.2-1,6.4c0.4,2.2,0.3,4.3-0.1,6.4c-0.2,1.3-0.3,2.7-0.2,4c-0.3,0.4-0.4,0.8-0.5,1.3
	c-0.2,0.9,0,2.2-1,2.4c-1.1,0.3-2.3,0.1-3.5,0c-0.6-0.1-0.5-0.9-0.7-1.4c0.1-2.1-0.2-4.2,0.6-6.3c0.6-1.6,1.4-3.1,2.1-4.7
	c0.3-0.6,0.6,0,0.9,0c0.1,0.5,0.4,0.8,0.8,0.5c0.5-0.4,0.8-0.9,0.8-1.6c0-1,0.1-2.1-0.1-3.1c-0.2-1.1-0.7-2.1,0.5-2.9
	c0.1,0,0.1-0.2,0.1-0.2c-0.7-1.8,0.8-3.7-0.3-5.4c-0.4-0.7-0.2-1,0.3-1.3c0.6-0.4,0.8,0.2,1.1,0.6c0.7,1,1,1.9,0.6,3.1
	C42.4,92.9,42.3,93.6,42.2,94.3z"/>
<path class="st18" d="M31.8,35.5c0-0.3-0.1-0.6-0.1-0.8c0.4-0.2,0.8-0.5,1.3-0.6c0.9-0.4,1.6-0.4,2.6,0.3c4,2.7,8.4,2.7,12.9,1
	c0.2-0.1,0.4-0.5,0.6-0.7c0.9,0.3,1.6-0.3,2.2-0.7c0.6-0.4,1-0.3,1.5-0.1c1.1,0.3,1.1,0.7,0.3,1.7c-0.1,0.2-0.1,0.4-0.2,0.7
	c-1.3,0.2-2.3,1.2-3.4,1.7c-2.9,1.4-5.9,1.8-8.9,1.7c-1.1,0-2.6-0.2-3.6-1.1c-0.4-0.4-0.7-0.7-1.4-0.6c-0.5,0.1-1.1-0.2-1.2-0.6
	C33.9,35.9,32.7,36,31.8,35.5z"/>
<path class="st19" d="M34.6,76.6c0,0.6-0.5,1.2-0.2,1.9c-0.6,1.4,0.6,3.1-0.9,4.2c-0.2-0.9,0.3-2-0.3-2.9c-0.9-2,0.6-3.8,0.3-5.5
	c-0.8,4.3-1.1,8.9-1.2,13.6c-0.1,0-0.3,0-0.4,0.1c-0.6-0.3-1.1-0.8-1.1-1.5c0-1.8-0.9-3.4-0.4-5.3c0.4-1.3,0.1-2.9,0.4-4.3
	c0.4-2.2,0.9-4.3,1.6-6.5c0.3-0.9,0.5-1.8,0.2-2.8c-0.2-0.9,0-1.6,0.9-1.8c0.4-0.1,0.9,0.1,1.4,0.3c0.6,0.2,0.3,0.8,0.4,1.2
	c0.1,0.3,0.1,0.6,0.4,0.8c0,1.3-0.7,2.5-0.6,3.8C35,73.7,35.3,75.2,34.6,76.6z"/>
<path class="st20" d="M46.4,40.1c0.4,4,0.2,7.6-0.6,11.3c-0.4,1.9-0.4,1.9-2.4,2c-0.2,0-0.5,0.1-0.7,0.1c-0.1,0-0.1-0.1-0.4-0.3
	c0-0.9-0.1-2,0.1-3.1c0.3-2.4,0.5-4.7,0.3-7.1c-0.2-2.5,0-2.5,2.4-2.8C45.4,40.2,45.8,40.2,46.4,40.1z"/>
<path class="st21" d="M33.7,113c-0.5,0.4-1.4,0.6-1.3,1.3c0.2,2-1.1,2.4-2.8,2.4c0.1,0.8,1.1,0.8,1,1.5c-0.1,0.6-0.6,0.9-1,1.3
	c-1.7,1.6-3.6,2.4-6.1,1.8c0.1-1.3,1.1-1.9,1.8-2.7c1.4-1.5,2.8-2.9,4.4-4.1c0.7-0.5,0.2-1,0.3-1.4C31.2,113,32.4,113,33.7,113z"/>
<path class="st22" d="M48.8,58.1c0.8,0.1,1.5,0,1.9-0.7c0.5-0.8,0.9-1.5,2-0.9c1.1,0.6,2.4,1,2.4,2.6c0,0.5-0.1,0.9-0.2,1.4
	c-1.7,1.4-3.2,0.1-4.6-0.4c-0.5-0.2-1.2-0.7-1.7-1.2C48.4,58.7,48.6,58.4,48.8,58.1z"/>
<path class="st23" d="M40.7,57.1c-1.1-0.1-2.2-0.2-3.3-0.3c-0.7-0.1-1.2-0.3-1.6-0.9c-0.3-0.5-0.4-1.1-0.1-1.6
	c0.3-0.5,0.9-0.4,1.3-0.2c1.3,0.5,2.7,0.5,4,0.5c0.6,0,1,0.1,1.2,0.8C42.5,56.9,42.3,57.3,40.7,57.1z"/>
<path class="st24" d="M53.6,46.2c0.1,0.4,0.4,0.8,0.3,1.1c-0.8,2.1-1.5,4.2-2.7,6.2c-0.2,0.3-0.6,0.1-0.8-0.2c0.4-2.2,1-4.3,2.2-6.2
	C52.9,46.7,53,46.2,53.6,46.2z"/>
<path class="st25" d="M49.9,53.8c-0.5,0.7-1.7,0.7-1.5,1.9c-0.3,0.2-0.6,0.5-0.9,0.7c-0.5,0.2-1.2,0.4-1.4-0.3
	c-0.2-0.6-0.4-1.5,0.2-1.7C47.5,54,48.6,53.2,49.9,53.8z"/>
<path class="st26" d="M45.5,55.9C45.4,56.6,45,57,44.3,57c-0.8,0-1.3-0.6-1.4-1.3c-0.2-0.6,0.6-1.4,1.3-1.3
	C44.8,54.4,45.5,55.2,45.5,55.9z"/>
<path class="st5" d="M32.1,38.5c1.7,2.1,0.3,4.2-0.1,6.3c0,0-0.2-0.1-0.2-0.1c-2-2.1-0.2-4.1,0.2-6.1L32.1,38.5z"/>
<path class="st25" d="M48.8,55.7c0.9-0.7,1.3,0.1,1.5,0.7c0.2,0.6-0.4,0.7-0.9,0.7C49.2,56.7,49,56.2,48.8,55.7z"/>
<path class="st27" d="M41.6,83.8c0-2.3,0.1-4.6,0.1-6.9c0-0.7,0.2-1.4,0.9-1.6c1.4-0.4,1.3-1.4,1.4-2.6c0.3-1.8,0-3.8,1.2-5.4
	c0.6,0.2,0.5,0.7,0.5,1c-0.6,2.7-0.6,5.5-0.2,8.3c0.1,0.6-0.1,1.1-0.2,1.6c-0.2,0.8,0,1.8,0.7,2.1c1.1,0.6,1,1.4,0.9,2.2
	c-0.2,1.8-0.3,3.6-0.9,5.4c-0.1,0.5-0.2,0.9,0.1,1.4c0.9,0.2,1-1.2,1.9-1.1c0.8,0.1,1.3,1,2.2,1c-1.2,2.2-2.6,2.7-4.6,1.4
	c-0.7-0.5-0.9-1.2-0.9-1.8c0.1-0.9,0.4-1.7,0.6-2.5c0.3-1-1.1-1.3-0.9-2.3c0.4-1.7-0.1-3.4-0.3-5.2c0-0.1-0.2-0.2-0.5-0.7
	c0.3,1.8-1.6,2.4-1.2,4.1C42.4,82.6,42.2,83.4,41.6,83.8z"/>
<path class="st27" d="M33.5,82.7c0.9-1.3,0-3,0.9-4.2c0.3,0.2,0.5,0.4,0.4,0.7c-0.8,1.6,0,3.3-0.4,4.9c-0.1,0.4,0.1,0.8,0.6,0.7
	c0.6,0,0.9,0.5,0.9,0.9c0.2,1.7,1.3,2,2.7,2c-2.4,1.3-4.8,0.1-5.2-2.6C33.4,84.3,33.5,83.5,33.5,82.7z"/>
<path class="st28" d="M32.3,88c-0.8-4,0-7.9,0.5-11.8c0.1-0.9,0.4-1.8,0.6-3c0.5,2.5-0.3,4.5-0.3,6.6c-0.3,2.7-0.5,5.3-0.1,8
	C33.2,88.9,32.6,88.3,32.3,88z"/>
<path class="st27" d="M39.5,87.1c-0.4-0.2-0.7-0.5-1.2-0.8c1.4-1.3,2-3,2.6-5c0.5,0.9-0.1,2,0.7,2.6C41.5,86.4,41.5,86.4,39.5,87.1z
	"/>
<path class="st29" d="M37.2,92c-1.8,0.6-3.6,0.7-5.8-0.7C33.8,90.6,35.5,91.2,37.2,92z"/>
<path class="st30" d="M50.4,93.2c-0.4,1.3-1.4,1.6-2.6,1.5c-1.2-0.1-2.4-0.1-3.5-1.4C46.6,93.7,48.5,93.8,50.4,93.2L50.4,93.2z"/>
<path class="st30" d="M50.5,93.2c0-0.6-1.1-0.9-0.4-1.6c0.2-0.2,0.5-0.2,0.6-0.1C51.2,92.2,51,92.7,50.5,93.2
	C50.4,93.2,50.5,93.2,50.5,93.2z"/>
<path class="st31" d="M29.6,121c1.4-1.5,2.4-2.7,3.9-3.4c1.2-0.6,1.8-2,3.4-1.9c0.8,0.1,1.5-0.1,2.2,0.6c0.7,0.7,1.7,1.1,2.6,1.1
	c2.7,0.1,5.1,1.2,7.7,1.6c1.7,0.3,3.3,0.1,4.9-0.5c1-0.4,1.1-0.7,0.3-1.5c-0.2-0.2-0.4-0.3-0.6-0.5c-0.2-0.1-0.3-0.3-0.7-0.6
	c1.2-0.4,2.2-0.5,3.3-0.4c3.7,0.1,7.3,0.1,11,0.2c2.2,0,2.3,0.2,2.4,2.3c0,0.2,0,0.5,0,0.7c-0.1,2.3-0.1,2.2-2.3,2.3
	c-6.8,0.2-13.6,0.1-20.3,0c-4.9-0.1-9.7,0.4-14.6,0.1C31.9,121.1,31,121.1,29.6,121z"/>
<path class="st32" d="M26,116.1c-1.5,1.5-2.9,2.8-3.9,4.4c-0.4,0.6-1.1,0.6-1.7,0.6c-2.3,0.1-4.7,0-7,0c-0.6,0-0.9-0.3-0.9-0.9
	c-0.1-1-0.2-2-0.2-3.1c0.1-1.1,0.8-1.4,1.8-1.4c2.5,0.1,4.9,0,7.4,0.2C22.8,116.2,24.2,115.3,26,116.1z"/>
<path class="st33" d="M31.9,38.6c0,1.3,0.4,2.6-0.5,3.8c-0.5,0.6,0.2,1.5,0.3,2.2c-0.2,0.2-0.5,0.5-0.8,0.1c-0.3-0.4-0.5-1-1.2-1.3
	c-0.6,0.9,0.4,1.5,0.3,2.4c-1.2-0.1-1.8,0.9-2.2,1.8c-0.8,2-2.9,1.7-4.1,2.9c-0.2,0.2-0.6,0.1-0.9-0.2c-1.2-1.6-2.7-3-3.2-5.1
	c-0.2-1,1.3-3,2.4-3c0.1,0,0.4,0.1,0.4,0.2c1,2.6,2.8,1,4.6,1c-1.3-1.3-0.5-1.9,0.5-2.2c0.7-0.2,1.3,0,0.9-1.3
	C28.1,38.6,30.1,37.8,31.9,38.6z"/>
<path class="st34" d="M15.7,36.8c0-0.6-0.4-1-0.7-1.5c-0.2-0.4-0.4-0.8-0.7-1.5c1.6,0.6,3.2-0.2,4.1,1.6c0.3,0.6,0.8,0.2,1.2,0
	c0.1-0.1,0.3-0.2,0.2-0.4c-0.1-0.3-0.3-0.2-0.5-0.1c-0.3,0.1-0.7,0-0.6-0.5c0-0.4,0.4-0.4,0.7-0.5c0.7-0.2,1,0.8,1.7,0.6
	c0.5-0.2,0.8-1.1,1.7-0.6c-0.3,1.2-0.8,2.4-1.8,3.2c-1,0.8-2.2,1-3.4,0.5C17.1,37.2,16.5,36.7,15.7,36.8
	C15.7,36.7,15.7,36.8,15.7,36.8z"/>
<path class="st35" d="M22.3,39.5c-0.2,1.7-1.5,1.9-2.6,2c-1.1,0.2-2.3,0.3-2.7-1.2C18.7,39.7,20.5,39.7,22.3,39.5z"/>
<path class="st34" d="M22.6,37.5c-2.1,1.7-3.5,2-6.6,1.4c-0.1-0.5,0.3-0.8,0.6-0.8C18.7,38.4,20.6,38.2,22.6,37.5z"/>
<path class="st36" d="M17.8,16.6c-1.4,0.3-2.6-0.4-3.9-0.7c-0.8-0.2-0.9-0.8-0.2-1.4c0.2-0.2,0.5-0.4,0.8-0.5
	c2.6-0.5,5.1-1.1,7.7-0.4c0.3,0.1,0.6,0.2,0.9,0.3c0.4,0.2,0.8,0.5,0.8,1.1c0,0.6-0.5,0.8-0.9,1C21.3,16.5,19.6,16.8,17.8,16.6z"/>
<path class="st37" d="M13.7,21.3c0.8,0.1,1.7-0.1,2.5,0.3c0.3-0.1,0.6-0.2,0.9-0.2c1,0,2,0,2.9,0c0.1,0,0.2,0,0.3,0.1
	c0.6,0,1.1,0.1,1.7,0.1c0.9,0.1,1.2,0.6,1.2,1.4c0,0.9-0.7,0.9-1.4,0.9c-2,0-4,0.1-6.1,0.1C13.6,24.1,13.1,23.5,13.7,21.3
	C13.7,21.3,13.7,21.3,13.7,21.3z"/>
<path class="st38" d="M14.2,17.2c3.1,0.5,6,0.7,9-0.3c0.4,1.5-0.5,2.1-1.5,2.5c-1.9,0.8-3.9,0.6-5.9,0.4
	C14.5,19.6,14.6,18.2,14.2,17.2z"/>
<path class="st39" d="M16.7,21.7c-0.2,0-0.3-0.1-0.4-0.1c-0.1-0.9-1.1-0.4-1.6-1.1c2.7-0.1,5.3,0.4,8-0.6c-0.3,1.5-1.8,0.7-2.2,1.6
	c0,0,0,0,0,0C19.2,22,17.9,21.4,16.7,21.7z"/>
<path class="st40" d="M25.2,23c0.4,0,0.8,0,0.9,0.5c0.1,0.3,0,0.7-0.3,0.8c-0.6,0.2-0.6-0.3-0.7-0.6C25.1,23.5,25.2,23.2,25.2,23
	C25.2,23,25.2,23,25.2,23z"/>
<path class="st41" d="M47.1,32.3c0.5-0.5,1.2-0.7,1.9-0.5c0.2,0.6,1,0.5,1.3,1.2c-0.1,0.7-1.2,0.8-1.3,1.7c-0.4-0.1-0.9-0.4-1.1-0.2
	c-1.8,1.4-4.1,1.1-6.1,1.2c-2.1,0.1-4.1-0.8-5.8-2.2c-0.2-0.1-0.3-0.4-0.1-0.6c0.1-0.2,0.4-0.3,0.6-0.3c1.2-0.1,2.4,0.1,3.5,0.5
	c2.3,1,4.6,0.6,6.9-0.1C46.9,32.8,47,32.5,47.1,32.3z"/>
<path class="st42" d="M54.2,55.8c-2.5-0.5-2.6-0.6-1.6-2.7c0.7-1.5,1.2-3.2,2.1-4.7c0.5-0.8,1.2-1.3,2.2-1.2c0.6,0,1.2,0,1.5,0.5
	c0.3,0.6-0.7,0.9-0.6,1c0.6,1.6-0.7,2.1-1.6,2.9c-0.3,0.2-0.7,0.8-0.6,0.9C57.2,54.7,55,55,54.2,55.8L54.2,55.8z"/>
<path class="st43" d="M57.8,44.6c0.1,0.1,0.2,0.2,0.3,0.2c0.6,0.1,1.5,0.2,1.4,1c-0.1,0.8-1.1,0.6-1.6,0.5c-0.9-0.1-1.8,0.7-2.5,0
	c-0.5-0.5-0.1-1.5-0.5-2.2c-0.3-0.4-0.4-0.9-0.3-1.4c0.2-0.8,0.9-1.5,0.6-2.5c-0.2-0.7-0.3-1.5-0.5-2.4c0.9,0.2,1.3,0.8,1.6,1.4
	c0.8,1.4,1.3,2.9,2.2,4.2C59.4,44.8,57.9,44.2,57.8,44.6z"/>
<path class="st42" d="M54.2,55.9c0.2,0,0.5,0,0.7,0c0.3,0,0.7,0.2,0.5,0.6c-0.2,0.4-0.5,0.1-0.8-0.1C54.4,56.3,54.3,56,54.2,55.9
	C54.2,55.8,54.2,55.9,54.2,55.9z"/>
<path class="st44" d="M41.1,21c2.8-0.7,2.9-0.6,5,1.3c-0.5,0.6-1.2,0.1-1.8,0.4c-0.5,0.2-0.8,0.5-0.8,1c0,0.6,0.4,0.8,1,0.8
	c0.4,0,0.8,0.4,1.4,0.1c0.5-0.2,1.3-0.8,1.6,0c0.3,0.7,0.9,1.6,0.3,2.5c-0.4,0.6-0.7,1.3-1.2,1.8c-1,1-0.8,2.1-0.5,3.3
	c-1.2,0.7-2.3,0.5-3.6,0.2c0.1-1,1.2-0.5,1.4-1.2c0.1-0.2,0-0.3-0.2-0.4c-2.9-0.4-4.6-2-4.8-4.4c-0.1-1.2,0.5-1.8,1.7-1.6
	c0.5,0.1,0.9,0.3,1.3,0.1c0.7-0.3,0.7-0.8,0.5-1.4c-0.2-0.4-0.5-0.5-0.9-0.1c-1,0.8-1.5-0.1-2.1-0.6C39.6,21.8,40.6,21.6,41.1,21z"
	/>
<path class="st44" d="M41.1,32.4c-0.1-0.1-0.3-0.1-0.4-0.2c0.1,0,0.3-0.1,0.4-0.1c0.1,0,0.3,0.1,0.4,0.2
	C41.3,32.3,41.2,32.4,41.1,32.4z"/>
<path class="st7" d="M12.1,19.5c-0.1-0.1-0.2-0.3-0.2-0.4c0-0.1,0.1-0.3,0.2-0.4c0.1,0.1,0.2,0.3,0.2,0.4
	C12.2,19.2,12.1,19.4,12.1,19.5z"/>
<path class="st27" d="M34.6,76.6c0-1.5-0.4-3,0.5-4.4C36.1,73.8,35.8,75.2,34.6,76.6z"/>
<path class="st7" d="M16.7,21.7c1.2-0.5,2.5-0.1,3.8-0.2C19.2,22.4,17.9,21.5,16.7,21.7z"/>
</svg>
