<?xml version="1.0" encoding="utf-8"?>
<!-- Generator: Adobe Illustrator 23.1.1, SVG Export Plug-In . SVG Version: 6.00 Build 0)  -->
<svg version="1.1" id="Livello_1" xmlns="http://www.w3.org/2000/svg" xmlns:xlink="http://www.w3.org/1999/xlink" x="0px" y="0px"
	 viewBox="0 0 80 135" style="enable-background:new 0 0 80 135;" xml:space="preserve">
<style type="text/css">
	.st0{fill:#FFFFFF;stroke:#000000;stroke-width:0.2509;stroke-miterlimit:10;}
	.st1{fill:#363D30;}
	.st2{fill:#4D443E;}
	.st3{fill:#594438;}
	.st4{fill:#DB4E4C;}
	.st5{fill:#D84949;}
	.st6{fill:#AD6E43;}
	.st7{fill:#5E5043;}
	.st8{fill:#DCA778;}
	.st9{fill:#A3826C;}
	.st10{fill:#744E44;}
	.st11{fill:#525442;}
	.st12{fill:#A08067;}
	.st13{fill:#DA9B58;}
	.st14{fill:#B5825A;}
	.st15{fill:#963230;}
	.st16{fill:#CFD3C8;}
	.st17{fill:#DD4844;}
	.st18{fill:#A18466;}
	.st19{fill:#BEB441;}
	.st20{fill:#574D48;}
	.st21{fill:#B05947;}
	.st22{fill:#DD5E62;}
	.st23{fill:#BF9575;}
	.st24{fill:#9F856F;}
	.st25{fill:#A97B63;}
	.st26{fill:#D5A86E;}
	.st27{fill:#7C5F4E;}
	.st28{fill:#F6C062;}
	.st29{fill:#EA9D54;}
	.st30{fill:#41231B;}
	.st31{fill:#F6A84B;}
	.st32{fill:#C18B5C;}
	.st33{fill:#C1AB3C;}
	.st34{fill:#F6EA31;}
	.st35{fill:#EC4132;}
	.st36{fill:#D7BA3A;}
	.st37{fill:#B8983A;}
	.st38{fill:#EC4035;}
	.st39{fill:#9A8239;}
	.st40{fill:#806148;}
	.st41{fill:#9E3227;}
	.st42{fill:#988738;}
	.st43{fill:#777A74;}
	.st44{fill:#D79F5F;}
	.st45{fill:#A29242;}
	.st46{fill:#EA974D;}
	.st47{fill:#D08C56;}
	.st48{fill:#B7743E;}
	.st49{fill:#903D32;}
	.st50{fill:#B28458;}
	.st51{fill:#877163;}
	.st52{fill:#D08F59;}
	.st53{fill:#F1F2F0;}
	.st54{fill:#CDA268;}
	.st55{fill:#C4815E;}
	.st56{fill:#EFAE55;}
	.st57{fill:#9C673E;}
	.st58{fill:#E2E0DA;}
	.st59{fill:#DDDBD4;}
	.st60{fill:#8B2C29;}
	.st61{fill:#7B2621;}
	.st62{fill:#6D2A29;}
	.st63{fill:#F2BD6B;}
	.st64{fill:#A98A6E;}
	.st65{fill:#E5423A;}
	.st66{fill:#9D3126;}
	.st67{fill:#8B3A2C;}
</style>
<path class="st0" d="M71.5,135h-63c-4.7,0-8.5-3.8-8.5-8.5V8.5C0,3.8,3.8,0,8.5,0h63C76.2,0,80,3.8,80,8.5v118
	C80,131.2,76.2,135,71.5,135z"/>
<path class="st1" d="M18.3,56.6c1.5,0,3-0.2,4.5,0c1.3,0.1,1.9-0.4,2.5-1.4c1.7-2.8,2.8-5.9,2.9-9.2c0-1.1-0.6-2-0.9-2.9
	c-0.7-2.1-1.4-4.2-3.6-5.4c-0.9-0.5-1.5-1.5-1.7-2.5c-0.2-1.2-0.9-2.2-1.6-3.2c0.9-1.4,2-0.7,3.1-0.3c0.5,0.2,1.1,0.5,1.5-0.2
	c0.1-0.2,0-0.6-0.3-0.6c-0.6-0.1-1.1-0.9-1.8-0.4c-1.6,1.3-2.9,0.9-4-0.7c-0.1-0.4-0.2-1,0.2-1c1.9,0,2.5-1.8,3.8-2.6
	c1.3,0.3,1.4,2.6,3.3,2c1.1,1.5,2.3,1.1,3.5,0.3c0.2,1.1,1,2.1,0.9,3.3c-0.4,0.3-0.7,0.7-0.6,1.2c0.4,1.9-0.1,3.4-1.7,4.6
	c-0.6,0.4-0.7,1.1-0.4,1.7c0.3,1,0.4,2.1,1,2.9c0.7,1.1,1.2,2.9,2.8,2.6c1.3-0.3,0.5-2,0.7-3.1c0.4-3.3-0.3-6.6-0.6-9.9
	c2.5-1.2,5.2-1.1,7.8-0.6c0.2,0.2,0.3,0.4,0.4,0.6c-0.1,3.3-0.3,6.6-0.1,10.2c4-3.3,5.5-7.1,3.6-11.8c0-0.1,0.1-0.2,0.1-0.3
	c1.6,0.2,2.3,1.5,3,2.7c0.8,1.4,1.6,2.9,2.3,4.3c0.3,0.6,0.7,0.8,1.3,0.7c0.2-0.1,0.4,0,0.5,0.1c0.1,0.2,0,0.4-0.1,0.6
	c-0.3,0.3-0.6,0.6-1,0.9c-0.6,0.9-2.2,1.2-1.4,3c0.3,0.8-1.1,1.6-1.8,2.3c-0.8,0.8-1.5,1.5-1.2,2.6c2.4-0.3,2.8,0.1,1.9,2.3
	c-0.3,0.6,0,1.1,0.1,1.6c0,0.7-0.4,1-1,1.2c-1.1-0.2-1.8,0-2.6,1c-1.2,1.5-2.2,3.3-3.5,4.8c-0.6,0.5-1.2,1.1-1.9,1.4
	c-0.9,0.3-1.8,0.4-2.8,0.4c-2.2-0.3-4.5-0.8-6.7-0.7c-0.8-0.1-1.3,0.5-1.9,0.9c-1.1-0.1-1.4-1.5-2.5-1.6c-0.2-0.1-0.4-0.2-0.5-0.3
	c-1.6,0-1,1-0.8,1.7c0.2,0.9,1.1,1.6,0.7,2.6c-0.2,0.3-0.4,0.6-0.6,0.9c-0.5,3.1-0.9,6.3,0.1,9.4c2.2,0.9,4.4,0.3,6.6,0.5
	c1,0.1,2.1,0,3.1,0.1c1.3,0.2,1.5,1.5,2.4,2.1c0.4,0.4,0.8,0.7,1.3,1c0.9,0.5,2.1,0.1,2.9,1c0,0.9-1.8,0.9-1.3,2.2
	c0.2,0.7,0.4,1.3,0.3,2.1c-0.3,1.3-0.9,2.1-2.2,0.9c-0.6-2.9-1.9-4.7-5.3-3.5c-0.6,0.2-1.5-0.1-2.3,0.2c0,0.5,0.8,0.8,0.8,1.4
	c-1,1.4-1.9,0.9-2.7-0.2c-0.4-0.5-0.2-1.4-1-1.7c-1-0.3-2-0.6-3-0.3c-5,0-5.3-0.2-5.7-5c-0.3-3.8-0.3-7.6,0.1-11.4
	C18.1,60.5,17,58.3,18.3,56.6z"/>
<path class="st2" d="M37.8,79.9c-0.4-1.8-0.4-1.8,1.4-2.2c-0.9-0.6-2.1,0.2-2.9-0.7c0.2-0.3,0.4-0.5,0.8-0.5c1.9-0.1,2.4-1.2,2-2.9
	c-0.1-0.4-0.1-0.8,0.2-1.1c0.1-0.4,1.4,1.2,0.9-0.5c-0.2-0.6,0.1-1.3,0.9-1.3c0.2,0.2,0.3,0.4,0.4,0.6c0.2,2.5,0.4,4.9,0.7,7.4
	c0.2,2.4,1.2,4.1,3.7,4.6c2.7,1,2.7,1,3.8-1.5c0.5-1,0.9-2.3,2.4-2.4c1.5,0.8,0.7,2.3,1.1,3.4c0.9-2.4,1-2.4,2.4-0.8
	c1.4-2.6-0.1-5.4,0.5-8.1c0.1-0.2,0.2-0.4,0.3-0.6c1.4,0,1.1,1.3,1.4,2c0.4,1.1,0,2.4,1,3.9c0.8-1.8,2.2-2.9,2-4.9
	c-0.1-1.9-0.8-3.7-0.9-5.6c-0.1-2.2-0.8-2.4-2.8-1.3c-0.3,0.2-0.6,0.3-0.9,0.3c-1.6-0.7-1.6-2.7-3.1-3.6c-0.1-2.4,1.4-4.5,1.8-6.8
	c0.1-0.6,0.3-1.1,1-1.2c0.8,0,1.4,0.3,1.3,1.3c0,0.2-0.1,0.4,0,0.5c1.7,1.4,2.2,3.4,2.7,5.4c0.4,1.5,1.7,2.8,1.8,4.4
	c0.3,2.5,1.1,5,1.1,7.6c0,0.8,0.1,1.6,0.8,2.2c1.8,1.7,3.3,3.7,5,5.5c0.8,0.9,1.7,1.7,2.7,2.4c1.7,1.2,2.3,2.8,2,4.8
	c-0.1,0.9-0.2,1.7-0.3,2.6c-1-0.7-2.6-0.7-2.7-2.4c-1.2-1.9-2.6-3.5-5-4.2c-2.2-0.6-4.3-1.7-6.6-2.1c-0.9-0.2-1.6-0.1-2.5,0.2
	c-1.5,0.6-3.2,1.1-4.9,0.9c-0.8-0.1-1.2,0.3-1.3,1.1c-0.1,0.7-0.2,1.4-0.1,2.1c1,6.9,2.2,13.7,4.6,20.2c0.4,1.2,1,2.3,1.7,3.4
	c1.1,0.7,2.9,0.3,2.4,2.8c-0.3,1.6,2.1,3,3.9,2.8c1-0.1,2.1-0.1,3.1-0.4c0.9-0.3,1.7,0.1,1.8,1c0.1,0.9-0.8,0.9-1.4,1
	c-2,0.3-4.1,0.6-6.2,0.6c-0.8-0.1-1.1-0.8-1.5-1.3c-0.8-0.7-0.8-2.4-2.5-2c-0.7,0.5-0.2,1.1-0.2,1.7c0,0.2-0.1,0.4-0.3,0.6
	c-0.4,0.4-0.8,0.5-1.3,0.6c-2.3,0.2-4.5,0.6-6.8,0.5c-1.1,0-2.3-0.1-2.6-1.5c0-0.2,0.1-0.5,0.2-0.7c1.7,0.1,3.3,0.1,5,0
	c0.8,0,2.1,0.5,2.1-0.8c0-1.1,0.8-2.6-0.6-3.6c-0.5-0.3-1.3-0.4-1.3-1.3c1.3-0.9,1.3-2,0.7-3.3c-0.8-1.7-1.7-3.4-2.6-5.1
	c-2.4-4.7-4.4-9.6-7.3-14c-2.2-3.4-5.7-5-9.4-6.1c-0.9-0.3-1.5,0.4-2.1,1c-2.4,2.4-5.1,4.2-8.2,5.6c-2.7,1.2-3.7,3.7-3.8,6.6
	c-0.4,0.7-1.5,1.1-1,2.2c0.1,0.3-0.2,0.8,0.1,0.7c2.4-0.3,2.1,1.8,2.6,3c0.8,1.8,2.2,3.3,2.8,5.2c0.5,1.4,1.2,0.3,1.8,0.3
	c1.2,1,1.1,2.8,2.3,3.7c0.8,0.8,1.7,1.1,2.8,1.2c0.7,0,1.4,0.2,1.9,0.8c0.3,0.3,0.4,0.7,0.2,1.1c-0.2,0.3-0.5,0.4-0.8,0.2
	c-1.4-0.6-2.3,0.3-3.3,1.1c-1.9,1.5-4,0.2-5.9-0.4c-1.3-0.4-1.3-1.8-1.1-3.1c0.5-1.1,0.8-2.2-0.3-3.3c-1-1-0.6-2.3-1-3.5
	c-0.2-0.3-0.2,0-0.2,0.1c0.8,0.9,0,1.8,0.1,2.7c0,0.6-0.1,1.1-0.4,1.6c-0.2,0.3-0.5,0.5-0.8,0.4c-0.3-0.1-0.5-0.3-0.6-0.7
	c-0.2-1,0.1-2.1,0.2-3.1c0.3-2.9-0.7-5-2.7-6c-0.3-1.1-0.6-2.2-1.4-3.2c-1.6-2.2-1.2-4.8-1.5-7.3c0-0.3,0.1-0.6,0.4-0.8
	c1.1-1.2,0.7-2.4,0.1-3.7c-0.2,2.7-0.8,5.3-1.9,7.8c-2.1-1.1-2-3.4-0.2-5c0.7-0.6,0.2-2.2,0.6-3.2c0,0,0,0,0,0.1
	c-1.2,1.1-1.3-0.2-1.5-0.8c-0.4-1.8-0.8-3.6-1.1-5.4c0-1.4-1.3-2.7,0-4.1c0.9-0.1,1.3,0.5,1.5,1.2c0.7,2.1,2,3.7,3.2,5.4
	c0.4,0.7,1,1.2,1.5,1.8c1.1,1.2,1.7,2.5,0.8,4.1c-0.2,0.3-0.3,0.7-0.4,1.1c-0.1,1-0.1,2.2,1,2.4c1.1,0.3,1.8-0.8,1.9-1.7
	c0.2-1.7,1.1-2.3,2.6-3.2c1.4-0.8,2.9-2,3.9-3.5c0.5-0.8,1-1.4,2-1.2c0.2-0.1,0.1,0.3,0.3,0.2c-0.1-0.1-0.2-0.2-0.3-0.3
	c-0.5-1.2-0.2-2.3,0.2-3.4c0.8,0,1.2,0.2,1.2,1.2c0,1.7,0.3,1.8,2.2,1.2c2.6-0.3,4.7,1.2,7.2,1.5c1.1,0.9,1.1,0.9,1.5-0.5
	c1.7,0.4,0.4,2.2,1.5,2.9c0,0.1-0.1,0.2-0.1,0.4c0.1-0.1,0.2-0.2,0.3-0.3c0.7-0.4,1.3-0.2,2,0c-1.5-0.5-2.9-0.8-1.9-3
	C40.5,80.2,38.6,80.4,37.8,79.9z"/>
<path class="st3" d="M60.8,35c1.6-0.3,3.2-0.1,4.7,0.2c1.5,0.4,2.9,0.5,4.1-0.8c0.9,0.7,0.6,1.7,0.8,2.5c0.2,0.7,0.6,1.1,1.4,0.6
	c0.7-0.5,1.3-1.2,2.3-1.1c0.7,1.1-1.2,2.1,0,3.2c0,0.9-0.9,0.4-1.3,0.8c0.4,1,2.6,1.7,0.9,3.4c0.4,3.1-0.8,5.7-2.5,8.1
	c-0.1-0.1-0.2-0.2-0.2-0.3c-0.4-1-0.2-2,0.2-2.8c1.3-2,0.1-2.9-1.5-3.8c-0.7-0.4-1.9-0.6-1.4-1.8c0.6-1.3,1.7-1.1,2.8-0.4
	c0-0.3-0.1-0.5-0.3-0.6c-0.8-0.4-0.9-2-2.1-1.5c-1.1,0.4-0.5,1.5-0.5,2.3c0,0.6-0.2,1.1-0.5,1.5c-0.7,1-0.9,2,0.3,2.9
	c0.9,0.6,1,1.4,0.6,2.3c-0.4,0.8-1,1.2-1.9,1.1c-0.7-0.1-1.5-0.3-1.6,0.8c-0.1,0.8,0.3,1.6,1.1,2c0.8,0.4,1.8,0.2,2.4,1
	c0.3,1.2-0.6,1.5-1.4,1.8c-0.9,0.4-1.6,1-2.1,1.8c-0.6,0.9-0.5,1.9,0.2,2.6c0.9,0.9,1.5,0.1,2.2-0.5c0.9-0.8,1.6-1.8,3-1.6
	c-0.1,0.4-0.1,0.8-0.2,1.2c-1,3-3.3,4.1-6.3,2.9c-1.2-0.5-2.1-2.1-1.9-3.7c0.1-0.8,0.6-1.8-0.9-1.9c-0.3-0.5-0.9-0.7-1.4-1.1
	c-0.6-0.5-1.2-1.5-2-0.1c-1.4,0.1-2.8-0.1-3.8-1.2c-0.1-0.2-0.1-0.4,0.1-0.6c2.8-1.2,3.2-4,4-6.4c0.3-1,0.4-2.2,0.6-3.3
	c0-0.2,0.1-0.4,0.2-0.6c0.6-1.9,2.6-1.1,3.8-1.9c-0.2-0.9-1.2-0.7-1.6-1.3c-1.3-1-2.6-0.8-4-0.1c-0.6,0.3-1.1,0.7-1.7,0.9
	c-0.6,0.2-1.2,0.7-1.7,0c-0.4-0.5,0.2-1,0.4-1.5c1.3-3,3.8-3.4,6.7-3.3c2.9,2,3.8,2,6.2-0.2c0.1,0,0.3,0.1,0.4,0.2
	c-0.1-0.1-0.3-0.2-0.5-0.3c-1.5-0.1-3-0.6-4.5-0.8C61.5,36,60.7,36,60.8,35z"/>
<path class="st4" d="M20.5,112.9c0,0.6,0,1.1,0.1,1.7c0,0.5,0.4,1.1,0.7,1.1c1.6-0.1,3,0.9,4.5,0.9c0.4,0,0.8-0.4,1.2-0.7
	c0.6-0.5,0.2-1.8,1.6-1.6c0.8,0.1,1.5,0.2,2.3,1c-0.3-1.3-1-1.5-1.7-1.3c-1.4,0.3-2.4-0.4-3.3-1.3c0.5-1.1,1.6-0.9,2.5-0.9
	c6.1-0.1,12.2,0.3,18.3-0.3c1.2-0.1,2.6-0.2,3.6,0.8c1,0.4,2.4,0.4,2.7,1.9c0.1,0.5,0.4,0.9-0.1,1.3c-0.4,0.3-0.4,0.5-0.3,1
	c0.4,2,0.4,2-1.4,2c-1.4,0-2.8-0.2-4.3,0.1c-0.8,0.1-1.4-0.3-2-0.7c-0.1-0.1-0.2-0.3-0.3-0.4c0.1,0.1,0.2,0.3,0.3,0.4
	c0.1,1.3,1,1.5,2,1.4c2.5-0.1,5-0.2,7.5-0.3c0.5,0.3,0.8,0.7,0.2,1.1c-0.7,0.4-1.5,0.5-2.3,0.5c-9.2,0-18.3,0.4-27.5,0.4
	c-4.1,0-8.3,0.1-12.4,0.1c-0.9,0-1.7-0.2-2.4-0.8c-0.2,0-0.2-0.1-0.2-0.3c-0.3-0.9-0.9-1.6-1.7-2.2c-1.3-1.4-2.4-2.9-3.6-4.7
	c3.2-0.4,6.1-0.6,9.1-0.4c0.4,0.2,0.8-0.1,1.2,0c0.7,0.1,1.6,0.3,1.6,1.1c0,0.9-1,0.8-1.7,0.9c-1.5,0.1-3,0-4.5,0
	c-0.5,0-1.2-0.2-1.5,0.4c-0.2,0.5,0.4,0.8,0.6,1.2c1.5,3.3,4.5,3.1,7.4,2.9c1.4-0.1,2.8-0.4,4.6-0.1c-1-1.7-1.8-3.1-3.1-4
	c-1.9-1.3-1.2-2.1,0.4-2.8C19.4,112.3,20,112.2,20.5,112.9z"/>
<path class="st5" d="M59.8,119.5c1.9-0.9,4.1-0.4,6.1-0.8c0.4-0.1,0.8,0,1.2,0c0.1-0.8-0.4-1.4-0.8-1.1c-1.6,1.1-3.4,0.3-5,0.9
	c-0.6,0.2-1.1-0.4-1.6-0.9c-0.8-0.9-1.1-2.1-2.1-2.9c-0.5-0.4-0.2-0.8,1.2-1.4c-1.3,0.1-2.2-0.1-2.5-1.2c5.1-0.4,10.2-0.1,15.3-0.3
	c0.8,0,1.4,0.3,1.8,0.9c1.2,1.7,2.6,3.2,3.6,5c0.4,0.5,0.6,1.1,1,1.5l0,0c-0.2,1.1-1.1,0.9-1.9,1c-5,0.1-10,0.2-15,0.1
	C60.6,120.2,59.9,120.5,59.8,119.5z"/>
<path class="st6" d="M53.9,54.6c1.1,1.1,2.5,1.4,3.9,1.5c0.8-0.6,1.5-0.3,2.2,0.1c0.1,0.6,1.7,0.2,1,1.4c-1.2,0.3-2.5-0.2-3.7,0
	c-0.2-0.4-0.5-0.8-1.1-0.9c-0.4,0-0.7-0.1-0.7,0.5c-0.1,1.7-0.7,3.3-1.7,4.7c-0.1,0.1-0.2,0.3-0.1,0.4c1.9,1.1-0.3,1.3-0.4,1.9
	c-0.1,1.5-1.6,0.4-2.1,1.1c-0.2,0.1-0.4,0.2-0.6,0.2c-1.9,1.3-3.9,2.3-6.3,1.1c-0.1-0.1-0.2-0.4-0.1-0.4c3.6-2,3.2-5.5,3.5-8.8
	c0-0.4-0.3-0.8,0.1-1.1c1.3-1.1,0.3-1.8-0.4-2.5c-0.5-0.5-1.3-0.7-1.2-1.6c0.4-0.3,0.9-0.5,1-1c0.6-0.3,1.1,0,1.6,0.2
	c0.3,0.1,0.6,0.2,0.9,0.4c1,0.7,2,0.2,3,0.2c-0.4-1.6,1.9-2,1.5-3.5c-0.4-1.3-0.2-2.1,1.3-2.1c0.7,0,0.8-0.6,1.2-1
	c0.6-0.8,1.3-1.2,2.3-0.7c0.3,1.6-0.5,3.2-0.2,4.8c-1.4,1-1.4,2.8-2.2,4.1C55.7,54.5,54.8,54.5,53.9,54.6c-0.1-0.1-0.2-0.2-0.4-0.2
	C53.6,54.4,53.7,54.5,53.9,54.6z"/>
<path class="st7" d="M35.5,13.1c1.3-0.2,2.2,0.8,3.3,1.2c1.1,0.4,2.1-0.8,3.4-0.6c2.5,0.3,4.3,2.6,3.8,5.1c-0.3,1.4-2,2-3.5,1.2
	c-0.7-0.3-0.9-1.1-1.9-1.3c-0.4,1.6,0.3,3.2-0.4,4.7c-0.6,1.4-1.5,2.7-1.8,4.3c0.6,0.5,1.3,0.3,1.9,0.4c0.2,0.1,0.3,0.3,0.3,0.5
	c0,0.2-0.1,0.4-0.3,0.6c-1.2,1-2.6,1.2-4.1,0.5c-0.1-0.1-0.2-0.3-0.2-0.4c-1.3-2.4-1.3-2.4,1.3-3.3c-0.1-0.5-0.6-0.3-0.9-0.5
	c-0.7-0.3-1.7-0.3-1.9-1.2c-0.2-1.1,0.9-1.2,1.5-1.5c1.6-0.6,1.5-2.1,1.8-3.4c0.1-0.7-0.8-0.5-1.6-0.8c1,0.5,1.5,1.1,1,1.9
	c-0.4,0.7-1.1,1.1-1.8,0.8c-1.5-0.8-1.5,0.2-1.8,1.2c-0.3,1.2-0.3,2.5-0.3,3.8c-0.1,0.9,0,2-1.1,2.4c-0.6,0-1.3,0.2-1.2-0.8
	c1.2-0.8,1.4-1.5,0.7-2.4c-0.3-0.4-0.7-0.6-1.1-0.9c-0.8-0.7-1.3-1.5-1.2-2.7c0.1-0.9,0-1.7,0-2.6c0-2.3,0.6-4.2,2.6-5.5
	c0,0.1,0.1,0.1,0.1,0.2c0.6,1-1.1,2.7,0,3c1.5,0.3,3.3-0.1,4.9-0.5c1.1-0.2,0.8-1,0.2-1.6C36.5,14.4,35.4,14.3,35.5,13.1z"/>
<path class="st8" d="M12,57.1c1.1,0,2.3,0,3.4,0c0.7,0.7,2.1-0.6,2.5,0.9c-0.7,0.7-1.5,0.6-2.4,0.5c-0.8-0.2-1.6-0.6-2.3,0.1
	c-0.2,0.1-0.4,0.2-0.5,0.4c-0.3,0.1,0.1,0.1-0.2,0.1c-3.8-0.2-4.2,2.3-4.8,5.3c-0.4,2.6-1.4,5.2-0.8,7.7c0.6,2.5-0.2,4.8-0.1,7.2
	c-0.6,1.4-1.4,1.6-2,0.1C3,74.6,1.6,69.7,3.2,64.5c0.1-0.5,0.3-0.9,0.2-1.4c0.7-1.7,1.7-3.2,3.1-4.4c0.7-0.6,1.5-1.1,2.4-1.3
	C9.9,57,11,57.4,12,57.1z"/>
<path class="st9" d="M3.4,63.1c0.3,0.2,0.5,0.5,0.3,0.8C1.9,68,3,71.9,4,75.9c0.3,1.5,1.6,2.6,1.7,4.2C6,79.7,6.3,79.3,6.6,79
	c0,0,0.2,0.1,0.2,0.1C7,79.2,7,78.8,7.3,78.8c0.6-0.1,0.9,0.3,1.2,0.8c0.8,2,0.9,4.2,1.5,6.4c0.7-0.4,0-1.3,0.8-1.6
	c0,2.2,0.3,4.3-0.4,6.6c-0.8-0.7-0.4-1.4-0.8-2c-0.6,1.8-0.3,3.9,0.6,5c0.1,0.7,0,1.3-0.4,1.9c-0.5-0.5-1.1,0.8-1.6,0
	c-0.3-0.2-0.6-0.3-0.9-0.5c-0.1-0.1-0.2-0.2-0.1-0.4c0-0.1,0.1-0.2,0.1-0.2c0.9-0.7,0.7-1.7,0.8-3c-0.1,1.3,0,2.3-0.8,3
	C7.2,95,7,95,6.8,94.8c0.1-1,0.2-2.1,0.3-3.1c0.5-3-0.4-5.7-1.8-8.2c-1-1.9-1.7-3.8-2-5.9C2.8,74,1.6,70.3,2.4,66.5
	C2.6,65.3,2.8,64.2,3.4,63.1z"/>
<path class="st10" d="M59.8,119.5c0.5,0.7,1.3,0.5,1.9,0.5c5.1,0.3,10.1-0.3,15.1-0.3c0.5,0,0.9-0.1,1.3-0.5
	c0.4,0.1,0.7,0.4,0.7,0.8c0,0.5-0.5,0.4-0.7,0.4c-2.6,0.1-5.3,0.2-7.9,0.3c-13.3,0.3-26.7,0.6-40,0.9c-5.5,0.1-11,0.1-16.5,0.1
	c-1.2,0-2.8,0.5-3.6-1.2c1.2,0.5,2.5,0.5,3.7,0.5c7.5,0,15-0.2,22.4-0.4c5.2-0.1,10.5-0.1,15.7-0.2c0.8,0,1.6-0.2,2.3-0.4
	c0.7-0.2,0.3-0.6,0.1-0.9c0.3-0.2,0.7-0.4,1-0.5c1.1,0,2.4,0.7,3.4-0.5C59.5,118.3,59.2,119.2,59.8,119.5z"/>
<path class="st11" d="M19.1,24.4c0-1.3-1.5-2.5-0.6-3.9c2,0.5,3.9,0.5,5.9,0c0.2,0.1,0.3,0,0.2-0.2c0-0.1-0.1-0.1-0.2-0.1
	c-0.4-0.4-0.8-0.8-1.1-1.3c-0.5-1.1-0.7-2.5-2.4-2.3c-0.4,0.1-0.9-0.3-0.5-1c1.9-0.7,4-0.6,5.9-1.5c1,0.7,0.4,1.4,0,2.1
	c-0.7,1.3-0.8,2.4-0.1,3.8c1.1,2.1-0.3,3.6-1.6,5c-0.4,1.1-1.9,0.1-2.4,1.1C20.7,26.5,19.9,25.5,19.1,24.4z"/>
<path class="st12" d="M14.4,101.2c0.4-0.1,0.5-1.3,1.4-0.2c1.7,2.1,2.5,4.3,1.9,6.9c-0.2,0.9-0.3,1.8-0.1,2.9
	c0.9-0.4,0.2-1.3,0.7-1.8c1.4,0.7,0.9,1.8,0.5,2.8c-0.1,0.1-0.4,0.1-0.4,0.2c-1.2,2.1-2.7,1.5-4.2,0.4c-1.2-1.4-1.4-2.2-0.3-3.5
	c0.8-1,0.9-1.7,0.6-3C14.1,104.4,14.8,102.8,14.4,101.2z"/>
<path class="st13" d="M70.2,59c-1.2,0.7-2.3,1.6-3.3,2.6c-0.8,0.9-1.6,0.8-2.4,0c-1-1-0.8-3,0.2-4.1c0.8-0.8,1.4-1.5,2.6-1.7
	c0.5-0.1,0.8-0.5,0.8-1c1.2-0.5,1.2-2,2.4-2.5c0.6,0.6,0.1,1.4,0.3,2c0,0.3-0.2,0.6-0.4,0.8c-0.8,0.7-0.4,1.4-0.1,2.1
	C70.6,57.9,70.7,58.5,70.2,59z"/>
<path class="st14" d="M67,37c-1.2,2.1-3.6,2.8-5.8,1.8c-0.7-0.3,0-1-0.4-1.4c-2-0.8-3.8-1.1-5.8,0.1c-1.3,0.7-2.7,1.3-4.2,0.8
	c-0.2-0.2-0.3-0.4-0.5-0.5c3.2-2,6.7-3.1,10.5-2.7c1.4,0.7,3.1,0.5,4.6,0.9C66.1,36.2,66.7,36.2,67,37L67,37z"/>
<path class="st15" d="M14.2,112.3c0.4,0.1,0.8,0.1,1.1,0.3c1.1,0.5,1.9,0.8,2.2-0.9c0.1-0.7,0.5-0.1,0.7,0.2
	c0.3,0.2,0.4,0.6,0.4,0.9c-0.3,0.4-0.6,0.7-1,1.1c2.2,1.1,3.2,3.3,4.6,5.2c-0.4,0.5-0.8,0.8-1.1,0.7c-2.7-0.5-5.4,0.5-8,0.1
	c-0.6-0.1-1.3,0.1-1.8-0.4c-1.4-1.5-2.6-3.1-3.9-5c3.1-0.6,6,0,8.8-0.3c-0.5-1.2-1.8-0.6-2.4-1.3C14,112.7,14.2,112.6,14.2,112.3z"
	/>
<path class="st16" d="M36.5,29.8c1.2-0.5,2.6-0.2,3.7-0.9c0.5-0.3,1.1-0.4,1.5,0.1c0.4,0.5,0.1,1.1-0.2,1.5c-0.5,0.6-1,1.2-1.9,1.2
	c-0.2-0.1-0.5-0.3-0.6-0.3c-2.4,0.8-5,0.1-7.4,0.8c-0.5,0-0.8-0.1-1.1-0.6c-0.1-0.1-0.1-0.3-0.3-0.4c-1-0.8-1.5-1.7-0.4-2.8
	c0.3-0.4,0.6-0.6,1-0.5c0.3,0.5,0.9,0.2,1.3,0.4C33.5,29,35.2,29.1,36.5,29.8z"/>
<path class="st17" d="M35.5,13.1c0.4,0.7,1.1,0.8,1.8,1.2c0.7,0.4,1.2,0.9,1,1.9c-0.2,1-0.8,1.1-1.5,1.2c-1.7,0.1-3.3,0.1-4.9,0.8
	c-0.8,0.4-1-0.4-1-1.1c0-1.2,1-2,1.1-3.1C32.9,12.9,34.1,12.9,35.5,13.1z"/>
<path class="st18" d="M70.3,90.3c0.5,0.1,0.3,1.9,1.4,0.4c0.4-0.5,0.9,0.2,0.8,0.6c-0.2,0.7-0.1,1.1,0.5,1.3
	c-0.1,2.8-0.3,5.5-0.9,8.2c-0.7,0.2-1.4,1.3-2.3,0.2c-0.6-0.8-0.6-1.6-0.2-2.4c0.4-0.8,1-1.6,0.6-2.6C70.2,94.2,70.3,92.3,70.3,90.3
	z"/>
<path class="st19" d="M25,20.7c-1.3,1.1-2.8,0.6-4.3,0.7c-0.9,0-1.7,0-2.2-0.9c0.1-0.7,0.4-1.3,1-1.8c1.4-0.2,0.2-1.2,0.6-1.7
	c-0.6-0.3-0.7-0.7-0.2-1.2c0.1,0,0.2,0,0.3,0.1c1,0.9,2.3,0.2,3.4,0.6c0,0.7-0.8,0.2-0.9,0.7c0.4,0.3,1.1,0,1.6,0.5
	c-0.2,0.6-1.3,1.4,0.3,1.9C25,19.5,25,20.2,25,20.7L25,20.7z"/>
<path class="st20" d="M70.2,96.1c0.7,0.7,0.4,1.6,0.2,2.4c-0.1,0.4-0.4,0.7-0.5,1.1c-0.2,0.6,0,1.1,0.3,1.5c0.4,0.5,0.8,0.1,1.2-0.2
	c0.2-0.2,0.4-0.1,0.6,0c-0.9,1.6-2,3.1-2.9,4.7c-0.8,1.5-1.4,1.4-3,0.4c1.4-1,1.9-2.2,1-3.8c-0.3-0.5-0.4-1.2,0-1.8
	c0.4-0.1,0.9,0,1-0.4C68.7,98.6,69.9,97.6,70.2,96.1z"/>
<path class="st21" d="M19,29.7c1,0.6,2.1,1.2,3.4,0.8c0.1-0.5-1.2-0.4-0.6-1.1c0.3-0.4,0.9-0.6,1.2-0.2c0.6,0.8,1.2,0.9,2.2,0.7
	c1.1-0.2,0,1.1,0.7,1.6c0.4,0.3-0.1,0.9-0.6,1c-0.8,0.1-1.6,0.2-2.2-0.4c-0.8-0.7-1.7-0.7-2.6-0.1c-0.5-0.1-1.1-0.2-1.6-0.5
	c-1-0.5-1-1.1-0.2-1.8C18.8,29.5,18.9,29.5,19,29.7z"/>
<path class="st22" d="M26.3,14.2c-0.8,1.3-2.1,1.5-3.5,1.6c-0.9,0.1-1.7,0-2.6,0c0,0,0,0,0,0c-0.8-0.3-1.8-0.4-1.4-1.7
	C21.3,13,23.8,12.9,26.3,14.2z"/>
<path class="st23" d="M19,29.7c-0.1,0-0.3,0-0.4,0c0.1-1.8-0.3-3.6,0.5-5.3c1.3-0.1,1.8,1.3,3,1.5c0.6-0.3,1-0.3,0.9,0.5
	c-0.6,0.9-1.2,1.7-2,2.4c-0.5,0.4-0.8,0.8-1.5,0.3C19.2,28.9,19.2,29.5,19,29.7z"/>
<path class="st24" d="M73.7,43.8c-0.1-0.1-0.2-0.2-0.4-0.3c0.9-0.6,0.7-1.3-0.1-1.8c-0.9-0.5-1.5-1.1-1.1-2.2c0.7-0.4,1.3,0.6,2,0.1
	c0.7,0.1,1,0.7,1.2,1.3c0.4,1.3,1,2.5,2,3.5C75.8,45.1,74.7,44.4,73.7,43.8z"/>
<path class="st25" d="M67.2,100.5c0.3,1.1,0.7,2.2,1,3.3c0.5,1.8,0.4,1.9-1.6,2.1c-0.1,0-0.3,0.1-0.4,0.2
	C64.6,103.2,64.8,101.8,67.2,100.5z"/>
<path class="st26" d="M23,26.5c-0.2-0.4-0.5-0.5-0.9-0.5c-0.1-1,0.5-1,1.2-0.9c0.5,0.1,1,0.5,1.5,0c0.5,1,1.3,2,1.5,3.2
	c-1.7,1.1-1.6,1.1-2.4-0.7C23.6,27.1,23.3,26.8,23,26.5z"/>
<path class="st11" d="M18.8,14.1c0,1,1,1.1,1.4,1.7c-0.1,0-0.2,0.1-0.2,0.1c-0.5,1,0.5,0.6,0.8,0.9c0.4,0.5-0.7,0.2-0.6,0.8
	c0.1,0.6,0.7,0.8,1,1.3c-0.7,0.3-1.3,0.3-1.8-0.2c-0.2-1-0.4-1.9-1-2.8C18.1,15.2,18.1,14.6,18.8,14.1z"/>
<path class="st1" d="M39.6,31.8c0.7-0.7,1.3-1.4,2-2.1c-0.2-0.8-1-0.2-1.3-0.7c0-0.1,0-0.2,0-0.3c0.5-0.5,1-0.3,1.5-0.1
	c0.7,0.4,1.5,0.7,1.9,1.5c0,0,0,0,0,0c-1.3,0.7-2,2.4-3.8,1.9L39.6,31.8z"/>
<path class="st2" d="M8.2,95.8c0.3-0.1,0.6-0.2,0.8-0.3c0.3-0.2,0-0.8,0.5-0.7c0.2,0,0.2,0.7,0.2,1c-0.1,0.9-0.1,1.9-0.2,3.1
	C8.8,97.9,8.2,97,8.2,95.8z"/>
<path class="st27" d="M17.8,58c-0.2-0.6-0.7-0.5-1.2-0.5c-0.5,0-1,0.1-1.3-0.4c1-0.1,1.9-0.3,2.9-0.4c-0.1,1.9,0.5,3.9-0.5,5.7
	C16.7,60.9,16.8,59.5,17.8,58z"/>
<path class="st3" d="M70.5,57.3c-0.5-0.4-1.1-0.9-1.6-1.3c0.3-0.8,1.1-0.6,1.6-0.8C70.8,55.9,70.6,56.6,70.5,57.3z"/>
<path class="st27" d="M12,57.1c-1,0.6-2,0.1-3.1,0.3C9.9,56.7,10.9,56.9,12,57.1z"/>
<path class="st10" d="M8.2,117.9c1.1,0.3,1.6,1,1.7,2.2C9.2,119.5,8.6,118.8,8.2,117.9z"/>
<path class="st3" d="M71,54.3c-0.5-0.6-0.1-1.3-0.3-1.9c-0.1-0.4,0.1-0.6,0.5-0.5c0,0,0,0,0,0C71.2,52.7,71.2,53.5,71,54.3z"/>
<path class="st2" d="M6.8,94.8c0.2,0,0.3,0,0.5,0.1l0,0c0,0.2,0,0.3,0.1,0.5c-0.2,0.3-0.6,0.8-0.7,0.6C6.3,95.6,6.6,95.2,6.8,94.8z"
	/>
<path class="st10" d="M78.1,119.2c-0.6-0.3-1-0.8-1-1.5C77.6,118,78.1,118.5,78.1,119.2z"/>
<path class="st16" d="M41.7,28.5c-0.5,0-1,0.1-1.5,0.1c0-0.2,0-0.3-0.1-0.5C40.7,28,41.3,28,41.7,28.5z"/>
<path class="st28" d="M17.8,58c0,1.4,0,2.9,0,4.3c-0.1,4.6-0.1,9.2,0.1,13.8c0,1,0.3,1.6,1.5,1.7c1.3,0,2.6,0.3,4,0.4
	c1.8-0.4,1.4,0.8,0.7,1.3c-1,0.8-1.7,2-3.3,2.2c-1.2,0.1-2.3,0.8-1.6,2.5c0.2,0.6-0.1,1.6-0.9,1c-1.3-1-2.7-1.2-4.2-1.4
	c-0.9-0.1-1.1-1.1-1.9-1.4c-1.5-1.8-2.9-3.6-3.4-6c-0.1-0.3-0.4-0.6-0.7-0.9c-3-5.9-0.9-13.2,4.9-17.1l0,0c0.6-0.4,1.1-1,1.9-0.5
	C15.9,58,16.9,58,17.8,58z"/>
<path class="st29" d="M50.7,38.2c1.8-0.6,3.8-0.7,5.4-2c0.5-0.4,1.2-0.4,1.8-0.1c0.8,0.4,1.5,0.3,2.3,0.1c1.7-0.4,0.7,0.6,0.6,1.2
	c-0.9,0.6-2,0.5-3,0.4c-1.1-0.1-1.9,0.2-2.3,1.3c-0.3,1.1-1.5,1.6-1.9,2.9c1.5-0.4,2.4-1.3,3.5-1.9c1.6-0.8,3-0.8,4.2,0.7
	c0,0.2,0,0.3-0.1,0.5c0,0-3.4,2.9-3.4,2.9c-0.5,0.3-1,0.2-1.5,0.1c0.6,0.2,1.2,0.2,1.8-0.2c0.5-0.1,0.9-0.1,0.8,0.6c0,0,0,0,0,0
	c-0.9,0.4-2,0.5-2.2,1.8c0,0.2-0.1,0.6-0.7,0.5c-1.7-0.1-1.8,0.2-0.8,1.7c0.4,0.5,0.4,1-0.2,1c-0.8,0-1,0.2-0.7,0.9
	c0.1,0.1,0,0.4,0,0.4c-0.4,0.1-0.8,0.1-1.1,0.3c-0.7,0.5,0.8,0.5,0.3,0.8c-0.3,0.2-0.9,0.1-1.1,0.3c-0.8,0.9-1.5,0.6-2.3,0.1
	c-0.9-0.5-1.8-1-2.7-1.4c-1.5-0.9-1.5-0.9-0.3-2c0.3-0.3,0.7-0.4,0.7-0.9c-1.2-1.6-1.9-0.4-2.7,0.7c-0.4-1.1,0.3-2.1-0.5-2.9
	c-0.3-0.3,0.3-0.7,0.7-1.1c1.1-0.9,2.2-2,3.3-3c-0.7-0.6-0.9,0.4-1.5,0.2c0.3-1.7,1.5-2.6,2.8-3.5C50,38.5,50.5,38.6,50.7,38.2
	L50.7,38.2z"/>
<path class="st30" d="M50.8,65.1c0.3-0.6,0.7-0.9,1.4-0.7c0.4,0.1,0.7,0.2,1-0.2c1.7,0.4,2,2.2,2.9,3.3c0,0.8-0.5,1.5-0.7,2.2
	c-1.5,1.3-0.2,3.8-2,5.1c-0.8-0.5-0.1-1.6-0.8-1.9c1.4,3.5,1.6,7.2,0.4,10.9c-0.5-0.1-0.9-0.3-0.7-0.9c0.4-1.1,0.4-2.3-0.2-3.3
	c-0.7-0.6-0.7-1.3-0.7-2.1c0-1-0.1-1.9-0.3-2.8c-0.8-3.2-0.8-3.2-4-3.3c-1.9-0.1-4,0.5-5.8-0.5c-1.1,0.7-0.3,1.9-0.7,2.8
	c-0.6-0.1-0.4-1-1.1-1c-0.7-1.2-1.7-2.3-3.3-1.6c-1.5,0.7-1.2,2-0.9,3.3c0.1,0.5,0.4,1,0,1.6c-1.4,0-1.1-1.6-1.9-2.1
	c-0.5-0.8-0.1-1.5,0-2.3c0.2-2-0.5-3.2-2.5-3.4c-2.5-0.3-4.5-1.6-6.5-2.8c-0.2-0.1-0.4-0.3-0.5-0.4c-0.3-0.4-0.6-0.9-0.9-1.4
	c-0.1-0.2-0.1-0.4,0.1-0.6c0.2-0.2,0.4-0.4,0.5-0.6c2.1,0.3,3.1,2.7,5.4,2.6c-1-1.5-2.7-2.8-2-5c0.1-1,0.6-1.5,1.6-1.3
	c0.8,4.6,3.5,7.4,8,8.5c-0.2,1.8,0.9,1.6,2.1,1.4c-0.3-0.8-0.7-1.4-0.5-2.3c0.4-1.9,0.5-3.7-0.2-5.6c-0.2-0.6,0.1-1.1,0.5-1.5
	c0.4-0.7,0.8-1.3,1.7-1.5c0.5,1.6,0.4,3.2,0.4,4.7c0.1,2,0.7,3.4,2.9,3.6c0.8,0.9-0.2,1-0.6,1.3c-0.6,0.3-1.2,0.6-1,1.4
	c0.2,0.9,1,0.9,1.7,0.9c1.3,0,2.5,0.1,4-0.1c-0.5-0.5-2.4-0.4-0.7-1.7c0.5-0.4-0.2-0.2-0.3-0.2c-0.9,0-1.8,0-2.3-0.9
	c0-0.1,0.1-0.2,0.1-0.3c0.7,0,1.4,0,2.1,0.1c1.2,0.1,2.4-0.1,3.2-1.2C49.8,64.9,50.3,64.8,50.8,65.1c0.4,0.7-0.2,1.3-0.2,2
	c0,0.8,0.4,1.4,1.2,1.5c0.6,0.1,1.1-0.1,1.4-0.7c0.4-0.8,0.1-1.4-0.5-1.9C52.1,65.7,51.3,65.7,50.8,65.1z"/>
<path class="st31" d="M43.6,66.6c-3.5-0.2-3.6-0.2-3.6-3.7c0-1.7-0.9-3.3,0.1-5c0.6-1.5,1.4-2.8,2.6-3.9c0.8-0.7,1.1-1.7,1.4-2.7
	c1-0.3,1.4,0.7,2.1,0.9c0.6,0.5,1.3,0.9,1.9,1.4c0.4,0.3,0.9,0.4,0.7,1c-0.3,0.7,0.7,0.6,0.6,1c0,0.5-0.5,0.8-1,0.9
	c-0.2,0.1-0.5,0.2-0.3,0.5c1.2,1.6-1,3.1,0.1,4.7c-1.2,1.1-1.2,2.7-1.5,4.1c0,0.3-0.5,0.3-0.8,0.3c-0.6,0-1.3-0.2-1.8,0.4
	c0,0,0,0.1,0,0.1C43.9,66.7,43.8,66.7,43.6,66.6z"/>
<path class="st32" d="M12.2,82.5c1.2-0.7,1.3,1.4,2.5,1c0.8-0.3,1.7-0.3,2.6,0.3c0.5,0.4,0.6,1.2,1.3,1.2c0.6-1-0.7-1.2-0.8-2
	c0.5-1,1.8-1.1,2.3-2.1c0.2-0.3,0.5-0.2,0.8,0c0.2,0.1,0.7,0.5,0.8,0.1c0.2-1.2,1.4-1.2,2.1-1.8c0.7-0.6,0.2-0.9-0.4-1.1
	c1-1,1.8,0.4,2.8,0.1c0.6,1.2-0.2,2.5,0.1,3.8l0,0c-1,0.3-2.1,0.3-1.8,1.9c0.1,0.5-0.7,0.8-1,0.7c-1-0.3-1.2,0.5-1.6,1.1
	c-0.7,0.9-1.1,2.1-2.6,1.8c-0.8-0.2-1,0.5-1.1,1c-0.5,2.7-0.5,2.7-3,4.3c-1.1-2-2-3.8-0.3-6c0.5-0.6-0.2-1.8-0.9-2.5
	C13.3,83.8,12.5,83.4,12.2,82.5z"/>
<path class="st33" d="M30.5,31.7c0.4,0.1,0.8,0.1,1.1,0.6c0.7,0.5,1.1,1,1.2,1.9c0.4,3.8,0.1,7.6,0.2,11.6c-1.2-0.2-2.4,0-2.9-0.8
	c-0.8-1.1-1.7-2.1-2.1-3.6c-0.6-2.1-1.2-3.8,1.2-5.3c1.1-0.7,0.6-2.3,0.2-3.6C28.7,30.9,29.7,31.5,30.5,31.7z"/>
<path class="st34" d="M23,63c0,0.1,0,0.2,0,0.3c0.4,0.5,0.5,1.1,1,1.4c2.2,2.3,4.2,4.8,7.5,5.7c1.4,0.4,0.2,2.3,1.5,3.2
	c-3.7,0.1-7.2,0.3-10.7-0.1c-0.4-0.2-0.5-0.6-0.5-1c0-2.9,0.1-5.7,0.1-8.6C22,63.2,22.2,62.8,23,63z"/>
<path class="st35" d="M36.3,67.4c-2.6,0-4.5-1.4-6-3.3c-0.8-1-1.4-2.1-2-3.2c-0.5-0.8-0.4-1.5,0.2-2.2c2.4,0.2,4.8-0.2,7.1,0.9
	c1.8,1.8,1.4,4.5,2.3,6.6C38.4,67.4,37.7,68.1,36.3,67.4z"/>
<path class="st36" d="M39.7,31.9c1,0.1,1.5-0.7,2-1.3c0.5-0.6,1-0.9,1.8-0.6c0.8,1.2,1.1,2.5,1.3,3.8c0.3,1.9,0.3,3.8-1.5,5.2
	c-1,0.8-1.8,1.8-2.2,3.1c-0.2,0.5-0.5,0.8-1,0.9c-0.5,0.2-1,0.2-1-0.5c0-3.3,0-6.5,0.1-9.8C39.3,32.5,39.6,32.2,39.7,31.9z"/>
<path class="st37" d="M22.4,73.5c3.3,0,6.7,0.1,10,0.1c0-0.8-1.7-0.9-0.5-1.9c0.2-0.1,0.2-0.5-0.3-0.7c-0.7-0.3-1.7,0-2.1-0.7
	c-0.5-1-1.5-0.7-2.2-1c-0.8-0.4-1.3-1.4-1.8-2.1c-0.5-0.8-1.3-1.4-1.5-2.4c0.9,0.2,1.6,0.7,2.3,1.3c1.1,0.8,2.4,1.2,3.7,1.5
	c3.8,0.7,4.6,1.9,3.5,5.5c-0.1,0.3-0.2,0.6-0.3,0.9c-3.3,0.2-6.5,0-9.8-0.1C23.1,73.8,22.7,73.8,22.4,73.5z"/>
<path class="st38" d="M35.3,76c-0.3-1.1-0.9-2.2-0.8-3.4c0.2-1.8,0.8-2.5,2.3-2.4c2,0,2.6,0.6,2.7,2.5c0,0.2,0,0.3,0,0.5
	c0.8,3.6,0.6,3.9-3.2,3.9C36,76.7,35.6,76.3,35.3,76z"/>
<path class="st39" d="M26.9,60.1c0.3,1.8,1.2,3.4,2.7,4.5c0.3,0.3,0.5,0.5,0.3,1c-0.4,0.8-0.7,0.1-1.1,0.1c-2.4-0.1-3.7-1.9-5.3-3.2
	c0-1-0.8-1.5-1.1-2.3c-0.3-0.8-0.4-1.5,0.1-2.2c0.7-1,1.2-0.8,1.6,0.2l0,0C25.7,57.7,26.1,59.2,26.9,60.1z"/>
<path class="st40" d="M36.7,82.3c-0.4,0.8-1,0.1-1.5,0.2c-1.2,0.4-2-1.2-2.9-1c-1.2,0.3-1.9-0.2-2.8-0.7c-1-0.2-1.5-1.1-1.3-1.9
	c0.1-0.3,1.2-0.5,1.9-0.5c1.1,0.1,2.2,0,3.3-0.1c2-0.1,3,0.9,3.2,3.2C36.6,81.7,36.4,82,36.7,82.3z"/>
<path class="st41" d="M36.3,67.4c1.2-0.3,1.6-1.4,0.9-2.3c-0.6-0.8-1.4-1.4-0.8-2.8c0.3-0.7-0.9-1.7-0.9-2.8
	c0.9-0.5,1.8-0.5,2.8-0.3c-0.1,0.4-0.3,1-0.2,1.1c1.4,1.3,0.3,3.1,0.9,4.5c0.1,0.3,0,0.6-0.2,0.9c-0.6,1-0.9,1.8,0.7,2.3
	c0.6,0.2,0.4,0.9-0.1,1c-1.2,0.4-2.5,0.3-3.8-0.1c-0.3-0.1-0.6-0.3-0.6-0.7c0-0.6,0.5-0.4,0.9-0.5C36.3,68,36.3,67.7,36.3,67.4z"/>
<path class="st42" d="M32.8,52.4c0,0.1-0.1,0.7-0.2,1.2c-0.2,1.3-0.7,1.8-1.8,1.5c-0.7-0.2-1.6-0.1-2.2-0.9c-1-1.2-1.1-2,0-3.1
	c0.6-0.6,0.1-1.9,1.8-1.7C32.8,49.7,32.8,49.5,32.8,52.4z"/>
<path class="st43" d="M37.8,79.9c0.8,0,1.7-1.1,2.3,0.1c0.5,0.9,1.5,1.9,0,2.9c-0.4,0.3,0.1,1,0.1,1c0.6-0.3,1.2-0.3,1.6,0.3
	c0.3,0.5,0.9,0.5,1.4,1c-1.4,0.8-2.5-0.6-3.7,0l0,0c-0.7-0.4-1.4-0.8-1-1.9c0.2-0.5,0.1-1.1-0.4-1.5C38.2,81.1,38.1,80.5,37.8,79.9z
	"/>
<path class="st44" d="M39.3,44.9c1.2-1.3,2.2-1.3,3.2-0.7c0.7,0.4,0.9,1.3,0.8,2.1c0,0.3-0.3,0.7-0.5,0.8c-0.4,0.2-0.9-0.2-0.9-0.5
	C41.9,44.9,40.7,44.9,39.3,44.9z"/>
<path class="st45" d="M39.5,54.6c0-1.4,0.2-2.8-0.2-4.2c-0.1-0.3-0.1-0.6,0.2-0.9c0.3-0.3,0.6-0.5,1.1-0.3c0.3,0.2,0.5,0.5,0.3,0.8
	C40.1,51.5,39.8,53,39.5,54.6z"/>
<path class="st14" d="M50.7,38.2c0,0.8-0.4,0.8-0.9,0.5C49.9,38.4,50.3,38.2,50.7,38.2z"/>
<path class="st46" d="M46.2,83.9c-2.5-0.1-4.3-1.7-4.4-4.1c-0.1-2.9-1-5.6-0.6-8.5c1.4-0.5,2.8-0.3,4.2-0.1c1.1,0.1,2,0.6,2.2,2.1
	c0.1,1.4,0.2,3,1.7,3.8c0.3,0.2,0.6,0.6,0.3,1c-0.4,0.6-1,0.2-1.5,0.2c0.7,0.2,1.4,0.7,2.1,0.9c0.2,0.1,0.5,0.3,0.5,0.5
	c-0.1,1-0.8,1-1.6,1c1.9,1.2-0.2,1.5-0.5,2.1C48.2,83.8,47.3,84.2,46.2,83.9z"/>
<path class="st47" d="M55.2,69.5c-0.1-0.8,0.2-1.5,0.9-2c0.9-0.7,1.9-1.4,3-2.2c0.6,1.6,2,2.8,1.4,4.7c-0.2,0.5,0,1,0.3,1.4
	c0.8,1.4,0,3.1,0.9,4.5c0.1,0.2,0.1,0.3-0.1,0.4c-1.6,0.6-1.3,2.4-2.4,3.4c-0.3,0.2-0.4,0.8-0.8,0.6c-0.4-0.1-0.6-0.5-0.6-0.9
	c-0.2-1.6-0.5-3.1-0.7-4.7c-0.1-0.5-0.2-0.9-0.6-1.3c-0.4-0.3-0.5-0.8-0.7-1.2c-0.1-0.2-0.1-0.4-0.2-0.6c-0.2-0.6-0.4-1.1-0.4-1.8
	C55.2,69.7,55.2,69.6,55.2,69.5z"/>
<path class="st48" d="M46.2,83.9c0.9-0.3,2-0.3,1.8-1.9c-0.2-1,1.1,0.3,1.5-0.5c-0.2-1-1.3-0.2-1.7-0.8c0.6-1.2,1.9,0.4,2.6-0.9
	c-1.4,0-2.1-1.7-4-1.1c1-1.2,2.2-0.2,3-0.9c0-0.4-0.3-0.6-0.6-0.7c-1.1-0.3-1.1-0.3-0.9-1.6c0.1-0.4-0.2-0.3-0.3-0.3
	c-0.8,0-0.7-0.5-0.6-1.1c0.3-1.8-0.4-2.6-2.3-2.8c-1.1-0.1-2.2,0-3.3-0.1c0-0.1,0-0.3,0-0.4c2.8-0.3,5.6,0.4,8.3-0.4
	c0.8-0.2,1.1,0.5,1.3,1.1c0.7,2.1,1.4,4.2,1.1,6.5c-0.1,0.6,0.4,1,0.1,1.5c-1.2,0.5-1.6,1.6-2,2.7C49.2,84.8,48.9,85,46.2,83.9z"/>
<path class="st49" d="M53,83.8c0-3.2,0.4-6.5-0.4-9.7c-0.2-0.9-0.6-1.8-1-3.1c1.3,1,1.3,2.2,1.8,3.4c0.3-0.7,0.4-1.2,0.7-1.7
	c0.3-0.8-1-1.9-0.2-2c1-0.1,0.7-1.2,1.4-1.3c0,0,0,0,0,0c0.4,0.8,0.5,1.7,0.9,2.4l0,0c0.5,0.6-0.1,1.3,0.4,1.9
	c0.1,1.4-0.1,2.8,0.3,4.3c0.4,1.6-0.4,3.1-0.6,4.7c-0.1,0.5-0.6,0.9-1.2,1c-0.8-0.7,0.6-1.8-0.7-2.4c-0.4,0.6-0.1,1.3-0.3,1.9
	C53.8,83.7,53.7,84.3,53,83.8z"/>
<path class="st27" d="M13,58.4c-1.2,1.7-3,3-4.1,4.9c-1.1,2-1.6,4.1-1.5,6.4c0.1,2,0.2,3.9,0.7,5.9c-0.8,0.6,0,1.3,0,1.9
	c0,0.7,0.5,1.3,0.3,2C8,79.3,7.5,79,7,79.1c-0.2,0.2-0.3,0.2-0.4-0.1c0,0,0,0,0,0c0-1-0.1-1.9-0.5-2.8c-0.2-0.4-0.5-0.6-0.2-1
	c0.3-0.4,0.6,0,0.8,0c0.5-0.3,0.2-0.8,0.1-1.2c-1.2-2.4-0.5-5-0.6-7.4c1.4-0.7,0.7-2.1,1.1-3.1c0.4-1,0.5-2.1,0.2-3.2
	c-0.1-0.5,0.3-0.6,0.6-0.8c0.6-0.3,1.3-0.7,2-0.5C11.2,59,12.1,58.6,13,58.4z"/>
<path class="st50" d="M47.3,98.7c-0.4-0.4-0.8-0.9-0.5-1.5c0.7-1.3-0.5-2.1-0.6-3.1c-2.7-0.9-2.1-3.9-3.5-5.6
	c-0.6-0.8-0.1-1.6,0.8-1.4c0.8,0.2,1.6,0.6,2.4,1c0.7,0.3,0.4,1.1,0.6,1.7c0.6,1.4,0.7,3,1.5,4.3C48.9,95.8,48.2,97.3,47.3,98.7z"/>
<path class="st51" d="M17.4,96.9c2.2,3.9,4.3,7.7,6.5,11.6c-0.6,0.4-0.2,1.3-0.9,1.7c-0.7-0.3-1.1-1-1.4-1.8c-0.5-1-0.5-2.4-1.8-2.8
	c0.1-1.6-1.7-2.5-1.5-4.1c0.1-1-0.6-0.9-1-1.3c-0.3-0.3-0.8,0.1-1-0.7C15.5,97.7,15.4,97.7,17.4,96.9z"/>
<path class="st52" d="M68.7,84.8c-2.8-0.2-5.6-1.5-7-3.2c-0.5-0.6,0-3.1,0.6-3.3c0.7-0.3,1.2,0.2,1.6,0.7c0.8,1,1.4,2,2.4,2.9
	C67.4,82.6,68,83.8,68.7,84.8z"/>
<path class="st53" d="M18.7,112.8c-0.4-0.2-0.4-0.6-0.4-0.9c0.6-1,0.4-2,0-3c-0.1-1,0.4-1.9,0.6-3c0.6,0.7,0.8,1.4,0.8,2.1
	c0.1,0.7,0.4,1.1,0.8,1.6c1.4,1.4,1.3,1.4-0.1,3.2C19.9,112.7,19.3,112.7,18.7,112.8z"/>
<path class="st54" d="M55.9,114.1c-1.6-1.1-3.2-1.7-3.2-3.9c0-1.4-1.3-2.5-1.2-4.2c1.8,0.9,1.8,2.7,2.5,4
	C54.7,111.2,56.2,112.1,55.9,114.1z"/>
<path class="st55" d="M58.9,118c0.1,1.2-0.5,1.6-1.5,1.4c-0.7-0.1-1.3-0.4-1.8-1c0,0,0,0,0,0c0.4-0.8-0.6-1.6,0-2.4
	c0.9-0.7,1.7-0.6,2.4,0.4C58.2,117,58.3,117.6,58.9,118z"/>
<path class="st32" d="M14.4,95.8c0,0.8,0.1,1.2-0.3,1.4c-0.6,0.2-0.8-0.3-1.1-0.7c-0.2-0.3-0.3-0.6-0.4-0.9
	c-0.2-0.7-0.1-1.3,0.6-1.6c1-0.4,0.9,0.6,1.1,1.1C14.5,95.5,14.4,95.9,14.4,95.8z"/>
<path class="st10" d="M55.5,116.1c0.5,0.4,0.2,1.1,0.7,1.6c0.5,0.5-0.2,0.7-0.7,0.8C55.1,117.7,53.8,116.9,55.5,116.1z"/>
<path class="st43" d="M45.8,85.7c-0.3,0.2-0.3,0.3-0.4,0.3c-0.6,0.1-1.2,0.3-1.6-0.3c-0.1-0.1,0-0.3,0.1-0.4
	C44.6,84.7,45.1,85.3,45.8,85.7z"/>
<path class="st1" d="M26.2,82.1c0.2,0.2,0.6,0.4,0.6,0.6c0.1,0.4,0,1-0.6,0.9c-0.4,0-0.5-0.5-0.3-0.9C26,82.5,26.1,82.3,26.2,82.1
	C26.2,82.1,26.2,82.1,26.2,82.1z"/>
<path class="st32" d="M15.3,94.3c-0.1,0.1-0.2,0.3-0.2,0.3c-0.3-0.1-0.5-0.2-0.6-0.6c0-0.1,0.1-0.3,0.2-0.3
	C15.1,93.8,15.3,94,15.3,94.3z"/>
<path class="st30" d="M56.5,73.8c-0.7-0.5-0.4-1.2-0.4-1.9c0.6,0.3,0.4,0.9,0.5,1.5C56.5,73.5,56.5,73.6,56.5,73.8z"/>
<path class="st43" d="M39.6,85.1c0,0.3,0.4,0.6,0.1,0.8c-0.3,0.2-0.6-0.1-0.7-0.4C38.9,85.1,39.3,85.2,39.6,85.1
	C39.6,85.2,39.6,85.1,39.6,85.1z"/>
<path class="st56" d="M71.2,51.9c-0.3,0-0.4,0.2-0.5,0.5c-0.1,0.3-0.4,0.5-0.4,0.8c0.1,1.5-0.9,1.7-2,1.6c-0.4-0.1-0.8-0.1-1.2-0.2
	c-0.6-0.2-1.2,0.4-1.8-0.3c-0.6-0.7-0.9-1.6-1.1-2.4c-0.3-1.6,0.5-2.2,2.1-1.6c0.5,0.2,0.9,0.6,1.5,0c1-1,0.9-1.6-0.3-2.4
	c-1.4-0.9-1.5-2.6-0.1-3.7c0.5-0.4,0.5-0.7,0.4-1.2c-0.6-2.4-0.6-2.4,2-3.4c0.3,1.7,3,2.4,1.9,4.7c-0.9-0.1-0.5-1.3-1.3-1.5
	c-0.7-0.1-1.3-0.3-1.6,0.5c-0.3,0.7,0.4,0.7,0.8,0.9c0.9,0.4,1.7,0.8,2.4,1.5c0.7,0.7,2.3,1.3,0.1,2.1C71.7,49.3,71,50.5,71.2,51.9z
	"/>
<path class="st57" d="M62.3,52.9c-2-1.7-1.6-3.7-1.8-5.4c-0.1-0.5,0.4-1,0.8-1.4c0.4-0.3,0.8-0.5,1.3-0.3c0.5,0.2,0.4,0.6,0.4,1
	C62.8,48.7,62.6,50.6,62.3,52.9z"/>
<path class="st6" d="M57.8,44.1c0.3-0.7,1.7-0.8,0.9-2c-0.2-0.3,0.2-0.4,0.3-0.3c1.2,0.7,1.6-0.5,2.3-1c0.5,0.5,1.4,0.4,2.1,0.8
	c-0.4,1.1-0.5,2.4-2.3,1.6c-1.2-0.5-1.5,0.8-2.2,1.4C58.6,44.2,58.2,44.1,57.8,44.1L57.8,44.1z"/>
<path class="st58" d="M59.6,51.1c0.5,1.7,1.4,2.9,2.6,4.2c-1.3,0-3.6-1.4-3.8-2.2C58.3,52.4,58.7,51.9,59.6,51.1z"/>
<path class="st59" d="M60,56.1c-0.7,0-1.5,0-2.2-0.1c-0.2-0.5-0.3-1,0.2-1.6C58.7,54.9,59.5,55.4,60,56.1z"/>
<path class="st14" d="M67,37c0.4-0.2,0.8-0.5,1.2-0.8C67.7,37.7,67.7,37.7,67,37C67,37,67,37,67,37z"/>
<path class="st14" d="M64.8,40.6c0.6-0.5,1-0.8,1.6-0.6C66.2,40.7,65.6,40.7,64.8,40.6z"/>
<path class="st60" d="M32.5,114.8c-0.4-0.2-1-0.7-0.3-0.9c2.5-0.5,5-0.6,7.6-0.3c0.1,0,0.3,0.1,0.4,0.2c1.5,1.5,2.8,3.2,3.8,4.9
	c-0.9,0.7-1.6,0.5-2.3,0.5c-1.1,0-2.3-0.2-3.3,0c-1.9,0.5-3.3-0.1-4.5-1.6l0,0C33.6,116.7,32.5,116,32.5,114.8
	c1.3-0.2,1.8,0.8,2.4,1.6c0.9,1.2,2,1.8,3.5,1.7c0.9-0.1,2.3,0.6,2.6-0.9c0.2-1.1-1.7-2.7-3-2.4C36.1,115,34.3,114.9,32.5,114.8z"/>
<path class="st61" d="M32.9,117.7c0.3,0,0.7,0,1,0c0,0,0,0,0,0c0.4,1.8,0.4,1.8-1.1,1.9c-2.5,0-4.9,0-7.4,0c-0.8,0-1.6,0-2-1.2
	c1.5,0.9,2.9,0.7,4.3,0.7c0.4,0,0.7,0,1.1-0.3c0.8-0.9,1.6-1,2.6-0.3C32.1,118.9,32.9,118.8,32.9,117.7L32.9,117.7z"/>
<path class="st2" d="M45,117.9c-0.7-0.3-1.1-0.7-1.3-1.5C44.6,116.5,44.8,117.1,45,117.9C44.9,117.9,45,117.9,45,117.9z"/>
<path class="st2" d="M32.9,117.7c-0.2-0.1-0.4-0.2-0.5-0.4c-0.1-0.2-0.3-0.5-0.2-0.6c0.4-0.3,0.5,0.1,0.6,0.3
	C32.9,117.2,32.9,117.5,32.9,117.7C32.9,117.7,32.9,117.7,32.9,117.7z"/>
<path class="st62" d="M67.7,117.1c2.1,1.8,4.5,1.1,6.8,0.9c0.2,0,0.4-0.3,0.6-0.3c0.4-0.2,0.6,0.1,0.7,0.4c0.2,0.4-0.1,0.6-0.4,0.6
	c-2.1,0-4.3,0-6.4-0.1C68.2,118.6,67.9,117.8,67.7,117.1z"/>
<path class="st3" d="M53.9,54.6c-0.5,0-0.9-0.1-1.5-0.1C53,53.9,53.4,54.1,53.9,54.6C53.8,54.6,53.9,54.6,53.9,54.6z"/>
<path class="st63" d="M36.5,29.8c-1.7,0.1-3.3,0.1-4.4-1.4c0.6-0.6,0.5-1.3,0.4-2c-0.2-1.8,0.2-3.5,0.6-5.2c0.3-1.2,0.8-1.4,1.7-0.5
	c0.5,0.5,1.7,0.3,2-0.4c0.2-0.4,0-0.7-0.5-0.9c-0.6-0.2-1.3,0.2-1.9-0.2C35.7,18.1,37,18,39,19c0.2,0.9-1.1,0.7-1.2,1.6
	c-0.2,1.4-1.3,2.7-2.6,3.3c-0.3,0.1-0.7,0.1-0.5,0.5c0.1,0.2,0.4,0.5,0.5,0.4c0.9-0.5,1.6,1.3,2.6,0.1c0.4-0.4,0.7,0.1,0.6,0.6
	c-0.2,1.3-0.8,1.6-3.1,1.7C35.9,28,36.6,28.8,36.5,29.8z"/>
<path class="st64" d="M31.3,24c-1.4-1.8-1.3-3.7-0.1-4.9c0.3-0.3,0.7-0.4,1.1-0.2c0.3,0.2,0.3,0.5,0.2,0.8c-0.2,0.8-0.3,1.6-0.5,2.3
	C31.9,22.8,30.8,23,31.3,24z"/>
<path class="st27" d="M14.9,58c-0.7,0.1-1.2,0.6-1.9,0.5C13.6,57.2,13.8,57.1,14.9,58z"/>
<path class="st2" d="M7.3,94.9c0.4-1.1,0.7-2.2,0.6-3.5c0.9,0.9,0.5,1.8,0.6,2.6C8.5,94.8,7.9,94.8,7.3,94.9L7.3,94.9z"/>
<path class="st8" d="M6.5,79c0.1,0,0.3,0,0.4,0.1c0,0.3,0.1,0.8-0.3,1C6.4,79.7,6.6,79.4,6.5,79z"/>
<path class="st27" d="M8.2,81.3c0.1,0.1,0.2,0.3,0.1,0.4c0,0.1-0.1,0.2-0.2,0.4C8.1,81.9,8,81.8,8,81.7C8,81.5,8.1,81.4,8.2,81.3z"
	/>
<path class="st19" d="M25,20.7c0.3-0.1,0.5-0.4,0.8-0.1c0.1,0.1,0,0.3-0.1,0.4C25.3,21.1,25.1,21,25,20.7C25,20.7,25,20.7,25,20.7z"
	/>
<path class="st65" d="M20.9,118.9c-2.2,0.1-4,0.2-5.9,0c-0.5-0.1-1-0.3-1.4-0.2c-3,0.6-3.5-2.1-4.9-3.7c3-0.4,5.9-0.3,8.8-0.2
	c0.7,0,1.1,0.6,1.5,1.1C19.5,116.7,20.1,117.6,20.9,118.9z"/>
<path class="st1" d="M49,46.7c0.1-1.1,0.2-2.1,0.9-3c0.2-0.2,0.3-0.5,0.7-0.3c0.3,0.2,0.6,0.4,0.3,0.9C50.4,45.2,50,46.1,49,46.7z"
	/>
<path class="st6" d="M57.8,44.1c-0.4,0.6-1,0.5-1.7,0.3C56.8,44,57.3,44.2,57.8,44.1C57.8,44.1,57.8,44.1,57.8,44.1z"/>
<path class="st66" d="M43.6,66.6c0.2,0,0.3,0,0.5,0c0.6,0.6,1.4,0.7,2.2,0.6c0.5-0.1,1.1-0.1,1.6,0c0.3,0,0.6,0.3,0.7,0.6
	c0,0.3-0.3,0.5-0.6,0.6c-0.5,0.2-1.1-0.1-1.6,0.4c0.8,0.5,1.9-0.1,2.8,0.6c-0.8,0.9-1.8,1-2.8,1c-1.2,0-2.4,0-3.6,0
	c-1.7-0.1-2.3-0.8-2.1-2.5c0.1-0.6,0.5-0.8,1-0.9C42.5,66.9,43.1,67.1,43.6,66.6z"/>
<path class="st67" d="M50.8,65.1c0.7,0,1.4,0,2.1,0.3c1,0.6,1.5,1.8,1.1,2.8c-0.4,1-1.5,1.5-2.5,1.2c-1.1-0.3-1.8-1.3-1.6-2.5
	C49.9,66.2,50.5,65.7,50.8,65.1C50.8,65.1,50.8,65.1,50.8,65.1z"/>
<path class="st37" d="M24.1,64.7c-0.7-0.2-1-0.7-1-1.4C23.6,63.6,24,64.1,24.1,64.7z"/>
<path class="st1" d="M24,58.1c0,0.2,0,0.3,0,0.5c0,0.2,0,0.5-0.2,0.5c-0.2-0.1-0.1-0.4,0-0.6C23.8,58.3,23.9,58.2,24,58.1
	C24.1,58.1,24,58.1,24,58.1z"/>
<path class="st30" d="M56.1,71.9c-0.8-0.6-1-1.5-0.9-2.4C55.8,70.1,56.2,70.9,56.1,71.9z"/>
<path class="st4" d="M32.5,114.8c0.5-0.7,1.3-0.5,2-0.5c1,0,2,0,3.1-0.2c1.8-0.4,4.3,1.5,4.4,3.4c0.1,0.8-0.4,1.2-1.1,1.2
	c-1.4,0-2.9,0-4.3-0.1c-1-0.1-1.4-1-1.9-1.6C34,116.2,33.5,115.3,32.5,114.8C32.5,114.8,32.5,114.8,32.5,114.8z"/>
</svg>
