<?xml version="1.0" encoding="utf-8"?>
<!-- Generator: Adobe Illustrator 23.1.1, SVG Export Plug-In . SVG Version: 6.00 Build 0)  -->
<svg version="1.1" id="Livello_1" xmlns="http://www.w3.org/2000/svg" xmlns:xlink="http://www.w3.org/1999/xlink" x="0px" y="0px"
	 viewBox="0 0 80 135" style="enable-background:new 0 0 80 135;" xml:space="preserve">
<style type="text/css">
	.st0{fill:#FFFFFF;stroke:#000000;stroke-width:0.2509;stroke-miterlimit:10;}
	.st1{fill:#50504E;}
	.st2{fill:#EA515C;}
	.st3{fill:#94894C;}
	.st4{fill:#A29B4F;}
	.st5{fill:#E24F58;}
	.st6{fill:#F1E839;}
	.st7{fill:#D24850;}
	.st8{fill:#B9A747;}
	.st9{fill:#5D5B53;}
	.st10{fill:#817E65;}
	.st11{fill:#5B5B4E;}
	.st12{fill:#DA4D53;}
	.st13{fill:#60373A;}
	.st14{fill:#807F57;}
	.st15{fill:#5B4441;}
	.st16{fill:#847F58;}
	.st17{fill:#767461;}
	.st18{fill:#E0DB4F;}
	.st19{fill:#563536;}
	.st20{fill:#AE474C;}
	.st21{fill:#8F383D;}
	.st22{fill:#CFB742;}
	.st23{fill:#C95056;}
	.st24{fill:#A84041;}
	.st25{fill:#DA4A51;}
	.st26{fill:#D26070;}
	.st27{fill:#92865F;}
	.st28{fill:#C14F54;}
	.st29{fill:#D94B4A;}
	.st30{fill:#CD5158;}
	.st31{fill:#915559;}
	.st32{fill:#F4E932;}
	.st33{fill:#C6AF4A;}
	.st34{fill:#EADD37;}
	.st35{fill:#928644;}
	.st36{fill:#DA4E52;}
	.st37{fill:#CF4F4E;}
	.st38{fill:#E15159;}
	.st39{fill:#D55159;}
</style>
<path class="st0" d="M71.5,135h-63c-4.7,0-8.5-3.8-8.5-8.5V8.5C0,3.8,3.8,0,8.5,0h63C76.2,0,80,3.8,80,8.5v118
	C80,131.2,76.2,135,71.5,135z"/>
<path class="st1" d="M16.7,74.2c0-0.1,0.1-0.1,0.1-0.2c1.5-2,1.4-2-0.1-3.8c-3.3-3.9-5.8-8.3-7.8-13c-2.3-5.4-3.8-11.1-4.4-17
	c-0.4-4.9,0.3-9.7,2.8-14c0.8,0.3,0.8,1,1,1.6c0,1,0.5,2.3-1,2.9c-1.4,0.7-0.9,1.8-0.7,2.9c0.3,1.2,0.5,2.5,0.1,3.7
	c-0.3,4.9,0.6,9.7,2,14.3C10,52,11,53,12.4,52c0.2-0.1,0.4,0,0.6,0c1,1.3,2.2,0.2,3.4,0.3c0.2,0,0.4,0.2,0.6,0.3
	c1.9,4.5,4.5,8.7,7.6,12.4c0,0.1,0,0.2,0,0.2c-3.4,0.1-2.9,3.3-4,5.1c-0.6,1,0.1,1.4,1,2c-0.2-1-0.6-1.7-0.5-2.5
	c0.1-0.6,0.2-1.1,0.8-1.4c0.9-0.4,0.7,0.5,1.1,0.9c1,1.1,2.2,1.1,3.5,0.8c0.7-0.2,1.4-1.5,2-0.4c0.6,1-0.3,1.8-1,2.1
	c0.6-0.7,2.6-0.9,1.3-3c-0.3-0.5,0.4-0.7,0.9-0.8c3,0.6,5.9,1.7,9.1,1.7c4.2,0,8.1-0.9,11.7-2.9c0.6-0.3,1.1-0.7,1.8-0.7
	c0.5,1.2,1.8,2.2,0,3.8c-1.1,1,0.9,1.4,1.4,2c-0.8-1-1.2-1.8,0.4-2.6c1-0.5,2.9,0.1,3-1.7c0.1-1.4-1.2-2.2-1.9-3.2
	c0-1.3,1-2,1.7-2.8c2.7-3.3,4.4-7,5.2-11.2c0.3-1.1,0.9-1.6,2.1-1c0.5,0.1,0.9,0.4,1.3,0.8c0.2,0.1,0.3,0.3,0.5,0.4
	c1.1,0.3,2.2,1,3.3,0c1.4-1.8,1-4,1.6-6c0.5-1.7,0.6-3.5,0.7-5.3c-0.4-1.3,0.8-2.1,1-3.2c0-0.3,0-0.7,0-1c0-1.2-0.4-2.4,0.7-3.3
	c0.8,3.6,0.7,7.3,0.2,10.9c-1.4,9.2-4.7,17.7-10.2,25.2c-0.3,0.4-0.6,0.8-0.9,1.1c-1.7,1.9-1.7,2.1-0.1,4.1c0.1,0.2,0.3,0.4,0.4,0.6
	c-0.9,0.7-1.4-0.1-2.1-0.4c-0.4-0.3-0.9-0.9-1.4-0.3c-0.4,0.5-0.2,1,0,1.6c0.3,0.8,1,1.4,1.5,2.1c0.4,0.7,0.6,1.4,0.2,2.2
	c-0.2,0.2-0.4,0.3-0.6,0.2c-11.4-8.9-23.5-8.1-36-3c-1.9,0.8-2.7,2.3-3.4,4.1c-0.7,1.8-1.1,3.8-2.2,5.5c-0.4,0.6-0.5,1.3-0.5,2
	c0,0.7,0,1.4-0.3,2c-0.4,0.5-0.7,0.4-1-0.1c-0.4-0.6-0.4,0.1-0.5,0.2c-0.8,1.1-2.1,0.9-3.2,1.3c-0.5-0.1-0.7-0.4-0.9-0.8
	c-0.4-0.9-0.9-1.4-1.9-1.2c-1.3,0.1-2.2,0.7-2.8,1.9c-0.3,0.6-0.5,1.4-1.4,1.5c-0.3-1-0.3-2.1,0-3.1c0.4-1.5,0.6-2.9,0.3-4.5
	c-0.1-0.7,0-1.4,0.5-2c0.7,0.6,1.1,0.2,1.5-0.4c0.4-0.6,1-1.3,1.7-0.7c0.6,0.5,0.1,1.2-0.2,1.7c-0.1,0.3-0.2,0.6-0.2,0.6
	c0.2-0.2,0.4-0.8,0.9-1c0.3-0.1,0.6-0.2,0.9,0c0.4,0.3,0.4,0.6,0.2,1c-0.1,0.2-0.3,0.3-0.3,0.5c0.2-0.2,0.4-0.3,0.6-0.3
	c0.2,0,0.4,0.1,0.4,0.2c-0.7,2.1,1.6,1.3,2.2,2.1c0.4,0.5,0.6-0.2,0.8-0.5c2-3.4,3.3-7.1,4.7-10.9C19.3,74.1,17.5,75.3,16.7,74.2z"
	/>
<path class="st2" d="M56.1,26.6c1.3-1.1,2.5-2.2,3.6-3.5c0.7-0.8,1.4-1.6,2.5-1.7c0.3-0.4,1,0,1.2-0.6c0.7-0.4,1.4-0.4,2.2-0.1
	c0.3,0.7,0.8,0.2,1.2,0.2c0.2,0,0.3,0,0.3,0.2c2.6,1.8,3.9,4.5,4.9,7.3l0,0c0.6,2.7,0.1,3.3-2.7,2.8c-2.3-0.4-4.6-0.8-7,0.1
	c-0.8,0.3-1.4,0.6-1.9,1.2c-0.6,0.8-1.3,1.2-2.3,0.6c-0.2-0.1-0.3-0.3-0.5-0.5c-0.4-1.2-3-2.1-0.6-3.8c-1,0.7-1.9,0.6-2.9,0.3
	c-0.3-0.2-0.6-0.4-0.6-0.8C53.7,27.1,55.2,27.3,56.1,26.6z"/>
<path class="st3" d="M72,86.2c1.2,2,1.6,4.3,1.8,6.6c0.3,3.2,0.6,6.5,1.5,9.6c0.9,3.2,0.2,6.5-0.2,9.7c-0.2,1.4-0.6,2.8,0.6,4
	c0.5,0.4,0.3,1.1-0.1,1.5c-0.2,0.4-0.7,0.5-1.1,0.4c-0.6-0.2-0.9-0.7-0.8-1.3c0.3-1.8-0.9-3.2-1-5.1c-1.4,1.2-2.9,1.7-3.7,3
	c-0.3,0.5-0.8,0.5-1.3,0.4c-0.4-0.1-0.7-0.5-0.6-0.9c0-0.6,0.3-1.2,0.9-1.3c2.7-0.2,2.7-2.3,3-4.1c0.4-2.4,0.1-4.8-0.5-7.1
	c-0.8-2.7-0.5-5.5-0.9-8.3c-0.3-1.7-0.9-3.4-1.1-5.1C69.3,86.7,70.8,86.7,72,86.2z"/>
<path class="st4" d="M67.7,90.1c1.4,2.7,1.9,5.7,1.9,8.7c0,6.2-1.4,12-5.1,17.1c-0.3,0.4-0.6,0.7-0.9,1.1c-0.2,0.2-0.4,0.2-0.7,0.1
	c-0.6-1.2,0.3-2,0.8-2.8c2.5-4.3,4.2-8.8,3.8-13.9c-0.1-1.3-0.2-2.6-1.6-3.4c-0.8,1.7-0.5,3.5-0.8,5.1c-3,17.9-22.6,27.3-38.2,18.2
	c-1.1-0.7-2.5-1.3-2.5-2.9c1.4-0.7,2.2,0.4,3.2,1c10.4,6.3,24.5,3.5,31.3-6.4c4.4-6.4,5.6-13.4,3.1-21c-0.2-0.5-0.3-1.1-0.3-1.6
	c0.3-0.8,0.3-2.2,1.5-2c1.3,0.2,2.8,0.3,3.8,1.6C67.2,89.3,67.1,89.9,67.7,90.1z"/>
<path class="st5" d="M8.1,27.9c-0.2-0.6-0.5-1.2-0.7-1.8c0.4-1.2,1.2-2.1,1.9-3c2.6-3,6.9-2.9,9.4,0.3c0.2,0.3,0.5,0.6,0.8,0.9
	c0.6,0.7,1.2,1.5,2.1,1.9l-0.1,0c0.5,0.5,1.3,0.6,1.9,0.9c1.2,0.6,1.7,1.4,0.7,2.6c-0.6,0.5-1.3,0.9-1.9,1.4
	c-1.4,1.1-2.8,2.9-4.4,0.3C15,31.7,13,29,10.1,29.3c-0.7,0.1-2,0.3-1.5-1.3C8.6,27.6,8.2,28,8.1,27.9z"/>
<path class="st6" d="M44.1,15.8c0-0.1,0.1-0.2,0.2-0.2c2.3-1.3,4.1-3.5,6.9-4c-0.2-0.1-0.5-0.1-0.8-0.2c-1.2-0.2-2.8-0.7-2.8-1.8
	c0-1.4,1.7-0.4,2.6-0.7c1.6-0.5,3.4-0.7,5-1.5l0,0c1.5-0.6,3-1,4.6-1.2c1-0.1,1.9,0,2.7,0.7c0.7,0.6,1,1.2,0.8,2.1
	c-0.3,0.9-0.9,1.2-1.8,1.2c-1.2,0-2.4-0.5-3.5,0.4c0.7,0.9,1.4,1.6,2.6,0.7c0.6-0.4,1.3-0.6,2-0.1c0.5,1.6-0.9,2.2-1.6,3.2
	c-1.1,0.5-2-0.2-3-0.4c-1.6-0.4-3-0.6-3.5,1.5c-0.1,0.3-0.5,0.6-0.8,0.9C52,17.3,52,17.3,51,16.3c-0.1-0.1-0.2,0.1-0.3,0.2
	c-0.3,0.4-0.6,0.8-1,1c-2.9-0.3-3.5,2.2-4.7,3.9c-0.1,1.8-0.9,3-3,2.9c-1.7-0.1-2.2-0.9-1.6-2.4C41.3,19.6,42.9,17.8,44.1,15.8z"/>
<path class="st7" d="M60.4,79c0.2-1.1-0.1-2-1-2.8c-0.8-0.8-1.4-1.7-1.4-2.9c0-0.5-0.2-1.2,0.5-1.4c0.6-0.2,1.1-0.1,1.5,0.3
	c0.7,0.6,1.2,1.5,2.3,1.5c0,0-0.1,0-0.1,0c0.4,0.4,1,0.6,1.4,1c2.4,1.3,4.5,2.9,6.3,5c0.4,1.2,1.4,2.2,1.6,3.4c0.2,1.1-0.1,2-1,2.4
	c-1.1,0.6-1.4-0.5-1.9-1.2c-0.1-0.3-0.3,0.2-0.1,0c0.4,0.7,0.5,1.5-0.3,1.8c-1.3,0.5-1.1-1-1.6-1.5c0.1,0.7,1.2,1.7,0.2,2.3
	c-1,0.6-1.3-0.8-1.9-1.3c-0.1-0.3-0.3,0.2-0.1,0c0.1-0.1,0.1,0,0.2,0.2c0.3,0.4,0.5,0.9,0,1.3c-0.7,0.5-1.3,0.1-1.7-0.4
	c-1.2-1.4-1.8-3-2.3-4.7C60.8,81.1,60.6,80,60.4,79z"/>
<path class="st8" d="M5.9,92.5c0.3-0.5,0.7-1.1,0.9-1.6c0.6-1.6,1.6-2.4,3.3-2.3c0.6,3,0.4,6.1,0.7,9.1c-0.4,1.5,0.4,3.2-0.3,4.7
	c-0.8,1.5-0.2,3.3-0.8,4.9c-0.5-0.6-0.4-1.2-0.3-1.4c1,4-2.3,6.9-3.9,10.3c-0.1-3.4-0.2-6.8,0.2-10.2c0.4-3.6,0.2-7.3,0.1-10.9
	C5.7,94.2,5.6,93.4,5.9,92.5z"/>
<path class="st9" d="M23.9,29.6c0.6-0.9,0.5-1.7-0.4-2.1c-0.7-0.3-1.5-0.4-1.9-1.3c0.1,0,0.2,0,0.2,0c2.4,0.6,3.8,0.3,4.4-0.9
	c0.9-1.6,0.6-4.1-0.7-5.6c-0.5-0.5-1-1-1.6-1.3c-2.2-1-4.2-2.5-6.7-3c-0.5-0.1-1.1-0.2-1.5-0.7c-0.1-0.2-0.1-0.4,0-0.6
	c1.6-0.7,3,0.7,4.6,0.1c0.2,0,0.5,0,0.7,0c0.2,0,0.4,0.1,0.6,0.2c1.1,1.9,3.1,1.7,4.8,1.5c1.8-0.3,3,0.3,3.5,1.9
	c0.3,0.9,0.8,1,1.6,0.8c0.2,0,0.5,0,0.7,0.1c0.5,0.2,1.1,0.3,1.5,0.8c0.3,0.5,0.3,1.1,0.1,1.6c-0.7,1.1-2,0.3-2.8,0.8
	c-0.5,0.7-0.7,1.4-0.6,2.3c0-1,0-1.9,0.9-2.6c1.3,0.8,1.4,2.1,1.4,3.4c-2.8,1.8-5.8,3.4-8.7,5C23.9,30,23.8,29.8,23.9,29.6z"/>
<path class="st10" d="M10.4,102.4c-0.5-1.5-0.6-3-0.3-4.5c0.5-1.9,0.2-3.9,0.8-5.8c0.3-0.8,0.3-2,1.5-2.2c0.1,0.4,0.1,0.8,0.5,1
	c0.6,1.7-0.3,3.2-0.4,4.9c-0.1,1.5-0.3,3-0.3,4.5c-0.6,15,13.8,27.9,27.8,27.1c8.5-0.4,15.7-3.2,21.3-9.7c0.4-0.5,0.8-1,1.6-0.9
	c0.2,0,0.5,0.1,0.7,0.1c-2.9,4.4-7,7.5-11.7,9.5c-8.5,3.7-17.1,3.7-25.4-0.6c-8.5-4.4-13.7-11.4-15.6-20.8
	C10.7,104.2,10.6,103.3,10.4,102.4z"/>
<path class="st11" d="M49.4,17.1c1-0.6,1.6-1.5,1.7-3c1,1.3,0.2,2,0.1,2.7c0.9,0.3,1.3-0.5,1.9-0.8c0.9-0.1,1.8-1.5,2.9-0.1
	c0.3,0.4,1-0.3,1.4-0.5c1-0.5,1.9-1.2,3.1-0.9c1.6,0,3.1-1.2,4.8-0.3c-0.1,0.6-0.7,0.8-1.1,0.8c-2.7,0.3-4.8,1.9-7.2,2.9
	c-2.2,0.9-3.9,2.4-4.7,4.8c-0.9,2.6,0.4,4.1,3.1,4c0.2,0,0.5,0,0.7-0.1c-0.4,0.6-1,1-1.6,1.3c-0.5,0.3-0.7,0.6-0.7,1.1
	c-2.4-0.3-4.1-1.8-5.9-3.1c-0.1-1.6,0.8-2.8,1.3-4.3c-1.1,1.2-1.7,2.9-3.5,3.4c-0.2,0-0.4,0-0.6-0.2c-0.4-1.2,0.7-1.8,0.9-2.7
	c0.7-1.4,1.5-2.6,3.3-2.7c0.6,0,0.2-0.6,0-0.9c-0.1-0.2-0.2-0.4-0.3-0.6C49.1,17.6,49.1,17.3,49.4,17.1z"/>
<path class="st12" d="M11.9,84.7c-0.6,0.5-0.8,1.4-1.7,1.8c-0.6-1.3,1.1-1.8,1-3.1c-1.5,0.3-1.5,1.9-2.7,2.6c-0.4-1.6,1.1-2.5,1.2-4
	c-1.4,0.5-1.5,2.1-2.6,2.6c-0.7-0.4-0.4-1.1-0.5-1.7c0.6-1.7,1.9-3,3.2-4c2.2-1.7,4.6-3.2,6.8-4.7c1,0,2.1-0.1,3.1,0
	c0.5,0,1.2,0.1,0.9,1C17.6,78.3,14.9,81.6,11.9,84.7z"/>
<path class="st13" d="M58,32.9c1.9,0.4,1.9,0.3,2.8-2.3c0.8,0.5,1.7,0.7,2.6,0.1c0.6-0.4,1.3-1.4,1.9,0c0,0,0.2,0.1,0.2,0
	c1.5-1.2,3-0.1,4.5,0.1c1.5,0.3,1.9,0,1.9-1.4c0-0.3,0-0.6,0.1-1c1,0.9,0.9,2.1,1,3.2c-0.4,1.2-0.2,2.4-0.1,3.6
	c-3.3-0.7-6.6,0.7-10,0.3c-1.1-0.1-1.3,0.9-1.7,1.8c-0.1,0.2-0.3,0.3-0.5,0.4C59.3,36.4,57.9,35.1,58,32.9z"/>
<path class="st14" d="M15.9,14.1c0,0.2-0.1,0.3-0.1,0.5c-1.8-1.1-1.8-1.1-2.3-3c1.2-0.1,1.8,1.3,3.2,0.9c-1.9-1.4-3.7-2.9-6.2-1.9
	c-0.8,0.3-1-0.2-1-0.8c0-0.5,0.2-0.9,0.5-1.3c0.6-0.6,1.2-1,2-1.2c1.3-0.4,2.5,0.4,3.7,0.2c1.2-0.2,1.4-1.9,2.6-2.2
	c1.1-0.3,2.2-0.3,3.3,0.1c2.4,0.9,4.7,1.9,6.7,3.4c-0.1,0.1-0.1,0.2-0.2,0.3c-1.6,0.6-2.5-0.7-3.7-1.2c-1.9-0.8-3.8-2.1-6-0.8
	C20,6.7,21.6,7,23.1,7.5c0.6,0.2,1,0.4,1.1,1.1c0.1,0.6-0.3,1-0.8,1.3c-1.8,1.2-5.5,1.3-7.3-0.1c-1.1-0.8-2.2-1.5-4.1-1
	c3.4,0.3,5.6,2.2,7.9,3.8c0.7,0.4,1.6,0.9,1.1,2.1c-0.2,0-0.4,0-0.6,0C19,14.6,17.5,13.7,15.9,14.1z"/>
<path class="st15" d="M60.4,79c0.9,0.2,0.9,1,1,1.7c0.3,1.8,1.1,3.5,2,5.1c0.3,0.5,0.7,1.1,1.6,1.1c0.1-1-1.3-1.7-0.8-2.9
	c1.3,0.7,1.2,2.5,2.8,2.9c0-1.3-1.1-2.2-1.1-3.5c1.1-0.3,1.1,0.6,1.4,1.1c0.3,0.5,0.2,1.3,1,1.5c0.9-1-0.3-1.9-0.3-3
	c1.2,0.5,1.1,2,2.3,2.5c-0.1-0.9,1.4-0.8,1.2-1.8c-0.1-0.8-0.6-1.5-0.9-2.2c-0.3-0.6-0.6-1.1-0.6-1.8c1.9,1.8,2.1,4.1,2,6.5
	c-0.8,1.3-2.3,1.3-3.4,2c-0.9-0.7-1.3-0.3-1.3,0.6c0,0.4,0.2,0.9,0.4,1.3c-0.1,0.2-0.3,0.5-0.3,0.5c-0.4-1.5-1.4-2.1-2.8-2
	c-0.1,0-0.3-0.2-0.4-0.3c-1-0.9-1.5-0.6-1.7,0.7c0,0.1-0.3,0.1-0.4,0.2c-0.2,0-0.4-0.1-0.4-0.2c-0.9-3.2-1.6-6.4-1.4-9.8L60.4,79z"
	/>
<path class="st16" d="M46.4,22.3c-0.2,1-0.8,1.7-1.4,2.5c-0.3,0.4-0.8,0.6-1.2,0.6c-3.5-0.6-6.9,0-10.3,0.3c-0.3,0-0.6-0.1-0.8-0.4
	c-0.7-1-0.6-2.3-1.4-3.3l0,0c0.6-1.2,1.5-0.4,2.3-0.5c0.2,0.3,0.7,0.3,1,0.2c1-0.4,1.7,0.6,2.7,0.4c-0.2-1.3-1.4-2.2-1.5-3.5
	c0.1-0.2,0.2-0.4,0.4-0.5c1.6,1.2,2,3.1,3.3,4.7c1.5-2.3,2.4-5.1,4.7-6.8c0.2,0.8-0.4,1.3-0.9,1.9c-1.1,1.4-1.9,2.9-2.6,4.5
	c-0.4,1,0,1.3,0.9,1.4c0.9,0.2,1.8-0.1,2.6-0.4c0.7-0.3,0.6-0.6-0.2-0.6c-0.6,0-0.3-0.4-0.2-0.6c0.3-0.4,0.6-0.8,0.9-1.1
	C45.9,20.3,46.2,21.3,46.4,22.3z"/>
<path class="st16" d="M62.4,11.3c-0.2,0-0.5,0-0.7,0.1c-2.4,0.7-2.4,0.8-5.4-0.3c1.1-1.6,2.6-2,4.4-1.6c0.8,0.2,1.6,0.5,2-0.5
	c0.4-1-0.3-1.6-1.1-2.1c-0.9-0.6-1.8-0.5-2.8-0.3c-1.2,0.3-2.4,0.8-3.7,0.8c1.5-1,3.1-1.4,4.9-1.5c1.2-0.1,2.4,0.1,3.2,1.2
	c0.6,0.8,1.3,1.1,2.3,0.7c1.1-0.5,2.2-0.1,3.2,0.3c-0.1,0.2-0.2,0.5-0.4,0.5C65.9,8.8,64.2,10.2,62.4,11.3z"/>
<path class="st17" d="M5.4,116.2c0.5-1.8,1.7-3.4,1.8-5.3c0-0.1,0.1-0.4,0.2-0.4c2.7-0.2,1.4-2.3,1.7-3.6c0.1-0.4,0.1-0.9,0.1-1.7
	c0.6,0.7,0.3,1.5,0.5,2c-0.2,2.5,0.1,4.8,2.4,6.4c0.4,0.3,0.5,0.8,0.3,1.3c-0.3,0.5-0.7,0.6-1.2,0.6c-0.5,0-0.8-0.3-1-0.8
	c-0.6-1.5-0.6-1.5-2.1-2.3c-0.5,1.5-1.8,2.6-1,4.4c0.3,0.6,0.2,1.1-0.4,1.4c-0.4,0.2-1,0.2-1.4-0.1c-0.6-0.4-0.3-1,0-1.5
	C5.2,116.5,5.3,116.4,5.4,116.2z"/>
<path class="st18" d="M62.4,11.3c1.4-2.4,3.7-3,6.3-3.1c0.7,0.1,1,0.6,1.2,1.1c-0.2,0.4,0.3,1.2-0.5,1.4c-0.2,0-0.4,0-0.6,0
	c-2.3-0.4-4,0.9-5.7,2.2c0.7,0.7,2,0,2.2,1.3c0,0,0,0,0,0c-1.6,0-3.2,1.2-4.9,0.5c-0.2-0.1-0.2-0.3-0.1-0.4
	C60.9,13.2,61.9,12.4,62.4,11.3z"/>
<path class="st16" d="M55.2,7.4c-2.1,1.7-4.7,1.6-7.3,2.1c1.3,1.8,3.5,1.3,5.1,2c-0.1,0.5-0.4,0.7-0.8,0.7c-2.6,0-4.5,1.3-6.4,2.8
	c-0.4,0.4-0.9,0.7-1.5,0.6c1.1-1.7,3.1-2.4,4.7-3.8c-0.7-0.8-1.7-1.1-2.2-2c-0.4-0.7-0.1-1.4,0.7-1.3C50.2,9.1,52.6,7.9,55.2,7.4z"
	/>
<path class="st14" d="M28.3,8.8c1,0.1,2,0.2,3,0.4c0.1,1-0.7,1.3-1,2.1c1.8,2.2,4.6,3.8,5.8,6.7C36,18,36,18,35.9,18.1
	c-1,0.2-1.4-0.6-1.9-1.2c-2.2-2.4-4.5-4.5-8-4.6c-0.6,0-1.2-0.2-1.2-0.9c0-0.9,0.8-0.8,1.3-1.1c0.8-0.4,2.5,0.9,2.1-1.3L28.3,8.8z"
	/>
<path class="st11" d="M65.2,14.2c-1-1.1-2.4,0-3.7-0.8c2.2-1.7,4-3.8,7.2-2.7c-1.7,0.2-3,1.1-4.5,2.1c0.9,0.8,1.7-0.1,2.5,0.2
	C66.6,14,66,14.1,65.2,14.2z"/>
<path class="st13" d="M72,28.6c-0.7-1-1.8-1.8-1.7-3.3c0-0.7-0.8-1.3-1.3-1.9c-0.6-0.7-1.5-1.2-1.8-2.1C70,22.8,71.6,25.3,72,28.6z"
	/>
<path class="st9" d="M21.6,26.2c-1.2,0-1.7-0.9-2.1-1.9C20.6,24.4,21.1,25.3,21.6,26.2z"/>
<path class="st1" d="M63.7,74.7c-0.6-0.1-1.2-0.3-1.4-1C63,73.7,63.5,74.1,63.7,74.7z"/>
<path class="st11" d="M69.3,10.7c0.2-0.5,0.3-0.9,0.5-1.4C69.7,9.8,71.3,10.9,69.3,10.7z"/>
<path class="st13" d="M66.8,21c-0.4,0.5-1,0.5-1.4,0.3c-0.6-0.3,0.1-0.3,0.2-0.5C66,20.9,66.4,21,66.8,21z"/>
<path class="st13" d="M63.4,20.8c0,1-0.8,0.3-1.2,0.6C62.4,20.9,62.9,20.9,63.4,20.8z"/>
<path class="st19" d="M23.9,30c-3.1,2.8-5.3,6.2-6.8,10.1c-0.7,0.2-1.3,0.6-1.4,1.4c-0.3,2.6-0.7,5.1,0.1,7.7
	c0.1,0.2,0.1,0.4,0.1,0.6c-0.1,0.4-0.2,0.7-0.2,1.1c0,0.3,0.1,0.5,0.1,0.2c0,0,0.1,0,0.2-0.1c0.2,0,0.3,0,0.4,0.2l0,0
	c0.2,0.5,0.3,0.9,0,1.4c-0.7,0.8-1.8,0.5-2.6,1c-0.8,0.4-0.7-0.8-0.8-1.4c-1.1-3.9-1.1-8-1.1-11.9c-0.5,3.9,0.7,7.9,0.7,12
	c-0.4,1-1,1.9-2,0.6c-0.7-0.9-1.8,0.3-2.3-0.7c1-1.6,0.1-3.2-0.3-4.6c-0.7-2.7-0.6-5.3-0.8-8c-0.1-0.8,0.2-1.8-0.8-2.3
	c0.6-1.3,0.2-2.5,0-3.8c1.2,0.3,2.4,1,3.6,0c0.4-0.3,1-0.1,1.2,0.3c0.6,1.3,1.8,0.9,2.9,1c1.2,0.3,2,1.8,3.5,1
	c-0.8-1.8-2.4-0.7-3.5-1c-1.6-1.7-3.6-2.6-5.6-3.6C7.7,31,7,31,7.2,30.1c0.5-0.1,1-0.2,0.7-0.9c-0.2-0.5-0.1-0.9,0.2-1.3
	c0.4-0.2,0.5-1.1,1-0.7c0.6,0.4-0.2,0.8-0.3,1.2c0,0.1,0,0.2,0,0.4c1.9-0.1,3.8,0.3,5.6,0.9c0.4,0.1,0.7,0.2,0.9,0.6
	c0.5,1,1.2,1,2.1,0.3c0.7-0.6,1.1-0.4,1.2,0.6c0.2,1.3,0.8,1.6,1.8,0.9c0.5-0.3,1-0.8,1.4-1.2c0.6-0.6,1.1-1.1,2-1.1
	C23.9,29.7,23.9,29.8,23.9,30z"/>
<path class="st13" d="M61.5,39.7c-0.2-0.7-0.8-1.3-0.6-2c0,0,0,0,0,0c3.8-1.4,7.8-2.3,11.9-1.5c0,0.4,0.1,0.9-0.3,1.1
	c-0.9,0.5-0.7,1.2-0.6,2c-1.3,1.1-0.9,2.8-1.2,4.2c-0.5,2.6-0.4,5.3-1.7,7.8c-0.2,0.4-0.6,1-1,0.7c-0.8-0.5-1.6-0.4-2.4-0.5
	c-0.3,0-0.3-0.5-0.4-0.8c1.1-0.7,0.9-2,1.1-3c0.4-2.3,0.1-4.5-0.2-6.8c-0.6,2.4,0,4.9-0.3,7.3c-0.1,0.9,0.1,1.8-0.6,2.5
	c-0.5-0.2-0.8-0.6-1.2-1c-0.9-2.2-0.3-4.5-0.4-6.7C63.6,41.4,63.1,40.2,61.5,39.7z"/>
<path class="st20" d="M24.4,65.2c1.6,1,3.2,2.1,4.8,3.1c-0.4,1,0.5,1.5,1,2.1c0.4,0.6-0.2,1.2-0.3,1.1c-1.2-0.9-1.6,0.4-2.3,0.7
	c-0.1,0.1-0.3,0.1-0.5,0.1c-0.5,0.2-1.1,0.7-1.4-0.2c-0.1-0.5,0.6-0.8,1-0.7c1.2,0.2,1.2-0.6,1.4-1.4c0-0.1-0.1-0.1-0.1-0.2
	c-1.3,0.9-2.7,1.9-4.4,0.7c-0.1-0.1-0.5,0-0.7,0c-1,0.3-1.1-0.2-0.9-1c0.1-0.3,0.4-0.5-0.1-0.9c-0.5,1-0.9,2,0.1,2.9
	c0.9,0.8,0.1,1.2-0.3,1.7c0,0.1-0.1,0.1-0.2,0.1c-0.3,0.1-0.6-0.1-0.5-0.3c0.1-1.1-1.7-0.4-1.5-1.8c0.2-1.2,1.4-1.8,1.3-3
	c-0.2-1.5,0.7-2.5,1.5-3.6C23.1,64.5,23.5,66,24.4,65.2z"/>
<path class="st21" d="M11.9,84.7c2.2-3.8,5.1-7,8.7-9.6c0,0.7,0,1.4-0.4,2.1c-1.7,2.7-2.2,5.9-3.9,8.6c-0.6,1-1.3,1.7-1.9,2.6
	c-1.2-0.4,0-1.4-0.6-1.8c-0.2-0.1-0.5-0.1-0.6,0.1c-0.2,0.3-0.4,0.7-0.7,1c-0.2,0.3-0.5,0.4-0.8,0.2c-0.3-0.2-0.3-0.5-0.3-0.9
	c0-0.6,0.5-1,0.7-1.5C12.4,85.2,12.2,84.9,11.9,84.7z"/>
<path class="st22" d="M11.5,100.6c-0.2-3.3,0.2-6.5,1.3-9.6c0.1-0.3,0.2-0.8,0.5-0.7c1.1,0.4,1.7-0.4,2.4-0.9
	c1.3,0.5,0.9,1.6,0.7,2.4c-1.2,3.7-1,7.5-0.8,11.2c-1.1,1.2-1.2,0-1.3-0.7c-0.3-1.4,0-2.8-0.6-4.2C12.2,98.3,13,100.5,11.5,100.6z"
	/>
<path class="st23" d="M52.7,66.3c0.3-0.5,0.7-0.8,1.3-0.9c0.6-0.1,0.9-0.5,1.1-0.9c0,0,0,0,0,0c1.6-0.4,1.6,1.2,2.3,2
	c0.6,0.7,0.4,1.7,0.1,2.5c-0.2,0.5-0.7,0.7-1.2,0.5c-0.8-0.2-1.3,0.1-2,0.4c-0.4,0.2-0.8,0-0.9,0.7c0,0.7,0.3,0.8,0.8,0.9
	c0.5,0.1,0.6,0.6,0.8,1.4c-1.3-0.5-2.5-1-3.7-1.5c-0.4-0.2-0.6-0.7-0.2-1c0.7-0.6-0.3-1,0-1.5c0.6-0.3,1.1,0.6,1.9,0
	C51.7,68.3,52,67.3,52.7,66.3z"/>
<path class="st24" d="M7.2,30.1c0.1,0.3,0.3,0.6,0.6,0.7c0.2,0.1,0.5,0,0.7,0c2,0.6,3.4,2.1,5.3,2.9c0.2,0.1,0.1,0.7,0.1,1.1
	c0,0,0,0,0,0c-1.9,1.2-2.6,1-3.5-1.3c-0.8,0.8-1.8,1-2.7,1.6c-0.9-0.2-0.7-1.4-1.5-1.7C5.4,31.3,5.5,31.1,7.2,30.1z"/>
<path class="st25" d="M72.8,36.1c-1.1,1.2-2.4,0.2-3.6,0.4c-2.8,0.3-5.5,0.9-8.3,1.2c-0.1-2,0.6-3,2.2-2.7c2.2,0.5,4.2-0.3,6.3-0.4
	c1.2-0.1,2.5-0.3,3.4,0.8C72.8,35.6,72.8,35.9,72.8,36.1z"/>
<path class="st26" d="M61.5,39.7c1.8-0.6,2.5-0.3,2.6,1.6c0.2,2.8,0.3,5.6-0.1,8.3c-0.1,0.2-0.4,0.5-0.5,0.3c-0.4-0.6-0.7-0.2-1,0
	C62.6,46.5,62.4,43.1,61.5,39.7z"/>
<path class="st27" d="M15.3,103.5c0-2.4,0-4.7,0-7.1c0-1.3,0-2.6,0.6-3.9c0.4-0.9,0.3-2.1-0.2-3.1c0.2-0.3,0.4-0.6,0.7-1.1
	c0.6,0.5,0.1,1.3,0.7,1.7c0.1,1.2-0.5,2.3-0.7,3.5c-1.5,7.3,0,13.9,4.4,19.9c0.2,0.3,0.4,0.5,0.5,0.8c-0.7,0.1-1.3-0.1-1.7-0.6
	C17.2,110.6,15.2,107.5,15.3,103.5z"/>
<path class="st28" d="M6.2,37.3c0.4-0.2,0.9-0.6,1.2,0.1c0.1,0.3,0.2,0.6,0.2,0.9c-0.3,4.3,0.7,8.4,1.3,12.5
	c0.1,0.7,0.3,1.3-0.7,1.3c-0.4-2-0.6-4.1-1.4-6.1c-0.4-1.1-0.3-2.3-0.3-3.5C6.4,40.8,5.8,39.1,6.2,37.3z"/>
<path class="st29" d="M12.4,52.2c-1.7-4.8-1.9-11.5-0.2-14.5c0.6,2.6,0.1,5,0.3,7.3c0.1,2.4,0.6,4.7,0.5,7.2
	C12.7,52.1,12.6,52.2,12.4,52.2z"/>
<path class="st30" d="M69.1,51.2c0.5-3.7,0.9-7.4,1.5-11c0.1-0.6,0.3-1.5,1.4-0.9c-0.1,3.5-1.2,6.8-1.5,10.3
	C70.4,50.2,70.1,51.1,69.1,51.2z"/>
<path class="st27" d="M17.7,85.7c0,0.7,0.1,1.4-0.4,2C17.2,87,17,86.3,17.7,85.7z"/>
<path class="st31" d="M16.3,52.5c0-0.5,0-0.9,0-1.4c0.4,0.4,0.3,0.9,0.3,1.4c0,0-0.2,0-0.2,0L16.3,52.5z"/>
<path class="st13" d="M58,32.9c-1.4-1.3-2.7-2.6-4.1-3.9c1,0,2,0,3.4,0c-0.7,1-1.2,1.8,0,2.5C57.8,31.8,58.1,32.3,58,32.9z"/>
<path class="st32" d="M15.3,103.5c1,2.9,1.9,5.8,3.6,8.5c0.6,1,1.3,1.8,2.4,2.2c1,1,1.9,1.9,2.9,2.9c0.6,1.7,2.1,2.4,3.4,3.1
	c11.5,5.8,23,3.1,30.9-5.6c4-4.3,5.8-9.6,6.1-15.5c0-0.6,0-1.3,0-1.9c0-0.6,0-1.2,0.7-1.3c0.7-0.1,1,0.3,1.3,0.8
	c1,1.1,1.3,2.4,1.3,3.9c0.2,5.3-1.6,10-4.3,14.5c-0.4,0.6-0.7,1.2-1.1,1.8c-2.1,2.3-4.1,4.5-6.7,6.3c-4.3,2.9-9,4.4-14,4.9
	c-6.3,0.5-12.2-0.8-17.5-4.3c-6.5-4.3-10.8-10-12.5-17.7c-0.4-1.8-0.7-3.6-0.5-5.5c0.5-0.4,0.4-1,0.4-1.5c0.1-0.8,0.5-1.3,1.2-1.7
	c0.4-0.2,0.8-0.6,1.3-0.2c0.4,0.3,0.1,0.7,0.2,1.1C15,100,14.4,101.8,15.3,103.5z"/>
<path class="st16" d="M60.3,14.3c0,0.1,0.1,0.3,0.1,0.4c-1.6,0.1-2.6,1.3-3.9,1.9c-0.7,0.3-1.1,0.5-1.1-0.6c0-0.5-0.7-0.5-1.1,0
	c-0.5,0.6-0.5,0.6-1.2,0.1C53,15.1,55,15,54,13.8c0.8-0.6,1.6-1,2.6-0.7C57.8,13.5,59.1,13.6,60.3,14.3z"/>
<path class="st33" d="M46.4,22.3c-0.5-0.6-0.9-1.4-1.9-1.4c0.6-1.1,1.8-1.9,1.7-3.5c0-0.7,0.6-0.9,1.2-0.6c0.6,0.3,1.3,0.7,2,0.2
	c0,0.3-0.1,0.6-0.1,0.9l-0.1,0.2l0.2-0.1c0.4,0.3,0.8,0.5,1.1,0.9c0.5,0.7,0.1,1.6-0.7,1.3C47.8,19.6,47.2,21.1,46.4,22.3z"/>
<path class="st34" d="M28.2,8.9c0.3,0.8,1.5,0.2,1.6,1.2c-1.3,1.6-3.3,0-5,1c0.8,0.9,1.8,0.6,2.6,0.7c0.8,0.1,1.4,0.4,2.1,0.7
	c2.7,1.2,4.2,3.6,6.2,5.5c0.7,1.6,1.8,3,2.4,5.1c-1.2-1.2-2.7,0-3.6-1.5c-0.1,0.8-0.2,1.2-0.3,2c-0.4-0.9-0.7-1.6-0.9-2.2
	c0.2-0.6,0.2-1.2,0-1.8c-0.2-0.6-1-0.1-1.3-0.5l-0.1,0c-1.4-1.4-2.3-3-4.8-3.5c-1.8-0.4-3.3-1.4-5.1-0.5c-0.2,0.1-0.4-0.1-0.7-0.2
	c-0.1,0-0.3-0.1-0.4-0.1c0-0.8-0.7-1-1.2-1.4c-2.7-2.1-5.4-3.9-9-3.9c-0.1,0-0.2-0.2-0.5-0.4c1.2-1.2,2.5-1.2,3.9-0.8
	c0.4,0.1,1,0.3,1.2,0.7c1.2,1.8,3.2,1.2,4.8,1.6c0.9,0.2,3.6-1.2,3.4-1.6c-0.5-1.2-1.8-0.6-2.7-1.1c-0.8-0.5-1.9-0.1-2.7,0.4
	c-0.4,0.3-0.9,0.5-1.2-0.1c-0.2-0.5-0.1-1,0.3-1.3c0.8-0.8,1.8-1,2.9-0.9c1.7,0.2,3.1,1,4.6,1.8C26.1,8.1,26.9,9.1,28.2,8.9z"/>
<path class="st35" d="M21.5,14.7c0.4-0.1,1-0.1,1.1-0.3c0.6-1.1,1.5-0.8,2.4-0.7c1,0,1.6,0.4,2.1,1.2c0.7,1.1,1.8,0.6,2.7,0.6
	c1.6,0.1,1.7,0,1.5,1.6c-0.1,0.9,0.5,1.3,0.7,1.9c-0.5,0-0.9,0.3-1.3,0.5c-1,0.6-1.2,0.4-1.2-0.6c-0.1-2.1-0.9-2.7-2.9-2.2
	c-0.6,0.2-1.1,0-1.6-0.2c-0.5-0.2-0.7-0.4-1,0.3c-0.2,0.5-0.9,0.2-1.2-0.2C22.4,16.1,22,15.4,21.5,14.7z"/>
<path class="st34" d="M15.9,14.1c-0.1-0.2-0.1-0.4-0.2-0.6c1.6,0.5,3.4-0.1,4.9,1.1c-0.9,0.3-1.7,0.4-2.7,0
	C17.3,14.3,16.6,14.1,15.9,14.1z"/>
<path class="st16" d="M31.2,21.9c0.2,0.9-0.8,1.7-0.2,2.7c0.1,0.2-0.2,0.3-0.5,0.3c-0.2,0-0.4-0.1-0.7-0.1c0.1-0.7,0.1-1.3,0.1-2
	C30,22.2,30.5,21.8,31.2,21.9C31.1,21.9,31.2,21.9,31.2,21.9z"/>
<path class="st35" d="M32.1,19c0.5,0,1-0.1,1.3,0.5C32.9,19.5,32.4,19.6,32.1,19z"/>
<path class="st16" d="M47.9,25.7c-0.8-0.2-1.7-0.3-2.4-0.8c1.1-0.8,2-1.7,2.7-2.9c0.4-0.8,0.9-1.3,2-0.7
	C48.9,22.5,49.4,24.5,47.9,25.7z"/>
<path class="st31" d="M15.8,49.7c-0.4-0.5-0.9-0.8-0.9-1.6c-0.1-2.6-0.1-5.2,0.5-7.8c0.3-1.4,0.6-1.4,1.8-0.3
	c-0.7,3.2-1,6.4-0.9,9.6C16,49.8,15.9,49.9,15.8,49.7z"/>
<path class="st1" d="M15.8,49.7c0.1,0,0.3,0,0.4,0c0,0.5,0.1,0.9,0.1,1.4c-0.2,0-0.3,0-0.5,0C15.5,50.7,15.5,50.2,15.8,49.7
	L15.8,49.7z"/>
<path class="st1" d="M55.1,64.5c-0.1,0.7-0.4,1-1.1,0.9C54.3,65,54.6,64.7,55.1,64.5z"/>
<path class="st36" d="M9,36.9c1.1,0.7,1.1,1.6,1,2.5c-0.1,4.1,0,8.3,1,12.5C8.9,49.9,7.8,41.2,9,36.9z"/>
<path class="st37" d="M14.3,51.9c-0.7-0.1-0.9-0.5-0.8-0.9c0-3.1-0.6-6.3-0.4-9.4c0-0.7,0.3-1.4,0.5-2.1c0.1-0.3,0.3-0.6,0.7-0.5
	c0.4,0.1,0.5,0.5,0.5,0.7c-0.3,1.1-0.3,2.2-0.3,3.3C14.3,45.9,14.3,48.8,14.3,51.9z"/>
<path class="st24" d="M13.9,34.8c2-1.2,2.6-1.1,4.1,0.3c0.6,0.6,0.4,1.4-0.4,1.5C15.9,37,14.6,36.3,13.9,34.8
	C13.9,34.8,13.9,34.8,13.9,34.8z"/>
<path class="st31" d="M15.8,49.7c0,0.5,0,1,0,1.4c0,0.2,0,0.4-0.1,0.4c-0.1,0.1-0.3,0.1-0.3-0.1C15.3,50.8,15.1,50.2,15.8,49.7z"/>
<path class="st38" d="M65.2,50.7c0-3.4,0-6.8,0-10.2c0-0.5-0.1-1.2,0.7-1.2c0.6,0,0.6,0.6,0.8,1c0.7,1.5,0,3.1,0.3,4.7
	c0.3,1.7-0.4,3.4-0.5,5.2C66.5,51,65.9,51,65.2,50.7C65.2,50.7,65.2,50.7,65.2,50.7z"/>
<path class="st39" d="M67.9,51.1c-0.5-1.2-0.4-2.4-0.1-3.4c0.7-2.9-0.1-6,0.8-9.1C69.9,40.7,69.4,48.1,67.9,51.1z"/>
<path class="st1" d="M24.5,69c0.2,0.1,0.2,0.2,0.1,0.3c-0.1,0.1-0.2,0.1-0.4,0.2c0-0.1-0.1-0.3-0.1-0.4C24.2,69.1,24.3,69.1,24.5,69
	z"/>
<path class="st11" d="M49.4,18.1c0,0.3-0.1,0.6-0.4,0.8c-0.3,0.1-0.7,0.2-0.8-0.1c-0.1-0.3,0.2-0.5,0.5-0.6
	C48.9,18,49.1,18,49.4,18.1C49.3,18,49.4,18.1,49.4,18.1z"/>
</svg>
