<?xml version="1.0" encoding="utf-8"?>
<!-- Generator: Adobe Illustrator 23.1.1, SVG Export Plug-In . SVG Version: 6.00 Build 0)  -->
<svg version="1.1" id="Livello_1" xmlns="http://www.w3.org/2000/svg" xmlns:xlink="http://www.w3.org/1999/xlink" x="0px" y="0px"
	 viewBox="0 0 80 135" style="enable-background:new 0 0 80 135;" xml:space="preserve">
<style type="text/css">
	.st0{fill:#FFFFFF;stroke:#000000;stroke-width:0.2509;stroke-miterlimit:10;}
	.st1{fill:#3B3D36;}
	.st2{fill:#3F3F52;}
	.st3{fill:#5C574D;}
	.st4{fill:#4D4C72;}
	.st5{fill:#817D64;}
	.st6{fill:#534A6C;}
	.st7{fill:#525576;}
	.st8{fill:#747477;}
	.st9{fill:#D7D9DB;}
	.st10{fill:#EBBF6C;}
	.st11{fill:#9B9369;}
	.st12{fill:#9B9EA2;}
	.st13{fill:#8F8B8A;}
	.st14{fill:#8B9193;}
	.st15{fill:#CCB23B;}
	.st16{fill:#F2E832;}
	.st17{fill:#DF3E3B;}
	.st18{fill:#DCC839;}
	.st19{fill:#D73C30;}
	.st20{fill:#963D3A;}
	.st21{fill:#71312D;}
	.st22{fill:#BAAC3D;}
	.st23{fill:#DBCD3A;}
	.st24{fill:#BABEBD;}
	.st25{fill:#DD3C33;}
	.st26{fill:#BDA43C;}
	.st27{fill:#EFEFEF;}
	.st28{fill:#D6B86D;}
	.st29{fill:#EAEBE7;}
	.st30{fill:#4D4D74;}
	.st31{fill:#DADCD3;}
	.st32{fill:#EEEEED;}
	.st33{fill:#CA3E3E;}
	.st34{fill:#CFC341;}
	.st35{fill:#E5DD54;}
	.st36{fill:#D3CA54;}
	.st37{fill:#818687;}
	.st38{fill:#F1E833;}
	.st39{fill:#B8AD45;}
	.st40{fill:#EBCD85;}
	.st41{fill:#CDC563;}
	.st42{fill:#D2C165;}
	.st43{fill:#A49D51;}
	.st44{fill:#CFD1D0;}
	.st45{fill:#56564E;}
	.st46{fill:#A9A44B;}
	.st47{fill:#ECE635;}
</style>
<path class="st0" d="M71.5,135h-63c-4.7,0-8.5-3.8-8.5-8.5V8.5C0,3.8,3.8,0,8.5,0h63C76.2,0,80,3.8,80,8.5v118
	C80,131.2,76.2,135,71.5,135z"/>
<path class="st1" d="M27.3,111.5c-0.6-0.6-1.2-1.3-1.8-1.8c-3.7-2.8-5.3-6.6-6-11c-0.3-2-1.4-3.7-2.4-5.4c-0.3-3.3,1.3-5,4.5-4.8
	c0.1,2.1-1.4,4-1.1,6.2c0.1,0.6-0.3,1.4,0.3,1.8c2,1.3,1.5,3.3,1.6,5.2c0.1,1.5,0.2,3,1.7,4.3c0.3-2.8-0.2-5.3,0.1-7.8
	c0.1-1.2-0.5-3.1,1.2-3.1c1.4,0,0.9,1.9,1,3c0.2,2.7,1,5.3,1.1,8.1c0,0.9,0.2,1.7,0,2.6c0.3-3.4-0.8-6.7-0.6-10
	c0.2-4.9-2.1-9.1-3.1-13.6c0.4-3.4,0.6-6.8,0.3-10.3c-0.1-1.6,0.8-3,1.1-4.6c0.3-1.5,0.4-2.8-0.2-4.2c0.2-1.3,0.4-2.5-0.5-3.7
	c0-1.1,1.1-1.3,1.5-2c1-1.7,1.7-3.3,1.1-5.3c0.1-3.8-0.5-7.5-0.2-11.2c0.8-0.7,0.6-1.7,0.6-2.7c-0.1-0.8,0-1.4,0.6-2
	c0.2-0.3,0.4-0.7,0.5-1.1c0.2-0.6,0.4-1.2,0.9-1.7c0.3-0.2,0.6-0.2,1-0.2c0.6,0.1,1.3,0.2,1.9,0.4c0.2,0.1,0.4,0.2,0.6,0.3
	c0.2,0.5-0.1,1,0.1,1.5c-2.1,0.7-2.3,1.9-1.5,3.9c0.6,1.4,0.5,3,0.3,4.7c-0.3,2.6-0.8,5.3,0.1,7.6c0.2-4-0.4-8.4,0.6-12.9
	c1.4,1,1,2.3,1.1,3.3c-0.1,2.4,0.1,4.9,0.1,7.3c0,1.7,0.1,3.5,1.7,4.7c0.1,0.2,0.2,0.4,0.2,0.6c-0.9,1.4-2.1,0.5-3.1,0.4
	c-0.6-0.1-1.3-0.4-1.7,0.3c-0.5,0.9,0.5,1.1,0.9,1.6c0.1,1.4-1,1.8-1.8,2.5c0.1,0.3,0.4,0.4,0.6,0.6c0.9,1.1,2.3,1.3,3.2,0.7
	c0.7-0.5,1.1-1.9,0.3-3c-0.1-0.2,0-0.5,0.1-0.7c0.6-0.6,1.4-0.4,2.1-0.3c3.3,0.3,6.5-0.1,9.8-0.2c0.5,0.2,0.9,0.5,1.1,1
	c0.2,0.5,0.3,0.9,0.1,1.4c-1.1,0.6-1.8,1.6-2.7,2.3c-0.4,0.3-1.1,0.4-0.8,1.2c0.3,0.7,0.7,1,1.4,1.1c2.4,0.4,2.7-1.4,3.2-3
	c0.1-0.2,0.3-0.3,0.5-0.4c0.9,0.1,1.6-0.3,2.4-0.6c0.2,0,0.5,0,0.7,0.1c0.2,0.1,0.4,0.3,0.5,0.5c0.6,2.3,1.3,4.6,1.8,6.9
	c-1.9,0.3-2.7-1.4-3.9-2.1c1,1.1,2.6,1.8,2.9,3.5c-0.4,6.2,0.1,12.5-0.3,18.7c-0.2,2.8-0.4,5.6-0.3,8.4c0,0.5-0.1,1,0,1.4
	c1.5,4,3.1,8,6.8,10.4c1,0.7,1.5,1.1,1.4,2.4c-0.2,2,0.5,2.5,2.7,2.3c0.4,0,0.8,0.1,1.1,0.4c0.7,0.5,1.1,0.8,1.5-0.4
	c0.4-1.1,1.4-0.9,2.2-0.6c0.2,0.3,0.4,0.6,0.4,0.9c-0.4,3.1-2.5,4.6-5.3,3.6c-3-1-6-1.5-9.1-1.3c-1.3,0-2.2,0-1.9,1.7
	c0.1,0.4-0.1,0.8-0.3,1.1c-0.9,1-2.1,0.4-3.1,0.4c-3.5-0.8-5.9-3.6-9.2-5c-1.6-0.6-2.8-0.9-4.2,0.3c-0.2,0.2-0.5,0.5-0.8,0.5
	c-4.7,0.7-9.1,3.1-14.1,2.3c-2-0.3-3.2-1.6-2.5-2.9c0.5-1,1.4-1.4,2.5-1.7c0.4,0,0.7,0.2,0.8,0.6c-0.1,1,0.3,1.4,1.3,1.4
	c1.9,0.1,3.6-0.6,5.3-1.2c1.9-0.8,3.3-2.6,4.5-2.6C31.4,112.8,29.3,112.4,27.3,111.5z"/>
<path class="st2" d="M46.5,61.1c0-0.4-0.1-0.7-0.5-1c-0.8-1.9,0.9-2.6,1.7-3.8c-0.1-0.7-1.6-1.4-2.1-0.8c-1.6,1.9-3.4,1.5-5.4,1.1
	c-2.2-0.4-3.2-1-3.3-3.1c-0.1-1.9-0.2-3.8,0.3-5.7c0.1-0.6,0.3-1.1,0.1-1.8c-0.8-2.5-0.2-4.8,1.3-7c0.4-0.4,0.9-0.5,1.4-0.9
	c0.4-0.3,0.8-0.8,1.4-0.7c2.2,0.6,2.9-1.6,4.3-2.4c0.5-0.3,0.7-1,1.3-1.4c0.2-0.1,0.4-0.1,0.6,0.1c0.5,0.2,0.9,0.3,1.4,0.5
	c1,0.7,0.7,1.7,0.6,2.6c0.6,1.9,0.3,4.4,3.2,4.5c-0.9,2.1-1.4,3.7,0.5,5.5c0.7,0.7,0.8,2.2,2.1,3.1c0.7,0.5-0.2,0.9-0.7,1
	c-1.2,0.3-1.7,0.8-1.1,2c0.7,1.5-0.4,1.8-1.3,2.1c-0.4,0.2-0.4,0.5-0.2,0.9c0.1,0.2,0.1,0.4,0.1,0.6c-0.4,1.4-2.1,1.2-2.7,2.4
	C47.7,58.6,47.8,60.8,46.5,61.1z"/>
<path class="st3" d="M47.5,33.7l-0.2,0l-0.2,0c-1.4,0.1-2.7,0.3-3.8,1.6c-0.5,0.6-1.5,0.9-2.4,0.7c-0.2,0-0.4-0.1-0.6-0.3
	c-0.1-0.1-0.2-0.2-0.1-0.4c0-0.1,0-0.2,0.1-0.2c0.3-0.4,1.7-0.2,0.9-1.4c0.1-0.5,0.4-0.9,0.7-1.2c0.3-0.5,0.1-0.9-0.2-1.2
	c-0.4-0.3-0.7-0.2-1.1,0c-0.4,0.3-0.9,0.5-0.6,1.1c1.2,2-0.5,1.6-1.4,1.7c-0.6,0.1-1.2,0-1.6-0.1c1.4,0.6,2.9-0.5,4.5,0.1
	c0.2,0.9-0.8,0.6-1.1,1.1c-0.9,0.7-2,0.3-2.9,0.7c-0.4,0.1-0.8,0.3-1.2,0.4c-0.9,0.1-1.7,0.1-2.6-0.3c-1.3-1.4-2.2-1-2.9,0.5
	c-0.3,0-0.6,0-0.9,0c-1,0.8-1.9,1.6-2.4,2.9c-0.5,1.2,0.1,1.4,1,1.5c0,0.8,0,1.5,0,2.3c0,0.6-0.2,1-0.9,1.1
	c-1.9-0.8-1.7,0.9-1.8,1.7c-0.3,1.8-0.1,3.6-0.3,5.5c-0.5,3.4-1.8,6.6-2.7,10c-0.7,0.5-1.3,0.7-1.5-0.4c0.7-2.5,1.3-5.1,2.1-7.6
	c1-3.2,0.8-6.6,1.6-9.9c0.1-0.3,0.1-0.6,0.1-0.9c0.6-4.5,3.3-7.4,7.3-9.3c2.9-1.4,3.1-2,1.2-4.8c-0.7-1-0.7-2-0.4-2.9
	c1.3-3.8,0.1-7-2-10.1c-0.2-0.3-0.5-0.7-0.1-1.2c1.7,0.6,3.4,0.6,4.2-1.5c0.2,0.1,0.4,0.1,0.5,0.2c1.6,1.1,1.6,1.2,3.1-0.2
	c0.4-0.4,0.8-0.6,1.2,0c0.4,0.5,0.5,1.3,1.3,1.3c0.8,0.1,1.1-0.8,1.7-1.1c0.1-0.1,0.3-0.2,0.4-0.2c1.2,0.3,0.9,2.2,2.3,2.2
	c1,0,1.9-0.8,3.1-0.4c-0.9,1.8-2.1,3.3-2.8,5.1c-0.4,1-0.6,1.9-0.3,3c0.5,1.7,0.5,3.4,0.9,5.1c0.5,2.1-0.2,2.9-2.3,3.8
	C45.1,32.6,46.7,32.6,47.5,33.7z"/>
<path class="st4" d="M68,114.9c-0.8,0.2-1.9-0.1-1.6,1.4c0.1,0.5-1.5,0.8-1.9,0.3c-0.3-0.3-0.3-0.9-0.9-1.1
	c-0.3,0.4-0.6,0.9-0.9,1.4c-0.4-0.9-1.7-0.8-1.9-1.8c-1.6,0-1-1.1-0.8-1.8c0.2-1.1,0.1-0.9-0.8-1.7c-1.5-1.2-3.6-2.1-3.7-4.5
	c-1.1-0.6-0.7-2.1-2-2.8c-1-0.6-1.6-2.3-1.6-3.8c0-2.9,0-5.9,0.3-8.8c0.4-5.1,0.3-10.2,0.3-15.3c0-1.1,0-2.2,0-3.4
	c0-0.6,0-1.1,0.6-1.5c2.2-0.2,3.2,1.4,4.3,2.8c0.2,0.8-0.9,0.6-1,1.2c0,3.2-0.4,6.4-0.7,9.6c-0.2,2.9-0.6,5.7-0.8,8.6
	c-0.2,3.3,1,6.3,3,8.9c1.6,2,3,4.1,4.2,6.4c0.6,1.2,1.6,2.3,2.8,2.9c1.3,0.6,2.4,1.6,3.4,2.6c0.1,0.1,0.1,0.2,0.1,0.3
	C68.1,114.8,68,114.9,68,114.9z"/>
<path class="st5" d="M68,114.9c0-0.1,0-0.3,0.1-0.4c0.8,0,1.6,0,2.4,0c2.8,0,2.8,0,2.9,2.9c0,1.3,0,2.5-0.2,3.8
	c-0.2,0.9-0.6,1.4-1.6,1.4c-1.2,0-2.4,0-3.6-0.1c-6.8-0.5-13.5-0.2-20.3-0.5c-8.8-0.3-17.5-0.4-26.3-0.5c-3.8,0-7.7,0-11.5-0.1
	c-1.9,0-1.9-0.1-1.9-1.9c0-1.5,0.1-3,0.1-4.5c0-1,0.5-1.4,1.5-1.5c0.6,0,1.1-0.1,1.7-0.1c3.8,0.4,7.7,0.2,11.5,0.3
	c1.8,0,3.6-0.5,4.6-2.3c1.5-0.2,2.8,0,4.2,0.8c0.9,0.5,2-0.1,3.1,0.2c-0.7,1.4-2.8,0.4-3.2,2c-1.4-0.1-2,1.3-3.2,1.7
	c-0.9-0.9-0.4-1.7,0.2-2.9c-2.5,1-4.7,2.3-7.3,2c-0.2-0.1-0.3-0.3-0.5-0.4c-2.9,0.1-5.9,0.1-8.8,0c-1.8,0-2,0.9-2.2,2.4
	c-0.1,1.6,0.5,2.2,1.9,2.3c4.5,0.5,9.1,0.2,13.6,0.2c5.2,0.1,10.3,0.1,15.5,0.3c2.7,0.1,5.5,0.3,8.2,0.5c0.9-0.4,2,0.6,2.9-0.2
	c1.8,0.9,3.8,0.1,5.6,0.2c4,0.1,7.9,0.2,11.9,0.2c2.4,0,2.5-0.3,2.6-2.6c0.1-1.7-0.4-2.6-2.3-2.3c-0.5,0.1-1,0-1.4-0.2
	C68.1,115.5,68,115.2,68,114.9z"/>
<path class="st6" d="M21.6,88.4c-0.3,0.1-0.6,0.3-0.9,0.4c-2,0.8-3.6,2-3.5,4.5c-1-2.2-0.4-4.5-0.3-6.7c0.2-3.5,0.9-7,0.7-10.6
	c0.4-0.7,0.4-1.5,0.7-2.3c0.2-0.4,0.4-1,0.9-1c0.7-0.1,0.6,0.4,0.7,0.9c0,0.1,0.2-0.1,0.2-0.2c0.5-0.5,1-0.8,1.6-0.1
	c-1.6,3.4-0.2,6.8,0,10.3c-0.1,1.5,0.1,3.1,0.1,4.6C21.7,88.2,21.6,88.3,21.6,88.4z"/>
<path class="st7" d="M53.7,70.2c0.2-0.2,0.3-0.4,0.1-0.6c-1.3-1-1.7-2.3-1.6-3.9c0.1-1-0.2-2-1-2.8c-0.2-0.8,0.4-1.4,0.6-2.1
	c0.5-0.7,0.8-1.4,0.9-2.3c0.1-0.2,0.2-0.4,0.3-0.5c0.3-0.3,0.7-0.4,1-0.6c0.1-0.1,0.3-0.2,0.4-0.4c0.4-0.4,0.3-0.9,0.3-1.4
	c0-0.2,0.1-0.4,0.2-0.6c0.4-0.3,0.7-0.8,0.9-1.3c0.2-0.2,0.3-0.3,0.6-0.3c0.6,0.1,1.3-0.1,1.1,0.9c-1.7,2.8-1.6,5.9-1.4,8.9
	c0.2,2.9,0.3,5.8,0.5,8.8C54.9,72.7,54,72,53.7,70.2z"/>
<path class="st8" d="M71,22c-0.1,4.7-4,8.5-8.8,8.4c-4.6,0-8.4-3.9-8.4-8.6c0-4.6,4.1-8.5,8.9-8.4C67.4,13.5,71.1,17.3,71,22z"/>
<path class="st9" d="M53.7,70.2c0.9,0.9,1.7,1.9,3.1,1.9c1.7,1.3,3.4,2.6,5,3.9c2,1.7,3.9,3.4,5.9,5.1c-1.3,1.9-2-0.2-2.9-0.4l0,0
	c-2.5-2.1-5.5-3.7-7.7-6.2c-1.2-1.2-2.6-2.2-4.1-2.9c-1.1-1.4-2.5-2.4-3.8-3.4c-0.4-0.3-0.7-0.7-0.2-1.2c0.4-0.4,0.7-0.1,1,0.1
	C51.2,68,52.2,69.4,53.7,70.2z"/>
<path class="st10" d="M21.5,72.7c-0.8,0.3-1.2,1.2-2,1.8c0-0.7,0-1.1,0-1.7c-0.8,0.8-0.9,1.5-0.8,2.4c0,0.7-0.6,0.6-1,0.7
	c0,0,0,0,0,0c-0.5-1.6-0.2-3.3-0.9-4.8c0.5-0.5,0.3-1.5,1.1-1.9c1.2-1.1,2.3-2.7,4.3-1.5C24.1,69.4,23.9,71,21.5,72.7z"/>
<path class="st11" d="M57.6,54.4c-0.3-0.6-1-0.4-1.5-0.6c-0.7,0.2-0.7-0.3-0.4-0.6c1.6-2.3,1.1-4.8,0.4-7.1
	c-0.7-2.4-1.6-4.7-2.6-6.9c-0.8-1.8-2-3-4.2-2.7c-0.7-0.7,0.1-1.6-0.5-2.3c2.9,0.2,4.8,1.7,5.9,4.4c1.3,3.1,2.3,6.2,3.3,9.4
	C58.8,50.3,58.5,52.4,57.6,54.4z"/>
<path class="st12" d="M64.7,80.8c0.5-0.1,0.9,0.2,1.2,0.5c0.6,0.6,1.1,0.3,1.7-0.1c1.4,1.2,2.8,2.3,4.2,3.5c0.4,0.3,0.8,0.7,0.5,1.2
	c-0.3,0.5-0.9,0.4-1.3,0.1C68.9,84.3,66.3,83.1,64.7,80.8z"/>
<path class="st13" d="M22.1,68.3c-1.3-0.6-2.4-0.6-3.4,0.6c-0.2,0.2-0.6,0.2-0.8,0.4c0.9-1.2,1.3-2.6,1.5-4.1
	c0.2-1.5,0.6-2.9,1.6-4.1c0.4,0.5,0.9,0.6,1.3,0.1c0.4-0.3,0.6,0,0.8,0.4c0,0.2,0,0.5-0.2,0.7c-0.9,0.5-1.8,1-2,2.2
	c-0.2,1.3-0.6,2.5,1.6,2c1.4-0.3,1.2,0.5,0.7,1.4C23,68.1,22.4,67.9,22.1,68.3z"/>
<path class="st14" d="M57,74.6c2.4,1.8,4.7,3.5,7.1,5.3c0.3,0.2,0.6,0.5,0.7,1c-2.5-0.8-4.2-2.8-6.3-4.2c-0.7-0.5-1.2-1.3-2.3-0.9
	C56.1,75,56.8,74.9,57,74.6z"/>
<path class="st6" d="M16.8,71.1c0.5,0.4,0.9,0.8,0.9,1.6c0,1.1,0,2.2,0,3.3C16.6,74.5,16.8,72.8,16.8,71.1z"/>
<path class="st15" d="M48.8,120.6c-0.7,0.8-1.5,0.2-2.2,0.2c-2.9-0.2-5.7,0.2-8.6-0.1c-2.9-0.3-5.9-0.2-8.8-0.2
	c-4.5,0-9,0.1-13.5,0.1c-1.7,0-3.5,0.5-5.1-0.5c-0.3-0.2-0.4,0-0.6,0.2c-1.1,0.6-1.2-0.1-1.2-0.9c0-0.5,0.2-0.9,0.2-1.4
	c0.2-3.5,0.1-3.5,3.7-3.5c2.2,0,4.5,0,6.7,0c0.5,0,1,0.1,1.2,0.5c-0.5,0.3-0.9,0.7-1.4,0.9c-0.7,0.3-1,0.8-0.9,1.5
	c0.1,0.8,0.8,1.3,1.5,1.3c2.9,0.1,5.9,0.3,8.7-0.8c1.2-0.5,2.3-0.9,3.6-1c1.3-0.1,2.6-0.3,3.6-1.5c0.8-0.9,2-1,3-0.3
	c2,1.5,4.6,1.9,6.5,3.8C46.2,119.7,47.6,120,48.8,120.6z"/>
<path class="st16" d="M36,99.3c-0.9,3.3-1.6,6.6-1.7,10c0,2.3-1.1,2.9-3.2,2c-1-0.4-1.6-0.9-1.7-2.4c-0.1-4.4-1-8.8-1.3-13.2
	c-0.1-1.5,1-2.6,0.9-4c0-0.1,0.2-0.2,0.3-0.3c2-1.6,5.6-0.4,6.2,2.1c0.3,1.1,0.3,2.2,0.5,3.3C36.1,97.6,36.3,98.5,36,99.3z"/>
<path class="st17" d="M24.4,85.1c0.2,2.4,1.6,4.3,2.3,6.5c0.2,0.6,0.5,1.2,0.5,1.8c0.1,4.7,0.8,9.4,1.1,14c0.1,0.8-0.6,1.6,0.2,2.4
	c0.2,0.2,0,0.7-0.3,0.8c-0.5,0.2-0.8-0.2-0.8-0.6c-0.2-1.7-0.4-3.4-0.6-5.1c-0.3-3.2-1.2-6.2-1.3-9.4c-1.1,3.9-0.3,7.8-0.7,11.9
	c-1.5-0.6-2.2-1.6-2.6-3c-0.4-1.6-0.7-3.2-0.4-4.8c0.2-1,0.1-1.7-1-2.1c-1.1-0.4-1.4-1.3-1-2.3c0.2-0.6,0.2-1.3,0.2-1.9
	c0-1.5-0.2-3,1.4-4c0.2-0.1,0.1-0.6,0.1-0.9c0,0,0,0,0,0c0.4-0.4,0.2-1,0.5-1.4c0.3-0.5,0.1-1.1,0.1-1.6c0-1.1,0.4-2.1,1.4-2.2
	C24.8,83.1,23.8,84.6,24.4,85.1z"/>
<path class="st16" d="M44.1,90.8c1-0.3,1.9,0.2,2.9,0.1c1.9,2.1,1.2,4.7,1,7.1c-0.2,2-0.5,3.9-0.9,5.9c-0.1,0.6-0.4,1.2-0.4,1.9
	c-0.5,1.5-0.1,3.2-0.6,4.7c-1.3,1.5-3.3,2.1-4.8,1.4c-0.3-0.2-0.3-0.6-0.2-0.9c0.9-4.3-0.1-8.4-0.3-12.7
	C40.6,95.5,41.4,92.6,44.1,90.8z"/>
<path class="st18" d="M68.1,115.9c1-0.8,2.3-0.4,3.4-0.6c0.8-0.1,0.9,0.5,0.9,1.1c0,1.6,0.1,3.2-0.2,4.8c-2.7,0.5-5.4,0.1-8,0.2
	c-3.1,0.1-6.2-0.6-9.3,0c-1,0.2-2.6,0.8-3.2-1c0.3-0.8,0.1-1.6-0.1-2.3c-0.2-1.1,0.2-1.5,1-1c0.9,0.5,1.8,0.3,2.7,0.2
	c2.6-0.1,5.1,0.3,7.6,1.2C65.8,119.6,67.3,118.8,68.1,115.9z"/>
<path class="st19" d="M36.4,99.5c0.8-1.8,0.5-3.7,0.1-5.6c-0.4-1.8-0.6-3.7,1.6-4.7c0.6,0.6,0.7,1.2,0.7,2c0,0.4,0,0.8,0,1.2
	c-0.3,3.8,0.3,7.4,1,11.1c0.4,2,0.5,4,0.4,6.1c-0.1,2-1.2,3.1-2.9,2.9c-1.2-0.1-2.2-1.2-2.3-2.6c-0.1-2.2,0.3-4.3,0.8-6.4
	C36.2,102.1,36.4,100.8,36.4,99.5L36.4,99.5z"/>
<path class="st20" d="M24.4,85.1c-0.6-0.3-0.4-1-0.5-1.5c-1,0.4-1.2,1-1.2,2c0,0.6,0.8,1.4-0.2,1.9c-0.8-0.3-1.3-0.7-1.2-1.7
	c0.1-0.7,0.3-1.4-0.2-2c0.1-1.7-0.2-3.4-0.6-4.9c-0.6-2.3-0.1-4.2,1.1-6c0.4-0.6,0.9-1.3,1.2-2c0.4-0.9,0.8-2-0.6-2.5
	c0.2-0.4,0.6-0.4,1-0.5c0.9-0.4,0.9-1.9,2.2-1.8c1.3,1.2,1.5,2.6,0.7,4.1c-0.3,0.6-0.1,1.1-0.2,1.6c-0.1,0.7,0.1,1.4-0.6,1.9
	c-0.3,0.2-0.6,0.7-0.5,1.3C25.3,78.2,24.9,81.6,24.4,85.1z"/>
<path class="st21" d="M46.3,104.3c0.2-3,1.2-5.9,1.1-8.9c0-1.5-0.1-3-0.4-4.4c0.3,0,0.7,0.3,0.8-0.1c0.7-1.6,2.2-2.9,2-5
	c1.4,0.3,1.6,1.3,1.5,2.2c-0.4,3.3,0.4,6.7-0.4,9.9c-0.3,1,0.2,2.1-0.3,3.2c-0.2,0.4,0,0.8,0.3,1.1c0.9,0.8,1.1,2.1,1.7,3.1
	c-0.9,2.1,0.6,3.8,1.2,5.6c0.2,0.8,1,1.5,0.4,2.4c-0.6,0-0.6-0.9-1.2-1c-0.1,0.1-0.2,0.2-0.3,0.3c-0.3,0.5,0.5,1.4-0.2,1.7
	c-0.9,0.3-1.7-0.1-2.2-0.9c0.6-0.4,1.2-0.6,0.9-1.6c-0.4-1.7-0.9-3.4-1.5-5c-1-2.7-1.2-5.6-1.5-8.4c-0.1,2.1-0.5,4.1-1,6.1
	c-0.1,0.4-0.3,1-0.9,0.7C46.2,105,46.3,104.6,46.3,104.3z"/>
<path class="st22" d="M35.4,57.3c-1.8-0.1-2.2-1.6-2.2-2.9c-0.1-3.2-0.4-6.4-0.1-9.6c0.3-0.9,0.2-1.7,0.1-2.6
	c-0.2-3,0.9-3.8,3.8-2.8c0.9,1.9-0.2,3.7,0.1,5.6c-0.1,3.3-0.6,6.7,0.1,10c0.2,0.6,0.2,1.1,0,1.7C36.8,57.3,36.2,57.7,35.4,57.3z"/>
<path class="st23" d="M23,61.5c-0.2-0.1-0.4-0.2-0.6-0.4c-0.3-1.3,0.1-2.4,0.9-3.4c0.1-0.1,0.5-0.1,0.1-0.5
	c-0.8-0.7-0.3-1.3,0.2-1.8c0.6-0.8,0.5-1.8,0.7-2.5c0.9-2.7,0.2-5.5,0.9-8.2c0.3-1,0.7-1.6,1.8-1.4c0.8,0.1,0.5,0.6,0.4,1.1
	c0.6,0.9,0.7,1.4,0.1,2.8c-0.4,0.9,0.9,0.7,0.7,1.4c-0.1,0.6-1.4,0.8-0.9,1.5c1.4,1.6,0,3.3,0.3,4.9c0,0.2,0.1,0.3,0.2,0.4
	c-0.4,0.3-1.2,0.3-0.7,1.3c0.8,1.7-0.4,3.2-1.3,4.5C25.2,61.7,24.1,62.5,23,61.5z"/>
<path class="st24" d="M47.9,56.8c0,0.1,0.1,0.1,0.1,0.2c-1.3,0.6-1.4,2.1-2,3.2c-3.5,0.7-7,0.4-10.5,0.5c-0.5,0-1-1.1-1.6-0.1
	c-0.9,0.8-1.7,0.4-2.4-0.3C31,60.1,30.3,60,30,59.4c-0.6-1.2-0.1-2.1,1.3-2c1.1,0.1,2.2,0.1,3.2,0.6c0.5,0.3,0.7-0.2,1-0.3
	c0.4-0.2,0.9-0.2,1.3-0.3c0.9,0,1.8-0.1,2.7-0.2c0.9,0,1.7-0.1,2.6-0.1C44.1,57.3,45.9,55.7,47.9,56.8z"/>
<path class="st25" d="M46.3,104.3c0.1,0.1,0.1,0.3,0.2,0.4c0.2,0.2,0.4,0.1,0.4-0.2c0.2-2.6,1.2-5.1,1.1-7.8c0,0,0.1-0.1,0.2-0.2
	c0.7,0,0.6,0.6,0.6,1c-0.1,1.3-0.4,2.6,0.9,3.6c0.5,0.4,0.2,1.2,0.1,1.8c-0.2,1.2,0,2.2,0.7,3.4c1.1,2.1,1.4,4.5,1.9,7
	c-0.7,0-1.3-0.1-1.9-0.1c-1.1-0.8-2.3-1.6-3.4-2.4c-1.5-1.6-0.5-3.6-0.9-5.3C46,105.2,45.9,104.7,46.3,104.3z"/>
<path class="st26" d="M44.1,90.8c-1.5,1.9-2.4,4-2.8,6.3c-0.2,1.4-0.5,3.1,0.4,4.5c0.3,0.4,0.3,0.8,0.2,1.3c-0.1,1-0.2,2.1,0,3
	c0.4,2.1-0.8,4-0.6,6c-1-0.6-0.6-1.6-0.5-2.4c0.5-3.1-0.3-6.1-0.8-9.2c-0.4-2.6-0.3-5.1,0.3-7.7c0.1-0.2,0.1-0.4,0-0.6
	c-0.5-1.1,0.1-1.4,1-1.5C42.3,90.5,43.2,90.3,44.1,90.8z"/>
<path class="st3" d="M36.9,39.4c-3.3,0.3-3.3,0.3-3.5,3.6c0,0.6,0.2,1.3-0.3,1.8c-0.1-0.8-0.1-1.6-0.2-2.7c-1,1.7-0.2,3.4-0.4,4.9
	c-0.3,1.5,0.2,3.2,0,4.7c-0.1,1.6-0.2,3.2,0.4,5.1c-1.5-0.6-1.5-1.6-1.5-2.5c0.1-1.3-0.3-2.3-1.7-2.9c0.9-0.3,1.5-0.4,1.4-1.4
	c-0.1-1.7,0.1-3.4,0.4-5.1c0.2-1.1-0.5-2.4-0.8-3.5c-0.1-0.2-0.4-0.4-0.4-0.6c-0.1-0.7-0.2-1.4,0-2.1c0.3-1,1,0.4,1.6-0.1
	c0.3-0.2,0.8-0.1,1.1-0.4c1.1-0.6,2.2,0.4,3.3,0.1C36.8,38.5,37,38.8,36.9,39.4z"/>
<path class="st27" d="M25.3,65.9c-0.9,0.4-0.9,1.9-2.2,1.8c0-0.4,0.5-0.7,0.2-1.1c-0.5-0.2-0.6,0.3-0.9,0.4c-0.7,0.3-1.4,0.3-2-0.1
	c-0.6-0.4-0.2-1.2-0.1-1.8c0.1-0.5,0.3-0.9,0.4-1.4c0.5-1.7,0.5-1.7,2.4-1.8c0.8-0.5,1.4-0.1,1.9,0.6C26.4,63.8,26.4,63.8,25.3,65.9
	z"/>
<path class="st28" d="M48.4,63.2c0.2,1.2,0.2,2.3-0.8,3.3c-1.5,1.5-2.9,1.4-4.2-0.3c-0.4-0.5-0.9-0.9-1-1.6c1-0.7,2.4-0.6,2.9-2.2
	c0.3-0.8,1.4-0.4,2.1-0.4C48.3,61.8,48.7,62.1,48.4,63.2z"/>
<path class="st29" d="M21.1,115.4c0.9-0.3,1.8-0.6,2.7-0.8c1.4-0.3,2.7-0.8,3.8-1.8c0.6-0.6,1-0.2,1.4,0.2c0.7,0.6-0.1,0.6-0.4,0.9
	c-0.6,0.7-0.6,1.5-0.5,2.4c-0.2-0.1-0.5-0.3-0.6-0.3c-1.9,1.5-4,1.6-6.3,1.3c-0.4-0.1-1,0.2-1.2-0.4c-0.1-0.5,0.4-0.8,0.7-1.1
	C20.9,115.6,21,115.5,21.1,115.4z"/>
<path class="st30" d="M31.6,60.2c0.8-0.1,1.6,0.5,2.4,0.3c1,0.5,1.7,1.2,0.7,2.3c-0.2,0.3-0.3,0.4-0.1,0.8c0.6,1.1-0.3,1.3-1,1.2
	c-0.9-0.1-1.6-0.5-2.6-0.2c-0.4,0.1-0.7-0.3-0.9-0.7c-0.3-0.6-0.6-1.2-1.9-1.7C30.2,62.2,30.6,60.9,31.6,60.2z"/>
<path class="st31" d="M47.2,114.5c-0.6-0.1-1-0.2-1.4-0.3c-0.2-0.2-0.2-0.3,0.1-0.3c1.1-0.4,1.7-0.2,2.6,0.7c1.1,1.2,2.1,2.3,2.4,4
	c0.2,0.9-0.3,1.2-1.1,1c-1.5-0.5-2.8-1.3-3.6-2.7C45.6,115.8,45.5,114.9,47.2,114.5z"/>
<path class="st32" d="M48.4,63.2c-0.1-0.6-0.3-1.1-1-1.1c-0.4-0.2-0.7-0.5-0.8-1c0.5-0.5,0.5-1.2,0.7-1.7c0.5-1.2,1.3-1.2,2.3-0.5
	c1.4,0.1,2.2,0.9,2.6,2.2c0.5,1-0.6,1.3-0.8,1.9c-0.2,0.1-0.3,0.1-0.5,0.2c-0.6,0-1.2,0.2-1.7,0.5C48.8,63.5,48.6,63.3,48.4,63.2z"
	/>
<path class="st33" d="M54.3,113.3c-0.7-1.7-1.4-3.4-2.2-5.1c-0.5-1-0.4-1.8,0.6-2.9c0.2,2,2.2,3,2.6,4.9c0.1,0.4,0.5,0.8,0.6,1.3
	c0.2,0.6,0.8,1.1,0.4,1.8C55.7,114.1,54.9,113.3,54.3,113.3z"/>
<path class="st3" d="M24.8,62.6c-0.6-0.2-1.2-0.4-1.9-0.6c0-0.2,0-0.4,0.1-0.5c2.1,0.2,3-1.4,3.6-2.9c0.3-0.7,0.1-1.8,0-2.6
	c-0.3-1.6,0.8-0.4,1.1-0.8c0.1,0,0.2,0.1,0.2,0.1c-0.4,1,0.9,1.8,0,2.9c-0.6,0.7-1.4,1.5-1.5,2.6C26.5,61.9,25,61.6,24.8,62.6z"/>
<path class="st34" d="M36.4,38.5c-1.2,0.9-2.3,0-3.4-0.3c-0.7-0.4,0.1-0.7,0.1-1.1c0-0.3,0-0.5,0.2-0.8c0.1-0.1,0.1-0.1,0.2-0.2
	c0.8-0.7,1.6,0,2.4,0C37.6,36.4,37.7,36.8,36.4,38.5z"/>
<path class="st35" d="M28.3,40.9c-0.6,0.1-0.8,1.2-1.5,0.7c-0.5-0.4-0.6-1.2-0.3-1.7c0.7-1.4,1.1-3.2,3.2-3.2
	c-0.2,0.6-0.3,1.2-0.5,1.8c-0.2,0.3-0.7,0.6-0.4,1.1C28.2,39.8,27.9,40.3,28.3,40.9z"/>
<path class="st36" d="M30.5,36.6c-0.3-1.4-0.1-2,1.1-2.2c1.2-0.2,1.9,0.4,1.9,1.7c0,0,0,0,0,0c-0.3,0.4-0.6,0.8-1,0.9
	C31.8,37,31.1,37.4,30.5,36.6z"/>
<path class="st21" d="M46.1,105.7c0.3,0.2,0.7,0.5,0.6,0.9c-0.5,1.5-0.1,3,0.3,4.4c-0.3-0.2-0.6-0.3-0.9-0.5
	C45.3,108.9,45.7,107.3,46.1,105.7z"/>
<path class="st37" d="M49.4,71.4c-1.1,0.3-2.2,0.5-3.3-0.5C47.4,70.4,48.3,71.4,49.4,71.4z"/>
<path class="st37" d="M45.2,69.9c-1.1-0.2-1.6-0.9-1.9-1.9C44.2,68.4,44.7,69.2,45.2,69.9z"/>
<path class="st28" d="M49,63.7c0.4-1.2,0.6-1.3,1.7-0.5C50.3,63.7,49.8,64.3,49,63.7z"/>
<path class="st19" d="M36,99.3c-0.2-0.9,0-1.7,0.1-2.5c0.5,0.9,0.1,1.8,0.2,2.7c0,0,0,0,0,0C36.3,99.4,36.2,99.4,36,99.3z"/>
<path class="st2" d="M36.9,57.7c-0.5,0-1,0-1.4,0c0-0.1,0-0.2,0-0.3c0.6,0,1-0.3,1.4-0.7C37.2,56.9,37.2,57.3,36.9,57.7z"/>
<path class="st3" d="M32.5,37c0.3-0.4,0.5-0.8,1-0.9c0.1,0.4,0,0.8-0.4,1C32.9,37,32.7,37,32.5,37z"/>
<path class="st3" d="M28.8,39.5c-0.2-0.5-0.4-1,0.4-1.1C29.2,38.8,29.2,39.2,28.8,39.5z"/>
<path class="st20" d="M26.5,65.3c0.1-0.2,0.2-0.2,0.3-0.1c0.1,0.1,0.1,0.2,0.2,0.4c-0.1,0-0.3,0.1-0.4,0.1
	C26.6,65.6,26.5,65.5,26.5,65.3z"/>
<path class="st38" d="M49.4,36.5c1.5-1.1,1.8-1.1,3,0c0.7,0.7,1.3,1.4,1.7,2.3c1.4,3.3,2.9,6.6,3.3,10.1c0.2,1.5,0.3,3.4-1.3,4.5
	c-0.1,0-0.1,0.1-0.1,0.2c0,0.1,0.1,0.1,0.1,0.2c0,0.2,0,0.4,0.1,0.6c0,0.7-0.8,0.4-1,0.8c0,0.2,0.1,0.3,0.1,0.5
	c0.2,0.8-0.3,1.3-0.6,1.9l0,0c-0.4,0.4-1.1,0-1.4,0.6l0,0c-0.8,0.4,0.2,1.7-0.8,1.9c-0.7,0.1-1.1-0.5-1.5-0.9
	c-0.7-0.8-1.3-1.6,0.5-1.8c0.5-0.1,0.7-0.5,0.4-1.1c0-0.2-0.1-0.3-0.1-0.5c-0.2-0.3-0.2-0.6,0-1c0.3-0.9,1.3-0.4,1.8-0.8
	c0.2-0.5-0.3-0.7-0.5-1c-0.9-1.5-0.4-2.4,1.5-2.7c0.2,0,0.5-0.1,0.7-0.1c-0.2-0.4-0.5-0.6-0.9-0.7C52.1,49.1,52,49,53.2,47
	c-0.2-0.3-0.5-0.3-0.8-0.4c-1.4-0.5-1.6-0.7-0.8-1.9c0.5-0.8,0.4-0.9-0.5-0.8c-0.5,0-0.7-0.4-0.4-0.8c0.4-0.6,0.9-1.1,1.4-1.7
	c0-0.1-0.3,0-0.5,0c-0.5,0.1-1.3,0.7-1.5,0.2c-0.3-0.7-1-1.4-0.5-2.3c0.6-0.9,0.3-1-0.6-0.6c-0.2,0.1-0.5,0.1-0.4-0.2
	C48.9,37.9,48.5,37,49.4,36.5z"/>
<path class="st1" d="M36.9,57.7c0-0.4,0-0.7-0.1-1.1c0-0.4,0-0.8,0-1.1c-0.3-3.4-0.3-6.9,0-10.3c0-1.9,0-3.8,0-5.8
	c-0.2-0.3-0.3-0.6-0.5-0.9c0.1-0.4,0.2-0.9,0.3-1.3c0.2-0.7-0.2-0.9-0.8-1.1c0.2-0.4,0.6-0.4,1-0.5c1.1-0.3,2.1-0.3,3.2,0
	c0.2,0,0.5,0.1,0.7,0.1c0.1,0.2,0,0.4-0.1,0.6c-0.2,0.1-0.4,0.2-0.6,0.3c-0.3,0.1-0.6,0.1-0.9,0.1c-0.4,0-0.8,0.1-1,0.3
	c-0.5,0.9,0.3,1.4,0.6,2.1c-0.4,1.8-1.8,3.4-1.3,5.5c0.1,0.5,0.1,1.1,0.5,1.5c0.3,0.3,0.4,0.8,0.2,1.1c-1.4,1.8-0.4,4-0.8,5.9
	c-0.2,0.9,0.5,1.7,0.9,2.4c0.2,0.3,0.4,0.7,0.7,0.5c1.2-0.6,2.2,0.2,3.4,0.4c0.8,0.1,2.1,0.3,2.5-1.2c0.1-0.5,0.5-0.4,1-0.4
	c1.2,0,2.4-0.3,3.4,0.7c-0.3,0.5-1.2,0.4-1.3,1.1c-2,0.5-4,0.7-6.1,0.5c-0.8,0.4-1.7,0-2.5,0.3C38.5,57.5,37.7,58.3,36.9,57.7z"/>
<path class="st39" d="M40.7,36.1c0.1-0.1,0.1-0.3,0.2-0.4c1.3-0.1,2.4-0.5,3-1.9c0.4-0.8,1.1-1.3,2.1-0.5c0.3,0.2,0.7,0.3,1.1,0.4
	c0,0.8-0.4,1.5-1,1.8c-0.9,0.6-1.7,1.3-2.4,2.1c-0.6,0.7-1.7,1.4-2.6,0C40.6,37.2,40.3,36.8,40.7,36.1z"/>
<path class="st39" d="M38.8,39.1c-1.7-0.4-1.9-0.8-0.9-3c0.5,0.3,0.9,0.4,1.4,0c0.3,0,0.6,0,1,0c0.5,0.7,0.2,1.6,0.2,2.3
	C40,39.1,39.4,39,38.8,39.1z"/>
<path class="st28" d="M51.8,56.4c1.1,1.5-0.7,1.2-1.1,1.7c0.3,0.7,1,1.1,1.6,1.7c0.7-0.3,0.1-1.5,1-1.6c0,1.1,0,2.2-1.2,2.8
	c-0.9-0.7-1.7-1.5-2.6-2.2c0.3-0.6-0.3-1.8,1.2-1.5C51.3,57.4,51.7,57,51.8,56.4z"/>
<path class="st3" d="M40.4,38.5c-0.1-0.8-0.1-1.6-0.2-2.3c0.2,0,0.3,0,0.5,0c0.1,0.5,0.3,1,0.4,1.5C40.9,37.9,40.7,38.2,40.4,38.5z"
	/>
<path class="st28" d="M51.7,54.9c0,0.3,0,0.6,0,1c-0.4-0.1-0.8-0.1-0.7-0.6C51,54.9,51.4,54.8,51.7,54.9z"/>
<path class="st40" d="M40.4,21.6c-0.9,0.1-1.3,0.1-1.7,0.1c-0.7,0.1-1.4,0.3-1.3,1.1c0.1,0.8,0.9,1.3,1.6,1.1
	c0.8-0.1,1.7-0.2,2.7-1.4c0,1.7,0,2.9,0,4c-0.1,1.2-1.2,1.8-1.8,2.7c-0.7,1.3-2.2-0.7-2.7,1.1c-0.7-1.9,0.2-2.6,1.5-3.1
	c-0.5-0.7-0.9-1.2-1.7-1.2c-1.4,0-1.3-0.7-1-1.7c0.5-1.8,0.4-1.8-0.3-3.4C37.1,20.7,38.5,20.6,40.4,21.6z"/>
<path class="st41" d="M32.1,15.8c0.9-0.6,1.6-0.2,2.1-0.8c0.8-1.1,1.7-1.3,2.8-0.2c0.3,0.4,0.7,0.2,1-0.1c0.4-0.5,0.9-0.9,1.5-1.2
	c1.6,2,1.6,2,3.9,0.3c1.4,2.1,1.4,2.1,4,1.6c-0.5,0.9-1.4,0.8-2,1.1c-1,0.6-1.3-0.5-1.9-0.9c-0.8-0.7-1.3-0.3-1.7,1.4
	c-0.7,0.2-1.1-0.5-1.3-0.7c-0.8-1.1-1.5-1.7-2.5-0.3c-0.5,0.6-1,0.2-1.4-0.1c-0.7-0.7-1.3-0.7-2,0.2C33.8,17,33.1,16.2,32.1,15.8z"
	/>
<path class="st42" d="M41.2,34.2c-1.8,0.2-3.6,0.9-5.4,0.1c-0.5-0.2-0.9-0.3-1.1-1c1.6-0.1,3.2,0.9,4.9,0.1c0.1-0.7-0.8-0.8-1-1.5
	c0.8-0.6,1.4-1.6,2.7-1.9c0.5,0.6,0.7,1.5,1.4,1.9C42.5,33,41.6,33.4,41.2,34.2L41.2,34.2z"/>
<path class="st43" d="M34.9,19c0.8-0.2,1.6-0.4,2.4-0.5c0.3,0,0.7,0.2,0.7,0.5c0,0.3-0.1,0.6-0.3,0.9c-0.2,0.3-0.5,0.3-0.7,0
	C36.5,19.2,35.5,19.7,34.9,19z"/>
<path class="st43" d="M42.5,19.2c-0.6,0.6-1.2,0.4-1.7,0.9c-0.3,0.3-0.9,0.2-1-0.5c-0.1-0.6,0.2-0.9,0.8-0.9
	C41.2,18.8,41.8,18.7,42.5,19.2z"/>
<path class="st40" d="M42.4,23.1c0.1,1.3,0.5,2.6,0,4.2C41.9,25.7,42.3,24.4,42.4,23.1z"/>
<path class="st42" d="M40.2,35.6c-1.1,0-2.1,0-3.2,0c1-0.7,2.2-0.2,3.3-0.4l0,0C40.2,35.3,40.2,35.4,40.2,35.6z"/>
<path class="st42" d="M41.2,34.2c0.2,0.1,0.5,0,0.6,0.2c0.2,0.2-0.1,0.4-0.2,0.5c-0.4,0.3-0.9,0.2-1.4,0.2c0,0,0,0,0,0
	C40.6,34.8,40.9,34.5,41.2,34.2C41.2,34.2,41.2,34.2,41.2,34.2z"/>
<path class="st1" d="M21.1,83.7c0.3,0.2,0.5,0.4,0.5,0.8c-0.1,1.1,0.1,2.2,1,3c-0.3,0.3-0.6,0.7-0.9,1C21,86.9,21,85.3,21.1,83.7z"
	/>
<path class="st28" d="M54.7,57.7c-0.1-0.7,0.5-1.3,0.6-1.9C56.1,56.8,55.4,57.2,54.7,57.7z"/>
<path class="st28" d="M55.2,55.3c-0.3-0.1-0.3-0.3,0-0.4c0.3-0.2,0.7-0.3,1.1-0.4C56.5,55.3,56.5,55.3,55.2,55.3z"/>
<path class="st28" d="M53.3,58.3c0.2-0.7,0.9-0.5,1.4-0.6C54.4,58.3,53.8,58.2,53.3,58.3z"/>
<path class="st44" d="M66.6,27.9c-2,2.2-5.6,2.4-8.4,0.6c-3.3-2.1-4.4-5.4-3.2-9.1c1.1-3.1,4.2-5.6,8.2-5.2c3,0.3,5.3,2,6.4,5
	c1,2.8,0.1,6.5-2,8.4C67.4,27.9,67.1,28,66.6,27.9c-0.3-1.1,0.7-1.7,1.1-2.5c1.6-2.8,1.4-5.8-0.6-7.8c-1.9-2-5-2.5-7.5-1.3
	c-2.6,1.2-3.9,3.9-3.4,7c0.5,3.3,4.2,5.6,7.9,4.8C65,28,65.8,27.3,66.6,27.9z"/>
<path class="st2" d="M36.9,45.1c0,3.4,0,6.9,0,10.3C36.4,52,36.3,48.6,36.9,45.1z"/>
<path class="st2" d="M39.3,57.6c0.8-0.7,1.7-0.3,2.5-0.3C41.1,57.8,40.2,57.5,39.3,57.6z"/>
<path class="st3" d="M39.3,36.1c-0.5,1.4-0.9,0.2-1.4,0C38.4,36.1,38.8,36.1,39.3,36.1z"/>
<path class="st45" d="M66.6,27.9c-1.6,0.5-3.1,1.2-4.8,1c-2.8-0.2-5.5-2.4-6.1-5.2c-0.7-3,0.6-6.3,3.1-7.7c4.6-2.4,9.2-0.3,10.4,4
	c0.8,2.5,0,4.7-1.6,6.6C67.3,27.1,66.7,27.3,66.6,27.9C66.6,27.9,66.6,27.9,66.6,27.9z"/>
<path class="st46" d="M61.1,20.3c-2,0-1.8-1.8-2.6-3c1.4-0.1,1.9,1,2.8,1.4c1.1-0.5,0.7-1.9,1.7-2.6c0.5,0.8,0.2,1.9,1,2.5
	c0.9,0,1.5-0.8,2.4-1c0.6,0.8-0.1,1.3-0.4,1.9c-0.5,0.9-0.2,1.4,0.7,1.6c0.7,0.2,1.5,0.1,2,0.9c-1.4,0.1-2.5,1.3-4,0.2
	c0.7,1.3,2.2,1.9,2.2,3.7c-1.2-0.3-2.1-0.8-2.7-1.7c-0.4-0.7-0.8-0.3-1.2-0.1c-0.8,0.4,0.1,0.5,0.2,0.8c0.3,1.2-0.3,2.2-0.7,3.4
	c-1.1-1.2-0.9-2.5-0.9-3.7c0-0.7-0.4-0.8-0.8-1l0,0c0.3-0.5,0.2-0.9,0-1.4c0.3-1.2,1.6-0.4,2.1-1.1C62.6,20.3,61.6,20.8,61.1,20.3z"
	/>
<path class="st47" d="M61.1,20.3c0.7-0.1,1.3-0.6,2-0.1c0.5,0.3,1.1,0.5,1,1.2c-0.1,0.6-0.7,0.8-1.2,0.8c-0.7,0.1-1.4-0.6-2,0.1
	C60,21.5,60.6,20.9,61.1,20.3z"/>
<path class="st46" d="M56.1,21.4c1.2-0.2,2.1-0.4,3-0.6c0.6-0.1,0.8,0.3,0.8,0.9c0,0.5-0.2,1.1-0.8,0.9
	C58.2,22.3,57.1,22.4,56.1,21.4z"/>
<path class="st46" d="M60.9,23.6c0,1.6-1.6,1.5-2.5,2.4C58.6,23.7,59.2,23.2,60.9,23.6C60.9,23.6,60.9,23.6,60.9,23.6z"/>
</svg>
