<?xml version="1.0" encoding="utf-8"?>
<!-- Generator: Adobe Illustrator 23.1.1, SVG Export Plug-In . SVG Version: 6.00 Build 0)  -->
<svg version="1.1" id="Livello_1" xmlns="http://www.w3.org/2000/svg" xmlns:xlink="http://www.w3.org/1999/xlink" x="0px" y="0px"
	 viewBox="0 0 80 135" style="enable-background:new 0 0 80 135;" xml:space="preserve">
<style type="text/css">
	.st0{fill:#FFFFFF;stroke:#000000;stroke-width:0.2509;stroke-miterlimit:10;}
	.st1{fill:#535558;}
	.st2{fill:#505152;}
	.st3{fill:#C1C3C1;}
	.st4{fill:#BEC0BE;}
	.st5{fill:#C2C5C4;}
	.st6{fill:#C0C0C0;}
	.st7{fill:#C8C8C7;}
	.st8{fill:#C2C5CB;}
	.st9{fill:#525253;}
	.st10{fill:#58595A;}
	.st11{fill:#525657;}
	.st12{fill:#545456;}
	.st13{fill:#555655;}
	.st14{fill:#4F5051;}
	.st15{fill:#3E3B2F;}
	.st16{fill:#4A4940;}
	.st17{fill:#4C4C4C;}
	.st18{fill:#626264;}
	.st19{fill:#B4B7B7;}
	.st20{fill:#B3B5B5;}
	.st21{fill:#AAADAD;}
	.st22{fill:#BAB7B2;}
	.st23{fill:#D0D0CD;}
	.st24{fill:#F1E133;}
	.st25{fill:#EFE334;}
	.st26{fill:#F2E833;}
	.st27{fill:#F3E932;}
	.st28{fill:#F2E832;}
	.st29{fill:#A58F39;}
	.st30{fill:#A39249;}
	.st31{fill:#9C915D;}
	.st32{fill:#9A915C;}
	.st33{fill:#9B9359;}
	.st34{fill:#AFA660;}
	.st35{fill:#AAB5B0;}
	.st36{fill:#C2BA60;}
	.st37{fill:#EBDD35;}
	.st38{fill:#EFE434;}
	.st39{fill:#B39F43;}
	.st40{fill:#434134;}
	.st41{fill:#84773C;}
	.st42{fill:#55492C;}
	.st43{fill:#F4E532;}
	.st44{fill:#F1E833;}
	.st45{fill:#726744;}
	.st46{fill:#F0E733;}
	.st47{fill:#F2E834;}
	.st48{fill:#AF9B42;}
	.st49{fill:#BBA73D;}
	.st50{fill:#B29E3D;}
	.st51{fill:#A8953B;}
	.st52{fill:#97915C;}
	.st53{fill:#A48C4A;}
	.st54{fill:#B4A45E;}
	.st55{fill:#9F9657;}
	.st56{fill:#C0BB7D;}
	.st57{fill:#CBC459;}
	.st58{fill:#9D945A;}
	.st59{fill:#8B7940;}
</style>
<path class="st0" d="M71.5,135h-63c-4.7,0-8.5-3.8-8.5-8.5V8.5C0,3.8,3.8,0,8.5,0h63C76.2,0,80,3.8,80,8.5v118
	C80,131.2,76.2,135,71.5,135z"/>
<path class="st1" d="M40.7,13.5c11.6,0.2,21.8,8.9,21.7,21.8c-0.1,11.7-9.3,22-22.8,21.8c-12.4-0.2-21.4-9.9-21.5-21.5
	C18,23.4,28.3,13.5,40.7,13.5z"/>
<path class="st2" d="M61.7,100.5c0.2,10.8-9.1,22.3-22.9,22.1c-12-0.2-21.4-9.8-21.3-21.8c0.1-12.1,10.2-21.9,22.9-21.8
	C52.3,79.1,61.7,88.7,61.7,100.5z"/>
<path class="st3" d="M23.8,23c0.4-1.9,2-2.8,3.3-3.9c9-6.9,22.2-6.5,29.9,3.3c5.1,6.5,6.1,15.3,1.5,23.1C54.3,52.6,48,56.3,39.8,56
	c-9.1-0.3-15.8-4.7-19.3-13.2c-2.7-6.5-1.6-12.8,2-18.8C22.9,23.6,23.2,23.1,23.8,23c0.8,1.2-0.3,2.1-0.8,3
	c-3.9,6.9-3.1,15.5,1.8,21.5c0.7,1.1,1.6,2.1,2.7,2.7c5,4.2,10.8,4.9,17,4c4-0.9,7.4-2.9,10.2-5.8c0.4-0.4,0.8-0.8,1.1-1.3
	c7-9,5.2-21.3-4.1-27.6c-4.9-3.4-10.2-4.2-15.9-3c-3,0.6-5.6,1.9-8,3.9C26.3,20.9,25.8,23.1,23.8,23z"/>
<path class="st4" d="M58.4,109.7c-3.6,7.2-9.4,11.1-17.3,11.8c-5.6,0.5-10.6-0.9-15-4.5c-0.3-0.2-0.5-0.6-0.8-0.9
	c0-0.3-0.1-0.6-0.2-0.9c-3.1-3.7-5.5-7.7-5.7-12.7c-0.4-8.3,3-14.7,10.1-19c0.2-0.1,0.4-0.3,0.7-0.3c0.5-0.1,1-0.1,1.4,0.3
	c0.1,0.2,0.1,0.5,0,0.7c-2.2,2-4.9,3.4-6.7,6c-6.7,9.9-3.9,21.4,6.7,27c0.5,0.3,1.1,0.4,1.7,0.6c7,2.3,13.3,1.1,18.9-3.9
	c6.9-5.8,7.8-16.9,2.2-24.3c-0.5-0.6-1.4-1.3-0.5-2.3c3.1,0.8,3.8,3.7,4.7,6.1c2.3,5.6,2.2,11.3-1.3,16.6c-0.8,1.3-1.7,2.5-2.6,3.7
	c-0.6,0.9-1.4,1.6-2.3,2.2c-6.5,5.1-13.6,5.8-21.2,2.9c-0.7-0.3-1.3-0.9-2.1-1c-0.2-0.1-0.3-0.3-0.5-0.3c0.1,0,0.3,0.1,0.4,0.2
	c0.7,0.2,1.4,0.6,2,1c7.7,3.1,14.9,2.4,21.6-2.8c0.9-0.6,1.7-1.2,2.2-2.1c0.9-1.1,1.8-2.2,2.5-3.5c0.6-0.4,0.4-1.7,1.6-1.3
	C58.5,109.2,58.5,109.5,58.4,109.7z"/>
<path class="st5" d="M58.4,109.7c0-0.3-0.1-0.5-0.1-0.8c-0.6-1,0.2-1.9,0.4-2.7c1.8-6.1,1-11.9-2.7-16.8c-3.9-5.1-9.4-8-16.1-8.1
	c-1.9,0-3.8,0.4-5.6,0.9c-0.2,0.1-0.4,0.1-0.7,0.2c-0.4,0.1-0.8,0.2-1.3,0.4c-0.2,0.1-0.4,0.1-0.6,0.2c-0.6,0.1-1.2,0.1-1.7,0.6l0,0
	c-0.5,0.3-1,0.7-1.7,0.8C28.2,84.2,28,84,28,83.8c2-1.9,4.6-2.8,7.3-3.3c7.9-1.6,14.8,0.2,20.1,6.3c5.1,5.8,6.6,12.6,4.2,20
	C59.3,107.8,59.2,108.9,58.4,109.7z"/>
<path class="st6" d="M23.2,113.8c-2.1-1.8-3-4.3-3.8-6.8c-1.3-4.4-1.5-8.7,0.5-13c0.2-0.2,0.5-0.2,0.7,0c0,2-0.8,3.8-0.9,5.8
	c-0.4,5,1.3,9.3,3.9,13.3C23.5,113.5,23.4,113.7,23.2,113.8z"/>
<path class="st7" d="M20.4,94.1c-0.2,0-0.3,0-0.5,0c0.6-3,2.4-5.3,4.4-7.4c1.1-1.1,2-2.5,3.7-2.8c0.1,0.1,0.1,0.2,0.2,0.2
	c-0.1,1.3-1.4,1.4-2.1,2.1C23.6,88.3,22.3,91.4,20.4,94.1z"/>
<path class="st8" d="M25.7,115.8c-0.1,0.1-0.3,0.2-0.4,0.3c-1-0.5-1.7-1.2-2.1-2.3c0.1-0.1,0.2-0.1,0.2-0.2
	C24.5,114,25.2,114.8,25.7,115.8z"/>
<path class="st9" d="M52.2,19c4.2,2.7,6.7,6.5,7.9,11.2c1.5,5.9,0.3,11.4-3.1,16.4c-0.3,0.4-0.5,0.8-1,1c-0.1-0.1-0.2-0.1-0.3-0.2
	c-0.3-1.4,0.9-2.3,1.3-3.4c1-1.7,1.6-3.5,2-5.4c0.8-6.8-0.8-12.7-6.1-17.3c-0.5-0.4-0.9-0.9-1.1-1.5C51.9,19.4,52,19.2,52.2,19z"/>
<path class="st10" d="M24.6,48.1c-5.7-6-6-16-1.9-22.8c0.4-0.7,1.2-1.3,1.1-2.3c0,0,0,0,0,0c0.9-0.1,1.2-0.9,1.7-1.4
	c0.6-0.6,1.1-1.3,2-1.6c0.1,0.1,0.2,0.2,0.3,0.2c-0.1,1.6-1.7,2.2-2.4,3.3c-2.4,3.2-3.8,6.8-4.2,10.8c-0.4,3.5,0.7,6.8,2.3,9.9
	c0.6,1.1,1.5,2.1,1.6,3.4C25,47.8,24.8,48,24.6,48.1z"/>
<path class="st11" d="M44.9,54.7C38.3,56.2,32.3,55,27,50.5c0.1-0.2,0.3-0.4,0.6-0.4c0.7,0,1.2,0.3,1.8,0.7c4.4,2.9,9.2,3.8,14.4,3
	c0.3,0,0.6,0.1,0.9,0.2C45,54.2,45,54.4,44.9,54.7z"/>
<path class="st12" d="M52.2,19c0,0.2,0,0.3,0,0.5c-0.6,0.5-1,0.1-1.5-0.2c-4.4-2.3-8.9-3.5-13.9-2.5c-0.4,0.1-0.8-0.1-1.1-0.2
	c-0.3-0.2-0.3-0.4-0.2-0.6c5.1-1.2,10-0.8,14.7,1.6C50.8,18,51.5,18.4,52.2,19z"/>
<path class="st13" d="M44.9,54.7c0-0.1,0-0.3,0-0.4c0.2-0.8,0.9-1,1.6-1.2c2.1-0.7,4-1.8,5.7-3.2c0.9-0.5,1.5-1.3,2.5-1.5
	c0.2,0,0.4,0.1,0.5,0.3C52.5,51.9,49,53.8,44.9,54.7z"/>
<path class="st10" d="M35.3,15.9c0,0.2,0,0.3,0,0.5c-0.2,1-1.1,1.1-1.8,1.3c-1.7,0.6-3.3,1.6-4.8,2.6c-0.3,0.1-0.7,0.1-1-0.1
	c-0.1-0.1-0.2-0.2-0.2-0.3C29.6,17.8,32.5,16.8,35.3,15.9z"/>
<path class="st14" d="M27,50.5c-1.1-0.5-1.9-1.3-2.5-2.4c0.1-0.1,0.2-0.2,0.3-0.3c1.3,0.3,2.1,1.1,2.4,2.4
	C27.2,50.3,27.1,50.4,27,50.5z"/>
<path class="st9" d="M56,47.6c-0.1,0.5-0.4,0.8-0.9,1c-0.1-0.1-0.2-0.2-0.3-0.3c-0.1-0.2,0-0.4,0.1-0.6c0.2-0.3,0.5-0.4,0.9-0.4
	C55.9,47.5,56,47.5,56,47.6z"/>
<path class="st15" d="M53.5,87.3c0.5,1.8,2.1,2.9,2.9,4.5c3.8,7.3,2.5,16.9-3.9,22.3c-0.5,0.1-0.6-0.2-0.6-0.6
	c0-0.8,0.4-1.5,0.8-2.2c1.1-1.9,0.7-3.4-1.1-4.6c-0.5-0.4-1.2-0.7-1-1.4c0.7-2.7,0-5.5,0.9-8.2c0.1-0.2,0.3-0.3,0.6-0.4
	c1.6,2.3,2.3,4.7,1,7.4c1.5,1.5,2.4,0.1,2.9-0.9c1.1-1.9,1.1-4-0.1-5.9c-1.1-1.8-2.7-0.9-4.2-0.5c-0.7,0.1-1.4-0.1-1.1,1.1
	c1.7,6.7-3.5,13.6-11.3,13.9c-3.6,0.1-4.4-0.5-7.2-2.8c-4.6-3.7-3.6-8.2-2.5-12.9c0.3-1.4,1.3-2.5,2.5-3.4c0.8-0.6,1.6-1.2,2.1-2.2
	c0.6-1.3,2-1.5,3.3-1.2c1.4,0.2,2.9,0.3,4.3,0.1c0.2-0.1,0.4-0.1,0.7-0.1c2.9,0.5,5.3,1.7,7,4.2c0-0.5-1.3-1.1,0.1-1.6
	c0.4,0,0.7,0.2,1.1,0.4c0.6,0.3,0.9,1.4,1.8,0.7c0.8-0.6,0.8-1.5,0.6-2.4c-0.5-2.3-2.6-4-4.6-3.6c-1.6,0.3-2.1,1.1-1.6,2.8
	C44.9,91,44,89.6,43,88.8c0.4-0.8,1.2-1.6,0.5-2.6c-0.1-0.3-0.2-0.6-0.2-0.9c0.1-0.4,0.6-0.9,0.7-0.8c1.8,1.7,3.6,0.1,5.4,0.1
	c0.3-0.1,0.7,0,1,0c0.2,0.1,0.4,0.2,0.6,0.3c0.8,0.7,1.6,1.5,2.4,2.2C53.4,87.1,53.5,87.2,53.5,87.3z"/>
<path class="st16" d="M42,89.7c-1.5,0.9-3.1,0.6-4.6,0.3c-1-0.2-1.7,0.1-2.5,0.3c-0.4,0.1-0.9,0.3-0.5,1c0.4,0.6-0.4,0.7-0.7,1
	c-3.7,2.3-4.8,5.7-4.6,9.8c0,0.9,0.2,1.8,0.7,2.5c0.6,1-0.7,2.5,0.3,2.8c0.9,0.3,1.6,0.6,2.2,1.2c0.4,0.4,0.9,0.7,0.9,1.4
	c0,0.5,0.3,0.8,0.7,0.8c0.5,0.1,1.5-0.4,1.5-0.2c-0.3,0.9,0.3,0.9,0.7,1.2c0.6,0.2,1.1-0.1,1.6-0.2c0.5-0.1,0.9-0.1,1.4-0.1
	c0.6,0,1.1,0,1.7-0.1c0.5-0.1,1.1-0.2,1.6-0.4c3.2-1,5.5-2.8,6.7-6.1c0.5-1.3,1.1-2.6,1.1-4.1c0-1.5-0.5-2.8-0.9-4.2
	c0.9-0.3,1.6-0.2,2.4,0.3l0,0c-0.1,1.7-0.4,3.3-0.2,5c0.2,1-0.2,1.9-0.5,2.8c-0.4,1.1,0.2,1.5,1,1.9c-1.3,3.5-4.3,5.3-7.4,6.9
	c-1.1-0.4-2.3-0.3-3.2-1.1c-0.9-0.6-2,0-2.8-0.3c-0.5,0,0,0.5-0.1,0.2c0-0.1,0-0.1,0.2-0.1c0.9,0,1.9-0.3,2.8,0.2c0,1.2-1,1-1.7,1.1
	c-1.3,0.2-2.7-0.1-4-0.3c-0.2,0-0.5,0-0.7,0c-0.7-0.2-1.1-1-1.9-1c-0.2,0-0.4-0.1-0.6-0.2c-0.4-0.4-1-0.7-1.6-0.6
	c-1.6-0.3-2.3-1.6-3-2.8c-0.3-0.4-0.4-1.2-1.1-1.1c-0.8,0.1-1.1,0.8-1.3,1.5c-0.4,1.5,0.7,3.5,2.3,4.2c1.3,0.5,2.6,0.5,3.9,0.8
	c1,0.4,2.1,0.8,1.9,2.2c-0.2,1.3-1.3,1.4-2.3,1.5c-7.5-3.5-11.4-10.3-10.8-18c0.5-6.3,3.7-11.2,9-14.7c0.6-0.4,1.2-0.7,1.8-1.1
	c0.4-0.6,0.9-1,1.7-1.3c4.5-1.6,8.9-1.8,13.4,0.1c0.1,0.1,0.2,0.2,0.3,0.4c0.2,0.3,0,0.6,0.2,0.9c0.2-0.2,0.1-0.5,0.5-0.6
	c1,0.2,2.1,0.2,2.2,1.6c-1,0.6-2.3,0.2-3.3,1.3c-0.5,0.6-1.4,0-1.8-0.9c-0.4-1.1-0.7-0.1-1.1,0.1c-0.8,0-1.2-0.7-1.8-1
	c-2.6-1.5-5.1-0.6-6.2,2.2c0,0.4-0.2,0.9,0.4,1.1c0.2,0,0.4-0.1,0.5-0.1c0.9-0.3,1.8-0.7,2.7-1c1.9-0.6,3.2,0.1,4.4,2.1
	c1.2,1,1.8,1.2,2.9,0.9c1.8-0.2,3,0.4,2.9,2.4c-0.5,1,0.9,1.5,0.7,2.6c-0.7-0.1-0.9-0.7-1.3-1.1C46.9,91.6,45,89.8,42,89.7
	c-1.1-0.6-2.3,0-2.8-0.2C39.8,89.7,40.9,89.2,42,89.7z"/>
<path class="st16" d="M52.1,113.7c0.1,0.2,0.3,0.3,0.4,0.5c-4.4,4.9-13.6,6.9-19.6,3.9c0.3-0.8,0.6-1.5,1.5-1.7
	c0.7,0,1.2,0.3,1.8,0.6c3.3,1.4,4.4,1.1,6.9-1.5c0.2-0.2,0.5-0.4,0.8-0.3c0.2,0.3,0.1,0.6,0.3,1.2c-0.3-1.3,0-2.1,1.1-2.3
	c1.8,0.4,3.5,0.6,5.2-0.3C51,113.4,51.6,113.3,52.1,113.7z"/>
<path class="st17" d="M33.4,82.1c1.3-1.3,3.1-1.2,4.7-1.3c5.7-0.5,10.9,1.1,15.2,5c6.7,6,8,13.4,5.4,21.8c-0.1,0.5-0.4,0.9-0.3,1.4
	c-0.5,0.5-0.7,1.2-1.3,1.6l-0.1-0.1c0.7-2.3,1.7-4.4,2.1-6.7c0.8-4.6-0.2-8.8-2.4-12.7c-0.8-1.4-1.5-2.8-3-3.5c0,0,0,0,0,0
	c-1.1-0.7-1.8-1.8-2.9-2.4l0,0c-4.8-3.2-10-3.8-15.5-2.8C34.6,82.3,33.9,82.6,33.4,82.1z"/>
<path class="st2" d="M25.7,115.8c-0.8-0.7-1.5-1.5-2.3-2.2c-0.9-2.1-2.5-3.8-3.2-6.1c-1.2-3.8-1.3-7.6-0.4-11.4
	c0.2-0.7,0.3-1.4,0.4-2.1c1.6-4.1,4.4-7.3,7.8-10c0.7-0.1,1.1-0.8,1.9-0.6c-0.1,0.6-0.7,0.8-1.2,1.1c-10.3,6.7-12,20.9-3.6,30
	C25.5,114.8,26.8,115,25.7,115.8z"/>
<path class="st18" d="M52.7,115.9c-5.9,5.4-14.8,6.5-21.9,3.1c-0.1-0.1-0.2-0.2-0.3-0.4l0.1-0.1c1.4,0,2.5,0.8,3.9,1.1
	c5.9,1.1,11.5,0.5,16.5-3.2c0.4-0.3,1-0.5,1.4-0.8C52.7,115.5,52.7,115.6,52.7,115.9z"/>
<path class="st19" d="M33.4,82.1c2.8-0.4,5.6-1,8.5-0.6c3.2,0.5,6.4,1.1,8.8,3.5c-0.3,0-0.7,0-1,0c-0.6-0.8-1.5-1-2.4-1.4
	c-0.2,0.1-0.3,0.1-0.4-0.1c-4.6-2.2-9.2-1.7-13.9-0.2c-0.5,0.2-1,0.4-1.5,0.6c0-0.2,0-0.4,0-0.5c0-0.4,0.3-0.6,0.5-0.8l0,0
	C32.3,82.1,33,82.5,33.4,82.1L33.4,82.1z"/>
<path class="st15" d="M34.5,116.5c-0.7,0.4-0.8,1.3-1.6,1.6c-0.5-0.1-1.1,0.1-1.5-0.4c0.1-0.1,0.2-0.3,0.3-0.3
	c0.7-0.3,1.6-0.4,1.6-1.5c0-0.9-0.8-1-1.5-1.3c-0.1-0.1-0.2-0.2-0.3-0.3c0.2-1.1,1-1.6,1.8-2.3c0.9-0.5,1.4-0.1,1.5,0.9
	C34.6,114,34.5,115.3,34.5,116.5z"/>
<path class="st17" d="M54.4,113.6c0.8-1.1,1.4-2.4,2.5-3.3c0,0,0.1,0.1,0.1,0.1c-0.3,1.5-1.4,2.4-2.3,3.4
	C54.4,113.9,54.3,113.9,54.4,113.6z"/>
<path class="st17" d="M52.4,115.6c0.7-0.7,1.3-1.3,2-2c0.1,0.1,0.2,0.2,0.3,0.3c-0.5,0.9-1.2,1.5-2,2
	C52.6,115.7,52.5,115.6,52.4,115.6z"/>
<path class="st17" d="M32,82.5c0.1,0.5-0.4,0.5-0.5,0.8c-0.5,0.1-0.9,0.1-1.4,0.2C30.4,82.7,31.1,82.5,32,82.5z"/>
<path class="st2" d="M28.6,117.6c-0.8-0.1-1.3-0.6-2-1.5C27.7,116.4,28.4,116.6,28.6,117.6L28.6,117.6z"/>
<path class="st2" d="M30.5,118.6c-0.8,0-1.4-0.5-1.9-1c0,0,0,0,0,0C29.4,117.5,30.1,117.8,30.5,118.6
	C30.6,118.5,30.5,118.6,30.5,118.6z"/>
<path class="st17" d="M33.4,82c-0.3,0.7-0.9,0.5-1.5,0.5C32.3,82,32.8,82,33.4,82z"/>
<path class="st20" d="M28.6,20c1.8-2,4.5-2.4,6.8-3.5c3.7-0.8,7.4-0.7,11,0.4c2.1,0.6,3.9,1.6,5.8,2.7c1.6,1.6,3.4,3.1,4.7,5
	c2.5,3.8,3.5,7.9,3,12.4c-0.1,0.6-0.1,1.3-0.1,1.9c-0.3,0.1-0.5,0.1-0.6-0.2c-0.6-1.3-0.3-2.7-0.3-4c-0.2-6.9-4.7-13.4-11.2-15.9
	c-0.2-0.1-0.5-0.2-0.7-0.3c-4.9-1.7-9.7-1.5-14.4,0.7c-1.3,0.6-2.4,1.7-3.9,1.5C28.4,20.4,28.4,20.2,28.6,20z"/>
<path class="st21" d="M59.1,38.8c0.2,0,0.4,0,0.6,0c-0.5,1.9-0.9,3.8-2.1,5.4c-0.1-0.1-0.2-0.1-0.3-0.2C57,42,57.7,40.3,59.1,38.8z"
	/>
<path class="st22" d="M55.8,47.4c-0.3,0.2-0.6,0.4-0.9,0.5c-0.2-0.2-0.3-0.4-0.3-0.6c0.3-1.6,1.1-2.7,2.6-3.3
	c0.1,0.1,0.1,0.2,0.2,0.2C57.3,45.5,56.2,46.2,55.8,47.4z"/>
<path class="st3" d="M27.3,50.3c-0.8-0.8-1.6-1.6-2.4-2.4c-1.9-2.9-3.6-5.8-4.1-9.3c-0.8-5.8,0.6-11,4.5-15.5
	c0.2,0.2,0.3,0.4,0.3,0.6c0,1.1-0.7,1.9-1.2,2.8c-6.6,12,0.7,24.2,12.3,26.4c4.6,0.9,9.2,0.5,13.3-2.3c0.6-0.4,1.3-1,2.2-0.9
	c0.3,0,0.4,0.2,0.5,0.4C50.8,52,48.5,53,46,53.8c-0.4,0.1-0.7,0.3-1.1,0.5c-1-0.3-1.8,0.3-2.8,0.4c-4.8,0.3-9.2-0.7-13.2-3.4
	C28.4,50.9,27.8,50.6,27.3,50.3z"/>
<path class="st23" d="M25.3,23.8c0-0.2-0.1-0.5-0.1-0.7c0.8-0.9,1.7-1.8,2.5-2.8c0.3-0.1,0.5-0.2,0.8-0.3c0,0.2,0,0.5,0.1,0.7
	C28,22.2,26.8,23.2,25.3,23.8z"/>
<path class="st3" d="M54.9,47.3c0,0.2,0,0.4,0.1,0.6c0,0.1-0.1,0.3-0.1,0.4c-0.8,0.4-1.2,1.4-2.1,1.7c-0.1-0.1-0.2-0.2-0.3-0.4
	C52.8,48.4,53.6,47.6,54.9,47.3z"/>
<path class="st24" d="M44,97.1c-1.3,0.1-2.5,0.3-3.8,0.4c0,1.2,0.5,2,1.7,1.9c0.9-0.1,1.7,0.7,2.7,0c0.5-0.3,0.8,0.2,0.7,0.8
	c-0.2,3-2.2,4.7-4.5,6.1c-1,0.6-2.5,0.6-3.4-0.2c-1.3-1.1-3-1.9-2.8-4.3c0.1-0.7-1-1.7-0.5-2.9c1.3,0.8,2.8,0.5,4.1,0.1
	c0.5-0.1,0.7-0.8,0.7-1.6c-1.3-0.1-2.5-0.9-3.9,0.2C37,94.3,41.4,94.1,44,97.1z"/>
<path class="st25" d="M52.1,113.7c-0.5,0.1-1,0.2-1.4,0.4c-1.8,1.1-3.6,1.1-5.4,0.1c-0.8,0-0.8-0.5-0.5-1c0.1-0.5,0-1,0.7-1.1
	c2.5-0.4,3.5-2.7,5.3-4c0.2-0.1,0.1-0.7,0.2-1.1c0.1-0.7,0.6-0.6,1.1-0.6c2.1,2,2.2,2.6,0.9,5.1C52.7,112.3,52.4,113,52.1,113.7z"/>
<path class="st26" d="M49.3,92.1c-0.3-1.7-1.8-1.8-2.9-2.4c-1.3-1-1.4-1.2-0.2-2.2c1.7-1.5,4.3-1.3,6.1,0.4c1.5,1.5,1.7,4.5,0.3,5.9
	c-0.6,0.7-1.2,1-1.8-0.1C50.4,93.1,50,92.4,49.3,92.1z"/>
<path class="st27" d="M52.1,96.9c-0.1-0.1-0.2-0.1-0.3-0.1c0,0,0,0,0,0c2-1.8,3.7-1.4,4.8,0.8c1,1.9,0.8,3.8,0.1,5.7
	c-0.6,1.7-2.2,2.5-3.8,2.1c-0.7-0.2-1-0.5-0.7-1.2c2.4-1.8,2.3-1.8,1.2-4.5C53,98.8,52.7,97.8,52.1,96.9z"/>
<path class="st28" d="M34.9,86.8c0.4-2.5,2.5-4.2,5-3.7c1.4,0.3,2.9,0.7,3.6,2.3c-0.1,0.2,0,0.4,0.2,0.5c0.7,0.4,0.5,0.9,0.2,1.4
	c-0.3,0.4-0.9,0.5-1.3,0.2c-2.6-2.1-4.7-0.6-6.8,0.8l0,0C34.5,88.4,35.4,87.2,34.9,86.8z"/>
<path class="st29" d="M52.1,96.9c1.8,0.9,1.9,3,2.7,4.5c0.6,1.1-0.9,2.4-2.6,2.8c1.2-1.7,0.7-3.6,0.3-5.4
	C52.4,98.2,52.1,97.6,52.1,96.9z"/>
<path class="st30" d="M35.8,88.3c2.2-2.6,3.5-2.9,6.4-1.5c1.4,0.7,1.4,0.7,1.5-0.9c0.9,1.1,0.9,1.4-0.3,2.8c-1.3-1-2.5-2.3-4.3-1.5
	C38.1,87.8,36.9,87.9,35.8,88.3z"/>
<path class="st31" d="M34.3,93.1c-0.5,0.9-0.7,2.1-1.8,2.6c-0.8,0.4-0.5,1.3-0.8,1.9c-0.2,0.6-0.1,1.3-0.8,1.6
	c-0.2,0.1-0.5,0.5-0.8,0.1c-0.1-0.2-0.2-0.5-0.1-0.7c1.1-1.9,2-4,3.6-5.5C33.8,93.1,34.1,93.1,34.3,93.1L34.3,93.1z"/>
<path class="st31" d="M34.3,93.1c1.8-0.9,3.6-1.5,5.6-1.7c1.1-0.1,1.8,0.1,2.5,1.1c-1.1,0.2-2.1-0.1-3-0.2c-0.9,0-1.6-0.2-2.4,0.4
	C36.3,93.4,35.3,92.9,34.3,93.1C34.3,93.1,34.3,93.1,34.3,93.1z"/>
<path class="st32" d="M48.1,103.4c-0.5-0.6-0.3-1.2-0.1-1.7c0.3-1,0.4-1.8-0.4-2.6c-0.3-0.3-0.3-0.7,0-1C47.7,98,47.9,98,48,98
	c0.5,0,0.7,0.4,0.7,0.8c0.1,0.8,0,1.6,0.4,2.5C49.5,102.1,48.7,102.8,48.1,103.4z"/>
<path class="st33" d="M55.1,92.8c0.8,0.2,0.9,0.7,0.9,1.4c-0.1,0.7-0.5,0.9-1.2,0.9c-0.8,0-1.2-0.5-1.1-1.2
	C53.8,93.1,54.4,92.8,55.1,92.8z"/>
<path class="st34" d="M34,107.7c0.9-0.4,1.5-0.1,1.8,0.8c0.1,0.3,0.4,0.7,0,1c-0.3,0.2-0.6,0-0.8-0.3C34.6,108.8,34,108.4,34,107.7z
	"/>
<path class="st31" d="M30.3,100.7c0.3,0.5,0.5,0.7,0.5,0.9c0.1,0.6,1,1.1,0.4,1.9c-0.1,0.1-0.3,0.1-0.4,0.1
	c-0.7-0.5-0.8-1.1-0.8-1.9C30.1,101.5,30.2,101.4,30.3,100.7z"/>
<path class="st35" d="M50.6,84.9c1.4,0.3,2.2,1.3,2.9,2.4C52.3,86.9,51.2,86.2,50.6,84.9z"/>
<path class="st36" d="M32.8,106.7c-0.6-0.1-1.3,0-1.3-0.9c0-0.2,0.2-0.6,0.2-0.6C32.3,105.5,32.8,105.8,32.8,106.7z"/>
<path class="st32" d="M47.6,97c-0.5-0.3-0.8-0.7-0.7-1.3c0-0.1,0.3-0.2,0.4-0.1C48,95.9,47.7,96.5,47.6,97z"/>
<path class="st37" d="M34.5,116.5c-0.8-1.3-0.9-2.6,0.4-3.7c0.1,0.1,0.3,0.1,0.4,0.1c1.6-0.2,2.9,0.8,4.4,0.8c1.4,0,2.5-0.7,3.7-1
	c0.8,0.7,1.3,1.4,0.5,2.4c-1,3-4.8,4-7.4,2.6C35.8,117.4,35.2,116.9,34.5,116.5z"/>
<path class="st28" d="M26.8,104.5c-3.6,1-5.9-1-5.1-4.6c0.2-0.9,0.4-1.9,1-2.7c1-1.4,2.6-1.9,4.2-1.3c0.9,0.4,0.8,0.7-0.1,0.8
	c-0.7,0.1-0.5,0.5-0.3,0.8c0.2,0.5,0.3,1,0.1,1.4c-1.3,1.7-0.2,3.3,0.2,4.9C26.7,104.1,27,104.2,26.8,104.5z"/>
<path class="st38" d="M33.3,112c-0.1,1.1-1,1.7-1.8,2.3c-1.1,0.1-2.2,0-3.3-0.3c-2.1-0.6-3.1-1.9-3.3-3.9c-0.2-1.8,0.8-3.1,2.3-4
	c1.4,1.7,1.8,4.2,4.2,4.8c0.6,0.1,1,0.6,1.4,1.1C33,112,33.2,112,33.3,112z"/>
<path class="st28" d="M28.5,93.6C28,94,28,95.1,27.1,94.9c-0.7-0.2-1.1-0.9-1.4-1.5c-0.6-1.4,0-4.2,1.4-5.2c1-0.7,2-1.3,3.2-1.6
	c1.3-0.3,2.9,0.3,3.4,1.5c0.2,0.4,0.3,0.9-0.3,1.2c-1.8-0.2-3.1,0.4-3.8,2.2C29.4,92.3,29.1,93,28.5,93.6z"/>
<path class="st15" d="M43.9,115.1c0.1-0.9-0.3-1.6-0.8-2.3c-1,0.9-2.5,0.4-3.5,1.4c-1.6,0.1-3-0.5-4.4-1.3c0.4-0.7,1-0.4,1.6-0.3
	c1.6,0.2,3.2,0.7,4.7-0.3l0,0c1.2,0.1,2.5-0.4,3.3,1c0.1,0.4,0.1,0.8,0.5,1c-0.9,0.5-1,1.5-1,2.5C43.8,116.2,44.1,115.6,43.9,115.1z
	"/>
<path class="st39" d="M28.5,93.6c0.1-0.4,0.3-0.7,0.3-1.1c-0.1-2.3,1.8-2.9,3.2-3.9c0.8-0.6,1.1,0.2,1.4,0.7
	c-0.9,0.4-1.4,1.5-2.6,1.4c-0.3,1-1,1.7-1.5,2.5C29.1,93.4,28.8,93.6,28.5,93.6z"/>
<path class="st15" d="M42,89.7c-1.2,0-2.5,0-3.7,0c0-0.2,0-0.3,0-0.5C39.6,89.5,40.8,88.9,42,89.7C42,89.7,42,89.7,42,89.7z"/>
<path class="st15" d="M41.5,112.3c-1.1,0-2.2,0-3.2,0c0-0.2,0-0.3,0-0.5C39.4,111.9,40.5,111.5,41.5,112.3
	C41.5,112.3,41.5,112.3,41.5,112.3z"/>
<path class="st15" d="M32.9,111.9c-0.8,0.1-1.1-0.6-1.4-1.1C32.5,110.5,32.8,111.1,32.9,111.9z"/>
<path class="st30" d="M34.9,86.8c0.4,0.4,0.2,1.2,0.9,1.5c-0.4,0.5-0.7,0.3-0.8-0.1C34.8,87.8,34.8,87.3,34.9,86.8z"/>
<path class="st15" d="M28.4,103.3c-0.1-0.1-0.2-0.2-0.2-0.3c0-0.1,0.1-0.2,0.2-0.4c0.1,0.1,0.2,0.2,0.2,0.3
	C28.5,103.1,28.4,103.2,28.4,103.3z"/>
<path class="st15" d="M46.9,83.5c0.2,0,0.3,0,0.4,0.1c-0.1,0.2,0.1,0.7-0.4,0.5C46.5,84,46.5,83.7,46.9,83.5z"/>
<path class="st40" d="M54.9,47.3c-0.8,0.8-1.7,1.6-2.5,2.4c-0.3,0.2-0.5,0.3-0.8,0.5c-5.5,4-11.6,4.8-17.9,2.5
	c-11.2-4.1-15.2-15.6-10.4-25.5c0.6-1.2,1.3-2.3,2-3.5c1.1-1,2.2-2,3.3-3.1c5-3.6,10.6-4.8,16.6-3.4c0.7,0.2,1.6,0.2,2.1,1
	c-0.3,0.6-1.6,0.5-1.3,1.7c1.3-0.1,0.7-1.4,1.3-1.7c3.3,0.5,5.5,2.7,7.5,5c3.9,4.5,5,9.8,4.2,15.6c-0.6,1.7-1.2,3.5-1.8,5.2
	C56.5,45.1,55.7,46.2,54.9,47.3z"/>
<path class="st41" d="M38.1,104.3c-0.3-0.4-1.2-0.4-1.1-1c0.2-0.7,1-0.6,1.6-0.8c0.2-0.7-0.9-0.6-0.8-1.4c1.1,0.2,2.2,0.4,3.6-0.5
	c-0.5,1.1-1.6,2,0,2.4c0,1-0.8,0.7-1.3,0.7c-0.1,0.1-0.3,0.2-0.5,0.2c-0.4,0-0.7-0.1-1,0.1C38.4,104.1,38.3,104.2,38.1,104.3z"/>
<path class="st42" d="M38.1,104.3c0-0.2,0.1-0.5,0.1-0.7c0.4-0.2,0.9-0.2,1.3,0.1c0.2,0,0.4,0,0.6,0.1
	C39.7,105,39.4,105.1,38.1,104.3z"/>
<path class="st16" d="M39.6,114.2c0-0.5,0.3-0.8,0.8-0.9c0.9-0.1,1.8-0.3,2.7-0.4C42.4,114.4,40.9,113.9,39.6,114.2z"/>
<path class="st43" d="M34.8,33.9c3,0.8,4.4,0.2,4.7-2c-1.1-0.1-2.1-0.2-3.3-0.3c2.2-2.8,5.8-2.7,8.3-0.1c-1.3,0.2-2.5,0.3-3.8,0.5
	c0.6,1.8,2.1,2.6,4,2c0.4-0.1,0.8-0.6,1.2-0.1c0.3,0.4-0.1,0.7-0.2,1.1c-0.4,2-1.8,3.3-2.8,4.9c-1.1,1.5-3.9,1.7-5.4,0.3
	c-1-0.9-1.9-1.9-2.1-3.4C35.5,35.8,35.5,34.8,34.8,33.9z"/>
<path class="st27" d="M45.8,46.8c1.2,0.2,2.2-0.2,2.8-1.2c0.5-0.8,1.3-1,1.9-1.3c0.7-0.3,0.3-1.4,1.5-1.5c1.2-0.1,0.4-1.3,0.1-2.1
	c2.4,1,3,2.2,2.3,4.3c-0.7,2.4-2.4,3.6-4.7,4.2C48,49.8,47,49.1,45.8,46.8z"/>
<path class="st44" d="M28,39.1c-3.1,1.3-5,0.3-5.6-2.5c-0.4-1.8,0.2-3.3,1-4.8c0.4-0.8,1.2-1.1,1.9-1.3c0.9-0.3,1.7-0.1,2.5,0.4
	c-0.6,0.7-0.2,1.8-1.2,2.4c-0.4,0.2-1.2,0.5-0.8,1.3l0,2.1C27.1,37.1,26.7,38.6,28,39.1z"/>
<path class="st27" d="M40.2,52.9c-1.4-0.3-2.6-0.5-3.7-1.2c-0.7-0.4-1.1-1.1-1.2-2c-0.1-1.1,0.5-1.7,1.7-1.5c0.2,0,0.5,0.1,0.7,0.2
	c2,0.9,3.9,0.9,5.8-0.1c0.5-0.2,1.4,0.7,1.3,1.2c-0.1,0.8-0.4,1.6-1.1,2C42.6,52.4,41.3,52.6,40.2,52.9z"/>
<path class="st26" d="M53,32.1c-0.6-1.8-0.4-2.1,1.2-2.3c0.7-0.1,1.4,0,2,0.5c2.1,2.2,3,6.4-0.3,8.8c-1.1,0.4-2.3,1-2.7-0.8l0,0
	C54.5,36.3,55.1,34.2,53,32.1z"/>
<path class="st45" d="M44.4,22.6c0.1,0.5-0.1,1.2,0.6,1.4c1.3,0.5,2.4,1.5,3.8,1.9l0,0c0.1,0.4,0.4,0.9,0.3,1.1
	c-0.4,0.6-0.8,0-1.1-0.3c-0.9-0.9-2-1.6-3.2-2c-1.2-0.4-2.5-1.5-3.8,0.1c-0.2,0.2-0.9,0.1-1.4,0.1c-2.4,0.2-4.6,1-6.4,2.8
	C32,29,32,29,29.6,29.4c0.6-1.5,2-2.2,2.8-3.5c0-0.1,0.1-0.2,0.1-0.3c0.2-0.4,0.5-0.6,0.8-0.9c0.3-0.3,0.5-0.6,0.7-0.9
	c0.1-0.2,0.3-0.3,0.4-0.4c0.6,1,1.2,0.9,1.9,0c-0.1-0.4,0.2-0.6,0.6-0.6c2.2-0.3,4.5,0.1,6.7-0.4C43.8,22.3,44.1,22.3,44.4,22.6z"/>
<path class="st27" d="M44.4,22.6c-0.3,0-0.6,0-0.9,0c-0.1,0-0.2,0-0.3,0c-1-0.3-1.8-1-2.8-1.5C40.2,21,40,21,39.8,20.9
	c-1.6,0.3-2.5,2.4-4.5,1.6c-0.1-1.7-0.1-3.3,1.9-4.2c2.2-0.9,4.3-0.8,6.2,0.8C44.6,20,44.5,21.3,44.4,22.6z"/>
<path class="st46" d="M45.8,23.6c-0.2-0.1-0.4-0.4-0.3-0.5c1.3-2.5,5.5-2.9,7.3-0.7c1.5,1.9,1.6,4,0.3,5.9c-0.7,0.7-1,0.1-1.1-0.4
	C51,24.6,48.7,23.7,45.8,23.6z"/>
<path class="st28" d="M34.4,23.4c-0.1,0.1-0.1,0.3-0.1,0.4c-0.1,0-0.1,0.1-0.2,0.1c-3.1-0.1-5,1.3-5.7,4.4c-0.1,0.5-0.4,1.3-1.3,1
	c-1.3-0.3-1.1-1.5-1.1-2.3c0-3.3,2.2-5.1,5.2-5.8C32.9,20.9,33.5,22.4,34.4,23.4z"/>
<path class="st47" d="M33.5,48.1c-1.9,1.3-4.4,1.1-6.2-0.3c-1.2-1-1.7-3.2-1.1-5c0.8-1.2,1.8-0.9,2.2,0c1.1,2.2,3.1,3.1,5,4.3l0,0
	C33.7,47.3,33.6,47.7,33.5,48.1z"/>
<path class="st48" d="M27.1,29.3c1.2-0.8,1-2.4,1.8-3.5c1.2-1.7,2.3-2.5,4.3-2.3c0.4,0,0.8,0.2,1.1,0.3c0.1,0.7-0.2,1.1-0.9,1.1
	c-0.4,0.2-0.7,0.6-1,1c0,0,0,0,0,0c-2,0.2-2.7,1.8-3.4,3.3C28.3,30.5,27.8,30,27.1,29.3z"/>
<path class="st49" d="M33.4,47c-2.3-0.2-4.1-1.1-4.9-3.4c-0.4-1-1.2-1.5-2.3-0.8c0-1.2,1-1.5,1.8-1.9c1.3,1.6,2.4,3.4,4.2,4.6
	C32.7,45.7,33.4,46.1,33.4,47z"/>
<path class="st50" d="M45.8,23.6c1,0,1.9-0.3,3,0c2.2,0.6,2.8,2.3,3.6,4c0.2,0.4,0.1,0.8,0.7,0.7c-1.2,1.1-1.2,1.1-1.8-0.1
	c-0.6-1-1-2.1-2.4-2.2c0,0,0,0,0,0C48.4,24.4,46.7,24.4,45.8,23.6z"/>
<path class="st51" d="M53,32.1c1.2-0.1,1.1,1.2,1.6,1.8c0.8,0.8,0.3,1.4,0,2.1c-0.3,1-0.3,2.1-1.6,2.4C53.3,36.3,53.7,34.2,53,32.1z
	"/>
<path class="st52" d="M47.3,18.2c0.1,0.5,0.4,1.1,0.3,1.6C47.5,20.4,47,21,46.3,21c-0.7,0-1.2-0.5-1.3-1.2c-0.1-0.7,0.2-1.3,0.9-1.4
	C46.4,18.2,46.9,18.2,47.3,18.2C47.3,18.2,47.3,18.2,47.3,18.2z"/>
<path class="st53" d="M35.3,22.4c1.4-0.4,2.8-0.8,3.7-2.2c0.3-0.4,1-0.7,1,0.3c-0.3,2-1.7,2.4-3.4,2.4c-0.1,0.2-0.3,0.3-0.4,0.5
	C35.5,23.5,35.3,23.1,35.3,22.4z"/>
<path class="st54" d="M32.4,30.7c-0.1,0.9-0.1,1.7-0.2,2.6c-0.1,0.4-0.3,0.7-0.8,0.8c-0.2,0-0.5-0.1-0.6-0.2c-0.3-0.4-0.1-0.8,0.2-1
	C31.8,32.3,31.8,31.3,32.4,30.7C32.4,30.7,32.4,30.7,32.4,30.7z"/>
<path class="st55" d="M39.2,26.4c1-0.8,2-0.7,3.3,0.2C41.1,27,40.1,27.2,39.2,26.4L39.2,26.4z"/>
<path class="st54" d="M32.4,30.7c0.1-1.3,1.3-1.9,2.1-2.8C34.2,29.2,33.9,30.4,32.4,30.7C32.4,30.7,32.4,30.7,32.4,30.7z"/>
<path class="st56" d="M31.2,35.7c0.4,0.7,0.6,1.1,0.8,1.5c0.2,0.4,0.4,0.8-0.1,0.9c-0.4,0.1-0.7-0.3-0.8-0.7
	C30.8,37,31,36.5,31.2,35.7z"/>
<path class="st57" d="M35,42.4c1.5-0.2,1.6,0.6,1.8,1.6C35.7,43.9,35.3,43.2,35,42.4z"/>
<path class="st51" d="M53.1,38.4c0.6,1.3,1.7,1,2.7,0.8c-0.9,1.2-1.9,0.8-2.9,0.1C52.6,39.1,52.6,38.7,53.1,38.4z"/>
<path class="st58" d="M48.3,32.1c-0.4-0.8-0.9-1.6-1.4-2.5C48.9,29.9,48.1,31.2,48.3,32.1L48.3,32.1z"/>
<path class="st55" d="M39.1,26.4c-0.8,0.5-1.5,1.2-2.9,1.1C37.2,26.4,38.2,26.3,39.1,26.4C39.2,26.4,39.1,26.4,39.1,26.4z"/>
<path class="st58" d="M48.3,32.1c1,0.4,1.4,1,0.8,2.2C48.4,33.7,47.6,33.2,48.3,32.1C48.3,32.1,48.3,32.1,48.3,32.1z"/>
<path class="st49" d="M33.5,48.1c0-0.4,0-0.7,0-1.1c0.3-0.1,0.6-0.5,0.8-0.2C34.5,47.5,34,47.8,33.5,48.1z"/>
<path class="st24" d="M39.5,103.6c-0.4,0-0.8,0-1.3-0.1C38.7,103.3,39.1,103.2,39.5,103.6z"/>
<path class="st59" d="M38.6,35.4c1.1,0.5,2.1,0.7,3.2,0c-0.6,1.5-0.6,1.5,0.5,2.4c-0.2,0.9-1.1,0.8-1.6,1.2c-1,0.8-2,0.5-2.7-0.7
	c-0.2-0.4-0.1-0.7,0.2-0.7C39.7,37.1,38.5,36.3,38.6,35.4z"/>
<path class="st40" d="M36.7,23c1.3-0.6,2.8-0.9,3.4-2.4c0,0,0,0,0,0c0.8,1.1,2.1,1.5,3.3,1.9c0,0,0,0.1,0,0.1c0,0.3,0.3,0.8,0,0.8
	c-2.2-0.4-4.3,0-6.5-0.1C36.9,23.3,36.8,23.1,36.7,23z"/>
<path class="st40" d="M32.4,25.9c0-0.7,0.3-1,1-1C33.2,25.4,32.9,25.7,32.4,25.9z"/>
<path class="st53" d="M43.5,22.5c-1.4-0.2-3.1,0.1-3.3-1.9C41.5,20.8,42.5,21.7,43.5,22.5z"/>
</svg>
