<?xml version="1.0" encoding="utf-8"?>
<!-- Generator: Adobe Illustrator 23.1.1, SVG Export Plug-In . SVG Version: 6.00 Build 0)  -->
<svg version="1.1" id="Livello_1" xmlns="http://www.w3.org/2000/svg" xmlns:xlink="http://www.w3.org/1999/xlink" x="0px" y="0px"
	 viewBox="0 0 80 135" style="enable-background:new 0 0 80 135;" xml:space="preserve">
<style type="text/css">
	.st0{fill:#FFFFFF;stroke:#000000;stroke-width:0.2509;stroke-miterlimit:10;}
	.st1{fill:#646465;}
	.st2{fill:#5D5C5C;}
	.st3{fill:#5D5D5E;}
	.st4{fill:#E3E4E1;}
	.st5{fill:#DDDFDC;}
	.st6{fill:#E3E4E3;}
	.st7{fill:#555345;}
	.st8{fill:#535046;}
	.st9{fill:#524F42;}
	.st10{fill:#565549;}
	.st11{fill:#A59241;}
	.st12{fill:#F1E833;}
	.st13{fill:#F1E837;}
	.st14{fill:#EEE334;}
	.st15{fill:#F1E333;}
	.st16{fill:#F3E937;}
	.st17{fill:#C8BD48;}
	.st18{fill:#B8AC4C;}
	.st19{fill:#CCC148;}
	.st20{fill:#D4C744;}
	.st21{fill:#C9BF51;}
	.st22{fill:#D6C650;}
	.st23{fill:#E5D94A;}
	.st24{fill:#E6E047;}
	.st25{fill:#9D9045;}
	.st26{fill:#F2E333;}
	.st27{fill:#F5E935;}
	.st28{fill:#EEE634;}
	.st29{fill:#F2E833;}
	.st30{fill:#F3E938;}
	.st31{fill:#B8B446;}
	.st32{fill:#DED33B;}
	.st33{fill:#C6B557;}
	.st34{fill:#D2C655;}
	.st35{fill:#D8C949;}
	.st36{fill:#E0D749;}
	.st37{fill:#F3E932;}
	.st38{fill:#E3D443;}
	.st39{fill:#D2C347;}
	.st40{fill:#A79044;}
	.st41{fill:#F0E733;}
	.st42{fill:#EFE334;}
	.st43{fill:#EFE734;}
	.st44{fill:#F1E633;}
	.st45{fill:#CCBD42;}
	.st46{fill:#C4B842;}
	.st47{fill:#E4D43E;}
	.st48{fill:#D4C643;}
	.st49{fill:#D9C554;}
	.st50{fill:#E4D551;}
	.st51{fill:#E0CF48;}
	.st52{fill:#D4C24A;}
	.st53{fill:#ECE235;}
	.st54{fill:#E7D945;}
	.st55{fill:#E7D944;}
	.st56{fill:#685F34;}
	.st57{fill:#5C5232;}
	.st58{fill:#6B5F35;}
	.st59{fill:#70603A;}
	.st60{fill:#F4E832;}
	.st61{fill:#F4E932;}
	.st62{fill:#978437;}
	.st63{fill:#8B7F37;}
	.st64{fill:#B39A3D;}
</style>
<path class="st0" d="M71.5,135h-63c-4.7,0-8.5-3.8-8.5-8.5V8.5C0,3.8,3.8,0,8.5,0h63C76.2,0,80,3.8,80,8.5v118
	C80,131.2,76.2,135,71.5,135z"/>
<path class="st1" d="M54.4,48.3c-9.7-0.1-17.7-8-17.5-17.5c0.3-10.1,8.4-17.3,18.2-17.1c10.2,0.2,17.2,8.3,17,17.3
	C72,40.9,63.8,48.3,54.4,48.3z"/>
<path class="st2" d="M43.7,67.3c-0.1,9.3-7.6,17.2-17.8,17.2c-10,0-17.7-8.1-17.5-18c0.2-8.3,7.1-17.1,18.8-16.7
	C35.9,50.2,43.9,57.6,43.7,67.3z"/>
<path class="st3" d="M71.4,104.1c0.1,9.3-7,17.3-17.3,17.4c-9.9,0.1-17.6-7.2-17.7-17.2C36.4,94.9,44.6,87,54.2,87
	C63.9,87.1,71.4,94.6,71.4,104.1z"/>
<path class="st4" d="M38,31.1c0-9.8,7.7-16.7,17-16.5c10,0.2,16.1,8.8,15.9,16.6c-0.2,8.3-7.2,16.4-17.1,16
	C44.8,46.9,37.6,39.3,38,31.1z"/>
<path class="st5" d="M9.4,67.3c0.1-9.4,7.3-16.6,16.8-16.5c9.1,0,16.5,7.5,16.4,16.7c-0.1,8.2-6.7,16.1-16.8,16.1
	C16,83.4,9.4,75.6,9.4,67.3z"/>
<path class="st6" d="M70.4,104.2c0.2,8.6-7.1,16.5-16.4,16.4c-9.4-0.1-16.6-7.9-16.4-16.2c0.2-10.1,8-16.5,16.9-16.5
	C63.6,88,70.7,95.8,70.4,104.2z"/>
<path class="st7" d="M68.4,24.7c1.1,1.1,1.2,2.7,1.4,4.1c1.8,12.1-10.7,20.6-21.3,16.4c-7.3-3-12.5-12.1-8.2-20.8
	c2.6-5.1,6.8-8.2,12.6-8.7c5.9-0.5,10.8,1.5,14.3,6.5C67.8,23,68.7,23.6,68.4,24.7c-0.5,0.5-1.4-0.1-1.7,0.8c0,0.1,0.1,0.3,0.3,0.3
	C68,26.2,67.9,25,68.4,24.7z"/>
<path class="st8" d="M36.8,56.3c5.6,4.9,6.1,13.7,2.1,19.4c-5.6,8.1-17.2,9.2-24.2,2.3c-5.7-5.6-6-15-0.8-20.8
	c0.3-0.3,0.6-0.8,1.1-0.7c0.1,0.1,0.2,0.1,0.3,0.2c0.9,1.1,1,2.5,1.4,3.7c0.3,0.8,0.1,1.8,1.1,2.2c0.5,1.9,0.3,2.4-1.5,2.4
	c-1.5,0.4-2.8,1.1-4.2,2c1.1,1,2.4,1.3,3.6,1.7c0.6-1.1-0.3-2.6,1-3.3c1.1,2.1,1.7,4.4,1.7,6.8c-2.1,0.4-1.9,2.3-2.3,3.7
	c-0.2,0.7,0.6,0.5,1,0.4c1.2-0.3,2.3-0.5,3.5-0.9c2.5-1,2.5-1,3,1.4c0.6,1.2,1.3,2.4,1.9,3.8c0.9-1.1,1.3-2.2,1.8-3.3
	c0-0.5-0.3-0.7-0.6-0.9c-1-0.6-0.7-1.1,0.2-1.4c1.2-0.4,2.4-0.7,3.6,0c1.5,0.6,3,1.2,4.9,1.6c-0.2-1.7-0.9-3.1-1.4-4.5
	c-0.8-2.1-0.7-2.4,0.7-3.2c2,0.3,3.3-1.2,5.3-1.8c-1.6-0.8-2.9-1.5-4.3-2c-1.6,0-3-0.2-1.9-2.4c1.4-1.8,1.7-4,2.4-6
	C36.5,56.6,36.6,56.4,36.8,56.3z"/>
<path class="st8" d="M15.2,56.4c0.9-2,2.8-2.7,4.6-3.5c5.7-2.4,12.9-1,16.8,2.9c0.1,0.1,0.2,0.3,0.3,0.4c-0.1,0.1-0.1,0.1-0.2,0.2
	c-1.1,1.8-3.2,1.4-4.7,2.4c0.5,1.3,2.2,1.7,2.2,3.3c-0.3,0.9-0.9,0.6-1.3,0.2c-1.5-1.3-3.1-2.5-4.9-3.4c-0.3-0.2-0.3-0.5-0.1-0.8
	c0.7-1.6-0.6-2.7-1.2-3.9c-0.4-0.7-1-0.5-1.3,0.1c-0.7,1.3-1.6,2.6-1.4,4.2c-0.6,1-1.4,1.2-2.5,1C19.4,58.5,17.1,58,15.2,56.4
	L15.2,56.4z"/>
<path class="st9" d="M47.8,90.4c4.9-2.4,9.8-1.9,14.4,0.8c5.5,3.3,7.8,8.5,7.2,14.8c-0.7,6.3-4.4,10.5-10.2,12.7
	c-5.9,2.2-13.5,0.1-17.1-4.8c-0.9-1.4,0.9-2.5,0.6-3.8c0.2-1,0.1-1.8-0.7-2.5c-0.6-0.6-1.7-1.1-0.4-2.1c1.2-0.2,2.1,0.5,3,0.8
	c0.9,0.6,2.5,0.7,1.8,2.4c-1.4,1.2-1.6,3-2.4,4.8c2.1,0.1,3.7-0.5,5.4-1.1c1.1-0.6,2.1-1,2.9,0.4c-0.3,1.9,0.7,3.2,1.8,4.8
	c1.2-1.6,1.5-3.5,2.5-5c0.8-1.2,1.7-0.9,2.7-0.3c1,0.5,2.1,0.7,3.2,1c1.2,0.5,1.4-0.1,1.1-1.2c-0.4-1.1-1.1-1.9-1.4-3
	c0-1.1-1.3-2.6,1-3c1.5-0.5,3-0.9,4.3-1.9c-0.1-0.9-0.9-1-1.4-1.3c-1.5-0.9-2.4-0.7-2.3,1.3c0,0.6,0,1.3-0.8,1.6
	c-1.4-1.9-0.9-4.1-1.3-6.2c1.5-1.1,1.8-2.9,2.3-4.9c-1.9,0.3-3.5,0.8-4.9,1.7c-2,1.2-2-0.6-2.6-1.7c-0.7-1.5-1.7-2.8-2.5-4.4
	c-0.7,1.6-1.5,3-2.1,4.4c-0.4,2.2-0.8,2.4-2.9,1.6c-0.8-1.1-2.4-0.9-3.2-2.1c-0.1-1.3-0.3-2.5,1.6-2.7c0.7,0.2,1.2,1.1,2.2,0.5
	c-0.2-1-1.3-0.6-1.7-1.2C47.6,90.8,47.6,90.6,47.8,90.4z"/>
<path class="st10" d="M47.3,91.9c-1.2,0.3-1.3,1.3-1.4,2.3c-1.1,0.5-1.9,1-1.1,2.4c0.4,0.7,0.5,1.5,0.7,2.3c0.3,1.2,1.6,2.8-1,3.1
	c-1.4,0.5-2.5,1.5-3.8,1.8c-0.3,1.1,1.2,1.1,1,2.1c-0.4,0.3-0.6,0.6-0.1,0.9c0.3,0.2,0.7,0.3,1,0.5c-2.1,1.6-2.1,1.6,0.4,2.9
	c0.4,0.9,0.2,1.7-0.4,2.4c-0.4,0.5-0.5,0.9-0.5,1.5c-7.2-8.1-3-20.3,5.7-23.5c0,0.2,0,0.4,0.1,0.7C47.9,91.5,47.7,91.8,47.3,91.9z"
	/>
<path class="st11" d="M57.5,21.3c0.1,0.1,0.1,0.1,0.2,0.2c0.8,0.5-0.9,0.8-0.1,1.4c0.9,0.7,1.2-0.4,1.8-0.5c1.7,1,3.3,2.1,3.7,4.2
	c-0.2,0.4-0.5,0.9-0.4,1.3c0.9,2.6,0.3,5.1-0.5,7.5c-0.1,0.1,0,0.3,0,0.5c0.1,1.7-0.7,2.7-2.5,2.6c-1.1-0.6-1.8,0.6-2.7,0.8
	c-0.5,0.1,0.2,0.3,0.3,0.5c0.2,0.5,0.1,0.9-0.3,1.2c-1.6-0.5-3.3-0.2-5-0.5c-0.2-0.2-0.4-0.3-0.4-0.5c0.1-1.1,0.1-1.1-1.3-1
	c-2.4,0.1-3.2-2.2-4.7-3.3c0.5-1.1,0.7-2.1,0.4-3.4c-0.3-1.3-0.4-2.8,0.3-4.1c0.3-0.6,0-1-0.4-1.5c0.5-2.2,2.3-3.2,3.8-4.4
	c0.7,0.4,1.4,1.1,2-0.1c0.3-0.6,0.8-0.8,1.4-0.8c1,0.2,1.9,0.3,2.8,0C56.4,21.3,57,21.3,57.5,21.3z"/>
<path class="st12" d="M53.2,21.9c-0.6-0.2-1,0.1-1.5,0.3c0-2.3,1.8-3.9,2.5-6.1c1.9,1.4,2.4,3.4,3.3,5.1c-0.3,0.7-1.1,0.5-1.6,0.6
	C55,22.2,54.1,22.2,53.2,21.9z"/>
<path class="st13" d="M45.5,35.8c0.5-0.4,0.9-0.3,1.2,0.2c0.8,1.4,2.2,2.3,3.6,3.1c-1.5,1.2-4.1,1.9-6.5,1.8
	C44,39.1,45,37.5,45.5,35.8z"/>
<path class="st13" d="M45.3,28.1c0.1,1.9-0.2,3.6,0.2,5.6c-2.2-0.6-4.1-1.5-6-2.6C41.2,29.5,43.2,28.9,45.3,28.1z"/>
<path class="st13" d="M49.7,22.4c0,0.3,0,0.7-0.3,0.8c-1.5,0.9-2.4,2.4-3.6,3.6c-1-1.9-1.5-4-2-6.3C46.1,20.8,47.8,21.9,49.7,22.4z"
	/>
<path class="st14" d="M69.7,30.6c-2.2,1.4-3.9,2.2-5.9,2.9c0-1.8,0-3.5,0-5.5C65.7,28.9,67.5,29.7,69.7,30.6z"/>
<path class="st15" d="M63.1,26.6c-1.2-1.4-2.5-2.8-3.7-4.2c1.8-0.6,3.6-1.2,5.8-2C64.8,22.8,64.2,24.8,63.1,26.6z"/>
<path class="st12" d="M59.7,38.5c1.1-0.6,2.1-1.2,2.5-2.6c0.4-0.2,0.9-1.1,1.2-0.1c0.6,1.6,1.2,3.2,1.8,5.1
	c-2.3,0.1-4.1-0.8-5.9-1.4C58.6,39.2,59.6,38.8,59.7,38.5z"/>
<path class="st16" d="M52,40.6c1.5-0.9,3-0.5,4.6-0.3c0.3,0,0.3,0.5,0.4,0.8c-0.8,1.4-1.2,3-2.5,4.3C53.4,43.9,52.6,42.3,52,40.6z"
	/>
<path class="st17" d="M43.9,35.5c0,0.8-0.9,1.7-1.7,1.6c-0.4,0-1.6-1.5-1.5-2c0.2-0.7,0.7-1.2,1.5-1.3
	C42.9,33.8,43.9,34.7,43.9,35.5z"/>
<path class="st18" d="M50.3,44.2c-0.7-0.6-1.5-1.2-1.9-2c-0.3-0.4,0.4-1,1-1.1c0.8-0.2,1.3,0.4,1.7,1c0.4,0.7,0.3,1.4-0.3,1.9
	C50.6,44.1,50.4,44.2,50.3,44.2z"/>
<path class="st19" d="M68.4,24.7c0,0.2,0,0.5,0,0.7c0,0.6,0.1,1.3-0.6,1.3c-0.8,0-1.7-0.3-2.2-1.1c-0.4-0.6,0.1-1.2,0.8-1.4
	C67.2,24,67.8,24.5,68.4,24.7C68.5,24.7,68.4,24.7,68.4,24.7z"/>
<path class="st20" d="M50.7,18.7c-0.1,0.8-0.7,1.2-1.5,1.2c-0.9,0-1.3-0.6-1.3-1.4c0-0.9,0.8-1.1,1.6-1.1
	C50.2,17.5,50.7,17.9,50.7,18.7z"/>
<path class="st21" d="M44,26c-0.1,0.6-0.9,1.2-0.9,1c-0.2-1.2-2.3,0.3-1.9-1.4c0.2-0.9,0.7-1.3,1.5-1.2C43.4,24.4,43.9,25.1,44,26z"
	/>
<path class="st22" d="M59.4,41.5c0.7,0,1.3,0.4,1.3,1.1c0,0.7-0.5,1.2-1.2,1.2c-0.8,0-1.3-0.7-1.3-1.4
	C58.1,41.7,58.8,41.6,59.4,41.5z"/>
<path class="st23" d="M68.4,35.5c-0.1,0.5-0.2,1.2-0.9,1.1c-0.8-0.1-1.5-0.5-1.6-1.5c0-0.6,0.3-1,0.9-1.2
	C67.6,33.9,68.4,34.8,68.4,35.5z"/>
<path class="st24" d="M61.2,19c-0.1,0.5-0.3,0.9-0.9,0.8c-0.6,0-1.9-1.1-1.8-1.5c0.2-0.6,0.7-0.8,1.3-0.8
	C60.6,17.4,61.3,18.2,61.2,19z"/>
<path class="st25" d="M21.1,59.3c1,0,2-0.1,2.7-1c1.5-1.6,2.8-1.6,4.4,0c-0.2,0.1-0.2,0.4-0.1,0.4c2.1,0.6,3.6,1.9,5,3.4
	c0.2,0.2,0.4,0.5,0.7,0.1c0.8-0.1,0.7,0.3,0.6,0.8c-0.7,0.5-0.3,1,0,1.4c0.4,0.6,0.5-0.4,0.8-0.3c0.2,0,0.5,0.1,0.6,0.3
	c0,1.7,1,3.6-0.9,5c-0.7,0.4-0.8,1.1-0.5,1.9c0.1,0.2,0.2,0.4,0.3,0.6c-1,1.7-2.2,3.2-4.2,3.7c-1.3-1.1-2.5,0.4-3.8,0.3
	c0.4,0,0.8,0.1,1.2,0.1c1.3,0.3,0.7,0.9,0.3,1.5c-1.6-0.5-3.2-0.5-4.8-0.5c-0.7-0.4-0.2-1.1-0.4-1.7c-1-0.6-1.1,1.1-2.1,0.7
	c-0.5-0.8-1.4-1.3-2-2c-0.4-0.5-1.4-0.9-0.8-1.9c0.3-0.3,0.2-0.6,0.1-0.9c-0.9-1.5-1.3-3.2-1.2-5c0-0.3-0.2-0.6-0.4-0.8
	c-0.5-0.4-0.4-0.9-0.1-1.4c0.3,0.1,0.6,0.3,0.9,0.4c0-0.7,0.9-1.2,0.3-1.9C17.9,60.6,19.1,59.5,21.1,59.3z"/>
<path class="st12" d="M18.2,72.2c0.4,1.2,1.4,1.9,2.4,2.5c0.5,0.3,0.8,0.7,0.3,1.3c-1.8,0.6-3.6,1.1-5.7,1.3c0.2-2,1-3.8,1.8-5.4
	C17.4,70.9,17.8,71.8,18.2,72.2z"/>
<path class="st26" d="M34.4,63c-0.1-0.4-0.2-0.7-0.6-0.8c-0.9-1.2-2-2.2-3.3-3.2c1.9-1.3,4.3-1.3,6.1-2.4
	C36.5,58.9,35.8,61.1,34.4,63z"/>
<path class="st27" d="M21.1,59.3c-1.6,0.7-2.7,1.9-3.5,3.4c-0.9,0.4-0.8-0.5-1-0.8c-0.6-1.8-1-3.6-1.5-5.4c2.1,0.3,3.8,1.5,5.7,2.2
	C21.1,58.7,21.2,59,21.1,59.3z"/>
<path class="st28" d="M16.5,64.2c0,0.5,0.1,0.9,0.1,1.4c-0.3,1.3,0,2.7,0.1,4.2c-2.2-0.6-3.9-1.6-6.2-2.7
	C12.8,66,14.6,64.9,16.5,64.2z"/>
<path class="st12" d="M30.5,75.6c1.5-1.1,2.6-2.8,4.2-3.7c0.6,1.8,1.3,3.5,2,5.5C34.4,77.3,32.5,76.4,30.5,75.6z"/>
<path class="st29" d="M34.9,69.4c0.7-0.8,0.4-1.8,0.5-2.7c0.1-0.7-0.4-1.6,0.4-2.2c1.7,0.8,3.5,1.5,5.2,2.6c-2,1.3-3.9,2.1-6,2.7
	C35.1,69.8,35,69.5,34.9,69.4z"/>
<path class="st30" d="M23.3,77.1c0.1-0.2,0.1-0.6,0.2-0.6c1.4,0,2.8,0.1,4.1,0.2c0.4,0,0.4,0.6,0.5,0.9c-0.7,1.4-1.4,2.8-2.4,4.3
	C24.6,80.3,24.2,78.6,23.3,77.1z"/>
<path class="st31" d="M13.9,73.2c-0.5,0-1.6-1.4-1.6-2c0-0.8,0.6-1.1,1.2-1.2c0.8-0.2,1.7,0.8,1.7,1.6
	C15.2,72.6,14.7,73.1,13.9,73.2z"/>
<path class="st32" d="M38.5,70.4c0.7,0,1.7,0.9,1.5,1.6c-0.2,0.6-0.5,1.3-1.2,1.2c-0.9-0.1-1.5-0.7-1.5-1.6
	C37.2,70.8,37.8,70.4,38.5,70.4z"/>
<path class="st33" d="M30.9,77.7c0.8,0.1,1.1,0.6,1.1,1.4c0,0.6-0.2,1.3-0.9,1.5c-0.3,0.1-1.5-1.3-1.6-1.8
	C29.5,78.3,30.1,77.7,30.9,77.7z"/>
<path class="st34" d="M39.9,62.2c-0.1,0.5-0.5,0.7-1,0.7c-0.9,0-1.4-0.7-1.5-1.5c-0.1-0.6,0.4-0.8,0.9-0.9
	C39.1,60.3,40,61.3,39.9,62.2z"/>
<path class="st35" d="M22.4,79c0,0.5-0.2,1.1-0.5,1c-0.8-0.4-1.7-0.9-2.1-1.6c-0.3-0.5,0.6-0.8,1.1-0.9C21.9,77.5,22.3,78.2,22.4,79
	z"/>
<path class="st36" d="M13.8,60.4c0.9,0,1.7,0.8,1.5,1.7c-0.1,0.4-0.2,0.8-0.7,0.8c-0.3,0-1.9-1.5-1.9-1.8
	C12.8,60.8,13.3,60.4,13.8,60.4z"/>
<path class="st37" d="M28.2,58.3c-1.5-0.7-2.9-0.7-4.4,0c-0.4-0.1-1.1-0.1-0.8-0.6c1-1.6,1.3-3.6,2.9-5.1c1.7,1.5,2.4,3.4,2.9,5.5
	C28.8,58.1,28.4,58.2,28.2,58.3z"/>
<path class="st38" d="M22.2,54.8c-0.1,1-1.1,0.9-1.7,1c-0.7,0.2-1-0.5-1.1-1c-0.1-0.8,0.5-1.1,1.2-1.2C21.6,53.4,22,54,22.2,54.8z"
	/>
<path class="st39" d="M31.2,53.5c0.8,0,1.5,0.5,1.5,1.2c0.1,0.7-0.6,1.1-1.3,1.2c-0.9,0.1-1.2-0.7-1.3-1.4
	C30,53.9,30.6,53.6,31.2,53.5z"/>
<path class="st40" d="M44.4,101.5c0.3-0.6,0.8-0.2,1.3-0.4c0.2-0.8-1-1.2-0.8-2.1c1.7-0.5,2.2-2.9,4.3-2.8c1.6,0.2,1.6,0.2,1.9-1.4
	c1.9-0.3,3.8-0.3,5.7,0c0.3,0.2,0.3,0.5,0.4,0.8c0.2,0.9,0.4,1,1.5,0.7c2,0.2,3.1,1.3,3.4,3.4c-0.1,0.1-0.3,0.3-0.3,0.3
	c0.8,1.7,0.9,3.5,0.9,5.3c0,0.2,0.2,0.4,0.4,0.6c0.2,0.3,0.3,0.6,0,0.9c-0.4,0-0.9-0.3-1,0.5c-0.1,0.8,0.5,1.3,0.4,2
	c-1,1.5-2.2,2.8-3.7,3.7c-0.8-0.4-1.6-1.3-2.2,0.2c-2.2,1.4-3.3,1.4-4.6-0.1c-0.8-0.7-1.6-0.7-2.5,0c-1.8-1-3.6-1.9-3.8-4.3
	c0.8-0.6,0.1-1-0.2-1.3c-0.3-0.3-0.8-0.4-1.3-0.6c0-0.3,0.1-0.6,0.2-0.9c0.3-1.2,0.3-2.3,0-3.5C44.5,102.2,44.4,101.9,44.4,101.5z"
	/>
<path class="st41" d="M45.9,108.7c0.7,1.3,1.6,2.5,2.9,3.2c0.4,0.2,0.7,0.6,0.9,1.1c-1.6,0.4-3.2,0.9-4.8,1.3
	c-0.4,0.1-0.9,0.1-1.6,0.1c0.3-2,1.2-3.7,1.9-5.4C45.2,108.8,45.5,108.4,45.9,108.7z"/>
<path class="st42" d="M63.2,106.8c0-0.3,0-0.6,0-0.9c0-1.4,0-2.8,0-4.4c2.2,0.6,3.9,1.5,5.8,2.6C67.1,105.5,65.2,106.3,63.2,106.8z"
	/>
<path class="st43" d="M56.9,94.8c-1.9,0.6-3.8,0.6-5.7,0c0.9-1.7,1.5-3.5,2.7-5.2C55.2,91.3,55.9,93.2,56.9,94.8z"/>
<path class="st44" d="M62.1,99.7c-0.8-1.5-1.9-2.6-3.4-3.4c-0.2-0.2-0.1-0.4,0.1-0.5c1.8-0.6,3.6-1.2,5.7-2c-0.2,2.3-0.9,4.2-1.9,6
	C62.6,100,62.3,99.9,62.1,99.7z"/>
<path class="st12" d="M49.3,96.3c-1.2,0.6-2,1.7-2.9,2.7c-0.5,0.5-0.9,0.6-1.4,0.2c-0.5-1.6-1-3.3-1.5-4.9c1-0.6,1.7,0.2,2.4,0
	c0.7,0.6,1.7,0.7,2.5,1.1C48.9,95.5,49.3,95.7,49.3,96.3z"/>
<path class="st12" d="M52.1,113.1c1.5,1,3.1,0.3,4.6,0.1c-0.7,2-1.4,3.8-2.7,5.8c-1.4-1.7-2-3.6-2.8-5.4
	C51.1,113.1,51.7,113.1,52.1,113.1z"/>
<path class="st37" d="M58.9,113c0.5-1,2.6-3.1,3.7-3.7c0.4,1.7,1.9,3.1,1.8,5.2C62.4,114.3,60.7,113.4,58.9,113z"/>
<path class="st12" d="M44.9,106.3c-0.2,0.2-0.4,0.4-0.5,0.5c-1-0.1-1.7-1-2.7-1.1c-0.6-0.7-1.8-0.6-2.4-1.7c1.5-1.3,3.4-1.8,5.2-2.6
	c0.2,0.2,0.4,0.4,0.5,0.6c0.1,0.2,0.1,0.4,0.1,0.6c-0.2,1.1-0.1,2.2-0.1,3.4C44.9,106.1,44.9,106.2,44.9,106.3z"/>
<path class="st45" d="M43,110.1c-0.5,0-1,0.2-1.4,0.1c-1-0.2-1.4-1-1.3-2c0-0.8,0.7-1,1.4-1c0.3,0,0.6,0,1,0
	C43.3,108.1,43.8,109,43,110.1z"/>
<path class="st46" d="M49.1,116.8c-0.1-0.3-0.3-0.3-0.5-0.4c-0.4-0.1-0.7-0.3-0.7-0.7c0-0.5,0.4-0.9,0.8-1c0.8-0.3,1.4,0.1,1.8,0.7
	c0.4,0.6,0.4,1.4-0.1,2c-0.5,0.6-1.3,0.6-1.9,0.2c-0.3-0.2-0.3-0.5,0.2-0.5C48.8,117,49,117.2,49.1,116.8z"/>
<path class="st47" d="M66.8,110.2c-1-0.1-1.8-0.9-1.7-1.7c0.1-0.8,0.7-1.1,1.3-1c0.8,0.1,1.5,0.6,1.4,1.6
	C67.9,109.7,67.5,110.2,66.8,110.2z"/>
<path class="st48" d="M47.3,91.9c0.2-0.3,0.3-0.6,0.5-0.8c0.2-0.1,0.5-0.2,0.7-0.2c0.7-0.1,1.4-0.1,1.8,0.8c0.3,0.7-0.1,1.1-0.6,1.3
	c-0.8,0.3-1.7,0.6-2.1-0.6C47.5,92.2,47.4,92.1,47.3,91.9z"/>
<path class="st49" d="M60.7,92.1c0,0.5-0.2,1-0.9,1.2c-0.3,0.1-1.9-1-1.9-1.2c0.1-0.7,0.5-1.2,1.2-1.3
	C59.9,90.6,60.7,91.3,60.7,92.1z"/>
<path class="st50" d="M67.9,99.2c0,0.5-0.2,0.8-0.7,0.8c-0.7,0.1-2.1-1-2-1.7c0.1-0.6,0.6-0.8,1-0.8C67,97.4,67.9,98.3,67.9,99.2z"
	/>
<path class="st51" d="M60.2,116.9c-0.6-0.1-1.2-0.1-1.8-0.1c-0.5,0-0.8-0.5-0.8-1c0-0.5,0.4-0.7,0.8-0.8
	C59.4,114.6,60,115.2,60.2,116.9z"/>
<path class="st52" d="M42.2,97.7c0.9,0.1,1.4,0.7,1.3,1.6c0,0.7-0.5,1.4-1.2,1.1c-0.7-0.3-1.3-1.1-1.5-1.8
	C40.6,97.9,41.5,97.7,42.2,97.7z"/>
<path class="st53" d="M54.6,23.7c4.1,0,7.1,3.2,7.2,7.4c0.1,3.8-3.7,7.3-7.4,7.1c-3.9-0.2-7.4-3.4-7.4-7.3
	C46.9,27.9,49.8,23.4,54.6,23.7z"/>
<path class="st7" d="M53.2,21.9c0.9,0,1.8,0,2.7,0C55,22.5,54.1,22.5,53.2,21.9z"/>
<path class="st54" d="M18.5,66.9c-0.2-3.3,2.5-7.2,7.7-7.1c4,0.1,7.4,3.6,7.2,7.7c-0.1,3.5-2.7,7-7.6,7C22,74.6,18,70.8,18.5,66.9z"
	/>
<path class="st55" d="M61.7,104.4c-0.5,0.5-0.3,1.2-0.5,1.8c-0.8,2.9-3.4,5.1-6.3,5.4c-3,0.3-6-1.2-7.3-3.9c-1.7-3.2-1-7.2,1.7-9.2
	c3-2.2,6.8-2.4,9.8,0.5c0.4,0.4,0.8,0.7,1.3,1.1C61.6,101.3,61.7,102.8,61.7,104.4z"/>
<path class="st9" d="M61.7,104.4c-0.3-1.5-0.6-3-1.4-4.3c0.8-0.3,0.9,0.5,1.1,0.9c0.4,1.3,0.9,2.7,0.7,4.1c0,0.1,0,0.2,0,0.2
	c-0.1,0-0.1,0-0.2,0C61.8,105,61.7,104.7,61.7,104.4z"/>
<path class="st9" d="M44.9,102.5c0-0.1,0-0.2,0.1-0.4c0.6,1.4,0.7,2.8,0,4.2c0,0,0,0,0,0C44.5,105,44.6,103.7,44.9,102.5z"/>
<path class="st40" d="M44.9,102.5c0.2,1.3,0.1,2.6,0,3.9C44.3,105,44.3,103.7,44.9,102.5z"/>
<path class="st56" d="M57.4,36.3c-3,2.1-7.4,0.8-8.8-2.5c-1-2.5-0.9-4.8,1-6.9c1.9-2.1,4.2-2.7,6.9-1.8c0.1,0.2,0.1,0.4,0,0.6
	c-1.5,0.5-3.2-0.1-4.7,1.2c1.2,0.2,2.8-0.4,2.7,1.6c-0.1,1.7-1.3,2.3-2.8,2.2c-1.1,0-1.6,0.1-1.3,1.5c0.6,3.1,2.2,4.3,5.4,3.7
	c0.5-0.1,1.1-0.4,1.6-0.2c0.1,0.1,0.2,0.3,0.1,0.4C57.5,36.2,57.5,36.3,57.4,36.3z"/>
<path class="st57" d="M56.4,25.7c0-0.2,0-0.4,0.1-0.6c2.5,0.6,3.9,2.4,4.3,4.8c0.4,2.4-0.2,4.6-2.3,6.1c-0.3,0.2-0.7,0.4-1.1,0.4
	c0-0.1,0-0.2,0-0.4c0-1.2,1-2,1.5-2.9c0.6-1.2,1.1-2.3-1.1-2.2c-0.3,0,0.1,0-0.2,0c-1.4-0.3-2.8-0.8-2.7-2.5c0.1-2,1.8-1.2,2.9-1.2
	C57.2,26.8,56.6,26.4,56.4,25.7z"/>
<path class="st58" d="M19.4,67.1c0-3.6,3-6.3,6.7-6.3c3.4,0,6.3,3.1,6.3,6.5c0,3.3-3.2,6.5-6.6,6.3C22.1,73.4,19.4,70.9,19.4,67.1z"
	/>
<path class="st59" d="M54.1,98.1c3.6,0,6.2,2.6,6.2,6.1c0,3.6-2.8,6.4-6.2,6.5c-3.7,0-6.3-2.6-6.5-6.2
	C47.5,101.3,50.6,97.7,54.1,98.1z"/>
<path class="st53" d="M56.4,25.7c0.8,0.4,1.8,0.8,2.1,1.9c-0.8,0-1.5,0-2.2,0c-1.1,0-1.3,0.4-0.9,1.4c0.4,1,1.6,1.6,3,1.4
	c1.8-0.3,2.1-0.1,1.6,1.7c-0.4,1.6-1.5,2.8-2.6,3.9c-1.6,0.7-3.1,1.1-4.8,0.4c-1.6-0.7-2.7-1.6-2.5-3.5c0-0.2,0-0.5-0.1-0.7
	c-0.8-2.3-0.8-2.3,1.3-2c2.3,0.2,2.6-0.1,2.5-2.7c-1.1,0.1-2.2,0.1-3.3,0.2C51.7,25.6,53.6,25,56.4,25.7z"/>
<path class="st60" d="M20.4,66.4c0.7-0.3,1.3-0.2,2,0c2.4,0.4,2.8,0,2.7-2.7c-1.1,0-2.2,0-3.4,0c2.3-2.7,5.4-2.7,8.2,0
	c-1.2,0-2.2,0-3.2,0c0,2.7,0.7,3.3,3.3,2.9c1.2-0.2,1.6,0.1,1.4,1.2c-0.9,3.5-2.9,5.8-6.8,5c-2-0.4-3.1-2.1-3.6-4
	C20.8,67.9,20.7,67.1,20.4,66.4z"/>
<path class="st61" d="M49.1,103.4c4.1,0.1,4.1,0.1,4.3-2.5c-0.5-0.4-1.1-0.3-1.6-0.2c-0.5,0-1.1,0.2-1.7,0.3c0.7-1.4,1.4-2,3-2.1
	c1.9-0.2,3.6,0.2,5.1,2c-1.2,0-2.2,0-3.2,0c-0.2,2.3,0.6,3.1,3.1,2.8c0.9-0.1,1.2,0.1,1.2,0.9c0.1,2.1-0.8,3.7-2.6,4.8
	c-1.8,1.1-3.8,1.3-5.4,0C49.7,107.8,48.2,106,49.1,103.4z"/>
<path class="st62" d="M52,33.7c1.7-0.7,1.7-0.7,1.3-2.1c0.8-0.1,1.5,0.3,2.3-0.2c0.4,0.7-0.5,0.9-0.4,1.5c0.2,0.7,1,0.2,1.3,0.7
	C54.3,35.3,54.3,35.3,52,33.7z"/>
<path class="st63" d="M23.3,70c0.5-0.8,1.9-0.3,1.7-1.8c-0.1-0.5,1.2-0.2,1.8-0.5c0.6,0.6-0.5,1-0.2,1.4c0.2,0.4,0.9,0.2,1.2,0.7
	C26.4,70.6,25.9,70.6,23.3,70z"/>
<path class="st64" d="M55.9,107.3c-2.2,1.5-2.2,1.5-4.4-0.1c0.3-0.7,1.8-0.4,1.4-1.8c-0.2-0.7,0.6-0.5,1-0.5c0.4,0,1.2-0.1,1,0.6
	C54.5,106.6,55.6,106.6,55.9,107.3z"/>
</svg>
