<?xml version="1.0" encoding="utf-8"?>
<!-- Generator: Adobe Illustrator 23.1.1, SVG Export Plug-In . SVG Version: 6.00 Build 0)  -->
<svg version="1.1" id="Livello_1" xmlns="http://www.w3.org/2000/svg" xmlns:xlink="http://www.w3.org/1999/xlink" x="0px" y="0px"
	 viewBox="0 0 80 135" style="enable-background:new 0 0 80 135;" xml:space="preserve">
<style type="text/css">
	.st0{fill:#FFFFFF;stroke:#000000;stroke-width:0.2509;stroke-miterlimit:10;}
	.st1{fill:#5B554E;}
	.st2{fill:#8D8661;}
	.st3{fill:#8D5D4C;}
	.st4{fill:#F6EA37;}
	.st5{fill:#6D6D6F;}
	.st6{fill:#656567;}
	.st7{fill:#717072;}
	.st8{fill:#747474;}
	.st9{fill:#D5D5D2;}
	.st10{fill:#78715D;}
	.st11{fill:#F4E936;}
	.st12{fill:#6F6E64;}
	.st13{fill:#A19862;}
	.st14{fill:#B6A25B;}
	.st15{fill:#EFE142;}
	.st16{fill:#B0A255;}
	.st17{fill:#999574;}
	.st18{fill:#978F63;}
	.st19{fill:#928D82;}
	.st20{fill:#7B725F;}
	.st21{fill:#FFFFFF;}
	.st22{fill:#F7EA31;}
	.st23{fill:#F6F6F5;}
	.st24{fill:#ED4E4D;}
	.st25{fill:#FDFEFD;}
	.st26{fill:#ED4E56;}
	.st27{fill:#ED5053;}
	.st28{fill:#EAEBE7;}
	.st29{fill:#C55C5A;}
	.st30{fill:#965655;}
	.st31{fill:#D76060;}
	.st32{fill:#A3A1A1;}
	.st33{fill:#F5E937;}
	.st34{fill:#EAE6E5;}
	.st35{fill:#F2F3EF;}
	.st36{fill:#F2F2F1;}
	.st37{fill:#F3F3F3;}
	.st38{fill:#58554C;}
	.st39{fill:#505046;}
	.st40{fill:#575349;}
	.st41{fill:#5F5C51;}
	.st42{fill:#E5D837;}
	.st43{fill:#C6B43C;}
	.st44{fill:#E7DB3D;}
	.st45{fill:#E7DB40;}
	.st46{fill:#D6C951;}
	.st47{fill:#CABB51;}
	.st48{fill:#CDBE51;}
	.st49{fill:#C6B64A;}
	.st50{fill:#D0C441;}
	.st51{fill:#C6B859;}
	.st52{fill:#CEC050;}
	.st53{fill:#CCBD3F;}
	.st54{fill:#E7DC36;}
	.st55{fill:#E4D847;}
	.st56{fill:#DBD34C;}
	.st57{fill:#E2D44A;}
	.st58{fill:#E5D54B;}
	.st59{fill:#B7AD53;}
	.st60{fill:#CBB560;}
	.st61{fill:#B0A357;}
	.st62{fill:#B4A456;}
	.st63{fill:#CDB95D;}
	.st64{fill:#DBC652;}
	.st65{fill:#D6CB4A;}
	.st66{fill:#D0BD67;}
	.st67{fill:#E2D838;}
	.st68{fill:#E6DE49;}
	.st69{fill:#E2D949;}
	.st70{fill:#EAE33A;}
	.st71{fill:#C5BB59;}
	.st72{fill:#CDC64F;}
	.st73{fill:#B7A75A;}
	.st74{fill:#C7BD52;}
	.st75{fill:#DFD843;}
	.st76{fill:#B5A54B;}
	.st77{fill:#CAC356;}
	.st78{fill:#C9C256;}
	.st79{fill:#F0E739;}
	.st80{fill:#E9E051;}
	.st81{fill:#E2DA51;}
	.st82{fill:#E7DF51;}
	.st83{fill:#E5DC4D;}
	.st84{fill:#E5DF56;}
	.st85{fill:#DCD34A;}
	.st86{fill:#E8DE51;}
	.st87{fill:#D7C458;}
	.st88{fill:#DFD649;}
	.st89{fill:#DCD468;}
	.st90{fill:#E2D76B;}
	.st91{fill:#D9D64C;}
	.st92{fill:#D3D05A;}
	.st93{fill:#D9CF5F;}
</style>
<path class="st0" d="M71.5,135h-63c-4.7,0-8.5-3.8-8.5-8.5V8.5C0,3.8,3.8,0,8.5,0h63C76.2,0,80,3.8,80,8.5v118
	C80,131.2,76.2,135,71.5,135z"/>
<path class="st1" d="M62.7,52.4c-0.2,1.9,0,3.8,0,5.6c0.1,0.7,0.4,1.4-0.2,2.1c-0.3-0.4-0.5-0.4-0.8,0.2c-0.4,0.6-0.6,1.3-1.5,1.3
	c-1-1-2.1-0.8-3.3-0.3c-2,0.8-3.9,1.6-6,2.2c-2.5,1.1-2.7,1.7-1.1,3.2c0.3,0.1,0.6,0.2,0.9,0.4c0.6,2.1-1.4,2.1-2.2,2.8
	c2-0.1,3.3-1.2,3.6-3.4c2.2-0.7,4.2-2.2,6.6-2.3c0.8,1.3-0.3,2-0.9,2.9c-0.8,1.3-2.2,2-3.4,2.9c-1.5,1.3-3.2,2.1-5.1,2.8
	c-2.5,0.5-4.9,0.6-7.3-0.2c-0.7-0.2-1.4-0.4-2.1-0.1c-3.4,1.3-6.9,0.9-10.4,0.8c-0.4,0-0.7-0.2-0.9-0.6c-0.7-1.3-1.4-0.6-2,0.1
	c-2.2-0.7-3.6-2.4-5.2-3.9c-2.5-2.4-2.8-2.4-4.9,0.2c-1.3,0.8,0.1,2.3-1,3.2c-0.2,0-0.4,0-0.6-0.2c-1.2-1.5-1-3.2-0.5-4.9
	c0.2-0.7,0.6-1.4,0.4-2.3c1.3-0.6,2.7-0.7,4.2-0.9c-0.4-1.2,0.8-2.8-0.8-3.9c-0.2-0.1,0-0.7,0.1-1.1c0.2-1.6,0.1-3.2,0.1-4.7
	c0-1.2-0.7-1.7-1.6-1.7c-1.8,0.1-2.6-1.1-3.6-2.3c1.4,0.2,2.8,0,4,1c0.9,0.7,2,1.2,3.1,1.8c1,0.5,1.2,0.4,1.2-0.8
	c0-0.7-0.1-1.4,0-2.1c0.2-1.2-0.4-2-1.5-2.3C19,47.4,18.5,47,18.4,46c-0.2-0.4-0.2-0.7,0-1.1c0.2,0.1,0.3,0.1,0.5,0.2
	c0.5,0.9,1.9,0.8,2.3,1.9c0.2,0.5,0.6,0.8,1,1c2.6,3,6,5.1,9,7.6c0.3,0.3,0.7,0.2,1.1-0.1c0-0.5,0-0.9,0-1.4c0-0.4,0.1-0.8,0.6-0.8
	c0.2,0.2,0.4,0.4,0.5,0.7c0.4,2.8,0.1,5.5,0.2,8.3c0,0.2,0,0.5,0,0.7c-0.1,1.2,0.1,2.3,0.4,3.5c0.3,1.4,1.1,2.4,2.5,2.3
	c1.7-0.1,3.3,1.9,5.1,0.3c0.1-0.1,0.3-0.1,0.4-0.2c4.2-0.8,4.5-1.3,4.6-5.6c0-2,0-4.1,0-6.1c0-0.3,0-0.6,0-0.8
	c0.1-1.1-0.2-2.3,0.7-3.3c1,0.2,0.2,1.1,0.8,1.7c2.7-1.2,4.8-3.4,6.9-5.4c2.1-2,4.5-3.6,6.9-5.3c-0.4,1.2-0.7,2.5-2.2,2.9
	c-0.9,0.2-1.3,0.9-1.3,1.8c0,1.4-0.1,2.8-0.5,4.4c1.7-0.5,2.9-1.3,4.3-1.9C63.1,51.3,62.9,51.8,62.7,52.4z"/>
<path class="st2" d="M49.6,72.1c1.6-0.6,3.1-1.4,4.4-2.5c0.4,0.3,1,0.4,1.4,0.8c0.1,0.2,0.2,0.4,0.1,0.6c-1.5,2.4-4.1,3.5-6.2,5.2
	c-0.7,0.5-2.3,0.6-1.5,2.2c0.8,1.5,2,1.2,3.2,0.4c2.7-1.9,5.4-3.7,7.8-5.9c1-0.9,1.8-2.1,3.4-1.8c-0.4,1.3-1.9,1.9-2.1,3.4
	c0,0.2-0.3,0.5-0.4,0.5c-1.7-0.2-2.4,0.9-3.1,2.1c-0.1,0.2-0.3,0.5-0.5,0.5c-2.7,0.3-4.4,2.7-6.7,3.7c-1.1,0.5-1,1.5-1.2,2.4
	c-0.4,1.9-0.6,2.1-2.4,2.4c-3.6,0.5-7.1,0.6-10.7,0.3c-1.6-0.2-2.5-0.8-2.7-2.4c-0.2-1.6-1.1-2.5-2.5-3.2c-1.2-0.5-2.4-1.3-3.4-2.2
	c-0.7-0.5-1.4-1.1-2.3-1c-2.2,0.5-1.8-0.8-1.5-2.1c1-0.6,1.6,0.1,2.3,0.6c1.5,1,3,2.1,4.6,3c2.3,1.2,2.6,1.2,5.6,0
	c-1.4-1.2-3-1.9-4.4-2.8c-1.6-1-3.7-1.5-4.2-3.7c0.2-0.2,0.1-0.4,0-0.6c-0.1-0.2-0.2-0.4-0.3-0.6c2.3-0.2,2.3-0.2,2.7,1.9
	c3.1,1.3,5.8,3.4,8.8,4.7c0.7,0.3,1,1,1.1,1.8c0,0.9,0.4,1.4,1.3,1.3c0.9-0.1,2-0.1,2-1.2c0.1-1.8,1.4-2.4,2.6-3.1
	c1-0.6,1.9-1.2,2.9-1.7C49.2,74.3,49.8,73.4,49.6,72.1z"/>
<path class="st3" d="M47.3,53.2c0,1.1,0,2.3-0.1,3.4c-1.3-2.3-3.2-2.8-5.6-2.2c-0.1,0.4,0.1,0.9,0.1,1.4c0.1,1.3,0.2,2.9,0.8,3.9
	c0.6,1,2.4-0.2,3.4,0.9c0.8-1.3-0.3-2.9,1.3-3.6c0,2.3,0,4.5,0,6.8c-1.5,0.8-2.6-0.3-3.8-0.8c-0.3-1.2,0.6-1,1.2-1
	c-1.1-0.6-1.8,0.3-2.7,0.9c-1,0.7-1.7,0.8-1.7-0.8c0-1.7,0.2-3.5-0.2-5c0.2,1.5,0.1,3.2,0.2,4.9c0.1,1.5-0.6,2.1-1.8,1.1
	c-1.2-1-2.4-1.1-3.8-1c-0.4-0.1-0.6-0.4-0.6-0.8c1-1.6,2.4-1.6,3.9-1c-0.1-1,0-1.9,0.2-2.8c0.5-3.2,0.5-3.2-2.6-3.2
	c-0.9,0-1.9,0.2-2.7-0.5c0-0.2,0-0.3-0.1-0.5c0.7-0.1,1.4-0.2,2.3-0.3c-0.6-1.5-1.2-2.9-1.8-4.4c1.1-0.8,2.5-0.8,3.7-1.2
	c0.6-0.2,1.1,1.3,2,0c0.5-0.7,1.7,0.3,2.4,0.1c1.8-0.6,3.4,0.5,5.2,0.5c-0.3,1.7-0.8,3.1-1.5,4.5C45.8,53.4,46.6,53,47.3,53.2z"/>
<path class="st4" d="M62.4,70.9c-1.4,0.5-2.4,1.6-3.4,2.5c-3,2.7-6.3,5-9.8,7c-0.6-0.2-0.7-0.8-1-1.1c-1.9-2-1.9-2,0.6-3.5
	c2.5-1.5,4.8-3.1,6.8-5.2c1.9-2.5,4.4-4.5,6.5-6.8c0.8-0.9,1.9-0.9,3.1-0.4l0,0c0.4,0.4,1,0.7,1.5,1l0,0c1,0.7,1.4,1.4,0.3,2.3
	c-1.3,1.1-2.4,2.4-3.7,3.6C62.8,70.4,62.6,70.7,62.4,70.9z"/>
<path class="st5" d="M35.4,26.1c0.2,5.9-5,12.7-13,12.7c-8.2-0.1-12.7-6.4-12.7-12.3c0-7.7,5.6-13.1,13.2-13.1
	C29.6,13.4,35.5,18.4,35.4,26.1z"/>
<path class="st6" d="M22.6,96.3c5.9-0.1,12.7,4.7,12.5,13c-0.2,6.5-5.3,12.5-13.2,12.5c-7.4-0.1-12.6-5.9-12.5-12.7
	C9.5,101.8,15.2,96.3,22.6,96.3z"/>
<path class="st7" d="M57.3,121.5c-6.8,0-12.4-5.6-12.4-12.5c0-6.9,6.2-13,13.1-12.8c6.3,0.1,12.5,4.7,12.5,12.8
	C70.6,117.1,63.3,121.6,57.3,121.5z"/>
<path class="st8" d="M70.9,26c0,6.8-5.6,12.5-12.7,12.6c-6.8,0.2-12.9-5.4-12.8-12.7c0.1-6.8,6-12.6,13-12.6
	C64.8,13.3,71,18.3,70.9,26z"/>
<path class="st9" d="M22.8,75.3c0.1,0.4,0.4,0.7,0.4,1.1c-0.2,1,0.5,0.9,1.1,1c-0.7,0.9-1.5,1.7-2.5,2.3c-0.5,0.3-0.8,0.7-0.8,1.3
	c-1.7,0.5-2.6,2-4,3c-0.6,0.4-1.1,0.9-1.7,1.3c-0.4,0.3-1,0.3-1.3,0c-0.5-0.5,0-0.9,0.3-1.2c0.5-0.5,1.1-0.9,1.4-1.6
	c0.6-0.7,1.5-1.1,2.2-1.8c1-1,0.6-1.9,0-2.8c-0.7-1.1-1.4-0.1-2,0.1c-0.8,0.3-1.4,1.1-2.3,1.2c-0.8,0.4-1.7,0.9-2.5,1.3
	c-0.4,0.2-0.8,0.1-1-0.3c-0.2-0.4-0.1-0.8,0.3-1c0.8-0.5,1.6-1,2.4-1.5c1.2-0.7,2.5-1.3,3.9-2.1c-0.2-1.2-1.6-2.3-1-3.7
	c-0.1-0.5-0.1-1-0.2-1.4c-0.4-0.9,0-1.5,0.8-1.9c1.3,0.6,2.1,1.7,2.8,2.9c0.3,0.4,0.7,0.7,1.1,1c0.2,0.1,0.3,0.3,0.4,0.5
	c0.3,1.2,1.6,1.3,2.3,1.9C22.7,75.2,22.8,75.3,22.8,75.3z"/>
<path class="st10" d="M17,84c0.4-1.7,1.8-2.4,3-3.3c0.3-0.3,0.6,0.3,1,0.4c1.3,2,3.1,3.4,5.3,4.3c0.8,0.3,1.8,0.9,2.6-0.2
	c0.3-0.4,0.9-0.4,1.2,0.1c0.4,0.7-0.2,1-0.8,1.2c-1.5,0.5-3,0.6-4.5,0.7c-0.9,0-1.5,0.2-1.1,1.4c0.3,1.1,0.3,2.4,0.4,3.5
	c0,0.6-0.3,1.1-1,1c-0.5-0.1-0.9-0.6-0.7-1.1c0.9-2-0.4-3.1-1.5-4.3C19.5,86.5,18.2,85.3,17,84z"/>
<path class="st11" d="M14.8,64.8c0.4,0.1,1.4-0.3,0.9,0.7c-1.3,2.1-1.1,4.2-0.5,6.4c0.5,0.7,0.6,1.6,1,2.4c0.4,0.8,0.4,1.7-0.5,2
	c-0.9,0.3-1.8,2-3,0.4c-0.2-0.3-0.3-0.7-0.5-1c-0.8-1.8-1.2-3.8-1.3-5.8C10.8,67,11.8,65.7,14.8,64.8z"/>
<path class="st12" d="M61.7,85.4c-0.9,0.8-1.7,1.6-2.6,2.5c-1,0.9-1.9,1.7-0.9,3.2c0.4,0.6-0.2,1.1-0.8,1.2c-0.5,0.1-1.2-0.2-1-0.7
	c0.5-1.5-1.2-2.9,0.2-4.5c-1.7-0.3-3.1-0.5-4.5-0.8c-0.6-0.1-1.1-0.4-1-1.1c0.1-0.7,0.8-1,1.3-0.7c2.6,1.4,4.2-0.3,5.9-1.7
	c0.4,0.1-0.2,1.2,1,0.8C59.9,83.4,61.3,84.2,61.7,85.4z"/>
<path class="st2" d="M63,70.2c0.8-2,2.5-3.3,4.1-4.7c-0.2-0.4-0.4-0.8-0.7-1.2c2.6,0.6,3,2.7,3,4.8c0.1,2.4-0.6,4.7-1.4,7
	c-0.4,1.2-1.1,1.4-2.2,1.2l0,0c-0.6-1.1-2-0.9-2.7-1.9c0.4-0.8,0.9-1.6,1.3-2.4c0.3,0.3,0.4,0.7,0.4,1.1c0,0.6,0.3,1.1,1,1.1
	c0.7,0,0.9-0.5,1.2-1c1.1-2.1,0.9-2.7-1.7-3.7c-0.2-0.4-0.3-0.9-0.5-1.3C64.2,69.2,63.9,70.3,63,70.2z"/>
<path class="st13" d="M61.8,81.2c-0.9-0.9-1.2-1.8-0.1-2.8c0.3-0.3,0.6-0.7,0.8-1.2c0.3-0.9,0.7-1.1,1.5-0.6c0.6,0.3,1.2,0.7,2,0.7
	c0,0,0,0,0,0c0.6,0.4,1.1,0.8,1.9,1.3c-1.4,0.4-2,1.6-2.6,2.7c-0.9,1.4-0.9,1.4-2.5,0.4c-0.2-0.1-0.4-0.2-0.7-0.3
	C62,81.3,61.9,81.2,61.8,81.2z"/>
<path class="st14" d="M13.5,79.3c1-1.5,2.6-1.9,4-2.8c0.7,0.2,0.6,0.9,0.8,1.4c1.3,2.1,1.3,2.2-0.7,3.7c-0.6,0.5-1.2,1.1-2.1,0.9
	C15.2,81.2,14.2,80.3,13.5,79.3z"/>
<path class="st15" d="M65.5,70.6c0.3,0,0.6-0.2,0.9-0.1c2.4,0.2,2.6,0.6,1.7,3c-0.2,0.4-0.4,0.9-0.6,1.3c-0.6,1.5-2,1.8-3,0.6
	c-0.5-0.7,0.2-1.5,0-2.3c0.1-0.3,0.3-0.7,0.4-1C65.5,71.6,65.1,71,65.5,70.6L65.5,70.6z"/>
<path class="st16" d="M61.8,81.2c0.1,0,0.2,0.1,0.2,0.2c0,0.1,0,0.2,0.1,0.2c1.6,2,1.6,2-0.4,3.8c-1.2,0-1.8-1.5-3.2-1.4
	c-0.3,0-0.2-0.8-0.2-1.2c0.2-0.2,0.4-0.5,0.5-0.7C59.5,80.7,60.6,80.6,61.8,81.2z"/>
<path class="st17" d="M32.3,55.5c0,0.7-0.1,1.1-0.9,0.8c-0.9-0.3-1.5-1.1-2.3-1.7c-1.9-1.5-3.7-3.1-5.7-4.5c-0.6-0.4-1.6-0.9-1.1-2
	c2.2,1,3.8,2.8,5.6,4.2C29.3,53.4,30.6,54.8,32.3,55.5z"/>
<path class="st18" d="M65.1,63.3c-1.5-0.2-2.4,0.5-3.4,1.6c-1.9,2-3.6,4.4-6.2,5.7c-0.1-0.1-0.1-0.1-0.2-0.2
	c0.2-1.4,1.4-2.1,2.3-2.9c2.2-2.1,3.9-4.4,4.6-7.5c0.7-0.5,0.3-1.4,0.5-2c0.5,0.7,0.4,1.5,0.3,2.3c-0.3,1.9-0.3,1.9,1.6,2.6
	C64.9,62.9,65,63.1,65.1,63.3z"/>
<path class="st19" d="M62.7,52.4c-0.1-0.4-0.1-0.8-0.5-1c1.4-1,2.5-2.8,4.8-2.2c-0.4,1.2-1.1,2.1-2.4,2.3
	C63.8,51.5,63.3,52,62.7,52.4z"/>
<path class="st20" d="M12.8,76.4c0.7,1.3,1.4,0.2,2.1,0c0.8-0.2,1.2-0.7,1-1.6c-0.2-0.9-0.8-1.8-0.7-2.8c0.1,0,0.2,0,0.4,0
	c0.8,1.1,0.7,2.8,2.4,3.6c-1.5,0.8-2.9,1.5-4.2,2.2c-0.3,0.2-0.7,0.4-1-0.1c0.1-0.1,0.1-0.3,0.1-0.4C12.5,77,12.4,76.6,12.8,76.4z"
	/>
<path class="st17" d="M21.3,47c-0.8-0.6-2.3-0.4-2.3-1.9C20.1,45.3,21.3,45.5,21.3,47z"/>
<path class="st17" d="M18.5,45c0,0.4,0,0.7,0,1.1c-0.2-0.3-0.6-0.6-0.6-0.9C17.8,44.5,18.1,44.6,18.5,45z"/>
<path class="st2" d="M66.5,64.3c-0.7-0.1-1.3-0.2-1.5-1C65.8,63.3,66.1,63.8,66.5,64.3z"/>
<path class="st9" d="M12.8,76.4c0,0.3,0,0.6-0.1,0.9c-0.5-0.4-0.5-1-0.5-1.6C12.4,75.9,12.6,76.1,12.8,76.4z"/>
<path class="st2" d="M65.5,70.5c0.1,0.6,0,1.1-0.5,1.5C65,71.5,64.8,70.9,65.5,70.5z"/>
<path class="st21" d="M49.6,72.1c1.4,1.5,1.4,1.6-0.2,2.6c-1.4,0.9-2.9,1.7-4.3,2.5c-2.3,1.3-2.3,1.3-1.9,4
	c-1.2,0.1-2.3,0.3-3.5,0.4c-1,0.1-1.6-0.2-1.2-1.4c0.4-1.2-0.3-1.7-1.3-2.1c-2.5-0.9-4.6-2.5-6.9-3.8c-0.5-0.3-0.8-0.8-1.2-1.1
	c0.9-0.9,2.1-0.9,3.1-0.6c2.4,0.6,4.6,0.1,6.8-0.6c1-0.4,2-0.4,3,0C44.6,72.7,47.1,72.7,49.6,72.1z"/>
<path class="st22" d="M18.6,71.9c-0.8-1.1-1.9-1.9-2.6-3.2c0.2-0.2,0.3-0.3,0.5-0.5c1.8-2.6,2.4-2.6,4.7-0.3
	c1.7,1.7,3.4,3.3,5.5,4.6c2.4,2.5,5.7,3.8,8.6,5.5c0.4,0.2,0.9,0.4,1.1,0.9c-1.7,1.6-4.3,2-6.3,1c-1.9-1-3.6-2.3-5.4-3.5
	c-0.6-0.4-1.1-1-1.9-0.9c0,0,0,0,0,0c-1-0.8-2.3-1.2-2.9-2.4l0,0C19.5,72.6,18.9,72.5,18.6,71.9z"/>
<path class="st23" d="M26.6,67.4c-1.2-0.4-2.4-0.8-3.8-1.8c0.6,2.2,2.1,3.3,3.2,4.8c-0.6,0.4-1,0.2-1.4-0.1
	c-1.2-1.1-2.3-2.2-3.4-3.3c-1-1.1-1.7-4.2-1.2-5.5c0.5-1.3,0.9-1.5,2.3-1.1c3,0.9,5.7,2.4,8.7,3.2c1.5,0.4,1.4,0.5,1.4,2.4
	c-0.3-0.1-0.6-0.2-0.9-0.3c-0.3-0.1-0.5,0-0.4,0.4c0.3,0.4,1,0.6,0.9,1.3c-0.5,0.2-1,0-1.4,0.3l-0.2,0L30,67.6
	C28.8,68.5,27.7,68.5,26.6,67.4z"/>
<path class="st24" d="M33,53.8c2.1,0,4.3-0.2,6.4,0.1c0.1,2.6-1.4,5-0.5,7.8c-1.5-1.9-3.1-1.3-4.6-0.3c-0.3,0.6,0.2,2-1.4,1.3
	C33,59.8,33,56.8,33,53.8z"/>
<path class="st25" d="M50.6,67.2c-0.3-0.1-0.6-0.1-0.9-0.2c-1.2-1.7,0.1-2.9,0.9-4.2c2.6-1.1,5.1-2.3,7.9-2.9
	c1.5-0.3,1.6-0.2,1.5,1.6c0.1,0.3,0.1,0.6-0.1,0.9c-0.2,0.4-0.4,0.9-0.6,1.4c-0.2,0.3-0.4,0.4-0.7,0.5c-2.2,1-4.3,2.3-6.8,2.6
	C51.6,67.3,51.2,67.5,50.6,67.2z"/>
<path class="st26" d="M47.2,57.1c-0.8,1.4-0.1,3-0.6,4.6c-1.5-0.9-3.1-1.7-5-0.3c0.4-1.5-0.1-2.6-0.3-3.7c-0.2-1.2-0.3-2.4-0.4-3.5
	c0.7-0.6,1.4-0.3,2.1-0.3c1.1,0,2.3-0.2,3.3,0.2c1.2,0.4,0.1,2,0.9,2.7C47.2,56.8,47.2,56.9,47.2,57.1z"/>
<path class="st24" d="M41.5,69.6c-0.5,0.8-0.9,1.4-2,0.7c-1-0.7-2.2-0.8-3.4-0.8c-1.5,0-2.4-0.7-2.7-2.2c-0.3-1.3-0.6-2.6-0.5-4
	c0.4-0.2,0.9-0.3,1.4-0.4c3.1-0.9,4.6,0.2,5.2,3.4c0.2,1.2,0.1,2.6,1.8,2.9C41.4,69.4,41.5,69.5,41.5,69.6z"/>
<path class="st27" d="M43.3,62.8c1.5-0.2,2.6,1,4,1.1c-0.1,4.8-0.9,5.7-5.7,5.8c0,0,0,0,0,0c-0.5-0.5-0.6-1.2-0.8-1.8
	c0-0.2,0-0.5,0-0.7c0.2-1.6,0.2-3.3,1.9-4.2C42.8,62.7,43.1,62.7,43.3,62.8z"/>
<path class="st28" d="M58.8,64.3c0.1-0.2,0.2-0.4,0.5-0.5c0.5-0.4,0.1-1.2,0.5-1.6c0.1-0.2,0.2-0.4,0.4-0.6c0.6-0.8,1.2-1.7,1.8-2.6
	c0.1,0.4,0.2,0.7,0.2,1c0.3,2.8-0.9,4.8-3,6.6c-1.4,1.2-2.6,2.5-3.9,3.8c-0.7,0.2-1.4,0.4-1.3-0.8C56.2,68.4,58.1,66.9,58.8,64.3z"
	/>
<path class="st29" d="M26.6,67.4c1.1,0.1,2.3,0.2,3.4,0.2c0.3,0.7,0.8,0.9,1.5,1c1,0.3,1.7,1.1,2.7,1.8c-1.5,0.7-2.5,1.3-4.2,0.4
	c-1.2-0.7-2.8-0.7-3.8-2C25.5,68.1,26.1,67.8,26.6,67.4z"/>
<path class="st30" d="M41.1,67.6c0.7,0.6,0.4,1.3,0.4,2c-2.2,0-2.2,0-2.5-2.2c0-0.1,0-0.2,0-0.2c-0.6-3.8-0.9-4.1-4.9-3.4
	c-0.4,0.1-0.8-0.1-1.1-0.3c0-0.2,0-0.4,0-0.7c1,0.1,0.7-1.1,1.4-1.3c0.2,0.2,0.3,0.3,0.5,0.5c1.2,0.6,2.7-0.1,3.7,1.1
	c0.8,0.8,1.4,1.6,1.7,2.8C40.3,66.4,39.9,67.4,41.1,67.6z"/>
<path class="st31" d="M50.6,67.2c0.5-0.1,0.8-0.5,1.4-0.4c0.5,0.5,1.5,1.2,0.1,1.7c-0.8,0.3-0.5,1.6-1.3,1.5
	c-1.4-0.2-2.7,0.8-4.3,0.4c0.3-0.6,0.5-1,1.3-1.1C49.1,69.2,50.4,68.8,50.6,67.2z"/>
<path class="st32" d="M50.7,62.9c0,1.5-1.2,2.7-0.9,4.2c-0.6,0.1-1.4,0.2-1.5-0.7c-0.1-1-0.4-2.1,0.7-2.8
	C49.5,63.3,50.1,63.2,50.7,62.9z"/>
<path class="st29" d="M30.9,66c-0.3,0-0.5-0.3-0.6-0.6c0.4-0.1,0.7-0.2,1,0.2C31.1,65.8,31,65.9,30.9,66z"/>
<path class="st29" d="M30.4,67.6c0.4-0.3,0.9-0.4,1.4-0.3C31.4,67.8,30.9,67.7,30.4,67.6z"/>
<path class="st33" d="M40.3,82.1c1.6-0.1,2.6-0.1,3.6-0.2c0.6-0.1,1.2-0.2,1.5,0.4c0.3,0.6-0.2,1-0.7,1.3c-0.5,0.3-0.8,0.7-0.9,1.3
	c-0.1,0.3-0.3,0.6-0.7,0.6c-2.1-0.1-4.3,0.4-6.4-0.4c-1-0.4-1.1-0.9-1-1.8c0.1-1,0.7-1.1,1.4-1.1C38.5,82.1,39.6,82.1,40.3,82.1z"/>
<path class="st34" d="M41.1,67.6c-0.3,0.4,0.1,1.2-0.8,1.4c-0.4-1-0.5-2.1-0.6-3.1c-0.4-2.2-1.6-3.2-3.9-3.2c-0.5,0-1.5,0.5-0.9-0.8
	c2-1.2,3.4-0.2,4.9,1.5c0.7-1.6-0.4-2.8-0.1-4.1c0.3-1.2,0.1-2.5,0.8-3.9c0.6,2.7,1.1,5.1,0.3,7.7c1.3-0.6,1.8-2.2,3.4-2
	c0.7,0.1,1.5,0.1,1.7,1C45,62.8,44,62,43.3,62.8c0,0-0.1,0-0.1,0L43,62.9c-2.1,0.8-1.6,2.8-1.9,4.4C41,67.4,41,67.5,41.1,67.6z"/>
<path class="st35" d="M34.5,26.1c0,6.8-5.6,11.8-12.3,11.7c-6.6-0.1-11.5-5.5-11.4-12c0.1-6.6,6.1-11.8,12.5-11.6
	C29.7,14.6,34.6,19.6,34.5,26.1z"/>
<path class="st36" d="M22.3,97.3c5.2-0.5,12,4.2,11.9,11.7c-0.1,6.3-5.4,11.8-11.7,11.9c-6.8,0.1-12.1-5-12.1-11.8
	C10.4,101.8,16.8,97,22.3,97.3z"/>
<path class="st37" d="M57.4,120.5c-5,0.3-11.4-3.6-11.5-11.5c-0.1-6.5,5.9-12.1,12.1-12c5.9,0.1,11.7,5,11.7,11.7
	C69.7,115.4,63.5,120.9,57.4,120.5z"/>
<path class="st36" d="M70,25.9C70,32.5,64.5,37.7,58,37.7c-7.6,0-11.9-6.2-11.8-11.8c0.2-6.5,5.9-12,12.6-11.7
	C63.8,14.3,70.1,18.3,70,25.9z"/>
<path class="st1" d="M19.9,72.9c1.2,0.6,2.2,1.4,2.9,2.4c-0.4-0.2-0.9-0.5-1.3-0.4C19.9,75,20,73.9,19.9,72.9z"/>
<path class="st1" d="M18.6,71.9c0.6,0.2,1,0.5,1.3,1C19.3,72.9,18.9,72.5,18.6,71.9z"/>
<path class="st1" d="M59.8,62.2c-0.2,0.5,0,1.2-0.5,1.6C59.2,63.2,59.4,62.7,59.8,62.2z"/>
<path class="st30" d="M41.1,67.2c0-0.8-0.2-1.7-0.1-2.5c0.2-1,0.7-1.9,2-1.9C41.4,63.9,41.8,65.8,41.1,67.2z"/>
<path class="st38" d="M22.2,36.6c-5.7-0.1-10.5-4.7-10.3-10.4c0.1-5.2,4-10.9,11.6-10.8c4.6,0.1,10.1,4.3,9.9,10.9
	C33.2,32,28.6,36.9,22.2,36.6z"/>
<path class="st39" d="M33,109.2c0,5.7-4.9,10.4-10.9,10.4c-4.5,0-10.6-3.3-10.6-10.6c0-5.7,5-10.6,11-10.6
	C28.1,98.4,33.2,103.1,33,109.2z"/>
<path class="st40" d="M62.2,99.3c3.6,1,5.3,3.7,6.1,7c1,4.1-0.2,7.8-3.5,10.5c-3.5,2.9-7.6,3.5-11.6,1.4c-4.9-2.5-6.3-6.2-5.8-11
	c0.4-4,4.1-8,8.1-8.7C57.8,98,60.1,97.7,62.2,99.3c-0.2,0.3-0.7,0.8-0.5,0.9c0.4,0.3,0.2-0.3,0.3-0.5C62,99.6,62.1,99.4,62.2,99.3z"
	/>
<path class="st41" d="M68.9,26c0,5.9-4.8,10.5-11,10.5c-5.9,0-10.5-4.8-10.5-10.7c0.1-5.4,4.9-10.6,11.2-10.5
	C63.3,15.3,69.1,19.4,68.9,26z"/>
<path class="st42" d="M26.2,27c0,0.1,0,0.2-0.1,0.3c-0.1,1.2-0.8,1.7-1.9,1.9c-1.5,1.2-2.9,0.1-4.4,0c-0.2,0-0.3-0.1-0.3-0.3
	c-0.1-0.8-0.4-1.5-1-2.1l0,0c-0.3-1,0.9-2,0.3-2.7c-0.6-0.7-1-1.3-1.5-2c-0.5-0.8-1-1.6-1.4-2.8c1.4,0.6,2.4,1.1,3.3,1.8
	c0.8,0.6,1.7,1,0.5,2.1c0.4-0.2,0.8-0.4,1.2-0.7c1-0.4,1.9-0.3,2.9-0.1c0.6,0,1,0.3,1.3,0.6c-0.7,1.2,0,1.6,1,1.8l0,0
	C26.5,25.6,26.4,26.3,26.2,27z"/>
<path class="st43" d="M26.2,24.9c-0.9,0.1-1.8,0.9-2.6-0.2c0.1-0.9,1.1-1,1.6-1.6c0-0.5-0.2-1,0.3-1.4c1.3-1,2.5-2.2,4.5-2.7
	C29.1,21.5,27.7,23.3,26.2,24.9z"/>
<path class="st43" d="M24.2,29.3c0.6-0.6,1.3-1.3,1.9-1.9c1.7,1.4,2.7,3.4,4.2,5.7C27.6,32.1,26.1,30.5,24.2,29.3z"/>
<path class="st43" d="M24.4,21.5c-3.4,0.2-3.5,0.1-2.5-2.8c0.2-0.7,0.4-1.5,1.1-2.2C24,18.1,24.1,19.8,24.4,21.5z"/>
<path class="st44" d="M22.7,36c-0.7-1.8-0.8-3.2-1-4.6c-0.1-0.4-0.1-0.8,0.3-1c0.6-0.3,1.3-0.2,1.9,0c0.5,0.1,0.4,0.7,0.3,1
	C23.7,32.8,23.5,34.3,22.7,36z"/>
<path class="st45" d="M19.5,29c0.1,0.1,0.2,0.2,0.3,0.3c0.3,0.3,0.6,0.5,1.1,0.9c-1.6,0.9-3,1.7-4.8,2.8c0.4-2,1.4-3.1,2.2-4.3
	C18.7,28.1,19.1,28.8,19.5,29z"/>
<path class="st43" d="M32.2,26.1c-1.3,0.4-2.7,0.7-4,1.1c-0.6,0.1-1.2,0.1-1.2-0.7c0-0.6-0.2-1.6,0.9-1.6c1.4,0.1,2.9,0.4,4.3,0.7
	C32.2,25.8,32.2,26,32.2,26.1z"/>
<path class="st42" d="M18.5,26.9c-1.8,0.9-3.4-0.4-5.3-0.5c0.9-0.8,1.6-0.8,2.3-1C17.8,24.8,17.8,24.8,18.5,26.9
	C18.5,26.9,18.5,26.9,18.5,26.9z"/>
<path class="st46" d="M15.8,22.3c-0.1,0.6-0.3,1.1-1,1.1c-0.8,0-1.2-0.5-1.2-1.2c0-0.6,0.2-1.1,1-1.1C15.4,21.1,15.7,21.6,15.8,22.3
	z"/>
<path class="st47" d="M19.5,32.9c0.7,0.1,1.3,0.2,1.4,1.1c0,0.7-0.4,1-1,1.1c-0.6,0.1-1.4-0.7-1.3-1.3
	C18.7,33.4,18.9,32.9,19.5,32.9z"/>
<path class="st48" d="M27.5,17.8c0,0.9-0.5,1.2-1.2,1.3c-0.7,0.1-1-0.4-1.1-1c-0.1-0.7,0.3-1,0.9-1.2C26.9,16.7,27.4,17.1,27.5,17.8
	z"/>
<path class="st49" d="M31.8,22.3c-0.1,0.7-0.4,1.1-1,1.2c-0.9,0.2-1-0.5-1.2-1.1c-0.2-0.7,0.2-1.1,0.8-1.1
	C31.2,21.2,31.5,21.8,31.8,22.3z"/>
<path class="st50" d="M30.7,30c-0.5,0-1-0.2-1-0.8c0-0.8,0.5-1.1,1.2-1.2c0.5-0.1,0.9,0.3,1,0.8C32,29.7,31.2,29.8,30.7,30z"/>
<path class="st51" d="M14.9,30.5c-0.5-0.3-1.3-0.3-1.6-0.9c-0.2-0.6,0.3-1,0.9-1.1c0.7-0.1,1.2,0.3,1.4,1
	C15.7,29.9,15.5,30.3,14.9,30.5z"/>
<path class="st52" d="M19.8,19.1c-0.5-0.3-1.5-0.1-1.5-1.1c0-0.5,0.4-0.9,0.9-0.9c0.7,0,1.3,0.3,1.4,1C20.7,18.5,20.5,19,19.8,19.1z
	"/>
<path class="st53" d="M26.6,32.3c0.5,0.1,0.9,0.4,0.8,1c0,0.4-0.3,0.8-0.8,0.7c-0.5-0.1-1.2-0.2-1.1-0.9
	C25.6,32.6,26.1,32.3,26.6,32.3z"/>
<path class="st43" d="M23.8,22.5c-1,0-1.9,0.1-2.9,0.1C21.9,21.9,22.8,21.8,23.8,22.5z"/>
<path class="st43" d="M26.2,27c0-0.7,0-1.4,0-2.1C26.8,25.6,26.9,26.3,26.2,27z"/>
<path class="st54" d="M25.2,106c0,0.2-0.2,0.6-0.1,0.7c1.6,1.5,1.3,3,0,5c0.8-0.2,1.3-1.1,1.7-0.4c0.8,1.4,2.1,2.5,2.6,4.4
	c-1.8-0.6-3.1-1.5-4.3-2.7c-0.6-0.6-1-0.9-1.8-0.4c-1.2,0.7-2.3-0.1-3.4-0.3l0,0c-0.4-0.8-1.3-1.3-1.5-2.4c-0.2-1.5,0.1-2.9,1.3-3.8
	c1.2-0.9,2.5-1.3,4-0.7C24.2,105.6,24.7,105.9,25.2,106L25.2,106z"/>
<path class="st54" d="M25.2,106.1c-0.1-0.6-0.6-1.3,0.4-1.8c1.2-0.6,2.2-1.7,4-2c-0.7,1.8-1.7,3.1-2.7,4.4
	C26.3,107.5,25.9,106,25.2,106.1C25.2,106,25.2,106.1,25.2,106.1z"/>
<path class="st55" d="M24,104.5c-1,0.3-2,0.1-2.9-0.1c0.2-1.7,0.7-3.3,1.5-4.9C23.6,101.1,23.7,102.8,24,104.5z"/>
<path class="st56" d="M23.9,113.4c-0.1,1.9-0.8,3.6-1.4,5.7c-0.9-1.8-1-3.3-1.2-4.9c0-0.5,0.2-0.9,0.8-1
	C22.6,113.2,23.2,113.1,23.9,113.4z"/>
<path class="st54" d="M19.9,112.3c0.3,0.5,0.6,1-0.1,1.4c-1.2,0.7-2.4,1.4-4.1,2.4c0.6-2,1.5-3.2,2.3-4.5
	C18.8,111.4,19.2,112.4,19.9,112.3C19.9,112.3,19.9,112.3,19.9,112.3z"/>
<path class="st54" d="M18,107c-1-1.5-1.9-2.8-2.4-4.6c1.8,0.6,2.9,1.5,4.2,2.4C19.4,105.8,18.7,106.2,18,107z"/>
<path class="st57" d="M31.7,108.7c-1.3,1-2.6,1.3-4,1.5c-0.7,0.1-1.1,0-1.1-0.8c0-0.7-0.1-1.6,1-1.5C29,108.1,30.3,108.4,31.7,108.7
	z"/>
<path class="st58" d="M12.9,109.1c1.2-0.6,2.4-0.8,3.6-1.1c0.5-0.1,1-0.2,1.2,0.3c0.3,0.5,0.3,1.1,0.1,1.6c-0.2,0.6-0.8,0.4-1.2,0.3
	C15.4,109.9,14.1,110,12.9,109.1z"/>
<path class="st59" d="M15.4,112.3c-0.1,0.9-0.6,1.3-1.4,1.3c-0.6,0-1.1-0.3-1.1-0.9c0-0.7,0.3-1.3,1.1-1.3
	C14.6,111.3,15.2,111.6,15.4,112.3z"/>
<path class="st60" d="M19.4,115.8c0.8,0.1,1.1,0.6,1.1,1.3c0.1,0.7-0.4,0.9-1,0.9c-0.7,0-1.3-0.2-1.3-1
	C18.2,116.4,18.7,115.9,19.4,115.8z"/>
<path class="st61" d="M19.1,100c0.6,0.2,1.3,0.4,1.2,1.2c-0.1,0.6-0.4,1-1.1,0.9c-0.7-0.1-1.2-0.5-1.2-1.2
	C18,100.2,18.5,100.1,19.1,100z"/>
<path class="st62" d="M31.4,105.3c-0.1,0.6-0.4,1.1-1,1.1c-0.8,0.1-1.1-0.6-1.2-1.2c-0.1-0.6,0.4-1,1-1
	C30.9,104.2,31.3,104.6,31.4,105.3z"/>
<path class="st63" d="M26,102.1c-0.6-0.3-1.1-0.6-1.1-1.3c0-0.6,0.5-1,1.1-0.9c0.7,0.1,1.2,0.4,1.1,1.2C27,101.6,26.6,102,26,102.1z
	"/>
<path class="st64" d="M14.9,106.1c-1,0.1-1.6,0-1.7-0.7c-0.1-0.8,0.4-1.2,1.1-1.2c0.6,0,1,0.4,1.1,1
	C15.6,105.9,15.1,106.1,14.9,106.1z"/>
<path class="st65" d="M30.5,112.8c-0.7-0.1-1.1-0.3-1-0.9c0.1-0.5,0.4-0.9,1-0.9c0.5,0,0.9,0.3,1,0.8
	C31.5,112.6,30.9,112.8,30.5,112.8z"/>
<path class="st66" d="M26.3,117.1c-0.5,0-1.1-0.1-1.1-0.7c0-0.7,0.4-1,1.1-1c0.5,0,0.9,0.3,0.9,0.9C27.2,116.9,26.8,117,26.3,117.1z
	"/>
<path class="st67" d="M54.9,105.6c0.5-0.2,1-0.4,1.6-0.5c0.5-0.1,0.5-0.4,0.4-0.9c-0.3-1.6,0.4-3,0.9-4.7c1.2,2.5,1.3,3.1,1.1,5.1
	c-0.1,1,0.8,0.8,1.4,1l0,0c0,0.6-0.9,0.4-1.1,1c1.5-0.6,2.1,1.3,3.6,1.1c1.2-0.2,2.6,0.4,4.1,0.7c-1.1,0.8-1.1,0.8-2.8,1.2
	c-0.9,0.2-1.9,0.8-2.4-0.9c-0.3,1-0.5,1.7-0.8,2.3c2.3,0.4,2.5,2.6,3.6,3.9c-1.6-0.4-3.2-1-4.1-2.4c-0.7-1.2-1.2,0-1.8-0.1
	c-0.2,0-0.4,0.3,0,0.4c0.6,0.1,0.9,0.5,0.7,1c-0.5,1.2-0.2,2.7-1.4,4c-0.6-1.7-1.2-3-1.1-4.5c0-0.3,0.7-0.6-0.1-0.8
	c-0.3-0.1-0.7-0.3-1,0.2c-0.9,1.8-2.7,1.8-4.5,2.3c0.6-1,1.2-2,1.7-3c0.6-1.2,1.2-0.5,2.3,0.1C53.1,109.6,54.1,107.6,54.9,105.6
	L54.9,105.6z"/>
<path class="st68" d="M60.2,105.6c0.1-0.5-0.2-1,0.4-1.3c1.4-0.7,2.5-2,4.4-2.6c-0.8,2-2,3.5-2.9,5.2
	C61.2,106.7,61,105.6,60.2,105.6C60.2,105.6,60.2,105.6,60.2,105.6z"/>
<path class="st69" d="M55,105.6c-1.5,1-1.5,1-2.5-0.6c-0.6-0.9-1.1-1.8-2-3.2c2,0.7,3.1,1.8,4.4,2.5C55.5,104.7,55,105.2,55,105.6
	C54.9,105.6,55,105.6,55,105.6z"/>
<path class="st70" d="M53,109.8c-1.6-0.3-3-0.5-4.5-1.1c1-0.9,2.3-1.1,3.4-1.4c1.2-0.3,1.3-0.2,1.3,1.1
	C53.1,108.8,53.1,109.2,53,109.8z"/>
<path class="st71" d="M50.6,112c0,0.6-0.7,0.7-1.3,0.7c-0.5,0.1-1-0.1-1-0.7c0-0.8,0.4-1.2,1.2-1.2C50.1,110.7,50.6,111,50.6,112z"
	/>
<path class="st72" d="M54.2,99.6c0.7,0,1,0.5,1,1.1c0,0.5-0.3,1-0.8,1c-0.6,0-1.3-0.2-1.4-1C53,99.9,53.7,99.8,54.2,99.6z"/>
<path class="st73" d="M62.2,99.3c0.3,0.7,0.9,1.4,0.1,2.3c-0.6-0.4-1.3-0.7-1.9-1.1C60.6,99.4,61.4,99.3,62.2,99.3
	C62.2,99.3,62.2,99.3,62.2,99.3z"/>
<path class="st74" d="M51.1,104.7c-0.1,0.8-1,0.9-1.5,1.1c-0.5,0.2-0.7-0.6-0.7-1c-0.1-0.7,0.4-1,1-1.1
	C50.5,103.6,51,103.8,51.1,104.7z"/>
<path class="st75" d="M65.8,110.5c0.6,0,1,0.3,1.1,0.9c0.1,0.5-0.1,1-0.6,1.1c-0.6,0.1-1.3-0.3-1.4-0.9
	C64.7,111,65.2,110.6,65.8,110.5z"/>
<path class="st76" d="M62.5,116.2c-0.1,0.6-0.5,0.8-1,0.9c-0.6,0-1.1-0.3-1.1-0.9c0-0.6,0.5-0.9,1-0.8
	C61.8,115.4,62.4,115.5,62.5,116.2z"/>
<path class="st77" d="M54.8,115.7c0.5,0.1,0.9,0.4,0.8,0.9c-0.1,0.6-0.6,0.6-1.1,0.5c-0.4-0.1-1.1,0-0.9-0.7
	C53.9,115.9,54.3,115.7,54.8,115.7z"/>
<path class="st78" d="M65.7,104.2c0.7,0,1.2,0.3,1.1,1.1c0,0.2-0.1,0.5-0.4,0.4c-0.6-0.2-1.4,0-1.6-0.8
	C64.8,104.5,65.3,104.3,65.7,104.2z"/>
<path class="st79" d="M54.9,28.8c-0.3-0.7-0.6-1.5-0.8-2.2c-0.4-1.5,0.1-2.2,1.7-2.6c0.2,0,0.5,0.1,0.4-0.2c0-0.1-0.4-0.1-0.6-0.3
	c-0.3-0.3,0-0.6,0.2-0.7c1-0.6,2.1-0.8,3.2-0.4c0.5,0.2,1.7,0.4,0.4,1.3c-0.1,0.1,0.1,0.4,0.1,0.7c0,0.3,0,0.7,0.4,0.7
	c0.3,0,0.4-0.1,0.4-0.4c0-1.3,0.8-0.4,1.3-0.5l0,0c-0.2,1.2,0.3,2.4-0.3,3.5c-0.2,0.3-0.1,0.5,0.3,0.6c1.8,0.7,2.1,2.7,3.2,4.1
	c-1.6-0.8-3.6-1.1-4.2-3.1c-0.1-0.4-0.4-0.3-0.5-0.2C58.3,30.2,56.6,29.4,54.9,28.8C54.9,28.8,54.9,28.8,54.9,28.8z"/>
<path class="st80" d="M61.7,24c-1.2-2.2-1.2-2.2,1.1-3.7c0.6-0.4,1.2-1,2.5-1c-1,1.7-1.9,3.1-2.7,4.5C62.4,24,62,23.9,61.7,24
	C61.7,24,61.7,24,61.7,24z"/>
<path class="st81" d="M58.6,16.6c0.3,1.3,0.7,2.6,1,3.9c0.1,0.4,0.2,0.8-0.2,1.1c-0.6,0.3-1.2,0.1-1.9,0c-0.5-0.1-0.5-0.6-0.4-1
	c0.3-1.3,0.7-2.7,1.1-4C58.3,16.5,58.4,16.6,58.6,16.6z"/>
<path class="st82" d="M54.9,28.8c0.2,0.5,0.8,0.7,0.9,1.5c-1.2,0.8-2.4,1.7-4.2,1.9c0.3-1.4,1.1-2.3,1.6-3.3
	C53.7,28,54.4,28.4,54.9,28.8C54.9,28.8,54.9,28.8,54.9,28.8z"/>
<path class="st83" d="M51.3,19.6c1.8,0.3,3.1,1.2,4.4,2.3c-0.2,0.3-0.4,0.5-0.6,0.7c-1.2,1.1-1.2,1.1-2.1-0.2
	C52.4,21.4,51.9,20.5,51.3,19.6z"/>
<path class="st84" d="M57,30.5c0.7-0.5,1.5-0.1,2.4-0.4c-0.1,1.8-0.4,3.3-1.1,4.9C57.3,33,57.3,32.9,57,30.5z"/>
<path class="st85" d="M67.6,25.8c-1.6,0.8-2.9,0.9-4.2,1.1c-0.7,0.1-1.2-0.1-1.2-1c0-0.9,0.3-1.3,1.3-1.1C64.7,25,66,25.1,67.6,25.8
	z"/>
<path class="st86" d="M53.4,24.2c0.1,0.6,0.1,0.9,0.1,1.2c-0.1,1.5-0.2,1.7-1.7,1.3c-0.9-0.3-2.1-0.1-2.9-1
	C50.3,24.8,51.8,24.6,53.4,24.2z"/>
<path class="st87" d="M51.4,21.6c0,0.6-0.4,0.8-0.9,0.9c-0.6,0.1-1.1-0.2-1.2-0.8c-0.1-0.6,0.4-0.9,0.9-1
	C50.8,20.6,51.2,21,51.4,21.6z"/>
<path class="st88" d="M62.9,18.5c-1,0.3-1.2-0.9-2.1-0.5c0.1-1.1,0.7-1.3,1.4-1.1C63,17.1,63.2,17.7,62.9,18.5z"/>
<path class="st89" d="M67.4,28.6c0,0.5-0.3,1-0.6,0.9c-0.6-0.1-1.2-0.5-1.4-1.1c-0.2-0.4,0.3-0.6,0.7-0.7
	C66.7,27.7,67.2,28,67.4,28.6z"/>
<path class="st90" d="M54.6,16.8c0.7,0,1,0.4,0.9,1.1c0,0.4-0.2,0.9-0.7,0.7c-0.5-0.2-1.2-0.3-1.2-0.9
	C53.6,17.2,54.1,16.9,54.6,16.8z"/>
<path class="st91" d="M62.7,33.5c-0.1,0.5-0.3,0.7-0.6,0.6c-0.5-0.1-1.2-0.3-1.2-0.9c-0.1-0.5,0.4-0.6,0.8-0.6
	C62.3,32.6,62.7,33,62.7,33.5z"/>
<path class="st92" d="M50.1,29.3c-0.5,0-1.1-0.2-1.1-0.9c0-0.4,0.4-0.6,0.9-0.6c0.6,0,1.1,0.3,1,1C50.8,29.2,50.5,29.3,50.1,29.3z"
	/>
<path class="st93" d="M65.2,22.3c0.5-0.7,0.9-0.8,1.4-0.7c0.5,0.1,0.9,0.5,0.8,1c-0.2,0.6-0.7,0.5-1.1,0.3
	C65.9,22.7,65.5,22.5,65.2,22.3z"/>
</svg>
