<?xml version="1.0" encoding="utf-8"?>
<!-- Generator: Adobe Illustrator 23.1.1, SVG Export Plug-In . SVG Version: 6.00 Build 0)  -->
<svg version="1.1" id="Livello_1" xmlns="http://www.w3.org/2000/svg" xmlns:xlink="http://www.w3.org/1999/xlink" x="0px" y="0px"
	 viewBox="0 0 80 135" style="enable-background:new 0 0 80 135;" xml:space="preserve">
<style type="text/css">
	.st0{fill:#FFFFFF;stroke:#000000;stroke-width:0.2509;stroke-miterlimit:10;}
	.st1{fill:#5F5F60;}
	.st2{fill:#5F5F61;}
	.st3{fill:#6B6D6B;}
	.st4{fill:#666867;}
	.st5{fill:#5A5A5B;}
	.st6{fill:#DCDDDB;}
	.st7{fill:#878786;}
	.st8{fill:#CFD0D0;}
	.st9{fill:#C7CBCA;}
	.st10{fill:#7C7A7A;}
	.st11{fill:#D9D9D8;}
	.st12{fill:#DCDDDA;}
	.st13{fill:#D5D7D3;}
	.st14{fill:#D4D6D5;}
	.st15{fill:#534C38;}
	.st16{fill:#F0E733;}
	.st17{fill:#F2E832;}
	.st18{fill:#EDE634;}
	.st19{fill:#838681;}
	.st20{fill:#898E8A;}
	.st21{fill:#878A83;}
	.st22{fill:#7C7F7F;}
	.st23{fill:#555245;}
	.st24{fill:#5B594B;}
	.st25{fill:#C6BB59;}
	.st26{fill:#525045;}
	.st27{fill:#525044;}
	.st28{fill:#CBC056;}
	.st29{fill:#E3DB38;}
	.st30{fill:#E2D638;}
	.st31{fill:#E5E037;}
	.st32{fill:#F2E833;}
	.st33{fill:#B59C40;}
	.st34{fill:#AC9B3C;}
	.st35{fill:#DBD358;}
	.st36{fill:#D9D45B;}
	.st37{fill:#DDD562;}
	.st38{fill:#DDD159;}
	.st39{fill:#E0D950;}
	.st40{fill:#DFD85C;}
	.st41{fill:#D3CF60;}
	.st42{fill:#E0D656;}
	.st43{fill:#C3B778;}
	.st44{fill:#A79B44;}
	.st45{fill:#F3E932;}
	.st46{fill:#DFD54C;}
	.st47{fill:#DCD361;}
	.st48{fill:#E6E04B;}
	.st49{fill:#E6DF57;}
	.st50{fill:#B5AC52;}
	.st51{fill:#C2B047;}
	.st52{fill:#C1B546;}
	.st53{fill:#8E8544;}
	.st54{fill:#EADE40;}
	.st55{fill:#E0DA4E;}
	.st56{fill:#E6DE50;}
	.st57{fill:#E6DD4F;}
	.st58{fill:#E9DE4F;}
	.st59{fill:#DFD54B;}
	.st60{fill:#E2D65A;}
	.st61{fill:#E1D55D;}
	.st62{fill:#ACA156;}
	.st63{fill:#A29E52;}
	.st64{fill:#B9B453;}
	.st65{fill:#CAC15D;}
	.st66{fill:#D4C666;}
	.st67{fill:#CFBD55;}
	.st68{fill:#ADA255;}
	.st69{fill:#E0D249;}
	.st70{fill:#DCD655;}
	.st71{fill:#E4DD4B;}
	.st72{fill:#D6C958;}
	.st73{fill:#CDBF69;}
	.st74{fill:#4B4736;}
	.st75{fill:#6B633B;}
	.st76{fill:#7C7132;}
	.st77{fill:#675A34;}
	.st78{fill:#484634;}
	.st79{fill:#BAB154;}
	.st80{fill:#CCBF4C;}
	.st81{fill:#C7BF5F;}
	.st82{fill:#A7973B;}
	.st83{fill:#F4E932;}
	.st84{fill:#59552D;}
	.st85{fill:#625A2E;}
	.st86{fill:#9A8C3A;}
	.st87{fill:#817534;}
</style>
<path class="st0" d="M71.5,135h-63c-4.7,0-8.5-3.8-8.5-8.5V8.5C0,3.8,3.8,0,8.5,0h63C76.2,0,80,3.8,80,8.5v118
	C80,131.2,76.2,135,71.5,135z"/>
<path class="st1" d="M18.5,67.8c0.4-14.1,12-22.9,24-22.2C55.1,46.3,64.1,56.4,63.4,69c-0.6,11-9.9,21.7-23.4,21.1
	C27.1,89.5,18.3,79.2,18.5,67.8z"/>
<path class="st2" d="M69.6,110.1c0.1,6.3-5,11.4-11.4,11.4c-6.4,0-11.2-4.7-11.3-11.1c-0.1-7.1,5.6-11.5,11.5-11.6
	C64.6,98.8,69.6,103.8,69.6,110.1z"/>
<path class="st3" d="M58.1,36.4c-6.2-0.2-11.2-5.5-11-11.6c0.2-6.2,5.6-11.3,11.8-11.1c6.3,0.2,11.1,5.1,11,11.5
	C69.9,31.6,64.5,36.6,58.1,36.4z"/>
<path class="st4" d="M34.5,25c0,6.9-5.6,11.5-11.4,11.4c-6.7-0.1-11.2-4.4-11.4-11.1c-0.2-5.9,4.2-11.6,11.7-11.7
	C28.9,13.6,34.7,18.2,34.5,25z"/>
<path class="st5" d="M11.4,110.7c-0.2-6,5.3-11.6,11.9-11.3c5.2,0.2,11.1,4.5,10.9,11.6c-0.2,6.1-5.5,11.2-11.8,11.1
	C16.1,122,11.3,117.1,11.4,110.7z"/>
<path class="st6" d="M21.1,75.8c-3-8-1.6-15.3,3.8-21.9c0.4-0.4,0.7-0.8,1.3-0.9c1.2,0.1,1.8-1,2.7-1.5c-0.7,0.5-1.2,1.3-2.3,1.1
	c0.1-1.2,1.2-1.7,2-2.2c12.9-8.8,30.9-2.3,33.3,13.8c1.2,8.1-1.7,14.7-7.7,20c-0.2,0.2-0.6,0.3-0.9,0.4c-0.1-0.1-0.2-0.2-0.2-0.2
	c1-2.1,3.3-3.2,4.5-5.2c0.4-0.6,0.8-1.2,1.2-1.7c1.6-3.5,2.7-7.1,2.5-11C61,63,60,59.9,58.3,56.9c-1.3-1.7-2.5-3.6-4.2-4.9
	c1.8,1.4,2.9,3.3,4.3,5.1c3.8,6.7,3.8,13.4,0.4,20.2c-0.3,0.7-0.8,1.2-1.1,1.8c-1.4,2.1-3.6,3.5-5.1,5.5c-0.2,0.2-0.4,0.3-0.6,0.4
	c-6.1,3.5-12.4,4.5-19,1.6c-5.5-2.4-9.8-6.2-11.3-12.4c-0.2-0.6-0.2-1.3-0.7-1.8c-0.1-2.1-0.9-4.1-0.3-6.2c-0.6,2.1,0.2,4.1,0.3,6.2
	c0.4,0.8,0.7,1.6,0.9,2.5C21.9,75.3,21.9,75.9,21.1,75.8z"/>
<path class="st7" d="M21.3,72.4c1.2,3.6,2.8,6.9,5.6,9.6c5.7,5.5,14.3,7.6,22.2,3.9c1.1-0.5,2-1.4,3.2-1.4c-1.2,2.4-3.7,2.7-5.8,3.3
	c-4.5,1.3-9.1,1.1-13.5-0.7c-1.5-0.6-2.9-1.3-4.2-2.2l0,0c-1.8-1.2-2.9-3.3-4.9-4.3c-1.1-1.5-2.5-2.9-2.8-4.9
	c0.6-0.2,0.4-0.7,0.3-1.1c-0.2-0.7-0.5-1.5-0.7-2.2C20.9,72.3,21.1,72.3,21.3,72.4z"/>
<path class="st8" d="M32.6,86.8c3,0.9,5.9,1.8,9,1.5c3.9-0.3,7.6-1.2,10.6-3.9c0,0,0,0,0,0c0.3-0.3,0.6-0.3,0.9,0
	c0,0,0.1,0.2,0.1,0.2c-2.5,2.5-5.8,3.7-9.1,4.1c-3.4,0.4-7,0.5-10.3-0.8c-0.4-0.2-0.8-0.4-1.3-0.6c-0.1-0.1-0.2-0.2-0.1-0.3
	C32.5,86.9,32.6,86.8,32.6,86.8z"/>
<path class="st9" d="M23.9,80.7c0.1-0.2,0.4-0.5,0.5-0.3c1.4,1.6,3.3,2.8,4.4,4.6c-1.4-0.3-2.1-1.5-3.1-2.4
	C25,82,24.5,81.3,23.9,80.7z"/>
<path class="st10" d="M26.6,52.7c1.4-0.5,2.2-2,4.3-2.3c-1.8,1.5-3.4,2.5-4.7,3.9c-0.4-0.6-0.1-0.9,0-1.2
	C26.4,52.9,26.5,52.8,26.6,52.7z"/>
<path class="st9" d="M32.6,86.8c0,0.1,0,0.3,0,0.4c-1.5-0.4-2.9-1-3.9-2.3C30.2,85.2,31.4,86,32.6,86.8z"/>
<path class="st11" d="M68.6,110.2c0,5.8-4.8,10.4-10.6,10.4c-5.7,0-10.1-4.5-10.1-10.2c-0.1-5.9,5-10.4,10.4-10.4
	C64.2,99.8,68.8,104.9,68.6,110.2z"/>
<path class="st12" d="M58.1,35.5c-5.2-0.2-10.1-4.2-10-10.5c0.1-5.9,5-10.3,10.7-10.3c5.5,0,10.4,4.8,10.1,10.6
	C68.7,31.7,63.4,35.5,58.1,35.5z"/>
<path class="st13" d="M12.8,24.9c0.3-6.5,4.8-10.5,11.3-10.2c5.4,0.3,9.8,5.3,9.5,10.9c-0.2,5.4-5.6,10.3-11,9.8
	C16.8,34.9,12.3,30.5,12.8,24.9z"/>
<path class="st14" d="M12.3,110.9c0-6,4.6-10.5,10.5-10.5c4.5,0,10.6,4.2,10.5,10.6c-0.1,5.3-4.4,10.1-10.4,10.1
	C17.2,121.2,12.1,117.2,12.3,110.9z"/>
<path class="st15" d="M54.5,54.8c2.7,1.9,3.9,4.7,4.7,7.8c1.6,6.2,0.6,11.8-3.4,16.9c-0.2,0.3-0.4,0.6-0.6,0.7
	c-0.5,0.3-0.4-0.2-0.5-0.4c-0.5-0.9,0.4-1.4,0.5-2.1c0.3-0.7,0.4-1.4,0-2.1c-0.5-0.3-0.7,0-0.9,0.4c-1.2,2.4-2.8,4.4-5.6,5.4
	c1.9,1.4,3.3-0.2,4.8-0.1c0.9,0.1,0.3,0.5,0.1,0.7c-8.2,6.8-18.2,6.1-25.1,0.4c-0.9-0.7-2-1.3-2.1-2.7c1-0.2,1.6,0.6,2.3,1
	c1.6,1,1.7,1,3.7,0.9c-0.9-1.4-2.6-1.5-3.6-2.5c-1-1-1.1-2.6-2-3.9c-1.5,1.6,0.6,3.1-0.3,4.5c-0.2-0.1-0.5-0.1-0.6-0.3
	c-3.3-4-4.7-8.4-3.7-13.6c0.1,0.1,0.1,0.2,0.2,0.2c0.6,1.9,0.4,4.2,2.5,5.4c0.3,0.1,0.5,0.1,0.7-0.2c0-0.2,0-0.4,0-0.6
	c-0.8-2.4-0.1-4.9,0.1-7.3c0-0.2,0-0.4,0.1-0.6c0.4-1-0.7-2.1-0.1-3.1c0.1-0.2,0.3-0.3,0.6-0.3c0.5,0.1,1.2,0.5,1.5-0.1
	c1.1-2.6,3.6-3.6,5.7-5.4c-1.1-1-2-0.5-2.9-0.1c-1,0.4-1.9,1.3-3.1,0.7c3.8-3.7,8.3-5.7,13.7-5.6c-0.1,1.1-1.1,1-1.8,1.2
	c-1.1,0.4-2.1,0.8-2.4,2c0.5,0.7,1,0.2,1.5,0.1c1.8-0.3,3.6-0.6,5.4,0.1c0.4,0.2,1.1,0.7,1.4-0.2c0.2-0.6-0.2-1.1-0.7-1.4
	c-0.5-0.3-1-0.5-1.5-0.7c-0.7-0.2-1.4-0.3-1.6-1.2c4.3-0.2,8,1.2,11.4,3.8c0.6,0.4,1.2,0.8,1.3,1.6c-1.2,0.6-2-0.5-3-0.8
	c-0.8-0.2-1.7-0.7-2.1,0.1c-0.5,0.9,0.6,1.2,1.1,1.5c1.6,0.9,2.9,1.9,3.7,3.6c0.2,0.5,0.5,1.4,1.4,0.9c0.6-0.4,0.4-1.1,0.2-1.8
	C55,56.8,54.1,56,54.5,54.8z"/>
<path class="st16" d="M54.5,54.8c0.4,0.7,0.7,1.4,1.1,2.1c0.4,0.7,0.6,1.5,0.4,2.3c-0.1,0.7-0.4,1.5-1.2,1.6
	c-0.7,0.1-0.9-0.7-1.1-1.1c-1.1-2.6-3.3-3.9-5.6-5.1c-0.2-0.1-0.4-0.3-0.5-0.4c1-1.8,1.8-2.2,3.5-1.4c1,0.5,2,1,3,1.5
	C54.2,54.4,54.4,54.6,54.5,54.8z"/>
<path class="st17" d="M41.3,48.9c0.7,0.7,1.8,0.6,2.7,0.9c1,0.3,1.7,0.9,1.9,1.9c0.3,1.3-0.3,1.8-1.6,1.4c-2.7-0.8-5.4-0.8-8,0.6
	c-0.3-2.4,0.3-3.4,2.3-4.1c0.8-0.3,1.8-0.1,2.5-0.7C41.2,48.9,41.2,48.9,41.3,48.9z"/>
<path class="st16" d="M27.4,54.5c1.3-0.1,2.3-1,3.5-1.5c1.7-0.6,2-0.6,3.5,1c-2.4,2-5.8,3.1-6.5,6.6c-1.1,0.1-1.3-0.8-1.8-1.2
	c-1-0.8-0.5-1.7-0.1-2.5C26.3,56,27.1,55.4,27.4,54.5L27.4,54.5z"/>
<path class="st18" d="M55.7,78c0,0.8-0.7,1.1-1,1.8c-0.4,0.5-0.8,1-1.2,1.5c-0.9,0.8-2,1.3-3.2,1.4c-1,0-1.9,0-2.5-1
	c0.1-0.5,0.5-0.6,0.9-0.8c2.8-1,4.2-3.2,5.4-5.7c0.6-1.3,0.6-1.3,1.6,0C56,76.1,56,77.1,55.7,78z"/>
<path class="st15" d="M27.4,54.5c0.1,0.9-0.4,1.5-0.8,2.2c-0.4,0.9-0.7,1.8-0.5,2.8c0,0-0.1,0.1-0.1,0.1c-0.7,0.8-0.1,1.8-0.5,2.6
	c-1.4,1-1.6,3.1-3.3,3.7c0,0,0,0,0,0c-0.3-3.1,1.3-5.7,2.7-8.2C25.5,56.4,26.3,55.4,27.4,54.5z"/>
<path class="st19" d="M58.6,77.8c-0.2-1.1,0.6-2,0.9-2.9c2.3-5.8,1.8-11.4-1-16.8c-0.2-0.4-0.5-0.8-0.5-1.3l0.2-0.2
	c1.9,2,2.6,4.6,3,7.1c0.8,4.5,0.3,9-1.9,13.2C59.1,77.2,58.9,77.6,58.6,77.8L58.6,77.8z"/>
<path class="st20" d="M34,48.9c5.7-2.4,11.2-2.1,16.6,0.9c-2.7-0.8-5.3-1.7-8.1-1.8C39.6,47.8,36.7,48.2,34,48.9z"/>
<path class="st21" d="M58,56.7c-1.9-1.8-3.3-4.1-5.5-5.6c2.7,0.9,4.3,3.1,5.6,5.5C58.1,56.6,58,56.7,58,56.7z"/>
<path class="st7" d="M53.2,84.5c-0.3,0-0.6,0-0.9,0c1.7-1.8,3.4-3.6,5.1-5.4c0.1,0.1,0.2,0.1,0.2,0.2C56.7,81.5,54.6,82.6,53.2,84.5
	z"/>
<path class="st22" d="M21.3,72.4c-0.2,0-0.4,0-0.6,0c-0.5-2.2-0.7-4.5-0.1-6.8C20.8,68,21.1,70.2,21.3,72.4z"/>
<path class="st19" d="M57.4,79.1c0.2-0.6,0.4-1.2,1.1-1.3c0,0,0,0,0,0c0,0.7-0.3,1.2-0.9,1.5C57.6,79.2,57.5,79.2,57.4,79.1z"/>
<path class="st23" d="M61.9,101.8c5.7,1.7,7.3,9,4.6,13.2c-4,6.2-12.4,6.4-16.6,0.2c-1.4-2.1-1.5-4.7-1-7.2
	C50.1,103,56.4,98.9,61.9,101.8c-0.5,0.5-0.8,1-0.3,1.7C61.9,102.9,61.4,102.3,61.9,101.8z"/>
<path class="st24" d="M62.8,16.9c3.6,1,6.1,6.1,5.1,10.3c-0.9,3.6-3.9,6.6-7.8,7.2c-4.1,0.6-7.3-1-9.6-4.4c-1.9-2.8-2-7,0-9.9
	c1.8-2.7,4.3-4.5,7.8-4.4c1.1,0,2.2,0,3.3,0.3c0.3,0.6-0.4,1.2-0.1,1.9C62.2,18,62.3,17.2,62.8,16.9z"/>
<path class="st25" d="M62.8,16.9c0,0.2,0,0.3,0,0.5c0.1,1-0.4,1.5-1.3,1.7c-0.3,0.1-0.7-0.1-0.8-0.4c-0.4-0.8-0.4-1.5,0.5-2
	c0.2-0.1,0.2-0.4,0.3-0.6C62,16.2,62.1,16.9,62.8,16.9z"/>
<path class="st26" d="M27.3,16.8c2.1,0.4,3.4,2,4.4,3.7c2.6,4.5,0.4,11-4.4,13.1c-0.3,0.1-0.6,0.1-0.9,0.1c-0.4-0.5,0.1-1.3-0.7-1.7
	c-0.4,0.9,0.4,1.2,0.7,1.7c-1.3,1.3-3,1.1-4.5,0.8c-3.7-0.6-6.6-2.5-7.7-6.3c-1.2-3.7-0.4-7.1,2.4-9.9c2.9-2.8,6.2-3.3,10-2.2
	C26.9,16.2,27.3,16.3,27.3,16.8c-0.1,0.2-0.3,0.4-0.3,0.6C27.2,17.2,27.2,17,27.3,16.8z"/>
<path class="st27" d="M22.7,120.2c-5.3,0.1-9.4-3.9-9.5-9.3c-0.1-5.4,4.3-9.6,9.5-9.6c5.2-0.1,9.7,4.1,9.8,9.3
	C32.6,116.1,27.4,120.4,22.7,120.2z"/>
<path class="st28" d="M54.8,67.6c0.5,7.9-6.8,14.2-14,14.2c-6.9,0-14.1-6.4-14-13.8C27,60.3,33.2,53.9,41,53.8
	C48.5,53.7,55.2,60.4,54.8,67.6z"/>
<path class="st29" d="M45.9,82.2c0.4,1.3,0,2.1-0.9,2.7c-1.2,0.9-2.5,1.8-4.1,1.6c-1.2-0.2-2.4-0.7-3.7-1.1c-0.5-0.2-1-0.5-1.4-0.9
	c-0.5-0.6-0.9-1.3-0.6-1.9c0.4-0.8,1.3-0.2,1.7,0.1c2.6,1.6,5.1,1.2,7.6-0.2C44.9,82.2,45.4,82.3,45.9,82.2z"/>
<path class="st30" d="M26.4,79.7c0-0.8-0.6-1.5-0.8-2.2c-0.4-1.4-0.5-2.7,1.2-3.6c0.7,1.1,1,2.2,1.4,3.4c0.3,0.8,0.2,2.2,1.8,1.7
	c0.9,1.1,2.3,1.6,3.6,2.3c-0.9,1.3-1.9,1.6-3.1,1.1C29,81.7,27.5,80.9,26.4,79.7C26.4,79.6,26.4,79.7,26.4,79.7z"/>
<path class="st31" d="M55.6,63.4c-0.3-0.5-0.1-0.8,0.4-0.9c0.9-0.2,1.5,0.3,2.1,0.9c1.7,1.8,1.7,6.3,0,8.2c-0.7,0.8-1.6,1-2.6,0.7
	c-0.4-0.6,0.3-1.2,0.3-1.8c0.1-1.3,1.8-2.2,0.9-3.8l0,0C55.7,65.8,56.1,64.5,55.6,63.4z"/>
<path class="st32" d="M22.1,65.8c0.7-0.4,0.7-1.1,1.1-1.7c0.5-0.9,1-2,2.2-2.2c0.9,0,0.8,0.4,0.4,0.9l0,0c-0.2,0.7,0.2,1.4-0.2,2.1
	c-1.3,2.1-0.3,4.1,0.3,6.1c0,0.1,0,0.3,0.1,0.4c0,0.9-0.5,0.8-1.1,0.6c-1,0-1.6-0.7-1.9-1.5C22.4,69,21.7,67.5,22.1,65.8z"/>
<path class="st33" d="M25.9,71.1c-1.1-1.7-2.4-3.4-1-5.6c0.5-0.8,0.1-1.9,0.9-2.6c0.2,0.4,0.7,0.9,0.5,1.3
	C25.2,66.4,26.1,68.8,25.9,71.1z"/>
<path class="st34" d="M56.6,66.8c0.7,0.3,1.1,0.7,0.7,1.6c-0.4,0.9-1,1.5-1.6,2.2C55.3,69.2,56.4,68.1,56.6,66.8z"/>
<path class="st33" d="M25.9,62.9c-0.1-0.4-0.1-0.7-0.4-0.9c-0.3-0.9-0.6-1.8,0.5-2.4c0,0.9,0,1.7,0.7,2.5
	C27.2,62.7,26.5,62.9,25.9,62.9z"/>
<path class="st34" d="M55.6,63.4c0.9,0.9,0.5,2.3,1,3.3C55.3,65.9,55.6,64.6,55.6,63.4z"/>
<path class="st6" d="M55.7,78c0-0.9,0-1.9,0-2.8C56.3,76.1,56.3,77.1,55.7,78z"/>
<path class="st33" d="M24.9,72c0.4-0.1,0.8-0.1,1.1-0.6c0.3,0.2,0.4,0.5,0.1,0.8C25.7,72.6,25.2,72.4,24.9,72z"/>
<path class="st18" d="M58.5,110.4c-0.8,0.1-1.2,0.1-1.6,0.1c-1-0.1-1.6-1.2-1-2c0.7-1,2.1-1.4,3.4-1c0.9,0.3,1.9,1.5,1.7,2.1
	c-0.4,0.9-1.2,0.9-2,0.8C58.7,110.4,58.4,110.4,58.5,110.4z"/>
<path class="st35" d="M49.3,110.2c2-0.5,3.5-0.8,5-1.2c0.4,2.3,0.4,2.3-1.5,2C51.9,110.8,50.7,111.2,49.3,110.2z"/>
<path class="st36" d="M58.2,118.8c-0.3-1.6-0.5-2.6-0.8-3.7c-0.1-0.5-0.2-1,0.4-1.2c0.4-0.1,0.8-0.1,1.2,0c0.6,0.2,0.4,0.8,0.3,1.2
	C59,116.1,59.3,117.3,58.2,118.8z"/>
<path class="st37" d="M54.8,112.4c1.4,0.7,1.6,1.4,0.5,2.3c-0.9,0.7-1.8,1.3-3,2.2C52.8,114.9,54,113.8,54.8,112.4z"/>
<path class="st38" d="M66.9,110.1c-1.4,0.7-2.8,0.7-4.2,1c-0.5,0.1-0.8,0-0.8-0.5c-0.1-0.6-0.1-1.2,0.7-1.2
	C64.1,109.4,65.5,109.5,66.9,110.1z"/>
<path class="st39" d="M52.4,104.2c1.5,0.4,2.4,1.3,3.4,2c0.4,0.3,0.9,0.6,0.3,1.1c-0.4,0.4-0.9,0.9-1.4,0.3
	C53.9,106.7,53,105.7,52.4,104.2z"/>
<path class="st40" d="M63.7,104.2c-0.3,1.4-1,2.3-1.6,3.2c-0.3,0.6-0.7,0.8-1.3,0.2c-0.5-0.5-0.6-0.9-0.1-1.4
	C61.6,105.4,62.5,104.8,63.7,104.2z"/>
<path class="st41" d="M58.3,102.1c0.8,1.2,0.7,2.4,1,3.6c0.1,0.6-0.1,0.9-0.7,0.9c-0.6,0.1-1.1-0.2-1-0.9
	C57.7,104.6,57.6,103.3,58.3,102.1z"/>
<path class="st42" d="M64.4,115.9c-1.7-0.9-2.8-1.5-3.9-2.3c0.1-0.7,0.6-1.1,1.2-1.5C62.6,113.1,63.5,114.1,64.4,115.9z"/>
<path class="st43" d="M61.9,101.8c0.3,0.7,0.8,1.4,0,2.1c-0.4,0.3-0.4,0.3-0.7-0.5c0-0.1-0.1-0.3-0.2-0.4c-1.6-1.1-0.2-1,0.5-1.2
	C61.6,101.8,61.8,101.8,61.9,101.8C61.9,101.8,61.9,101.8,61.9,101.8z"/>
<path class="st44" d="M60.9,25c0.5,1.7,2.2,2.6,3,4.2c0.2,0.5,0.6,0.8,0.7,1.6c-1.5-0.2-2.5-1.1-3.3-1.9c-0.8-0.7-1.5-0.9-2.5-0.9
	c-2.6-0.1-3.6-1.8-2.6-4.4C57.3,25.3,59.4,24.2,60.9,25z"/>
<path class="st45" d="M60.9,25c-1-0.1-1.9,0.5-2.9,0.3c-1-0.2-1.7-0.6-1.8-1.7c0.3-0.5,1-0.7,1-1.4c0,0,0,0,0,0c0.8,0,1.6,0,2.4,0.1
	c1.2,0.1,1.8,0.8,1.8,1.9c0,0.1,0,0.2,0,0.4C61.3,24.7,61.2,24.8,60.9,25L60.9,25z"/>
<path class="st44" d="M61.3,24.1c-0.5-0.8-1.1-1.4-1.8-1.9c1.1-0.3,1.5-1.4,2.3-1.9c0.8-0.5,1.6-1,2.7-1.7c-0.6,2-1.4,3.4-2.7,4.5
	C61.5,23.4,61.4,23.7,61.3,24.1z"/>
<path class="st46" d="M49.9,25c1.7-0.9,3.4-1,4.9-1.3c0.4,2.1,0.1,2.5-1.6,2.1C52.2,25.6,51,25.7,49.9,25z"/>
<path class="st47" d="M52.3,31.7c0.6-1.9,1.7-2.9,2.5-4.2c0.3-0.6,0.8-0.4,1.2,0c0.4,0.4,0.9,0.8,0.2,1.4
	C55.1,29.8,54,30.8,52.3,31.7z"/>
<path class="st44" d="M58.7,33.4c-1-1.3-0.8-2.7-1.1-4c-0.3-1.2,1-0.7,1.5-0.9c0.6-0.2,0.8,0.2,0.7,0.8C59.5,30.6,59.6,32,58.7,33.4
	z"/>
<path class="st44" d="M60.9,24.9c0-0.3,0.2-0.4,0.4-0.5c1.9-0.6,3.8,0,5.6,0.5c-1.3,0.7-2.7,1-4.2,1C62,26,62,24.6,60.9,24.9z"/>
<path class="st48" d="M57.1,22.1c-0.7-0.2-1.1,0.6-1.8,0.7c-0.7-1.2-1.9-2.2-2.7-4.1C54.6,19.8,56.2,20.4,57.1,22.1
	C57.1,22.1,57.1,22.1,57.1,22.1z"/>
<path class="st49" d="M58.8,17c0.7,1.2,0.7,2.4,0.8,3.6c0.1,0.6-0.2,0.9-0.8,0.9c-0.6,0-0.8-0.4-0.8-0.9C58,19.4,58.1,18.3,58.8,17z
	"/>
<path class="st50" d="M57,18c-0.1,0.7-0.5,1.1-1.2,1.2c-0.8,0.1-1.2-0.3-1.1-1.1c0-0.7,0.4-1.2,1.1-1.2C56.6,16.8,56.9,17.3,57,18z"
	/>
<path class="st51" d="M53.1,22C53,22.7,52.7,23,52,23c-0.8,0.1-1.2-0.3-1.2-1c0-0.7,0.4-1.2,1.1-1.2C52.6,20.8,52.9,21.4,53.1,22z"
	/>
<path class="st52" d="M66.9,27.6c-0.6,0.5-1.5,0.3-2.1,0.8c-0.1,0.1-0.5-0.3-0.4-0.7c0.2-0.8,1.1-1.4,1.8-1.1
	C66.7,26.7,66.9,27.1,66.9,27.6z"/>
<path class="st53" d="M27.4,26.5c-0.2,0.2-0.3,0.3-0.5,0.5c-0.4,0.6-0.7,1.4-1.6,1c-0.4,0-0.9-0.1-1.1,0c-0.4,0.3,0.4,0.5,0.3,0.9
	c-0.8,0.6-1.6,0.5-2.3-0.1c-0.1-0.4,0.7-0.5,0.4-0.8c-0.3-0.3-0.7-0.1-0.9,0.3c-0.1,0.2-0.3,0.3-0.5,0.4c-0.6-0.3-1-0.8-1.4-1.4
	c-0.3-0.3,1.6-0.7,0-1c-0.3-0.3-0.2-0.6,0.1-0.9c0.5-0.3,0.2-1.1,0.7-1.5c1.8,1,3.7,0.7,5.5,0c0.6,0.3,0.2,1.1,0.8,1.4
	C27.2,25.6,27.4,26,27.4,26.5z"/>
<path class="st54" d="M26,24c0,0.1,0,0.2-0.1,0.2c-1.5,1.6-4.1,1.5-5.5-0.2C22.2,21.4,24,21.4,26,24z"/>
<path class="st55" d="M24.8,21.5c-0.9,0-1.3,0-1.8,0c-0.8,0-1-0.5-0.8-1.1c0.4-1.3,0.2-2.7,1.1-3.9C24.2,18,24.1,19.8,24.8,21.5z"/>
<path class="st54" d="M19.6,23.8c-1.1-1.8-1.9-3.2-2.9-4.9c1.9,0.6,3.2,1.6,4.4,2.7C21,22.4,20.2,22.8,19.6,23.8z"/>
<path class="st56" d="M25.2,27.9c0.5-0.3,1.1-0.6,1.6-1c0.6,1.3,1.6,2.5,2.1,4.2c-1.5-0.7-2.8-1.5-3.8-2.6
	C25.1,28.4,25.2,28.1,25.2,27.9z"/>
<path class="st57" d="M22.1,28.8c0.8,0,1.5,0,2.3,0.1C24,30.4,24,32,23.2,33.7C22.4,32,22.1,30.4,22.1,28.8z"/>
<path class="st58" d="M19.7,25.4c0,0.3-0.1,0.6-0.1,0.9c-1.7-0.1-3.3-0.4-5-1.1c1.3-0.8,2.7-0.6,4-1C19.5,24,19.6,24.8,19.7,25.4z"
	/>
<path class="st59" d="M27.4,26.5c-0.5-0.2-0.5-0.7-0.5-1.1c0-0.7,0.2-1.2,1.1-1.1c1.2,0.3,2.5,0.5,4,0.7
	C30.4,26.1,28.8,26,27.4,26.5z"/>
<path class="st60" d="M19.7,27.4c0.9,0,1.4,0.4,1.4,1.4c-1.2,0.8-2.3,1.8-3.8,2.5c-0.2-1.1,1.2-1.4,1-2.4l0,0
	C18.9,28.5,19.2,27.8,19.7,27.4z"/>
<path class="st61" d="M26.8,23.4c-0.6-0.4-0.9-0.9-1.3-1.5c1.1-0.9,2.1-1.9,3.9-2.6C28.5,20.9,27.9,22.2,26.8,23.4z"/>
<path class="st62" d="M26.4,33.6c-0.8,0.1-1.4-0.2-1.7-0.9c-0.2-0.5-0.1-0.9,0.3-1.3c0.3-0.4,0.7-0.6,1.2-0.4
	c0.5,0.2,0.6,0.6,0.7,1.1C26.9,32.7,26.5,33.1,26.4,33.6C26.4,33.6,26.4,33.6,26.4,33.6z"/>
<path class="st63" d="M17.7,22.5c-0.2,0.6-0.5,1.4-1.2,1.1c-0.5-0.2-1.6,0-1.5-1c0.1-0.8,0.6-1.3,1.4-1.3
	C17.1,21.3,17.6,21.6,17.7,22.5z"/>
<path class="st64" d="M18.2,28.8c-0.4,0.2-0.8,0.6-1.2,0.7c-0.7,0.2-1-0.3-1.3-0.8c-0.3-0.4-0.2-0.7,0.1-1.1
	c0.4-0.4,0.8-0.5,1.3-0.3C17.9,27.6,18.1,28.2,18.2,28.8C18.2,28.8,18.2,28.8,18.2,28.8z"/>
<path class="st65" d="M31.5,28.4c-0.1,0.4-0.5,0.7-0.6,0.6c-0.4-0.7-1.5,0.3-1.7-0.7c-0.1-0.5,0.4-0.8,0.9-0.8
	C30.9,27.3,31.4,27.6,31.5,28.4z"/>
<path class="st66" d="M27.3,16.8c0.2,0.5,0.8,1,0.4,1.7c-0.4,0.2-0.6-0.1-0.8-0.2c-0.4-0.2-1-0.3-0.9-0.9
	C26.2,16.7,26.9,16.9,27.3,16.8C27.4,16.8,27.3,16.8,27.3,16.8z"/>
<path class="st67" d="M21.7,32c-0.3,0.3-0.6,0.3-0.9,0.3c-0.4,0-0.8,0-1-0.4c-0.1-0.2,0-0.5,0.1-0.6c0.4-0.4,0.8-0.4,1.3-0.1
	C21.4,31.3,21.6,31.5,21.7,32z"/>
<path class="st32" d="M20.1,109.9c1.1-2.3,2.6-2.6,4.9-1c0.2,0.5,0.3,1.1,0,1.6l0,0c-1.5,0.9-2.9,1.6-4.4,0l0,0
	C20.4,110.3,20.1,110.2,20.1,109.9z"/>
<path class="st68" d="M16.4,104.6c1.9,0.5,3.1,1.6,4.5,2.6c-0.1,0.3-0.1,0.5-0.3,0.7c-1.4,1.7-1.7,1.7-2.7-0.2
	C17.4,106.8,16.6,106,16.4,104.6z"/>
<path class="st68" d="M26.4,112.3c0.6,1.5,2,2.7,2.3,4.6c-0.9-0.1-1.6-0.5-2.1-1C24.6,114.3,23.5,114.5,26.4,112.3L26.4,112.3z"/>
<path class="st68" d="M22.7,119.4c-1.1-1.4-0.6-3-1-4.4c-0.2-0.7,0.6-0.8,1.1-0.8c0.6,0,1.2,0,1.1,0.8
	C23.8,116.5,23.7,118,22.7,119.4z"/>
<path class="st69" d="M26.4,112.3c0-0.3,0-0.6,0-0.9c-0.1-1.1,0.3-1.6,1.5-1.4c1.1,0.2,2.2,0.3,3.5,0.6
	C29.9,112.1,27.9,111.5,26.4,112.3C26.4,112.3,26.4,112.3,26.4,112.3z"/>
<path class="st70" d="M19,112.3c-1.6-0.5-3.1-0.3-4.6-1.3c1.3-0.6,2.6-0.9,3.8-0.9C20,110.1,19,111.3,19,112.3z"/>
<path class="st68" d="M16.6,117.3c0.6-2,1.7-2.9,2.5-4c0.4-0.6,1-0.3,1.4,0.2c0.4,0.4,0.5,0.9,0,1.2
	C19.4,115.4,18.2,116.2,16.6,117.3z"/>
<path class="st68" d="M20.6,110.5c1.5,0.7,2.9,0.2,4.4,0c0,1.3-0.7,2.2-1.9,2.3C21.6,112.9,20.9,111.8,20.6,110.5z"/>
<path class="st71" d="M22.7,102.5c0.7,1.5,1.1,2.9,1.3,4.3c-0.7,0.4-1.4,0.2-2.3,0.2C22,105.5,22,104,22.7,102.5z"/>
<path class="st72" d="M26.5,109c-1.5-1.5-1.5-1.5-0.3-2.4c0.7-0.5,1.3-1.1,2.4-1.5C28.2,106.8,27.3,107.9,26.5,109z"/>
<path class="st73" d="M26.4,117.9c-0.1,0.4-0.1,1-0.8,1c0.2-1-1.1-0.5-1.1-1.2c0-0.6,0.4-0.9,0.9-0.9
	C26.1,116.8,26.4,117.2,26.4,117.9z"/>
<path class="st68" d="M25,110.5c0-0.5,0-1,0-1.6c0.5,0.3,0.6,0.9,0.8,1.3c0.1,0.2,0.2,0.7-0.1,0.7C25.5,111,25.2,110.6,25,110.5z"/>
<path class="st68" d="M22.7,113.7c-0.2,0-0.6-0.1-0.6-0.2c0-0.3,0.3-0.2,0.5-0.2c0.2,0,0.4,0.1,0.6,0.2
	C23,113.6,22.9,113.7,22.7,113.7z"/>
<path class="st68" d="M20.1,109.9c0.2,0.2,0.3,0.4,0.5,0.6c-0.2,0.2-0.5,0.4-0.7,0.6C19.5,110.6,19.7,110.2,20.1,109.9z"/>
<path class="st74" d="M33.1,77.3c-0.8-1.6-2.3-2.8-3.1-4.5c-2.2-5.1-0.6-11.9,5.2-15c6.3-3.4,13.2-1,16.1,4.8
	c3.8,7.5-1.5,16.6-9.9,17.1c-2.5,0.1-4.7-0.7-6.9-1.5c-0.1,0-0.2,0-0.3,0c-0.4-0.1-0.7-0.4-1-0.6C33.2,77.5,33.2,77.4,33.1,77.3z"/>
<path class="st75" d="M50.8,75.8c0.6-1.7,1.7-3.2,2.3-4.9c1.1-3.4,0.3-6.4-1.1-9.4c-0.2-0.4-0.4-0.7-0.7-1.1
	C55.4,62.7,55.1,72.2,50.8,75.8L50.8,75.8z"/>
<path class="st76" d="M33.1,57.7c2.3-2.5,6.1-3.5,10.6-2.6c-2.2,0.2-3.9,0-5.6,0.5C36.5,56.1,35,57,33.1,57.7z"/>
<path class="st74" d="M44.1,80.6c-1.9,0.4-3.9,0.5-5.8,0.1c-0.8-0.2-1.7-0.3-2.3-1l0,0c2.7,0.6,5.4,0.7,8.2,0.4
	c0.1,0.1,0.2,0.2,0.1,0.3C44.2,80.5,44.2,80.6,44.1,80.6z"/>
<path class="st77" d="M44.1,80.6c0-0.2,0-0.3,0-0.5c1.6-0.8,3.2-1.6,4.8-2.4c0,0,0.1,0.1,0.1,0.1C47.8,79.5,45.9,80,44.1,80.6z"/>
<path class="st74" d="M34.5,78.2c0.2,0.8,1.2,0.8,1.5,1.5c0,0,0,0,0,0c-1.4,0.1-2.5-0.8-3.4-1.7c-0.7-0.7,0.2-0.5,0.5-0.7
	c0,0,0,0,0,0C33.5,77.7,34.1,77.9,34.5,78.2L34.5,78.2z"/>
<path class="st77" d="M48.9,77.7c0.5-0.8,1.1-1.5,1.9-1.9c0,0,0,0,0,0C50.6,76.9,50,77.6,48.9,77.7C49,77.8,48.9,77.7,48.9,77.7z"/>
<path class="st78" d="M48.4,73.7c-0.3,0.2-0.6,0.4-0.9,0.5c-0.4,0.9-1.1,1.5-1.9,2c-3.6,2.1-8.7,1.2-11.1-1.9l0,0
	c-2.1-1.1-3.7-2.5-2.9-5.2c0.1-0.5-0.1-1.1-0.2-1.6c-0.3-2.2,0-4.1,2.1-5.4c0.7-0.4,1.2-1.1,1.8-1.6c3.9-3.7,8.7-3.4,12.3,0.6
	c0.1,0.1,0.3,0.2,0.4,0.3c1.4,0.5,2.1,1.6,2.4,3C50.9,67.8,50.7,70.9,48.4,73.7z"/>
<path class="st79" d="M47.5,61.2c-0.5-0.3-1.1-0.4-1.4-0.8c-2-2.5-4.8-1.8-7.3-1.6c-1.7,0.2-2.9,1.7-4.2,2.9
	c-0.6,0.5-0.9,1.3-1.9,1.7c-1,0.4-1.2,1.7-1,2.7c0.3,1.5,0.6,2.9,0.2,4.4c-0.3,1,0.7,1.8,1.4,2.6c0.4,0.5,1.1,0.7,1.3,1.4
	c-0.1,0-0.1,0.1-0.2,0.1c-2,0.1-2.2-1.9-3.4-2.8c-0.7-0.5-0.7-1-0.2-1.6c0.4-0.5,0.4-1.2,0.3-1.8c-0.7-3,0.2-5.4,2.8-7.2
	c0.4-0.3,0.9-0.5,1.1-0.9c1.5-2.6,3.9-2.8,6.6-2.5c1.5,0.2,2.9,0.3,4.3,1.1C46.9,59.4,47.4,60,47.5,61.2z"/>
<path class="st80" d="M34.5,74.4c0.3,0.2,0.6,0.3,0.8,0.5c1.4,2.1,3.6,1.9,5.6,1.8c2.4-0.1,4.9-0.3,6.6-2.5c0.1,1.2-0.3,1.8-1.4,2.4
	c-1.5,0.8-2.9,1.1-4.7,1c-1.4-0.1-2.8,0-4.2-0.3C35.6,76.9,34.6,76.1,34.5,74.4z"/>
<path class="st81" d="M48.4,73.7c0-0.2-0.1-0.5,0-0.7c1-1.5,1.9-3.1,1.4-5c1.2-2.5,0-4.3-1.6-6.1c-0.1-0.1-0.2-0.3-0.2-0.4
	c0.5-0.2,1-0.6,1.4,0.2c0.3,0.6,0.8,1.1,1,1.6c1,3.1,1.2,6.2-0.2,9.2C49.8,73.1,49.1,73.5,48.4,73.7z"/>
<path class="st28" d="M34.6,78.3c-0.8,0.1-1.2-0.4-1.5-1C33.8,77.2,34.3,77.6,34.6,78.3z"/>
<path class="st82" d="M48.5,68.2c0,4.2-3.4,7.3-7.8,7.3c-4.3,0.1-7.5-3.6-7.6-7.6c-0.1-4,3.8-7.9,7.9-7.6
	C45.5,60.6,48.6,63.5,48.5,68.2z"/>
<path class="st83" d="M39.9,63.4c-0.9,0-1.7-0.1-2.6-0.1c1.9-2.6,5.6-2.5,7.8,0.1c-0.7,0.9-1.6,0.7-2.5,0.5c0.4,1,1,1.8,2.2,1.7
	c0.6,0,1.2,0,1.7,0.2c0.2,0.1,0.4,0.3,0.5,0.5c0.8,3.3-1.5,5.2-3.3,7.2c-1.2,1.3-5.2,0.6-6.6-0.9c-1.5-1.6-2-3.5-2.2-5.7
	c-0.1-1,0.7-0.6,1.1-0.8C37.5,65.5,39.7,65.9,39.9,63.4z"/>
<path class="st84" d="M47,66.3c-0.2,0-0.3-0.1-0.4-0.1c-0.6-0.3-1.3-0.4-2,0c-1.1,0.4-1.8,0.3-2.2-1c-0.2-0.7-0.7-1.2-0.9-2.2
	c1.2,0.5,2.3,0.9,3.5,0.5C46.2,64.1,47,64.9,47,66.3z"/>
<path class="st85" d="M39.9,63.4c0.3,0.8-0.3,2.8-0.7,2.7C38,65.7,37,67.2,36,66.2c-0.2-0.4-1.1-0.5-0.4-1.3c0.6-0.6,1.1-1.1,2-1.1
	C38.4,63.8,39.2,64,39.9,63.4z"/>
<path class="st86" d="M38.5,70.6c1.6-0.7,3-0.7,4.8-0.2c-1,0.8-0.9,2.2-2.5,2.1C39.5,72.5,39.6,70.9,38.5,70.6z"/>
<path class="st87" d="M42.1,68.5c-1.3,1.5-1.3,1.5-2.9,0.1C40.3,68.2,41.2,69,42.1,68.5z"/>
<path class="st82" d="M44.6,66.2c0.7-1.1,1.3-0.5,2,0C45.9,66.3,45.2,66.3,44.6,66.2z"/>
</svg>
