<?xml version="1.0" encoding="utf-8"?>
<!-- Generator: Adobe Illustrator 23.1.1, SVG Export Plug-In . SVG Version: 6.00 Build 0)  -->
<svg version="1.1" id="Livello_1" xmlns="http://www.w3.org/2000/svg" xmlns:xlink="http://www.w3.org/1999/xlink" x="0px" y="0px"
	 viewBox="0 0 80 135" style="enable-background:new 0 0 80 135;" xml:space="preserve">
<style type="text/css">
	.st0{fill:#FFFFFF;stroke:#000000;stroke-width:0.2509;stroke-miterlimit:10;}
	.st1{fill:#BBC8C5;}
	.st2{fill:#B8C6C5;}
	.st3{fill:#C8D7D2;}
	.st4{fill:#C7D3D0;}
	.st5{fill:#BCCAC9;}
	.st6{fill:#7F8081;}
	.st7{fill:#838786;}
	.st8{fill:#7E8182;}
	.st9{fill:#7F8482;}
	.st10{fill:#727376;}
	.st11{fill:#747475;}
	.st12{fill:#7E8081;}
	.st13{fill:#808384;}
	.st14{fill:#78797A;}
	.st15{fill:#7A7A79;}
	.st16{fill:#7D7D80;}
	.st17{fill:#CBD7CF;}
	.st18{fill:#7B7973;}
	.st19{fill:#5A5745;}
	.st20{fill:#5A5747;}
	.st21{fill:#6A674A;}
	.st22{fill:#EBE63B;}
	.st23{fill:#5C5A4A;}
	.st24{fill:#A6A046;}
	.st25{fill:#625F4B;}
	.st26{fill:#D1D957;}
	.st27{fill:#A5A245;}
	.st28{fill:#E0DD39;}
	.st29{fill:#B4C248;}
	.st30{fill:#A8A248;}
	.st31{fill:#F2E833;}
	.st32{fill:#D9D251;}
	.st33{fill:#CECF6A;}
	.st34{fill:#BBC752;}
	.st35{fill:#C9D254;}
	.st36{fill:#C1C657;}
	.st37{fill:#EBE535;}
	.st38{fill:#D8DF43;}
	.st39{fill:#CACD45;}
	.st40{fill:#CCD35E;}
	.st41{fill:#CDD355;}
	.st42{fill:#E1E14E;}
	.st43{fill:#DBE15F;}
	.st44{fill:#D5D869;}
	.st45{fill:#C4D342;}
	.st46{fill:#E2DA3A;}
	.st47{fill:#CDD559;}
	.st48{fill:#C4CD4F;}
	.st49{fill:#D5D657;}
	.st50{fill:#D0CD61;}
	.st51{fill:#DEE258;}
	.st52{fill:#D2D14A;}
	.st53{fill:#DBD968;}
	.st54{fill:#605C46;}
	.st55{fill:#666251;}
	.st56{fill:#C1BB43;}
	.st57{fill:#C5D44B;}
	.st58{fill:#CFD943;}
	.st59{fill:#D5D05D;}
</style>
<path class="st0" d="M71.5,135h-63c-4.7,0-8.5-3.8-8.5-8.5V8.5C0,3.8,3.8,0,8.5,0h63C76.2,0,80,3.8,80,8.5v118
	C80,131.2,76.2,135,71.5,135z"/>
<path class="st1" d="M17.1,13.9c2.4-1.5,6.7-1.3,8.9,0.5c1.4,1.1,3,2.2,3.2,4.3c-0.6,0.7,0,1.4,0.1,2c0.6,3.4-0.3,6.3-3,8.3
	c-3,2.3-6.3,2.8-9.8,1c-0.4-0.2-0.7-0.4-1-0.6l0,0c-0.3-0.7-1.1-0.8-1.4-1.5c-3.4-4.8-2.6-9.7,2.1-13.2
	C16.5,14.6,17.1,14.5,17.1,13.9z"/>
<path class="st2" d="M16.5,59.2c2.5-1.9,5.2-1.7,7.8-0.5c1.8,0.8,3.6,1.9,4.2,4.1c-1,0.6,0,1.1,0.2,1.4c1.2,3.5,0.5,7.4-2,9.4
	c-3,2.4-6.3,3.3-10,1.6c-0.6-0.3-1.2-0.9-2-0.7c-0.7-0.5-1.4-1.1-1.8-2c-0.1-1.6-1.1-3.1-1.1-4.8c0.1-2.9,0.9-5.4,3.3-7.3l0,0
	c1-0.7,2.2-1,3.2-1.7c1.8,0.1,3.6-0.5,4.9,0.2c-1.5-0.6-3.4-0.4-5.3,0C17.4,59.5,16.9,59.5,16.5,59.2z"/>
<path class="st3" d="M61.3,13.4c3.3,0,6,2.3,6.8,5.6c-0.4,2,0.8,4-0.1,6c-0.3,0.6-0.4,1.2-0.7,1.7l0,0c-3.3,4.1-6.3,5.1-10.3,4
	c-3.6-1-5.5-3.6-6-7c-0.5-3.6,0.7-6.8,4.2-8.7C57.1,14.1,59,13.1,61.3,13.4z"/>
<path class="st4" d="M18,103.3c3.6-1.3,7.7,0.1,9.2,3.2c-0.1,1.2,1,1.9,1.4,2.9c1.2,3.1-0.2,7.5-3,9.7c-2.9,2.3-7.5,2.4-10.7,0.2
	c-2.8-1.9-4.2-6-3.2-9.3c1-3.3,4-6.5,8.2-6.4C19.3,103.4,18.6,103.8,18,103.3z"/>
<path class="st5" d="M66.1,73.6l0,0.2l-0.2,0c-2.7,1.9-5.7,3-9.1,2.3c-5.2-1.8-7-7-5.6-11.1c1.3-3.8,4.3-6.1,8.1-6.2
	c3.8-0.1,6.9,2,8.4,5.9c0.2,0.5,0.4,1,0.5,1.6C68.8,69,67.3,71.3,66.1,73.6z"/>
<path class="st6" d="M18,103.3c1.1,0.1,2.3-0.2,3.5,0.3c-2.6,0-4.9,0.6-6.8,2.4c-2.7,2.4-3.6,6.2-2.2,9.8c1.3,3.1,4.6,5.1,8.3,4.8
	c3.5-0.3,6.5-2.8,7.4-6.1c0.6-2.3,0.4-4.4-0.9-6.4c-0.3-0.4-1.1-1-0.1-1.5c4,4.7,1.9,10.7-1.8,13.2c-4,2.8-9.9,1.8-12.8-2.1
	c-3.2-4.3-1.4-10.3,2-12.6C15.7,104.3,16.8,103.7,18,103.3z"/>
<path class="st7" d="M61.3,13.4c-0.5,0.7-1.3,0.4-2,0.6c-3.7,0.7-6.8,2.3-7.8,6.4c-0.9,3.8,0.9,7.6,3.5,9.2c3,1.9,7.5,1.5,10.2-0.9
	c0.7-0.6,1.1-1.5,2.1-1.9c-1.1,3-5.1,5.3-8.6,4.8c-5.2-0.8-7.8-4.5-8.1-7.8c-0.4-4.2,1.8-8.5,6.5-9.9c0.3-0.1,0.6-0.2,0.9-0.3
	C59,13,60.1,13,61.3,13.4L61.3,13.4z"/>
<path class="st8" d="M67.8,66.1c-0.5-1.7-1.3-3.3-2.6-4.5c-2.8-2.6-6.2-3.5-10-1.3c-3.1,1.7-4.7,5.8-3.9,9.3c0.7,3,2.7,4.7,5.2,6.2
	c0.2,0.1,0.2,0.2,0.2,0.3c-0.1,0.1-0.1,0.1-0.2,0.1c-3.2-1.3-5.4-3.3-6-7c-0.8-5.3,2.9-11,9.3-10.8c0.6,0,1.1,0.1,1.7,0.1
	c0.8,0.4,1.7,0.3,2.4,0.9l0,0c0.5,0.3,1,0.5,1.4,1c0.2,0.4,0.6,0.7,1,0.9c0.5,0.4,0.7,0.9,1,1.4c0.1,0.4,0.1,0.8,0.5,1
	c0.5,0.3,0.1,1,0.6,1.4l0,0c0.1,0.1,0.1,0.2,0.1,0.3c0,0.1,0,0.2,0,0.2C68.3,65.9,68.1,66.1,67.8,66.1z"/>
<path class="st9" d="M61.6,120.9c-3,1.4-5.6,0.3-7.9-1.4c-5.6-4.1-3.9-12.8,1.9-15.3c0.6-0.3,1.2-0.4,1.8-0.6c2-0.2,3.9-0.4,5.8,0.5
	l0,0c0.2,0.2,0.2,0.4,0.2,0.7c-0.1,0.3-0.2,0.4-0.5,0.5c-1.7-0.1-3.4-0.7-5.2-0.2c-4.2,1.2-6.4,4-6.1,8.2c0.3,3.8,3.2,6.7,7.2,7.1
	c0.7,0.1,1.4,0,2.1,0.2C61.3,120.6,61.4,120.7,61.6,120.9z"/>
<path class="st10" d="M14.6,74.6c0.5-1.1,1.1-0.2,1.5,0.1c2.9,1.7,5.8,1.5,8.6-0.1c3.8-2.1,5.2-6.9,3.2-10.9
	c-0.2-0.5-0.8-0.8-0.8-1.6c0.6,0,0.8,0.6,1.3,0.7c2.5,4.4,1.2,10.4-4.4,12.9c-2.3,1-4.6,0.9-7,0.1C16.2,75.6,15.4,75.1,14.6,74.6z"
	/>
<path class="st11" d="M15.4,29.5c0.8-0.1,1.4,0.4,2,0.7c5.2,2.1,11.1-1.4,11.6-7.1c0.1-1.3-0.3-2.7-0.7-4c-0.3-0.9,0.4-0.5,0.8-0.4
	c1.9,4.3,0.2,10.5-5.7,12.2C20.6,31.8,17.8,31.7,15.4,29.5z"/>
<path class="st12" d="M61.6,120.9c-0.2,0-0.5-0.1-0.7-0.1c0.2-1.1,1.3-1.1,2-1.5c4.9-2.8,5.8-8.2,1.8-12.2c-0.6-0.6-1.4-1.1-1.5-2.1
	c0-0.2,0-0.3,0-0.5c1.4-0.4,1.9,1,2.8,1.6c0.2,0.2,0.3,0.3,0.5,0.5c0.7,0.4,0.6,1.2,1.1,1.7c1.8,4.4,1.1,8-2.2,11
	C64.3,120.3,63.1,121,61.6,120.9z"/>
<path class="st13" d="M17.1,13.9c0.3,0.2,0.4,0.4,0,0.7c-1,0.6-1.9,1.2-2.6,2c-2.3,2.6-3.3,7.2-0.1,11.4c-0.1,0.2-0.2,0.3-0.4,0.4
	C9.8,24.8,11.1,16.5,17.1,13.9z"/>
<path class="st14" d="M15,60.6c0,0.4-0.3,0.7-0.6,1c-2.6,2.8-2.8,6-1.6,9.5c0.2,0.5,1,1,0,1.6c-2.6-4.1-1.6-8.6,0.8-11.3
	C14,61,14.3,60.5,15,60.6z"/>
<path class="st15" d="M56.5,76.2c0-0.1,0-0.3,0-0.4c2.7,0.1,5.5,0.4,7.9-1.5c0.4-0.4,0.9-0.7,1.5-0.5C63.3,76.7,60.1,77.1,56.5,76.2
	z"/>
<path class="st16" d="M67.3,26.7c0.6-2.2,1.2-4.3,0.4-6.6c-0.2-0.4-0.1-0.9,0.5-1.1c0.7,2.3,1,4.5,0.1,6.8
	C68,26.2,67.9,26.7,67.3,26.7z"/>
<path class="st15" d="M67.8,66.1c0.2-0.2,0.3-0.4,0.5-0.6c0.5,1.3,0.4,2.6,0.2,3.9c-0.5,1.5-1,3.1-2.4,4.1c-0.1-0.4,0-0.8,0.3-1.1
	C67.7,70.6,68.1,68.4,67.8,66.1z"/>
<path class="st17" d="M63.2,104c-1.9-0.5-3.8-0.6-5.8-0.5C59.4,103,61.4,102.6,63.2,104z"/>
<path class="st17" d="M66,106c-1-0.3-1.6-1.4-2.8-1.6c0-0.1,0-0.3,0-0.4C64.7,104,65.5,104.8,66,106z"/>
<path class="st5" d="M68.5,69.4c-0.1-1.3-0.1-2.6-0.2-3.9c0-0.2,0.1-0.3,0.1-0.5C69.1,66.5,69.1,68,68.5,69.4z"/>
<path class="st18" d="M16.5,59.2c0.4,0,0.9-0.1,1.3-0.1c0.1,0.1,0.1,0.1,0.2,0.2c-1,0.5-1.9,1.2-3,1.4C14.9,59.6,16,59.8,16.5,59.2z
	"/>
<path class="st5" d="M63.9,59.5c-0.9,0-1.7-0.3-2.4-0.9C62.4,58.5,63.4,58.3,63.9,59.5z"/>
<path class="st3" d="M61.3,13.4c-1.1,0-2.2,0-3.3,0.1C59,12.7,60.1,12.6,61.3,13.4z"/>
<path class="st17" d="M67.6,108.3c-0.7-0.4-0.8-1.1-1.1-1.7C67.5,106.7,67.6,107.5,67.6,108.3z"/>
<path class="st11" d="M14,28.4c0.1-0.1,0.3-0.3,0.4-0.4c0.4,0.4,1.2,0.6,1,1.4C14.8,29.4,14.4,29,14,28.4z"/>
<path class="st5" d="M65.3,60.4c-0.6-0.2-1.2-0.3-1.4-1C64.6,59.4,65.2,59.6,65.3,60.4z"/>
<path class="st5" d="M67.3,62.8c-0.5-0.3-0.9-0.8-1-1.4C67,61.5,67.4,62,67.3,62.8z"/>
<path class="st5" d="M68.4,65.1c-0.5-0.3-0.4-0.9-0.6-1.4C68.4,64,68.4,64.5,68.4,65.1z"/>
<path class="st19" d="M20.8,14.9c4.1,0.1,7.6,3.7,7.5,7.7c-0.1,4.1-3.4,7.4-7.6,7.2c-4.8-0.3-7.6-3.3-7.5-7.6
	C13.4,17.9,16.4,14.9,20.8,14.9z"/>
<path class="st20" d="M20.6,75c-4.2,0.1-7.7-3.1-7.8-7c-0.1-4.4,3.1-7.8,7.5-7.9c4.2-0.1,7.7,3.3,7.7,7.5
	C28.1,71.5,24.8,74.9,20.6,75z"/>
<path class="st18" d="M17.8,59.1c2-0.9,4-0.6,5.9,0.2c-1.9-0.4-3.8-0.3-5.8,0C17.9,59.2,17.8,59.1,17.8,59.1z"/>
<path class="st21" d="M63.8,18.7c0.6-0.2,0.6-0.9,1.1-1.2c2.3,2.1,3,4.6,1.9,7.4c-1.1,2.9-3.1,4.5-6.2,4.9c-5.6,0.7-9.4-3.9-8.3-9.4
	c1-4.8,7.7-7.2,11.5-4.1c0.5,0.4,0.5,0.7,0,1.1c-0.4,0.5-1,0.9-1.3,1.6C63,19.1,63.2,18.3,63.8,18.7z"/>
<path class="st22" d="M63.8,18.7c-0.1,0.1-0.2,0.2-0.3,0.3c-0.7,1.5-0.7,1.5-2.1,0.1c0.7-0.8,1.5-1.2,2.5-1.6
	C63.8,17.9,63.8,18.3,63.8,18.7z"/>
<path class="st23" d="M19.4,119.7c-3.4-0.6-5.8-2.3-6.6-5.9c-1-4.5,2.6-9,7.2-9c0.2,0,0.3,0.3,0.5,0.4c0,0.1,0,0.2,0,0.3
	c-0.2,0.9-0.7,1.8-0.7,2.8c0,0.7,0.1,1.5-0.8,1.8c-0.9,0.3-1.2-0.5-1.7-1c-0.3-0.3-0.5-0.6-0.9-0.7c-0.1,0-0.2,0.2,0,0.3
	c2,2.6,2,2.6-1.8,3.4c1.7,0.8,3.6,1.4,1.7,3.6c1.2-0.1,1.7-1.7,3-0.9C19.2,116.5,20.6,118.1,19.4,119.7z"/>
<path class="st23" d="M20.5,105.3c3-0.3,5.7,1.5,6.8,4.4c1.1,3,0.3,6.2-2.2,8.1c-0.2-0.1-0.4-0.2-0.5-0.4c-0.4-1.4-1.4-2.3-2.6-3
	c-0.1-0.3,0-0.6,0.1-1c0.2-1.7,1.3-3.2,1.8-4.9c-4,1.8-4,1.8-3.7-2.6C20.2,105.6,20.3,105.4,20.5,105.3L20.5,105.3z"/>
<path class="st23" d="M25.1,117.7c-0.9,1.5-2.5,1.8-4,2c-1.4,0.2-1.3-0.9-1.1-1.6c0.3-1.1,0.2-2.2,0.5-3.2c0.4-0.4,0.8-0.5,1.3-0.3
	c0.9,1.2,2.1,2.1,3.2,3.1L25.1,117.7z"/>
<path class="st24" d="M20.7,114.9c0.4,1,0.5,2-0.1,3.1c-0.4,0.7-0.7,1.5,0.5,1.8c-0.6,0.5-1.2,0.5-1.7,0c0.4-0.7-0.1-1.3-0.2-1.8
	c-0.4-1-0.3-2,0-3c0.1-0.1,0.2-0.2,0.2-0.3C19.9,114.4,20.3,114.4,20.7,114.9z"/>
<path class="st25" d="M65.9,68c1.3-0.1,1.2,0.8,0.9,1.6c-0.8,2.6-2.6,4.4-5.2,5.2c-4,1.2-8.5-1.2-9.4-4.9c-1-4.1,0.9-8.8,5.9-9.6
	c3.8-0.7,7.9,1.7,8.8,5.9c0.1,0.6,0.2,1.4-0.9,1.1c-0.7,0.5-1.5-0.2-2.4,0.4C64.3,68.3,65.2,67.6,65.9,68z"/>
<path class="st26" d="M65.9,68c-0.8,0.6-1.8,0.4-2.6,0.8c-0.7-0.7-0.1-1.4-0.3-2.1c1.1-0.4,2,0.3,3,0.4C66,67.5,65.9,67.7,65.9,68z"
	/>
<path class="st17" d="M63.2,105c1.7,1.3,3.3,2.7,4.1,4.8c1.4,3.8-0.2,8-3.8,9.9c-0.8,0.4-1.7,0.8-2.6,1.2c-2,0.1-4,0-5.8-1.1
	c-2.8-1.7-4.2-4.3-4-7.6c0.2-3.6,1.9-6.2,5.4-7.4C58.8,103.9,61,104,63.2,105z"/>
<path class="st27" d="M18.8,24.1c-0.1,1.4-0.6,2.4-2,2.8c-0.2,0.1-0.5,0.2-0.6-0.1c-0.1-0.2-0.2-0.5-0.1-0.7c0.3-0.7,0.9-1.3,1-2.2
	c-0.9-0.6-2.1-0.6-2.9-1.4c1.1-1,1.1-1.1,3.3-0.5c0.4,0.1,0.3-0.1,0.4-0.3c0.6-1.4,1.6-1.9,3.1-1.9c0.6,0,1.2-0.3,1.6-0.9
	c0.6-0.9,1.5-1.3,2.7-1.7c0.3,1.2-0.3,2-0.8,2.7c-0.5,0.8-0.9,1.7-1,2.7c-0.8,0.5-1.5-0.1-2.3-0.2C19.8,22.4,19,22.8,18.8,24.1z"/>
<path class="st28" d="M18.8,24.1c-0.5-1.9-0.3-2,1.4-2.2c1.3-0.2,2.2,0.3,3.3,0.7c0.1,1.1-1,1.5-1.3,2.4l0,0
	C20.9,25,19.6,25.5,18.8,24.1z"/>
<path class="st27" d="M15.9,17.6c1-0.1,1.7,0.5,2.4,1c0.7,0.6,0.4,1.1-0.1,1.6c-0.5,0.6-1,0.3-1.3-0.2
	C16.3,19.4,15.7,18.7,15.9,17.6z"/>
<path class="st27" d="M24.1,23.8c-0.2-0.9-0.4-1.8,0.3-2.1c1-0.4,1.9,0.3,3,0.8C26.3,23.3,25.3,23.6,24.1,23.8z"/>
<path class="st27" d="M20.6,15.4c0.6,0.9,0.8,1.7,0.9,2.4c0.1,1-0.6,1.3-1.3,1.2c-0.8-0.1-0.7-0.8-0.5-1.3
	C20,17.1,19.8,16.2,20.6,15.4z"/>
<path class="st29" d="M22.1,25c2.3-0.7,2-1,3,2.3C23.9,26.7,22.5,26.6,22.1,25C22.1,25,22.1,25,22.1,25z"/>
<path class="st28" d="M20.5,28.8c-0.8-0.6-0.7-1.5-0.8-2.2c-0.1-0.7,0.4-1,1-0.9c0.6,0.1,1,0.5,0.8,1.2
	C21.2,27.4,21.2,28.2,20.5,28.8z"/>
<path class="st30" d="M18.5,69.6c0.3,2-1.4,1.9-2.5,2.6c-0.9-1.4,1.2-1.9,0.5-3.3c-0.4-0.2-1.1-0.4-1.8-0.6
	c-0.4-0.1-0.8-0.3-0.8-0.7c0-0.4,0.5-0.6,0.9-0.7c1-0.3,2.1-1.2,2.6,1c0.6-1.2,0.8-2.3,1.8-2.8c0.5-0.2,0.3-0.6,0.2-1
	c-0.3-1.2,0.5-2.1,0.9-3.1c0.4,1.1,1.8,2.1,0.4,3.4c-0.5,0.5,0.4,0.5,0.6,0.6c2,1.2,2.2,1.8,1.5,3.8C20,67.4,19.6,67.5,18.5,69.6z"
	/>
<path class="st31" d="M18.5,69.6c-0.4-2.1-0.3-2.3,1.8-2.3c1.1,0,2.2,0,2.6,1.4c0,0-0.1,0-0.1,0c-0.3,0.3-0.6,0.7-0.9,0.9l-0.1,0
	c-1,0.3-1.9,0.3-2.9,0.1C18.8,69.7,18.7,69.6,18.5,69.6z"/>
<path class="st32" d="M20.3,74.3c-1.1-0.9-0.8-2.2-1.1-3.3c2.4-0.4,2.4-0.3,1.8,1.7C20.7,73.2,20.5,73.7,20.3,74.3z"/>
<path class="st33" d="M23.6,65.6c-1.5-1.4-1.5-1.4-0.1-2.4c0.4-0.3,0.8-0.8,1.7-0.7C24.7,63.7,24.5,64.8,23.6,65.6z"/>
<path class="st34" d="M23.8,69.2c0.2,1.1,1.3,1.8,1.1,3c-2.5-0.5-2.7-0.7-2.1-2.5l0,0C23.1,69.5,23.5,69.3,23.8,69.2
	C23.8,69.2,23.8,69.2,23.8,69.2z"/>
<path class="st35" d="M15.8,62.8c0.9,0.1,1.4,0.5,2,0.9c0.3,0.2,0.7,0.4,0.6,0.9c-0.1,0.4-0.4,0.6-0.8,0.8c-0.5,0.3-0.7-0.2-0.9-0.5
	C16.2,64.4,15.5,63.8,15.8,62.8z"/>
<path class="st36" d="M23.8,69.2c0-0.1,0-0.2,0-0.2c0.1-2.7,0.3-2.8,2.9-1.2C25.7,68.2,24.7,68.7,23.8,69.2
	C23.8,69.2,23.8,69.2,23.8,69.2z"/>
<path class="st30" d="M18.9,69.8c1,0,1.9,0,2.9-0.1C20.9,70.5,19.9,70.5,18.9,69.8z"/>
<path class="st30" d="M21.9,69.7c0.1-0.5,0.5-0.7,0.9-0.9c0,0.3,0,0.6,0,0.9c0,0,0,0,0,0C22.5,69.7,22.2,69.7,21.9,69.7z"/>
<path class="st37" d="M62.2,23c0.1,0.8-1.6,2.3-2.5,2.1c-0.8-0.2-1.6-0.3-2.1-0.9c-0.4-0.4-0.7-0.9-0.6-1.5c0.1-0.7,0.8-0.6,1.4-0.7
	c1.1-0.2,2.3-0.6,3.3,0.3C61.9,22.5,62.2,22.6,62.2,23z"/>
<path class="st38" d="M56.4,21.2C56,24,55.8,24,53,22.6C53.9,21.7,55,21.4,56.4,21.2z"/>
<path class="st39" d="M63.2,23.7c-0.1-2.3-0.1-2.4,1.7-1.9c0.6,0.2,1.3,0,1.7,0.9C65.6,23.5,64.4,23.3,63.2,23.7z"/>
<path class="st40" d="M64.2,27.5c-1,0-1.5-0.7-2.2-0.9c-0.4-0.1-1-0.3-0.8-1c0.2-0.5,0.6-0.7,1-0.9c0.6-0.3,0.8,0.2,1,0.6
	C63.8,25.9,64.2,26.6,64.2,27.5z"/>
<path class="st41" d="M56.5,24.2c1.6,1.6,1.6,1.7,0,2.4c-0.2,0.1-0.4,0.2-0.7,0.3C55.6,27,55.4,27,55,27.2
	C55,25.9,55.9,25.2,56.5,24.2z"/>
<path class="st42" d="M55.4,17.9c1,0.1,1.8,0.7,2.5,1.4c-1.4,1.5-1.4,1.6-2.1,0C55.5,18.9,55,18.6,55.4,17.9z"/>
<path class="st43" d="M59.7,16c0.6,0.6,0.7,1.4,0.7,2.2c0,0.7-0.5,0.9-1.1,0.9c-0.7,0-0.8-0.4-0.6-1C59,17.4,58.9,16.5,59.7,16z"/>
<path class="st44" d="M59.3,29.1c-0.2-1-0.4-1.7-0.6-2.5c-0.1-0.7,0.4-0.8,0.9-0.8c0.6,0,1,0.3,0.8,0.8
	C60.2,27.4,60.3,28.3,59.3,29.1z"/>
<path class="st24" d="M20.5,105.2c0.1,1.4,1.2,2.7-0.1,4.4c1.8-0.5,2.7-2.2,4.3-2.2c0.1,0.1,0.2,0.2,0.2,0.2
	c-0.1,1.2-0.5,2.4-1.4,3.2c-0.9,0.9,0.3,2.3-1,2.9c-0.2-0.1-0.4-0.3-0.5-0.5c-0.6-0.9-1.5-1.3-2.5-0.8c-1.3,0.6,0.1,1.5-0.1,2.3
	c0,0-0.1,0.2-0.1,0.2c-1.3,0.4-2.1,1.8-3.6,2c-0.5-0.6,0.1-1,0.2-1.5c0.1-0.5,0.7-0.9,0.7-1.6c-0.4-0.6-1.3-0.3-1.9-0.7
	c-0.4-0.3-1.2-0.2-1.2-0.9c0-0.6,0.7-0.6,1.1-0.7c0.9-0.3,1.8-0.7,3-0.3c-1.2-1-2.2-2.1-2.4-3.9c1.3,0.6,2.6,0.7,3,2.2
	c0.1,0.4,0.3,0.6,0.7,0.4c0.3-0.2,0.4-0.4,0.4-0.8C19,107.5,19.2,106.2,20.5,105.2z"/>
<path class="st37" d="M19.3,114.7c-0.5-0.6-1.7-1-1.3-2c0.3-0.8,1.2-0.8,2-1c1.1-0.2,1.8,0.3,2.3,1.2c0.1,0.3,0.1,0.6,0.1,0.9
	c-0.2,0.1-0.4,0.2-0.3,0.5c0.2,0.2,0.2,0.4,0,0.6c-0.5,0-0.9,0-1.4-0.1C20.2,114.8,19.8,114.8,19.3,114.7z"/>
<path class="st24" d="M22.1,114.9c0-0.2,0-0.4,0-0.6c2,0.3,2.4,0.8,2.9,3.3c-1.1-0.1-1.9-0.9-2.8-1.5
	C21.8,115.8,21.7,115.4,22.1,114.9z"/>
<path class="st45" d="M26.6,112.5c-0.4,0.6-1,0.7-1.5,0.9c-0.4,0.2-0.9,0.5-1.3,0.1c-0.4-0.5-0.4-1.2,0-1.8c0.3-0.5,0.8-0.3,1.3-0.1
	C25.5,111.9,26.2,111.9,26.6,112.5z"/>
<path class="st46" d="M56.9,69.1c0-3,0.1-3.1,3-2.3c0.4,0.1,0.7,0.4,1.1,0.5c1.2,0.2,1.5,0.8,0.9,1.7c-0.8,1.2-2.5,1.6-3.8,0.9
	C57.6,69.7,57.2,69.4,56.9,69.1L56.9,69.1z"/>
<path class="st47" d="M55.9,69.1c-0.6-0.2-1.2-0.4-1.7-0.7c-0.5-0.2-1.1-0.1-1.4-0.7c1.4-1.1,1.4-1.1,3.4-1.3
	C56.1,67.3,56,68.2,55.9,69.1L55.9,69.1z"/>
<path class="st48" d="M64,72.4c-1.2-0.2-2.1-0.7-3.1-1.4c0.4-0.8,1.1-1.6,1.7-1.4C63.8,70,63.5,71.4,64,72.4z"/>
<path class="st49" d="M56.9,69.1c0.1,0.2,0.1,0.5,0.2,0.7c0.9,1,0.4,1.5-0.6,2c-0.5,0.2-1,0.4-1.6,0.7c-0.4-1.4,1.2-2.1,1-3.3
	c0,0,0,0,0,0C56.2,69.1,56.6,69.1,56.9,69.1C56.9,69.1,56.9,69.1,56.9,69.1z"/>
<path class="st50" d="M58.3,64c0-1.1,0.4-2,1-3.1c1,0.9,1.4,1.9,1,2.9C60,64.5,59,64.4,58.3,64z"/>
<path class="st51" d="M63.9,62.6c0.3,1.1-0.3,1.7-0.7,2.4c-0.2,0.3-0.4,0.7-0.9,0.5c-0.4-0.2-0.9-0.5-1-1c-0.1-0.5,0.4-0.6,0.7-0.9
	C62.5,63.2,63,62.7,63.9,62.6z"/>
<path class="st52" d="M55,62.9c3,1.2,3,1.3,1.4,2.7C55.4,64.6,55.4,64.6,55,62.9z"/>
<path class="st53" d="M59.1,74.1c-0.2-0.7-0.4-1.3-0.6-2c-0.1-0.4-0.2-0.8,0.3-1c0.3-0.1,0.8-0.1,1.1,0c0.5,0.2,0.4,0.7,0.2,1
	C59.8,72.7,60.1,73.7,59.1,74.1z"/>
<path class="st54" d="M63.9,118.4c-3.2,2.5-7.4,1.9-9.9-0.8c-2.2-2.2-2.5-4.9-1.5-7.7c0.9-2.7,2.9-4.4,5.7-4.8c2-0.3,4,0.1,5.6,1.3
	c0.4,0.3,0.1,0.5,0,0.8c-1,1-2.1,1.9-1.7,3.5c-0.1,0.2-0.3,0.3-0.6,0.3c-0.3,0-0.6,0.1-0.9,0c-1.9-0.4-3.2,0-3.5,2.3
	c-0.2,1.3-0.9,1.2-1.3,0c-0.2-0.9-0.7-1.6-1.6-0.9c-0.4,0.3,0.2,0.4,0.4,0.5c2.3,0.8,1.7,2.2,0.9,3.7c0.7-0.4,1.3-1,2.1-1.5
	c1-0.7,1.8-0.6,1.9,0.9c0,0.6,0,1.3,0.2,2c0.1-0.7,0.2-1.3,0.2-1.9c-0.5-1.3,0-1.7,1.3-1.4c0.9,1,2.3,1.4,3.1,2.5
	C64.2,117.8,64.1,118.1,63.9,118.4z"/>
<path class="st55" d="M63.9,118.4c0-0.3,0-0.6,0-0.8c-0.4-1.3-1.4-2.2-2.1-3.3c-0.2-1.2-0.7-2.3-0.8-3.4c0,0,0.1-0.1,0.2-0.1
	c0.1,0,0.1,0,0.2,0.1c0.2,0,0.4,0,0.6-0.1c0.3-0.4,0.7-0.7,1.2-0.9c0.1-0.2,0.2-0.4,0.3-0.6c0.4-0.6,0.4-1.6,1.2-1.6
	c0.9-0.1,1.2,1,1.5,1.6c0.4,0.7,0.6,1.5,0.7,2.2c0.1,0.5-0.2,0.7-0.7,0.6c-0.8,0.1-1.6,0.1-2.6,0.3c0.7,0.6,1.5,0.1,2,0.5
	c0.6-0.1,1.3-0.3,1.2,0.8C66.6,115.7,65.7,117.3,63.9,118.4z"/>
<path class="st56" d="M65.7,112.8c-0.4,0.4-1,0.4-1.5,0.5c-0.4,0.1-0.9,0.4-1.2-0.1c-0.3-0.5-0.3-1.1,0-1.6c0.3-0.5,0.8-0.3,1.3-0.2
	c0.6,0.3,1.4,0,2,0.6C66,112.3,65.9,112.5,65.7,112.8z"/>
<path class="st56" d="M63.1,109.8c-0.2,0.6-0.6,0.9-1.2,0.9c-0.2-0.3-0.3-0.6-0.5-0.8c-0.8-0.7-0.5-1.1,0.2-1.6
	c0.7-0.4,1.2-0.9,2-1.1C63.7,108.1,62.5,108.8,63.1,109.8z"/>
<path class="st56" d="M61.4,110.8c0.2,1.1,1,2.2,0.6,3.4c0.1,0.7-0.2,1-0.9,0.9c-0.6,0.1-1.5-0.1-0.7,1c-0.6,0.6-1.2,0.5-1.8,0.1
	c0-0.3,0.3-0.6,0-0.8c-0.3-0.2-0.6-0.1-0.8,0.2c-0.6,1.1-1.7,1.5-2.8,1.8c-0.4-0.6-0.1-1,0.1-1.4c0.7-1.6,0.7-1.6-0.8-2.6
	c0.6-0.6,1.2-0.5,1.8-0.1c0.1,0.2,0.1,0.8,0.5,0.5c0.2-0.1,0-0.8,0-1.1c0.2-1.8,1.1-2.6,2.8-2.1C60,110.7,60.8,110,61.4,110.8z"/>
<path class="st56" d="M59.5,105.7c0.5,0.6,0.4,1.2,0.5,1.7c0.3,1.6,0.3,1.8-1.3,1.9c-1.1,0.1-1.5,1.1-2.5,1.4
	c-0.8-0.7-1.1-1.7-1.6-2.7c1.3-0.3,2,0.9,3.1,0.8C58.7,108.2,58.1,106.3,59.5,105.7z"/>
<path class="st57" d="M61.1,115.1c0.4-0.2,0.7-0.5,0.9-0.9c1.5,0.9,2.1,1.8,1.9,3.3c-0.7-0.4-1.4-0.7-2.1-1.1
	C61.2,116.1,60.9,115.8,61.1,115.1z"/>
<path class="st58" d="M56,113.3c-0.6,0-1.2,0-1.8,0.1c-0.6-0.1-1.3,0.1-1.6-0.7c0.3-0.5,0.9-0.6,1.4-0.8C56,111,56,111,56,113.3z"/>
<path class="st59" d="M58.6,116.2c0.6,0,1.2-0.1,1.8-0.1c0,1.1-0.3,2.1-1,3.1C58.8,118.2,58.6,117.2,58.6,116.2z"/>
</svg>
