<?xml version="1.0" encoding="utf-8"?>
<!-- Generator: Adobe Illustrator 23.1.1, SVG Export Plug-In . SVG Version: 6.00 Build 0)  -->
<svg version="1.1" id="Livello_1" xmlns="http://www.w3.org/2000/svg" xmlns:xlink="http://www.w3.org/1999/xlink" x="0px" y="0px"
	 viewBox="0 0 80 135" style="enable-background:new 0 0 80 135;" xml:space="preserve">
<style type="text/css">
	.st0{fill:#FFFFFF;stroke:#000000;stroke-width:0.2509;stroke-miterlimit:10;}
	.st1{fill:#D4D8D0;}
	.st2{fill:#D4DCD7;}
	.st3{fill:#E1E6E2;}
	.st4{fill:#DCE2DB;}
	.st5{fill:#D9DDD7;}
	.st6{fill:#A4ACAD;}
	.st7{fill:#889599;}
	.st8{fill:#9DA4A7;}
	.st9{fill:#A0A8A7;}
	.st10{fill:#91959B;}
	.st11{fill:#A7ACB2;}
	.st12{fill:#A6AEB1;}
	.st13{fill:#96A0A7;}
	.st14{fill:#80979D;}
	.st15{fill:#909593;}
	.st16{fill:#8F94A1;}
	.st17{fill:#9B9997;}
	.st18{fill:#68654B;}
	.st19{fill:#5C5A46;}
	.st20{fill:#878050;}
	.st21{fill:#626252;}
	.st22{fill:#5C5846;}
	.st23{fill:#5E5948;}
	.st24{fill:#E4E7DE;}
	.st25{fill:#E2E5E0;}
	.st26{fill:#E3DD4C;}
	.st27{fill:#E5DD3F;}
	.st28{fill:#E9E548;}
	.st29{fill:#E4DE48;}
	.st30{fill:#E3DB4C;}
	.st31{fill:#5F5D4B;}
	.st32{fill:#66624C;}
	.st33{fill:#9E9444;}
	.st34{fill:#7C733E;}
	.st35{fill:#EAE13D;}
	.st36{fill:#EBE647;}
	.st37{fill:#AA9D55;}
	.st38{fill:#EAE53E;}
	.st39{fill:#E7E13E;}
	.st40{fill:#E8DF3C;}
	.st41{fill:#E9E13F;}
	.st42{fill:#A59B44;}
</style>
<path class="st0" d="M71.5,135h-63c-4.7,0-8.5-3.8-8.5-8.5V8.5C0,3.8,3.8,0,8.5,0h63C76.2,0,80,3.8,80,8.5v118
	C80,131.2,76.2,135,71.5,135z"/>
<path class="st1" d="M48.3,44.6c-0.1,4.6-3.1,7.7-8.1,7.6c-5-0.1-7.8-3.6-7.9-7.9c0-3.4,3.1-8.1,8.1-7.9C45,36.6,48.4,40,48.3,44.6z
	"/>
<path class="st2" d="M26.2,15.3c0.1,0.1,0.3,0.3,0.4,0.4c3.4,4.5,3.3,7.2-0.4,11.3c-0.2,0.2-0.4,0.5-0.5,0.8
	c-2.7,2.3-7.8,1.6-10.3-1.4c-2.3-2.7-2.5-6.7-0.2-9.9c2.3-3.2,5.8-4.1,9.6-2.4C25,15,25.8,14.9,26.2,15.3z"/>
<path class="st3" d="M58.4,29.3c-3.3-0.8-5.6-4.2-5.8-7.4c-0.1-1.4,0.8-2.5,1.3-3.7c1.2-1.1,2.1-2.6,3.6-3.3
	c3.2-1.5,5.9-0.7,8.5,1.4l0,0c4.1,4.3,2.1,10.5-2.3,12.3C62,29.4,60.1,28.5,58.4,29.3z"/>
<path class="st4" d="M27.6,73.3c-0.3,1.4-1.2,2.3-2.4,3c-2.3,0.4-4.5,1.9-7.1,0.8c-0.9-0.4-1.7-1.1-2.7-1.2
	c-0.2-0.2-0.5-0.5-0.7-0.7c-2.7-4.7-2.3-8.3,1.3-11c2.3-1.8,4.7-2.3,7.4-1c3.5,1.3,5,4.4,4.3,8.9l0,0C27.3,72.4,27.3,72.9,27.6,73.3
	z"/>
<path class="st5" d="M26.2,119c-0.6,1.2-1.6,2-2.9,2.4c-1.7,0-3.4,0.6-5.1,0.2c-5.2-1.3-7.4-6.9-4.4-11.5c0.6-0.9,1.7-1.5,1.9-2.7
	c0.6-0.5,1.4-0.5,2.1-0.8c1.4,0.5,2.8-0.1,4.2,0.3c4,1,6.6,5.7,5.1,9.7C26.7,117.4,26,118.1,26.2,119z"/>
<path class="st6" d="M53.6,120c-2.4-2.4-3-5.2-1.7-8.3c1.3-3,3.7-4.8,7-5.1c2.6-0.2,4.8,0.8,6.3,3.1c0.1,0.2,0.1,0.5,0,0.7
	c-0.9,0.3-1.3-0.5-1.8-0.9c-2.7-1.8-5.8-1.9-8.2-0.1c-2.3,1.8-3.1,5-2,8c0.3,0.7,0.7,1.3,0.7,2C53.8,119.7,53.7,119.9,53.6,120z"/>
<path class="st7" d="M15.6,107.4c0.2,0.1,0.5,0.1,0.8,0.2c0,0.6-0.5,0.7-0.8,1c-2.6,2.2-3.6,5.8-2.3,8.6c1.5,3.2,4.9,4.8,8.3,4.1
	c0.6-0.1,1.2-0.7,1.7,0.1c-5.2,2.1-10-1.1-11.1-5c-0.6-2.1-0.2-4.1,0.8-5.9C13.7,109.3,14.6,108.2,15.6,107.4z"/>
<path class="st8" d="M62.2,77.8c-2.8,1.4-5.4,0.8-7.6-1.1c-2.3-2.1-3.7-4.6-2.6-7.9c0.5-1.5,1.2-2.9,2.4-4c0.2-0.2,0.4-0.2,0.6,0
	c0.1,1-0.5,1.6-1,2.4c-2.5,4.6,0.3,9.7,5.5,9.9c0.8,0,1.6-0.1,2.3,0.4C62.1,77.6,62.2,77.7,62.2,77.8z"/>
<path class="st9" d="M65.1,110.4c0-0.2,0-0.5,0.1-0.7c2.7,3.1,2.5,7.5-0.5,10.5c-2.9,2.8-7.4,3-10.3,0.5c0.1-0.2,0.3-0.4,0.5-0.4
	c0.8-0.1,1.5,0.4,2.3,0.7c2.8,0.9,5,0,6.9-2c1.8-1.8,2.2-4,1.3-6.4C65.1,111.8,64.7,111.2,65.1,110.4z"/>
<path class="st10" d="M26.2,119c-0.9-0.6-0.1-1.1,0.1-1.6c0.8-1.7,1-3.4,0.4-5.3c-1-3.2-3.3-5-6.6-5.1c-0.8,0-1.8,0.4-2.4-0.4
	c1.7-0.3,3.3-0.4,4.9,0.1c4.2,1.5,6.3,6.2,4.6,10.4C27,117.8,26.6,118.4,26.2,119z"/>
<path class="st11" d="M58.4,29.3c0.6-0.9,1.5-0.4,2.2-0.4c2.9,0,5.1-1.2,6.5-3.7c1.5-2.6,1.4-5.3-0.6-7.8c-0.2-0.3-0.3-0.7-0.4-1.1
	c2.3,1.3,2.3,3.5,2.5,5.7c0.2,2.9-2,6-5,7.1C61.9,29.7,60.1,29.4,58.4,29.3z"/>
<path class="st12" d="M55.1,64.8c-0.2,0-0.4,0-0.6,0c2.8-2.2,5.9-2.8,9.1-0.9c2.9,1.7,4.1,4.3,3.9,7.6c0,0.4-0.1,0.8-0.5,1
	c-0.1-0.1-0.2-0.2-0.3-0.2c-0.6-2.1-0.5-4.4-2.4-6.1c-2-1.8-4.2-2.5-6.8-1.6C56.8,64.8,56,65.4,55.1,64.8z"/>
<path class="st13" d="M25.8,27.9c-0.5-0.4-0.1-0.7,0.1-0.9c3.4-3.6,3.6-6.2,1.1-10.3c-0.2-0.3-0.2-0.6-0.3-0.9
	c3.3,1.8,3.6,7.5,1.2,10.2C27.2,26.7,26.6,27.4,25.8,27.9z"/>
<path class="st11" d="M66.1,16.3c-0.7,0-1.1-0.5-1.7-0.8c-3.3-2-6.7-0.9-8.7,1.2c-0.5,0.6-0.9,1.3-1.8,1.5c1.7-4.1,7.2-5.8,11.3-3
	C65.6,15.5,66,15.8,66.1,16.3z"/>
<path class="st14" d="M16.1,64.3c-3.2,3.1-3.7,5.8-1.7,9.7c0.2,0.4,0.3,0.7,0.3,1.1c-3.4-3.5-2.9-8.3,1.4-11.6
	C16.3,63.8,16.3,64,16.1,64.3z"/>
<path class="st15" d="M15.4,75.8c0.5-0.3,0.9-0.1,1.3,0.2c2.4,1.5,4.9,1.5,7.4,0.1c0.4-0.2,0.8-0.5,1.1,0.2
	C21.9,78.2,18.6,78.5,15.4,75.8z"/>
<path class="st16" d="M27.7,72c0-0.6,0-1.3,0-1.9c0-3.2-1.4-5.5-4.3-6.8c-0.2-0.2-0.2-0.4,0-0.6c3.3,0.7,5.7,5.6,4.6,9.1
	C28,71.8,27.8,71.9,27.7,72z"/>
<path class="st17" d="M23.4,62.7c0,0.2,0,0.4,0,0.6c-2.6-0.8-5-0.7-7.2,1c0-0.2,0-0.5,0-0.7C18.3,61.8,20.8,61.3,23.4,62.7z"/>
<path class="st12" d="M67,72.5c-0.2,1.9-0.8,3.6-2.8,4.4c-0.1-0.1-0.1-0.2-0.2-0.3C64.9,75.1,65.1,73.1,67,72.5L67,72.5z"/>
<path class="st13" d="M26.2,15.3c-0.7-0.1-1.5,0-1.4-1.1C25.4,14.5,26,14.7,26.2,15.3z"/>
<path class="st8" d="M64.2,76.8c-0.4,0.9-1.1,1-2,0.9c0,0,0,0,0,0C62.4,76.5,63.1,76.3,64.2,76.8L64.2,76.8z"/>
<path class="st9" d="M53.6,120c0-0.2,0.1-0.5,0.1-0.7c0.6,0.1,1,0.4,1,1.1c-0.1,0.1-0.2,0.2-0.2,0.3C54,120.5,53.7,120.4,53.6,120z"
	/>
<path class="st16" d="M27.6,73.3c-0.6-0.5-0.6-0.9,0.1-1.4C27.7,72.4,27.6,72.9,27.6,73.3z"/>
<path class="st18" d="M40.2,38.3c3.7,0.2,6.4,2.3,6.6,6.2c0.2,3.2-3,6.3-6.3,6.2c-4.3-0.1-6.4-3-6.5-6.2
	C33.8,41.2,36.9,38.3,40.2,38.3z"/>
<path class="st19" d="M19.1,27.2c-3.6-1.9-4.9-5.1-3.3-8.3c1.3-2.6,3.5-3.8,6.5-3.6c2.4,0.1,4.1,1.5,4.9,3.6c1,2.6,1.1,5.2-1.4,7.2
	c-0.4-0.2-0.7-0.6-0.9-1c-0.9-1.3-1.4-2.6,0.7-3.3c-0.7-0.7-1.6-0.9-1.5-2.1c0-0.5-2.6-1.4-3.1-1.1c-0.3,0.2-0.5,0.5-0.8,0.4
	c-1-0.2-1.2-0.1-1.4,1.1c-0.2,1.2,0,2.1,0,3.1c-0.1,1.9,2.4,0.5,2.2,2.1C20.7,26.2,19.4,26.3,19.1,27.2z"/>
<path class="st20" d="M19.1,27.2c-0.3-1.5-0.3-1.5,1.5-1.8c0.2,0.2,0.8,0.1,1-0.2c1.1-1.9,2.5-0.5,3.7-0.3c0.4,0.3,0.5,0.7,0.5,1.1
	C23.8,27.9,21.6,28.3,19.1,27.2z"/>
<path class="st21" d="M67,22.1c0.2,2.8-2.6,6.2-6.6,6.1c-3.3-0.1-6.2-3.2-6.1-6.5c0.1-3.3,3.1-6.2,6.4-6.2
	C64.5,15.4,67.4,19.2,67,22.1z"/>
<path class="st22" d="M14.2,69.9c0-3.5,2.8-6.2,6.2-6.2c3.6,0,6.4,2.9,6.4,6.7c0,3.1-2.8,5.8-6,5.9C17,76.4,14.2,73.7,14.2,69.9z"/>
<path class="st23" d="M20,120.5c-4-0.1-6.7-2.8-6.6-6.6c0.1-3.1,3.2-6,6.4-6c3.6,0.1,6.5,3.2,6.4,6.9C26.2,118,23.2,120.6,20,120.5z
	"/>
<path class="st24" d="M54.6,120.4c-0.3-0.4-0.6-0.7-1-1.1c-1.9-2.6-2.2-5.4-0.6-8.3c2.2-3.9,7.8-4.7,10.7-2c0.5,0.4,0.9,0.9,1.3,1.4
	c0.9,1.9,1.9,3.8,1.1,6.1c-1.6,4.6-6.3,6.6-10.7,4.3C55.2,120.6,54.9,120.5,54.6,120.4z"/>
<path class="st25" d="M64.1,76.8c-0.8,0-1.4,0.3-1.9,1c-0.9,0-1.8-0.1-2.6,0c-5.2,0.3-8.8-5.8-6.1-10.6c0.5-0.8,1.1-1.6,1.6-2.4
	c0.6,0,1-0.3,1.5-0.6c4.6-2.4,10.2,1.1,10.4,6.4c0,0.6,0,1.3,0,1.9C65.9,73.8,65.3,75.5,64.1,76.8z"/>
<path class="st26" d="M37.7,45.6c-0.9-0.4-1.7-0.8-2.6-1.2c2.5-1.2,2.5-1.2,1.8-3.8c0.9-0.2,1.6,1,2.4,0.6c0.7-0.3,0.6-1.4,1.1-2
	c1.4,2.4,1.4,2.4,3.4,2.2c-0.1,2-0.1,2,1.9,3.1c-2.4,1.5-2.4,1.5-1.4,3.6c-0.3,0.4-0.6,0.1-0.8-0.1c-1.8-1.1-1.8-1.1-2.7,0.8
	c-0.4,0.9-0.7,1-1.4,0.3c-0.2-0.1-0.8,0.5-1.2,0c0.1-0.8,1.8-0.3,1.3-1.3c-0.6-1.2-1.3,0.2-2,0.1c-0.1,0-0.2,0-0.4,0
	C36.7,47,37.7,46.4,37.7,45.6c0.8-0.4,1.4,0.5,2.2,0.5c0.9,0,1.6-0.4,1.8-1.2c0.2-0.8-0.2-1.4-0.9-1.7c-0.8-0.4-1.4-0.1-1.9,0.5
	C38.5,44.2,38.4,45.1,37.7,45.6z"/>
<path class="st27" d="M25.3,24.9c-0.3,0.6-0.8,0.4-1.2,0.1c-1.2-0.8-2-0.5-2.4,0.9c-0.1,0.2-0.3,0.4-0.4,0.6
	c-0.3-0.4-0.5-0.8-0.7-1.2c-0.1-0.4-0.3-0.8-0.8-0.7c-0.7,0.1-1.3,0.6-2,0.5c-0.2-0.9,0.6-1.5,0.6-2.4c-0.3-0.8-1.6-0.5-2-1.4
	c0.6-0.6,1.5-0.4,2-1.1c0.1-0.9-0.7-1.6-0.5-2.5c0.9-0.1,1.4,0.8,2.2,0.8c0.9-0.4,0.5-1.7,1.4-2.1c0.8,0.5,0.5,1.6,1.2,2.1
	c0.9,0.1,1.4-0.7,2.2-0.8c0.1,0.1,0.3,0.3,0.3,0.3c-0.7,2.2-0.7,2.2,1.8,3.6c-0.9,0.4-1.6,0.7-2.4,1C24.4,23.6,24.9,24.3,25.3,24.9z
	"/>
<path class="st28" d="M59.8,19.2c0.4-0.9,0.4-1.8,1-2.6c1.6,2.2,1.6,2.2,3.5,1.6c-0.6,2.1-0.6,2.1,1.5,3.3c-0.4,0.9-2.1,0.4-2,1.7
	c0.1,0.8,0.6,1.6,0.9,2.4c-0.2,0.1-0.4,0.2-0.5,0.2c-2.7-1.3-2-1.5-3.6,1.3c-0.3,0.1-0.3-0.2-0.4-0.4c-0.7-1.9-0.7-1.9-2.5-1
	c-0.1,0.1-0.3,0.1-0.6,0.1c-0.5-1,0.6-1.7,0.6-2.8c-0.6-0.6-1.7-0.6-2.5-1.1c0.1-0.2,0.2-0.4,0.4-0.5c2.1-0.8,2.1-0.8,1.8-3
	C58.4,18.2,59.1,18.8,59.8,19.2c0.4,0.9-0.5,1.4-0.6,2.2c-0.1,0.8,0.1,1.4,0.8,1.8c0.8,0.3,1.6,0.2,2.1-0.5c0.5-0.7,0.3-1.3-0.2-2
	C61.4,19.9,60.4,19.9,59.8,19.2z"/>
<path class="st29" d="M16.8,66.4c1.1-0.2,1.5,0.8,2.4,0.8c0.8-0.5,0.5-1.6,1.1-2.2c0.6-0.1,0.6,0.3,0.8,0.7c0.8,1.8,0.8,1.8,2.4,1
	c0.3-0.1,0.5-0.4,0.9-0.2c0.3,0.2,0,0.4,0,0.6c-1,1.8-1,1.8,0.8,2.7c0.2,0.1,0.4,0.2,0.5,0.6c-0.7,0.3-1.5,0.6-2.1,0.9
	c-0.4,1.1,1,1.6,0.6,2.6c-0.9,0.1-1.5-0.7-2.4-0.7c-0.9,0.7-0.4,2-1.5,2.7c-0.2-0.4-0.4-0.7-0.5-1c-0.6-1.8-0.5-1.8-2.3-1
	c-0.1,0.1-0.3,0-0.5,0c-0.4-0.9,0.8-1.5,0.6-2.4c-0.6-0.8-1.8-0.6-2.4-1.3c0.1-0.2,0.1-0.3,0.2-0.3C17.6,68.8,17.6,68.8,16.8,66.4z"
	/>
<path class="st30" d="M19,111.8c-0.1-0.9,0.3-1.7,0.7-2.6c1.1,0.4,0.6,1.8,1.4,2.3c0.9,0.1,1.5-1,2.5-1c0.2,1-0.9,1.6-0.8,2.4
	c0.4,0.9,1.7,0.5,2.1,1.4c-2.3,1.2-2.3,1.2-1.5,3.6c-1,0.3-1.5-0.9-2.5-0.8c-0.9,0.6-0.3,2-1.3,2.6c-0.1-0.1-0.2-0.2-0.3-0.3
	c-0.5-0.6,0-1.7-0.8-2.2c-0.8-0.4-1.3,0.8-2.2,0.6c-0.4-0.4-0.1-0.7,0.1-1c0.2-0.4,0.3-0.7,0.4-1c-0.6-0.9-1.9-0.6-2.5-1.4
	c0-0.1,0.1-0.1,0.1-0.2c0.6-0.7,1.9-0.2,2.3-1.1c0.3-0.8-0.7-1.5-0.5-2.6C17.4,110.6,18,111.7,19,111.8c0.2,0.5-0.2,0.8-0.4,1.2
	c-0.5,0.7-1.1,1.4-0.3,2.3c0.5,0.6,1.2,0.8,1.9,0.5c1-0.3,1.3-1.1,1-2c-0.1-0.3-0.3-0.5-0.5-0.7C20.1,112.6,19.4,112.4,19,111.8z"/>
<path class="st31" d="M63.2,119c-2.4,2.9-7.2,2.4-9.3-0.8c-1.5-2.3-1.4-5.4,0.3-7.6c1.6-2,4.9-2.9,7.1-2c2.5,1,4.5,3.9,4.2,6.6
	C65.4,116.8,64.8,118.3,63.2,119c-0.3-0.4-0.6-0.9-0.8-1.4c-0.1-0.2-0.1-0.4-0.2-0.7c0-0.5,0-0.9,0.2-1.3c0.4-1-0.8-3-1.4-3.6
	c-1.5-1.6-2.9,0.5-4.3-0.1c0.1,1.2-1.2,2.3-0.8,3.4c0.4,0.9,0.5,2.5,2.3,2.3c0.5-0.1,0.7,0.8,0.9,1.3c0.2,0.3,0.3,0.1,0.5-0.1
	c0.1-0.2,0.3-0.2,0.5-0.3C61,119.2,62.4,117.5,63.2,119z"/>
<path class="st32" d="M59.4,76.9c-3.5,0-6-2.5-6-6.1c0-3.7,2.7-6.5,6.3-6.5c3.5,0,6.4,2.9,6.4,6.4C66,74.4,63.2,77,59.4,76.9z"/>
<path class="st18" d="M37.7,45.6c0-0.7,0.1-1.4,0.5-2.1c0.6-1.2,1.9-1.6,3-1c1.1,0.5,1.6,1.8,1.2,2.8c-0.4,1.1-1.7,1.7-2.9,1.4
	C38.7,46.6,38.4,45.9,37.7,45.6C37.7,45.6,37.7,45.6,37.7,45.6z"/>
<path class="st20" d="M18.9,21.6c0-1.5,0.8-2.4,2.3-2.5c1.4,0,2.5,1,2.5,2.3c0,1.4-1.1,2.5-2.4,2.5C19.9,24,19,23.1,18.9,21.6z"/>
<path class="st33" d="M59.8,19.2c1-0.1,1.9,0,2.6,0.8c1,1,1.1,2.1,0.2,3.2c-0.8,1-2.4,1.2-3.4,0.4c-1-0.8-1.2-2-0.5-3.1
	C59.1,20,59.5,19.6,59.8,19.2C59.8,19.2,59.8,19.2,59.8,19.2z"/>
<path class="st34" d="M20.1,72.4c-1.3-0.1-2.4-1.3-2.4-2.5c0.1-1.3,1.3-2.3,2.6-2.3c1.3,0,2.3,1.1,2.3,2.5
	C22.6,71.4,21.4,72.5,20.1,72.4z"/>
<path class="st23" d="M21.3,113c0.9,0.9,0.8,1.8,0.2,2.8c-0.5,0.9-1.4,1-2.3,0.9c-1.9-0.3-2.6-2.4-1.4-3.8c0.4-0.4,0.8-0.7,1.3-1
	c0,0,0,0,0,0C19.8,112.1,20.8,112.1,21.3,113c-0.6,0.6-1.6,0.2-2.1,1C20.5,114.7,20.8,113.7,21.3,113z"/>
<path class="st35" d="M21.3,113c-0.2,0.6,0.7,1.7-0.6,1.8c-0.8,0-1.5,0.4-2.3,0.3c-0.3-1.9-0.1-2.2,1.5-2.2
	C20.3,112.8,20.8,112.9,21.3,113C21.3,112.9,21.3,113,21.3,113z"/>
<path class="st36" d="M58.9,119.5c-0.1-0.2-0.3-0.4-0.3-0.6c-0.2-1.1-0.6-1.6-1.8-0.9c-0.3,0.2-0.7,0.5-1.2,0.1
	c0.8-1.6,0.7-3-1.5-3.2c0.6-1.1,1.6-0.9,2.1-1.5c0.1-1-0.8-1.7-0.6-2.8c1,0.2,1.6,0.9,2.5,1c0.8-0.4,0.5-1.7,1.4-2.1
	c0.9,0.5,0.6,1.6,1.2,2.2c0.9,0.1,1.4-0.7,2.5-0.8c-0.8,1.7-1,3.2,1.6,3.5c-0.6,0.9-1.5,0.7-1.9,1.2c-0.3,0.5-0.3,1,0,1.4
	c0,0.1,0.1,0.3,0.1,0.4c-0.9,1.1-1.1,1-2.4-0.3c-0.5-0.8,0.2-1.5,0.2-2.3c0-1-0.2-1.8-1.3-1.9c-0.8-0.1-1.4,0.3-1.7,1
	c-0.5,1,0,1.7,0.8,2.2c0.6,0.4,1.4,0.3,1.9,0.9c0.3,0.6,0,1.1-0.4,1.6c0,0.1-0.1,0.2-0.1,0.4C59.5,119.3,59.4,119.8,58.9,119.5z"/>
<path class="st37" d="M59.9,118.6c-0.1-0.6,0.2-1.1,0.4-1.5l0,0c0.5,0.2,0.9,0.5,1.4,0.7c0.5,0.2,0.8,0.2,1.1-0.3
	c0.5,0.4,0.4,1,0.4,1.5c0,0,0,0,0,0c-0.4-0.1-1-0.7-1.2-0.2C61,121.1,60.5,119,59.9,118.6z"/>
<path class="st37" d="M58.9,119.5c0.3-0.2,0.6-0.3,0.9-0.5c0,0.2,0,0.5,0,0.7c0,0.3-0.2,0.7-0.6,0.6
	C58.9,120.2,58.9,119.8,58.9,119.5z"/>
<path class="st37" d="M62.7,117.1c-0.5-0.5-0.8-1,0-1.4C62.7,116.1,62.7,116.6,62.7,117.1z"/>
<path class="st38" d="M63.6,67.1c-0.7,2.5-0.7,2.5,1.6,3.7c-2.2,1.1-2.2,1.1-1.8,3.7c-2.4-0.9-2.4-0.9-3.7,1.2
	c-0.6-1.7-1.6-2.6-3.3-1.3c-0.5-1,0.5-1.6,0.3-2.4c-0.3-0.9-1.5-0.5-1.9-1.3c0.3-0.9,1.4-0.5,2-1.3c0.2-0.8-0.7-1.6-0.6-2.4
	c0.1-0.3,0.3-0.4,0.5-0.3c2.1,1,2.1,1,3.4-1.2c0.3,0,0.3,0.2,0.4,0.4C61.2,68,61.2,68,63.6,67.1z"/>
<path class="st39" d="M39.8,44.9c-0.6,0.2-1-0.1-1-0.7c0-0.9,0.6-1.2,1.4-1.4c0.7-0.1,1.5,0.7,1.4,1.3
	C41.4,44.7,40.8,44.9,39.8,44.9z"/>
<path class="st40" d="M19.8,21.3c0-1,0.7-1.3,1.6-1.3c0.6,0,1.2,0.2,1.2,0.8c0,0.8-0.7,0.7-1.2,0.7C20.9,21.6,20.3,21.7,19.8,21.3z"
	/>
<path class="st41" d="M21.8,69.7c0,0.5-0.2,0.7-0.5,0.8c-0.4,0.1-0.8,0.1-1.1,0.2c-0.5,0.1-1.1,0.5-1.4-0.2C18.4,70,18.6,69.4,19,69
	c0.5-0.5,1.2-0.8,1.9-0.4C21.4,68.8,21.8,69.2,21.8,69.7z"/>
<path class="st37" d="M60.3,117.1c-1.3,0.2-2.5,0.1-3.3-1.2c-0.6-0.9-0.5-1.8,0.1-2.6c0.7-0.9,1.7-1.2,2.7-0.9
	c1,0.3,1.4,1.1,1.5,2.2C61.5,115.7,60.7,116.3,60.3,117.1L60.3,117.1z"/>
<path class="st42" d="M61.8,70.7c0,1.4-1.3,2.6-2.6,2.6c-1,0-2.2-1.4-2.3-2.4c-0.1-1.3,1.3-2.5,2.7-2.5C61,68.4,61.8,69.3,61.8,70.7
	z"/>
</svg>
