<?xml version="1.0" encoding="utf-8"?>
<!-- Generator: Adobe Illustrator 23.1.1, SVG Export Plug-In . SVG Version: 6.00 Build 0)  -->
<svg version="1.1" id="Livello_1" xmlns="http://www.w3.org/2000/svg" xmlns:xlink="http://www.w3.org/1999/xlink" x="0px" y="0px"
	 viewBox="0 0 80 135" style="enable-background:new 0 0 80 135;" xml:space="preserve">
<style type="text/css">
	.st0{fill:#FFFFFF;stroke:#000000;stroke-width:0.2509;stroke-miterlimit:10;}
	.st1{fill:#404A3A;}
	.st2{fill:#5E4E45;}
	.st3{fill:#565445;}
	.st4{fill:#ED4844;}
	.st5{fill:#636058;}
	.st6{fill:#756B4F;}
	.st7{fill:#AA735D;}
	.st8{fill:#9A9A9B;}
	.st9{fill:#B0877A;}
	.st10{fill:#ED4946;}
	.st11{fill:#FCFCFB;}
	.st12{fill:#D9B939;}
	.st13{fill:#FDFEFD;}
	.st14{fill:#E54338;}
	.st15{fill:#E9423A;}
	.st16{fill:#F1E833;}
	.st17{fill:#F6F6F4;}
	.st18{fill:#D25245;}
	.st19{fill:#CEB43B;}
	.st20{fill:#F3E932;}
	.st21{fill:#A73737;}
	.st22{fill:#F4B477;}
	.st23{fill:#937046;}
	.st24{fill:#A9983B;}
	.st25{fill:#CDBF44;}
	.st26{fill:#963935;}
	.st27{fill:#F0E733;}
	.st28{fill:#BEB43E;}
	.st29{fill:#CEC054;}
	.st30{fill:#A3A39E;}
	.st31{fill:#DBDAD6;}
	.st32{fill:#9F9251;}
	.st33{fill:#EFAD75;}
	.st34{fill:#E24E4A;}
	.st35{fill:#DBC23C;}
	.st36{fill:#D7C83A;}
	.st37{fill:#C05645;}
	.st38{fill:#BEAC62;}
	.st39{fill:#C6B13D;}
	.st40{fill:#C9B13F;}
	.st41{fill:#E7E7E5;}
	.st42{fill:#FFFFFF;}
	.st43{fill:#CFBD52;}
	.st44{fill:#D2D3CD;}
	.st45{fill:#F0E739;}
	.st46{fill:#59523F;}
	.st47{fill:#BAA750;}
	.st48{fill:#BDB156;}
	.st49{fill:#DBD567;}
	.st50{fill:#D0C46D;}
</style>
<path class="st0" d="M71.5,135h-63c-4.7,0-8.5-3.8-8.5-8.5V8.5C0,3.8,3.8,0,8.5,0h63C76.2,0,80,3.8,80,8.5v118
	C80,131.2,76.2,135,71.5,135z"/>
<path class="st1" d="M28.8,38.4c2.8,1.2,5.5,1.4,7.8-1c0.3-0.4,0.8-0.6,1.3-0.5c0.1,0.1,0.1,0.2,0.2,0.3c0.5,3.5,1.3,7,3.2,10.1
	c0.5,0.9,1.2,1.7,0.6,2.9c-0.4,0.4-0.8,0.3-1-0.1c-1.4-2.2-3.5-4-3.3-6.3c-0.1,1.1,0.6,2.5,1.5,4c1.4,2.4,1.6,5.2,1.7,7.9
	c0,0.9-0.6,1.9,0.1,2.9c-1.8,0.6-2.9,1.7-3.1,3.7c-0.1,1.4,0.5,1.9,1.8,1.8c1.4-0.1,1.9-1.3,2.4-2.4c0.5-1,0.3-1.8-0.8-2.4
	c-0.3-0.1-0.5-0.4-0.3-0.8c1-1.6,1.2-3.4,0.9-5.3c-0.2-1-0.8-2,0.2-2.9c2,0.7,1.2,2.5,1.6,3.8c0.1,0.4,0.4-0.2,0.1,0
	c-0.1,0.1-0.2,0-0.2-0.2c0.1-2.2-1.2-4.1-1-6.2c0.5-0.8,1-0.6,1.4-0.1c0.5,0.6,0.9,0.3,1.4,0.1c0.4,0.1,0.6,0.3,0.7,0.7
	c0.3,2.2-1.1,4.2-1,6.4c0.1-0.8-0.1-1.8,1-2.2c0.3,0.2,0.6,0.4,0.5,0.8c-0.2,2.5,1.3,2.7,3.1,2.5c1.2-0.1,2.7,0.4,3-1.6
	c0.1-0.2,0.2-0.4,0.3-0.6c0.7-0.7,0.7-1.7,0.5-2.5c-0.6-2.1-0.8-4.3-1.7-6.4c0.4-2.9,2.3-4.9,4.3-6.9c1.5-0.1,2.3,0.8,3.1,1.8
	c0.9,1.2,1.9,2.4,3.3,3.2c2.1,3.3,3.2,6.7,1.5,10.5c-0.5,0.5-1.1,0.2-1.6,0.2c-1.7-0.3-3,0.3-3.9,1.9c-0.3,0.5-0.6,1.1-1.2,1.4
	c-0.4,0-0.6-0.2-0.8-0.5c-0.3-0.5,0-1.1-0.5-1.5c-0.6,0.8,0,1.6-0.1,2.4c0,0.3-0.1,0.6,0,0.8c0-0.3,0.1-0.6,0.3-0.9
	c0.3-0.3,0.6-0.3,1-0.2c0.2,0.1,0.4,0.2,0.5,0.4c0.6,1.5-0.4,3.2,0.4,4.7c-1.9,1.7-0.2,2.3,0.9,3.2c0.1,0.2,0,0.4-0.1,0.6
	c-2.9,1.2-3.2,1.7-2.7,4.5c0.3,0.6,1,0.6,1.4,1.1c0,0.3,0,0.5-0.2,0.6c-2.1,1.5-2.1,1.5-0.4,3.7c0.7,0.6,2.1,0,2.4,1.3
	c-0.7,0.3-0.9,0.8-1,1.5c-0.3,2-0.6,4.1-1,6.1c-0.3,2-1.1,3.8-2.6,5.2c-1,0.9-1.2,2-1.3,3.2c-0.2,2.3-0.3,4.6-1.1,6.8
	c-1.6-1.5-0.6-3.3-0.4-4.9c0.3-2.7-0.9-3.8-3.4-3.4c-2,0.3-2.1,2-2.1,3.3c0.1,3.3-0.4,6.7-0.1,10c0.2,1.8-0.2,3.7,0.8,5.4
	c0.1,0.4,0.1,0.8-0.3,1c-0.2,0.1-0.4,0-0.6,0c0.1,0.2,0.3,0.5,0.4,0.5c1.7-0.6,1.7,0.6,1.8,1.7c0.1,0.8,0.6,1.3,1.2,1.6
	c1.7,0,2.5,1.1,3.4,2.3c0.5,0.6,0,1-0.3,1.4c-0.3,0.3-0.6,0.7-1.1,0.8c-1.4,0.2-2.4-0.6-3.3-1.5c-2.9-2.7-6.2-3.6-9.9-1.8
	c-0.3,0.1-0.6,0.1-0.9,0.1c-0.5-0.1-0.8-0.4-1-0.8c-0.2-0.6-0.4-1.2-0.8-1.8c-0.1-0.2-0.1-0.4-0.2-0.6c0-1.3,1-1,1.6-1.1
	c0.5,0,0-0.5,0.2-0.2c-0.9,0.4-1.6,0.1-2.3-0.4c-0.4-0.4-0.3-0.9-0.1-1.3c0-0.4,0-0.8,0-1.1c-0.2-0.9-0.5-1.8,0.3-2.6
	c0.9,0.2,1.1,1,1.3,1.8c0.2,0.6,0.2,1.6,1.2,1.4c0.9-0.1,1.2-1,1.3-1.8c0.7-3.5,1.1-7,1.7-10.5c0.3-0.9,0.3-1.9,0.3-2.8
	c-0.1-2.5-2.1-3.9-4.4-3.3c-1.1,0.3-1,1.1-1,1.9c-0.1,2,0.1,4-0.6,5.9c-0.4,0.2-0.7,0.2-1-0.1c-0.6-2.2,0-4.4,0-6.7
	c0-1.7-0.2-3.3-0.7-4.9c-0.7-2.1-1-4.2-0.7-6.3c0.6-5,1-10,2.7-14.8c0.2-0.4,0.3-0.9,0.3-1.4c-0.2-1.9,0.4-3.5,1.3-5
	c1-1.7,1.1-3.7,2.3-5.2c0.1-0.2,0.2-0.5,0.1-0.7c-0.6-2-0.9-4.2-2.1-6.1c-0.5-0.8-1.2-0.9-2-0.9c-2,0.1-4,0.1-6,0.1
	c-1.4,0.1-2.5-0.2-3.3-1.5c-0.7-0.9-0.2-1.9-0.2-2.8c0.1-0.8,0.3-1.6,0.7-2.4c0.4-0.7,0.8-1.4,1.4-1.9
	C27.8,38.7,28.1,38.1,28.8,38.4z"/>
<path class="st2" d="M45.6,48.7c-0.2-0.2-0.4-0.4-0.5-0.6c-0.4-0.9,0.3-1.5,0.5-2.2c0.1-0.6,1-1.5-0.3-1.6c-0.9-0.1-2.2-0.5-2.2,1.2
	c0,0.8,0.3,1.9-1.2,1.6c-1.8-1.8-1.9-4.1-1.7-6.4c0.1-1.9-0.4-3.1-2.3-3.7c0,0,0,0,0,0c1.5-1.1,3.5-1.2,5-2.4c-0.3-0.6-0.7-1-1.3-1
	c-1.4,0-1.7-0.9-1.8-2c-0.3-3.2,0.2-6.2,2.2-8.8c0.6-0.8,0.7-1.5,0.3-2.4c-0.2-0.4-0.3-0.7-0.4-1.1c-0.7-2.6,0.9-4.4,3.5-3.4
	c1.5,0.5,2.4,0.3,3.6-0.6c0.9-0.7,1.9-1.4,3.2-1.3c0,0.1,0.1,0.2,0.1,0.3c-0.4,0.9-1.4,1-2,1.6c-0.9,0.8-0.7,1.6,0.4,1.6
	c1.7,0,3,1,4.6,1.2c0.5,0.1,0.8,0.9,1.3,0.3c0.5-0.5,0.8-1.2,0.5-2c-0.3-0.8-1-1.4-1.2-2.3c0-0.1,0.1-0.2,0.1-0.3c3,1.1,3.8,4,1.6,6
	c-0.7,0.6-0.9,1-0.6,1.9c1,2.6,0.4,3.6-2.2,4.4c-0.5,0.2-1.1,0.3-1.4,0.8c-0.3,1.7-1.5,1.3-2.2,0.7c-1.3-1.1-2.8-1.8-4.1-2.6
	c-0.4-0.5-0.8-1-1.5-1.2c-1-0.2-2.1-0.3-1.5,1.3c0.3,0.9,0.2,1.7-0.8,1.8c-1.8,0.2-1.5,1.4-1.3,2.4c0.2,1.4,0.5,2.9,2.4,3
	c0.6,0,1.1-0.1,1.7-0.1c0.4,0,1,0.2,0.9,0.5c-1,1.9,1,1.4,1.5,2.1c-0.8,1.5-2.3,0.6-3.4,0.9c3.2,0.1,3.3,0.1,3.8-1.6
	c-0.3-1.3,0.1-2.5,0.5-3.7c0.4-0.6,0.6-1.8,1.8-0.8c1.3,1,1.7-1.2,2.8-0.9c0.1,0.5,0.2,1.1,0.3,1.6c0.4,2.1-0.6,3.1-2.7,2.5
	c-0.4-0.1-0.8-0.2-1.3,0.2c1,1.1,2.2,1.9,3.4,2.5c0.2,0.1,0.4,0.1,0.7,0.2c3.3,0.8,5.7,2.6,7,5.8c0.2,0.4,0.5,0.8,0.7,1.2
	c-0.1,0.1-0.4,0.2-0.4,0.2c-0.8-1.1-2.5-1.1-3-2.5c-0.5-1.3-1.5-2-2.6-2.5c-3-1.6-3-1.6-5.7,0.6c-0.4,0.3-0.7,0.6-1.2,0.2
	C49.1,39.1,49,39,49,38.8c0-0.9-0.5-1.1-1.2-0.9c-1.9,0.6-4.1-0.9-5.7,0.5c-0.8,0.7-0.3,2,0.9,2.5c1.6,0.7,3.2,1,4.6-0.5
	c0.5-0.5,0.9-1.5,1.9-1C49,42.8,48.2,46.1,45.6,48.7z"/>
<path class="st3" d="M34.4,110.7c0.1,0.4,0.1,0.9,0.6,1.2c0.6,0.7-0.6,1.8,0.5,2.4l0,0c0,0.1,0.1,0.2,0.1,0.2
	c-2,0.9-3.5,2.3-3.9,4.3c0.9-0.3,1.8-1.3,2.8-2c0.6-0.5,1.1-1.2,2-1.1c0.1,0.5,0.2,0.9,0.7,1.1c-0.3,1.7-1.3,2.9-2.7,3.5
	c2.6-0.7,5.3-0.1,8.1,0c3,0.1,6-0.1,9,0.5c0.1,0-0.3-0.3-0.1-0.5c0-0.4,0.1-0.9,0.6-1c0.7,0.4,1.4-0.4,2.4,0.1
	c-1.6-2.1-2.9-3.8-5.5-3.1c-2-0.5-1.4-2.3-1.6-3.8c-0.8,1.5-0.8,1.5-1.6,0.2c-0.3-0.5-1.2-0.4-1.3-1.2c0.6-0.6,1,0.1,1.5,0.1
	c0.5,0.1,0.5-0.2,0.5-0.6c0.2-0.3,0.5-0.4,0.8-0.4c0.7,0.1,0.9-0.4,0.9-0.9c0.2-0.6,0.4-1.4,1.3-1.3c-0.1,1.2-0.3,2.3,0,3.5
	c-0.1,0.1-0.1,0.1-0.2,0.2c-0.3,0.3-0.8,0.5-0.5,1.1c0.1,0.3,0.3,0.5,0.5,0.8c0.5-0.5-0.6-1.4,0.3-1.8c0.5-0.1,0.9,0.2,1.3,0.6
	c0.9,1.2,2.3,1.3,3.7,1.4c2.6,0,5.3-0.1,7.9,0.1c1.4,0.7,2.8,0,4.2,0c2.2,0.9,2.2,0.9,2.2,3c0,1.2-0.2,2.4-0.1,3.6
	c0.1,1.3-0.6,1.5-1.6,1.4c-2.7-0.1-5.4-0.2-8.1-0.2c-14.4-0.2-28.7-0.4-43.1-0.6c-0.7,0-1.4-0.1-2.2,0c-1,0-1.5-0.4-1.4-1.4
	c0.1-1.4,0.1-2.9,0-4.3c0-1.1,0.5-1.5,1.6-1.6c5.9-0.7,11.9-1.5,17.8-2.2C32.8,111.8,33.8,111.8,34.4,110.7z"/>
<path class="st4" d="M47.5,111c-0.3,0-0.7,0-1,0c-0.8-0.9-1.3-1.9-1.3-2.4c0.1-4.1,0.1-8.3,0.2-12.4c0-1.1,0.3-2.2,0.5-3.2
	c0.1-0.3,0.2-0.6,0.4-0.8c1.3-1.1,2.7-0.5,4-0.3c1.1,0.2,1.8,1,1.8,2.2c0,0.8,0,1.6-0.2,2.4c-0.3,1.4-0.4,2.8-0.1,4.2
	c-0.4,2.8-1.5,5.3-2.6,7.8c-0.6,0.4-0.8,1-0.9,1.7C48.7,110.9,48.4,111.2,47.5,111z"/>
<path class="st5" d="M28.8,38.4c-0.5,0.2-0.5,0.9-1.1,1c-0.5-0.5-0.5-1.1-0.7-1.7c-0.9-2.6-1.5-3-4.3-2.4c-1.1,0.5-0.5,1.3-0.3,2
	c0.5,2.3,2,4,3.5,5.8c0.3,1-0.6,1.9-0.4,3c-2.5-1.9-3.7-4.7-4.6-7.5c-0.4-1.3-0.2-2.8-1.2-4c-0.3-0.4-0.1-1.1,0.1-1.6
	c0.2-0.7,0.5-1.3,0.3-2.1c0.6-1.9,2.2-0.4,3-1c-1.3,0.1-2.8-0.2-4.3-0.5c-0.9-1-1.7-2.1-2.5-3.2c-2.2-2.6-2.1-7-0.1-9.8
	c2.4-3.3,5.8-4.3,9.8-3.1c3.4,1.1,5.6,4.6,5.5,8.1c-0.1,2.7-1.2,4.8-3.3,6.3c-0.8,0.6-1.4,1.3-1.9,2.1c-0.4,0.6-0.4,1.1-0.2,1.8
	C27,33.9,27.7,36.2,28.8,38.4z"/>
<path class="st6" d="M57.6,62.5c-0.5-0.5-0.9-1-0.7-1.7c0.1-0.9,0.2-1.8,0.3-2.7c1,0.2,0.8,1.2,1.2,1.9c0.4,1,1.3,1.6,2.2,1.6
	c1.2,0,0.9-1.3,1.1-2c0.6-2,0.4-4.1,0.5-6.1c0.5,0.1,1,0.3,1.5,0.4c0.2,2.4-0.7,4.7-1.1,7.1c-0.1,0.7-0.7,1.5,0.2,2.1
	c0.4,0.3,0.1,0.7-0.1,1.1c-0.4,0.8-1,1.5-1.4,2.2c-0.6,1.1-0.8,2.2,0,3.4c0.4,0.6,0.7,1.4,0.9,2.2c0.9,3.3,0.1,4.8-3.3,5.9
	c-0.8-0.9-2.1,0-2.9-0.8c0.4-0.7,1.2-0.8,1.9-0.9c1.3-0.1,2.1-0.6,2-2.1c0-1.5-1.1-1.5-2.1-1.6c-0.2,0-0.5-0.1-0.6-0.3
	c-0.7-0.1-1.5,0.3-2-0.5c0.6-0.6,1.5-0.5,2.2-0.7c2.3-0.6,2.7-1.5,1.5-3.5c-0.2-0.3-0.5-0.6-0.3-1.1c0-0.1,0-0.3,0-0.4
	c0.7-0.7,2-0.3,2.5-1.5C60,63.5,58,64.2,57.6,62.5z"/>
<path class="st7" d="M47.5,25.4c1.4,0.2,2.6,0.9,3.6,2c0.8,0.9,1.6,1.2,2.4,0.1c0.2,0.6,0.7,1.1,0.6,1.9c-0.5,0.5-0.9,1.1-1.5,1.5
	c-0.7,0.6-1.5,1.4-1.9-0.4c-0.1-0.6-0.4,0.4-0.8,0.4c-1-1.3-1.7-3.1-4-2.4c-0.7,0.2-1.3-0.6-1.4-1.4c-0.2-0.9,0.4-1.3,1.1-1.6
	C46.3,25.3,46.9,25.3,47.5,25.4z"/>
<path class="st8" d="M50.4,112.9c-0.2-0.4-0.6-0.5-1-0.5c-0.1-0.1-0.1-0.1-0.2-0.2c0-0.1,0-0.2,0-0.3c0.1-0.1,0.2-0.1,0.2,0
	c3,0.5,6.1,0.2,9,0.7c2.8,0.5,5.6,0.7,8.3,1.6c-1.2,1-2.5,1.5-3.9,0.6c-3.2-0.8-6.6-0.6-9.9-1.2C52.1,113.4,51.2,113.4,50.4,112.9z"
	/>
<path class="st9" d="M18.8,29.3c0.5-0.3,0.9-0.7,1.5-0.4c1.5,0.6,3.1,0.5,5,0.4c-1.2,1.3-2.4,1.1-3.6,1.1c-0.6,0-1.3-0.3-1.7,0.4
	C19.4,30.5,18.9,30,18.8,29.3z"/>
<path class="st3" d="M34.9,107.1c-0.7,0.8-0.2,1.7-0.4,2.5c-0.4-1-0.5-2-0.4-3c0.2-0.3,0.6-0.6,0-0.9c-0.5-2.1-0.6-4.2-0.5-6.3
	c0.3,0,0.6,0,0.9,0c0.8,0.5,0.7,1.3,0.6,2c-0.3,1.1-0.8,2.3,0.4,3.3C35.6,105.5,35.7,106.4,34.9,107.1z"/>
<path class="st2" d="M52.3,13.9c1.4-0.6,2.7-0.8,3.9,0.5c0,0,0,0,0,0C54.7,15.2,53.5,14.7,52.3,13.9L52.3,13.9z"/>
<path class="st1" d="M34,105.7c0.1-0.1,0.3-0.4,0.5,0c0.1,0.4-0.1,0.7-0.4,0.9C34,106.3,34,106,34,105.7z"/>
<path class="st10" d="M40.9,98c-0.5,3.7-1.1,7.4-1.7,11.1c-0.2,1.2-1.4,2.2-2.3,2.1c-1.2-0.2-1.4-1.2-1.4-2.2
	c-0.4-2.1,0.2-4.3-1.1-6.2c-0.1-0.3-0.1-0.5,0.1-0.7c0.8-2.1-0.2-4.3,0.5-6.4c0.6-1.6,2.9-3.3,4.5-3c0.9,0.2,1.4,0.7,1.4,1.7
	C41,95.6,41.1,96.8,40.9,98z"/>
<path class="st11" d="M40.7,111.5c-0.9-1.1-0.9-2.3-0.7-3.6c0.9-5.3,2-10.7,1.7-16.1c-0.1-1.5,0.6-2.7,1.8-3.8
	c1.3,1.5,1.7,3.1,1.2,5.1c-0.6,2.9-0.5,5.9-0.4,8.8c0.1,2.6-0.1,5.1-0.3,7.6c-0.1,0.7-0.2,1.2-0.5,1.8
	C42.6,111.7,41.7,112.1,40.7,111.5z"/>
<path class="st12" d="M51.3,120.2c0.3,0.2,0.7,0.4,1.3,0.7c-6.6,0-12.8-0.1-19.1-0.5c1.8-0.7,2.3-2.5,3.5-3.7c1.9-1.2,4-1.7,6.3-1.1
	c1.7,0.4,3.5,0.9,4.7,2.4C48.8,119.1,49.9,119.8,51.3,120.2z"/>
<path class="st13" d="M45.6,48.7c1.6-3,2.6-6.2,3.8-9.3c0,0,0,0,0,0c0.7-0.8,1.4-1.6,2.1-2.4c0.6-0.8,1.3-0.9,2-0.5
	c0.9,0.6,2.4,0.4,2.7,1.9c-2,1.9-3.1,4.4-4.6,6.7c0,0.2,0,0.4-0.1,0.6c-0.2,0.3-0.4,0.5-0.7,0.7c-0.4,0.3-0.8,0.6-1.2,0.9
	c-0.4,0.4-0.7,0.7-1.1,1.1c-1.1,1.2-1.5,2.8-2.3,4.1c-0.1,0.1-0.2,0.1-0.3,0.2c-0.9,0.6-0.4,2-1.4,2.6C44.2,53,45.2,50.9,45.6,48.7z
	"/>
<path class="st14" d="M51.6,60c1.8,0.8,2,2.7,2.9,4.1c0.3,0.6,0,1.1-0.6,1.2c-2.6,0.6-5.2,0.7-7.8,0.5c-0.9-0.1-1.4-0.7-1.7-1.5
	c-0.2-0.4-0.2-0.9-0.3-1.4c-0.4-3.2-0.3-3.4,3-3.3C48.6,59.4,50.1,59.2,51.6,60z"/>
<path class="st15" d="M50.8,45.9c0-0.2,0.1-0.3,0.3-0.2c0.7,0,1.5-0.3,1.4,0.9c-0.1,1.1,0.1,2.2-0.4,3.3c-0.6,1.2-1.5,2.4,0.9,2.9
	c1,0.2,0.4,1.1-0.2,1.6l0,0c-0.8,1-1.7,1.9-2.9,2.4c-0.9,0-1.9,0-2.8,0c-1,0-1.5-0.5-1.2-1.5c0.2-0.8,0.4-1.5,0.2-2.3
	c0,0,0,0.1,0,0.1c0.8-1.6,1.5-3.3,2.4-4.9c0.1-0.5,0.5-0.7,0.9-0.9C49.8,46.7,50.5,46.5,50.8,45.9z"/>
<path class="st16" d="M62.2,53.4c0.6,1,0.8,2,0.5,3.2c-0.4,2-0.5,4.1-1.4,5.9c-0.5,0.2-0.7-0.3-1-0.4c-1.9-0.4-3-1.4-2.8-3.5
	c0-0.2-0.2-0.4-0.3-0.6c0-0.1,0-0.3-0.1-0.4c-0.3-0.2-0.3-0.3,0-0.5c0-0.9,0.6-1.7,1-2.3C59,53.3,60.5,52.9,62.2,53.4z"/>
<path class="st17" d="M37.9,37c2.8-0.1,2.8-0.1,2.9,2.7c0.1,2.6,0,5.2,1.6,7.5c0.2,0.1,0.3,0.2,0.3,0.4c0.7,2.3,1.5,4.7,0.9,7.4
	c-0.7-1.5-0.4-3.4-1.8-4.5l0,0c0-1.3-0.7-2.2-1.4-3.2c-1.6-2.6-2.1-5.6-2.9-8.4C37.3,38.1,37.6,37.5,37.9,37z"/>
<path class="st18" d="M40.7,58.6c2.7,1.2,2.8,0.3,1.4,4c-0.9,2.4-2.2,2.6-4.1,2c-0.4-0.1-0.8-0.3-0.9-0.7c-0.5-1.6,0.4-3,0.7-4.4
	c0.3-1,1.5-1,2.5-0.9C40.5,58.6,40.6,58.6,40.7,58.6L40.7,58.6z"/>
<path class="st18" d="M41.7,50.4c0,0.4,0,0.8,0.1,1.2c0.8,2.1,0.6,4.2,0.3,6.3c-0.1,1-0.8,0.8-1.4,0.8c0,0,0,0,0,0
	c-0.2-0.1-0.4-0.3-0.6-0.4c-0.7-0.2-1.6-0.4-1.5-1.3c0.1-0.9,1.2-0.5,1.9-1c-0.7-0.9-0.5-2-0.7-3.1c-0.5-2.1-0.8-4.3-1.9-6.3
	c-0.8-1.5-0.3-3.2-0.8-4.9C37.5,45.2,39.6,47.8,41.7,50.4C41.7,50.4,41.7,50.4,41.7,50.4z"/>
<path class="st19" d="M57.2,72.1c0.4-0.1,0.8-0.1,1.2-0.2c1.5-0.3,2.1,0.2,2.1,1.7c0.1,2.6,0.1,2.6-2.6,3c-0.6,0.1-1.2,0.3-1.9,0.4
	c-1.1-1-1.3-2.4-1.7-3.7C55.3,72.5,56.5,72.9,57.2,72.1z"/>
<path class="st20" d="M22.5,35c1.6-0.9,3.3-0.6,4.2,0.7c0.8,1.1,1.3,2.3,1.1,3.8c-0.6,0.3-0.9,0.9-1.2,1.5c-0.5,0.3-0.9,0.9-1.7,0.5
	C23.8,40.7,22.2,36.4,22.5,35z"/>
<path class="st21" d="M40.9,98c0-1.1-0.1-2.2-0.1-3.3c0-0.6-0.2-1.1-0.8-1.4c-1-0.5-3.9,1.1-4.3,2.2c-0.7,1.7-0.6,3.4-0.7,5.1
	c0,0.6,0.1,1.3-0.4,1.8c-0.2-0.1-0.3-0.2-0.3-0.3c0-0.1,0-0.2,0.1-0.2c0-0.8,0-1.6,0-2.4c0-2.3,0-4.6,0.1-6.8
	c0.1-1.6,0.4-1.8,1.9-1.6c0.6,0.1,1.3,0.2,1.9,0.2c1.5,0.1,2.4,0.7,2.7,2.2C41.3,94.9,41.6,96.5,40.9,98z"/>
<path class="st22" d="M58.5,66.3c0.3,0.5,1.1,0.6,1.4,1.2c0.8,1.4,0.4,2.8-1.1,3.5c-1.2,0.5-2.4,0.9-3.6,0.6
	c-0.1-0.4-0.1-0.8-0.2-1.2C54.6,67.6,55.7,66.3,58.5,66.3z"/>
<path class="st23" d="M51.6,60c-1.5-0.1-3.1,0.4-4.6-0.4c-0.1-0.9-2-0.2-1.4-1.7c0.5-1.3,1.6-0.7,2.5-0.7c1.7-0.1,3.3,0.2,5-0.3
	c0.5-0.2,1-0.1,1.1,0.6c0.1,0.6,0.1,1.1-0.5,1.4c-0.6,0.3-1.2,0.3-1.9,0.3C50.6,59.2,51.8,59.7,51.6,60z"/>
<path class="st24" d="M42.6,47.5c-0.2,0-0.3-0.2-0.3-0.4c0.6-0.6,0.4-1.2,0.2-2c-0.3-1.1,0.3-2,1.3-1.8c1,0.2,1.8,0,2.9-0.2
	c0.1,2-0.8,3.4-1.6,4.9c-0.1,0.5,0.2,1.2-0.6,1.3c-0.9,0.1-0.8-0.5-0.9-1.1C43.5,47.7,43.1,47.6,42.6,47.5z"/>
<path class="st25" d="M36.4,115.6c-1.3,1.4-2.6,2.7-4.4,3.5c-0.7,0.3-1.3,0.5-2,0.8c-0.2,0.1-0.5-0.1-0.6-0.3
	c-0.2-0.2-0.1-0.6,0.2-0.6c2-0.4,2.3-2.1,2.9-3.6c0.2-0.5,0.6-0.7,1.1-0.7c0.7,0,1.5,0.3,1.9-0.5C36.1,114.5,36.3,115,36.4,115.6z"
	/>
<path class="st26" d="M52.8,54.3c0.1-0.5,0.7-1.1-0.4-1.5c-0.3-0.1-2,1.2-1.3-0.8c0.2-0.5-0.4-1.1,0.2-1.8c0.8-0.8,0.7-2.1,1-3.1
	c0.3-1-0.5-1.1-1.1-1.4c0.1-0.2,0.2-0.4,0.5-0.5c0.5,0.1,1.1,0.1,1.1,0.7c-0.1,2.4,1.4,4.5,1.3,7C54,53.8,53.7,54.2,52.8,54.3z"/>
<path class="st27" d="M57.6,62.5c1.1,1,2.9,0.6,4,1.6c-1,2.2-1,2.2-3.1,1.7c-0.4-0.1-0.9-0.3-1.3-0.3c-1-0.1-1.1-0.9-1.2-1.7
	C55.6,62.4,57.2,63.2,57.6,62.5z"/>
<path class="st28" d="M22.5,35c0.3,2.1,1.6,3.8,2.4,5.7c0.4,0.9,1,0.3,1.6,0.2c-0.2,0.7-0.7,1.4-0.7,2.2c-1.2,0-1.7-1.1-2.2-1.8
	c-1.2-1.5-1.8-3.5-2.2-5.4C21.3,35.4,21.5,34.6,22.5,35z"/>
<path class="st29" d="M48.9,116.2c0.9-0.5,1.8-1.1,2.8-0.4c1.4,0.9,2.7,1.9,3,3.9c-0.9-0.7-1.4,0-2.1,0.1c-0.5,0.1-0.6-0.3-0.6-0.7
	c0.2-0.2,0.4-0.3,0.5-0.5c0.3-0.5-0.1-0.4-0.4-0.5c-0.3-0.1-0.6-0.2-0.9-0.3c0.7-2.3-1.3-0.9-1.9-1.4
	C49.1,116.4,49,116.3,48.9,116.2z"/>
<path class="st30" d="M40.7,111.5c1,0,1.9-0.1,2.9-0.1c0.2,0.4-1.4,0.5-0.1,1.3c0.5,0.3-0.1,1.5-0.6,2c-0.5,0.4-1.4,0.2-2,0
	c-0.8-0.2-0.6-1-0.5-1.6C40.3,112.5,40.5,112,40.7,111.5z"/>
<path class="st31" d="M56.2,57.6c-0.1,0.9-0.2,1.9-0.3,2.8c-0.7-1.8-1.3-3.6-1-5.5c0.1-0.5,0.2-1.2,1-1.1c0.7,0.1,0.8,0.7,0.7,1.3
	c-0.1,0.5-0.1,0.9-0.2,1.4C56.4,56.9,56.4,57.3,56.2,57.6z"/>
<path class="st32" d="M44.2,59.1c-0.9,0-1.4-0.3-1.5-1.1c-0.1-0.7,0.4-1.2,1.1-1.3c0.8-0.1,1.2,0.3,1.3,1
	C45.1,58.5,44.7,58.8,44.2,59.1z"/>
<path class="st26" d="M49.8,56.6c1.3-1.8,1.3-1.8,2.9-2.4c0.6,1.2,0.2,1.8-1,2.2C51.1,56.6,50.5,56.7,49.8,56.6z"/>
<path class="st25" d="M35.5,114.3c-0.9-0.2-1.8-0.4-0.7-1.5c0.2-0.2,0.2-0.6,0.3-0.9c1.6,0.4,1.6,0.4,3.4,0c-0.7,0.9-0.7,1-2.1,1.1
	C35.4,113.1,35.3,113.5,35.5,114.3z"/>
<path class="st21" d="M34.6,102.7c0.1,0.1,0.3,0.2,0.4,0.3c0.5,0.8,0.8,4.9,0.6,6c-0.2-0.7-0.4-1.3-0.6-2c0.1-0.9,0.1-1.9-0.1-2.8
	C34.5,103.8,34,103.3,34.6,102.7z"/>
<path class="st6" d="M56.2,57.6c0-0.4-0.1-0.8,0.3-1.1c0.2,0.2,0.4,0.4,0.6,0.6c0,0.2,0,0.3,0,0.5C56.8,57.6,56.5,57.6,56.2,57.6z"
	/>
<path class="st33" d="M47.5,25.4c-0.4,0.6-1.1,0.4-1.7,0.5c-0.6,0.1-1.1,0.3-0.9,1c0.2,0.6,0.3,1.3,1.2,1.1c0.1,0,0.2,0,0.2,0
	c0.8,0.1,1.6-1.1,2.4-0.2c0.7,0.8,1.2,1.9,1.2,3c-0.2,1.5-0.5,3-0.7,4.5c0,0.8-0.4,0.6-0.8,0.3c-0.3,0-0.6,0-0.9-0.1
	c-1.8-0.1-1.9-0.4-0.9-2c-0.1,0-0.3-0.1-0.4-0.1c-1.4,0.4-3,0.8-3.9-0.7c-1-1.6-1.5-3.5-0.6-5.5c0.3-0.7,0.8-0.3,1.2-0.2
	c0.5,0.2,0.8,0,1-0.3c0.3-0.4,0.1-0.8-0.2-1.1c-0.1-0.2-0.4-0.3-0.5-0.5c-0.8-0.7-0.3-1,0.4-1.3C45.4,23,46.4,23.4,47.5,25.4z"/>
<path class="st34" d="M56.6,23.9c0,1.4-0.4,1.7-1.7,1.3c-0.3-0.1-0.5-0.3-0.8-0.5c-3.1-2.2-6.3-4.4-9.8-6c-0.2-0.1-0.2-0.7-0.4-0.8
	c-0.4-0.1-1.2,1.1-1.1-0.4c0.1-0.8,0.6-1.2,1.4-1.3c0.9,0,1.7,0.3,2.4,0.8c0.9,0.6,1.7,1.4,2.8,1.9c1.2,0.6,2.6,0.8,3.9,1.2
	C55.5,20.8,56.5,22,56.6,23.9z"/>
<path class="st35" d="M52.3,13.9c1.3-0.2,2.5,0.4,3.8,0.5c0.5,0.6,0.9,1.3,1.4,1.9c0.4,0.5,0.5,1.1,0.5,1.8c0,0.8-0.8,0.9-1.1,1.4
	c-0.6,1-0.7-0.3-1.1-0.3c-1.7,0-3.1-1.3-5-1.1c-0.8,0.1-1.6-0.2-1.9-1.1c-0.2-1,0.4-1.4,1.2-1.8C50.8,14.9,51.5,14.4,52.3,13.9z"/>
<path class="st36" d="M49.4,39.4c-0.2,0.1-0.4,0.2-0.6,0.4c-1.8,2.5-3.2,3-6,2c-1.5-0.5-2.2-3.2-1.2-4.4c0.5-0.5,1-0.4,1.5-0.2
	c1.4,0.5,2.8,0.4,4.2,0.2C49.6,37.2,49.6,37.1,49.4,39.4C49.4,39.4,49.4,39.4,49.4,39.4z"/>
<path class="st37" d="M51.1,25.2c-2.1-1.1-4.1-2.1-6.1-3.3C47.4,22.2,49.8,22.7,51.1,25.2z"/>
<path class="st38" d="M48.5,35.5c0.3,0,0.6,0,0.8-0.3c0.3,0,0.6-0.3,0.9,0.1c0.1,0.2,0,0.4-0.2,0.6c-1.1,0.7-3.8,0.9-5.8,0.4
	c0.7-0.5,1.5-0.2,2.2-0.3C47,35.9,47.9,36.3,48.5,35.5z"/>
<path class="st39" d="M30.5,115.2c-1.3,1.7-1.9,3-2.3,4.5c-0.2,0.7-0.7,0.8-1.3,0.8c-4.1,0-8.3-0.1-12.4-0.1c-0.2,0-0.3,0-0.5-0.1
	c-1.4-1-0.5-2.5-0.7-3.8c-0.1-1,0.5-1.4,1.5-1.4c2.5,0,5.1,0.1,7.6,0.1C25,115.3,27.4,115.2,30.5,115.2z"/>
<path class="st40" d="M55.6,121.1c0-2.1-0.3-3.8-2.1-5.1c3.3-0.4,6.4-0.3,9.6-0.1c1,0.1,1.9-0.1,2.8-0.1c1.4,0,1.8,0.2,1.8,1.6
	c0.1,4.2,0.4,3.7-3.4,3.7C61.4,121.1,58.5,121.1,55.6,121.1z"/>
<path class="st41" d="M50.4,112.9c4.2,0,8.4,0.3,12.4,1.9c-3.3,0.3-6.6-0.1-9.9,0C51.6,114.7,51,113.8,50.4,112.9z"/>
<path class="st42" d="M19.1,114.2c4.7-0.3,9.2-1.3,13.9-2c-0.6,1.7-1.8,2.1-3.1,2.2C26.3,114.4,22.7,114.3,19.1,114.2z"/>
<path class="st43" d="M49.4,112.3c0.3,0.5,0.5,1,0.9,1.4c0.3,0.4,0.5,0.9,0,1.2c-0.5,0.4-0.9-0.1-1.2-0.4c-0.5-0.5-1.2-0.9-0.6-1.7
	C48.7,112.5,48.8,112,49.4,112.3L49.4,112.3z"/>
<path class="st1" d="M47.5,111c0.5-0.2,0.9-0.5,1.1-1c0.3,0.4,0.4,0.9,0,1.2C48.2,111.5,47.8,111.4,47.5,111z"/>
<path class="st1" d="M49.4,112.4c-0.3,0.2-0.6,0.3-0.9,0.5c-0.5-0.9,0.3-0.8,0.8-1C49.3,112,49.3,112.2,49.4,112.4z"/>
<path class="st44" d="M30.3,21.3c-0.1,4.2-3.3,7.3-7.6,7.2c-4.1-0.1-7.4-3.5-7.1-7.7c0.3-4.6,3.9-7.2,7.8-7.2
	C27.3,13.6,30.4,17.2,30.3,21.3z"/>
<path class="st45" d="M23.3,31.2c0.4,0,0.8,0,1.2,0c0.8,0.1,1,0.8,1.1,1.4c0.1,0.7-0.8,1.1-1,1c-1-0.5-2.1,0.3-3.1-0.4
	c-0.4-0.3-0.9-0.2-0.8-0.9c0.1-0.5,0.4-0.9,0.9-0.9C22.2,31.3,22.7,31.3,23.3,31.2C23.3,31.2,23.3,31.2,23.3,31.2z"/>
<path class="st1" d="M34.6,102.7c0.1,0.5,0.1,1,0.2,1.5c-0.3,0.1-0.7,0.3-0.7-0.2c0-0.7-0.3-1.6,0.3-2.2c0.1,0.2,0.1,0.3,0.2,0.5
	C34.6,102.5,34.6,102.6,34.6,102.7z"/>
<path class="st1" d="M48.4,48c-0.6,1.7-1.3,3.4-2.4,4.9C46.2,50.9,47.1,49.3,48.4,48z"/>
<path class="st1" d="M50.8,45.9c-0.2,0.8-0.8,1.1-1.5,1.2C49.7,46.6,50.2,46.2,50.8,45.9z"/>
<path class="st46" d="M16.4,20.9c0.1-3.7,3.3-6.6,7-6.3c3.9,0.4,6.3,3.1,6.2,6.8c-0.1,3.5-3.4,6.4-6.9,6.2
	C18.4,27.3,16.2,23.8,16.4,20.9z"/>
<path class="st47" d="M24.4,19.2c0.1,0.5,0.3,1.1,0.4,1.6c0.1,1.2-0.4,1.8-1.5,2c-0.9,0.1-1.9-0.6-2.1-1.6c-0.2-0.8,0.4-1.8,1.4-2
	C23.2,19.2,23.8,19.2,24.4,19.2L24.4,19.2z"/>
<path class="st48" d="M26.8,18.8c1.5-0.1,1.6-0.1,1.3,1.4c-0.2,0.8,0.8,0.4,0.8,1c-0.6,0.6-1.5,0.7-2.3,0.9c-0.5,0.1-0.9,0-1-0.6
	c-0.1-0.5-0.1-1.1,0.6-1.1C27.5,20.3,26.9,19.4,26.8,18.8L26.8,18.8z"/>
<path class="st47" d="M26.8,18.7c-0.8,0.3-1.4,1.6-2.4,0.5c0,0,0,0,0,0c0.2-1.5,1.4-1.8,2.5-2.4C27.5,17.7,26.6,18.1,26.8,18.7
	C26.8,18.8,26.8,18.7,26.8,18.7z"/>
<path class="st49" d="M18.5,25.3c0.6-1,1-1.6,1.5-2.2c0.2-0.4,0.6-0.6,1-0.3c0.5,0.4,0.3,0.9-0.1,1.2C20.3,24.5,19.8,25.1,18.5,25.3
	z"/>
<path class="st50" d="M23.3,26.7c-0.6-0.7-0.7-1.3-0.8-1.9c-0.1-0.4-0.1-0.8,0.3-1.1c0.2-0.1,0.5-0.1,0.7,0c0.4,0.2,0.4,0.6,0.3,1
	C23.6,25.3,23.5,25.9,23.3,26.7z"/>
<path class="st48" d="M27.3,25.2c-1.1-0.6-1.7-1-2.3-1.4c-0.4-0.3-0.4-0.6,0-1c0.3-0.2,0.6-0.3,0.8-0.1C26.4,23.3,26.7,24,27.3,25.2
	z"/>
<path class="st44" d="M19,17.3c1.2,0,1.5,0.9,2.3,1c0.4,0.1,0.4,0.4,0.2,0.7c-0.2,0.3-0.5,0.5-0.8,0.3C20,18.9,19.5,18.3,19,17.3z"
	/>
</svg>
