<?xml version="1.0" encoding="utf-8"?>
<!-- Generator: Adobe Illustrator 23.1.1, SVG Export Plug-In . SVG Version: 6.00 Build 0)  -->
<svg version="1.1" id="Livello_1" xmlns="http://www.w3.org/2000/svg" xmlns:xlink="http://www.w3.org/1999/xlink" x="0px" y="0px"
	 viewBox="0 0 80 135" style="enable-background:new 0 0 80 135;" xml:space="preserve">
<style type="text/css">
	.st0{fill:#FFFFFF;stroke:#000000;stroke-width:0.2509;stroke-miterlimit:10;}
	.st1{fill:#44423A;}
	.st2{fill:#5E524E;}
	.st3{fill:#DED049;}
	.st4{fill:#77615B;}
	.st5{fill:#615648;}
	.st6{fill:#B77B5E;}
	.st7{fill:#6C6748;}
	.st8{fill:#A17057;}
	.st9{fill:#B28169;}
	.st10{fill:#524643;}
	.st11{fill:#F3E632;}
	.st12{fill:#5E5F5D;}
	.st13{fill:#67615E;}
	.st14{fill:#D2CF53;}
	.st15{fill:#917546;}
	.st16{fill:#FFFFFF;}
	.st17{fill:#F19A5B;}
	.st18{fill:#F1A963;}
	.st19{fill:#9B6952;}
	.st20{fill:#ED4343;}
	.st21{fill:#625953;}
	.st22{fill:#C17D58;}
	.st23{fill:#EB4444;}
	.st24{fill:#BA846C;}
	.st25{fill:#EC965A;}
	.st26{fill:#D94844;}
	.st27{fill:#84603F;}
	.st28{fill:#F6E831;}
	.st29{fill:#D2D4C9;}
	.st30{fill:#F4E432;}
	.st31{fill:#E09D6A;}
	.st32{fill:#EAEBE4;}
	.st33{fill:#D5D8D3;}
	.st34{fill:#E1B17B;}
	.st35{fill:#A78440;}
	.st36{fill:#CA5C59;}
	.st37{fill:#BAAA54;}
	.st38{fill:#A07B68;}
	.st39{fill:#AE9854;}
	.st40{fill:#E7E6DF;}
	.st41{fill:#B49E41;}
	.st42{fill:#565139;}
	.st43{fill:#746932;}
	.st44{fill:#5F553E;}
	.st45{fill:#EDB465;}
	.st46{fill:#BF8458;}
	.st47{fill:#AC8159;}
	.st48{fill:#8E6753;}
	.st49{fill:#F2F2EB;}
	.st50{fill:#BC8B73;}
	.st51{fill:#ECB86E;}
	.st52{fill:#F2E832;}
	.st53{fill:#E9AA6E;}
	.st54{fill:#D9D649;}
	.st55{fill:#9A7C6D;}
	.st56{fill:#E4C93A;}
	.st57{fill:#555247;}
	.st58{fill:#988E4C;}
	.st59{fill:#F1E833;}
	.st60{fill:#D0CD55;}
	.st61{fill:#C7C45B;}
</style>
<path class="st0" d="M71.5,135h-63c-4.7,0-8.5-3.8-8.5-8.5V8.5C0,3.8,3.8,0,8.5,0h63C76.2,0,80,3.8,80,8.5v118
	C80,131.2,76.2,135,71.5,135z"/>
<path class="st1" d="M59.5,50c-1,0.6-1.9,1.2-3.1,2c2,0.8,3.6,2.1,5.6,2.5c0.1,0.2,0.2,0.3,0.3,0.5c0.8,1.4,1.9,2.6,2,4.3
	c0,0.5-0.1,0.9-0.3,1.4c-0.2,0.4-0.3,0.8-0.7,0.9c-0.6,0.1-0.7-0.5-0.8-1c-0.3-0.9-0.4-1.8-1.2-2.5c-0.8-0.8-1.3-1.8-2.3-2.5
	c0.1,1.6,0.7,3,0.6,4.6c0,0.2-0.1,0.4-0.1,0.7c-0.4,0.8,0.1,2.2-1.4,2.4c-0.2-0.1-0.4-0.2-0.5-0.4c-0.3-1.2,0.4-2.3-0.3-4.1
	c-0.6,2.5-2.2,4.1-2.2,6.4c0,0.2-0.2,0.4-0.3,0.5c-1.5,0.3-2.4,1.3-3,2.6c0.2,0.5-1.3-0.2-0.5,0.7c0.2,0.7,0.3,1.3,1.4,1.2
	c1-0.1,2-0.2,3.1-0.3c0.8-0.1,1.8-0.4,2.1,0.8c-0.3,0.5-0.9,0.7-1.4,0.9c-0.7,0.3-1.4,0.5-2.2,0.8c-0.8,0.8-2.1-0.2-2.8,0.8
	c-0.2,0.3-0.3,0.7-0.3,1c0.1,0.5,0.5,0.8,0.9,1c0.8,0.4,1.7,0.6,2.1,1.5c0.1,0.2,0.2,0.6,0.4,0.6c2.8-0.5,3.1,1.5,3.6,3.4
	c0.3,0.2,0.5,0.4,0.7,0.6c0.1,1.7,1.1,2.8,2.5,3.5c0.2,0.1,0.3,0.3,0.4,0.5c1.3,0.8,1.7,2.1,1.6,3.6c0,0.8-0.2,1.4-1.1,1.4
	c-0.7-0.1-1.3-0.5-1.5-1c-0.6-1.5-1.2-0.3-1.7-0.1c-0.4,0-0.6-0.2-0.8-0.6c-0.3-0.7-0.5-1.5-0.9-2.2c-1-1.6-2.4-1.9-3.8-0.7
	c-0.9,0.7-2,0.8-2.9,1.5c-0.3,0.2-0.6,0.2-1,0.1c-0.8-0.7-0.7,0.6-1.3,0.5c-0.5,0.1-0.9,0.1-1.3-0.2c-0.6-1-0.1-2,0.1-3
	c0.5-2.6,0.1-3-2.6-2.7c-0.7,0.4-0.6,1-0.6,1.7c0.2,4.7-1,6-5.7,6.6c-0.2,0-0.5,0-0.7,0c-0.6-0.2-1.1-0.5-1.2-1.2
	c0.1-0.6,1.1-0.5,1-1.4c-0.1-1.1,0.7-1.4,1.7-1.5c1,0,1.4-1,1-1.9c-0.5-1-0.7-2.2-2.2-2.4c-0.5-0.1-0.7-0.9-0.2-1.1
	c2.3-0.6,2-2.8,2.7-4.3c0.4-0.7,0.8-1.3,0.9-2.2c0.1-0.6,0.3-1.1,0.8-1.5c0.4-0.1,0.6,0.1,0.8,0.4c0.1,0.2,0.2,0.4,0.2,0.6
	c0.1,0.6,0.1,1.3,0.6,1.7c0.7,0.6,1.6,0.6,2.5,0.5c1.3-0.1,2-0.8,1.4-2.1c-1.4-3.1-0.2-5.7,1.5-8.3c1.2-1.8,1.8-3.9,3.2-5.6
	c-0.5-0.5,0-1.5-1-1.7c-1.7-0.5-3.5-0.6-5.2-0.3c-1.5,0.3-1.9,1.5-2.3,2.8c-0.3,1,0.1,2.1-0.8,2.9c-1.4-0.4-0.8-1.8-1.3-2.6
	c-0.1-0.4-0.3-0.8-0.4-1.3c-0.2-0.7-0.4-1.4-0.4-2.2c0.6-0.6-0.8-0.7-0.3-1.3c0.3,0-0.1,0,0.2-0.1c0.2-0.1,0.2-0.1,0,0
	c-2,0.7-3.9,2.1-6.1,0.8c-0.8-1.3-1.3-2.7-1.7-4.2c-0.1-0.8-0.1-1.7,0.5-2.4c0.2-0.2,0.4-0.3,0.6-0.3c1.3,0.6,0.9,2.1,1.6,3.1
	c0.1,0.2,0.2,0.4,0.3,0.6c0.2,0.1,0.1,0.4,0.4,0.5c-0.3-0.7-0.7-1.5-0.5-2.3c0.9-4-1.9-6.1-4.3-8.6c-1.7-1.7-3.3-3.7-4-6.1
	c0.2-0.5,0.2-0.9,0.1-1.4c-0.5-1.9-1-3.8-1.1-5.7c0.1-0.2,0.3-0.3,0.5-0.4c1-0.2,2,0.3,3.2-0.4c-1.3-0.4-2.6-0.5-3.2-1.8
	c0.1-0.4,0.3-0.6,0.7-0.7c2,0.2,4,0.3,5.9,0c0.4,0.1,0.7,0.3,0.7,0.8c-2,1.3-1.9,1.5-1,3.5c0.5,1.2,0.7,2.4,1.4,3.5
	c0.4,0.6,0.7,1,1.5,0.5c1.2-0.7,2.7-0.9,3.1-2.6c0.2-0.9,1.3-1,2.2-1.1c0,0.1,0.1,0.2,0.1,0.3c-0.9,2.3,0.4,4.5,3.3,5.4
	c3.5,1.1,6.7,0.2,9.5-2.1c0.3-0.1,0.7,0,1,0.2c0,2.9,2.4,4.9,2.7,7.8c0.1,0.9,0.1,1.3-0.7,1.7c-1.4,0.7-2.6,1.8-3.9,2.7
	c-0.4,0.3-0.8,0.7-1.3,0.9c-2.6,0.3-1.8,2.4-2,3.9c-1.5,0.2-3-0.9-4.3,0.3c0.5,0,1.6-0.6,1.8,0.3c0.4,1.4-1,2-1.9,2.6
	c2.3,0.2,2.9-2,4.3-3.1c0.5-0.4,1-0.2,1.6-0.3c0.9-0.2,1.9-0.2,2-1.5c-0.1-0.4-0.3-0.8-0.3-1.2c0-0.2,0.1-0.4,0.3-0.6
	c0.8-0.2,1.4,0.4,2.1,0.5c0.6,0.1,1.2,0.1,1.8-0.1c0.2-0.1,0.4-0.2,0.5-0.3c0.7-0.4,1.2-0.9,1.5-1.6c0.2-0.1,0.4-0.2,0.6-0.2
	c0.5,0.1,1.2-0.1,1.1,0.9c-0.3,0.3-0.7,0.7-1,1C60.1,49.4,59.8,49.7,59.5,50z"/>
<path class="st2" d="M36.5,89.1c0.2,0.4,0.6,0.7,1.1,0.9c-0.5,1.1-0.4,1.8,1,1.5c0.6-0.1,1.2-0.2,1.8-0.2c0.9,0,1.8,0,2.7,0.1
	c0.2,0,0.4,0.1,0.6,0.1c2.5,0.3,2.5,0.3,2.6-2.1c0-0.5,0.2-0.9,0.3-1.4c0.1-0.2,0.2-0.4,0.4-0.5c0.4,0,0.9,0,1.3,0
	c1.8,3.9,0,6.7-4.1,6.3c-1.3-0.1-2.5-0.1-3.8,0c-3.9,0.5-4.1,0.4-4.9,4.2c-0.9,4.2-2,8.4-2.9,12.6c-0.2,1-0.4,2.1,0.6,2.9
	c1.2,1.3-0.9,1.4-0.8,2.3c-0.6,1.5-1.4,2.9-1.9,4.5c-0.3,0.4-0.6,0.7-1.1,0.8c-0.2,0-0.4,0-0.6-0.1c-0.3-1,0.1-2-0.3-3
	c0.2-0.7,0.9-1.1,1-1.8c0.7-2.6,0.1-5.4,1.4-7.6c-0.2,0.6-1.3,0.9-1.6,1.9c-0.3,0.9-0.8,0.1-1.1-0.4c-0.5-2.6,0.3-5.1,0.6-7.6
	c0.3-3.1,0.4-6.2-0.2-9.8c-1.6,2.7-2.6,5-3.1,7.6c-0.2,1.4-0.5,2.8-1.3,4.1c-1.6,0.7-1.7-0.7-1.5-1.4c0.8-2.7,0.4-5.6,2-8.2
	c1.6-2.6,0.5-6.7-2.1-8.7c-0.8,4.2-0.6,8.5-0.5,12.7c0.1,2.3,0.6,4.6-0.1,6.9c-0.2,0.8-0.4,1.7-1.5,1.5c-1.1-0.2-0.7-1-0.7-1.7
	c0.1-3.3,0.4-6.5,0.5-9.8c0.3-5.3,0.3-10.6-0.7-15.9c-0.7-3.7-0.4-7.6,0-11.4c0.2-1.6,0.8-3.1,2-4.2c0.8-0.7,0.9-1.5,0-2.2
	c-1.2-0.9-1.8-2.2-2.9-3.4c-0.5,0.6,0,1.5-0.7,1.8c-1-2.5-0.7-3.2,1.5-3.3c1,0.1,2.2-0.2,1.8,1.5c0.1,0.6,0.3,1.3,0.8,1.3
	c0.7,0.1,0.2-0.7,0.4-1.1c1.3-1.5,2.7-0.8,4.1-0.2c0.4,0.2,0.7,0.5,0.4,0.9c-1.1,1.5,0,3.1-0.1,4.6c0.7,1.9,0.1,3.8-0.2,5.7
	c-0.2,1.5-1.6,1.8-2.7,0.7c-1.1-1.2-1.7-2.6-1.7-4.4c-1.2,1.4-0.9,2.8-0.7,4.1c0.4,1.7,0.7,3.5-0.2,5.2c-0.9,2.2-0.8,4.3,0.9,6.1
	c0.2,0.2,0.3,0.3,0.5,0.5c2.7,0.8,5.2,2.1,8,2.4c0.4,0,1,0.2,1,0.8c0,0.5-0.4,0.7-0.8,0.7c-1.3,0.1-1,1-0.8,1.7
	c0.8,4.1,1.7,8.1,1.2,12.3c-0.2,1.5,1.2,2.9,0.2,4c0.2-0.8,0.4-1.8,0.1-3c-0.5-2.5,0.2-5,0.2-7.5c0-1.8,2.2-2.5,2.7-4.3
	C35,88.4,36.1,88.4,36.5,89.1z"/>
<path class="st3" d="M30.2,120.2c-0.1-1.9,1.3-3.2,1.9-4.8c-0.2-0.6,0.3-0.8,0.6-0.6c1.5,0.7,3.3,0.1,4.6,1.1
	c0.9,0.7,0.4-0.3,0.4-0.3c0.1-1,0.8-1.1,1.6-1.1c0.6,0,1.2,0,1.4,0.6c0.2,0.8-0.4,1.3-0.9,1.8c-0.9,1-2,1.9-2.7,3.1
	c-0.1,0.5-1.3,1.3-0.4,1.4c2.6,0.1,5.4,1,7.8-0.6c0.4-0.4,0.7-0.8,1.1-1.2c0.7-0.7,1.4-1.4,2.1-2.1c0.4-0.4,0.8-0.8,1-1.3
	c0.8-2,1.6-2.2,3.6-0.9c0,0.7-0.7,0.8-1.1,1.2c-0.8,1.3-2.2,2.2-3,3.5c-0.2,0.4-0.5,0.8-0.7,1.7c3.2-0.6,6.7,1.4,9.2-2
	c0.2-0.3,0.5-0.6,0.8-0.9c0,0,0,0,0,0c-0.3,0.3-0.7,0.7-0.9,1.1c-2.1,2-6.5,2.2-8.4,0.4c0.6-1.7,2.3-2.5,3.2-4
	c1.1-0.4,1.4,0.9,2.4,1c2.6,0.2,3.9-0.9,4.8-3.1c0.4-0.2,0.7-0.3,1.1-0.3c1,0,2.2-0.3,2.8,0.9c0.5,1-0.3,1.8-0.9,2.5
	c-1.2,1.2-2.6,2.3-3.5,3.7c-0.2,0.7,0.3,0.6,0.7,0.6c2.2,0,4.4,0,6.6,0c1.1,0,1.9-0.5,2.7-1.3c0.1-0.1,0.3-0.2,0.4-0.2
	c-0.1,0-0.1,0-0.2,0.1c-0.4,0.2-0.7,0.5-1.1,0.8c-0.2,0.1-0.4,0.2-0.6,0.2c-0.3,0.1-0.6,0.1-0.9,0.1c-0.7,0-1.6,0.1-1.8-0.7
	c-0.2-0.8,0.8-0.7,1.2-1.2c0.2-0.2,0.3-0.4,0.4-0.6c1.1-2.5,2.8-3.9,5.2-3.2c-0.5,0-1.4,0.1-2.3,0c-1.4-0.3-1.4-0.8-0.2-1.5
	c2.4-0.1,4.8-0.2,7.3,0.4c-0.1,1.3-1.3,1.7-2,2.3c-0.6,0.7-1.2,1.3-1.6,2.1c0,0.2,0,0.3-0.2,0.3c-2.5,3.4-5.7,4.3-9.9,4.2
	c-17.8-0.6-35.6-0.3-53.4-0.3c-1,0-1.9-0.1-2.9-0.3c-1.2-0.2-1.2-0.8-0.8-1.7l0,0c0.3-0.4,0.6-0.7,1-1l0,0c1.8-2.1,3.7-4,5.8-5.8
	l0,0c1-0.5,2-0.2,3.1-0.2c2.3,0,2.6,0.3,2,0.7c-1,0.8,0.3,1.1,0,1.9c-1.4,3.2-4,5-7.6,4.8c-0.5,0-1,0-1.3-0.5
	c-0.3-0.5,0.2-0.9,0.5-1.2c0.7-0.8,1.5-1.4,2.1-2.3c0.6-0.9,1.3-1.7,2.2-2.3c0.4-0.3,0.9,0,1.3-0.3c-0.4,0.2-0.9-0.1-1.3,0.3
	c-0.9,0.5-1.6,1.2-2.1,2.1c-0.7,1.1-1.7,1.8-2.6,2.8c-0.7,0.8-0.6,1.3,0.5,1.3c3.2-0.1,6.3,0,9.5-0.2c1.5-0.1,2.2-1.4,3.2-2.3
	c1.3-1.2,2.4-2.5,3.7-3.5c-0.2,0.2-0.6,0.3-1,0.3c-0.8-0.1-1.8,0-1.8-1c0-1,1.1-0.9,1.9-1c0.3,0,0.6,0,1,0c0.8,0.1,1.9-0.1,2.3,0.9
	c0.3,0.9-0.4,1.5-1,2c-1.4,1.4-2.6,2.9-4,4.7c3.4,0.1,6.6-0.1,9.8,0.1c1.5,0.1,2-1.1,2.8-1.9c-0.8,0.2-0.9,1.3-1.7,1.6
	C31.9,121.2,30.4,122.1,30.2,120.2z"/>
<path class="st1" d="M19.7,57.2c-1.5,0.1-1.5,0.1-1.5,1.8c0,0.4,0,0.8,0,1.1c-1.3,1.5-3,1.8-4.9,2c-1.6,0.2-2.2-1.1-3.1-1.9
	c-0.9-0.8-0.9-2-0.9-3.1c0-0.9,0.1-1.7,0.2-2.6c-0.3-0.5-0.3-1,0-1.5l0,0c1.4,0.2,1,1.4,1.1,2.2c0.1,0.9,0.1,1.7,0.6,2.5
	c0.4,0.7,0.8,0.2,1.2,0c1.3,0,0.7,1.7,1.9,2c-0.4-0.4-0.8-0.7-0.8-1.2c0-0.7,0.1-1.2,0.5-1.8c0.4-0.6,1.1-0.5,2-0.9
	c-1.8-0.2-2.3-2.1-4-2.2c0.2-0.7-0.8-1.1-0.4-1.8c1.8-1.1,3.7-0.3,5.5,0c2.3-0.7,3.3-2.4,3.6-4.6c0.1-0.8,0-1.7,0.1-2.6
	c-0.6,1.5-1.2,3.2-2.9,3.8c-0.6,0.5-1.3,1.2-2.1,0.7c-0.9-0.5-1-1.6-0.9-2.5c0.1-1.1,0.6-1.9,1.6-2.5c2-0.7,3.1-2,2.6-3
	c-0.5-1.1-3.1-1.6-4.4-0.7c-0.6,0.4-1.2,0.4-1.8,0.1c-1.5-2,0.4-3.4,0.8-5.1c0.1-0.3,0.4-0.4,0.6-0.7c0.3-0.8,0.1-1.8,0.7-2.5
	c0.4,0,0.7,0.1,0.8,0.3c1.4,2.2,3.8,2.4,6,2.8c1.2,0.2,2.3,0.4,3.1,1.4c-0.9,1-1.8,1.4-3.1,0.5c-1-0.8-1.3,0.1-1.2,0.8
	c0.1,1.3,1,2.6,2.1,3c1.6,0.5,2.6,1.7,4,2.4c0.2,0.2,0.3,0.3,0.3,0.6c0-0.3-0.2-0.5-0.4-0.6c-0.9-0.5-1.6-1.3-2.3-2
	c-0.4-0.4-0.7-0.9-0.2-1.5c0.5-0.6,1-0.2,1.4,0.1c1.4,1.2,2.5,2.6,3.3,4.3c0.8,1.7,2.9,2.7,2.8,4.9c0.1,0.2,0.2,0.4,0.3,0.6
	c0.2,0.5,0.5,1,0,1.6c-1.5,0.3-2-1-2.9-1.7c-1.7-1.4-2.8-3.4-4.8-4.5c-0.3-0.2,0.1,0.1-0.2,0.1c-0.1,0-0.1,0.3-0.1,0.4
	c0.2,1.6,0.6,3.3-0.6,4.8c-0.5,0.5-0.3,1.2,0.1,1.8c0.7,0.9,1,2,1.3,3c0.2,0.8,0.9,1.7-0.1,2.4C23.9,58,23,57.7,22.4,57
	c-0.8-1-0.8-2.6-1.9-3.4c-0.9,0.6-0.5,1.3-0.5,2C20,56.1,20,56.7,19.7,57.2z"/>
<path class="st4" d="M60.9,117.3c0.4-0.9,1.9-1.3,1.2-2.5c-0.5-0.9-1.7-0.3-2.6-0.4c-0.3,0-0.6,0.1-0.9,0.1c-0.2-0.2-0.2-0.5,0-0.7
	c3.5,0,4.3-2.4,5.1-5.2c0.7-2.6,1.2-5.1,1.4-7.7c0.2-3-0.3-5.9-2.2-8.4c-0.5-0.7-1.3-1.5-0.9-2.6c1-0.1,0.9-0.8,0.9-1.4
	c0.7-0.5,0.9,0.1,1.3,0.5c1.2,1.2,2,2.8,3.5,3.7c0.7,0.4,0.6,1,0.3,1.7c-0.4,1,0.2,1,0.9,1c0.4-0.1,0.8-0.1,1.2-0.2
	c-1.2-2.8,1.7-4.9,1.4-7.6c-0.1-0.9,0.1-1.9-0.1-2.8c-0.5-2.3,1.9-7.4,3.9-8.3c0.4,3.8-0.4,7.4-0.9,11.1c-0.5,3.7-0.6,7.4-0.5,11.2
	c0.1,1.9-0.1,3.8-0.6,5.9c-1.2-1.5-1.6-3.4-3.2-4.2c-0.7,0.2-0.8,0.7-0.9,1.3c-0.5,2.7-1.2,5.4-0.9,8.3c0.1,1.1-0.2,2-0.8,2.9
	c-0.6,0.9,0.2,1.1,0.9,1.1c-0.4,0.6-0.8,1.2,0.3,1.3c1,0.1,2.1,0,3.1,0.1c0.3,0,0.6,0.1,0.6,0.5c0,0.1,0,0.2-0.1,0.2
	c-0.3,0.3-0.5,0.3-0.7,0c-0.5-0.6-1.2-0.3-1.8-0.3c-1.2-0.1-2,0.2-2.4,1.4c-0.3,0.8-0.9,1.4-1.6,2C63,120.2,61.8,119.7,60.9,117.3z"
	/>
<path class="st5" d="M41.7,31.8c0.5-0.6,1.3-0.6,1.9-0.8c1.7-0.7,2-1.4,0.5-2.6c-0.8-0.7-1.3-1.5-1.4-2.4c-0.2-1.8-0.2-3.5-1.3-5.1
	c-0.8-1.2,0.3-2.8,2.2-3.8c0.5,0.9-1.2,1.9-0.1,2.6c0.9,0.6,2-0.1,2.9-0.5c2.3-1,4.7-0.2,7.1,0c0.5,0.1,1,0.4,1.6,0.3
	c-1.2-2.1-4-3.1-7.1-2.8c-1.5,0.2-2.8,1.3-4.4,0.5c0.7-3.1,1.1-3.5,4.1-3.9c0.7-0.1,1.2-0.4,1.7-0.7c0.6-0.3,1.3-0.6,1.9,0.2
	c-1,0.9-1,1.5,0.4,1.9c0.1-0.7-1-1.1-0.5-1.9c0.4-0.2,0.8-0.1,1,0.3c0.7,1,1.7,1.4,2.8,1.6c-0.2,1,0,1.9,0.9,2.4
	c0.7,0.4,0.7-0.7,1.3-0.7c0.4,2,0.1,3.9,0.1,5.9c0,1.1-0.5,2.2-1.6,2.8c-1,0.5-1.3,1.4-1.4,2.5c-0.3,2.4-0.4,2.4,0.8,3.8
	c-0.6,0.9-1.3,1.8-2,2.6c-2.8,3.5-8.1,3.1-10.5-0.7C42.5,32.7,42.1,32.3,41.7,31.8L41.7,31.8z"/>
<path class="st6" d="M69,95.6c-0.4,0.2-0.7,0.5-1.1,0.5c-0.8,0-1.2-0.3-0.9-1.2c0.2-0.4,0.4-0.7,0.6-1c0.2-0.3,0.3-0.7,0-0.8
	c-2.3-0.8-2.9-3.4-4.8-4.7C62.7,88,62,87.6,62.7,87c0.1-0.1,0.3-0.3,0.2-0.3c-0.2-0.1-0.4-0.2-0.6-0.2c-1.3,0.2-0.8-0.7-0.9-1.4
	c0.2-0.4,1-0.2,0.8-1.1c-0.4-1.7,0.5-2.2,2.1-2c0.9,0.1,1.9,0.2,2.5,0.2c-1.6-0.1-1.9-1.2-1.9-2.8c0-2.1,1.3-3.4,2.4-4.9
	c1.1-1.5,0.9-1.7,2.9-1.6c-1.3-1.3-1-2.6,0-3.8c0.9-1.1,1.2-2.2,0.5-3.7c-0.5-1.1-0.8-2.4-1.1-3.6c-0.7-2.7-2.1-4.6-4.8-5.4
	c-0.3-0.1-0.5-0.3-0.7-0.6c0.1-0.7,0.7-0.4,1-0.6c2.9,0.6,5,2.2,6.6,4.6c1.9,3.2,2.3,6.8,2.3,10.5c0,1.9-0.9,3.5-1.7,5.2
	c-0.1,0.2-0.2,0.4-0.3,0.6c-0.6,3.1-1.4,6.2-3,8.9c-0.2,0.3-0.6,0.6,0,1.2c1.6,1.3,1,3.3,0.5,4.6c-0.4,1-0.2,1.8-0.2,2.7
	C69.4,94.1,69.4,94.9,69,95.6z"/>
<path class="st7" d="M32.6,121.1c0.9-1.4,2.3-2.3,3.6-3.2c-0.8,2.5-3,4.2-5.4,4.2c-3.3,0-6.5,0-10.2,0c1.9-2.9,4.3-4.9,6.2-7.2
	c-1.8-0.7-2.5-0.7-4.5-0.1c0.4,0.8,1.1,0.4,1.6,0.6c0.1,0.2,0.1,0.4,0,0.6c-1,0.7-3.2,0.4-2.2,2.7c0,0.2,0,0.4-0.1,0.6
	c-0.6,0.6-1.2,1.3-1.8,1.9c-0.4,0.4-0.8,0.8-1.4,0.8c-4,0-7.9,0-12.3,0c1.3-2.2,2.8-3.5,4.3-4.9c0.1,0.1,0.2,0.1,0.2,0.2
	c-0.5,1.5-2.2,2-2.7,3.7c1.8-0.2,3.5-0.3,5.3-0.5c0.5,0,0.6-0.4,0.6-0.8c0-0.9,0.7-1.6,1.2-2.3c0.3-0.5,1.1-0.5,1.3-1.2
	c0.2-0.6-1.4-0.9-0.1-1.5c0.1-0.1,0-0.3-0.4-0.3c-1.4,0-2.9,0-4.3-0.1c0.9-0.9,2.1-0.5,3.1-0.4c2.2,0.3,3.5-0.5,4.2-2.5
	c0.4-0.4,0.1-1,0.3-1.4c0.1-0.3,0.2-0.7,0.2-1c0.3-0.4,0-1,0.3-1.4c0-0.2,0.1-0.3,0.1-0.5c1.2,0.3,1,1.2,0.9,2
	c-0.2,1.4-0.5,2.8-0.7,4.2c1-0.2,1.1-1.7,2.3-1.3c2.1,2.2,4.2,1.9,5.9-0.9c1.3,0.5,1.3,0.5,1,2.1c-0.3,1.2-0.5,2.3,0.8,3.1
	c0.3,0.3,0.4,0.7-0.1,0.9c-0.3,0.2-0.7,0.2-1,0.5c-0.9,1-2.5,1.5-2.5,3.1c0.7-0.2,1.5-0.6,2.5-0.2c0.2,0,0.4,0,0.6,0.1
	C30.4,121.5,31.5,121.3,32.6,121.1z"/>
<path class="st8" d="M32.2,51.2c-0.2-0.5-0.3-1.1-0.5-1.6c0.1-0.1,0.3-0.2,0.3-0.3c-0.2-0.1-0.2,0-0.2,0.2c0,0.3,0-0.1-0.1,0.2
	c-1.5-0.8-0.7-2.3-1-3.4c-0.7,0-0.3,0.8-0.7,1c-0.1,0-0.4,0-0.4-0.1c-0.9-2.7-2.3-5.1-4.4-7c-0.2-0.2-0.4-0.5-0.8-0.2
	c-0.3,0.3-0.2,0.5,0,0.8c0.8,0.9,1.6,1.8,2.4,2.6c0,0,0,0,0,0c-0.9-0.3-2.1,0.2-2.4-1.3c0-0.1-0.5-0.3-0.6-0.3
	c-1.4,0.9-1.6-0.6-2.3-1.1c-0.8-0.5-1.1-1.5-1.6-2.3c-0.7-1.1,0.7-1.6,0.5-2.5c0.3-0.3,0.7-0.1,0.9,0.1c1.1,1.2,2.3,1,3.6,0.6
	c0,0-0.1,0-0.1,0c0.9,0.2,1.5,1.2,2.5,0.9c0.1-0.1,0.2-0.1,0.3,0c1.2,1.8,2.9,3.1,3.6,5.3c0.2,0.7,1.2,0.5,1.8,1.2
	c1.5,1.6,2.6,3.4,3.7,5.3c0.2,0.3,0.4,0.5,0.3,0.8c-1,1.7-0.5,3.3,0.3,5c0.1,0.2,0,0.6,0,1c-1.2-0.3-1.3-1.4-1.8-2.1l0,0
	c-1-0.9-0.6-2.4-1.5-3.4l0,0c-0.6,0.7-0.5,1.6-0.6,2.4C32.4,52.9,32.1,52.2,32.2,51.2z"/>
<path class="st9" d="M22,112c-0.8,0.8-1,2.6-2.9,1.8c0.3-1.5,0.7-3.1,0.9-4.7c0.1-0.7,0.4-1.4-0.3-2c-0.1-0.7-0.2-1.3,0.3-1.9
	c0.1,0.3,0.1,0.7,0.2,0.9c0.4,0.7,1,0.7,1.2,0c0.4-1.8,0.6-3.6,0.9-5.5c0-0.2-0.1-0.5-0.4-0.5c-0.8,0-1.1-0.4-0.6-1
	c0.5-0.7,0.3-1.5,0.3-2.3c0.1-3.5-0.5-7.1,0.6-10.5c0.2-0.5-0.3-0.8-0.1-1.3c0.8,0.2,1.4,1.1,2.3,1c0.4,0,0.7,0.4,0.9,0.7
	c0.6,1.3,0.3,4.3,0.2,6c-0.1,1.2-0.8,1.9-1,2.9c-0.3,1.1-0.1,2.5-0.4,3.7c-0.2,0.7-0.2,1.4-0.6,2c-0.6,1.1-0.4,2,0.4,2.8
	C24.2,107.1,23.6,109.7,22,112z"/>
<path class="st10" d="M69,95.6c-0.2-0.5-0.3-1-0.2-1.6c0.3-1.7,0.2-1.7-1.2-2.7c0.5-0.7,1,0,1.6-0.1c0.6-1.2-0.2-2.6,0.4-3.8
	c0.2-0.4-0.1-0.9-0.4-1c-2.3-0.7-0.4-2.2-0.2-2.5c1.2-1.2,0.9-3.2,2.1-4.3c-0.6-1,0.4-1.8,0.2-2.7c-0.1-0.6,0.3-1,0.7-1.4l0,0
	c-0.1-1.4,1.1-2.4,1.4-3.8c0.1-0.6,0.4-1.5,0.3-2c-0.5-2.3,0.7-4.7-0.6-6.8c-0.5-0.8-0.6-1.8-1.3-2.5c-0.2-0.2-0.1-0.6,0.2-0.8
	c1.4,1.7,2.2,3.6,2.6,5.8c0.7,3.7,1.3,7.3,0.8,11.1c-1.4,1.1-2,2.6-2.3,4.3c-0.1,0.8,0.3,1.9-1.1,2.2c-0.2,0-0.5,0.7-0.2,1.1
	c1.4,2.5,0,4.9-0.2,7.4c-0.1,1.4-0.8-0.7-0.9,0.2c-0.1,0.6,0,1.3,0,1.9c0,0.6,0,1.1,0,1.7c0,0.7,0,0.6-0.9,0.6
	C69.4,95.7,69.2,95.8,69,95.6z"/>
<path class="st7" d="M4.8,121.1c-0.2,1.2,0.4,1.4,1.5,1.4c4.7,0,9.4,0,14.1,0c6.9,0,13.7,0,20.6,0.1c3.4,0.1,6.8-0.1,10.3,0
	c4.3,0.1,8.6,0.2,12.9,0.4c2.4,0.1,4.2-0.5,5.7-2.4c0.5-0.6,0.9-1.3,1.8-1.5c-0.9,1.2-1.9,2.4-2.8,3.5c-0.8,0.9-1.9,1-3.1,1
	c-6.6-0.1-13.2-0.2-19.9-0.1c-12.7,0.1-25.4,0-38-0.3c-1.5,0-3-0.2-4.6-0.3C3.5,121.9,4,121.4,4.8,121.1z"/>
<path class="st11" d="M41.7,31.9c0.6,0.1,1.4,0,1.6,0.8c0.2,1.2,0.8,2.1,1.9,2.6c1.2,0.5,2.5,0.3,3.7,0.3c1.7-0.1,3.2-0.8,4.3-2.5
	c0.5-0.7,0.8-2,2.2-1.9c0.2,0.1,0.5,0.1,0.7,0.2c0.8,0.2,1.6,0.4,1.3,1.5c-0.2,1-0.4,2.1-1.6,2.4c-0.4,0.1-0.8,0-1.2,0.2
	c-1.7,1.9-3.5,3-6.4,2.8c-2.2-0.2-4.1-0.6-5.8-1.9c-0.5-0.4-0.8-0.9-1.2-1.4C40.1,33.1,40,33.1,41.7,31.9z"/>
<path class="st12" d="M34.5,27.9c-0.1-0.1-0.3-0.3-0.4-0.4c-0.2-1.1,0.9-1.1,1.5-1.6c2.5-2.3,3.4-5.6,2.3-8.7
	c-0.9-2.4-4.2-4.5-7-4.5c-2.7,0-5.4,1.8-6.3,4.3c-1.3,3.2-0.8,6,1.4,8.1c0.7,0.7,1.8,1.1,2,2.3c-0.2,0.2-0.4,0.4-0.6,0.5
	c-0.2,0.3-1.2,0.2-0.4,1c0.4,0.4,0.7,0.8,0.5,1.4c-0.2,0-0.4,0-0.7,0.1c-1.2-1-2-2.2-2.3-3.8c-0.1-0.7-0.5-1.3-0.9-1.9
	c-2.1-3.8-1.7-7.1,0.7-10.2c2.1-2.6,6.1-3.8,9.6-2.7c3.6,1.1,6.1,4.2,6.4,7.8C40.5,22.8,38.1,26.3,34.5,27.9z"/>
<path class="st13" d="M12.5,57.8c-0.2,0.3-0.4,0.7-0.6,1c-1.6-0.9-2-2.2-1.9-3.9c0.1-0.7,0.2-1.4-0.5-2c0-2.8,0.1-5.6-1.6-8
	c-0.3-0.5-0.3-0.9,0-1.4c1.2-1.8,1.2-4.1,2.8-5.7c0.5-0.5,0.3-1.2,0.2-1.8c-0.1-0.5-0.2-0.9-0.3-1.4c0-0.5,0-1,0.5-1.3
	c0.6-0.3,0.9,0.2,1.1,0.5c0.5,0.7,1,1.3,1.9,0.7c-0.7,1.4-0.3,3.2-1.5,4.5c-0.1,0.1-0.4,0.7,0.2,1c0.1,0.2,0.1,0.4,0,0.6
	c-0.3,0.2-0.6,0.2-0.9,0.3c-0.6,0.1-0.7,0.5-0.8,1c-1.3,3.4-0.4,6.8,0.3,10.2c0.4,0.4,1,0.7,0.4,1.4C10.9,55,12.9,56.3,12.5,57.8z"
	/>
<path class="st5" d="M54.6,35.6c1-0.5,1.7-1.1,2.2-2.4c0.4-1.1-0.3-1.3-0.7-1.8c1-0.4,1.6,0.1,2.3,0.8c1.2,1.2,1.9,2.7,2.5,4.3
	c0.9,2.4,1.4,4.9,1.9,7.4c0.3,1.5,0.4,3.2-1.3,4.2c-0.3-0.5-0.9-0.4-1.4-0.4c-0.8-0.4-0.6-1-0.1-1.5c1-1,0.9-2.1,0.5-3.3
	c-0.9-2.7-1.7-5.3-1.8-8.1c-1.4,0-1.6,1.7-2.8,0.9C55.4,35.7,55,35.6,54.6,35.6z"/>
<path class="st14" d="M57.5,16.3c-0.6,0.4-0.2,1.2-0.6,1.9c-0.7-0.6-1.5-1.1-2.1-1.7c-0.8-0.8-0.6-1.5,0.5-1.9c0,0,0,0,0,0
	c0.4,0.4,1,0.5,1.6,0.7C57.1,15.4,57.3,15.9,57.5,16.3z"/>
<path class="st7" d="M11.5,114.4c-1.9,2-3.6,4.2-5.8,5.8C7.4,117.9,9,115.7,11.5,114.4z"/>
<path class="st1" d="M27.5,37.5c-0.2,0.5-0.2,1.3-1,0.5c-0.5-0.5-1-0.9-1.5-1.4C26,36.4,26.7,37,27.5,37.5z"/>
<path class="st15" d="M65.2,55c-0.3,0.3-0.6,0.4-1,0.4c-0.9,0.5-1.6,0.1-2.3-0.5c0-0.1,0-0.3,0-0.4C63.1,54.2,64.1,54.8,65.2,55z"/>
<path class="st7" d="M71.9,118.9c-0.1-1.1,0.8-1.6,1.6-2.1C73.3,117.7,72.7,118.4,71.9,118.9z"/>
<path class="st5" d="M56.7,15.2c-0.9,0.7-1.1-0.2-1.6-0.7C55.9,14.3,56.4,14.6,56.7,15.2z"/>
<path class="st7" d="M5.7,120.1c0,0.6-0.4,1-1,1C4.8,120.5,5.1,120.1,5.7,120.1z"/>
<path class="st9" d="M19.1,110c0.1,0.5,0.2,1-0.3,1.4C18.7,111,18.6,110.4,19.1,110z"/>
<path class="st9" d="M19.6,107.7c0.1,0.5,0.2,1-0.3,1.4C19.3,108.6,19.2,108.1,19.6,107.7z"/>
<path class="st5" d="M59.5,50c0-0.6,0.4-0.8,0.9-0.9C60.3,49.7,60,49.9,59.5,50z"/>
<path class="st13" d="M9.6,52.9c0,0.5,0,1,0,1.5C9.1,53.9,9.1,53.4,9.6,52.9z"/>
<path class="st16" d="M33.7,114c-2.1-0.2-2.2-0.2-1.9-2.2c0.4-2.5,1-5,1.7-7.4c1-3.2,1.1-6.5,2.4-9.7c0.5-1.2,1-1.6,2.2-1.5
	c0.9,0.1,1.9-0.1,2.8-0.2c1-0.1,2-0.3,3,0.1c0.6,0.2,1.4,0.1,2.1,0.1c1.3-0.1,2.1-0.8,2.2-2.1c0.1-1.2,0.1-2.4,0.1-3.6
	c0.3-0.3,0.4-0.9,1-0.5c2.7,3.5,5.5,6.9,6.3,11.5c0.1,1.8,0,3.6,0.1,5.4c0,2.8-0.7,5.5-1,8.3c-0.2,1.6-1.1,2.4-2.8,2.3
	c-5.2,0.6-10.3-0.1-15.5,0.2C35.6,114.7,34.5,114.7,33.7,114z"/>
<path class="st17" d="M21.2,75c0.9-2,0.3-4,0-6c-0.4-2.1,0.1-3.1,2.1-4.3c0.3,0.7,0,1.4,0,2c-0.1,1.8,1.1,2.6,2,3.7
	c0.5,0.6,1.2-0.2,1.2-0.6c-0.1-1.9,1.1-3.9,0-5.8c0.3-0.8,0.7-1.4,1.6-1.7c0.4-0.1,0.9-0.3,0.9-0.7c0.2-1.9,2-1.9,3-2.7
	c0.1,0,0.2-0.1,0.3-0.1c0.2-0.1,0.5-0.1,0.7-0.1c0.7-0.1,1.5-0.1,2.2,0c0.8,0.1,1.5,0.3,2,1c0.3,0.6,0.4,1.2,0.4,1.8
	c-0.1,3.1,1.2,5.5,3.6,7.4c1.4,1.1,2.3,2.4,1.1,4.3c0,0.5-0.3,1-0.6,1.4c-1,1.5-1.6,3.3-3.3,4.2c-0.5,0.2-0.7,0.6-0.7,1.2
	c0,2-1.2,1.8-2.5,1.2c-0.1,0.6,0.2,1,0.4,1.4c0.3,0.8-0.1,1.2-0.8,1.4c-0.6,0.2-1.2-0.1-1.3-0.7c-0.2-1.3-1.6-2.3-0.7-4.1
	c0.4-0.9-0.5-2.9-0.8-4.5c-0.2-1-0.3-2,0-3c0-0.3-0.5,0.1-0.2,0c0.1,0,0.1,0.1,0.1,0.2c-0.6,1.2-0.9,2.5-0.5,3.9
	c0.3,1.1-2.5,6.2-3.6,6.7c-0.7,0.3-1.4,0.3-2.1,0.1c-0.4-0.1-0.7-0.4-0.4-0.9c1-1.9,1-1.9-0.3-4c-0.2-0.1-0.3-0.1-0.4,0.1
	c-0.7,1-1.5,2.2-2.8,1.6c-1.4-0.7-0.4-1.9-0.3-3C21.3,75.9,21.4,75.4,21.2,75z"/>
<path class="st18" d="M61.9,54.9c0.8,0.2,1.5,0.4,2.3,0.5C65,56,66,56,66.9,56.5c1.4,0.9,2.6,2.5,3,4.3c0.2,0.8,0.5,1.5,0.9,2.2
	c0.7,1-0.1,2.6,1.4,3.2c-0.5,0.9-0.2,2-1.1,2.8c-0.4,0.4-0.7,0.9-1,1.3c-0.5,0.7-0.2,1.4,0.2,2c0.2,0.3,1.1-0.3,0.8,0.6
	c-0.2,0.6-0.6,0.6-1.2,0.5c-1.2-0.2-1.8,0.2-2,1.5c-0.1,0.5-0.1,1.3-0.9,1.5c-0.1,0-1.4,1.7-1.4,1.7c0.3,0.7,0.3,1.2-0.1,1.9
	c-0.4,0.8,0.1,1.5,1.1,1.7c0.7,0.1,1.4-0.2,2.1,0.3c-0.3,0.8-1,0.7-1.6,0.7c-0.9,0-1.8,0-2.6,0c-1.4,0-1.4,0.2-1.6,0.5
	c-0.4,0.8,0,1.3,0.3,1.9c-0.7,0-1.2,0-1.8,0c0,0,0,0,0,0c-0.5-1.6-2.7-2-2.9-3.8c-0.3,0-0.5-0.1-0.8-0.1c0.5-3.1,1.3-3.7,4.3-3.6
	c-5.1-0.9-6.8-2.8-5.8-6.5c0.4-0.5,1-0.3,1.5-0.4c0.3-0.6,0.7-1,1.3-1.4c4.1-2.2,5.4-5.7,5-10.1c-0.5-1.3-1.2-2.4-1.9-3.6
	C61.8,55.3,61.5,55.1,61.9,54.9z"/>
<path class="st19" d="M21.2,75c0.4,0.1,0.7,0.2,0.6,0.8c-0.2,0.8-0.4,1.7-0.5,2.6c0,0.8,0.7,1.2,1.2,0.6c0.4-0.4,1.4-0.4,1.2-1.5
	c-0.1-0.5,0.4-0.8,1-0.8c0.6,0,0.8,0.5,1,0.9c0.7,1.3,0.8,2.8,1.3,4.2c-0.4,0.3-1.1-0.1-1.6,0.4c1.5,0.4,2.4-0.1,3.2-1.4
	c0.7-1.2,1-2.7,2.1-3.7c0.3-0.3,0.4-0.8,0-1.3c-0.4-0.4-0.5-1.1-0.3-1.6c0.4-1.4,0.9-2.8,1.2-4.1c0.5,0,0.6,0.2,0.6,0.4
	c-0.1,2.2,0.8,4.3,0.4,6.5c-0.1,0.6,0.4,0.9,0.7,1.1c0.8,0.7,0.6,1.8,0.1,2c-1.3,0.7,0,0.7,0.1,1c0.2,0.7,0.3,1.4,0.5,2.1
	c0.1,0.6,0.6,0.5,0.9,0.3c0.4-0.2,0.7-0.6,0.3-0.9c-1.2-0.8-0.1-1.8-0.9-2.9c0.7,0.2,1,0.2,1.2,0.3c0.5,0.4,0.6,1.3,1.4,1
	c1-0.3,0.5-1.2,0.3-1.8c-0.2-0.5,0.2-0.5,0.4-0.6c1.9-0.9,2.6-3,4.3-4.2c0.6,1.3-0.6,2.2-1,3.2c-0.2,0.5-0.5,0.9-0.3,1.6
	c0.1,0.2-1.1,0.3-0.4,1.2c0.4,0.4-0.3,0.6-0.6,0.8c-0.5,0.2-1.1-0.5-1.6,0.3c0.9,0.4,2,0.3,2.8,0.9c0.1,0.6-1.4,1.3,0.3,1.8
	c0.3,0.1,1.1,1.1-0.2,1.5c-1,0.4,0.3,0.9,0,1.3c-0.4,0.3-0.7-0.1-1.1-0.2c-0.9-0.3-1.6-0.4-1.6,1c0,0.6-0.6,1.2-1.5,1.2
	c-0.6,0-1.8-0.7-1.2,1c0.1,0.3-0.3,0.9-0.7,1.1c-1.8,1-2.3,2.1-1.8,3.8c0.2,0.7,0,1.2-0.2,1.8c-0.5,1.4-0.4,2.6,0.1,4.1
	c0.5,1.5-0.2,3-0.8,4.4c0,0.1-0.3,0.2-0.4,0.2c-0.2-0.1-0.3-0.3-0.4-0.5c-0.2-0.4,0.2-0.7,0.3-1.1c0.2-0.6,0.7-1.5,0.5-1.7
	c-1.4-1.3-0.3-2.8-0.3-4.1c0.1-2-0.5-3.8-0.8-5.7c-0.3-1.8,0.2-3.7-1-5.4c-0.2-0.3,0.4-0.7,0.2-1.4c-0.2-0.7,0.8,0,1.2-0.2
	c0.2-0.1,0.4-0.2,1-0.4c-1.7-0.5-3.2-0.5-4.6-1.1c-1.4-0.6-2.8-1.5-4.5-1.2c-0.3,0-0.3-0.5-0.4-0.8l0,0C20.3,79.9,20.2,77.5,21.2,75
	z"/>
<path class="st16" d="M62,89.9c0,0.6,0.5,1,0.8,1.4c2.8,3.2,3.2,7,2.8,11c-0.3,2.3-0.5,4.6-1.5,6.8c-0.5,1.2-0.9,2.4-0.7,3.7
	c0.1,0.8-0.2,1.2-1,1.2c-1.3,0-2.6,0-3.8,0c-0.9-0.1-0.9-0.8-0.8-1.4c0.4-5-0.1-10.1,1.1-15.1c0.3-1-0.1-2-0.3-3
	c-0.4-1.9-0.6-3.7,0.4-5.5c0.9-1.4,1-1.4,2-0.3C61.3,89,61.6,89.5,62,89.9z"/>
<path class="st20" d="M43.1,63.9c0.3-1.2,0.1-2.5,0.5-3.8c0.5-1.7,1.6-2.6,3.3-2.5c1.8,0.1,3.7-0.3,5.5,1c0.8,0.6-0.1,0.5,0,0.7
	c0,0.7,0.8,0.2,1,0.5c0.1,0.2-0.3,0.5-0.3,0.8c0,0.8-1.6,0-0.9,0.8c0.8,1-0.7,0.4-0.5,1c0.2,0.6-0.5,1.1-0.7,1.7
	c-0.1,0.5-0.6,0.9-0.8,1.4c-0.3,0.5-0.7,1.1-1,1.6c-0.3,0.5-0.4,1-0.7,1.5c-0.3,0.6-0.8,1.1-0.8,1.7c0,1.3,0.3,2.6,0.8,3.8
	c0.5,1.2,0.2,2.4-0.9,2.6c-1.5,0.2-3.2,0.6-4.4-0.9c-0.2-0.6,0.1-1.3-0.2-1.8c0-0.2,0-0.4,0-0.6c0.2-2.4,0.4-4.7-0.6-7.1
	C41.9,65.6,42.1,64.6,43.1,63.9z"/>
<path class="st21" d="M59,88.9c0,2.4-0.4,4.7,0.7,7c0.4,0.8-0.1,2-0.3,3c-0.8,3.8-1.3,7.7-0.6,11.6c0.1,0.7-0.2,1.2-0.5,1.8
	c-0.4,0.6-0.4,1.2,0.3,1.6c0,0.2,0,0.3,0.1,0.4c0,2.6-0.5,3.1-3.1,3.3c-0.7,0-1.4,0-2.1,0c-0.8,0-1.4-0.1-1.2-1.2
	c0-0.3-0.5-0.2-0.8-0.3l0,0c0.1-0.5,0.5-0.8,0.9-1c0.4-0.4-0.1-0.8,0-1.2c1.4-0.1,2-0.8,2.1-2.3c0.1-2.7,0.6-5.3,0.9-7.9
	c1.9,0.4,2,0.2,1.6-2.8c-0.3,0.9,0,1.8-1,2.4c-0.9-1.7,0.1-3.7-0.6-5.4c-0.8-3-2.2-5.5-4.2-7.9c-0.7-0.9-1.2-2-1.5-3.2
	c0.3,0,0.7,0,1,0c2.5,2.3,3.4,5.5,5.3,8.2c0.9-1.7,1.7-3.4,1.6-5.6c-0.1-0.7,0.2-1.3,1.1-1.3C58.6,88.6,58.8,88.8,59,88.9z"/>
<path class="st22" d="M32.7,59.2c-0.2,0-0.3,0-0.5,0C32,59,31.8,59,31.5,58.9c0.2,0.1,0.5,0.1,0.6,0.3c0,0.6-1.3,0.1-1,1.2
	c0.1,0.4-0.8-0.3-1.3-0.3c-0.1,0.5-0.4,1.1-0.4,1.6c0,0.9-0.6,1.3-1.2,1.2c-1-0.2-1.3,0.6-1.9,1.1c-0.1-1.5-0.2-3-0.2-4.5
	c0-0.2,0.4-0.3,0.8-0.6c-1.4-0.3-2.6-1.1-4-0.3c-0.9,0.5-1.6,0.1-2.3-0.4c1.2-1.7-0.7-0.6-0.9-1.1c-0.4-0.4-0.4-0.8,0-1.2
	c1.1-0.4,2-0.5,2.6,0.8c0.8,0.3,1.6,0.7,2.6,0.2c-0.9-1.5-0.8-3.4-2.1-4.6c-0.9-0.9-0.7-1.9-0.2-2.3c1.4-1.1,1-2.3,0.8-3.6
	c-0.1-0.4,0-0.8,0-1.2c0.6-0.1,0.8,0.4,1,0.8c1,2.2,3.2,3.9,3.9,6.1c1,3.4,3,4.8,6.2,5.1c1.9,0.6,3.5-0.5,5.3-0.8
	c0.8-0.1,1.4-0.7,2.4-0.6c-0.5,0.6-1,0.8-1.5,1c-0.8,1-1.9,1.7-3,1.7c-1.2,0-0.6,0.9-1,1.2c-0.6-0.4-1.2-0.5-1.9-0.5
	C34.2,58.8,33.4,58.8,32.7,59.2z"/>
<path class="st23" d="M55.8,35.7c1.2-0.1,1.2-1.1,1.6-1.8c0.3-0.5,0.8-0.7,1.1-0.1c0.3,0.7,1.1,1.2,1,2.1c-0.4,2.5,0.9,4.6,1.5,6.9
	c0.5,1.7,0.8,3-1,4.1c-0.3,0.2-0.1,0.6,0,0.8c-0.2,0-0.3,0.1-0.5,0.1c-0.6,0.5-1.2,1-1.5,1.8l0,0c-0.8,0.1-1.7-0.2-2.4,0.4
	c-0.9,0.1-1.3-0.7-1.9-1c-1-0.3-0.8-1.1-0.6-1.8c1.6-1,2.9-2.5,5.1-3c-0.4-0.6-1.1-0.7-1.2-1.3c-0.2-0.7,0.5-1.1,0.6-1.8
	C55.2,40,55.3,37.9,55.8,35.7z"/>
<path class="st24" d="M58.4,88.4c-0.1,0.1-0.3,0.2-0.3,0.3c-0.2,2.7-0.7,5.2-2.2,7.6c-1.8-2.9-3.7-6-5.4-9.3c-0.2-1.1,0.9-1,1.4-1.3
	c0.7-0.3,1.5-0.2,1.7-1.3c0.1-0.7,1.1-0.6,1.6-0.4C57,84.5,58.3,86.2,58.4,88.4z"/>
<path class="st25" d="M34.7,57.3c-0.8,0-1.6,0-2.4,0c-2.5,0-3.1-0.5-3.5-3.1c-0.2-1-0.3-1.9-1.4-2.3c-0.2-0.1-0.4-0.3-0.5-0.5
	c-0.3-1.1-0.4-2.1-1.7-2.9c-0.9-0.6-1.2-2.1-1.7-3.2c0.1-0.3-1.1-1,0.2-1c0.8,0,1.6,0.3,2.1,1c1,1.5,2.7,2.4,3.7,4
	c0.6,0.9,1.5,1.6,2.6,2c0.3,0.7,0.6,1.4,1.3,1.8C34,54.4,34.8,55.7,34.7,57.3z"/>
<path class="st15" d="M63.9,59.2c1.8,3-0.5,8.7-4.2,10.4c-0.7,0.3-1.3,0.9-2.1,1c-0.7-0.8-1.5-0.4-2.2-0.2c-1,0.3-2,0.3-3.1,0.3
	c-1.7,0-1.7,0-1.5-2c0.8-0.5,1.8-0.6,2.7-0.8c5.7-1.2,7.5-3.5,7.5-9.3c0-0.3,0.1-0.6,0.3-0.9c0.9-0.2,0.6,0.6,0.9,1
	c0.6,0.7,0.6,1.6,0.9,2.4C63.4,60.5,63.6,59.8,63.9,59.2z"/>
<path class="st26" d="M35.2,39.6c0.9-0.4,0.8-1.3,0.9-2c0.2-1.4,1.8-2.5,3.2-2.1c0.3,0.1,0.7,0.5,0.4,0.7c-0.9,1,0,3.3-2.4,3.2
	c-0.3,0-0.6,0.7-0.9,1c-1.4,1.1-3.5,0.7-4.1-0.9c-0.3-0.8-0.7-1-1.4-1c-0.6,0-1.2-0.2-1.4-0.8c-0.3-1-0.6-2-0.8-3
	c0-0.1,0.1-0.3,0.3-0.4c0.1-0.1,0.3-0.2,0.4-0.2c3.1-1.7,5.4-0.5,5.8,3.1C35.2,38,34.8,38.8,35.2,39.6z"/>
<path class="st27" d="M36.9,59.7c0.2-0.5-0.6-1.4,0.7-1.6c1.1-0.2,2.2-0.8,3.3-1.3c0.1,0.4,0.6,0.3,0.8,0.5c0.5,0.5-0.1,0.3-0.3,0.4
	c-0.2,0.1-0.3,0.3-0.5,0.4c-1.2,2.2-1.2,2.6,0.2,6.6c0.3-1-0.1-1.9,0.5-2.6c0.1-0.4,0.3-0.8,0.7-1.1c1,0.7,0.1,2,0.8,2.8
	c-0.5,1.8-0.4,3.4,0.5,5.1c0.4,0.8,1,1.5-0.2,2.3c-0.6,0.4,0.1,1.5-0.5,2.2c-0.2-0.1-0.4-0.3-0.6-0.4c0.1-1.7-0.2-3-1.8-4.1
	C37.3,66.8,36.6,63.4,36.9,59.7z"/>
<path class="st28" d="M40.3,91.9c-1,0.1-2,0.2-3,0.3c-0.6,0.1-1.1-0.1-1.3-0.7c-0.1-0.6,0.4-0.7,0.8-1c0.2-0.2,0.5-0.3,0.7-0.5
	c1.4-0.1,2.8-0.6,4.1-1.2c1.7-0.8,2.2-1.7,2-3.5c-0.1-0.9-0.3-1.9-0.4-2.8c-0.2-1.2,0.5-1.3,1.4-1.2c1.9,1.2,2.6,2.7,2.2,4.8
	c-0.1,0.7,0,1.4,0,2.1c-0.8,1.4-1,3.4-3.1,3.6l0,0C42.5,91.5,41.4,91.4,40.3,91.9z"/>
<path class="st29" d="M27.9,27.5c-0.8-0.6-1.7-1.2-2.5-1.9c-2.6-2.5-3-6.7-1-9.9c2-3.1,6.1-4.4,9.5-3c2.7,1.2,4.7,3.1,5,6.2
	c0.3,3.3-1,5.9-3.7,7.9c-0.4,0.3-0.8,0.5-1.2,0.7C32,28.1,30,28.2,27.9,27.5z"/>
<path class="st6" d="M56.1,71.1c0.2,0.5,0.7,0.9,0.3,1.5c-0.2,0.2-0.4,0.8-0.2,0.8c2.2-0.2,0.6,2.3,1.8,2.6c1.7,0.4,3.3,1.4,5.2,1.4
	c-0.4,0.7-0.9,0.8-1.6,0.7c-1.4-0.2-2.7,0.1-3.1,1.8c-0.1,0.5-0.6,0.9-0.9,1.4C57,81,56.7,80.4,56.8,80c0.1-0.6-0.6-1.4,0.3-1.8
	c-0.9-0.3-1.9-0.2-2.8-0.1c-0.7,0.1-1.1,0.2-0.8-0.7c0.2-0.6-0.2-0.9-0.7-1.1c-0.5-0.2-1-0.5-1.5-0.7c0.4-0.9,0.2-1.5-0.9-1.4
	c-0.1-0.4-0.1-0.7,0.3-1c0.7-0.6,1.4-0.4,2.2-0.2c1.3,0.3,0.5-0.8,0.7-1.1C54.5,71.5,55.3,71.3,56.1,71.1z"/>
<path class="st30" d="M61.3,57.8c1.3,5.6-1.3,9.5-6.9,10.6c-1.2,0.2-2.4,0.3-3.6,0.4c-0.5-0.8,0.4-0.3,0.4-0.5
	c1.5-0.5,2.2-1.9,3.4-2.8l0,0c0.1-0.1,0.2-0.3,0.4-0.3c2.6-0.4,4-1.8,3.9-4.5l0-0.1c0.8-1.9-0.2-3.6-0.7-5.3c0-0.2,0.1-0.3,0.2-0.4
	c0.1-0.1,0.2,0,0.3,0.2C59.9,55.8,60.8,56.7,61.3,57.8z"/>
<path class="st15" d="M59,60.7c0,1.1,0.5,2.2-0.4,3.3c-1.1,1.4-2.3,1.6-3.9,1.4c-0.3-0.6-0.7-1.1-0.4-1.8c0.9-1.8,1.8-3.7,2.8-5.8
	c1.5,1.8,0.8,3.6,0.4,5.3c-0.2,0.3,0-0.1-0.1,0.1c0.1,0,0.1-0.1,0.1-0.2c0.7,0,0.9-0.3,1-1C58.6,61.6,58.4,61,59,60.7z"/>
<path class="st31" d="M50.4,52.4c-0.8,2.3-2.2,3.9-4.8,3.9c-0.5,0-1-0.1-1.2-0.8c1.4-0.3,2.7-0.8,3.3-2.5c-1.2-0.5-1.9,1-2.9,1
	C45.5,51.5,47.9,50.8,50.4,52.4L50.4,52.4z"/>
<path class="st32" d="M33.2,42.9c1.7-0.1,3.3-0.6,4.9-0.2c-0.1,1.8-0.2,3.5-0.4,5.7C35.9,46.4,34.9,44.4,33.2,42.9z"/>
<path class="st33" d="M53.7,49.7c0.2,0.3,0.4,0.6,0.5,0.9c-0.3,1.3-1.5,1.7-2.4,2.4c-0.6,0.2-0.9-0.5-1.5-0.5c0,0,0,0,0,0
	c0-0.2,0-0.5-0.1-0.7c-0.3-0.7-1.4-1.2-0.8-2c0.6-0.9,1.4-1.9,2.8-1.7C53,48.5,53.4,49,53.7,49.7z"/>
<path class="st34" d="M27.4,30.4c-0.5-0.9-1.6-1.4-1.7-2.6c0.7-0.3,1.1,0.4,1.6,0.2c1.3,0.3,2.4,1.3,3.8,0.9
	c0.3-0.1,0.6,0.1,0.7,0.4c0.1,0.4-0.2,0.6-0.4,0.7C30.2,30.8,28.8,31.1,27.4,30.4z"/>
<path class="st35" d="M46.6,88c-0.1-0.5-0.5-1-0.3-1.3c1.3-2.4-0.9-3.7-1.6-5.4c0.4,0,0.8-0.1,1.2-0.1c1.9,0,2.5,0.9,2.1,2.9
	c-0.3,1.1-0.5,2.2-0.7,3.4c-0.1,0.2-0.1,0.3-0.1,0.5C46.9,88.2,46.8,88.2,46.6,88z"/>
<path class="st6" d="M58.4,81.3c0.7,0.4,1,1.4,2.1,1.6c0.7,0.2,1.5,1.1,0.9,2.2C59.2,84.6,58.2,83.3,58.4,81.3z"/>
<path class="st15" d="M54.7,65.4c-0.2,0.5-0.5,1-0.7,1.5c-0.5,1.2-1.4,1.6-2.7,1.3C52.2,65.5,52.2,65.5,54.7,65.4z"/>
<path class="st15" d="M53.8,71.7c0.3,0.6,1.7,0.3,1.2,1.4c-0.4,0.9-1.2,0.4-1.8,0.3c-0.8-0.2-1.6-0.2-2.3-0.3c0.2-1,0.6-1.7,1.6-0.9
	C53.2,72.7,53.3,71.7,53.8,71.7z"/>
<path class="st15" d="M58.9,55.1c-0.7,0.9,0.4,1.3,0.5,2c0.2,1.2,0.8,2.5-0.4,3.5c-0.4-1.8-0.2-3.7-1.2-5.4
	c-0.2-0.3-0.1-0.6,0.3-0.7C58.6,54.4,58.8,54.6,58.9,55.1z"/>
<path class="st36" d="M28.1,31.9c1.4-0.5,2.8-0.9,4.6-0.8C31.1,32.5,29.6,32.7,28.1,31.9z"/>
<path class="st5" d="M51.9,53c0-0.9,1.8-0.7,1.2-2.2c-0.2-0.6,0.9,0.7,1.2-0.2c0.7,0.5,0.6,1-0.1,1.4C53.4,52.4,52.8,52.9,51.9,53z"
	/>
<path class="st15" d="M50.5,74c0.8-0.6,1.6-0.5,2.4,0.2c-0.4,0.5-1.3,0.4-1.5,1.2C50.7,75.2,50.4,74.8,50.5,74z"/>
<path class="st22" d="M42.2,61.1c0,0.5,0,1-0.1,1.4c-1.8-0.1-1.9-0.6-0.7-2.3c0.1,0,0.2-0.1,0.3-0.1C42.2,60.3,42.1,60.8,42.2,61.1z
	"/>
<path class="st5" d="M58.1,49.6c-0.3-1.5-0.3-1.5,1.5-1.8C60,49.2,58.5,48.9,58.1,49.6z"/>
<path class="st5" d="M55.7,50c0.6-1.1,1.4-1.4,2.4-0.4C57.4,50.4,56.5,50,55.7,50z"/>
<path class="st22" d="M40.8,57.8c0.2,0,0.4,0,0.5,0c0.3,0.8,0.5,1.5,0.4,2.4c0,0-0.2,0.1-0.2,0.1C40.4,59.9,40.3,59.5,40.8,57.8z"/>
<path class="st5" d="M53.7,49.7c-0.5-0.5-1-1-1.4-1.5c0.3-0.3,0.6-0.7,0.9-1c-0.1,0.7,0.3,1.2,0.6,1.8
	C53.7,49.2,53.7,49.4,53.7,49.7z"/>
<path class="st27" d="M42.8,74.1c0.5,0.6,0.3,1.2,0.2,1.8C42.5,75.4,42.7,74.8,42.8,74.1z"/>
<path class="st16" d="M22,112c0.6-2.5,1.2-5.1,1.9-7.6c1-4.7,2.2-9.2,4.8-13.5c0.7,1.4,0.8,2.8,0.9,4.2c0.3,3.7-0.1,7.3-0.6,10.9
	c-0.2,1.3-0.3,2.7-0.4,4c-0.1,0.3,0,0.8-0.3,1c-0.9,2.9-0.9,2.9-3.9,2.9c-0.1,0-0.2,0-0.2,0C22.2,113.9,22.2,113.9,22,112z"/>
<path class="st37" d="M52.3,114.1c0.4,0.4,0.9,0.8,0,1.2c-0.6-0.7-1.5-0.4-2.2-0.4c-0.8-0.1-0.4,0.3-0.3,0.8
	c0.2,1.1-0.9,1.5-1.5,2.1c-0.3,0.1-0.6,0.3-1,0.2c-0.7-0.2,0.4-0.9-0.5-1.3c-1.9-0.8-5.7-0.1-7.1,1.5c-0.8,0.9-1.2,2.4-2.9,2
	c0-0.2,0-0.4,0.1-0.7c0.7-1.9,2.7-2.6,3.5-4.4c-0.5-0.3-1-0.2-1.4-0.2c-0.7,0-0.5,0.2-0.5,0.8c0,0.7-0.8,1.3-1.6,1.6
	c-0.2-0.6,0.5-1.6-0.9-1.4c-1.2,0.2-2.5,0-3.5-0.7c0,0-0.2,0.2-0.4,0.3c-0.4-0.5-0.3-0.8,0.3-1c0.4-0.1,0.9,0,1.3-0.4
	C39.9,114,46.1,114.1,52.3,114.1z"/>
<path class="st38" d="M28.4,111c-0.1-0.4,0.1-0.7,0.3-1c1.4,0.1-0.1-1.6,0.9-1.5c1.3,0.2,0.9-0.7,1.1-1.2c0.1-0.2,0.1-0.4,0.2-0.7
	c0.7,0.1,0.6,0.5,0.6,1c-0.3,2.3-1.4,4.4-0.7,6.8c0.3,0.8-0.5,1.2-0.9,1.8c-0.4,0.1-0.9,0.5-1.3-0.1c-0.3-0.5-0.7-1-0.5-1.7
	c0.2-0.5,0.3-1,0.5-1.6C28.8,112.3,29,111.6,28.4,111z"/>
<path class="st38" d="M28.8,120.6c-1.5,0.5-1.5,0.5-3.4,0.4c-0.1-0.3,0.3-0.3,0.4-0.5c1-2.1,1-2.1,3-2.8
	C29.7,118.7,29.4,119.7,28.8,120.6z"/>
<path class="st39" d="M46.6,88c0.2,0,0.3,0,0.5,0c0.2,0.9-0.3,1.7,0,2.7c0.3,1.1-0.4,1.8-1.6,1.6c-0.6-0.1-1.3,0.2-1.7-0.4
	C44,91.6,46.3,88.5,46.6,88z"/>
<path class="st40" d="M20.7,58.2c0.8-0.1,1.5,0.2,2.3,0.4c0.5,1.1,0.4,1.1,0.4,2.5C21.8,60.7,21.1,59.6,20.7,58.2z"/>
<path class="st38" d="M32.6,121.1c-1,0.8-2.2,0.4-3.3,0.3c-0.3,0-0.1-0.5,0.1-0.8c0.3-0.2,0.6-0.4,0.9-0.5c0.4,0.7,0.8,1.1,1.6,0.6
	C32.2,120.7,32.5,120.8,32.6,121.1z"/>
<path class="st39" d="M40.3,91.9c1.1-0.6,2.2-0.7,3.4,0C42.5,91.8,41.4,91.8,40.3,91.9z"/>
<path class="st41" d="M60.9,117.3c1.2,1.7,2.8,2.3,4.8,1.9c0.3,0.2,0.5,0.5,0.3,0.8c-0.4,0.5-1.2,0-1.8,0.7c1.1,0,2,0,2.9,0
	c0.1,0.9-0.4,1.1-1.1,1.2c-2.4,0-4.8,0-7.2,0c-0.8,0-1.1-0.5-1.2-1.2C58.5,119.3,59.6,118.2,60.9,117.3z"/>
<path class="st21" d="M57.2,119.3c-1,2.2-2.7,3.1-5.1,2.9c-1.8-0.2-3.7,0-5.8,0c0.6-1.3,1.3-2,2.1-2.6c0.1,0.1,0.1,0.1,0.2,0.2
	c0,0.4,0,0.9,0.5,0.9c2,0,4.1,0,6.1-0.2c0.8-0.1,1.1-1.1,1.8-1.4C57.2,119,57.3,119.1,57.2,119.3z"/>
<path class="st42" d="M57.6,120.6c0.6,0.5,1.1,1,2,0.9c1.8-0.1,3.7,0,5.5,0c0.8,0,1.6-0.1,2-1c0,0,0.1-0.1,0.1-0.1
	c0.2-0.4,0.6-0.6,0.9-0.9c0.6-0.4,1-1,1.7-1.3c-0.9,2.5-2.6,3.8-5.1,3.7c-2.6-0.1-5.2,0.2-7.7-0.2C56.8,121.2,57.4,121,57.6,120.6z"
	/>
<path class="st43" d="M37,119.4c0,0.2,0.1,0.5,0.1,0.7c0.1,0.6-0.3,0.9-0.8,1c0.4,0,0.7-0.2,1.1-0.2c2.5-0.2,5,0.2,7.4-0.5
	c0.1,0,0.2,0.1,0.4,0.1c-0.1,0.9-0.7,1.4-1.6,1.4c-2.8,0-5.5,0-8.5,0C35.4,120.7,36.4,120.3,37,119.4z"/>
<path class="st44" d="M24,115.9c0-0.2,0-0.3,0-0.5c0.3,0,0.7-0.2,0.9,0c0.5,0.3,0.1,0.6-0.1,0.9c-1,1.1-1.9,2.2-3.1,3.1
	c0-0.2-0.1-0.5-0.1-0.7C21.5,116.9,22.7,116.4,24,115.9z"/>
<path class="st21" d="M48.4,119.6c0.7-1.4,1.9-2.3,3-3.3c0,0,0,0,0,0c-0.4,1.5-1.8,2.4-2.8,3.5C48.5,119.7,48.4,119.6,48.4,119.6z"
	/>
<path class="st43" d="M47,117.8c0.4,0,0.8,0,1.1,0c-0.6,0.7-1.2,1.5-2,2c-0.1-0.1-0.2-0.1-0.3-0.2C45.7,118.6,46.1,118,47,117.8z"/>
<path class="st7" d="M12.5,115.4c-0.4,0.9-1.1,1.5-1.8,2c-0.1-0.1-0.2-0.1-0.2-0.2C10.9,116.3,11.4,115.6,12.5,115.4L12.5,115.4z"/>
<path class="st7" d="M12.5,115.3c0.6-0.7,1.3-0.3,2-0.3C13.8,115.5,13.2,115.3,12.5,115.3C12.5,115.4,12.5,115.3,12.5,115.3z"/>
<path class="st21" d="M58.1,118.2c0,0.6-0.3,0.9-0.8,1.1c-0.1-0.1-0.2-0.2-0.2-0.2C57.1,118.4,57.5,118.3,58.1,118.2L58.1,118.2z"/>
<path class="st21" d="M60.6,115.7c0,0.2-0.1,0.5-0.4,0.5c-0.2,0-0.4-0.2-0.5-0.4c-0.1-0.3,0.2-0.4,0.4-0.4
	C60.3,115.4,60.6,115.5,60.6,115.7z"/>
<path class="st41" d="M68.1,119.7c-0.2,0.4-0.5,0.7-0.9,0.9C67.1,119.9,67.5,119.6,68.1,119.7z"/>
<path class="st43" d="M46.2,119.8c-0.2,0.4-0.5,0.8-1.1,0.9c0,0,0,0,0,0c-0.4-1-0.1-1.3,0.9-1L46.2,119.8z"/>
<path class="st21" d="M58.1,118.2c-0.1-0.4-0.1-0.8,0.5-0.8c0.1,0,0.2,0.1,0.2,0.1C58.7,117.9,58.5,118.2,58.1,118.2
	C58.1,118.2,58.1,118.2,58.1,118.2z"/>
<path class="st45" d="M11.5,52.1c-0.5-0.1-0.9-0.2-1-0.8c-0.2-1.7-0.6-3.4-0.1-5.1c0.1-0.4,0.2-0.8,0-1.2c-0.6-1.6-0.6-1.5,0.1-2.7
	c0.2-0.3,0.2-0.6,0.3-0.9c0-0.8,0.7-0.7,1.1-0.9c0.3,0,0.6,0,0.9-0.1c1.5,0.2,1.1,1.5,1.3,2.3c0.3,1.3,0,2.7-0.3,4
	c-0.1,0.3,0.5,0.1,0.1,0.1c0,0-0.1-0.1,0-0.2c0.4-1.1,0-2.4,1-3.4c0.4-0.4,0.9-0.8,1.5-0.6c0.8,0.3,0.8,0.9,0.3,1.5
	c-1.5,1.2-1.7,2.2-0.8,4.7c0.8-0.1,1.3-0.8,1.8-1.3c1.6,1.4,1.5,2.5-0.5,4.8C15.4,51.9,13.5,51.6,11.5,52.1z"/>
<path class="st46" d="M16.8,44.3c0-0.4,0.1-0.9-0.2-1.1c-0.5-0.4-0.8,0.2-1.2,0.4c-0.5,0.4-0.5,1-0.5,1.5c0,1.2-0.4,2.2-0.9,3.3
	c-0.1-1.1-0.6-2-0.3-3.4c0.4-1.4,0.3-3.2-0.8-4.7c0-0.1,0-0.3,0.1-0.4c0.5-0.1,1.1,0.4,1.5-0.6c0.3-0.8,1.2-1,2-0.5
	c0.5,0.2,1.1,0.3,1.5,0.6c0.7,0.6,2.3,0.5,1.8,2.2C19.4,43.4,18.5,44.2,16.8,44.3z"/>
<path class="st47" d="M12.5,57.8c-0.6-1.1-1.4-2.1-1.8-3.3c-0.3-0.8,0.6-0.9,1.2-1.1c1,0.1,2.4-0.4,2.5,1.4c0,0.1,0.5,0.2,0.6,0.2
	c0.4-0.4,0.8-0.9,1.3-0.2c0.5,0.6,0.4,1.2,0,1.8c-0.4,0.7-0.8,0.1-1.1,0c-0.8-0.3-0.9,0.5-1.1,0.9c-0.3,0.5-0.5,1.1,0,1.5
	c0.5,0.4,0.8-0.3,1.4-0.4c0,0.8-0.2,1.4-1,1.6c-0.9,0.2-1.2-0.5-1.6-1.1C12.8,58.6,13,58,12.5,57.8z"/>
<path class="st48" d="M17.2,52.4c0.3-0.8,0.7-1.6,0.9-2.4c0.2-0.8,0.4-1.7-0.4-2.4c0,0,2.2-3.2,2.2-3.3c0.3-0.3,0.5-0.6,0.8-0.9
	c0.3-0.2,0.6-0.2,0.9,0c0.3,0.2,0.4,0.7,0.2,0.8C21,45,21.4,46,21.4,46.7c0,2.6-1.6,4.2-3.5,5.7C17.8,52.6,17.5,52.5,17.2,52.4z"/>
<path class="st49" d="M22.3,56.7c-0.9-0.3-1.7-0.5-2.6-0.8c-0.1-0.1-0.3-0.2-0.3-0.3c-0.4-1.7-0.2-3,0.5-3.2c0.7-0.2,1.8,1,2.1,2.5
	C22.1,55.5,22.7,56.1,22.3,56.7z"/>
<path class="st8" d="M26.9,43.4c0.6,1,0.6,1,0.3,2.1C26.3,44.8,26.9,44,26.9,43.4C26.9,43.3,26.9,43.4,26.9,43.4z"/>
<path class="st50" d="M67.1,111.1c-0.1,0.6-0.4,0.9-0.8,0.6c-0.7-0.5-1.5-0.9-1.1-2.1c0.7-2.1,0.9-4.3,1.2-6.5
	c0-0.4,0.2-0.8,0.3-1.1c0.1-0.1,0.4-0.1,0.7-0.1c0.4,0,0.3,0.4,0.3,0.5c0.9,1.2-0.2,2.2-0.2,3.3C67.5,107.5,66.2,109.3,67.1,111.1z"
	/>
<path class="st50" d="M67.4,99.4c0.6,0.1,0.9,0.4,0.9,0.8c0.1,0.5-0.1,1-0.6,1.1c-0.4,0.1-0.5-0.3-0.5-0.6
	C67.2,100.2,67.1,99.7,67.4,99.4z"/>
<path class="st51" d="M49.1,26.7c0.5,1,1.2,1.1,1.8,1.4c0.7,0.3,1.1,0.9,0.9,1.7c-0.3,1.4-1.1,1.8-2.1,0.8c-0.5-0.5-1.1-0.8-1.7-1.2
	c-1.2-0.7-2.4-1.4-2.2-3.1c0.1-0.8-1.1-1-0.8-1.8c1.8-1.1,3.5-1.3,5.4,0.1c0.9,0.6,1.5-0.3,1.8-1c0.4-0.7-0.3-0.9-0.8-1.2
	c-0.5-0.3-1.1,0.1-1.6-0.4c0.4-1.3,1.4-1.1,2.3-1c1,0.2,2.1,0.2,2.6,1.3c0.1,0.3,0.2,0.8-0.2,0.7c-1.3,0-1.4,0.8-1.4,1.7
	c0,0.9-0.4,1.2-1.3,1.2C50.9,25.9,50.2,26.9,49.1,26.7z"/>
<path class="st52" d="M43.7,17c1.4-0.3,2.7-0.7,4.1-1c2.7-0.6,5,0.3,7.2,1.7c0.4,0.2,0.7,0.6,1,1c0.3,0.4,0.6,0.8,0.3,1.3
	c-0.3,0.5-0.8,0.2-1.3,0.1c-2.4-0.7-4.7-1.1-7.2-0.9c-1.3,0.1-2.1,1.3-3.5,1.1c-0.6-0.1-1.5,0.3-1.9-0.2c-0.5-0.7,0.1-1.3,0.5-1.9
	C43.2,17.7,43.7,17.5,43.7,17C43.7,16.9,43.7,17,43.7,17z"/>
<path class="st53" d="M45.3,31.7c0.3-0.6-0.1-1.8,1-2.1c0.9-0.2,3,1.9,2.9,2.8c-0.1,0.9-0.5,1.4-1.5,1.4
	C46.3,33.7,45.3,33,45.3,31.7z"/>
<path class="st54" d="M51.4,12.6c0.1,1.1,1.6,1.3,1.6,2.6c-0.7,0.6-1.3,0-1.8-0.2c-0.7-0.3-1.7-0.7-1.5-1.6
	C49.7,12.5,50.8,12.9,51.4,12.6C51.4,12.6,51.4,12.6,51.4,12.6z"/>
<path class="st18" d="M71.3,70.6c-0.2,0-0.3-0.1-0.4-0.1c0.1-0.2,0.2-0.4,0.3-0.5c0.2-0.1,0.5-0.1,0.5,0.1
	C71.7,70.2,71.4,70.4,71.3,70.6z"/>
<path class="st9" d="M15.6,120.4c0.6-1.3,1.5-2.1,2.4-3.1c0.4-0.4,0.9-0.8,1.4-0.3c0.5,0.5,0.6,1.4,0.1,1.7
	C18.4,119.6,17.6,121.3,15.6,120.4z"/>
<path class="st3" d="M24,115.9c-1,0.8-1.8,1.7-2.4,2.8c-1.1-1.1-0.8-2.3,0.8-2.8C22.8,115.7,23.4,115.9,24,115.9z"/>
<path class="st9" d="M19.1,115.6c0-0.5,0.4-0.6,0.8-0.8c0.5-0.2,1-0.2,1.1,0.4c0.1,0.5-0.4,0.6-0.8,0.6
	C19.8,115.8,19.4,116,19.1,115.6z"/>
<path class="st1" d="M31.7,49.6c0.1-0.5-0.7-1.1,0.2-1.7c0.2,0.6,0.6,1.1,0.6,1.6C32.4,50.2,32,49.6,31.7,49.6
	C31.7,49.6,31.7,49.6,31.7,49.6z"/>
<path class="st1" d="M35.8,51.2c-0.1,0.1-0.2,0.4-0.4,0.5c-0.3,0.1-0.3-0.3-0.3-0.5c0-0.2,0.1-0.5,0.4-0.4
	C35.7,50.8,35.7,51,35.8,51.2z"/>
<path class="st1" d="M34.1,50.6c-0.1-0.2-0.3-0.3-0.4-0.5c-0.1-0.2-0.1-0.5,0.2-0.6c0.1,0.1,0.1,0.3,0.1,0.4
	C34.1,50.1,34.1,50.3,34.1,50.6C34.1,50.6,34.1,50.6,34.1,50.6z"/>
<path class="st1" d="M35.5,53.9c0-0.1,0-0.3,0-0.4c0.1-0.2-0.2-0.6,0.3-0.6c0.1,0,0.2,0.4,0.1,0.6C35.9,53.6,35.7,53.8,35.5,53.9
	C35.5,53.9,35.5,53.9,35.5,53.9z"/>
<path class="st6" d="M72,75.5c0.3-0.1,0.5-0.4,0.8-0.2c0.1,0,0,0.3,0,0.4C72.4,75.9,72.2,75.8,72,75.5C72,75.5,72,75.5,72,75.5z"/>
<path class="st1" d="M12,40.5c-0.4,0.3-0.7,0.6-1.1,0.9C10.8,40.4,11,40.2,12,40.5z"/>
<path class="st55" d="M55.2,98.1c0.7,0.6,0.4,1.5,0.5,2.2c0.1,0.9-0.2,1.7,0.1,2.6c0.5-0.5,0.3-1,0.3-1.6c0.1-0.5,0-1.1,0.5-1.5
	c1.3,1.9,1.3,3.2,0,5.7c-0.9-0.2-0.8-1.3-1.4-1.7C55.2,101.9,55.2,100,55.2,98.1z"/>
<path class="st27" d="M32.7,59.2c0.8-0.6,1.6-0.6,2.3,0C34.2,59.2,33.4,59.2,32.7,59.2z"/>
<path class="st2" d="M22.6,81.8c0.1-0.3,0.4-0.5,0.7-0.4c0.1,0,0.2,0.1,0.3,0.2c-0.1,0.1-0.3,0.2-0.4,0.2
	C23,81.8,22.8,81.7,22.6,81.8C22.6,81.8,22.6,81.8,22.6,81.8z"/>
<path class="st55" d="M56.9,109c0.2,0.7,0.3,1.5-0.8,1.5c-0.4,0-0.8-0.1-0.7-0.7c0.1-0.3,0.3-0.5,0.4-0.8c0.2-0.6-0.6-1.7,0.6-1.7
	C57.6,107.3,56.7,108.4,56.9,109z"/>
<path class="st55" d="M56.7,111c0.2,0,0.6,0,0.5,0.3c-0.1,0.4-0.5,0.5-0.9,0.5c-0.1,0-0.3-0.2-0.3-0.2
	C55.9,111.1,56.3,111.1,56.7,111z"/>
<path class="st55" d="M56.4,106.7c-0.1-0.1-0.2-0.2-0.4-0.2c0.1-0.1,0.3-0.2,0.4-0.2c0.1,0,0.2,0.1,0.4,0.2
	C56.6,106.6,56.5,106.6,56.4,106.7z"/>
<path class="st27" d="M32.2,59.2c-0.5,0-0.9,0-1.5,0C31.3,58.5,31.7,58.7,32.2,59.2C32.2,59.2,32.2,59.2,32.2,59.2z"/>
<path class="st56" d="M40.8,57.8c0.6,0.7-0.3,1.9,0.8,2.5c-0.7,1.8-0.7,1.8,0.6,2.3c-0.7,1.1,0,2.5-0.6,3.6
	c-2.1-1.7-2.8-6.1-1.4-8.3C40.3,57.8,40.6,57.8,40.8,57.8z"/>
<path class="st57" d="M24.1,19.9c0.3-3.8,2.8-6.4,6.5-6.6c4.1-0.2,6.9,2.5,7.5,5.4c0.6,3.1-0.9,6.1-4,7.7c-2.8,1.4-6.4,0.8-8.3-1.5
	c-1.1-1.3-2.1-2.7-1.7-4.5c0.9-0.2,1.9-0.1,2.8-0.1c0.8,0,1.8-0.5,2.3,0.6c0.6,1.3-0.9,1.5-1.3,2.3c1.3-0.5,2.1-1.7,3.2-2.5
	c0.2-0.1,0.4-0.2,0.6-0.2c1,0.3,1.7,0.2,1.8-1.1c0-0.9,0.5-1.7,1-2.5c-0.8,0-1.2,0.8-1.9,0.8c-0.2,0-0.4-0.1-0.6-0.2
	c-0.1-0.2-0.2-0.4-0.3-0.6c-0.2-0.3,0.1-0.8-0.4-1c-0.1,0.3-0.1,0.6-0.2,0.9c-0.1,0.2-0.1,0.5-0.3,0.7c-0.4,0.4-0.9,0.7-1.5,0.5
	c-0.6-0.4-0.9-1-1.7-1.5c0.6,0.7,1.2,1.1,1.7,1.5c0.3,0.6,0,1.1-0.5,1.5C27.3,19.4,25.7,20.4,24.1,19.9z"/>
<path class="st58" d="M24.1,19.9c0.7-0.2,1.4-0.4,2-0.6c0.9-0.2,1.8-0.6,2.7,0.1c1.2-0.1,2.3,0,2.5,1.5c-1.8,2.4-2.5,2.9-4.7,3.2
	c0.6-0.9,0.8-1.9,1.9-2.3c0.3-0.1,0.6-0.2,0.5-0.6c-0.1-0.5-0.4-0.5-0.9-0.4c-1.4,0.4-2.6,0-3.9-0.5C24,20.2,24,20,24.1,19.9z"/>
<path class="st1" d="M57.6,63c0,0.3,0,0.6-0.1,0.9c0,0.1-0.2,0.3-0.3,0.3c-0.4,0-0.3-0.3-0.2-0.5C57.2,63.5,57.4,63.3,57.6,63
	C57.6,63,57.6,63,57.6,63z"/>
<path class="st3" d="M46,119.6c-0.6,0.1-0.9,0.4-0.9,1c-0.9,0.6-1.8,0.9-2.8,0.9c-1.9-0.1-3.9,0-5.8,0c-0.2-0.7,0.4-0.9,0.5-1.3
	c0.9-0.7,1.6-1.5,2.2-2.5c0.9-1.3,2-2.2,3.8-1.9c1.1,0.1,2.2,0,3.3,0.1c1.1,0.1,1.3,0.8,0.7,1.9C46.8,118.5,46,118.8,46,119.6z"/>
<path class="st59" d="M31.3,20.9c-0.5-1-1.8-0.7-2.5-1.5c0.2-0.5,0.3-1,0.5-1.4c0,0,0,0,0,0c0.5-0.2,1-0.4,1.5-0.6
	c0.5-0.3,0.9-0.3,1.4,0c0.2,0.1,0.3,0.1,0.5,0.2c1.1,0.2,1.4,1,1.2,1.9c-0.2,1.2-1.3,1.1-2.2,1.3C31.5,20.8,31.4,20.8,31.3,20.9z"/>
<path class="st58" d="M31.6,20.8c0.1-0.1,0.2-0.3,0.3-0.4c2-1.1,2-1.1,0.7-2.9c1.1-1.2,1.1-1.2,2.7-1.8c0.4,0.7-0.1,1.2-0.4,1.7
	c-0.4,0.7-0.8,1.2-0.8,2.1C34,21.5,33.3,21.7,31.6,20.8z"/>
<path class="st58" d="M30.9,26.2c-0.2-0.8-0.4-1.7-0.6-2.5c-0.1-0.7,0.3-1,1-1c0.5,0,0.9,0.4,0.8,0.9c-0.2,0.9-0.4,1.8-0.7,2.6
	C31.3,26.3,31.1,26.2,30.9,26.2z"/>
<path class="st58" d="M32.1,17.4c-0.5,0-0.9,0-1.4,0c0-0.7-0.1-1.4-0.1-2.1c0-0.4,0-0.9,0.5-0.9c0.6,0,0.8,0.4,0.9,0.9
	C32.2,16,32.1,16.7,32.1,17.4z"/>
<path class="st58" d="M35.4,24.3c-0.9-0.1-1.5-0.7-2.1-1.1c-0.4-0.2-0.6-0.6-0.2-1c0.3-0.3,0.8-0.7,1.2-0.4
	C35.1,22.5,35.8,23.2,35.4,24.3z"/>
<path class="st60" d="M29.3,17.9c-0.6,0.2-1.2,0.5-1.6-0.3c-0.3-0.6-0.7-1.2-1.2-2.2C28,16.1,29.4,16.1,29.3,17.9
	C29.3,17.9,29.3,17.9,29.3,17.9z"/>
<path class="st61" d="M36.8,19.9c-0.4,0.6-1.1,0.6-1.6,0.7c-0.5,0.1-0.6-0.3-0.6-0.8c0-0.4,0.1-0.8,0.7-0.7
	C35.7,19.4,36.5,19.2,36.8,19.9z"/>
</svg>
