<?xml version="1.0" encoding="utf-8"?>
<!-- Generator: Adobe Illustrator 23.1.1, SVG Export Plug-In . SVG Version: 6.00 Build 0)  -->
<svg version="1.1" id="Livello_1" xmlns="http://www.w3.org/2000/svg" xmlns:xlink="http://www.w3.org/1999/xlink" x="0px" y="0px"
	 viewBox="0 0 80 135" style="enable-background:new 0 0 80 135;" xml:space="preserve">
<style type="text/css">
	.st0{fill:#FFFFFF;stroke:#000000;stroke-width:0.2509;stroke-miterlimit:10;}
	.st1{fill:#464F4A;}
	.st2{fill:#434A46;}
	.st3{fill:#464034;}
	.st4{fill:#453939;}
	.st5{fill:#4F5775;}
	.st6{fill:#747D7C;}
	.st7{fill:#6F6644;}
	.st8{fill:#DACE51;}
	.st9{fill:#D8C651;}
	.st10{fill:#C8C4C8;}
	.st11{fill:#CED3D3;}
	.st12{fill:#9F8D3A;}
	.st13{fill:#BB403E;}
	.st14{fill:#495B80;}
	.st15{fill:#BCA83C;}
	.st16{fill:#DFCC4B;}
	.st17{fill:#C9B75A;}
	.st18{fill:#BFA851;}
	.st19{fill:#AF3A35;}
	.st20{fill:#803939;}
	.st21{fill:#963A38;}
</style>
<path class="st0" d="M71.5,135h-63c-4.7,0-8.5-3.8-8.5-8.5V8.5C0,3.8,3.8,0,8.5,0h63C76.2,0,80,3.8,80,8.5v118
	C80,131.2,76.2,135,71.5,135z"/>
<path class="st1" d="M41.5,101.4c-0.5,0.5-1.1,0.9-1.8,1.1c-1.5,0.3-3,0.3-4.5,0c-0.3,0-0.6,0-0.9,0c-1,0.6-2.3-0.3-3.3,0.6
	c-1.7,5.7-4.7,10.6-8.6,15c-0.7,0.8-1.2,1.5-1.5,2.6c-0.4,1.5-1.3,2.8-2.1,4.1c-0.7,1-1.8,1.1-2.7,0.5c-0.9-0.6-1.3-1.6-0.8-2.5
	c1-1.6,0.3-3.7,1.9-5.1c0.3-0.3,0.2-1.1,0.2-1.6c0.2-5.3,1.5-10.4,3.6-15.3c1.1-2.4,0.7-3.3-1.7-4.3c-2.4-1-3.9-2.9-4-5.5
	c-0.2-2.6,1-4.6,3.3-5.9c0.4-0.2,0.8-0.5,1.3-0.6c1.2-0.3,1.2-0.9,0.8-1.9c-1.8-3.9-2.3-8.1-2.3-12.4c0-5,2.3-9.2,4.8-13.3
	c3-4.9,6.9-9.1,10.7-13.5c2.7-3.1,5-6.4,6.7-10.1c0.9-2.1,0.8-4.2,0.4-6.3c-0.3-1.3-1-2.1-2.5-2.5c-2.5-0.6-4.9-1.5-7.3-2.2
	c-0.2,0-0.3-0.1-0.4-0.2c-1.7-2-3.1-0.5-4.5,0.4c-1.4,0.9-2.4,2.3-3.3,3.8c-0.7,1.1-1.3,2-0.4,3.6c0.8,1.4,0.4,3.5,0.2,5.2
	c-0.2,1.5,0.4,3.2-1.5,4.2c-0.4,0.2-0.3,1-0.2,1.6c0,2,0.1,4,0.2,6c0.1,2.9,0,5.7-0.6,8.6c-0.1,0.7-0.4,1.4-0.7,2
	c-0.7,1.5-2,2.4-3.6,2.3c-1.6-0.1-3-1.2-3.4-2.9c-0.2-0.8-0.3-1.6-0.3-2.4c0-4.1-0.2-8.1,0.1-12.2c0.1-1.4-0.1-2.8-0.4-4.2
	c-0.6-2.7-0.2-5.6-0.1-8.4c0-0.2,0.2-0.6,0.3-0.6c1.7-0.2,1.4-1.6,1.8-2.7c2.4-6.1,6.4-10.6,12.8-12.8c1-0.3,2-0.5,3-0.5
	c0.9,0,1.9,0.3,2.8-0.5c0.5-0.4,1.1,0,1.6,0.1c2,0.6,3.9,1.3,5.9,1.9c1.2,0.3,1.7,1.3,2.5,2c5.3,4.2,5.7,10,5.1,16.1
	c-0.1,0.6-0.4,1.2,0.1,1.8c0.9,1.9-0.6,3.2-1.4,4.6c-2.3,2.2-4,4.9-5.9,7.5c-3.3,4.7-7.2,8.9-10.3,13.8c-4.1,6.4-5.6,13-2.2,20.1
	c-0.1,1.5,0.1,3-0.8,4.3c-1.2,1.7-2,1.5-3-0.6c-0.1,0.8-0.5,1.4-1.2,1.6c-0.7,0.2-1.4-0.1-2.1,0c-2.2,0.2-4.3,2.2-4.4,4.4
	c-0.2,2.4,1,3.8,3.5,4.3c1.2-0.6,0.7-2,1.5-2.9c0.3-0.4,0.5-0.9,1-0.9c0.8,0,0.9,0.7,0.8,1.2c-0.4,2.3,2.3,3.7,1.7,6.1
	c0,0,0,0.2,0.2,0.2c2.3,0.2,3.8,2.3,6,2.8c1.1-0.1,2-0.6,3.1-0.8c0.3,0,0.6,0.1,0.9,0.3c0.2,0.2,0.5,0.4,0.7,0.5
	c0.4,0.2,0.9,0.3,1.4,0.2c1.2,0.1,2.2-0.8,3.4-0.7C41.2,100.9,41.5,101,41.5,101.4z"/>
<path class="st2" d="M54.1,45c0.1,0.5-0.7,1.7,0.8,1.1c0.7-0.3,1.6-0.4,2.3-0.7c5.1-2,12.9,2.7,12.5,10.3
	c-0.4,6.5-1.7,12.8-4.1,18.9c-0.6,1.5-0.6,2.5,0.6,3.8c3.2,3.6,3.4,8,2.5,12.4c-0.7,3.1-2.1,6-4.2,8.5c-0.2,0.2-0.6,0.5-0.6,0.7
	c-0.2,2.1-1.9,3.2-3.3,4.4c-1.4,1.3-2.5,2.9-4.5,3.4c-0.7,0.2-1.3,1-1.8,1.6c-1.3,1.6-2.5,3.3-3.5,5.2c-0.9,1.6-0.8,1.8,0.8,2.5
	c1.3,0.6,2.7,1.1,3.7,2.1c1.3,1.1,2.7,2.4,2.2,4.2c-0.5,1.7-2.4,2.2-4.1,2.5c-1.9,0.3-3.6,0-5.3-1.1c-1.5-1-2.8-2.1-4-3.4
	c-2.1-2.2-2.4-4.6-1.4-7.3c1.4-3.6,3.1-7,5.6-10c0.8-0.9,1.9-1.7,1.6-3.2c-0.1-0.3,0.6-0.7,0.9-1.1c1.5-1.5,3-2.9,4.5-4.3
	c0.5-0.4,0.8-1,1.6-0.9c1.2,0.1,1.8-0.8,2.4-1.6c1.2-1.7,2-3.5,2.1-5.5c0.2-3.4-1.3-6.1-5.7-4.8c-1.8,0.5-3.5,1.5-5.2,2.3
	c-3,1.6-6,3.3-9,4.9c-0.6,0.3-1.2,0.6-0.7,1.4c-1.5,0.1-2.6-1.7-4.3-0.8c-0.3,0.1-0.6-0.5-0.6-0.9c0-0.7,0.2-1.3,1-1.4
	c0.7-0.1,1.3-0.3,0.9-1.2c-0.4-0.9,0.3-1.4,1-1.6c1.7-0.3,1.3-1.5,1.2-2.5c3.1-2.3,6.5-4.3,10.1-5.9c2.1-0.9,4.3-1.8,6.5-2.5
	c1.8-0.5,3-1.7,3.7-3.5c1.3-3.8,2.2-7.7,2.8-11.6c0.3-2.3-0.1-4.5-2.2-6c-2-1.3-4-0.7-5.9,0.2c-2.6,1.2-4.7,2.8-5.7,5.7
	c-2.3,6.3-4.7,12.6-7.5,18.7c-0.3,0.8-0.4,1.8-1.5,2c-0.8-0.6-1-1.4-1-2.3c1-4.4,2.8-8.4,4.8-12.4c1.4-2.8,1.1-3.4-1.3-4.4
	c-1.6-0.7-2.5-0.4-3.1,1.3c-0.5,1.7-1.2,3.3-2.5,4.6c-2.2,2.3-1.9,5.7-3.4,8.3c-0.4,0.6-0.5,1.4-1,1.9c-0.7,0.7-1.3,0.8-1.9-0.1
	c-0.2-2.1,0.9-3.9,1.7-5.7c3.3-7.9,6.5-15.8,9.6-23.8c0.3-0.9,0.6-1.8,1.6-2.2c1,0.3,1.1,1.2,1.1,2.1c0,0.2-0.1,0.5-0.2,0.7
	c-0.6,1.4,0.6,1.7,1.4,2.3c1.1,0.9,3.3,0.4,3.7,2.4c0,0.1,0-0.2,0.1-0.3c0.2-0.9,0.7-0.9,1.4-0.5c0.4,0,0.6-0.4,0.8-0.7
	c0.2-0.2,0.5-0.3,0.8-0.3c1.9,0.2,3.6-1.1,5.6-0.9c4.1,0.4,6.9,2.9,7,7c0.1,4.3-0.7,8.6-2.3,12.6c-0.4,1-1.1,2-0.8,3.2
	c0.1,0.5,0.3,0.9,0.8,1.1c0.6,0.2,0.8-0.3,1-0.8c1.4-3.5,2.5-7,2.7-10.8c0.1-2.3,0.6-4.5,0.9-6.8c0.3-2.9-0.5-4.8-3.2-6.2
	c-0.5-0.3-0.8-0.9-1.2-1.1c-0.9-0.4-1.7-0.9-2.9-0.7c-2,0.4-4.1,0.8-6.2,0.8c-0.4-0.6-0.8-1.2-0.9-1.9C53,45.8,52.8,44.8,54.1,45z"
	/>
<path class="st3" d="M39.5,77.6c-0.1,0.8,0.4,1.5,0.5,2.3c0.3,1.2-0.8,2.3-0.1,3.4c1.2,2,1.1,2.1-1.8,3c-0.4,0.6,0.2,0.8,0.4,1.2
	c0.5,0.9,0.1,1.4-0.8,1.4c-0.4,0-0.8-0.3-1.1,0c-0.4,0.3-0.4,0.7-0.3,1.1c0,0.3,0.3,0.5,0.5,0.4c1.8-1.3,2.8,0.3,4,1.1
	c0.1,0,0.2,0,0.2,0.2c0.1,0.4-0.2,0.6-0.5,0.7c-1.3,0.4-2.7-0.7-4,0.1c0,0,0,0.1,0.1,0.2c0,0.1,0.1,0.1,0.2,0.2
	c0.1,0.1,0.3,0.3,0.4,0.5c0.2,0.3,0.6,0.5,1,0.6c1.5,0.3,2.5,1.1,2.4,2.7c0,1.6-1,2.6-2.5,3c-0.4,0.1-0.8,0.1-1.1,0.3
	c-0.3,0.3-0.6,0.6-0.9,0.9c-0.2,0.2-0.5,0.3-0.8,0.3c-0.1-0.2-0.3-0.3-0.4-0.5c0-2.1,1-4.3-0.2-6.5c-2.2,2-3.3,4.4-3.1,7.4
	c-0.5,0.7-1.2,0.6-1.6,0c-1.4-2.1-3.5-2.6-5.7-2.8c-0.3-0.8,0.5-0.7,0.7-1.1c0.3-0.6,0.4-1.1-0.3-1.4c-1.2-0.4-1.3-1-1.2-2.2
	c0.1-0.9-0.8-1.8-0.5-3c-1,1.1-1.6,2.2-1.6,3.7c0,0.4-0.1,0.4-0.8-0.1c-0.6,0-1.1-0.2-1.2-0.9c0-0.5,0-0.9-0.3-1.4
	c-0.9-1.4-0.8-2.8,0.2-4c1.2-1.3,2.7-1.1,4-0.6c-1.2-1.1-2.8,0.2-4.3-0.2c-0.3-1.3,0.7-1.4,1.5-1.6c1.5-0.2,2.9,0,4.1,0.9
	c0.2,0.2,0.4-0.2,0.2,0.1c0,0-0.1,0-0.1-0.1c-0.5-0.5-1.4-0.6-1.4-1.5c0.5-0.3,1-0.8,1.2-1.5c0.5,0.6,1,1.2,1.4,1.7
	c2.3-1,1.5-3.2,2.2-4.8c0.8-0.7,1.1-1.6,1.6-2.5c0.3-0.5,0.3-1.5,1.3-1.3c0.6,0.3,1.2,0.4,1.3-0.4c0.5-2.3,2.3-4.2,2.3-6.8
	c0-1.2,0.9-2.6,2.2-3.5c1.2,0.3,0.4,1.7,1.2,2.2c0.6-1.2,0.6-2.8,1.6-3.9c0.5-0.6,1-1.2,1.8-0.8c0.8,0.3,0.5,1.1,0.4,1.7
	c-0.2,1.4-1.1,2.6,0,4.2c0.7,1-0.9,2.6-1.8,3.6c-0.6,0.6-1.3,1.2-2.2,1.7c0.7,0.1,1.7-0.1,1.6,0.8c-0.2,1.9-1.5,3-3,4
	c0.2,0.1,0.5-0.4,0.8-0.3c0.5,0.2,1,1,1.1-0.3C38.2,78.7,38.3,77.6,39.5,77.6z"/>
<path class="st4" d="M44.4,47.8c0.1-0.9-0.5-1.7-0.6-2.6c-0.4-2.5,1.1-4.3,2.5-6.1c0.6-1.5,1.7-2.8,1.7-4.5c0.1-1.7,1.1-3,1.7-4.5
	c1-2.5,2.1-4.9,3.2-7.3c0.4-0.3,0.2-0.7,0.4-1c-0.1-0.3-0.3-0.5-0.4-0.8c0.9-1.7,3.9-2.3,4.9-0.9c0.6,0.9,1,1.3,2,0.8
	c0.9-0.5,1.5-0.1,2,0.7c0.2-2.1,0.2-2.1-1.7-1.8c-1,0.1-1.5-0.5-1.9-1.2c-0.6-0.9-1.1-1.5-2.2-0.6c-0.4,0.4-1.2,0.5-1.2-0.6
	c0.1-0.2,0.2-0.4,0.3-0.6c0.8-1.1,1.8-1.9,2.9-2.7c1.2-0.8,0.5-2.5,1.6-3.4c0.2-0.1,0.4-0.3,0.6-0.4c0.7-0.4,1.1-0.3,1,0.6
	c-0.1,0.6-0.8,1-0.7,1.7c1.5,1,4.1,0.9,4.1,3.6c0.2,2.6-1,5.2,0,7.8c0.4,1-0.4,1.4-1.1,1.4c-1.6,0-1.9,1-2.3,2.2
	c-2.3,5.8-4.7,11.7-7.1,17.5c-0.8,0.7-1.1,1.4,0,2.1c0.6,0.4,0,0.8-0.1,1.2c-0.1,1.2-0.2,2.4-1.6,2.9c-0.1,0.2-0.2,0.3-0.4,0.5
	c-0.3,0.3-0.6,0.6-0.9,0.8c-0.9-0.2-0.9-0.2-1.9,1.3c-0.1-1,0-1.7-1.4-2c-1.3-0.3-2.9-0.9-3.9-2.1C43.3,48.8,43.4,48.3,44.4,47.8
	c0.3,0.2-0.1,0,0.2,0.1c4.3,3.1,5,3,6.8-1.8c0.7-1.9,1.7-3.8,2.2-5.8c0.2-0.9,0.6-1.8,0.4-2.6c0,1.2-0.4,2.5-0.8,3.7
	c-0.2,0.8-0.3,1.6-1.7,1.6c-1.1-0.1-1,1.3-1.4,2c-0.6,1-0.9,2.7-2.3,2.1c-1.1-0.5-0.3-2,0-3c0.3-1.3,1.4-2.4,0.8-4.1
	c-1,2-1.7,4-2.4,5.9C45.8,46.9,45.6,47.8,44.4,47.8z"/>
<path class="st5" d="M54.8,17.5c0.9,0.9,1.2,0.2,1.5-0.5c0.5-1.2,1-1.1,1.5,0c0.4,0.8,0.8,1.5,1.4,2.2c0.4,0.4,1,0.7,1.1-0.3
	c0-0.6,0.4-0.9,0.9-0.9c0.6,0,0.3,0.6,0.5,0.9c0.1,0.2,0.2,0.4,0.3,0.7c0.1,0.5,1.3,0.1,0.8,0.7c-0.7,0.9,0.7,2.1-0.6,2.9
	c-0.8-0.4-0.7-1.4-1.4-2c-1,0-1.6,1.3-2.8,1.1c-0.3-0.8-0.7-1.6-1.1-2.6c-1.2,0.4-2.2,1.1-3.4,0.8c-0.1,0-0.4,0.4-0.6,0.7
	c-0.9-0.5-1-1.1-0.2-1.8C53.4,18.7,54.1,18.1,54.8,17.5z"/>
<path class="st6" d="M64.5,16.2c-1.2-1.8-3-2.6-4.9-3.1c-0.2-1,0.6-1.4,1-2.1c0.5-0.7-0.2-0.5-0.5-0.7c2.2-1,3.9-0.7,5.1,0.9
	C66.3,12.7,66.1,14.2,64.5,16.2z"/>
<path class="st7" d="M41.5,101.4c-0.2-0.1-0.4-0.3-0.5-0.4c1-2.6,1.9-5.1,0.4-7.8c0-0.4,0.3-0.6,0.7-0.7
	C44.9,95.3,44.7,98.9,41.5,101.4z"/>
<path class="st7" d="M35.2,102.6c1.5,0,3,0,4.5,0C38.1,103.4,36.7,103.2,35.2,102.6z"/>
<path class="st7" d="M31,103.1c0.9-1.2,2.2-0.4,3.3-0.6C33.3,103.4,32,102.6,31,103.1z"/>
<path class="st2" d="M42,92.5c-0.2,0.2-0.4,0.3-0.6,0.5c-0.7,0.1-1-0.3-1-0.9c0.2-0.2,0.4-0.3,0.6-0.5C41.5,91.6,41.4,92.4,42,92.5z
	"/>
<path class="st5" d="M53.4,21.8c0.2,0.5,0.6,1-0.4,1C52.9,22.4,53,22.1,53.4,21.8z"/>
<path class="st7" d="M31.4,101.5c-0.7-0.8-0.9-1.5-0.4-2.7c0.6-1.7,1.2-3.3,2.6-4.5c0.5-0.4,0.1-0.4,0-0.7c-0.2-0.6,0.2-0.8,0.6-0.5
	c0.6,0.4,1.4,1,1.5,1.8c0.1,1.9,0.6,4-0.9,5.7C33.7,101.2,32.7,101.8,31.4,101.5z"/>
<path class="st8" d="M19.4,93.9c0.1,0.7,0.8,0.5,1.1,1c-0.5,0.9-1.2,0.5-1.8,0.2c-2.1-1.2-3-3.5-2.3-5.9c0.7-2.2,3-3.9,5.2-3.7
	c0.5,0,1.1,0.2,1.6,0.3c0.8,0.7,2,1,2.6,2.1c0.2,0.4,0.4,0.8-0.1,1c-0.4,0.2-0.6-0.1-0.7-0.4c-1.1-1.7-2.8-1.8-4.6-1.7
	c-0.7,0.1-1.2,0.4-1.5,1c0.3,0.7-0.4,1.2-0.6,1.7c-0.4,0.9-0.4,1.9,0.1,2.8c0.1,0.2,0.2,0.3,0.3,0.5c0.2,0.3,0.4,0.6,0.6,0.9
	C19.3,93.7,19.4,93.8,19.4,93.9z"/>
<path class="st9" d="M40.4,92c0.3,0.3,0.7,0.6,1,0.9c2.2,2.9,1.6,5.8-0.5,8c-1.2,0.3-2.4,1.2-3.7,1c-0.4-0.4-1-0.1-1.5-0.4
	c-0.2-0.2-0.4-0.4-0.6-0.6c0.2-0.2,0.4-0.4,0.6-0.5c1.2-0.2,2.5,0,3.7-0.7c1.4-0.9,2-2.6,1.4-4.5c-0.1-0.2-0.2-0.4-0.3-0.6
	c-0.8-1.7-2.3-1.7-3.8-1.9c-0.5,0-1.1,0.3-1.6-0.3C36.7,90.8,38.6,91.7,40.4,92z"/>
<path class="st10" d="M18.4,122.3c-0.8,0-1.7-1-1.6-1.7c0.1-0.7,0.7-1.1,1.3-1.1c0.8-0.1,1.7,0.9,1.7,1.6
	C19.8,121.8,19.2,122.3,18.4,122.3z"/>
<path class="st3" d="M24,83c0.3-0.7,0.4-1.4,1.3-1.4c0.5,0,1.1,0.3,1.2,0.9c0.1,0.8-0.6,1.3-1.1,1.4C25,83.9,24.4,83.3,24,83z"/>
<path class="st11" d="M16.7,123.6c0.6,0,1.2,0,1.2,0.8c0,0.1-0.3,0.3-0.5,0.3c-0.6,0-1.1-0.2-1.2-0.9
	C16.2,123.6,16.4,123.5,16.7,123.6z"/>
<path class="st7" d="M35.7,101.7c0.5-0.1,1,0,1.5,0.4C36.6,102.1,36.1,102.1,35.7,101.7z"/>
<path class="st12" d="M52.4,51.2c0.8-0.8,0.6-2.2,1.6-2.9c0.9-0.1,1.8-0.2,2.6-0.8c0.7-0.5,1.7-1.1,2.3,0.3c0.2,0.3,0.4,0.1,0.5,0
	c1.1-0.8,1.4-0.8,2.2-0.6c0.9,0.3,2.1,0,2.4,1.3c0.1,0.4,0.3,0.5,0.7,0.5c1.6,0.1,2.1,1.4,2.8,2.5c0.6,1.1,1.2,2.2,0.7,3.7
	c-0.3,0.9-0.9,2,0,3.1c0.1,0.1,0,0.5-0.1,0.7c-1,1.5-0.7,3.2-0.6,4.9c0.1,0.7-0.4,1.3-0.6,2c-0.9,2.5-0.9,5.3-2.2,7.7
	c-0.4,0.7-0.4,1.8-1.7,1.6c-0.8-0.2-1.9-2.2-1.6-2.9c0.3-0.8,0.5-1.7,0.9-2.5c1.8-3.3,1.9-7,2.5-10.5c0.4-2.3-0.4-4.5-1.7-6.5
	c-1.6-2.2-5.1-2.5-7.8-1.7C54.3,51.3,53.4,52.2,52.4,51.2z"/>
<path class="st13" d="M39.5,77.6c-0.7,0.6-0.7,1.4-0.9,2.1c-0.2,0.8-0.5,1.5-1.1,2c-0.8-0.5,0-1.1-0.3-1.6c-0.8-0.2-1.3,0.7-2.4,0.6
	c1.7-1.6,3.4-2.8,4.3-5.1c-1,0.2-1.6,0.4-2.5,0.6c1.2-2.7,4.9-3.5,4.7-6.9c-0.6-0.4-0.9,0.7-1.8,0c0.1,0.1,0.1-0.1,0.3-0.3
	c0.8-1.5,1.5-3,1.4-4.9c-2.6,1.2-1.9,4-3.3,5.5c-1.2-1.8-1.2-1.9-1.2-3.2c1.3-1.7,1.8-3.7,2.7-5.6c0.5-1,0.9-1.7,2.1-0.9
	c0.2,0.1,0.4,0.1,0.7,0.2c3.7,1.1,4.2,2.4,2.1,5.6c-0.9,1.4-1.3,3-2,4.5C41.1,72.7,40.4,75.1,39.5,77.6z"/>
<path class="st14" d="M49,118.2c2.4-0.1,4,1.3,5.6,2.6c1.4,1.2,0.9,2.5-0.8,3.3c-3.1,1.4-6.3-0.8-7-4c-0.1-0.7,0.2-1.2,0.6-1.7
	C48,117.8,48.6,118.1,49,118.2z"/>
<path class="st12" d="M51.1,52.5c0-0.6,0.4-0.8,0.9-0.8C52,52.2,51.8,52.6,51.1,52.5z"/>
<path class="st15" d="M27.6,98.9c-1.8-1.1-2.1-2.1-1.3-4c0.1-0.2-0.1-0.5,0.4-0.6c1.7-0.4,2.9,0,3.6,1c0.7,1.2,0.5,1.8-1.1,3.4
	c-0.1,0.1-0.1,0.1-0.2,0.2C28.5,99,28.1,98.9,27.6,98.9z"/>
<path class="st16" d="M36.2,99.6c0.2-0.8,0.8-0.5,1.4-0.5c1.5-0.1,2.4-1.1,2.5-2.4c0-1.3-0.7-2.1-2.2-2.4c-0.4-0.1-0.8,0-1.2-0.1
	c-0.6-0.2-0.2-0.6,0-0.9c2-0.9,3.2,0.1,4.3,1.5l0,0c0.8,3-0.2,5.1-2.6,5.6C37.5,100.7,36.7,100.7,36.2,99.6z"/>
<path class="st17" d="M18,88.8c0.3-0.4,0.6-0.7,0.9-1.1c1.6-0.6,3.2-1,4.8,0c0.4,0.2,0.8,0.5,0.7,1.1c-0.5,0.3-0.7-0.2-1-0.3
	c-1.4-0.8-2.7-0.7-3.7,0.3c-1,1.1-1,2.3,0,3.6c0.2,0.3,0.5,0.5,0.6,0.7c0.3,0.8-0.5,0.5-0.8,0.7c0,0,0,0,0,0c-0.4-0.3-0.7-0.6-1-1
	l0,0C17.5,91.7,17.5,90.3,18,88.8z"/>
<path class="st7" d="M36.2,99.6c2.6,1.1,4.6-0.1,4.8-2.9c0-0.6,0-1.3-0.1-1.9c1.1,1.8,1.1,3-0.2,4.6c-1.2,1.5-2.9,1.9-5,1.1
	C35.9,100.2,36.1,99.9,36.2,99.6z"/>
<path class="st18" d="M28.1,88.1c1.5-1,2.6-1.9,3.9-1c0.9,0.6,2.1,1.3,1.6,2.9c-1-0.6-1-2-2.2-2.1C30.5,87.8,29.6,88.5,28.1,88.1z"
	/>
<path class="st7" d="M41,94.9c-1.3-1-2.6-1.8-4.3-1.5c0-0.2,0-0.3,0-0.5C38.9,92.1,40.1,92.7,41,94.9z"/>
<path class="st13" d="M35.2,84.8c0.9,0,1.1,0.6,0.9,1.3c-0.2,0.7-0.5,1.4-1.3,1.5c-0.4,0.1-0.6-0.2-0.7-0.5
	c-0.2-0.3-0.1-0.7,0.3-0.8C35.2,86.1,35.1,85.4,35.2,84.8L35.2,84.8z"/>
<path class="st13" d="M35.7,83.8c-0.2,0.3-0.3,0.6-0.5,1c0,0,0,0,0,0c-0.3-0.1-1,0-0.9-0.3C34.5,84,34.9,83.3,35.7,83.8
	C35.7,83.8,35.7,83.8,35.7,83.8z"/>
<path class="st15" d="M32.2,93.8c-0.4-0.6-0.3-1.2-0.2-1.8C32.6,92.6,32.1,93.2,32.2,93.8z"/>
<path class="st2" d="M36.4,69.2c-0.1,0.3-0.2,0.5-0.5,0.4c-0.1,0-0.2-0.3-0.2-0.4c0-0.1,0.1-0.4,0.2-0.4
	C36.2,68.7,36.4,68.9,36.4,69.2z"/>
<path class="st1" d="M27.6,98.9c0.5,0,0.9,0,1.4,0C28.5,99.3,28.1,99.3,27.6,98.9z"/>
<path class="st13" d="M35.7,83.8c0-0.3,0-0.6,0.3-0.8c0.1,0,0.3,0.1,0.3,0.2C36.3,83.5,36,83.7,35.7,83.8
	C35.7,83.8,35.7,83.8,35.7,83.8z"/>
<path class="st19" d="M44.4,47.8c1.6-1.1,1.4-3.1,2.2-4.6c0.7-1.3,1.3-2.7,1.7-4.2c0.6,0.2,0.4,1,1.1,1.1c0.7,0.1,0.5,0.5,0.3,1
	c-0.6,1.3-1.1,2.6-1.6,4c-0.2,0.6-0.5,1.2-0.1,1.9c1.9-1.3,1.8-3.7,2.9-5.3c0.7-0.1,0.7,0.9,1.4,0.8c0.6-2.1,1.5-4.1,1.2-6.5
	c1,0.4,1,1,0.9,1.5c-0.2,1.7-0.2,3.4-1.1,5c-1,1.9-1.5,4-2.2,6c-0.2,0.7-0.6,1.3-1,1.9c-0.2,0.4-0.5,0.6-1,0.4
	c-1.6-0.5-3.1-1.2-4.6-2C44.3,48.8,44.4,48.2,44.4,47.8C44.4,47.8,44.4,47.8,44.4,47.8z"/>
<path class="st20" d="M55.1,28.1c-0.1,1.2-0.8,1.7-1.3,2.3c-0.9,1.1-1.9,2.1-2.5,3.4c-0.2,0.5-1.2,0.9,0,1.4c0.2,0.1,0,0.5-0.2,0.6
	c-0.6,0.4-1.1,0.9-1.3,1.7c-0.1,0.4-0.5,0.7-0.9,0.4c-0.4-0.3-0.2-0.7-0.1-1.1c0.7-2,2-3.7,2.3-5.9c0.1-0.6,0.5-1.1,1-1.2
	C53.3,29.6,53.9,28.6,55.1,28.1z"/>
<path class="st21" d="M57.9,30.9c-0.2-1.9,0-3.4-0.4-4.9c-0.3-1,0.3-2,1.4-2.5c0.5-0.2,1.1-0.4,1.6,0c0.6,0.4,0.1,1,0,1.5
	C59.8,27,58.9,28.7,57.9,30.9z"/>
<path class="st20" d="M53.3,27.5c0.1-1.9,1.2-3.4,1.3-5.3c0.1-0.9,1.2-1,1.9-0.3c0.9,1,1,1.9,0,2.9C55.6,25.8,54.7,26.9,53.3,27.5z"
	/>
<path class="st20" d="M55.7,35.6c-1-2.1,0.5-4.2-0.5-6.7C57.2,31.1,57.3,33.7,55.7,35.6z"/>
<path class="st3" d="M18,88.8c-0.2,1.4,0.1,2.8,0.5,4.1C16.9,91.7,17.3,90.3,18,88.8z"/>
<path class="st3" d="M18.4,92.9c0.3,0.3,0.9,0.4,1,1C18.7,93.9,18.5,93.5,18.4,92.9z"/>
</svg>
