<?xml version="1.0" encoding="utf-8"?>
<!-- Generator: Adobe Illustrator 23.1.1, SVG Export Plug-In . SVG Version: 6.00 Build 0)  -->
<svg version="1.1" id="Livello_1" xmlns="http://www.w3.org/2000/svg" xmlns:xlink="http://www.w3.org/1999/xlink" x="0px" y="0px"
	 viewBox="0 0 80 135" style="enable-background:new 0 0 80 135;" xml:space="preserve">
<style type="text/css">
	.st0{fill:#FFFFFF;stroke:#000000;stroke-width:0.2509;stroke-miterlimit:10;}
	.st1{fill:#2A2B26;}
	.st2{fill:#333A36;}
	.st3{fill:#3E3E64;}
	.st4{fill:#45476A;}
	.st5{fill:#443B3C;}
	.st6{fill:#3C3F66;}
	.st7{fill:#42496E;}
	.st8{fill:#762E30;}
	.st9{fill:#4A4E63;}
	.st10{fill:#756F53;}
	.st11{fill:#6A6968;}
	.st12{fill:#655F4E;}
	.st13{fill:#8B8258;}
	.st14{fill:#322E5F;}
	.st15{fill:#F8E730;}
	.st16{fill:#F7EA31;}
	.st17{fill:#F5E931;}
	.st18{fill:#F0B675;}
	.st19{fill:#F1E833;}
	.st20{fill:#BC2C2C;}
	.st21{fill:#E8342F;}
	.st22{fill:#77221F;}
	.st23{fill:#E5E7E5;}
	.st24{fill:#E2373B;}
	.st25{fill:#907633;}
	.st26{fill:#937934;}
	.st27{fill:#E8E9E5;}
	.st28{fill:#CBB43C;}
	.st29{fill:#DD3F46;}
	.st30{fill:#DF3C3E;}
	.st31{fill:#977C35;}
	.st32{fill:#DB3F45;}
	.st33{fill:#E5E6E3;}
	.st34{fill:#E9E8E9;}
	.st35{fill:#C04A4B;}
	.st36{fill:#A68B42;}
	.st37{fill:#C1B05A;}
	.st38{fill:#DFDDDE;}
	.st39{fill:#E1E0DF;}
	.st40{fill:#D8C03A;}
	.st41{fill:#CACCCB;}
	.st42{fill:#C8C6C7;}
	.st43{fill:#B8BCB9;}
	.st44{fill:#B6B6B6;}
	.st45{fill:#8A8D89;}
	.st46{fill:#C9BD67;}
	.st47{fill:#CFC54C;}
	.st48{fill:#CBC462;}
	.st49{fill:#E0E1E1;}
	.st50{fill:#E1DB62;}
	.st51{fill:#DE383E;}
	.st52{fill:#D1D1CC;}
	.st53{fill:#544433;}
	.st54{fill:#3D381E;}
</style>
<path class="st0" d="M71.5,135h-63c-4.7,0-8.5-3.8-8.5-8.5V8.5C0,3.8,3.8,0,8.5,0h63C76.2,0,80,3.8,80,8.5v118
	C80,131.2,76.2,135,71.5,135z"/>
<path class="st1" d="M56.6,90.1c-0.7,2.8-2.1,5.3-2.7,8.2c-0.8,4.1-2.2,8.1-3.6,12.1c-0.1,0.5-0.2,0.9-0.6,1.3
	c-0.7,0.5,0.3,1.8-0.8,1.9c-1.1,0.1-1.8-0.7-2.1-1.8c0.4-4.3,1.6-8.5,1.8-12.8c0.3-4.8,0.2-9.6,1.2-14.3c0.2-0.8-0.1-1.6-0.2-2.4
	c-0.2-1.2-0.2-2.6-1.9-2.8c-1.9-0.3-3.3,0.3-4.4,1.7c-0.2,0.3-0.4,0.6-0.2,0.9c1.1,2,0.6,4.5,1.8,6.5c0.3,0.5,0.2,1.2,0.3,1.8
	c-0.1,0.5-0.2,0.9-0.2,1.4c0,0.2,0,0.4,0,0.6c0.1,0.6,0.4,1,0.7,1.5c0.2,0.4,0.4,0.8,0.3,1.2c-2.1,1.3-2.3,3.3-2.2,5.5
	c0,1.2-0.1,2.4,0.1,3.5c0.7,1.8,0.7,3.7,0.7,5.5c0,1.1,0.3,2,1.2,2.7c0.2,0.2,0.2,0.4,0.2,0.6c-0.1,0.2-0.3,0.4-0.5,0.5
	c-0.8,0.3-2,0.3-1.7,1.7c0,0.2,0,0.4,0,0.7c-0.6,1.4-1.7,2-3.2,1.8c-2.7-0.4-4.7,0.8-6.3,2.9c-0.2,0.3-0.4,0.5-0.7,0.7
	c-0.8,0.5-1.7,1.5-2.5,0.6c-0.7-0.8,0.6-1.2,1-1.8c0.3-0.4,0.5-0.8,0.8-1.2c0.2-0.3,0.4-0.5,0.7-0.7c1.2-0.5,1.6-1.5,1.7-2.7
	c0.1-0.5,0.4-1,0.9-1.2c0.9-0.4,0.5-1.2,0.5-1.8c-0.1-1.9-0.1-3.8,0.3-5.7c0.8-4,0.8-8.1-0.1-12.1c-0.4-1.6-0.1-3.1,0.5-4.6
	c1.1-3.1,1.6-6.3,0.8-9.6c-0.9-1.7-2.5-1-3.9-1.1c-1.2-0.1-2.3,0.5-3.5,0.8c-0.1,0-0.3,0-0.5,0.1c0.1,0.1,0.1,0.2,0.3,0.4
	c0.1,0.2,0.1,0.3,0.1,0.5c-0.1,0.5,0,1-0.1,1.4c-0.1,0.2-0.3,0.3-0.5,0.4c-2.9-0.3-4.7-2.1-4.8-5c0-0.5,0.1-1,0-1.4
	c-0.2-1.1,1-2.4,0.1-3.1c-1-0.7-1.3,1.5-2.5,1.2c-1.3-1.3-1.3-3.1-1.5-4.8c-0.2-1.4-0.2-2.8-0.6-4.2c-0.9-0.2-1,0.7-1.5,0.9
	c-0.5,0.3-1,0.7-1.5-0.1c-0.2-0.6,0-1.1,0.4-1.6c0.5-0.6,1.1-1.1,1.4-1.8c1.6-2.7,3.8-4.9,5.6-7.5c1.2-1.8,1.9-3.7,1.2-5.9
	c0-0.2,0.1-0.4,0.2-0.6c0.8-0.7,2,0.5,2.8-0.6c0.3-0.3,0.6-0.6,0.8-0.9c0.3-0.6,0.7-1.2,0.9-1.9c0-0.2,0-0.3-0.1-0.4
	c0,0.3-0.2,0.4-0.4,0.6c-0.4,0-0.6-0.1-0.8-0.4c-0.3-0.5-0.2-1.2-0.8-1.5c-0.3-0.2-0.7-0.3-1-0.4c-0.3,0-0.6-0.1-0.9-0.1
	c-0.3,0-0.6-0.1-0.9-0.2c-0.3-0.2-0.6-0.3-0.8-0.6c-0.3-0.4-1-0.8-0.3-1.4c1.4-0.6,2.8,0,4.1,0c0.3,0,0-0.6,0-0.3
	c0,0.1,0,0.1-0.1,0.1c-0.9,0.2-1.6-0.1-2.4-0.5c-0.2-0.4,0.1-0.7,0.4-0.9c2.2-0.8,4.2,0,6,0.6c0.5,0.1,0.3-0.5,0.3-0.2
	c0,0,0,0.1-0.1,0c-2.3-0.3-4.4-1.2-6.1-2.8c-0.2-1,0.6-1.2,1.3-1.3c1.8,0.6,3.1,2.2,5.2,2.3c-0.5-0.9-1.8-1-1.9-2.2
	c0.1-0.5,0.5-0.7,1-0.8c0.8,0,1.4,0.6,2.1,1c-0.3-0.7-1-1.4-0.5-2.2c0.6-0.5,1.2-0.8,1.9-0.5c1.2,0.7,1,2.2,1.9,3.1
	c1.4,2.1,3.6,2.6,5.9,3c0.6,0.7,2.1,0.5,2.1,1.2c-0.1,1.3,0.7,0.5,0.9,0.5c1.4-0.1,2.8,0.4,4.2,0.6c0.9,0.4,1.7,0.1,2.6,0
	c0.1,0.1,0.1,0.3,0.2,0.4c0.3,0.6,0.4,1.3,0,1.9c-0.4,0.3-0.8,0.2-1.2,0.1c-0.3,0-0.6-0.1-0.9-0.2c-0.2,0-0.4,0-0.5,0
	c-0.5,0-0.8,0.3-1.3,0.4c-0.5,0-0.9,0.1-1.3,0.4c-0.2,0.2-0.5,0.3-0.6,0.5c-0.4,1.4,0.5,2.5,1,3.7c0.4,0.9,1,1.1,1.9,0.6
	c0.7-0.4,1.6-1.1,2.1,0.3c-1.2,1.5-0.9,2.8,0.2,4.2c1,1.3,2.8,2,3.2,3.9c-1.7,2.5-0.8,5.3-1,7.9c-0.2,2.3-0.4,4.6-0.7,6.9
	c-0.4,3-0.6,6-1,9c-0.1,0.9,0.5,1.6,1,2.4C56.3,85.8,56.9,87.8,56.6,90.1z"/>
<path class="st2" d="M22.8,74.2c0.7-0.2,1-0.8,1.2-1.4c0.5-1.1,1.3-0.4,1.9-0.3c0.9,0.3,0.5,0.9,0.3,1.5c-0.7,1.5-0.3,3.1-0.3,4.6
	c0,0.6,0.5,1.1,1,1.6c1.7,1.5,1.6,1.5,3.6,2.1c1.3,0.6,1.2,1.8,1.3,2.8c0.1,1,0.3,1.9,1.1,2.5c0.4,0.4,0.9,0.9,0.8,1.4
	c-0.3,2.7,1.1,5.4,0,8.2c-1.3,3.3-0.2,6.8,0,10.1c0,0.6,0.2,1.3,0.2,1.9c0.2,3.1,0.2,3.1,3.1,3.6c0.4,0.7,0.6,1.3-0.5,1.5
	c-0.9-0.3-1.8-0.2-2.4,0.7c-2.5,1-4.2,2.8-5.8,4.9c-0.5,0.6-0.7,1.4-1.1,2c-1.2,0.8-1.4,0-1.3-1c0.1-1.3,1.1-2.3,1.7-3.6
	c-2.9-0.6-5.7-0.5-8.5-0.4c-1.6,0.1-3.2,0-4.8-0.1c-0.7,0-1.7,0.2-1.8-1c1-1.7,2.1-3.4,3.6-4.6c3.5-2.7,4-6.2,2.6-10.2
	c-1-3-0.4-6.1-0.7-9.2c0-0.5,0-1.1,0.7-0.9c1.7,0.4,2.4-1.2,3.7-1.6c1-0.3,0.9-1.4,0.7-2.3c-0.7-3.6-0.5-7.3-1.3-10.9
	C22,75.5,21.6,74.5,22.8,74.2z"/>
<path class="st3" d="M12.8,115.9c1.9,0.9,3.9,0.5,5.8,0.5c3.2,0,6.5,0.1,9.7,0.3c0.1,0,0.3,0.2,0.5,0.3c-0.3,1-1,1.7-1.5,2.5
	c-0.4,0.7-0.8,1.4-0.7,2.2c0.1,0.4,0.5,0.1,0.6-0.2c1.5-0.2,2.8-1,3.9-1.9c0.6-0.5,1.1-1.4,2.2-1c0.2,1.5-1.3,1.9-2,2.9
	c1.3,0,2.1-0.7,2.6-1.5c0.8-1.4,2.2-2,3.4-2.9c1.1-0.9,2.4,0.1,3.7-0.3c1.2-0.4,1.7-0.3,2.6-1.5c3.3,0.3,5.9,2.4,9,3.2
	c-2.1-2-5.6-2.3-6.7-5.6c0-0.1-0.1-0.3-0.1-0.4c0.2-1,0.8-1,1.6-0.7c0.2,0.7,1,0.9,1.5,1.3c0.9-0.2-0.4-1.6,0.9-1.6
	c0.1,0.8-0.4,1.6-0.1,2.4c0.1,0.3,0.3,0.5,0.5,0.5c1.7,1.4,3.7,1.6,5.8,1.5c4.9-0.2,9.7-0.2,14.6-0.2c2.1,0,2.2,0,2.2,2
	c0,1.4,0,2.7-0.1,4.1c-0.1,1.8-0.1,1.9-1.9,1.9c-1.7,0-3.3-0.1-5-0.1c-6.3,0-12.7,0.1-19,0.1c-5,0-10-0.2-15,0
	c-6.8,0.2-13.6-0.2-20.5,0.2c-1.2,0.1-2.4,0-3.6-0.1c-1.1,0-1.6-0.6-1.5-1.7c0-1.7,0.1-3.4,0.1-5c0-1,0.5-1.4,1.5-1.4
	C9.4,115.9,11.1,115.9,12.8,115.9z"/>
<path class="st4" d="M8,63.7c-0.9-2.4-0.7-3.3,1.3-4.3c1-0.5,0.7-1.2,0.7-1.8c0.1-4.1,0.1-8.1,0.1-12.2c0.1-8.4,0.2-16.8,0.1-25.2
	c0-2.5,1.8-3.6,3.1-5.1c0.3-0.4,0.7-0.1,1,0.3c1.4,1.6,2.6,3.1,2.6,5.6c-0.3,12.2-0.3,24.4-0.3,36.7c0,0.7-0.5,1.6,0.5,2.1
	c-0.9,1.7-3.3,2.4-5.7,1.8c-0.6-0.2-1.2-0.9-2-0.4c-0.4,0.3-0.5,0.8-0.7,1.3C8.6,62.9,8.5,63.4,8,63.7z"/>
<path class="st5" d="M9,60.7c0.5-0.4,0.9-0.9,1.6-0.4c2.3,1.7,4.5,1.1,6.5-0.5c1.4-3.2,2.5-6.5,4.1-9.6c0.3-0.7,0.4-1.3,0.3-2.1
	C21.1,45.2,22,42.5,23,40c1.6-3.8,4.7-6.3,8.1-8.5c0.7-0.4,1.4-0.7,2.1-1.1c0.7-0.3,1-1.2,0.6-1.6c-1.2-1.3-0.4-2.8-0.6-4.2
	c-0.4-2-0.2-4.1-0.2-6.2c0.1-2.3,2.5-4.4,4.6-4.3c1.5,0.1,3.1,0.3,4.6,0.2c2.6-0.1,3.6,1.6,5.2,3c-0.5,0.9-1,1.8-1.5,2.7
	c-0.4,0.7-0.5,1.4-0.2,2.3c0.6,1.4,0.2,2.8,0.1,4.2c-0.1,1.3-0.6,2.4-2.1,2.9c-0.7,0.3,0.1,0.5,0.1,0.8c-0.4,0.6-1,0.8-1.7,0.7
	c-1-1.7-1.5-3.6-1.6-5.6c0-0.9-0.1-1.7-0.5-2.5c-0.1-0.2-0.2-0.4-0.3-0.6c-0.3-1.2-1-2-2.2-2.2c-1.9-0.4-2,0.1-1.9,2
	c0.1,2.3,1.2,3.4,2.8,4.8c1.4,1.2,0.1,1.8-1.1,2.1c0,0,0,0.1,0.3,0.1c1,0,2.5-0.9,3,0.2c0.4,1.1-1.2,1.5-2,2.1
	c-0.8,0.6-1.2,1.7-2.3,2c-0.6,0.2-1.2,0.3-1.8,0.5c-1.1,0.7-1.8-0.7-2.8-0.4c0.1,0.9,1.6,0.7,1.2,1.9c-0.4,0-0.7,0.1-0.9,0.4
	c-1.1,0.3-2.3-1.5-3.4,0.1c-0.4,0.3-0.9,0.6-1.3,0.9c-0.3,0.7-1.2,0.8-1.5,1.5c0.1,0.9,1.7,0.3,1.5,1.5c-0.2,0.1-0.3,0.2-0.5,0.3
	c-0.4,0.9-1.2,0.3-1.8,0.5c-0.7,0.2-0.2,0.5-0.1,0.7c0.3,0.3,0.6,0.6,0.9,0.9c0.1,0.7-0.4,1.3-0.6,2c0.4-0.5,0.4-1.3,1.1-1.6
	c0.3,0,0.6,0,0.8,0c0.6,0.9,0.2,1.7,0,2.6c0.5-0.8,0.3-1.9,1-2.6c0.3,0.1,0.6,0.3,0.9,0.4c0.5,0.4,0.5,1,0.3,1.5
	c-0.8,1.8,0.9-0.4,0.7,0.4c0.1,0.2,0.3,0.4,0.4,0.5c0.8,0.7-0.3,1.6,0.1,2.3c-0.2,0.5-0.6,0.6-1.1,0.6c-1.9,0.6-3.2-1.5-4.9-1.1
	c0.7,0.3,2,0,2.2,1.4c0,0.2,0,0.4,0,0.6c-3-0.2-4.5,1.6-5.5,4.2c-0.8,2.3-2.7,4.4-1.5,7.2c0.3,0.8,0.1,1.6,0.2,2.3
	c-0.1,0.9-0.7,1.3-1.4,1.7c-1,1-2.4,1.4-3.6,2.2c-1.3,0.9-0.4,1.2,0.3,1.6c0.1,0.9-0.4,1.6-0.7,2.4c-0.4,0.8-1,0.5-1.5,0
	c-0.3-0.5-0.9-0.7-1.4-1c-0.2-0.2-0.3-0.5-0.4-0.8c-0.1-0.5-0.5-0.9-0.5-1.4c0.1-0.6,0.9-0.5,1-1.1c-0.6-0.4-1.4-0.3-2-0.4
	c-0.9-0.2-0.2-1.3-0.9-1.6c-0.4-0.2-0.8-0.5-0.9-1c0.1-0.5,0-1.1,0.4-1.5c2.2,1.7,4.5,2.8,7.3,1.8c0.4-0.1,0.7-0.3,0.8-0.8
	c0-0.2,0-0.4,0.1-0.5c-2.6,0.6-3.6,0.6-5,0.2C10.4,62.5,9.3,62.1,9,60.7z"/>
<path class="st6" d="M56.6,90.1c-0.1-0.8-0.6-1.5-0.6-2.3c0-1.5-0.7-2.9-1.6-3.9c-1.2-1.2-1-2.5-0.7-3.9c0.4-2.2,1-4.3,0.6-6.5
	c-0.1-0.6-0.5-1.9,0.9-2.2c0.1,0,0.3-0.3,0.2-0.4c-1.3-1.4,0-3-0.2-4.4c-0.3-2.5,0.1-5.1,0.1-7.7c0-0.8,0.8-0.5,1.1-0.9
	c1.5-0.4,2.1,0.6,2.6,1.7c0.1,0.6-0.3,0.8-0.6,1.1c0.6,6.8,0.5,13.6,0.3,20.5C58.7,84.3,58.4,87.4,56.6,90.1z"/>
<path class="st7" d="M22.8,74.2c-1,1.1-0.1,2.2,0.1,3.1c0.5,2.5,0.5,5,0.8,7.5c0.1,1.3,0.6,2.5,0.5,3.8c-0.1,0.8-0.2,1.3-1.1,1.5
	c-0.9,0.2-2,0.5-2.6,1.4c-0.7,1-1.2,0.5-2-0.1c0.1,3.2,0.3,6.5,0.4,9.7c-1-1.2-1.1-2.7-1-4.1c0.3-7.5,0.1-14.9,0-22.4
	c0-0.3,0.1-0.6,0.1-0.9c0.5-0.2,0.8,0.5,0.9,0.5c0.5-0.2,0.1-0.6,0-0.9c-0.2-2.4,0.3-4.9,0-7.3c0.4-0.9,1-1.6,2-2.2
	C22.1,67.3,21.7,70.9,22.8,74.2z"/>
<path class="st8" d="M42,31c0.6-0.2,1.2-0.4,1.7-0.6c5.4,1.9,8.7,5.7,10.2,11.1c-0.6,1-1.3,1.4-2.3,0.5c1.4-1.5-0.2-2.1-1-2.6
	c-1.3-0.7-1.7-1.2-0.6-2.4c-0.7-0.2-1.2,0.5-1.7,0.1c-0.9-1.5-2-2.8-2.8-4.3c-0.8-1.4-1.7-1.1-2.6,0.6c0.7-0.3,1.1-1.9,1.9-0.8
	c1,1.5-0.6,2.5-1.2,3.6c0.4-0.5,0.9-1.1,1.6-0.6c0.7,0.5,0.2,1.1-0.1,1.7c-0.2,0.3-0.6,0.5-0.4,1c0.5,0.4,0.7,0.1,0.8-0.4
	c1-0.3,1.7-1.7,3-0.6c0.3,2.3-0.1,2.8-2.3,2.6c-0.8-0.1-1.6-0.1-2.3-0.5c-1.1-0.7-2.3,0.5-3.5-0.4c-1-0.8-1.7-1.8-2.7-2.5
	C39.7,35.2,40.3,32.7,42,31z"/>
<path class="st9" d="M47.3,17.4c-0.7-0.3-1.5-0.6-2.1-1.1c-1-0.9-1.8-2.1-3.3-1c-0.1,0.1-0.5,0-0.6-0.1c-0.9-1.2-1.8-0.8-2.9-0.1
	c-1,0.7-1.2-0.8-2.3-0.7c-0.3,1.7-2.8,2-3.2,4.1c-1.1-1.9-1.5-4-2.3-6c0.4-0.1,0.7-0.3,0.8-0.3c1.4,1,2.8,1.3,4.2-0.2
	c0.6-0.6,1.2-0.2,1.6,0.4c0.6,0.9,1.2,0.9,1.9,0.1c0.6-0.7,1.3-1,1.9,0c0.6,0.9,1.2,0.9,2,0.3c0.7-0.5,1.5-0.7,1.7,0.2
	c0.5,1.8,1.8,1.7,3.2,1.5c0.4,0,0.8-0.1,1.2,0.3C48.8,15.9,48.1,16.7,47.3,17.4z"/>
<path class="st10" d="M58.4,60.8c0.2-0.3,0.3-0.6,0.5-0.9c1.1-0.5,1.7,0.4,2.5,0.9c2.3,1.6,4.3,3.5,6.6,5c0.5,0.4,1,1.4,1.9,0.2
	c0.5-0.6,1.4,0.4,1.9,0.8c-0.3-0.5-1.4-0.8-0.9-1.6c0.6-0.9,1.4-0.1,2,0.2c0.1,0,0.2,0.1,0.2,0.3c0.1-0.1,0.1-0.2-0.1-0.2
	c-0.4-0.5-1.5-0.8-0.4-1.6c0.2,0,0.4,0,0.5,0c0.3,0.3,0.3,0.1,0.4-0.2c0.2-0.2,0.3-0.3,0.6-0.1c0.5,0.4,1,0.8,1.5,1.2
	c1.1,1.2,0.6,2.8-1,3.3c-0.4,0.1-0.5,0.3-0.5,0.6c0,0.9-0.5,0.8-1.1,0.6c-0.3-0.1-0.6-0.4-0.8,0c-1,2-1.6,0.5-2.3-0.3
	c-0.2-0.2-0.4-0.6-0.6-0.7c-3.9-1.9-6.8-5.3-10.4-7.5C58.8,60.7,58.6,60.8,58.4,60.8z"/>
<path class="st11" d="M51.7,43.5c0.3,0,0.7,0,1,0.1c0.9,0.5,0.8,1.6,1.1,2.2c0.2,0.5,0.5,0.1,0.2,0.3c0,0-0.1,0-0.1-0.2
	c-0.1-0.6-0.7-1.2-0.2-1.9c0.7-0.5,0.2-1.3,0.4-1.9c1.4,2.2,2.8,4.5,2.8,7.2c-0.1,0.2-0.3,0.3-0.5,0.4c-0.4,0.1-0.8,0.1-1.3,0
	c-0.3,0.3-0.8-1.1-1.1,0.1c-0.3,0.3-0.7,0.4-1,0c-0.7-0.7-1.2,0-1.6,0.3c-1.5,0.8-1.5,0.8-2.7-0.7c0.4-1.7-1.7-2.9-1-4.7
	c0.4,0,0.7,0,1.1-0.1c1.3,0.2,1.1,1.5,1.8,2.2c-0.1-0.9-0.9-1.7-0.4-2.7C50.8,44,50.8,42.4,51.7,43.5c-0.5,0.8,0.4,1.4,0.5,2.1
	C52.1,44.9,51.3,44.3,51.7,43.5z"/>
<path class="st12" d="M13.3,70.3c0.3,0.4,0.6,1.2,0.9,0.1c0.2-0.8,0.7-1.3,1-2c0.2-1.2,0.7-0.4,1.1-0.1c0.4,0.8-1,1.2-0.6,2
	c-0.2,1.5-1.4,2.8-1,4.6c0.1,0.7-0.7,1.3-1.5,1.2c-0.8,0-1.5-0.6-1.4-1.4c0.2-1.4-0.6-2.2-1.6-3c-1.5-1.2-1.6-3-1.5-4.8
	c0.1-0.8,0.3-1.6,0.1-2.4c0.8,0.1,0.4,1.1,1,1.4c0.6,0.4,0.8,0.9,0.6,1.6c-0.2,1.1,1,0.7,1.3,1.2c0,0.3,0,0.6,0.1,0.9
	c-0.2,0.6-0.8,0.3-1.1,0.4C11.5,70.7,12.4,70,13.3,70.3z"/>
<path class="st13" d="M56.3,49.4c0.2-0.1,0.5-0.1,0.7-0.2c2.4,2.2,4.2,4.9,6.2,7.5c0.4,0.6,0.9,1.1,1.4,1.6c0.8,1,1.9,1.3,3,0.7
	c1.1-0.5,2.2-0.4,3.3-0.4c0.5,0,1-0.1,1.2,0.5c0.2,0.6-0.3,0.8-0.5,1.2c-0.2,0.2-0.5,0.3-0.5,0.7c1.1,0.8,2.1,1.6,3.2,2.5
	c-0.2,0.1-0.3,0.3-0.5,0.4c-0.1,0.3-0.3,0.3-0.5,0.1l0,0c-1.2-0.7-2.4-1.2-3.5-2c-0.8-0.6-1.2-1.3-0.3-2.3c-3.1,1.9-5.2,0.5-7.1-1.8
	c-2-2.4-3.5-5.2-5.8-7.3C56.3,50.4,56.1,49.9,56.3,49.4z"/>
<path class="st5" d="M15.7,70.4c-1.1-1,0.5-1.2,0.5-1.8c0.3-1,0.6-2.2,1.8-2.5c0.3,0.5,0.7,0.2,1,0.1c0.8,1.4,1,2.9,0.7,4.5
	c-0.3,1.1-0.3,2.2,0.1,3.3c0.3,0.8,0.2,1.4-0.7,1.7c-0.4-0.5-0.2-1.4-0.9-1.8c-0.1-1.7-0.1-3.3-0.2-5c0,0-0.1-0.1-0.3-0.2
	C16.8,68.9,16.3,69.6,15.7,70.4z"/>
<path class="st1" d="M50.2,114.6c-0.2,0.2-0.4,0.3-0.6,0.1c-0.2-0.2-0.2-0.4,0-0.6C49.9,114.2,50.1,114.4,50.2,114.6z"/>
<path class="st14" d="M34.2,58.6c-0.9,1.9-1.9,0.5-2.8,0.2c-1.3-0.4-0.6-1.4-0.5-1.9c0.2-1.6,0.3-1.5-0.5-3.6c-0.3-0.7,0.4-3.6,1-4
	c0.6-0.4,1.1-0.8,2.1,0c1.5,1.3,3.7,1.4,5.7,1.3c0.9-0.1,1.7-0.6,2.1-1.4c0.7-1.2,1.7-2.4,1.6-3.9c-0.1-0.9,0.3-1.3,1-1.7
	c0.4-0.2,0.8-0.1,1.1,0.2c0.5,0.6,1,1.2,0.9,2.1c0,0.1-0.1,0.1-0.1,0.2c-0.1,0.5-1.5,0.6-0.6,1.4c0.7,0.6,1.1-0.3,1.8-0.6
	c0,0.7,0,1.4,0,2c-0.2,0.1-0.4,0-0.6-0.1c-0.2-0.1-0.5-0.6-0.8-0.1c-0.1,0.1,0,0.6,0.1,0.6c1.7,0.8,1.4,2.2,1.3,3.6
	c-0.2,1.7,0.2,3.5-0.3,5.2c-0.4,1.3-0.3,3-2.5,2.6c-0.5-0.1-0.8,0.5-1,0.9c-1,1.4-2,1.7-3.6,1c-0.9-0.4-1.9-0.4-2.9-0.7
	C35,61.7,34.2,60.6,34.2,58.6z"/>
<path class="st15" d="M37.2,113c-0.8,0.7-1.7,0.6-2.7,0.3c-0.7-0.3-1-0.7-1-1.4c0-3.4-0.6-6.7-0.9-10c-0.2-2,0-4,1-5.8
	c0.5-0.9,0.4-1.7,0-2.5c-0.5-1-0.8-1.8-0.2-2.9c0.6-1.2-0.5-2-1-3c-1.3-2.3-0.7-4.4,0.9-6.3c1.4-1.7,3.2-2.6,5.4-1.8
	c1.2,1.6,0.6,3.4,0.4,5.1c-0.3,2.3-0.3,4.6-1.6,6.6c-0.6,1-0.3,2.1,0,3c1.1,4.1,0.9,8.2,0.2,12.3C37.2,108.7,37.2,110.8,37.2,113z"
	/>
<path class="st16" d="M47.4,111.9c-0.5,0.2-1.1,0.2-1.6,0.7c-1.4,0-1.7-1-1.7-2.1c0-2.2-0.2-4.4-0.5-6.6c0.2-1,0.2-2,0.2-3
	c0.1-2.2,0.8-4.3,2.1-6.1c-0.4-0.2-0.3-0.7-0.4-1c-0.3-0.5-0.7-0.9-0.8-1.5c-0.1-0.1-0.1-0.2,0-0.4c0.2-0.5,0-1.1,0.3-1.5
	c-0.3-0.4-0.3-0.9,0-1.3c-1.1-2.2-1-4.6-0.3-6.9c0.4-1.5,1.8-2.2,3.3-2.3c1.4-0.1,1.9,0.8,2.4,1.9c0.6,2,0.6,3.9-0.3,5.8
	c-0.3,0.6-0.2,1.2-0.1,1.9c0.2,1.7,0.3,3.5-0.3,5.2c-0.5,1.5,0.1,3,0,4.5C48.9,103.4,48.2,107.7,47.4,111.9z"/>
<path class="st17" d="M56.3,49.4c2.4,2.5,4.4,5.2,6.3,8.1c0.4,0.6,1.1,1.2,1.7,1.7c1.1,0.9,2.3,1.4,3.7,0.6c0.9-0.5,1.9-0.7,3-0.3
	c-0.1,1-1.5,0.5-1.7,1.5c1.1,1.3,3.2,1.4,4,3.1c-0.4,0.1-1.1-0.2-0.5,0.7c0.2,0.3,0.4,0.5,0.5,0.7l0,0c-0.7,0.2-1.3-0.7-2.2-0.3
	c0.3,0.9,1.4,1.2,1.5,2.4c-1.1-0.1-1.6-1.6-2.9-1.3c0.2,0.4,0.3,0.9,0.5,1.3c-0.1,0.2-0.3,0.2-0.4,0.1c-3-1.6-5.4-3.8-8-5.9
	c-0.9-0.7-1.7-1.6-2.9-1.9c-0.6-0.8-1.3-1.6-2.4-1.9c-1.4-1.5-2.8-3-4-4.5c-1.3-1.6-1.1-2.6,0.7-3.7c0.4,0.1,0.7,0,0.9-0.4
	c0.3-0.4,0.6-0.3,1-0.2C55.5,49.2,55.9,49.3,56.3,49.4z"/>
<path class="st18" d="M42,31c-0.4,1.6-1.3,2.8-2,4.2c-0.4,0.8-1.2,1.5-2.2,1.5c-1.1-0.8-0.7-2.4-1.5-3.3c0.8-1.9,2.4-2.9,4.1-4
	c-1.5,0.1-2.9,0.4-4.3-0.4c0.4-1.2,2.4,0.2,2.6-1.7c-1.8,0.5-2-1.9-3.7-2c-0.3,0-0.1-1,0.1-1.5c0.4-0.9,0.6-1.7-0.7-2.3
	c-0.7-0.4-0.6-1.3,0.1-1.7c2.2-1.2,5.1,0.1,5.7,2.6c-0.1,0-0.1,0.1-0.2,0.1c-0.8,0.1-1.7-0.7-2.4,0.1c-0.2,0.2-0.1,0.5,0.1,0.6
	c1,0.4,1.7-0.3,2.5-0.8c0.6,0.4,0.9,1,0.9,1.6C40.9,26.4,41.8,28.6,42,31z"/>
<path class="st19" d="M20,62.9c-0.6-1.1-0.4-2.5-1.4-3.4c-0.3-0.3,0-0.8,0.1-1.1c0.7-2.7,2.1-5.1,3.3-7.6c1.1-2.2,1.9-2.3,4.8-1.5
	c1.4,1.9,0.5,3.6-0.5,5.3c-1.6,2.7-3.8,5.1-5.7,7.6C20.3,62.4,20.1,62.7,20,62.9z"/>
<path class="st20" d="M41.6,66.9c0.7-0.1,1.3-0.3,1.9-0.4c0.4-0.1,0.9-0.1,1.1,0.2c0.4,0.5,0.6,1.1,0.9,1.6c0.5-0.5,0.5-0.3,1,0.1
	c2.3,1.9,0.9,4.4,1.4,6.6c0.2,0.9-1.3,1.2-1.6,2.1c-0.9-0.2-0.4-0.9-0.8-1.2c-0.6,1.1-2,1.7-3.6,1.3c-1.1-0.3-1.5-1.1-1.4-2.2
	c0-0.7-0.2-1.6,0.1-2.1C42,71.2,41.5,69.1,41.6,66.9z"/>
<path class="st21" d="M39.6,71.4c0.1,1.6,0.1,3.2,0.2,4.8c0,1-0.4,1.5-1.4,1.4c-2.9,0-5.9,0.1-8.8,0c-1.3,0-1.6-0.4-1.2-1.7
	c0.2-0.9,0.6-1.8,0.9-2.7c1.5-2.9,1.5-2.9,5-2.3c1,0.2,2.3,1.4,3.1-0.5c0.3-0.6,1.2,0.1,1.2,0.6C38.6,72.6,39.3,71.2,39.6,71.4z"/>
<path class="st22" d="M39.6,71.4c-0.7,0.7-0.1,1.7-0.7,2.5c-1.4-0.7,0-2.5-1.3-3.2c-0.5,0.7,0,1.6-0.7,2.4c-0.7-1.5-2.3-1.2-3.5-1.8
	c-0.5-0.3-0.4,0.3-0.5,0.5c-0.2,0.4-0.4,0.8-0.9,0.7c-0.6-0.1-0.5-0.7-0.5-1.1c0-0.2-0.1-0.4-0.2-0.8c-0.9,0.9-0.7,2.5-2.2,2.7
	c-0.3-2,0.4-3.9,0.7-5.9c0-0.3-0.1-0.8,0.5-0.9c0.3,0,0.1,1,0.6,0.3c0.2-0.3,0.4-0.7,0.6-1c0.2-0.3,0.4-0.7,0.7-0.9
	c0.6-0.4,1.3,0,1.5,0.9c0.2,0.8-0.2,1.8,0.7,2.4c0.6-0.7,0.3-1.5,0.4-2.1c0.1-0.6,0.3-0.8,1-0.6c0.7,0.3,0.5,0.6,0.2,1
	c-0.2,0.3-0.2,0.6,0.1,0.8c0.7,0.1,0.6-0.9,1.3-0.9c0.1,0.1,0.3,0.2,0.3,0.3c0.5,1.1,0.3,2.5,1.7,3.2C39.9,70,39.7,70.9,39.6,71.4z"
	/>
<path class="st23" d="M45.9,113c0.4,0.1,0.8,0.1,1,0.5c0.6,1.1,1.1,2.3,2.7,2.1c0.6,1.3,2.1,1.2,3.1,1.7c0.6,0.3,1.3,0.6,1.2,1.3
	c-0.2,0.8-1,0.6-1.6,0.5c-1.2,0-2.3-0.6-3.3-1.2c-1-0.6-1.9-1.6-3.4-1.3c-0.8,0.2-1.5-0.6-2.1-1.3c0-0.2-0.1-0.3-0.1-0.5
	c-0.1-1.5,1-1.6,2-1.8C45.7,113.2,45.8,113.1,45.9,113z"/>
<path class="st24" d="M48.3,37.2c0.3-0.2,0.7-0.4,0.9-0.7c0.5-0.5,0.9-0.9,1.5-0.1c0.6,0.9,0.3,1.3-0.5,1.6
	c-0.2,0.1-0.4,0.2-0.8,0.5c1.5,0.4,2.8,0.8,3.3,2.4c0.4,1.2-0.4,1.1-1.1,1.2c-2.2-0.3-4.3-0.6-6.5-0.6c0-0.6,0.9,0,0.9-0.7
	c-0.6-0.5-1.4-0.4-2.1-0.7c0,0-0.1-0.1-0.1-0.2c0-0.1,0.1-0.1,0.1-0.2c0.9,0,1.7,0,2.6,0c1.2,0,2.1-0.1,1.5-1.7
	C48,37.7,48.2,37.5,48.3,37.2L48.3,37.2z"/>
<path class="st25" d="M50.2,81.8c-0.7-0.9-1.4-1.8-2.7-1.4c-1.3,0.4-2.2,1.1-2.6,2.5c-0.6,2.1,0.1,4.2,0,6.3
	c-1.3-0.5-1.5-1.6-1.3-2.8c0.2-0.9,0.1-1.5-0.5-2.1c-0.7-0.7,0-1.9-0.8-2.6c0.6-0.7,1.1-1.6,1.9-2.1c1.5-1,3.2-0.8,4.8-0.3
	C50,79.5,50.3,80.7,50.2,81.8z"/>
<path class="st26" d="M38.7,79.5c-5.1,0.3-7.6,4.6-6.3,8.2c-1-0.1-1.1-0.8-1-1.5c0.1-1.4-0.3-2.6-0.8-3.8c0-0.2,0-0.3,0-0.5
	c0-0.3,0-0.6,0-1c0-0.2-0.1-0.3-0.1-0.5c0.1-0.3-0.4-0.2-0.4-0.5c2.2-1.8,4.8-1.5,7.3-1.3C37.9,78.7,38.5,78.9,38.7,79.5z"/>
<path class="st27" d="M33.4,118.7c-1.4,1-2.5,2.2-4,3.1c-0.8,0.5-1.4,0.4-2.1-0.1c0-0.7,0.5-1.2,0.9-1.8c1.8-1.9,4.2-3.2,6.1-5
	c0.1-0.3-0.4-0.7-0.1-0.8c0.8-0.2,1.7-0.4,2.5,0.3c-0.7,0-0.8,0.5-0.9,1c-0.4,1.1-1.1,2-2,2.8C33.6,118.3,33.4,118.5,33.4,118.7z"/>
<path class="st28" d="M35.9,48.3c-0.1-0.5-0.3-0.9-0.4-1.4c-0.1-0.7-1.3-0.9-0.8-1.8c0.4-0.7,1.2,0,1.7-0.5c0.4-0.3,1.1-0.5,0.4-1.2
	c-0.4-0.5-0.2-0.8,0.2-1.2c0.4-0.3,0.7-0.1,1.1,0.1c0.5,0.4,0.4,0.7,0,1.2c-0.7,0.8-0.4,1.3,0.6,1.3c0.4,0,0.9,0,1.6,0
	c-0.6,1.1-1.3,2-1.2,3.2c0,0.2-0.1,0.3-0.3,0.3C37.8,48.3,36.8,48.3,35.9,48.3L35.9,48.3z"/>
<path class="st29" d="M27.2,39.6c-0.7-0.8-1.8-0.1-2.7-0.7c0.3-1.5,1.3-2.1,2.7-2.3c2.3,1,4.3,2.5,6.7,3.2
	C31.6,40.1,29.4,39.4,27.2,39.6z"/>
<path class="st30" d="M28.5,35.8c-0.2-1.4,0-1.6,1.1-1.5c1,0.1,1.5,1.1,2.4,1.4c0.9,1,2.2,1.5,3.3,2.4c-0.3,0.9-1.1,0.6-1.6,0.5
	C31.6,38.3,29.9,37.2,28.5,35.8z"/>
<path class="st19" d="M18,66c-0.5,0.9-0.9,1.9-1.8,2.5c-0.3,0-0.7-0.6-1-0.1c-0.8-0.4-1.3,0.5-2,0.3c0.1-1.9,1.7-3.1,5.4-4.2
	C18.3,65,17.9,65.4,18,66z"/>
<path class="st31" d="M45.8,94.9c0.6,0.3,0.5,0.8,0.1,1.1c-0.8,0.5-0.9,1.2-1,2c-0.4,2-0.9,4-1.3,6c-0.9-3-0.1-5.8,0.6-8.6
	c0.1-0.6,0.5-0.2,0.9,0.1C45.5,95.7,45.7,95.2,45.8,94.9z"/>
<path class="st32" d="M32.9,35.3c-0.5-0.7-1.3-0.8-1.9-1.3c-0.3-0.3-0.9-0.5-0.5-1.1c0.3-0.5,0.8-0.5,1.3-0.4
	c0.9,0.4,1.9,0.9,2.8,1.4c0.2,1.2,1.4,1.8,1.9,3.2C34.8,36.9,33.9,35.9,32.9,35.3z"/>
<path class="st33" d="M26.7,48.6c-1.1-1.2-2.8-0.5-4.5-1.3c1.9-1.1,3.4-0.8,4.9-0.2c0.8,0.3,1.5,0.8,2.3,1.1c0.3,0.9,0.1,1.4-1,1
	C27.9,49.1,27.3,48.9,26.7,48.6z"/>
<path class="st34" d="M50.2,44c0.4,1.4,1.5,2.5,1.3,4.4c-1.9-0.9-1.7-2.8-2.7-3.9C48.9,43.2,49.5,43.2,50.2,44z"/>
<path class="st35" d="M24.8,41.2c-0.4-0.1-0.9,0.1-1.1-0.3c-0.2-0.4,0.3-0.6,0.6-0.8c0.8-0.6,1.6,0.1,2.3-0.1c1,0.3,1.9,0.5,2.9,0.8
	c0,0.1,0,0.2,0,0.3C28,41.1,26.4,41.1,24.8,41.2z"/>
<path class="st36" d="M41.6,44.4c-0.4-1.2-0.6-2.5-2.3-2.4c-0.2,0-0.4-0.2-0.6-0.3c-0.3-0.2-0.5-0.4-0.3-0.8
	c0.2-0.3,0.5-0.4,0.8-0.4c1,0,2.2,0.9,2.4,1.9c0.2,0.7,0.3,1.4,0.4,2.1C41.8,44.7,41.7,44.7,41.6,44.4z"/>
<path class="st37" d="M41.6,44.4c0.1,0,0.3,0,0.4,0c-0.2,2.1-1.2,4.1-2.4,4.7c-1.3,0.7-0.7-0.4-0.8-0.9c0.2-0.1,0.3-0.2,0.3-0.3
	C40.7,47.3,40.6,45.5,41.6,44.4z"/>
<path class="st38" d="M26.3,42.5c-0.2,0.9-0.3,1.7-0.5,2.5c-0.1,0.3,0,0.7-0.4,0.7c-0.5,0.1-0.7-0.3-0.9-0.6c-0.3-0.4-0.1-0.8,0-1.1
	c0.3-0.7,0.6-1.5,1.3-1.9C25.9,42.2,26.1,42.4,26.3,42.5z"/>
<path class="st39" d="M28.1,42.5c0.1,1.3,0.1,2.6-1.3,3.9c-0.5-1.6-0.2-2.8,0.3-3.9C27.5,42.5,27.8,42.5,28.1,42.5z"/>
<path class="st40" d="M37.1,40.7c-0.5,1.6-2,1.4-2.9,2.1c-0.1,0.1-0.5-0.1-0.6-0.2c-0.1-0.2,0-0.5,0.1-0.6
	C34.6,41,35.5,40.2,37.1,40.7z"/>
<path class="st41" d="M30,44.8c-0.1,0.1-0.2,0.2-0.3,0.4c-0.2,0.6-0.3,1.7-1.1,1.5c-1-0.3-0.1-1.2,0.1-1.8c0.2-0.6,0.3-1.2,0.3-1.9
	C30.5,43,29.9,44.1,30,44.8z"/>
<path class="st42" d="M47.8,44.5c0.1,1.5,1.1,2.6,1.6,3.9c0.3,0.7,0.1,0.9-0.6,0.8c-0.4-1-0.9-1.9-1.3-2.9
	C47.4,45.7,46.9,45,47.8,44.5z"/>
<path class="st43" d="M30.5,47.7c-1.1-0.7-0.2-1.6-0.1-2.3c0.2-0.6,0.3-1.2,0.9-1.8C31.9,45.3,31.1,46.5,30.5,47.7z"/>
<path class="st44" d="M53.7,43.9c0.2,1.1,1,2,0.7,3.4c-1.1-1.2-1.1-2.6-1.7-3.7C53.1,43.4,53.5,43.4,53.7,43.9z"/>
<path class="st3" d="M33.8,118.3c-0.1-0.5-0.1-1,0.4-1.2c0.8-0.3,1-1.1,1.6-1.6C35.7,116.8,35.6,118.1,33.8,118.3z"/>
<path class="st28" d="M35.8,48.3c0,0.5,0.2,1.3-0.7,0.9c-0.5-0.3-1.1-0.8-1.3-1.7C34.7,47.3,35.1,48.3,35.8,48.3
	C35.9,48.3,35.8,48.3,35.8,48.3z"/>
<path class="st3" d="M45.5,113.1c-0.7,0.5-1.8,0.7-2,1.8C43.3,113.2,43.4,113.1,45.5,113.1z"/>
<path class="st2" d="M30.6,80.9c0.5,0.3,0.5,0.6,0,1C30.1,81.6,30.1,81.2,30.6,80.9z"/>
<path class="st25" d="M44.6,92.4c0.5,0.4,0.9,0.8,0.8,1.5C44.7,93.6,44.5,93.1,44.6,92.4z"/>
<path class="st25" d="M44.9,90.5c0.1,0.6,0.2,1.1-0.3,1.5C44.4,91.4,44.4,90.9,44.9,90.5z"/>
<path class="st2" d="M30.1,80c0.2,0,0.5,0,0.6,0.2c0.1,0.1,0,0.3-0.2,0.3C30.3,80.3,29.7,80.6,30.1,80z"/>
<path class="st45" d="M34.3,114.9c-1.3,2.6-3.8,3.7-6.1,5c0.7-1.2,1.4-2.4,2.8-3c0.3-0.1,0.7-0.3,0.7-0.6
	C31.9,114.6,33.2,114.9,34.3,114.9z"/>
<path class="st46" d="M9,60.7c2.4,2.3,5.1,2.6,8,1c0.2-0.1,0.4-0.2,0.6-0.3c0.1,0,0.3,0.1,0.4,0.2c0.1,0.2,0.1,0.5-0.1,0.6
	c-0.5,0.2-1.1,0.4-1.3,0.9c-0.4,0.5-1.1,0.1-1.5,0.7C13.5,64,12,64,10.6,63.1c1.4,0.9,2.9,0.9,4.5,0.5c0.4-0.4,1.1-0.1,1.5-0.5
	c0.4,0.1,1.3,0,0.6,0.7c-0.9,0.9-2.2,0.9-3.3,1.1c-2.4,0.3-4.5-0.8-5.5-2.8C8.4,61.6,8.5,61.1,9,60.7z"/>
<path class="st47" d="M9.9,67.6c0.8-0.5-0.2-1,0-1.6c1.1-0.9,2,0.2,3,0.4c0.3,0.1,0.2,0.5-0.1,0.7c-0.5,0.6-1.4,0.1-1.9,0.8
	c0,0.3,0,0.7-0.5,0.5C10.1,68.3,9.9,68,9.9,67.6z"/>
<path class="st48" d="M13.3,70.3c-2,0.7-2,0.7-3.5-0.6c0.7-0.7,1.4,0.2,2.1,0C12.3,70,13.3,68.8,13.3,70.3z"/>
<path class="st49" d="M22.7,45.7c-0.4-1.2-0.3-2.3,1-3.3C23.9,43.9,23.5,44.9,22.7,45.7z"/>
<path class="st50" d="M9.9,67.6c0.3,0.3,0.4,1,1,0.3c0.7,0,0.9,0.3,0.8,0.9c-0.5,0.2-1.1,0.2-1.6-0.1C9.8,68.5,9.1,68.2,9.9,67.6z"
	/>
<path class="st18" d="M36.1,30.2c-0.1,0.1-0.1,0.3-0.2,0.4c-0.2,0.1-0.3,0.1-0.3-0.2c0-0.1,0.1-0.3,0.1-0.4
	C35.8,30.1,35.9,30.2,36.1,30.2z"/>
<path class="st51" d="M44.5,38.7c-0.3,0-0.6-0.1-1.2-0.2c0.6-0.9,1.8-1.4,1.8-2.6c-1.3,0-1.5,1.4-2.8,1.6c0.7-1.7,2.2-2.9,2.4-5.1
	c-1.3,0.8-1.2,2.2-2.5,2.5c-0.4-1.3,0.4-2.3,0.8-3.3c0.2-0.6,0.7-0.5,1.2-0.3c2.2,0.8,2.7,1.5,2.8,3.9c0.5,0.2,0.6-0.3,0.8-0.5
	c0.6-0.4,0.9-0.3,0.9,0.4c0,0.7-0.5,1.4-0.3,2.1c0,0,0,0.1-0.1,0.1c-1,0.4-1.9,0.9-2.9,1.3C45.2,39,44.9,38.9,44.5,38.7z"/>
<path class="st1" d="M44.5,38.7c0.3-0.1,0.6-0.1,0.8-0.2c0.1,0.1,0.4,0.3,0.1,0.5C45.1,39.2,44.8,39.1,44.5,38.7z"/>
<path class="st17" d="M73.3,65.5c0.7,0,1.1,0.4,1.5,1.4C73.9,66.5,73.5,66.2,73.3,65.5C73.3,65.6,73.3,65.5,73.3,65.5z"/>
<path class="st17" d="M73.2,64.1c0.2,0,0.3,0,0.5-0.1c0.1,0.1,0.2,0.2,0.3,0.3c0.1,0.2,0.4,0.2,0.2,0.5c0,0.1-0.3,0-0.4-0.1
	C73.6,64.6,73.5,64.3,73.2,64.1z"/>
<path class="st52" d="M51.7,43.5c0.5,1.2,1.3,2.3,1.2,3.8C51.4,45.7,51.1,44.7,51.7,43.5L51.7,43.5z"/>
<path class="st1" d="M55.1,49.1c-0.3,0.1-0.7,0.1-1,0.2C54,48.8,54.2,48.8,55.1,49.1z"/>
<path class="st53" d="M40.1,22.3c0.2,0.8-0.2,1.4-0.8,1.5c-0.7,0.1-1.6,0.5-2.3,0c-0.4-0.3-0.7-0.7-0.7-1.2c0-0.6,0.5-0.7,1-0.8
	C38.5,21.4,39.4,21.5,40.1,22.3C40.2,22.4,40.1,22.3,40.1,22.3z"/>
<path class="st21" d="M32.3,68.1c0,0.6,0.9,1.1-0.2,1.3c-0.4,0-1-0.1-0.8-0.5c0.2-0.6,0-1.7,0.9-1.7C33.1,67.2,32.4,67.9,32.3,68.1z
	"/>
<path class="st54" d="M37.7,45.9c0.5,0.1,0.6,0.6,0.5,1.1c-0.1,0.5-0.4,0.9-1,0.7c-0.4-0.1-0.6-0.4-0.5-0.9
	C36.8,46.3,36.9,45.8,37.7,45.9z"/>
<path class="st5" d="M15.2,63.6c-2.4,0.9-4.2,0.5-5.8-1.3C11.2,63.4,13.1,63.8,15.2,63.6L15.2,63.6z"/>
<path class="st5" d="M16.7,63.2c-0.3,0.6-0.9,0.4-1.5,0.4c0,0,0,0,0,0c0.3-0.5,0.9-0.5,1.4-0.6C16.6,63.1,16.7,63.2,16.7,63.2z"/>
</svg>
