<?xml version="1.0" encoding="utf-8"?>
<!-- Generator: Adobe Illustrator 23.1.1, SVG Export Plug-In . SVG Version: 6.00 Build 0)  -->
<svg version="1.1" id="Livello_1" xmlns="http://www.w3.org/2000/svg" xmlns:xlink="http://www.w3.org/1999/xlink" x="0px" y="0px"
	 viewBox="0 0 80 135" style="enable-background:new 0 0 80 135;" xml:space="preserve">
<style type="text/css">
	.st0{fill:#FFFFFF;stroke:#000000;stroke-width:0.2509;stroke-miterlimit:10;}
	.st1{fill:#4E4548;}
	.st2{fill:#4D5362;}
	.st3{fill:#4A5564;}
	.st4{fill:#556B91;}
	.st5{fill:#6F6F51;}
	.st6{fill:#5F6C96;}
	.st7{fill:#A54043;}
	.st8{fill:#ED4D46;}
	.st9{fill:#ED4B47;}
	.st10{fill:#ED4E47;}
	.st11{fill:#54678B;}
	.st12{fill:#ED4843;}
	.st13{fill:#9B8B49;}
	.st14{fill:#58678D;}
	.st15{fill:#5A688D;}
	.st16{fill:#C0AA44;}
	.st17{fill:#AC9B46;}
	.st18{fill:#5E6D91;}
	.st19{fill:#988A41;}
	.st20{fill:#B8A448;}
	.st21{fill:#963739;}
	.st22{fill:#9D9256;}
	.st23{fill:#9D3F43;}
	.st24{fill:#B6AB3E;}
	.st25{fill:#E0D143;}
	.st26{fill:#C5B957;}
	.st27{fill:#C5B768;}
	.st28{fill:#E2D738;}
	.st29{fill:#C9B954;}
	.st30{fill:#C8C070;}
	.st31{fill:#E7DD3A;}
	.st32{fill:#E6E243;}
	.st33{fill:#E2DB4A;}
	.st34{fill:#E6DA43;}
	.st35{fill:#E8E268;}
	.st36{fill:#C9B64B;}
	.st37{fill:#CCB049;}
	.st38{fill:#D6C659;}
	.st39{fill:#D3CB53;}
	.st40{fill:#CDB968;}
	.st41{fill:#DBD16E;}
	.st42{fill:#C8C274;}
	.st43{fill:#C9BC6F;}
	.st44{fill:#4D4635;}
</style>
<path class="st0" d="M71.5,135h-63c-4.7,0-8.5-3.8-8.5-8.5V8.5C0,3.8,3.8,0,8.5,0h63C76.2,0,80,3.8,80,8.5v118
	C80,131.2,76.2,135,71.5,135z"/>
<path class="st1" d="M28.9,55.9c2.1,1.4,3.7,3,3.2,5.9c-0.3,1.5-1.1,2.7-2.2,3.6c-1,0.8-1.3,1.7-1.3,2.9c0.1,2.6,0,5.1-0.1,7.7
	c0,1.1,0.4,1.6,1.3,1.9c7.3,2.6,14.6,3,22.1,0.6c1.1-0.4,1.7-0.9,1.7-2.2c-0.1-2.2,0-4.3,0.1-6.5c0-0.9-0.3-1.4-0.9-2.1
	c-2.8-2.9-2.9-5.9-0.3-8.9c1.1-1.3,1.4-2.5,1.4-4.1c0-4.5,0.1-8.9,0.2-13.4c0-0.9,0-1.9,0-3.1c-2.8,1-5.3,1.5-7.1-1.2
	c-0.9-1.4-0.9-3.1,0.1-4.5c1.8-2.4,4.2-2.3,6.8-1.3c0.1-4.3,0.2-8.4,2.2-12.2c-0.7-1.1,1.1-2.1,0.1-3.1c-0.3-0.3-0.7-0.4-1-0.7
	c-0.2-1.3,1.2-0.4,1.4-1c0-0.1-0.1-0.2,0-0.4c0-1,0.5-0.6,1-0.4c0.5,0.3,0.7,1.1,1.5,0.9c0.2-0.1,0.4-0.2,0.6-0.2
	c0.6,0.1,0.9,0.4,1,1c-0.2,0.5-0.5,1,0.3,1.3c0.4,0.5,2,0,1.2,1.5c0,0,1-0.1,0.7,0.7c-0.5,0.4-1.1,0.1-1.7,0.4c1.6,3.8,2.3,7.7,2,12
	c2.4-0.5,4.7-0.5,6,1.8c0.9,1.7,1,3.6-0.3,5.2c-1.8,2.1-4,1.8-6.5,0.7c-0.1,5.2-0.2,10.2-0.2,15.2c1.2,0.2,1.9-0.9,3-1.4
	c0.4,1.7,0.1,3.3-0.4,4.8c-0.2,0.7-0.3,1.2,0.1,2c1.2,2.3,0.6,4.4-0.8,6.7c-0.8-0.8-0.8-2-1.9-2.6c-0.5,1.5-0.6,2.8,0.5,4.1
	c1.1,1.3,2.1,2.8,2.5,4.5c0.6,2.5,0.1,4.7-1.2,6.8c-0.4,0.7-0.9,1.4-1.5,1.9c-1.5,1.3-1.4,2.9-1.1,4.6c-1.6,1.4-0.1,3.8-1.6,5.4
	c-1.4-1.6-0.8-3.2-0.8-4.8c0-0.2,0.8-0.7-0.3-0.7c-0.7,0-0.6,0-0.7,0.6c-0.1,0.7-0.4,1.3-1.3,0.7c-1-0.7-1.4-0.3-1.7,0.7
	C55,88,55,88.9,55,89.8c-0.1,8.6-0.2,17.3-0.4,25.9c0,1.1,0.6,2.9-1.5,3c-0.3-4.8,0.1-9.6,0.1-14.4c0-5.6,0.2-11.2,0.2-16.8
	c0-0.5,0.1-1-0.3-1.7c-8.1,2-16.3,2.2-24.6-0.6c-0.4,3.5-0.1,6.8-0.4,10.1c0.7,0.4,1.1-0.1,1.6-0.2c1.9-0.6,3.7,0,4.9,1.5
	c1.1,1.3,1.3,3.5,0.4,5c-0.9,1.6-2.7,2.4-4.7,2.1c-0.5-0.1-1-0.4-1.7-0.2c-0.3,2,0,4.1-0.4,6.1c-0.4,2-1,4-1.7,6.1
	c1.6,0.4,3.2,0.9,2.9,3.1c-0.2,1.3-0.9,1.7-3.4,2c-0.3,1.2,0.3,2.7-0.9,3.8c-0.5,0.4-1.1,0.6-1.8,0.5c-1.6-0.2-2.2-1.6-1.9-4.3
	c-1.1-0.3-2.4,0.1-3.3-1c-0.3-0.4-0.4-0.8-0.4-1.3c0-1.5,0.7-2,3.4-2.4c-0.4-2.1-1.5-4-1.7-6.1c-0.2-2.1,0-4.2-0.2-6.4
	c-2.9,0.7-5.6,0.7-7.1-2.5c-0.7-1.6-0.4-3.4,1-4.8c2-1.9,4.2-1.4,6.7-0.3c0.1-4.9,0.1-9.6,0.2-14.2c0-0.8-0.5-1.3-1-1.8
	c-1.5-1.5-2.4-3.4-3-5.4c-1.2-3.6,0.2-6.5,2.9-8.7c1.8-1.5,1.5-3.1,1.5-4.9c0-0.8-0.5-0.8-1.2-0.7c-1.4,0.3-2.2,1.5-3.5,2.1
	c-0.1-2,0.8-3.5,1.9-4.9c0.7-0.8,0.7-1.4,0.2-2.3c-0.9-1.6-1.4-3.3-1.4-5.3c1.5,0.3,2.3,1.4,3.3,2.2c0.6,0.6,1.4,0.2,2.1,0.6
	c0.4,0.2,0.8,0.4,1.2,0.5c1.4,0,2.7,0,4,0.1c0.8-6.5-0.9-13.3,1.5-19.8c0.3,3.4,0.5,6.9,0.1,10.3c0.2,3.6,0,7.1-0.2,10.7
	C28.8,54.8,28.5,55.4,28.9,55.9z"/>
<path class="st2" d="M28.7,43.6c0-3.3,0.1-6.5,0.1-9.8c-0.7,2.2-1.4,4.5-0.9,6.8c0.4,1.9-0.2,3.7,0,5.6c0.3,2.4,0,5-0.1,7.5
	c0,0.4-0.1,0.7-0.4,0.8c-0.5,0.1-0.4-0.3-0.4-0.6c-0.1-0.8-0.3-0.6-0.5,0c-1.2-0.6-2.5,0.2-3.7-0.3c-0.1,0-0.1-0.1-0.1-0.2
	c0.4-0.9,0.8-1.9,0.8-3c0-11.2,0.6-22.4,0.5-33.6c0-0.2,0-0.5-0.3-0.7C23,17,23,18,22.9,19c-0.3,7.3-0.2,14.7-0.3,22.1
	c-0.1,3.4-0.4,6.7-0.2,10.1c0,0.6-0.1,1.3-0.6,1.8c-0.8-0.1-1.5-0.3-1.9-1c1.3-0.1,0.9-1.1,0.9-1.8c0.1-3.8,0.2-7.7,0.2-11.5
	c0.1-6.3,0.3-12.6,0.2-18.9c0-2.6,0.8-4.6,2.6-6.4c0.6-0.6,1.1-1.1,1.8-1.6c1.4,1.4,2.4,3,3.5,4.4c0.4,0.6,0.5,1.3,0.5,2.1
	c-0.2,8.3-0.3,16.6-0.5,24.9C28.9,43.2,28.8,43.4,28.7,43.6z"/>
<path class="st3" d="M57.2,86.6c0.9-0.6,0.2-1.7,0.7-2.4c0.5,0.1,1,1.5,1.8,0c0,1.9-0.1,3.9-0.1,6c0.5-0.4,0.5-0.7,0.5-1
	c0.1-2.1,0.1-2.1,1.4-3.9c-0.1,8.1-0.2,16.2-0.3,24.3c0,1.9-0.2,3.8-0.1,5.7c0.1,2.5-0.7,4.4-2.3,6.3c-2.2,2.5-2.1,2.6-4-0.2
	c-0.3-0.4-0.5-0.8-0.7-1.2c1.5-0.1,1.9-0.9,1.9-2.3c-0.2-9.3,0.6-18.6,0.5-27.9C56.5,88.8,56.3,87.6,57.2,86.6z"/>
<path class="st4" d="M57.2,86.6c-0.2,11.6-0.4,23.1-0.8,34.6c-1,0.1-1.2-1.3-2.3-1.1c-0.5-0.4-1-0.8-1.1-1.5c1.2-0.3,0.8-1.2,0.8-2
	c0.1-6.3,0.2-12.6,0.3-18.9c0.1-3.3,0.1-6.7,0.2-10c0-0.5,0-1,0.1-1.4c0.2-1,1.1-1.8,2-1.7C57.6,84.8,57,85.9,57.2,86.6z"/>
<path class="st5" d="M60.7,15.1c-0.2-0.4-0.5-0.7-0.9-0.9c-0.7-0.5-0.4-1.2-0.6-1.9c0.2,0.7-0.1,1.6,0.5,2.3
	c-0.6,0.9-1.1,0.9-1.6-0.1c-0.2-0.5-0.4-1.3-1.3-0.7c-0.5-0.4-0.4-1-0.4-1.5c0-1.3,0.9-2.3,2-2.3c1.3-0.1,2.4,1,2.5,2.3
	c0,0.6,0,1.1,0,1.8c1.6-0.1,3.5-0.3,4,1.8c0.3,1.3-0.4,2.3-1.8,2.6c-0.7-0.8-1.4-1.4-2.4-1.9c0.4-0.7,1.3-0.4,1.8-0.9
	C62.1,15.1,61.1,15.7,60.7,15.1z"/>
<path class="st5" d="M56.8,15.1c1.1,0.8,0.7,1.8,0.2,2.6c-0.2,0.4-0.6,0.7-0.6,1.2c-0.6-0.1-1.2-0.3-1.8-0.4
	c-1.2-0.3-1.6-1.2-1.5-2.3c0.1-1.2,0.8-1.8,2-2c0.6-0.1,1.3-0.1,1.9-0.1c0.4,0.5,0,0.5-0.3,0.5c-0.4,0-0.8,0-1.1,0.4
	c0,0.4-0.7,0.9-0.1,1.1C56,16.3,56.3,15.5,56.8,15.1z"/>
<path class="st2" d="M28.9,55.9c-0.6-0.4-0.4-1-0.4-1.6C28.6,54.8,28.7,55.4,28.9,55.9z"/>
<path class="st6" d="M21.8,52.9c0.1-8.6,0.3-17.2,0.3-25.8c0-3,0.1-6,0.2-9c0.1-1.9,0.3-2.3,2.2-3.7c0.5,0.4,0.3,1,0.3,1.5
	c0,3.5,0,6.9-0.1,10.4c-0.1,8.3-0.3,16.7-0.5,25c0,1,0.2,2.2-1.5,2.1C22.4,53.2,22.1,53.1,21.8,52.9z"/>
<path class="st7" d="M30.9,79.5c2.1,0.2,4.1,0.8,6.2,1.2c2.9,0.5,5.8,0.6,8.7,0.1c0.5-0.1,0.9,0,1.4,0c0.4,0.5,0.8,0.9,0.4,1.6
	c-0.6,1.1-0.3,2.1,0,3.2c-1.7,0.9-3.6,0.6-5.3,0.7c-3.8,0.1-7.7-0.4-11.4-1.5c-0.2-0.1-0.4-0.3-0.5-0.4c-0.8-0.8-1.1-1.8-0.2-2.7
	C31,81,30.2,80,30.9,79.5z"/>
<path class="st8" d="M30.9,79.5c0,0.5,0,0.9,0.3,1.3c0.3,0.2,0.4,0.6,0.1,0.7c-1.8,0.5-1.1,1.7-1,2.7c-4.3-1.3-8.5-2.7-11.3-6.5
	c-0.4-0.6-0.7-1.3-1.1-1.9c-0.7-1.1-0.3-1.9,0.6-2.7c1.3-1.1,1.8-1.1,2.8,0.4c1.4,2.1,3.4,3.3,5.6,4.3
	C28.2,78.5,29.6,78.9,30.9,79.5z"/>
<path class="st9" d="M47.7,85.5c-0.6-0.2-2-0.1-0.9-1.2c0.7-0.8-0.6-1.4,0.1-1.8c0.9-0.5,0.3-1.2,0.4-1.9c4-0.7,7.7-1.9,11.1-4.2
	c2,1.3,1,3.1,0.9,4.8c-0.6,1.2-1.8,1.5-2.9,1.9C53.5,84.2,50.7,85.3,47.7,85.5z"/>
<path class="st10" d="M26.4,60.7c-2.4-1.5-4.9-2.6-7.8-1.6c0-0.5-0.1-0.7,0-0.8c2-1.3,1.6-2.7,0.4-4.3c-0.3-0.3-0.6-0.8-0.2-1.6
	c3,2,6.6,2.6,9.6,4.4c0.9,0.5,1.2,1.3,0.7,2.2C28.5,60,27.9,61.2,26.4,60.7z"/>
<path class="st11" d="M55.6,40.2c1.6,1,2.5,2.2,2.3,4.4c-0.3,3.2-0.2,6.4-0.2,9.6c0,1.3-0.5,1.6-1.7,1.8c-0.9,0.1-1.2-0.3-1.2-1
	c0.1-4.8,0.2-9.6,0.3-14.4C55.2,40.5,55.4,40.4,55.6,40.2z"/>
<path class="st12" d="M63.9,55c0.5,0.8,0.2,1.3,0,1.6c-0.9,1.3-0.9,2.4,0.1,3.6c0.5,0.6,0.4,1.5,0.1,2.2c-0.6,0-1-0.3-1.4-0.6
	c-1.6-1.3-3.3-1.4-5.2-0.9c-1.9,0.5-1.9,0.5-2.5-1.3c-0.5-1.6-0.5-1.7,1-2.2C58.7,56.4,61.4,56.2,63.9,55z"/>
<path class="st13" d="M16.6,102.8c-1.8,0-3.8-1.9-3.8-3.4c0-1.9,2-3.8,4-3.7c1.6,0.1,3.4,1.7,3.2,3.7c-0.1,0.7,0,1.3-0.6,1.7
	C18.5,101.7,18.2,103.6,16.6,102.8z"/>
<path class="st14" d="M57.6,62.4c-0.1,4.4-0.1,8.2-0.2,12.1c0,1.2-0.5,1.4-2.5,2.2c-0.6-0.5-0.3-1.2-0.3-1.8c0-2.8,0.2-5.6,0.1-8.4
	C54.5,64.6,55.5,63.5,57.6,62.4z"/>
<path class="st15" d="M24.4,65.4c0,1.9,0,3.8-0.1,5.6c0,0.6,0,1.1-0.2,1.6c-0.2,0.6-0.6,1-1.2,0.4c-1-1.1-2.1-2.2-1.5-4
	c0.2-0.6,0.2-1.3,0-1.9c-0.6-2,0-3.9,0.2-5.8c0.1-0.6,0-1.5,0.9-1.4c0.8,0.1,1.5,0.5,1.6,1.5C24.2,62.8,24.4,64.1,24.4,65.4z"/>
<path class="st16" d="M34.6,99.9c-0.1,1.8-1.6,3.1-3.5,3.1c-1.7,0-3.1-1.5-3.1-3.3c0-2.3,1.6-4,3.5-3.9
	C33.2,95.9,34.7,97.9,34.6,99.9z"/>
<path class="st17" d="M68.8,35.2c-0.1,2.2-1,3.1-3.2,3c-1.9,0-3.7-1.7-3.7-3.2c0.1-1.8,2-3.6,3.8-3.5C67.1,31.6,68.9,33.8,68.8,35.2
	z"/>
<path class="st18" d="M21.2,94.3c-0.7-3.9-0.2-7.8,0.1-11.7c2.1,0.5,2.3,0.8,2.3,2.6c0,2.4,0,4.8,0,7.2c0,0.5,0,0.8-0.5,0.9
	C22.4,93.4,22.1,94.2,21.2,94.3z"/>
<path class="st19" d="M55.7,26.5c-0.2-0.2-0.4-0.5-0.6-0.7c1-0.9,0.3-2.3,0.8-3.2c0.9-1.6,1-4,3.6-4.3c0.4,0.3,0.6,1,0.9,1.5
	c0.4,0.5,0.5,0.9-0.2,1.3c-0.5,0.3-0.4,0.7,0.2,0.5c0.9-0.3,1-0.2,0.6,0.7c-0.3,0.6,1,1.3,0,2c-1.1-0.1-1.9,0.6-2.7,1.2
	C57.6,26.1,56.9,27,55.7,26.5z"/>
<path class="st20" d="M53.7,35.6c0.4,1.1-0.2,1.3-1.1,1.8c-1.4,0.7-2.6,0.6-3.7,0c-1-0.6-1.6-1.8-1.3-3.1c0.3-1.5,1.3-2.4,2.9-2.7
	c1.6-0.3,2-0.2,3.2,1.6c-0.4,0.4-0.9,0.6-1.5,0.8c-0.6,0.2-1.5-0.7-1.7,0.5c-0.2,1.2,0.9,0.7,1.4,0.9c0.5,0.2,0.9,0.3,1-0.4
	C53.4,34.9,53.9,34.9,53.7,35.6z"/>
<path class="st21" d="M59.2,81.3c-0.5,0-0.6-0.1-0.5-0.7c0.4-1.4,0.4-2.8-0.4-4.1c0.3-0.6,0.7-0.8,1.3-0.9c1.9-0.5,1.9-0.5,1.9-2.5
	c2,0.5,2.1,0.6,1.8,2.4c-0.2,1.3-0.3,2.7-1.9,3.3c-0.4,0.2-0.6,0.9-0.9,1.4C60.2,80.7,60,81.4,59.2,81.3z"/>
<path class="st22" d="M26.2,108.2c1.2,1.7,1.1,2.9-0.4,4.4c-0.5,0.5-1.1,0.8-1.4,1.5c0.7,0.3,0.9-0.6,1.5-0.4
	c0.3,0.7-0.4,0.9-0.8,1.3c-0.4,0.4-0.8,1.1-1.3,0.5c-0.3-0.3-1.2-0.6-0.6-1.5c0.5-0.7-0.2-0.4-0.5-0.3c-0.3,0.1-0.5,0.4-0.9,0.2
	c0-1.2,2.1-1.6,1.3-3.1c1.1-0.8,1.8-2,3-2.7L26.2,108.2z"/>
<path class="st23" d="M26.4,60.7c2.3-1.8,3.1-2,2-3.8c2.3,1,3,3.9,1.5,5.4c-0.5,0.5-1,0.8-1.5,0.1C27.8,61.7,26.8,61.5,26.4,60.7z"
	/>
<path class="st24" d="M25.8,99.4c0,0.6-0.2,1.2-0.5,1.7c-0.3,0.5-0.6,0.9-1.3,0.8c-0.8-0.2-0.6-0.8-0.5-1.3c0.1-0.6,0.3-1.2-0.7-0.6
	c-0.2,0.1-0.3,0-0.3-0.2c0-0.2,0-0.5,0-0.7c0.2-1.3,0.9-2.2,1.7-2.2C25.2,96.8,25.9,97.8,25.8,99.4z"/>
<path class="st25" d="M55.7,26.5c1.4-0.3,2.2-1.6,3.3-2.3c0.7-0.5,1.4-0.8,2,0c-1.4,1.6-3.2,2.6-4.8,3.9c-0.6,0.1-0.7-0.3-0.9-0.6
	C55.3,27.1,55.3,26.7,55.7,26.5z"/>
<path class="st26" d="M20.4,119.8c-0.9,0-1.7-0.3-1.6-1.3c0-0.9,0.7-1.4,1.5-1.5c0.8-0.2,2.2,1.2,2,1.9
	C22.1,119.8,21.1,119.6,20.4,119.8z"/>
<path class="st27" d="M55.7,36.4c0.8,0.8,0.9,1.6,1.3,2.3c1,1.6,1.5,1.6,2.5,0.1c0.4-0.6,0.8-1.3,1.2-2c0.1,0.2,0.2,0.2,0.2,0.3
	c-0.3,1.9-1.8,3.7-2.9,3.6C57.1,40.7,55.8,38.4,55.7,36.4z"/>
<path class="st28" d="M58.4,31.9c0.8,0.1,1,0.7,1.3,1.3c0.3,0.7,0.4,1.4-0.1,2c-0.3,0.3-0.9,0.6-1.2,0.1c-0.5-0.7-1-1.5-1.2-2.3
	C57,32.3,57.7,31.9,58.4,31.9z"/>
<path class="st29" d="M26.2,107.2c-1,0.6-1.7,1.6-2.6,2.4c-0.7,0.6-1.2,1.4-2.8,1.4c1.7-2.1,3.6-3.3,5.1-5
	C26.4,106.4,26.2,106.9,26.2,107.2L26.2,107.2z"/>
<path class="st30" d="M21.5,96.6c0.7-1.4,1.5-2.6,2.8-2.5c1.6,0.1,2,1.7,2.7,2.8c-0.2,0.4-0.4,0.4-0.5,0.3
	C24.4,94.9,24.4,94.9,21.5,96.6z"/>
<path class="st31" d="M60.7,15.1c0.8,0,1.5-0.6,2.3-0.2c0.4,0.2,0.9,0.5,0.8,1c0,0.6-0.5,0.7-1,0.7c-0.7,0-1.4,0-2.1,0
	C59.9,16.1,59.7,15.6,60.7,15.1z"/>
<path class="st32" d="M27,119.8c-0.9-0.1-1.8-0.2-1.8-1c0-1.1,1.1-0.9,1.8-1c0.7,0,1.6-0.1,1.5,1C28.4,119.7,27.5,119.7,27,119.8z"
	/>
<path class="st33" d="M24.2,119.6c1,1.2,1.1,2.4,0.9,3.6c-0.1,0.5-0.3,0.9-0.9,0.9c-0.7,0-0.7-0.5-0.7-1
	C23.6,122,23.4,120.9,24.2,119.6z"/>
<path class="st34" d="M56.8,15.1c-0.1,1.5-1.2,2.3-2.4,1.7c-0.5-0.2-0.4-0.6-0.2-1c0.3-0.6,0.8-0.7,1.3-0.9
	C55.9,15,56.3,15.1,56.8,15.1z"/>
<path class="st35" d="M59.7,14.5c-0.3,0-0.7,0.1-0.8-0.2c-0.2-0.8-0.4-1.7-0.5-2.5c0-0.4-0.1-0.8,0.5-0.9c0.6-0.1,0.9,0.3,1,0.7
	c0.3,0.9-0.2,1.7,0,2.6C59.7,14.3,59.7,14.4,59.7,14.5z"/>
<path class="st36" d="M62.1,26.2c0,1.3-0.8,1.8-1.4,2.4c-0.4,0.4-0.8,0.5-1.2,0c-0.5-0.5-0.1-0.9,0.3-1.1
	C60.5,27.1,61.2,26.7,62.1,26.2z"/>
<path class="st37" d="M52.3,33.5c0.4-0.3,0.9-0.3,1.4-0.3c0.3,0.8,0.9,1.6,0,2.4c-0.2-0.4-0.6-0.5-1.1-0.4
	C51.6,34.8,51.9,34.2,52.3,33.5z"/>
<path class="st38" d="M59.9,30.3c1.5-0.3,2.1,0.3,2.4,1.2c0.1,0.3-0.2,0.8-0.5,0.7C60.8,32,60.5,31.1,59.9,30.3z"/>
<path class="st39" d="M24.9,104.2c0,0.5-0.3,0.9-0.7,0.8c-0.6-0.1-0.9-0.6-0.9-1.2c0-0.5,0.4-0.6,0.8-0.7
	C24.7,103.1,24.9,103.6,24.9,104.2z"/>
<path class="st40" d="M23.1,105.9c-0.2,0.8-0.7,1.2-1.4,1.5c-0.1,0-0.4-0.3-0.4-0.5c-0.1-0.9,0.7-1.1,1.3-1.4
	C22.6,105.4,22.9,105.7,23.1,105.9z"/>
<path class="st41" d="M56.9,30.4c-0.1,1.1-1.2,1.4-1.5,2.2C55.2,30.8,55.2,30.8,56.9,30.4z"/>
<path class="st42" d="M59.2,16.3c-0.1,0.3-0.2,0.6-0.6,0.6c-0.5,0-0.8-0.2-0.8-0.7c0-0.4,0.3-0.7,0.8-0.6
	C59.1,15.7,59.2,16,59.2,16.3z"/>
<path class="st43" d="M58.6,30.9c-0.5,0-0.7-0.3-0.7-0.7c0-0.4,0.2-0.8,0.7-0.7c0.5,0,0.7,0.4,0.7,0.8
	C59.4,30.6,59.1,30.9,58.6,30.9z"/>
<path class="st22" d="M26.2,107.2c0.4-0.1,0.9-0.6,1-0.3c0.3,0.7-0.5,1-0.9,1.3c0,0-0.1-0.1-0.1-0.1
	C26.1,107.8,26.2,107.5,26.2,107.2C26.2,107.2,26.2,107.2,26.2,107.2z"/>
<path class="st19" d="M55.3,27.5c0.3,0.2,0.6,0.4,0.9,0.6c-0.2,0.3-0.5,0.7-0.9,0.4C55.1,28.3,55.2,27.8,55.3,27.5z"/>
<path class="st3" d="M60.4,84.1c0.1,0.1,0.2,0.3,0.2,0.4c0,0.1-0.1,0.2-0.2,0.4c-0.1-0.1-0.2-0.3-0.2-0.4
	C60.2,84.3,60.3,84.2,60.4,84.1z"/>
<path class="st1" d="M30.4,100.8c-0.1-0.3-0.3-0.6-0.4-0.9c-0.2-0.6-1-1.2-0.2-1.9c0.4-0.4,2,0.1,2.3,0.6c0.4,0.8,0.1,1.4-1,2
	C30.9,100.7,30.7,100.7,30.4,100.8z"/>
<path class="st44" d="M67.7,36c-1.2,0.8-2.4,0.2-3.5,0.6c0-0.7,0-1.3,0-1.9c0-0.7,0.5-1,1.1-1.1c0.7-0.1,1.3,0.1,1.3,1
	C66.6,35.4,66.9,35.9,67.7,36z"/>
<path class="st1" d="M52.3,33.5c0.1,0.6-0.3,1.2,0.3,1.7c0.1,0.1,0.3,0.3,0.3,0.4c-0.3,0.5-2.5,0.5-2.8,0c-0.4-0.7-0.5-1.2,0-1.9
	c0.6-0.7,1.1-0.6,1.7-0.1C51.9,33.6,52.2,33.5,52.3,33.5z"/>
</svg>
