<?xml version="1.0" encoding="utf-8"?>
<!-- Generator: Adobe Illustrator 23.1.1, SVG Export Plug-In . SVG Version: 6.00 Build 0)  -->
<svg version="1.1" id="Livello_1" xmlns="http://www.w3.org/2000/svg" xmlns:xlink="http://www.w3.org/1999/xlink" x="0px" y="0px"
	 viewBox="0 0 80 135" style="enable-background:new 0 0 80 135;" xml:space="preserve">
<style type="text/css">
	.st0{fill:#FFFFFF;stroke:#000000;stroke-width:0.2509;stroke-miterlimit:10;}
	.st1{fill:#443939;}
	.st2{fill:#4C4A45;}
	.st3{fill:#545A78;}
	.st4{fill:#505B74;}
	.st5{fill:#4F5366;}
	.st6{fill:#504D43;}
	.st7{fill:#545141;}
	.st8{fill:#4E5674;}
	.st9{fill:#785253;}
	.st10{fill:#958C5D;}
	.st11{fill:#536487;}
	.st12{fill:#ED4345;}
	.st13{fill:#ED4849;}
	.st14{fill:#ED4444;}
	.st15{fill:#E94542;}
	.st16{fill:#A83C3F;}
	.st17{fill:#B49D42;}
	.st18{fill:#B69F42;}
	.st19{fill:#B59D41;}
	.st20{fill:#98363B;}
	.st21{fill:#AC973B;}
	.st22{fill:#535F83;}
	.st23{fill:#AB993C;}
	.st24{fill:#E34F53;}
	.st25{fill:#9CA098;}
	.st26{fill:#A2914A;}
	.st27{fill:#D2C44E;}
	.st28{fill:#B4AE68;}
	.st29{fill:#C3B959;}
	.st30{fill:#CAB63C;}
	.st31{fill:#DAC14B;}
	.st32{fill:#525B85;}
	.st33{fill:#A59143;}
	.st34{fill:#C2A73E;}
	.st35{fill:#DF4D50;}
	.st36{fill:#CFB961;}
	.st37{fill:#C9B948;}
	.st38{fill:#A59A43;}
	.st39{fill:#A0925E;}
	.st40{fill:#CEC756;}
	.st41{fill:#DACC3A;}
	.st42{fill:#BDB45F;}
	.st43{fill:#9A8B43;}
	.st44{fill:#B5A14A;}
	.st45{fill:#A89748;}
	.st46{fill:#DBD44F;}
	.st47{fill:#AEA454;}
	.st48{fill:#B6A953;}
	.st49{fill:#C3A942;}
	.st50{fill:#CAB75C;}
</style>
<path class="st0" d="M71.5,135h-63c-4.7,0-8.5-3.8-8.5-8.5V8.5C0,3.8,3.8,0,8.5,0h63C76.2,0,80,3.8,80,8.5v118
	C80,131.2,76.2,135,71.5,135z"/>
<path class="st1" d="M13,93.9c1.3-0.9,2.8-1,4.2-0.6c0.6-0.8,0.2-1.5,0.1-2.2c-2.2,0.3-4,1.5-6.1,2.3c-0.3-1.2-0.1-2.2,0.3-3.3
	c0.3-0.8,0.8-1.6,0.6-2.5c-0.4-0.5-0.4-1.1-0.2-1.7c2.1-0.2,2,1.4,1.8,2.7c-0.1,1-0.3,1.8,1.1,1.4c2.4-0.3,1.3-2,1.4-3.3
	c0-0.3-0.1-0.6-0.2-0.9c-0.4-0.8-1.3-1.8,0.6-1.7c0.6,0,1.1-0.2,1.2-0.8c0-0.1,0-0.2,0-0.3c-0.2-0.5-0.2-1.1,0-1.6
	c-0.1-0.1-0.1-0.2,0-0.3c-0.4-0.8,0.3-1.9-0.8-2.5c-2.2-3.4-1.5-6.7,0.1-10.1c1.2-0.7,0.5-1.8,0.6-2.7c0.1-0.9-0.1-1.9,0.2-2.8
	l0-0.2c-0.3-3.4,0-6.8-0.1-10.4c1.6,0.8,1.4,2,1.4,3.1c0,3.7,0,7.5-0.1,11.2c0,1.8,0.4,3.3,2.1,4.2c0.2,0.1,0.5,0.3,0.7,0.5
	c0.6,0.4,1.2,0.5,1.4-0.5c0.1-0.7,0.1-1.4,0.1-2.1c0.1-7.5,0.1-15,0.2-22.5c0-1.2-0.1-2.5,1.1-3.5c0.6,6.7,0,13.3,0.4,20
	c0,3.3,0,6.6-0.1,9.9c0.2,0.1,0.4,0.1,0.6,0.2c4.4-3.3,7.7-7.5,10.8-12c0.3-3,0-6,0.3-9.4c1.4,0.9,1.1,2.1,1.2,3.1
	c0.1,1-0.1,2.1,0.2,3.1c1.2-1.2,1.2-1.2,1.8,0.2c-0.1-2.1-1-4,0.6-5.8c1.6,2,0.1,4.5,1.5,6.4c1.1-4.9,0.3-9.8,0.5-14.7
	c-3.7,1.6-4.7,1.3-4.8-1.3c-0.2,0.7-0.1,1.3,0.1,1.9c0.1,0.6,0.1,1.3-0.7,1.6c-1.2-1.2,0.6-3.2-1.1-4.3c-0.8,0.3-1.6,0.2-2.3,0
	c-2.2-0.6-3.6-2.5-3.3-4.6c0.3-2.3,1.9-3.7,4.2-3.8c0.5,0,1,0,1.4,0.1c0.9-0.4-0.1-1.6,0.9-2c0.5-0.2,0.4,1,0.9,0.5
	c1.3-1.4,3-0.9,4.6-1c0.4,0.9-0.2,1.5-0.6,2.3c-0.6,0.6-1.8-0.1-2.3,1c0.5-0.5,1.1-0.8,1.7-0.5c1.4,0.8,0-1,0.7-0.7
	c1.7-0.3,1.9-1.5,1.7-2.9c0.1-0.5,0.3-0.9,0.8-1c0.9,0.3,1.1,0.9,0.9,1.7c0.1,0.1,0.1,0.3,0,0.4c-0.4,0.5-0.3,0.9-0.1,1.4
	c0.5,1.1,1.4,0.4,2.1,0.5c2.1,0.3,3.8,1.7,4.1,3.5c0.6,2.8-1.2,4.5-3.8,5.1c-1,0.2-1.9-0.1-2.9-0.4c-0.5,1.1-0.3,2.2-0.4,3.2
	c0,4.8,0,9.6,0,14.3c0,0.7,0.1,1.4,0.5,2.1c2.5,4,5.3,7.7,8.7,11.1c0.3,0.3,0.6,0.6,1,0.5c0.4-0.4,0.4-0.9,0.1-1.4
	c0-0.2,0-0.3,0-0.5c0.6-0.9-0.2-2,0.6-2.9c1.2,0.6,0.7,1.7,0.8,2.5c1.4-0.2,0.5-1.9,1.6-2.4c0.9,0.2,0.5,1.3,1.1,1.7
	c0.8-0.6,1.1-1.8,2.3-1.9c0.7,0,1,0.4,1.1,1.1c-0.2,1.5-1.5,2.1-2.6,2.9c-0.7,0.5-1.4,1.1-1.9,1.8c-0.3,0.3-0.5,0.6-0.8,0.8
	c-3.6,2.7-5.3,6-4.1,10.5c-0.2,0.3-0.4,0.6-0.8,0.4c-0.3-0.1-0.4-0.2-0.4-0.5c-0.4-0.4,0.1-1.2-0.7-1.4c-0.5-0.6-0.3-1.3-0.2-2
	c0.4-0.7,0-1.4,0.3-2.1l0-0.1c0-0.6-0.4-0.8-0.8-1.2c-2.2-1.5-3.5-3.8-5.9-5.7c-0.1,9.3-0.1,18.3-0.2,27.3
	c-0.3,4.8-0.4,9.6-0.1,14.4c0.1,0.8,0.1,1.6,0,2.4c-0.5,0.8,0,1.7-0.4,2.5c-0.8,1.1-1.6,2.2-2.5,3.3c-1.4-0.6-0.6-1.5-0.2-2.1
	c1.3-1.9,1.4-4,1.5-6.2c0.1-13,0.2-26,0.2-39.1c0-1.8,0-3.5-1.3-5.3c-0.2,0.9-0.1,1.5-0.1,2.2C41.2,82.5,41,93.4,41,104.4
	c0,2.6-1.5,4.6-1.7,7.1c-1.7-2.1-1.7-10.1-0.1-12.2c0.5,1.7,0.1,3.2,0.3,4.6c0.1-2.6,0-5.4,0.1-8.4c-0.1,1.3,0.1,2.4-0.3,3.5
	c-1.8-2.2-1.7-18.7,0.1-20.3c0.4,2.2,0.1,4.3,0.2,6.2c-0.1-2.5,0.3-5.2-0.4-7.9c-0.1-0.5,0.6-0.8,0.4-1.5c0-0.2-0.3,0-0.2,0.1
	c0.5,0.6,0.1,0.7-0.5,0.6c-1.1-1.7-0.6-3.7-0.8-5.8c-0.4,1.5-0.4,2.8-0.4,4.2c0,12.8-0.2,25.7-0.2,38.5c0,1.5,0.7,3.4-1.3,4.4
	c-0.4-2.6-0.3-5.3-0.2-7.9c0.3-12,0.2-24.1,0.2-36.1c0-0.4,0-0.8-0.3-1.3c-2,1.6-3.7,3.4-5.5,5.2c-0.4,0.4-0.2,0.8,0,1.3
	c2.7,4.1,0,9.2-4.1,10.7c-1.5,0.5-1.9,2.6-1,4c0.1,0.1,0.3,0.1,0.5,0.1c0.5-0.3,0.9-0.3,1.1,0.3c-0.2,1-1.2,1.7-1,2.8
	c0,0.7,0,1.4-0.2,2.1c-0.1,0.2-0.2,0.4-0.3,0.6c-1.5-0.1-0.8-1.3-1.1-1.9c-0.5,0.7,1,1.9-0.5,2.5c-0.3,0-0.5-0.1-0.8,0
	c-0.3,0.3-0.3,0.7-0.5,1c-1.6,1.5-2.5,0.6-3.1-1c-0.1-0.7-1-1.5,0.4-1.9c0.7-0.1,1.4,0.3,2.1-0.1c0.2-0.2,0.3-0.4,0.2-0.7
	c-0.1-0.1-0.3-0.3-0.4-0.4c-1.4,0.4-3.4-0.2-3.5,2.3c0,0.5-0.7,0.5-1.2,0.4c-0.3-0.5-0.9-0.6-1.4-0.8c0-0.9-1.4-1.4-0.7-2.5
	c0.5-0.4,1.2,0,1.7-0.7c-0.9-0.7-1.9-0.3-2.8-0.6C13.3,94.7,12.8,94.5,13,93.9z"/>
<path class="st2" d="M61.6,68.7c0-0.6-0.3-0.9-0.9-0.9c-0.7-0.6-0.7-1.4-0.7-2.2c-0.2-3.7,0.3-7.3,0.4-11c0-0.8,0.1-1.6,1.2-1.7
	c0.7,4,0,8,0.3,12c0,0.9-0.5,2,0.8,2.4c2.1,3.2,2.2,5.3-0.1,8.2c-0.8,1-0.5,2.1-0.6,3.2c-0.1,3.4,0,3.4,3.4,3.1
	c0.9-0.1,1.7-0.2,2.6-0.3c0.8-0.1,1.5-0.4,2.4-0.6c0.4,1.3-0.3,2.3-0.9,3.1c-0.8,1.1-0.9,2-0.2,3.3c0.4,0.7,0.8,1.5,0.6,2.7
	c-2.1-0.6-4-1.3-6-1.6C62,88,62,88,62,90c0,1-0.1,2.1,0.1,3.1c0.5,0.3,1,0,1.4-0.1c2.7-0.4,4.8,1.1,5.1,3.7c0.3,2.7-1.6,4.9-4.2,5
	c-1.7,0.1-1.7,0.1-1.7,1.8c0.1,4.3-0.5,8.4-2.2,12.4c-0.3,0.8-0.6,1.6-0.9,2.5c0.5,0.6,1,0.2,1.5,0.3c1.4,0.3,1.7,1,1.1,2.5
	c-0.3-0.3-0.7-0.6-1.2-0.4c0.3,0.4,0.9,0,1.2,0.4c0.1,1.3-1.2,1.3-1.7,1.9c-0.6,0.6-0.3,1.8-1.3,2.4c-1.2,0.7-2.4,0.4-3-0.9
	c-0.4-1-0.7-1.8-1.9-2.1c-0.7-0.2-1.4-1.1-1.1-2.1c0.3-1,1.1-1.6,2.3-1.6c0.6,0.3,1,0.3,1.1-0.5c-2.2-4.8-3.1-9.8-2.7-15.1
	c0.1-1-0.1-1.5-1.2-1.3c-1.5,0.3-2.9-0.3-3.9-1.4c-1.1-1.3-1.5-2.8-0.9-4.4c0.6-1.8,2-2.6,3.8-2.8c0.5-0.1,1.1,0,1.7,0.1
	c0.6,0.1,0.9-0.3,0.9-0.8c0-1.5,0-3,0.1-4.5c0-0.6-0.2-1.1-0.8-1.3c-0.8-0.3-1.4-0.8-1.7-1.5c0.2-0.2,0.5-0.5,0.7-0.7
	c0.7-4.4,4.2-6.5,7.3-9C62.8,73.9,62.2,71.3,61.6,68.7z"/>
<path class="st3" d="M21.3,71.4c-1.8-0.3-2.8-1.5-2.8-3.2c0-4.2,0.1-8.5,0.1-12.7c0-0.8,0.2-1.6-0.3-2.6c-0.4,3.4,0.1,6.7-0.3,10
	c-0.5-0.8-0.2-1.7-0.2-2.6c0-13.2,0.2-26.4,0.1-39.5c0-3.1,1.9-4.9,3.3-7.2c0.3-0.5,0.8-0.5,1.2,0c1.5,2,3,3.9,3.1,6.8
	c0.1,9.4-0.1,18.8-0.1,28.3c0,4.7,0.1,9.4-0.2,14.1c-0.6-0.7-0.3-1.5-0.3-2.3c0-5,0-10.1,0.1-15.1c0-0.8,0-1.6-0.4-2.3
	C24.4,53,24.3,63,24.2,73C22.7,73.2,21.8,72.7,21.3,71.4c0.2-0.2,0.2-0.4,0.3-0.6C21.5,70.9,21.5,71.2,21.3,71.4z"/>
<path class="st4" d="M39.5,76.3c0.1,0.3,0.4,0.6,0.4,0.9c0,3.2,0,6.4-0.3,9.7c0-2.5,0-5.1,0-7.6c-0.8,0-0.9,0.6-0.9,1
	c0.2,4.9,0.4,9.8,0.1,14.7c-0.1,1.2,0.1,2.3,0.6,3.5c0-1.4,0-2.9,0-4.3c0.1,0,0.2,0,0.3,0c0,3.8-0.1,7.7-0.1,11.5
	c-0.1,0-0.2,0-0.3,0c0-1.9,0-3.8,0-5.7c-0.2,0-0.3,0-0.5,0c0,3.6,0,7.2-0.1,10.9c0.5-0.2,0.4-0.5,0.4-0.7c0-0.7,0.1-1.5,0-2.2
	c-0.2-1.2,0.5-0.7,1-0.6c0-0.6,0-1.1,0-1.7c0.1-12.1,0.2-24.1,0.3-36.2c0-0.6-0.2-1.3,0.3-2c1.5,1.8,2.6,3.5,2.6,5.9
	c-0.1,13.9-0.2,27.8-0.2,41.7c0,1.9-0.4,3.6-1.6,5.1c-0.3,0.4-1.3,0.9-0.4,1.8c-1,2-1.2,2-2.3,0.5c-0.7-0.9-1.3-1.8-1.9-2.7
	c-0.5-0.7-0.8-1.3-0.5-2.2c1-1.6,0.7-3.4,0.6-5c-0.1-4.3,0.1-8.6,0.1-12.9c-0.1-5.9,0.1-11.8,0-17.7c0-2.6,0-5.3,0.1-7.9
	c0-1.7-0.3-3.6,1.3-4.9c0.4,0.1,0.5,0.6,0.5,1.2c0,1.6,0.1,3.1,0.1,4.7C39.1,75.5,39.1,76,39.5,76.3L39.5,76.3z"/>
<path class="st5" d="M58.8,69.7c-0.2,0.2-0.5,0.4-0.8,0.6c-0.5-0.6,0.1-1.4-0.5-2.2c0.1,1.7-1.5,2.6-1.2,4.4
	c-1.2-0.7-0.8-1.5-0.9-2.2c-0.1-0.7,0.1-1.4-0.2-2.1c-0.6,0.7,0.1,1.8-0.7,2.4c0-5.7,0-11.3,0-17c0.1-10.8,0.2-21.7,0.2-32.5
	c0-2,0.4-3.7,1.7-5.2c0.8-0.9,1.5-1.8,2.4-2.9c1.2,1.2,1.9,2.6,2.6,4c-0.3,0.3-0.7,0.3-1.2,0.3c-0.2-0.1-0.4-0.2-0.6-0.3
	c-0.8-0.3-0.2,0.3-0.1,0.4c0.4,1.1,0.3,2.2,0.3,3.3c-0.2,15.1-0.2,30.3-0.3,45.4C59.5,67.3,59.6,68.6,58.8,69.7z"/>
<path class="st6" d="M20.3,98.2c-1.6,0.1,0,0.7-0.2,1.1c-0.8,0.9-0.4,1.6,0.5,2.1c0.9,0.5,1.7,0.2,2.2-0.7c0.3-0.5,0.1-1.1,0.7-1.5
	c0.3,0,1,0.5,0.8-0.2c-0.3-0.8-0.2-1.7-0.4-2.5c-0.1-0.3,0-0.5,0.3-0.5c0.3-0.1,0.6,0.1,0.7,0.4c0.4,0.9-0.4,2.1,0.6,2.9
	c1.5,0.5,3.1,1.6,4.3-0.5c0.9-1.5,0.1-2.8-2.2-4.2c-0.3-0.2-0.5-0.3-0.7-0.6c-0.2-0.3-0.6-0.4-1-0.4c2-0.9,3.7-0.3,5.1,1.3
	c1,1.1,1.3,3.6,0.5,5c-1.3,2.1-3.4,2.4-6,1.9c0.5,5.9-0.6,11.5-2.6,16.7c0.5,0.6,1,0.4,1.5,0.5c0.9,0.2,1.4,0.7,1.5,1.6
	c0.1,0.9-0.1,1.7-1,2c-1,0.3-1.4,0.6-1.5,1.7c-0.1,1.2-1.1,1.9-2.2,1.7c-1-0.2-1.8-0.7-1.8-1.9c0-0.7,0-1.1-0.9-1.3
	c-1.6-0.3-2.1-1.1-2-2.2c0.1-1.1,0.9-1.8,2.5-2.1c0.2,0,0.4-0.1,0.8-0.2c-2.5-5.1-3-10.6-2.5-16.3c-2.8,0.2-5.1-0.4-6.1-3.1
	c-0.7-1.8,0-3.6,1.9-4.9c0.2,0.4,0.5,0.5,0.9,0.5c0.3,0.5-0.1,0.9-0.4,1.3c-0.9,1.3-1.2,2.5,0,3.9c1.3,1.4,2.2,0,3.3-0.3
	c0.4-0.1,1.3,0.2,1-0.8c-0.2-0.7,0-1.4,0.4-2c0.2-0.3,0.6-0.5,0.7-0.2c0.5,1.3,0.9,0.5,1.5,0.1c0.9-0.7,1.6-0.5,2,0.5
	C22,97.7,21.1,97.8,20.3,98.2z"/>
<path class="st7" d="M36.9,31.6c-0.8,0.4-0.1,1.6-1.1,1.9c0.3-0.7,0.2-1.4,0.1-2.1c-0.3-4.6,0.4-9.1,2.1-13.4c0.4-1,0.7-1.8-0.8-2.1
	c-0.9-0.2-1.4-1-1.3-2c0.1-0.9,0.6-1.5,1.5-1.7c0.9-0.2,1.1-0.6,1.2-1.5c0.1-1.1,1-1.6,2-1.7c1.2,0,2,0.6,2.3,1.7
	c0.1,0.6,0.1,1.3,1,1.4c1,0.1,1.4,0.7,1.3,1.6c-0.1,1-0.4,1.9-1.6,2c-0.2,0-0.4,0.1-0.7,0.2c-0.1,1,0.4,1.7,0.7,2.5
	c1.3,3.5,1.7,7.1,1.8,10.8c0,0.5,0,1-0.3,1.4c-0.3-0.5-0.4-1.2-1-1.5c-0.6,0.1-1,0.9-1.8,0.7c-0.2-0.1-0.3-0.3-0.3-0.5
	c0-0.4,0.4-0.8,0.4-1.3c-1-0.3-1.8,0.9-2.7,0.1c0.1-1.8,1.9-1.7,2.8-2.5c-0.8-1.7-1.8-2-3.2-0.6c-0.8,0.8-1.6,1.4,0,2.2
	c0.2,0.1,0,0.6-0.3,0.8c-0.1,0.1-0.2,0.2-0.3,0.2c0,0.2,0,0.1,0.2,0c0.2-0.3-0.1,0.1,0.2-0.1c0.3-0.2,0.6-0.1,0.8,0.1
	C39.7,30.1,38.3,30.9,36.9,31.6z"/>
<path class="st8" d="M35.9,41.8c0.8-0.1,1,0.4,1,1c0,0.9,0,1.7,0.4,2.6c0-1.4,0-2.8,0-4.4c0.8,0.6,0.4,1.2,0.6,1.7
	c0.1,0.2-0.5,1.5,0.7,0.4c0.3-0.2-0.2,1,0.6,1.3c1.4-0.1,2.5-1.3,3.8-2.1c0.2,0.3,0.4,0.5,0.4,0.7c-0.3,5,0,9.9,0,14.9
	c0,1.2-0.5,1.4-1.4,1.4c-1.1,0.1-1.4-0.5-1.3-1.5c0-1.7,0-3.5-0.3-5.2c0,1.9,0,3.8,0,5.8c-0.9-0.4-0.3-1.2-0.8-1.6
	c-0.5,0-0.7,0.4-0.5,0.8c0.3,0.8,0.1,0.9-0.7,1c-0.8,0.1-1-0.3-1-0.9c0-1.8,0-3.7-0.4-5.5c0,2,0,4-0.1,6c0,0.8,0.3,1.8-0.4,2.5
	c0-5.4,0-10.8,0-16.2C36.4,43.7,36.7,42.6,35.9,41.8z"/>
<path class="st5" d="M62.7,67.3c-1.2,0-1.1-0.9-1.1-1.7c0-3.5,0.1-7,0-10.4c0-0.8,0.3-1.6-0.5-2.2c-1.2-0.3-0.4-1-0.3-1.5
	c0.3-8.3,0.1-16.7,0.3-25c0-2.1,0-4.1,0.1-6.2c0-0.9-0.1-1.8,0.7-2.4c0.6,0.7,0.4,1.5,0.4,2.3c-0.1,14.3-0.2,28.6-0.3,42.8
	C62.1,64.3,61.7,65.9,62.7,67.3z"/>
<path class="st2" d="M62,17.8c-0.1,10.7-0.2,21.4-0.3,32c0,0.7-0.1,1.4-0.1,2.1c0,0-0.1,0.1-0.2,0.1c-0.1,0-0.1-0.1-0.2-0.1
	c-0.8-1.1-0.6-2.4-0.7-3.7c-0.2-8.9,0.1-17.8,0.2-26.8c0-1.1,0.3-2.2-0.3-3.3c-0.2-0.4-0.4-0.9,0-1.3c0.3,0,0.6,0,0.9,0
	C61.7,17.2,62,17.4,62,17.8z"/>
<path class="st9" d="M12.1,85.6c0,0.7,0,1.4,0,2c-1.1-1.4-1.8-3.1-2.4-5.1c1.7,0.4,3.2,0.8,4.7,1.1c1.1,0.2,2.3,0.6,3.4-0.3
	c0.2,1.6-1.4,0.8-1.9,1.2c0,0.8,0.9,0.7,1,1.3C15.2,86.9,13.7,84.9,12.1,85.6z"/>
<path class="st4" d="M44,113.8c-0.5-0.4-0.4-1-0.4-1.6c0-3.8,0-7.7,0.1-11.5c0-0.5,0-1,0.4-1.3C44.3,104.2,44.2,109,44,113.8z"/>
<path class="st3" d="M17.9,63c0.3,1.8,0.2,3.7,0,5.5c-0.1,1.1-0.5-0.1-0.8,0c0.5-0.8,0.5-1.7,0.6-2.7C17.7,64.9,17.4,63.9,17.9,63z"
	/>
<path class="st9" d="M17,78.6c1.5,0.4,0.8,1.6,0.8,2.5C17.4,80.3,17.6,79.3,17,78.6z"/>
<path class="st4" d="M43.6,118.6c0-0.8-0.3-1.7,0.4-2.5C44.2,117,44.3,117.9,43.6,118.6z"/>
<path class="st2" d="M50.9,79c0,0.7,0.3,1.5-0.3,2.1C50.5,80.4,50.4,79.7,50.9,79z"/>
<path class="st10" d="M56.7,118.2c0.3,0.2,0.3,0.5,0.1,0.7c-0.4,0.4-0.8,0.2-1.1-0.2C56,118.6,56.5,118.7,56.7,118.2z"/>
<path class="st2" d="M50.8,83.2c0.8,0.2,0.7,0.8,0.7,1.4C51,84.2,50.9,83.7,50.8,83.2z"/>
<path class="st9" d="M17.8,81.3c0.1,0.5,0.1,1.1,0,1.6C17.5,82.4,17.5,81.9,17.8,81.3z"/>
<path class="st2" d="M50.2,77.8c0.7,0.1,0.9,0.5,0.8,1.2C50.7,78.6,50.4,78.2,50.2,77.8z"/>
<path class="st5" d="M54.5,71.1c0.5,0.5,0.6,1-0.1,1.4C54.4,72.1,54.4,71.6,54.5,71.1z"/>
<path class="st7" d="M45,32.6c-0.6-0.5-0.6-1,0.1-1.4C45.2,31.7,45.2,32.2,45,32.6z"/>
<path class="st11" d="M60.5,16.9c0,0.4,0.1,0.8,0.5,1c0.5,1.2-0.2,2.6,0.4,3.9c-0.1,4.1-0.2,8.3-0.2,12.4c0,5.9,0,11.8,0.1,17.8
	c-0.4,0.3-0.5,0.6,0,1c-0.4,1.5,0,3.1-0.1,4.6c-0.3,3.4-0.5,6.9-0.3,10.3c-0.6,0.7-1.1,1.5-2,1.9c0-7,0.1-14,0.1-21
	c0.1-9.8,0.1-19.5,0.2-29.3c0-1.2,0.4-2.5-1.6-3C59.2,15.8,59.4,15.9,60.5,16.9z"/>
<path class="st12" d="M23.7,74.7c1.9,1.1,3.7,2.2,5.2,3.7c3.5,3.6,0.3,8.5-2.7,9.6c-0.7,0.3-1.1-0.1-1.1-0.8c0-0.8,0-1.5,0.4-2.3
	c0.8-1.5,0.5-2.3-0.8-3.2c-0.7-0.5-1.3-0.9-2-1.3c-0.7-0.6-1.5-1.2-1.9-2.1c-0.3-0.8-1.1-1.7-0.2-2.6C21.5,75,22.3,73.8,23.7,74.7z"
	/>
<path class="st13" d="M27.6,73.4c0.4-1.5,1.8-2.2,2.7-3.3c2.1-2.4,4.1-4.9,6.1-7.4c0.9-1.1,1.1-1,1.9,0.2c1.6,2.5,1.6,2.7-0.3,5
	c-1.8,2.2-3.7,4.4-5.8,6.4c-1.5,1.3-2.6,1.3-4-0.2C28,73.8,27.7,73.6,27.6,73.4L27.6,73.4z"/>
<path class="st14" d="M53,72.9c-1.4,0.7-2.5,1.1-3.6,1.6c-0.5,0.3-0.9,0.1-1.3-0.2c-2.6-2.4-4.7-5.2-6.7-8.1c-0.3-0.4-0.3-0.9,0-1.3
	c0.7-1.1,1.4-2.1,2.2-3.4C46.6,65.5,49.4,69.4,53,72.9z"/>
<path class="st15" d="M60.1,75.9c-1.6,1.4-3.4,2.7-4.9,4.2c-0.9,1-1.7,2.1-1.7,3.5c0,0.6-0.3,0.9-0.9,0.8c-2-3.4-0.5-6.9,2.7-9.8
	c0.6-0.6,1.4-1,2.1-1.6C59,72.4,60,73.4,60.1,75.9z"/>
<path class="st16" d="M23.7,74.7c-1.5-0.4-1.9,1.2-3,1.6c-0.3,0.1,0.2,0.5,0.2,0.8c0.2,1.3,1.4,2.1,1.8,3.4
	c-1.4-0.2-2.5-1.1-3.7-1.6c-0.9-0.4-1.1-1.2-0.8-2c0.2-0.5,0.4-0.6,0-1.1c-0.9-1.1-0.8-1.2,0.4-2c0.8-0.5-0.4-1.2,0.4-1.8
	C20.5,72.8,22.2,73.6,23.7,74.7z"/>
<path class="st17" d="M16.9,99.2c-0.7,1.8-0.9,2-2.4,1.5c-1.8-0.6-2.8-2.2-2.3-3.8c0.3-1,0.9-1.8,1.7-2.5c0.9,0,1.8,0,2.6,0.1
	c0.7,0.1,1.2,0.4,1,1.2c-0.2,0.8-0.6,1.3-1.5,0.7c-0.3-0.2-0.8,0-1.2,0c-1,1.3,0.5,1.6,0.9,2.3C16.2,98.8,17.2,97.7,16.9,99.2z"/>
<path class="st18" d="M26.9,93.9c1.2,0.2,2.3,0.5,3.1,1.5c0.8,1,1.1,2.7,0.5,3.7c-0.6,0.9-2.2,1.7-3.3,1.6c-1-0.1-1.2-0.9-1.7-1.5
	c0-0.1,0-0.3,0-0.4c0.3-0.6,0.7-0.8,1.3-0.5c0.7,0.3,1.3,0.4,1.3-0.5c0-0.8-0.6-1-1.3-0.8c-0.6,0.1-1.1,0-1.3-0.6
	C25.2,95.1,25.8,94.3,26.9,93.9z"/>
<path class="st19" d="M34.4,40.8c-2,0-3.4-1.5-3.3-3.2c0.2-1.7,2.2-3.5,3.8-3.3c0.9,0.1,0.8,1.3,1.7,1.4c0.2,0-0.1,0.6-0.4,0.7
	c-0.6,0.1-1.3-0.1-1.9,0c-0.5,0.1-1.2,0.1-1.2,0.9c0,0.6,0,1.3,0.6,1.4c0.7,0.1,1,1,1.9,0.5c0.4-0.2,1,0.1,1,0.7
	c0,0.5-0.5,0.6-0.8,0.7C35.4,40.7,34.8,40.7,34.4,40.8z"/>
<path class="st20" d="M60.1,75.9c-0.3-0.4-0.8-0.7-0.4-1.4c0.1-0.2,0.1-0.7-0.4-0.4c-0.9,0.5-0.7,0-0.7-0.7c0-1-0.7-0.5-1.2-0.4
	c0.4-1.2,1.6-1.6,2.4-2.4c0.7-0.6,1.5-1.1,1.9-2C63.6,71.7,63.1,73.9,60.1,75.9z"/>
<path class="st21" d="M46.8,40.4c-0.2,0-0.3,0-0.5,0c-0.6-0.1-1.5,0.1-1.4-0.8c0-0.8,0.9-0.9,1.5-0.6c0.7,0.3,1-0.1,1.3-0.6
	c0.4-0.7,0.4-1.4-0.1-2c-0.4-0.5-1-0.3-1.6-0.1c-0.4,0.2-0.7,0.7-1.1,0c-0.3-0.6-0.2-1,0.4-1.4c1.3-0.9,1.9-1,3.2-0.1
	c1.2,0.9,1.9,2.2,1.7,3.1C49.8,39.6,48.6,40.4,46.8,40.4z"/>
<path class="st22" d="M24.1,87.2c0,0.9,0,1.7,0,2.6c-0.1,1.2-0.5,1.3-1.5,0.7c-0.7-0.4-0.9-1-0.9-1.8c0-1.7,0-3.3,0-5
	c0-0.5-0.1-1.2,0.7-1.2c0.7,0,1.5,0.3,1.6,1.1C24.1,84.9,24,86.1,24.1,87.2C24,87.2,24.1,87.2,24.1,87.2z"/>
<path class="st23" d="M39.8,28.3c0.9-0.1,1.7-0.7,2.6-1c0.4-0.2,0.7-0.3,1,0.1c0.3,0.4,0.1,0.7-0.2,1c-0.4,0.4-0.7,0.8-1.1,1.2
	c-0.1,0.1-0.1,0.1-0.1,0.1c0.1,0.2,0.2,0.2,0.3,0.1c0.7,0.1,1.1-1,1.9-0.5c-0.2,0.3-0.4,0.6-0.6,0.9c-0.3,0.6-0.8,0.9-1.4,0.9
	c-0.3,0.1-0.6,0.2-0.8,0.4c-0.5,0.3-1.1,1.4-1.4-0.1c-0.9,0.1-1.4,0.8-2.2,1.1c-1,0.4-0.7-0.5-0.8-0.8C37.6,30.3,39,29.6,39.8,28.3
	L39.8,28.3z"/>
<path class="st24" d="M12.1,85.6c0.5-1.5,1.6-0.9,2.3-0.5c0.8,0.5,1.5,0.8,2.4,0.7c-0.1,0.2-0.3,0.3-0.4,0.5
	c-0.5,1.4,0.4,3.3-1.5,4.2c-0.1,0-0.1,0-0.2,0.1c-0.6,0.1-1.3,0.9-1.9,0.3c-0.5-0.5,0-1.2,0.3-1.7C13.9,87.6,12.9,86.6,12.1,85.6z"
	/>
<path class="st25" d="M40.3,64.2c-0.3-0.4-0.6-0.6-0.7-0.9c-0.4-0.8-1.4-1.7-0.8-2.5c0.6-0.8,1.8-0.2,2.7-0.3
	c0.9-0.1,1.1,0.6,0.7,1.2C41.7,62.5,41.4,63.5,40.3,64.2z"/>
<path class="st26" d="M43,39.7c0,0.8-0.4,1.2-0.6,1.7c-0.5,0.8-1,1.6-2,1.3c-1-0.3-1.5-1.2-1.9-2.1c-0.1-0.1,0-0.3,0.1-0.4
	c1.1,0.8,1.3-1,2.2-0.7c0.9,0.2,0.4,1,0.7,1.5C42.2,40.9,42,39.6,43,39.7z"/>
<path class="st27" d="M23.6,95.3c-1.6-3.1-2.2-3.1-4-0.4c-0.3-1.6,0-2.4,1.3-3.3c0.6-0.4,1-0.4,1.5,0C23.4,92.3,23.9,93.5,23.6,95.3
	z"/>
<path class="st6" d="M25.5,96.3c0.7,0.7,1.1,0,1.6-0.3c0.8-0.4,1.1,0.2,1.5,0.7c0.6,0.7,0.4,1.4-0.2,1.9c-0.4,0.3-0.7,1.2-1.4,0.3
	c-0.3-0.4-1-0.6-1.5-0.1C25.5,98,25.5,97.2,25.5,96.3z"/>
<path class="st28" d="M23.6,99.2c0.1,1.2-0.1,2.2-1.3,2.7c-0.8,0.3-1.5,0.1-2.2-0.4c-0.9-0.7-0.9-1.4,0.1-2.2c0.4,2.1,0.9,2.3,2.5,1
	c0.3-0.4-0.1-1.1,0.5-1.4C23.3,99,23.4,99.1,23.6,99.2z"/>
<path class="st9" d="M14.9,90.5c0.2-0.5,0.2-1.2,0.5-1.5c0.9-0.6,0.6-0.9,0.1-1.6c-0.8-1.2,0.1-1.2,1-1.1c0.2,0.5,0.4,1,0.5,1.5
	C17.2,90,17.2,90,14.9,90.5z"/>
<path class="st7" d="M42.2,31.1c0.3-0.6,0.8-0.8,1.4-0.9c1,0.7,0.4,1.5,0.2,2.3c-0.4,1.5-1.5,0.2-2.1,0.7l0,0
	C41.2,32.3,41.9,31.8,42.2,31.1z"/>
<path class="st29" d="M41.7,33.2c0.3,0.6,1,1.1,0.4,1.9c-2.2-1.5-1.5-1.2-3.2,0.5c-0.3-1.5,0-2.2,1.1-2.4
	C40.6,33.1,41.1,33.2,41.7,33.2C41.7,33.2,41.7,33.2,41.7,33.2z"/>
<path class="st30" d="M41.6,36.7c0.1,0.8-0.5,0.8-0.9,0.9c-0.7,0.2-1.1,0-1.2-0.7c-0.1-0.6,0.4-0.8,0.9-1
	C41,35.9,41.4,36.3,41.6,36.7z"/>
<path class="st31" d="M20.3,98.2c0.1-1.6,1.4-1,2.2-1.4c0,0,0,0,0,0c0.3,0.5,0.4,0.9,0,1.4C21.8,98.8,21,98.8,20.3,98.2z"/>
<path class="st6" d="M15.9,98.7c-0.8,0.3-1.3-0.1-1.6-0.9c-0.3-0.8,0.1-1.2,0.7-1.4C15.3,97.1,16.3,97.6,15.9,98.7z"/>
<path class="st4" d="M39.8,73.9c-0.3-0.7-0.4-1.3,0-2C40.2,72.6,39.9,73.2,39.8,73.9z"/>
<path class="st13" d="M27.5,73.3c-0.1,0.2-0.2,0.4-0.4,0.5c-0.2,0.1-0.5,0.3-0.6,0.2c-0.3-0.4,0.1-0.5,0.3-0.6
	C27.1,73.4,27.3,73.4,27.5,73.3C27.6,73.4,27.5,73.3,27.5,73.3z"/>
<path class="st6" d="M22.6,98.3c0-0.5,0-0.9,0-1.4C23.2,97.3,23.2,97.8,22.6,98.3z"/>
<path class="st6" d="M23.2,98.8c-0.2,0.5-0.2,1-0.5,1.4C22.6,99.7,22.4,99.1,23.2,98.8z"/>
<path class="st4" d="M39.5,76.3c0-0.2,0-0.5,0-0.7c0-0.1,0.1-0.3,0.2-0.4c0.1,0.1,0.2,0.2,0.2,0.3C40,75.9,39.8,76.1,39.5,76.3
	C39.5,76.3,39.5,76.3,39.5,76.3z"/>
<path class="st32" d="M60.6,90.5c-1.7-0.4-2-1.3-1.9-2.6c0.1-2.6,0.1-5.3,0.1-7.9c0-0.3,0-0.6,0-1c0.1-0.8,0.6-1.5,1.3-1.5
	c0.9,0.1,0.5,1,0.6,1.6C60.6,82.9,60.6,86.6,60.6,90.5z"/>
<path class="st33" d="M63.8,98.5c0.1,0,0.4,0.1,0.6,0.1c0.7-0.2,1.7-0.1,1.5-1.3c-0.1-1.1-0.8-1.4-1.8-1.4c-0.1,0-0.3,0.1-0.4,0.2
	c-0.4,0.1-0.9,0.6-1.2-0.2c-0.2-0.6-0.2-1.3,0.6-1.6c1.1-0.4,2.6-0.1,3.5,0.9c1,1.1,1.2,2.5,0.6,3.7c-0.5,0.9-2.2,1.8-3.2,1.6
	c-0.3-0.1-0.6-0.2-0.9-0.4c-0.6-0.3-0.6-0.9-0.5-1.4C62.8,97.9,63.3,98.3,63.8,98.5z"/>
<path class="st34" d="M50.6,96.5c0.1,0.3,0.2,0.6,0.2,0.9c0,1.3,0.6,1.7,1.8,1.4c0.4-0.1,0.8-0.3,1,0.1c0.2,0.5,0.1,0.9-0.3,1.3
	c-0.4,0.3-0.8,0.5-1.3,0.5c-1.5,0-3.1-1.8-3-3.2c0.2-1.9,1.7-3.2,3.5-2.8c0.3,0.1,0.6,0.2,0.8,0.4c0.2,0.2,0.4,0.5,0.3,0.8
	c-0.1,0.3-0.4,0.5-0.7,0.4C52.1,95.9,51.4,96.4,50.6,96.5z"/>
<path class="st35" d="M67.9,87.8c-1.2-0.3-2.4-0.7-3.6-1c-0.4-0.8,0.6-1.3,0.3-2.2c-0.3-0.9-1-0.8-1.7-1.4c2.1,0,3.9-0.1,5.9-0.4
	c-0.3,1.7-2.3,3-0.3,4.7C68.2,87.7,68,87.8,67.9,87.8z"/>
<path class="st36" d="M56.5,95.1c-0.5-1.7-0.4-2.4,0.8-3.3c0.6-0.5,1.3-0.8,2-0.3c1.2,0.8,1.7,1.9,1.1,3.4c-0.5-0.4-0.3-1-0.5-1.4
	c-0.3-0.6-0.6-1.2-1.3-1.2c-0.7,0-1.1,0.6-1.5,1.1C56.7,93.8,57.1,94.6,56.5,95.1z"/>
<path class="st37" d="M56.7,98.8c1.1,2.3,1.7,2.3,3.5,0.4c0.6,1.2-0.2,1.7-1,2.2c-0.8,0.5-1.6,0.4-2.2-0.2
	C56.3,100.6,55.9,99.8,56.7,98.8z"/>
<path class="st38" d="M56.1,107.8c1.8,1.1,3.1,2.5,4.3,4.2C58.1,111.4,56.2,109.6,56.1,107.8z"/>
<path class="st10" d="M55.3,119.8c1.1-0.2,1.5,0.2,1.5,1c0,0.7-0.4,1.2-1.2,1.2c-0.8,0-1.4-0.6-1.4-1.4
	C54.2,119.7,55,119.8,55.3,119.8z"/>
<path class="st39" d="M62.3,121.1c-0.2,0.1-0.4,0.2-0.6,0.4c-0.7,0.6-1.4,0.3-1.8-0.3c-0.3-0.5,0.1-1,0.5-1.2
	c0.7-0.4,1.4-0.3,1.8,0.5C62.3,120.6,62.2,120.9,62.3,121.1C62.3,121.1,62.3,121.1,62.3,121.1z"/>
<path class="st40" d="M59.4,123.3c-0.1,0.6-0.2,1.3-1,1.3c-0.6,0-0.5-0.7-0.5-1.1c0-0.6,0.2-1.1,0.9-1.1
	C59.3,122.4,59.3,122.8,59.4,123.3z"/>
<path class="st41" d="M59.5,97c-0.1,1.3-0.6,1.8-1.6,1.4c-0.4-0.1-0.8-0.5-0.7-0.8C57.8,96.4,58.7,97.4,59.5,97z"/>
<path class="st42" d="M55.4,95.9c-0.4,1-0.2,2,0,3.2C54.1,97.7,54.1,97.7,55.4,95.9z"/>
<path class="st1" d="M21.3,71.4c0-0.2,0-0.3,0-0.5c0-0.3-0.3-0.7,0.1-0.7c0.4-0.1,0.4,0.4,0.3,0.7C21.7,71,21.5,71.2,21.3,71.4
	C21.3,71.4,21.3,71.4,21.3,71.4z"/>
<path class="st43" d="M20.1,115.7c1.1-1.1,0.2-2.2-0.3-2.5c-1.1-0.8-0.7-1.2,0.1-1.7c1.2-0.8,2.5-1.6,3.7-2.4
	c0.4,0.5,0.3,1.1-0.1,1.3c-1.1,0.5-0.7,1.6-0.7,2.3C22.6,115.1,22.7,115.1,20.1,115.7z"/>
<path class="st44" d="M19.1,109.6c-0.3,0-0.4-0.2-0.5-0.4c-0.1-0.4-0.3-0.8,0.1-1c1.6-0.9,3.1-1.9,4.7-2.8c0.2-0.1,0.4,0,0.5,0.3
	c0.1,0.3,0,0.5-0.2,0.8c-1.2,1.4-2.9,2.2-4.5,3.1C19.3,109.6,19.2,109.6,19.1,109.6z"/>
<path class="st45" d="M23.8,102.2c-1.3,1.9-3.2,2.4-4.7,3.5c-0.2,0.1-0.5,0.2-0.6-0.1c-0.2-0.3,0-0.6,0.2-0.8
	C20.2,103.8,21.7,102.8,23.8,102.2z"/>
<path class="st46" d="M19.6,120.8c0,0.6-0.2,1-0.8,1c-0.8,0-1.5-0.7-1.5-1.5c0-0.7,0.5-1.3,1.2-1.2
	C19.5,119.2,19.5,120.1,19.6,120.8z"/>
<path class="st47" d="M21.4,125c-0.7-0.3-1.3-0.7-1.2-1.5c0.1-0.7,0.7-1.3,1.5-1.1c0.8,0.1,0.9,0.8,0.8,1.4
	C22.5,124.5,22.2,124.9,21.4,125z"/>
<path class="st48" d="M25.2,120.9c-0.2,0.7-0.7,1-1.4,1c-0.7-0.1-1-0.5-0.9-1.2c0.1-0.6,0.4-1.1,1.1-1.1
	C24.7,119.7,25.1,120.1,25.2,120.9z"/>
<path class="st23" d="M38.9,28.3c-0.1-0.3,0.8-1-0.3-0.7c-0.5,0.1-0.9,0.3-1.2-0.2c-0.3-0.5,0-0.9,0.3-1.3c1.2-1.3,2.5-2.4,4.3-2.7
	c1,0.4-0.6,2.6,1.7,1.9c-0.9,1.6-2.9,1.6-3.7,3.1c0,0,0,0,0,0C39.5,28.3,39.2,28.3,38.9,28.3L38.9,28.3z"/>
<path class="st49" d="M40.1,22c-0.3,0-0.6-0.1-0.6-0.5c-0.1-0.8,0.8-1.7,1.6-1.8c0.7-0.1,0.6,0.6,0.8,0.9C42.1,20.9,40.8,22,40.1,22
	z"/>
<path class="st50" d="M41.3,12.9c-0.5-0.8-0.3-1.5-0.7-2c-0.2-0.3-0.1-0.6,0.2-0.7c0.4-0.1,0.6,0.1,0.8,0.3
	C42.5,11.3,42.2,12.1,41.3,12.9z"/>
<path class="st23" d="M38.9,28.3c-0.3,0.7-0.8,1.1-1.7,1.4C37.5,28.7,38,28.3,38.9,28.3C38.9,28.3,38.9,28.3,38.9,28.3z"/>
<path class="st1" d="M37.1,51c-0.4-0.6-0.3-1.1-0.3-1.6c0-0.8,0-1.5,0.3-2.3C37.1,48.3,37.1,49.5,37.1,51z"/>
<path class="st5" d="M61.4,21.7c-0.9-1.2-0.5-2.5-0.4-3.9C62,19.1,61.3,20.5,61.4,21.7z"/>
<path class="st7" d="M42.3,29.8c-0.3,0.4-0.6,0.9-1.3,0.7c0.2-0.6,0.7-0.7,1.2-0.9C42.2,29.7,42.2,29.8,42.3,29.8z"/>
</svg>
