<?xml version="1.0" encoding="utf-8"?>
<!-- Generator: Adobe Illustrator 23.1.1, SVG Export Plug-In . SVG Version: 6.00 Build 0)  -->
<svg version="1.1" id="Livello_1" xmlns="http://www.w3.org/2000/svg" xmlns:xlink="http://www.w3.org/1999/xlink" x="0px" y="0px"
	 viewBox="0 0 80 135" style="enable-background:new 0 0 80 135;" xml:space="preserve">
<style type="text/css">
	.st0{fill:#FFFFFF;stroke:#000000;stroke-width:0.2509;stroke-miterlimit:10;}
	.st1{fill:#40433F;}
	.st2{fill:#3C3B31;}
	.st3{fill:#464337;}
	.st4{fill:#4B4D6A;}
	.st5{fill:#4A4F70;}
	.st6{fill:#404660;}
	.st7{fill:#464539;}
	.st8{fill:#3B3A2F;}
	.st9{fill:#424961;}
	.st10{fill:#87815C;}
	.st11{fill:#A69E5B;}
	.st12{fill:#CACAC9;}
	.st13{fill:#B6AD62;}
	.st14{fill:#9D915A;}
	.st15{fill:#DCDCD8;}
	.st16{fill:#D0BF58;}
	.st17{fill:#D0C04A;}
	.st18{fill:#FFFFFF;}
	.st19{fill:#D7C948;}
	.st20{fill:#D5C158;}
	.st21{fill:#C2B153;}
	.st22{fill:#BAAE4E;}
	.st23{fill:#D4C459;}
	.st24{fill:#CBBF5C;}
	.st25{fill:#CDC363;}
	.st26{fill:#C5B751;}
	.st27{fill:#AF983C;}
	.st28{fill:#C0A53F;}
	.st29{fill:#D6C143;}
	.st30{fill:#D4CC4A;}
	.st31{fill:#DDCF5C;}
	.st32{fill:#B9AB67;}
	.st33{fill:#A5985D;}
	.st34{fill:#B5AA61;}
	.st35{fill:#BCB26C;}
	.st36{fill:#C6BC54;}
	.st37{fill:#C8AC3E;}
	.st38{fill:#BEA63D;}
	.st39{fill:#DDCD3C;}
	.st40{fill:#CCC642;}
	.st41{fill:#D4CE58;}
	.st42{fill:#E9DE59;}
	.st43{fill:#D5CC61;}
	.st44{fill:#B49B3D;}
	.st45{fill:#AA9D43;}
	.st46{fill:#AE9749;}
	.st47{fill:#847745;}
	.st48{fill:#DAC74B;}
	.st49{fill:#D6CC4B;}
	.st50{fill:#B79B3B;}
	.st51{fill:#BB9F3C;}
	.st52{fill:#BFA83C;}
	.st53{fill:#908449;}
	.st54{fill:#CEBB42;}
	.st55{fill:#C5B942;}
	.st56{fill:#B2AA51;}
	.st57{fill:#C6B75B;}
	.st58{fill:#BDB473;}
</style>
<path class="st0" d="M71.5,135h-63c-4.7,0-8.5-3.8-8.5-8.5V8.5C0,3.8,3.8,0,8.5,0h63C76.2,0,80,3.8,80,8.5v118
	C80,131.2,76.2,135,71.5,135z"/>
<path class="st1" d="M39.7,70.7c-1.3-0.3-2.5-0.3-3.4,1c-0.4,0.6-1.1,0.9-1.7,1.1c-0.5-0.5,0-1.1-0.4-1.7c-1.5,2.8-3.3,5.2-7,5.7
	c-0.1-3,2.6-3.9,4.2-5.7c-3.7,1.2-6.9,4.1-11.4,2.8c0.9-1.3,2.4-1.5,3.6-2.3c-1.4-0.9-3-0.3-4.3-1.1c-1.5-0.8-1.9-2.2-2.6-3.8
	c1.6-0.1,2.8,0.7,4.2,1.1c0-1-0.5-1.5-0.9-2.1c-1.7-2.5-1.6-5-0.1-7.6c1.2,0.4,0.6,1.5,1.1,2.3c2.5-2.9,3.1-3.2,6.9-2.5
	c-0.8,1-1.9,1.5-2.9,2.1c-0.3,0.2-0.5,0.4-0.3,0.7c0.1,0.2,0.5,0.3,0.6,0.2c1.4-1.1,2.7,0.2,4.1,0.3c1,0,1.7,1,1.6,1.9
	c-0.2,1.5,0.7,3.1-0.8,4.6c1.3-0.1,2.2-0.5,3.1-0.4c0.1-1.1-1.3-1.1-1.2-2.2c1.1-0.4,2.3-0.4,3.4-0.1c0.7,0.2,1.1,0.1,1.7-0.4
	c1-1.1,2.8-0.6,3.8-1.8c0.1-0.2,0.7-0.1,0.9,0c1.6,1.1,2.6,0.1,3.5-1.1c0.4-0.8,1.1-1.1,1.9-1.2c0.2,0,0.4,0.1,0.6,0.3
	c0.6,1.1-0.5,1.8-0.7,2.7c0.9-1.7,1.8-3.4,4-3.6c0.4-0.2,0.9-0.3,1.3-0.5c1.1-0.6,1,0.3,1.3,0.9c1.2-0.5,2.4-1.3,3.8-1.3
	c-0.3,1.2-1.5,1.7-2.1,2.8c1.1-0.1,2-0.8,2.9-1c0.9-0.2,1.9-0.1,2.7,0.2c0,1.5-1.5,1-2.1,2.1c2.8,0.2,5.7-0.2,8,1.9
	c-0.9,1.1-2.1,0.7-3.4,0.9c1.8,1.9,3.5,3.8,2.9,6.5c-1.1,0-1.4-1.2-2.5-1.1c-0.5,1.3-1,2.8-2.3,4.1c-0.5-1.8-0.1-3.3,0.1-4.7
	c-0.6-0.2-0.9,0.1-1,0.6c0,0.6,0.1,1.3-0.6,1.7c-0.2-0.1-0.4-0.2-0.5-0.4c-0.2-0.3-0.2-0.9-0.6-0.9c-0.4,0-0.4,0.6-0.6,0.9
	c-0.1,0.2-0.3,0.3-0.5,0.3c-1-0.6-1.9-1.5-3-0.1c-0.4-1-0.3-2-1.1-3c-1-1.3-0.5-2.5,1.3-3.3c0.3-0.1,0.7-0.2,0.6-0.6
	c0-0.6-0.5-0.4-0.9-0.4c-1.3,0-2.5,0-3.8,0c-0.1,0.7,0.8,0.7,0.9,1.4c-1.2,0.4-2.5,1.2-3.7,0.8c-2.5-0.7-3.4,0.9-4.3,2.6
	c-0.9-0.1-1.1-0.7-1-1.4c0.4-0.4,0.8-0.9,1-1.7c-0.6,0.6-0.5,1.3-1,1.7C41.7,69.5,40.9,70.3,39.7,70.7z"/>
<path class="st2" d="M55.5,89.4c1.9,3.5,3.7,7,5.6,10.5c0.9,1.8,0.9,1.8,2.7,1.1c2.3-0.9,4.6-0.1,5.8,1.9c1.1,1.9,0.8,4.7-1.2,6
	c-1.1,0.7-1.1,1.4-0.8,2.4c0.3,1,0.5,2,0.8,3c0.1,0.6,0.1,1.3,0.4,1.8c0.4,0.6,1.2,0,1.8,0.1c1.5,0.2,2.4,1.7,1.7,3
	c-0.5,0.9-0.9,1.7-0.6,2.8c0.2,0.9-0.3,1.7-1.1,2.1c-0.9,0.5-1.9,0.7-2.7-0.1c-0.7-0.7-1.3-0.9-2.3-0.7c-1.2,0.3-2.1-0.3-2.7-1.5
	c-0.5-1.1-0.4-2.1,0.5-2.8c1-0.8,0.7-1.4,0-2.1c-0.6-0.6-1.1-1.3-1.7-2c-0.5-0.5-0.6-1.4-1.3-1.7c-0.7-0.3-1.2,0.6-1.9,0.8
	c-1.8,0.6-4.1-0.1-5.1-1.6c-1-1.4-1.3-3.7,0.2-5.3c0.7-0.8,1.4-1.5,2.4-1.9c0.9-0.3,0.4-0.9,0.4-1.4c0.7-1.5,1.5-2.9,3.8-2.8
	c-1.6-3.3-3.4-6.2-4.8-9.3C55,91.1,53.8,90.1,55.5,89.4z"/>
<path class="st3" d="M26.1,103.2c-0.7,1-0.7,1.7,0.6,2.3c2.4,1.2,3.3,3.8,2.1,6c-1.1,2.3-4,3.2-6.4,1.8c-1.3-0.8-1.7-0.3-2.3,0.7
	c-0.6,1-1.3,2-2,2.9c-0.6,0.8-0.6,1.2,0.1,2c1.3,1.5,1.1,3.2-0.3,4.1c-1.1,0.8-2.3-0.2-3.1,0.2c-0.8,0.4-1.1,1.7-2.3,1.8
	c-1.6,0.1-2.6-1-2.2-2.6c0.1-0.5,0.4-1,0.6-1.5c-0.5-0.9-1.7-0.9-1.9-2.1c-0.2-2,1.2-3.4,3.3-2.9c1,0.2,1.3-0.1,1.5-0.8
	c0.3-1,0.5-2,0.9-3c0.7-1.6,0.7-2.6-1-3.7c-1.8-1.1-2.1-3.8-1.1-5.6c1-1.8,3.2-2.7,5.4-2c0.9,0.3,1.8,1,2.4-0.3c0.5-0.1,1.1,0,1.6,0
	c1.8-0.1,2.1,0.4,1.7,2.4c-0.3,0.3-0.7,0-1.1,0.2c0,0,0.2,0.1,0.3,0.2c0.6,0.5,0.5-0.3,0.7-0.4C25.6,102.5,25.6,102.5,26.1,103.2z"
	/>
<path class="st4" d="M26.1,103.2c-0.2-0.3-0.5-0.3-0.7-0.1c-0.6,0.6-1.1,0.3-1.7,0l-0.1-0.1c-0.2-1.8-0.2-1.9-1.8-1.7
	c-0.6,0.1-1-0.2-1.4-0.7c1-2.6,2.6-4.9,3.9-7.4c2.5-4.7,5.1-9.4,7.4-14.2c1-2.1,2.7-2.5,4.6-2.9c0.4-0.1,0.8,0,1,0.5
	c0.6,1.7,1.3,3.3,0.2,5.2c-2.5,4.5-4.9,9.2-7.3,13.7C28.9,98.2,27.5,100.7,26.1,103.2z"/>
<path class="st5" d="M26.6,33.5c2.4,4.5,4.8,9,7.1,13.5c1.4,2.7,2.8,5.4,4.2,8c0.5,0.9,0.8,1.7,0.6,2.7c-0.2,1.2-0.2,2.5-1.3,3.2
	c-0.6,0.4-3.8-1.4-4.2-2.2c-4-7.8-8.1-15.5-12.1-23.3c0.1-0.5-0.1-1.4,0.5-1.4c1.3,0.1,1.9-0.7,2.7-1.5C25.4,31,25.7,33.2,26.6,33.5
	z"/>
<path class="st6" d="M47.4,60.5l-0.2,0l-0.2,0c-0.8,0.1-1.6,0.8-2.4-0.1c-1.2-2.3-0.9-4.4,0.4-6.7C48.8,47,52.3,40,56,33.1
	c0.4-0.7,0.9-1.3,0.7-2.2c2.1,0.1,1.9,1.9,2.5,3c0.6-0.9,1.6-1.1,2.3-0.6c0.9,0.5,0.3,1.4-0.1,2.1c-1.9,3.8-4.1,7.4-5.8,11.2
	c-0.4,0.8-1,1.5-0.9,2.4c-1.1,2.8-2.8,5.3-4.1,8c-0.2,0.5-0.5,1-0.7,1.5C49.5,59.9,48.8,60.6,47.4,60.5z"/>
<path class="st7" d="M26.6,33.5c-1.4,0.9-0.7-1.5-1.9-1c-0.5,0.1-0.5,0.6-0.7,1.1c-0.4,0.8-1.1,1.3-1.9,1c-1.1-0.4-0.8,0.7-1.3,0.9
	c-0.4-0.8-0.6-1.4-1.9-0.8c-3.1,1.5-6.1-0.1-6.6-3.1c-0.2-1.8,0.3-3.3,1.8-4.4c0.9-0.6,1.1-1.1,0.7-2.2c-0.5-1.4-0.8-2.9-1.2-4.3
	c-0.5-0.4-0.8,0.1-1.1,0.2c-1.4,0.5-2.6,0.1-3.1-0.9c-0.5-1-0.2-2.4,1-3.1c0.8-0.5,0.9-0.8,0.6-1.6c-0.5-1.5,0.3-2.7,1.6-3.2
	c1.3-0.5,2.1-0.1,3,1.7c1.4,0.9,1.9,2.6,2.8,3.9c-0.4,0.2-0.8,0.5-0.4,0.9c1.2,1.2,2.2,2.5,3.2,3.8c0.5,0.6,0.9,0.7,1.6,0.3
	c0.9-0.4,2-0.7,3-0.5c1.9,0.3,3.4,1.7,3.8,3.5c0.4,1.7-0.4,3.6-2.1,4.7c-0.6,0.4-1.3,0.6-1.9,1C26,32,26.3,32.7,26.6,33.5z"/>
<path class="st8" d="M54.7,49.1c-0.7-0.8,0.1-1.3,0.4-1.9c1.9-3.8,3.9-7.6,5.8-11.4c0.3-0.6,0.9-1.2,0.6-2.1c-0.8,0.2-1.7,0-2.4,0.8
	c-0.6-1.3-1.1-2.6-2.2-3.5c-2.7-1.2-3.7-3.2-2.8-5.6c1-2.6,3.3-3.7,6-2.6c1.2,0.5,1.9,0.4,2.4-0.8c0.3-0.6,0.8-1.2,1.2-1.7
	c0.4-0.5,0.9-1,1-1.6c0.2-0.8-0.8-0.9-1.1-1.4c-0.5-0.9-0.7-1.8-0.1-2.7c0.6-1,1.5-1.5,2.6-1.1c0.9,0.4,1.3,0.2,2-0.6
	c0.9-1.1,2.2-1.2,3.2-0.5c1,0.7,1.1,1.8,0.2,3.1c-1.1,1.5,1,1,1,1.7c0.8,1.6-1.5,0.3-1.3,1.4c0,0.9,2.1-0.4,1.3,1.3
	c-0.8,1.3-2,0.9-3.3,0.6c-0.4,1.3-0.7,2.6-1.2,3.9c-0.5,1.2-0.5,1.9,0.8,2.7c1.7,1,2.2,3.1,1.7,4.8c-0.6,1.8-1.8,2.9-3.8,3.2
	c-1,0.2-1.9-0.1-2.8-0.6c-0.9-0.5-1.2-0.2-1.6,0.6c-2.3,4.5-5,8.9-7.1,13.6C54.9,48.8,54.8,48.9,54.7,49.1z"/>
<path class="st9" d="M55.5,89.4c-0.7,0.5-0.3,1,0,1.4c1.3,2.5,2.6,5.1,4,7.6c0.5,1,1,2.1,1.5,3.1c-0.5,0.5-0.9,0.2-1.3,0.1
	c-0.9-0.1-1.8-0.1-2,1c-0.2,0.8-0.9,0.7-1.3,1.2c-2.9-5.5-5.7-11-8.6-16.4c-1-2-2-4-3.1-5.9c-0.9-1.7-0.2-3.2,0.2-4.8
	c0.1-0.6,0.7-0.6,1.2-0.4c1,0.3,2,0.4,2.9,1c0.3,0.7,0.7,1.4,1.4,1.8c0.3,0.3,0.5,0.6,0.5,1.1c1,3,2.4,5.7,4.3,8.1
	C55.5,88.6,55.5,89,55.5,89.4z"/>
<path class="st10" d="M18.5,17.6c-1.1-0.6-2.2-1.3-2.1-2.8c0-0.6-0.7-0.6-0.7-1.1c0.4,0,0.8-0.1,1.1-0.1c1.6-0.4,2.4-0.1,2.9,1
	C20.3,15.8,19.9,16.6,18.5,17.6z"/>
<path class="st11" d="M42.6,68.7c0.3,0.5,0.3,1.2,0.9,1.5c-1.6,1.7-2,1.8-3.8,0.5C40.2,69.4,41.3,68.8,42.6,68.7L42.6,68.7z"/>
<path class="st2" d="M55,88.3c-0.2,0.3-0.6,0.4-0.7,0c-1.3-2.5-2.6-5.1-3.9-7.6c0-0.1,0.2-0.4,0.4-0.5C52.3,82.9,53.8,85.5,55,88.3z
	"/>
<path class="st12" d="M47.4,60.5c0.7-0.8,2.1-0.8,2.5-1.9c0,0.7,0.4,1,1.1,1.1c-2.2,1-3.2,3.4-5,4.9C46.2,63.1,47.6,62.1,47.4,60.5z
	"/>
<path class="st13" d="M54.7,72.6c0.7-0.5-0.1-2,0.8-1.9c0.7,0.1,1.8,0.6,2.1,1.7c0,0.1,0.3,0.1,0.4,0.2l0.1,0.2L57.9,73
	C56,74,56,74,54.7,72.6z"/>
<path class="st14" d="M72.2,19.8c-0.2-1-0.5-0.3-0.9-0.1c-1,0.4-1.3,0.2-1.2-0.9c0-0.2,0.1-0.5,0.2-0.7c0.2-1.1,0.6-1.4,1.5-0.5
	c0.2,0.2,0.3-0.3,0.4-0.4C73.1,18.1,73,19,72.2,19.8z"/>
<path class="st12" d="M44.6,60.5c0.8,0.3,1.6-0.4,2.4,0.1c-0.6,0.5-1.2,0.9-1.9,1.1C45,61.2,44.8,60.9,44.6,60.5z"/>
<path class="st2" d="M50.3,79.2c-0.9-0.1-1.4-0.8-1.4-1.8C49.8,77.6,50,78.4,50.3,79.2z"/>
<path class="st1" d="M57.9,73c0-0.1,0.1-0.2,0-0.4c0,0,0,0,0,0c0.6-0.5,1.3-0.5,1.9,0c0,0,0.2,0.2,0.2,0.2
	C59.4,73.5,58.6,73.1,57.9,73z"/>
<path class="st15" d="M23.2,65.2c2.2,2,2.2,2,0.4,2.6c0,0.8,1,1,1.1,1.7c-0.1,0.1-0.2,0.3-0.3,0.3C22.1,68.7,21.8,67.8,23.2,65.2z"
	/>
<path class="st16" d="M39.6,65c0,0.3-1.3,1.9-1.6,1.9c-0.5-0.1-0.9-0.5-0.9-1c0.1-0.8,0.5-1.5,1.5-1.5C39.1,64.4,39.4,64.6,39.6,65z
	"/>
<path class="st17" d="M55.1,67c0.7,0.2,0.6,0.7,0.4,1.1c-0.4,0.6,0.5,1.6-0.7,1.8c-0.6,0.1-1.3-0.8-1.1-1.5
	C53.9,67.7,54.3,67.1,55.1,67z"/>
<path class="st18" d="M31.4,69.7c-1.9,0.3-1.9,0.3-3.6-1.3c0.8-0.6,0.8-0.6,1.4,0.2C29.7,69.5,30.7,68.8,31.4,69.7z"/>
<path class="st19" d="M42.6,68.7c0-0.7,0-1.4,0-2.1c0-0.3,0.1-0.6,0.5-0.7c0.4-0.1,0.7,0.1,0.9,0.5C44.8,67.5,44.3,68.2,42.6,68.7
	C42.6,68.7,42.6,68.7,42.6,68.7z"/>
<path class="st20" d="M58.9,66.2c-0.1,0.7-0.5,0.9-0.8,0.6c-0.5-0.5-1.6,0.6-1.6-0.7c0-0.7,0.6-1.1,1.3-1
	C58.5,65.1,58.9,65.6,58.9,66.2z"/>
<path class="st13" d="M59.8,72.6c-0.6,0-1.3,0-1.9,0c0-0.3,0-0.6,0-0.9c0-0.8,0.6-1.1,1.2-1.1c0.8,0,0.8,0.7,0.8,1.3
	C59.9,72.2,59.9,72.4,59.8,72.6z"/>
<path class="st21" d="M39.7,69.3c0,0.4-0.2,0.6-0.6,0.7c-0.7,0.1-1.2-0.2-1.6-0.8c-0.2-0.4-0.2-0.7,0.1-1.1c0.4-0.4,0.7-0.3,1,0.1
	C38.9,68.7,39.6,68.7,39.7,69.3z"/>
<path class="st22" d="M25.9,65.7c-1.6-0.2-2.1-0.7-1.7-1.7c0.1-0.3,0.3-0.6,0.7-0.6c0.4,0,0.6,0.2,0.6,0.5
	C25.6,64.5,25.7,65.1,25.9,65.7L25.9,65.7z"/>
<path class="st23" d="M41.4,64.6c-0.3-0.4-1,1.1-1.1-0.2c-0.1-0.7,0.5-1.1,1.2-1.1c0.7,0,1.3,0.4,1.1,1.1
	C42.4,65.5,41.8,64.7,41.4,64.6z"/>
<path class="st24" d="M25.8,65.7c0.3,0.2,0.7,0.4,1,0.5c0.3,0.1,0.8,0,0.8,0.6c0,0.4-0.2,0.6-0.5,0.7c-0.4,0.2-0.8,0.2-1.1-0.1
	C25.5,66.9,25.9,66.3,25.8,65.7C25.9,65.7,25.8,65.7,25.8,65.7z"/>
<path class="st25" d="M29.7,64.4c0.6,1.4,0.6,2-0.3,2.4c-0.4,0.2-0.9,0-1-0.4C28.3,65.4,29.4,65.5,29.7,64.4z"/>
<path class="st26" d="M59.8,68.6c-0.2-0.4-0.3-0.8,0.3-0.9c0.7-0.1,1,0.4,1,1c0,0.6-0.4,1.1-1.1,1C59.3,69.6,60.1,69,59.8,68.6z"/>
<path class="st27" d="M66.1,108.4c-0.2-1.4,0.9-2.7,0-3.8c-0.7-0.9-2.3-0.4-2.9-1.7c0.9-1.2,2.2-1.2,3.4-0.6
	c1.3,0.7,2.3,1.6,2.2,3.3C68.8,107.3,67.7,107.9,66.1,108.4z"/>
<path class="st28" d="M59,111.9c-0.7,1.2-1.9,1.4-3.1,0.9c-1.1-0.4-1.8-1.3-2-2.5c-0.2-1.3,0.6-3,1.7-3.5c0.6-0.3,1.1-0.2,1.1,0.6
	c0,0.4-0.1,0.8-0.3,1.1c-1,1.9-0.9,1.9,1.1,2.6C58,111.3,58.6,111.2,59,111.9z"/>
<path class="st29" d="M60.3,109.4c0.1-0.8,0.5-1.4,1-1.9c0.7-0.7,1.2-0.5,1.8,0.1c0.7,0.8,0.3,1.3-0.3,1.7
	C62,109.9,61.2,109.8,60.3,109.4z"/>
<path class="st30" d="M65.1,119.4c0.2,0.8,0.3,1.5,0.8,2.1c0.2,0.3,0.4,0.6,0,0.8c-0.2,0.2-0.6,0.2-0.9,0.2c-0.7,0-1.1-0.5-1.3-1.2
	C63.5,120.4,63.9,119.8,65.1,119.4z"/>
<path class="st31" d="M70.7,122.1c-0.1,0.8-0.4,1.5-1.4,1.5c-0.6,0-1.1-0.3-1.2-0.9c-0.1-0.3,1.6-1.7,2-1.6
	C70.5,121.2,70.6,121.6,70.7,122.1z"/>
<path class="st32" d="M71.5,118.3c0,0.7-0.2,1.1-0.7,1.3c-0.2,0.1-0.9,0.4-0.6-0.4c0.1-0.2,0-0.4,0-0.7c0-0.5-0.8-0.9-0.2-1.5
	c0.1-0.1,0.3-0.1,0.4,0C71.1,117.3,71.4,117.8,71.5,118.3z"/>
<path class="st33" d="M64.3,109.6c0.3,1.2,0.1,1.9-0.7,2.2c-0.8,0.3-1.5,0.1-2.2-0.9C62.7,110.9,64.1,111.7,64.3,109.6z"/>
<path class="st34" d="M65.1,107.6c-0.9-1-0.9-2.3-2-3C65.2,105.1,65.3,105.2,65.1,107.6z"/>
<path class="st35" d="M58,106.7c0.3,1.5,0.5,2.7,1.8,3.7C57.5,109.6,57.4,109.3,58,106.7z"/>
<path class="st36" d="M68.4,119c0.3,0.1,0.4,0.3,0.4,0.5c-0.1,0.8-0.5,1.1-1.2,1c-0.2,0-0.5-0.3-0.5-0.4
	C67.2,119.3,67.8,119.1,68.4,119z"/>
<path class="st37" d="M24.9,106.6c2.2,0.2,2.3,0.2,2.7,2.1c0.4,1.7,0,3.1-1.1,3.7c-1.4,0.8-2.7,0.6-4.2-0.7c0.5-0.7,1.3-0.8,2-0.9
	c1.5-0.2,1.8-0.7,1.1-2C25.1,108.2,25.1,107.5,24.9,106.6z"/>
<path class="st38" d="M18.7,103.2c-0.9,0.5-1.7,0.9-2.5,1.3c-0.8,0.4-1.3,0.9-0.5,1.8c0.3,0.3,0.4,0.7,0.3,1.1
	c-0.1,0.3-0.3,0.6-0.7,0.5c-0.7,0-2.1-1.6-1.9-2.2c0.3-1.3,0.8-2.6,2-3.3C16.5,101.9,17.6,102.2,18.7,103.2z"/>
<path class="st39" d="M18.4,106.6c1.2,0.4,2.2,0.9,2.8,1.7c0.8-0.1,0.3-1.2,1.2-1.1c0.4,0.9,0.3,1.6-0.6,2.2
	c-0.9,0.6-1.8,0.7-2.7,0.1C18.2,108.8,18.1,107.8,18.4,106.6z"/>
<path class="st40" d="M12.6,122.2c0.5,0.2,1.2,0,1.2,0.8c0,0.8-1,1.7-1.7,1.6c-0.7-0.1-1.1-0.7-1-1.3
	C11.1,122.3,11.9,122.2,12.6,122.2z"/>
<path class="st4" d="M23.7,103.2c0.1,0.5,0.2,0.9,0.4,1.9c-0.9-1.3-2.3-0.8-3.1-1.8C21.9,102.2,22.8,102.7,23.7,103.2
	C23.6,103.1,23.7,103.2,23.7,103.2z"/>
<path class="st41" d="M17.2,122.7c-0.8,0-1-0.1-1-0.5c0-0.5,1-1.8,1.5-1.8c0.4,0,0.5,0.2,0.6,0.6C18.3,121.9,17.6,122.7,17.2,122.7z
	"/>
<path class="st42" d="M11.5,117c0.1,0.3,0.2,0.4,0.2,0.5c0.1,0.8-0.1,1.6-0.9,2c-0.1,0-0.5-0.2-0.5-0.4C9.9,118,10.6,117.5,11.5,117
	z"/>
<path class="st43" d="M14.6,120.5c0,0.4-0.4,0.3-0.6,0.4c-0.7,0-1-0.3-0.9-1c0-0.3,0.1-0.6,0.5-0.5
	C14.1,119.5,14.5,119.8,14.6,120.5z"/>
<path class="st44" d="M25,29.6c0.3-1,0.6-1.7,0.9-2.4c0.3-1.2,0.1-1.6-1.1-1.8c-0.4-0.1-0.8,0-1.2-0.2C23,25,22.8,24.6,23.3,24
	c0.8-0.9,1.8-1.2,2.6-0.3c0.6,0.6,0.7-0.2,1.1,0c1.3,0.7,2.1,3.3,1.2,4.5C27.5,29,26.7,29.8,25,29.6z"/>
<path class="st45" d="M23.1,28.6c0,1.1-1.2,2.3-2.3,2.4c-1.2,0-2.4-1.4-2.3-2.5c0.1-1.3,1.1-2.2,2.4-2.2
	C22,26.3,23.1,27.5,23.1,28.6z"/>
<path class="st46" d="M19.1,32.9c-1,1.3-2.4,1.4-3.8,0.9c-0.9-0.4-1.7-1.1-1.7-2.3c0-1.8,0.7-3,2.5-3.7c0,0.8-0.1,1.5-0.3,2.1
	c-0.7,1.8-0.3,2.3,1.7,2.4C18,32.3,18.6,32.3,19.1,32.9z"/>
<path class="st47" d="M19.9,22.4c-0.9,0.1-1.9,0.1-2.8,0.2c0.1,0.6,1.1,0.1,1.1,0.8c-2,0.7-2,0.7-3-1.7c1.7-0.5,3.3-0.5,4.8,0.2
	C19.9,22.1,19.9,22.3,19.9,22.4z"/>
<path class="st48" d="M12.7,19.3c-0.1,0.8-0.5,1.1-1.1,1.1c-0.9,0-1.7-0.8-1.7-1.6c0-0.7,1-1.7,1.7-1.6
	C12.8,17.4,11.7,18.9,12.7,19.3z"/>
<path class="st49" d="M14.7,13.5c-0.3,0.8-1.1,0.9-1.7,1.3c-0.4,0.2-0.8,0.5-1.3,0.1c-0.1-0.2-0.3-0.4-0.3-0.6
	c0.1-0.7,0.6-1.1,1.1-1.4c0.6-0.4,1.2-0.3,1.8,0.1C14.5,13.1,14.6,13.3,14.7,13.5z"/>
<path class="st47" d="M21.1,24.8c-1.2,0.7-2.2,0.6-2.9,1.5C18.3,24.3,18.6,24.1,21.1,24.8z"/>
<path class="st47" d="M17.4,25c-0.2,0.4-0.2,1.1-1,1.1c-0.4,0-0.3-0.4-0.4-0.7c0-0.5,0.2-0.9,0.8-0.9C17.2,24.4,17.3,24.7,17.4,25z"
	/>
<path class="st50" d="M65.4,27.1c3,0.9,3.7,1.6,3.7,3.3c0,2-0.9,3.2-2.9,3.6c-1.4,0.3-2.3-0.3-3.1-1.9c0.7-0.5,1.3-0.6,2.2-0.4
	c1.3,0.2,1.9-0.7,1.2-1.7C65.9,29.2,66.1,28.3,65.4,27.1z"/>
<path class="st51" d="M60.1,24c-0.4,1-1.2,1.2-1.9,1.5c-1.8,0.6-2,0.8-0.9,2.3c0.5,0.7-0.1,1.3,0.2,2c-1.8,0-2.6-1.2-2.9-2.5
	c-0.4-1.3,0.2-2.5,1.2-3.4C57.1,22.8,58.5,23.1,60.1,24z"/>
<path class="st52" d="M64.3,28.2c-0.1,0.9-1.4,2-2.4,2c-1.1,0-2.1-1.3-2-2.5c0.1-1.1,1.3-1.9,2.4-1.8C63.4,26,64.3,27.1,64.3,28.2z"
	/>
<path class="st53" d="M64,22.8c-0.1-0.3,0-0.7-0.2-0.9c-0.7-1,0.5-0.6,0.7-1c0.3-0.6,0.8-0.5,1.1-0.1c0.6,0.9,1.3,1.8,1.1,3.3
	C66,23,65.2,22.4,64,22.8L64,22.8z"/>
<path class="st54" d="M64.8,17c-0.2-0.1-0.4-0.1-0.6-0.3c-0.8-0.7-0.6-2.2,0.4-2.6c0.6-0.2,1.1-0.1,1.5,0.4c0.4,0.5-0.2,0.7-0.4,0.9
	C65.2,15.8,65.7,16.7,64.8,17z"/>
<path class="st55" d="M69.5,12.7c0.8,0,1.2,0.5,1.3,1.3c0,0.5-0.3,0.7-0.8,0.7c-0.7,0-1.6,0-1.8-0.8C68.2,13.3,68.8,12.8,69.5,12.7z
	"/>
<path class="st56" d="M61.8,32.3C60,33,59.4,32.6,59.2,31C60,31.4,60.7,31.7,61.8,32.3z"/>
<path class="st57" d="M69,17.7c-0.8-0.6-1.3-1-1.8-1.4c0.2-0.4,0.5-0.6,0.8-0.5C69,15.9,69.3,16.5,69,17.7z"/>
<path class="st58" d="M62.4,24.8c1.4-0.8,1.8-0.2,2.2,1.2C63.8,25.5,63.2,25.2,62.4,24.8z"/>
<path class="st53" d="M64,22.7c-0.3,0.7-0.9,0.7-1.7,0.8C62.7,22.5,63.1,22.1,64,22.7C64,22.8,64,22.7,64,22.7z"/>
</svg>
