<?xml version="1.0" encoding="utf-8"?>
<!-- Generator: Adobe Illustrator 23.1.1, SVG Export Plug-In . SVG Version: 6.00 Build 0)  -->
<svg version="1.1" id="Livello_1" xmlns="http://www.w3.org/2000/svg" xmlns:xlink="http://www.w3.org/1999/xlink" x="0px" y="0px"
	 viewBox="0 0 80 135" style="enable-background:new 0 0 80 135;" xml:space="preserve">
<style type="text/css">
	.st0{fill:#FFFFFF;stroke:#000000;stroke-width:0.2509;stroke-miterlimit:10;}
	.st1{fill:#4D4C40;}
	.st2{fill:#51524B;}
	.st3{fill:#444949;}
	.st4{fill:#455365;}
	.st5{fill:#454949;}
	.st6{fill:#424E67;}
	.st7{fill:#495670;}
	.st8{fill:#4A5673;}
	.st9{fill:#505A73;}
	.st10{fill:#555344;}
	.st11{fill:#7D8A66;}
	.st12{fill:#999F76;}
	.st13{fill:#B5BD8E;}
	.st14{fill:#6D7860;}
	.st15{fill:#889085;}
	.st16{fill:#B4BC9F;}
	.st17{fill:#C9CDB3;}
	.st18{fill:#B09E40;}
	.st19{fill:#C3B254;}
	.st20{fill:#D7DDB8;}
	.st21{fill:#99956A;}
	.st22{fill:#BCC195;}
	.st23{fill:#ABB393;}
	.st24{fill:#929B87;}
	.st25{fill:#D7CC4E;}
	.st26{fill:#998B4E;}
	.st27{fill:#F7F7F6;}
	.st28{fill:#EDEFEA;}
	.st29{fill:#909C8E;}
	.st30{fill:#8F8A47;}
	.st31{fill:#998F45;}
	.st32{fill:#968B45;}
	.st33{fill:#8B843F;}
	.st34{fill:#A3954F;}
	.st35{fill:#D9C93A;}
	.st36{fill:#E5D937;}
	.st37{fill:#EBEDEC;}
	.st38{fill:#E4D141;}
	.st39{fill:#A39343;}
	.st40{fill:#BDB854;}
	.st41{fill:#BDB06D;}
	.st42{fill:#C2AF59;}
	.st43{fill:#BDB16B;}
	.st44{fill:#BBA95D;}
	.st45{fill:#C8C162;}
	.st46{fill:#F3F3E5;}
	.st47{fill:#DAD361;}
	.st48{fill:#F5F6F5;}
	.st49{fill:#90874A;}
	.st50{fill:#FFFFFF;}
	.st51{fill:#CDB95A;}
	.st52{fill:#EADC3D;}
	.st53{fill:#C3B36A;}
	.st54{fill:#E4D86E;}
	.st55{fill:#DAD556;}
	.st56{fill:#D2D7B1;}
	.st57{fill:#DEDED9;}
	.st58{fill:#E8E7E6;}
	.st59{fill:#E5E7E0;}
	.st60{fill:#DBDADB;}
	.st61{fill:#F1F1F1;}
	.st62{fill:#D8DCDA;}
	.st63{fill:#CFD2C2;}
	.st64{fill:#E0DEDF;}
	.st65{fill:#948C43;}
	.st66{fill:#EEDE36;}
	.st67{fill:#E4DC4A;}
	.st68{fill:#CCB963;}
	.st69{fill:#E8E156;}
	.st70{fill:#C4BB70;}
	.st71{fill:#E1D142;}
	.st72{fill:#D5C06B;}
	.st73{fill:#D6D5B1;}
</style>
<path class="st0" d="M71.5,135h-63c-4.7,0-8.5-3.8-8.5-8.5V8.5C0,3.8,3.8,0,8.5,0h63C76.2,0,80,3.8,80,8.5v118
	C80,131.2,76.2,135,71.5,135z"/>
<path class="st1" d="M48,59.9c0-0.3,0.2-0.4,0.4-0.5c-0.1-1.8,0.9-2.2,2.5-1.9c0.3,0.1,0.7,0.3,1,0.4c1.3,0,2.5,0,4.1,0
	c-1.5,1.2-3.1,0.7-4.8,1c1.6,1.5,2.8,3,1.4,5.2c2.3,0.4,4.5,0.8,6.6,1.2c0.7,0.1,1.1-0.1,1.2-0.8c0.1-0.9,0.7-1.4,1.5-1.8
	c-0.4-0.4-0.9-0.6-1-1c-0.3-0.8-0.7-1.2-1.5-1.5c-1.7-0.7-1.8-2.4-0.2-3.3c1.1-0.6,1.1-1.2,0.8-2.1c-0.9-2.2-1-4.5-1.3-6.9
	c-1.3,0.1-2.7,0.3-3.9-0.4c-0.6-0.3-0.4-1.1-0.8-1.5c-0.3-1.3,0.1-2.5,1-3.4c0.3-0.1,0.6-0.2,0.8-0.4c1.1-0.5,2.1,0,3.3,0.3
	c0.8-3.5,0.1-7,0.5-10.4c1.7,1.3,1.6,1.4,1.1,3.4c-0.3,1.1,0.3,2.3-0.1,3.6c0.9-0.7,1.8-0.7,2.6-0.2c1,0.5,2,1.1,2.3-1.2
	c1.1,1.8,0.2,3.2,0.9,4.4c0.5-0.1,1.1-0.3,1.6-0.4c1.9-0.2,3.5,1.1,3.6,3c0.2,1.7-1.2,3.1-3.1,3.3c-1.9,0.1-1.8,0.1-2.1,2
	c-0.2,1.7-0.6,3.3-1.2,4.9c-0.4,1-0.4,1.4,0.8,2c1.6,0.8,1.6,3,0,3.5c-1.4,0.4-2.1,1.5-3.3,2.2c0.5,0.6,1.6,0.8,1.7,1.7
	c0.1,0.8,0.6,0.9,1.2,1.1c1.5,0.5,2.2,2.9,0.9,3.6c-1.5,0.8-1.9,2.4-3.4,3.2c1.1,0.8,1.7,2,3.1,2.7c1.5,0.7,1.1,3-0.7,3.7
	c-1,0.4-1,0.6-0.7,1.5c0.8,2.3,1.2,4.6,1.5,7.1c1.8,0,3.8-0.3,4.7,1.7c0.5,1,0.6,2-0.4,2.8c-0.6-0.4-1.3-0.5-1.1-1.5
	c0.2-0.6-0.3-1.1-1-1c-0.9,0.1-0.8,0.9-0.8,1.5c-0.1,0.7,0.3,1,1,0.9c0.6-0.1,1.3-0.3,1.8,0.2c-0.9,2.2-2.6,1.7-4.5,1.3
	c-0.5,1,0,2-0.3,3c-0.8-0.1-1.6-1.4-2.6,0c-1.2,1.8-1.4,1.7-2.5-0.4c-0.1-0.2-0.2-0.4-0.3-0.6c-0.2-0.6-0.9-0.7-1.4-1.1
	c-0.1-0.4-0.1-0.8-0.3-1.4c-1.5,0.4-3,0.5-3.6,2.4c-0.2,0.8-0.4,1.3,0.2,2.1c0.9,1,0.9,2.5,1.2,3.7c0.3,1-0.9,1.8-1.8,2.3
	c-1,0.6-2.2,0.7-2.5,2.2c-0.1,0.7-2,0.9-2.5,0.3c-0.5-0.6-1.6-1.2-0.6-2.2c0.4-0.5,0.6-0.8,0.2-1.4c-1.4-2.5-1.9-5.4-3.8-8
	c1.1,0.1,1.6,0.4,1.9,1.1c0.7,1.3,1.5,2.6,2.3,3.9c0.3,0.6,0.6,0.7,1.1,0.3c0.4-0.3,1.2-0.8,0.7-1.3c-1.8-1.7-1.7-4-2.5-6.1
	c0-0.1-0.2-0.2-0.3-0.3c0.6-1.1,0.8-1.1,2.1,0c1.6,2.5,1.6,2.5,3.8,0.8c1.1-0.5,2.3-0.9,2.1-2.5c-0.1-0.6-0.2-1.2-0.9-1.2
	c-0.7,0-0.9,0.5-1.1,1.1c-0.3,0.9,0.5,1.9-0.2,2.8c-1.1,0.2-1.5-0.6-1.9-1.4c-0.2-0.8-0.2-1.5,0.1-2.3c0.5-1,1.2-1.6,2.2-2
	c0.6-0.2,1.1-0.2,1.7-0.2c0.4,0,0.8,0,1.2-0.2c0.6-0.5,0.3-1.2,0.4-1.8c0-0.9,0.3-1.7,0.5-2.6c0.4-1.5,0.7-2.7-1.1-3.9
	c-1.3-0.9-0.9-2.5,0.3-3.5c1-0.8,2.1-1.5,2.8-2.6c-0.8-0.5-1-1.8-2.2-1.6c-1.7,0.3-3.5,0.4-5.1,1.2c-0.6,0.3-0.3,1-0.3,1.6
	c0,0.5,0,1-0.1,1.5c-1.2,2.7-2.6,3.3-5.1,2.2c-0.1-0.1-0.1-0.2-0.2-0.3c-1-1.3-1.7-2.6-1-4.3c0.2-0.6-0.1-1.1-0.5-1.5
	c-1.8-0.1-2.5-1.6-3.3-2.7c-0.6-0.9,0.2-1.6,0.8-2.3c0.7-0.8,1.6-0.9,2.5-1.1c0.5-0.7,0.5-1.4,0.4-2.2C46.9,61.5,47,60.5,48,59.9
	c0.7,0.5,0.1,1.3,0.4,2c1.9-1.3,2.3-1.1,2.6,1.8c-0.2,0.3-0.6,0.4-1,0.5c0.4-0.1,0.7-0.2,0.9-0.5c1-2.8,0.9-3-2.1-3.4
	C48.5,60.3,48.3,60.2,48,59.9z"/>
<path class="st2" d="M19.9,60.7c-0.7,0.3-0.5,1.1-0.8,1.6c-0.4,0.8-1.1,1.1-2,1.1c-0.8,0-1.4-0.4-1.6-1.2c-0.2-0.9-0.5-1.3-1.5-1.4
	c-0.9-0.1-1.3-0.9-1.3-1.8c-0.1-0.9,0.3-1.6,1.2-1.8c0.8-0.2,0.9-0.6,0.7-1.4c-0.7-2.4-1-4.8-1.3-7.2c-2.7,0.3-4-0.1-4.6-1.5
	c-0.5-1.2-0.2-2.4,0.9-3.5c0.9,1-0.3,2.8,1.5,3.5c-0.7-1.3-1-2.5,0.9-3.2c-0.9-0.3-1.8,0.4-2.4-0.3c0.6-1.4,1.8-1.2,2.8-0.9
	c1.3,0.4,1.5-0.3,1.4-1.3c0-1.3-0.5-2.6,0.1-3.9c-0.3-3.9-0.1-7.8-0.2-11.9c2,2,3.1,6.5,1.9,8.4c-0.5,0.9-0.9,1.4,0.1,2
	c0.1,0.1,0.1,0.3,0.2,0.4c0.4,0.7-0.5,1.9,0.4,2.2c0.8,0.2,1.6,0.7,2.7,0.8c0.1-3.9,0-7.8,0.1-11.7c0-1-0.5-2.3,1.1-2.8
	c0.1,5,0.1,10,0.2,15.1c0,0.5,0,1,0,1.4c0.1,1.5,0.1,1.3,1.5,1.4c1.9,0.1,2.7-0.9,3.3-2.4c0.3-0.8,0.6-1.6,1.3-2.3
	c0.2-0.2,0.4-0.6,0.4-0.8c-0.7-1.5,0.5-3.2-0.7-4.7c-0.4-0.5-0.2-1.1,0.3-1.5c0.6-0.6,1.3-1.2,2.1-1.5c0.6-0.1,0.8-0.5,0.7-1
	c-0.4-1.7,1-1.5,1.8-1.8c1.3-0.4,1.4,0.8,1.9,1.4c0.1,0.1,0.2,0.4,0.1,0.7c-0.8,4.5,0.6,9,3.8,12.1c0.5,0.5,0.9,0.8,0.7,1.6
	c-0.2,1.1,0.7,0.4,1.1,0.7c-0.9,1.8-2.3,2.1-4.9,1c-0.1,0-0.2,0-0.3-0.1c-0.2-0.2-0.3-0.4-0.3-0.6c0-0.5,0.2-1,0.5-1.3
	c1-1.1,0.7-2-0.2-2.8c-0.7-0.6-1.1-1.5-1.6-2.1c0.6,2.1-0.5,4.5,0.6,6.6c-1,0.9-2.3,0.2-3.3,0.8l0,0c-0.9,0.2-1.6-0.2-2.4-0.4
	c-0.3-0.1-0.4-0.2-0.4-0.5c0.1-0.2,0.3-0.3,0.5-0.4c0.5-0.2,1-0.3,1.5-0.6c0.1-0.1,0.3-0.2,0.3-0.3c0.5-0.8,0.5-1.8-0.2-2.1
	C27.8,40,27.3,41,27,41.7c-0.3,0.6,0.1,1.4-0.4,2c-0.4,0-0.6,0.1-0.5,0.5c0.7,3.6-1,5.2-4.6,4.3c-0.1,0-0.3,0-0.6,0
	c-0.4,2.4-0.4,5-1.1,7.4c-0.2,0.8,0.2,1,0.8,1.4c1.8,1.1,1.7,2-0.2,3.2c-0.6-0.3-0.2-0.8-0.4-1.2C19.9,59.8,20.1,60.3,19.9,60.7z"/>
<path class="st3" d="M38.1,99.9c-0.7,1-1.3,1.9-2,2.9c2.3,0.7,2.3,0.7,1.6,3c-0.2,0.6,0,1.4-0.8,1.6c-1.1,0.3-2.2,0.5-3.3,0.6
	c-0.6,0-0.5-0.7-0.6-1.1c-0.3-0.8-0.5-1.9-1.7-0.8c-0.2,0.1-0.5,0.3-0.6,0.2c-1.5-1.1-3.1-0.2-4.6-0.2c-0.4,0-0.8,0.1-1-0.4
	c-0.1-0.5-0.1-1,0.6-1c0.8,0,1-0.5,0.8-1.1c-0.4-2.1,0.9-3.2,2.5-3.7c1.1-0.4,1.4-1.1,1.4-2c0-2,0.6-4.1,0.3-6.1
	c-0.3-1.7-0.2-3.5-0.1-5.2c0.1-1.1,0-2.1-1.4-2.4c-0.9-0.2-1.1-1.4-2.2-1.2c0.2-1.1,1.1-0.7,1.7-0.6c0.7,0.1,1.3,0.5,2,0.5
	c0.5,0,0.9,0.1,1.4,0.3c0.7,0.5,0.6,1.2,0.8,2c0.8-1,0.6-2,0.2-3c-0.6-1.8,0.7-2.2,1.9-2.5c0.9-0.3,1.9-0.2,2.8,0.2
	c0.2,0.2,0.3,0.4,0.3,0.6c-0.1,0.2-0.3,0.3-0.5,0.4c-0.2,0.1-0.4,0.1-0.6,0.2c-0.4,0.1-0.8,0-0.9,0.5c0.6,0.7,1.2,1.6,2.3,0.6
	c0.2-0.3,0.5-0.4,0.8-0.5c1.9,0.1,3.8,0.5,5.6,1c-0.4-0.7-2.3-0.7-1.4-2.3c0.8-0.5,1.6-0.4,2.4-0.2c1.1,0.7,1.8,3.3,3.7,0.9
	c2.1,0.5,2.3,0.8,1.6,2.8c0.3,0.3,0.6,0,0.9-0.1c0.2-0.1,0.3-0.3,0.5-0.4c0.5-0.4,0.9-0.9,1.4-1.4c0.3-0.2,0.6-0.5,0.9-0.6
	c0.4-0.2,0.9-0.3,1.3-0.4c1.1,0,2.1,0.4,2.3,1.5c0.2,1.3-1,1.3-1.8,1.5c-3.2,2-6.6,3.1-10.4,2.8c-0.6,0-1.3-0.1-1.9-0.3
	c-1-0.4-1.5-0.1-1.9,1c-0.4,1.4-3.9,1.9-4.8,0.7c-0.6-0.7,0-1.3,0.3-2c0.4-0.8,0.2-1.5-0.7-1.7c-1-0.2-1,0.7-0.9,1.3
	c0.3,1.7-1,3.2-0.3,4.9c0.2,0.5,0.6,0.9,0.8,1.3c0,0.2,0,0.4,0,0.6c-0.1,0.7-0.2,1.5,0.3,2.1c0.1,0.2,0.2,0.3,0.3,0.5
	C38.9,96.8,38.1,98.4,38.1,99.9z"/>
<path class="st4" d="M46.6,64.8c-0.9,0.6-1.9,1.1-2.6,2c-0.4,0.5-0.8,1,0.1,1.6c1,0.7,1.2,2.2,2.5,2.6C37.4,71,28.1,71,18.9,71.2
	c-2.1,0-3.1-1.3-4.3-2.5c-0.2-0.2-0.2-0.6,0-0.9c1.1-1.3,2-2.8,4.1-2.8c3.6,0.1,7.2-0.1,10.8-0.1C35.2,64.9,40.9,64.8,46.6,64.8z"/>
<path class="st5" d="M43.8,41.2c-0.1-1-0.2-2.1-0.3-3.1c-0.1-1.3-0.1-2.5,1.2-3.4c0.8-0.6,0.8-1.1-0.2-1.5c-1.7-0.7-1.4-0.7-1.2-2.2
	c0.3-1.9,1.6-2.3,3.1-2.6c1-0.2,1.9-0.2,1.8,1.4c-0.1,1,0.7,1.1,1.5,0.6c0.4-0.2,0.7-0.6,1.1-0.9c0.4-0.3,0.8-0.6,1.3-0.2
	c0.5,0.3,0.9,0.9,0.6,1.4c-0.5,0.9,0,1.7,0.2,2.5c0.1,0.8,0.8,1.1,1.3,0.4c0.5-0.7,1-1,1.8-0.5c0.8,0.4,0.9,1.1,0,1.5
	c-1.3,0.6-2.1,2.1-3.7,2.1c-0.5,0-0.6,0.4-0.7,0.8C50.5,42,50,46.5,50.5,51c0.1,0.8,0.4,1.3,1.2,1.5c0.4,0.1,0.8,0.3,0.3,0.7
	c-1.4,1.3-2.4,0.6-3.3-0.8c0.9,2,0.7,3.5-1.8,3.8c-0.8-0.3-0.9-1-1.1-1.7c-0.2-3.9,0.8-7.9-0.9-11.3c-0.2,0.5,0.3,1.2,0.4,2.1
	c0.1,0.5,0.2,1-0.3,1.3c-0.7,0.3-1-0.2-1.2-0.7C43.1,44.3,44.5,42.8,43.8,41.2z"/>
<path class="st6" d="M61,95c0.7,0.4,0.4,1.5,1.2,2c0.6-1.8,0.6-1.8,2.9-2.6c0.5,0.4,0.1,1.3,0.8,1.6c0.1,0.1,0.1,0.3,0,0.4
	c-0.1,0.1-0.3,0.2-0.3,0.4c0,7.4-0.2,14.8,0.1,22.2c0,0.5-0.4,0.8-0.7,1.2c-0.9,0.9-1.2,2.4-2.5,2.6c-0.9,0.1-3.3-3.6-3.3-4.9
	c0-2.7-0.1-5.4,0-8.1c0-5.2,0.1-10.5,0.1-15.7C60.2,93.6,60.7,94.1,61,95L61,95z"/>
<path class="st7" d="M66.3,42.2c-1-1-0.1-2.3-0.6-3.4c-0.6,0.6,0,1.4-0.5,2c-0.6-0.2-0.9-0.8-1.5-1c-2-0.8-2-0.9-3.6,0.8
	c0-1.9,0-3.5,0-5.1c0-0.7,0.4-0.4,0.7-0.4c0.4-0.1,0.3-0.9,0.1-1c-1.2-0.2-0.5-1.6-1.4-2c-0.1-4.8-0.2-9.6-0.3-14.3
	c0-2.2,1.6-3.4,2.8-4.9c0.3-0.4,0.7-0.1,1,0.2c1.9,1.8,3.3,3.6,3.2,6.6C66.1,27.2,66.3,34.7,66.3,42.2z"/>
<path class="st8" d="M20.2,105.6c0,4.3,0,8.6,0.1,12.9c0,1.1-0.5,2-1.1,2.8c-0.6,0.8-1.2,1.6-2,2.6c-1.9-2.1-4.2-3.6-3.8-6.9
	c0.3-2.7-0.2-5.4,0.2-8.1c0.9-1.5,0.4-3.1,0.4-4.7c0.1-2.6,0-5.3,0.1-7.9c0-0.6,0.1-1.9,1.1-1.1c1.7,1.2,2.6,0.2,3.6-0.8
	c0.2-0.2,0.5-0.4,1.1-0.3C20.2,97.9,19.7,101.7,20.2,105.6z"/>
<path class="st9" d="M20.2,24.9c-0.7,0.6-0.4,1.5-0.4,2.3c0,3.8,0,7.5,0,11.3c0,0.8,0,1.6,0,2.3c-1.6,0.3-2.3-2.7-4.3-0.9
	c0-0.9,0.1-1.6,0-2.4c-0.1-0.5,0.8-1.8-0.8-1.6c0.2-0.6-1-1.7,0.6-1.9c0.3,0,0.3-0.4,0.2-0.6c-0.3-1.6,0.8-3.4-0.8-4.9
	c-0.4-0.4-0.2-1.5-0.7-2.2c0,3.7,0,7.4,0,11.2c-0.5-2-0.2-4-0.3-5.9c-0.1-4.1,0.1-8.3-0.1-12.4c-0.1-2.6,1.7-4,3-5.7
	c0.3-0.4,0.7-0.2,1,0.1c1.4,1.7,3,3.3,2.7,5.9C20.1,21.2,20.5,23.1,20.2,24.9z"/>
<path class="st10" d="M20.2,105.6c-0.7-0.7-0.4-1.5-0.4-2.3c0-2.9,0-5.8,0-8.9c-3,2.8-3,2.8-5.3,1c0,4.1,0,8.1,0,12
	c0,0.5,0.1,1-0.1,1.4c-0.1,0.3-0.5,0.2-0.8,0.1c0-0.2,0-0.3,0-0.5c0.3-0.5,0.3-1,0-1.4c0-0.2,0-0.3,0-0.5c0.2-4.5,0.5-8.9-0.2-13.4
	c-0.5,0.2-1,0.4-1.5,0.6c-0.7-0.1-1.9,0.4-0.9-1.1c0.4-0.6,0.4-1.2,0.4-1.8c0-0.5,0.1-1.2-0.4-1.5c-0.3-0.2-0.7-0.1-1.1,0.1
	c-0.6,0.5-0.5,1.1-0.5,1.7c0,0.8,1.4,1.5,0.4,2.5c-1.9-1.2-2.4-2.3-1.9-3.8c0.6-1.6,2-2.3,4.1-2c0.2,0,0.5,0.1,1,0.3
	c0.3-3.3,1-6.4,1.8-9.5c-0.6-1.4-0.1-2.9-0.8-4.3c0.6-0.1,0.8-0.7,1.1-1.1c1.2-1.8,3.1-1.8,4.4,0c0.3,0.4,0.3,0.9,0.9,1
	c1.4,0.2,1.6,1.4,1.8,2.5c0.2,0.1,0.2,0.2,0.1,0.3c-0.1,0.1-0.1,0.1-0.2,0.1c-0.5,1.2-1.4,1.8-2.8,1.6c0.5,2.8,0.9,5.5,1.3,8.1
	c0.1,1.1,0.8,1,1.5,0.9c1.1,0.7,0.2,1.8,0.4,2.6c0.2,0.6-0.2,1.4,0.6,1.6c0.7,0.1,1-0.6,1.4-1.1c0.5-0.6,0.2-1.6,0.9-2.2
	c1.3,1.1,1,2.5,0.2,3.6c-1.4,1.9-3.3,1.5-5.5,0.2C20.2,97.2,20.2,101.4,20.2,105.6z"/>
<path class="st11" d="M22.2,77.1c0-0.1,0-0.3,0-0.4c5.5-0.2,10.9-0.4,16.4-0.5c2.8-0.1,5.7-0.4,8.5,0.5c0.6,1.1-0.2,1.5-0.9,1.3
	c-2-0.6-3.9,0.1-5.3-0.1c2-0.4,4.4,0.1,6.9,0.1c0.6,0,1.3,0,1.9,0.1c0.7,0.1,1.6,0.3,1.7,1.1c0.1,1-0.8,1.2-1.5,1.4
	c-0.1,0.1-0.4,0.1-0.4,0.1c-0.8-1.6-2.1-0.9-3.3-0.9c-0.6,0-1.3,0.1-1.8-0.4c0.3,0.8,1.8-0.3,1.8,1.1c-1,0-2,0-3,0
	c-1.7,1.5-3.4,1.3-5.1,0c-1.4-0.7-2.6-0.7-4.1,0c-1.1,0.5-0.3,0.9-0.3,1.4c-0.2,0.8-1.6,0.4-1.5,1.4c-0.5,0-1-0.1-1.5-0.1
	c-1.1-0.7,0-1.4,0.1-2.1c0-0.6,0.4-1.3-0.4-1.6c-0.6-0.2-0.9,0.1-1.1,0.8c-0.2,0.6-0.9,0.5-1.4,0.2c-0.7-0.1-1.4-0.2-2.1,0
	c-0.6,0.2-1.4,0.1-1.3-0.5c0.1-0.7,0.1-1.6,0.7-2.1c0.5-0.3,1.1-0.3,1.7-0.7C25.3,77.3,23.8,77.2,22.2,77.1z"/>
<path class="st5" d="M31.8,54.7c-0.2-1,0.5-2,0.2-3c-0.7-0.4-1.3,0-1.6,0.5c-2,2.5-4.5,2.6-7.2,1.4c0.5-1.1,1.5-0.6,2.3-0.8
	c2.2-1.8,4.8-2.2,7.5-2.8c1-0.6,2.1-0.6,3.3-0.4c1.7,0.4,3.1-0.1,4.3-1.4c0.6-0.7,1.3-1.5,2.4-1.1c1.2,0.8,2.2,1.6,0.8,3.2
	c-0.6,0.6-0.2,1,0.4,1.2c0.6,0.2,1.2,0.5,1.5,1.1c0.2,0.4,0.4,1.2-0.1,1.2c-2.1-0.3-0.4,1.2-0.9,1.6c-2.3,0-4.2-1.7-6.6-1.5
	c-0.7,0.9,3.2,1.2,0.3,2.4c-0.5,0.1-0.9,0-1.3-0.2c-0.7-0.4-1.4-1-2.4-1.1c0,0.5,0.7,1,0.1,1.6c-1,1.1-4.9,1.6-6,0.7
	c-0.6-0.5-0.7-1,0.1-1.5l0,0c0.8-0.5,1.6-0.2,2.4-0.2C32,55.5,32.1,55.2,31.8,54.7z"/>
<path class="st12" d="M33.2,50.4c-0.4,0.5-1,0.3-1.5,0.4c-1.4,0.3-2.8,0.5-4,1.3c-0.6,0.4-1.3,0.9-2.2,0.6c-0.6-0.6-1.6-0.2-2.2-0.8
	c0.5-0.9,1.6-0.2,2.1-1c-0.2-0.7-1.1-0.2-1.5-0.9c2.8-0.4,5-2.3,7.7-3.1c0.3-1.3,2.1-1.3,2.4-2.7c1.1,0,2.1,0,3.2-0.1
	c0.7,0,1.4-0.1,1.7-0.9c1.1-0.1,2.1,0.5,3.4,0.1c1.4-0.4,1.4-1.1,1.5-2.1c0.8,1.6,0.2,3.2,0.4,4.8c-0.2,0.2-0.3,0.3-0.5,0.3
	c-0.3,0-0.6,0-0.8-0.2c-0.2-0.3,0-0.6,0.1-0.9c0,0-0.2-0.1-0.2-0.1s-0.2,0-0.2,0c-0.3,0.1-0.7,0.3-1,0.4c-1.7-0.1-2.8,0.9-4.1,1.8
	c-1.3,1-3.3,0.8-4.5,2.4C32.4,50.5,33.3,50.1,33.2,50.4z"/>
<path class="st13" d="M49.4,80.6c0.3-0.7,1.3-0.6,1.8-1.6c-4-0.4-7.9-1.1-11.9-1c2-0.4,3.9-0.9,5.9-0.5c0.8,0.1,1.6,0.5,1.8-0.8
	c0.3,0,0.7,0,1,0c0,0,0,0,0,0c1.1,1.2,2.6,0.9,3.7,0.4c1.5-0.7,2.8-0.4,3.9,0.6c0.8,0.7,1.6,1.1,2.7,1.1c0.8,0,1.6,0.2,1.1,1.5
	c-0.4,0.9-0.5,2-1.9,1.4c-0.4-0.2-0.9-0.3-1.3-0.5c-1.2-0.5-1.8,0-2.1,1.1c0,0.2-0.1,0.3-0.3,0.2c-0.7,0.3-1.2,0.8-1.6,1.5l0,0
	c-0.6,0.3-1.2,0.7-2,0.5c-0.3-0.2-0.5-0.6-0.3-0.8c1.5-1.3,0.4-1.9-0.7-2.6c-0.1-0.1-0.1-0.1-0.2-0.2C49.4,80.8,49.4,80.7,49.4,80.6
	z"/>
<path class="st14" d="M36.9,55.6c0.5,0,1.1,0.1,1.6,0.1c1.8-0.3,3.7-0.7,5.5,0.1c0.5,0,0.9-0.1,1.3-0.5c0.3-0.3,0.5-0.6,0.9-0.7
	c0.2,0.5,0.5,1,0.7,1.5c1.8-0.6,3.6-1.1,5.8,0.2c-2.5,1.2-5,1.4-7.1,2.6c-6.1,0.2-12.1,0.3-18.2-0.4c-0.5-0.9,0.1-1.3,0.8-1.1
	c3.1,0.8,6.3-0.6,9.5,0.7c-0.6-0.6-1.9,0.1-1.5-1C36.4,56.7,35.2,55.3,36.9,55.6z"/>
<path class="st15" d="M36.6,92.6c-0.3-0.3-0.6-0.6-1-0.9c0.4-0.4,0.5-1,0.6-1.5c0.1-0.6,0.3-1.1,0.9-1.3c0.7-0.2,1,0.4,1.2,0.9
	c0.6,1.3,1.4,0.9,2.3,0.4c2-0.9,4.2-0.7,6.3-0.5c1.1,0.1,1.2,1,1.5,1.8c0.1,0.1,0.1,0.2,0.2,0.3c-0.8,1-1.9,1-3,0.9
	C43.3,92.4,41,93,38.7,92c-0.4,1.7-0.2,3.2-0.2,4.7c0,1.1,0.4,2.2-0.4,3.2c0-0.8,0-1.6,0-2.4c0-0.4,0.3-1.7-0.9-0.6
	c-0.1-0.5-0.1-0.9-0.2-1.4C36.8,94.6,37.2,93.5,36.6,92.6z"/>
<path class="st16" d="M45.7,58.9c1.3,0.1,0.8-2,2.2-1.8c1.1,0.1,2.2-0.1,3.3-0.4c0.3-0.1,0.6,0,0.8-0.4c-1.7-0.3-3.3,0-5-0.1
	c0.4-0.8,1.2-1,2.3-1.2c-1.8-1.1-1.6-2.4-0.6-3.7c0.3-0.1,0.5,0.1,0.6,0.3c0.7,2.1,0.7,2.1,2.7,1.8c0.3,0.5,0.4,1.5,1.2,1.3
	c1.9-0.4,3.1,1.6,5,1.1c-1.9,0.7-3.6,1.7-5.6,1.3c-0.7-0.1-1.1,0.1-0.7,0.9c-0.3,0-0.6,0-0.9,0c-1.3-0.5-2.5-0.3-3.4,0.9
	C47,59.1,46.3,59.1,45.7,58.9z"/>
<path class="st17" d="M36.9,55.6c-0.2,0.1-0.8,0.3-0.5,0.4c1.5,0.4,0.5,0.8,0,1.3c0.7,0.6,1.7-0.1,2.4,0.7c-1.6,0-3,0-4.5,0
	c-2.1,0.1-4.2,0.5-6.2-0.2c-0.5-0.2-0.7,0.2-0.7,0.7c-0.2,0-0.4,0-0.6-0.1c-0.9-0.3-1.7-0.2-2.6,0c-1-1.7-0.9-2.1,0.8-2.2
	c1.3-0.1,2.5-1,3.9-0.5c-0.4,0.7-0.2,1.3,0.7,1.3c1.7,0,3.6,0.4,5.2-0.9c0-0.5-0.6-0.3-0.8-0.5c-0.4-0.4-0.9-0.9-0.6-1.4
	c0.4-0.8,1,0,1.4,0.2C35.5,54.6,36.9,54.2,36.9,55.6z"/>
<path class="st18" d="M25.5,88.7c0.2,1.4-0.1,2.5-1,3.6c-0.5,0.6-1,0.9-1.6,0.6c-0.6-0.3-1.4-0.7-0.9-1.6c0.5-1.2-0.5-2.4,0.2-3.5
	c0.2-0.3,0.5-0.4,0.9-0.3C23.9,87.8,24.8,88.3,25.5,88.7L25.5,88.7z"/>
<path class="st19" d="M9.9,93.7c0.3-0.7-0.4-0.9-0.6-1.3c-1.1-1.6-0.5-3.5,1.2-4c0.7-0.2,1.5,0,1.5,0.7c0.1,1.3,0.4,2.8-0.6,4
	c-0.3,0.4-0.3,0.4,0.6,0.7C11.2,94.1,10.5,94.3,9.9,93.7z"/>
<path class="st20" d="M27.9,80.7c-0.1-0.4,1.6,0.5,0.5-0.7c-0.3-0.3,0.1-0.6,0.4-0.7c0.6-0.1,1.3-0.1,1.8-0.3
	c0.7-0.2,0.9,0.4,0.9,0.8c-0.1,0.9,0.5,2.1-0.8,2.7c-0.4,0.2-0.1,0.5,0,0.8c-0.7-0.1-1.5,0.3-2.1-0.5c-0.3-0.4-1-0.5-1.5,0
	c-0.7-0.3-0.5-0.7,0-0.8C27.9,81.8,27.9,81.3,27.9,80.7z"/>
<path class="st1" d="M65.7,119c-0.7-1-0.6-2.2-0.5-3.2c0.3-5.6,0-11.3,0.2-16.9c0-0.8-0.3-1.8,0.5-2.4c0,5.9,0.1,11.7,0,17.6
	C65.9,115.7,66.1,117.3,65.7,119z"/>
<path class="st21" d="M14,74.4c1.1,0.7,1.9,1.4,1,2.9c-0.2,0.4-0.1,0.9-0.1,1.4c-1.2,0.1-2-0.5-2.2-1.6C12.5,75.9,12.8,74.9,14,74.4
	z"/>
<path class="st15" d="M50.9,92.1c-0.6-0.4-0.9-1.8-1.9-0.5l-0.2,0c0,0-0.2-0.1-0.2-0.1c0,0,0,0,0,0c0.2-2.3,2.6-3.7,4.8-2.9
	c0,0.8-0.1,1.7-0.1,2.5C52.8,92.5,51.5,91.4,50.9,92.1z"/>
<path class="st22" d="M51.9,51.1c2-0.1,3.7,0.4,5.4,0.8c-1.1,0.5-2.1,1.2-3.2,1.7c-0.7,0.3-1.6,0.4-1.1-0.9
	C53.5,51.6,52.2,52.1,51.9,51.1z"/>
<path class="st23" d="M53.8,46.1c0.5,0.4,0.7,0.9,0.8,1.5c-0.1,0.1-0.2,0.3-0.3,0.4c-0.9,0.7,0.8,1.3,0.1,1.8
	c-0.7,0.4-1.7,0.1-2.7,0.1c0.1-1.2,0.1-2.3,1.6-2.7C53.8,47,53.7,46.5,53.8,46.1z"/>
<path class="st8" d="M13.5,93.1c0.5,0.3,0.6,0.7,0.6,1.2c0,3.8,0,7.6,0,11.4c0,0.3-0.2,0.6-0.4,0.8c0-3.3,0-6.5,0-9.8
	C13.6,95.5,13.5,94.3,13.5,93.1z"/>
<path class="st24" d="M29.4,44.6c1-0.8,2.1-1,3.3-1c0.3-0.3,0.6-0.3,0.9-0.1c0,0.2,0.1,0.3,0.1,0.5C32.1,45.1,32.1,45.1,29.4,44.6z"
	/>
<path class="st25" d="M19.9,60.7c-0.3-0.6-1.1-1-0.5-1.9c0.3-0.4,0.6-0.8,1.1-0.6c0.6,0.2,0.7,0.6,0.5,1.1c-0.1,0.4-0.8,0.6-0.6,1.2
	C20.4,60.8,20.2,60.8,19.9,60.7z"/>
<path class="st17" d="M31.8,54.7c0.8,0.1,1,0.6,1.1,1.3c-1.4,0.2-2.6-0.7-4-0.4c0.3-0.6,0.9-0.5,1.4-0.6
	C30.8,55,31.4,55.2,31.8,54.7z"/>
<path class="st14" d="M47.6,58.9c0.9-1.6,1-1.6,3.4-0.9c-1.6,0.1-1.6,0.1-2.5,1.4C48.4,59,48,59,47.6,58.9z"/>
<path class="st24" d="M26.9,44.2c0.9-0.2,1.7-0.1,2.4,0.4C28.3,45.7,27.7,44.7,26.9,44.2z"/>
<path class="st10" d="M25.6,88.8c-1-0.2-1.8-0.5-2.5-1.3C24.1,87.5,25,87.8,25.6,88.8z"/>
<path class="st12" d="M28.7,47.2c-0.3-0.1-0.4-0.3-0.3-0.5c0-0.6,0.4-0.8,0.9-0.7c0.2,0,0.5,0.1,0.4,0.4
	C29.6,47,29.2,47.1,28.7,47.2z"/>
<path class="st14" d="M24.2,58.4c0.9-0.7,1.8-0.3,2.6,0C26,58.5,25.1,58.7,24.2,58.4z"/>
<path class="st8" d="M13.6,107c0.6,0.5,0.5,1,0,1.4C13.6,108,13.6,107.5,13.6,107z"/>
<path class="st26" d="M55.7,42.2c0.1,0.8-0.4,0.7-0.8,0.4C55,42.3,55.3,42.2,55.7,42.2z"/>
<path class="st27" d="M54.3,82.3c-0.3-0.7-0.5-1.4,0.3-1.9c0.5-0.4,1.1-0.1,1.5,0.4c0.4,0.5,1,0.4,1.5,0.6c0.4,0.2,1,0.5,1.3,0
	c0.3-0.5,0.3-1.1,0.6-1.6c0.2-0.2-0.2-0.5-0.6-0.6c-0.8-0.1-1.6,0.1-2.1,0.7c-0.9-0.3-0.2-1.4-1-1.8c-0.7-0.3-1.3-0.5-1.9-0.9
	c-0.5-0.3-0.7,0-1.1,0.1c-1.2,0.5-2.5,0.4-3.8,0.4c-0.7,0-1-0.4-1-1.1c3,0.8,3.6,0.5,4.9-2c0.2-0.5,0.1-0.9,0.1-1.4
	c0.1-0.7-0.7-1.3-0.4-2.2c2.5-0.4,5.1-0.8,7.7-1.6c0.2,1.2,0.4,2.3,1.8,2.5c-0.4,0.6-1.3,0.8-1.5,1.4c-0.2,0.7-0.5,1-1.2,1.2
	c-1.1,0.2-1.6,0.9-1.6,2c0,1.1,0.7,1.7,1.8,1.9c0.2,0,0.4,0.1,0.8,0.2c-0.4,2-0.9,4-1.3,6c-1.2,0.2-2.3,0.1-2.7-1.3
	c0.6-0.2,1.3,0,1.8-0.5C56.9,81.3,56.7,81.3,54.3,82.3z"/>
<path class="st28" d="M53.4,88.8c-1.2-0.3-2.3-0.3-2.9,1.1c-0.4,0.9-1.9,0.5-1.9,1.8c-0.2,0-0.5-0.1-0.7-0.1
	c-0.3-0.1-0.9,0.2-0.8-0.5c0-0.2,0.4-0.4,0.7-0.7c-1.7-0.6-3.4,0.1-4.8-0.2c-1.9-0.4-2.8,1.8-4.5,1.2c-0.6-0.2-0.3-0.8-0.5-1.2
	c-0.2-0.4-0.2-1.1-0.8-1c-0.7,0.1-0.4,0.7-0.3,1.1c0.2,1-0.4,1.2-1.2,1.4c-0.5-1.2-1.1-2.4,0-3.7c0.4-0.4,0.1-1.4,0.1-2.1
	c0-0.8,0.1-1.6,0.6-2.2c0.5-0.1,0.8,0.3,1.1,0.5c2.1,1.2,2.1,1.2,0.5,3c-0.3,0.3-0.6,0.6-0.3,1c0.2,0.3,0.4,0.7,0.9,0.4
	c1-0.5,2,0.1,3,0c0.5-0.9-0.5-2.2,0.6-2.8c1-0.5,1.7,0.6,2.7,0.6c0.2,0,0.5,0,0.7,0c0.6,0.5,1.8-0.4,2,0.8c0.1,0.6-0.3,1.3-1.1,1.4
	c-1.1,0.2-2.2,0.6-2.7-0.3c0.8,1.1,2.4,0.8,3.4,0c0.9-0.7,1.7-1,2.8-1c1.5,0,3,0.2,4.2-1.1c0.4-0.4,1-0.5,1.5,0.1
	c0.4,0.5,0.1,0.9-0.4,1.1C54.4,87.5,54.1,88.4,53.4,88.8z"/>
<path class="st29" d="M55.2,87.3c0.1-0.3,0.5-0.5,0.2-0.8c-0.2-0.3-0.5-0.4-0.8-0.2c-0.1,0-0.1,0.1-0.2,0.2c-1,1.8-2.6,1.4-4.2,1.4
	c-1,0-2-0.3-2.8,0.9c-0.5,0.7-2,0.8-3.2,0.4c-0.6-0.2-0.9-0.6-1.1-1.2c-0.1-0.4-0.2-0.8,0.2-1c0.4-0.2,1-0.3,1.3,0
	c0.4,0.4-0.3,0.7-0.9,1.3c1.5-0.3,3,0.7,3.5-1.2c-0.5-0.6-1.3-0.2-1.8-0.7c1.3,0,2.5,0.1,3.8-0.1c2-0.3,4-0.8,5.6-2.3
	c0.3-0.3,0.8-0.6,1.3-0.4c0.9,0.4,1.8,0.9,2.7,1.3c0.1,0.9,0.4,1.8-0.4,2.5c-0.5-0.1-0.8-1.8-1.4-0.1C56.6,87.2,55.9,87.3,55.2,87.3
	z"/>
<path class="st30" d="M54.7,92.6c0.2-0.8-0.4-1.3-0.5-2.1c-0.1-1,0.1-1.9,1.1-2.5c1.1-0.7,2.1-0.2,2.3,1c0,0.1,0,0.2,0,0.2
	C57.9,91.8,57.4,92.5,54.7,92.6L54.7,92.6z"/>
<path class="st31" d="M50,75.8c-0.1,0-0.6,0-0.9-0.1c-0.9-0.3-1.4-1.1-1.3-2c0.1-0.8,0.7-1.2,1.6-1.1c0.2,0,0.5,0,0.7,0
	c1.5-0.1,2.2,0.4,2.3,1.6C52.4,75.3,51.7,75.8,50,75.8z"/>
<path class="st32" d="M51,63.8c-0.2-0.5-1.3-0.6-0.7-1.5c0.2-0.4,0.2-0.8-0.4-0.9c-0.5-0.1-0.7,0.2-0.8,0.7c-0.1,0.5,0,1-0.8,0.7
	c-0.5-0.2-0.7-0.6-0.6-1.1c0-0.6,0.5-1.2,0.4-1.8c0,0,0,0,0,0c0.4,0,0.8,0,1.2,0c1.4-0.2,2.5,0.2,2.9,1.2
	C52.7,62.4,52.1,63.2,51,63.8L51,63.8z"/>
<path class="st33" d="M70.7,91.7c-0.2,0-0.5,0-0.7,0.1c-2.9,1.1-3,1.4-2.7-2c0.1-1.3,0.5-1.6,1.5-1.5c1.2,0.2,2,1.1,1.5,2.1
	C69.9,91.2,70.6,91.3,70.7,91.7C70.7,91.7,70.7,91.7,70.7,91.7z"/>
<path class="st34" d="M67.7,44.6c0-0.1,0-0.2,0-0.2c0.3-0.5-1-1.3,0.1-1.6c0.8-0.3,1.7-0.2,2.3,0.8c0.6,1.1,0.5,2.3-0.3,3.1
	c-0.5,0.5-1.1,0.9-1.9,0.5c-0.8-0.4-0.9-1-0.6-1.7C67.4,45.1,67.4,44.8,67.7,44.6C67.8,44.6,67.7,44.6,67.7,44.6z"/>
<path class="st26" d="M56.4,45c0.1,0.1,0.1,0.3,0.2,0.4c0.9,0.2,1.6,0.7,1.1,1.6c-0.5,0.9-1.4,0.3-2.1-0.1c-0.8-0.5-1.3-2.2-0.7-2.7
	c0.6-0.6,1.3-1.4,2.3-1.4c0.4,0,0.8,0.3,0.8,0.8c0,0.5-0.1,1.1-0.8,1.2C56.8,44.7,56.5,44.7,56.4,45z"/>
<path class="st35" d="M61.9,90.7c-0.5,0.4-1-0.3-1.2-0.2c-0.5,0.2-0.7,0.4-0.7-0.3c-0.1-1,0.7-2.1,1.6-2.4c1.1-0.3,1.8,0.2,2.5,0.9
	c0.3,0.4,0.4,0.9-0.1,1.2C63.4,90.5,62.8,91.2,61.9,90.7z"/>
<path class="st36" d="M49.6,69.7c-0.7-1.3,0.3-2.9-1-4c2-0.4,2.8-0.1,3.2,1.1C52.3,68.2,51.7,69.1,49.6,69.7z"/>
<path class="st37" d="M50.9,92.1c0.2-0.8,0.2-0.8,0.9-0.5c0.6,0.2,1.1,0.1,1.5-0.4c0.5,0.4,0.6,1.3,1.5,1.3c0,0,0,0,0,0
	c-0.1,0.2-0.1,0.5-0.2,0.7c-0.4,0.8-0.8,1.7-1.8,1.7c-1,0-0.8-1.2-1.2-1.8C51.3,92.9,51.1,92.5,50.9,92.1z"/>
<path class="st38" d="M61.8,44.9c1.5,0,2.6,0.7,2.4,1.3c-0.3,0.9-1.2,1.2-2.1,1.3c-1,0.1-2.1-0.8-2-1.6
	C60.3,44.7,61.4,45.3,61.8,44.9z"/>
<path class="st39" d="M58,67.2c-0.7,0.5-0.9,1.6-1.8,2.2c-0.3,0.2-0.8,0.1-1-0.3c-0.4-1,0.9-2.9,2-2.8C57.8,66.3,58.1,66.5,58,67.2z
	"/>
<path class="st40" d="M66.3,67.7c0,0.9-0.7,1.5-1.5,1.4c-0.4,0-0.9-0.3-0.7-0.7c0.4-0.7,0.8-1.5,1.5-2
	C65.8,66.2,66.3,67.1,66.3,67.7z"/>
<path class="st41" d="M60.6,48.3c2.3,0.3,2.3,0.3,4.1-0.4C63.5,50.1,62.5,50.3,60.6,48.3z"/>
<path class="st42" d="M64.2,87.1c-1.4-1-2.7-0.7-4.1,0.8C61.5,85,62.5,84.9,64.2,87.1z"/>
<path class="st43" d="M64.6,42.3c-1.2-0.7-2.3-2-3.7,0C62.3,39.6,62.9,39.6,64.6,42.3z"/>
<path class="st44" d="M60.5,76.1c-0.6,0.3,0.1,1.4-0.8,1.5c-0.6,0.1-1-0.4-1.1-1c0-0.7,0.3-1.2,1.1-1.2
	C60.2,75.4,60.5,75.7,60.5,76.1z"/>
<path class="st45" d="M66.1,57.9c0.4,0.8,0.3,1.5-0.6,1.9c-0.5,0.2-1,0-1.2-0.4c-0.4-0.6,0.2-0.7,0.6-0.9
	C65.3,58.2,65.6,57.8,66.1,57.9z"/>
<path class="st46" d="M57.3,87.2c-0.2-0.3-0.9-0.4-0.8-0.8c0.3-0.6,0.8-1.1,1.7-1c0.5,0.1,0.5,0.5,0.5,0.9c0,0.3,0,0.6,0,0.9
	C58.2,87.3,57.7,87.3,57.3,87.2z"/>
<path class="st32" d="M51,63.8c-0.6,1.2-1.5,1-2.7,0.7C49.1,63.4,50.1,63.9,51,63.8C51,63.8,51,63.8,51,63.8z"/>
<path class="st47" d="M64.8,75.8c0-0.4,0.3-0.6,0.6-0.5c0.6,0.1,0.9,0.6,0.8,1.2c0,0.2-0.2,0.4-0.5,0.3
	C65.2,76.8,64.7,76.6,64.8,75.8z"/>
<path class="st4" d="M46.1,69.8c-0.3-0.1-0.4-0.4-0.3-0.7c0-0.1,0.3-0.2,0.3-0.1c0.3,0.1,0.5,0.4,0.3,0.7
	C46.4,69.8,46.2,69.8,46.1,69.8z"/>
<path class="st31" d="M53.1,73.4c0.5,0.5,0.4,1-0.1,1.4C53,74.3,53,73.8,53.1,73.4z"/>
<path class="st48" d="M33.6,43.6c-0.3,0-0.6,0-0.9,0.1c-1.1-1-1.8-2.1-1.1-3.7c0.6-1.5-0.2-2.9-0.4-4.4c1.5,1.8,3.1,3.6,4.7,5.5
	C35,41.9,34,42.5,33.6,43.6z"/>
<path class="st49" d="M21.7,45.7c0-1.2,0.8-2.3,1.6-2.3c0.8,0.1,2.1,1.6,2.1,2.5c0,1-1.2,2-2.3,2C22.1,47.9,21.7,47.3,21.7,45.7z"/>
<path class="st50" d="M26.6,43.7c-0.7-2.5-0.4-3,2.8-4.9c0.2,1.1,0.3,2.2,0.5,3.3c0.1,1.1-0.6,1.1-1.4,1.1c-0.5,0.3-1.1,0.1-1.6,0.3
	C26.7,43.5,26.6,43.6,26.6,43.7C26.5,43.7,26.6,43.7,26.6,43.7z"/>
<path class="st51" d="M9.6,43.6c0.7,0.3,1.3-0.6,2.1-0.3c0.4,0.1,0.8,0.3,0.8,0.8c0.1,0.8-0.4,0.3-0.7,0.4c-0.8,0.3-0.9,1.3-0.3,2
	c0.2,0.2,0.4,0.3,0.6,0.4c0.2,0.3,0.3,0.6,0.1,0.9c-0.2,0.3-0.6,0.3-0.9,0.2c-1-0.3-1.7-0.7-1.9-1.9C9.2,45.2,9.7,44.4,9.6,43.6
	C9.7,43.6,9.6,43.6,9.6,43.6z"/>
<path class="st52" d="M19.2,46.5c-0.1,0.1-0.2,0.4-0.3,0.5c-0.6,0.7-1.4,1-2.3,0.7c-0.8-0.2-1.6-0.6-1.5-1.5c0-1.1,1.1-0.7,1.7-0.9
	c0.6-0.2,1.4,0.1,2,0.3C18.9,45.8,19.2,46.1,19.2,46.5z"/>
<path class="st53" d="M19,42.7c-1.8-1-1.8-1-3.8-0.2c0.1-1.1,0.8-1.5,1.7-1.6C18.2,40.7,18.7,41.7,19,42.7z"/>
<path class="st54" d="M16.8,60.3c0.8,0.4,0.5,1.1,0.9,1.5c0.4,0.4,0.2,0.7-0.2,0.9c-0.4,0.2-0.8,0.1-1-0.3
	C16,61.7,16.2,61,16.8,60.3z"/>
<path class="st55" d="M15.4,59.5c0,0.5-0.4,0.7-0.8,0.7c-0.5,0-1.2-0.1-1.2-0.9c0-0.6,0.4-0.8,0.9-0.9C15.1,58.4,15.2,59,15.4,59.5z
	"/>
<path class="st9" d="M14.8,30.5c0.3,0.8,0.3,1.4,0,2.2C14.4,32,14.4,31.3,14.8,30.5z"/>
<path class="st24" d="M26.9,43.5c0.4-0.5,1-0.6,1.6-0.3C28,43.7,27.4,43.6,26.9,43.5z"/>
<path class="st56" d="M46.1,80.6c-0.5-0.7-1.3-0.5-2-0.6c-0.7-0.1-1.4-0.2-1.9-1c1-0.3,1.7-0.7,2.4,0.1c0.4,0.5,1,0.4,1.5,0.4
	c1.7-0.6,2.2,1.1,3.3,1.6c0,0,0,0,0,0c-0.2,1.1-1,2-1.8,1.9C47.1,83,46.2,81.6,46.1,80.6z"/>
<path class="st57" d="M38,80.6c1.7,0.6,3.4,0.5,5.1,0c0,0.5,0,1,0.7,1c0.9,0,1.4,0.5,1.9,1.6c-2.5-0.4-4.7-0.8-6.9-1.2
	C38.4,81.7,37.7,81.5,38,80.6L38,80.6z"/>
<path class="st58" d="M32.2,83.5c-0.6-1.6,0.8-1.2,1.5-1.4c0.6,1.7,0.6,1.7-0.7,4.7C32,85.8,32.3,84.6,32.2,83.5z"/>
<path class="st59" d="M37.1,80.7c0.1,0,0.2,0,0.4,0.1c0.6,0.4,0.7,1.2,1.1,1.7c0.2,0.2,0.6,0.4,0.6,0.7c0.1,0.4-0.4,0.5-0.6,0.4
	c-1.2-0.3-2.4-0.7-3.3-1.6c-0.3-0.2-0.2-0.6-0.1-0.9C35.7,80.6,36.5,81.1,37.1,80.7z"/>
<path class="st60" d="M33.2,103c0,0.5-1.1,2-1.5,1.9c-0.5-0.1-0.9-0.5-0.8-1c0.1-0.6,0-1.6,1-1.6C32.3,102.4,33,102.4,33.2,103z"/>
<path class="st61" d="M36.6,92.6c0.2,0,0.6,0,0.6,0c0.2,1,0.8,2-0.2,2.9c-0.1-0.1-0.2-0.2-0.3-0.2C36,94.5,36.3,93.5,36.6,92.6
	C36.5,92.6,36.6,92.6,36.6,92.6z"/>
<path class="st62" d="M28.6,102.8c0.8,0.5,1.1,1.2,0.5,1.9c-0.2,0.3-0.6,0.2-0.8,0C27.4,103.9,28.3,103.4,28.6,102.8z"/>
<path class="st11" d="M38.5,82.4c-0.9-0.2-1-1-1.1-1.7c0.2,0,0.4,0,0.6-0.1c0.3,0.5,0.6,0.9,0.9,1.4C38.8,82.2,38.6,82.3,38.5,82.4z
	"/>
<path class="st15" d="M36.5,92.6c0,0.9-0.2,1.9,0.2,2.8C35.7,94.5,35.9,93.6,36.5,92.6z"/>
<path class="st27" d="M50.5,84.4c0.6-0.3,1.3-0.4,2-0.5C51.4,85.2,51.2,85.3,50.5,84.4z"/>
<path class="st27" d="M52.4,84c0.1-0.9,0.6-1.5,1.6-1.5C53.6,83.1,53.2,83.8,52.4,84z"/>
<path class="st11" d="M37.1,80.7c-0.6,0.4-1.3,0.4-1.9,0.4C35.7,80.4,36.4,80.5,37.1,80.7z"/>
<path class="st63" d="M46.3,54.7c-0.1,0.4-0.2,0.8-0.6,1c-0.3,0.2-0.7,0.2-1,0c-0.2-0.2-0.1-0.5,0-0.7c-0.5-0.7-1.1-1.3-1.7-2.1
	c1.1-0.8,1.8,0.2,2.9,0.7c-0.7-1.3-1.3-1.9-2.4-1.9c-0.5,0-1,0-1.1-0.6c-0.1-0.5,0.2-0.9,0.6-1.2c0.4-0.4,0.9-0.7,1.3-0.9
	c-0.1-1-1.3-0.7-1.4-1.5c0.3-0.5,0.4-1,0.9-1.3c0.2,0,0.3-0.1,0.5-0.1c0.4,0.3,1.1,0.6,0.9-0.2c-0.4-1.7-0.3-3.3-0.3-4.9
	c1.1,0,1.1,0.8,0.8,1.3c-0.4,1-0.3,1.9,0.4,2.7c0.7,0.8,0.8,1.7,0.7,2.7C46.5,49.9,46.4,52.3,46.3,54.7z"/>
<path class="st64" d="M48.7,33.6c-0.1-0.7,0.2-1,0.4-1.3c0.2-0.3,0.5-0.6,1-0.5c0.4,0.1,0.4,0.4,0.5,0.7c0,0.5,0,1-0.7,1
	C49.6,33.6,49.2,33.6,48.7,33.6z"/>
<path class="st1" d="M59.7,99.3c0-1.2,0-2.4,0-3.7c0.1,0,0.1,0,0.2,0c0,1.2,0,2.4,0,3.6C59.8,99.2,59.8,99.2,59.7,99.3z"/>
<path class="st1" d="M61,95c0,0.1,0,0.3,0,0.4c0,0.2-0.1,0.4-0.2,0.6c-0.4-0.2-0.2-0.5-0.1-0.7C60.8,95.2,60.9,95.1,61,95
	C61,95,61,95,61,95z"/>
<path class="st1" d="M65.7,18.8c0,5.5,0,11.1,0,16.6c-0.1,0-0.2,0-0.2,0c0-5.5,0-11.1,0-16.6C65.6,18.8,65.7,18.8,65.7,18.8z"/>
<path class="st1" d="M65.8,37.2c-0.1,0.1-0.1,0.2-0.2,0.4c-0.1-0.1-0.2-0.3-0.2-0.4c0-0.1,0.1-0.2,0.2-0.4
	C65.7,36.9,65.7,37,65.8,37.2z"/>
<path class="st65" d="M19.2,85.9c-1.2-0.3-1.9-1.2-2.8-0.2c-0.3,0.3-0.9,0.5-1,0.1c-0.2-0.6-0.7-1.3-0.2-1.8
	c0.8-0.9,1.3-1.5,0.7-2.9c-0.5-1.1,0.7-2.3,1.7-2c1,0.3,1.3,1,0.6,1.9c-0.6,0.7-0.8,1.2,0,1.7C19.4,83.4,18.2,84.8,19.2,85.9z"/>
<path class="st66" d="M14.6,90.5c1.5-2.3,2.9-2.6,4.2-1.1c0.5,0.6,0.5,1.1-0.4,1.4C17.1,91.3,16,90.7,14.6,90.5z"/>
<path class="st67" d="M19.8,74.9c0.8-0.1,1.2,0.3,1.4,0.9c0.2,0.8,0.3,1.6-0.5,2.1c-0.1,0-0.2,0.1-0.2,0.1c-0.5-0.7-1.2-1.3-1.4-2.2
	C18.9,75.2,19.5,75.1,19.8,74.9z"/>
<path class="st68" d="M15.1,87.9c1.6-2.1,2.4-2.1,3.9,0.3C17.8,87.3,16.5,87.1,15.1,87.9z"/>
<path class="st69" d="M18.5,73.1c-0.5,0.4-1.1,0.4-1.1,1.1c0,0.6-0.6,0.6-1.1,0.5c-0.4-0.1-0.6-0.4-0.6-0.7c0-0.5,0.2-0.9,0.7-1.1
	C17,72.8,17.6,72.9,18.5,73.1z"/>
<path class="st70" d="M18.9,93.8c-0.7,1.2-1.2,1.9-2.4,1.6c-0.5-0.1-1-0.5-0.9-0.9c0.2-0.9,0.7-0.1,1,0
	C17.5,94.8,17.9,93.9,18.9,93.8z"/>
<path class="st71" d="M16.1,76.6c0.2-1,0.7-1.5,1.7-1.1c0.4,0.2,0.8,0.6,0.5,0.9C17.7,77.2,16.9,76.9,16.1,76.6z"/>
<path class="st72" d="M20.3,88.9c1,1.4,1,1.4-0.3,3C20.3,90.7,19.7,89.9,20.3,88.9z"/>
<path class="st3" d="M49.5,81.1c-0.5-0.1-1.2,0.1-1.4-0.5c-0.4-0.9-1.2-0.8-1.9-1.1c1-0.7,2.1-0.2,3.2-0.4c-0.1,0.5-1.1,1,0,1.5
	C49.5,80.8,49.5,80.9,49.5,81.1z"/>
<path class="st50" d="M27.5,79c-0.2-0.1-0.4-0.3-0.3-0.5c0-0.1,0.2-0.2,0.3-0.2c0.2,0,0.4,0.3,0.3,0.5C27.8,78.9,27.6,79,27.5,79z"
	/>
<path class="st50" d="M43.7,46.2c0.1,0.7-0.3,1.1-0.9,1.3c-0.8-0.4-1.2-0.1-1.6,0.7c-1.1,2.1-3,2.4-5,2c-1.1-0.2-2-0.3-2.9,0.2
	c-0.5,0-0.9-0.1-1.5-0.1c0.1-0.5,0.9-0.2,1-0.6c0.5-1.7,1.9-1.9,3.4-2.2c1-0.2,1.8-0.9,2.7-1.4c-0.2-0.3-0.2-0.4-0.3-0.5
	c-0.3-0.2-0.9-0.1-0.7-0.7c0.1-0.3,0.7-0.4,0.8-0.2c1,1.3,2.1,0.4,3.2,0.3c0.9-0.3,0.6,0.7,1,1C43.1,46.1,43.4,46.1,43.7,46.2z"/>
<path class="st73" d="M44.7,55c0,0.2,0,0.3,0.1,0.5c-0.1,0.4-0.2,0.8-0.6,1c-1.3-0.8-2.7-0.9-4.1-0.6c-0.6,0.1-1.1,0.3-1.5-0.2
	c0.2,0,0.3,0,0.5-0.1c0.3-0.1,0.4-0.4,0.1-0.4c-0.8-0.2-1.5-0.5-2.1-1.1c-0.3-0.3-0.6-0.6-0.4-1c0.2-0.5,0.6-0.4,1-0.3
	c2.1,0.6,4.4,0.5,6.1,2.1C44,55.2,44.3,55.1,44.7,55z"/>
<path class="st63" d="M42.8,46c-0.6-0.1-0.6-0.8-1-1c0.3-0.3,0.6-0.4,1-0.4c0.3,0.2,0.6,0.2,0.9,0.4C43.7,45.6,43,45.6,42.8,46z"/>
<path class="st50" d="M43.7,45c-0.4,0-0.7,0-0.9-0.4C43.4,44.2,43.8,44.1,43.7,45z"/>
<path class="st5" d="M44.1,56.6c0-0.4,0.1-0.8,0.6-1c0.3,0,0.6,0.1,1,0.1C45.3,56.2,44.7,56.4,44.1,56.6z"/>
<path class="st10" d="M10.9,90.4c0.3,0.2,0.8,0.3,0.6,0.8c-0.1,0.2-0.4,0.4-0.5,0.3c-0.4-0.1-0.7-0.3-0.6-0.8
	C10.4,90.4,10.7,90.4,10.9,90.4z"/>
<path class="st1" d="M67.7,44.6c0.4-0.1,0.9-0.5,1.2,0.1c0.2,0.3-0.1,0.6-0.4,0.7C67.8,45.6,67.8,45.1,67.7,44.6L67.7,44.6z"/>
</svg>
