<?xml version="1.0" encoding="utf-8"?>
<!-- Generator: Adobe Illustrator 23.1.1, SVG Export Plug-In . SVG Version: 6.00 Build 0)  -->
<svg version="1.1" id="Livello_1" xmlns="http://www.w3.org/2000/svg" xmlns:xlink="http://www.w3.org/1999/xlink" x="0px" y="0px"
	 viewBox="0 0 80 135" style="enable-background:new 0 0 80 135;" xml:space="preserve">
<style type="text/css">
	.st0{fill:#FFFFFF;stroke:#000000;stroke-width:0.2509;stroke-miterlimit:10;}
	.st1{fill:#515F7C;}
	.st2{fill:#5A6882;}
	.st3{fill:#596377;}
	.st4{fill:#4D5A76;}
	.st5{fill:#4C5A76;}
	.st6{fill:#505D78;}
	.st7{fill:#53553E;}
	.st8{fill:#5D5A44;}
	.st9{fill:#52503E;}
	.st10{fill:#4D4D38;}
	.st11{fill:#494836;}
	.st12{fill:#4C4B3B;}
	.st13{fill:#787240;}
	.st14{fill:#87803F;}
	.st15{fill:#8C8755;}
	.st16{fill:#AA9A3C;}
	.st17{fill:#857F5E;}
	.st18{fill:#938A4C;}
	.st19{fill:#9F9159;}
	.st20{fill:#A19653;}
	.st21{fill:#A39F68;}
	.st22{fill:#908759;}
	.st23{fill:#8B843C;}
	.st24{fill:#B3A340;}
	.st25{fill:#BDA945;}
	.st26{fill:#E8D139;}
	.st27{fill:#B5A24F;}
	.st28{fill:#B2A351;}
	.st29{fill:#DED446;}
	.st30{fill:#B79F3F;}
	.st31{fill:#A39549;}
	.st32{fill:#C1AC3C;}
	.st33{fill:#C5B664;}
	.st34{fill:#D9C764;}
	.st35{fill:#B9A242;}
	.st36{fill:#A08F3A;}
	.st37{fill:#E5CC37;}
	.st38{fill:#CDBF52;}
	.st39{fill:#BAAB59;}
	.st40{fill:#D0BE5A;}
	.st41{fill:#BDA440;}
	.st42{fill:#C7AF48;}
	.st43{fill:#E5CF37;}
	.st44{fill:#88853A;}
	.st45{fill:#BEA64B;}
	.st46{fill:#C6B03C;}
	.st47{fill:#B2A552;}
	.st48{fill:#C3B263;}
</style>
<path class="st0" d="M71.5,135h-63c-4.7,0-8.5-3.8-8.5-8.5V8.5C0,3.8,3.8,0,8.5,0h63C76.2,0,80,3.8,80,8.5v118
	C80,131.2,76.2,135,71.5,135z"/>
<path class="st1" d="M70.4,33.1c0.3,6,0,12,0.1,18c0,1.6-0.1,3.2,0,4.8c0.1,2.4-1.6,3.5-3.1,4.8c-0.4,0.3-0.7,0.1-1-0.2
	c-1.5-1.5-2.8-3-2.7-5.5c0.3-7.9,0.2-15.8,0.2-23.7c1.3,0.2,0.5,1.2,0.6,1.9c0.1,1,0,1.9,0,2.7c0.5-1.3-1.2-3.4,1.4-4.2
	c0.2-0.1,0.4-0.2,0.5-0.4c0.3-0.2,0.7-0.4,1-0.6c0.9-0.4,1.9-1.2,1.9,0.8C69.3,31.9,70,32.5,70.4,33.1z"/>
<path class="st2" d="M17.7,31.6c0,8.4,0,16.7,0,25.1c0,2.1-1.8,3.1-3,4.4c-0.4,0.4-0.9,0.1-1.2-0.3c-1.2-1.6-2.3-3.1-2.2-5.3
	c0.2-7.2,0.2-14.3,0.2-21.5c0.5-0.7-0.4-2.3,1.4-2.2c0.2,0,0.4,0.1,0.6,0.2c0.7,0.5,1.4,0.6,2.2,0.1C16.3,31.6,16.9,31.2,17.7,31.6z
	"/>
<path class="st3" d="M11.1,105.8c0-6.2,0.1-12.4,0.1-18.7c0-2.2,0.1-4.3,0-6.5c-0.2-2.4,1.4-3.8,2.6-5.5c0.3-0.4,0.7-0.4,1,0
	c1.4,1.7,3,3.1,2.9,5.8c-0.2,6.7-0.1,13.4-0.1,20.1c0,0.5-0.1,0.9-0.1,1.4c-0.4,1-0.5,2.9-2,0.7c-0.2-0.3-0.2-0.9-0.7-0.4
	c-0.7,0.7-2.1,0.3-2.5,1.4C12,105,12.4,106,11.1,105.8z"/>
<path class="st4" d="M37.7,79.1c0.2-1.6,1.6-2.5,2.4-3.7c0.3-0.5,0.9-0.2,1.2,0.2c1.4,1.6,2.7,3,2.6,5.6c-0.2,7.9-0.1,15.9-0.1,23.8
	c-1.3-1.8-2.8-2.5-4.9-1c-1.1,0.7-1-0.5-1-1.2c0-2.8,0-5.6,0-8.4c0-0.8,0.3-1.6-0.2-2.3c0-0.2,0-0.3,0-0.5c0.6-1,0.2-2.1,0.3-3.1
	c0-0.3-0.1-0.5-0.1-0.2c0,0-0.1,0-0.2,0.1c-0.3-1.1-0.4-2.1,0-3.2C38.2,83.2,38.1,81.2,37.7,79.1z"/>
<path class="st5" d="M37.7,37c-0.3-0.9-0.2-1.8,0-2.7c0.1,0,0.2,0.1,0.2,0.1c-0.2,0.3-0.1,0.5,0,0.2c0.2,0.1,0.1,0,0.2-0.2
	c0.3-0.9-0.8-2.6,1-2.5c1.4,0.1,2.6,1.1,2.1,3c0.1,0,0.1-0.1,0.1-0.3c0.1-1.1,0.1-2.6,1.5-2.4c1.3,0.1,0.2,1.7,0.8,2.3
	c0.5,2.4,0.3,4.9,0.3,7.3c0,4.3-0.1,8.6,0.1,12.9c0.1,2-0.5,3.6-2,4.8c-0.5,0.4-0.8,1-1.6,1.4c-0.9-1-2.1-1.9-2.6-3.4
	c0.4-0.7,0.2-1.4,0.2-2.2c0-0.3-0.2-0.4-0.1-0.1c0,0-0.1,0.1-0.2,0.1c-0.3-0.4-0.2-0.8,0-1.2c0.6-3.9,0.6-7.9,0-11.8
	c-0.3-0.6-0.2-1.2,0-1.8c0.8-1.1,0.2-2.3,0.3-3.5c0,0-0.1-0.1-0.1-0.1C37.9,37,37.8,37,37.7,37z"/>
<path class="st6" d="M64,80.2c-0.2-1.6,1.1-4.5,2.4-5.3c0.5-0.3,0.7-0.1,1,0.2c1.7,1.6,3.1,3.2,3,5.9c-0.3,5.5-0.2,11-0.3,16.5
	c-0.5,2.2,0.1,4.5-0.5,6.9c-1.1-0.9-1.8-1.8-2.5-2.6c-0.3,0.9-0.9,1.7-2,2c-0.3-0.1-0.5-0.2-0.6-0.4c-0.5-0.9-0.4-1.9-0.4-2.8
	C64.3,93.7,64.4,86.9,64,80.2z"/>
<path class="st7" d="M43.6,34.5c-0.8-0.5-0.4-1.3-0.6-2c-1.9,0.5-1.2,2.1-1.6,3.9c-0.5-2.1-0.8-3.7-2.7-4.3c-1,0.9-0.1,2.2-0.7,3.2
	c-0.4-0.3-0.2-0.8-0.4-1.1c-0.1-0.9-0.2-1.9-0.3-2.8c-0.8-0.4-1.4,0.2-2.1,0.1c-1.8-0.2-3-1.3-3.1-3c-0.1-1.6,1.1-3.1,2.8-3.4
	c0.4-0.1,0.8-0.1,1.2,0c0.9,0.2,1.1-0.3,1.1-1c0.1-1.8,0.2-3.5,0.7-5.2c0.5-1.6-1-0.9-1.5-1.3l-0.1-0.1c-0.2-1.2,0.8-1.3,1.5-1.7
	c-0.1-0.8-1.5-0.5-1.4-1.5c1.1-0.2,2.2-0.1,2.3-1.7c0-1,0.8-1.3,1.7-1.3c0.9,0,1.7,0.4,1.9,1.2c0.3,1.1,0.5,1.8,1.8,2
	c0.7,0.1,1.1,0.8,1.1,1.7c0,0.9-0.4,1.7-1.3,1.8c-1.3,0.2-1.1,0.7-0.8,1.7c0.4,1.4,0.5,2.9,0.7,4.4c0.1,0.9,0.4,1.3,1.4,1.1
	c0.3-0.1,0.6,0,1,0c2,0.1,3.3,1.5,3.1,3.2c-0.1,1.9-1.9,3.3-3.8,3.1c-0.5-0.1-0.9-0.2-1.4-0.3c-0.6,0.9,0,2.1-0.4,3
	C43.7,34.3,43.7,34.4,43.6,34.5z"/>
<path class="st8" d="M17.7,31.6c-0.7,0.3-1.5,0.5-2,1c-1.1,0.9-1.7,0.6-2.3-0.5c0.1-0.2,0.4-0.2,0.5-0.3c-0.2,0.1-0.4,0.1-0.6,0.2
	c-1.6-0.3-1.2,1.3-1.9,1.9c-0.1-0.8-0.1-1.6-0.2-2.6c-1.8,0.4-3.6,1-4.9-0.9c-0.7-1.1-0.8-2.2,0-3.4c1-1.5,1.9-1.8,4.5-1.5
	c0.4-2.2,0.6-4.4,1.2-6.5c0.4-1.6-0.2-3.3,0.3-4.9c-0.6-0.9,0-1.5,0.5-2.1c1.7,0.8,2.7,2.7,4.9,2.6c1.8,1.4,1.8,2.5-0.2,3.5
	c-0.9,0.4-1,0.8-0.8,1.6c0.4,2,0.7,3.9,1,5.9c2.8-0.5,4,0,4.7,1.6c0.6,1.4,0.4,2.1-1.1,3.4c-0.5-0.5-0.4-1.2-0.3-1.8
	c0.1-0.9-0.1-1.7-1.1-1.7c-0.7,0-0.8,0.7-0.8,1.2c0,0.8-0.5,1.9,1,1.9c0.5,0,1,0,1.3,0.4C20.6,32.4,19,31.5,17.7,31.6z"/>
<path class="st9" d="M11.1,105.8c0.6-1.1,0.6-1.1,0.7-2.8c1.5,1,2.1-1.2,3.7-0.8c0.3,0.3,0.1,1.3,1,1.6c0.7-0.1,0.4-1,0.9-1.2
	c0,0.3,0.1,0.6,0.1,0.9c0.1,1.5,0.1,1.5,1.7,1.4c1.9-0.1,3.3,1,3.5,2.7c0.2,1.7-1,3.2-2.8,3.5c-0.3,0-0.7,0.1-0.9,0
	c-1.6-0.6-1.4,0.7-1.6,1.5c-0.7,0.7-1.7,0.7-2.5,0.5c-1.4-0.4-1.3,0.8-1.8,1.4c-0.6,0.8-0.4,1.5,0.4,2c0.8,0.5,1.3,0.1,1.8-0.6
	c0.8-1.2,1.4-1.1,1.3,0.5c-0.1,0.8,0.4,0.9,0.9,1c0.8,0.2,1.4,0.7,1.4,1.7c0,1-0.4,1.9-1.5,2.2c-0.9,0.2-1.2,0.8-1.6,1.5
	c-0.5,1.2-1.4,1.2-2.9,0.3c0.3-0.4,0.8-0.5,1.2-0.6c-0.6-0.1-0.9,0.3-1.2,0.6c-1-0.7-1.6-1.7-2.8-2.2c-1.3-0.6-1.2-2.6,0.2-3.4
	c1.1-0.6,1.1-1.2,0.9-2.3c-0.3-1.3-0.4-2.6-0.6-3.9c-0.7-0.3-1.2,0.1-1.7,0.2c-1.3,0-2.4-0.4-3-1.5c-0.6-1.2-0.8-2.5,0.1-3.6
	c0.9-1.1,2-1.6,3.4-1.1C10.1,105.6,10.6,105.7,11.1,105.8z"/>
<path class="st10" d="M37.6,92.1c0.8,0.6,0.5,1.5,0.5,2.2c0,3,0,6.1,0,9.1c0,0.1,0.1,0.1,0.1,0.3c0.8,0.1,1.1-0.8,1.7-1.1
	c0.7-0.3,1.4-0.4,2.1-0.4c-0.1,1,1.4,0.8,1.3,1.8c0,0.4,0,0.8,0.4,1c0.8,0.8,1.6,0,2.4,0c1.4,0.1,2.3,0.8,2.7,1.9
	c0.4,1,0.6,2.3-0.8,3c-0.6-0.6-0.3-1.3-0.5-2c-0.2-0.7-0.6-1.3-1.4-1.3c-0.7,0-0.9,0.6-0.9,1.2c0.1,0.8,0,1.7,1.1,1.8
	c0.6,0.1,1.3-0.3,1.8,0.3c-1.3,1.4-1.4,1.5-4.6,1c-0.3,1.6-0.2,3.3-0.6,4.9c-0.2,0.7,0,1.2,0.8,1.4c0.4,0.1,0.9,0.3,1,0.9
	c0,0.1,0,0.2,0,0.3c-0.2,0.9-0.8,1.3-1.7,1.5c0.5,0.2,1.1,0.1,1.5,0.4c0.1,0.1,0.2,0.2,0.2,0.2c-0.1,0.5-0.5,0.6-0.9,0.7
	c-0.8,0.2-1.2,0.6-1.6,1.4c-0.9,1.8-2.6,1.8-3.6,0c-0.3-0.6-0.6-1.1-1.4-1.4c-1.9-0.8-2.1-2.6-0.4-3.6c1.3-0.7,1.3-1.5,1-2.7
	c-0.3-1-0.4-2-0.5-3c-0.1-0.5-0.2-0.9-0.9-0.8c-0.6,0-1.7,0.4-1-0.9c0.5-1,1-2,0.2-3c-0.3-0.3-0.8-0.2-1.1,0c-1.1,1.1-0.1,2,0.2,3
	c0.1,0.4,0.2,0.8-0.3,0.9c-2-1.2-2.5-2.3-2-4c0.5-1.7,1.9-2.2,5.1-1.8C37.5,100.8,37.6,96.4,37.6,92.1z"/>
<path class="st11" d="M64,80.2c0.8,0.6,0.5,1.4,0.5,2.2c0,6.1,0,12.2,0,18.3c0,1.1-0.1,2.2,1,3c0.5,0.9,0.7-0.2,1.1-0.1
	c-0.1,0.3,0.4-0.1,0.2,0c-0.4-0.3-0.8,0.4-1.2,0c-0.1-1.2,1.8-1.1,1.5-2.6c0.9,1,2.3,1.3,2.8,2.6c0-1.3,0-2.6,0-3.9
	c0-0.8-0.2-1.6,0.4-2.3c0,2.4,0,4.8,0,7.2c0.9,0.4,1.6-0.1,2.4,0.1c1.7,0.5,2.8,1.6,2.7,3.1c-0.1,1.8-1.4,3.1-3.2,3.1
	c-0.6,0-1.3-0.1-1.9-0.1c-0.4,0.4-0.1,1-0.4,1.4c-0.1,0.5-0.1,0.9-0.2,1.4c-0.8,0.4-1.1-0.1-1-0.7c0.1-1.1-0.4-1.7-1.3-2.1
	c-0.3,0.1-0.3,0.2-0.2,0.2c0.1,0,0.2-0.1,0.2,0c1.1,0.7,0.5,1.4-0.2,1.7c-0.9,0.4-1.5,0.8-1.1,1.9c0.4,0.9,0.5,2.1,2,1.7
	c0.5-0.1,0.9,0.3,1.3,0.5c0.5,0,1.1-0.1,1.6,0.3c0.6,0.5,1.2,1.1,1,2c-0.1,0.9-0.6,1.5-1.5,1.6c-1,0.1-1.6,0.6-1.8,1.5
	c-1.7-1.5-1.7-1.5-3.6-0.1c-0.3-1-1-1.5-2-1.6c0-0.4,0.2-0.6,0.5-0.7c1.3-0.7,1.5-1.4,0.1-2.1c-0.3-0.2-0.7-0.4-0.5-0.9
	c1.1-0.3,1.8-0.8,1.3-2.2c-0.5-1.3-0.6-2.6-0.9-4c-0.5,0.1-1,0.2-1.5,0.2c-1.7,0-3.1-1.3-3.2-2.9c-0.1-1.7,1.3-3.2,3.1-3.3
	c0.6,0,1.3,0.5,1.8,0c0.5-0.5,0.3-1.4,0.3-2.1c0-4.6,0-9.2,0-13.9c0-1.3-0.4-2.6,0-3.9c-0.2-1.5-0.2-3.1,0-4.6
	C63.9,80.4,63.9,80.3,64,80.2z"/>
<path class="st12" d="M66.1,31.7c0,0.3,0.6,0.9-0.2,0.7c-1.1-0.3-1.2,0.2-1.2,1c0,0.7,0,1.4,0,2.1c0,0.6,0.1,1.2-0.2,1.9
	c-0.7-2.2,0.3-4.3-0.6-6.3c-0.1-0.3-0.2-0.6-0.6-0.5c-1,0.4-1.5,0.3-1.3-1c0.3-1.9,0-3.4-2.2-3.9c1-1.3,2.3-0.4,3.5-0.5
	c0.8-0.8,0-1.9,0.5-2.8c0.1-1-0.1-2,0.4-3c0.5-1-0.5-1.2-0.9-1.7c0.7-2,0.7-2-0.3-3.4c1-0.4,1.8-0.8,1.9-2c0-0.5,0.4-0.8,0.9-1
	c0.2-0.1,0.4-0.1,0.4,0c-0.4,2.2,1.1,2.5,2.6,2.9c0.1,0,0.2,0,0.3,0c0.5-0.1,1.1-0.2,1.6,0c1.8,1.7,1.5,2.7-1.3,3.9
	c0.4,2,0.8,4,1.1,6c0.1,0.7,0.4,1,1.1,0.8c0.3-0.1,0.6-0.1,0.9-0.1c2,0.1,3.1,1.2,3.1,3.1c0,2.1-1.3,3.2-3.3,3.2
	c-2-0.1-2-0.1-1.7,1.9c-0.7-0.1-0.7-1.5-1.8-0.8c-0.2,0.1-0.4-0.4-0.2-0.7c0.2-0.3,0.6-0.5,0.3-1.1C67.9,30.9,67.2,31.7,66.1,31.7
	L66,31.6L66.1,31.7z"/>
<path class="st13" d="M69.3,117.1c-0.7,0.3-1.4-0.4-2.3,0.2c-0.7,0.5-1.2,0-1.1-1.2c0-0.6-0.4-0.8-0.6-1.2c-0.6-1.9-0.6-2,1.3-2.4
	c0.6-0.1,0.8-0.4,1-0.8c-0.6-0.1-1.4-0.5-1.9-1c0.4-0.5,0.7-0.1,1,0c0.6,0.2,1.2-0.9,1.4-0.4c0.3,0.8,1.5,1.2,1.1,2.3
	c-0.1,0.4-0.4,1,0.4,1.1C69.9,114.9,69.1,115.9,69.3,117.1z"/>
<path class="st14" d="M16.6,116.5c-0.1-0.2-0.1-0.5-0.3-0.6c-0.2-0.2-0.4-0.1-0.5,0.2c-0.8,1.8-1.1,2-2.5,1.3
	c-1-0.5-1.6-2.2-1.1-3.2c0.4-0.8,0.4-1.4,0.1-2.1c1.6,1.5,3.4,0.2,5.1,0.6C17.4,114,17.2,115.3,16.6,116.5z"/>
<path class="st15" d="M59.7,25.9c0.9,0,1.7,0,2.8,0c-0.5,1.6,0.8,3.1-0.2,4.7c0.3,0.1,0.6,0.1,0.9,0.2c-2,0.9-3.2,0.7-4.1-0.7
	C58.1,28.6,58.3,27.3,59.7,25.9z"/>
<path class="st16" d="M34.4,111c0.4-0.8-0.5-1.1-0.8-1.5c-0.6-0.9-0.5-1.8,0-2.7c0.4-0.7,1.3-0.9,2.1-0.7c0.3,0,0.7,0.1,0.8,0.4
	c0.1,0.9,0.1,1.9,0.2,2.8c0,0.6-0.3,0.8-0.7,1.1c-0.7,0.8,0.5,0.3,0.5,0.6C35.7,111.4,35.1,111.3,34.4,111z"/>
<path class="st17" d="M12.4,14.1c0.7,1.7,0.8,3.3-0.3,4.9c-0.1-0.4-0.3-0.7-0.8-0.8c-1.1-0.1-1.7-0.8-1.7-1.9c0-1.2,0.7-1.9,1.8-2.1
	C11.8,14.2,12.1,14.2,12.4,14.1z"/>
<path class="st18" d="M63,117.1c0.2,0.4,0.6,0.4,1,0.5c0.9,0.1,1.4,0.6,1.4,1.5c0,0.8-0.5,1.2-1.3,1.4c-0.4,0.1-0.7,0.2-1.1,0.3
	C61.4,119.4,61.4,118.8,63,117.1z"/>
<path class="st19" d="M68.7,14.3c-0.4,0.1-0.8-0.3-1.3,0c-0.6,0.4-1.3,0.4-1.9-0.3c-0.4-0.6-0.4-1.2,0-1.7c0.2-0.3,0.4-0.5,0.1-0.8
	c1.8-0.5,2.7-0.1,3,1.5C68.7,13.4,68.7,13.8,68.7,14.3z"/>
<path class="st20" d="M65,122.4c0.1-0.4,0.3-0.7,0.5-1.1c0.3-0.7,0.7-1.3,1.5-1.1c0.7,0.1,1.3,0.5,1.3,1.4c0,0.3,0.1,0.6,0.4,0.8
	C66.9,124,66.4,124,65,122.4z"/>
<path class="st17" d="M17.8,14.7c-3,0.2-4-0.3-4.9-2.6c1.8-1.1,3.1-0.8,3.3,1C16.4,14.4,17.2,14.3,17.8,14.7z"/>
<path class="st21" d="M62.9,14.5c0.6,0.7,1.9-0.1,2.2,1c0.3,1.2-1.2,1.1-1.5,1.8c-0.1,0.2-0.3,0.4-0.4,0.6
	C61.4,16.5,61.4,15.9,62.9,14.5z"/>
<path class="st22" d="M36.5,14.4c0.7,0.6,2,0.1,2.3,1.3c0.1,0.5,0.5,1.5-0.8,0.9c-0.9-0.4-1.1,0.7-1.6,1C35,16.1,35,15.8,36.5,14.4z
	"/>
<path class="st7" d="M37.7,42.3c0.2-0.2,0.5-0.2,0.5,0c0,3.8,0,7.6-0.1,11.3c0,0.2-0.3,0.3-0.5,0.5C37.7,50.2,37.7,46.3,37.7,42.3z"
	/>
<path class="st10" d="M37.7,79.1c0.5,0.3,0.5,0.8,0.5,1.3c0,1.9,0,3.9,0,5.9c-0.6-0.3-0.4-0.8-0.5-1.1
	C37.4,83.2,37.5,81.2,37.7,79.1z"/>
<path class="st7" d="M37.7,37c0.1-0.1,0.3-0.1,0.4-0.2c0.3,1.3,0.3,2.6,0,3.8c0,0-0.1,0-0.2,0c-0.1,0-0.1-0.1-0.2-0.1
	C37.5,39.4,37.5,38.2,37.7,37z"/>
<path class="st10" d="M37.6,88.4c0.1-0.2,0.4-0.6,0.4-0.5c-0.1,1.3,0.6,2.6-0.4,3.7C37.5,90.5,37.4,89.4,37.6,88.4z"/>
<path class="st6" d="M64,80.5c0.2,1.5,0.2,3.1,0,4.6C63.7,83.6,63.6,82,64,80.5z"/>
<path class="st15" d="M63.7,22.5c0,1,0.6,2.1-0.5,2.8C63.5,24.4,63.1,23.4,63.7,22.5z"/>
<path class="st5" d="M43.7,34.2c0-1-0.5-2.1,0.4-3C43.8,32.1,44.3,33.2,43.7,34.2z"/>
<path class="st7" d="M37.7,55.3c0.2-0.2,0.5-0.4,0.5,0c0.1,0.8,0.3,1.6-0.3,2.2C37.4,56.8,37.6,56,37.7,55.3z"/>
<path class="st22" d="M36.5,17.7c1.9-0.1,2,0,1.5,1.3C38.2,17.8,36.7,18.5,36.5,17.7z"/>
<path class="st10" d="M44.8,118c0.9,0.8,0.9,1.6,0,2.4c0,0,0,0,0,0C44.1,119.6,44.4,118.8,44.8,118L44.8,118z"/>
<path class="st13" d="M69.8,112.4c-0.1-0.5-0.2-1.1,0.4-1.4C70.2,111.5,70.3,112,69.8,112.4z"/>
<path class="st19" d="M70.5,14.4c-0.5,0.1-1.1,0.1-1.6,0C69.5,13.7,70,13.9,70.5,14.4z"/>
<path class="st23" d="M42.4,23.8c-1.3-0.2-2.5-2-4.1,0c0-1.1,0-2,0-2.9c0-0.7,0-1.5,1-1.6c0.3,0,0.4-0.2,0.4-0.5
	c0-0.5-0.5-1.1,0.5-1.2c0.8,0,1.3,0.3,1.7,1c0.6,1,0.8,2.1,0.7,3.2C42.6,22.5,42.8,23.1,42.4,23.8z"/>
<path class="st24" d="M36.3,28.5c0,1.9-0.1,2.2-1.2,2.2c-1.2,0-1.9-0.9-1.9-2.5c0-1.1,0.7-1.8,1.9-1.9
	C36.2,26.2,36.3,26.5,36.3,28.5z"/>
<path class="st25" d="M48.3,28.7c-0.3,0.9-0.6,1.9-1.9,2c-0.5,0-1,0.2-1.3-0.3c-0.2-0.5-0.3-1.2,0.4-1.4c1.1-0.4,1-0.8,0.1-1.3
	c-0.3-0.2-0.4-0.5-0.1-0.7c0.4-0.2,0.5-0.7,1.2-0.6C47.9,26.4,48.6,27.2,48.3,28.7z"/>
<path class="st26" d="M39.1,27c1.1-0.9,2-0.8,2.8,0.3c0.5,0.8,0.4,1.5-0.2,2.2c-0.4,0.4-0.8,0.5-1.2,0C40,28.7,39.6,28,39.1,27z"/>
<path class="st27" d="M21.6,30.6c-1,0-2,0.6-3,0c0-0.8,0.1-1.7,0.1-2.5c0-0.9-0.2-1.8,1.2-1.8c1.3,0,2.2,0.8,2.1,2
	C21.9,29.1,21.7,29.9,21.6,30.6C21.5,30.6,21.6,30.6,21.6,30.6z"/>
<path class="st28" d="M7,28.2c0-0.8,0.9-1.9,1.7-1.9c0.6,0,1.1,0.2,1.3,0.8c0.2,0.7-0.4,0.6-0.8,0.8c-0.6,0.3-0.9,1,0.1,1
	c0.9,0,0.8,0.5,1,1c0.2,0.8-0.2,1.2-1,1C7.9,30.7,7,29.7,7,28.2z"/>
<path class="st29" d="M14.6,26.3c0.7,0.1,1,0.6,1.3,1.2c0.3,0.7,0.1,1.2-0.3,1.8c-0.1,0.2-0.4,0.3-0.6,0.2c-0.9-0.2-1.6-2.2-1.1-3
	C14.1,26.3,14.3,26.3,14.6,26.3z"/>
<path class="st17" d="M14.4,17.5c-0.6-0.1-1-0.5-1-1.1c0-0.5,0.3-1,0.8-1c0.6-0.1,1,0.3,1.1,0.9C15.4,16.9,15,17.3,14.4,17.5z"/>
<path class="st2" d="M13.4,32c0.2-0.4,0.6-0.4,1-0.4c0.2,0,0.5,0,0.6,0.2c0,0.4-0.3,0.5-0.6,0.4C14,32.1,13.7,32.1,13.4,32
	C13.4,32,13.4,32,13.4,32z"/>
<path class="st30" d="M20,106.1c0.4,0,1.2,0.4,1.5,1.1c0.4,0.8,0.3,1.7-0.3,2.5c-0.5,0.7-1.3,0.9-2.1,0.9c-0.2,0-0.5-0.3-0.5-0.5
	c0-0.4-0.2-0.9,0.4-1.2c0.9-0.4,1.4-1-0.1-1.2c-0.5-0.1-0.4-0.4-0.3-0.7C18.8,106.5,18.9,106,20,106.1z"/>
<path class="st31" d="M10.3,107.3c-0.6,0.9-1.9,0.2-2.6,0.9c0.2,0.7,0.7,0.8,1.3,0.7c0.9-0.2,0.9,0.5,0.9,1c0,0.6-0.5,0.7-1,0.8
	c-1,0.1-2.1-1-2.4-2.2c-0.2-1.2,0.6-1.5,1.5-1.7C8.9,106.6,9.9,105.8,10.3,107.3L10.3,107.3z"/>
<path class="st32" d="M14.6,109.7c-0.3-1-0.8-1.7-1.4-2.2c-0.3-0.3-0.6-0.6-0.2-1c0.3-0.3,0.6-0.5,1-0.5c0.8,0.1,1.5,0.5,1.8,1.3
	C16.2,108.3,15.7,109,14.6,109.7z"/>
<path class="st33" d="M11.5,120.8c-0.8,0-1.2-0.5-1.2-1.3c0-0.2,0.4-0.5,0.4-0.4c0.4,0.9,1.6,0.1,1.8,0.9
	C12.7,120.5,12.1,120.8,11.5,120.8z"/>
<path class="st34" d="M13.1,123.2c0.3-0.3-0.6-1.4,0.7-1.1c0.6,0.1,0.9-0.6,1.5-0.4C15.1,123.2,15.1,123.2,13.1,123.2
	C13,123.2,13.1,123.2,13.1,123.2z"/>
<path class="st3" d="M15.4,105.1c-0.8-0.6-1.7-0.9-2.4,0.1C13.7,103.3,13.9,103.3,15.4,105.1z"/>
<path class="st31" d="M10.2,107.4c1.2,0.2,1,1,0.8,1.8C9.9,108.8,10.3,108,10.2,107.4C10.3,107.3,10.2,107.4,10.2,107.4z"/>
<path class="st35" d="M48.2,109.9c-3.2,0.9-3.2,0.9-3.4-2.4c0-0.6-0.3-1.2,0.5-1.4c0.7-0.2,1.4-0.6,2,0c0.7,0.7,1.7,1.3,1.1,2.6
	C48.2,109.1,48.2,109.5,48.2,109.9C48.2,109.9,48.2,109.9,48.2,109.9z"/>
<path class="st36" d="M38.7,112.3c1.3,0.6,2.5,0.9,3.6-0.3c-0.2,1.2-0.4,2.2-0.2,3.3c0.1,0.7-0.3,1-0.5,1.5
	c-0.3,0.6-0.8,0.5-1.1,0.1C39.4,115.7,38.5,114.3,38.7,112.3z"/>
<path class="st37" d="M38.8,109.1c0.4-0.9,1-1.5,1.9-2c0.5-0.3,0.9-0.1,1.3,0.3c0.3,0.3,0.2,0.7,0.1,1.1
	C41.4,109.8,40.4,110,38.8,109.1z"/>
<path class="st38" d="M44.8,118c0,0.8,0,1.6,0,2.4c-0.9,0-1.9,0.5-2.5-0.6c-0.1-0.3-0.3-0.6,0-0.8c0.3-0.3,0.4,0.1,0.7,0.2
	C44.2,119.8,44.1,118.3,44.8,118z"/>
<path class="st39" d="M41.8,121.3c0.1,1.1-0.3,1.7-1.3,1.9c-0.6,0.1-1-0.4-1.2-0.9c-0.1-0.1-0.1-0.3,0-0.4c0.1-0.3,0.4-0.3,0.6-0.2
	C40.7,122.9,40.9,121.2,41.8,121.3z"/>
<path class="st40" d="M38.9,119.8c-0.2,0.7-0.9,0.7-1.5,0.6c-0.7-0.1-1-0.6-0.7-1.2c0.5-1,1.1,0.6,1.8,0
	C38.7,119,39,119.3,38.9,119.8z"/>
<path class="st36" d="M38.9,111c1.4-0.1,2.3-0.1,3.5-0.7C41,112,41,112,38.9,111z"/>
<path class="st41" d="M70.4,108.4c0.1-2,0.5-2.7,1.6-2.7c1.4,0,2.6,1.1,2.6,2.3c-0.1,1.2-1.2,2.4-2.2,2.4
	C71.2,110.3,70.3,109.5,70.4,108.4z"/>
<path class="st42" d="M60.7,108c1.1,0.6,2.5,0.3,2.4,1.8c-1.6,0.9-2.4,0.8-3.1-0.5c-0.6-1-0.1-2.5,1-3.1c0.6-0.3,1.3-0.6,1.6,0.2
	c0.4,0.9-0.6,0.6-1,0.9C61.3,107.5,61.1,107.7,60.7,108z"/>
<path class="st43" d="M68.3,107.8c0,1-0.8,1.9-1.7,2c-0.8,0-1.4-0.4-1.4-1.3c0-0.8,1.1-1.7,2.1-1.6
	C67.8,106.9,68.3,107.1,68.3,107.8z"/>
<path class="st6" d="M65.4,103.7c0.6-0.2,1.2-0.8,2.1-0.2c-0.8,0.3-1.4,0.7-1.8,1.3C65.3,104.5,65.5,104.1,65.4,103.7L65.4,103.7z"
	/>
<path class="st41" d="M69.5,107c0.4,0.4,0.4,1.1,0,1.2c-0.4,0.1-0.3-0.5-0.3-0.9C69.3,107.2,69.4,107.1,69.5,107z"/>
<path class="st44" d="M68.9,23.7c-1.5-1.2-3.2-1.4-3.8-3.4c-0.3-1.2-0.1-1.6,1-1.3c0.7,0.1,0.8,0,0.6-0.7c-0.1-0.5,0.1-1,0.7-1
	c0.6,0,1.2,0.5,1,1.1C68,20.1,69.1,21.6,68.9,23.7z"/>
<path class="st45" d="M71.4,28.4c0-0.3,0-0.7-0.1-1c-0.2-1.3,0.1-1.6,1.4-1.4c1,0.1,1.7,0.6,2,1.5c0.3,0.8,0.1,1.5-0.4,2.2
	c-0.6,0.8-1.5,0.9-2.3,0.7C70.9,30,71.3,29.2,71.4,28.4z"/>
<path class="st46" d="M66.6,29.8c-0.6-0.6-0.3-1.9-1.6-2.1c-0.4,0-0.2-0.7,0-1c0.8-1,2.1-1.1,3-0.3c0.9,0.8,0.8,1.8-0.4,2.8
	C67.4,29.5,67.2,29.9,66.6,29.8z"/>
<path class="st47" d="M69.4,17.3c-0.8-0.1-1-0.7-1-1.4c0.1-0.7,0.6-1.2,1.3-1.1c0.7,0.1,1.3,0.4,1.2,1.2
	C70.8,16.7,70.3,17.4,69.4,17.3z"/>
<path class="st48" d="M68.6,25.4c-1.2-0.9-2.2-1.2-3.6-0.4C66.6,23.1,67.3,23.1,68.6,25.4z"/>
<path class="st1" d="M66.1,31.7c-0.3-0.1-0.6-0.1-0.7-0.4c0-0.1,0.1-0.3,0.2-0.3C65.9,31.1,66.1,31.4,66.1,31.7
	C66.2,31.7,66.1,31.7,66.1,31.7z"/>
<path class="st7" d="M35.6,28.5c-0.1,0.2-0.3,0.3-0.5,0.2c-0.2-0.1-0.4-0.3-0.3-0.5c0.1-0.1,0.3-0.3,0.4-0.2
	C35.4,28,35.6,28.2,35.6,28.5z"/>
</svg>
