<?xml version="1.0" encoding="utf-8"?>
<!-- Generator: Adobe Illustrator 23.1.1, SVG Export Plug-In . SVG Version: 6.00 Build 0)  -->
<svg version="1.1" id="Livello_1" xmlns="http://www.w3.org/2000/svg" xmlns:xlink="http://www.w3.org/1999/xlink" x="0px" y="0px"
	 viewBox="0 0 80 135" style="enable-background:new 0 0 80 135;" xml:space="preserve">
<style type="text/css">
	.st0{fill:#FFFFFF;stroke:#000000;stroke-width:0.2509;stroke-miterlimit:10;}
	.st1{fill:#3F3D2E;}
	.st2{fill:#424660;}
	.st3{fill:#40425F;}
	.st4{fill:#474865;}
	.st5{fill:#414066;}
	.st6{fill:#3D3C62;}
	.st7{fill:#424163;}
	.st8{fill:#423F30;}
	.st9{fill:#3E3A2C;}
	.st10{fill:#444032;}
	.st11{fill:#3A372B;}
	.st12{fill:#403E32;}
	.st13{fill:#433F5E;}
	.st14{fill:#545583;}
	.st15{fill:#A39047;}
	.st16{fill:#98885A;}
	.st17{fill:#8A7F52;}
	.st18{fill:#898155;}
	.st19{fill:#90865E;}
	.st20{fill:#C9B83D;}
	.st21{fill:#D7B739;}
	.st22{fill:#CDB13B;}
	.st23{fill:#998337;}
	.st24{fill:#D1B53B;}
	.st25{fill:#E2C637;}
	.st26{fill:#907C35;}
	.st27{fill:#EBDB35;}
	.st28{fill:#897A37;}
	.st29{fill:#B7AC46;}
	.st30{fill:#BDAF54;}
	.st31{fill:#B39B4E;}
	.st32{fill:#B4A254;}
	.st33{fill:#CFC156;}
	.st34{fill:#C3AC3C;}
	.st35{fill:#958237;}
	.st36{fill:#E3C137;}
	.st37{fill:#D6B039;}
	.st38{fill:#C1A93C;}
	.st39{fill:#DCB238;}
	.st40{fill:#CFAF3A;}
	.st41{fill:#998036;}
	.st42{fill:#947D35;}
	.st43{fill:#C2AC47;}
	.st44{fill:#D5C750;}
	.st45{fill:#D3C45F;}
	.st46{fill:#CBB53C;}
	.st47{fill:#C4AA3D;}
	.st48{fill:#C6A83F;}
	.st49{fill:#AF993B;}
	.st50{fill:#9F8A38;}
	.st51{fill:#BDAF51;}
	.st52{fill:#CBC869;}
	.st53{fill:#C3A63B;}
	.st54{fill:#B1983E;}
	.st55{fill:#8A7834;}
	.st56{fill:#A6933B;}
	.st57{fill:#EDE535;}
	.st58{fill:#806F40;}
	.st59{fill:#D4BF5C;}
	.st60{fill:#C5B33C;}
	.st61{fill:#DBBC39;}
	.st62{fill:#DDC24E;}
	.st63{fill:#928339;}
	.st64{fill:#AD9D55;}
	.st65{fill:#C2B65E;}
</style>
<path class="st0" d="M71.5,135h-63c-4.7,0-8.5-3.8-8.5-8.5V8.5C0,3.8,3.8,0,8.5,0h63C76.2,0,80,3.8,80,8.5v118
	C80,131.2,76.2,135,71.5,135z"/>
<path class="st1" d="M59.9,74.9c0.8-0.3,1.8-0.2,1.9-1.4c0-0.7,0.8-0.9,1.2-1.4c-0.6-0.6-1-1.2-1.3-2c-2.7,0.8-5.3,1.6-8,1.4
	c-0.7,0.5-0.3,1.1-0.3,1.6c-0.2,2.2-1.6,3.6-3.8,3.5c-2.3-0.1-3.7-1.6-3.6-3.9c0-0.5,0-1,0.1-1.4c-1.3-1.3-3-1.3-4.7-1.4
	c-2.4-0.1-4.9,0.4-7.3-0.7c0.4-1.3,1.4-1.1,2.2-1.2c1.3-0.1,2.5,0,3.8,0c3.3,0.1,3.3,0.1,3.6-3.1c0.7-0.1,1.4-0.2,2.2-0.3
	c-0.4-1.6-0.7-3.2,0.5-4.6c0.8-0.8,1.7-1.2,2.8-1.2c2.7-0.1,4,1.8,3.9,5.4c2.6,0,5.1,0.3,7.5,0.9c0.8,0.2,1.5,0.3,1.4-0.8
	c-0.1-0.8,1.2-0.9,0.8-1.7c0.3-1.2,1.3-0.9,2.1-1.1c0.2,0,0.4,0.1,0.5,0.3c0.1,0.6-1.2,0.9-0.5,1.3c1,0.5,0.4,2.2,1.9,2.1
	c1.3-0.1,1.9,0.7,1.9,1.9c0.1,1.1-0.5,1.7-2,1.8c-0.8,0.1-1.1,0.3-1,1.1c0,0.7-0.5,1.1-1.1,1.5c-0.7,0.4,0,0.8,0,1.2
	c-0.3,0.5-1.2,0.4-1.3,1.3c1,0.1,0.7-1.1,1.2-1.3c1,0.8,1.6,2,2.8,2.6c1,0.5,0.8,2.2-0.4,2.8c-1.2,0.6-1.1,1.3-0.8,2.3
	c0.5,1.9,0.9,3.9,1.2,5.9c0.1,1,0.3,1.5,1.4,1.4c0.7-0.1,1.4,0.1,2,0.6c1.2,0.8,1.9,1.9,1.8,3.4c-0.1,1.4-1,2.3-2.2,2.9
	c-0.9,0.5-1.9,0.2-2.8,0.4c-0.4,1.1-0.1,2.2-0.3,3.3c-1.7-0.5-0.9-1.9-1.1-2.9c0.2-0.3-0.4-0.2,0-0.1c-0.9,2-2.3,2.8-4.5,1.6
	c-0.1,6.7-0.2,13.3-0.2,19.9c0,1.1,0.3,2,0.5,3.1c0.1,0.7,0.5,1.6-0.7,1.9c-1-0.7-1.1-1.8-1.1-3c0-7.1,0-14.2,0-21.3
	c0-0.8,0-1.6,0-2.2c-0.6-0.7-1.2-0.3-1.7-0.2c-2.5,0.1-4.3-1.5-4.2-3.8c0.1-2.4,1.8-3.7,4.5-3.4c0.3,0,0.6,0.1,1.1,0.2
	c0.5-3.1,0.6-6.2,1.5-9.1c-0.4-0.6-1.3-0.3-1.7-0.9c-0.2-1.2,1-1.2,1.5-1.7C61.1,75.5,59.2,76.4,59.9,74.9z"/>
<path class="st2" d="M43.7,65c0.5,0.6,1.4,1.1,0.6,2c-0.6,0.7-0.5,2.1-2.1,1.9c-2.5-0.3-5-0.1-7.6-0.2c0,0.2,0,0.3,0,0.5
	c2.8,0,5.6,0.1,8.4,0.1c1.6,0,2.6,0.5,3,2c-10,0-20,0-30,0.2c-2.9,0.1-5.1-0.7-6.8-3.3c0.8-0.8,1.6-1.6,2.4-2.4
	c0.5-0.5,1.2-0.8,1.9-0.8C23.5,65.1,33.6,64.6,43.7,65z"/>
<path class="st3" d="M36.7,39.9c-0.3-7.7-0.1-15.4-0.2-23.1c0-0.9,0.2-1.7,0.8-2.4c0.9-1,1.5-2.4,2.8-3.4c1.9,2,3.7,3.9,3.6,6.9
	c-0.2,5.3-0.1,10.5-0.2,15.8c-0.7,1.8,0,3.6-0.3,5.4c-0.1,0.9,0.3,2.1-1.2,2.2c-1.6,0.1-1.8-1-1.7-2.3c0-0.2-0.1-0.5,0.1-0.6
	c-0.3,0.5,0.1,1.2-0.2,1.7c-0.4,1-1.3,1.7-2.3,1.8C36.3,42.1,37.5,40.4,36.7,39.9z"/>
<path class="st4" d="M60.3,36.8c0-5.4,0-10.8-0.1-16.2c0-0.2,0.1-0.5,0.1-0.7c-0.1-4.9-0.1-4.9,3.5-9c1.9,2.3,3.7,4.5,3.7,7.9
	c-0.2,7.6,0,15.3,0,22.9c-1.5,0-3,0.4-4.5,0.1c-0.6-0.1-1.5-0.5-0.9-0.9c2-1.4,0.2-3.4,0.9-4.8c-0.3,1.6,0.7,3.8-1.6,5.1
	C60.1,40,61.4,38.1,60.3,36.8z"/>
<path class="st5" d="M19.2,97.8c0.3,2.7,0.1,5.4,0.1,8.1c0,4.1-0.1,8.1,0.1,12.2c0.1,2-0.3,3.6-1.8,4.9c-0.7,0.6-0.9,1.5-1.9,2
	c-1.8-2.2-3.5-4.2-3.3-7.4c0.3-6.5,0.1-13.1,0.1-19.6c0-1-0.1-2.1-0.1-3.1c1.8,0.3,0.1,1.7,0.8,2.1c0-0.3-0.1-1,0.2-1.7
	c1.3,0.2,1.5,1.3,1.8,2.3c0.3-1.6,1.7-2.1,2.7-3c0.6-0.5,1-0.1,1,0.6C19.1,96.1,18.8,96.9,19.2,97.8z"/>
<path class="st6" d="M43.7,95.2c-0.1,7.6-0.2,15.2-0.1,22.8c0,2.1-0.3,3.9-1.9,5.4c-0.5,0.5-0.8,1.1-1.5,1.6c-1-1-1.9-2.1-2.9-3.1
	c-0.4-0.4-0.5-1-0.5-1.6c0.1-6.2,0.2-12.3,0.2-18.5c0.5-1.5,0.1-3.1,0.3-4.7c0.1-0.7-0.4-1.6,0.4-1.9c0.7-0.3,1.3,0.5,1.8,0.9
	c0.2,0.2,0.3,0.3,0.4,0.6c0.5-0.2,0.6-0.9,1.1-1.1c0.5-0.3,0.9-1.1,1.6-0.8c0.7,0.3,0.2,1.2,0.4,1.9c0,0.2,0.4-0.2,0.1-0.1
	c-0.1,0-0.1,0-0.1-0.2C43.1,95.9,42.7,95.1,43.7,95.2z"/>
<path class="st7" d="M61.2,121.8c0.7-0.6,0.3-1.1,0.1-1.7c-0.5-1.3-0.6-2.6-0.6-4c0.1-6,0.2-12.1,0.2-18.2c0-0.7,0-1.4,0-2.1
	c1.2,0.3,1.9,1.7,3.1,1c0.9-0.5,1.5-1.3,2.4-2.1c0.8,1.2-0.3,2.7,0.8,3.6c0,0.3,0,0.6,0,0.9c-0.4,1.6-0.5,3.2,0,4.8
	c0.1,0.2,0.1,0.3,0,0.4c-0.4,0.7-0.4,1.3,0,2c0.2,0.6,0.2,1.2,0,1.9c-0.1,0.1-0.3,0.3-0.2,0.5c0.2,0.3-0.1,0,0.2-0.1
	c0.4,3.7,0.2,7.3,0.3,11c0,0.6-0.2,1.1-0.5,1.5c-1,1.2-2,2.3-3,3.5C62.7,124,61.9,122.9,61.2,121.8z"/>
<path class="st8" d="M36.7,39.9c0.8,0.3,0.4,1.2,0.9,1.8c1.6-0.6,2.9-1.5,2.5-3.6c0.7,0.2,0.4,0.6,0.4,0.9c0.1,0.3,0,0.6,0.1,0.9
	c0.2,0.7,0.7,1,1.4,1c0.7,0,0.8-0.6,0.9-1.2c0.2-1.7-0.3-3.5-0.1-5.2c0.1-0.5,0.1-0.7,0.6-0.7c0,2.6-0.1,5.3-0.1,8.1
	c1.9-0.1,3.7-0.6,5,1c0.6,0.7,0.9,1.5,0.9,2.4c-0.1,2.5-1.7,3.5-5.5,3.6c-0.3,2.7-0.4,5.4-1.4,7.7c0.4,0.6,0.8,0.6,1.2,0.7
	c0.8,0.2,1.2,0.7,1.3,1.5c0.1,0.9-0.3,1.6-1.1,1.9c-0.8,0.3-1.2,0.7-1.6,1.5c-0.7,1.4-2.5,1.4-3.4,0.2c-0.5-0.7-0.9-1.3-1.7-1.7
	c-1.6-0.8-1.6-2.4,0-3.3c1-0.5,1-0.9,0.7-1.8c-0.3-1.4-0.7-2.8-0.8-4.2c-0.1-2.1-0.2-2.1-2.3-2.2c-1.9-0.1-3.3-1.2-3.6-2.9
	c-0.4-2,0.2-3.1,2.3-4c0.7-0.3,1.4-0.2,2.1,0c0.6,0,1.2,0,1.1-0.9C36.5,40.8,36.6,40.4,36.7,39.9z"/>
<path class="st9" d="M43.7,95.2c-0.8,0.4-0.2,1.4-0.7,1.9c-0.5-0.6,0-1.4-0.4-2c-0.4,0.3-0.8,0.8-1.3,1c-0.8,0.2-0.9,1.6-1.3,1.2
	c-0.5-0.6-1.3-0.6-1.6-1.3c-0.1-0.2-0.3-0.3-0.9-0.8c0,1.6,0,2.9-0.1,4.2c-0.1,0.8,0.3,1.8-0.5,2.5c0-1.7-0.1-3.3-0.1-5
	c0-1.1-0.1-1.7-1.6-1.5c-1.8,0.3-3.5-1.2-3.9-2.8c-0.4-1.4,0.3-3.1,1.7-3.9c1-0.7,2.2-0.4,3.4-0.5c0.4-2.8,0.5-5.6,1.4-8.3
	c0.3-0.8-0.3-0.9-0.8-1.2c-1.9-1.2-1.9-2.7,0.1-3.6c0.7-0.3,0.9-0.7,1.1-1.3c0.3-0.8,0.9-1.4,1.8-1.3c0.9,0.1,1.7,0.5,1.9,1.5
	c0.1,0.7,0.4,1.1,1.2,1c1.1-0.1,1.9,0.7,1.9,1.7c0.1,1.1-0.6,1.8-1.7,2c-0.3,0.1-0.6,0.1-1.1,0.2c0.8,2.7,1.1,5.5,1.3,8.2
	c0.1,1,0.4,1.2,1.4,1c1.2-0.2,2.4,0,3,1.3c-0.8,0.8-1.9-0.2-2.8,0.7c0.7,0.7,1.6,1.6,0.2,2.5c-0.3,0.2-0.6,0.6-0.2,1
	c0.3,0.3,0.7,0.3,1.1,0.1c1-0.4,1.4-1.2,1.4-2.3c0-0.7-0.3-1.4,0.3-2c1.4,0.9,1.3,2.2,0.9,3.5c-0.5,1.4-1.6,2.2-3,2.3
	C45.3,95.3,44.5,95.2,43.7,95.2z"/>
<path class="st10" d="M60.3,36.8c0.8,0.4,0.9,1,0.9,1.8c0,0.7-0.2,1.4,0.2,2.1c2.1-1.5,0.9-3.8,1.5-5.7c0.1,0.1,0.3,0.2,0.3,0.2
	c0,1-0.1,2.1,0,3.1c0.1,0.9,1.6,1,1.4,2.2c-0.7,0-1.6-0.4-2.4,0.7c1.4-0.3,2.6,0.6,3.9-0.2c0.6-0.4,0.9,0.4,1.4,0.7
	c0.6,0,1.3,0,1.9,0.1c2,0.3,3.3,1.6,3.3,3.4c0.1,2-1.1,3.4-3.2,3.7c-0.5,0.1-1.1,0.1-1.7,0.1c-0.4,2.2-0.7,4.4-1.4,6.5
	c-0.3,0.8,0,1.1,0.9,1.5c1.4,0.6,1.4,1.6,0.4,2.9c-0.5-0.3-0.5-1.2-1.4-1.4c0.1,0.9,1.1,0.9,1.4,1.4c-0.5,0.9-2.1,0.7-2.3,2
	l-0.1-0.1c-0.8-0.7-1-1.8-1.5-2.8c0.4,1.6-0.5,2.3-1.8,2.8c-0.1-0.7-0.5-1-1.2-1.3c-2-0.9-2.1-2.3-0.2-3.7c0.5-0.4,0.8-0.7,0.6-1.3
	c-0.6-1.7-0.8-3.6-1-5.4c-0.1-1-0.4-1.3-1.5-1.2c-2,0.1-3.3-0.8-3.8-2.3c-0.9-2.6,0.7-4.8,3.4-4.9c1.6,0,1.6,0,1.7-1.7
	C60.2,39.1,60.3,38,60.3,36.8z"/>
<path class="st11" d="M19.2,97.8c-0.9-0.8-0.1-2-0.7-3.1c-0.7,1.6-2.9,1.7-3.4,3.6c0-1.2-1.1-1.7-1.6-2.5c0,0.8,0,1.5,0,2.5
	c-1-1.1,0.2-2.6-1-3.4c-0.8,0.4-1.7,0.5-2.5,0.5c-2.3-0.1-3.7-1.8-3.5-4c0.2-1.9,1.9-3.3,4.1-3.1c0.5,0,1,0.4,1.8,0.1
	c0.5-2.2,0.2-4.6,0.9-6.9c0.1-0.4,0.1-0.8,0.2-1.2c0.4-1,0.4-1.7-0.9-1.8c-0.3,0-0.6-0.2-0.7-0.5c-0.5-1.8,1.1-0.5,1.5-1
	c0.2-0.9-1.3-0.9-1-1.8c0.8-0.3,1.4-0.6,1.9-1.5c0.8-1.7,2.7-1.6,3.5,0.1c0.4,0.8,0.7,1,1.5,1.1c1,0.1,1.5,0.8,1.6,1.8
	c0,0.9-0.5,1.6-1.3,1.8c-1.2,0.2-1.3,0.7-0.9,1.8c0.7,2,1,4,1.1,6.1c0.1,1.2,0.4,1.7,1.8,1.8c3,0.2,4.5,3.2,3,5.5
	c-0.9,1.2-2.1,1.9-3.7,1.6c-0.5-0.1-0.9-0.4-1.3,0.2C19.4,96.2,19.5,97,19.2,97.8z"/>
<path class="st12" d="M13.5,56.9c-0.1-2.4-1.1-4.8-1-7.2c0-0.9-0.6-0.8-1.3-0.7c-2.1,0.3-3.7-0.9-4.1-2.7c-0.7-3,1.3-4.7,4.8-4.2
	c1,0.9,1.3-1.4,2.3-0.6c0.7,0.6,1.5-0.2,1.7-0.1c-0.2,0-1,0.6-1.8,0.1c0.1-1.8,1.2-2,2.6-1.7c1.6,1.7,1.7-1,2.8-1
	c0.1,1,0.1,2.1,0.2,3.1c3.4-0.2,5.5,1.2,5.4,3.6c-0.1,2.4-1.8,3.6-5.5,3.5c-0.2,2.5-0.4,5-1.1,7.4c-0.3,0.9,0.8,0.8,1.2,1.2
	c-1.3,0.9-0.9,2.5-1.4,3.7c-0.3,0.5-0.2,1.3-1,1.5c-0.3-0.3-0.4-0.6-0.7-1.1c0,0.7,0.5,0.8,0.7,1.1c-1.6,0.8-2.5,0.9-2.9-0.3
	c-0.4-1.5-1.7-1.4-2.6-2.1C13.3,59,13.3,59,13.5,56.9z"/>
<path class="st13" d="M14.2,41.5c-0.5,0-0.8,0.2-1.1,0.6c-0.4,0.5-0.9,0.4-1.3-0.1c0.5,0,0.9-0.1,1-0.8c0-1.3,0.1-2.6,0.1-3.8
	c0-6.1,0-12.3,0.1-18.4c0-3.8,0.3-4.5,3.1-7.7c1.4,1,1.9,2.6,2.9,3.9c-0.7,0.6-1.3,0-1.8-0.4c-0.3,7.6,0.1,15.3,0,22.9
	c0,0.9,0.2,1.8-0.6,2.5C15.2,39.6,14.6,40.4,14.2,41.5L14.2,41.5z"/>
<path class="st14" d="M16.6,40.1c-0.3-3.4-0.1-6.8-0.2-10.3c-0.2-5.4,0.1-10.8,0.1-16.3c1.2,0.1,1.2,1.8,2.5,1.6
	c0.6,0.5,0.8,1.1,0.8,1.9c-0.2,7.2,0.1,14.4-0.3,21.7c-0.9,0.7-0.1,1.8-0.8,2.7C17.8,41.3,17.2,40.7,16.6,40.1z"/>
<path class="st15" d="M62,61.8c0.2-0.4,0.2-0.9,0.5-1c0.9-0.5,1.2-0.9,0.4-1.8c-0.2-0.3-0.2-1,0.3-1.2c0.6-0.3,1.4,0.3,1.3,0.6
	c-0.5,1.4,1,2.3,0.7,3.5c-0.7,0.6-1.8,0.2-2.5,0.8C62.3,62.6,62.1,62.3,62,61.8z"/>
<path class="st16" d="M18.3,61.2c0-0.2,0.2-0.5,0.1-0.7c-1.2-1.8-1.1-2.1,1-2.7c0.1,0,0.3-0.2,0.4-0.3C21.4,59.3,21,60.4,18.3,61.2z
	"/>
<path class="st17" d="M13.5,56.9c0.2,0.4,0.3,0.9,0.5,1.3c0.8,1.8,0.6,2.1-1.4,1.9c-0.2,0-0.4,0.1-0.6,0.2
	C10.6,58.4,11,57.5,13.5,56.9z"/>
<path class="st18" d="M59.9,74.9c0.2,1,0.9,0.2,1.3,0.3c0.6,0.2,1.1,0.5,0.9,1.1c-0.1,0.3,0,1.1-1,0.9c-0.4-0.1-0.9,0.6-1.4,0.9
	C58.4,76.5,58.4,76.5,59.9,74.9z"/>
<path class="st19" d="M12.3,75.1c0.2,0.4,0.6,0.4,1,0.4c1.2,0.2,1,0.9,0.8,1.7c-0.3,1-0.9,0.7-1.4,0.4c-0.6-0.5-0.8-0.2-0.9,0.3
	C10.9,76.4,11,76.2,12.3,75.1z"/>
<path class="st1" d="M67.2,104.1c-0.7-1.6-0.7-3.2,0-4.8C67.3,100.9,67.3,102.5,67.2,104.1z"/>
<path class="st1" d="M67.1,106.5c-0.7-0.7-0.7-1.3,0-2C67.3,105.2,67.3,105.9,67.1,106.5z"/>
<path class="st3" d="M35.4,42.2c-0.7,0-1.4,0-2.1,0C34,41.6,34.7,41.7,35.4,42.2z"/>
<path class="st5" d="M19.3,95.4c0.3-0.8,0.8-0.7,1.3-0.2C20.2,95.3,19.8,95.4,19.3,95.4z"/>
<path class="st1" d="M67.2,108.8c-0.1,0.2-0.2,0.4-0.3,0.6c-0.1,0-0.1,0-0.2-0.1c-0.2-0.5,0.1-0.7,0.4-1
	C67.2,108.5,67.2,108.7,67.2,108.8z"/>
<path class="st20" d="M65.9,91.3c-0.1,1.5-0.9,2.3-2.4,2.3c-1.4,0-2.4-1-2.4-2.4c0-1.4,1.2-2.6,2.6-2.5C65,88.8,66,89.8,65.9,91.3z"
	/>
<path class="st21" d="M57.9,94.3c-1.2,0-2-0.6-2.5-1.6c-0.5-1.1-0.4-2.2,0.4-3.1c0.6-0.7,1.4-1.3,2.5-1c0.4,0.1,1,0.2,1.1,0.8
	c0.1,0.5-0.3,0.9-0.7,1.1c-0.2,0.1-0.5,0.1-0.7,0.2c-0.6,0.4-0.7,0.8,0,1.2c0.2,0.1,0.5,0.1,0.7,0.2c0.4,0.5,0.8,1,0.6,1.7
	C59.1,94.3,58.5,94.3,57.9,94.3z"/>
<path class="st22" d="M67.5,93.9c-0.2-0.5,0.1-0.8,0.1-1c0-1.3,1.6-0.7,1.7-1.4c0.2-1.2-1.6-0.3-1.8-1.5c-0.1-0.6-0.1-0.9,0.4-1.1
	c1-0.5,1.8-0.3,2.7,0.2c0.8,0.5,1.2,2.1,1,3.2c-0.3,1-0.9,1.7-2,1.8C69,94.2,68.2,94.2,67.5,93.9z"/>
<path class="st23" d="M65.5,84.4c-0.7-0.7-1.6-1-2.5-1.4c-1.5-0.8-1.6-1-0.8-2.5c0.2-0.4,0.7-0.8,0.7-1.2c0-0.7,0.5-0.8,0.9-0.9
	c0.6,0,1.3,0.3,1.3,0.8c-0.3,1.8,1.1,3,1.2,4.6C66.4,84.4,65.8,84.3,65.5,84.4L65.5,84.4z"/>
<path class="st24" d="M49.2,61.6c-0.4,1.1-1,1.8-2,2c-0.6-1.7-0.5-2.6,0.5-3.3c1-0.7,2.9-0.6,3.8,0.2c0.7,0.6,0.9,1.9,0.4,2.6
	c-0.3,0.5-0.7,0.2-1,0.1C49.8,63.2,50.2,62,49.2,61.6z"/>
<path class="st25" d="M49.5,73.5c0.2-0.2,0.4-0.5,0.6-0.7c0.5-0.5,1.1-0.9,1.7-0.4c0.6,0.5,0.4,1.3,0.1,2c-0.5,1-2.2,1.5-3.4,1.1
	c-1.4-0.5-2-1.5-1.7-3c0.1-0.6,0.5-0.8,1-0.5C48.4,72.5,48.9,73,49.5,73.5z"/>
<path class="st23" d="M65,85.4c0.6,0.6,1.7,1,1.5,2.5c-1.2-1.1-2.6-1.5-4.1-1.7c-0.9-0.1-1.5-1.3-1.1-2.2c0.2-0.6,0.8-0.6,1.2-0.3
	C63.3,84.2,64.1,84.8,65,85.4L65,85.4z"/>
<path class="st26" d="M50.3,69.9c-1.4,0.9-2.2,0-3-0.9c-0.6-0.8-0.6-1.8,0-2.7c0.6-1,1.6-1.2,3-0.8C49.6,67,49.8,68.4,50.3,69.9z"/>
<path class="st27" d="M50.3,69.9c-0.3-0.1-0.8-0.2-0.8-0.3c-0.2-1.3-0.7-2.5,0-3.8c0.2-0.3,0.5-0.2,0.8-0.3
	C52.4,67.2,52.4,68.5,50.3,69.9z"/>
<path class="st28" d="M57.4,70.3c-0.3-1.3,0.1-2.1,0.7-3c0.6-0.9,1.6-0.4,2.3-0.4c0.4,0,0.5,0.5,0.3,1
	C60.1,69.3,59.1,70.2,57.4,70.3z"/>
<path class="st29" d="M64.7,72.8c0,0.2,0,0.5,0.1,0.7c0.2,0.6,0.4,1.4-0.4,1.6c-0.6,0.2-1.4-0.1-1.9-0.6c-0.4-0.4-0.1-0.9,0.2-1.2
	C63.3,72.7,64,72.9,64.7,72.8C64.7,72.9,64.7,72.8,64.7,72.8z"/>
<path class="st30" d="M68,67.2c-0.1,0.7-0.6,0.9-1.2,0.9c-0.5,0-1-0.1-1.1-0.7c0-0.7,0.4-1.2,1.1-1.2C67.5,66.1,67.9,66.5,68,67.2z"
	/>
<path class="st31" d="M46.4,69.4c-2.2-1.5-1.9-2.3,0.1-3.9C46.1,66.9,45.2,68.1,46.4,69.4z"/>
<path class="st32" d="M52.8,66.2c1.6,1.5,1.6,1.5,0.1,3.3C52.8,68.2,53.4,67.2,52.8,66.2z"/>
<path class="st33" d="M64.9,64.9c-0.1,0.6-0.5,1-0.8,0.9c-0.7-0.2,0-1.3-0.7-1.7c-0.2-0.1,0.2-0.4,0.4-0.4
	C64.7,63.8,64.8,64.4,64.9,64.9z"/>
<path class="st23" d="M65.4,84.4c0.2,0.5,0.4,1-0.5,1c0,0,0,0,0,0C65,85,65,84.6,65.4,84.4C65.5,84.4,65.4,84.4,65.4,84.4z"/>
<path class="st34" d="M40.3,42.9c1.2,0,2.4,1.1,2.4,2.4c0.1,1.3-1.2,2.7-2.5,2.7c-1.3,0-2.4-1.2-2.5-2.4
	C37.7,44.2,39,42.9,40.3,42.9z"/>
<path class="st35" d="M40.4,53.9c0.6,0.8,1.6,1,1.3,2c-0.2,0.6-0.7,0.9-1.2,1c-1.5,0.4-1-1.3-1.8-1.7c0.6-1.4-0.7-2.5-0.6-3.9
	c0.1-1.2,0.1-1.3,1.4-1c1.5,0.4,2.6,1,2.7,2.8C42.2,54.5,41.5,54.2,40.4,53.9z"/>
<path class="st36" d="M31.8,45.4c0.1-1.8,1.2-2.8,2.9-2.7c0.5,0,1.1,0,1.2,0.6c0.1,0.6-0.1,1.1-0.7,1.3c-1.3,0.3-1.3,0.8-0.1,1.3
	c0.8,0.3,0.8,1,0.8,1.5c0,0.7-0.7,0.7-1.3,0.8C33,48.3,31.8,47.2,31.8,45.4z"/>
<path class="st37" d="M44.3,47.4c0.5-0.9,0.8-1.7,1.6-2.2c0.1-0.1,0.1-0.2-0.1-0.3c-0.7-0.4-1.3-1-1.2-1.8c0.1-0.5,0.6-0.6,1.1-0.6
	c1,0,2,0.3,2.3,1.3c0.4,1.1,0.5,2.4-0.3,3.4C46.8,48.1,45.6,47.8,44.3,47.4z"/>
<path class="st3" d="M41.1,41.6c-0.5,0.4-1,0.3-1.7,0C40.1,41.3,40.6,41.2,41.1,41.6z"/>
<path class="st38" d="M40.1,88.8c1.3,0,2.5,1.1,2.5,2.4c0.1,1.3-1.1,2.5-2.3,2.6c-0.6,0-1.1-0.1-1.6-0.5c-0.8-0.6-0.5-1.6-1-2.4
	C37.3,90.1,38.8,88.8,40.1,88.8z"/>
<path class="st39" d="M48.2,89.4c-0.2,0.7,0.3,1.2,0.4,1.8c0.2,2-1.6,3.6-3.4,3.2c-1.1-0.3-1.1-0.6-0.6-1.7c0.4-0.9,1.3-0.6,2-1.4
	c-1-0.5-2.5-0.5-1.9-1.9c0.4-1,1.6-0.8,2.6-0.4C47.4,89.3,47.7,89.6,48.2,89.4C48.2,89.4,48.2,89.4,48.2,89.4z"/>
<path class="st40" d="M36.5,89.3c-0.3,0.4-0.4,0.7-0.7,0.9c-1.1,0.9-1.4,1.7-0.1,2.7c0.3,0.3,0.9,0.6,0.5,1.2
	c-0.3,0.5-0.8,0.5-1.3,0.4c-1.9-0.2-3-1.6-2.6-3.5C32.7,89.2,33.9,88.6,36.5,89.3z"/>
<path class="st41" d="M40.1,84.1c0.9,1,2.6,1.2,2.8,3.1c-1.3-0.1-2.3-1.1-3.9-0.6c0.8,0.7,2.1,0.1,2.4,1.5c-1.1-0.4-2.2,0.7-3.3-0.3
	c-0.2-0.2-0.7-0.3-0.6-0.6c0.3-1.4,0.1-2.9,0.8-4.1c0.2-0.3,0.5-0.3,0.9-0.2C39.6,83.1,39.6,83.8,40.1,84.1z"/>
<path class="st42" d="M40.1,84.1c-0.9,0-1-0.6-1-1.3c-0.1-0.3-0.3-0.6-0.2-0.9c0.1-0.7-0.6-1.5,0.2-2c0.8-0.4,1,0.5,1.5,0.8
	c0.7,0.4,0.8,0.1,0.9-0.5l0,0c0.9,0.9-0.1,2.5,1.7,3.3c-1.2,0.1-2,0.5-2.8-0.1C40.1,83.2,40.1,83.8,40.1,84.1z"/>
<path class="st43" d="M43.3,75.5c0.7,0.1,1.2,0.3,1.2,1.2c0,0.2-0.2,0.6-0.4,0.4c-0.5-0.6-1.6,0-1.9-0.6
	C42,75.9,42.6,75.5,43.3,75.5z"/>
<path class="st44" d="M37.9,75.4c0.6,0.1,1,0.3,0.8,0.9c-0.1,0.8-0.9,0.4-1.3,0.6c-0.6,0.2-0.7-0.2-0.6-0.6
	C36.9,75.7,37.3,75.4,37.9,75.4z"/>
<path class="st45" d="M40.1,73.2c0.7-0.3,1,0.1,1.3,0.6c0.2,0.4,0.3,1-0.2,1.2c-0.7,0.3-0.9-0.1-0.8-0.8
	C40.5,73.8,39.8,73.6,40.1,73.2z"/>
<path class="st42" d="M41.5,80.3c-1.2-0.1-1-0.8-0.8-1.6C41.8,79,41.4,79.7,41.5,80.3C41.5,80.3,41.5,80.3,41.5,80.3z"/>
<path class="st6" d="M41.1,95c0,0.1,0.1,0.3,0.1,0.4c-0.1,0.1-0.2,0.2-0.4,0.2c-0.2,0-0.2-0.2-0.1-0.3C40.8,95.1,41,95,41.1,95z"/>
<path class="st46" d="M66,44.8c0,1.3-1.2,2.6-2.4,2.5c-1.4,0-2.5-1.3-2.5-2.7c0-1.3,1.3-2.5,2.5-2.4C64.9,42.2,66,43.5,66,44.8z"/>
<path class="st47" d="M67.9,46.1c0.5-0.3,1-0.5,1.4-0.7c0-0.4-0.1-0.6-0.3-0.7c-0.6-0.4-1.2-1.1-0.7-1.7c0.5-0.6,1.5-0.4,2.2,0
	c0.9,0.4,1.9,2.5,1.2,3.7c-0.7,1.1-2.5,1.9-3.7,1.3C66.8,47.3,68,46.6,67.9,46.1L67.9,46.1z"/>
<path class="st48" d="M59.1,43c0.2,0.5-0.2,0.9-0.4,1.3c-0.2,0.3-0.6,0.5-0.7,1c0.5,0.7,1.1,1.4,1.7,2.2c-1.5,0.7-2.5,0.6-3.3-0.1
	c-0.7-0.8-0.9-2.3-0.3-3.4C56.8,42.8,57.3,42.6,59.1,43z"/>
<path class="st49" d="M65.4,54.2c-1.3-1.6-3.4-2.4-3.8-4.7C65,50.4,65.6,51.1,65.4,54.2z"/>
<path class="st50" d="M64.3,56.4c-1.4,0-2.1-0.6-2.2-1.8c-0.1-0.8,0.4-1,1-1c0.6-0.1,1.9,1.2,2.1,1.9C65.3,56.1,65.3,56.7,64.3,56.4
	z"/>
<path class="st51" d="M67.7,60c-0.5,0-0.9,0-1.4,0c-0.7-0.1-1.1-0.5-1-1.3c0-0.5,0.3-0.9,0.8-1.1c0.7-0.2,1.2,0.2,1.5,0.8
	C67.9,58.9,67.6,59.5,67.7,60C67.7,60,67.7,60,67.7,60z"/>
<path class="st52" d="M60.1,58.8c0.3-0.4,0.5-0.4,0.7-0.2c0.3,0.5,1.4-0.6,1.4,0.6c0,0.3-0.3,0.6-0.6,0.6
	C60.6,60,60.3,59.5,60.1,58.8z"/>
<path class="st47" d="M67.9,46c-0.3,0.1-0.8,0.5-0.9-0.1c-0.1-0.6,0.1-1.3,0.2-2C68.2,44.5,67.8,45.3,67.9,46
	C67.9,46.1,67.9,46,67.9,46z"/>
<path class="st53" d="M21.2,94.2c-0.3,0-0.6,0.1-0.9,0.1c-0.5-0.1-0.9-0.3-0.6-1c0.3-0.5,0.5-1,0.8-1.4c0.2-0.3,1,0.4,1.1-0.4
	c0-0.7-0.8-0.3-1.1-0.6c-0.4-0.5-1.1-0.9-0.8-1.6c0.3-0.6,1-0.7,1.7-0.5c1.3,0.4,2.3,0.9,2.6,2.4C24.3,93.1,23.3,94.3,21.2,94.2z"/>
<path class="st54" d="M11.6,89.4C10,91,10.4,92.6,11.9,94c-1.6,0.7-3.2,0.6-3.9-0.3c-0.8-1-0.9-2.2-0.3-3.3
	C8.4,89.1,9.2,88.9,11.6,89.4z"/>
<path class="st55" d="M14.2,81.3c0-0.2,0.1-0.4,0-0.7c0-0.9,0.7-1.4,1.3-1.8c0.5-0.3,2.3,1.3,2.1,1.8c-0.2,0.6-0.1,0.8,0.2,1.2
	c0.3,0.4,0.9,1.1,0.4,1.4c-0.5,0.3-1.3,0.7-1.9,0.4c-0.8-0.4-1.3-1.2-2.1-1.5C13.8,82.1,14.1,81.6,14.2,81.3z"/>
<path class="st56" d="M16,86.7c-0.2-0.3-0.5-0.3-0.8-0.3c-0.4-0.1-1.1,0.3-1.2-0.3c-0.1-0.7-0.6-1.3-0.2-2c0.3-0.6,0.7-0.8,1.3-0.4
	c0.8,0.5,1.4,1.2,2.5,1.3c0.3-0.1,0.3,0,0.3,0.2c0.1,0.3,0.3,0.6,0.4,0.8c0.2,0.8,0.2,1.2-0.8,0.9C16.9,86.7,16.4,86.7,16,86.7
	L16,86.7z"/>
<path class="st57" d="M13.1,91.4c0-1.3,0.7-2.1,1.9-2.3c1.3-0.2,2.3,0.2,2.9,1.4c0.5,1.5-0.7,1.5-1.6,1.6
	C15.2,92.3,14,92.5,13.1,91.4z"/>
<path class="st58" d="M13.1,91.4c1.4,0.3,2.7,0.4,4.1,0c0.5-0.1,0.6-0.5,0.7-0.9c0.4,1.5-0.2,2.9-1.5,3.3
	C14.9,94.2,13.6,93.3,13.1,91.4z"/>
<path class="st59" d="M18.7,75.5c0.6,0.1,1.1,0.3,1.1,1c0,0.9-0.7,0.9-1.3,1c-0.5,0.1-0.9-0.2-1-0.8C17.5,75.9,18,75.6,18.7,75.5z"
	/>
<path class="st56" d="M16,86.6c0.3,0.6,1.3,0.6,1.2,1.7c-0.7-0.3-1.4-0.8-2.2-0.7L15,87.6C15.1,87,15.6,86.9,16,86.6
	C16,86.7,16,86.6,16,86.6z"/>
<path class="st55" d="M17.8,85.1c-0.1-0.1-0.2-0.2-0.3-0.2c0.1-0.5,0.4-0.5,0.8-0.3c0.1,0.1,0.2,0.3,0.2,0.4
	C18.4,85.3,18.1,85.1,17.8,85.1z"/>
<path class="st54" d="M12.5,92.8c-0.1,0.1-0.2,0.2-0.3,0.2c-0.3-0.1-0.5-0.3-0.5-0.7c0-0.1,0.2-0.2,0.3-0.2
	C12.2,92.3,12.5,92.5,12.5,92.8z"/>
<path class="st56" d="M15.1,87.6c-0.1,0.3-0.4,0.5-0.7,0.6c0,0-0.2-0.2-0.2-0.3C14.4,87.6,14.7,87.6,15.1,87.6
	C15,87.6,15.1,87.6,15.1,87.6z"/>
<path class="st60" d="M18.4,45.3c-0.1,1.5-1.3,2.6-2.7,2.4c-1.2-0.1-2.4-1.4-2.3-2.6c0-1.4,1.4-2.6,2.7-2.5
	C17.1,42.8,18.4,44.2,18.4,45.3z"/>
<path class="st61" d="M21.6,45.1C21.7,45.2,21.6,45.1,21.6,45.1c-1-0.4-1.7-1.1-1.4-2.2c0.2-0.7,2.2-0.4,3,0.4
	c0.9,0.8,1.2,2.2,0.7,3.3c-0.5,1.1-1.5,1.6-2.7,1.7c-1.1,0-1.5-0.5-0.9-1.6C20.7,46.1,21.2,45.6,21.6,45.1z"/>
<path class="st62" d="M12,43.2c-0.1,0.3-0.2,0.4-0.2,0.6c-0.2,0.8-1.3,0.8-1.5,1.6c1,0.2,0.7,1.3,1.2,1.8c0.8,0.8,0.1,0.9-0.4,1
	c-1.6,0.3-3-0.7-3.3-2.3c-0.3-1.6,0.7-3.1,2.3-3.3C10.8,42.5,11.4,42.7,12,43.2z"/>
<path class="st63" d="M15.5,53.5c-0.4-0.7-0.6-1.5-1.1-2.1c-0.2-0.3-1-0.3-0.6-0.9c0.3-0.5,0.7-0.1,1-0.1c0.9,0,1.7,0.9,2.7,0.5
	c0.5-0.1,0.6,0.2,0.6,0.7c-0.1,0.8,0,1.6,0,2.4C16.9,54.4,16.3,53.4,15.5,53.5L15.5,53.5z"/>
<path class="st63" d="M15.5,53.5c0.6,0.9,1.1,1.7,1.7,2.6c0.1,0.1,0,0.3,0,0.5c-1.8,0-2.5-0.4-2.9-1.6C13.9,53.8,15,54,15.5,53.5
	C15.5,53.5,15.5,53.5,15.5,53.5z"/>
<path class="st64" d="M14.2,41.6c2.1-0.8,2.1-0.8,3.4,0.7c-1-0.4-2-0.6-3-0.1C14.3,42.4,14.3,41.8,14.2,41.6
	C14.2,41.5,14.2,41.6,14.2,41.6z"/>
<path class="st65" d="M17.3,62.7c-0.5,0-1.1,0-1.5,0c-0.2-0.4-0.2-0.7,0-0.8c0.7-0.3-0.3-1.7,0.9-1.4c0.9,0.2,0.6,1.1,0.6,1.8
	C17.3,62.4,17.3,62.6,17.3,62.7C17.3,62.7,17.3,62.7,17.3,62.7z"/>
</svg>
