<?xml version="1.0" encoding="utf-8"?>
<!-- Generator: Adobe Illustrator 23.1.1, SVG Export Plug-In . SVG Version: 6.00 Build 0)  -->
<svg version="1.1" id="Livello_1" xmlns="http://www.w3.org/2000/svg" xmlns:xlink="http://www.w3.org/1999/xlink" x="0px" y="0px"
	 viewBox="0 0 80 135" style="enable-background:new 0 0 80 135;" xml:space="preserve">
<style type="text/css">
	.st0{fill:#FFFFFF;stroke:#000000;stroke-width:0.2509;stroke-miterlimit:10;}
	.st1{fill:#2E342B;}
	.st2{fill:#424D72;}
	.st3{fill:#3B453E;}
	.st4{fill:#394668;}
	.st5{fill:#52463E;}
	.st6{fill:#3E486A;}
	.st7{fill:#655249;}
	.st8{fill:#B19071;}
	.st9{fill:#979F9D;}
	.st10{fill:#A77661;}
	.st11{fill:#BB896C;}
	.st12{fill:#A47158;}
	.st13{fill:#DB875A;}
	.st14{fill:#B22E2B;}
	.st15{fill:#F8B061;}
	.st16{fill:#F9BA7B;}
	.st17{fill:#E1342E;}
	.st18{fill:#E43731;}
	.st19{fill:#E3CF37;}
	.st20{fill:#D9372F;}
	.st21{fill:#D78A63;}
	.st22{fill:#C3A83B;}
	.st23{fill:#B29339;}
	.st24{fill:#867232;}
	.st25{fill:#A5903F;}
	.st26{fill:#C0A142;}
	.st27{fill:#E59E6E;}
	.st28{fill:#FDFEFD;}
	.st29{fill:#FFFFFF;}
	.st30{fill:#DCE0DE;}
	.st31{fill:#B6BBB6;}
	.st32{fill:#A6ABAB;}
	.st33{fill:#F0AC6A;}
	.st34{fill:#E5D437;}
	.st35{fill:#EA3C2E;}
	.st36{fill:#C4C0BD;}
	.st37{fill:#C4B43E;}
</style>
<path class="st0" d="M71.5,135h-63c-4.7,0-8.5-3.8-8.5-8.5V8.5C0,3.8,3.8,0,8.5,0h63C76.2,0,80,3.8,80,8.5v118
	C80,131.2,76.2,135,71.5,135z"/>
<path class="st1" d="M65.7,39.7c-0.2,0.4-0.5,0.8-0.8,1.3c0.6,0.1,1.2,0.1,1.8,0.2c2,0.6,2.7,2.8,1,4c-1.2,0.9-1.1,1.8-1,2.8
	c0.2,2.4,0.2,4.8-1,7c-0.4,0.1-0.6-0.2-0.8-0.5c-0.2-2.2,1.1-4.3,0.4-6.6c-0.1-0.5,0-1.1-0.5-1.5c0.6,0.6,0.5,1.4,0.3,2.1
	c-1.1,0.5-1.8,1.1-1.7,2.6c0,1-1,1.4-1.9,0.5c-0.2-0.2-0.3-0.4-0.4-0.6c-0.3-0.7-0.2-1.4-0.5-2.4c-0.6,1.2-0.5,2.2-0.5,3.2
	c0,9.2,0,18.3,0,27.5c0,1.2,0.2,2.5-1.3,3.9c-0.2-5.3-0.2-10.1,0-14.9c-0.3-4,0-7.9-0.1-11.9c0-1.2-0.2-2.1-1.1-3
	c-1.4-1.3-2.3-3-3.1-4.9c-0.5,0.6-0.8,1.1-1.2,1.6c-2.4,2.8-1.7,5.9-0.5,8.8c0.9,2.2,1.9,4.2,2.1,6.7c0.1,1.8,0.9,3.5,1.2,5.3
	c0.6,4.3,0.1,8.4-1.1,12.5c-0.2,0.6-0.5,1.2-0.8,1.7c-2.4,3.3-3,7.1-3,11.1c0,0.8,0,1.6,0.1,2.4c0.4,3.7-0.5,7.3-1.7,10.8
	c-0.8-0.2-0.8-0.9-0.8-1.5c0-0.4,0.1-0.7,0.2-1.1c1.4-3.5,1.3-7.2,1-10.9c-0.1-1.5-0.2-3,0.3-4.5c0.7-2.3,0.5-2.5-1.9-2.9
	c-0.8-0.1-1.6-0.1-2.4-0.2c-1-0.1-2-0.3-2.6,1c-0.3,0.6-0.9,1.3-1.6,0.2c-0.6-0.9-1.3,0.1-1.9,0c-0.8,0.2-1.7,0.2-2.5,0.2
	c-0.9,0-1.7,0-2.6,0c-0.2,0-0.5-0.1-0.7-0.1c-0.7-0.2-0.8-0.9-1-1.4c-0.7-0.9-0.9-2-1.1-3.1c-0.6-5.4-0.6-10.8,0.1-16.2
	c0.1-1,0.4-2,0-3.1c-0.2-0.7,0.2-1.4,0.5-2c0.6-1.4,1.2-2.8,2.1-4c1.4-2,0.9-4.1,0.6-6.2c-0.1-0.9-0.7-1.2-1.5-0.4
	c-1.3-0.1-1.2-0.9-0.9-1.8c0.2-0.6,1-1,0.6-1.8c-0.2-0.5-0.5-0.9-0.4-1.5c0-0.4,0.5-0.8,0-1.3c-0.1-0.3-0.2-0.6-0.3-0.9
	c-0.3-1.4-0.4-2.7,1.3-3.4c0.9,0.5,0.4,1.3,0.5,2c-0.1,0.5-0.1,1,0.1,1.5c0.4,0.8,0.6,1.8,0.9,2.6c0.1,0.2,0.2,0.4,0.3,0.6
	c0.2,1.5,1.2,2.6,1.6,4c0.2,0.6,0.8,1,1.3,0.7c1.3-0.9,1.9-0.4,2.8,0.8c0.9,1.3,2.5,0.6,3.8,0.5c1.2-0.1,2.9,0.3,2.7-2
	c0-0.4,0.5-0.7,0.9-1c1.9-1.3,2.4-3.5,3.1-5.5c0.3-0.8,0.9-2.5-1.3-2.8c-1.2-0.2-0.6-1.1,0-1.5c2.3-1.6,3.2-4,3.4-6.6
	c0.2-0.6,0.4-1.2,1.3-0.7c0.7,0.6,1.3,0.6,2-0.1c1.4,0,0.5,1.1,0.9,1.7c0.1-0.8,0.2-1.5-0.5-2.1c0.3-0.7,1.1-0.8,1.6-1.3
	c1.1,1.4,0.3,3.8,1.4,4.5c1.1,0.8,3.1,0.5,4.7,1C65.9,38.9,65.9,39.3,65.7,39.7z"/>
<path class="st2" d="M58.8,68.4c0.4,3.9,0.1,7.8,0.2,11.7c0,0.8,0,1.6,0.4,2.4c0-2.9,0-5.8,0-8.7c0-8,0-15.9,0-23.9
	c0-1-0.1-1.9,1.1-2.4c0.8-0.3,1.2-0.1,1.2,0.8c0,1.2-0.4,2.4,0.2,3.6c-0.5,2,0.6,4-0.4,6c1-2,0.4-4,0.4-6c1.2,0.5,1.3-0.3,1.2-1.2
	c-0.2-1.5,0-1.7,1.5-1.6c0.4,0,0.5,0.4,0.5,0.7c-0.1,0.7-0.2,1.4,0,2.2c0.3,0.9-0.6,1.8,0.1,2.7c0.2,0.2,0.3,0.4,0.5,0.6
	c-0.1,0.6-0.5,1-0.9,1.4l-0.1-0.1l0,0.1c-0.4,0.8-0.3,1.7-0.3,2.6c0,12.1-0.1,24.1-0.1,36.2c0,1.6-0.2,3.2,0,4.8
	c0.3,2.6-0.9,4.2-3,5.4c-2.2-1.5-2.8-3.6-2.7-6.2c0.2-9.8,0.2-19.7,0.2-29.5C58.6,69.3,58.5,68.8,58.8,68.4z"/>
<path class="st3" d="M14.3,59.8c0-0.2,0-0.5-0.1-0.7c-1.1-1.4-1.8-2.7-1.5-4.7c0.2-1.4-0.1-3-0.3-4.5c-0.2-1.2,0.9-2.1,0.4-3.2
	c-0.7-1.3,0.1-2.5,0-3.7c0-1.4-0.2-2.5,0.5-3.8c0.6-1-0.1-2.4,0.3-3.7c0.6-1.9,0.4-4,1.6-5.8c0.3-0.4-0.1-1.3,0.2-1.6
	c1.7-1.9,1.7-4.5,2.6-7.2c1,1.5,1.1,2.7,1.3,3.9c0.1,0.6,0.3,1,1.1,0.4c0.8-0.7,1.3,0,1.1,0.7c-0.4,1.7,0.4,3.3,0,5
	c0,0.2-0.1,0.3-0.1,0.5c1.4,3.6,0,7.1-0.6,10.6c-0.1,0.5-0.2,0.9,0.4,1.1c0.3,0.1,0.4,0.4,0.3,0.6c-0.6,1.7,0.3,3.4-0.4,5.1
	c-0.3,0.8-0.3,1.5-0.1,2.4c0.4,1.4-0.4,2.9-1.1,4.3c-0.2,0.4-0.6,0.8,0.2,1.1c1.2,0.3,0.8,1,0.3,1.6c-1.7,0.8-4,0.1-5.1,2.2
	c-0.1,0.2-0.3,0.4-0.5,0.5c-0.2,0.1-0.5,0-0.7-0.1C14,60.5,14,60.1,14.3,59.8z"/>
<path class="st4" d="M32.5,123.7c-5.5,0.1-11,0.2-16.5,0.2c-2.2,0-2.2-0.1-2.2-2.3c0-0.5,0-1,0-1.4c0.1-2.6,1.3-3.6,4.2-3.4
	c-0.4,0.1-0.7,0.2-1,0.3c0.1,0.1,0.1,0.3,0.2,0.3c1.6,0,3.2-0.1,4.8-0.1c0.6,0,1.1,0.1,1.1-0.9c0-0.8,1.1-0.4,1.8-0.4
	c0.2,0.1,0.3,0.3,0.3,0.6c-0.1,0.9,0.3,1.3,1.2,1.3c0.9,0,1.7-0.2,2.5-0.6c0.5-0.2,1-0.3,1.5-0.5c0.2-0.1,0.4-0.1,0.6-0.1
	c1.3-0.1,2.5-0.1,3.7,0.4c0.4,0.1,0.9,0.3,1.3,0.1c0.2-0.1,0.3-0.2,0.5-0.3c0.6-0.3,1.1-1.4,2-0.7c1.9,1.2,3,0.6,3.5-1.9
	c0.2-0.8,0.3-1.6,1-2.2c0.2-0.1,0.5-0.1,0.7,0.1c0.6,0.8,0.4,1.8,0.7,2.6c0.1,0.3,0.2,0.6,0.3,0.9c0.2,0.9,0.6,1.7,1.2,2.4
	c0.7,1.2,1.6,2.2,2.6,3.2c0.2,0.1,0.3,0.3,0.5,0.5c0.3,0.4,1.1,0.7,0.8,1.3c-0.3,0.5-1,0.3-1.6,0.2c-1.2-0.3-1.8-1.5-2.9-2
	c-1.1,2.7-2.6,2.9-7.4,0.6c0.5,0.5,1.4,0.3,1.3,1c-0.1,0.6-0.8,0.4-1.2,0.4C36.2,123.6,34.3,123.2,32.5,123.7z"/>
<path class="st5" d="M55.5,34.9c-0.6,0-0.9,0.4-0.9,0.9c-0.6,0.2-0.8-0.3-1.1-0.5c-0.3-0.1-0.5,0-0.7,0.1c-0.7,0.5-1.5,0.4-2.2,0.8
	c-0.4,0.2-0.8,0.3-1.2,0.1c-0.8-1.2-2.3-1.1-3.5-1.5c-0.5-1.7-1-3.1,1.7-3.5c2-0.3,2.6-2.7,1.4-4.4c-0.9-1.2-0.1-2.2,0.1-3.3
	c-1-0.6-1.8-0.2-2.6,0.1c0.5,0.6,2.5,0.1,1.2,1.8c-0.5-0.6-1.2-0.2-1.7-0.5c0.4,0.3,1,0,1.4,0.3c0.5,1.2-0.3,2.1-1.2,1.6
	c-1.7-0.9-2.5,0.3-3.5,1.1c-1.2-0.6-0.9-1.4-0.5-2.4c-1.1,0-2.1,0.1-3.2-0.2c-1-1.6-2.1-3.2-1.5-5.3c0.2-0.6-0.3-1-0.8-1.3
	c-0.7-0.4-1.5-0.7-2.1-1.1c-1.3-0.8-1.2-2.3,0-3.1c1.8-1.2,3.6-1.9,5.8-0.9c1.5,0.7,3.2,1,4.9,0.7c1.9-0.3,3.3,0.6,4.2,2.1
	c0.7,1.3,1.6,2.3,2.8,3.2c0.6,0.4,1.1,1,1.5,1.5c1.4,1.6,1.4,2.4,0.3,4.3c-0.7,1.1-0.9,2.3-0.5,3.6C53.8,31,54.4,33.1,55.5,34.9z"/>
<path class="st6" d="M32.5,123.7c1-0.8,2.1-0.3,3.2-0.4c0.9-0.1,1.9,0,3.3,0c-0.9-0.7-1.6-0.3-2.3-0.6c0.4-0.5,0.8-0.9,1.2-1.5
	c1.7,1.6,3.6,2.9,6.3,1.8c-0.1-1-0.4-2.2,1.1-2.8c1.1,1.1,1.9,2.8,4.1,3.1c-0.5-0.6-1.3-0.8-1.1-1.5c0.3-0.9,2-1.1,1.4-2.4
	c-0.7-1.3-1.4-2.7-3.2-2.7c-0.9,0-1.7,0-2.5-0.6c0-0.3,0-0.6,0-0.9c1.6-0.3,3.3-0.5,3.7-2.5c0.4-0.2,0.6-0.1,0.7,0.4
	c0,0.8-0.3,1.7,0.8,2c0.7,1.1,1.8,1.3,2.9,1.3c3.8,0,7.6,1,11.4-0.1c0.2-0.1,0.5,0,0.7,0.2c1,0.4,2,0.3,3,0.4
	c1.6,0.1,1.9,0.4,1.8,1.8c-0.1,5.4,0.7,4.4-4.3,4.6c-5.9,0.2-11.9,0.2-17.8,0.2c-0.2-0.2-0.3-0.6-0.5-0.5c-0.2,0,0.2,0.3,0,0.5
	C41.8,123.6,37.2,123.6,32.5,123.7z"/>
<path class="st5" d="M19.9,58c0.6-0.4,0.8-0.9,0.1-1.5c0.6-1,1.5-1.7,2.3-2.4c2.7-2.2,5.1-4.6,7.2-7.3c2.7-3.5,4.9-7.4,5.8-11.9
	c1.4-0.3,2.1-1.5,3.4-2.1c0.7-0.3,1.1-0.9,0.5-1.8c-0.9-1.3-0.9,0.3-1.4,0.4c-0.5,0-0.8,0.1-0.7-0.5c0.8-1.7,0.8-3.6,1.6-5.3
	c0.5-0.3,1-0.2,1.1,0.3c0.3,1.4,1.6,1.7,2.5,2.4c0.6,1.8-0.1,3.5-0.4,5.2c-0.7,1.2-2.5,1.1-3,2.6c-1.8,1.5-3.4,3.2-3.9,5.7
	c-0.1,0.4-0.4,0.7-0.9,0.6c-1.3,0.9-1,2.2-0.9,3.5c-2.2,0.4-3,2.6-4.6,3.8c-2.2,1.7-3.7,4.1-6,5.8c-1.2,0.9-0.1,1.6,0.7,2.3
	c-0.5-0.6-1.1-1.2-0.5-1.9c0.4-0.5,1,0,1.5,0.2c2.8,0.9,5.2-1.3,4.4-4.2c-0.4-1.7-0.2-2,1.3-1c0.1,0.1,0.2,0,0.1,0
	c-0.7-2.2,2.5-0.7,2.4-2.4c0.5,0,0.7,0.7,1.2,0.6c0.5,0.7,0.9,1.1-0.2,1.8c-0.8,0.5-1.1,1.4,0,2.1c-0.9,2.2-2.7,3.5-4.5,4.7
	c-1.3,0.9-2.6,1.9-3.8,2.8c-2.1,1.6-3.9,3.7-6.6,4.4c-0.8,0.2-1.2,0.8-1.2,1.6c0,0.9,0,1.7,0,2.6c0,1.7-0.1,2-2.2,2.9
	c-0.5-1.7,0.3-3.5-0.3-5.1c0.6-1.1,1.4-2.1,1-3.5c-0.9-0.4-0.8,2.8-2.2,0.7c-0.1-1.5-0.4-3,0.4-4.4c0,0.4,0,0.7,0,1.1
	c1,1,2.3,0.7,3.5,1c0.2,0.1,0.4,0.2,0.6,0.3c0.5,0.5,1,1.1,1.8,0.5c0.6-0.5,0.9-1.2,0.8-2.1C20.8,59.6,19.8,59,19.9,58z"/>
<path class="st7" d="M24.8,116.5c0-0.2,0-0.4,0-0.5c2-0.6,3.8-1.6,5.8-2c1.3-0.3,2-1.1,2-2.5c0.2-5.3,0.5-10.6,0.7-15.9
	c0.1-2.5-0.6-4.9-0.3-7.4c0.3,0.4,0.7,0.7,1,1.1c1,2.4,0.6,4.9,0.6,7.3c0,4.4,0.1,8.8-0.5,13.2c-0.1,0.6,0,1.3,0,1.9
	c0.1,0.8,0,1.7,1.1,1.8c1.1,0.1,1.5-0.8,1.6-1.7c0.2-1.3,0.2-2.7,0.7-4c2-4.8,1.5-9.9,1.9-14.9c0.1-1.3,0.1-2.6,0.6-3.8
	c0.5-0.6,1.3-0.4,1.8-0.8c0.6,0.5-0.3,1.2,0.6,1.6c0.3-1.9,1.5-2.6,3.3-2.1c-0.8,1.1-2.5,1.9-1.1,3.6c0.1,0.2,0.1,0.4,0.2,0.7
	c0.1,0.8-0.3,1.5,0,2.3c0.7,1.8,0.7,3.5,0.1,5.3c-0.8,2.4-0.4,4.9-0.3,7.4c0.1,1.8,0.2,3.7-1.3,5.1c-0.2,0-0.3,0-0.5,0
	c-0.8-3.5-0.7-7.1-0.4-10.6c0.3-3,0.4-6-0.2-9.5c-0.7,1.4-0.7,2.4-0.6,3.4c0.2,3.7-0.5,7.3-1.6,10.8c-0.8,2.6-1.5,5.2-1.2,8
	c0,0.7-0.2,1.3-0.9,1.7c-0.7,0.3-1.1,1.2-1.9,1.4c-0.6,0-1.3,0-1.5-0.7c-0.3-0.9,0.9-0.9,1.1-1.5c0.3-0.1-0.2-0.3,0-0.1
	c0.1,0.1,0.1,0.2-0.1,0.2c-0.6,0.3-1.3,0.3-2,0.2c-2-0.6-3.9,0.1-5.8,0.6C27,116.5,26,117.2,24.8,116.5z"/>
<path class="st8" d="M65.7,39.7c-0.9-0.8-3-1.3-4.1-1c-1,0.3-2.2-0.3-2-1c0.5-1.6-0.6-3-0.2-4.6c0.5-0.7,0.9-1.3,0.6-2.3
	c-0.3-1.1,0.7-2.1,1.7-2c1,0,1.7,0.6,1.7,1.6c0,1,0.2,1.6,1.1,2c0.8,0.4,1.2,1.1,1.3,2.1C66,36.3,66.6,38,65.7,39.7z"/>
<path class="st9" d="M64.2,116.5c-2.7,0.9-5.4,1.3-8.2,0.7c-1.7-0.4-3.4,0.1-5.1-0.2c-1.2-0.2-2-0.5-1.7-1.9
	c1.4-0.4,2.8-0.2,4.2-0.1c3.1,0.3,6.3,0.6,9.4,0.9C63.4,116,63.9,116.1,64.2,116.5z"/>
<path class="st10" d="M37.2,31c0.2,0.3,0.6,0.3,0.7,0c0.2-0.5,0.4-1,0.5-1.5c0.3,0.3,0.5,0.5,0.7,0.7c1.8,1.5,1.8,2.5-0.4,3.5
	c-0.9,0.4-1.8,0.4-2,1.8c-0.1,0.8-0.8-0.4-1.4-0.6C35.6,33.4,36.1,32.1,37.2,31z"/>
<path class="st11" d="M13.9,64.2c0.2,0.1,0.4,0.3,0.6,0.3c0.5,0,0.4-0.3,0.2-0.6c-0.7-0.9-0.4-1.3,0.7-1.2c0.5,0,1.1,0.1,1.6,0.2
	c0.3,0.1,0.6,0.5,0.4,0.7c-0.8,0.8-0.6,2-1.1,2.9c-0.2,0.3-0.9,0.1-1.2,0.6C14.1,66.4,13.7,65.4,13.9,64.2z"/>
<path class="st12" d="M42.3,28.2c-2,0.7-2.1,0.6-2.6-1.3c-0.1-0.6-0.2-1.1-0.9-1.2c-0.1-0.1-0.1-0.3,0-0.4c1.1-1,2.5,0.3,3.7-0.6
	c0.2,1-1.2,2.1,0.1,3C42.6,28,42.5,28.1,42.3,28.2z"/>
<path class="st8" d="M57.8,34.4c0.4,0.1,0.9,0.2,1,0.6c0.1,1.2,0.3,2.4-0.1,3.9c-1.4-1.3-0.7-2.8-1.2-4
	C57.5,34.6,57.5,34.4,57.8,34.4z"/>
<path class="st13" d="M48.5,113.1c-0.2-0.1-0.4-0.3-0.5-0.4c-0.5-1.9-0.4-3.5,1.3-4.8c0.1,0.5,0,1.1,0.4,1.5
	C49.3,110.6,49.2,111.9,48.5,113.1z"/>
<path class="st4" d="M46.4,123.6c-0.3-0.2-0.6-0.4-1-0.6c1.3-0.3,1.3-0.3,1.5,0.6C46.8,123.6,46.6,123.6,46.4,123.6z"/>
<path class="st14" d="M50.3,35.9c0.5-1,1.8-0.2,2.4-0.9c0.2-0.4,0.6-0.3,0.9-0.2c0.3,0.4,0.7,0.7,1,1.1c0.7,1.2,0.1,2.1-0.5,3.1
	c-0.3,0.5-0.7,0.9-0.9,1.4c-0.3,1.2-0.4,2.5-2.2,2.3c-0.2,0-0.5,0.4-0.4,0.8c0.6,0.4,1-0.2,1.6-0.2c0.7,0.1,0.8,0.4,0.5,1.4
	c0,0.1-0.2,0.3-0.1,0.4c1.6,1.8-0.6,2.8-0.8,4.3c-0.3,1.6-0.9,2.4-2.5,3.4c-0.6,0.3-0.9,0.8-0.5,1.3c0.7,1,0.2,1.5-0.7,1.6
	c-1.8,0.2-3.6,0.3-5.4,0.4c-0.4,0-0.9-0.3-1.3-0.5c-0.7-0.3-0.4-1.3-0.9-1.7c-0.3,0.7-0.7,1-1.4,0.9c-1.5-0.1-1.9-0.2-2-1.7
	c-0.2-1.5-1.8-2.5-1.5-4.1c1.9-0.4,2.4,1.8,4,2.3c-0.3-2.5,0.2-4.8-0.6-7.3c-0.5-1.3,0.8-2.4,1.7-3.4c0.2-0.1,0.4-0.1,0.7,0
	c1.3,0.5,3.1,0.2,3.6,2.1c0.2,0.6,0.4,0.2,0.6,0.1c1-0.7,2.4-0.8,3.1-1.6c1.4-1.6,2.5-3.4,5-3.6C52,37,51.1,36.6,50.3,35.9z"/>
<path class="st15" d="M49.3,107.9c-0.8,1.5-1,3.2-1.3,4.8c-0.5,3-0.9,3.3-3.9,2.5c-0.8-0.9-0.2-2-0.5-3c0.6-2.1,1-4.1,0.6-6.3
	c-0.2-1.5-0.1-3,0-4.5c0.1-1.4,0.2-2.8,1.1-3.9c0.2-0.3,0-0.6-0.2-0.8c-0.6-0.8-0.6-1.8-0.5-2.7c0.2-0.6,0.5-1.3,0-1.9
	c0-0.1-0.1-0.2-0.1-0.4c-0.3-0.6-0.2-1.1,0.4-1.4c0.8-0.4,0.9,0.3,1.2,0.8c0.7,0.9,1.3,1.5,2.5,0.6c0.9-0.7,1.4-0.2,1.3,1
	c-0.1,1.4-0.1,2.8,0.4,4.2c0.6,1.8-1.2,0.7-1.8,1.3c2,2.8,1.5,5.8,0.9,8.9C49.4,107.3,49.3,107.6,49.3,107.9z"/>
<path class="st16" d="M38.3,107.4c-0.2,1.6-0.6,3.1-0.6,4.7c-0.1,1.5-0.8,2.1-2.1,2.4c-1.1,0.2-2.1-0.5-2.1-1.7
	c-0.1-1.5,0-3,0.1-4.5c0.4-5.1,0.7-10.3,0.4-15.4c-0.1-1.2,0.1-2.4,0.2-3.6c0.1,0,0.2,0,0.3-0.1c1,0.4,2.1,0.1,3.1,0.2
	c2,1.1,2.6,3.6,1.6,5.3c-1.1,1.9-0.7,4-0.5,6.1C38.9,103,38.8,105.2,38.3,107.4z"/>
<path class="st17" d="M40.7,40.6c-0.8,0.7-0.6,2-1.6,2.6c-0.1,0-0.1,0.4-0.1,0.4c1.4,0.8,0.6,2.2,0.8,3.2c0.4,1.8-0.2,3.7,0.5,5.4
	c-1,0.4-1.4-0.1-1.7-0.6c-0.8-1.2-2.1-2-3.2-2.8c0,0,0,0,0,0c-0.2-0.3-0.4-0.7-0.2-0.8c1.2-1.3-0.3-1.7-0.8-2.5
	c-0.2-0.3-0.2-0.6,0-0.9c-0.4-0.6,0.2-1.4-0.1-2c0.5-2.1,1.6-3.9,3-5.6c0.5-0.6,1-0.6,1.6-0.7c0.1,0,0.2,0,0.4,0
	C42,37.7,42.2,38.5,40.7,40.6z"/>
<path class="st18" d="M46,65.3c-0.2,0-0.3,0-0.5,0c-3.6,0.1-4.5-1-4-4.5c0.1-0.6,0.4-0.8,0.9-0.8c2.3,0.2,4.6-0.1,6.8-0.5
	c1.3-0.2,2.3-0.1,2.9,1.4c0.3,0.7,0.9,1.3,1.2,2c0.3,1,0,1.5-1,1.7C50.3,65,48.2,65.4,46,65.3z"/>
<path class="st19" d="M34,49.3c-0.1,0.2,0.1,0.8-0.4,0.5c-0.4-0.2-0.6-0.8-1.1-0.9c-0.5,0.7,0.6,1.2,0.3,1.9c-0.7,0-0.9-1.3-1.8-0.7
	c-0.8,0.6,0.8,1.3,0.1,2c-0.8-0.1-0.9-1.4-2.2-1.3c1.1,1.1,1.3,2.2,0.7,3.5c-0.4,0.9-0.3,1-1.9,1.5c-0.5,0.2-0.3,1.4-1.3,1.1
	c-0.1,0.6-0.2,0.9-0.8,0.4c-0.7-0.5-1.6-0.5-2.3-1.1c0.2,1.2,1.2,2,1.2,3.6c-1.1-1.3-2.1-2.2-3.2-3c0.5-1.8,2.3-2.4,3.4-3.6
	c1-1.1,2-2.4,3.1-3.4c0.7-0.6,1.2-1.3,2-1.7c0.7-0.4,1.4-0.4,1.2-1.7c-0.2-1.1,1.1-1.3,2.4-0.4c0,0.3,0,0.5,0,0.8
	c0,0.3-0.3,0.7,0.1,1C33.6,48.3,33.8,48.8,34,49.3z"/>
<path class="st13" d="M49.4,106.9c-0.7-0.5-0.2-1-0.1-1.5c0.4-2.8,0-5.4-1.8-7.7c-0.1-0.1,0-0.3,0-0.6c0.8,0.1,1.5,0.2,2.5,0.3
	c-1.2-1.8-0.7-3.7-0.6-5.6c-1.1-1-0.9,2.2-2.5,0.6c-0.6-0.6-1.9-0.7-1.4-2.1c-1,0.3-0.9,0.8-1,1.3c-0.2-0.4-0.5-0.8-0.7-1.2
	c-0.5-1.5-0.3-1.9,1.4-2.3c0.3-0.1,0.5-0.2,0.8-0.4c0.9,0.1,1.9,0,2.8,0.3c0.9,0.3,1.9-0.1,2.7,0.5c0.3,0.7-0.1,1.2-0.3,1.6
	c-1.2,3.2-0.4,6.4-0.5,9.6c0,1.9-0.4,3.8-0.6,5.7C50.1,106.1,50,106.6,49.4,106.9z"/>
<path class="st20" d="M33.6,64.7c0.5-1.3,0.9-2.5,1.4-3.6c0.7-1.6,1.1-1.8,3-1.7c3.5,0.3,3.5,0.4,2.1,3.6c-0.9,2.2-1.8,2.7-4.1,2.3
	C35.3,65.2,34.4,65.4,33.6,64.7z"/>
<path class="st21" d="M38.3,107.4c0.2-2.6-0.2-5.2-0.5-7.8c-0.2-1.4,0.1-2.7,0-4c-0.1-1.2,0.5-1.7,1.8-1.8c-0.7-1.2-1.5-2.1-1.4-3.3
	c0.1-0.6-0.5-0.8-1-0.9c-0.1-0.1-0.2-0.2-0.1-0.3c0.1-0.1,0.1-0.1,0.2-0.1c0.9,0,1.9-0.1,2.8-0.1c0.5,0.5,0.3,1,0.2,1.6
	c-0.2,3.4-0.7,6.7-0.5,10.1C40,103,39.3,105.3,38.3,107.4z"/>
<path class="st22" d="M58.9,44.6c0.5,0.3,1-0.1,1.5-0.3c1.1-0.5,2.3-1.1,3.4-1.6c0.7-0.3,1.4-0.7,2.3-0.6c1,0,1.7,0.8,1.7,1.7
	c0,0.8-0.9,1.4-1.9,1c-0.8-0.3-1.4,0-2,0.3c-1.1,0.5-2.2,1-3.2,1.5c-0.5,0.2-1,0.5-1.5,0.6c-0.7,0.2-1.4,0.2-1.9-0.5
	c-0.3-0.4-0.3-0.9-0.1-1.4C57.5,44.6,58,44.2,58.9,44.6z"/>
<path class="st23" d="M50.7,55.8c0.5,2.5,0.4,2.6-1.8,3c-1.5,0.2-2.9,0.7-4.4,0.6c-0.4,0-1-0.4-0.7-0.6c1-0.8-0.3-1.4,0-2.1
	C46,56.3,48.3,56.7,50.7,55.8z"/>
<path class="st24" d="M56,44.5c-0.2-0.4-0.8-0.7-0.7-1.4c0.2-1.7,0.3-3.4,1.4-5.1c0.8,1.3,1.9,2.2,2.4,3.7c0.3,0.9,0.1,1.5-0.7,1.5
	C57.3,43.2,56.9,44.1,56,44.5L56,44.5z"/>
<path class="st25" d="M36.3,56.8c-0.1-0.9,0.3-1.4,1.3-1.1c0.5,0.2,1.1,0.2,1.6,0.3c0.9,0.1,1,0.5,0.7,1.3c-0.3,0.8-0.3,1.8-1.6,1.5
	C36.9,58.7,36.3,58.2,36.3,56.8z"/>
<path class="st26" d="M64.5,49.8c0-0.3,0-0.6,0-0.9c0.1-0.9,0.2-1.7,0.4-2.8c1.6,1.5,1.1,3.2,1.1,4.7c0,1.2-0.5,2.5-0.8,3.7
	c-0.5-0.3-0.8-0.8-0.6-1.4c0.2-0.5,0.1-0.9,0-1.4C64.4,51,64.4,50.4,64.5,49.8z"/>
<path class="st25" d="M43.1,57.9c-0.1,0.9-0.7,1-1.4,1c-0.9,0-1.4-0.5-1.3-1.3c0.1-0.7,0.7-1.1,1.4-1C42.6,56.7,43.1,57.1,43.1,57.9
	z"/>
<path class="st8" d="M62.3,42c-0.5-0.2-0.9-0.3-0.9-0.9c0-0.8,0.5-1.1,1.2-1.1c0.4,0,0.8,0.2,0.8,0.9C63.4,41.7,62.8,41.8,62.3,42z"
	/>
<path class="st14" d="M34.5,45.4c0.7,0.4,1.4,1.5,2.4,0.4c0.2-0.2,0.5-0.1,0.6,0.2c0.2,0.3,0,0.7-0.3,0.7c-1.3,0.2-2,0.8-1.7,2.1
	c-0.8-0.8-0.5-2.1-1.1-3C34.2,45.7,34.3,45.5,34.5,45.4z"/>
<path class="st7" d="M37.4,89.2c0,0.1-0.1,0.3-0.1,0.4c-1,0.1-2,0.3-2.9-0.4C35.4,89.2,36.4,89.2,37.4,89.2z"/>
<path class="st24" d="M56,44.5c-0.2,0.5-0.4,1-0.6,1.4C55.3,45,55.3,45,56,44.5C56,44.5,56,44.5,56,44.5z"/>
<path class="st5" d="M33.5,47.8c-0.5-0.3-0.5-0.6-0.1-1C34,47.2,33.5,47.5,33.5,47.8z"/>
<path class="st5" d="M34.5,45.4c0,0.1-0.1,0.3-0.2,0.4c-0.5-0.4-0.5-0.9,0.1-1.3C34.4,44.9,34.4,45.2,34.5,45.4z"/>
<path class="st1" d="M61.8,51.7c0.5,0.2-1,2,0.9,1.2c0.3-0.1,0.5,0.4,0.5,0.7c0,0.4-0.1,0.8-0.3,1.1c-0.7,1.3-1.3,2.6-1.6,4.2
	c0-2,0-4.1,0-6.1C61.3,52.3,61.5,52,61.8,51.7C61.8,51.7,61.8,51.7,61.8,51.7z"/>
<path class="st1" d="M59.1,85.8c0.3,0.6,0.3,1.2,0.1,1.9C58.8,87.1,59.1,86.4,59.1,85.8z"/>
<path class="st1" d="M64.5,49.8c0.2,0.6,0.2,1.2,0,1.8C64.1,51,64.1,50.4,64.5,49.8z"/>
<path class="st1" d="M59.1,89.1c0.1,0.1,0.2,0.2,0.2,0.3c0,0.2,0,0.4-0.1,0.6c-0.1,0.2-0.2,0.2-0.3-0.1C59,89.7,58.9,89.4,59.1,89.1
	z"/>
<path class="st1" d="M59.1,84.4c0-0.2-0.1-0.3-0.1-0.4c0-0.2,0.1-0.3,0.2-0.1c0,0.1,0.1,0.2,0,0.2C59.3,84.2,59.2,84.3,59.1,84.4z"
	/>
<path class="st1" d="M64.6,56.5c-0.1-0.2-0.3-0.4-0.4-0.6c0-0.1,0.1-0.4,0.1-0.4c0.3,0,0.2,0.3,0.3,0.4
	C64.7,56.1,64.7,56.3,64.6,56.5C64.7,56.5,64.6,56.5,64.6,56.5z"/>
<path class="st27" d="M19.9,58c0.4,0.5,1,1,1.3,1.6c0.9,1.6-0.1,3.8-1.9,4.3c-0.5,0.1-0.7,0-0.9-0.5c-0.1-0.4-0.2-0.7-0.3-1.1
	c0-0.7,0.6-1,1.2-1.3c-0.8-0.6-1.7-0.7-2.6-0.4c-0.7,0.2-1.4,0.4-1.9-0.4C16,58.1,16.9,57.7,19.9,58z"/>
<path class="st5" d="M14.8,60.3c0.5,0.2,1.1,0.3,1.6-0.1c1.6-1.1,2.7-0.3,3.8,1c-0.9,0.1-1.4,0.6-2,1.1c0,0-0.1-0.1-0.1-0.1
	c-0.8-1.1-2.5-0.4-3.3-1.4C14.8,60.6,14.8,60.4,14.8,60.3z"/>
<path class="st27" d="M14.7,60.7c1.2,0.2,2.8-0.5,3.3,1.4c-0.7,0-1.4,0.1-2.1,0.1c-1,0.1-1.6-0.5-1.7-1.5
	C14.5,60.8,14.6,60.8,14.7,60.7z"/>
<path class="st28" d="M38.7,114.6c-1-1.3-0.5-2.8-0.2-4.1c0.5-2.5,1.2-5,1.9-7.4c0.6-2.2,0.9-4.4,0.6-6.6c-0.2-2.1,0.2-3.9,1.4-5.8
	c0.9,1.1,0.8,2.4,1,3.7c0.2,2.1,0.3,4.3,0,6.5c-0.2,1.5-0.3,3-0.2,4.5c0.2,2.3,0,4.6-0.2,6.9c-0.2,0.8-0.4,1.5-0.6,2.3
	C41.3,115.4,40,115.6,38.7,114.6z"/>
<path class="st29" d="M24.8,116.5c2-0.6,4-1,5.9-1.7c1.2-0.4,2.2-0.4,3.1,0.3c1.2,0.7,0.5,1.1-0.3,1.4c-1,0.4-2,0.1-3,0.5l0,0
	c-0.4,0.2-1.1-0.1-1.4,0.5c-1.3,1-2.8,0.9-4.2,0.7c-0.5-0.1-1-0.1-1.1-0.7C23.9,116.9,24.6,116.9,24.8,116.5z"/>
<path class="st30" d="M44,116c0.3,0,0.7,0.1,0.9,0c2.5-0.6,4,0.7,5.2,2.7c0.9,1.5,0.7,2.1-0.9,2.9c-0.3,0.1-0.6,0.1-0.9,0.1
	c0,0,0,0,0,0c-0.9-1.2-1.8-2.4-2.9-3.4C44.6,117.9,44.4,116.9,44,116z"/>
<path class="st31" d="M38.7,114.6c1.3,0,2.5-0.1,3.8-0.1c-0.2,2.6-0.6,2.8-3.2,2.9c-1.4,0.1-0.8-0.9-1.1-1.4
	C38.4,115.6,38.6,115.1,38.7,114.6z"/>
<path class="st32" d="M30.6,117c0.8-1,2.1-0.3,3-1c0.4-0.3,0.5-0.5,0.3-0.9c0.8-0.1,1.7,0,2.5,0.1c0,1.1-1.2,0.5-1.3,1.2
	c0.1,0.7,1,0.4,1.2,0.9c0,0,0,0,0,0c-0.4,0.4-0.9,0.3-1.4,0.1C33.5,117,32,117.3,30.6,117z"/>
<path class="st6" d="M45.5,118.4c1.6,0.4,2,2,3.1,3c0,0-0.1,0.3-0.2,0.4C47,121,46,119.9,45.5,118.4z"/>
<path class="st32" d="M29.2,117.5c0-1.4,0.7-0.8,1.4-0.5C30.3,117.5,29.7,117.5,29.2,117.5z"/>
<path class="st7" d="M34.9,117.5c0.5,0,0.9-0.1,1.4-0.1C35.9,118.1,35.4,118.1,34.9,117.5z"/>
<path class="st33" d="M42.3,28.2c0.2-0.1,0.3-0.2,0.4-0.4c0.2-0.4,0.4-0.7,0.5-1.1c0.3-1.2,0.6-1.5,1.9-0.8c1.5,0.9,1.6,0.7,2.5-0.6
	l0,0c0.6-0.5,0.3-0.8-0.2-1c-0.4-0.1-0.8,0-1.2,0c-0.4,0-0.8,0-1.3,0c1.6-2.2,3.8-2.4,5.4-0.6c0.1,0.8-0.7,0.5-0.9,0.8
	c-0.7,0.8-0.6,2,0.3,2.1c1.4,0.2,1,0.9,0.9,1.7c-0.1,0.4-0.1,0.8-0.3,1.2c-0.8,2-1.8,2.7-4.3,2.7c0.2,0.9,0.9,1.7,0.2,2.6
	c-2.1,1.1-2.9,1-4.2-0.7C41.1,32.1,42.3,30.2,42.3,28.2z"/>
<path class="st34" d="M46,18c2.6-0.2,4.9,1.3,6.9,3.5c0.4,0.5,1.2,1.1,0.7,1.8c-0.7,0.9-1.4,0.2-2-0.4c-2.2-2.1-4.8-2.4-7.6-1.7
	c-1.3,0.3-2.5,0.8-3.9,1c-1,0.2-1.9,0-2.2-0.8c-0.3-0.8,0.2-1.7,1.1-2.2C41.1,18.3,43.2,18,46,18z"/>
<path class="st35" d="M50.3,35.9c1.4-0.6,2.1,0.9,3.2,1.1c0.5,0-0.2,0.7-0.1,1.2c0.1,0.5-0.4,0.7-0.8,0.6c-1.8-0.4-2.6,0.6-3.1,2.1
	c-0.2,0.8-0.9,0.9-1.4,1.1c-0.8,0.3-1.6,0.6-2.4,1.1c-0.9,0.6-0.8,0.4-1.6-0.5c-0.6-0.7-1.3-1.5-2.4-1.2c-0.6,0.2-0.6-0.3-0.7-0.7
	c0-2.3,1.3-3.1,3.4-3c0.9,0.1,1.9-0.1,2.7-0.4c0.2-0.1,0.4-0.2,0.6-0.2c0.4-0.2,0.7-0.4,1-0.6c0.1,0,0.2-0.1,0.3-0.1
	C49.6,36.2,49.9,36,50.3,35.9z"/>
<path class="st36" d="M41.7,34.1c1.2,1.2,2.7,0.8,4.2,0.7c0.7,0.2,1.5-1,1.8-0.5c0.4,0.8,2,0.7,1.5,2c0,0,0,0,0,0
	c-1-0.3-0.5,0.8-1,1l0,0c-1.3,0.2-2.4,1.2-3.9,0.5c-0.1-0.1,0.1-0.7-0.4-0.2c-0.8,0.8-1.8,0.5-2.7,0.2c-1-0.3-1.7-1.1-2.7-1.4
	c0,0,0.1,0,0.1,0c-0.3-1-0.2-1.9,1.1-2C40.6,34.3,41.1,33.7,41.7,34.1z"/>
<path class="st37" d="M43.8,15.4c2.8-0.4,3.2-0.3,4.9,1.8c-1.2,0-2.1-0.4-3.2-0.1C44.4,17.4,44,16.4,43.8,15.4z"/>
<path class="st33" d="M47.4,25.3c-0.5,0-1.1-0.1-1.9-0.1C46.4,24.7,46.9,24.8,47.4,25.3C47.4,25.3,47.4,25.3,47.4,25.3z"/>
<path class="st1" d="M53.6,34.8c-0.3,0.1-0.6,0.1-0.9,0.2c0-0.3-0.1-0.6,0.3-0.7C53.3,34.2,53.4,34.5,53.6,34.8z"/>
<path class="st13" d="M44.5,92c0.7,0.6,0.7,1.3,0,1.9C44.1,93.3,44.6,92.7,44.5,92z"/>
<path class="st5" d="M38.8,36.3c1.4-0.2,2.1,1.1,3.4,1.3c1.8,0.3,1.7,0.5,2.2-1.4c0.4,1.9,0.4,1.9,2,1.3c0.7-0.3,1.4-0.1,2.1-0.3
	c-1.1,1-2.4,1-3.8,1c-2.5,0-2.5,0-3.4,2.3c-0.2,0-0.3,0-0.5,0C42,38.3,40.2,37.4,38.8,36.3z"/>
<path class="st5" d="M48.3,37.3c0.1-0.5-0.3-1.6,1-1C49.2,36.9,48.8,37.2,48.3,37.3z"/>
</svg>
