<?xml version="1.0" encoding="utf-8"?>
<!-- Generator: Adobe Illustrator 23.1.1, SVG Export Plug-In . SVG Version: 6.00 Build 0)  -->
<svg version="1.1" id="Livello_1" xmlns="http://www.w3.org/2000/svg" xmlns:xlink="http://www.w3.org/1999/xlink" x="0px" y="0px"
	 viewBox="0 0 80 135" style="enable-background:new 0 0 80 135;" xml:space="preserve">
<style type="text/css">
	.st0{fill:#FFFFFF;stroke:#000000;stroke-width:0.2509;stroke-miterlimit:10;}
	.st1{fill:#393C31;}
	.st2{fill:#4E5B79;}
	.st3{fill:#51453F;}
	.st4{fill:#4F4845;}
	.st5{fill:#42454C;}
	.st6{fill:#4B3E37;}
	.st7{fill:#525A73;}
	.st8{fill:#F1A563;}
	.st9{fill:#CF875C;}
	.st10{fill:#7B6454;}
	.st11{fill:#C17953;}
	.st12{fill:#D9926E;}
	.st13{fill:#3B4533;}
	.st14{fill:#EEA565;}
	.st15{fill:#844C40;}
	.st16{fill:#A47865;}
	.st17{fill:#A67861;}
	.st18{fill:#786257;}
	.st19{fill:#D6A680;}
	.st20{fill:#BD8C7A;}
	.st21{fill:#DC8356;}
	.st22{fill:#F09357;}
	.st23{fill:#895E47;}
	.st24{fill:#F79E5D;}
	.st25{fill:#BF764E;}
	.st26{fill:#F6CE32;}
	.st27{fill:#EC3D3A;}
	.st28{fill:#E34246;}
	.st29{fill:#F2C933;}
	.st30{fill:#986548;}
	.st31{fill:#A5ADA0;}
	.st32{fill:#EEAA6C;}
	.st33{fill:#866C33;}
	.st34{fill:#9F7B34;}
	.st35{fill:#E4413B;}
	.st36{fill:#9D7451;}
	.st37{fill:#887031;}
	.st38{fill:#E19B66;}
	.st39{fill:#A28537;}
	.st40{fill:#962A24;}
	.st41{fill:#D0D0C5;}
	.st42{fill:#E3E3E1;}
	.st43{fill:#E8E7DF;}
	.st44{fill:#CFD0CB;}
	.st45{fill:#454859;}
	.st46{fill:#E58C56;}
	.st47{fill:#9C7936;}
	.st48{fill:#9B664C;}
	.st49{fill:#C19A39;}
	.st50{fill:#CAAB43;}
	.st51{fill:#9D7761;}
	.st52{fill:#B7BBB3;}
	.st53{fill:#B47248;}
	.st54{fill:#D5B847;}
	.st55{fill:#F49F60;}
	.st56{fill:#5F4231;}
	.st57{fill:#A46949;}
	.st58{fill:#F3F0EE;}
	.st59{fill:#986746;}
</style>
<path class="st0" d="M71.5,135h-63c-4.7,0-8.5-3.8-8.5-8.5V8.5C0,3.8,3.8,0,8.5,0h63C76.2,0,80,3.8,80,8.5v118
	C80,131.2,76.2,135,71.5,135z"/>
<path class="st1" d="M18.8,58.9c1.3-0.7,2.8-0.4,4.2-0.6c1-0.1,1.8-0.4,2.3-1.3c0.7-1.2,1.6-2.4,2.5-3.5c0.8-1.1,1.6-2.2,2.6-3.4
	c-0.9-0.7-1.8-1.4-2.7-2.1c-2-1.6-3.8-3.4-5.1-5.6c-1-1.6-1.2-3.1-0.4-4.8c0.8-1.6,1.6-3.3,2.9-4.6c0.9,1,0.1,1.8-0.3,2.6
	c-1.3,2.4-0.8,5.4,0.9,7.5c1.2,1.5,2.7,2.6,4.1,3.8c0.4,0.3,0.3-0.1,0.3-0.1c0.4-0.6,1-1,1.3-1.7c-0.9-0.6-2.4,0.5-2.8-0.8
	c-0.3-0.9,1-1,1.7-1.4c-0.9-0.8-1.9-0.5-2.8-0.3c-0.8,0.1-1.3-0.1-1.1-1c0.6-2.2,0.6-2.2-0.8-3.7c0.7-1.2,2.1-0.3,3.1-1
	c-0.3-0.9-1.2-1.9,0.3-2.9c0.5-0.4-0.7-1.6-0.9-2.4c-1.3,0.3-1.6,1.9-3,1.4c0.6-1.5,1.7-2.8,2.4-4.2c-0.2-0.5-0.3-1,0.4-1
	c0.4,0,0.7,0.4,0.9,0.7c1.7,2.9,3.4,5.8,3.2,9.3c-2,1.4-0.8,2.7,0.2,3.9c2.1-0.3,1.5,2,2.8,2.8c-0.2-3.3-1.1-6.3-2.1-9.2
	c-0.8-2.3-1.5-4.5-2.5-6.7c-0.4-0.8-1.1-1.9,0.5-2.4c0.1-0.1,0.2-0.1,0.3-0.1c0.7,0.3,1,0.9,1.3,1.5c1.5,3.5,3.6,4.7,6.1,3.8
	c1.7-0.6,3-1.8,1.8-3.8c-0.3-0.5-0.5-1.2-0.4-1.8c0-0.2,0.2-0.4,0.3-0.6c0.4-0.2,0.9-0.2,1.1,0.2c0.4,0.7,0.7,1,1.4,0.4
	c1,0.2,1.9,0.5,2.4,1.5c-0.5,0.4-0.1,0.9-0.1,1.3c0.5,2.3,0.4,4.7,2.7,6.3c0.5,0.4,0.5,1.7,0.8,2.6c0.1,0.4,0.2,0.9,0.2,1.4
	c-0.9,2.7-2.3,5.2-3.2,7.9c-0.8,1.1-0.4,2.4-0.4,3.6c-2.4,3.7-2,7.9-2,11.9c2.2-0.4,1.6-1.8,1.2-3.2c-0.5-1.9-0.2-2,1.8-1.7
	c0.4,0.1,0.9,0.6,1.2,0c1-1.8,1.7-0.7,2.4,0.2c0,1.5,0.7,3.3-1.3,4.2c-0.1,0.1-0.2,0.1-0.1,0.3c0.2,0.6,0.2,1.2,0.1,1.9
	c0,0.2-0.1,0.4-0.2,0.6c-0.3,0.5,0.4,1.2,0.1,1.6c-1.3,1.4,0.1,2.2,0.7,3.1c-0.2,0.5-0.6,0.7-1.1,0.8c-1.7-0.2-2.3,0.7-2,2.3
	c0.3,1.7,0.2,3.5,0.2,5.2c0,1.9-0.6,3.6-2.1,4.8c-1.4,0.7-1.9,1.8-1.6,3.3c0.1,0.6,0.2,1.3-0.4,1.7c-0.2,0.1-0.4,0.2-0.6,0.2
	c-0.6,0-1.2-0.3-1.8,0.2c-0.1,0.1-0.2,0.3-0.2,0.4c0,0.7-1.2,1.5,0.1,2.2c0.2,0.1-0.1,0.6-0.3,0.8c-3.1-0.6-4.2,1.6-5.7,3.6
	c-1.4,2.1-2.6,4.1-2.2,6.7c-0.4,0.9-1,0.6-1.5,0.1c-0.9-0.9-1.5-1.9-0.9-3.2c1.2-2.6,2.2-5.3,3.9-7.6c0.7-1,1.7-2,0.6-3.4
	c-1.5-2-4-3.2-5.5-2.7c-0.6,0.2-0.9,0.7-0.9,1.3c0,1.3-0.2,2.5,0.2,3.8c0.9,2.8,1.6,5.6-0.2,8.3c-0.3,0.4-0.1,0.9,0.1,1.4
	c0.4,1,0,1.7-1.1,2c-0.8-0.2-1.1-0.8-1.3-1.5c-0.1-0.5-0.1-1-0.1-1.4c0-0.2,0.1-0.5,0.1-0.7c0.9-2.6-0.1-5.2-0.2-7.8
	c0-0.8-0.8-0.9-1.5-0.4c-2.5,1.5-3.4,3.4-2.8,6.3c0.2,1,0.3,2.1,0,3.1c-0.4,1.4-1.1,2-2.2,0.4c-0.3-0.8-0.3-1.7-0.3-2.6
	c0-0.9-0.4-1.3-1.3-1.2c-0.7-0.1-1-0.4-1.1-1.1c0.1-0.3,0.3-0.6,0.5-0.9c2.1-2,3.8-4.5,5.7-6.7c1.5-1.8,1.2-2.2-1.2-4.1
	c-0.2-0.2-0.3-0.4-0.5-0.6c-0.3-0.4-0.5-0.9-0.7-1.3c-0.5-1.1-0.5-2.2-0.5-3.3c-0.1-5.9,0.4-11.8-0.8-17.7
	C18.4,59.7,18.6,59.3,18.8,58.9z"/>
<path class="st2" d="M10.3,125.2c-2.6-2.7-4.7-5.9-7-9.5c2,0,3.7,0,5.3,0c1.2,0,2.3-0.2,2.7-1.6c0.3,2.5,1.7,3.6,4.2,3.7
	c1.1,0.1,1.7,1.3,2.2,2.3c1.5,2.8,3.7,3.7,6.7,3.1c0.3-0.1,0.6,0.1,1-0.1c0.1-0.6-0.5-1.1-0.7-0.9c-1,0.9-2,0.6-3.2,0.7
	c-1.3,0-1.9-0.2-2.4-1.1c-0.5-0.9-1.3-1.6-1.8-2.5c-1.1-1.7-1.1-2.7,0.5-4.2c5.8-0.4,11.7-0.3,17.5-0.1c2.4,0.7,4.9,1.4,7.3,0.1
	c1.6-0.3,3.1-0.3,4.7,0c1.5,0.8,1.3,1.5,0,2.2c2.1,0,2.5,0.5,1.8,2.4c-0.2,0.5-0.4,1.1-0.6,1.5c-0.7,1.3-1.6,1.3-2.4,0.2
	c-0.6-0.9-1.5-1.6-2.2-2.5c0.1,0.4,0.6,0.6,0.8,0.9c1.5,3.6,4.9,2.9,7.7,3.2c1.8,0.2,2.3-0.7,1.3-2.4c-0.4-0.7-1.1-1.1-1.6-1.7
	c-0.9-1-1.5-2.1-0.5-3.4c4.9,0,9.7,0,14.6-0.1c1.3,0,2.2,0.3,3,1.5c1.7,2.6,3.6,5.2,5.7,8.2c-6.3,0.2-12.1,0.3-17.9-0.1
	c-6.1-0.5-12.3-0.2-18.4-0.2c-8.7,0-17.5,0-26.2,0C11.5,125.1,10.9,124.9,10.3,125.2z"/>
<path class="st3" d="M51.5,115.7c-0.2,1.6,0.3,3,1.9,3.8c0.3,0.2,0.7,0.5,0.9,0.8c0.4,0.9,1.1,2,0.5,2.9c-0.5,0.8-1.7,0.6-2.6,0.6
	c-1.5,0-2.9-0.8-4.5-0.2c-0.4,0.2-1.1-0.3-1.4-0.7c-1.2-1.6-2.4-3.3-3.7-5c0.8-0.5,1.4,0,1.5,0.4c0.4,1.4,2.4,1.6,2.5,3.3
	c0,0.3,1.2,0.5,1.2-0.2c0-0.9,0.7-1.4,0.9-2.1c0.4-1,0.2-1.5-0.9-1.7c-0.4-0.1-0.8,0-1.2,0c-0.3,0-0.6-0.1-0.9-0.1
	c0.5-0.8,2.8,0.3,2-1.8c0-0.3,0.1-0.7,0.2-1c0.3-0.5,0.2-1.4,1-1.4c0.7,0,0.6,0.8,0.7,1.3c-0.2-1.4-0.1-2.8-0.2-4.3
	c-0.4,0.8-0.3,2-1.6,1.2c-1.3-4.3-1.2-8.8-2.4-13.2C44.9,96,44,94,41.4,93.1c-0.8-0.3-1.9-0.7-1.9-1.9c0.5-1.8-1.4-0.6-1.7-1.3
	c1-0.5,1.1-0.7,1.7-2.6c0.1,0.1,0.2,0.1,0.3,0.2c0.7,1.9,2.3,2.8,4.1,3.7c-0.7-1.6-2.7-1.3-3.5-2.7c0.3-0.7,1.2-0.5,1.5-1.1
	c0.7-0.5,0.3-1.1,0.2-1.7c-0.4-1.9-0.1-2.5,1.9-3.5c0.9,0.7,0.7,1.9,0.7,2.6c0,2.6,0.6,4.7,2.4,6.5c0.6,0.6,0.4,1.5,0.2,2.3
	c-0.4,2,0.3,3.7,1.2,5.7c0.9-1.5,0.8-2.9,0.5-4.2c-0.4-2.1,0-3.9,0.8-5.8c0.6-1.4,1.6-2.8,0.8-4.5c-0.1-0.3-0.1-0.7,0.2-0.9
	c3.1-1.6,2-4.6,2.3-7.1c0-0.4-0.2-0.8-0.1-1.2c0.2-3.1-0.9-5-4.3-5.1c-0.3,0-0.5-0.3-0.5-0.7c0.4-0.1,0.8-0.1,1-0.5
	c0.1-0.1,0.1-0.1,0.2-0.2c0.9-0.5,2.7,0.4,2.8-1.4c0.1-1.5-1.6-1.1-2.5-1.6c-0.5-0.3-1.5-0.2-1.5-1.2c0-0.2,0.1-0.5,0.1-0.7
	c1.1-0.3,2.1,0.3,3.2,0.6c1.9,0.6,3.9,0.4,5.8,0c2.6-1.3,4-4.4,3.3-7.2c-0.2-0.7-0.9-0.9-1.3-1.3C59,56.1,59,55.9,59,55.6
	c0.8-1.5,2.2-1.3,3.3-1c1.1,0.3,0.9,1.5,0.9,2.4c-1,1.4-0.5,3-0.6,4.6c0,0.4,0.4,0.6,0.7,0.9c0.8,0.7,1.3,1.5,1.3,2.7
	c-1.7-0.7-3.2-0.4-4.8,0.6c-0.7,0.5-1.4,0.6-0.8,1.7c0.5,0.9,1,1.3,2,1c1.8-0.5,2.5-2,3.5-3.3c0.7,2.6,2.1,5,2,7.8
	c-0.1,1.9,0.1,3.8,0,5.7c-0.1,2.7,0.9,5.1,2.4,7.3c0.9,1.2,1.6,2.6,2.3,3.8c-1.6,1-2.1-0.3-2.6-1.3c-0.7-1.4-1.5-2.7-2.6-3.7
	c-0.4-0.4-0.8-0.8-1.5-0.4c-0.5,0.4-0.6,1.1-0.3,1.5c1.5,2.2,1.5,5.8,5.6,5.6c2.4-0.1,1.9,2.4,2.6,3.6c0.1-1.1-0.9-2.4,0.2-3.5
	c1.7,2.4,2,4.9,0.4,7.4c-0.6,0.9-0.6,2.1-1.8,2.6c-1-0.9,0.6-2.7-1.1-3.4c0.6-2.6-0.2-4.5-2.6-5.7c-2.3-1.1-4.4-2.6-6.4-4.1
	c-0.8-0.6-1.4-0.9-2.5-0.3c-1.3,0.8-3,1.2-4.6,0.7c-1.1-0.4-1.5,0.1-1.7,1c-0.9,3.8-1.8,7.6-1.5,11.5c0.1,1.4,0,2.7-0.1,4
	C50.5,109,50.2,112.4,51.5,115.7z"/>
<path class="st4" d="M17,115.7c-0.1,0.6,0.7,1.2,0,2c-0.5,0.6,2.8,4.9,3.7,5c0.8,0.1,0.5-1.1,1.1-1c0.5,0.1,0,1.1,0.8,1.1
	c0.4,0,0.6-0.1,0.9-0.5c0.7-1.4,1-1.4,1.9-0.4c0.2,0.2,0.4,0.5,0.6,0.8c0.1,0.3,0.2,0.6,0.4,1.2c-2,0-3.8,0-5.6,0
	c-1.1,0-1.7-0.9-2.2-1.6c-0.6-0.8-1.1-1.8-1.8-2.5c-0.5-0.5-0.8-2.1-2.1-0.8c-1.1-0.5-2.3-1-3.4-1.6c-0.3-0.2-0.4-0.7-0.3-1.1
	c0.1-0.6,0.1-1.3,0.2-1.9c0.5-0.5,1-1.1,0.4-1.9c-0.8-1.1-0.5-2.2-0.2-3.4c0.9-3.7,1.1-7.4,0.3-11.1c-0.3-1.4-0.2-2.9,0.5-4.2
	c0.7-1.3,0.7-2.5,0.5-3.9c-0.3-3.5-1.5-6.7-3.3-9.8C6.9,75.4,5.9,70.5,7,65.4c0.8-0.3,0.8,0.9,1.5,0.9c0.5-1,0.4-2.3,1-3.3
	c0.6-1,1.4-1.6,2.6-1.7c0.3,0-0.2-0.4-0.1-0.1c0,0.1-0.1,0.1-0.2,0.1c-0.4,0.1-0.8,0-1.1-0.3c0.4-0.8,1.2-0.5,1.9-0.6
	c1.6-0.1,3.2-0.2,4.7-1.1c0.4-0.3,1-0.2,1.6-0.3c0,0.4,0,0.8,0,1.1c-0.8,0.9-2,1.2-3,1.7c-0.8,0.5-1.5,1.1-2.1,1.8
	c-0.1,0.2-0.3,0.3-0.4,0.4c-0.2,0.3-0.3,0.7-0.4,1.1c-0.1,0.2-0.1,0.4-0.3,0.6c-1.5,2-2.3,4.2-1.8,6.7c0.1,0.2,0.1,0.4,0.1,0.6
	c0,1.2,0,2.3,0.6,3.4c0.3,3.1,2.2,5.5,3.5,8.2c0.1,0.1,0.4,0.2,0.4,0.3c-1.6,2.8,1.9,5.4,0.5,8.2c-0.1,0.2-0.1,0.5-0.3,0.7
	c-2.3,1.6-1.9,3.8-1.8,6.3c0.1,3.4-0.4,6.9-0.6,9.5c0-3.6,0.9-8,0.7-12.5c0-0.4,0.1-0.7,0.4-0.9c0.7-0.4,0.6-1.8,1.9-1.5
	c0.3,0.3,0.5,0.6,0.8,0.9c0.7,1.1-0.1,2.1-0.3,3.1c-1.2,4.4-1.9,8.8-0.9,13.3C15.9,113.3,17,114.3,17,115.7z"/>
<path class="st5" d="M32.3,27.8c-0.6-0.4-0.7-1-1-1.6c0.3-0.4,0.7-0.2,1.1-0.4c1.2-0.5,1.2-0.8,0.4-1.9c-0.2-0.2-0.6-0.5-0.6-0.7
	c0.4-1.9-1-3.1-1.7-4.5c-0.7-1.3-1-2.7,0.4-3.9c0.3-2.4,2.9-2.7,4.1-4.3c0.1-0.2,0.4-0.2,0.6-0.3c2.2-0.7,4,1.1,6.2,1
	c1.1,0,1.8,1.5,2.2,2.6c0.7,1.7,1.8,3.2,1.7,5.3c-0.1,2.5-1.2,4.2-2.8,5.7c-0.4,0.4-0.3,0.6-0.1,1c-0.6,0.5-1.1,1.1-1.6-0.1
	c-0.1-0.2-0.5-0.2-0.8-0.3c-0.9-0.9-0.7-2.1-0.9-3.1c-0.3-1.4-0.7-2.2-2.3-1.9c-0.9,0.2-2.1,0.4-2.5-0.7c-0.5-1.1,0.7-1.6,1.7-2.1
	c-1.1-0.1-2-0.1-1.9,1.1c0,1,0.1,2.1,1.1,2.7c0.3,0.2,0.8,0.2,1.1,0.3c0.6,0.2,1.4,0.1,1.5,0.9c0.1,0.7-0.5,1.1-1.1,1.5
	c-0.5,0.3-1.3,0.1-1.4,1c1.3,0.8,1.4,2,0.9,3.3c-1.2,1-1.7-1.2-2.7-0.6C33.5,28.8,32.9,29.4,32.3,27.8z"/>
<path class="st6" d="M73.6,54.6c-1.9,0.8-3.7,0.9-5.1-0.9c-0.5-0.6-0.8,0-1.2,0.2c-0.5,0-1,0.8-1.5,0.2c-0.7-0.9,0.2-1.6,0.4-2.4
	c-0.9-2.1-1.6-2.2-2.8-0.6c-0.3,0.7-0.4,1.4-0.2,2.1c0,0.2,0,0.4-0.1,0.6c-0.5,0.8-1.3,0.9-2.1,0.8c-0.7-0.1-1.1-0.4-0.6-1.3
	c1.4-2.7,1.2-3.7-1-6c-1.8-1-2.6-3.1-4.4-4c-0.2-0.1-0.3-0.2-0.5-0.4c-0.2-0.5-0.2-1,0-1.5c0.2-0.4,0.5-0.6,0.6-1
	c0.1-0.4,0-0.8-0.1-1.1c0-0.2,0-0.4,0-0.6c1.7-1.5,2-3.8,3.1-5.7c0.3-0.5,0.3-1.2,1-1.5c0.6,0.1,0.8,0.5,0.7,0.8
	c0.9-1.6,2.5-2.9,3.1-4.9c0.1-0.4,0.6,0,0.9,0.4c0.3,0.8-0.1,1.7,0.6,2.4c0.3,0.3,0.5,0.6,0.7,1c1.2,2,1.1,2.4-1.2,2.8
	c-1,0.2-1.3,0.5-0.7,1.3c1.3,2.3,1.2,2.5-1.3,3.1c0.9,0.3,1.8,0.9,2.7,0.5c0.8-0.4,1.5-0.8,2.2,0.2c0.7,0.9,0.3,1.8-0.3,2.6
	c-0.1,0.1-0.2,0.2-0.3,0.4c-1.1,0.5-1.9-0.8-3-0.6c-0.2-0.2-0.5-0.4-0.8-0.4c0,0,0,0.1,0,0.1c0.2,0,0.5,0.1,0.6,0.2
	c0.8,0.9,0.5,2.6,2.1,2.9c1.6,1,3.1,2.6,5.3,0.9c0.6-0.5,1.2,0.1,1.6,0.6c0.1,0.2,0.3,0.4,0.3,0.6c0.1,1.1,1.3,2.5-0.9,3.2
	c1.2,0.2,2.2,0.4,2.7,1.4c0.1,0.5,0.1,0.9-0.4,1.2c-0.3,0.1-0.6,0.1-0.9,0.1c-0.5,0-1,0-1.1,0.6c-0.2,0.6,0.4,0.8,0.8,1
	C73,53.9,73.7,53.9,73.6,54.6z"/>
<path class="st7" d="M31.3,38c0.5-0.3,0.6-0.8,0.4-1.2c-1.1-2.8-1.9-5.8-3.6-8.3c-0.5-0.8-0.4,0.3-0.6,0.4c-1.9-3.5-4.3-6.7-7.4-9.2
	c-0.4-0.3-0.8-0.6-0.8-1.2c0-1.9-0.3-3.8,0.2-5.8c2,0.8,3.4,2.2,4.7,3.7c2.2,2.4,3.9,5.2,5.5,8.1c0.4,0.7,0.7,1.5,1.3,2
	c-0.7,0.5-0.5,1-0.2,1.7c1.6,3.5,2.9,7.2,3.9,10.9c0.5,2,0.9,4.1,1.3,6.2c-2.1,0.1-2.1,0.1-2.9-2.9c-0.6,0.1,0,1.1-0.6,1
	c-0.2,0-0.4-0.6-0.6-0.9C32.1,40.8,30.5,39.5,31.3,38z"/>
<path class="st8" d="M59.2,31.7c0,0.1-0.1,0.2-0.1,0.2c-0.8,0.6,0.1,1.8-0.9,2.5c-0.8,0.6-0.8,1.7-0.9,2.7c0,1.3-1.5,1.3-1.9,2.3
	c-0.5,0.8-1.1,1.6-1.5,2.4c-1,2.5-1,2.5-3,0.8c0,0,0-0.1,0-0.1c-0.4,1.5-2.1,2.2-2.4,3.8c-0.2,1.2-1.6,1.4-2,2.5
	c-0.1,0.3-0.5,0.4-0.8,0.2c-0.8-0.5-0.7-1.2-0.4-1.9c0.9-2.8,2.1-5.5,3.4-8.1c0.8-2.8,3.3-4.1,5.3-5.8l0,0c0.6-0.3,1.1-0.7,1.7-1
	c0.2-0.9,0.9-1.1,1.7-1.3c0.6,0.1,1.2-0.4,1.8-0.3C60.2,30.8,59.8,31.3,59.2,31.7z"/>
<path class="st9" d="M72.6,91.8c-0.3,1.5,1.1,3,0,4.6c-0.9-0.9-1.2-2.1-1.4-3.2c-0.1-0.8-0.5-1.2-1.3-1.1c-2.5,0.5-4.1-1.2-5.9-2.3
	c0.5-0.9,1.1,0.1,1.6-0.4c-0.4-0.6-0.7-1.3-1.2-1.9c-1.6-2.2-1.5-2.8,1-4.3c1.6,1.8,3.3,3.6,4.1,5.9c0.2,0.5,0.8,1.2,1.7,0.7
	C71.9,90.4,72.3,91,72.6,91.8z"/>
<path class="st10" d="M63.1,35.5c-0.1-0.1-0.2-0.2-0.3-0.3c-0.4-0.3-1.2-0.4-0.8-1.2c0.2-0.5,0.8-0.9,1.3-0.7
	c0.9,0.4,1.7,0.2,2.4-0.5c-0.5-0.8-1.6-1.4-1.2-2.6c1-0.7,2-1.5,3.1-2.2c0.8-0.5,1.2-0.1,1.1,0.8c0,0.2,0,0.3-0.1,0.5
	c-0.2,0.8-0.8,1.7-0.3,2.5c0.6,0.9,1.5,1.3,2.4,1.8c0.7,0.4,1.6,0.4,1.8,1.3c-0.8,0.4-1.9-0.7-2.5,0.6c-0.1,0.1-0.2,0.1-0.3,0.2
	c-0.9,0.2-1.7-0.1-2.5-0.3c-0.5-0.1-1-0.4-1.3,0.1C65.1,37.6,64.1,36.5,63.1,35.5z"/>
<path class="st11" d="M66.7,51.8c0.3,0.8-1,1.1-0.7,1.9c0.4,0.5,1-0.8,1.3,0.2c-1,1.6-2.3,2.7-4.2,3.2c-1-0.4-0.3-1.5-0.9-2.1
	c-0.8,0.1-1.6,0.2-2.5,0.3c-0.5,0.1-0.6,0.4-0.6,0.8c-1.7,1.1-3.5,1-5.3,0c-0.2-1.2,1-0.9,1.5-1.3c0.8-0.2,1.5-0.6,2.2-1
	c2.4-1.2,2.6-1.6,2.2-4.2c-0.1-0.8-0.8-1.6-0.2-2.5c1.5,0.6,2,2,2.3,3.3c0.2,1.3,0.2,2.8-1.5,3.6c1.1,0.3,1.9,0.2,2.6-0.7
	C64,52.2,65.1,51.4,66.7,51.8z"/>
<path class="st12" d="M70.1,98.4c0.5,0.6,1-0.3,1.7,0.2c0.4,1.1-0.9,2.1-0.5,3.2l0-0.1c-0.5,0.7-0.6,1.7-1,2.4l0,0
	c-0.5,0.8-0.7,1.8-1,2.7c0.1,0.5,0,0.9-0.5,1.1c-2.4,1.5-3.2,1.1-3.3-1.9C67.5,103.8,68.5,101,70.1,98.4z"/>
<path class="st13" d="M10.3,125.2c0.6-0.6,1.4-0.4,2-0.4c14.2,0,28.3,0,42.5,0c0.7,0,1.5-0.2,2,0.4c-6.5,0.1-13.1,0.2-19.6,0.2
	c-8.2,0-16.4,0-24.6,0C11.8,125.5,11,125.6,10.3,125.2z"/>
<path class="st3" d="M65.5,106.1c0.1,0.1,0.1,0.1,0.2,0.2c0.8,2.5,0.8,2.5,3.2,1.7c-0.5,1.4-2.1,1.4-3,2.4c-0.5,0.2-0.7-0.8-0.9-0.5
	c-0.3,0.4,0.3,1,0.1,1.5c-1.7,1.7-3.1,2-5,1c-0.1-2.7,1.9-1.1,2.9-1.5c-0.7-1.1-0.8-2.4,0.1-3.7C64.1,107.4,65.1,107.6,65.5,106.1z"
	/>
<path class="st14" d="M74.1,51c-1-0.9-2-1.2-3.2-0.1c-0.1-0.3-0.2-0.6-0.1-0.8c0.3-0.7,0.6-1.5,1.7-1.7c0.3-0.1-1.2-1-0.5-1.9
	c0.1-0.1,0.2-0.3,0.3-0.4c1.5-1.1,2.2,0,3,1c0.2,0,0.3,0.2,0.3,0.4C76.8,50.3,76.8,50.5,74.1,51z"/>
<path class="st15" d="M53.9,33.1c-1.8,1.9-3.5,3.9-5.3,5.8c-0.2-0.3-0.3-0.6-0.5-0.9c1.8-2,1.4-3.8-0.3-5.8
	c-1.1-1.2-1.9-2.7-3.1-3.8c-0.7-0.8-0.1-0.9,0.6-0.9c1,0.1,1.4,0.9,2,1.6c1.4,1.8,2.7,3.7,4.1,5.5C52.5,34.3,52.9,33.1,53.9,33.1z"
	/>
<path class="st16" d="M59.2,31.7c-0.1-0.3,0.6-1.1-0.4-0.8c-0.6,0.1-1,0.4-1.5-0.1c0.1,0,0.1-0.1,0.2-0.1c2.7-0.4,4.8-1.6,5.6-4.3
	c0.9,0.3,1,0.8,0.9,1.4c-0.4-0.1-0.7-0.3-0.9,0.3c-0.3,1.1-0.6,2.1-0.9,3.2c-0.1,0.5-0.2,0.9-0.8,1.1c-0.5-0.2-0.1-0.9-0.7-1.2
	c0,0.7,0,1.4,0,2.1c0,0.5-0.2,1-0.8,0.9c-0.6-0.1-0.6-0.6-0.6-1.1C59.4,32.6,60.1,32.1,59.2,31.7z"/>
<path class="st17" d="M63,107.1c0.1,1.4-0.5,2.8,0.6,4.2c-1-0.5-1.8,1-2.9-0.1c-0.2-0.2-0.4,0.7-0.6,1.1c-0.7-1.6,0.1-3.1,0.7-4.5
	C61.2,107,62.1,106.8,63,107.1z"/>
<path class="st18" d="M74.1,51c0.1,0,0.2-0.1,0.2-0.1c0.1-1.1,1.5-0.2,1.7-1.2c0.1-0.8-0.6-1.4-0.4-2.2c2.2,2.4,2,5.2-0.6,7
	c-1.3-0.5-1.3-1.5-1.2-2.6C74,51.6,74,51.3,74.1,51z"/>
<path class="st19" d="M10.7,61c0.9,0.1,1.8-0.3,2.7,0.1c-0.1,0.3-0.1,0.5-0.2,0.5c-2.6,0.4-3.5,1.2-4,3.8c-0.1,0.8,0.1,1.6-0.6,2.2
	c-1.5,0-1.1-1.5-1.7-2.2c-0.1-0.7,0.2-1.1,0.7-1.5C8.7,62.9,9.5,61.7,10.7,61L10.7,61z"/>
<path class="st14" d="M73.7,51.8c-0.4,1,0.8,0.7,1.1,1.2c0.4,0.7-1.3,0.8-0.1,1.3c0.1,0,0.1,0.1,0.2,0.1c-0.4,0.3-0.8,0.3-1.2,0.2
	c-0.5-0.7-1.3-0.3-2-0.7c-0.6-0.3-1.1-0.7-0.8-1.5c0.2-0.6,0.5-1.3,1.3-1C72.7,51.6,73.3,51.1,73.7,51.8z"/>
<path class="st18" d="M75.1,47.1c-0.9-0.6-1.8-1.3-3-1c0,0,0,0,0,0c-0.8-1.6,0-3.4-0.7-5c0.1-0.1,0.1-0.2,0.2-0.3
	C73.3,42.6,74.3,44.8,75.1,47.1z"/>
<path class="st10" d="M70.2,35.5c0.7,0.3,0.8,1,0.7,1.5c-0.3,1.4,0.4,2.5,0.7,3.7c0,0,0,0,0,0c-1.8,0.1-2.2-1.3-2.6-2.5
	C68.5,37,69.2,36.2,70.2,35.5L70.2,35.5z"/>
<path class="st20" d="M65,111.3c-0.6-0.5-1.1-1-0.6-1.9c0.2-0.4-0.2-1.3,0.7-1.2c0.5,0.1,0.8,0.7,0.6,1.3c-0.1,0.3-0.1,0.6,0.2,0.8
	C65.7,110.8,65.4,111.1,65,111.3z"/>
<path class="st4" d="M10.7,60.9c-0.9,1.2-1.9,2.2-3.1,2.9C8.3,62.5,9.1,61.3,10.7,60.9z"/>
<path class="st3" d="M70.2,104.2c-0.1-1,0.2-1.8,1-2.4C71.5,102.8,70.7,103.4,70.2,104.2z"/>
<path class="st3" d="M69.3,106.8c0.1-1,0.2-2,1-2.7C70.2,105.1,69.8,106,69.3,106.8z"/>
<path class="st15" d="M55.6,32.1c-0.5,0.5-0.9,1.1-1.7,1C54.2,32.3,54.7,31.9,55.6,32.1z"/>
<path class="st21" d="M48.1,69.7c0.6,0.5,1.4,0.3,2.1,0.4c1.1,0.2,2.2,0.5,3,1.4c0.4,0.4,0.8,0.9,0.2,1.4c-0.7,0.6-0.2,1.3-0.1,1.8
	c0.8,2,0.2,4,0.4,6c0.1,0.9-1.3,1.5-0.8,2.8c0.2,0.4-1.4,0.4-2.2,0.8c1.7,1.7,0.5,3.2-0.1,4.7c-0.9,2-1.6,3.9-1.1,6.1
	c0.2,0.9,0,1.9,0.1,2.9c0.1,1.1-0.4,1.8-1.6,2.4c-0.7-2.4-1.9-4.5-1.2-7c0.3-1.1,0-1.9-0.7-2.6c-1.6-1.4-2.3-3.1-1.8-5.3
	c0-0.2-0.1-0.5,0-0.7c0.3-0.7-1.4-0.6-0.7-1.2c0.7-0.5,0.1-1,0.4-1.4c1.3-1,1.7-2.4,1.8-4c0.1-2,0.2-4-0.2-5.9
	c-0.1-0.5-0.2-0.9-0.2-1.4c0-1.3,0.4-1.5,1.8-1.3C47.5,69.6,47.8,69.7,48.1,69.7z"/>
<path class="st22" d="M15.5,61.4c1.1-0.5,2-1.5,3.4-1.3c1.1,3.6,1,7.3,1,11.1c0,2.5,0,5.1-0.1,7.6c0,1,0.4,1.9,0.6,2.8
	c0.2,0.3,0.1,0.8,0.4,1l0,0c-1.3,1.4-3.1,1.5-5.5,0.2c-0.2-0.2-0.3-0.3-0.5-0.5c-0.2-0.3-0.5-0.6-0.7-0.9c-0.5-0.6-1.8-0.7-1.5-1.9
	c0.3-1.1,1.6-0.4,2.2-1.1c-1.3-0.9-3.1-1.1-3.7-2.8c0.3-0.8,1-0.5,1.6-0.5c-0.8-0.3-0.4-1.9-1.8-1.5c-0.1,0-0.2-0.4-0.1-0.6l0,0
	c0.1-0.1,0.4-0.3,0.4-0.3c-1.3-2.8,1.8-4.8,1.6-7.4l0,0c0.5-0.4,0.8-0.8,0.5-1.4l0,0C14.2,63.3,15.1,62.6,15.5,61.4z"/>
<path class="st23" d="M31.4,101.7c2.1,2.6,4.3,5.1,6.7,7.5c0.4,0.9,0.5,1.8-0.6,2.2c-1,0.4-1.7-0.3-2.1-1.1
	c-1.2-2.4-2.9-4.3-5.1-5.7c-1.2-1.2-2.9-1.9-3.9-3.3c0.4-0.6,1.4-1.1,0.3-2c-0.2-0.1-0.3-1.4,0.1-1.7c1.9-1.4,0.9-3.2,1-4.9
	c0-0.7-0.1-1.5-0.5-2.1c-1-1.7-0.4-3.5-0.6-5.3c-0.1-0.8,0.4-1,0.9-1.2c1.5-0.5,4.4,0.3,5.3,1.7c0.3,0.4,0.4,0.6,0.9,0.9
	c1.4,0.8,1.6,1.7,0.7,3.1c-0.9,1.4-1.8,2.9-2.6,4.3c-0.9,1.6-1.6,3.4-2.4,5.1C29.1,100,30.3,101.5,31.4,101.7z"/>
<path class="st24" d="M53.9,55.7c1.7,0.9,3.5,0.3,5.3,0.4c0,0,0,0,0,0c0,1.5,0.3,3,0.4,4.6c0.2,2-0.6,3.3-1.9,4.5
	c-3.3,1.2-6.4,0.3-9.5-1c0-0.8,0-1.6-0.1-2.4c-0.2-1.2,1,0.1,1.1-0.6c0.1-1.2,0.3-2.4,0.4-3.5c0.1-1-0.7-2.4,0.6-3
	C51.6,54.1,52.9,54.7,53.9,55.7z"/>
<path class="st25" d="M15,82.1c1.8,1.3,3.7,1.3,5.7,0.5c0.6,0,0.8,0.5,1.2,0.7c2.2,1.5,2.3,1.7,0.9,3.9c-0.4,0.6-0.9,1.1-1.4,1.6
	c-1.2,1.2-2.3,2.3-3.1,3.8c-0.3,0.7-0.9,1.3-1.8,1.4c-0.6,0.3-0.8-0.1-1.1-0.5c-0.1-0.3-0.2-0.7-0.1-0.9c0.3-1-0.4-2.1-0.1-3
	c0.5-1.3-1-1.2-1.2-2c-0.4-1-0.8-1.8,0.6-2.2c0.1,0,0.6-0.2,0.3-0.3c-1.4-0.5-1-1.9-1.7-2.8c-1.2-1.7-2.2-3.7-2.1-5.9
	c-0.2-0.2-0.1-0.4,0-0.5c1.3,0.5,2.2,1.8,3.8,1.8c0.5,0,1,0.6,0.8,1.3c-0.2,0.6-0.7,0.8-1.3,0.5c-0.5-0.2-1.1-0.3-1.6,0.1
	c0,0.9,0.8,1,1.3,1.1C15,80.8,15.1,81.4,15,82.1L15,82.1z"/>
<path class="st26" d="M35.1,72.1c0.1,0.2,0.3,0.3,0.4,0.5c0.6,1.2-0.3,2.2-0.3,3.3c-0.1,0.7-0.1,1.5-1,1.6c-3,0.3-6.1,1-9.1-0.3
	c-0.6-3.2-0.1-6.5-0.3-9.7c0-0.8,0.5-1.2,1.2-0.9c2.9,1.2,6,2.3,8.3,4.5C34.8,71.3,35,71.7,35.1,72.1z"/>
<path class="st27" d="M35.6,68.2c-0.9-0.9-1.7-1.8-1.5-3.3c0.1-0.7-0.6-1.4-0.5-2.3c6.2-0.7,8.5,3.2,8.8,7.8
	c0.1,2.5-0.4,4.9-0.7,7.3c-0.3,2.1-1.1,2.7-3.2,2.3c-0.3-0.1-0.6-0.3-0.9-0.4c-0.9-2.2-1.1-4.3,0.7-6.1c0.6-0.6,0.8-1,0.1-1.8
	C37.3,70.7,36.6,69.3,35.6,68.2z"/>
<path class="st28" d="M25.1,33.1c1.4-0.4,1.9-1.8,2.8-3c0.9,1.8,1.8,3.3,2.3,5c-0.7,0.6-1.3-0.4-1.9,0.2c0.4,0.3,0.7,0.6,1.1,0.9
	c0.6,0.5,0.2,1,0,1.5c-0.2,0.6-0.6,0.5-1.1,0.4c-0.7-0.1-1.4-0.1-2.2,0c0.5,0.2,1.2,0.3,1.4,0.7c0.3,0.4,0.5,1,0.8,1.5
	c0.4,0.7-0.8,0.6-1.1,1.1c-0.2,0.3-0.6,0.5-0.5,1.2c1.8-1.1,3.5-1.1,4.9,0.8c-1,0.6-2.2,0.1-3,1.1c0.9,0.4,1.6-0.2,2.4-0.2
	c0.6,0,1.2,0.1,1.4,0.7c0.2,0.6-0.4,0.7-0.8,1c-0.9,0.6-1.4,1.5-2,2.3c-0.6-0.5-0.1-1.1-0.4-1.8c-1.1,0.8-1.9,0.3-2.4-0.8
	c-0.2-0.4-0.3-0.9-0.6-1c-2.1-1.3-2.6-3.4-3-5.7c-0.2-1.1-0.1-1.9,0.5-2.9C24.4,35.1,25.4,34.3,25.1,33.1
	C25.1,33.1,25.1,33.1,25.1,33.1z"/>
<path class="st23" d="M25.6,97.9c-0.2-0.2-0.1-1.1-0.6-0.5c-1.6,2.5-3.6,4.5-6.4,5.8c-0.6,0.3-0.7,1.1-1.4,2.1
	c-0.3-2.5,0-4.4,1.4-5.9c1.2,0.7,1.5,0.7,1.5-0.4c0-1.2,0.4-2.6-0.3-3.7c-1.2-1.8,0-3.2,1-4.1c0.7-0.7,1.6-1.5,2.4-2.2
	c1.1-1,2.4-0.7,2.4,0.8c0,1.5,0.9,3.1,0.1,4.7c-0.3,0.7,0,0.7,0.6,0.6c0.3-0.1,0.3,0.5,0.2,0.8C26.3,96.5,26.3,97.3,25.6,97.9z"/>
<path class="st29" d="M34.2,57.6c-0.7-0.7-1.6-0.7-2.4-1c-0.6-1.4,0-2.3,1.2-2.9c0.9-0.5,1.8-0.8,2.7-1.5l0,0
	c1.7-0.3,3.2-1.9,4.9-0.4c-0.6-0.8-0.2-1.4,0.5-1.9c0.6,0,1.3,0,2.1,0c-0.3,2.7-0.7,5.4-1.4,8.1c-0.4,1.4-0.5,1.5-2,1
	c-0.8-0.3-1.6-0.6-2.5-0.5c-0.1,0-0.2,0-0.3,0c-0.3,0-0.6,0-0.8-0.1c-0.2,0-0.4-0.1-0.5-0.2c-0.3-0.1-0.7-0.3-1-0.4
	C34.4,57.8,34.3,57.7,34.2,57.6z"/>
<path class="st30" d="M53.9,55.7c-1.3,0-2.3-0.9-3.6-0.8c-0.6,0.9,0.1,2-0.6,2.7c-0.5-0.2-1-0.5-1.5-0.7c-0.7,0.8,0.6,1.1,0.3,1.9
	c-0.9-0.7-2.2-0.3-3.1-1c-0.2-0.2-0.4-0.3-0.4,0c0,0.3-0.1,0.7,0.1,0.9c1,1.4,0.6,2.8,0.1,4.3c-0.3-0.3-0.6-0.5-0.9-0.7
	c-0.7,0.2,0.8,1.3-0.5,1.3c-1,0-1.1-0.6-1-1.2c0.2-1.9,0-3.7,0.1-5.6c0.1-2.1,0.9-4,1.6-5.9c0.1-0.2,0.5-0.4,0.8-0.5
	c0.5,0,0.9,0.2,1.2,0.7c0,0.3,0,0.6,0.5,0.7c0.2,0.1,0.3,0.2,0.5,0.3c0.4,0.5,1,0.6,1.7,0.6c1.6,0.5,3,1.4,4.6,1.8
	c0.7,0.3,1.6,0.2,2.2,0.9C55.3,55.9,54.5,55.6,53.9,55.7z"/>
<path class="st11" d="M53.4,54.7c-1.9,0-3.2-1.3-4.9-1.8c-0.8,0-1.1-0.8-1.7-1.1l0,0c-0.2-0.1-0.5-0.2-0.5-0.5
	c-0.4-0.3-0.7-0.6-1.1-1c-1.1-1.1-0.6-2.2,0.1-3.3c0.1,0.6-0.1,1.3,0.8,1.7c0.3-1.4,2.3-1.9,1.9-3.7c0.9-0.5,1.5-1.3,1.7-2.3
	c0.2-0.6,0.7,1.6,0.8-0.1c0-0.5-0.2-1,0.2-1.4c0.5,0.3,0.2,0.8,0.3,1.2c0.2,0.7,0.8,0.7,1.3,0.8c0.8,0.1,0.5-0.6,0.6-1
	c0.1-0.4,0.1-0.8,0.6-1c1,2,0.4,4.2,0.4,6.3c0,0.4-0.2,0.9-0.7,0.8c-0.9-0.1-1.1-1-1.4-2.3c0.3,3-1.6,3.7-3.1,4.7
	c0.6,1.8,2,0.8,3.1,1c1.2,1.4,3.2,1.3,4.7,2.6C55.4,55.2,54.4,55.1,53.4,54.7z"/>
<path class="st31" d="M37.1,58.5c0.5,0.8,1.4,0.7,2.1,0.9c1.1,0.3,1.3,1,1.4,1.9c0,1.4-0.4,1.7-2,1.2c-3.4-1-6.8-2.1-10.2-3.1
	c-1-0.3-2.1-0.3-2.9-1c1-1.6,2.2-2.2,4.1-1.5c1.5,0.5,3.1,0.8,4.7,0.7c0,0,0,0,0,0c0.4,0.5,1.1,0.1,1.5,0.5l0,0
	C36.1,58.5,36.7,58.1,37.1,58.5L37.1,58.5z"/>
<path class="st32" d="M35.3,25.6c-0.5-0.2-0.9-0.4-0.9-1c0.1-0.5,0.5-0.5,0.9-0.6c1-0.1,2-0.2,2.6-1.2c-0.3-0.6-0.7-0.3-1.1-0.4
	c-1.5-0.4-3.2-0.5-2.7-2.9c0.1-0.7-1.3-1.3-0.2-2.2c1-0.9,2.1-0.6,3.1-0.1c0.3,0.1,0.6,0.2,0.8,0.7c-0.6,0.1-1.3,0.2-1.9,0.4
	c-0.5,0.2-1.1,0.5-0.9,1.2c0.2,0.7,0.8,0.7,1.4,0.6c0.5-0.1,1-0.4,1.6-0.4c1.6-0.1,1.8,0,2.1,1.5c0.2,1.4,0.3,2.8,0.4,4.3
	c-0.1,0.1-0.1,0.3-0.2,0.4c-0.1,0.4,0,0.9-0.3,1.3c-0.7,0.9-1.6,1.4-2.7,0.8c-1.1-0.6-0.4-1.5,0-2.2C36.6,25.8,36,25.7,35.3,25.6z"
	/>
<path class="st33" d="M35.3,25.6c1.2,0,2.3-0.2,3.4-0.9c-0.1,0.7-0.6,1.2-1.1,1.6c-0.4,0.4-0.5,0.8-0.2,1.3c0.3,0.4,0.8,0.3,1.3,0.2
	c0.9-0.3,1.1-1.2,1.7-1.9c0.5,1,0.9,2,1.4,3c0.3,0.7,0.1,1.2-0.3,1.7c-2,2.3-5.8,2.7-7.9,0c-0.6-0.8-1.4-1.6-1.2-2.8
	c1,1.2,1-0.4,1.6-0.5c1.6,0.7,2.8,3,4.9,1.4c-0.7,0-1.7,1.3-2.2-0.5c-0.1-0.4-0.4-0.8-0.3-1.1C37,26,35.8,26,35.3,25.6z"/>
<path class="st34" d="M35.1,72.1c-1.6-1.3-3.7-1.9-5.2-3.5c-0.4-0.4-1.3-1.1-1.6-0.4c-0.5,1.3-0.8,0.8-1.2,0.1
	C27,68,27,67.6,26.8,67.4c-0.3-0.3-0.7-0.6-1.3-0.5c-0.5,0.2-0.4,0.6-0.4,1c0,3.1,0,6.2,0,9.3c-0.6-0.3-0.5-0.9-0.5-1.5
	c0-4.1,0-8.1,0-12.4c2.4,1.2,4.4,3,7,3.6c0.2,0.1,0.5,0.3,0.5,0.4c0,2.1,2.8,2,3,3.9C35.2,71.6,35.1,71.8,35.1,72.1z"/>
<path class="st35" d="M44.8,28.3c0.9,0,1.4,0.6,1.9,1.2c1,1.3,2,2.6,2.9,4c1.1,1.7,1,2.2-0.4,3.6c-0.3,0.3-0.6,0.5-0.9,0.7
	c0.3-0.8-1-1.4-0.4-2.3c0-0.1,0.1-0.2,0-0.2C44.8,31,44.8,31,44.8,28.3z"/>
<path class="st36" d="M15.5,93.6c0.4,0.2,0.7,0.3,1.1,0.5c-0.2,0.2-0.3,0.4-0.5,0.6c-0.8,0.4-0.5,1.6-1.5,1.8
	c-0.2-0.2-0.4-0.3-0.5-0.1c-0.2,0.2-0.1,0.4,0.1,0.5c0.6,1.3,0.3,2.7,0.1,4.1c-0.2,1.9-0.5,3.8-0.6,5.7c-0.1,1.3-0.3,2.7,0.3,4
	c0.2,0.4,0.2,0.9-0.3,1.3c-0.2,0.2-0.5,0.1-0.7-0.1c-0.4-0.3-0.7-0.6-0.5-1.2c0.1-0.5,0.1-1.1,0.2-1.7c0.6-2.1,0.4-4.3,0.4-6.4
	c0-0.9,0-1.8,0.2-2.6c0.2-0.7,0.1-1.1-0.2-1.7c-0.9-1.6-0.4-2.9,1.3-3.7C14.9,94.4,14.6,93.4,15.5,93.6z"/>
<path class="st37" d="M48.2,64.8c1.6,0.9,3.3,1.2,5,1.5c0.2,0.5,0,0.7-0.2,1c-1.2,2.5-1.2,2.5-3.9,1.8c-1.3-0.5-2.3-1.8-1.8-2.3
	c0.7-0.7,0.9-1.1,0.2-1.8C47.7,65,48,64.9,48.2,64.8z"/>
<path class="st38" d="M36.3,47.6c0,0.9-1,1.8-0.6,2.9c0.1,0.4-0.2,0.4-0.4,0.3c-1.1-0.3-2.4-0.3-3.2-1.3c-0.4-0.5-1.1-1-0.7-1.9
	c0.4-0.9,1-1.5,1.9-1.6c0.9-0.1,1.7,0.1,2.6,0.2C36.9,46.5,35.6,47.2,36.3,47.6z"/>
<path class="st39" d="M35.6,52.3c-0.3,0.8-0.9,1.6-1.7,1.8c-1.6,0.3-1.9,1.4-2.1,2.6c-0.6,0-1.1-0.1-1.7-0.1
	c-0.7-0.1-0.9-0.8-1.2-1.3c-0.7-0.9,0.3-1,0.7-1.3c0.2-0.2,0.6-0.3,0.5-0.7c-0.5-2,1.6-1.2,1.7-1.1C33,53.1,34.4,52.1,35.6,52.3z"/>
<path class="st40" d="M35.6,68.2c0.7,0.2,1.3,0.6,1.7,1.2c0.8,1.3,1.6,2.5,3,3.1c-0.1,0.2-0.1,0.3-0.2,0.4c-2.5,1.1-2.9,3.1-2.6,5.6
	c0.1,0.4,0.1,0.8,0.1,1.2c-1.8-1.4-1.3-3.5-0.7-5c0.7-1.8,0.5-3.2-0.6-4.5C35.9,69.5,35.6,68.9,35.6,68.2z"/>
<path class="st41" d="M41.6,81.2c-1.7,1.7-3.3,1.9-4.8,0.6c-0.4-0.3-0.7-0.6-0.5-1.2c0.2-0.4,0.7-0.5,1-0.3c1.3,0.6,2.8,0.1,4.2,0.7
	C41.5,81,41.5,81.1,41.6,81.2z"/>
<path class="st39" d="M41,50c-0.1,0.7-0.7,1.3-0.3,2.4c-1.9-1.5-3.4,0.2-5.1-0.2c0.9-0.9,2.1-1.1,3-2.2C39.1,49.4,40.2,50.1,41,50z"
	/>
<path class="st42" d="M40.9,86.4c-0.8-0.1-1.7,0.2-2.1-1c-0.7-1.9-0.3-2.4,2.2-2.4C41.2,84.2,41.3,85.3,40.9,86.4z"/>
<path class="st43" d="M31.3,38c0.3,1,0.7,2.1,0.9,3.2c0.1,0.4,0.3,1-0.4,1.2c-0.3-0.4-0.6-0.9-1-1.3C29.5,39.4,29.5,39.4,31.3,38z"
	/>
<path class="st34" d="M35.3,75.9c-0.2-1.1,0.1-2.2,0.3-3.3C36.7,73.8,35.7,74.8,35.3,75.9z"/>
<path class="st44" d="M41.9,87.4c0.4,0.6,0.6,1.1-0.5,1c-0.3,0-0.6,0-0.9,0c-0.4-0.3-0.8-0.5-0.4-1.1c0.5-0.1,0.9-0.1,1.4,0
	C41.6,87.3,41.7,87.4,41.9,87.4z"/>
<path class="st3" d="M40.9,86.4c0-1.1,0-2.2,0.1-3.4C41.7,84.2,41.8,85.3,40.9,86.4z"/>
<path class="st3" d="M41.4,87.3c-0.5,0-0.9,0.1-1.4,0.1c-0.2,0.2-0.4,0.2-0.5-0.1c0,0,0-0.1,0-0.1C40.1,86.7,40.8,86.7,41.4,87.3z"
	/>
<path class="st25" d="M20.8,82.6c-1,0-0.6-0.5-0.4-1C20.8,81.8,20.7,82.2,20.8,82.6z"/>
<path class="st23" d="M25.6,99.8c-0.5-0.5-0.4-1,0-1.5C25.6,98.9,25.6,99.4,25.6,99.8z"/>
<path class="st45" d="M32.9,117.1c2.2,0,4,0,5.8,0c1.4,0,2.2,1,2.8,1.9c0.8,1.1,1.4,2.3,2.3,3.3c0.7,0.8,0.4,1.5-0.8,1.5
	c-1.5,0.1-3,0-4.5,0c-0.7,0-1.5-0.2-1.9-0.8C35.4,121.2,33.9,119.6,32.9,117.1z"/>
<path class="st45" d="M30.4,104.6c0.3-0.4,0.7-0.5,1-0.2c1.5,1.7,3.3,3.2,4.3,5.3c0.3,0.7,0.7,1.4,1.4,1.4c1.1-0.1,0.9-1.1,1-1.9
	c1.5,2.1,3.6,3.7,4.3,6.3c-0.8,1-1.9,1-3,1c-1.4,0-2.7-0.2-3.8-1c0.7-0.7,0.4-1.8,0.8-2.6c0.2-0.3,0-0.6-0.2-0.8
	C34.4,109.5,32.7,106.9,30.4,104.6z"/>
<path class="st46" d="M58.8,73.4c-0.5-2.8,0-3.4,3.3-3.9c1.4,0.3,1.6,1.4,1.5,2.5c-0.1,1.6-0.2,3.2-0.9,4.6
	c-0.3,0.6-0.5,1.1,0.1,1.7c1.6,1.8,0.1,2.3-1.2,2.8c-0.3-0.1-0.7,0-0.9-0.2c-0.3-0.2,0.1-0.3,0.2-0.4c0.2-0.1,0.5-0.1,0-0.4
	c-1.7-1-1.7-2.7-1.7-4.3C58.7,75.1,59.2,74.2,58.8,73.4z"/>
<path class="st47" d="M56.9,87.8c-0.1-1-0.2-1.7-0.3-2.5c-0.6,0.4,0,1.3-0.9,1.5c0-1.8,0-3.6,0-5.5c0-2-0.1-4-1.2-5.9
	c-0.4-0.6-0.2-1.4-0.2-2.1c0.1-1.2,1-1.7,2.2-1.4c0.9,0.2,0.3,1.2,0.9,1.4c0.6,0.2,0.7,0.3,0.6,0.5c-0.6,4.3-0.7,8.6-0.6,12.9
	C57.6,87.1,57.4,87.3,56.9,87.8z"/>
<path class="st48" d="M61.5,81.2c0.9-0.2,1-1.2,1.6-1.7c-0.3-0.7-1.3-0.6-1.5-1.3c-0.1-0.4-0.5-0.8-0.1-1.1c2-1.3,0.9-3.4,1.5-5.1
	c0.4-1-0.8-1.5-0.9-2.4c0.3-0.4,0.6-0.4,1-0.5c1.8-0.3,2.9,0.8,2,2.4c-0.8,1.4-0.6,2.6-0.3,4c0.3,1.3-0.1,2.8-0.2,4.2
	c0,0.4-0.3,0.5-0.6,0.6c-0.6,0.2-0.9,0.6-0.6,1.3c0.3,0.8-0.4,1.3-0.9,1.8c-0.5,0.4-1,0.6-1.7,0c-0.7-0.7-0.2-1.1,0.2-1.6
	C61.2,81.5,61.4,81.3,61.5,81.2z"/>
<path class="st49" d="M64.5,65.2c-0.6,0.6,0.4,1.6-0.5,2.2c-1.4,0.9-2.8,1.8-4.5,2.2c-0.4,0.1-0.7-0.1-0.8-0.6
	c-0.1-1-0.5-1.8-1.3-2.5c0.8-0.8,1.9-0.8,2.8-1.3c0.8-0.5,1.6-0.9,2.5-1.4C63.7,63.7,63.4,65.2,64.5,65.2
	C64.5,65.2,64.5,65.2,64.5,65.2z"/>
<path class="st50" d="M58,68.9c0.1,1.2-1,2.5-2.3,2.6c-1.1,0.1-2.2-1-2.3-2.2c-0.1-1.4,0.9-2.5,2.2-2.5C56.7,66.7,57.9,67.8,58,68.9
	z"/>
<path class="st11" d="M57.7,65.2c1.3-2.7,1.4-2.7,1.2-4.9c-0.1-0.7,1.3-1.9-0.5-2.3c-0.1,0,0.5-1.2,0.8-1.9c2.1,0.1,2,0.1,1.9,2.1
	c0,0.8-0.2,1.5-0.1,2.3C61.1,62.9,59.8,64.3,57.7,65.2z"/>
<path class="st51" d="M48.2,115.2c0-1.1,0-2.2,0.1-3.3c0.4-0.3,0.8-0.5,0.6-1.1c-0.2-0.6-0.1-1.2,0-1.9c1.2,1.2,1.9,5.3,1.3,7.7
	c-1.2-0.6-0.9-1.8-1.1-2.8C48.5,114.1,48.8,114.9,48.2,115.2z"/>
<path class="st52" d="M39.5,87.3c0.2,0,0.3,0,0.5,0.1c0.2,0.3,0.3,0.6,0.5,0.9c1.9,0.4,3.3,1.5,4.4,3C42.4,91.8,40.6,90.5,39.5,87.3
	z"/>
<path class="st21" d="M50,105.1c-1-1-0.9-2.2-1.1-3.3c0-0.3-0.2-0.9,0.4-0.9c0.7,0,0.7,0.5,0.7,1C50,103,50,104.1,50,105.1z"/>
<path class="st47" d="M58.8,73.4c0.7,0.7,0.3,1.6,0.4,2.4C58.5,75.2,58.8,74.3,58.8,73.4z"/>
<path class="st2" d="M47.7,122.9c-0.2-0.1-0.6,0-0.4-0.3c0-0.1,0.4-0.1,0.6-0.1c0.1,0,0.2,0.1,0.4,0.2
	C48,122.7,47.8,122.8,47.7,122.9z"/>
<path class="st53" d="M12.6,65.3c0.5,1-0.2,2,0.2,3c-1.3,0.2-0.5,1.8-1.1,2.1c-1.3,0.7-0.8,1.1,0,1.6c0.3,0.2,0.6,0.3,0.5,0.7
	c-0.5,0.4-1.1,0.2-1.6,0.2c-1.3-1.8-0.2-3.6,0.2-5.3C11.1,66.8,11.5,65.7,12.6,65.3z"/>
<path class="st53" d="M11.2,75.8c0,0.2,0,0.4,0,0.5c-1-1-0.8-2.2-0.5-3.4c0.3,0.5,0.8,0.6,1.2,0.5c1.5-0.2-0.2,1.8,1.2,1.7
	c0,0-0.3,0.2-0.4,0.2C12.1,75.4,11.6,75.3,11.2,75.8z"/>
<path class="st53" d="M15.5,61.4c-0.1,2.3-0.1,2.3-2.4,2.4C13.5,62.6,14.5,62,15.5,61.4z"/>
<path class="st53" d="M13.1,63.8c0.3,0.6,1.2,0.3,1.6,1.1c-0.6,0.6-1.5-0.3-2.1,0.3C12.9,64.8,11.8,63.9,13.1,63.8z"/>
<path class="st25" d="M14.1,96.9c-0.3,0.3-0.6,0.6-0.8,0c-0.1-0.2,0.1-0.6,0.2-0.9c0.1-0.3,0.1-0.9,0.6-0.8c0.6,0.1,0.4,0.7,0.4,1.1
	C14.4,96.6,14.3,96.8,14.1,96.9z"/>
<path class="st54" d="M36.6,28.3c1.4,1,2.4-0.4,3.6-0.6c-0.9,1.9-2.6,2.6-4.3,1.6c-0.8-0.5-1.5-1.2-2-1.9c-0.1-0.4-0.2-0.7,0.2-1.1
	C34.9,26.9,35.2,28.3,36.6,28.3z"/>
<path class="st14" d="M70.2,35.5c-1.3,2.3-1,3.3,1.4,5.3c0,0.7,0.4,1.1,0.6,1.7c0.4,0.8,1,1.6-0.3,2.3c-0.2,0.1,0,0.8,0.1,1.3
	c-0.9-0.3-1.8-0.9-2.7,0c-0.9,0.9-1.7,0.8-2.7,0c-0.6-0.5-1.3-1-1.9-1.4c-0.5-0.4-1.3-0.7-1.1-1.6c0.2-0.8,1-0.5,1.6-0.6
	c0.5-0.1,0.7-0.2,0.5-0.7c0.3-0.9,1.5-1.6,0.4-2.7c-0.4-0.4-0.8-0.7-0.8,0.3c0,0.5-0.3,0.5-0.6,0.4c-1.2,0-2.4-0.6-3.7-0.6
	c-0.4,0-0.8-0.5-0.6-1.1c0.2-0.5,0.5-0.5,0.9-0.4c0.3,0.1,0.6,0.3,0.9,0.3c0.6,0.1,1.2-0.1,1.4-0.7c0.2-0.6-0.5-0.6-0.9-0.8
	c-0.6-0.3-0.2-0.6,0.1-0.9c0.8-0.1,1.2,0.8,1.9,0.9c0.9-0.4,0-1.5,0.9-2.1C67.2,34.9,68.7,35.1,70.2,35.5z"/>
<path class="st55" d="M53.4,54.7c0.8,0,1.6,0,2.4,0c-1.1-0.5-2.1-0.9-3.2-1.3c-0.9-0.3-1-0.9-1.1-1.6c-0.4-0.7-0.2-1.5,0.4-1.6
	c2.2-0.6,1.9-2.4,2.1-3.9c0.1-1.1,0-2.2,1-3c0.5,0,1-0.9,1.4-0.1c0.8,1.7,2.3,2.7,3.4,4c0.7,1.2,0.9,2.6,1.2,3.9
	c0.2,0.7-0.4,2.4-1.6,2.8c-1.2,0.4-2.1,1.4-3.4,1.4C55,55,54.1,55.5,53.4,54.7z"/>
<path class="st56" d="M54.9,43.2c-0.3,2.3-0.4,4.6-1.4,6.8c-0.3,0.6-0.4,0.5-0.9,0.3c-1.1-0.3-0.9,0.8-1.2,1.4
	c-0.2,0.4-0.4,0.8-0.6,1.3c-1.3-0.6-2.5-1.1-3.3-2.3c1.3-0.3,2.3-1.2,3.2-1.9c1.2-0.9,0.7-2.4,0.2-4c1.6,0.7,1.1,2.4,2.5,3.3
	c0-2.4,0-4.6,0-6.8c0.5-0.7,0.4-2.1,1.9-1.9c0,0,0,0,0,0c0.4,0.3,0.1,0.9,0.4,1.3c0,0.5-0.4,0.7-0.9,0.7
	C54.5,41.9,54.5,42.6,54.9,43.2L54.9,43.2z"/>
<path class="st57" d="M64.7,46.8c-0.1,0.4-0.4,0.6-0.7,0.6c-0.6-0.1-1.5-0.1-1.7-0.6c-0.5-1.2-1.6-1.3-2.6-1.7
	c-1.5-0.6-2.1-2.1-2.6-3.5c-0.3-0.8,0.3-1.5,1-2c0.7-0.4,1.1,0.1,1.5,0.7c1.5,2,2.9,4.2,4.7,6C64.5,46.4,64.6,46.6,64.7,46.8z"/>
<path class="st58" d="M66.7,51.8c-1.2,0.5-2.5,1-3.7,1.6c0,0-0.1-0.1-0.1-0.1c-0.1-0.6-0.1-1.2,0-1.8c0.4-0.8,0-2.3,1.1-2.4
	c1.1-0.1,2.2,0.7,3,1.7C67.4,51.3,66.8,51.5,66.7,51.8z"/>
<path class="st59" d="M66,41.7c0.4,0.3,0.8,0.5,0.7,1.2c-0.8-0.2-1.6,0.4-2.5,0C64,43.8,64.9,44,65,44.6c-1.8-0.4-1.9-1.8-2-3.2
	c0.1-0.1,0.1-0.2,0.2-0.3c0.6,0.1,1.2,0.2,1.8-0.1C65.6,40.8,65.2,42.3,66,41.7z"/>
<path class="st59" d="M62.9,41.4c-0.7,0.3-1.3,0.4-1.8-0.7c0.7,0.2,1.5-0.8,2,0.5C63.1,41.2,63,41.3,62.9,41.4z"/>
<path class="st11" d="M62.9,51.5c0,0.6,0,1.2,0,1.8C62.4,52.7,62.5,52.1,62.9,51.5z"/>
<path class="st8" d="M54.9,43.2c-0.5-0.6-0.7-1.3,0-1.9C54.8,41.9,54.7,42.6,54.9,43.2z"/>
<path class="st8" d="M55.7,40.6c-0.5-0.3-0.3-0.8-0.4-1.3C55.8,39.6,55.6,40.2,55.7,40.6z"/>
<path class="st22" d="M15,82.1c0,0.3,0,0.6-0.3,0.7c-0.1,0-0.3-0.1-0.3-0.2C14.5,82.3,14.8,82.2,15,82.1L15,82.1z"/>
<path class="st1" d="M37.1,58.6c-0.6,0-1.2,0.2-1.5-0.5C36.2,58,36.8,58,37.1,58.6z"/>
<path class="st1" d="M35.7,58.1c-0.6,0-1.1,0-1.5-0.5C34.7,57.7,35.4,57.4,35.7,58.1z"/>
<path class="st1" d="M46.7,51.8c0.8,0,1.2,0.6,1.7,1.1C47.1,53.9,47.2,52.4,46.7,51.8z"/>
<path class="st1" d="M47.9,55.9c-1.1-0.6-0.6-1.1,0-1.8C48.1,54.7,48.3,55.3,47.9,55.9z"/>
<path class="st1" d="M44.5,55.9c0-0.5-0.1-1,0-1c0.5-0.2,0.2,0.3,0.3,0.4C44.7,55.4,44.6,55.6,44.5,55.9z"/>
<path class="st1" d="M46.3,56.4c0.2,0.3,0.2,0.5,0,0.5c-0.3,0.1-0.5-0.1-0.5-0.3c0-0.2,0.1-0.4,0.1-0.6
	C46.1,56.2,46.3,56.4,46.3,56.4z"/>
<path class="st1" d="M46.3,51.3c0.2,0.2,0.3,0.4,0.5,0.5c-0.3,0-0.5,0.4-0.8,0.1C45.8,51.7,46,51.4,46.3,51.3z"/>
</svg>
